<svg id="Capa_1" data-name="Capa 1" xmlns="http://www.w3.org/2000/svg" viewBox="0 0 48 48"><defs><style>.cls-3{fill:#ffea27}.cls-4{fill:#fff}</style></defs><path fill="none" d="M0 0h48v48H0z"/><g id="Elipse_1030" data-name="Elipse 1030"><circle cx="24" cy="24" r="24" fill="#95a6b1"/><path class="cls-3" d="M24 48a24 24 0 1124-24 24 24 0 01-24 24zm0-46a22 22 0 1022 22A22 22 0 0024 2z"/></g><g id="Grupo_7535" data-name="Grupo 7535"><g id="Grupo_7534" data-name="Grupo 7534"><path class="cls-4" d="M37.69 37.77H10.31a1 1 0 01-1-1v-22.5a1 1 0 011-1h10a1 1 0 010 2h-9v20.5h25.38v-20.5H35a1 1 0 010-2h2.66a1 1 0 011 1v22.5a1 1 0 01-.97 1z" id="Trazado_6329" data-name="Trazado 6329"/><path class="cls-4" d="M21.15 31a.91.91 0 01-.51-.14 1 1 0 01-.49-.87l.09-8.35a1 1 0 01.51-.86 1 1 0 011 0L28.93 25a1 1 0 010 1.73l-7.27 4.1a1.11 1.11 0 01-.51.17zm1.07-7.6l-.06 4.88 4.26-2.39z" id="Trazado_6330" data-name="Trazado 6330"/></g><path class="cls-3" d="M27.57 18.21a4 4 0 010-8 4 4 0 014 4 4 4 0 01-4 4zm0-6a2 2 0 000 4 2 2 0 002-2 2 2 0 00-2-2z" id="Trazado_6331" data-name="Trazado 6331"/></g></svg>