<svg id="Capa_1" data-name="Capa 1" xmlns="http://www.w3.org/2000/svg" viewBox="0 0 48 48"><defs><style>.cls-3{fill:#ffea27}.cls-4{fill:#fff}</style></defs><path fill="none" d="M0 0h48v48H0z"/><g id="Elipse_1030" data-name="Elipse 1030"><circle cx="24" cy="24" r="24" fill="#95a6b1"/><path class="cls-3" d="M24 48a24 24 0 1124-24 24 24 0 01-24 24zm0-46a22 22 0 1022 22A22 22 0 0024 2z"/></g><g id="Grupo_7520" data-name="Grupo 7520"><g id="Grupo_7523" data-name="Grupo 7523"><g id="Grupo_7522" data-name="Grupo 7522"><g id="Grupo_7521" data-name="Grupo 7521"><path class="cls-4" d="M32.66 27.47a1 1 0 01-1-1v-9.83l-2.45-2.51h-8.13a1 1 0 010-2h8.55a1 1 0 01.72.3l3 3.11a1 1 0 01.28.69v10.24a1 1 0 01-.97 1z" id="Trazado_6318" data-name="Trazado 6318"/><path class="cls-4" d="M32.66 38.58h-19a1 1 0 01-1-1V21.27a1 1 0 012 0v15.31h17V27a1 1 0 012 0v10.58a1 1 0 01-1 1z" id="Trazado_6319" data-name="Trazado 6319"/><g id="Grupo_7520-2" data-name="Grupo 7520-2"><path class="cls-4" d="M26.15 33a1 1 0 01-.71-.3 1 1 0 010-1.42l11.17-10.9A1 1 0 0138 21.81L26.85 32.72a.94.94 0 01-.7.28z" id="Línea_1701" data-name="Línea 1701"/></g></g><path class="cls-4" d="M26.15 20h-7.38a1 1 0 110-2h7.38a1 1 0 010 2z" id="Línea_1703" data-name="Línea 1703"/><path class="cls-4" d="M23.49 26.18h-4.72a1 1 0 010-2h4.72a1 1 0 110 2z" id="Línea_1704" data-name="Línea 1704"/><path class="cls-4" d="M21.71 32.33h-2.94a1 1 0 110-2h2.94a1 1 0 010 2z" id="Línea_1705" data-name="Línea 1705"/></g><path class="cls-3" d="M13.69 17.4a4 4 0 010-8 4 4 0 012.82 1.16 4 4 0 011.17 2.82 4 4 0 01-1.07 2.72 4 4 0 01-2.92 1.3zm0-6a2 2 0 000 4 2 2 0 002-2 2 2 0 00-2-2z" id="Trazado_6320" data-name="Trazado 6320"/></g></g></svg>