<svg id="Capa_1" data-name="Capa 1" xmlns="http://www.w3.org/2000/svg" viewBox="0 0 48 48"><defs><style>.cls-3{fill:#ffea27}.cls-4{fill:#fff}</style></defs><path fill="none" d="M0 0h48v48H0z"/><g id="Elipse_1030" data-name="Elipse 1030"><circle cx="24" cy="24" r="24" fill="#95a6b1"/><path class="cls-3" d="M24 48a24 24 0 1124-24 24 24 0 01-24 24zm0-46a22 22 0 1022 22A22 22 0 0024 2z"/></g><g id="Grupo_7528" data-name="Grupo 7528"><g id="Grupo_7527" data-name="Grupo 7527"><path class="cls-3" d="M13 22.47a4 4 0 114-4 4 4 0 01-4 4zm0-6a2 2 0 000 4 2 2 0 002-2 2 2 0 00-2-1.98z" id="Trazado_6321" data-name="Trazado 6321"/><g id="Grupo_7526" data-name="Grupo 7526"><g id="Grupo_7525" data-name="Grupo 7525"><g id="Grupo_7524" data-name="Grupo 7524"><path class="cls-4" d="M28.52 34.55a1 1 0 01-.63-.22l-5.6-4.56h-8.48a1 1 0 01-1-1v-3.14a1 1 0 012 0v2.14h7.84a1 1 0 01.63.22l4.24 3.46V16.53l-4.25 3.4a.92.92 0 01-.62.22H20.1a1 1 0 010-2h2.2l5.6-4.48a1 1 0 011.1-.13 1 1 0 01.56.91v19.1a1 1 0 01-.57.91 1 1 0 01-.47.09z" id="Trazado_6322" data-name="Trazado 6322"/><path class="cls-4" d="M35.64 31.3a1 1 0 01-.78-1.62A9.94 9.94 0 0037 23.76a8.07 8.07 0 00-2-5.4 1 1 0 111.51-1.31A10.05 10.05 0 0139 23.79a12 12 0 01-2.54 7.13 1 1 0 01-.82.38z" id="Trazado_6323" data-name="Trazado 6323"/><path class="cls-4" d="M32.58 27.17A1 1 0 0132 27a1 1 0 01-.16-1.41 2.8 2.8 0 00.58-1.64 2.11 2.11 0 00-.52-1.42 1 1 0 011.51-1.32 4.18 4.18 0 011 2.76 4.83 4.83 0 01-1 2.86 1 1 0 01-.83.34z" id="Trazado_6324" data-name="Trazado 6324"/></g></g></g></g></g></svg>