<svg id="Capa_1" data-name="Capa 1" xmlns="http://www.w3.org/2000/svg" viewBox="0 0 48 48"><defs><style>.cls-2{fill:#fff}.cls-3{fill:#95a6b1}</style></defs><path fill="none" d="M0 0h48v48H0z"/><g id="Elipse_1030" data-name="Elipse 1030"><circle class="cls-2" cx="24" cy="24" r="24"/><path class="cls-2" d="M24 48a24 24 0 1124-24 24 24 0 01-24 24zm0-46a22 22 0 1022 22A22 22 0 0024 2z"/></g><g id="Grupo_7533" data-name="Grupo 7533"><g id="Grupo_7532" data-name="Grupo 7532"><g id="Grupo_7531" data-name="Grupo 7531"><g id="Grupo_7530" data-name="Grupo 7530"><g id="Grupo_7529" data-name="Grupo 7529"><path class="cls-3" d="M37.58 38.34H14a1 1 0 01-1-1V21.09a1 1 0 112 0v15.25h21.58V14.73H20.91a1 1 0 010-2h16.67a1 1 0 011 1v23.61a1 1 0 01-1 1z" id="Trazado_6325" data-name="Trazado 6325"/></g></g><path class="cls-3" d="M29.42 33.55a1 1 0 01-.7-.28l-8.9-8.81-5.07 5.39a1 1 0 01-1.46-1.37l5.78-6.14a1 1 0 011.43 0l9.63 9.52a1 1 0 010 1.42 1 1 0 01-.71.27z" id="Trazado_6326" data-name="Trazado 6326"/><path class="cls-3" d="M37.39 31.34a1 1 0 01-.56-.18l-4.49-3.06-4.44 3a1 1 0 01-1.39-.28 1 1 0 01.28-1.38l5-3.34a1 1 0 011.12 0L38 29.51a1 1 0 01.26 1.39 1 1 0 01-.87.44z" id="Trazado_6327" data-name="Trazado 6327"/><path class="cls-3" d="M29.93 24.05a3.37 3.37 0 113.37-3.37 3.37 3.37 0 01-3.37 3.37zm0-4.73a1.37 1.37 0 101.37 1.36 1.37 1.37 0 00-1.37-1.36z" id="Elipse_1027" data-name="Elipse 1027"/></g><path d="M13.42 17.64a4 4 0 114-4 4 4 0 01-4 4zm0-6a2 2 0 100 4 2 2 0 002-2 2 2 0 00-2.01-1.98z" fill="#ffea27" id="Trazado_6328" data-name="Trazado 6328"/></g></g></svg>