<svg xmlns="http://www.w3.org/2000/svg" viewBox="0 0 120 120"><defs><style>.cls-2{fill:#ffea27}.cls-3{mix-blend-mode:multiply}.cls-4{fill:#f4d314}.cls-5{fill:#95a6b1}</style></defs><g style="isolation:isolate"><g id="Capa_1" data-name="Capa 1"><path class="cls-2" d="M58.22 116.23H40a2 2 0 110-4h18.2a2 2 0 010 4zm21.94 0h-9.11a2 2 0 010-4h9.11a2 2 0 010 4zm12.84 0a2 2 0 01-.76-.15 2 2 0 01-.65-.44 1.85 1.85 0 01-.43-.64 2 2 0 01-.15-.77 2.56 2.56 0 010-.39 2.29 2.29 0 01.12-.37 1.92 1.92 0 01.18-.35 1.81 1.81 0 01.25-.3 2 2 0 011.81-.55 1.73 1.73 0 01.37.11 2.37 2.37 0 01.35.19 1.73 1.73 0 01.3.25 2 2 0 01.59 1.41 2 2 0 01-2 2z"/><g class="cls-3"><path class="cls-4" d="M47.52 116.23H29.31a2 2 0 110-4h18.21a2 2 0 010 4z"/></g><path class="cls-2" d="M74.7 104H29.31a2 2 0 010-4H74.7a2 2 0 010 4z"/><g class="cls-3"><path class="cls-4" d="M29.31 104a2 2 0 01-1.41-.59 2 2 0 010-2.83 1.81 1.81 0 01.3-.25 2.31 2.31 0 01.35-.18 2.29 2.29 0 01.37-.12 2 2 0 011.8.55 2 2 0 01-1.41 3.42z"/></g><g class="cls-3"><path class="cls-4" d="M93 104H67.2a2 2 0 110-4H93a2 2 0 010 4z"/></g><path class="cls-2" d="M48.69 31.85a8.42 8.42 0 116.19-2.69 8.45 8.45 0 01-6.19 2.69zm0-12.88a4.44 4.44 0 100 8.88 4.43 4.43 0 004.44-4.44A4.44 4.44 0 0048.69 19z"/><path class="cls-5" d="M94.06 57.75a2 2 0 01-.79-3.84 14.3 14.3 0 005.82-5.78l.07-.13 4.84-9.07-20.55 2.58-4.74 6a2 2 0 01-1.57.76H54.45a2 2 0 01-1.6-.8l-4.39-5.87H14.74v4.63h5.31a2 2 0 011.77 1.07l.19.35c1.48 2.85 1.37 5.6-.33 7.75a2 2 0 01-3.14-2.4 2.48 2.48 0 00.25-2.69h-6a2 2 0 01-2-2v-8.68a2 2 0 012-2h36.67a2 2 0 011.61.81l4.38 5.86h20.72l4.64-5.9a2 2 0 011.32-.75l25.18-3.17a2 2 0 012 2.92l-6.61 12.43c-1 2.26-4.4 6.28-7.88 7.76a2 2 0 01-.76.16z"/><path class="cls-5" d="M46.14 41.63h-23.6a2 2 0 01-2-2V31.5a2 2 0 012-2H32v-4.13a2 2 0 012-2h2.92a2 2 0 010 4H36v4.13a2 2 0 01-2 2h-9.46v4.13h19.6v-2.24a2 2 0 014 0v4.24a2 2 0 01-2 2z"/><path class="cls-5" d="M30.35 33.5h-6a2 2 0 01-2-2l-.22-14.66a2 2 0 012-2h6.09a2 2 0 012 2l.11 14.65a1.94 1.94 0 01-.58 1.42 2 2 0 01-1.4.59zm-4-4h2l-.09-10.65h-2.08zm56.03 12.13H46.14a2 2 0 010-4h36.24a2 2 0 010 4zM40 36.71a2 2 0 01-2-2V32.3a2 2 0 014 0v2.41a2 2 0 01-2 2zM63.07 78.5h-18.7a12.24 12.24 0 01-12.23-12.24V55.75a2 2 0 012-2h7a2 2 0 012 2v10.51a1.23 1.23 0 001.23 1.24h18.7a2 2 0 012 2v7a2 2 0 01-2 2zM36.14 57.75v8.51a8.24 8.24 0 008.23 8.24h16.7v-3h-16.7a5.24 5.24 0 01-5.23-5.24v-8.51z"/><path class="cls-5" d="M69.51 82.65h-6.44a2 2 0 01-2-2V65.46a2 2 0 012-2h6.44a2 2 0 012 2v15.19a2 2 0 01-2 2zm-4.44-4h2.44V67.46h-2.44z"/><path class="cls-5" d="M105 78.5H69.51a2 2 0 01-2-2v-7a2 2 0 012-2H105a2 2 0 012 2v7a2 2 0 01-2 2zm-33.5-4H103v-3H71.51zm37.81-15.25a10.66 10.66 0 01-6.08-1.78 7.27 7.27 0 00-8.06 0 11.26 11.26 0 01-12.15 0 7.27 7.27 0 00-8.06 0 11.26 11.26 0 01-12.15 0 7.27 7.27 0 00-8.06 0 11.26 11.26 0 01-12.15 0 7.27 7.27 0 00-8.06 0 10.65 10.65 0 01-6.07 1.78 10.66 10.66 0 01-6.08-1.78 6.76 6.76 0 00-4-1.22 6.73 6.73 0 00-4 1.22 10.66 10.66 0 01-6.08 1.78 2 2 0 110-4 6.76 6.76 0 004-1.22 10.62 10.62 0 016.07-1.78A10.66 10.66 0 0124.43 54a6.76 6.76 0 004 1.22 6.75 6.75 0 004-1.22 11.26 11.26 0 0112.15 0 7.27 7.27 0 008.06 0 11.26 11.26 0 0112.15 0 7.27 7.27 0 008.06 0 11.24 11.24 0 0112.14 0 7.28 7.28 0 008.07 0 11.24 11.24 0 0112.14 0 6.76 6.76 0 004 1.22 2 2 0 010 4zm0 31.84a10.66 10.66 0 01-6.08-1.78 7.27 7.27 0 00-8.06 0 11.26 11.26 0 01-12.15 0 7.27 7.27 0 00-8.06 0 11.26 11.26 0 01-12.15 0 7.27 7.27 0 00-8.06 0 11.26 11.26 0 01-12.15 0 7.27 7.27 0 00-8.06 0 10.65 10.65 0 01-6.07 1.78 10.66 10.66 0 01-6.08-1.78 6.76 6.76 0 00-4-1.22 6.73 6.73 0 00-4 1.22 10.66 10.66 0 01-6.08 1.78 2 2 0 110-4 6.76 6.76 0 004-1.22 10.62 10.62 0 016.07-1.78 10.66 10.66 0 016.08 1.78 6.76 6.76 0 004 1.22 6.75 6.75 0 004-1.22 11.26 11.26 0 0112.15 0 7.27 7.27 0 008.06 0 11.26 11.26 0 0112.15 0 7.27 7.27 0 008.06 0 11.24 11.24 0 0112.14 0 7.28 7.28 0 008.07 0 11.24 11.24 0 0112.14 0 6.76 6.76 0 004 1.22 2 2 0 010 4z"/><path fill="none" d="M0 0h120v120H0z"/></g></g></svg>