<svg xmlns="http://www.w3.org/2000/svg" viewBox="0 0 120 120"><defs><style>.cls-3{fill:#ffea27}.cls-4{mix-blend-mode:multiply}.cls-5{fill:#f4d314}.cls-6{fill:#95a6b1}</style></defs><g style="isolation:isolate"><g id="Capa_1" data-name="Capa 1"><path fill="none" d="M-.18.06h120.36v119.87H-.18z"/><path class="cls-3" d="M53.77 116.23h-18.2a2 2 0 010-4h18.2a2 2 0 010 4zm21.94 0H66.6a2 2 0 010-4h9.11a2 2 0 010 4zm12.8 0a2 2 0 01-1.42-.59 1.85 1.85 0 01-.43-.64 2 2 0 01-.15-.77 1.72 1.72 0 010-.39 1.58 1.58 0 01.11-.37 1.92 1.92 0 01.18-.35 2.48 2.48 0 01.25-.3 2.06 2.06 0 012.83 0 1.81 1.81 0 01.25.3 1.92 1.92 0 01.18.35 2.29 2.29 0 01.12.37 2.58 2.58 0 010 .39 2 2 0 01-.16.77 1.85 1.85 0 01-.43.64 2 2 0 01-1.33.59z"/><g class="cls-4"><path class="cls-5" d="M43.07 116.23H24.86a2 2 0 010-4h18.21a2 2 0 110 4z"/></g><path class="cls-3" d="M70.25 104H24.86a2 2 0 010-4h45.39a2 2 0 010 4z"/><g class="cls-4"><path class="cls-5" d="M24.86 104a2 2 0 01-2-2 2.09 2.09 0 01.15-.76 1.86 1.86 0 01.19-.34 1.48 1.48 0 01.25-.31 2 2 0 011.8-.55 2.4 2.4 0 01.38.12 2.21 2.21 0 01.34.18 2.42 2.42 0 01.31.25 2.6 2.6 0 01.25.31 1.83 1.83 0 01.18.34 2.09 2.09 0 01.15.76 2 2 0 01-.58 1.42 2 2 0 01-1.42.58z"/></g><g class="cls-4"><path class="cls-5" d="M88.51 104H62.75a2 2 0 010-4h25.76a2 2 0 010 4z"/></g><path class="cls-3" d="M28.78 44.58A12 12 0 1133 21.33a12 12 0 017.2 15 12.07 12.07 0 01-6.4 7.14 11.93 11.93 0 01-5.02 1.11zm0-20a8 8 0 00-7.49 5.21 7.92 7.92 0 00.22 6.12 8 8 0 0010.6 4 8 8 0 004-10.6 8 8 0 00-7.28-4.68z"/><path class="cls-6" d="M85.15 91.54H33.24a5.43 5.43 0 01-5.43-5.42V49a2 2 0 014 0v37.12a1.43 1.43 0 001.43 1.42h51.91A1.55 1.55 0 0086.7 86V42.59a2 2 0 014 0V86a5.56 5.56 0 01-5.55 5.54zm-23.4-67.89H44.11a2 2 0 010-4h17.06v-8.17h-29.7v3.45a2 2 0 01-4 0v-3.75a3.58 3.58 0 013.43-3.7h30.85a3.57 3.57 0 013.42 3.7V20a3.56 3.56 0 01-3.42 3.65z"/><path class="cls-6" d="M45.73 64.92h-7a3.19 3.19 0 01-3.19-3.19v-7.66a3.19 3.19 0 013.19-3.19h7a3.2 3.2 0 013.19 3.19v7.66a3.2 3.2 0 01-3.19 3.19zm-6.19-4h5.38v-6h-5.38zm23.21 4h-7a3.19 3.19 0 01-3.19-3.19v-7.66a3.19 3.19 0 013.19-3.19h7A3.2 3.2 0 0166 54.07v7.66a3.2 3.2 0 01-3.25 3.19zm-6.18-4H62v-6h-5.43zm23.21 4h-7a3.19 3.19 0 01-3.19-3.19v-7.66a3.19 3.19 0 013.19-3.19h7A3.19 3.19 0 0183 54.07v7.66a3.19 3.19 0 01-3.22 3.19zm-6.18-4H79v-6h-5.4zm-3.06 30.62a2 2 0 01-2-2V75.21H51.46v14.33a2 2 0 01-4 0V74.4a3.19 3.19 0 013.19-3.19h18.7a3.19 3.19 0 013.19 3.19v15.14a2 2 0 01-2 2zm24.08-46.95H48.69a2 2 0 010-4h43.93V23.71H45.85a2 2 0 010-4h48.77a2 2 0 012 2v20.88a2 2 0 01-2 2z"/><path class="cls-6" d="M75.78 39.17a1.5 1.5 0 01-1.23-.64l-4.76-6.85v6a1.5 1.5 0 01-3 0V26.89a1.5 1.5 0 012.73-.89l4.76 6.85v-6a1.5 1.5 0 013 0v10.82a1.48 1.48 0 01-1 1.43 1.41 1.41 0 01-.5.07zm-11.44 0a1.5 1.5 0 01-1.34-.91l-3.21-7.57-3.29 7.58a1.5 1.5 0 01-2.76-1.19l4.64-10.78a1.51 1.51 0 011.38-.91 1.51 1.51 0 011.37.92l4.58 10.78a1.5 1.5 0 01-.79 2 1.52 1.52 0 01-.58.08z"/><path class="cls-6" d="M62.73 35.66h-6.12a1.5 1.5 0 010-3h6.12a1.5 1.5 0 110 3zm18.33 3.51a1.5 1.5 0 01-1.5-1.5V26.89a1.5 1.5 0 013 0v10.78a1.5 1.5 0 01-1.5 1.5z"/></g></g></svg>