<svg xmlns="http://www.w3.org/2000/svg" viewBox="0 0 120 120"><defs><style>.cls-2{fill:none}.cls-3{fill:#ffea27}.cls-4{mix-blend-mode:multiply}.cls-5{fill:#f4d314}.cls-6{fill:#95a6b1}</style></defs><g style="isolation:isolate"><g id="Capa_1" data-name="Capa 1"><path class="cls-2" d="M0 0h120v120H0z"/><path class="cls-3" d="M53.29 115.89H35.08a2 2 0 010-4h18.21a2 2 0 110 4zm21.93 0h-9.1a2 2 0 010-4h9.1a2 2 0 010 4zm12.78 0a2 2 0 01-1.42-.58 3.76 3.76 0 01-.25-.31 1.83 1.83 0 01-.18-.34 1.73 1.73 0 01-.11-.37 1.75 1.75 0 010-.4 2.09 2.09 0 01.15-.76 1.7 1.7 0 01.19-.35 2.25 2.25 0 01.24-.3 2.06 2.06 0 012.83 0 1.73 1.73 0 01.25.3 2.37 2.37 0 01.19.35 2.59 2.59 0 01.11.37 1.72 1.72 0 010 .39 1.75 1.75 0 010 .4 1.73 1.73 0 01-.11.37 1.41 1.41 0 01-.19.34 1.79 1.79 0 01-.25.31 2 2 0 01-1.45.58z"/><g class="cls-4"><path class="cls-5" d="M42.58 115.89H24.37a2 2 0 110-4h18.21a2 2 0 010 4z"/></g><path class="cls-3" d="M69.76 103.67H24.37a2 2 0 010-4h45.39a2 2 0 010 4z"/><g class="cls-4"><path class="cls-5" d="M24.38 103.67a2 2 0 01-1.42-.59 2 2 0 01-.58-1.41 2.56 2.56 0 010-.39 2.4 2.4 0 01.12-.38 2.21 2.21 0 01.18-.34 2.42 2.42 0 01.25-.31 2 2 0 011.81-.54 1.73 1.73 0 01.37.11 1.7 1.7 0 01.35.19 2.25 2.25 0 01.3.24 3.76 3.76 0 01.25.31 2.21 2.21 0 01.18.34 1.66 1.66 0 01.11.38 1.72 1.72 0 010 .39 2 2 0 01-2 2z"/></g><g class="cls-4"><path class="cls-5" d="M88 103.67H62.26a2 2 0 010-4H88a2 2 0 010 4z"/></g><path class="cls-3" d="M33.06 27.11a9.33 9.33 0 01-3.32-.61A9.5 9.5 0 0129.1 9a9.52 9.52 0 0112.59 4.69 9.44 9.44 0 01.38 6.93A9.55 9.55 0 0137 26.24a9.41 9.41 0 01-3.94.87zm0-15a5.5 5.5 0 00-1.92 10.65A5.5 5.5 0 0035 12.45a5.52 5.52 0 00-1.95-.35z"/><path class="cls-6" d="M41.79 89.7a15 15 0 01-15-15V33.07a2 2 0 014 0v41.6a11 11 0 0011 11h43.69V14.46H47.19a2 2 0 010-4h40.26a2 2 0 012 2v75.18a2 2 0 01-2 2l-25 .06z"/><path class="cls-6" d="M75.91 36.52H39.6a2 2 0 010-4h36.31a2 2 0 010 4zm.3 13.75H39.9a2 2 0 010-4h36.31a2 2 0 010 4zM62.28 63.21H39.53a2 2 0 010-4h22.75a2 2 0 010 4zm3.12 19.47h-.09a2 2 0 01-1.52-.81L60 76.7a2 2 0 013.22-2.37l2.33 3.17 7.6-8.58a2 2 0 013 2.65L66.9 82a2 2 0 01-1.5.68z"/><path class="cls-2" d="M0 0h120v120H0z"/></g></g></svg>