<svg id="Capa_1" data-name="Capa 1" xmlns="http://www.w3.org/2000/svg" viewBox="0 0 120 120"><defs><style>.cls-1{fill:#fff}.cls-3{opacity:.85}.cls-8{fill:#95a6b1}</style></defs><path class="cls-1" d="M46.38 115.09H38a2 2 0 010-4h8.39a2 2 0 010 4z"/><path class="cls-1" d="M27.93 102.83a2 2 0 01-1.41-.59 1.88 1.88 0 01-.44-.64 2 2 0 01-.15-.77 2 2 0 01.59-1.41 2.06 2.06 0 012.83 0 2.48 2.48 0 01.25.3 2.31 2.31 0 01.18.35 1.58 1.58 0 01.11.37 1.72 1.72 0 010 .39 2 2 0 01-2 2z" opacity=".8"/><g class="cls-3"><path class="cls-1" d="M79 115.12h-9.13a2 2 0 010-4H79a2 2 0 010 4z"/></g><path class="cls-1" d="M91.88 115.12a2 2 0 01-1.41-.59 1.88 1.88 0 01-.44-.64 2 2 0 01-.15-.77 2 2 0 01.59-1.41 2.06 2.06 0 012.83 0 2 2 0 01.58 1.41 2 2 0 01-.15.77 1.85 1.85 0 01-.43.64 1.79 1.79 0 01-.31.25 1.63 1.63 0 01-.34.19 1.73 1.73 0 01-.37.11 1.75 1.75 0 01-.4.04z"/><path class="cls-1" d="M46.22 115.12H27.93a2 2 0 010-4h18.29a2 2 0 010 4z" opacity=".7"/><path class="cls-1" d="M57 115.12H38.68a2 2 0 010-4H57a2 2 0 110 4zm16.54-12.29H27.93a2 2 0 110-4h45.61a2 2 0 010 4z" opacity=".6"/><path class="cls-1" d="M91.88 102.83H66a2 2 0 010-4h25.88a2 2 0 010 4z" opacity=".5"/><path class="cls-1" d="M73.57 102.83h-7.51a2 2 0 010-4h7.51a2 2 0 010 4z"/><path class="cls-8" d="M107.29 56.43H55a4.65 4.65 0 01-4.65-4.65v-6.11A4.65 4.65 0 0155 41h52.25a4.64 4.64 0 014.64 4.64v6.11a4.65 4.65 0 01-4.6 4.68zM55 45a.65.65 0 00-.65.64v6.11a.65.65 0 00.65.65h52.25a.65.65 0 00.64-.65v-6.08a.64.64 0 00-.64-.64z"/><path class="cls-8" d="M105.32 45H58.2a2 2 0 010-4h45.12V13a2.38 2.38 0 00-2.32-2.36H62.36a2.16 2.16 0 00-2.16 2.16v6.75a2 2 0 01-4 0V12.8a6.16 6.16 0 016.16-6.16H101a6.38 6.38 0 016.32 6.36v30a2 2 0 01-2 2z"/><path class="cls-8" d="M58.28 19a2 2 0 110-4h47a2 2 0 010 4z"/><path class="cls-8" d="M83.66 45a2 2 0 01-2-2V17a2 2 0 114 0v26a2 2 0 01-2 2z"/><path class="cls-8" d="M96.46 25.23h-12.8a2 2 0 010-4h12.8a2 2 0 010 4zm0 6.5h-12.8a2 2 0 010-4h12.8a2 2 0 010 4zm0 6.73h-12.8a2 2 0 010-4h12.8a2 2 0 010 4z"/><path class="cls-8" d="M96.5 45a2 2 0 01-2-2V17a2 2 0 114 0v26a2 2 0 01-2 2z"/><g class="cls-3"><path class="cls-1" d="M58.2 39.52a8.06 8.06 0 115.9-2.58 8.07 8.07 0 01-5.9 2.58zm0-12.11a4.06 4.06 0 000 8.11 4.06 4.06 0 004-4.06 4.05 4.05 0 00-4-4.05z"/></g><path class="cls-8" d="M73.86 74.39H34.31a2 2 0 01-2-2v-8a2 2 0 012-2h39.55a3 3 0 003-3v-5a2 2 0 012-2h8a2 2 0 012 2v5a15 15 0 01-15 15zm-37.55-4h37.55a11 11 0 0011-11v-3h-4v3a7 7 0 01-7 7H36.31z"/><path class="cls-8" d="M34.31 77.8H26.5a2 2 0 01-2-2V61a2 2 0 012-2h7.81a2 2 0 012 2v14.8a2 2 0 01-2 2zm-5.81-4h3.81V63H28.5z"/><path class="cls-8" d="M26.5 74.39H13.44a2 2 0 01-2-2v-8a2 2 0 012-2H26.5a2 2 0 012 2v8a2 2 0 01-2 2zm-11.06-4h9.06v-4h-9.06zm30.15-17.66a7.34 7.34 0 01-5.5-2.57c-1-1-1.52-1.43-2.71-1.43s-1.72.46-2.71 1.43a7.18 7.18 0 01-11 0c-1-1-1.52-1.43-2.71-1.43s-1.72.46-2.71 1.43a7.37 7.37 0 01-5.51 2.57 2 2 0 110-4c1.19 0 1.72-.47 2.72-1.44a7.19 7.19 0 0111 0c1 1 1.53 1.44 2.72 1.44s1.71-.47 2.71-1.44a7.19 7.19 0 0111 0c1 1 1.53 1.44 2.71 1.44a2 2 0 010 4zm64.34 36.99a8.73 8.73 0 01-6.13-2.46 4.94 4.94 0 00-7.17 0 8.87 8.87 0 01-12.26 0 5 5 0 00-7.18 0 8.87 8.87 0 01-12.26 0 4.94 4.94 0 00-7.17 0 8.88 8.88 0 01-12.27 0 5 5 0 00-7.18 0 8.87 8.87 0 01-12.26 0 5 5 0 00-7.19 0 8.71 8.71 0 01-6.13 2.46 2 2 0 010-4 4.89 4.89 0 003.59-1.55 8.91 8.91 0 0112.27 0 4.93 4.93 0 007.18 0 8.91 8.91 0 0112.27 0 4.92 4.92 0 007.17 0 8.89 8.89 0 0112.26 0 4.93 4.93 0 007.18 0 8.89 8.89 0 0112.26 0 4.93 4.93 0 007.18 0 8.89 8.89 0 0112.26 0 4.88 4.88 0 003.58 1.55 2 2 0 010 4z"/><path fill="none" d="M0 0h120v120H0z"/></svg>