<svg xmlns="http://www.w3.org/2000/svg" viewBox="0 0 120 120"><defs><style>.cls-3{fill:#ffea27}.cls-4{fill:#95a6b1}.cls-5{mix-blend-mode:multiply}.cls-6{fill:#f4d314}</style></defs><g style="isolation:isolate"><g id="Capa_1" data-name="Capa 1"><path fill="none" d="M0 0h120v120H0z"/><path class="cls-3" d="M33.3 26a9.86 9.86 0 119-13.95 9.86 9.86 0 01-4.87 13.06 9.69 9.69 0 01-4.13.89zm0-15.72a5.74 5.74 0 00-2.43.54 5.86 5.86 0 104.85 10.68 5.85 5.85 0 00-.39-10.81 5.85 5.85 0 00-2.05-.38z"/><path class="cls-4" d="M64.12 91.62H42.43A15.66 15.66 0 0126.79 76V32.39a2 2 0 014 0V76a11.65 11.65 0 0011.64 11.62h21.68l24.17-.05V12.79H48.1a2 2 0 010-4h42.18a2 2 0 012 2v78.78a2 2 0 01-2 2z"/><path class="cls-4" d="M59.49 75a2 2 0 01-2-2V45a2 2 0 014 0v28a2 2 0 01-2 2z"/><path class="cls-4" d="M59.67 51.85a2 2 0 01-1.41-.58 2 2 0 010-2.83L72.2 34.5a2 2 0 112.8 2.82l-13.94 14a2 2 0 01-1.39.53zm-.4 8.9a2 2 0 01-1.12-.34l-12-8.17a2 2 0 012.25-3.31l12 8.17a2 2 0 01-1.12 3.65z"/><path class="cls-4" d="M71.56 47.3A9.57 9.57 0 0164.8 31c3.24-3.25 14.66-5.31 16.91-5.69a2 2 0 011.75.56 2 2 0 01.54 1.71c-.38 2.26-2.44 13.67-5.69 16.92a9.5 9.5 0 01-6.75 2.8zm8-17.54c-4.8 1-10.49 2.61-11.91 4a5.57 5.57 0 107.87 7.88c1.41-1.4 3.02-7.08 4.02-11.88zM52.44 56.21a2 2 0 01-1.12-.34l-7.38-5a2 2 0 112.25-3.31l7.37 5a2 2 0 01.53 2.78 2 2 0 01-1.65.87z"/><path class="cls-4" d="M47 59.58a7.88 7.88 0 01-4.45-1.36c-3.19-2.17-6.27-11-7.13-13.63a2 2 0 01.24-1.74 2 2 0 011.57-.85c2.78-.17 12.11-.56 15.3 1.61a8 8 0 013.41 5.53 9.25 9.25 0 01-7 10.24 8.1 8.1 0 01-1.94.2zm-6.9-13.72c1.54 4.13 3.52 8.25 4.7 9a4 4 0 003.23.55A5.27 5.27 0 0052 49.69a4 4 0 00-1.71-2.8c-1.19-.8-5.75-1.13-10.15-1.03zm32.2 29.21H47.69a2 2 0 010-4H72.3a2 2 0 110 4z"/><path class="cls-3" d="M57.09 115.85H38.88a2 2 0 110-4h18.21a2 2 0 010 4zm21.91 0h-9.1a2 2 0 110-4H79a2 2 0 110 4zm12.82 0a2 2 0 01-2-2 2 2 0 01.59-1.42 2.08 2.08 0 012.83 0 2 2 0 01.58 1.42 2 2 0 01-.15.76 2.16 2.16 0 01-.43.65 2 2 0 01-.65.44 2 2 0 01-.77.15z"/><g class="cls-5"><path class="cls-6" d="M46.38 115.85h-18.2a2 2 0 010-4h18.2a2 2 0 010 4z"/></g><path class="cls-3" d="M73.56 103.62H28.18a2 2 0 010-4h45.38a2 2 0 010 4z"/><g class="cls-5"><path class="cls-6" d="M28.18 103.62a2 2 0 01-1.42-.59 2.48 2.48 0 01-.25-.3 2.21 2.21 0 01-.18-.34 2.2 2.2 0 01-.15-.77 2 2 0 01.58-1.41 1.79 1.79 0 01.31-.25 2.27 2.27 0 01.34-.19l.38-.11a2 2 0 011.8.55 1.81 1.81 0 01.25.3 2.37 2.37 0 01.19.35 2.26 2.26 0 01.11.37 1.72 1.72 0 010 .39 1.67 1.67 0 010 .39 2.38 2.38 0 01-.11.38 1.63 1.63 0 01-.19.34 1.42 1.42 0 01-.25.3 2 2 0 01-1.41.59z"/></g><g class="cls-5"><path class="cls-6" d="M91.82 103.62H66.06a2 2 0 010-4h25.76a2 2 0 010 4z"/></g></g></g></svg>