<svg id="Capa_1" data-name="Capa 1" xmlns="http://www.w3.org/2000/svg" viewBox="0 0 120 120"><defs><style>.cls-1{fill:#fff}.cls-3{opacity:.85}.cls-8{fill:#95a6b1}</style></defs><path class="cls-1" d="M46.47 115.09h-8.39a2 2 0 010-4h8.39a2 2 0 010 4z"/><path class="cls-1" d="M28 102.83a2 2 0 01-1.42-.59 1.85 1.85 0 01-.43-.64 2 2 0 01-.15-.77 2 2 0 01.58-1.41 2.34 2.34 0 01.3-.25 2.31 2.31 0 01.35-.18 2.65 2.65 0 01.37-.12 2 2 0 012.4 2 2 2 0 01-.16.77 1.85 1.85 0 01-.43.64 2 2 0 01-1.41.55z" opacity=".8"/><g class="cls-3"><path class="cls-1" d="M79.12 115.12H70a2 2 0 110-4h9.16a2 2 0 010 4z"/></g><path class="cls-1" d="M92 115.12a1.75 1.75 0 01-.4 0 1.73 1.73 0 01-.37-.11 1.41 1.41 0 01-.34-.19 1.79 1.79 0 01-.31-.25 1.85 1.85 0 01-.43-.64 2 2 0 01-.15-.77 1.72 1.72 0 010-.39 1.66 1.66 0 01.11-.38 2.21 2.21 0 01.18-.34 2.48 2.48 0 01.25-.3 2 2 0 011.81-.55 1.73 1.73 0 01.37.11 1.7 1.7 0 01.35.19 1.42 1.42 0 01.3.25 2 2 0 01.59 1.41 2.07 2.07 0 01-.15.77 2.15 2.15 0 01-.44.64 1.73 1.73 0 01-.3.25 1.7 1.7 0 01-.35.19 1.58 1.58 0 01-.37.11 1.72 1.72 0 01-.35 0z"/><path class="cls-1" d="M46.32 115.12H28a2 2 0 010-4h18.3a2 2 0 010 4z" opacity=".7"/><path class="cls-1" d="M57.08 115.12h-18.3a2 2 0 010-4h18.3a2 2 0 010 4zm16.55-12.29H28a2 2 0 110-4h45.63a2 2 0 010 4z" opacity=".6"/><path class="cls-1" d="M92 102.83H66.09a2 2 0 010-4H92a2 2 0 010 4z" opacity=".5"/><path class="cls-1" d="M73.66 102.83h-7.5a2 2 0 010-4h7.5a2 2 0 010 4z"/><g class="cls-3"><path class="cls-1" d="M32.78 29.08a9.5 9.5 0 118.62-13.44 9.44 9.44 0 01.38 6.93 9.54 9.54 0 01-5.07 5.66 9.44 9.44 0 01-3.93.85zm0-15a5.42 5.42 0 00-2.27.5 5.49 5.49 0 102.27-.5z"/></g><path class="cls-8" d="M41.73 91.68a15 15 0 01-15-15V35.06a2 2 0 014 0v41.6a11 11 0 0011 11h20.69l23-.05V16.44H47.14a2 2 0 110-4h40.25a2 2 0 012 2v75.19a2 2 0 01-2 2l-25 .05z"/><path class="cls-8" d="M75.09 77.33H39.73a3.41 3.41 0 01-3.11-4.82L53.4 35.37l1.82.83-1.82-.83a3.38 3.38 0 013-2 3.44 3.44 0 013.12 1.89l18.63 37.13a3.41 3.41 0 01-3.06 4.94zm-34.46-4h33.52L56.54 38.14z"/><path class="cls-8" d="M56.84 62.71a2 2 0 01-2-2V51a2 2 0 114 0v9.7a2 2 0 01-2 2.01z"/><ellipse class="cls-8" cx="56.84" cy="67.25" rx="2.82" ry="2.72"/><path class="cls-8" d="M62.59 47.47a1.72 1.72 0 01-1.48-.82c-.19-.29-4.48-7.23-2.43-13.74s9.56-9.73 9.88-9.86a1.75 1.75 0 012.16.68c.18.27 4.48 7.27 2.42 13.74-2.06 6.52-9.56 9.73-9.88 9.86a1.61 1.61 0 01-.67.14zM68.5 27c-2 1.11-5.38 3.48-6.48 7s.33 7.4 1.3 9.43c2-1.11 5.38-3.49 6.48-7 1.11-3.51-.33-7.43-1.3-9.43z"/><path class="cls-8" d="M62.59 47.47a1.63 1.63 0 01-.53-.08 1.75 1.75 0 01-1.14-2.2l3.32-10.53a1.75 1.75 0 013.34 1.06l-3.32 10.53a1.75 1.75 0 01-1.67 1.22z"/><path class="cls-8" d="M71.24 52.76c-4.72 0-8.67-3.66-8.84-3.82a1.74 1.74 0 01-.26-2.25c.14-.22 3.6-5.3 8.75-5.88s9.66 3.59 9.85 3.76a1.75 1.75 0 01.26 2.25c-.15.22-3.6 5.3-8.75 5.89-.34.03-.68.05-1.01.05zm-5.17-5.38c1.34.92 3.56 2.11 5.78 1.85a9.1 9.1 0 005.21-3.1c-1.34-.92-3.55-2.11-5.77-1.85a9.18 9.18 0 00-5.22 3.1z"/><path class="cls-8" d="M63.59 49.41a1.75 1.75 0 01-.19-3.49l8-.9a1.75 1.75 0 11.4 3.48l-8 .9z"/><path fill="none" d="M0 0h120v120H0z"/></svg>