<svg id="Capa_1" data-name="Capa 1" xmlns="http://www.w3.org/2000/svg" viewBox="0 0 120 120"><defs><style>.cls-1{opacity:.85}.cls-2{fill:#fff}.cls-3{fill:#95a6b1}</style></defs><g class="cls-1"><path class="cls-2" d="M34.87 28.74a9.54 9.54 0 01-3.32-.6 9.5 9.5 0 1112-12.85 9.5 9.5 0 01-8.64 13.45zm0-15a5.56 5.56 0 00-2.29.5A5.5 5.5 0 0033 24.39a5.5 5.5 0 003.84-10.3 5.61 5.61 0 00-1.97-.35z"/></g><path class="cls-3" d="M43.87 91.7a15 15 0 01-15-15V35.08a2 2 0 014 0v41.6a11 11 0 0011 11h43.69V16.47H49.27a2 2 0 010-4h40.26a2 2 0 012 2v75.18a2 2 0 01-2 2h-25z"/><path class="cls-3" d="M67.28 48.32a2 2 0 01-1.85-1.24c-.13-.33-3.2-8 0-14.17s11.26-8 11.6-8.12a2 2 0 012.3 1.2c.13.32 3.19 8 0 14.16s-11.27 8.05-11.61 8.12a1.65 1.65 0 01-.44.05zm8.9-19.08c-2.12.79-5.6 2.49-7.19 5.52s-1 6.87-.41 9.06c2.13-.78 5.62-2.48 7.2-5.52l1.78.93-1.78-.93c1.58-3.01.97-6.86.4-9.06z" id="Trazado_6132" data-name="Trazado 6132"/><path class="cls-3" d="M67.28 48.32a2 2 0 01-1.77-2.92l5.1-9.79a2 2 0 013.55 1.85l-5.11 9.79a2 2 0 01-1.77 1.07z" id="Línea_1426" data-name="Línea 1426"/><path class="cls-3" d="M60.19 66.89A8.86 8.86 0 1169 58a8.87 8.87 0 01-8.81 8.89zm0-13.72A4.86 4.86 0 1065 58a4.87 4.87 0 00-4.81-4.83z"/><path class="cls-3" d="M60.19 78.67A20.69 20.69 0 0157 78.4a2 2 0 01-1.52-1.17l-1.91-4.31a2.87 2.87 0 00-3-1.72l-4.71.51a2 2 0 01-1.74-.71 20.74 20.74 0 01-3.18-5.52 2 2 0 01.25-1.9L44 59.75a2.91 2.91 0 000-3.44l-2.8-3.81a2 2 0 01-.25-1.91 20.68 20.68 0 013.18-5.51 2 2 0 011.77-.73l4.71.51a2.88 2.88 0 003-1.72l1.91-4.32A2 2 0 0157 37.65a23.26 23.26 0 013.16-.27 20.67 20.67 0 013.18.27 2 2 0 011.52 1.17l1.91 4.32a2.89 2.89 0 003 1.72l4.71-.51a2 2 0 011.77.73 20.68 20.68 0 013.18 5.51 2 2 0 01-.25 1.91l-2.8 3.81a2.91 2.91 0 000 3.44l2.8 3.81a2 2 0 01.25 1.9A20.74 20.74 0 0176.25 71a2 2 0 01-1.77.73l-4.71-.51a2.87 2.87 0 00-3 1.72l-1.91 4.31a2 2 0 01-1.52 1.17 20.67 20.67 0 01-3.15.25zm-1.51-4.08a13.77 13.77 0 003 0l1.45-3.29a6.88 6.88 0 017.06-4.08l3.58.39a16.4 16.4 0 001.5-2.6l-2.12-2.9a6.87 6.87 0 010-8.16l2.12-2.9a15.55 15.55 0 00-1.5-2.6l-3.58.38a6.86 6.86 0 01-7.06-4.08l-1.45-3.28a13.37 13.37 0 00-1.5-.09 14.91 14.91 0 00-1.51.1l-1.45 3.27a6.86 6.86 0 01-7.06 4.08l-3.58-.38a15.55 15.55 0 00-1.5 2.6L47.21 54a6.87 6.87 0 010 8.16L45.09 65a16.4 16.4 0 001.5 2.6l3.58-.39a6.87 6.87 0 017.06 4.08z"/><path class="cls-2" d="M46.47 115.09h-8.39a2 2 0 010-4h8.39a2 2 0 010 4z"/><path class="cls-2" d="M28 102.83a2 2 0 01-1.42-.59 1.85 1.85 0 01-.43-.64 2 2 0 01-.15-.77 2 2 0 01.58-1.41 2.34 2.34 0 01.3-.25 2.31 2.31 0 01.35-.18 2.65 2.65 0 01.37-.12 2 2 0 012.4 2 2 2 0 01-.16.77 1.85 1.85 0 01-.43.64 2 2 0 01-1.41.55z" opacity=".8"/><g class="cls-1"><path class="cls-2" d="M79.12 115.12H70a2 2 0 110-4h9.16a2 2 0 010 4z"/></g><path class="cls-2" d="M92 115.12a1.75 1.75 0 01-.4 0 1.73 1.73 0 01-.37-.11 1.41 1.41 0 01-.34-.19 1.79 1.79 0 01-.31-.25 1.85 1.85 0 01-.43-.64 2 2 0 01-.15-.77 1.72 1.72 0 010-.39 1.66 1.66 0 01.11-.38 2.21 2.21 0 01.18-.34 2.48 2.48 0 01.25-.3 2 2 0 011.81-.55 1.73 1.73 0 01.37.11 1.7 1.7 0 01.35.19 1.42 1.42 0 01.3.25 2 2 0 01.59 1.41 2.07 2.07 0 01-.15.77 2.15 2.15 0 01-.44.64 1.73 1.73 0 01-.3.25 1.7 1.7 0 01-.35.19 1.58 1.58 0 01-.37.11 1.72 1.72 0 01-.35 0z"/><path class="cls-2" d="M46.32 115.12H28a2 2 0 010-4h18.3a2 2 0 010 4z" opacity=".7"/><path class="cls-2" d="M57.08 115.12h-18.3a2 2 0 010-4h18.3a2 2 0 010 4zm16.55-12.29H28a2 2 0 110-4h45.63a2 2 0 010 4z" opacity=".6"/><path class="cls-2" d="M92 102.83H66.09a2 2 0 010-4H92a2 2 0 010 4z" opacity=".5"/><path class="cls-2" d="M73.66 102.83h-7.5a2 2 0 010-4h7.5a2 2 0 010 4z"/><path fill="none" d="M0 0h120v120H0z"/></svg>