<svg id="Capa_1" data-name="Capa 1" xmlns="http://www.w3.org/2000/svg" viewBox="0 0 120 120"><defs><style>.cls-1{opacity:.85}.cls-2{fill:#fff}.cls-3{fill:#95a6b1}</style></defs><g class="cls-1"><path class="cls-2" d="M32.33 43.38a9.51 9.51 0 113.94-.86 9.37 9.37 0 01-3.94.86zm0-15a5.61 5.61 0 00-2.28.49 5.5 5.5 0 004.57 10 5.49 5.49 0 002.72-7.28 5.5 5.5 0 00-5.03-3.2z"/></g><path class="cls-3" d="M100.61 84.71a2 2 0 01-2-2V55.85a.32.32 0 00-.33-.32h-72a.69.69 0 00-.69.69v24.86a2 2 0 01-4 0V56.22a4.7 4.7 0 014.69-4.69h72a4.33 4.33 0 014.33 4.32v26.86a2 2 0 01-2 2z"/><path class="cls-3" d="M23.54 63.9a2 2 0 010-4h35.28a2 2 0 110 4z"/><path class="cls-2" d="M44.32 61.87v20.87"/><path class="cls-3" d="M44.32 84.74a2 2 0 01-2-2V61.87a2 2 0 014 0v20.87a2 2 0 01-2 2z"/><path class="cls-3" d="M44.31 71H32.4a2 2 0 110-4h11.91a2 2 0 010 4zm.02 7.35H32.42a2 2 0 010-4h11.91a2 2 0 010 4z"/><path class="cls-3" d="M32.36 88.91a2 2 0 01-2-2v-25a2 2 0 114 0v25a2 2 0 01-2 2zm26.5.81a2 2 0 01-2-2v-34.1a2 2 0 114 0v34.1a2 2 0 01-2 2z"/><path class="cls-3" d="M90.31 55.51h-57.7a2 2 0 01-2-2v-6.3a2 2 0 114 0v4.3h53.7v-17a.36.36 0 00-.36-.36H46.22a2 2 0 010-4H88a4.37 4.37 0 014.36 4.36v19a2 2 0 01-2.05 2z"/><path class="cls-3" d="M80.5 34.17H51.78a2 2 0 01-2-2v-6.93A4.24 4.24 0 0154 21h24.56a3.94 3.94 0 013.94 3.93v7.24a2 2 0 01-2 2zm-26.72-4H78.5V25H54a.23.23 0 00-.23.24zM78.56 25zm11.83 17.12H45.52a2 2 0 010-4h44.87a2 2 0 010 4zm18.76 47.68c-3.89 0-5.91-2-7.54-3.57-1.44-1.41-2.49-2.43-4.75-2.43s-3.3 1-4.74 2.43c-1.63 1.59-3.65 3.57-7.54 3.57s-5.91-2-7.54-3.57c-1.44-1.41-2.49-2.43-4.74-2.43s-3.3 1-4.75 2.43C65.92 87.82 63.9 89.8 60 89.8s-5.91-2-7.54-3.57C51 84.82 50 83.8 47.72 83.8s-3.3 1-4.74 2.43c-1.63 1.59-3.66 3.57-7.54 3.57s-5.92-2-7.55-3.57c-1.44-1.41-2.49-2.43-4.75-2.43s-3.3 1-4.75 2.43c-1.63 1.59-3.65 3.57-7.54 3.57a2 2 0 110-4c2.26 0 3.3-1 4.75-2.44 1.63-1.59 3.66-3.56 7.54-3.56s5.92 2 7.55 3.56c1.44 1.42 2.49 2.44 4.75 2.44s3.3-1 4.74-2.43c1.63-1.59 3.66-3.57 7.54-3.57s5.92 2 7.54 3.57c1.45 1.41 2.49 2.43 4.75 2.43s3.3-1 4.75-2.43c1.62-1.59 3.65-3.57 7.54-3.57s5.91 2 7.54 3.57c1.44 1.41 2.48 2.43 4.74 2.43s3.3-1 4.74-2.43C91 81.77 93 79.8 96.86 79.8s5.92 2 7.55 3.57c1.44 1.41 2.48 2.43 4.74 2.43a2 2 0 010 4z"/><path class="cls-2" d="M46.47 115.09h-8.39a2 2 0 010-4h8.39a2 2 0 010 4z"/><path class="cls-2" d="M28 102.83a2 2 0 01-1.42-.59 1.85 1.85 0 01-.43-.64 2 2 0 01-.15-.77 2 2 0 01.58-1.41 2.34 2.34 0 01.3-.25 2.31 2.31 0 01.35-.18 2.65 2.65 0 01.37-.12 2 2 0 012.4 2 2 2 0 01-.16.77 1.85 1.85 0 01-.43.64 2 2 0 01-1.41.55z" opacity=".8"/><g class="cls-1"><path class="cls-2" d="M79.12 115.12H70a2 2 0 110-4h9.16a2 2 0 010 4z"/></g><path class="cls-2" d="M92 115.12a1.75 1.75 0 01-.4 0 1.73 1.73 0 01-.37-.11 1.41 1.41 0 01-.34-.19 1.79 1.79 0 01-.31-.25 1.85 1.85 0 01-.43-.64 2 2 0 01-.15-.77 1.72 1.72 0 010-.39 1.66 1.66 0 01.11-.38 2.21 2.21 0 01.18-.34 2.48 2.48 0 01.25-.3 2 2 0 011.81-.55 1.73 1.73 0 01.37.11 1.7 1.7 0 01.35.19 1.42 1.42 0 01.3.25 2 2 0 01.59 1.41 2.07 2.07 0 01-.15.77 2.15 2.15 0 01-.44.64 1.73 1.73 0 01-.3.25 1.7 1.7 0 01-.35.19 1.58 1.58 0 01-.37.11 1.72 1.72 0 01-.35 0z"/><path class="cls-2" d="M46.32 115.12H28a2 2 0 010-4h18.3a2 2 0 010 4z" opacity=".7"/><path class="cls-2" d="M57.08 115.12h-18.3a2 2 0 010-4h18.3a2 2 0 010 4zm16.55-12.29H28a2 2 0 110-4h45.63a2 2 0 010 4z" opacity=".6"/><path class="cls-2" d="M92 102.83H66.09a2 2 0 010-4H92a2 2 0 010 4z" opacity=".5"/><path class="cls-2" d="M73.66 102.83h-7.5a2 2 0 010-4h7.5a2 2 0 010 4z"/><path fill="none" d="M0 0h120v120H0z"/></svg>