<svg id="Capa_1" data-name="Capa 1" xmlns="http://www.w3.org/2000/svg" viewBox="0 0 120 120"><defs><style>.cls-1{fill:#95a6b1}.cls-2{opacity:.85}.cls-3{fill:#fff}</style></defs><path class="cls-1" d="M60.51 60.71H21.38a2 2 0 01-2-2V42.5a2 2 0 012-2h39.13a2 2 0 012 2v16.21a2 2 0 01-2 2zm-37.13-4h35.13V44.5H23.38z"/><path class="cls-1" d="M70.35 62.71h-9.82a2 2 0 01-2-2V40.5a2 2 0 012-2h9.82a2 2 0 012 2v20.21a2 2 0 01-2 2zm-7.82-4h5.82V42.5h-5.82zm-23.15 2a2 2 0 01-2-2v-4.48a2 2 0 014 0v4.48a2 2 0 01-2 2zm0-11.66a2 2 0 01-2-2V42.5a2 2 0 014 0v4.55a2 2 0 01-2 2z"/><g class="cls-2"><path class="cls-3" d="M16 35.69a9.55 9.55 0 01-8.64-5.56A9.46 9.46 0 1116 35.69zm0-15a5.57 5.57 0 00-2.28.49 5.5 5.5 0 104.57 10 5.39 5.39 0 002.93-3.27 5.46 5.46 0 00-.22-4 5.49 5.49 0 00-5-3.22z"/></g><path class="cls-1" d="M50.42 44.5h-29a2 2 0 01-2-2v-3.72a2 2 0 014 0v1.72h25V28.89h-18.7a2 2 0 010-4h20.7a2 2 0 012 2V42.5a2 2 0 01-2 2z"/><path class="cls-1" d="M35.9 28.89a2 2 0 01-2-2v-9.53a2 2 0 014 0v9.53a2 2 0 01-2 2z"/><path class="cls-1" d="M42.57 19.36H29.72a2 2 0 010-4h12.85a2 2 0 010 4zm7.85 17.34H29.61a2 2 0 010-4h20.81a2 2 0 010 4zm54.75 51.23h-18.9a2 2 0 01-2-2v-16.2a2 2 0 012-2h18.9a2 2 0 012 2v16.2a2 2 0 01-2 2zm-16.9-4h14.9v-12.2h-14.9z"/><path class="cls-1" d="M86.25 89.94h-9.82a2 2 0 01-2-2V67.72a2 2 0 012-2h9.82a2 2 0 012 2v20.22a2 2 0 01-2 2zm-7.82-4h5.82V69.72h-5.82zm-15.09 2.84a2 2 0 01-2-2V73.9a2 2 0 014 0v12.88a2 2 0 01-2 2z"/><path class="cls-1" d="M63.34 89.32a2 2 0 01-1.41-.59l-5.37-5.37a2 2 0 112.83-2.83l4 4 4-4a2 2 0 112.83 2.83l-5.37 5.37a2 2 0 01-1.51.59zm14.08-54.43a2 2 0 01-2-2V20a2 2 0 014 0v12.89a2 2 0 01-2 2z"/><path class="cls-1" d="M82.79 26.85a2 2 0 01-1.41-.59l-4-4-4 4a2 2 0 11-2.83-2.83L76 18.06a2 2 0 012.82 0l5.38 5.37a2 2 0 01-1.42 3.42zm7.15 31.77a9.17 9.17 0 01-9.15-9.16 9 9 0 01.75-3.57 2 2 0 01.12-.31l6.49-13.21a2 2 0 011.79-1.12 2 2 0 011.8 1.12l6.49 13.21a1.75 1.75 0 01.12.32 8.89 8.89 0 01.75 3.56 9.17 9.17 0 01-9.16 9.16zm-4.57-11.53a1.8 1.8 0 01-.08.21 5.16 5.16 0 109.31 0 1.8 1.8 0 01-.08-.21l-4.58-9.3z"/><path class="cls-3" d="M46.47 115.09h-8.39a2 2 0 010-4h8.39a2 2 0 010 4z"/><path class="cls-3" d="M28 102.83a2 2 0 01-1.42-.59 1.85 1.85 0 01-.43-.64 2 2 0 01-.15-.77 2 2 0 01.58-1.41 2.34 2.34 0 01.3-.25 2.31 2.31 0 01.35-.18 2.65 2.65 0 01.37-.12 2 2 0 012.4 2 2 2 0 01-.16.77 1.85 1.85 0 01-.43.64 2 2 0 01-1.41.55z" opacity=".8"/><g class="cls-2"><path class="cls-3" d="M79.12 115.12H70a2 2 0 110-4h9.16a2 2 0 010 4z"/></g><path class="cls-3" d="M92 115.12a1.75 1.75 0 01-.4 0 1.73 1.73 0 01-.37-.11 1.41 1.41 0 01-.34-.19 1.79 1.79 0 01-.31-.25 1.85 1.85 0 01-.43-.64 2 2 0 01-.15-.77 1.72 1.72 0 010-.39 1.66 1.66 0 01.11-.38 2.21 2.21 0 01.18-.34 2.48 2.48 0 01.25-.3 2 2 0 011.81-.55 1.73 1.73 0 01.37.11 1.7 1.7 0 01.35.19 1.42 1.42 0 01.3.25 2 2 0 01.59 1.41 2.07 2.07 0 01-.15.77 2.15 2.15 0 01-.44.64 1.73 1.73 0 01-.3.25 1.7 1.7 0 01-.35.19 1.58 1.58 0 01-.37.11 1.72 1.72 0 01-.35 0z"/><path class="cls-3" d="M46.32 115.12H28a2 2 0 010-4h18.3a2 2 0 010 4z" opacity=".7"/><path class="cls-3" d="M57.08 115.12h-18.3a2 2 0 010-4h18.3a2 2 0 010 4zm16.55-12.29H28a2 2 0 110-4h45.63a2 2 0 010 4z" opacity=".6"/><path class="cls-3" d="M92 102.83H66.09a2 2 0 010-4H92a2 2 0 010 4z" opacity=".5"/><path class="cls-3" d="M73.66 102.83h-7.5a2 2 0 010-4h7.5a2 2 0 010 4z"/><path fill="none" d="M0 0h120v120H0z"/></svg>