<svg id="Capa_1" data-name="Capa 1" xmlns="http://www.w3.org/2000/svg" viewBox="0 0 120 120"><defs><style>.cls-1{opacity:.85}.cls-2{fill:#fff}.cls-3{fill:#95a6b1}</style></defs><g class="cls-1"><path class="cls-2" d="M72.7 30.29a9.5 9.5 0 118.62-13.44 9.49 9.49 0 01-4.69 12.58 9.36 9.36 0 01-3.93.86zm0-15a5.61 5.61 0 00-2.28.49 5.52 5.52 0 102.28-.49z"/></g><path class="cls-3" d="M107.21 39H97.15a2 2 0 01-2-2V23.77a2 2 0 012-2h10.06a2 2 0 012 2V37a2 2 0 01-2 2zm-8.06-4h6.06v-9.23h-6.06z"/><path class="cls-3" d="M112.89 43h-4.26a3.42 3.42 0 01-3.42-3.41V21.15a3.42 3.42 0 013.42-3.42h4.26a3.42 3.42 0 013.41 3.42v18.42a3.41 3.41 0 01-3.41 3.43zm-3.68-4h3.09V21.73h-3.09zm-19.05 3.63a2 2 0 01-.94-3.77l7-3.68a2 2 0 111.87 3.54l-7 3.68a2 2 0 01-.93.23zm6.99-16.86a2 2 0 01-1-.24l-7-3.83a2 2 0 011.92-3.51l7 3.83a2 2 0 01-1 3.75z"/><path class="cls-3" d="M90.15 42.63H71.73a2 2 0 01-2-2v-5.39a2 2 0 114 0v3.39h14.42V22h-1.77a2 2 0 010-4h3.77a2 2 0 012 2v20.63a2 2 0 01-2 2zM26.39 84.15h-10a2 2 0 01-2-2V69a2 2 0 012-2h10a2 2 0 012 2v13.15a2 2 0 01-2 2zm-8-4h6.05V71h-6.1z"/><path class="cls-3" d="M14.92 88.19h-4.26a3.42 3.42 0 01-3.41-3.42V66.35a3.41 3.41 0 013.41-3.41h4.26a3.41 3.41 0 013.41 3.41v18.42a3.42 3.42 0 01-3.41 3.42zm-3.67-4h3.08V66.94h-3.08zm22.14 3.64a2 2 0 01-.93-.23l-7-3.68a2 2 0 111.86-3.54l7 3.68a2 2 0 01-.94 3.77zM26.4 71a2 2 0 01-1-3.75l7-3.83a2 2 0 011.91 3.51l-7 3.83a2 2 0 01-.91.24z"/><path class="cls-3" d="M51.81 87.83H33.4a2 2 0 01-2-2V65.15a2 2 0 012-2h18.41a2 2 0 012 2v20.68a2 2 0 01-2 2zm-16.41-4h14.41V67.15H35.4z"/><path class="cls-3" d="M65.12 87.83H51.81a2 2 0 01-2-2V65.15a2 2 0 01.59-1.42 2 2 0 011.41-.58h13.48c2.61 0 4.43-1.64 4.43-4V40.63a2 2 0 012-2h18.43a2 2 0 012 2v18.52c0 15.28-12.63 28.68-27.03 28.68zm-11.31-4h11.31c12.27 0 23-11.53 23-24.68V42.63h-14.4v16.52c0 4.56-3.62 8-8.43 8H53.81z"/><path class="cls-3" d="M90.15 90a2 2 0 01-1.54-.73L60.1 54.6a2 2 0 113.08-2.54L91.7 86.72a2 2 0 01-.28 2.81 2 2 0 01-1.27.47zm-24.97-2.71a2 2 0 01-2-2V73a2 2 0 014 0v12.29a2 2 0 01-2 2z"/><path class="cls-3" d="M65.18 82.53a2.17 2.17 0 01-.66-.11l-7.26-2.54A2 2 0 0155.92 78v-3.42a2 2 0 014 0v2l5.92 2.07a2 2 0 01-.66 3.89z"/><circle class="cls-3" cx="72.95" cy="80.86" r="3.39"/><g id="Grupo_7400" data-name="Grupo 7400"><path class="cls-3" d="M53 28.05a2 2 0 01-.77-3.85l3.21-1.34L54 18.9a2 2 0 013.77-1.35l2 5.75a2 2 0 01-1.11 2.52l-5 2.07a1.9 1.9 0 01-.66.16z" id="Trazado_6211" data-name="Trazado 6211"/></g><g id="Grupo_7401" data-name="Grupo 7401"><path class="cls-3" d="M19.64 52.28a2 2 0 01-1.64-.85L14.93 47a2 2 0 113.28-2.28l2 2.85 3.57-2.21a2 2 0 112.11 3.4L20.69 52a1.91 1.91 0 01-1.05.28z" id="Trazado_6212" data-name="Trazado 6212"/></g><path class="cls-3" d="M20.29 50.86h-.1a2 2 0 01-1.9-2.1 30.71 30.71 0 0139.16-27.93 2 2 0 01-1.11 3.85 26.13 26.13 0 00-6.07-1 26.68 26.68 0 00-28 25.3 2 2 0 01-1.98 1.88z" id="Trazado_6213" data-name="Trazado 6213"/><path class="cls-2" d="M46.47 115.09h-8.39a2 2 0 010-4h8.39a2 2 0 010 4z"/><path class="cls-2" d="M28 102.83a2 2 0 01-1.42-.59 1.85 1.85 0 01-.43-.64 2 2 0 01-.15-.77 2 2 0 01.58-1.41 2.34 2.34 0 01.3-.25 2.31 2.31 0 01.35-.18 2.65 2.65 0 01.37-.12 2 2 0 012.4 2 2 2 0 01-.16.77 1.85 1.85 0 01-.43.64 2 2 0 01-1.41.55z" opacity=".8"/><g class="cls-1"><path class="cls-2" d="M79.12 115.12H70a2 2 0 110-4h9.16a2 2 0 010 4z"/></g><path class="cls-2" d="M92 115.12a1.75 1.75 0 01-.4 0 1.73 1.73 0 01-.37-.11 1.41 1.41 0 01-.34-.19 1.79 1.79 0 01-.31-.25 1.85 1.85 0 01-.43-.64 2 2 0 01-.15-.77 1.72 1.72 0 010-.39 1.66 1.66 0 01.11-.38 2.21 2.21 0 01.18-.34 2.48 2.48 0 01.25-.3 2 2 0 011.81-.55 1.73 1.73 0 01.37.11 1.7 1.7 0 01.35.19 1.42 1.42 0 01.3.25 2 2 0 01.59 1.41 2.07 2.07 0 01-.15.77 2.15 2.15 0 01-.44.64 1.73 1.73 0 01-.3.25 1.7 1.7 0 01-.35.19 1.58 1.58 0 01-.37.11 1.72 1.72 0 01-.35 0z"/><path class="cls-2" d="M46.32 115.12H28a2 2 0 010-4h18.3a2 2 0 010 4z" opacity=".7"/><path class="cls-2" d="M57.08 115.12h-18.3a2 2 0 010-4h18.3a2 2 0 010 4zm16.55-12.29H28a2 2 0 110-4h45.63a2 2 0 010 4z" opacity=".6"/><path class="cls-2" d="M92 102.83H66.09a2 2 0 010-4H92a2 2 0 010 4z" opacity=".5"/><path class="cls-2" d="M73.66 102.83h-7.5a2 2 0 010-4h7.5a2 2 0 010 4z"/><path fill="none" d="M0 0h120v120H0z"/></svg>