<svg version="1.1" id="Capa_1" xmlns="http://www.w3.org/2000/svg" x="0" y="0" viewBox="0 0 120 120" xml:space="preserve"><style>.st1{opacity:.85}.st2{fill:#fff}.st3{fill:#95a6b1}.st6{opacity:.6}</style><path fill="none" d="M0 0h120v120H0z"/><g class="st1"><path class="st2" d="M32.6 28c-5.2 0-9.5-4.3-9.5-9.5 0-1.1.2-2.3.6-3.3 1.8-4.9 7.3-7.4 12.2-5.6 2.4.9 4.3 2.7 5.3 4.9 2.2 4.8.1 10.4-4.7 12.6-1.2.6-2.5.9-3.9.9zm0-15c-.8 0-1.6.2-2.3.5-2.8 1.2-4.1 4.4-2.9 7.2 1.2 2.8 4.4 4.1 7.2 2.9.1 0 .2-.1.3-.1 2.8-1.3 4-4.5 2.7-7.3-.6-1.3-1.7-2.3-3.1-2.9-.6-.2-1.3-.3-1.9-.3z"/></g><path class="st3" d="M41.3 90.6c-8.3 0-15-6.7-15-15V34c0-1.1.9-2 2-2s2 .9 2 2v41.6c0 6.1 4.9 11 11 11H62l23-.1V15.4H46.7c-1.1 0-2-.9-2-2s.9-2 2-2H87c1.1 0 2 .9 2 2v75.2c0 1.1-.9 2-2 2l-25 .1-20.7-.1z"/><path class="st3" d="M53.9 50.6c-.7 0-1.3-.3-1.6-.8l-3.8-5.2c-.7-.9-.5-2.1.4-2.8s2.1-.5 2.8.4l2.3 3.2 7.6-8.6c.7-.8 2-.9 2.8-.2.8.7.9 2 .2 2.8l-9.2 10.4c-.4.6-.9.8-1.5.8z"/><path class="st3" d="M56.6 61.3c-2.1 0-4.3-.4-6.3-1.1-9.3-3.4-14-13.8-10.6-23.1S53.5 23 62.9 26.4C72 29.8 76.7 39.8 73.7 49c-1.6 4.7-5 8.6-9.6 10.7-2.3 1.1-4.9 1.6-7.5 1.6zm0-31.9c-7.7-.1-14.1 6.1-14.2 13.8s6.1 14.1 13.8 14.2c2.1 0 4.2-.4 6.2-1.3 7-3.2 10.1-11.5 6.9-18.5-2.2-5-7.2-8.2-12.7-8.2z"/><path class="st3" d="M46 76.6c-.9 0-1.7-.4-2.2-1.2l-1.7-2.7-3.4.3c-1 .1-1.9-.4-2.4-1.2-.5-.8-.5-1.8 0-2.6l8.8-14.3c.5-1 1.1.4 2.1.9s1.9-.2 1.5.8c-.1.2-.2.3-.3.4l-7.2 11.7 1.1-.1c1.1-.1 2.3.4 2.9 1.4l.8 1.2 7.9-13c.5-1 1.4-.1 2.3.5 1 .5 1.7.5 1.2 1.5 0 0 0 .1-.1.1l-9 14.9c-.5.9-1.4 1.4-2.3 1.4zm-1.2-3.4zm24.6 3.6c-.9 0-1.7-.5-2.2-1.2L58 60.1c-.6-.9.4-1.1 1.3-1.7.9-.6 1.4-1.5 2-.6.1.1.1.2.2.3l7.9 13.4.8-1.2c.6-1 1.7-1.5 2.9-1.4l1.1.1-7.9-13.3c-.7-.9.7-.9 1.5-1.6.9-.7 1-1.7 1.7-.8.1.1.2.3.2.4l9.4 15.8c.5.8.5 1.8 0 2.6s-1.5 1.3-2.4 1.2l-3.4-.3-1.7 2.7c-.5.6-1.4 1.1-2.2 1.1zm6.2-5.4z"/><path class="st2" d="M46.5 115.1h-8.4c-1.1 0-2-.9-2-2s.9-2 2-2h8.4c1.1 0 2 .9 2 2s-.9 2-2 2z"/><path class="st2" d="M28 102.8c-.5 0-1-.2-1.4-.6-.2-.2-.3-.4-.4-.6-.1-.2-.2-.5-.1-.8 0-.5.2-1 .6-1.4.1-.1.2-.2.3-.2.1-.1.2-.1.4-.2.1 0 .2-.1.4-.1 1.1-.2 2.1.5 2.4 1.6v.4c0 .3-.1.5-.2.8-.1.2-.2.5-.4.6-.6.3-1.1.5-1.6.5z" opacity=".8"/><g class="st1"><path class="st2" d="M79.1 115.1H70c-1.1 0-2-.9-2-2s.9-2 2-2h9.2c1.1 0 2 .9 2 2s-.9 2-2.1 2z"/></g><path class="st2" d="M92 115.1h-.4c-.1 0-.3-.1-.4-.1-.1 0-.2-.1-.3-.2-.1-.1-.2-.2-.3-.2-.2-.2-.3-.4-.4-.6-.1-.2-.2-.5-.2-.8v-.4c0-.1.1-.3.1-.4.1-.1.1-.2.2-.3.1-.1.2-.2.2-.3.5-.5 1.2-.7 1.8-.6.1 0 .3.1.4.1.1 0 .2.1.3.2.1.1.2.2.3.2.4.4.6.9.6 1.4 0 .3-.1.5-.2.8-.1.2-.3.5-.4.6-.1.1-.2.2-.3.2-.1.1-.2.1-.3.2-.1.1-.2.1-.4.1-.1.1-.2.1-.3.1z"/><path class="st2" d="M46.3 115.1H28c-1.1 0-2-.9-2-2s.9-2 2-2h18.3c1.1 0 2 .9 2 2s-.9 2-2 2z" opacity=".7"/><g class="st6"><path class="st2" d="M57.1 115.1H38.8c-1.1 0-2-.9-2-2s.9-2 2-2h18.3c1.1 0 2 .9 2 2s-.9 2-2 2z"/></g><g class="st6"><path class="st2" d="M73.6 102.8H28c-1.1 0-2-.9-2-2s.9-2 2-2h45.6c1.1 0 2 .9 2 2s-.9 2-2 2z"/></g><path class="st2" d="M92 102.8H66.1c-1.1 0-2-.9-2-2s.9-2 2-2H92c1.1 0 2 .9 2 2s-.9 2-2 2z" opacity=".5"/><path class="st2" d="M73.7 102.8h-7.5c-1.1 0-2-.9-2-2s.9-2 2-2h7.5c1.1 0 2 .9 2 2s-.9 2-2 2z"/></svg>