<svg id="Capa_1" data-name="Capa 1" xmlns="http://www.w3.org/2000/svg" viewBox="0 0 120 120"><defs><style>.cls-1{opacity:.85}.cls-2{fill:#fff}.cls-3{fill:#95a6b1}</style></defs><g class="cls-1"><path class="cls-2" d="M32.61 29.08a9.5 9.5 0 118.62-13.44 9.44 9.44 0 01.38 6.93 9.46 9.46 0 01-9 6.51zm0-15a5.42 5.42 0 00-2.27.5 5.49 5.49 0 102.27-.5z"/></g><path class="cls-3" d="M41.33 91.68a15 15 0 01-15-15V35.06a2 2 0 014 0v41.6a11 11 0 0011 11H62l23-.05V16.44H46.73a2 2 0 110-4H87a2 2 0 012 2v75.19a2 2 0 01-2 2l-25 .05z"/><path class="cls-3" d="M53.8 75.62a18.32 18.32 0 01-18.29-18.29c0-6.43 7-17.09 12.79-24.91a6.84 6.84 0 015.5-2.76 6.84 6.84 0 015.5 2.76c5.83 7.82 12.79 18.48 12.79 24.91a2 2 0 01-4 0c0-4.1-4.37-12.3-12-22.51a2.84 2.84 0 00-4.58 0c-7.63 10.21-12 18.41-12 22.51a14.3 14.3 0 0022 12.07 2 2 0 112.14 3.37 18.24 18.24 0 01-9.85 2.85z"/><path class="cls-3" d="M68.88 69.9h-.09a2 2 0 01-1.52-.81l-3.8-5.17a2 2 0 013.23-2.37l2.3 3.17 7.6-8.58a2 2 0 013 2.65l-9.22 10.44a2 2 0 01-1.5.67zM56 69.61h-.24c-8.86-1-11.3-5.65-12.76-8.41a2 2 0 013.53-1.87c1.3 2.45 2.92 5.51 9.7 6.3a2 2 0 01-.23 4z"/><path fill="none" d="M0 0h120v120H0z"/><path class="cls-2" d="M46.47 115.09h-8.39a2 2 0 010-4h8.39a2 2 0 010 4z"/><path class="cls-2" d="M28 102.83a2 2 0 01-1.42-.59 1.85 1.85 0 01-.43-.64 2 2 0 01-.15-.77 2 2 0 01.58-1.41 2.34 2.34 0 01.3-.25 2.31 2.31 0 01.35-.18 2.65 2.65 0 01.37-.12 2 2 0 012.4 2 2 2 0 01-.16.77 1.85 1.85 0 01-.43.64 2 2 0 01-1.41.55z" opacity=".8"/><g class="cls-1"><path class="cls-2" d="M79.12 115.12H70a2 2 0 110-4h9.16a2 2 0 010 4z"/></g><path class="cls-2" d="M92 115.12a1.75 1.75 0 01-.4 0 1.73 1.73 0 01-.37-.11 1.41 1.41 0 01-.34-.19 1.79 1.79 0 01-.31-.25 1.85 1.85 0 01-.43-.64 2 2 0 01-.15-.77 1.72 1.72 0 010-.39 1.66 1.66 0 01.11-.38 2.21 2.21 0 01.18-.34 2.48 2.48 0 01.25-.3 2 2 0 011.81-.55 1.73 1.73 0 01.37.11 1.7 1.7 0 01.35.19 1.42 1.42 0 01.3.25 2 2 0 01.59 1.41 2.07 2.07 0 01-.15.77 2.15 2.15 0 01-.44.64 1.73 1.73 0 01-.3.25 1.7 1.7 0 01-.35.19 1.58 1.58 0 01-.37.11 1.72 1.72 0 01-.35 0z"/><path class="cls-2" d="M46.32 115.12H28a2 2 0 010-4h18.3a2 2 0 010 4z" opacity=".7"/><path class="cls-2" d="M57.08 115.12h-18.3a2 2 0 010-4h18.3a2 2 0 010 4zm16.55-12.29H28a2 2 0 110-4h45.63a2 2 0 010 4z" opacity=".6"/><path class="cls-2" d="M92 102.83H66.09a2 2 0 010-4H92a2 2 0 010 4z" opacity=".5"/><path class="cls-2" d="M73.66 102.83h-7.5a2 2 0 010-4h7.5a2 2 0 010 4z"/></svg>