<svg id="Capa_1" data-name="Capa 1" xmlns="http://www.w3.org/2000/svg" viewBox="0 0 120 120"><defs><style>.cls-1{fill:#95a6b1}.cls-2{fill:#94a5b0}.cls-3{opacity:.85}.cls-4{fill:#fff}</style></defs><path class="cls-1" d="M88.66 91.87H57.48a3.25 3.25 0 01-3-4.58l14.8-32.74a3.25 3.25 0 015.86-.12l16.42 32.74a3.25 3.25 0 01-2.9 4.7zm-30-4h28.78L72.31 57.64z"/><path class="cls-1" d="M72.56 79a2 2 0 01-2-2v-8.57a2 2 0 014 0V77a2 2 0 01-2 2z"/><ellipse class="cls-1" cx="72.56" cy="82.74" rx="2.48" ry="2.4"/><g id="Grupo_6636" data-name="Grupo 6636"><path class="cls-2" d="M48.43 38.33a2 2 0 01-2-2v-6.2a2 2 0 014 0v6.2a2 2 0 01-2 2z" id="Línea_1013" data-name="Línea 1013"/><path class="cls-2" d="M57.51 38.33a2 2 0 01-2-2v-6.2a2 2 0 014 0v6.2a2 2 0 01-2 2z" id="Línea_1014" data-name="Línea 1014"/><path class="cls-2" d="M74.24 51.13a2 2 0 01-2-2v-.72c-.44-1.84-1.72-4-3.39-4.78l-12.16-5.46a2 2 0 011.64-3.65L70.49 40c3.32 1.49 5.15 5.13 5.71 7.8a1.9 1.9 0 010 .41v.94a2 2 0 01-1.96 1.98z" id="Trazado_5699" data-name="Trazado 5699"/><path class="cls-2" d="M57.56 72.13h-26a2 2 0 01-2-2v-9.31a2 2 0 114 0v7.31h24a2 2 0 010 4z" id="Trazado_5700" data-name="Trazado 5700"/><path class="cls-2" d="M42.82 40.94a2 2 0 01-.82-3.82l5.61-2.59a2 2 0 111.68 3.63l-5.61 2.59a1.94 1.94 0 01-.86.19z" id="Línea_1015" data-name="Línea 1015"/><path class="cls-2" d="M53 43.48a2 2 0 01-1.5-.68l-4.54-5.15a2 2 0 013-2.65l4.54 5.15a2 2 0 01-1.5 3.33z" id="Línea_1016" data-name="Línea 1016"/><path class="cls-2" d="M53 43.48a2 2 0 01-1.5-3.33L56 35a2 2 0 013 2.65l-4.53 5.15a2 2 0 01-1.47.68z" id="Línea_1017" data-name="Línea 1017"/><path class="cls-2" d="M52.94 33.43a10.57 10.57 0 01-10.56-10.55 2 2 0 014 0 6.56 6.56 0 0013.11 0 2 2 0 014 0 10.56 10.56 0 01-10.55 10.55z" id="Trazado_5701" data-name="Trazado 5701"/><path class="cls-2" d="M61.48 24.88a2 2 0 01-2-2V17a6.55 6.55 0 10-13.1 0v5.9a2 2 0 11-4 0V17a10.55 10.55 0 1121.1 0v5.9a2 2 0 01-2 1.98z" id="Trazado_5702" data-name="Trazado 5702"/></g><g id="Trazado_5703" data-name="Trazado 5703" class="cls-3"><path class="cls-4" d="M31.74 56.56a9.5 9.5 0 11.07-19 9.44 9.44 0 019.43 9.38v.12a9.52 9.52 0 01-9.5 9.5zm.06-15a5.5 5.5 0 105.48 5.5V47a5.45 5.45 0 00-5.44-5.39z"/></g><path class="cls-4" d="M46.47 115.09h-8.39a2 2 0 010-4h8.39a2 2 0 010 4z"/><path class="cls-4" d="M28 102.83a2 2 0 01-1.42-.59 1.85 1.85 0 01-.43-.64 2 2 0 01-.15-.77 2 2 0 01.58-1.41 2.34 2.34 0 01.3-.25 2.31 2.31 0 01.35-.18 2.65 2.65 0 01.37-.12 2 2 0 012.4 2 2 2 0 01-.16.77 1.85 1.85 0 01-.43.64 2 2 0 01-1.41.55z" opacity=".8"/><g class="cls-3"><path class="cls-4" d="M79.12 115.12H70a2 2 0 110-4h9.16a2 2 0 010 4z"/></g><path class="cls-4" d="M92 115.12a1.75 1.75 0 01-.4 0 1.73 1.73 0 01-.37-.11 1.41 1.41 0 01-.34-.19 1.79 1.79 0 01-.31-.25 1.85 1.85 0 01-.43-.64 2 2 0 01-.15-.77 1.72 1.72 0 010-.39 1.66 1.66 0 01.11-.38 2.21 2.21 0 01.18-.34 2.48 2.48 0 01.25-.3 2 2 0 011.81-.55 1.73 1.73 0 01.37.11 1.7 1.7 0 01.35.19 1.42 1.42 0 01.3.25 2 2 0 01.59 1.41 2.07 2.07 0 01-.15.77 2.15 2.15 0 01-.44.64 1.73 1.73 0 01-.3.25 1.7 1.7 0 01-.35.19 1.58 1.58 0 01-.37.11 1.72 1.72 0 01-.35 0z"/><path class="cls-4" d="M46.32 115.12H28a2 2 0 010-4h18.3a2 2 0 010 4z" opacity=".7"/><path class="cls-4" d="M57.08 115.12h-18.3a2 2 0 010-4h18.3a2 2 0 010 4zm16.55-12.29H28a2 2 0 110-4h45.63a2 2 0 010 4z" opacity=".6"/><path class="cls-4" d="M92 102.83H66.09a2 2 0 010-4H92a2 2 0 010 4z" opacity=".5"/><path class="cls-4" d="M73.66 102.83h-7.5a2 2 0 010-4h7.5a2 2 0 010 4z"/><path fill="none" d="M0 0h120v120H0z"/></svg>