<svg id="Capa_1" data-name="Capa 1" xmlns="http://www.w3.org/2000/svg" viewBox="0 0 120 120"><defs><style>.cls-1{opacity:.85}.cls-2{fill:#fff}.cls-3{fill:#95a6b1}</style></defs><g class="cls-1"><path class="cls-2" d="M33.26 28.91a9.5 9.5 0 118.62-13.45 9.5 9.5 0 01-8.62 13.45zm0-15a5.5 5.5 0 102.29 10.5 5.5 5.5 0 00-.37-10.15 5.52 5.52 0 00-1.94-.35z"/></g><path class="cls-3" d="M42 91.51a15 15 0 01-15-15V34.88a2 2 0 014 0v41.6a11 11 0 0011 11h20.67l23-.05V16.27H47.38a2 2 0 010-4h40.26a2 2 0 012 2v75.18a2 2 0 01-2 2l-25 .06z"/><path class="cls-3" d="M69.72 78.58h-.09a2 2 0 01-1.52-.81l-3.8-5.17a2 2 0 113.23-2.37l2.33 3.17 7.6-8.59a2 2 0 013 2.65l-9.25 10.45a2 2 0 01-1.5.67zm3.49-33.07a2 2 0 01-2-2 12.92 12.92 0 10-25.84 0 2 2 0 01-4 0 16.92 16.92 0 1133.84 0 2 2 0 01-2 2z"/><path class="cls-3" d="M58.29 60.43a16.94 16.94 0 01-16.92-16.92 2 2 0 014 0 12.92 12.92 0 1025.84 0 2 2 0 014 0 16.94 16.94 0 01-16.92 16.92z"/><path class="cls-3" d="M58.24 45.49a5.65 5.65 0 115.65-5.65 2 2 0 01-4 0 1.65 1.65 0 10-1.65 1.65 2 2 0 010 4z"/><path class="cls-3" d="M58.24 52.78a5.65 5.65 0 01-5.64-5.65 2 2 0 014 0 1.65 1.65 0 101.64-1.64 2 2 0 010-4 5.65 5.65 0 110 11.29zm0-14.59a2 2 0 01-2-2v-2a2 2 0 014 0v2a2 2 0 01-2 2z"/><path class="cls-3" d="M58.24 54.8a2 2 0 01-2-2v-2a2 2 0 014 0v2a2 2 0 01-2 2zm-.88 14.98H37.7a2 2 0 010-4h19.66a2 2 0 010 4zm0 9.22H37.7a2 2 0 010-4h19.66a2 2 0 010 4z"/><path class="cls-2" d="M46.47 115.09h-8.39a2 2 0 010-4h8.39a2 2 0 010 4z"/><path class="cls-2" d="M28 102.83a2 2 0 01-1.42-.59 1.85 1.85 0 01-.43-.64 2 2 0 01-.15-.77 2 2 0 01.58-1.41 2.34 2.34 0 01.3-.25 2.31 2.31 0 01.35-.18 2.65 2.65 0 01.37-.12 2 2 0 012.4 2 2 2 0 01-.16.77 1.85 1.85 0 01-.43.64 2 2 0 01-1.41.55z" opacity=".8"/><g class="cls-1"><path class="cls-2" d="M79.12 115.12H70a2 2 0 110-4h9.16a2 2 0 010 4z"/></g><path class="cls-2" d="M92 115.12a1.75 1.75 0 01-.4 0 1.73 1.73 0 01-.37-.11 1.41 1.41 0 01-.34-.19 1.79 1.79 0 01-.31-.25 1.85 1.85 0 01-.43-.64 2 2 0 01-.15-.77 1.72 1.72 0 010-.39 1.66 1.66 0 01.11-.38 2.21 2.21 0 01.18-.34 2.48 2.48 0 01.25-.3 2 2 0 011.81-.55 1.73 1.73 0 01.37.11 1.7 1.7 0 01.35.19 1.42 1.42 0 01.3.25 2 2 0 01.59 1.41 2.07 2.07 0 01-.15.77 2.15 2.15 0 01-.44.64 1.73 1.73 0 01-.3.25 1.7 1.7 0 01-.35.19 1.58 1.58 0 01-.37.11 1.72 1.72 0 01-.35 0z"/><path class="cls-2" d="M46.32 115.12H28a2 2 0 010-4h18.3a2 2 0 010 4z" opacity=".7"/><path class="cls-2" d="M57.08 115.12h-18.3a2 2 0 010-4h18.3a2 2 0 010 4zm16.55-12.29H28a2 2 0 110-4h45.63a2 2 0 010 4z" opacity=".6"/><path class="cls-2" d="M92 102.83H66.09a2 2 0 010-4H92a2 2 0 010 4z" opacity=".5"/><path class="cls-2" d="M73.66 102.83h-7.5a2 2 0 010-4h7.5a2 2 0 010 4z"/><path fill="none" d="M0 0h120v120H0z"/></svg>