<svg id="Capa_1" data-name="Capa 1" xmlns="http://www.w3.org/2000/svg" viewBox="0 0 120 120"><defs><style>.cls-1{opacity:.85}.cls-2{fill:#fff}.cls-3{fill:#95a6b1}</style></defs><g class="cls-1"><path class="cls-2" d="M36.57 28.38a9.5 9.5 0 118.62-13.45 9.5 9.5 0 01-8.62 13.45zm0-15a5.42 5.42 0 00-2.27.5 5.5 5.5 0 104.57 10 5.42 5.42 0 002.93-3.27 5.5 5.5 0 00-5.23-7.23z"/></g><path class="cls-3" d="M45.29 91a15 15 0 01-15-15V34.35a2 2 0 014 0V76a11 11 0 0011 11H89V15.74H50.69a2 2 0 010-4H91a2 2 0 012 2v75.18a2 2 0 01-2 2L66 91z"/><path class="cls-3" d="M79.41 37.8h-36.3a2 2 0 010-4h36.3a2 2 0 010 4zm.3 13.75H43.4a2 2 0 110-4h36.31a2 2 0 010 4zm-.37 12.93H43a2 2 0 110-4h36.34a2 2 0 010 4zM68.73 84.07a2.05 2.05 0 01-1.41-.57l-5.44-5.38a2 2 0 012.81-2.85l4 4 9-9.12a2 2 0 112.85 2.81L70.15 83.48a2 2 0 01-1.41.59z"/><path class="cls-2" d="M46.47 115.09h-8.39a2 2 0 010-4h8.39a2 2 0 010 4z"/><path class="cls-2" d="M28 102.83a2 2 0 01-1.42-.59 1.85 1.85 0 01-.43-.64 2 2 0 01-.15-.77 2 2 0 01.58-1.41 2.34 2.34 0 01.3-.25 2.31 2.31 0 01.35-.18 2.65 2.65 0 01.37-.12 2 2 0 012.4 2 2 2 0 01-.16.77 1.85 1.85 0 01-.43.64 2 2 0 01-1.41.55z" opacity=".8"/><g class="cls-1"><path class="cls-2" d="M79.12 115.12H70a2 2 0 110-4h9.16a2 2 0 010 4z"/></g><path class="cls-2" d="M92 115.12a1.75 1.75 0 01-.4 0 1.73 1.73 0 01-.37-.11 1.41 1.41 0 01-.34-.19 1.79 1.79 0 01-.31-.25 1.85 1.85 0 01-.43-.64 2 2 0 01-.15-.77 1.72 1.72 0 010-.39 1.66 1.66 0 01.11-.38 2.21 2.21 0 01.18-.34 2.48 2.48 0 01.25-.3 2 2 0 011.81-.55 1.73 1.73 0 01.37.11 1.7 1.7 0 01.35.19 1.42 1.42 0 01.3.25 2 2 0 01.59 1.41 2.07 2.07 0 01-.15.77 2.15 2.15 0 01-.44.64 1.73 1.73 0 01-.3.25 1.7 1.7 0 01-.35.19 1.58 1.58 0 01-.37.11 1.72 1.72 0 01-.35 0z"/><path class="cls-2" d="M46.32 115.12H28a2 2 0 010-4h18.3a2 2 0 010 4z" opacity=".7"/><path class="cls-2" d="M57.08 115.12h-18.3a2 2 0 010-4h18.3a2 2 0 010 4zm16.55-12.29H28a2 2 0 110-4h45.63a2 2 0 010 4z" opacity=".6"/><path class="cls-2" d="M92 102.83H66.09a2 2 0 010-4H92a2 2 0 010 4z" opacity=".5"/><path class="cls-2" d="M73.66 102.83h-7.5a2 2 0 010-4h7.5a2 2 0 010 4z"/><path fill="none" d="M0 0h120v120H0z"/></svg>