<svg xmlns="http://www.w3.org/2000/svg" viewBox="0 0 536 536"><defs><style>.cls-2{fill:#fff}</style></defs><path d="M133 140.29c18.44-20 60.77 56.7 146.42-52.17s229.56 118.4 60.8 200S78.87 199 133 140.29z" fill="#fd0" id="BG"/><g id="LOGO"><path id="Path_2911" data-name="Path 2911" class="cls-2" d="M250.84 232.57h-17.93v-28.32h17.93v4.06H237.9v8.08h11.16v4.05H237.9v8h12.94z"/><path id="Path_2912" data-name="Path 2912" class="cls-2" d="M254.14 197.07l19 26.86v-19.69h5v36.29l-19.08-27.23v19.27h-4.92z"/><path id="Path_2913" data-name="Path 2913" class="cls-2" d="M289.94 233a9.6 9.6 0 01-3.23-.53 10.28 10.28 0 01-2.79-1.49 11.8 11.8 0 01-2.27-2.25A14.92 14.92 0 01280 226l3.47-2.87a8.86 8.86 0 001.05 1.78 17.22 17.22 0 001.6 1.91 9.44 9.44 0 001.88 1.48 3.83 3.83 0 002 .6 6.37 6.37 0 002.48-.4 4 4 0 001.51-1 3.17 3.17 0 00.74-1.23 4 4 0 00.19-1.14 5.52 5.52 0 00-.12-1.14 3.54 3.54 0 00-.62-1.35 6.56 6.56 0 00-1.56-1.46 14.19 14.19 0 00-2.9-1.49 36.38 36.38 0 01-4.41-2.11 13.34 13.34 0 01-2.72-2 5.87 5.87 0 01-1.39-2 6.16 6.16 0 01-.39-2.25 7.9 7.9 0 01.48-2.64 6.94 6.94 0 011.58-2.53 8.35 8.35 0 012.88-1.88 11.59 11.59 0 014.44-.75 9.6 9.6 0 015.89 1.74 11.05 11.05 0 013.58 4.9l-4.23 1.35a5.24 5.24 0 00-5.24-3.67 5.12 5.12 0 00-3.12.79 2.53 2.53 0 00-1 2.09 2.13 2.13 0 00.54 1.42 6.23 6.23 0 001.46 1.2 15.78 15.78 0 002.16 1.12l2.67 1.13a16.23 16.23 0 013.81 2.24 9.24 9.24 0 012.09 2.36 7.14 7.14 0 01.88 2.37 14.47 14.47 0 01.19 2.18 8.57 8.57 0 01-.47 2.51 7.92 7.92 0 01-1.58 2.74 8.69 8.69 0 01-3 2.18 11.22 11.22 0 01-4.88.82z"/><path id="Path_2914" data-name="Path 2914" class="cls-2" d="M321.12 232.57l-3.3-7.66h-10.4c-.52 1.2-1.07 2.5-1.65 3.87s-1.1 2.64-1.6 3.79H299l13.65-31.3 13.75 31.3zm-5-11.8l-.9-2.2c-.27-.64-.52-1.26-.77-1.88l-.81-2c-.29-.71-.64-1.59-1.05-2.65-.55 1.4-1.12 2.8-1.71 4.21s-1.2 2.91-1.81 4.52z"/><path id="Path_2915" data-name="Path 2915" d="M183.23 200.82c-.1.23-.51.15-.84.16.04-.29.55-.12.84-.16zm5.65-.44c-.29 0-.73-.34-.85-.08.31.08.69.27.85.08zm-5.13.08c-.23-.07-.72-.15-.84.25.33-.2.6 0 .84-.25zm3 .25a3.84 3.84 0 00-2.27.25c.05 0 .4.19.42 0-.42 0 .27-.16.42-.17-.07.35 1.28.16 1.43-.08zm-10.35 4.07c0-.24.28-.23.34-.42-.22.01-.67.3-.31.42zm20 10.64a8.75 8.75 0 00.16 1.91 4.74 4.74 0 00-.11-1.91zm-15.31-14.3c.55-.18 1.13-.33 1.68-.5a2.79 2.79 0 00-1.63.5zm4 .08c-.71-.06-1.1.19-1.77.17-.26.24-.82.19-1.09.42 1.07-.17 1.92-.46 2.95-.59zm-11.52 4.74c0 .13-.36.35-.17.42a15.87 15.87 0 014.79-4 12.66 12.66 0 00-5.29 4.24 3 3 0 01.76-.66zm21.61-2.08c.37.21.93.7.5.34 0 0-.26-.46-.5-.34zm-22.45 1.75c.57-.09.86-1.09 1.08-1.35a3.86 3.86 0 00-.66.68v-.24c-.4 0-.38.45-.59.66.38-.07.38.13.26.25zm1.08-1.35l.1-.06s.02.02-.01.06zm1.78 1.1c0-.28.67-.38.42-.66.08.3-.58.39-.33.66zm5.13.33c-.33 0-.43.42-.59.09-.15.17.06.16-.09.33a1.42 1.42 0 00.77-.42zm-6.9 1.33c.16-.31.74-.65.67-.91-.16.22-.61.69-.58.89zm-1.43.25c-.16.26-.61.67-.5.92.15-.28.58-.7.5-.92zm-1.34 3.73c.18-.65.77-1.34.84-1.82a5.5 5.5 0 00-.84 1.82zm1.27-1.24c-.07.29-.57.6-.34.91 0-.34.46-.7.34-.91zm22.53 1.83c0-.24-.34-.59-.26-.42s.33.89.25.42zm.08.49c.31.42.33 1.12.68 1.5-.2-.47-.36-1.41-.68-1.49zm-.33 11.73a12.06 12.06 0 001.34-8.32c.22.05.3 0 .25-.25-.49-.17-.3-1-.58-1.41v.25c1.25 4.54-.33 9.47-2.86 11.8a4.5 4.5 0 001.85-2.06zm-19.51-2.17c.12.28.31.91.59.75-.3-.13-.32-.56-.59-.74zm1 1.83c0 .26.39.55.5.42-.22-.09-.28-.33-.5-.42zM193 226a2.18 2.18 0 00-1.1.91 1.54 1.54 0 01.76-.41c-.27-.23.31-.3.34-.5zm-.84.83c-.1.24-.77.34-.59.58.09-.24.82-.29.59-.58zm-5 5.23c.27 0 .84-.21.75-.33-.31.12-.57 0-.76.34zm-2.27-31.67c0-.12 0-.29.16-.25s-.1.13.09.25c.82-.27 1.4 0 2.27-.16-.41 0-.43-.08-.26-.34a3.32 3.32 0 00-3 .59c.27-.06.63-.23.78-.11zM176 224.57v.05l.09.07zm1 1.06c.12.23.4.65.62.64a1.37 1.37 0 00-.62-.64zm12.31 6.5s-.09 0-.09.08l.09-.07zm12.61-8.9c-.43.8-.55 1.9-1.26 2.42 0 .16.23.1.17.33a17 17 0 01-2.95 3.91c.57.17-.9.75-1 1.32a.65.65 0 00-.51 0c-.19.84-1.38.69-1.6 1.5a20.71 20.71 0 01-6 2.08c1.91-.75 4.11-1.2 5.54-2.41-.1-.18-.34.21-.58.17a20.37 20.37 0 01-3.28 1.43c1.78-1.06 3.76-1.93 5.13-3.41-.48 0-.55.51-1 .58a18.16 18.16 0 003.78-3.9 15.83 15.83 0 01-3.61 3.24c.12-.37.58-.42.75-.75a22.71 22.71 0 01-5 3 20 20 0 002.78-1.74c-1 .27-2.08 1.1-3.2 1.49-.08-.28.73-.39 1-.58-.92 0-1.79.77-2.86.91a8.44 8.44 0 011.26-.58c0-.06-.09-.08-.16-.07 1-.83 2.5-1.53 3.67-2.45a6 6 0 00.7-.63 28.82 28.82 0 01-2.94 1.71c.11.06.22 0 .2.09a3.27 3.27 0 00-.88.17h-.08c-.61.2-1.2.46-1.58.32A9.43 9.43 0 00190 231c-.08-.11-.34.1-.65.1l.43-.28c-.79.19-1.47.66-2.44.38-1 .36-2.25 0-3.3.16.33 0 .71.2 1 .08 1.06.79 2.6-.25 3.32.2-1 .21-2.16.22-3.22.38.11.09.24 0 .23.11A13.5 13.5 0 01183 232c.84.3 1.85.16 2.51.57a2 2 0 00-.94 0c.12.1.42-.08.38.17a30.51 30.51 0 00-3.13-.22 9.46 9.46 0 002.62.53c.63.06 1.46-.16 1.85.19-.52.05-.68.42-1.28 0-.16.52-.5-.17-.63.17.41.23 1.38 0 1.86.38a4.84 4.84 0 00-1.47 0c.77.49 1.56.12 2.24.54-.63.18-1.49-.23-2 .2a6.76 6.76 0 011.74 0c-.92.27-2.07-.08-3.05 0-.44-.38-1-.23-1-.08a3.9 3.9 0 00-1.82-.26 19 19 0 01-7.88-4.35c1.15 1.54 3.26 2.67 4.92 3.76a13.16 13.16 0 01-3.79-2.19.24.24 0 00-.14-.12l.14.12a.22.22 0 010 .14 15.6 15.6 0 01-4.08-5 15.31 15.31 0 01-2.57-5.31.25.25 0 01.12.08 12.52 12.52 0 01-.46-2.78 13 13 0 010-1.53c.32 1.94.49 4.31 1.43 6a18.61 18.61 0 01-.75-8.89 3.76 3.76 0 00.5-1.75c.14.07.51-.37.34-.91.48-.85.63-2 1.26-2.75a7 7 0 01-.67 1.59c.61-.31.58-1.25 1-1.74.11.78-.56 1.34-.42 2.24a4.64 4.64 0 00.58-1.33c.2.6-.45 1.36-.42 1.83.38 0-.12-.57.42-.5-.16-.73.25-.71.51-1.16.17.49-.38 1.15-.59 1.74a9.13 9.13 0 00-.59 2.58 29.59 29.59 0 001.09-2.91c.25.07 0 .26 0 .41.24-.18.3-.53.42-.83.11.77-.43 1.62-.5 2.5.34-.64.4-1.55.84-2.08.13 0 0 .1 0 .25.59-.9 1.06-1.89 1.68-2.74.12.82-1.47 1.79-1.17 3.07-.23.19-.23.61-.34.92.61-.87.77-2.18 1.51-2.91.18-1.24 1.26-1.59 1.69-2.58-.48.17-1 1-1.44 1.5.05-.61 1.15-1.28 1.52-2.08.12 0 0 .1 0 .25 1.74-2 4.56-2.86 7.23-3.91-.07-.24-.21.11-.42 0 .21-.21.75-.25.67-.5 6.41-1.46 12.7 2.3 15.47 6.24.05-.18-.51-1.31-.67-1-.78-2.24-3.07-3.67-5.05-4.82 1.1.12 2.93 1.6 4 1.74-.17-.58-.8-.69-1.35-1.08.65-.14 1.12 1.06 1.85.83 0 0 .27.64.42.25a19.1 19.1 0 015.3 12.47 18.44 18.44 0 01-1.09 6.82c.25-.09.11-.56.42-.59zm-28.83-.48l.26-.15a2 2 0 00.58 1.36c0-.09-.12-.21-.09-.31a5 5 0 01.5.84 3.52 3.52 0 01.3.45.15.15 0 01-.07 0 1.72 1.72 0 00.91.87 8.35 8.35 0 01-.79-1.35 1.42 1.42 0 01-.74-1.09 11.18 11.18 0 01-1-1.68 2 2 0 00.18 1.09zm.9.16c-.08.05-.08.13 0 .23v-.23zm1.87 3.4zm.11-.87a5.88 5.88 0 00-1.1-.89c.18.37.35.7.53.54.24.15.21.59.57.35zm-8.27-3.87a.34.34 0 000-.1v-.05c-.04.04-.03.1-.01.15zm5.14 8.5a1.47 1.47 0 00-.47-.58c0 .25.28.4.48.58zm3.25-3.48c-.06-.07-.11-.15-.17-.23h-.08l-.1.09a2.28 2.28 0 00.36.15zm1.4 3c.07-.3-.51-.36-.77-.53.07.25.44.38.77.53zm5.44 2.43c0-.28-.44-.08-.64-.2.03.28.43.08.63.18zm2.45-2.74c.5 0 .78.28 1.25.1.06-.14-.23-.16-.13-.33 1-.19 2.56.1 2.92-.52a1 1 0 00.58.09l.19-.11a.72.72 0 00.2-.28c.43.23.67-.06 1-.15a1.9 1.9 0 00.21-.19.13.13 0 00-.1 0h-.09l-.34.25.24-.19.09-.06a13.83 13.83 0 005.36-8.91c0-.28.06-.57.08-.87a.78.78 0 000-.16v-1.06c0-.28 0-.57-.05-.86v-.25c0-.37-.09-.75-.16-1.14a12.86 12.86 0 00-4-7.4c-.45.16 0-.16-.42 0a9.32 9.32 0 00-1.18-1c-3.73-1.93-9-.73-11.94 1.5-.14 0-.16-.06-.17-.17-.57 1-1.87 1.37-2.27 2.58-.12 0 0-.25-.17-.25-.47.61-.59 1.23-1.09 1.91v.05h.06a.25.25 0 010 .07l-.06.22c-.21.58-.56 1.22-.74 1.86 0 .11 0 .22-.07.33a6.31 6.31 0 01.25-1.83c.72-2.48 2.85-4.36 4.79-5.65.24.19 1.74-.64 2.53-1.08a7.21 7.21 0 012.85-1.08c-1.24-.22-2.35.55-3.28.58 0-.43.11-.37.25-.58a5.26 5.26 0 00-2.27.83 8.05 8.05 0 013-1.5c-.18-.35-.64.19-1 .17 0-.22.33-.12.34-.33-.25 0-.26.19-.51.16.12-.33.58-.31.84-.5-3.32.52-5.76 3.18-7.73 5.57.08.16.33-.22.42-.33 0 .33-1 1.11-1.09 1.83a21.06 21.06 0 013.36-4.16c.15.06 0 .15 0 .25.38.07.2-.41.5-.41-.1.56-.59.74-.75 1.24.36-.09.32-.57.84-.5-.1.49-.71.47-.67 1.08-.5 0-.67.29-.68.75-.71.07-1.07 1.55-1.68 2.41-.19 0-.09-.24-.25-.25-.36.36-.26.7-.42 1.17-.48-.29-.62 1.51-1 2.24.29-.34.11.6.08.83-.18 0 0-.29-.08-.41a.72.72 0 00-.17.58c.1 0 .15 0 .17.08.26 0 0-.41.33-.33-.07.14-.1.49.09.25a19.2 19.2 0 00.42 4.07 12.35 12.35 0 01-.59-2.08 6.47 6.47 0 001.93 5.07c0 .13-.07 0-.16 0 .09.28.38.34.5.59a1.44 1.44 0 01-1.09-.67c.33 1 1.63 1.83 2.52 2.58a3.71 3.71 0 01-1.2-.45.12.12 0 010-.05l-.14-.08a5.11 5.11 0 01-1.9-2.19c-.35.23 0 .38.08.65.32 1.07 1.25 1.11 2 1.76a7.47 7.47 0 004.21 3.18 13.12 13.12 0 01-1.68-1.38 20.47 20.47 0 003.58 2.05c-.3.08 0 .19.2.18-.05.31-.38-.09-.45.17.05 0 .06.1 0 .18a.73.73 0 00.61.09c-.1-.09-.44-.09-.35-.24.23.07 1.17.29.73.41.83 0 2.55.57 2.48 0zm7.88-2.14a4.41 4.41 0 00-1.41 1.31h.15a7.69 7.69 0 001.26-1.29zm-5.66 2c.13.33.55 0 .79.08-.09-.23-.54 0-.8-.08zm0 1.3c-.4-.22-1.14.12-1.69.06.41.24 1.16 0 1.69-.06zm1.1-.48l.21-.15-2.22.4c.64.15 1.6-.27 2-.25zm-.36.26a4 4 0 011.37-.09l1.2-.85c-.45.15-.91.28-1.37.39a1.07 1.07 0 00-.36.43c-.29-.19.23-.23.24-.4-.32.17-.66.31-1 .48l.2-.16c-.17 0-.35.1-.28.2zm6.89-3.86a16.67 16.67 0 01-5.19 3.82 3.19 3.19 0 01.44.13 17.69 17.69 0 004.79-4zm-1.43 6.15h-.15z" fill-rule="evenodd" fill="#fff"/><path id="Path_2916" data-name="Path 2916" class="cls-2" d="M229.19 226.65l-1.89-2-.36-.38a10 10 0 11-2.19-14 10.13 10.13 0 012.23 2.25l3.2-3.48a14.66 14.66 0 10-2 20.63 14.12 14.12 0 002-2.05z"/></g></svg>