<svg xmlns="http://www.w3.org/2000/svg" viewBox="0 0 536 536"><defs><style>.cls-2{fill:#fd0}.cls-3{fill:#fff}.cls-6{fill:#28347d}</style></defs><g id="Rostro3"><circle cx="402.53" cy="270.5" r="76.15" fill="#93ebe4"/><path class="cls-2" d="M389.77 303.75a80.07 80.07 0 008.69 19.59c-7.86-10-12.61 8.53-12.61 8.53-3.45-15.26-1.16-25.71 1.55-32.35a46.48 46.48 0 012.73-5.55 89.31 89.31 0 01-.36 9.78zm38.56-7.75c2.57 6.62 5.28 18.93-.4 36.82 0 0-2.33-23.45-12.84-8.21 5.18-7.49 9.59-16 11.62-22.35a94.78 94.78 0 01-.82-11.38 39.45 39.45 0 012.44 5.12z"/><path class="cls-2" d="M466.07 317.33c1.18 1 2.25 1.94 3.22 2.88a76.17 76.17 0 01-122.5 7.36c.23-.31.48-.6.73-.88 5.52-6 32.46-22.95 39.88-27.17a39.8 39.8 0 00-1.24 3.48l-.27.89q-.3 1.07-.57 2.22c-.07.32-.15.64-.21 1s-.15.74-.22 1.12-.11.65-.17 1-.09.61-.13.91-.09.62-.12.94-.08.64-.11 1c-.08.78-.14 1.59-.18 2.42 0 .45 0 .9-.05 1.36s0 .93 0 1.41a66.87 66.87 0 001.74 14.69s.07-.28.21-.75l.33-1.05c.18-.54.4-1.16.66-1.84.2-.5.42-1 .66-1.57l.25-.54a19 19 0 011.47-2.61 10 10 0 011.44-1.73c1.67-1.6 3.73-2.13 6.12 0l.24.23a11.58 11.58 0 011.17 1.28l.92 1.51.24.37c.35.55.7 1.09 1.07 1.63v.06l1.19 1.74.3.41c.44.62.89 1.23 1.36 1.84s.77 1 1.17 1.5c.21.27.42.53.64.79.45.56.92 1.11 1.39 1.65q.53-.52 1.05-1.08c.64-.67 1.27-1.37 1.89-2.11.33-.38.65-.77 1-1.16.65-.79 1.29-1.6 1.92-2.44.82-1.08 1.63-2.19 2.41-3.32.07-.11.15-.21.22-.31s.21-.3.32-.44a18.93 18.93 0 011.36-1.71l.44-.47a7.43 7.43 0 013.07-2.14l.26-.07c1.64-.38 2.93.51 3.94 2a10.77 10.77 0 01.6 1c.19.36.36.74.53 1.13s.31.79.46 1.2c.21.62.4 1.25.57 1.88a38.296 38.296 0 01.67 2.95c.33 1.8.46 3.1.46 3.1a63.48 63.48 0 003.19-24.09 46.89 46.89 0 00-.58-4.67c-.06-.37-.13-.73-.2-1.07s-.11-.53-.16-.79-.07-.32-.11-.48c-.11-.47-.22-.92-.34-1.35s-.18-.68-.28-1-.12-.43-.19-.64-.18-.59-.28-.87-.13-.39-.2-.58c-.15-.44-.31-.86-.46-1.25 6.78 3.81 20.15 9.35 28.34 14.56.77.49 1.51 1 2.21 1.44l1.38.93c.67.45 1.31.91 1.92 1.35l1.19.88c.58.44 1.14.87 1.67 1.29z"/><path class="cls-3" d="M425.89 290.92a94.78 94.78 0 00.82 11.38c-2 6.3-6.44 14.86-11.62 22.35a.24.24 0 00-.06.08 73.46 73.46 0 01-8.25 10.11 76.82 76.82 0 01-6.1-8 24.83 24.83 0 00-2.22-3.51 80.07 80.07 0 01-8.69-19.59 89.31 89.31 0 00.36-9.78 57.76 57.76 0 00-.47-7.5c4.13 5.83 9.8 8.66 15.14 8.84 5.64.19 13.95-3.09 19.23-11.66a27.78 27.78 0 002.06-4.12c-.24 3.12-.29 7.32-.2 11.4zm-11.67-16.8c-.43.69-3.1 3.95-6.23 4.41a28 28 0 01-7.47-.27c-2.44-.45-5-3.79-5.38-4.53 2.02.33 14.3 1.06 19.08.39z"/><path d="M392.12 233.48c-4.24 2.66-7.35 4.49-8.18 23.19a4.88 4.88 0 00-1.81-1.73c-.28-4.11-1-15.59.95-20.18 1.47-3.51 3.59-4.53 3.59-4.53a6.4 6.4 0 00-2.73-.37c1.93-2.11 5.71-3.1 5.71-3.1a11.7 11.7 0 00-4 0c2.67-3.23 14.15-10 26.37-9.25s16.81 8.94 16.81 8.94a3.1 3.1 0 002.49 0 2.2 2.2 0 01-1.24 2.6 3.48 3.48 0 002.32.87 2.31 2.31 0 01-1.77 1.12c2.79 2.86 4.53 18.92 2.93 26.26-1.73.5-2.61 3.3-3.17 5.08h-1.3c.24-2.82 1.86-19.24-4.09-25.62a10.63 10.63 0 00-4.9-2.73 20 20 0 00-6.44-.66 16.15 16.15 0 00-5.3 1.15 8.62 8.62 0 00-2 1.16c-4.54-3.52-10.72-4.4-14.24-2.2z" fill="#1eadfe"/><path class="cls-3" d="M436.29 259.47a4 4 0 00-.1-.5 2.17 2.17 0 01-.07-.24 2.77 2.77 0 00-.18-.43 2.18 2.18 0 00-.36-.52 1.67 1.67 0 00-.69-.44l-.38-.09h-.39a1.27 1.27 0 00-.34 0h-.22l-.19.07a.39.39 0 00-.11.06l-.2.11-.09.06-.21.17a3.68 3.68 0 00-.5.54 6.53 6.53 0 00-.82 1.39l-.18.39q-.16.39-.3.78c-.19.52-.35 1-.49 1.47h-1.3c.25-2.81 1.86-19.23-4.09-25.61a7.71 7.71 0 00-1.44-1.2 3.26 3.26 0 00-.4-.24 5.46 5.46 0 00-.75-.41l-.42-.2-.48-.2a4.09 4.09 0 00-.49-.18l-.41-.14-.5-.16h-.16l-.69-.17c-.24-.06-.47-.11-.71-.15-.48-.09-1-.16-1.45-.21l-.64-.06a17.75 17.75 0 00-2.42 0h-.37a18.37 18.37 0 00-1.85.2l-.58.1-.55.11-.65.17-.48.14-.61.2-.58.23-.56.25c-.23.12-.45.23-.66.36a7.54 7.54 0 00-.8.55 16.48 16.48 0 00-3.45-2.06c-.4-.18-.8-.34-1.2-.49a14.39 14.39 0 00-5.5-.84 8.79 8.79 0 00-1.28.15l-.61.13a7.65 7.65 0 00-1.68.62l-.51.29-1.16.74c-.25.16-.49.33-.73.5a11.68 11.68 0 00-1.22 1l-.17.17a12.45 12.45 0 00-2.94 5.49q-.18.59-.33 1.23c-.11.43-.21.88-.31 1.36-.06.32-.12.66-.19 1l-.09.52c-.06.36-.11.73-.17 1.11s-.11.77-.16 1.17l-.15 1.26c0 .22 0 .44-.07.66 0 .45-.08.91-.13 1.39 0 .23 0 .48-.06.72 0 .49-.07 1-.11 1.52 0 .26 0 .52-.05.79 0 .54-.06 1.09-.09 1.66v.86a5 5 0 00-1.82-1.73.75.75 0 00-.24-.08 1.38 1.38 0 00-.6 0 1.49 1.49 0 00-.45.19c-1.11.72-1.64 3.2-1.35 5.78a11.19 11.19 0 00.23 1.39c.06.25.12.55.19.89s.09.47.14.73.11.58.16.89l.15.8c.11.57.22 1.16.34 1.76.72 3.53 1.71 7.11 3.06 5.79a2.84 2.84 0 00.46-.62l.16-.28a44.79 44.79 0 002.25 8.54c.1.28.21.56.34.84l.36.83c.12.27.25.54.38.81.26.53.54 1.06.84 1.56.15.26.3.5.46.75l.27.41c.13.21.27.41.41.61.15.22.31.43.47.64s.25.33.37.49.5.61.76.89.43.49.67.72a2.91 2.91 0 00.3.31 6.15 6.15 0 00.59.56 1.63 1.63 0 00.27.26c.18.17.36.33.55.48s.3.26.46.38.32.25.48.36a6.75 6.75 0 00.57.41 2 2 0 00.28.19 7.15 7.15 0 00.68.44 3.26 3.26 0 00.4.24 4.71 4.71 0 00.58.32 4.5 4.5 0 00.43.23 6.53 6.53 0 00.66.31 2 2 0 00.3.14c.29.13.58.25.87.35l.14.05.6.21.66.2.93.24a16 16 0 002 .33c.32 0 .65.05 1 .06h.09a20.76 20.76 0 0012.52-4.3c.61-.45 1.22-.94 1.81-1.47a27 27 0 002.84-3c.54-.67 1.06-1.37 1.56-2.12.17-.25.33-.51.49-.77a24 24 0 001.18-2.15c.15-.31.3-.63.44-.95s.3-.69.44-1a34.19 34.19 0 001.84-6.51c.78 2.39 2.16 2.09 3.52.73a9.8 9.8 0 00.95-1.11c.18-.24.36-.5.54-.77s.35-.55.51-.83a18.87 18.87 0 001.42-3c.74-2.52 1.66-6.22 1.31-8.57zm-27.15 18.77a6.46 6.46 0 01-1.15.29 12.22 12.22 0 01-1.4.12 30.22 30.22 0 01-6.07-.39 5.64 5.64 0 01-2.26-1.1c-.29-.22-.56-.45-.83-.69s-.27-.25-.38-.37a10.92 10.92 0 01-1.9-2.37c2 .32 14.28 1.06 19.07.39-.05.08-.14.21-.26.37a12 12 0 01-4.82 3.75z"/><path d="M394.24 254.15c0 .47-.18.86-.41.86s-.42-.39-.42-.86.18-.85.42-.85.41.38.41.85zm22.95.48c0 .47-.19.86-.42.86s-.42-.39-.42-.86.19-.85.42-.85.42.38.42.85z" fill="none" stroke="#28347d" stroke-linecap="round" stroke-linejoin="round" stroke-width="2.5"/><path class="cls-6" d="M383.74 263.72a75.66 75.66 0 001.55 10 37.91 37.91 0 003.32 9.38 22.51 22.51 0 006.22 7.47 16.44 16.44 0 0018.17 1.86 24.62 24.62 0 007.72-5.88c4.43-4.89 6.62-11.43 7.53-18.12a.27.27 0 01.3-.22.26.26 0 01.22.26 33.55 33.55 0 01-1.54 10.19 26.32 26.32 0 01-5 9.14 24.89 24.89 0 01-8.32 6.44 18.47 18.47 0 01-20.18-2.18 24.35 24.35 0 01-6.55-8.2 28 28 0 01-1.88-4.87 41.3 41.3 0 01-1.19-5 60.46 60.46 0 01-.89-10.22.29.29 0 01.3-.29.28.28 0 01.22.24z"/><path class="cls-6" d="M383.42 257a9.88 9.88 0 00-1.05-.94 1.44 1.44 0 00-.87-.37.32.32 0 00-.19.07 1.48 1.48 0 00-.28.31 3.89 3.89 0 00-.45 1.15 10.59 10.59 0 00-.24 2.83 11.68 11.68 0 00.15 1.45l.28 1.55c.35 2.09.62 4.15 1.06 6.17a13.9 13.9 0 00.84 2.87 2.55 2.55 0 00.32.53c.13.13.15.15.19.15s.24-.12.38-.29a3.73 3.73 0 00.41-.58.4.4 0 01.57-.13.41.41 0 01.16.53 5.85 5.85 0 01-.43.76 1.59 1.59 0 01-.82.68 1 1 0 01-.71 0 1.35 1.35 0 01-.51-.32 3 3 0 01-.58-.75 14.81 14.81 0 01-1.19-3.08c-.58-2.06-1-4.14-1.43-6.18l-.35-1.53a12.14 12.14 0 01-.24-1.68 10.45 10.45 0 01.25-3.42 5.78 5.78 0 01.76-1.75 3 3 0 01.81-.81 2.3 2.3 0 011.29-.35 2.87 2.87 0 011.9 1 5.61 5.61 0 011 1.43.64.64 0 01-1 .75zm28.79-9.24a12.06 12.06 0 013.28-.26 21.76 21.76 0 013.12.36 23.72 23.72 0 013.07.76 12 12 0 013 1.37.86.86 0 01.25 1.19.85.85 0 01-.84.38H424a28.13 28.13 0 00-2.82-.2c-1 0-1.93 0-2.9-.06h-2.9c-.94 0-1.92 0-2.74-.09h-.16a1.73 1.73 0 01-.27-3.41zM399 250.39c-1.75-.09-3.63-.13-5.48-.15s-3.72 0-5.56-.05h-.08a.86.86 0 01-.84-.89.88.88 0 01.44-.74 15.27 15.27 0 015.85-1.64 22.86 22.86 0 016.07 0 1.74 1.74 0 01-.35 3.46zm4.31 2.61c-.39 1.9-.84 3.78-1.3 5.66s-.92 3.76-1.26 5.58a6.75 6.75 0 00-.12 1.11s-.06-.13-.08-.13a2.19 2.19 0 00.46.18 17.43 17.43 0 002.68.44c1.87.19 3.81.33 5.7.37a.3.3 0 01.3.31.31.31 0 01-.22.29 20.8 20.8 0 01-5.91.75 13.36 13.36 0 01-3.08-.33 3.7 3.7 0 01-.9-.33 1.86 1.86 0 01-.56-.43 1.65 1.65 0 01-.26-.44c0-.12-.06-.24-.08-.36a6.51 6.51 0 01.13-1.78 43.89 43.89 0 011.58-5.7 56.59 56.59 0 012.13-5.46.4.4 0 01.76.26zm-1.49 28.82a13.17 13.17 0 011.42 0h1.45a25.63 25.63 0 002.76 0h.08a.52.52 0 01.55.48.51.51 0 01-.15.39 3.48 3.48 0 01-1.61.84 6.16 6.16 0 01-1.69.18 7 7 0 01-1.65-.22 4.27 4.27 0 01-1.58-.74.54.54 0 01-.11-.76.56.56 0 01.39-.21zm-2.02-56.75a11.22 11.22 0 014.47.06 12.6 12.6 0 014.24 1.67 7.86 7.86 0 011.83 1.6 4.44 4.44 0 011.05 2.46 3.66 3.66 0 01-.83 2.57 4.68 4.68 0 01-1.94 1.42.42.42 0 01-.55-.24.41.41 0 010-.4c.81-1.18 1.43-2.25 1.3-3.17a2.9 2.9 0 00-.6-1.43 6.93 6.93 0 00-1.35-1.29 13.68 13.68 0 00-3.57-1.83 14.18 14.18 0 00-4-.84.29.29 0 01-.05-.57z"/><path class="cls-6" d="M404.74 222.18a8.77 8.77 0 012.61.14 14.42 14.42 0 012.51.72 19 19 0 014.61 2.46 11.37 11.37 0 012 1.81 5.27 5.27 0 011.35 2.66 3 3 0 01-.27 1.72 3.33 3.33 0 01-1.09 1.22 5.65 5.65 0 01-2.63 1 .51.51 0 01-.32-1 9.59 9.59 0 001.9-1.23 2.31 2.31 0 00.53-.7 1.71 1.71 0 00.09-.75 4 4 0 00-.89-1.81 11.9 11.9 0 00-1.66-1.67 20.82 20.82 0 00-4.09-2.66 13.45 13.45 0 00-4.66-1.49.2.2 0 010-.39z"/><path class="cls-6" d="M411.52 220.35a9.24 9.24 0 012.85.7 16.56 16.56 0 012.6 1.29 24.19 24.19 0 014.63 3.52 17.5 17.5 0 011.95 2.23 7 7 0 011.33 2.89 2.84 2.84 0 01-.26 1.87 3 3 0 01-.6.79 3.43 3.43 0 01-.77.49 6.36 6.36 0 01-3.1.46.55.55 0 01-.53-.59.56.56 0 01.46-.52 8.33 8.33 0 002.41-.73 1.35 1.35 0 00.72-1.53 5.76 5.76 0 00-1-2.25 16 16 0 00-1.7-2.11 27.86 27.86 0 00-4.18-3.62 14.44 14.44 0 00-4.92-2.4.25.25 0 01-.19-.3.25.25 0 01.3-.19zm-20.66 74.05a50.17 50.17 0 00-3.7 8.8 47.07 47.07 0 00-1.86 9.35 59.14 59.14 0 00-.17 9.6l.16 2.41.28 2.41c.13 1.61.47 3.19.67 4.81h-.79a27.71 27.71 0 011.73-6.06 18.19 18.19 0 011.5-2.86 9.64 9.64 0 012.31-2.53 4.85 4.85 0 013.7-.94 6.09 6.09 0 013.17 1.78 17.65 17.65 0 013.61 5.36.85.85 0 01-1.47.84c-.27-.42-.54-.84-.8-1.26s-.57-.81-.85-1.22l-.9-1.14a11.59 11.59 0 00-1-1 4.62 4.62 0 00-2.13-1.2 2.83 2.83 0 00-2.1.55 13 13 0 00-3.44 4.43 50.9 50.9 0 00-2.53 5.5.4.4 0 01-.78 0 62.13 62.13 0 01-1.89-9.67 53.76 53.76 0 01-.22-9.91 45.4 45.4 0 011.87-9.79 40.34 40.34 0 014.18-9 .85.85 0 011.47.85zm35.78-3.89a42.7 42.7 0 012.43 4.94 40.58 40.58 0 011.71 5.24 45.7 45.7 0 011.35 10.9 54.36 54.36 0 01-1 10.89c-.29 1.79-.81 3.54-1.24 5.3s-1.11 3.45-1.69 5.16a.28.28 0 01-.36.18.28.28 0 01-.19-.25c-.43-2-.92-3.93-1.53-5.82a17.54 17.54 0 00-2.46-5.17 3.31 3.31 0 00-1.85-1.32 3.1 3.1 0 00-2.11.59 18.66 18.66 0 00-4 4 .87.87 0 01-1.2.13.84.84 0 01-.19-1.11 15.16 15.16 0 014.26-4.82 4.88 4.88 0 013.63-.87 5 5 0 013 2.18 13.07 13.07 0 011.46 2.92 19.55 19.55 0 01.85 3 31.76 31.76 0 01.71 6.14l-.56-.06c.38-1.76.86-3.48 1.2-5.24s.72-3.5.9-5.28a59.1 59.1 0 00.61-10.62 48 48 0 00-1.37-10.37 42.36 42.36 0 00-3.82-9.83.85.85 0 011.49-.83zm-31.39-17.42h4.71c1.57 0 3.17.1 4.75.16l4.74.2c1.57.05 3.15.14 4.7.12a.51.51 0 01.12 1 27.53 27.53 0 01-4.82.67c-1.61.1-3.22.11-4.82.08s-3.21-.11-4.8-.26a34 34 0 01-4.81-.74.66.66 0 01-.48-.79.63.63 0 01.64-.49z"/><path class="cls-6" d="M395.53 273.55a15.1 15.1 0 004 3.29 4.14 4.14 0 001.05.37c.36.07.85.11 1.28.16.9.11 1.81.13 2.71.19s1.82 0 2.69 0a6.11 6.11 0 001.19-.16 5.83 5.83 0 001.15-.4 14.68 14.68 0 004.23-3.11.44.44 0 01.71.51 10.64 10.64 0 01-1.75 2.41 10.29 10.29 0 01-2.36 1.91 7.07 7.07 0 01-1.45.66 7.82 7.82 0 01-1.58.33 22.4 22.4 0 01-2.94.1 26 26 0 01-2.9-.24 9.75 9.75 0 01-1.49-.29 5.22 5.22 0 01-1.55-.69 10.19 10.19 0 01-2.26-2.06 9.5 9.5 0 01-1.56-2.58.41.41 0 01.24-.54.43.43 0 01.46.11zm33.16-11.21a94.44 94.44 0 00-.13-11.54 50.19 50.19 0 00-.8-5.63 26.58 26.58 0 00-1.7-5.29l-.66-1.19c-.23-.38-.53-.71-.79-1.08a7.92 7.92 0 00-.89-.94 10.5 10.5 0 00-1.09-.75 14.47 14.47 0 00-5.21-1.75 19.31 19.31 0 00-5.63 0 12 12 0 00-5.23 1.85.34.34 0 01-.41 0 16 16 0 00-9.26-2.95 10.83 10.83 0 00-2.35.33 7.54 7.54 0 00-2.08 1 13.1 13.1 0 00-3.67 3.07 12.81 12.81 0 00-2.09 4.31 35.77 35.77 0 00-1.1 4.89c-.54 3.33-.82 6.72-1 10.12a.61.61 0 01-.63.55.6.6 0 01-.56-.61c.12-3.43.31-6.86.76-10.29a36.62 36.62 0 011-5.13 14.63 14.63 0 012.25-4.91 10.75 10.75 0 011.94-2c.73-.54 1.48-1 2.21-1.46a8.94 8.94 0 012.61-1.05 12.08 12.08 0 012.73-.26 16 16 0 019.7 3.86h-.43a12.73 12.73 0 015.49-2.35 20.61 20.61 0 016-.21 16.1 16.1 0 015.83 1.68 15.59 15.59 0 011.33.84 8.73 8.73 0 011.16 1.11c.32.41.68.81 1 1.24l.79 1.34a22.18 22.18 0 011.9 5.73 42.2 42.2 0 01.63 5.9 64.36 64.36 0 01-.66 11.71.43.43 0 01-.48.36.43.43 0 01-.48-.5z"/><path class="cls-6" d="M428.31 272.89a3.1 3.1 0 00.94 1.19.63.63 0 00.47.07 1.8 1.8 0 00.62-.29 10 10 0 002.29-2.67 16.48 16.48 0 001.62-3.29 29.28 29.28 0 00.94-3.6 18.75 18.75 0 00.36-3.62 6.75 6.75 0 00-.22-1.62 1.22 1.22 0 00-.67-.88 1.26 1.26 0 00-1.12 0 3.13 3.13 0 00-1.05 1 21.09 21.09 0 00-1.63 3.26v.05a.44.44 0 01-.43.28l-1.31-.07a.39.39 0 01-.37-.42.41.41 0 01.37-.38l1.31-.07-.45.33a13 13 0 011.24-3.76 4.21 4.21 0 011.53-1.69 2.85 2.85 0 012.54-.18 2.88 2.88 0 011.65 2 6.65 6.65 0 01.24 2.13 18.45 18.45 0 01-.62 3.91c-.33 1.26-.7 2.49-1.15 3.71a20.63 20.63 0 01-1.71 3.54 9.89 9.89 0 01-2.64 3.06 2.82 2.82 0 01-1.1.47 1.8 1.8 0 01-1.35-.28 2.17 2.17 0 01-.76-1 3.5 3.5 0 01-.29-1 .41.41 0 01.34-.46.4.4 0 01.41.2z"/><path class="cls-6" d="M432.9 257.15a36.27 36.27 0 00.5-6.53c0-2.21-.13-4.42-.35-6.62s-.55-4.39-.95-6.54c-.19-1.09-.44-2.14-.68-3.2a16 16 0 00-.95-3 .3.3 0 01.08-.39l.09-.08a5.18 5.18 0 01.8-.5c.25-.14.45-.26.75-.45l.26.38a4 4 0 01-1.38-.16 3.62 3.62 0 01-1.25-.67.37.37 0 01-.07-.51l.15-.14a4.73 4.73 0 00.46-.44 2.56 2.56 0 00.36-.47 2.23 2.23 0 00.25-1.21l.48.23a4.29 4.29 0 01-1.36.46 2.91 2.91 0 01-1.57-.2.45.45 0 01-.17-.13l-.09-.13a21.92 21.92 0 00-9.08-6.93 23.15 23.15 0 00-11.57-1.6 52.28 52.28 0 00-5.82 1.08 39.52 39.52 0 00-5.68 1.73 45.42 45.42 0 00-5.41 2.47 22.37 22.37 0 00-4.84 3.39l-.24-.41a19 19 0 012-.49 8.77 8.77 0 011.06-.13 3.74 3.74 0 011.22.07.82.82 0 01.61 1 .81.81 0 01-.67.63 14.93 14.93 0 00-1.52.34c-.51.14-1 .31-1.51.49a9.57 9.57 0 00-2.71 1.51l-.16-.33a9.54 9.54 0 011.45-.29 4 4 0 01.78-.05 2.53 2.53 0 01.94.18l.22.19a.75.75 0 01.08 1.06.77.77 0 01-.38.24 3.84 3.84 0 00-1.19.7 6.5 6.5 0 00-1.06 1.1 9.1 9.1 0 00-1.46 2.75 23 23 0 00-.74 6.34c0 4.31.17 8.65.39 13a.85.85 0 01-1.7.12 90.3 90.3 0 01-.34-6.58 56.15 56.15 0 01.21-6.61 32.7 32.7 0 011.22-6.58 14.55 14.55 0 011.5-3.07 11.63 11.63 0 011-1.41 7 7 0 011.4-1.28l-.08 1.49c0-.09-.19-.2-.36-.29a3.89 3.89 0 00-.58-.26 9.45 9.45 0 00-1.32-.34h-.12a.18.18 0 01-.13-.2.17.17 0 01.09-.11 9.63 9.63 0 012.56-2.24c.48-.3 1-.58 1.48-.84a15.27 15.27 0 011.59-.7l-.08 1.62a2.43 2.43 0 00-.73-.27 6.84 6.84 0 00-.94-.15 18.09 18.09 0 00-2-.12h-.05a.25.25 0 01-.25-.25.28.28 0 01.06-.16 19.41 19.41 0 014.69-4 37 37 0 015.43-2.87 40.82 40.82 0 015.82-2 30.72 30.72 0 016.1-.87 33.66 33.66 0 0112.23 1.56 18.16 18.16 0 019.68 7.71l-.25-.25a1.71 1.71 0 00.89.35 3.21 3.21 0 001.11-.09h.13a.29.29 0 01.35.2v.06a2.21 2.21 0 010 1.85 2.48 2.48 0 01-.58.77 2.43 2.43 0 01-.84.45l.12-.69a2.7 2.7 0 00.91.63 3.36 3.36 0 001.11.28.27.27 0 01.26.29V230a1.43 1.43 0 01-.73 1.1 1.59 1.59 0 01-1.26.18l.17-.47a6.87 6.87 0 012 2.94 23.19 23.19 0 011 3.31 46.85 46.85 0 01.92 6.74c.17 2.26.26 4.52.22 6.79a34.35 34.35 0 01-.72 6.82.71.71 0 01-.84.53.7.7 0 01-.53-.81zm-43.57 42.32a63.56 63.56 0 003.17 9.32c1.24 3 2.64 6 4.15 9s3.12 5.8 4.91 8.57 3.67 5.47 5.49 8.28h-.53c2.34-2.91 4.53-5.87 6.64-8.92a108.62 108.62 0 005.86-9.41 118.8 118.8 0 005-9.88 57.06 57.06 0 003.54-10.33.39.39 0 01.46-.3.37.37 0 01.3.31 15.2 15.2 0 01-.44 5.79c-.25.92-.52 1.84-.83 2.74s-.65 1.79-1 2.66a80 80 0 01-5 10.16 110.06 110.06 0 01-6.26 9.43 55.67 55.67 0 01-3.6 4.37l-2 2c-.71.63-1.4 1.28-2.12 1.88a.41.41 0 01-.54 0 43.76 43.76 0 01-6.62-7.63 73 73 0 01-9.3-17.94 45.36 45.36 0 01-1.4-4.88 26 26 0 01-.69-5.06.42.42 0 01.41-.43.4.4 0 01.42.32z"/><path class="cls-6" d="M426.66 279.57c.08 1.9.14 3.78.16 5.67l.05 5.67c.05 3.77.08 7.57.36 11.31a.51.51 0 01-.48.56.52.52 0 01-.55-.4 44.56 44.56 0 01-.89-5.71c-.2-1.9-.32-3.81-.39-5.72a51.41 51.41 0 01.59-11.48.58.58 0 011.15.09zm-36.33 6.79a28.71 28.71 0 01.63 4.38c.14 1.45.14 2.91.17 4.37s0 2.9-.14 4.36a33.11 33.11 0 01-.57 4.37.65.65 0 01-.78.49.66.66 0 01-.52-.64v-12.87c0-1.43-.05-2.84-.13-4.24a.69.69 0 011.35-.2zm-43.9 40.95a24 24 0 014.36-4.58c.79-.69 1.58-1.37 2.4-2s1.63-1.29 2.46-1.91c3.28-2.53 6.82-4.7 10.3-6.92s6.77-4.74 10.34-6.82a123.26 123.26 0 0110.93-5.87.36.36 0 01.47.17.35.35 0 01-.12.43c-3.36 2.4-6.79 4.68-10.2 7s-7.07 4.23-10.45 6.58c-1.71 1.14-3.36 2.37-5 3.56s-3.36 2.36-5.06 3.51-3.37 2.35-5 3.53a33.61 33.61 0 00-4.65 3.85.44.44 0 01-.69-.54zm122.51-6.74c-.81-.58-1.58-1.19-2.36-1.79s-1.54-1.23-2.36-1.79c-1.59-1.16-3.21-2.25-4.84-3.36-.82-.56-1.64-1.1-2.47-1.63s-1.64-1.08-2.47-1.61c-1.67-1-3.38-2-5.13-3-3.48-1.89-7.16-3.41-10.77-5.08-1.8-.85-3.57-1.76-5.31-2.76a38.41 38.41 0 01-5-3.33.26.26 0 010-.36.25.25 0 01.29-.08 109.7 109.7 0 0111 4.58c3.57 1.76 7.07 3.7 10.65 5.47 1.78.93 3.57 1.83 5.32 2.83s3.45 2.08 5.11 3.22a56.39 56.39 0 014.79 3.68 52.13 52.13 0 014.29 4.25.5.5 0 010 .71.51.51 0 01-.63 0z"/><circle cx="405.32" cy="278.86" r="76.15" stroke-miterlimit="10" stroke-width="2.37" fill="none" stroke="#28347d"/></g></svg>