<svg xmlns="http://www.w3.org/2000/svg" viewBox="0 0 536 536"><defs><style>.cls-2{fill:#fd0}.cls-4{fill:#fff}.cls-7{fill:#28347d}</style></defs><g id="Rostro2"><circle cx="441.19" cy="86.56" r="76.15" fill="#93ebe4"/><path class="cls-2" d="M430.14 111.44c-2.29 2.42-5 5.2-7.27 7.8-.06.07-.13.14-.19.22l-.07.09-.3.34-.21.24a3.88 3.88 0 00-.26.31l-.1.11-.23.28a31.27 31.27 0 00-3.19 4.33l2.88 2.21-3.27 1.15v.19l-.24.72c0 .09-.07.2-.11.31a2.64 2.64 0 00-.1.3v.07a.58.58 0 00-.05.14 2.47 2.47 0 00-.1.29c0 .1-.06.21-.1.32v.1c-.1.31-.22.65-.34 1 0 .13-.09.26-.13.4s-.13.38-.19.57a1.46 1.46 0 00-.07.19c-.14.41-.29.84-.43 1.29s-.31.92-.47 1.42c0 .12-.08.24-.13.37l-.12.38c-.09.25-.17.51-.26.78s-.09.28-.14.43c-.11.33-.22.67-.34 1s-.22.69-.34 1c-.19.57-.38 1.16-.57 1.76s-.39 1.21-.59 1.83l-.12.37-.18.55c-.11.32-.21.65-.31 1 0 .11-.07.22-.1.33l-.21.63c-.11.32-.21.65-.31 1l-.09.3-.19.61v.08a74.18 74.18 0 01-10.6-6.62c.13-.55.27-1.09.41-1.62s.25-1 .38-1.43.31-1.16.48-1.73.25-.85.37-1.27.23-.76.35-1.13c.22-.7.44-1.38.67-2 .16-.47.33-.93.49-1.38s.31-.85.47-1.26a35.45 35.45 0 012.46-5.18l.28-.47.29-.45c.19-.29.39-.56.59-.82l.23-.3a1.34 1.34 0 01.11-.14l.26-.29a3 3 0 01.3-.32 7 7 0 01.83-.74l.39-.29q.28-.23.57-.42c.36-.26.71-.51 1.07-.75a40.77 40.77 0 014-2.39l1-.49.94-.46.74-.35c2.83-1.3 5.56-2.26 8.11-3.19l1.16-.42c.38-.14.77-.28 1.14-.43z"/><path class="cls-2" d="M434.81 108.37v2.17l-.19.3c-.14.21-.29.47-.46.77l-.28.49-.23.4c-.13.24-.27.49-.41.76s-.24.43-.36.66-.26.48-.39.73l-.74 1.41-.56 1.09-1 1.92c-.5 1-1 2.08-1.58 3.22l-.63 1.31-.31.62c-.15.32-.3.65-.46 1a.37.37 0 00-.05.11c-.17.35-.34.71-.5 1.07s-.46 1-.68 1.45c-.46 1-.93 2-1.39 3-.24.52-.48 1-.71 1.58s-.48 1.06-.71 1.6c-1.2 2.7-2.41 5.53-3.59 8.44-.23.54-.46 1.09-.67 1.64a1.42 1.42 0 00-.08.18c0 .06-.05.13-.08.19-.44 1.09-.87 2.19-1.29 3.29a1 1 0 00-.09.22c-.16.41-.32.81-.47 1.22s-.37 1-.54 1.44c-1.67-.73-3.3-1.53-4.9-2.38v-.08l.18-.61.09-.3c.11-.33.21-.65.31-1s.13-.42.2-.63c0-.11.06-.22.1-.33.1-.33.2-.66.31-1l.18-.55.12-.37c.06-.18.12-.37.17-.55l.42-1.28c.15-.46.3-.91.44-1.35 0-.14.09-.28.13-.41.23-.71.45-1.39.67-2.05.05-.15.09-.29.14-.43s.17-.53.26-.78.17-.51.25-.75c.16-.5.32-1 .47-1.42l.43-1.29a.7.7 0 01.06-.19c0-.14.09-.28.13-.41a.75.75 0 01.05-.16c0-.14.09-.27.13-.4.12-.36.24-.7.34-1v-.1l.2-.61a.58.58 0 01.05-.14.19.19 0 010-.07 2.64 2.64 0 01.1-.3c0-.11.07-.22.11-.31.13-.4.23-.67.27-.81v-.1l3.27-1.15-2.88-2.21a31.27 31.27 0 013.19-4.33l.23-.28.09-.11.27-.31.21-.24c.09-.12.19-.23.29-.34l.08-.09c.06-.07.13-.14.19-.22 2.3-2.6 5-5.38 7.27-7.8.83-.87 1.6-1.69 2.29-2.43l1-1.13c.21-.23.41-.45.59-.67l.71-.86v.43a1.21 1.21 0 010 .19 2.18 2.18 0 010 .25c.23.4.24.81.24 1.18z"/><path d="M458.22 125.17l-1.2 3-1.55 3.94c-.11.27-.21.53-.31.8-.42 1.07-.84 2.16-1.27 3.25l-.63 1.64-1.27 3.3-.63 1.67-.63 1.66c-.11.26-.2.53-.3.79-.84 2.28-1.67 4.56-2.48 6.82-.59 1.67-1.17 3.33-1.71 5a75.75 75.75 0 01-29.88-6.4q.25-.72.54-1.44c.16-.41.32-.82.47-1.22a1 1 0 01.09-.22c.28-.73.57-1.46.86-2.19.14-.37.29-.74.43-1.1 0-.06.05-.13.08-.19a1.42 1.42 0 01.08-.18c.22-.55.44-1.09.67-1.64 1.18-2.91 2.39-5.74 3.59-8.44.24-.54.48-1.07.71-1.6s.47-1.06.71-1.58c.47-1 .93-2 1.39-3 .22-.49.45-1 .68-1.45l.5-1.07a.37.37 0 01.05-.11c.26-.54.51-1.08.77-1.6l.15-.33.48-1a7.5 7.5 0 00.15.93 2 2 0 00.09.33c0 .1.06.21.1.31a5.55 5.55 0 00.2.52 3.89 3.89 0 00.19.42 3.72 3.72 0 00.21.39c.16.27.33.53.51.79s.32.42.51.63a6.57 6.57 0 00.44.5 10.16 10.16 0 00.76.7 13.49 13.49 0 003.86 2.28c.21.09.43.17.65.24l.43.14.55.16.26.07.87.2h.2c.37.07.75.12 1.14.17s.64.07 1 .09h1.58c.49 0 1 0 1.49-.07.35 0 .7-.05 1.06-.1.36-.05.73-.12 1.1-.19l.77-.15.5-.12c.52-.13 1.05-.27 1.58-.44l.44-.14.92-.33.45-.18a29.61 29.61 0 004.69-2.38c.6-.36 1.2-.76 1.81-1.19l.24-.17.83-.61zm.01-.01v.01h-.01l.01-.01z" fill="#28b8ce"/><path class="cls-2" d="M475.59 110.79q0 .31-.09.69c0 .17-.06.36-.1.55a53.07 53.07 0 01-1.53 5.53l-.39 1.17c-.09.28-.19.56-.28.83l-.39 1.12c-.12.34-.23.68-.35 1-.32.91-.62 1.74-.88 2.43-.08.21-.15.39-.21.57l-.27.73-.32.83-6.14 1.87 4.47 2.31s-1.91 4.57-4.53 10.93l-.7 1.7c-.83 2-1.71 4.19-2.62 6.42-.51 1.24-1 2.5-1.52 3.77-.4 1-.79 2-1.18 2.95a76.38 76.38 0 01-11.59.88h-.74c.54-1.64 1.12-3.3 1.71-5 .81-2.26 1.64-4.54 2.48-6.82.1-.26.19-.53.3-.79l.63-1.66.63-1.67 1.27-3.3.63-1.64c.43-1.09.85-2.18 1.27-3.25.1-.27.2-.53.31-.8l1.55-3.94 1.2-3 2.23-5.69c.29-.73.57-1.45.84-2.15.14-.35.27-.7.4-1l1.1-2.87.81-2.18c.17-.47.33-.93.5-1.38a1.72 1.72 0 00.07-.21l.3-.84c.18-.51.36-1 .52-1.49.08-.22.15-.45.22-.66.28-.87.53-1.68.74-2.41.1-.34.19-.67.27-1s.1-.37.14-.55c-.13-.9-.25-1.76-.34-2.59.22.23.53.52.89.86l.4.35.34.33.38.33.47.44 1.49 1.36.77.72c.52.48 1 1 1.52 1.44l.36.36c.16.16.32.31.47.47l.74.78.39.43.26.3c.13.15.24.3.35.44l.3.4a2.5 2.5 0 01.22.36c.06.12.11.22.15.32a1 1 0 010 .12 2.68 2.68 0 01.08.8z"/><path class="cls-2" d="M507.78 126.78a76.09 76.09 0 01-49.21 29.42c.39-1 .78-2 1.18-2.95l1.52-3.77c4.15-10.21 7.85-19 7.85-19l-4.47-2.31 6.14-1.87.32-.83.27-.73c.06-.18.13-.36.21-.57.26-.7.56-1.52.88-2.43.12-.32.23-.66.35-1l.39-1.12c.09-.27.19-.55.28-.83l.39-1.17a53.07 53.07 0 001.52-5.62 5 5 0 00.13-2.24l.41.19c4.74 2.24 21.18 9 27.38 12.64a15.38 15.38 0 014.46 4.19z"/><path class="cls-4" d="M434.77 110.55c.06-1.43.05-2.84 0-4.22a109.39 109.39 0 00-1.84-14.56c3.5 3.42 7.87 7 9.48 7.77 2.67 1.38 9.42.82 11 0 3.36-1.76 10-9.62 12.67-13.27a68.59 68.59 0 000 13.83c.09.82.21 1.69.34 2.6-1.06 4.44-4.29 12.69-8.14 22.46-15.23 11.61-29 4.48-29.63-2.86 2.89-6.08 5.23-10.41 6.12-11.75z"/><path d="M427.23 82.53a2.69 2.69 0 01-5.26-.79 2.61 2.61 0 01.84-1.95 2.67 2.67 0 013.91.22c.15.87.33 1.72.51 2.52zm44.26-4.84a2.7 2.7 0 11-3.49 3.7c.17-1 .32-2 .44-3.09a2.69 2.69 0 013-.61z" fill="#30d9cb"/><path d="M422.8 79.79a2.61 2.61 0 00-.84 1.95 2.69 2.69 0 005.26.79 25.44 25.44 0 001 3.45c.51 1.34 2.44 3.54 4.74 5.79a109.39 109.39 0 011.84 14.56c-.55.7-1.36 1.61-2.34 2.67l-1.46-1.81c-1.43-2.81-4.08 2.6-4.08 2.6-1.13-1.8.33-5.05.26-7.09s-2-4.24-3.1-1.21a21.83 21.83 0 01-3.74 6 5.91 5.91 0 00.06-6c-1.23-2.67-.22-8.8-.72-10.74s-2.24-1.24-2.6 2.88a17.43 17.43 0 01-3.25 7.86c.44-1.15 1-5.27-.35-7.5s-1.17-5.12-.37-8.57 0-9.33 0-9.33c-1.4.49-3.14 8.78-3.24 9.31.28-1.28-.3-2.83-1.45-5.84s1.44-6.21 3.4-10.27a16.43 16.43 0 001.58-7.84c-1.51.36-5 7.84-5 7.84.08-4.06 2.6-8.42 1.81-11.45a8.81 8.81 0 012.23-8.58c2.38-2.6 3-6.64 4.69-10s4.4-3 5-6.43 2.88-8.08 6.35-8.66 4.55-.86 7.74-4.11 8.76-3.75 11.62.79c4-4.27 11.28-3.58 16.26.53s10.05 6.33 12.73 12.1 2.52 7 5.41 9.89 1.73 9.88 4 17c0 0-3-2.1-4.05-4.41s.66 6.49 3.32 10.1 3.61 5.77 3 8.74-1.3 5.62-.36 8.65c0 0-2.53-4-2.89-6.68a6.24 6.24 0 00-1.66-3.88c-.57-.84-1.08 3.78.15 7.68s2 6.63 1.66 8.94 1.59 4.56 1.16 7.49c0 0-2.81-2.24-3.39-4.47a7.94 7.94 0 00-2-3.83s-1.38 4.25.14 7.72 2.45 3.46 1.59 6.85a13.65 13.65 0 00-2.46-3.39c-1.37-1.22-1 2.82-.14 7.15a4.65 4.65 0 00-2.31-1.8c-1.8-.8-2.74 2.45-2.74 2.81l-.74.28c-2.19-2.6-7-6.69-8.48-8.17a68.59 68.59 0 010-13.83c.49-.66.85-1.19 1-1.51a12.58 12.58 0 00.91-3.37 2.7 2.7 0 103.49-3.7c2.41-5.38 3-17.24-1.94-13.28 0 0-.08-6.71-.29-12.13s-1.63-11.58-7.94-14.71c-5.29-2.63-11.19-2.9-13.86-1.31-2.88-1.94-10.82-1.66-13.06.3s-.79 4.4-3.09 6-1.24 3.74-3.39 6.41-2.36 2.65-2.66 6.39c-.13 1.56.69 4.53.6 6A6.13 6.13 0 01424 65.4c-5.57-5.1-5.52 9.52-1.23 14.38z" fill="#1eadfe"/><path class="cls-4" d="M456.65 83.07c-.47 1.06-4.07 3.93-5.33 4.48a10.09 10.09 0 01-5.35 0 14.05 14.05 0 01-5.53-4.48c2.74-.07 13.86-.2 16.21 0z"/><path class="cls-4" d="M469.55 64.41v-6.96c0-1.36-.08-2.79-.12-4.18v-1c0-.68-.07-1.36-.15-2.06 0-.14 0-.29-.05-.44s0-.2 0-.3 0-.31-.06-.46c0-.34-.11-.68-.18-1s-.12-.61-.19-.91-.18-.69-.28-1-.18-.59-.29-.88a1.21 1.21 0 000-.14c-.11-.3-.23-.61-.37-.92v-.07l-.22-.48c-.07-.15-.16-.31-.24-.47l-.27-.47a.25.25 0 00-.05-.08l-.24-.39c-.06-.1-.13-.2-.2-.3l-.14-.2s-.2-.27-.31-.41a.64.64 0 00-.1-.13l-.2-.24-.32-.36a6.33 6.33 0 00-.44-.46l-.52-.48-.23-.2-.12-.09c-.18-.15-.38-.31-.58-.45a.26.26 0 00-.11-.08l-.44-.3-.47-.29-.48-.27-.25-.14a2.1 2.1 0 01-.26-.13l-.24-.11h-.05a.34.34 0 00-.12-.06c-.23-.12-.47-.22-.71-.32s-.56-.24-.85-.34a.58.58 0 00-.17-.06 4.72 4.72 0 00-.53-.18.11.11 0 00-.07 0h-.12c-.28-.1-.56-.19-.84-.26s-.38-.11-.57-.15a1.29 1.29 0 00-.28-.08h-.14c-.32-.08-.65-.15-1-.21h-1.19l-.53-.05-.67-.06h-2.1a1.84 1.84 0 00-.33 0l-.6.08-.57.11a6.46 6.46 0 00-.7.19 4.37 4.37 0 00-.58.21h-.06l-.12.05-.12.06-.31.16-.1-.06a4.83 4.83 0 00-.45-.26l-.47-.2-.51-.18-.37-.11-.38-.1-.4-.09-.77-.13-.37-.05h-3.37l-1 .08h-.4l-.4.06-.61.1a11.27 11.27 0 00-1.3.31 5.45 5.45 0 00-2 1c-.11.1-.21.19-.3.29a2.91 2.91 0 00-.24.27 3.46 3.46 0 00-.22.31c-.06.09-.11.18-.16.27l-.15.31c0 .1-.08.21-.11.31a1.72 1.72 0 00-.07.21v.13l-.09.36c-.06.27-.11.55-.17.82s0 .26-.08.39a.14.14 0 010 .06c0 .1-.05.2-.08.3a3.74 3.74 0 01-.29.72 3.3 3.3 0 01-1.05 1.15h-.07a.27.27 0 00-.08.07.1.1 0 00-.05 0l-.09.07h-.05a.19.19 0 00-.07.06 1.07 1.07 0 00-.19.18 3.92 3.92 0 00-.27.33v.08a.44.44 0 00-.08.11l-.07.13A.38.38 0 00430 44a4.34 4.34 0 00-.2.5l-.12.38c0 .12-.07.25-.1.38s-.13.47-.2.72l-.12.39a9.08 9.08 0 01-.37 1 1.86 1.86 0 01-.1.2 2.7 2.7 0 01-.15.29l-.06.11a5.08 5.08 0 01-.27.43c-.11.16-.23.33-.36.49-.26.32-.51.62-.72.89l-.43.53a5 5 0 00-1.46 3.8 1.6 1.6 0 000 .3 10.3 10.3 0 00.22 1.47 21 21 0 01.32 4.74 1.48 1.48 0 010 .21 2 2 0 010 .35 6 6 0 01-.88 2.92 5.65 5.65 0 01-.33.51 1.91 1.91 0 01-.15.21c-.1.12-.19.23-.27.31l-.1.1-.17.17c-5.57-5.09-5.52 9.51-1.23 14.39a.43.43 0 01.12-.11l.21-.15a.1.1 0 00.05 0l.11-.06.12-.07.16-.07.24-.08a2.62 2.62 0 01.38-.09 2.69 2.69 0 012.46.93l.15.82c.06.34.13.67.2 1s.11.47.16.7a2.21 2.21 0 010 .25c.06.25.12.5.18.73v.18c0 .06.05.19.08.28l.12.44c.06.23.12.45.19.65l.06.18c.08.24.16.47.24.68a2.41 2.41 0 00.15.33 2.12 2.12 0 00.11.21c.05.1.11.2.17.3a13.25 13.25 0 00.79 1.12l.18.22c.29.37.63.77 1 1.18l.7.76c.51.54 1.06 1.1 1.64 1.67.86.84 1.78 1.69 2.71 2.52l.29.25.42.37.37.32.12.11.23.2c.67.57 1.32 1.1 1.94 1.59.41.33.81.64 1.18.92s.51.38.74.54l.18.13.26.18.25.17.2.14.19.11h.06l.27.14a5.6 5.6 0 001 .39 10.4 10.4 0 001.24.26c.34 0 .68.09 1 .12h1.8c.78 0 1.56 0 2.3-.1l.66-.07.59-.08a9.41 9.41 0 002.14-.5l.18-.09.32-.18a6.12 6.12 0 00.7-.47 4.07 4.07 0 00.38-.28 1.81 1.81 0 00.23-.18c.27-.21.55-.45.84-.71a.39.39 0 01.1-.08l.11-.09.39-.36c.25-.23.5-.46.75-.71 1-1 2.1-2.14 3.15-3.31.08-.08.15-.17.22-.25h.05l.18-.2.33-.38.51-.58.53-.62c.67-.78 1.3-1.55 1.88-2.27l.6-.75.73-.94.53-.71.21-.29.05-.08c.18-.24.34-.47.47-.66l.7-.31.14-.22a2.85 2.85 0 00.22-.49 5.47 5.47 0 00.2-.61c.08-.26.15-.56.22-.88 0-.15.07-.3.1-.46a1.42 1.42 0 010-.2v-.16c0-.18.07-.37.1-.56.07-.4.14-.82.2-1.26 0-.15 0-.32.07-.48s0-.19 0-.29v-.26l.09-.76.19-.18.21-.17.23-.14a2.38 2.38 0 01.49-.22l.27-.07a2.6 2.6 0 01.56-.06h.56a2.74 2.74 0 01.53.17c2.52-5.39 3.12-17.24-1.83-13.29zm-13.21 19.13c-.15.18-.33.39-.54.6a25.38 25.38 0 01-2.8 2.34c-.27.2-.53.38-.77.54l-.35.22h-.14l-.16.09-.26.13a4.39 4.39 0 01-1.11.27 11.72 11.72 0 01-2.08.07h-.76l-.45-.06a5.7 5.7 0 01-.65-.14l-.29-.08-.31-.12-.33-.16-.17-.08-.27-.16-.28-.16-.19-.11-.19-.12-.1-.06-.68-.48-.39-.3a12.75 12.75 0 01-2.62-2.71h6.28c4 0 8.51 0 9.93.09a1.64 1.64 0 01-.12.22 1.84 1.84 0 01-.2.17z"/><path class="cls-7" d="M468.7 64.42c.08-3.68 0-7.35-.05-11A23.2 23.2 0 00468 48a17.9 17.9 0 00-1.88-4.88 12.28 12.28 0 00-3.44-3.77 19.45 19.45 0 00-4.7-2.33 20.15 20.15 0 00-5.2-1.08 10 10 0 00-5.07.72.53.53 0 01-.52 0 12 12 0 00-5.19-1.34 9.54 9.54 0 00-5.05 1 5.1 5.1 0 00-1.76 1.64 12.48 12.48 0 00-1.19 2.32 7.56 7.56 0 01-1.74 2.66c-.43.4-.7.62-1 .93a5.85 5.85 0 00-.75 1 8.16 8.16 0 00-1 2.36 9.77 9.77 0 01-1.17 2.85 5.09 5.09 0 01-.48.64l-.49.55a6.62 6.62 0 00-.74 1 5.35 5.35 0 00-.69 2.38 13.5 13.5 0 00.15 2.67l.22 1.38.12.7c0 .26.08.51.1.77a7.54 7.54 0 01-2 5.87.85.85 0 01-1.2 0 .84.84 0 010-1.2h.06a5.65 5.65 0 001.31-2 6.12 6.12 0 00.34-2.48 12.3 12.3 0 00-.18-1.33l-.22-1.42a14.62 14.62 0 01-.17-3 7.34 7.34 0 01.82-3 9.2 9.2 0 01.89-1.29l.25-.29.19-.25a4.39 4.39 0 00.34-.5 8.27 8.27 0 00.83-2.43 9.85 9.85 0 011.07-2.9 7.35 7.35 0 011-1.28c.35-.38.81-.77 1.06-1a6.49 6.49 0 001.36-2 14.42 14.42 0 011.43-2.65 7 7 0 012.42-2.11 10.81 10.81 0 016-.87 14.3 14.3 0 012.9.64 9.54 9.54 0 012.69 1.34h-.55a10.48 10.48 0 015.65-1.2 22.32 22.32 0 015.63.93 19 19 0 015.24 2.25 12.85 12.85 0 013.94 4.32 15.53 15.53 0 011.88 5.44 27 27 0 01.3 2.82c.08.94.08 1.87.11 2.79.11 3.68.22 7.36.48 11.05a.85.85 0 11-1.7.11v-.07z"/><path class="cls-7" d="M449.34 61.74a42 42 0 011.71 5.11c.47 1.72.89 3.46 1.24 5.22.17.88.35 1.76.44 2.7a5.9 5.9 0 010 .78 1.71 1.71 0 01-.64 1.24 3.49 3.49 0 01-1.65.63 10.16 10.16 0 01-2.87-.06 9.34 9.34 0 01-1.37-.31 4.41 4.41 0 01-1.37-.6.41.41 0 01.34-.73h.07a9.94 9.94 0 002.44.22 11.88 11.88 0 002.44-.24 1.71 1.71 0 00.8-.32v.11c0-.14 0-.33-.05-.54-.12-.82-.26-1.7-.42-2.56l-1-5.2c-.34-1.73-.65-3.48-1-5.19a.46.46 0 01.35-.54.45.45 0 01.54.28zm5.19-5.74a10.51 10.51 0 012.92-.61 17.19 17.19 0 012.87 0 14.29 14.29 0 012.87.51 6.92 6.92 0 012.72 1.42.66.66 0 010 .94.69.69 0 01-.62.2h-.09a14.93 14.93 0 00-2.45-.28h-2.57c-.86 0-1.73 0-2.6.06l-2.49.11H455a1.19 1.19 0 01-.47-2.3z"/><path class="cls-7" d="M425.66 71c.81 3.3 1.28 6.63 2 9.9a33.92 33.92 0 001.29 4.76 16.06 16.06 0 002.88 3.76 82.73 82.73 0 007.38 6.73c.65.52 1.31 1 2 1.52a10.46 10.46 0 002 1.22 13.29 13.29 0 004.63.6 20 20 0 004.77-.54 4.52 4.52 0 00.45-.16l.47-.29a9.43 9.43 0 001-.68c.63-.49 1.24-1 1.85-1.6a96.73 96.73 0 006.62-7.37c1.07-1.28 2.13-2.59 3.09-3.92l.33-.49c.09-.16.14-.3.21-.45a9.32 9.32 0 00.34-1.13c.2-.79.35-1.61.49-2.43.55-3.28.94-6.65 1.33-10a.3.3 0 01.33-.26.29.29 0 01.26.29 66.53 66.53 0 01-.61 10.17c-.12.84-.25 1.69-.45 2.54a11.61 11.61 0 01-.35 1.31c-.1.22-.21.48-.32.69s-.24.39-.37.57c-1 1.43-2 2.77-3.07 4.1a77.73 77.73 0 01-6.82 7.61c-.63.59-1.27 1.17-2 1.72a13.47 13.47 0 01-1.1.79c-.2.12-.39.25-.61.37a4.88 4.88 0 01-.73.28 21.32 21.32 0 01-5.26.64 14.7 14.7 0 01-5.33-.75 11.75 11.75 0 01-2.32-1.43c-.7-.51-1.37-1-2-1.58a73.49 73.49 0 01-7.49-7c-.59-.64-1.15-1.29-1.69-2a10.68 10.68 0 01-1.44-2.36 34.41 34.41 0 01-1.25-5A70.2 70.2 0 01425 71.09a.35.35 0 01.69-.1z"/><path class="cls-7" d="M433.78 91.64c.34 1.78.69 3.59 1 5.42s.48 3.66.59 5.51a49.47 49.47 0 01-.39 11.08.38.38 0 01-.75-.07 66.72 66.72 0 00-.44-10.86c-.23-1.8-.48-3.6-.78-5.39s-.61-3.59-.86-5.43a.85.85 0 011.68-.27z"/><path class="cls-7" d="M474.11 108.83a1.83 1.83 0 01.09-.45l.09-.28.21-.52c.15-.34.32-.67.5-1a4.76 4.76 0 011.59-1.78 1.66 1.66 0 011.43-.12 6.46 6.46 0 011 .56 4.64 4.64 0 011.52 1.62l-.47.17a13.78 13.78 0 01-1-3 13.29 13.29 0 01-.31-3.19 3.93 3.93 0 01.12-.91 1.63 1.63 0 01.27-.61 1.05 1.05 0 01.46-.37 1 1 0 01.65 0 1.63 1.63 0 01.63.36l.3.32c.19.21.36.42.53.64a11.47 11.47 0 011.46 2.85l-.59.07a5 5 0 00-.1-3.47c-.54-1.07-1.25-2.18-1.75-3.39a10.16 10.16 0 01-.73-3.91 14.8 14.8 0 01.51-3.94.67.67 0 01.85-.42.69.69 0 01.3.2 8.19 8.19 0 011.42 2.28 11.73 11.73 0 01.41 1.27l.14.63a3.74 3.74 0 00.17.54A7.73 7.73 0 00485 95a14.36 14.36 0 001.68 1.81l-.32.13a9.73 9.73 0 00-.93-4.32 9.8 9.8 0 01-.62-2.31 6.92 6.92 0 010-1.23 7.5 7.5 0 000-1.06 19.7 19.7 0 00-.95-4.32c-.21-.72-.44-1.44-.68-2.16a17.52 17.52 0 01-1-7 8.93 8.93 0 01.17-1.22 2.41 2.41 0 01.24-.72l.08-.13a.85.85 0 01.16-.17.74.74 0 01.39-.17.7.7 0 01.45.1.86.86 0 01.21.17l.09.12.07.1c.19.28.46.6.68 1a5.2 5.2 0 01.51 1.17 14.36 14.36 0 01.43 2.32 13 13 0 00.62 2.11 33.71 33.71 0 001.93 4.08l-.47.22a11 11 0 01-.63-4.58 42.31 42.31 0 01.68-4.5 6.77 6.77 0 00-.51-4 19.92 19.92 0 00-2.31-3.67 14 14 0 01-2.1-4.18 36.08 36.08 0 01-1.16-4.43 13.92 13.92 0 01-.34-2.32 1.42 1.42 0 010-.19.59.59 0 010-.18v-.07a.37.37 0 01.12-.13.45.45 0 01.41 0 .63.63 0 01.16.1.17.17 0 01.06.07.46.46 0 01.07.1l.09.15.24.5a5.07 5.07 0 00.6.88 34.23 34.23 0 003.16 3l-.71.52a36.65 36.65 0 01-1.77-8c-.19-1.33-.34-2.67-.55-4a11.48 11.48 0 00-1.07-3.59 4.42 4.42 0 00-.48-.71c-.09-.11-.17-.19-.28-.31l-.37-.38a15.58 15.58 0 01-1.36-1.64 18.64 18.64 0 01-1.9-3.75c-.52-1.25-1-2.48-1.55-3.71a17.11 17.11 0 00-1.66-3.5 25.51 25.51 0 00-5.72-5.38l-3.26-2.4c-1.1-.81-2.09-1.75-3.17-2.43a13.52 13.52 0 00-7.3-2.25 9.63 9.63 0 00-3.7.71 8.15 8.15 0 00-3 2.13.82.82 0 01-1.17 0l-.08-.09a7.6 7.6 0 00-3.26-2.54 6.63 6.63 0 00-4.13-.21 7.82 7.82 0 00-1.94.86 9.2 9.2 0 00-1.67 1.43 13.29 13.29 0 01-3.84 2.89 11.25 11.25 0 01-2.33.69 15.72 15.72 0 00-2.17.47 6.82 6.82 0 00-3.09 2.8 13.53 13.53 0 00-1.71 4.05 10.34 10.34 0 00-.22 1.08 7.41 7.41 0 01-.32 1.25 5 5 0 01-1.5 2.18c-.63.56-1.24 1-1.75 1.47a6.62 6.62 0 00-1.25 1.64 30 30 0 00-1.68 4.17 27.09 27.09 0 01-1.86 4.39 12 12 0 01-1.46 2 9.53 9.53 0 00-1.27 1.7 7.8 7.8 0 00-1.07 4 10.77 10.77 0 00.29 2.14 7 7 0 010 2.54c-.55 3.2-2 6-2.19 9l-.61-.15a11.27 11.27 0 011.73-4.44c.39-.69.81-1.37 1.27-2a9.91 9.91 0 01.77-1c.15-.16.31-.33.49-.49a2.11 2.11 0 01.83-.46.73.73 0 01.89.5v.17a16.65 16.65 0 01-1.11 6.49 44.69 44.69 0 01-3 5.67 15.06 15.06 0 00-1.3 2.8 4.68 4.68 0 00-.11 2.91c.32 1 .73 2 1.05 3a6.59 6.59 0 01.45 3.26.31.31 0 11-.6-.12c.33-1.64.69-3.27 1.09-4.91.2-.82.42-1.63.7-2.44a12.32 12.32 0 01.48-1.22 5.65 5.65 0 01.35-.62 1.72 1.72 0 01.72-.64.57.57 0 01.74.29.74.74 0 010 .14V76a37.69 37.69 0 01.55 6.55 16.56 16.56 0 01-.38 3.36 23.64 23.64 0 00-.5 3.07 9.54 9.54 0 00.17 2.94 6.18 6.18 0 00.47 1.33l.39.74a5.33 5.33 0 01.32.87 9.71 9.71 0 01.32 3.45 11.23 11.23 0 01-.65 3.37l-1-.57a17 17 0 003.16-6.9 10.74 10.74 0 011-4 2.1 2.1 0 01.88-.87 1 1 0 01.8 0 1.33 1.33 0 01.54.47 4 4 0 01.42 2.12c.12 2.67-.12 5.34.32 7.84a6.57 6.57 0 00.22.9 7.15 7.15 0 00.36.85 9.31 9.31 0 01.67 2 5.36 5.36 0 010 2.22 9.27 9.27 0 01-.72 2l-1.16-.78a23.68 23.68 0 002.86-3.88 12 12 0 00.56-1.06c.18-.37.29-.69.49-1.14a2.78 2.78 0 01.94-1.21 1.44 1.44 0 01.94-.23 1.69 1.69 0 01.81.37 3.8 3.8 0 011.22 2.53 9.43 9.43 0 01-.29 2.6 24.07 24.07 0 00-.44 2.41 3.7 3.7 0 00.31 2.21l-.6.07a9.46 9.46 0 01.79-1.82 4.16 4.16 0 011.45-1.58 2.11 2.11 0 011.28-.27 2.78 2.78 0 011.18.48 5.93 5.93 0 011.47 1.59.85.85 0 01-1.4 1l-.06-.11a4.46 4.46 0 00-.9-1.31.91.91 0 00-1.05-.29 3.09 3.09 0 00-1.2 1 8 8 0 00-.93 1.54.32.32 0 01-.43.15.28.28 0 01-.15-.13 4.36 4.36 0 01-.49-2.62 25.26 25.26 0 01.37-2.51 9.11 9.11 0 00.2-2.34 2.93 2.93 0 00-.92-1.84c-.26-.17-.39-.17-.56-.05a2 2 0 00-.51.77c-.12.31-.27.79-.44 1.17s-.36.79-.56 1.17a24.58 24.58 0 01-2.87 4.25.7.7 0 01-1.18-.74 5.54 5.54 0 00.81-3.4A7.28 7.28 0 00420 102c-.11-.27-.25-.65-.35-1a7.93 7.93 0 01-.2-1c-.34-2.74 0-5.38 0-8a2.83 2.83 0 00-.13-.93 2.06 2.06 0 00-.29-.77c-.16-.2-.22-.21-.35-.15a1.29 1.29 0 00-.47.54 5.72 5.72 0 00-.55 1.74c-.11.63-.14 1.24-.23 1.95a17.89 17.89 0 01-3.17 7.48.59.59 0 01-1.05-.48v-.1a12.14 12.14 0 00-.07-5.93 4.51 4.51 0 00-.26-.64l-.39-.67a7.49 7.49 0 01-.66-1.7 11.11 11.11 0 01-.21-3.48 23.65 23.65 0 01.53-3.3 16.36 16.36 0 00.43-3 48 48 0 00-.12-6.34l.79.49s-.11.06-.2.18-.2.29-.3.45a10.76 10.76 0 00-.51 1.08c-.32.74-.59 1.52-.85 2.31-.51 1.57-.93 3.18-1.29 4.8l-.59-.12a5.76 5.76 0 00-.42-2.94c-.33-1-.73-2-1.09-3a5.45 5.45 0 010-3.32 17.14 17.14 0 011.22-3 43.36 43.36 0 002.61-5.66 16.24 16.24 0 00.74-5.95l.94.67a2.63 2.63 0 00-.5.49c-.22.26-.43.57-.64.87-.41.63-.8 1.29-1.17 2a16.51 16.51 0 01-2.56 3.92l-.07.08a.33.33 0 01-.45 0 .32.32 0 01-.09-.23c-.08-3.21 1.22-6.21 1.56-9.11a5.61 5.61 0 00-.1-2.06 11.12 11.12 0 01-.39-2.42 9.25 9.25 0 011.15-4.85 11.59 11.59 0 011.43-2 9.64 9.64 0 001.32-1.82 27.85 27.85 0 001.75-4.08 31 31 0 011.87-4.37 8 8 0 011.58-2c.62-.57 1.3-1 1.83-1.47a3.65 3.65 0 001.18-1.54 6.65 6.65 0 00.27-1 12 12 0 01.27-1.19 15.61 15.61 0 012-4.39 8 8 0 013.73-3.22 6 6 0 011.22-.29c.38-.06.76-.12 1.13-.2a10 10 0 002.1-.61 12 12 0 003.49-2.66 14.3 14.3 0 011.82-1.59 8.91 8.91 0 012.24-1.08 8.23 8.23 0 015 .05 8.87 8.87 0 014.09 2.88l-1.26-.06a10.59 10.59 0 017.89-2.94 15.32 15.32 0 017.8 2.56c.58.37 1.14.83 1.66 1.24s1.05.82 1.58 1.22l3.27 2.35a28 28 0 016.14 5.49 18.32 18.32 0 012.13 3.6c.58 1.23 1.13 2.47 1.65 3.71a17.73 17.73 0 001.76 3.42 14.07 14.07 0 001.23 1.45l.34.35c.12.13.27.29.39.44a5.61 5.61 0 01.64 1 13.13 13.13 0 011.21 4.09c.21 1.37.32 2.72.44 4a46.79 46.79 0 001.23 7.86.46.46 0 01-.71.5 7.13 7.13 0 01-1.84-1.42 13 13 0 01-1.51-1.79 10.18 10.18 0 01-.61-1l-.25-.51-.05-.1.1.06a.41.41 0 00.35 0 .31.31 0 00.09-.11c0-.06 0 0 0 0v.09a14.45 14.45 0 00.44 2.11 33.46 33.46 0 001.53 4.07 19.31 19.31 0 002.07 3.77 21 21 0 012.37 4 7.66 7.66 0 01.44 4.79c-.72 2.94-1.51 5.8-.75 8.69a.27.27 0 01-.19.32.26.26 0 01-.3-.12 30.06 30.06 0 01-2.26-4 13.37 13.37 0 01-.79-2.23 15.94 15.94 0 00-.52-2.16 5.4 5.4 0 00-1.14-1.76l-.1-.13a.68.68 0 00.11.08.56.56 0 00.31.06.52.52 0 00.26-.11l.07-.07a2.53 2.53 0 00-.08.37 7 7 0 00-.09 1 18.72 18.72 0 00.42 4.35c.71 2.81 1.9 5.8 1.94 9a8.42 8.42 0 01-.08 1.22 6.15 6.15 0 00-.12 1 8.33 8.33 0 00.41 2.13 9.61 9.61 0 01.57 4.62.2.2 0 01-.23.16.19.19 0 01-.09-.05 15.46 15.46 0 01-1.92-1.7 8.56 8.56 0 01-1.52-1.97 4.51 4.51 0 01-.26-.64l-.2-.58a9.67 9.67 0 00-.47-1.09 6.94 6.94 0 00-1.41-1.85l1.15-.24a14.28 14.28 0 00-.63 3.54 9.33 9.33 0 00.49 3.53c.41 1.15 1 2.21 1.57 3.42a4.16 4.16 0 01.34 2 10 10 0 01-.38 1.92.32.32 0 01-.39.23.32.32 0 01-.2-.16 22.77 22.77 0 00-1.9-2.3c-.16-.18-.33-.34-.5-.5s-.43-.31-.29-.24a.48.48 0 00.45-.14v.1c0 .1 0 .39-.05.61 0 .93.12 1.94.18 2.95a26.09 26.09 0 01.07 3.08v.2a.23.23 0 01-.46 0 4.39 4.39 0 00-1.48-1.16 7.19 7.19 0 00-.87-.35.65.65 0 00-.55.16 3.73 3.73 0 00-.91 1.46q-.17.43-.3.9l-.11.46v.22s0 .19 0 0a.85.85 0 01-1.7 0z"/><path class="cls-7" d="M447.16 90.87a9.12 9.12 0 012-.2 8.44 8.44 0 011.91.17h.17a.49.49 0 01.36.58.42.42 0 01-.16.26 2.94 2.94 0 01-1.13.57 4.94 4.94 0 01-1.13.15 4.11 4.11 0 01-2.25-.57.54.54 0 01-.16-.74.53.53 0 01.32-.23zm-.93 65.35l-.81.58c1-2.66 1.89-5.36 2.9-8s1.93-5.36 2.92-8l3-7.95c1-2.66 2-5.3 3.06-7.94l-.06.33a1 1 0 01.06-.33q1.5-3.87 3.06-7.73c1-2.58 2.06-5.16 3.14-7.72v.24a.71.71 0 01.21-.51l-.16.26 1-2.59 1.91-5.46a.41.41 0 01.54-.4.39.39 0 01.25.48l-.74 2.84-.38 1.42c-.14.48-.24.92-.41 1.44v-.05l-.88 2.73-.16.26a.64.64 0 00.19-.47v.24c-.93 2.62-1.89 5.23-2.86 7.84s-1.94 5.21-2.94 7.8l.06-.33a.87.87 0 01-.06.32c-2 5.3-4.18 10.54-6.23 15.82-1 2.66-2 5.28-3 7.94s-1.89 5.33-2.74 8a.86.86 0 01-.79.58.85.85 0 110-1.7zM475.92 109l8.43 3.54c2.83 1.18 5.62 2.45 8.41 3.72s5.57 2.59 8.28 4.09c.68.38 1.35.76 2 1.18a14.21 14.21 0 012 1.37 15.3 15.3 0 013.07 3.62.39.39 0 01-.12.54.41.41 0 01-.51-.08 18.42 18.42 0 00-3.29-3 31.13 31.13 0 00-3.94-2.07l-8.33-3.78c-2.79-1.24-5.6-2.44-8.39-3.71s-5.57-2.49-8.35-3.93a.85.85 0 01.72-1.54z"/><path d="M460 63.89c0 .5-.2.91-.45.91s-.44-.41-.44-.91.2-.9.44-.9.45.4.45.9zm-22 .52c0 .5-.19.9-.44.9s-.44-.4-.44-.9.2-.91.44-.91.44.41.44.91z" fill="none" stroke="#28347d" stroke-linecap="round" stroke-linejoin="round" stroke-width="2.5"/><path class="cls-7" d="M441.51 58.55c-1.68-.07-3.46-.13-5.22-.07-.88 0-1.76.07-2.64.15a20.53 20.53 0 00-2.59.41.71.71 0 01-.84-.52.69.69 0 01.23-.68 8.37 8.37 0 012.69-1.52 14.38 14.38 0 012.92-.74 16.68 16.68 0 013-.17 11.4 11.4 0 013 .49 1.35 1.35 0 01.88 1.71 1.37 1.37 0 01-1.35.94zm15.1 25.1c-1.31.08-2.67.17-4 .21s-2.7.06-4.05.06-2.69 0-4-.09-2.7-.13-4.05-.27a.49.49 0 010-1c1.35-.22 2.7-.33 4.06-.42s2.7-.13 4.06-.15 2.7 0 4.06.07a32 32 0 014.09.41.59.59 0 01-.07 1.16z"/><path class="cls-7" d="M440.8 82.84a17.75 17.75 0 003.64 2.92 7.86 7.86 0 001.95.94 9.44 9.44 0 002.18.26 8.69 8.69 0 002.16-.19 2.94 2.94 0 00.88-.41c.33-.19.67-.4 1-.62.66-.44 1.32-.9 1.95-1.38a10.57 10.57 0 001.69-1.48l.07-.08a.45.45 0 01.76.46 4.6 4.6 0 01-.75 1.18c-.28.33-.56.65-.85 1a20.17 20.17 0 01-1.88 1.7 11.5 11.5 0 01-1 .77 5.16 5.16 0 01-1.31.68 9.22 9.22 0 01-2.71.31 10 10 0 01-2.67-.37 8.25 8.25 0 01-2.38-1.34 12 12 0 01-3.4-3.84.42.42 0 01.18-.57.43.43 0 01.51.09zm-13.1-.17a3.16 3.16 0 01-3.21 2.33 3.28 3.28 0 01-1.26-6.25 3.22 3.22 0 013.88.89.51.51 0 01-.09.73.53.53 0 01-.72-.07 2.13 2.13 0 00-3.7 1.81 2.13 2.13 0 001.94 1.66 2.24 2.24 0 002.2-1.43.5.5 0 01.95.29z"/><path class="cls-7" d="M423.44 66a2.68 2.68 0 00-1.51-.78.73.73 0 00-.42.24 2.9 2.9 0 00-.41.75 12.21 12.21 0 00-.44 4.41 23.61 23.61 0 00.73 4.59 13.41 13.41 0 001.82 4.18.55.55 0 01-.13.77.57.57 0 01-.72 0 11.56 11.56 0 01-2.58-4.43 20 20 0 01-1-5 12.51 12.51 0 01.54-5.2 4.36 4.36 0 01.8-1.33 2.37 2.37 0 011.7-.8 4 4 0 012.74 1.33.85.85 0 01.06 1.2.84.84 0 01-1.19.07zM468 77.91a3.3 3.3 0 015.63 2.72 3.48 3.48 0 01-.8 1.94 3.07 3.07 0 01-1.9 1 3.24 3.24 0 01-3.5-1.91.6.6 0 01.34-.78.59.59 0 01.71.21 2.21 2.21 0 002.18.92 2.28 2.28 0 001.73-1.59 2.07 2.07 0 00-1.11-2.22 2.1 2.1 0 00-2.48.45.55.55 0 01-.79 0 .57.57 0 01-.05-.79z"/><path class="cls-7" d="M469 63.74a6.25 6.25 0 011.06-.69 2.84 2.84 0 011.53-.28 2.26 2.26 0 011.44.86 3.91 3.91 0 01.63 1.21 13.07 13.07 0 01.42 4.56 24.51 24.51 0 01-.63 4.36 19.15 19.15 0 01-1.45 4.16.55.55 0 01-1-.44 23.68 23.68 0 001-4 30.18 30.18 0 00.45-4.12 11.65 11.65 0 00-.41-3.93c-.19-.59-.52-.9-.69-.91a2.08 2.08 0 00-1.28.58.85.85 0 11-1.07-1.34zm-2.36 22.57c0 2.75-.2 5.47-.19 8.18a79.12 79.12 0 00.48 8.12.57.57 0 01-1.12.17 45 45 0 01-.87-8.28 55.72 55.72 0 01.52-8.28.58.58 0 01.66-.5.6.6 0 01.52.59zm-50.3 63.95l-.39.27c.25-.92.55-1.83.83-2.74v.05c0-.12.08-.24.13-.36v.09l1.09-3.37v-.06l.07-.19v.1a2.24 2.24 0 01.12-.29v.08c1.21-3.26 2.49-6.41 3.84-9.57s2.87-6.23 4.39-9.34l-.07.18a1.38 1.38 0 01.18-.39l-.06.11c.47-1 1-1.92 1.46-2.89l-.08.36a.65.65 0 01.08-.31c1-2 2-3.94 3.11-5.89.54-1 1.08-1.94 1.65-2.89s1.14-1.91 1.79-2.85a.42.42 0 01.71.44c-.54.93-1.05 1.91-1.53 2.9l-1.45 3-2.81 6 .08-.35a.68.68 0 01-.07.32c-.44 1-.9 2-1.33 2.93l-.06.11a.28.28 0 00.07-.17l-.06.18-2.08 4.67-2 4.69c-.66 1.58-1.36 3.13-2.05 4.7s-1.44 3.11-2.11 4.65v.25l-.08.19v-.06L418 148v.09a.35.35 0 01-.05.08l-1.2 2.58v.06a.36.36 0 01-.35.21.41.41 0 010-.82zm-5.34-2.13l.06-.51c0-.16.06-.36.1-.57v.06c.16-.86.37-1.72.6-2.56s2-6 2-6.19c.14-.42.26-.81.44-1.3v.06l.35-1.05.36-1 .74-2.13v.13a1.88 1.88 0 01.14-.42l-.06.14.18-.48-.05.16a3 3 0 01.1-.32v.07l.53-1.44v.07c.06-.2.12-.34.18-.52v.07l.14-.38-.05.16a2.19 2.19 0 01.12-.33l-.08.33a1 1 0 01.1-.4l-.07.19a1.8 1.8 0 01.16-.38l-.09.23.09-.28v.06l.24-.65v.13c0-.09.06-.18.09-.27l-.05.26a1.18 1.18 0 01.09-.38v.09a1.23 1.23 0 01.12-.26l-.08.17v-.09.22a.8.8 0 01.21-.53l-.18.32a1.09 1.09 0 01.09-.23l-.08.31v-.06a.51.51 0 010-.13v-.13a.66.66 0 01.64-.43h-.23c1.11-.33 2.2-.69 3.32-1a.51.51 0 01.34 1c-1.06.46-2.14.88-3.2 1.32h-.24l.64-.46v.07-.19l-.07.31-.18.32a.64.64 0 00.19-.45v.31l-.08.17a.2.2 0 000-.08v.09a.41.41 0 00.06-.24h-.06v.39l-.16.53v.06l-.15.16v.07h.06a.08.08 0 000-.08l-.06.19a.48.48 0 00.06-.26l-.08.33a.08.08 0 000-.05v.16l-.06.2v.07l-.1.32v.07l-.43 1.38v.23l-.1.34-.06.14v.13l-1.38 4.25v.06l-.39 1.17c-.06.2-.12.41-.2.62s-1.44 4.77-1.78 5.58-.62 1.6-1 2.4v.06c-.06.12-.13.24-.21.42s-.14.31-.24.48a.5.5 0 01-.69.17.49.49 0 01-.6-.57z"/><path class="cls-7" d="M421.21 127.87a.25.25 0 01-.17 0l-.13-.08a32.79 32.79 0 01-3.1-1.93.81.81 0 01-.25-1v-.06a9.1 9.1 0 01.78-1.28c.31-.39 2.09-2.73 2.25-2.91s1.72-2 1.88-2.16l.47-.5.94-1 1.88-2q1.88-2 3.81-4l.52-.24a.78.78 0 00-.24 0 .83.83 0 00-.25.15.78.78 0 00-.23.53l.21-.51c.8-.81 1.6-1.63 2.41-2.43s1.59-1.62 2.35-2.46l-.11.32a.51.51 0 011 0 .5.5 0 01-.08.27c-.67 1-1.42 1.83-2.17 2.71s-1.53 1.72-2.3 2.58l.21-.51a.82.82 0 01-.24.54.73.73 0 01-.26.16.78.78 0 01-.24 0l.52-.24c-1.21 1.37-2.42 2.72-3.66 4l-1.86 2-.92 1-.46.5-1.84 2.14c-.15.19-1.91 2.39-2.14 2.79a2.39 2.39 0 01-.4.54 22 22 0 012.1 2l-.3-.11a.51.51 0 01.41.58.5.5 0 01-.39.61zM458 156a57.44 57.44 0 011.91-5.44l2.13-5.34 2.2-5.33 1.07-2.67.55-1.33.28-.65.32-.73v.07c.24-.54.46-1.05.76-1.62v.13a1.3 1.3 0 01.15-.34l-.07.14.77-1.42a.8.8 0 01.15-.21l-.14.22.3-.57-.05.21a.56.56 0 01.17-.39.5.5 0 01.19-.12.43.43 0 01.17 0l-.51.44a2.72 2.72 0 01.11-.25l.07-.16.16-.32-.05.21.27.43c-.37-.21-.74-.41-1.12-.59a10.94 10.94 0 00-1.17-.46 17.8 17.8 0 01-2.36-.93.86.86 0 01-.37-1.15.87.87 0 01.49-.42l6.09-2-.67.62 2.81-8c.44-1.33.9-2.67 1.29-4 .19-.68.37-1.33.52-2 .07-.33.13-.65.17-1a3.59 3.59 0 000-.44.71.71 0 010-.22l.09-.27a.08.08 0 000-.09.07.07 0 00-.09.05.43.43 0 000 .19l-.05-.3.07.35a1.74 1.74 0 01-.1-.19.2.2 0 000-.08l-.16-.25-.11-.16a.34.34 0 00-.05-.08l-.1-.12-.31-.43v.06l-.23-.27c-.31-.37-.67-.76-1-1.15l-.16-.22a.46.46 0 00.11.16l-.09-.09-.17-.19-.35-.37-.72-.73-1.45-1.47-2.95-3 .06.06c-.11-.11-.25-.24-.32-.32l-.26-.28-.51-.56a.44.44 0 01.61-.63l.56.48.28.24.22.18.07.06 3.18 2.65 1.56 1.38.78.7.39.36.19.18.1.1h.05a1.74 1.74 0 01.19.26l-.16-.22c.39.38.77.75 1.17 1.17h-.05l.32.33h.05l.36.45-.09-.12.23.28.16.22c.11.16.22.35.33.53l-.05-.09.23.45a.48.48 0 01.07.26v.09l-.05-.3a1.41 1.41 0 01.07.41l-.05-.3a4.51 4.51 0 01.11.84 6.06 6.06 0 010 .62c0 .41-.09.79-.16 1.16-.13.72-.29 1.44-.47 2.15-.37 1.4-.75 2.79-1.2 4.15s-.9 2.74-1.41 4.08-1 2.67-1.55 4v.07a1 1 0 01-.64.55l-6.19 1.71.14-1.58a17.1 17.1 0 012.12 1.38 9.16 9.16 0 001.06.69c.36.21.74.39 1.12.57a.44.44 0 01.26.38v.05a.25.25 0 010 .12v.09l-.1.29-.05.14a.14.14 0 010 .06l-.51.44a.43.43 0 00.17 0 .44.44 0 00.18-.11.48.48 0 00.16-.38v.21l-.16.55-.34.03a.2.2 0 00.09-.09c-.15.51-.29 1-.45 1.54l-.07.14a.37.37 0 00.07-.14v.13c-.16.51-.37 1.07-.59 1.62v.07l-.5 1.27-.55 1.34-1.12 2.65-2.18 5.32-2.2 5.33c-.73 1.77-1.49 3.53-2.38 5.24a.6.6 0 01-.79.25.59.59 0 01-.33-.67zm-28.76-33.76c.45 2.63 2.52 4.74 4.88 6a16.51 16.51 0 007.92 2 23.41 23.41 0 008.23-1.55 37 37 0 007.59-4 .63.63 0 01.86.17.64.64 0 01-.12.82 29.83 29.83 0 01-7.64 4.77c-.69.32-1.41.57-2.13.83s-1.46.43-2.22.58a22.64 22.64 0 01-4.58.52 17.29 17.29 0 01-9-2.34 12.52 12.52 0 01-3.51-3.18 8.19 8.19 0 01-1.63-4.5.65.65 0 011.29-.12z"/><path class="cls-7" d="M430.16 112.05l.62-.62a.68.68 0 01-.2.46.71.71 0 01-.21.13h-.2.2c-1.67.74-3.41 1.41-5.1 2.06s-3.39 1.33-5 2-3.28 1.53-4.84 2.39a44.39 44.39 0 00-4.51 2.89h-.06c-.22.15-.46.33-.7.53l-.35.34-.28.29v.06l-.15.16-.07.07-.09.12-.25.33-.27.37c-.2.26-.35.49-.5.72v.05a33.87 33.87 0 00-2.12 4c-.64 1.4-1.18 2.84-1.71 4.3s-1 2.91-1.48 4.4-.91 3-1.33 4.47a.38.38 0 01-.47.26.37.37 0 01-.27-.45c.33-1.53.68-3 1.07-4.57s.81-3 1.28-4.53 1-3 1.59-4.45a28.33 28.33 0 012.14-4.31c.19-.31.39-.61.58-.87l.28-.41.34-.44-.1.12.14-.18.12-.15.23-.26v.06l.41-.45.38-.37a10.14 10.14 0 01.92-.72h-.08a38.32 38.32 0 014.69-3.09c1.64-.89 3.3-1.72 5-2.45s3.45-1.34 5.18-1.95l5.18-1.76h.21-.19a.48.48 0 00-.21.13.58.58 0 00-.19.44l.62-.62a.62.62 0 010 1.24z"/><circle cx="446.97" cy="80.93" r="76.15" stroke-miterlimit="10" stroke-width="2.37" fill="none" stroke="#28347d"/></g></svg>