<svg id="Capa_1" data-name="Capa 1" xmlns="http://www.w3.org/2000/svg" viewBox="0 0 120 120"><defs><style>.cls-1{opacity:.85}.cls-2{fill:#fff}.cls-3{fill:#95a6b1}</style></defs><g class="cls-1"><path class="cls-2" d="M32.76 29.35a9.55 9.55 0 01-8.64-5.56 9.5 9.5 0 1112.59 4.69 9.42 9.42 0 01-3.95.87zm0-15a5.51 5.51 0 105 3.22 5.51 5.51 0 00-5.01-3.23z"/></g><path class="cls-3" d="M41.49 91.94a15 15 0 01-15-15V35.31a2 2 0 014 0v41.6a11 11 0 0011 11h43.69V16.7H46.9a2 2 0 010-4h40.25a2 2 0 012 2v75.18a2 2 0 01-2 2l-25 .06z"/><path class="cls-3" d="M55.27 62.19h-.16a3.58 3.58 0 01-2.73-1.46l-2.64-3.59A2 2 0 0153 54.77l2.33 3.17 7.6-8.58a2 2 0 113 2.65L58 61a3.57 3.57 0 01-2.73 1.19z"/><path class="cls-3" d="M57.88 78a4.15 4.15 0 01-.7-.07c-3.46-.69-20.6-5.58-18-34.67A3.58 3.58 0 0142.57 40a22.86 22.86 0 0013.09-4.86 3.55 3.55 0 014.44 0A26.6 26.6 0 0073.35 40a3.56 3.56 0 013.19 3.14C78.1 56.54 74.31 72.68 59 77.76a3.62 3.62 0 01-1.12.24zm-.13-4zM43.12 44C41 69 54.77 73.29 57.85 73.93c6.95-2.34 11.55-7.41 13.69-15.07a41.71 41.71 0 001.06-14.94 30.43 30.43 0 01-14.68-5.49 27 27 0 01-14.8 5.51z"/><path class="cls-2" d="M46.47 115.09h-8.39a2 2 0 010-4h8.39a2 2 0 010 4z"/><path class="cls-2" d="M28 102.83a2 2 0 01-1.42-.59 1.85 1.85 0 01-.43-.64 2 2 0 01-.15-.77 2 2 0 01.58-1.41 2.34 2.34 0 01.3-.25 2.31 2.31 0 01.35-.18 2.65 2.65 0 01.37-.12 2 2 0 012.4 2 2 2 0 01-.16.77 1.85 1.85 0 01-.43.64 2 2 0 01-1.41.55z" opacity=".8"/><g class="cls-1"><path class="cls-2" d="M79.12 115.12H70a2 2 0 110-4h9.16a2 2 0 010 4z"/></g><path class="cls-2" d="M92 115.12a1.75 1.75 0 01-.4 0 1.73 1.73 0 01-.37-.11 1.41 1.41 0 01-.34-.19 1.79 1.79 0 01-.31-.25 1.85 1.85 0 01-.43-.64 2 2 0 01-.15-.77 1.72 1.72 0 010-.39 1.66 1.66 0 01.11-.38 2.21 2.21 0 01.18-.34 2.48 2.48 0 01.25-.3 2 2 0 011.81-.55 1.73 1.73 0 01.37.11 1.7 1.7 0 01.35.19 1.42 1.42 0 01.3.25 2 2 0 01.59 1.41 2.07 2.07 0 01-.15.77 2.15 2.15 0 01-.44.64 1.73 1.73 0 01-.3.25 1.7 1.7 0 01-.35.19 1.58 1.58 0 01-.37.11 1.72 1.72 0 01-.35 0z"/><path class="cls-2" d="M46.32 115.12H28a2 2 0 010-4h18.3a2 2 0 010 4z" opacity=".7"/><path class="cls-2" d="M57.08 115.12h-18.3a2 2 0 010-4h18.3a2 2 0 010 4zm16.55-12.29H28a2 2 0 110-4h45.63a2 2 0 010 4z" opacity=".6"/><path class="cls-2" d="M92 102.83H66.09a2 2 0 010-4H92a2 2 0 010 4z" opacity=".5"/><path class="cls-2" d="M73.66 102.83h-7.5a2 2 0 010-4h7.5a2 2 0 010 4z"/><path fill="none" d="M0 0h120v120H0z"/></svg>