<svg id="Capa_1" data-name="Capa 1" xmlns="http://www.w3.org/2000/svg" viewBox="0 0 120 120"><defs><style>.cls-1{opacity:.85}.cls-2{fill:#fff}.cls-3{fill:#95a6b1}</style></defs><g class="cls-1"><path class="cls-2" d="M34.5 35.36A10.83 10.83 0 1144.33 20a10.77 10.77 0 01.44 7.89 10.83 10.83 0 01-10.27 7.47zm0-17.65a6.82 6.82 0 106.21 4 6.84 6.84 0 00-6.21-4z"/></g><path class="cls-3" d="M55.85 54a10 10 0 119.06-14.1 9.86 9.86 0 01.4 7.28A10 10 0 0155.85 54zm0-16a6 6 0 102.5 11.43 5.93 5.93 0 003.2-3.56 6 6 0 00-.24-4.37 6 6 0 00-5.49-3.44zm23.21 41.46a8 8 0 118-8 8 8 0 01-8 8zm0-12a4 4 0 104 4 4 4 0 00-4-4.05z"/><path class="cls-3" d="M79.06 89.83a18.64 18.64 0 01-2.84-.24 2 2 0 01-1.52-1.17l-1.7-3.8a2.31 2.31 0 00-2.37-1.37l-4.13.45a2 2 0 01-1.76-.7 18.7 18.7 0 01-2.83-4.91 2 2 0 01.26-1.9l2.45-3.36a2.3 2.3 0 000-2.73l-2.45-3.36a2 2 0 01-.26-1.9 18.7 18.7 0 012.83-4.91 2 2 0 011.78-.73l4.13.45a2.32 2.32 0 002.35-1.4l1.68-3.8a2 2 0 011.55-1.17 21.54 21.54 0 012.83-.28 18.42 18.42 0 012.83.24 2 2 0 011.53 1.17l1.67 3.8a2.32 2.32 0 002.37 1.37l4.14-.45a2 2 0 011.77.73 18.43 18.43 0 012.83 4.91 2 2 0 01-.25 1.9l-2.46 3.36a2.3 2.3 0 000 2.73l2.51 3.4a2 2 0 01.25 1.9A18.43 18.43 0 0193.37 83a2 2 0 01-1.77.73l-4.14-.45a2.32 2.32 0 00-2.37 1.37l-1.67 3.8a2 2 0 01-1.53 1.17 18.42 18.42 0 01-2.83.21zm-1.16-4.06a12.73 12.73 0 002.31 0L81.43 83a6.28 6.28 0 016.46-3.73l3 .32a14.67 14.67 0 001.16-2l-1.78-2.43a6.29 6.29 0 010-7.47l1.78-2.43a14.67 14.67 0 00-1.16-2l-3 .32a6.29 6.29 0 01-6.46-3.73l-1.22-2.75a12.7 12.7 0 00-2.31 0l-1.22 2.75a6.28 6.28 0 01-6.46 3.73l-3-.32a13.65 13.65 0 00-1.15 2l1.78 2.43a6.32 6.32 0 010 7.47l-1.78 2.44a13.65 13.65 0 001.15 2l3-.32A6.29 6.29 0 0176.68 83zm-21.77 4.34a2 2 0 01-1.32-.49 102.08 102.08 0 01-13.29-14.77c-8.77-11.91-12.83-23-12.07-33.13a2 2 0 012.14-1.85A2 2 0 0133.44 42C32 60.9 50.75 80.24 56.06 85.32c.7-.71 1.42-1.46 1.9-2a2 2 0 112.93 2.71c-.78.85-2.17 2.26-3.08 3.2l-.25.25a2 2 0 01-1.43.63zm23.15-41.39h-.25a2 2 0 01-1.74-2.23 24.89 24.89 0 00.16-5.7c-1.09-9.14-4.36-15.66-9.72-19.42-7.87-5.52-17.82-3.29-17.92-3.27a2 2 0 11-.92-3.89c.47-.11 11.74-2.68 21.1 3.86C76.34 22.49 80.18 30 81.41 40.24a27.1 27.1 0 01-.15 6.76 2 2 0 01-1.98 1.72z"/><path class="cls-2" d="M46.47 115.09h-8.39a2 2 0 010-4h8.39a2 2 0 010 4z"/><path class="cls-2" d="M28 102.83a2 2 0 01-1.42-.59 1.85 1.85 0 01-.43-.64 2 2 0 01-.15-.77 2 2 0 01.58-1.41 2.34 2.34 0 01.3-.25 2.31 2.31 0 01.35-.18 2.65 2.65 0 01.37-.12 2 2 0 012.4 2 2 2 0 01-.16.77 1.85 1.85 0 01-.43.64 2 2 0 01-1.41.55z" opacity=".8"/><g class="cls-1"><path class="cls-2" d="M79.12 115.12H70a2 2 0 110-4h9.16a2 2 0 010 4z"/></g><path class="cls-2" d="M92 115.12a1.75 1.75 0 01-.4 0 1.73 1.73 0 01-.37-.11 1.41 1.41 0 01-.34-.19 1.79 1.79 0 01-.31-.25 1.85 1.85 0 01-.43-.64 2 2 0 01-.15-.77 1.72 1.72 0 010-.39 1.66 1.66 0 01.11-.38 2.21 2.21 0 01.18-.34 2.48 2.48 0 01.25-.3 2 2 0 011.81-.55 1.73 1.73 0 01.37.11 1.7 1.7 0 01.35.19 1.42 1.42 0 01.3.25 2 2 0 01.59 1.41 2.07 2.07 0 01-.15.77 2.15 2.15 0 01-.44.64 1.73 1.73 0 01-.3.25 1.7 1.7 0 01-.35.19 1.58 1.58 0 01-.37.11 1.72 1.72 0 01-.35 0z"/><path class="cls-2" d="M46.32 115.12H28a2 2 0 010-4h18.3a2 2 0 010 4z" opacity=".7"/><path class="cls-2" d="M57.08 115.12h-18.3a2 2 0 010-4h18.3a2 2 0 010 4zm16.55-12.29H28a2 2 0 110-4h45.63a2 2 0 010 4z" opacity=".6"/><path class="cls-2" d="M92 102.83H66.09a2 2 0 010-4H92a2 2 0 010 4z" opacity=".5"/><path class="cls-2" d="M73.66 102.83h-7.5a2 2 0 010-4h7.5a2 2 0 010 4z"/><path fill="none" d="M0 0h120v120H0z"/></svg>