<svg id="Capa_1" data-name="Capa 1" xmlns="http://www.w3.org/2000/svg" viewBox="0 0 120 120"><defs><style>.cls-1{opacity:.85}.cls-2{fill:#fff}.cls-3{fill:#95a6b1}</style></defs><g class="cls-1"><path class="cls-2" d="M32.48 75.41a9.69 9.69 0 118.81-13.72 9.71 9.71 0 01-8.81 13.72zm0-15.31a5.61 5.61 0 00-5.1 7.9 5.61 5.61 0 0010.2-4.66 5.62 5.62 0 00-5.11-3.24z"/></g><path class="cls-3" d="M50.83 91.24a2 2 0 010-4l22.87-.07a2 2 0 010 4l-22.87.07z"/><path class="cls-3" d="M73.69 91.17a2 2 0 01-2-1.83l-.87-10.13c-.1-1.12-.13-2.26-.17-3.36-.13-3.7-.26-7.19-2.41-9.87-3.57-4.43-11.42-5.18-17.37-5a2 2 0 01-.1-4c10-.24 16.9 2 20.59 6.54 3 3.71 3.14 8.24 3.28 12.23 0 1.1.08 2.13.17 3.16L75.68 89a2 2 0 01-1.82 2.17zm-22.86.07L28 91.17a2 2 0 01-2-2 2 2 0 012-2l22.86.07a2 2 0 110 4z"/><path class="cls-3" d="M28 91.17h-.2A2 2 0 0126 89c.15-1.72.3-3 .44-4.17s.29-2.37.43-4a2 2 0 114 .34c-.15 1.72-.3 3-.44 4.16s-.29 2.38-.43 4a2 2 0 01-2 1.84zm17.6-30.1a2 2 0 01-.23-4 25.6 25.6 0 014.63-.16h.93a2 2 0 011.9 2.09 2 2 0 01-2 1.95h-.94a21.31 21.31 0 00-4 .14zm5.23-12.51A10.87 10.87 0 0140 37.7a2 2 0 014 0 6.86 6.86 0 0013.72 0 2 2 0 014 0 10.87 10.87 0 01-10.89 10.86z"/><path class="cls-3" d="M59.69 39.7a2 2 0 01-2-2v-6.12a6.86 6.86 0 00-13.72 0v6.12a2 2 0 01-4 0v-6.12a10.86 10.86 0 0121.72 0v6.12a2 2 0 01-2 2z"/><path class="cls-2" d="M46.47 115.09h-8.39a2 2 0 010-4h8.39a2 2 0 010 4z"/><path class="cls-2" d="M28 102.83a2 2 0 01-1.42-.59 1.85 1.85 0 01-.43-.64 2 2 0 01-.15-.77 2 2 0 01.58-1.41 2.34 2.34 0 01.3-.25 2.31 2.31 0 01.35-.18 2.65 2.65 0 01.37-.12 2 2 0 012.4 2 2 2 0 01-.16.77 1.85 1.85 0 01-.43.64 2 2 0 01-1.41.55z" opacity=".8"/><g class="cls-1"><path class="cls-2" d="M79.12 115.12H70a2 2 0 110-4h9.16a2 2 0 010 4z"/></g><path class="cls-2" d="M92 115.12a1.75 1.75 0 01-.4 0 1.73 1.73 0 01-.37-.11 1.41 1.41 0 01-.34-.19 1.79 1.79 0 01-.31-.25 1.85 1.85 0 01-.43-.64 2 2 0 01-.15-.77 1.72 1.72 0 010-.39 1.66 1.66 0 01.11-.38 2.21 2.21 0 01.18-.34 2.48 2.48 0 01.25-.3 2 2 0 011.81-.55 1.73 1.73 0 01.37.11 1.7 1.7 0 01.35.19 1.42 1.42 0 01.3.25 2 2 0 01.59 1.41 2.07 2.07 0 01-.15.77 2.15 2.15 0 01-.44.64 1.73 1.73 0 01-.3.25 1.7 1.7 0 01-.35.19 1.58 1.58 0 01-.37.11 1.72 1.72 0 01-.35 0z"/><path class="cls-2" d="M46.32 115.12H28a2 2 0 010-4h18.3a2 2 0 010 4z" opacity=".7"/><path class="cls-2" d="M57.08 115.12h-18.3a2 2 0 010-4h18.3a2 2 0 010 4zm16.55-12.29H28a2 2 0 110-4h45.63a2 2 0 010 4z" opacity=".6"/><path class="cls-2" d="M92 102.83H66.09a2 2 0 010-4H92a2 2 0 010 4z" opacity=".5"/><path class="cls-2" d="M73.66 102.83h-7.5a2 2 0 010-4h7.5a2 2 0 010 4z"/><path class="cls-3" d="M86.56 27.15a2 2 0 01-2-2v-8.82a2 2 0 114.08 0v8.78a2 2 0 01-2.08 2.04z"/><ellipse class="cls-3" cx="86.56" cy="31.02" rx="2.55" ry="2.47"/><path class="cls-3" d="M86.56 40.56a16.37 16.37 0 1116.37-16.37 16.39 16.39 0 01-16.37 16.37zm0-28.66a12.29 12.29 0 1012.29 12.29A12.31 12.31 0 0086.56 11.9z"/><path class="cls-3" d="M72.22 43.25a2 2 0 01-1.57-3.33l5-6.13a2 2 0 013.16 2.58l-5 6.13a2 2 0 01-1.59.75z"/><path fill="none" d="M0 0h120v120H0z"/></svg>