<svg id="Capa_1" data-name="Capa 1" xmlns="http://www.w3.org/2000/svg" viewBox="0 0 120 120"><defs><style>.cls-1{opacity:.85}.cls-2{fill:#fff}.cls-3{fill:#95a6b1}</style></defs><g class="cls-1"><path class="cls-2" d="M35 29a9.51 9.51 0 113.93-.86A9.36 9.36 0 0135 29zm0-15a5.5 5.5 0 102.3 10.5 5.51 5.51 0 002.7-7.29A5.5 5.5 0 0035 14z"/></g><path class="cls-3" d="M43.72 91.59a15 15 0 01-15-15V35a2 2 0 014 0v41.6a11 11 0 0011 11h43.7V16.35H49.13a2 2 0 110-4h40.26a2 2 0 012 2v75.19a2 2 0 01-2 2h-25z"/><path class="cls-3" d="M60 74.6a22.08 22.08 0 119.15-2 22.12 22.12 0 01-9.15 2zm-.06-40.16A18.08 18.08 0 1076.41 45a18.11 18.11 0 00-16.47-10.56z"/><path class="cls-3" d="M57.72 65.26a12.75 12.75 0 01-3.72-.54c-6.64-2-10-9.62-10.09-9.94a2 2 0 01.76-2.48c.3-.18 7.3-4.59 13.94-2.55 6.64 2 9.95 9.62 10.09 9.94a2 2 0 01-.76 2.48 21.26 21.26 0 01-10.22 3.09zm-9.28-10.44c1.16 2 3.46 5.07 6.73 6.08s6.93-.29 9-1.25c-1.15-1.94-3.45-5.07-6.73-6.08-3.27-1-6.94.3-9 1.25z"/><path class="cls-3" d="M66.85 62.48a2.06 2.06 0 01-.59-.09l-10.55-3.24a2 2 0 011.17-3.83l10.56 3.25a2 2 0 01-.59 3.91zm1.98-7.13a1.43 1.43 0 01-.83-.25c-.19-.12-4.51-3-5-7.37s3-8.2 3.13-8.36a1.48 1.48 0 011.9-.23c.18.12 4.51 3 5 7.37.52 4.36-3 8.2-3.13 8.36a1.5 1.5 0 01-1.07.48zm-1.38-12.87a7.67 7.67 0 00-1.53 4.9 7.78 7.78 0 002.66 4.39 7.67 7.67 0 001.52-4.9 7.65 7.65 0 00-2.65-4.39z"/><path class="cls-3" d="M68.83 55.35A1.48 1.48 0 0167.36 54l-.82-6.74a1.48 1.48 0 012.94-.36l.82 6.75a1.48 1.48 0 01-1.3 1.69z"/><path class="cls-2" d="M46.47 115.09h-8.39a2 2 0 010-4h8.39a2 2 0 010 4z"/><path class="cls-2" d="M28 102.83a2 2 0 01-1.42-.59 1.85 1.85 0 01-.43-.64 2 2 0 01-.15-.77 2 2 0 01.58-1.41 2.34 2.34 0 01.3-.25 2.31 2.31 0 01.35-.18 2.65 2.65 0 01.37-.12 2 2 0 012.4 2 2 2 0 01-.16.77 1.85 1.85 0 01-.43.64 2 2 0 01-1.41.55z" opacity=".8"/><g class="cls-1"><path class="cls-2" d="M79.12 115.12H70a2 2 0 110-4h9.16a2 2 0 010 4z"/></g><path class="cls-2" d="M92 115.12a1.75 1.75 0 01-.4 0 1.73 1.73 0 01-.37-.11 1.41 1.41 0 01-.34-.19 1.79 1.79 0 01-.31-.25 1.85 1.85 0 01-.43-.64 2 2 0 01-.15-.77 1.72 1.72 0 010-.39 1.66 1.66 0 01.11-.38 2.21 2.21 0 01.18-.34 2.48 2.48 0 01.25-.3 2 2 0 011.81-.55 1.73 1.73 0 01.37.11 1.7 1.7 0 01.35.19 1.42 1.42 0 01.3.25 2 2 0 01.59 1.41 2.07 2.07 0 01-.15.77 2.15 2.15 0 01-.44.64 1.73 1.73 0 01-.3.25 1.7 1.7 0 01-.35.19 1.58 1.58 0 01-.37.11 1.72 1.72 0 01-.35 0z"/><path class="cls-2" d="M46.32 115.12H28a2 2 0 010-4h18.3a2 2 0 010 4z" opacity=".7"/><path class="cls-2" d="M57.08 115.12h-18.3a2 2 0 010-4h18.3a2 2 0 010 4zm16.55-12.29H28a2 2 0 110-4h45.63a2 2 0 010 4z" opacity=".6"/><path class="cls-2" d="M92 102.83H66.09a2 2 0 010-4H92a2 2 0 010 4z" opacity=".5"/><path class="cls-2" d="M73.66 102.83h-7.5a2 2 0 010-4h7.5a2 2 0 010 4z"/><path fill="none" d="M0 0h120v120H0z"/></svg>