<svg id="Capa_1" data-name="Capa 1" xmlns="http://www.w3.org/2000/svg" viewBox="0 0 120 120"><defs><style>.cls-1{opacity:.85}.cls-2{fill:#fff}.cls-3{fill:#95a6b1}</style></defs><g class="cls-1"><path class="cls-2" d="M33.42 29.09a9.5 9.5 0 01-8.91-12.82 9.5 9.5 0 0117.54-.63 9.44 9.44 0 01.38 6.93 9.5 9.5 0 01-9 6.52zm0-15a5.5 5.5 0 00-1.91 10.65 5.5 5.5 0 101.89-10.65z"/></g><path class="cls-3" d="M42.15 91.68a15 15 0 01-15-15V35.06a2 2 0 014 0v41.6a11 11 0 0011 11h20.69l23-.05V16.44H47.55a2 2 0 110-4h40.26a2 2 0 012 2v75.19a2 2 0 01-2 2l-25 .05z"/><path class="cls-3" d="M72.51 58.58a2 2 0 01-2-2v-9.69H49.74v8.86a2 2 0 01-4 0V44.89a2 2 0 012-2h22.95a3.83 3.83 0 013.82 3.82v9.87a2 2 0 01-2 2z"/><path class="cls-3" d="M67 46.9a2 2 0 01-2-2v-5.12a.14.14 0 00-.14-.14H54.61v5.25a2 2 0 01-4 0V39.4a3.76 3.76 0 013.76-3.76h10.52A4.14 4.14 0 0169 39.78v5.12a2 2 0 01-2 2zm5.18 27.75a2.23 2.23 0 01-.56-.08 2 2 0 01-1.36-2.48l3.63-12.46-14.47-8-14.58 8 3.83 11.82a2 2 0 01-3.81 1.23l-4-12.22a3.39 3.39 0 011.59-4.1L57.77 48a3.39 3.39 0 013.31 0l15.15 8.4a3.42 3.42 0 011.58 4.1L74.1 73.21a2 2 0 01-1.92 1.44zM74 59.25zm-29.31-.1z"/><path class="cls-3" d="M59.43 74.37a2 2 0 01-2-2V49.52a2 2 0 014 0v22.85a2 2 0 01-2 2z"/><circle class="cls-3" cx="52.02" cy="59.71" r="1.85"/><circle class="cls-3" cx="66.79" cy="59.71" r="1.85"/><path class="cls-3" d="M65 39.64H54.84v-9.83a3 3 0 013-3h4.06a3.09 3.09 0 013.1 3.07zm-6.17-4H61v-4.85h-2.16z"/><path d="M81.06 76a5.24 5.24 0 01-3.92-1.81c-.6-.59-.8-.76-1.34-.76s-.74.17-1.34.76a5.16 5.16 0 01-7.85 0c-.6-.59-.8-.76-1.34-.76s-.73.17-1.34.76a5.16 5.16 0 01-7.85 0c-.6-.59-.8-.76-1.34-.76s-.73.17-1.34.76a5.16 5.16 0 01-7.85 0c-.6-.59-.8-.76-1.34-.76s-.74.17-1.35.76A5.24 5.24 0 0138.94 76a1.85 1.85 0 110-3.7c.54 0 .73-.17 1.34-.76a5.16 5.16 0 017.85 0c.61.59.81.76 1.35.76s.73-.17 1.34-.76a5.16 5.16 0 017.85 0c.6.59.8.76 1.34.76s.73-.17 1.34-.76a5.16 5.16 0 017.85 0c.6.59.8.76 1.34.76s.73-.17 1.34-.76a5.15 5.15 0 017.84 0c.61.59.81.76 1.34.76a1.85 1.85 0 010 3.7z" fill="#94a5b0"/><path class="cls-2" d="M46.47 115.09h-8.39a2 2 0 010-4h8.39a2 2 0 010 4z"/><path class="cls-2" d="M28 102.83a2 2 0 01-1.42-.59 1.85 1.85 0 01-.43-.64 2 2 0 01-.15-.77 2 2 0 01.58-1.41 2.34 2.34 0 01.3-.25 2.31 2.31 0 01.35-.18 2.65 2.65 0 01.37-.12 2 2 0 012.4 2 2 2 0 01-.16.77 1.85 1.85 0 01-.43.64 2 2 0 01-1.41.55z" opacity=".8"/><g class="cls-1"><path class="cls-2" d="M79.12 115.12H70a2 2 0 110-4h9.16a2 2 0 010 4z"/></g><path class="cls-2" d="M92 115.12a1.75 1.75 0 01-.4 0 1.73 1.73 0 01-.37-.11 1.41 1.41 0 01-.34-.19 1.79 1.79 0 01-.31-.25 1.85 1.85 0 01-.43-.64 2 2 0 01-.15-.77 1.72 1.72 0 010-.39 1.66 1.66 0 01.11-.38 2.21 2.21 0 01.18-.34 2.48 2.48 0 01.25-.3 2 2 0 011.81-.55 1.73 1.73 0 01.37.11 1.7 1.7 0 01.35.19 1.42 1.42 0 01.3.25 2 2 0 01.59 1.41 2.07 2.07 0 01-.15.77 2.15 2.15 0 01-.44.64 1.73 1.73 0 01-.3.25 1.7 1.7 0 01-.35.19 1.58 1.58 0 01-.37.11 1.72 1.72 0 01-.35 0z"/><path class="cls-2" d="M46.32 115.12H28a2 2 0 010-4h18.3a2 2 0 010 4z" opacity=".7"/><path class="cls-2" d="M57.08 115.12h-18.3a2 2 0 010-4h18.3a2 2 0 010 4zm16.55-12.29H28a2 2 0 110-4h45.63a2 2 0 010 4z" opacity=".6"/><path class="cls-2" d="M92 102.83H66.09a2 2 0 010-4H92a2 2 0 010 4z" opacity=".5"/><path class="cls-2" d="M73.66 102.83h-7.5a2 2 0 010-4h7.5a2 2 0 010 4z"/><path fill="none" d="M0 0h120v120H0z"/></svg>