<svg id="Capa_1" data-name="Capa 1" xmlns="http://www.w3.org/2000/svg" viewBox="0 0 120 120"><defs><style>.cls-1{opacity:.85}.cls-2{fill:#fff}.cls-3{fill:#95a6b1}</style></defs><g class="cls-1"><path class="cls-2" d="M35 29.08a9.46 9.46 0 113.93-.85 9.53 9.53 0 01-3.93.85zm0-15a5.38 5.38 0 00-2.27.5A5.49 5.49 0 1040 17.3a5.5 5.5 0 00-5-3.21z"/></g><path class="cls-3" d="M43.72 91.68a15 15 0 01-15-15V35.06a2 2 0 014 0v41.6a11 11 0 0011 11h20.7l23-.05V16.44H49.13a2 2 0 110-4h40.26a2 2 0 012 2v75.19a2 2 0 01-2 2l-25 .05z"/><path class="cls-3" d="M76.63 73.1h-35.1a1.65 1.65 0 010-3.3h35.1a1.65 1.65 0 010 3.3zM54.81 81H41.53a1.65 1.65 0 110-3.3h13.28a1.65 1.65 0 110 3.3zM60 41.37h-.23a2 2 0 01-1.54-1L55 34.2a2 2 0 013.53-1.89l1.91 3.57 8.27-9.43a2 2 0 013 2.64l-10.19 11.6a2 2 0 01-1.52.68zm-.78 20.41a1.49 1.49 0 01-1.22-.64l-4.77-6.85v6a1.5 1.5 0 01-3 0V49.5a1.5 1.5 0 012.77-.85l4.77 6.85v-6a1.5 1.5 0 013 0v10.78a1.49 1.49 0 01-1 1.43 1.41 1.41 0 01-.55.07zm-11.44 0a1.49 1.49 0 01-1.38-.91l-3.22-7.57-3.29 7.58a1.5 1.5 0 11-2.75-1.2l4.68-10.78a1.52 1.52 0 011.38-.9 1.5 1.5 0 011.38.92l4.58 10.77a1.51 1.51 0 01-1.38 2.09z"/><path class="cls-3" d="M46.17 58.26H40a1.5 1.5 0 010-3h6.13a1.5 1.5 0 010 3zm35.09 3.52a1.49 1.49 0 01-1.38-.91l-3.22-7.57-3.29 7.58a1.5 1.5 0 11-2.75-1.2L75.3 48.9a1.52 1.52 0 011.38-.9 1.5 1.5 0 011.38.92l4.58 10.77a1.51 1.51 0 01-1.38 2.09z"/><path class="cls-3" d="M79.65 58.26h-6.13a1.5 1.5 0 010-3h6.13a1.5 1.5 0 010 3zm-11.1 3.52h-5.08a1.5 1.5 0 01-1.5-1.5V49.5a1.5 1.5 0 013 0v9.28h3.58a1.5 1.5 0 010 3z"/><path class="cls-2" d="M46.47 115.38h-8.39a2 2 0 110-4h8.39a2 2 0 010 4z"/><path class="cls-2" d="M28 103.11a2 2 0 01-2-2 1.75 1.75 0 010-.4 1.73 1.73 0 01.11-.37 2.31 2.31 0 01.18-.35 3.61 3.61 0 01.25-.3 2.08 2.08 0 012.83 0 2.34 2.34 0 01.25.3 2.31 2.31 0 01.18.35 2.65 2.65 0 01.12.37 2.6 2.6 0 010 .4 2 2 0 01-2 2z" opacity=".8"/><g class="cls-1"><path class="cls-2" d="M79.12 115.4H70a2 2 0 010-4h9.16a2 2 0 010 4z"/></g><path class="cls-2" d="M92 115.4a2 2 0 01-.77-.15 2 2 0 01-.65-.44 1.94 1.94 0 01-.58-1.41 1.72 1.72 0 010-.39 1.58 1.58 0 01.11-.37 2.31 2.31 0 01.18-.35 2.48 2.48 0 01.25-.3 2.06 2.06 0 012.83 0 1.81 1.81 0 01.25.3 2.31 2.31 0 01.18.35 2.29 2.29 0 01.12.37 2.58 2.58 0 010 .39 2.71 2.71 0 010 .4c0 .12-.07.25-.11.37a2.27 2.27 0 01-.19.34 1.81 1.81 0 01-.25.3 2 2 0 01-1.37.59z"/><path class="cls-2" d="M46.32 115.4H28a2 2 0 010-4h18.3a2 2 0 010 4z" opacity=".7"/><path class="cls-2" d="M57.08 115.4h-18.3a2 2 0 010-4h18.3a2 2 0 110 4zm16.55-12.28H28a2 2 0 010-4h45.63a2 2 0 010 4z" opacity=".6"/><path class="cls-2" d="M92 103.12H66.09a2 2 0 010-4H92a2 2 0 110 4z" opacity=".5"/><path class="cls-2" d="M73.66 103.12h-7.5a2 2 0 010-4h7.5a2 2 0 010 4z"/><path fill="none" d="M0 0h120v120H0z"/></svg>