<svg xmlns="http://www.w3.org/2000/svg" viewBox="0 0 120 120"><defs><style>.cls-3{fill:#ffea27}.cls-4{mix-blend-mode:multiply}.cls-5{fill:#f4d314}.cls-6{fill:#95a6b1}</style></defs><g style="isolation:isolate"><g id="Capa_1" data-name="Capa 1"><path fill="none" d="M0 0h120v119.87H0z"/><path class="cls-3" d="M58.67 116.23H40.46a2 2 0 110-4h18.21a2 2 0 010 4zm21.93 0h-9.1a2 2 0 010-4h9.1a2 2 0 010 4zm12.8 0a2 2 0 01-1.4-3.41 2 2 0 011.8-.55 1.82 1.82 0 01.38.11 2.27 2.27 0 01.34.19 1.42 1.42 0 01.3.25 2 2 0 01.59 1.41 2 2 0 01-.15.77 1.88 1.88 0 01-.44.64 2 2 0 01-1.42.59z"/><g class="cls-4"><path class="cls-5" d="M48 116.23H29.76a2 2 0 010-4H48a2 2 0 010 4z"/></g><path class="cls-3" d="M75.14 104H29.76a2 2 0 110-4h45.38a2 2 0 010 4z"/><g class="cls-4"><path class="cls-5" d="M29.76 104a2 2 0 01-2-2 2 2 0 012.39-2 2.65 2.65 0 01.37.12 2.31 2.31 0 01.35.18 1.81 1.81 0 01.3.25 1.89 1.89 0 01.25.31 1.83 1.83 0 01.18.34 2.65 2.65 0 01.12.37 2.58 2.58 0 010 .39 2 2 0 01-2 2z"/></g><g class="cls-4"><path class="cls-5" d="M93.4 104H67.64a2 2 0 110-4H93.4a2 2 0 010 4z"/></g><path class="cls-6" d="M109.15 89.36c-3.89 0-5.91-2-7.54-3.57-1.44-1.41-2.49-2.43-4.74-2.43s-3.31 1-4.75 2.43c-1.63 1.59-3.65 3.57-7.54 3.57s-5.91-2-7.54-3.57c-1.44-1.41-2.49-2.43-4.74-2.43s-3.3 1-4.75 2.43c-1.63 1.59-3.65 3.57-7.54 3.57s-5.91-2-7.54-3.57C51 84.38 50 83.36 47.72 83.36s-3.3 1-4.74 2.43c-1.63 1.59-3.66 3.57-7.54 3.57s-5.92-2-7.55-3.57c-1.44-1.41-2.49-2.43-4.75-2.43s-3.3 1-4.75 2.43c-1.63 1.59-3.65 3.57-7.54 3.57a2 2 0 110-4c2.26 0 3.3-1 4.75-2.43 1.63-1.59 3.66-3.57 7.54-3.57s5.92 2 7.55 3.57c1.44 1.41 2.49 2.43 4.75 2.43s3.3-1 4.74-2.43c1.63-1.59 3.66-3.57 7.54-3.57s5.92 2 7.54 3.57c1.45 1.41 2.49 2.43 4.75 2.43s3.3-1 4.75-2.43c1.63-1.59 3.65-3.57 7.54-3.57s5.91 2 7.54 3.57c1.44 1.41 2.48 2.43 4.74 2.43s3.3-1 4.74-2.43c1.68-1.59 3.68-3.57 7.55-3.57s5.91 2 7.54 3.57c1.44 1.41 2.48 2.43 4.74 2.43a2 2 0 010 4zM42.87 77.89H31a2 2 0 110-4h11.87a2 2 0 010 4zM84 55.07a2 2 0 01-2-2 2 2 0 01.59-1.41 2.06 2.06 0 012.83 0 2.48 2.48 0 01.25.3 1.92 1.92 0 01.18.35 1.58 1.58 0 01.11.37 1.72 1.72 0 010 .39 2.56 2.56 0 010 .39 2.4 2.4 0 01-.12.38 2.21 2.21 0 01-.18.34 1.81 1.81 0 01-.25.3 2 2 0 01-.65.44 2 2 0 01-.76.15zm-15.42 0h-36a2 2 0 01-2-2v-6.3a2 2 0 114 0v4.3h34a2 2 0 010 4z"/><path class="cls-3" d="M32.33 42.94a9.49 9.49 0 01-4-18.13A9.51 9.51 0 0141 29.5a9.49 9.49 0 01-4.69 12.58 9.37 9.37 0 01-3.98.86zm0-15a5.42 5.42 0 00-2.29.51 5.5 5.5 0 107.29 2.71 5.49 5.49 0 00-3.08-2.87 5.61 5.61 0 00-1.93-.35z"/><path class="cls-6" d="M90.31 55.07H84a2 2 0 010-4h4.35v-17a.36.36 0 00-.36-.35H46.22a2 2 0 110-4H88a4.36 4.36 0 014.36 4.35v19a2 2 0 01-2.05 2z"/><path class="cls-6" d="M80.5 33.74H51.78a2 2 0 01-2-2V24.8A4.24 4.24 0 0154 20.56h24.56a4 4 0 013.94 3.94v7.24a2 2 0 01-2 2zm-26.72-4H78.5v-5.18H54a.23.23 0 00-.23.24zm24.78-5.18zm11.83 17.13H45.52a2 2 0 010-4h44.87a2 2 0 010 4zM23.2 82.64a2 2 0 01-2-2V55.78a4.7 4.7 0 014.69-4.69h42.69a2 2 0 010 4H25.89a.69.69 0 00-.69.69v24.86a2 2 0 01-2 2zm77.07 1.63a2 2 0 01-2-2V55.42a.33.33 0 00-.33-.33h-14a2 2 0 010-4h14a4.34 4.34 0 014.33 4.33v26.85a2 2 0 01-2 2z"/><path class="cls-6" d="M23.2 62.35a2 2 0 110-4h27.39a2 2 0 010 4z"/><path fill="#fff" d="M42.88 60.33V83"/><path class="cls-6" d="M42.88 85a2 2 0 01-2-2V60.33a2 2 0 014 0V83a2 2 0 01-2 2z"/><path class="cls-6" d="M42.87 69.42H31a2 2 0 110-4h11.87a2 2 0 010 4z"/><path class="cls-6" d="M30.92 87.36a2 2 0 01-2-2v-25a2 2 0 014 0v25a2 2 0 01-2 2zm19.67-4.16a2 2 0 01-2-2V53.07a2 2 0 114 0V81.2a2 2 0 01-2 2zm33.35-16.32h-15.4a2 2 0 01-1.42-.59 2 2 0 01-.58-1.42V53.12a2 2 0 012-2 2 2 0 012 2v9.74h11.4v-9.75a2 2 0 014 0v11.77a2 2 0 01-2 2zM59.09 33.74a2 2 0 01-2-2v-9.18a2 2 0 014 0v9.18a2 2 0 01-2 2zm7.05 0a2 2 0 01-2-2v-9.18a2 2 0 014 0v9.18a2 2 0 01-2 2zm7.29 0a2 2 0 01-2-2v-9.18a2 2 0 014 0v9.18a2 2 0 01-2 2zm18.68 33.92a2 2 0 01-2-2V53.11a2 2 0 014 0v12.55a2 2 0 01-2 2zm-32.55 0a2 2 0 01-2-2V53.11a2 2 0 014 0v12.55a2 2 0 01-2 2z"/></g></g></svg>