<svg xmlns="http://www.w3.org/2000/svg" viewBox="0 0 120 120"><defs><style>.cls-2{fill:#ffea27}.cls-3{mix-blend-mode:multiply}.cls-4{fill:#f4d314}.cls-5{fill:#95a6b1}</style></defs><g style="isolation:isolate"><g id="Capa_1" data-name="Capa 1"><path class="cls-2" d="M58.67 116.23H40.46a2 2 0 110-4h18.21a2 2 0 010 4zm21.93 0h-9.1a2 2 0 010-4h9.1a2 2 0 010 4zm12.8 0a2 2 0 01-1.4-3.41 2 2 0 011.8-.55 1.82 1.82 0 01.38.11 2.27 2.27 0 01.34.19 1.42 1.42 0 01.3.25 2 2 0 01.59 1.41 2 2 0 01-.15.77 1.88 1.88 0 01-.44.64 2 2 0 01-1.42.59z"/><g class="cls-3"><path class="cls-4" d="M48 116.23H29.76a2 2 0 010-4H48a2 2 0 010 4z"/></g><path class="cls-2" d="M75.14 104H29.76a2 2 0 110-4h45.38a2 2 0 010 4z"/><g class="cls-3"><path class="cls-4" d="M29.76 104a2 2 0 01-2-2 2 2 0 012.39-2 2.65 2.65 0 01.37.12 2.31 2.31 0 01.35.18 1.81 1.81 0 01.3.25 1.89 1.89 0 01.25.31 1.83 1.83 0 01.18.34 2.65 2.65 0 01.12.37 2.58 2.58 0 010 .39 2 2 0 01-2 2z"/></g><g class="cls-3"><path class="cls-4" d="M93.4 104H67.64a2 2 0 110-4H93.4a2 2 0 010 4z"/></g><path class="cls-4" d="M31.83 43.1a9.54 9.54 0 01-3.32-.6 9.5 9.5 0 1112.33-5.92 9.5 9.5 0 01-9 6.52zm0-15a5.5 5.5 0 00-1.93 10.65 5.49 5.49 0 004.21-.15A5.42 5.42 0 0037 35.33a5.48 5.48 0 00-.22-4 5.51 5.51 0 00-4.96-3.23z"/><path class="cls-5" d="M100.11 84.42a2 2 0 01-2-2V55.57a.32.32 0 00-.32-.32H25.74a.69.69 0 00-.69.69V80.8a2 2 0 01-4 0V55.94a4.69 4.69 0 014.69-4.69h72.05a4.33 4.33 0 014.32 4.32v26.85a2 2 0 01-2 2z"/><path class="cls-5" d="M23.05 63.61a2 2 0 110-4h35.27a2 2 0 110 4z"/><path fill="#fff" d="M43.82 61.59v20.87"/><path class="cls-5" d="M43.83 84.46a2 2 0 01-2-2V61.59a2 2 0 014 0v20.87a2 2 0 01-2 2z"/><path class="cls-5" d="M43.82 70.68H31.9a2 2 0 010-4h11.92a2 2 0 010 4zm.01 7.39H31.92a2 2 0 010-4h11.91a2 2 0 010 4z"/><path class="cls-5" d="M31.87 88.62a2 2 0 01-2-2v-25a2 2 0 114 0v25a2 2 0 01-2 2zm26.5.81a2 2 0 01-2-2V53.34a2 2 0 014 0v34.09a2 2 0 01-2 2z"/><path class="cls-5" d="M89.81 55.22h-57.7a2 2 0 01-2-2v-6.29a2 2 0 114 0v4.29h53.7v-17a.36.36 0 00-.36-.36H45.73a2 2 0 010-4h41.72a4.36 4.36 0 014.36 4.36v19a2 2 0 01-2 2z"/><path class="cls-5" d="M80 33.89H51.28a2 2 0 01-2-2V25a4.24 4.24 0 014.24-4.24h24.55A3.94 3.94 0 0182 24.65v7.24a2 2 0 01-2 2zm-26.72-4H78v-5.18H53.52a.24.24 0 00-.24.24zm24.79-5.18zM89.9 41.84H45a2 2 0 010-4h44.9a2 2 0 010 4zm18.76 47.67c-3.89 0-5.92-2-7.54-3.57-1.45-1.41-2.49-2.43-4.75-2.43s-3.3 1-4.75 2.43C90 87.53 88 89.51 84.08 89.51s-5.91-2-7.53-3.57c-1.45-1.41-2.49-2.43-4.75-2.43s-3.3 1-4.74 2.43c-1.63 1.59-3.66 3.57-7.54 3.57s-5.92-2-7.54-3.57c-1.45-1.41-2.49-2.43-4.75-2.43s-3.3 1-4.75 2.43c-1.63 1.59-3.65 3.57-7.54 3.57s-5.91-2-7.54-3.57c-1.45-1.41-2.49-2.43-4.75-2.43s-3.31 1-4.75 2.43c-1.63 1.59-3.66 3.57-7.55 3.57a2 2 0 110-4c2.26 0 3.31-1 4.75-2.43 1.63-1.59 3.66-3.57 7.55-3.57s5.91 2 7.54 3.57c1.45 1.41 2.49 2.43 4.75 2.43s3.3-1 4.75-2.43c1.63-1.59 3.65-3.57 7.54-3.57s5.91 2 7.54 3.57c1.45 1.41 2.49 2.43 4.75 2.43s3.3-1 4.74-2.43c1.63-1.59 3.66-3.57 7.54-3.57s5.91 2 7.54 3.57c1.45 1.41 2.49 2.43 4.74 2.43s3.3-1 4.75-2.43c1.63-1.59 3.65-3.57 7.54-3.57s5.91 2 7.54 3.57c1.44 1.41 2.49 2.43 4.75 2.43a2 2 0 010 4z"/><path class="cls-5" d="M90.42 37.32a2 2 0 01-1.85-1.25c-.14-.32-3.2-8 0-14.16s11.27-8 11.61-8.12a2 2 0 012.3 1.19c.13.33 3.19 8 0 14.17s-11.27 8-11.61 8.12a2.28 2.28 0 01-.45.05zm8.91-19.08c-2.12.78-5.61 2.48-7.2 5.52s-1 6.87-.41 9.06c2.13-.79 5.62-2.48 7.2-5.52 1.59-3.04.98-6.87.41-9.06z" id="Trazado_6132" data-name="Trazado 6132"/><path class="cls-5" d="M90.42 37.32a2 2 0 01-.93-.23 2 2 0 01-.84-2.7l5.1-9.79a2 2 0 013.55 1.85l-5.11 9.79a2 2 0 01-1.77 1.08z" id="Línea_1426" data-name="Línea 1426"/><path class="cls-5" d="M102.06 47.78a12.49 12.49 0 01-2.76-.31c-6.77-1.56-10.62-8.88-10.78-9.19a2 2 0 01.58-2.52c.28-.21 7-5.11 13.71-3.55s10.62 8.88 10.78 9.19a2 2 0 01-.58 2.52c-.24.18-5.24 3.86-10.95 3.86zm-1.86-4.21c3.31.77 6.88-.79 8.86-1.89-1.29-1.85-3.81-4.8-7.14-5.57S95 36.9 93.05 38c1.29 1.86 3.81 4.8 7.15 5.57z" id="Trazado_6132-2" data-name="Trazado 6132"/><path class="cls-5" d="M101.06 41.84a2.3 2.3 0 01-.45-.05l-10.76-2.48a2 2 0 01.89-3.9l10.76 2.48a2 2 0 01-.44 4z" id="Línea_1426-2" data-name="Línea 1426"/><path fill="none" d="M0 0h120v119.87H0z"/></g></g></svg>