<svg xmlns="http://www.w3.org/2000/svg" viewBox="0 0 120 120"><defs><style>.cls-3{fill:#ffea27}.cls-4{mix-blend-mode:multiply}.cls-5{fill:#f4d314}.cls-6{fill:#95a6b1}.cls-7{fill:#94a5b0}</style></defs><g style="isolation:isolate"><g id="Capa_1" data-name="Capa 1"><path fill="none" d="M0 0h120v120H0z"/><path class="cls-3" d="M54 115.86H35.74a2 2 0 110-4H54a2 2 0 010 4zm21.88 0h-9.1a2 2 0 010-4h9.1a2 2 0 010 4zm12.8 0a1.72 1.72 0 01-.39 0 1.66 1.66 0 01-.38-.11 2.21 2.21 0 01-.34-.18 2.51 2.51 0 01-.31-.26 2 2 0 01-.43-.64 2 2 0 01-.15-.77 2 2 0 01.58-1.41 2.06 2.06 0 012.83 0 2 2 0 01.59 1.41 2 2 0 01-.15.77 1.88 1.88 0 01-.44.64 2 2 0 01-1.41.55z"/><g class="cls-4"><path class="cls-5" d="M43.24 115.86H25a2 2 0 010-4h18.2a2 2 0 010 4z"/></g><path class="cls-3" d="M70.42 103.64H25a2 2 0 010-4h45.42a2 2 0 010 4z"/><g class="cls-4"><path class="cls-5" d="M25 103.64a2 2 0 01-2-2 2 2 0 012.39-2 2.65 2.65 0 01.37.12 2.31 2.31 0 01.35.18 2.48 2.48 0 01.3.25 2.34 2.34 0 01.25.3 2.31 2.31 0 01.18.35 2.65 2.65 0 01.12.37 2.6 2.6 0 010 .4 2 2 0 01-2 2z"/></g><g class="cls-4"><path class="cls-5" d="M88.68 103.64H62.92a2 2 0 010-4h25.76a2 2 0 010 4z"/></g><path class="cls-3" d="M29.55 41.16a9.5 9.5 0 118.64-13.45 9.52 9.52 0 01-8.64 13.45zm0-15a5.5 5.5 0 00-5 7.79 5.5 5.5 0 1010-4.57 5.49 5.49 0 00-3.08-2.87 5.61 5.61 0 00-1.92-.36z"/><path class="cls-6" d="M102 91.61H18a2 2 0 01-2-2V52.88a2 2 0 012-2h84a2 2 0 012 2v36.73a2 2 0 01-2 2zm-82-4h80V54.88H20z"/><path class="cls-6" d="M18 62.62a2 2 0 01-2-2v-7.74a2 2 0 014 0v7.74a2 2 0 01-2 2zm67.38 0a2 2 0 01-2-2v-7.74a2 2 0 114 0v7.74a2 2 0 01-2 2zm16.62.12a2 2 0 01-2-2v-7.86a2 2 0 114 0v7.86a2 2 0 01-2 2z"/><path class="cls-6" d="M108.28 62.78H11.72a2 2 0 110-4h96.56a2 2 0 010 4zM81.06 82.07h-63a2 2 0 010-4h63a2 2 0 010 4zm20.94 0h-9.9a2 2 0 010-4h9.9a2 2 0 010 4z"/><path class="cls-7" d="M29 19.41a2 2 0 01-2-2v-5.7a8 8 0 018-8h9.4a2 2 0 010 4H35a4 4 0 00-4 4v5.7a2 2 0 01-2 2z"/><path class="cls-7" d="M50.4 62.62a2 2 0 01-2-2V11.71a4 4 0 00-4-4 2 2 0 010-4 8 8 0 018 8v48.91a2 2 0 01-2 2z"/><path class="cls-7" d="M71.33 54.88a2 2 0 01-2-2v-9c0-3.3-2.43-6-5.42-6H50.38a2 2 0 010-4h13.53c5.19 0 9.42 4.49 9.42 10v9a2 2 0 01-2 2z"/><path class="cls-7" d="M59.4 62.78a2 2 0 01-2-2V27.52c0-3.31-2.43-6-5.41-6H51a2 2 0 010-4h1c5.19 0 9.41 4.49 9.41 10v33.26a2 2 0 01-2.01 2zm-30.4 0a2 2 0 01-2-2V45.14a2 2 0 014 0v15.64a2 2 0 01-2 2z"/></g></g></svg>