<svg xmlns="http://www.w3.org/2000/svg" viewBox="0 0 120 120"><defs><style>.cls-3{fill:#ffea27}.cls-4{mix-blend-mode:multiply}.cls-5{fill:#f4d314}</style></defs><g style="isolation:isolate"><g id="Capa_1" data-name="Capa 1"><path fill="none" d="M0 0h120v120H0z"/><path class="cls-3" d="M56.46 115.86H38.25a2 2 0 010-4h18.21a2 2 0 010 4zm21.93 0h-9.1a2 2 0 010-4h9.1a2 2 0 010 4zm12.8 0a2 2 0 01-1.85-1.23 2 2 0 01-.15-.77 2 2 0 01.58-1.41 2 2 0 011.81-.55 1.6 1.6 0 01.42.1 1.66 1.66 0 01.35.18 1.42 1.42 0 01.3.25 2 2 0 01.59 1.41 2 2 0 01-.15.77 2.31 2.31 0 01-.74.9 2.31 2.31 0 01-.35.18 1.58 1.58 0 01-.37.11 1.72 1.72 0 01-.44.06z"/><g class="cls-4"><path class="cls-5" d="M45.75 115.86H27.54a2 2 0 010-4h18.21a2 2 0 110 4z"/></g><path class="cls-3" d="M72.93 103.64H27.54a2 2 0 010-4h45.39a2 2 0 010 4z"/><g class="cls-4"><path class="cls-5" d="M27.54 103.64a2 2 0 01-1.41-.59 2 2 0 01-.44-.65 2 2 0 01-.15-.76 2 2 0 01.59-1.42 2.48 2.48 0 01.3-.25 2.31 2.31 0 01.35-.18 2.29 2.29 0 01.37-.12 2 2 0 01.78 0 2.4 2.4 0 01.38.12 1.83 1.83 0 01.34.18 2.6 2.6 0 01.31.25 3.61 3.61 0 01.25.3 2.31 2.31 0 01.18.35 2.65 2.65 0 01.12.37 2.69 2.69 0 010 .4 2 2 0 01-2 2z"/></g><g class="cls-4"><path class="cls-5" d="M91.19 103.64H65.43a2 2 0 010-4h25.76a2 2 0 010 4z"/></g><path class="cls-3" d="M82.82 36.28a9.5 9.5 0 01-4-18.14 9.5 9.5 0 0113 11.62 9.5 9.5 0 01-9 6.52zm0-15a5.33 5.33 0 00-2.28.5 5.49 5.49 0 107.28 2.71 5.46 5.46 0 00-5-3.21z"/><path d="M43.35 90.05h-.21a2 2 0 01-1.69-1.38l-1.92-6.08-8.66-4.33a2 2 0 01-.87-2.72l3.65-7-6.16-5.84a2 2 0 01-.63-1.45V50a2 2 0 011.55-2l12.31-2.9a2.09 2.09 0 011.11.06l10.44 3.59 9.81-9.31a2 2 0 011.46-.44l7.12.31 2.41-3.1a2 2 0 113.16 2.45l-3 3.92a2 2 0 01-1.67.77L64.22 43l-10.07 9.56a2 2 0 01-2 .44l-11-3.8-10.29 2.4v8.79l6.62 6.25a2 2 0 01.4 2.37l-3.41 6.57 7.6 3.8a2 2 0 011 1.19l.8 2.55 3.16-5.48a2 2 0 012.13-1l3.62.73a2 2 0 011.61 2v4.26l10.35.53 1.6-13.71a2 2 0 012-1.77h8.78L87.5 42.4a1.72 1.72 0 01.33-.55l5.39-6.41L95.37 14l-2.6 3.35a2 2 0 01-3.16-2.45l6.86-8.84A2 2 0 01100 7.48l-2.9 29a2 2 0 01-.46 1.09l-5.54 6.61L80.35 71.4a2 2 0 01-1.86 1.27h-8.36l-1.61 13.8a2 2 0 01-2.09 1.77l-14.12-.72a2 2 0 01-1.9-2V81l-.61-.12-4.72 8.17a2 2 0 01-1.73 1z" fill="#95a6b1"/></g></g></svg>