<svg xmlns="http://www.w3.org/2000/svg" viewBox="0 0 536 536"><defs><style>.cls-3{fill:#30d9cb}.cls-4{fill:#fff}.cls-7{fill:#28347d}</style></defs><g id="Rostro1"><circle cx="261.24" cy="212.53" r="57.39" fill="#93ebe4"/><path d="M211.27 242c.06-.16.12-.31.19-.46-.07.15-.14.3-.2.46" fill="none"/><path class="cls-3" d="M305.67 240.25l.17.17a57.39 57.39 0 01-94.37 1.08 25.13 25.13 0 014.79-7.69c.22-.24.46-.47.7-.69a29.61 29.61 0 015.79-3.83c1-.56 2.12-1.1 3.23-1.62l.84-.39 1.69-.76c4.52-2 9.05-3.57 11.57-4.37a45.15 45.15 0 00-5.8 7.85l-.34.63a25.39 25.39 0 00-1.11 2.29c-.15.35-.29.69-.43 1s-.21.58-.31.87a3.58 3.58 0 00-.11.35c-.09.3-.18.6-.26.9s-.17.71-.25 1.06a7.37 7.37 0 01.64-.76 9.91 9.91 0 011.64-1.42c.3-.21.62-.42.95-.61q.26-.15.51-.27c.35-.17.7-.32 1.06-.46a7.33 7.33 0 014.13-.37 5.6 5.6 0 012.13 1q.19.15.39.33c.07.07.14.13.21.21a7.25 7.25 0 01.92 1.15 11.09 11.09 0 011.12 2.39v.06c0 .06.06.2.1.3.11.38.23.75.36 1.13s.19.57.3.85.24.69.38 1 .33.84.51 1.26.39.93.61 1.39.43.92.66 1.38.47.93.72 1.39.5.91.77 1.37q1-1.41 2.13-2.73c.21-.26.42-.51.64-.76 2.38-2.78 5-5.37 7.62-8.09l.14-.15c.23-.24.47-.48.69-.74l.15-.16.06-.06.21-.18.1-.09a8.3 8.3 0 01.78-.61l.44-.3.45-.26a7.31 7.31 0 011.35-.61l.45-.15a7.06 7.06 0 011.8-.3 9.08 9.08 0 013.55.54 12.67 12.67 0 013.19 1.69q.36.25.69.54l.35.29c.22.19.43.39.63.58a11.71 11.71 0 012.63 3.75c.26-3.91.34-7.2.26-10v-1c0-.95-.09-1.83-.17-2.67 0-.27-.05-.54-.08-.81-.11-1.05-.25-2-.41-2.89-.09-.44-.18-.86-.27-1.25s-.15-.59-.23-.88-.15-.54-.23-.79l1.51.89.82.48 1.78 1 .94.54 2 1.15A151.6 151.6 0 01300 235.25c1.39 1.08 2.71 2.17 3.93 3.3.6.56 1.19 1.13 1.74 1.7z"/><path class="cls-3" d="M271.91 219.43c.22-1.82.36-3.79.48-5.72a17.07 17.07 0 014.12 6.79c1.24 3.86 1.85 9.83 1.15 20.24-1.79-4.52-10-11.1-16.67-4.83 4.28-4.55 8.34-9.57 10.92-16.48zm-28.46 6.96a39.62 39.62 0 001.72 12c-2.87-8.55-10.95-5-13.71-1.22 1.18-5.77 5.2-11.25 8.61-15a49.84 49.84 0 014.89-4.73c.04 2.91-.18 6.4-1.51 8.95z"/><path class="cls-4" d="M244.94 216.35a12.18 12.18 0 0011 5.34c4.16-.15 10-2.53 12.87-6.64 1.63-2.33 3.19-6.35 4.31-9.77a84.07 84.07 0 00-.71 8.43c-.12 1.93-.26 3.9-.48 5.72-2.58 6.91-6.64 11.93-10.91 16.48-.34.33-.68.68-1 1.08-3.65 3.82-7.37 7.39-10.38 11.58a45.81 45.81 0 01-4.41-10.11v-.06a39.62 39.62 0 01-1.72-12c1.33-2.55 1.54-6 1.51-9-.02-.34-.02-.7-.08-1.05z"/><path class="cls-3" d="M241.31 189s-.59 4.82-.69 7.19c-1.54-2.21-1.64-5.36-1.76-6.61a13.55 13.55 0 011.51-.42c.31-.05.63-.11.94-.16z"/><path class="cls-4" d="M251.42 190.86c-.23-.14-.49-.29-.77-.43s-.59-.27-.92-.41a16.78 16.78 0 00-2.23-.69c-.41-.1-.83-.18-1.27-.25a17.25 17.25 0 00-2.73-.22h-1.09c-.37 0-.68.06-1 .1h-.06s-.6 4.81-.7 7.19a3.55 3.55 0 00.23.31l.2.24.26.28c.11.11.23.21.35.31a4.21 4.21 0 00.55.39 3.62 3.62 0 00.43.24 3.43 3.43 0 00.44.19.64.64 0 00.18.06 4 4 0 00.49.15h.06a5.67 5.67 0 00.62.12 9.13 9.13 0 001.93.06 1.84 1.84 0 00.33 0h.28l.32-.07a.41.41 0 00.19-.05 2.12 2.12 0 00.36-.1 2.85 2.85 0 00.51-.2 3.21 3.21 0 00.45-.24l.21-.13a.52.52 0 00.17-.13 1.86 1.86 0 00.28-.21l.34-.31a5.3 5.3 0 00.6-.73c.09-.13.18-.27.26-.41s.16-.29.24-.44a7.52 7.52 0 00.58-1.51c0-.16.09-.33.14-.5a14.57 14.57 0 00.31-1.62c0-.18.05-.37.07-.56a5 5 0 00-.61-.43zm14.74.88a12.22 12.22 0 00-1.89-.61 14.66 14.66 0 00-6.21-.11c-.47.09-.92.19-1.37.31s-.87.26-1.28.41v1.28c0 .24 0 .45.07.69a14.17 14.17 0 00.29 1.53l.15.53c.07.2.13.39.21.58a3.38 3.38 0 00.18.44.89.89 0 00.08.17 5.68 5.68 0 00.28.55 6.29 6.29 0 001.59 1.87l.3.22c.21.14.44.27.68.4l.32.14.28.11.42.14a7.87 7.87 0 001.38.26 5.64 5.64 0 005-2.16 7 7 0 00.76-1.13 9.06 9.06 0 001.07-4.4 13.25 13.25 0 00-2.31-1.22z"/><path class="cls-3" d="M278 192a13.73 13.73 0 00-2.3 3.73l-1.62-.27a8.26 8.26 0 00-.28-3.2c1.44-.06 2.81-.12 4.2-.26z"/><path class="cls-4" d="M240.62 196.2a5.29 5.29 0 003.81 2.31c4 .53 6.09-1.27 7-4.52a13.89 13.89 0 00.44-2.12c1-.25 3.06-.07 3.47.47.11 3.21 1.25 7.85 6.26 8.33 3.71.36 6.8-3 6.8-7.69a41.71 41.71 0 015.36-.67 8.26 8.26 0 01.28 3.2l1.62.27A13.73 13.73 0 01278 192a2.81 2.81 0 011.65-.94 2.15 2.15 0 011.09.2c2.08 1 .29 5.25-.59 7.53-1.06 2.74-4.06 8.53-6.61 4.93-.15.49-.31 1-.49 1.53-1.12 3.42-2.68 7.44-4.31 9.77-2.87 4.11-8.71 6.49-12.87 6.64a12.18 12.18 0 01-11-5.34 15.75 15.75 0 01-1.2-2c-3.07-6.14-3.27-14.41-3.12-18.1z"/><path class="cls-4" d="M252 191.29c-1.58-1.35-6.1-2.93-10.69-2.28 0 0 .5-5.14.93-7.22s.72-5.87 2.18-6.63 6.56-.53 9.83.2 13.47 2.7 16 3.86 2.41 3.13 1.68 5.08-1.48 3.07-.09 4.56a8.39 8.39 0 012 3.43 41.71 41.71 0 00-5.36.67 14.56 14.56 0 00-13.08-1.22v.58c-.41-.54-2.48-.72-3.47-.47.07-.18.07-.37.07-.56z"/><path d="M242.24 181.79c-.43 2.08-.93 7.22-.93 7.22-.31 0-.63.1-.94.16a67.54 67.54 0 00-.28-8.17 2.59 2.59 0 01.5-2.21 1.1 1.1 0 010-1.85s-1.09-1.55.59-2a1.4 1.4 0 011-2.51c-.57-.6-1.82-3 1.42-4.09a1.77 1.77 0 011.87-2.68 1.47 1.47 0 012.42-1.48c0-1.42 2.44-2.18 3.1-.66.59-1.71 2.31-2 3-.63.75-1.61 2.77-1.72 3.36-.56.86-1.29 2.44-1.78 3.17-.39 1.07-1 2.35-1.26 2.87-.1a1.77 1.77 0 013.24 1c1.19-.76 3.37-.29 3.26 1.22 1.43-.16 3.14-.13 2.94 1.92 1.39-.2 2.84.13 2.61 1.75 1.62 0 3.1.51 2.64 2.13 1.75.83 1.42 2.16.59 3 2.25.76 1.86 1.72 1.26 2.64a2 2 0 01.46 3.44c1.4.95 1.78 2.57.67 3.46 1.78 1.22-1.33 6.86-1.33 8.56a2.81 2.81 0 00-1.65.94c-1.43.11-2.8.17-4.2.26a8.39 8.39 0 00-2-3.43c-1.39-1.49-.63-2.61.09-4.56s.86-3.93-1.68-5.08-12.74-3.14-16-3.86-8.38-1-9.83-.2-1.8 4.68-2.22 6.76z" fill="#1eadfe"/><path d="M247.35 192.32c0 .38-.15.68-.33.68s-.34-.3-.34-.68.15-.68.34-.68.33.36.33.68zM261.9 194c0 .37-.15.68-.34.68s-.33-.31-.33-.68.15-.68.33-.68.34.27.34.68z" stroke="#28347d" stroke-linecap="round" stroke-linejoin="round" stroke-width="2.1" fill="none"/><path class="cls-7" d="M247.88 206.09a17.24 17.24 0 002.84.86 23.71 23.71 0 002.94.48 26.9 26.9 0 006.07-.14.35.35 0 01.39.31.36.36 0 01-.2.36 13.59 13.59 0 01-6.4 1.12 11.7 11.7 0 01-3.25-.63 6.72 6.72 0 01-2.85-1.77.37.37 0 010-.53.37.37 0 01.39-.07zm2.69 4.96c.33.11.62.22.93.3s.6.14.91.19a7.38 7.38 0 001.88.05h.06a.49.49 0 01.32.88 3.54 3.54 0 01-2.47.53 3.77 3.77 0 01-1.22-.38 3 3 0 01-1-.8.5.5 0 01.09-.7.48.48 0 01.46-.08z"/><path class="cls-7" d="M274.93 199.54a49.14 49.14 0 01-2 8 35.87 35.87 0 01-3.37 7.67 15.47 15.47 0 01-6.56 5.49 18 18 0 01-8.35 1.84 12.5 12.5 0 01-8-3.18 17.48 17.48 0 01-4.43-7.21 36.46 36.46 0 01-1.78-8.14 51.13 51.13 0 01-.3-8.3c.17-2.76.52-5.5.78-8.21.14-1.37.29-2.74.48-4.11.09-.67.21-1.39.34-2l.34-2a17.44 17.44 0 01.45-2.07 6 6 0 011-2.06 2.36 2.36 0 011.12-.71 6.44 6.44 0 011.1-.21 16.89 16.89 0 012.12-.1 32.1 32.1 0 014.16.33c1.39.18 2.74.53 4.07.79 2.68.57 5.38 1.1 8.08 1.61 1.35.26 2.7.53 4.06.86a16.93 16.93 0 012 .61 5.46 5.46 0 012 1.29 3.67 3.67 0 01.92 2.41 6.62 6.62 0 01-.49 2.28c-.52 1.33-1.33 2.55-.9 3.42a2.6 2.6 0 00.47.68c.24.28.47.55.68.85a8.78 8.78 0 011.08 1.91 9.18 9.18 0 01.6 4.3l-.44-.57 1.56.37-.44.23a15.82 15.82 0 011.48-3 6.81 6.81 0 011.14-1.35 3 3 0 011.81-.79 2.47 2.47 0 011.95.78 2.9 2.9 0 01.63 1.91 10.31 10.31 0 01-.73 3.35 42.8 42.8 0 01-2.63 6 6.65 6.65 0 01-2.34 2.64 2.2 2.2 0 01-2.09.15 2.31 2.31 0 01-.8-.63 4.84 4.84 0 01-.45-.79.3.3 0 01.43-.39h.07c.23.13.41.3.61.41s.38.23.56.22a1.26 1.26 0 001-.21 7.63 7.63 0 002-2.08 20.5 20.5 0 002.6-5.75 9.76 9.76 0 00.53-3 1.68 1.68 0 00-.32-1.1 1.37 1.37 0 00-.95-.38c-.72 0-1.49.75-2.09 1.54a21.06 21.06 0 00-1.64 2.68.45.45 0 01-.44.23L274 196a.5.5 0 01-.45-.52v-.09a7.41 7.41 0 00-.58-3.76 8 8 0 00-1-1.64 7.33 7.33 0 00-.63-.73 4.06 4.06 0 01-.7-1 2.72 2.72 0 01-.27-1.29 4.76 4.76 0 01.21-1.18l.66-2c.38-1.23.43-2.38-.24-3.09a7.27 7.27 0 00-3.25-1.58c-1.29-.42-2.6-.79-3.92-1.14-2.64-.73-5.32-1.32-8-1.87a32.4 32.4 0 00-8.05-1 14.32 14.32 0 00-2 .13 6.09 6.09 0 00-.91.19 1.25 1.25 0 00-.59.39 4.9 4.9 0 00-.72 1.65c-.17.63-.31 1.29-.43 2l-.35 2c-.14.69-.25 1.32-.35 2-.2 1.35-.36 2.71-.52 4.06-.29 2.74-.68 5.45-.86 8.16a41.83 41.83 0 002.11 16 15.3 15.3 0 004.36 6.48 11.7 11.7 0 007.1 2.56 16.34 16.34 0 007.57-1.62 15.06 15.06 0 006.05-4.77 37.9 37.9 0 003.51-7.24c1-2.54 1.9-5.12 2.7-7.72a.2.2 0 01.39.09z"/><path class="cls-7" d="M256.1 192.23l.1.06v.86a11.16 11.16 0 00.11 1.41 9 9 0 00.81 2.65 5.45 5.45 0 004.35 3 5.09 5.09 0 002.7-.35 5.38 5.38 0 002.1-1.72 7 7 0 001.17-2.47 8.11 8.11 0 00.19-2.73l.38.71a12.64 12.64 0 00-6-2 14.41 14.41 0 00-3.21.12 14.22 14.22 0 00-1.58.31c-.27.06-.52.15-.78.22h-.19zm-1.39-1a4.69 4.69 0 01.63-.35 3.49 3.49 0 01.34-.15l.28-.09c.29-.08.57-.17.86-.24a17.63 17.63 0 011.76-.34 15.86 15.86 0 013.58-.13 14.26 14.26 0 016.79 2.3l.08.05a.7.7 0 01.3.66 11.56 11.56 0 01-.71 3.1 8.21 8.21 0 01-1.6 2.72 6.84 6.84 0 01-2.54 1.84 5.92 5.92 0 01-3.11.37 6.7 6.7 0 01-2.94-1 7 7 0 01-2.17-2.26 10.35 10.35 0 01-1.18-2.89 13.28 13.28 0 01-.33-1.52c-.05-.26-.07-.51-.11-.77a3.1 3.1 0 010-.59 3.85 3.85 0 01.07-.69zm-15.13-1.18c.08 0 .13-.08.12-.11a2.55 2.55 0 000 .31v.75c0 .47 0 1 .09 1.42a9.31 9.31 0 00.7 2.72 5.33 5.33 0 001.66 2.17 5.51 5.51 0 002.59.93 6.92 6.92 0 002.8-.2 4.4 4.4 0 002.2-1.53 8.74 8.74 0 001.43-5.29l.29.74a9 9 0 00-2.75-1.39 17.11 17.11 0 00-3.17-.71 15.36 15.36 0 00-3.25-.08 14.14 14.14 0 00-1.59.22l-.4.09-.29.06a1.11 1.11 0 01-.43-.1zm-1.43-.93a5.78 5.78 0 011.23-.57l.31-.09.22-.05.44-.09a13.91 13.91 0 011.8-.25 17.23 17.23 0 013.59.08 18.28 18.28 0 013.5.79 10.62 10.62 0 013.32 1.71h.05a.7.7 0 01.24.7 12.37 12.37 0 01-2.46 5.67 5.5 5.5 0 01-2.67 1.63 8.07 8.07 0 01-3.05.16 6.35 6.35 0 01-2.92-1 6.53 6.53 0 01-2-2.34 12.11 12.11 0 01-1.09-2.88c-.13-.5-.24-1-.34-1.49l-.13-.75a2.4 2.4 0 01-.07-.42 2.63 2.63 0 01.03-.81z"/><path class="cls-7" d="M268.35 192.32a27.4 27.4 0 014.85-.62c1.62-.07 3.22-.11 4.81-.13a.46.46 0 01.07.92c-1.6.22-3.21.3-4.79.48s-3.14.36-4.69.63a.65.65 0 01-.25-1.28zm-15.99.25a35.44 35.44 0 01-.8 3.9l-.93 3.8c-.08.31-.15.62-.2.92 0 .15-.05.3-.06.42v.12c0 .05 0-.16-.07-.18s0 0 .12.07l.36.15c.27.09.56.18.86.26 1.21.3 2.49.55 3.76.76a.39.39 0 01.32.44.38.38 0 01-.33.31 13.17 13.17 0 01-4.06-.09 6.55 6.55 0 01-1-.25 4 4 0 01-.56-.22 1.78 1.78 0 01-.67-.5 1.19 1.19 0 01-.23-.64 2 2 0 010-.36 4.1 4.1 0 01.09-.56c.06-.35.14-.68.23-1 .69-2.58 1.64-5 2.48-7.49a.37.37 0 01.46-.23.38.38 0 01.23.37z"/><path class="cls-7" d="M251.81 191.35a4 4 0 012-.3 5.17 5.17 0 011 .19 2 2 0 011.08.73.59.59 0 01-.12.82.58.58 0 01-.81-.12c0 .07-.27 0-.51-.07s-.51-.08-.78-.1c-.53-.07-1.1-.09-1.6-.15H252a.54.54 0 01-.47-.58.53.53 0 01.28-.42zm-12.94-1.06l-1.2-.16a.55.55 0 01-.46-.62.54.54 0 01.46-.47l1.2-.17a.72.72 0 01.19 1.42.61.61 0 01-.19 0zm40.45.79a7.9 7.9 0 01.46-2.33l.67-2.14a15.12 15.12 0 00.53-2.08 1.92 1.92 0 00-.22-1.63.47.47 0 01-.05-.67h.05a1.6 1.6 0 00.19-1.31 7.88 7.88 0 00-.73-1.53.58.58 0 010-.43v-.09a4.34 4.34 0 00.2-.84 3.83 3.83 0 00.06-.65 2.31 2.31 0 00-.68-1.35.68.68 0 01-.14-.44v-.89c0-.19-.06-.17-.07-.26a1.92 1.92 0 00-.37-.43c-.19-.18-.42-.36-.64-.6a.57.57 0 01-.12-.53 3 3 0 00.17-1.34 2.65 2.65 0 00-.69-1.07l-.11-.14a.62.62 0 01-.12-.36 1.35 1.35 0 00-.16-.69.94.94 0 00-.41-.33c-.41-.2-1-.3-1.63-.56h-.07a.64.64 0 01-.35-.45 1.45 1.45 0 00-.24-.62.87.87 0 00-.37-.27 13.75 13.75 0 00-1.48-.37h-.07a.59.59 0 01-.41-.43 2.28 2.28 0 00-.27-.77.84.84 0 00-.42-.32 15.22 15.22 0 00-1.73-.35h-.06a.64.64 0 01-.46-.44 1 1 0 00-.36-.53 2.16 2.16 0 00-.61-.28 3.77 3.77 0 00-1.61 0 .6.6 0 01-.62-.35 1.71 1.71 0 00-1-1 1.68 1.68 0 00-1.47.19.63.63 0 01-.91-.4 1 1 0 00-.51-.24 1.49 1.49 0 00-.39.05c-.32.08-.73.27-1.26.43h-.06a.85.85 0 01-.68-.11 1.65 1.65 0 00-.6-.25 1.41 1.41 0 00-.44 0 5.34 5.34 0 00-1.39.57h-.06a.62.62 0 01-.55 0h-.05a1.57 1.57 0 00-.69-.17 3.24 3.24 0 00-.62 0 2.93 2.93 0 00-1.35.67h-.06a.6.6 0 01-.62 0 1.54 1.54 0 00-1.11-.29 2.36 2.36 0 00-1.19.8v.06a.38.38 0 01-.53.1l-.08-.07a1.18 1.18 0 00-.64-.28 1.73 1.73 0 00-.63.06 1.94 1.94 0 00-.61.26 1.52 1.52 0 00-.48.44.6.6 0 01-.59.29 1.93 1.93 0 00-1.21 0 1.16 1.16 0 00-.53.93v.06a.5.5 0 01-.4.57h-.13a1.73 1.73 0 00-1.19.6 1.5 1.5 0 00-.29 1.31v.08a.39.39 0 01-.09.54l-.11.07a4 4 0 00-1.53 1.43 2.61 2.61 0 00.16 2v.08a.28.28 0 010 .41l-.08.05h-.1a1.16 1.16 0 00-.83.74 1.79 1.79 0 00.09 1.12v.09a.32.32 0 010 .45l-.15.12a3.07 3.07 0 00-.35.3.4.4 0 00-.13.22 1.74 1.74 0 000 .84v.09l-.11.46a1.79 1.79 0 000 .59 4.13 4.13 0 00.08.58v.09l.06.09a.42.42 0 010 .5 2 2 0 00-.36 1 4.67 4.67 0 00.08 1.21c.11.89.17 1.76.2 2.64s0 1.76 0 2.65a20.15 20.15 0 01-.11 2.67.34.34 0 01-.37.3.34.34 0 01-.3-.35c0-.83 0-1.72-.05-2.59s-.09-1.74-.15-2.61l-.15-2.6a3.43 3.43 0 01.64-2.83v.59s-.11 0-.16-.06a1.29 1.29 0 01-.72-1.26 1.27 1.27 0 01.27-.74.94.94 0 01.69-.37l-.11.45c0-.05-.07-.07-.1-.1a1.53 1.53 0 01-.46-1.48 1.2 1.2 0 01.57-.74 1.33 1.33 0 01.75-.19l-.16.61a.3.3 0 00-.11-.07 1.71 1.71 0 01-.61-2.08 1.61 1.61 0 01.85-.87 1.53 1.53 0 011.09 0l-.23.51a.73.73 0 00-.09-.08 2.68 2.68 0 01-.87-1.24 2.4 2.4 0 010-1.65 2.58 2.58 0 011.07-1.24 3.51 3.51 0 011.38-.48l-.2.62a.39.39 0 00-.08-.1 2 2 0 01-.44-1.24 2.29 2.29 0 01.41-1.28 2.12 2.12 0 011.11-.81 1.92 1.92 0 011.3.06l-.54.59a.3.3 0 000-.11 1.92 1.92 0 01.83-2.27 1.75 1.75 0 012.3.44l-.62.33a.43.43 0 000-.11 1.62 1.62 0 01.43-1.36 2.29 2.29 0 011.21-.67 2.09 2.09 0 011.4.2 1.5 1.5 0 01.79 1.14h-.63a.28.28 0 000-.09 2 2 0 01.39-1.14 2.09 2.09 0 011.1-.81 1.72 1.72 0 011.48.19 1.49 1.49 0 01.68 1.17h-.67v-.08a2.22 2.22 0 011.77-1.79 2 2 0 011.41.17 1.46 1.46 0 01.82 1.14h-.6v-.08a2.14 2.14 0 01.56-1 2.3 2.3 0 011.11-.66 1.88 1.88 0 011.45.22 1.61 1.61 0 01.72 1.14l-.69-.11v-.06a2.2 2.2 0 011.66-1.2 1.76 1.76 0 011.26.29 1.48 1.48 0 01.59 1l-.66-.07v-.06a2 2 0 011-1 2.2 2.2 0 011.56-.08 2.16 2.16 0 011.22 1A1.76 1.76 0 01267 163l-.63-.39a2.53 2.53 0 012.43-.53 2.23 2.23 0 011.16.76 1.57 1.57 0 01.29 1.4l-.47-.45a3 3 0 011.12-.28 2.66 2.66 0 011.29.23 1.86 1.86 0 011 1.14 2.21 2.21 0 010 1.31l-.48-.46a2.46 2.46 0 011-.26 2.38 2.38 0 011.16.26 1.77 1.77 0 01.91 1 1.88 1.88 0 01-.06 1.23l-.42-.49a2.8 2.8 0 012.31.23 1.89 1.89 0 01.9 1.15 1.94 1.94 0 01-.18 1.31l-.23-.5a2.08 2.08 0 011.07.44 1.92 1.92 0 01-.43 3.22l-.15-.55a2.32 2.32 0 011 .11 1.91 1.91 0 011 .74A1.52 1.52 0 01281 175a1.68 1.68 0 01-.79.81l-.14-.51a2.08 2.08 0 011.17.53 2.1 2.1 0 01.69 1.27 2.07 2.07 0 01-.27 1.41 1.69 1.69 0 01-1.12.79v-.52a2.42 2.42 0 011.73 1.68 2.27 2.27 0 010 1.41 1.87 1.87 0 01-.93 1v-.74a1.87 1.87 0 01.76 1.26 4.17 4.17 0 010 1.27 12.66 12.66 0 01-.55 2.28c-.23.72-.51 1.42-.76 2.12a11.94 11.94 0 00-.65 2v.07a.38.38 0 01-.43.31.39.39 0 01-.39-.36zm-5.84 14.27l-.17 3.51c0 1.17-.12 2.35-.19 3.54a66.15 66.15 0 01-.73 7.11.48.48 0 01-.95-.11l.38-7.07c.06-1.18.12-2.37.25-3.56a20.9 20.9 0 01.66-3.55.37.37 0 01.47-.26.4.4 0 01.28.38zm-28.03 10.98a22.42 22.42 0 01.22 2.6 21 21 0 01-.12 2.62 15 15 0 01-.51 2.62 9.58 9.58 0 01-1.08 2.48.58.58 0 01-1-.52 15.35 15.35 0 00.69-2.31 24.61 24.61 0 00.4-2.43c.08-.82.17-1.65.21-2.49s.11-1.68.2-2.53a.51.51 0 01.55-.46.53.53 0 01.44.42z"/><path class="cls-7" d="M245.4 218a70.149 70.149 0 00-4.23 4.22 57.93 57.93 0 00-3.85 4.58 37.15 37.15 0 00-3.27 5 28.34 28.34 0 00-2.34 5.49l-.46-.2a10 10 0 013.26-3.18 9.07 9.07 0 014.46-1.38 6.11 6.11 0 014.45 1.76 9.21 9.21 0 012.22 4.08.47.47 0 01-.32.59.48.48 0 01-.57-.26 10.58 10.58 0 00-2.22-3.43 5.09 5.09 0 00-3.54-1.35 9.17 9.17 0 00-3.91 1 11.8 11.8 0 00-3.4 2.48v.06a.25.25 0 01-.41-.26 21.61 21.61 0 011.77-5.92 33.9 33.9 0 013.09-5.36 48.49 48.49 0 013.91-4.78 38.49 38.49 0 014.55-4.18.69.69 0 01.88 1.06zm27.42-4.68a15.51 15.51 0 014.19 6 26.64 26.64 0 011.44 7.15 73.94 73.94 0 01-.47 14.28.3.3 0 01-.32.29.31.31 0 01-.25-.16 13.7 13.7 0 00-3.39-4 12.86 12.86 0 00-4.5-2.45 8.07 8.07 0 00-4.91 0 11.43 11.43 0 00-4.24 2.82.49.49 0 01-.68 0 .47.47 0 010-.63 10.64 10.64 0 014.51-3.49 8.91 8.91 0 015.79-.13 12.78 12.78 0 014.91 2.9 11.68 11.68 0 013.13 4.67l-.59.1v-7.08q-.08-3.52-.44-7a28.17 28.17 0 00-1.52-6.69 16.86 16.86 0 00-1.45-3 33.76 33.76 0 00-2-2.81.59.59 0 01.86-.79z"/><path class="cls-7" d="M272.69 218.72a37.63 37.63 0 01-4 8.72 54.56 54.56 0 01-5.81 7.62c-2.11 2.39-4.37 4.6-6.58 6.84s-4.35 4.5-6.43 6.86a.35.35 0 01-.49 0l-.05-.06a35.43 35.43 0 01-3.24-5.77 36.42 36.42 0 01-2.2-6.27 34.14 34.14 0 01-1-6.59 26.39 26.39 0 01.42-6.64.4.4 0 01.8.09 44.37 44.37 0 00.27 6.42 50.26 50.26 0 001.13 6.31 57.39 57.39 0 001.88 6.15c.75 2 1.62 4 2.55 6h-.55a43.76 43.76 0 015.87-7.53l6.48-6.87a59.66 59.66 0 005.79-7.32 46.62 46.62 0 004.31-8.26.48.48 0 01.63-.27.48.48 0 01.22.57zm4.07 1.37c2.43 1.25 4.87 2.5 7.28 3.82s4.8 2.67 7.15 4.11 4.65 3 6.86 4.63a67.52 67.52 0 016.28 5.43l-.42-.16h.09a.51.51 0 01.35.17c.61.67 1.23 1.33 1.8 2l.05.06a.36.36 0 01.09.26.44.44 0 01-.48.41.45.45 0 01-.41-.41l.13.32c-.7-.57-1.36-1.15-2-1.73l.44.17a.51.51 0 01-.33-.09l-.1-.07c-1.11-.8-2.16-1.65-3.23-2.47-.53-.43-1.07-.83-1.63-1.21l-1.68-1.16c-2.23-1.54-4.5-3-6.8-4.49l-6.95-4.34c-2.33-1.43-4.65-2.88-6.93-4.43a.48.48 0 01.49-.82zm-36.56 2.45q-4.2 1.71-8.36 3.46c-1.39.58-2.76 1.18-4.11 1.82s-2.74 1.25-4 1.94a40.77 40.77 0 00-3.86 2.23 17.54 17.54 0 00-3.37 2.72 28.52 28.52 0 00-4.72 7.43.49.49 0 01-.9-.38 21.36 21.36 0 0112.08-13.52c1.36-.73 2.74-1.39 4.12-2s2.82-1.19 4.24-1.74a71.37 71.37 0 018.7-2.74.4.4 0 01.25.76z"/><circle cx="258.27" cy="208.31" r="57.39" stroke-miterlimit="10" stroke-width="1.7" stroke="#28347d" fill="none"/></g></svg>