<svg xmlns="http://www.w3.org/2000/svg" viewBox="0 0 536 536"><defs><style>.cls-1{fill:#fbd80c}.cls-2{fill:#98cdd0}.cls-3{fill:#28b8ce}.cls-4{fill:#fff}.cls-5{fill:#c9e5e7}.cls-6{fill:#1eadfe}.cls-7{fill:#28347d}</style></defs><g id="Chica"><path class="cls-1" d="M427.78 430.2c3 24.05 4.67 47.43 6.34 74.7 0 0-27.52 2.52-50.28 3a389 389 0 01-44.93-2.05c-.57-15.24.24-48.28 1.73-73.23.36-6 .76-11.51 1.18-16.2l43-4.58c3.45 1.16 6.47 2.25 9.58 3.27 2.18 12.27 5 22.22 6.48 22 1.23-.25 17.79-3.8 23.89-5.11a3.11 3.11 0 002.19-1.79 7.55 7.55 0 00.79 0zm-73.72-4.37a4.37 4.37 0 10-4.37 4.37 4.36 4.36 0 004.37-4.37z"/><path class="cls-1" d="M349.69 421.47a4.37 4.37 0 11-4.36 4.36 4.36 4.36 0 014.36-4.36z"/><path class="cls-2" d="M320.28 425.16c4 3.69 12.19 7.51 20.36 7.42-1.49 24.95-2.3 58-1.73 73.23 0 0-18.89 0-30-3.22 2.09-17.73 8.22-54.35 11.37-77.43z"/><path class="cls-3" d="M321.14 418.57l20.68-2.19c-.42 4.69-.82 10.22-1.18 16.2-8.17.09-16.32-3.73-20.36-7.42.32-2.35.61-4.56.86-6.59z"/><path class="cls-1" d="M303 420.5l18.12-1.93c-.25 2-.54 4.24-.86 6.59-3.15 23.08-9.26 59.7-11.37 77.43 0 0-4.55-.39-9-1.15s-8.28-1.8-8.28-1.8c1.48-16.24 7.76-56.49 10.81-75.46.21-1.33.41-2.57.59-3.68z"/><path class="cls-4" d="M230.94 403.16c1.18 4.61 1.52 10.19 3.06 12l-2 .68c-2.44-2.54-4.89-5.12-5.53-6-1-1.33-1.42-5.4-1.76-7.76s-2.5-16.02-2.71-19.08a2.4 2.4 0 01.15-1.07c.92-2.18 5.39-1.26 6.79 6.11a1.33 1.33 0 00-.77 1.32 116.34 116.34 0 002.77 13.8z"/><path class="cls-4" d="M246.64 411.51l37.18 10.25a3.51 3.51 0 003.35-.82l1.32.45a7 7 0 003 .34L303 420.5c-.18 1.11-.38 2.35-.59 3.68 0 0-11.2.68-17.18.51s-13.62-1-13.62-1c-1.2.73-5.53.9-9.77 1s-11.32.21-13.54 1.15a8.61 8.61 0 01-6.94-.08c-1.85-1-3.48-.13-5.53.21s-3.81-1.41-4.55-2.78c-2.54-4.79-7.23-12.81-8.26-14.61a10.67 10.67 0 01-1.32-3.8c-.1-.68-.19-1.44-.27-2.33-.26-2.83-2.27-18.81-2.4-20.61s2.8-1 3.11 0A2.4 2.4 0 00222 383c.2 3.1 2.4 16.8 2.74 19.15s.8 6.43 1.76 7.76c.64.9 3.09 3.48 5.53 6l2-.68c-1.54-1.86-1.88-7.44-3.06-12a116.34 116.34 0 01-2.76-13.83 1.33 1.33 0 01.79-1.4 2.88 2.88 0 013.21.94 18.54 18.54 0 013.44 6.7 96.08 96.08 0 012.29 9.36 7.85 7.85 0 012.8.67c1.61.77 3.94 3.72 5.9 5.84z"/><path class="cls-2" d="M282.74 392.19l1.17 5.49 3.35 15.6.93 4.36a3.5 3.5 0 01-4.37 4.12l-37.18-10.25c-2-2.12-4.29-5.07-5.95-5.84a7.85 7.85 0 00-2.8-.67 96.08 96.08 0 00-2.29-9.36 18.54 18.54 0 00-3.44-6.7A2.88 2.88 0 00229 388c-1.4-7.37-5.87-8.29-6.79-6.11-.31-1-3.23-1.8-3.11 0s2.14 17.78 2.4 20.61c.08.89.17 1.65.27 2.33l-28.41-7.07a7.85 7.85 0 01-5.76-5.86l-24.09-105a3.52 3.52 0 013.64-4.3l87.39 5.34a7.84 7.84 0 017.2 6.19l17.54 81.75.71 3.33 1.2 5.61 1.13 5.27z"/><path class="cls-2" d="M333.91 408.31l-46.65 4.97-3.35-15.6 50 10.63z"/><path class="cls-5" d="M389.62 407.59L291.37 418a7 7 0 01-2.8-.28l-.38-.12-.93-4.36 46.65-5-50-10.62-1.17-5.49a9.47 9.47 0 005.79-1c1-.58 2.59-1.71 4.07-2.63l6 1.18 8.82 1.72 11.65 2.28 4.69.92 19.74 3.87 4 .78 32.93 6.45z"/><path class="cls-2" d="M384.8 411.8l-43 4.58-20.68 2.19L303 420.5l-11.55 1.23a7 7 0 01-3-.34l-1.32-.45a3.53 3.53 0 001-3.3l.38.12a7 7 0 002.8.28l98.25-10.45v3.7z"/><path class="cls-1" d="M400.61 417a104.28 104.28 0 011.18 15.55c-.07 3-.39 4.35-.89 4.51-1.46.25-4.3-9.7-6.48-22 2 .66 4 1.29 6.22 1.9z"/><path class="cls-1" d="M427.73 412.29a165.55 165.55 0 01-.48 16.83 2.85 2.85 0 01-.27 1 3.11 3.11 0 01-2.19 1.79c-6.1 1.31-22.66 4.86-23.89 5.11.5-.16.82-1.55.89-4.51a104.28 104.28 0 00-1.18-15.51 182.47 182.47 0 00-6.33-29c-.28-.87-.57-1.7-.86-2.48 3.18 0 20.27 1 26.88 1.66a8.25 8.25 0 001.86 0c2.43 4.54 5.3 16.82 5.57 25.11z"/><path class="cls-4" d="M310.07 368.64c2.17.39 4.93.93 7.85 1.51l6.1 1.21c2.34.45 4.58.88 6.48 1.2 4.68.81 9.81 1.63 14.83 2.72 2.08.44 4.15.94 6.15 1.5 1.26.34 2.5.71 3.7 1.12 7.71 2.56 30.81 8.45 39.1 10.12a182.47 182.47 0 016.33 29c-2.19-.61-4.23-1.24-6.22-1.9-3.11-1-6.13-2.11-9.58-3.27l4.82-.51v-3.7l-9.2-1.81c-10-2.63-23.05-7.9-31.72-11.4l-4.35-1.74c-1.63-.64-2.93-1.14-3.79-1.42-4 2.35-9.75 1.48-15.3.58a14.58 14.58 0 01-1.49-.33 44.76 44.76 0 01-5-1.74c-4.67-1.91-9.37-4.39-9.37-4.39a10.77 10.77 0 01-1.23.07c-2 0-4.94-.29-6.52-.23a9.29 9.29 0 00-2.37.48 39.32 39.32 0 00-4.83 1.9 15.47 15.47 0 00-1.84 1c-1.48.92-3.05 2.05-4.07 2.63a9.47 9.47 0 01-5.79 1l-.47-2.15-1.13-5.27-1.2-5.61-.71-3.33c2.25-.78 17.39-5.85 19-6.37.92-.3 1.85-.64 2.91-.91a16.31 16.31 0 015.06-.48 36.48 36.48 0 013.85.52z"/><path class="cls-1" d="M380.39 405.78l-32.93-6.45c.43-2 .66-3.11 1.21-4.95 8.67 3.5 21.72 8.77 31.72 11.4z"/><path class="cls-1" d="M348.67 394.38c-.55 1.84-.78 2.95-1.21 4.95l-4-.78s.62-4.21.83-5.91z"/><path class="cls-3" d="M344.32 392.63c-.21 1.7-.83 5.91-.83 5.91l-19.74-3.87v-3.22a14.58 14.58 0 001.49.33c5.55.9 11.28 1.77 15.3-.58.85.29 2.15.8 3.78 1.43z"/><path class="cls-1" d="M323.74 391.46v3.22l-4.69-.92s-.21-2.87-.3-4a44.76 44.76 0 004.99 1.7z"/><path class="cls-1" d="M309.39 385.33s4.7 2.48 9.37 4.39c.09 1.17.3 4 .3 4l-11.65-2.28c.45-2.1.75-6.07.75-6.07a10.77 10.77 0 001.23-.04z"/><path class="cls-1" d="M301.64 385.17c1.58-.06 4.48.26 6.52.23s-.3 4-.75 6.07l-8.82-1.72s.41-2.33.68-4.1a9.29 9.29 0 012.37-.48zM316.09 305c-.92 5.44-1.46 10.28-1.66 12.77-1 12.77-2.4 26.92-4.36 50.9a36.48 36.48 0 00-3.87-.57 16.31 16.31 0 00-5.06.48c3.37-15.52 11.22-47.58 14.95-63.58zm116.05-53.54c2.79.92 6 1.84 9.68 2.79l3.23.83c6.12 1.57 11.32 2.94 15.42 4.92 4.26 2.07 7.35 4.81 9.11 9.16 3.73 9.26 6.31 36.38 6.82 49.49.38 9.89-1.42 52.45-3 65.68s-1.67 21.34-2.7 24.69-8.87 15-11.7 17.61-12.6 3.47-17.09 3.47c-4 0-11.48.15-14.17.08a7.55 7.55 0 01-.79 0 2.85 2.85 0 00.27-1 165.55 165.55 0 00.48-16.83c-.27-8.29-3.14-20.57-5.57-25.11a8.25 8.25 0 01-1.86 0c-6.61-.67-23.7-1.66-26.88-1.66.29.78.58 1.61.86 2.48-8.29-1.67-31.39-7.56-39.1-10.12-1.2-.41-2.44-.78-3.7-1.12C355 348.41 370 334.41 382.3 317c11.88-16.77 34.88-45 34.88-45l-8.53-6 9.79-.88c2.05-3.2 8.28-15.57 8.28-15.57 1.61.61 3.41 1.26 5.42 1.91z"/><path class="cls-1" d="M416 243.06a32.62 32.62 0 0010.74 6.44s-6.23 12.37-8.28 15.57l-9.79.88 8.53 6s-23 28.22-34.88 45C370 334.41 355 348.41 351.48 376.79c-2-.56-4.07-1.06-6.15-1.5 2.39-42 19.87-56.9 32.73-80.42 4-7.39 8.29-14.74 12.42-21.65 9-15.07 17.43-28 21.7-34.53a31.87 31.87 0 003.82 4.37z"/><path class="cls-3" d="M390.48 273.22c-4.13 6.91-8.39 14.26-12.42 21.65-12.86 23.52-30.34 38.42-32.73 80.42-5-1.09-10.15-1.91-14.83-2.72-1.9-.32-4.14-.75-6.48-1.2-1.1-20.11-1.88-34.93 8.79-56.95a301 301 0 0123-39.05c6.32 2.78 24.61 1.63 34.67-2.15z"/><path class="cls-1" d="M352.48 271.47l-10.11 3a192.21 192.21 0 00-18.09 30.85c-8.14 17.57-8 39.05-6.36 64.83-2.92-.58-5.68-1.12-7.85-1.51 2-24 3.35-38.13 4.36-50.9.2-2.49.74-7.33 1.66-12.77 1.58-9.33 4.29-20.42 8.35-24.37 6.43-6.26 23.05-14.82 31.29-18.73-3.49 3.37-6.52 6.36-8 7.84z"/><path class="cls-1" d="M355.79 275.36a301 301 0 00-23 39.05c-10.67 22-9.89 36.84-8.79 56.95l-6.1-1.21c-1.69-25.78-1.78-47.26 6.36-64.83a192.21 192.21 0 0118.09-30.85l10.11-3-4.72-1.8c1.46-1.48 4.49-4.47 8-7.84 2.53-2.45 5.29-5.1 7.88-7.53 3.13-2.94 6-5.57 7.86-7.14a41.18 41.18 0 01-2.11 11.14c-3.24 3.13-8.13 9.22-13.58 17.06z"/><path class="cls-6" d="M371.17 237.6a49.18 49.18 0 01.32 9.55c-1.87 1.57-4.73 4.2-7.86 7.14-7.17-11.91-11.58-28.74-13.44-36.4 1.25 1.78 2.45 3.39 3.45 4.73 3.59 4.89 7.45 12.47 11.18 14.27a11.45 11.45 0 006.35.71z"/><path class="cls-4" d="M369.38 258.29a41.18 41.18 0 002.11-11.14 49.18 49.18 0 00-.32-9.55 25.6 25.6 0 008.3-2.63c4.76-2.44 20.67-13.14 23.76-17.52.56 2.13 1.12 4.14 1.69 6a53.13 53.13 0 007.26 15.29c-4.27 6.52-12.68 19.46-21.7 34.53-10.06 3.73-28.35 4.93-34.69 2.14 5.45-7.89 10.34-13.98 13.59-17.12zM381.71 210c-2.28 3.38-8.78 6-11.57 6.69a15.71 15.71 0 01-7.49.24 11.22 11.22 0 01-5.94-4.73 154.3 154.3 0 0025-2.2z"/><path class="cls-6" d="M342.06 180.08a43.16 43.16 0 010 6.91c-.6-6-2-11.36-2.59-16.23a44.57 44.57 0 011.71-17.31c.09-.31.19-.63.29-.95 3.78-11.82 22-27.57 32.31-23.07-.72 1.42-8 12.64-10.06 17-.22 0-.43 0-.64.06-10.55 1.06-17.19 9-19.75 14s-1.88 13.04-1.27 19.59z"/><path class="cls-6" d="M432.14 251.46c-2-.65-3.81-1.3-5.42-2a32.62 32.62 0 01-10.72-6.4 31.87 31.87 0 01-3.8-4.37 53.13 53.13 0 01-7.26-15.29c-.57-1.81-1.13-3.82-1.69-6a277.35 277.35 0 01-5.5-28.12c-.91-6.94-3.09-21.2-8.11-30.84-4.91-9.46-15-12.94-25.87-12.05 2.06-4.36 9.34-15.58 10.06-17 2.13-2 14-6.27 28.09 1.54 13 7.19 17.6 17.18 21.11 34.84 1.28 6.47 6.13 29.09 8.78 42.94 3.15 16.47 6.42 35.4 13.26 46.33l-3.23-.83c-3.71-.91-6.91-1.83-9.7-2.75z"/><path class="cls-4" d="M381.71 210a154.3 154.3 0 01-25 2.2 11.22 11.22 0 005.94 4.73 15.71 15.71 0 007.49-.24c2.79-.69 9.29-3.35 11.57-6.69zm-39.62-23a43.16 43.16 0 000-6.91c-.61-6.55-1.28-14.53 1.3-19.54s9.2-13 19.75-14c.21 0 .42 0 .64-.06 10.89-.89 21 2.59 25.87 12.05 5 9.64 7.2 23.9 8.11 30.84a277.35 277.35 0 005.5 28.12c-3.09 4.38-19 15.08-23.76 17.52a25.6 25.6 0 01-8.3 2.63 11.45 11.45 0 01-6.35-.71c-3.73-1.8-7.59-9.38-11.18-14.27-1-1.34-2.2-3-3.45-4.73-3.28-4.67-6.88-10.54-8-16.21-1.08-5.39-.43-9.98-.13-14.73zm40.91-5.7c0-.91-.36-1.65-.8-1.65s-.81.74-.81 1.65.36 1.65.81 1.65.8-.74.8-1.65zm-30.42 1.89c0-.91-.35-1.66-.8-1.66s-.81.75-.81 1.66.36 1.64.81 1.64.78-.73.78-1.64z"/><ellipse class="cls-5" cx="220.32" cy="345.09" rx="4.11" ry="7.89" transform="rotate(-10.75 220.41 345.2)"/><path class="cls-7" d="M356.51 200.14v.36a.34.34 0 000 .1v.2a1.24 1.24 0 00.1.39 1.93 1.93 0 00.78.95 3.64 3.64 0 00.74.37 8.7 8.7 0 002.5.43 21.46 21.46 0 004.62-.33 17.11 17.11 0 004.39-1.33.4.4 0 00-.22-.75 40.18 40.18 0 01-8.61.24 8.86 8.86 0 01-1.86-.37l-.14-.06a3.13 3.13 0 01.07-.45c.24-1.33.68-2.79 1.06-4.21.76-2.87 1.5-5.78 2-8.73a53.66 53.66 0 00.91-8.94.33.33 0 00-.28-.34.35.35 0 00-.4.28c-.5 2.91-1.16 5.78-1.92 8.63s-1.59 5.67-2.44 8.5c-.41 1.44-.86 2.82-1.18 4.41a4.86 4.86 0 00-.12.65zm15.32 21.09c-2 .75-4.33.65-6.58.75h-.06a.55.55 0 00-.46.28.55.55 0 00.22.76 5.24 5.24 0 001.89.61 8 8 0 001.95 0 7.26 7.26 0 001.93-.47 4.66 4.66 0 001.71-1.12.51.51 0 00.1-.54.52.52 0 00-.7-.27zm-15.73-44.99a1.57 1.57 0 00.55-3.08 19.23 19.23 0 00-6.93-.55 16.63 16.63 0 00-6.71 2 .51.51 0 00-.24.46.5.5 0 00.52.47 49.54 49.54 0 016.46.07c2.11.16 4.19.46 6.32.64zm16.51-1.74h.05a30.83 30.83 0 018.86-1.64 36.72 36.72 0 019.34.9.54.54 0 00.35-1 25.53 25.53 0 00-9.65-2.59A18.75 18.75 0 00371.5 172a1.39 1.39 0 001.11 2.54zm-19.32 247.73a5.6 5.6 0 00-7.21 0 4.64 4.64 0 00.06 7.16 5.56 5.56 0 003.55 1.23 5.48 5.48 0 003.54-1.24 4.68 4.68 0 001.71-3.54 4.73 4.73 0 00-1.65-3.61zm-1 6.24a3.29 3.29 0 01-5.26 0 4.34 4.34 0 01.06-5.19 3.33 3.33 0 012.56-1.25 3.38 3.38 0 012.58 1.24 4.16 4.16 0 01.91 2.57 4.27 4.27 0 01-.81 2.63zm21.57-291.18a.31.31 0 00.33.3A27.33 27.33 0 01392.5 143a28.06 28.06 0 016.53 7 35.63 35.63 0 014.09 8.77 95.37 95.37 0 012.41 9.59c.63 3.24 1.19 6.52 1.78 9.8a154.32 154.32 0 004.69 19.46.22.22 0 00.42-.12c-1.51-6.48-2.76-13-3.69-19.57a126 126 0 00-3.84-19.68c-1.9-6.51-5.69-12.7-11.33-16.7a26.26 26.26 0 00-19.4-4.59.3.3 0 00-.3.33zm42.8 51.59c1 6.09 2.18 12.16 3.66 18.16a169.32 169.32 0 005.32 17.76 132 132 0 007.4 17 .32.32 0 00.57-.27c-2.35-5.68-4.47-11.44-6.32-17.27s-3.47-11.75-4.88-17.71-2.67-12-3.87-18l-1.78-9c-.62-3-1.21-6-1.92-9a.36.36 0 00-.4-.28.37.37 0 00-.33.41c.37 3.06.79 6.11 1.19 9.16zm-64.91-7.58c-.44 0-.8.74-.8 1.65s.36 1.65.8 1.65.81-.74.81-1.65-.36-1.65-.81-1.65zm31.25 0c0-.91-.37-1.65-.81-1.65s-.81.74-.81 1.65.36 1.65.81 1.65.81-.74.81-1.65zM221.88 353.29a3.5 3.5 0 002.19-1.63 7.82 7.82 0 001-2.41 11.77 11.77 0 00-1.88-9.76 8 8 0 00-1.82-1.85 3.09 3.09 0 00-4.77.91 7.74 7.74 0 00-1 2.39 11.63 11.63 0 00-.16 5.08 11.82 11.82 0 002 4.69 7.83 7.83 0 001.82 1.86 3.48 3.48 0 002.62.72zm-4.74-7.59a15.68 15.68 0 01-.3-4.53 6.24 6.24 0 01.58-2.14 2.3 2.3 0 011.5-1.29 2.33 2.33 0 011.88.65 6.49 6.49 0 011.32 1.78 18.21 18.21 0 011.65 8.84 6.07 6.07 0 01-.58 2.12 2 2 0 01-3.33.63 6.11 6.11 0 01-1.32-1.76 15.71 15.71 0 01-1.4-4.3zm165.72-136.33l-13.39 1.11-6.69.53-6.67.63a.49.49 0 00-.45.43.5.5 0 00.42.58h.45a10.82 10.82 0 005.3 4.92 10 10 0 003.9.66 18.24 18.24 0 003.78-.41 19.91 19.91 0 003.61-1.12 27.85 27.85 0 003.35-1.61 15 15 0 005.49-4.76c.35-.1.7-.17 1.05-.28a.37.37 0 00-.14-.73zm-7.22 4.18a30.28 30.28 0 01-6.56 2.24 14.25 14.25 0 01-6.59 0 11.64 11.64 0 01-4.57-2.94 45.92 45.92 0 005 .15c2.26-.05 4.52-.18 6.77-.43s4.49-.55 6.72-.94c1.27-.23 2.54-.5 3.8-.81a21.56 21.56 0 01-4.57 2.73z"/><path class="cls-7" d="M476.49 322.24c-.09-2.78-.19-5.54-.32-8.3q-.39-8.29-1.06-16.57c-.46-5.52-1-11-1.84-16.53-.39-2.75-.91-5.49-1.58-8.22-.19-.68-.35-1.37-.57-2.05s-.44-1.36-.73-2a17.13 17.13 0 00-2.19-3.8 19.23 19.23 0 00-6.76-5.42 49.66 49.66 0 00-7.89-3.06c-2.71-.82-5.43-1.55-8.15-2.26-3.33-5.53-5.39-11.83-7.11-18.13-1.78-6.57-3.13-13.26-4.44-20s-2.64-13.41-4-20.11l-4.06-20.1-2-10c-.67-3.37-1.42-6.73-2.38-10a55.1 55.1 0 00-3.69-9.71 34.92 34.92 0 00-6-8.58 38.19 38.19 0 00-8.23-6.44 39.41 39.41 0 00-9.59-4.18 32.84 32.84 0 00-10.45-1.18 29.37 29.37 0 00-5.26.82l-1.29.38-1.27.47a11.85 11.85 0 00-2 1.08 11.87 11.87 0 00-4.63-.59 18.48 18.48 0 00-5 1.12 34.05 34.05 0 00-8.69 4.9 49 49 0 00-7.23 6.73 40.09 40.09 0 00-5.64 8.12 24.56 24.56 0 00-1.82 4.64 44 44 0 00-1.14 4.8 46.73 46.73 0 00-.77 9.81 61.38 61.38 0 001.38 9.71c.5 2.62 1 5.24 1.32 7.87-.06 1.34-.17 2.7-.28 4.05a58.5 58.5 0 00-.27 8.39 30.21 30.21 0 00.54 4.23 27.51 27.51 0 001.19 4.1 59.14 59.14 0 007.24 12.91c.62 2.84 1.3 5.66 2.08 8.46.85 3.14 1.86 6.25 2.93 9.33s2.31 6.11 3.66 9.09a66.44 66.44 0 004.37 8c-1.33 1.24-2.64 2.5-3.95 3.75s-2.53 2.46-3.78 3.72q-7.09 3.14-13.93 6.83a120.71 120.71 0 00-13.59 8.37c-.54.4-1.08.79-1.6 1.23s-1.06.84-1.56 1.31l-.76.69-.71.83a10.59 10.59 0 00-1.24 1.73 36.22 36.22 0 00-3.27 7.47 111.05 111.05 0 00-3.56 15.58c-.22 1.35-.42 2.7-.61 4.05q-1.46 5.58-2.86 11.15l-2 7.93-1.91 7.95c-1.28 5.29-2.57 10.59-3.75 15.9-.62 2.66-1.17 5.32-1.72 8s-1 5.08-1.48 7.63c-.16 0-.33.07-.48.12-2.4.75-4.69 1.56-7 2.37l-13.45 4.67q-1.75-8-3.39-16.1l-10.46-51.72-2.64-12.93a12.47 12.47 0 00-.46-1.76 9.57 9.57 0 00-.81-1.75 9.18 9.18 0 00-6.19-4.23 7.9 7.9 0 00-1-.13c-.32 0-.56 0-.85-.05l-1.64-.07c-8.79-.44-17.58-.77-26.37-1.13-4.39-.18-8.78-.37-13.17-.62s-8.79-.46-13.18-.76c-8.77-.59-17.53-1.36-26.3-2l-3.29-.24-1.65-.11a13.77 13.77 0 00-1.81-.07 4.61 4.61 0 00-3.54 2.2 4.77 4.77 0 00-.66 2 4.86 4.86 0 000 1.08c.07.4.13.59.19.88q1.5 6.42 3.07 12.83l6.39 25.6c2.09 8.55 4 17.14 5.9 25.72l5.52 25.8 2.82 12.89.36 1.61a9.34 9.34 0 00.59 1.76 8.52 8.52 0 002.22 3 8.69 8.69 0 003.26 1.76c1.16.29 2.17.48 3.26.73 4.32.88 8.6 1.89 12.87 2.91 4.12 1 8.24 1.94 12.35 3 0 .21.06.42.1.63a10.7 10.7 0 001 2.81l1.38 2.46 5.53 9.8 1.39 2.44a7.24 7.24 0 002 2.36 4.49 4.49 0 003.06 1 18.14 18.14 0 002.8-.71 3.72 3.72 0 012.53 0 10.89 10.89 0 002.74 1 8.47 8.47 0 003 0 10.63 10.63 0 001.45-.37 7.53 7.53 0 011.28-.41 82.24 82.24 0 0111.09-.79c1.87-.08 3.75-.14 5.64-.3.94-.07 1.88-.16 2.82-.3a9.49 9.49 0 002.74-.74c2.52.44 5.05.73 7.59 1s5.15.43 7.75.41 5.17-.06 7.74-.23q3.54-.19 7.06-.55-1.43 7.69-2.7 15.42l-1.51 9.67-1.46 9.89c-1 6.59-1.91 13.19-2.74 19.81s-1.6 13.24-2.14 19.9a.44.44 0 00.38.46.43.43 0 00.47-.38c.75-6.61 1.75-13.2 2.68-19.79l3-19.76 1.52-9.88 1.47-9.88q1.43-9.63 2.7-19.27c3.14-.31 6.28-.61 9.41-1l7.77-.83q-1.65 10.08-3.19 20.16l-3.15 21q-1.59 10.49-3.06 21t-2.64 21.08a.4.4 0 00.8.09c.95-7 2.11-14 3.19-21l3.32-21c1.08-7 2.23-14 3.22-21 .64-4.44 1.24-8.88 1.75-13.34a20.59 20.59 0 003.57 2.73 28.28 28.28 0 005.12 2.44 25.94 25.94 0 0010.13 1.56c-.13 1.85-.23 3.69-.33 5.54q-.54 11.18-.84 22.38c-.24 7.46-.3 14.93-.33 22.39 0 3.73 0 7.47.09 11.2s.18 7.47.39 11.2a.31.31 0 00.33.3.31.31 0 00.31-.33c-.08-7.45.1-14.9.27-22.35s.49-14.9.75-22.35.64-14.9 1.07-22.34c.4-7.25.77-14.5 1-21.77l42.47-4.68a59.51 59.51 0 007.61 3.05l1.45.46a86.54 86.54 0 004.1 18 22 22 0 00.95 2.28 6.07 6.07 0 00.75 1.18 1.69 1.69 0 001 .63 1 1 0 00.35 0c5.84-1.08 11.66-2.27 17.47-3.48l4.36-.92L425 433a4.16 4.16 0 002.08-1.14c.59 5.68 1.18 11.36 1.72 17.05.64 6.21 1.18 12.43 1.75 18.64l3.21 37.35a.33.33 0 00.35.31.34.34 0 00.32-.35c-.21-6.25-.46-12.5-.79-18.74s-.74-12.48-1.16-18.72-1-12.47-1.61-18.7c-.63-6-1.32-12-2.18-18 2.2.24 4.38.32 6.57.41 2.79.06 5.48.12 8.32.06a62.44 62.44 0 008.39-.85 33.72 33.72 0 004.18-1l1-.36c.35-.16.69-.3 1-.47a8.24 8.24 0 001-.63l.51-.39.41-.4a59.74 59.74 0 005.21-6.69c1.59-2.29 3.09-4.64 4.49-7.07a25.43 25.43 0 001.91-3.95 27.31 27.31 0 00.75-4.28c.31-2.79.51-5.54.74-8.29s.47-5.49.75-8.23.61-5.48.82-8.26c.45-5.53.75-11.05 1-16.58.47-11 .8-22.1.73-33.17.11-2.78.09-5.55.02-8.31zM376.42 129.09l1.13-.43 1.16-.36a27.27 27.27 0 014.85-.8 30.89 30.89 0 019.84 1 39 39 0 0117.07 10 33.77 33.77 0 015.75 8.14 54.3 54.3 0 013.62 9.41c1 3.25 1.72 6.56 2.4 9.89l2.08 10 4.16 20.07c1.38 6.7 2.81 13.38 4 20.11s2.61 13.44 4.37 20.08q1.32 5 3.05 9.85a57 57 0 003.2 7.31c-1.87-.49-3.74-1-5.59-1.5-2-.59-4.06-1.2-6.06-1.87-2.85-3.73-5.53-7.56-8-11.51l-2-3.32-1.86-3.4c-1.2-2.27-2.37-4.57-3.41-6.93a139.1 139.1 0 01-5.62-14.41c-1.63-4.91-3-9.91-4.35-14.95a.39.39 0 00-.44-.28.38.38 0 00-.32.44c.37 2.59.86 5.15 1.36 7.72s1.16 5.11 1.89 7.63a102.7 102.7 0 005.42 14.79 93.53 93.53 0 007.72 13.74 87.3 87.3 0 007.88 9.88 53.45 53.45 0 01-7.46-3.26 25.29 25.29 0 01-6.34-4.73 34.13 34.13 0 01-4.8-6.39 64.82 64.82 0 01-6.1-15.05c-1.49-5.27-2.69-10.65-3.78-16s-2.07-10.81-2.79-16.27a142.68 142.68 0 00-3.26-16.34 80.37 80.37 0 00-2.57-8 37.57 37.57 0 00-3.77-7.56 21.94 21.94 0 00-6.1-5.93 24.62 24.62 0 00-7.8-3.3 38.84 38.84 0 00-8.38-1.05h-1.77c1.58-2.37 3.2-4.74 4.73-7.16.88-1.38 1.78-2.76 2.58-4.2a35.85 35.85 0 001.89-3.77 1.1 1.1 0 00.5-.26 7.83 7.83 0 011.92-1.03zm41.65 135.39c-.72 0-1.43 0-2.15.06s-1.63.13-2.44.23-1.63.19-2.44.34-1.62.27-2.42.45a.44.44 0 00-.2.11.41.41 0 000 .57 30.67 30.67 0 004 3.38 35.27 35.27 0 004 2.49q-4.94 5.7-9.71 11.52l-5 6.06-4.87 6.13c-3.23 4.11-6.46 8.22-9.57 12.42s-6.13 8.49-9.22 12.64-6.34 8.28-9.42 12.52a123.22 123.22 0 00-8.49 13.29 76 76 0 00-6.14 14.57 90.4 90.4 0 00-3.07 14.74 98.08 98.08 0 00-5.07-1.19l.44-4.24.24-2.39c.09-.79.24-1.57.35-2.36l.72-4.73 1-4.68a109.4 109.4 0 015.62-18.19 132.26 132.26 0 018.71-16.95c3.28-5.46 6.89-10.76 10.29-16.23 1.7-2.73 3.36-5.49 4.92-8.31l4.66-8.42c3.13-5.58 6.37-11.1 9.67-16.59 6.33-10.56 12.91-21 19.64-31.29a33 33 0 002.25 2.62 27.58 27.58 0 006.88 5.15c1.37.74 2.77 1.39 4.19 2-.51.94-1 1.88-1.52 2.83l-2 3.91-2 3.94c-.63 1.19-1.23 2.41-1.85 3.6zM324.45 371c-.33-10.34-.72-20.71 1-30.82S331 320.25 335.69 311a283.8 283.8 0 0115.49-27.19q2.47-3.84 5.09-7.59a25.81 25.81 0 008.09 1.65 59.27 59.27 0 008.94-.14 67.43 67.43 0 008.83-1.33 46.49 46.49 0 006.6-1.92q-3.84 6.44-7.56 12.94l-4.73 8.38c-1.56 2.77-3.24 5.49-4.95 8.18-3.44 5.39-7 10.71-10.37 16.23a115.26 115.26 0 00-8.79 17.26 112.63 112.63 0 00-7.45 37.15c-2.66-.53-5.33-1-8-1.44-4.17-.67-8.3-1.37-12.43-2.18zM366 264.36a.52.52 0 00.74 0 17.71 17.71 0 003.66-6.07 30.54 30.54 0 001.72-6.83 49.53 49.53 0 00.49-7 48 48 0 00-.35-5.86 25.83 25.83 0 004.44-1.14 26.12 26.12 0 003.94-1.75c1.26-.69 2.44-1.42 3.62-2.16q3.54-2.24 6.94-4.64c2.26-1.62 4.49-3.28 6.66-5a68.8 68.8 0 003.18-2.75c.56-.54 1.13-1.08 1.66-1.66l.3 1.13a64.69 64.69 0 006.25 15.6 40.4 40.4 0 001.79 2.75c-6.88 10.49-13.61 21.08-20.09 31.83-.44.72-.86 1.45-1.3 2.18a71.81 71.81 0 01-7.82 1.61c-2.88.42-5.77.76-8.66 1s-5.8.34-8.69.3a41.19 41.19 0 01-4.31-.24 21.07 21.07 0 01-3.08-.52c1-1.41 2-2.82 3-4.21 2-2.78 4.17-5.53 6.41-8.14-.18.32-.36.65-.56 1a.52.52 0 00.06.57zm-26.1-96.59a45.68 45.68 0 01.85-9.55 44.05 44.05 0 011.16-4.66c.06-.23.14-.46.22-.68a37.6 37.6 0 013.89-5.09 26.41 26.41 0 015.48-4.6 27.4 27.4 0 016.5-2.89 56.07 56.07 0 017.16-1.56.27.27 0 00.21-.21.25.25 0 00-.21-.28 21 21 0 00-7.62.25 21.36 21.36 0 00-7.15 3 22.56 22.56 0 00-3.31 2.6 47.05 47.05 0 019.29-9 32 32 0 018.28-4.48 13 13 0 017.92-.53c-.76 1-1.52 2-2.21 3-.94 1.36-1.78 2.78-2.61 4.2s-1.63 2.88-2.39 4.36a42.81 42.81 0 00-1.78 4c-.39 0-.78 0-1.17.1a18.66 18.66 0 00-2.11.39 14.61 14.61 0 00-2.06.57 27.14 27.14 0 00-13.31 10.14 26.06 26.06 0 00-2.2 3.62 16.79 16.79 0 00-1.33 4.08 39 39 0 00-.51 8.4c0 1.44.13 2.89.24 4.33a61.27 61.27 0 01-1.27-9.51zm3.23 33.93a28 28 0 01-.56-4 57.21 57.21 0 01.16-8.16 59.79 59.79 0 00.19-8.37c-.23-2.81-.55-5.5-.65-8.25a37.76 37.76 0 01.38-8.11 14.79 14.79 0 011.18-3.79 23 23 0 012.11-3.44 25.29 25.29 0 0112.79-9.37 34.27 34.27 0 0116-.37 21.58 21.58 0 0113 8.82 36 36 0 013.51 7.28 81.36 81.36 0 012.4 7.83 140.07 140.07 0 013 16.18c.67 5.5 1.64 11 2.68 16.41.86 4.36 1.79 8.7 2.88 13a42.64 42.64 0 01-5.59 4.84c-2.17 1.66-4.42 3.24-6.69 4.78s-4.55 3.08-6.87 4.52a37.4 37.4 0 01-7.11 3.71 19.93 19.93 0 01-7.64 1.33 7.26 7.26 0 01-3.41-1 12.61 12.61 0 01-2.74-2.6c-1.68-2.07-3.16-4.39-4.68-6.69-.77-1.16-1.53-2.32-2.35-3.47s-1.66-2.22-2.47-3.34a63.19 63.19 0 01-8.32-14 26.21 26.21 0 01-1.24-3.74zm16.82 43.61c-1.28-2.95-2.38-6-3.48-9s-2-6.13-3-9.22q-.75-2.49-1.45-5c.47.64.95 1.29 1.39 1.93.77 1.11 1.52 2.26 2.26 3.42a82.77 82.77 0 004.75 6.93 14.48 14.48 0 003.22 3.11 9.55 9.55 0 004.44 1.35 17.79 17.79 0 002.31 0 53 53 0 01.07 8.36c-1.91 1.57-3.75 3.21-5.56 4.87l-1.27 1.18c-1.36-2.6-2.63-5.24-3.72-7.93zm.1 13.5l5.95-5.61c1.43-1.35 2.87-2.71 4.31-4-.07.66-.13 1.33-.23 2a44.51 44.51 0 01-1.42 6.52c0 .11-.08.22-.11.33a112.75 112.75 0 00-9.81 11.89q-4.68 6.35-8.95 13c-2.85 4.41-5.6 8.88-8.29 13.39s-5.2 9.12-7.62 13.79a111.34 111.34 0 00-6.42 14.46 84.27 84.27 0 00-3.86 15.4c-1.53 10.32-.81 20.7 0 30.92l-1.23-.24-4-.83c-.38-8.32-.68-16.65-.51-25a124.72 124.72 0 012.7-25 75.49 75.49 0 013.83-11.91c1.62-3.83 3.56-7.62 5.53-11.32s4.07-7.38 6.29-11 4.37-7 6.74-10.34c1.61-.4 3.2-.9 4.77-1.44s3.32-1.18 4.94-1.9a.41.41 0 00.21-.22.42.42 0 00-.21-.56c-.77-.35-1.55-.66-2.34-.95-.6-.23-1.2-.43-1.82-.62l5.59-5.1c1.91-1.94 3.96-3.77 5.91-5.66zm-39.44 31.72a34.18 34.18 0 013-7 9 9 0 011.05-1.49l.57-.68.69-.64c.46-.44 1-.84 1.46-1.25s1-.8 1.53-1.19a131.77 131.77 0 0113.26-8.37q5-2.78 10-5.43c-1.57 1.63-3.13 3.26-4.62 5a.22.22 0 00-.05.08.37.37 0 00.16.5 24.85 24.85 0 002.31 1l.92.34c-1.23.25-2.46.52-3.68.82a52.51 52.51 0 00-5.07 1.48.85.85 0 00-.39.29A175.07 175.07 0 00328 295.53c-2 3.77-3.92 7.54-5.59 11.51a71.84 71.84 0 00-3.82 12.28 119.73 119.73 0 00-2.35 25.44c0 8.29.54 16.55 1.19 24.79-2.27-.48-4.54-1-6.83-1.39q1.62-15.5 3.08-31l1.46-15.77c.25-2.64.44-5.24.76-7.83s.69-5.2 1.13-7.79a112.09 112.09 0 013.54-15.24zm-16.69 70.27c.7-2.63 1.39-5.27 2-7.92 1.32-5.28 2.52-10.59 3.74-15.9l1.83-8 1.51-6.88-1.15 14.9q-1.2 15.48-2.22 31l-1.9-.35a16.59 16.59 0 00-5.71.05c.66-2.31 1.31-4.6 1.9-6.9zM209.07 401c-4.25-1.1-8.51-2.21-12.73-3.45-1-.3-2.17-.59-3.13-.89a6.91 6.91 0 01-2.47-1.41A7.15 7.15 0 01189 393a6.8 6.8 0 01-.48-1.35l-.39-1.61-3.07-12.83-6.28-25.63c-2-8.56-4.05-17.11-5.89-25.71l-5.41-25.83q-1.38-6.45-2.83-12.89a3.83 3.83 0 01-.19-1.29 2.37 2.37 0 01.34-1.07 2.43 2.43 0 011.85-1.17c.3 0 1 0 1.48.05l1.65.09 3.29.16c8.79.39 17.58.69 26.36 1.17 4.39.24 8.78.54 13.17.85s8.77.63 13.15 1c8.77.71 17.54 1.45 26.31 2.08l1.64.13.8.06a5.06 5.06 0 01.68.1 6.36 6.36 0 012.5 1.05 6.85 6.85 0 011.86 2 6.6 6.6 0 01.58 1.23 10.48 10.48 0 01.37 1.43l2.9 12.87 11.67 51.46c1.5 6.57 2.91 13.15 4.28 19.74a.57.57 0 000 .29.43.43 0 000 .07c2.18 10.51 4.24 21.05 6.38 31.57l1.33 6.46.08.4a2.54 2.54 0 010 .29 2.35 2.35 0 010 .59 2.46 2.46 0 01-.44 1.07 2.51 2.51 0 01-2 1.05 2.78 2.78 0 01-.58-.06c-.17 0-.51-.13-.75-.19l-1.6-.42-3.19-.84-6.38-1.66c-4.26-1.08-8.51-2.23-12.75-3.38s-8.27-2.27-12.5-3.08c-.06-.06-.11-.13-.17-.2l-1.77-2.3c-.65-.77-1.31-1.54-2-2.27a9.66 9.66 0 00-1.21-1.06 5.73 5.73 0 00-1.52-.77 9.19 9.19 0 00-1.95-.44c-.41-2.34-.85-4.68-1.47-7a25.16 25.16 0 00-3-7.42 11.51 11.51 0 00-1.33-1.66 4 4 0 00-2.14-1 3.19 3.19 0 00-1.14.07 13.45 13.45 0 00-.78-2.68 8.36 8.36 0 00-2-3.11 4.69 4.69 0 00-1.73-1 2.73 2.73 0 00-2.23.21 2 2 0 00-.38.33 3.05 3.05 0 00-.68-.42 2.81 2.81 0 00-1.75-.21 1.48 1.48 0 00-.93.67 1.74 1.74 0 00-.21.56 4.13 4.13 0 000 .49l.16 1.4.64 5.59 1.27 11.2.31 2.8c0 .37.08.74.13 1.12-4.06-1.05-8.06-2.09-11.99-3.15zm100.21-15.13c2.61 1.45 5.25 2.8 8 4l.9.39v1.46a7.16 7.16 0 00.13 1c0 .08 0 .17.06.26l-1.37-.18-8.89-1.75a10 10 0 00.57-2.51 15.47 15.47 0 00.07-2.55zm31.46 5.87c1 .37 2 .78 2.93 1.2a14.6 14.6 0 00-.58 2.5A14.78 14.78 0 00343 397v.86l-1.71-.32c-5.61-1-11.21-2.14-16.81-3.24q.06-.6.06-1.2v-.53c.53.12 1.06.22 1.55.29a37.48 37.48 0 009.2.67 13.78 13.78 0 004.6-1.19 9.11 9.11 0 00.85-.56zm8.48 3.55l.94.4c3.28 1.35 6.55 2.72 9.86 4 2.38.92 4.77 1.82 7.18 2.67l-1.68-.32-17.2-3.23a16.46 16.46 0 00.58-1.76 9.2 9.2 0 00.32-1.72zm-2 1.31a15.54 15.54 0 00-.32 1.93l-2.73-.52q.13-.44.24-.87a12.45 12.45 0 00.28-1.48 14.75 14.75 0 00.17-2.21l.39.17 2.57 1.09a8.85 8.85 0 00-.58 1.93zm-24.17-2.6l-3.4-.67c0-.21 0-.41.05-.62a7 7 0 000-1l-.09-.76c.63.26 1.27.51 1.91.74s1 .34 1.55.5v.92c0 .31-.07.58-.02.89zm-16-5.63a18.72 18.72 0 00-.12 2.48l-7.7-1.54a12.47 12.47 0 00.37-1.49c.05-.34.1-.69.13-1v-.45c.31-.08.62-.16.92-.22a6.93 6.93 0 011.59-.13c1.68 0 3.41.21 5.19.12-.11.71-.24 1.47-.34 2.22zm-8.87-.78a14.72 14.72 0 00-.13 1.49l-3.52-.71c.42-.21.85-.41 1.29-.59.83-.35 1.67-.68 2.52-1-.02.28-.07.54-.12.8zm-5.18 1.67q11.91 2.25 23.79 4.6c8.09 1.6 16.18 3.13 24.25 4.81l24.22 4.94c6.58 1.28 13.14 2.68 19.77 3.75l-1.79.13c-2.11.2-4.22.46-6.34.69q-6.33.7-12.67 1.48l-12.66 1.52-12.68 1.42q-12.68 1.33-25.38 2.5l-12.7 1.2-6.35.61-3.17.31a6.13 6.13 0 01-2.17-.19l-.74-3.32c3.56-.26 7.11-.59 10.66-.93l11.66-1.25c3.88-.47 7.77-.89 11.65-1.4s7.75-1 11.62-1.57a.24.24 0 00.21-.2.27.27 0 00-.19-.31c-4.15-1-8.3-1.94-12.46-2.85L309 402.41c-4.15-1-8.31-1.85-12.48-2.73q-6-1.28-11.95-2.43l-1-4.37a10 10 0 002.78-.21 10.11 10.11 0 001.81-.54 11.72 11.72 0 001.65-.9c1.1-.67 2.12-1.35 3.19-1.97zm-5.31 21.35q-1.36-6.08-2.77-12.14 5.69 1.3 11.39 2.53c4.17.88 8.34 1.75 12.51 2.58l12.53 2.52c3.54.73 7.09 1.41 10.63 2.09-3.25.23-6.51.49-9.76.78-3.9.32-7.78.73-11.68 1.09l-11.66 1.24c-3.58.42-7.16.85-10.73 1.34zM302 423.74l-7.29.12c-2.57 0-5.13.13-7.68.1s-5.1-.14-7.66-.26l-7.7-.33a.32.32 0 00-.19 0 8.71 8.71 0 01-2.6.47c-.92.07-1.85.11-2.78.14l-5.62.11c-1.87 0-3.76.1-5.64.2a32.85 32.85 0 00-5.69.69 8.34 8.34 0 00-1.39.48 9.17 9.17 0 01-1.27.35 11.65 11.65 0 01-2.64.17 5.28 5.28 0 01-2.59-.68 5.33 5.33 0 00-3-.36c-1 .11-1.92.36-2.71.43a3.18 3.18 0 01-2.15-.77 5.67 5.67 0 01-1.56-2l-1.38-2.46-5.56-9.8-1.42-2.34a8.83 8.83 0 01-.92-2.45c-.37-1.74-.46-3.64-.72-5.49l-1.33-11.18-.66-5.58-.17-1.4a1.46 1.46 0 000-.21v-.1c0-.01.06-.07.18-.11a2.21 2.21 0 011.56.33 2.65 2.65 0 00-.16.81 4.82 4.82 0 000 1l.11.89c.66 4.65 1.54 9.22 2.21 13.84.36 2.32.54 4.62.79 7a19.73 19.73 0 00.66 3.55 6.34 6.34 0 00.36.93 3.75 3.75 0 00.56.89c.41.49.8.91 1.2 1.35 3.21 3.43 6.67 6.6 10 9.82a.27.27 0 00.35 0 .27.27 0 00.06-.37c-1.42-1.93-3-3.64-4.53-5.39l-4.66-5.2c-.38-.43-.76-.87-1.09-1.29a2.94 2.94 0 01-.28-.64 5.84 5.84 0 01-.27-.71 33.46 33.46 0 01-.81-3.28c-.43-2.26-.91-4.59-1.28-6.88-.74-4.6-1.32-9.24-1.8-13.85l-.08-.86a5.22 5.22 0 010-.77 1.24 1.24 0 01.42-1c.55-.42 1.65-.13 2.44.52a7.5 7.5 0 011.93 2.61 14 14 0 01.94 2.59 2.14 2.14 0 00-.67.61 2.25 2.25 0 00-.34 1.38c0 .37.07.7.11 1 .43 2.63 1.07 5.15 1.65 7.71l.89 3.82c.3 1.28.62 2.51.82 3.8l.59 3.86a25.64 25.64 0 00.83 3.92 7.32 7.32 0 00.93 2A6.07 6.07 0 00235 417a36.27 36.27 0 003.56 1.82c2.41 1.06 4.84 2 7.26 3a.38.38 0 00.32-.68c-2.28-1.29-4.66-2.39-7-3.57a37 37 0 01-3.35-1.84 5.26 5.26 0 01-1.28-1.06 5.65 5.65 0 01-.72-1.52c-.73-2.37-1.17-5-1.76-7.53-.29-1.28-.62-2.58-.95-3.82s-.59-2.53-.86-3.8c-.51-2.54-.95-5.13-1.27-7.67 0-.31-.07-.63-.08-.91a.77.77 0 01.11-.48 1.15 1.15 0 011-.29 2.53 2.53 0 011.33.63 9.45 9.45 0 011.12 1.38 26.07 26.07 0 013 7c.63 2.17 1.18 4.38 1.7 6.61h-.29a4.7 4.7 0 00-1.76.4 2.07 2.07 0 00-1 .82 1.41 1.41 0 00-.15.91c0 .11 0 .22.08.33a1.75 1.75 0 00.11.24 10.61 10.61 0 002 2.54c.71.74 1.44 1.42 2.12 2.15.34.36.68.72 1 1.08a9.19 9.19 0 001.1 1.15c.76.71 1.55 1.35 2.36 2a60.5 60.5 0 005 3.47 11.35 11.35 0 006.24 1.19 15.08 15.08 0 006-1.7.44.44 0 00.21-.55.45.45 0 00-.57-.27 16.67 16.67 0 01-5.58.97 10.57 10.57 0 01-5.36-1.18c-1.6-1.08-3.39-2.09-5-3.16a19.67 19.67 0 01-2.37-1.72 7.26 7.26 0 01-1-1c-.32-.41-.66-.79-1-1.17a80.18 80.18 0 01-1.91-2.3c-.31-.39-.6-.78-.88-1.16a6 6 0 01-.67-1.1l.11-.06a3.91 3.91 0 011.15-.26 7.28 7.28 0 012.66.24 4.17 4.17 0 011.18.51 8.34 8.34 0 011.1.85c.73.63 1.42 1.34 2.11 2a32.63 32.63 0 004.4 4.21.37.37 0 00.51-.07.37.37 0 00-.07-.52 8.6 8.6 0 01-.84-.77c3.65 1.27 7.38 2.3 11.09 3.36 4.24 1.19 8.47 2.38 12.68 3.64l6.34 1.84 3.17.92 1.58.46.84.23a4.2 4.2 0 001.06.11 4.52 4.52 0 003-1.25l.69.25a8 8 0 001.68.34 9.57 9.57 0 001.7 0l1.6-.15 6.42-.63 2.5-.24c-.17.78-.32 1.67-.47 2.52zm10.65-4.94c-4.27.44-8.54.95-12.81 1.44l-6.4.73a25.15 25.15 0 01-3.12.29 6.74 6.74 0 01-1.48-.25l-.32-.11a4.66 4.66 0 00.72-1.86v-.27a7.48 7.48 0 002.16.09l3.18-.37 6.33-.73 12.67-1.5q12.66-1.51 25.34-2.9l12.7-1.28 12.7-1.17q6.35-.57 12.69-1.22c2.12-.22 4.24-.41 6.35-.66 1.91-.24 3.82-.53 5.72-.9a9 9 0 000 2.74l-50.82 5.21zm28 3.09l-.56 5.58c-.13 1.51-.24 3-.35 4.53a43 43 0 01-9.54-2.3 44.76 44.76 0 01-4.93-2.14A37.44 37.44 0 01321 425c.21-1.94.41-3.88.58-5.82l16.89-1.8 2.81-.31a91.51 91.51 0 00-.68 4.82zm47-9.91l2.05-.22a.47.47 0 00.4-.37v-.1a10.51 10.51 0 00.16-1.85 8.85 8.85 0 00-.17-1.85v-.09a.5.5 0 00-.35-.37c-3.56-.92-7.14-1.71-10.73-2.44-2.84-.85-5.66-1.8-8.47-2.77-3.33-1.18-6.65-2.38-9.95-3.65l-9.89-3.83c-3-1.13-6-2.31-9-3.33a8.65 8.65 0 001.75-1.93.39.39 0 00-.07-.51.38.38 0 00-.54 0 10.24 10.24 0 01-7.68 3.16 26.78 26.78 0 01-4.37-.22q-2.21-.24-4.44-.6a34.35 34.35 0 01-8.43-2.56c-2.77-1.13-5.52-2.36-8.23-3.65a.54.54 0 00-.31-.06c-1.08 0-2.26-.12-3.42-.22s-2.34-.2-3.56-.21a8 8 0 00-1.93.17 16.79 16.79 0 00-1.79.49c-1.16.38-2.27.84-3.37 1.32-.55.24-1.08.47-1.65.78s-1.06.62-1.56.95l-2.94 2a10.22 10.22 0 01-1.43.84 8.9 8.9 0 01-1.55.55 8.41 8.41 0 01-2.76.26L283 390c1.59-1.35 3.29-2.67 5-3.87a14.08 14.08 0 011.38-.86l.77-.35.8-.4c1-.54 2-1.11 3.05-1.67l3-1.72c.49-.28 1-.57 1.47-.82a6.58 6.58 0 011.41-.56c2.07-.57 4.47-.69 6.7-1.64a.33.33 0 00-.17-.63c-2.22.29-4.49.1-6.92.58a6.49 6.49 0 00-1.81.63c-.55.26-1.06.55-1.57.83-1 .56-2 1.19-3 1.78s-1.94 1.23-2.91 1.82l-.72.41-.78.41a13.25 13.25 0 00-1.5 1.05 44.78 44.78 0 00-4.39 4l-.93-4.09c1.4-1.28 2.75-2.58 4.17-3.8a24.59 24.59 0 012.32-1.81 8.88 8.88 0 012.5-1.25c1.86-.6 3.8-1.13 5.72-1.71 1-.3 1.93-.6 2.88-.93a19.82 19.82 0 002.87-1.16.42.42 0 00.21-.46.4.4 0 00-.49-.29c-1.87.46-3.9.81-5.84 1.29a48.37 48.37 0 00-5.86 1.74 11.29 11.29 0 00-1.47.68 11.94 11.94 0 00-1.33.91c-.83.64-1.59 1.33-2.34 2-1.23 1.14-2.4 2.34-3.58 3.52-.3-1.37-.61-2.74-.91-4.1 1.44-.59 2.81-1.24 4.2-1.88l4.52-2.18 4.5-2.19c1.5-.71 3-1.42 4.55-2a.31.31 0 00.19-.36.31.31 0 00-.37-.23 35.81 35.81 0 00-4.83 1.56c-1.57.61-3.11 1.29-4.65 2s-3 1.41-4.55 2.15c-1.29.63-2.58 1.29-3.84 1.94l-.48-2.16 13.64-4.41 7-2.3a16.22 16.22 0 017.06-.56c9.69 1.55 19.42 3.63 29.15 5.3 4.85.9 9.68 1.9 14.4 3.21 2.36.64 4.67 1.49 7.07 2.2s4.75 1.39 7.14 2.06c9.4 2.57 18.8 5 28.34 7.15.68 2 1.28 4 1.83 6 .82 3 1.56 6.1 2.19 9.19s1.2 6.18 1.71 9.29c.14.94.26 1.87.38 2.81-2.27-.84-4.54-1.64-6.82-2.44-1.86-.63-3.62-1.21-5.43-1.68zm12 21.24c-1-2.93-1.71-6-2.43-9.06l-1.06-4.6c-.26-1.1-.51-2.2-.78-3.3 1.52.44 3.05.83 4.61 1.13.22 1.76.43 3.52.6 5.28a82 82 0 01.43 9.38c0 .78 0 1.55-.11 2.31 0 .37-.08.75-.15 1.1 0 .09 0 .19-.06.29-.07-.14-.15-.28-.22-.43a20 20 0 01-.87-2.1zm26.71-6.83l-.15 2.2v.51a2 2 0 01-.08.35 1.92 1.92 0 01-.32.64 2 2 0 01-1.18.75l-2.18.46-4.34.94c-5.23 1.15-10.46 2.33-15.67 3.58v-.07c.07-.43.11-.84.15-1.25.05-.82.09-1.63.07-2.43a82 82 0 00-.59-9.55c-.36-3.16-.79-6.3-1.32-9.43s-1.05-6.26-1.69-9.36-1.31-6.21-2.1-9.29c-.55-2.13-1.11-4.27-1.76-6.38a.93.93 0 00-.15-.52c-.12-.36-.25-.72-.37-1.09 4.39.17 8.84.47 13.26.77l7.23.54 3.6.31 1.84.17a8.78 8.78 0 001.62-.05 28.34 28.34 0 011.13 3.29c.41 1.41.79 2.83 1.12 4.26.65 2.87 1.2 5.77 1.61 8.68a71.19 71.19 0 01.72 8.73c0 2.93 0 5.88-.18 8.83zM475 330.54q-.21 16.53-1.06 33.08c-.3 5.5-.64 11-1.13 16.49-.24 2.73-.6 5.45-.89 8.22s-.57 5.51-.81 8.26-.46 5.52-.77 8.22a24.9 24.9 0 01-.69 3.87 23.31 23.31 0 01-1.72 3.48c-1.37 2.35-2.86 4.65-4.4 6.9a57.59 57.59 0 01-4.93 6.4l-.32.33-.28.21a5 5 0 01-.73.44c-.27.14-.56.25-.85.38l-.9.33a30.9 30.9 0 01-3.88.93 60.65 60.65 0 01-8.08.86l-4.11.08c-1.39 0-2.77.1-4.15.16-2.26.12-4.54.31-6.79.52a.77.77 0 00-.17-.19 1.16 1.16 0 000-.18c0-.26 0-.39.05-.59l.16-2.24c.08-1.49.17-3 .21-4.47.08-3 .1-6 0-9a59.48 59.48 0 00-1-9 84.6 84.6 0 00-2-8.75c-.42-1.43-.85-2.86-1.39-4.27a32.9 32.9 0 00-1.29-3.08 9.27 9.27 0 001.45-.43c.61-.25 1.17-.51 1.75-.81a10.5 10.5 0 001.7-1.11 5.26 5.26 0 00.68-.72 11 11 0 012.33-.86 15.42 15.42 0 013.09-.49 13 13 0 013.06.22 10.36 10.36 0 011.44.43c.5.18 1 .39 1.5.6 4 1.73 7.92 3.69 11.93 5.52 1 .45 2 .89 3.05 1.32a12.41 12.41 0 001.7.61l.47.11.53.07a2.9 2.9 0 00.59 0h.32l.37-.12a1.92 1.92 0 00.76-.49 2.08 2.08 0 00.44-.86 2.43 2.43 0 00-.15-1.4 5.2 5.2 0 00-1.1-1.71 11.41 11.41 0 00-2.83-2.18 43.51 43.51 0 00-6-2.94 23.46 23.46 0 00-6.49-1.65.22.22 0 00-.23.16.22.22 0 00.16.27 30.73 30.73 0 016 2.45 62.5 62.5 0 015.58 3.31 10.9 10.9 0 012.28 1.94 3.27 3.27 0 01.65 1.06 2.25 2.25 0 01-.78-.13 9 9 0 01-1.4-.52c-1-.42-2-.87-3-1.32-4-1.77-8-3.6-12.15-5.21-.52-.2-1-.4-1.58-.59a12.44 12.44 0 00-1.72-.46 14.22 14.22 0 00-3.5-.16 18 18 0 00-3.42.56h-.05a21.43 21.43 0 015-2.47 41.14 41.14 0 016.22-1.71 55.87 55.87 0 016.49-.82c2.19-.13 4.39-.15 6.61-.13a.28.28 0 00.28-.23.28.28 0 00-.23-.33 44.06 44.06 0 00-6.69-.76 40.49 40.49 0 00-6.78.34 29.15 29.15 0 00-6.66 1.61 17.89 17.89 0 00-5.32 3v-1.27c0-1.23 0-2.45-.09-3.67-.1-2.43-.24-4.85-.41-7.28l-.27-3.63c-.08-1.18-.12-2.36-.16-3.57-.23-9.65-.17-19.34 0-29 .09-4.83.3-9.66.49-14.49l.28-7.24.35-7.24a.34.34 0 00-.27-.34.34.34 0 00-.39.27c-1.68 8.66-2 17.46-2.33 26.22-.69-2.24-1.32-4.5-1.88-6.8-1-3.94-1.79-8-2.87-12a.32.32 0 00-.31-.23.32.32 0 00-.3.32 69.87 69.87 0 001.34 12.37 42.8 42.8 0 003.94 11.68c-.21 8.91-.3 17.8-.13 26.72 0 1.22.07 2.45.16 3.69l.28 3.61c.17 2.41.33 4.81.42 7.22.06 1.2.09 2.4.1 3.59a25.56 25.56 0 01-.14 3.45c0 .59-.94 1.25-1.91 1.78-.5.26-1 .5-1.55.72a6.67 6.67 0 01-1.53.42 7.58 7.58 0 01-1.58.08l-1.79-.16-3.63-.28-7.26-.45c-4.83-.26-9.6-.54-14.49-.63a.75.75 0 00-.39 0 .81.81 0 00-.29.19.86.86 0 00-.27.59.87.87 0 00.1.39c.12.32.23.64.35 1-9.14-2-18.25-4.27-27.31-6.66-2.38-.64-4.76-1.29-7.12-2-2.1-.6-4.2-1.33-6.35-1.93a89.09 89.09 0 013.39-14.55 81.35 81.35 0 016.26-14.13c5-9 11.68-17.06 17.95-25.43 3.15-4.22 6.11-8.47 9.25-12.63s6.27-8.32 9.45-12.45l9.53-12.41 9.51-12.42a.5.5 0 00-.05-.66l-.05-.05a31.84 31.84 0 00-4.07-3.29 36.42 36.42 0 00-3.09-1.94h.85c.83 0 1.64-.07 2.46-.1s1.63-.13 2.45-.2 1.62-.2 2.43-.37h.11a.53.53 0 00.35-.26c.88-1.23 1.64-2.49 2.39-3.76s1.45-2.57 2.17-3.86 1.38-2.6 2-3.92c.51-1 1-2 1.46-3 3.26 1.28 6.59 2.3 9.91 3.26 5.35 1.55 10.76 2.69 16 4.25 1.13.34 2.25.7 3.36 1.09-.44.14-.87.28-1.29.44a20.14 20.14 0 00-2.45 1.05 22.61 22.61 0 00-2.31 1.41 36.4 36.4 0 00-7.76 7.3 60.47 60.47 0 00-5.78 8.81 80.93 80.93 0 00-4.25 9.58.31.31 0 00.16.39.31.31 0 00.41-.15 82.14 82.14 0 014.76-9.18 59.06 59.06 0 016-8.31 35.63 35.63 0 017.59-6.68 20.94 20.94 0 012.16-1.22 17.88 17.88 0 012.26-1c1.4-.49 2.79-.69 4.21-1.05l.5.23a17.21 17.21 0 016.11 4.79 18.46 18.46 0 013.21 7.13q1 3.94 1.63 8c.88 5.41 1.48 10.89 2 16.38a311.28 311.28 0 011.6 33.11z"/></g></svg>