<svg xmlns="http://www.w3.org/2000/svg" viewBox="0 0 120 120"><defs><style>.cls-3{fill:#ffea27}.cls-4{mix-blend-mode:multiply}.cls-5{fill:#f4d314}.cls-6{fill:#95a6b1}</style></defs><g style="isolation:isolate"><g id="Capa_1" data-name="Capa 1"><path fill="none" d="M0 0h120v120H0z"/><path class="cls-3" d="M57.3 115.86H39.09a2 2 0 110-4H57.3a2 2 0 010 4zm21.93 0h-9.1a2 2 0 010-4h9.1a2 2 0 010 4zm12.77 0a2 2 0 01-1.85-1.23 2 2 0 01-.15-.77 2 2 0 01.58-1.41 2.06 2.06 0 012.83 0 2 2 0 01.59 1.41 2 2 0 01-.15.77 2.31 2.31 0 01-.74.9 2.31 2.31 0 01-.35.18 1.58 1.58 0 01-.37.11 1.72 1.72 0 01-.39.04z"/><g class="cls-4"><path class="cls-5" d="M46.59 115.86H28.38a2 2 0 010-4h18.21a2 2 0 010 4z"/></g><path class="cls-3" d="M73.77 103.64H28.38a2 2 0 010-4h45.39a2 2 0 010 4z"/><g class="cls-4"><path class="cls-5" d="M28.38 103.64a2 2 0 01-1.41-.59 2 2 0 01-.44-.65 2 2 0 01-.15-.76 2.58 2.58 0 010-.4 2.65 2.65 0 01.12-.37 2.31 2.31 0 01.18-.35 2.34 2.34 0 01.25-.3 2.48 2.48 0 01.3-.25 2.31 2.31 0 01.35-.18 2.65 2.65 0 01.37-.12 2 2 0 01.78 0 2.4 2.4 0 01.38.12 1.83 1.83 0 01.34.18 2.6 2.6 0 01.31.25 2 2 0 01.58 1.42 2 2 0 01-2 2z"/></g><g class="cls-4"><path class="cls-5" d="M92 103.64H66.27a2 2 0 010-4H92a2 2 0 010 4z"/></g><path class="cls-3" d="M29.19 38.17a9.54 9.54 0 01-3.32-.6 9.47 9.47 0 113.32.6zm0-15a5.5 5.5 0 105.23 7.22 5.51 5.51 0 00-.22-4 5.52 5.52 0 00-5.02-3.22z"/><path class="cls-6" d="M58.63 26.73H46.81a3.12 3.12 0 01-3.12-3.11v-4.91a3.12 3.12 0 013.12-3.11h11.82a3.12 3.12 0 013.12 3.11v4.91a3.12 3.12 0 01-3.12 3.11zm-10.94-4h10.06V19.6H47.69zm10.94-3.13zm14.91 63.9h-39.3a2 2 0 01-2-2V69.22a4.31 4.31 0 01-4.17-4.3v-1.1a4.31 4.31 0 014.17-4.3v-7.09a4.32 4.32 0 01-4.17-4.31V47a4.32 4.32 0 014.17-4.31v-1a2 2 0 014 0v3a2 2 0 01-2 2h-1.86a.31.31 0 00-.31.31v1.09a.31.31 0 00.31.31h1.86a2 2 0 012 2v11.12a2 2 0 01-2 2h-1.86a.3.3 0 00-.31.3v1.1a.3.3 0 00.31.3h1.86a2 2 0 012 2V79.5h35.3V67.22a2 2 0 012-2h1.87a.3.3 0 00.31-.3v-1.1a.3.3 0 00-.31-.3h-1.87a2 2 0 01-2-2V50.43a2 2 0 012-2h1.87a.31.31 0 00.31-.31V47a.31.31 0 00-.31-.31h-1.87a2 2 0 01-2-2V33.55H44.63a2 2 0 010-4h28.91a2 2 0 012 2v11.17A4.32 4.32 0 0179.72 47v1.09a4.32 4.32 0 01-4.18 4.31v7.09a4.31 4.31 0 014.18 4.3v1.1a4.31 4.31 0 01-4.18 4.3V81.5a2 2 0 01-2 2z"/><path class="cls-6" d="M65.94 49H41.85a2 2 0 010-4h24.09a2 2 0 010 4zm0 16.67H41.85a2 2 0 010-4h24.09a2 2 0 010 4zM76 90.31H31.76a3.69 3.69 0 01-3.69-3.69v-3.44a3.69 3.69 0 013.69-3.68H76a3.69 3.69 0 013.69 3.68v3.44A3.69 3.69 0 0176 90.31zm-44-4h43.72V83.5H32.07zm44-52.76H43.14a2 2 0 010-4h32.58v-2.82H42.59a2 2 0 010-4H76a3.7 3.7 0 013.69 3.69v3.44A3.7 3.7 0 0176 33.55zm0-6.82zm10.21 24.92a1.94 1.94 0 01-.84-.19 2 2 0 01-1-2.66l3.72-7.8a2 2 0 012.57-1l7.93 3.23a2 2 0 01-1.5 3.71l-6.18-2.52L88 50.5a2 2 0 01-1.79 1.15z"/><path class="cls-6" d="M91.68 83.94a2 2 0 01-.8-.16 2 2 0 01-1-2.63 44 44 0 00-1.63-38.42 2 2 0 113.52-1.89 47.91 47.91 0 011.78 41.89 2 2 0 01-1.87 1.21z"/></g></g></svg>