<svg xmlns="http://www.w3.org/2000/svg" viewBox="0 0 120 120"><defs><style>.cls-2{fill:#ffea27}.cls-3{mix-blend-mode:multiply}.cls-4{fill:#f4d314}.cls-5{fill:#95a6b1}</style></defs><g style="isolation:isolate"><g id="Capa_1" data-name="Capa 1"><path class="cls-2" d="M56.44 115.85H38.23a2 2 0 110-4h18.21a2 2 0 010 4zm21.93 0h-9.11a2 2 0 010-4h9.11a2 2 0 010 4zm12.8 0a2 2 0 01-2-2 2 2 0 012.39-2 1.58 1.58 0 01.37.11 1.7 1.7 0 01.35.19 1.76 1.76 0 01.3.24 2 2 0 01.59 1.42 2 2 0 01-.15.76 2 2 0 01-.44.65 2 2 0 01-1.41.63z"/><g class="cls-3"><path class="cls-4" d="M45.73 115.85H27.52a2 2 0 010-4h18.21a2 2 0 010 4z"/></g><path class="cls-2" d="M72.91 103.62H27.52a2 2 0 010-4h45.39a2 2 0 010 4z"/><g class="cls-3"><path class="cls-4" d="M27.52 103.62a2 2 0 01-1.41-.59 1.81 1.81 0 01-.25-.3 2.27 2.27 0 01-.19-.34 2.38 2.38 0 01-.11-.38 2.45 2.45 0 010-.39 2 2 0 01.59-1.41 2.06 2.06 0 012.83 0 2.48 2.48 0 01.25.3 2.31 2.31 0 01.18.35 1.58 1.58 0 01.11.37 1.72 1.72 0 010 .39 2.2 2.2 0 01-.15.77 2.21 2.21 0 01-.18.34 2.48 2.48 0 01-.25.3 2 2 0 01-1.42.59z"/></g><g class="cls-3"><path class="cls-4" d="M91.17 103.62H65.41a2 2 0 010-4h25.76a2 2 0 110 4z"/></g><path class="cls-5" d="M80.35 86.68h-8.42a2 2 0 010-4h6.42v-4.45H66.86a2 2 0 010-4h13.49a2 2 0 012 2v8.45a2 2 0 01-2 2zm15.82 0h-7.89a2 2 0 010-4h5.89v-4.45h-5.89a2 2 0 010-4h7.89a2 2 0 012 2v8.45a2 2 0 01-2 2z"/><path class="cls-5" d="M88.28 90.69h-7.93a2 2 0 01-2-2V72.17a2 2 0 012-2h7.93a2 2 0 012 2v16.52a2 2 0 01-2 2zm-5.93-4h3.93V74.17h-3.93zM60.23 67.74a37.15 37.15 0 01-13.46-2.57c-4.75-2-11.14-1.06-14.13 1.1A2 2 0 1130.3 63c3.93-2.85 11.76-4.2 18-1.54a32.35 32.35 0 0011.23 2.27c3.39.06 8-.42 11.08-3.18a2 2 0 112.69 3c-3.41 3.13-8.3 4.19-13.07 4.19z"/><path class="cls-5" d="M69.86 91.16H33.41a4.07 4.07 0 01-4.06-4.06V57.57a2 2 0 014 0V87.1l36.51.06.07-63.33-36.52-.06-.06 4.86a2 2 0 11-4 0v-4.8a4.06 4.06 0 014.06-4.06h36.45a4.07 4.07 0 014.07 4.06V87.1a4.08 4.08 0 01-4.07 4.06z"/><path class="cls-5" d="M48.39 35.3a2 2 0 010-4h28.07a2 2 0 110 4H48.39zm-22.2 42.97a2 2 0 110-4h26.75a2 2 0 010 4H26.18z"/><path class="cls-2" d="M31.35 51.92a9.37 9.37 0 116.88-3 9.39 9.39 0 01-6.88 3zm0-14.77a5.39 5.39 0 000 10.77 5.33 5.33 0 003.95-1.72 5.39 5.39 0 00-3.95-9.05z"/><path class="cls-5" d="M51.53 23.77h-12.8a2 2 0 01-2-2v-5.84a2 2 0 012-2h12.8a2 2 0 012 2v5.84a2 2 0 01-2 2zm-10.8-4h8.8v-1.84h-8.8z"/><path fill="none" d="M0 0h120v120H0z"/></g></g></svg>