<svg xmlns="http://www.w3.org/2000/svg" viewBox="0 0 120 120"><defs><style>.cls-3{fill:#ffea27}.cls-4{mix-blend-mode:multiply}.cls-5{fill:#f4d314}.cls-6{fill:#95a6b1}</style></defs><g style="isolation:isolate"><g id="Capa_1" data-name="Capa 1"><path fill="none" d="M0 0h120v120H0z"/><path class="cls-3" d="M56.13 116.37h-18.2a2 2 0 010-4h18.2a2 2 0 010 4zm21.94 0H69a2 2 0 110-4h9.11a2 2 0 010 4zm12.8 0a2 2 0 01-2-2 2 2 0 012.39-2 2.65 2.65 0 01.37.12 1.83 1.83 0 01.34.18 1.89 1.89 0 01.31.25 3.61 3.61 0 01.25.3 2.31 2.31 0 01.18.35 2.65 2.65 0 01.12.37 2.6 2.6 0 010 .4 2 2 0 01-2 2z"/><g class="cls-4"><path class="cls-5" d="M45.43 116.37H27.22a2 2 0 010-4h18.21a2 2 0 110 4z"/></g><path class="cls-3" d="M72.61 104.14H27.22a2 2 0 010-4h45.39a2 2 0 010 4z"/><g class="cls-4"><path class="cls-5" d="M27.22 104.14a2 2 0 01-1.41-.59 1.42 1.42 0 01-.25-.3 1.7 1.7 0 01-.19-.35 1.58 1.58 0 01-.11-.37 1.92 1.92 0 010-.78 2.38 2.38 0 01.11-.38 2.27 2.27 0 01.19-.34 1.79 1.79 0 01.25-.31 2.07 2.07 0 012.82 0 1.79 1.79 0 01.25.31 1.63 1.63 0 01.19.34 1.66 1.66 0 01.11.38 1.92 1.92 0 010 .78 1.58 1.58 0 01-.11.37 2.31 2.31 0 01-.18.35 1.87 1.87 0 01-.26.3 2 2 0 01-1.41.59z"/></g><g class="cls-4"><path class="cls-5" d="M90.86 104.14H65.11a2 2 0 010-4h25.75a2 2 0 010 4z"/></g><path class="cls-6" d="M91.47 90.42a2 2 0 01-1.08-3.68l5-3.22-5-3.39a2 2 0 012.24-3.32l7.54 5.1a2 2 0 010 3.34l-7.62 4.86a2 2 0 01-1.08.31z"/><path class="cls-6" d="M26.5 85.58a2 2 0 010-4h72.58a2 2 0 010 4z"/><path class="cls-3" d="M26.51 49.14a9.55 9.55 0 01-8.64-5.56 9.46 9.46 0 118.64 5.56zm0-15a5.5 5.5 0 00-1.92 10.66 5.44 5.44 0 004.21-.16 5.39 5.39 0 002.93-3.27 5.45 5.45 0 00-.22-4 5.43 5.43 0 00-3.08-2.87 5.52 5.52 0 00-1.93-.37z"/><path class="cls-6" d="M26.52 85.58a2 2 0 01-2-2V54.06a2 2 0 014 0v29.52a2 2 0 01-2 2zm0-57.77a2 2 0 01-2-2V11a2 2 0 114 0v14.81a2 2 0 01-2 2z"/><path class="cls-6" d="M21.67 20.54A2 2 0 0120 17.47l4.85-7.61a2 2 0 013.34 0l5.1 7.54A2 2 0 0130 19.59l-3.39-5-3.22 5.05a2 2 0 01-1.72.9zm63.77 51.62H44.71A4.73 4.73 0 0140 67.44V26.71A4.72 4.72 0 0144.71 22h40.73a4.72 4.72 0 014.72 4.72v40.72a4.73 4.73 0 01-4.72 4.72zM44.71 26a.72.72 0 00-.72.72v40.72a.72.72 0 00.72.72h40.73a.72.72 0 00.72-.72V26.71a.72.72 0 00-.72-.72z"/><path class="cls-6" d="M88.16 64.79a2 2 0 01-1.41-.59l-39-38.8a2 2 0 112.82-2.83l39 38.8a2 2 0 01-1.41 3.42zm-7.84 7.37a2 2 0 01-1.4-.58l-38.34-38a2 2 0 012.82-2.84l38.33 38a2 2 0 01-1.41 3.42zm7.84-24.31a2 2 0 01-1.39-.57l-22.4-21.86a2 2 0 012.8-2.86l22.39 21.86a2 2 0 01-1.4 3.43zM64.38 72.16a2 2 0 01-1.38-.57L40.59 49.73a2 2 0 112.8-2.86l22.39 21.86a2 2 0 01-1.4 3.43z"/></g></g></svg>