<svg xmlns="http://www.w3.org/2000/svg" viewBox="0 0 120 120"><defs><style>.cls-3{fill:#ffea27}.cls-4{mix-blend-mode:multiply}.cls-5{fill:#f4d314}.cls-6{fill:#95a6b1}</style></defs><g style="isolation:isolate"><g id="Capa_1" data-name="Capa 1"><path fill="none" d="M0 0h120v120H0z"/><path class="cls-3" d="M56.06 115.86H37.85a2 2 0 010-4h18.21a2 2 0 110 4zm21.94 0h-9.1a2 2 0 010-4H78a2 2 0 010 4zm12.79 0a1.72 1.72 0 01-.39 0 1.66 1.66 0 01-.38-.11 2.79 2.79 0 01-.34-.18 2.31 2.31 0 01-.74-.9 2 2 0 01-.15-.77 2 2 0 01.59-1.41 2.06 2.06 0 012.83 0 2 2 0 010 2.82 2.51 2.51 0 01-.31.26 2.21 2.21 0 01-.34.18 2.2 2.2 0 01-.77.15z"/><g class="cls-4"><path class="cls-5" d="M45.35 115.86h-18.2a2 2 0 110-4h18.2a2 2 0 110 4z"/></g><path class="cls-3" d="M72.53 103.64H27.15a2 2 0 110-4h45.38a2 2 0 010 4z"/><g class="cls-4"><path class="cls-5" d="M27.15 103.64a2 2 0 01-2-2 1.81 1.81 0 010-.4 1.73 1.73 0 01.11-.37 2.31 2.31 0 01.18-.35 3.61 3.61 0 01.25-.3 2 2 0 011.81-.55 2.65 2.65 0 01.37.12 2.31 2.31 0 01.35.18 2.48 2.48 0 01.3.25 2 2 0 01.59 1.42 2 2 0 01-.15.76 2 2 0 01-.44.65 2 2 0 01-1.37.59z"/></g><g class="cls-4"><path class="cls-5" d="M90.79 103.64H65a2 2 0 010-4h25.79a2 2 0 010 4z"/></g><path class="cls-6" d="M28.42 77.22h-3.24a2 2 0 010-4h3.24a2 2 0 010 4zm64.48.52h-3.24a2 2 0 010-4h3.24a2 2 0 010 4z"/><path class="cls-6" d="M92.89 82.31H25a2 2 0 01-2-2V59a2 2 0 012-2h67.89a2 2 0 012 2v21.31a2 2 0 01-2 2zm-65.89-4h63.89V61H27z"/><path class="cls-6" d="M25 84.32h-9.78a2 2 0 01-2-2V57a2 2 0 012-2H25a2 2 0 012 2v25.32a2 2 0 01-2 2zm-7.81-4H23V59h-5.78z"/><path class="cls-6" d="M28.38 71.65h-3.2a2 2 0 010-4h3.2a2 2 0 010 4zm.04-5.59h-3.24a2 2 0 010-4h3.24a2 2 0 010 4zm74.3 18.26H92.9a2 2 0 01-2-2V57a2 2 0 012-2h9.82a2 2 0 012 2v25.32a2 2 0 01-2 2zm-7.82-4h5.82V59H94.9z"/><path class="cls-6" d="M92.9 71.66h-3.29a2 2 0 110-4h3.29a2 2 0 010 4zm0-6.11h-3.24a2 2 0 010-4h3.24a2 2 0 010 4zM63.25 82.31a2 2 0 01-2-2v-9.58a2 2 0 014 0v9.58a2 2 0 01-2 2zm0-16.76a2 2 0 01-2-2V59a2 2 0 014 0v4.55a2 2 0 01-2 2z"/><path class="cls-3" d="M39.85 52.19a9.33 9.33 0 01-3.32-.61 9.43 9.43 0 01-5.33-4.95 9.5 9.5 0 1112.59 4.69 9.41 9.41 0 01-3.94.87zm0-15a5.5 5.5 0 00-1.92 10.66 5.44 5.44 0 004.21-.16 5.39 5.39 0 002.93-3.27 5.45 5.45 0 00-.22-4 5.43 5.43 0 00-3.08-2.87 5.52 5.52 0 00-1.93-.37z"/><path class="cls-6" d="M74.29 61h-29a2 2 0 01-2-2v-3.72a2 2 0 014 0V57h25V45.39h-18.7a2 2 0 010-4h20.7a2 2 0 012 2V59a2 2 0 01-2 2z"/><path class="cls-6" d="M59.77 45.39a2 2 0 01-2-2v-9.53a2 2 0 014 0v9.53a2 2 0 01-2 2z"/><path class="cls-6" d="M66.44 35.86H53.59a2 2 0 010-4h12.85a2 2 0 010 4zm7.85 17.34H53.48a2 2 0 010-4h20.81a2 2 0 010 4z"/></g></g></svg>