<svg version="1.1" id="Layer_1" xmlns="http://www.w3.org/2000/svg" x="0" y="0" viewBox="0 0 120 120" xml:space="preserve"><style>.st1{fill:#ffea27}.st2{fill:#f4d314}</style><g id="Capa_1"><path fill="none" d="M0 0h120v120H0z"/><path class="st1" d="M57.1 115.8H38.9c-1.1 0-2-.9-2-2s.9-2 2-2h18.2c1.1 0 2 .9 2 2s-.9 2-2 2zm21.9 0h-9.1c-1.1 0-2-.9-2-2s.9-2 2-2H79c1.1 0 2 .9 2 2s-.9 2-2 2zm12.8 0c-1.1 0-2-.9-2-2 0-.5.2-1 .6-1.4.8-.7 2-.7 2.8 0 .4.4.6.9.6 1.4 0 .3-.1.5-.2.8-.1.2-.2.5-.4.7-.2.2-.4.3-.7.4-.2.1-.4.2-.7.1z"/><path class="st2" d="M46.4 115.8H28.2c-1.1 0-2-.9-2-2s.9-2 2-2h18.2c1.1 0 2 .9 2 2s-.9 2-2 2z"/><path class="st1" d="M73.6 103.6H28.2c-1.1 0-2-.9-2-2s.9-2 2-2h45.4c1.1 0 2 .9 2 2s-.9 2-2 2z"/><path class="st2" d="M28.2 103.6c-.5 0-1-.2-1.4-.6-.1-.1-.2-.2-.2-.3-.1-.1-.1-.2-.2-.3-.1-.2-.1-.5-.1-.8 0-.5.2-1 .6-1.4.1-.1.2-.2.3-.2.1-.1.2-.1.3-.2l.4-.1c.7-.1 1.3.1 1.8.6.1.1.2.2.2.3.1.1.1.2.2.3 0 .1.1.2.1.4v.8c0 .1-.1.3-.1.4 0 .1-.1.2-.2.3-.1.1-.2.2-.2.3-.5.3-1 .5-1.5.5zm63.6 0H66.1c-1.1 0-2-.9-2-2s.9-2 2-2h25.8c1.1 0 2 .9 2 2s-1 2-2.1 2z"/><path class="st1" d="M19.7 34.5c-5.2 0-9.4-4.2-9.4-9.4s4.2-9.4 9.4-9.4 9.4 4.2 9.4 9.4c0 2.4-.9 4.7-2.5 6.4-1.8 1.9-4.3 3-6.9 3zm0-14.8c-3-.1-5.5 2.2-5.6 5.2-.1 3 2.2 5.5 5.2 5.6h.5c3 0 5.4-2.4 5.4-5.4-.1-3-2.5-5.4-5.5-5.4z"/><path d="M112 60.2c-.2-1.1-1.3-1.8-2.3-1.6h-4.3v-5.9c0-1.1-.9-2-2-2H94V34.2h4.9c1.1-.2 1.8-1.3 1.6-2.3-.2-1.1-1.3-1.8-2.3-1.6H94v-5.9c0-1.1-.9-2-2-2H33.8c-.8.2-1.4.8-1.6 1.6-.2 1.1.5 2.1 1.6 2.3h3.4v4h-3.4c-.8.2-1.4.8-1.6 1.6-.2 1.1.5 2.1 1.6 2.3H90v16.5H40.1c-1 0-1.8.7-2 1.6 0 .1-.1.2-.1.4v5.9h-4.2c-.8.2-1.4.8-1.6 1.6-.2 1.1.5 2.1 1.6 2.3h4.3v25H21.2v-34h8c.8-.2 1.4-.8 1.6-1.6.2-1.1-.5-2.1-1.6-2.3h-8V38.8c-.2-1.1-1.2-1.8-2.3-1.6-1.1.2-1.8 1.3-1.6 2.3v49.9c0 1.1.9 2 2 2h84.1c1.1 0 2-.9 2-2V62.5h5c1.1-.2 1.8-1.2 1.6-2.3zM51.8 30.3H41.1v-4h10.7v4zm21.9 0h-18v-4h18v4zm3.9 0v-4H90v4H77.6zm-3.1 24.4H90v4H74.5v-4zm-19.4 0h15.5v4H55.1v-4zm-13.1 0h9.2v4H42v-4zm59.4 23.2H61c-.3-.1-.5-.1-.8 0-1.1.2-1.8 1.3-1.6 2.4.2 1.1 1.3 1.8 2.4 1.6h40.4v5.6H42v-5.6h8c.3.1.5.1.8 0 1.1-.2 1.8-1.3 1.6-2.4-.2-1.1-1.3-1.8-2.4-1.6h-8V62.5h59.4v15.4zm0-19.3h-7.5v-4h7.5v4z" fill="#95a6b1"/></g></svg>