<svg xmlns="http://www.w3.org/2000/svg" viewBox="0 0 120 120"><defs><style>.cls-2{fill:#ffea27}.cls-3{mix-blend-mode:multiply}.cls-4{fill:#f4d314}.cls-5{fill:#95a6b1}</style></defs><g style="isolation:isolate"><g id="Capa_1" data-name="Capa 1"><path class="cls-2" d="M52.8 115.86H34.59a2 2 0 110-4H52.8a2 2 0 010 4zm21.93 0h-9.1a2 2 0 110-4h9.1a2 2 0 010 4zm12.8 0a1.72 1.72 0 01-.39 0 1.58 1.58 0 01-.37-.11 2.31 2.31 0 01-.35-.18 2.31 2.31 0 01-.74-.9 2 2 0 01-.15-.77 2 2 0 01.59-1.41 2 2 0 011.8-.55 1.68 1.68 0 01.38.12 1.59 1.59 0 01.34.18 1.79 1.79 0 01.31.25 2 2 0 01-1.42 3.41z"/><g class="cls-3"><path class="cls-4" d="M42.09 115.86h-18.2a2 2 0 010-4h18.2a2 2 0 010 4z"/></g><path class="cls-2" d="M69.27 103.64H23.89a2 2 0 010-4h45.38a2 2 0 010 4z"/><g class="cls-3"><path class="cls-4" d="M23.89 103.64a2 2 0 01-1.42-.59 2.16 2.16 0 01-.43-.65 2 2 0 01-.15-.76 1.81 1.81 0 010-.4 1.73 1.73 0 01.11-.37 2.31 2.31 0 01.18-.35 3.61 3.61 0 01.25-.3l.31-.25a2.21 2.21 0 01.34-.18 2.4 2.4 0 01.38-.12 2 2 0 01.78 0 2.29 2.29 0 01.37.12 2.31 2.31 0 01.39.21 2.48 2.48 0 01.3.25 2.34 2.34 0 01.25.3 2.31 2.31 0 01.18.35 2.65 2.65 0 01.12.37 2.71 2.71 0 010 .4 2 2 0 01-.15.76 2 2 0 01-.44.65 2 2 0 01-1.37.56z"/></g><g class="cls-3"><path class="cls-4" d="M87.53 103.64H61.77a2 2 0 110-4h25.76a2 2 0 010 4z"/></g><path class="cls-2" d="M35.71 37.22a9.54 9.54 0 01-3.32-.6 9.5 9.5 0 1112-12.85 9.5 9.5 0 01-8.64 13.45zm0-15a5.56 5.56 0 00-2.29.5 5.51 5.51 0 104.21-.15 5.38 5.38 0 00-1.92-.35z"/><path class="cls-5" d="M64.13 25.59H52.3a3.12 3.12 0 01-3.11-3.11v-4.91a3.11 3.11 0 013.11-3.11h11.83a3.11 3.11 0 013.11 3.11v4.91a3.11 3.11 0 01-3.11 3.11zm-10.94-4h10.05v-3.13H53.19zm10.94-3.13zM79 82.35H39.74a2 2 0 01-2-2V68.08a4.32 4.32 0 01-4.17-4.31v-1.1a4.31 4.31 0 014.17-4.3v-7.09A4.31 4.31 0 0133.57 47v-1.1a4.31 4.31 0 014.17-4.3v-1a2 2 0 014 0v3a2 2 0 01-2 2h-1.87a.31.31 0 00-.3.31V47a.3.3 0 00.3.3h1.87a2 2 0 012 2v11.07a2 2 0 01-2 2h-1.87a.31.31 0 00-.3.3v1.1a.31.31 0 00.3.31h1.87a2 2 0 012 2v12.27H77V66.08a2 2 0 012-2h1.87a.31.31 0 00.3-.31v-1.1a.31.31 0 00-.3-.3H79a2 2 0 01-2-2V49.28a2 2 0 012-2h1.87a.3.3 0 00.3-.3v-1.1a.31.31 0 00-.3-.31H79a2 2 0 01-2-2V32.4H50.13a2 2 0 010-4H79a2 2 0 012 2v11.18a4.31 4.31 0 014.17 4.3V47A4.31 4.31 0 0181 51.28v7.09a4.31 4.31 0 014.17 4.3v1.1A4.32 4.32 0 0181 68.08v12.27a2 2 0 01-2 2z"/><path class="cls-5" d="M81.52 89.16H37.25a3.68 3.68 0 01-3.68-3.68V82a3.69 3.69 0 013.68-3.69h44.27A3.69 3.69 0 0185.21 82v3.44a3.69 3.69 0 01-3.69 3.72zm-43.95-4h43.64v-2.81H37.57zM81.52 32.4H48.63a2 2 0 010-4h32.58v-2.81H48.09a2 2 0 010-4h33.43a3.69 3.69 0 013.69 3.68v3.44a3.69 3.69 0 01-3.69 3.69zm0-6.81zM69.27 63.37H60.2A2 2 0 0158.8 60l7.91-7.83A1.92 1.92 0 0065.19 49a1.92 1.92 0 00-1.92 2 2 2 0 01-4 0 5.92 5.92 0 1110.46 3.78.86.86 0 01-.13.14l-4.53 4.49h4.2a2 2 0 010 4z"/><path class="cls-5" d="M54.26 63.37a2 2 0 01-2-2v-1.51h-5.95a2 2 0 01-1.61-3.19l8-10.63a2 2 0 013.6 1.2v8.62h1.05a2 2 0 010 4h-1.09v1.51a2 2 0 01-2 2zm-4-7.51h2v-2.61z"/><path fill="none" d="M0 0h119.56v119.56H0z"/></g></g></svg>