<svg xmlns="http://www.w3.org/2000/svg" viewBox="0 0 120 120"><defs><style>.cls-2{fill:#ffea27}.cls-3{mix-blend-mode:multiply}.cls-4{fill:#f4d314}.cls-5{fill:#94a5b0}.cls-6{fill:#95a6b1}</style></defs><g style="isolation:isolate"><g id="Capa_1" data-name="Capa 1"><path class="cls-2" d="M53.4 115.85H35.2a2 2 0 010-4h18.2a2 2 0 110 4zm21.94 0h-9.11a2 2 0 110-4h9.11a2 2 0 010 4zm12.8 0a2 2 0 01-1.42-.59 2.16 2.16 0 01-.43-.65 2 2 0 01-.15-.76 1.72 1.72 0 010-.39 1.66 1.66 0 01.11-.38 2.21 2.21 0 01.18-.34 3.76 3.76 0 01.25-.31 2 2 0 011.81-.54 1.58 1.58 0 01.37.11 1.7 1.7 0 01.35.19 1.76 1.76 0 01.3.24 2 2 0 01.59 1.42 2 2 0 01-.59 1.41 2.34 2.34 0 01-.3.25 2.37 2.37 0 01-.35.19 2.26 2.26 0 01-.37.11 2.58 2.58 0 01-.35.04z"/><g class="cls-3"><path class="cls-4" d="M42.7 115.85H24.49a2 2 0 010-4H42.7a2 2 0 110 4z"/></g><path class="cls-2" d="M69.88 103.62H24.49a2 2 0 110-4h45.39a2 2 0 010 4z"/><g class="cls-3"><path class="cls-4" d="M24.49 103.62a2 2 0 01-1.41-.59 2 2 0 01-.59-1.41 2.58 2.58 0 010-.39 2.29 2.29 0 01.12-.37 2.31 2.31 0 01.18-.35 1.81 1.81 0 01.25-.3 2 2 0 011.8-.55l.38.11a1.86 1.86 0 01.34.19 1.79 1.79 0 01.31.25 2 2 0 01.58 1.41 2.2 2.2 0 01-.15.77 2.21 2.21 0 01-.18.34 2.48 2.48 0 01-.25.3 2.51 2.51 0 01-.31.26 2.21 2.21 0 01-.34.18 1.73 1.73 0 01-.37.11 1.75 1.75 0 01-.36.04z"/></g><g class="cls-3"><path class="cls-4" d="M88.14 103.62H62.38a2 2 0 110-4h25.76a2 2 0 010 4z"/></g><path class="cls-2" d="M26.34 50.86a9.54 9.54 0 01-3.32-.6 9.38 9.38 0 01-5.32-4.95 9.5 9.5 0 1117.3-7.9 9.5 9.5 0 01-8.63 13.45zm0-15a5.43 5.43 0 00-2.28.5 5.5 5.5 0 004.57 10 5.43 5.43 0 002.94-3.27 5.5 5.5 0 00-5.23-7.23z"/><g id="Grupo_6636" data-name="Grupo 6636"><path class="cls-5" d="M44.53 35.85a2 2 0 01-2-2v-5.73a2 2 0 014 0v5.73a2 2 0 01-2 2z" id="Línea_1013" data-name="Línea 1013"/><path class="cls-5" d="M52.92 35.85a2 2 0 01-2-2v-5.73a2 2 0 014 0v5.73a2 2 0 01-2 2z" id="Línea_1014" data-name="Línea 1014"/><path class="cls-5" d="M66.33 42.75a2 2 0 01-1.33-.52l-.37-.34a15.57 15.57 0 00-1.35-1.19l-11.17-5a2 2 0 111.63-3.7L65 37.09A10.07 10.07 0 0167.37 39l.31.29a2 2 0 01-1.35 3.48z" id="Trazado_5699" data-name="Trazado 5699"/><path class="cls-5" d="M60.21 67.07H28.92a2 2 0 01-2-2V54.63a2 2 0 014 0v8.44h29.29a2 2 0 110 4z" id="Trazado_5700" data-name="Trazado 5700"/><path class="cls-5" d="M38.81 38.43a2 2 0 01-.81-3.82L43.71 32a2 2 0 011.64 3.64l-5.73 2.57a1.8 1.8 0 01-.81.22z" id="Línea_1015" data-name="Línea 1015"/><path class="cls-5" d="M48.72 40.6a2 2 0 01-1.5-.67L43 35.17a2 2 0 013-2.65l4.19 4.76A2 2 0 0150 40.1a2 2 0 01-1.28.5z" id="Línea_1016" data-name="Línea 1016"/><path class="cls-5" d="M48.72 40.6a2 2 0 01-1.32-.5 2 2 0 01-.18-2.82l4.2-4.76a2 2 0 013 2.65l-4.2 4.76a2 2 0 01-1.5.67z" id="Línea_1017" data-name="Línea 1017"/><path class="cls-5" d="M48.69 31.33a9.92 9.92 0 01-9.9-9.9 2 2 0 014 0 5.9 5.9 0 0011.8 0 2 2 0 014 0 9.92 9.92 0 01-9.9 9.9z" id="Trazado_5701" data-name="Trazado 5701"/><path class="cls-5" d="M56.58 23.43a2 2 0 01-2-2V16a5.9 5.9 0 10-11.8 0v5.46a2 2 0 01-4 0V16a9.9 9.9 0 1119.8 0v5.46a2 2 0 01-2 1.97z" id="Trazado_5702" data-name="Trazado 5702"/></g><path class="cls-6" d="M79.05 42.75h-9.14a2.86 2.86 0 01-2.85-2.86V36.1a2.86 2.86 0 012.85-2.86h9.14a2.86 2.86 0 012.86 2.86v3.79a2.86 2.86 0 01-2.86 2.86zm-8-4h6.85v-1.51h-6.84zm8-1.51zM90.57 86.6H60.21a2 2 0 01-2-2v-9.06A3.79 3.79 0 0155 71.8V71a3.78 3.78 0 013.22-3.74v-4.7A3.78 3.78 0 0155 58.82V58a3.79 3.79 0 013.22-3.74V46a2 2 0 014 0v10.19a2 2 0 01-2 2H59v.41h1.22a2 2 0 012 2v8.57a2 2 0 01-2 2H59v.41h1.22a2 2 0 012 2v9h26.35v-9a2 2 0 012-2h1.22v-.41h-1.22a2 2 0 01-2-2V60.6a2 2 0 012-2h1.22v-.41h-1.22a2 2 0 01-2-2V46a2 2 0 014 0v8.21A3.79 3.79 0 0195.79 58v.85a3.78 3.78 0 01-3.22 3.74v4.65A3.78 3.78 0 0195.79 71v.85a3.79 3.79 0 01-3.22 3.74v9.01a2 2 0 01-2 2z"/><path class="cls-6" d="M84.69 59.91h-18.6a2 2 0 010-4h18.6a2 2 0 010 4zm0 12.92h-18.6a2 2 0 010-4h18.6a2 2 0 010 4zm7.8 19.04h-34.2a3.3 3.3 0 01-3.3-3.3v-2.66a3.31 3.31 0 013.3-3.31h34.2a3.31 3.31 0 013.3 3.31v2.66a3.3 3.3 0 01-3.3 3.3zm-33.5-4h32.8V86.6H59zM92.36 48h-34.2a3.31 3.31 0 01-3.31-3.31v-2.64a3.31 3.31 0 013.31-3.3h34.2a3.3 3.3 0 013.3 3.3v2.66a3.31 3.31 0 01-3.3 3.29zm-33.51-4h32.81v-1.25H58.85z"/><path fill="none" d="M0 0h120v120H0z"/></g></g></svg>