<svg xmlns="http://www.w3.org/2000/svg" viewBox="0 0 120 120"><defs><style>.cls-3{fill:#ffea27}.cls-4{mix-blend-mode:multiply}.cls-5{fill:#f4d314}.cls-6{fill:#95a6b1}</style></defs><g style="isolation:isolate"><g id="Capa_1" data-name="Capa 1"><path fill="none" d="M0 0h120v120H0z"/><path class="cls-3" d="M57.68 116.23h-18.2a2 2 0 010-4h18.2a2 2 0 010 4zm21.93 0h-9.1a2 2 0 010-4h9.1a2 2 0 010 4zm12.8 0a2 2 0 01-.76-.15 2 2 0 01-.65-.44 1.88 1.88 0 01-.44-.64 2 2 0 01-.15-.77 2 2 0 01.59-1.41 2.06 2.06 0 012.83 0 2 2 0 01.58 1.41 2 2 0 01-.15.77 1.85 1.85 0 01-.43.64 2 2 0 01-1.42.59z"/><g class="cls-4"><path class="cls-5" d="M47 116.23H28.77a2 2 0 110-4H47a2 2 0 110 4z"/></g><path class="cls-3" d="M74.15 104H28.77a2 2 0 010-4h45.38a2 2 0 010 4z"/><g class="cls-4"><path class="cls-5" d="M28.77 104a2 2 0 01-1.42-3.42 2.42 2.42 0 01.31-.25 2.21 2.21 0 01.34-.18 2.78 2.78 0 01.38-.12 2 2 0 011.8.55 2 2 0 01-1.41 3.42z"/></g><g class="cls-4"><path class="cls-5" d="M92.41 104H66.65a2 2 0 010-4h25.76a2 2 0 010 4z"/></g><path class="cls-6" d="M42.8 66.74H31.56a2 2 0 110-4H42.8a2 2 0 110 4zm38.77-21.53a1.72 1.72 0 01-.39 0 1.58 1.58 0 01-.37-.11 2.31 2.31 0 01-.35-.18 2.31 2.31 0 01-.74-.9 2 2 0 01-.15-.77 2 2 0 01.59-1.41 2 2 0 012.82 0 2 2 0 01-1.41 3.41zm-14.51 0H33.12a2 2 0 01-2-2v-5.94a2 2 0 014 0v3.94h31.94a2 2 0 010 4z"/><path class="cls-3" d="M31.74 33.27a9.5 9.5 0 01-4-18.14 9.5 9.5 0 0112.59 4.69 9.5 9.5 0 01-8.63 13.45zm0-15a5.52 5.52 0 00-5.14 3.58 5.5 5.5 0 105.14-3.58z"/><path class="cls-6" d="M87.56 45.21h-6a2 2 0 010-4h4v-15.9a.23.23 0 00-.23-.23H46a2 2 0 110-4h39.33a4.24 4.24 0 014.23 4.23v17.9a2 2 0 01-2 2z"/><path class="cls-6" d="M78.3 25.08H51.2a2 2 0 01-2-2v-6.54a4.12 4.12 0 014.12-4.11h23.16a3.82 3.82 0 013.82 3.82v6.83a2 2 0 01-2 2zm-25.1-4h23.1v-4.65h-23a.11.11 0 00-.12.11zm23.28-4.65zm11.16 16.15H45.3a2 2 0 010-4h42.34a2 2 0 010 4zM24.25 73.44a2 2 0 01-2-2V45.77a4.54 4.54 0 014.54-4.54h40.27a2 2 0 010 4H26.79a.54.54 0 00-.54.54v25.67a2 2 0 01-2 2zm72.75 0a2 2 0 01-2-2v-26a.2.2 0 00-.19-.19H81.62a2 2 0 010-4h13.19A4.2 4.2 0 0199 45.42v26a2 2 0 01-2 2.02z"/><path class="cls-6" d="M24.25 52.08a2 2 0 010-4h25.84a2 2 0 110 4z"/><path fill="#fff" d="M42.81 50.06v21.38"/><path class="cls-6" d="M42.81 73.44a2 2 0 01-2-2V50.06a2 2 0 014 0v21.38a2 2 0 01-2 2z"/><path class="cls-6" d="M42.8 58.75H31.56a2 2 0 010-4H42.8a2 2 0 010 4z"/><path class="cls-6" d="M31.53 73.44a2 2 0 01-2-2V50.06a2 2 0 014 0v21.38a2 2 0 01-2 2zm18.56 0a2 2 0 01-2-2V43.21a2 2 0 014 0v28.23a2 2 0 01-2 2zm31.46-17.09H67a2 2 0 01-1.42-.59 2 2 0 01-.58-1.42V43.26a2 2 0 012-2 2 2 0 012 2v9.07h10.55v-9.1a2 2 0 014 0v11.1a2 2 0 01-2 2.02zM58.1 25.08a2 2 0 01-2-2v-8.65a2 2 0 014 0v8.65a2 2 0 01-2 2zm6.65 0a2 2 0 01-2-2v-8.65a2 2 0 014 0v8.65a2 2 0 01-2 2zm6.88 0a2 2 0 01-2-2v-8.65a2 2 0 014 0v8.65a2 2 0 01-2 2zm17.63 32a2 2 0 01-2-2V43.25a2 2 0 114 0v11.83a2 2 0 01-2 2zm-30.71 0a2 2 0 01-2-2V43.25a2 2 0 014 0v11.83a2 2 0 01-2 2z"/><path class="cls-6" d="M97 73.44H24.25a2 2 0 010-4H97a2 2 0 010 4zm-7.29 19.67h-6.82a2 2 0 01-2-2v-12.7a2 2 0 012-2h6.82a2 2 0 012 2v12.7a2 2 0 01-2 2zm-4.82-4h2.82v-8.7h-2.82z"/><path class="cls-6" d="M82.89 91.75H65a12 12 0 01-12-12v-8.31a2 2 0 012-2h10a2 2 0 012 2v5.68a.61.61 0 00.61.61h15.28a2 2 0 012 2v10a2 2 0 01-2 2.02zM57 73.44v6.29a8 8 0 008 8h15.89v-6H67.6a4.62 4.62 0 01-4.6-4.61v-3.68z"/></g></g></svg>