<svg xmlns="http://www.w3.org/2000/svg" viewBox="0 0 120 120"><defs><style>.cls-2{fill:none}.cls-3{fill:#ffea27}.cls-4{mix-blend-mode:multiply}.cls-5{fill:#f4d314}.cls-6{fill:#95a6b1}</style></defs><g style="isolation:isolate"><g id="Capa_1" data-name="Capa 1"><path class="cls-2" d="M0 0h120v120H0z"/><path class="cls-3" d="M53.29 115.89H35.08a2 2 0 010-4h18.21a2 2 0 110 4zm21.93 0h-9.1a2 2 0 010-4h9.1a2 2 0 010 4zm12.78 0a2 2 0 01-1.42-.58 3.76 3.76 0 01-.25-.31 1.83 1.83 0 01-.18-.34 1.73 1.73 0 01-.11-.37 1.75 1.75 0 010-.4 2.09 2.09 0 01.15-.76 1.7 1.7 0 01.19-.35 2.25 2.25 0 01.24-.3 2.06 2.06 0 012.83 0 1.73 1.73 0 01.25.3 2.37 2.37 0 01.19.35 2.59 2.59 0 01.11.37 1.72 1.72 0 010 .39 1.75 1.75 0 010 .4 1.73 1.73 0 01-.11.37 1.41 1.41 0 01-.19.34 1.79 1.79 0 01-.25.31 2 2 0 01-1.45.58z"/><g class="cls-4"><path class="cls-5" d="M42.58 115.89H24.37a2 2 0 110-4h18.21a2 2 0 010 4z"/></g><path class="cls-3" d="M69.76 103.67H24.37a2 2 0 010-4h45.39a2 2 0 010 4z"/><g class="cls-4"><path class="cls-5" d="M24.38 103.67a2 2 0 01-1.42-.59 2 2 0 01-.58-1.41 2.56 2.56 0 010-.39 2.4 2.4 0 01.12-.38 2.21 2.21 0 01.18-.34 2.42 2.42 0 01.25-.31 2 2 0 011.81-.54 1.73 1.73 0 01.37.11 1.7 1.7 0 01.35.19 2.25 2.25 0 01.3.24 3.76 3.76 0 01.25.31 2.21 2.21 0 01.18.34 1.66 1.66 0 01.11.38 1.72 1.72 0 010 .39 2 2 0 01-2 2z"/></g><g class="cls-4"><path class="cls-5" d="M88 103.67H62.26a2 2 0 010-4H88a2 2 0 010 4z"/></g><path class="cls-6" d="M101.38 70H89.13a2 2 0 01-2-2V43.19a2 2 0 012-2h12.25a2 2 0 012 2V68a2 2 0 01-2 2zm-10.25-4h8.25V45.19h-8.25z"/><path class="cls-6" d="M108.29 74.94h-5.19a3.73 3.73 0 01-3.72-3.72V40a3.73 3.73 0 013.72-3.72h5.19A3.73 3.73 0 01112 40v31.22a3.73 3.73 0 01-3.71 3.72zm-4.91-4H108V40.27h-4.63zM29.9 70H17.65a2 2 0 01-2-2V43.19a2 2 0 012-2H29.9a2 2 0 012 2V68a2 2 0 01-2 2zm-10.25-4h8.25V45.19h-8.25z"/><path class="cls-6" d="M15.93 74.94h-5.18A3.73 3.73 0 017 71.22V40a3.73 3.73 0 013.72-3.72h5.18A3.73 3.73 0 0119.65 40v31.22a3.73 3.73 0 01-3.72 3.72zm-4.9-4h4.62V40.27H11zm78.1-2.57H29.9a2 2 0 01-2-2V44.49a2 2 0 012-2h59.23a2 2 0 012 2v21.88a2 2 0 01-2 2zm-57.23-4h55.23V46.49H31.9z"/><path d="M49.4 68.37a2 2 0 01-1.82-1.17l-10-21.88a2 2 0 113.64-1.66l10 21.88a2 2 0 01-1 2.65 2 2 0 01-.82.18zm15.18 0a2 2 0 01-1.82-1.17l-10-21.88a2 2 0 113.64-1.66l10 21.88a2 2 0 01-1 2.65 2 2 0 01-.82.18zm15.42 0a2 2 0 01-1.82-1.17l-10-21.88a2 2 0 013.64-1.66l9.95 21.88a2 2 0 01-1 2.65 2 2 0 01-.77.18z" fill="#94a5b0"/><path class="cls-3" d="M40.14 31.93a9.49 9.49 0 118.62-13.44 9.49 9.49 0 01-8.62 13.44zm0-15a5.5 5.5 0 102.29 10.51 5.5 5.5 0 002.72-7.29 5.46 5.46 0 00-3.08-2.87 5.62 5.62 0 00-1.95-.35z"/><path class="cls-6" d="M105.69 88.53a9.36 9.36 0 01-6.36-2.43 5.63 5.63 0 00-7.8 0 9.52 9.52 0 01-12.71 0 5.63 5.63 0 00-7.8 0 9.54 9.54 0 01-12.72 0 5.63 5.63 0 00-7.8 0 9.54 9.54 0 01-12.72 0 5.63 5.63 0 00-7.81 0 9.58 9.58 0 01-12.73 0 5.47 5.47 0 00-3.9-1.58 2 2 0 010-4A9.34 9.34 0 0119.7 83a5.62 5.62 0 007.81 0 9.58 9.58 0 0112.73 0A5.6 5.6 0 0048 83a9.57 9.57 0 0112.72 0 5.6 5.6 0 007.8 0 9.57 9.57 0 0112.72 0 5.59 5.59 0 007.79 0 9.57 9.57 0 0112.72 0 5.5 5.5 0 003.9 1.58 2 2 0 010 4zM19.85 28.59A6 6 0 0115 25.86c-.82-1-1.1-1.27-1.7-1.27a2 2 0 010-4 6 6 0 014.81 2.74c.82 1 1.1 1.26 1.7 1.26s.88-.25 1.7-1.26a6 6 0 014.81-2.74 2 2 0 010 4c-.6 0-.88.26-1.71 1.27a5.94 5.94 0 01-4.76 2.73zm85.84 0a9.3 9.3 0 01-6.34-2.42 5.53 5.53 0 00-7.74 0 9.51 9.51 0 01-12.68 0 5.54 5.54 0 00-7.75 0 9.51 9.51 0 01-12.68 0 5.44 5.44 0 00-3.88-1.58 2 2 0 010-4A9.28 9.28 0 0161 23a5.58 5.58 0 007.76 0 9.49 9.49 0 0112.64 0 5.55 5.55 0 007.74 0 9.49 9.49 0 0112.68 0 5.47 5.47 0 003.87 1.57 2 2 0 010 4z"/><path class="cls-2" d="M0 0h120v120H0z"/></g></g></svg>