<svg xmlns="http://www.w3.org/2000/svg" viewBox="0 0 536 536"><defs><style>.cls-2{fill:#28347d}</style></defs><g id="Cir_Verde" data-name="Cir Verde"><path d="M115.13 131.86a53.55 53.55 0 11-53.54 53.55 53.55 53.55 0 0153.54-53.55z" fill="#33c976"/><path class="cls-2" d="M115.13 240.21a54.8 54.8 0 1154.8-54.8 54.87 54.87 0 01-54.8 54.8zm0-107.1a52.3 52.3 0 1052.3 52.3 52.36 52.36 0 00-52.3-52.3z"/><path class="cls-2" d="M83.84 203.15a.83.83 0 01-.6-.25.85.85 0 010-1.2l10-10a13.23 13.23 0 0110.25-3.85l6.14.4h13.23a4.53 4.53 0 010 9.05h-11.27a.85.85 0 010-1.7h11.25a2.83 2.83 0 000-5.65h-13.35l-6.13-.41a11.57 11.57 0 00-8.94 3.37l-10 10a.82.82 0 01-.58.24z"/><path class="cls-2" d="M93.71 213a.85.85 0 01-.61-1.45l5-5a8.26 8.26 0 015.88-2.43h17a7 7 0 003.61-1l21.48-13a2.67 2.67 0 00-2.77-4.57l-13.17 8a.85.85 0 01-1.16-.29.83.83 0 01.28-1.16l13.17-8a4.37 4.37 0 016 1.48 4.37 4.37 0 01-1.48 6l-21.48 13a8.67 8.67 0 01-4.49 1.26H104a6.56 6.56 0 00-4.68 1.93l-5 5a.85.85 0 01-.61.23zm35.73-24.37a.83.83 0 01-.65-.31.84.84 0 01.11-1.19 18.44 18.44 0 10-26.63-3.3.85.85 0 01-1.37 1 20.14 20.14 0 1129.08 3.6.83.83 0 01-.54.2z"/><path class="cls-2" d="M119.27 182.89a.85.85 0 01-.85-.85v-13.78a.85.85 0 01.85-.85h4.83v-2.75h-13.93v2.75H115a.85.85 0 01.85.85V182a.85.85 0 11-1.7 0v-12.89h-4.84a.85.85 0 01-.85-.85v-4.45a.85.85 0 01.85-.85H125a.85.85 0 01.85.85v4.45a.85.85 0 01-.85.85h-4.83V182a.85.85 0 01-.9.89z"/></g></svg>