<svg xmlns="http://www.w3.org/2000/svg" viewBox="0 0 536 536"><defs><style>.cls-2{fill:#28347d}</style></defs><g id="Cir_Amarillo" data-name="Cir Amarillo"><path d="M233.29 131.86a53.55 53.55 0 11-53.55 53.55 53.55 53.55 0 0153.55-53.55z" fill="#fd0"/><path class="cls-2" d="M233.28 240.21a54.8 54.8 0 1154.8-54.8 54.87 54.87 0 01-54.8 54.8zm0-107.1a52.3 52.3 0 1052.3 52.3 52.36 52.36 0 00-52.3-52.3z"/><path class="cls-2" d="M268.31 194.32H243a.85.85 0 010-1.7h24.49v-23.51h-33.34v14.08a.85.85 0 01-1.7 0v-14.93a.85.85 0 01.85-.85h35a.85.85 0 01.85.85v25.21a.85.85 0 01-.84.85z"/><path class="cls-2" d="M269.83 169.11h-38a.85.85 0 01-.85-.85v-4.78a.85.85 0 01.85-.85h38a.85.85 0 01.85.85v4.78a.85.85 0 01-.85.85zm-37.2-1.7H269v-3.08h-36.37zm6.64 20.02a.89.89 0 01-.59-.23.85.85 0 010-1.2l4.11-4.38a.86.86 0 01.62-.27.85.85 0 01.62.27l2.07 2.19 4.72-5.29a.81.81 0 01.61-.28.79.79 0 01.63.25l2.5 2.57 7.68-8a.85.85 0 111.22 1.18l-8.28 8.59a.83.83 0 01-.61.26.86.86 0 01-.61-.25l-2.48-2.55-4.73 5.31a.85.85 0 01-1.25 0l-2.09-2.21-3.49 3.72a.86.86 0 01-.65.32zm11.53 18.68a.86.86 0 01-.85-.85v-11.79a.85.85 0 011.7 0v11.79a.85.85 0 01-.85.85zm-54.26 0h-.12a.84.84 0 01-.72-.95l1.5-11.23a9.24 9.24 0 017.23-7.82l5.62-1.19h.07l7.73-1.65h.39l7.76 1.56h.05l5.64 1.13a9.25 9.25 0 017.33 7.72l1.63 11.22a.85.85 0 01-.72 1 .84.84 0 01-1-.72l-1.64-11.21a7.54 7.54 0 00-6-6.31l-4.93-1-2.08 6.34a.86.86 0 01-1.53.18l-1.75-2.82-.87 1.09 2.94 13.48a.85.85 0 11-1.66.36l-2.65-12.13a.84.84 0 01-.66.32.85.85 0 01-.66-.31l-2.51 12.17a.86.86 0 01-1 .66.85.85 0 01-.66-1l2.79-13.52-.89-1.07-1.71 2.78a.84.84 0 01-.81.4.85.85 0 01-.72-.56l-2.22-6.3-4.91 1.05a7.54 7.54 0 00-5.91 6.37l-1.5 11.23a.85.85 0 01-.85.73zm21.09-15.39l.46.56.46-.56 1.48-1.85-2-3.15-1.95 3.18 1.5 1.82zm-6.25-4.35l1.56 4.4 1.37-2.23.06-.1 1.92-3.11zm10.46 2.12l1.4 2.22 1.5-4.42-4.91-1 1.95 3.1zm-3.84-5.87a9.25 9.25 0 01-9.24-9.19v-5.79a9.25 9.25 0 019.18-9.29h.06a9.24 9.24 0 019.23 9.19v5.79a9.24 9.24 0 01-9.18 9.29zm-7.56-12.72v3.52a7.56 7.56 0 007.54 7.5 7.55 7.55 0 005.32-2.24 7.47 7.47 0 002.17-5.35v-4.31a11 11 0 01-5.87-2.81 11.19 11.19 0 01-8.25 3.72c-.29 0-.6-.01-.92-.03zm0-1.71h1a9.44 9.44 0 007.48-3.75l.07-.09.17-.24a9.48 9.48 0 001.26-2.6c.1-.34.18-.68.25-1a7.73 7.73 0 00-2.69-.48 7.53 7.53 0 00-7.49 7.58zm10.24-3.34a9.3 9.3 0 004.82 2.44 7.49 7.49 0 00-2.23-5.06 7.78 7.78 0 00-1.09-.9c0 .24-.12.48-.19.71a10.75 10.75 0 01-1.33 2.81z"/><path class="cls-2" d="M255.2 206.11h-8.79a.85.85 0 010-1.7h8.79a.85.85 0 010 1.7z"/></g></svg>