<svg xmlns="http://www.w3.org/2000/svg" viewBox="0 0 536 536"><defs><style>.cls-2{fill:#28347d}</style></defs><g id="Cir_Azul" data-name="Cir Azul"><circle cx="169.19" cy="77.88" r="53.55" fill="#1eadfe"/><path class="cls-2" d="M169.19 132.68A54.8 54.8 0 11224 77.88a54.86 54.86 0 01-54.81 54.8zm0-107.1a52.3 52.3 0 1052.3 52.3 52.36 52.36 0 00-52.3-52.3z"/><path class="cls-2" d="M153.65 108.59a.86.86 0 01-.85-.85v-4.51a4.52 4.52 0 00-1-2.78L142 87.77a6 6 0 01-1.24-3.64V62.19a4 4 0 017.94 0v13.42a.85.85 0 01-1.7 0V62.19a2.27 2.27 0 00-4.54 0v21.94a4.28 4.28 0 00.89 2.6l9.83 12.68a6.3 6.3 0 011.3 3.82v4.51a.85.85 0 01-.83.85z"/><path class="cls-2" d="M165.41 108.59a.85.85 0 01-.85-.85V97.38a7.12 7.12 0 00-3.48-6.11l-.85-.51a12.76 12.76 0 01-3.56-3.15l-5.39-7a2.21 2.21 0 00-3.16-.34 2.19 2.19 0 00-.33 3L158 96.54a.85.85 0 11-1.34 1L146.44 84.4a3.91 3.91 0 013.56-6.28 3.82 3.82 0 012.66 1.49l5.4 7a11 11 0 003.08 2.73l.85.5a8.85 8.85 0 014.31 7.58v10.36a.85.85 0 01-.89.81zm17.46 0a.85.85 0 01-.85-.85v-4.51a6.3 6.3 0 011.3-3.82l9.83-12.68a4.28 4.28 0 00.89-2.6V62.19a2.27 2.27 0 10-4.54 0v13.42a.85.85 0 01-1.7 0V62.19a4 4 0 117.94 0v21.94a5.94 5.94 0 01-1.25 3.64l-9.82 12.68a4.52 4.52 0 00-.95 2.78v4.51a.86.86 0 01-.85.85z"/><path class="cls-2" d="M171.11 108.59a.85.85 0 01-.85-.85V97.38a8.85 8.85 0 014.31-7.58l.85-.5a11 11 0 003.08-2.73l5.4-7a3.82 3.82 0 012.67-1.49 3.91 3.91 0 013.51 6.28l-10.22 13.22a.85.85 0 11-1.34-1l10.21-13.18a2.19 2.19 0 00-.33-3 2.21 2.21 0 00-3.16.34l-5.39 7a12.76 12.76 0 01-3.56 3.15l-.85.5a7.15 7.15 0 00-3.44 5.99v10.36a.85.85 0 01-.89.85zm-2.85-31.69a14.25 14.25 0 115.91-27.21.86.86 0 01.42 1.13.87.87 0 01-1.13.42 12.39 12.39 0 00-5.2-1.13 12.53 12.53 0 1010.38 5.5.86.86 0 01.22-1.18.84.84 0 011.18.22 14.25 14.25 0 01-11.78 22.25z"/><path class="cls-2" d="M168.27 68.94a.82.82 0 01-.6-.25l-5.78-5.78a.85.85 0 011.2-1.2l5 5 11-20.14a.85.85 0 011.15-.34.86.86 0 01.34 1.16L169 68.5a.85.85 0 01-.62.44z"/></g></svg>