<svg xmlns="http://www.w3.org/2000/svg" viewBox="0 0 536 536"><defs><style>.cls-1{fill:#fff}.cls-2{fill:#28347d}</style></defs><g id="Mano"><path class="cls-1" d="M358.48 169.72a17.52 17.52 0 01.79-13.32c2.36-4.13 7.56-6.13 9.92-3.07 2 2.6 3.95 7.88 5.52 10.88a147.13 147.13 0 0010 16.07c1 1.36 2.37 3.17 3.86 5.2 3.28 4.48 7.29 10 10.33 14.22l1.41 1.93c4.33 5.9 8.82 13.87 9.93 19.06.72 3.38 0 9.49-.86 15.14 1.64 4 3.85 8.74 4.24 13.07s-.94 19.93-2.12 27.38-2.72 20.32-3.2 29.31-7 41.55-7.68 70.08c-.4 15.95-2.93 25.76 6.52 43.6s44.42 70.92 44.42 70.92-7.56 13.81-42.28 28.2c-33.22 13.79-55 10-55 10S326 466 316.09 446.1s-21.27-30.25-31.35-41.28-14.11-25.85-23.48-40c-4.25-6.42-9.65-12.52-13.91-19.26s-10.32-25.3-12.76-31.91c-3.19-8.62-7.57-14.77-10.4-20.09s-3.43-14.53-4-20.21-4.61-18.43-5.71-22.29c-2.28-8-1.36-12.93 1.25-15a5.19 5.19 0 01.95-.59c3.31-1.58 10.82-1 15.6 3.15l.44.38c5.45 4.75 11 9.47 18.31 27.51 5.63 13.92 11.82 26.78 16.24 33.56s11.54 17.25 17.49 16.71c3.84-.37 8.77-2.18 12.49-8.79 5.9-10.52 6.1-23.52 12-46.45 0 0-3.43-29.54-2.6-39.59 0 0-7.66-12.48-10.45-21.2a40.85 40.85 0 01-9.53-12.1 22.11 22.11 0 01-1.79-5 13 13 0 011-8.23c1.36-2.94 3.59-4.89 5.27-4.85 3 .08 5.43 2.84 9 5.76a126.42 126.42 0 0011.58 8.11c5.12 3.39 14.34 13 18.68 16.34s6.61 6.59 7.79 10.45c1 3.11 3.91 25.93 8.62 38.67-.19-4.8 2.18-10.47 4.23-14.33 0 0-1.58-20.95.71-29.54 0 0-10.12-12.26-14-23.59-3.38-2.33-10.78-6.59-14.88-15.33s1.73-15.6 4-16.47a5.51 5.51 0 015.36 1.18c1.1.87 7.64 6.39 12 9.46s10.7 5.72 14.24 8.44z"/><path class="cls-1" d="M395.43 184.06c.95 1.58 1.45 11.36 3.48 15.64-3-4.18-7.05-9.74-10.33-14.22 1.96-2.68 5.91-3 6.85-1.42z"/><path class="cls-2" d="M354.58 530.13c-5.08-9.35-9.84-18.85-14.46-28.41s-9.06-19.19-13.64-28.76l-6.82-14.38c-2.28-4.77-4.57-9.59-7-14.2a119.38 119.38 0 00-8.12-13.38 143 143 0 00-9.78-12.25c-3.49-3.93-7.15-7.75-10.77-11.69-.9-1-1.8-2.05-2.7-3.09s-1.71-2.16-2.47-3.3a76.17 76.17 0 01-4.32-6.94c-2.63-4.73-4.89-9.56-7.26-14.28a131.71 131.71 0 00-7.68-13.66c-2.85-4.33-6.17-8.44-9.35-12.76-1.59-2.17-3.14-4.37-4.58-6.71A62.32 62.32 0 01242 339c-2.08-5-3.88-10-5.64-15l-2.62-7.53a72.8 72.8 0 00-2.86-7.25c-2.14-4.74-4.93-9.16-7.56-13.87a20.58 20.58 0 01-1-1.88 17.43 17.43 0 01-.78-2 29.77 29.77 0 01-1-4 77 77 0 01-1-8.05l-.33-4-.19-2c-.08-.63-.17-1.26-.3-1.9-.47-2.55-1.14-5.11-1.83-7.65s-1.44-5.09-2.24-7.61-1.66-5-2.28-7.74a22 22 0 01-.5-8.44 9.44 9.44 0 011.86-4.31 6.82 6.82 0 012-1.61 8.72 8.72 0 012.26-.79 18.66 18.66 0 018.65.51 18.19 18.19 0 014 1.69 8.11 8.11 0 01.94.57c.31.21.62.4.91.64s.6.47.85.69l.75.66a59.17 59.17 0 015.82 5.72 46.38 46.38 0 014.79 6.66 99 99 0 016.9 14.59 234 234 0 0013.12 28.87c1.28 2.32 2.61 4.54 4.09 6.73s3 4.34 4.6 6.4a40.49 40.49 0 005.24 5.67 15.63 15.63 0 003 2.06 6.76 6.76 0 001.57.53l.39.09h.38a4.39 4.39 0 00.79 0 13.05 13.05 0 006.59-2.73 17.78 17.78 0 004.57-5.71c2.45-4.47 3.82-9.51 5-14.63s2.06-10.37 3.24-15.57 2.52-10.36 4.18-15.43v.31c-.54-3.27-1-6.56-1.36-9.85s-.69-6.59-1-9.89-.44-6.62-.58-10a69.07 69.07 0 01.34-10l.12.52a72.51 72.51 0 01-6.88-11.65 56.2 56.2 0 01-2.61-6.24 26.46 26.46 0 01-1.5-6.67.54.54 0 01.5-.57.56.56 0 01.54.35c.73 2 1.66 4 2.58 6s1.91 3.94 2.91 5.91l3 5.89c1 2 2 4 2.94 5.95a1.31 1.31 0 01.12.5v2.43l.1 2.45c.07 1.63.17 3.27.29 4.91.19 3.28.47 6.57.71 9.85l.76 9.87c.26 3.3.51 6.59.71 9.89a1.29 1.29 0 010 .28v.05c-1 5.21-2 10.39-3 15.6S305.23 287.76 304 293s-2.66 10.53-5.36 15.39a20.5 20.5 0 01-5.47 6.5 15.86 15.86 0 01-8 3.12 6.62 6.62 0 01-1.19 0h-.62l-.58-.13a10 10 0 01-2.17-.79 17.87 17.87 0 01-3.49-2.49 42.88 42.88 0 01-5.43-6.13c-1.62-2.15-3.1-4.39-4.57-6.61s-2.85-4.57-4.12-6.91c-5-9.43-9.32-19.19-13.52-28.95a95.93 95.93 0 00-7.22-13.92 51.16 51.16 0 00-4.64-6.16 55.79 55.79 0 00-5.61-5.33l-.75-.65-.7-.57c-.22-.19-.47-.35-.71-.52a7.25 7.25 0 00-.75-.47 16.12 16.12 0 00-10.4-2 6.15 6.15 0 00-1.5.46 3.88 3.88 0 00-1.11.84 6.42 6.42 0 00-1.31 2.89 19.58 19.58 0 00.23 7.37c.48 2.49 1.28 5 2 7.6s1.43 5.13 2.1 7.71 1.31 5.18 1.77 7.86c.12.66.21 1.35.29 2l.21 2c.13 1.32.3 2.63.48 3.93a68.6 68.6 0 001.51 7.68 32.63 32.63 0 001.14 3.63 15 15 0 00.71 1.69c.25.52.56 1.09.88 1.66 2.59 4.52 5.54 9.07 7.83 14a79 79 0 013.07 7.51l2.69 7.5c1.81 5 3.66 9.93 5.74 14.73a56.23 56.23 0 003.42 6.86c1.37 2.17 2.9 4.3 4.47 6.4 3.13 4.22 6.51 8.36 9.53 12.88a140.9 140.9 0 018 14c2.41 4.77 4.68 9.55 7.23 14.08a75.5 75.5 0 004.12 6.56c.72 1.07 1.54 2.05 2.31 3.06s1.63 1.92 2.56 2.89c3.58 3.86 7.3 7.69 10.88 11.68a150.63 150.63 0 0110.15 12.57 123.33 123.33 0 018.52 13.78c2.54 4.78 4.75 9.57 7.05 14.38s4.54 9.61 6.73 14.45c4.39 9.68 8.83 19.32 13.06 29.07s8.28 19.56 12 29.55a.48.48 0 01-.28.61.49.49 0 01-.6-.13z"/><path class="cls-2" d="M295.85 201.15a37.31 37.31 0 01-6.72-6.57 30.53 30.53 0 01-4.83-8.24l-.39-1.16-.32-1.19a16.58 16.58 0 01-.36-2.53 14.76 14.76 0 01.66-5 14.42 14.42 0 012.38-4.54 9.84 9.84 0 012-1.87 4.11 4.11 0 01.62-.39 4.24 4.24 0 01.71-.33 4.3 4.3 0 01.82-.22 4.75 4.75 0 01.89-.07 7.23 7.23 0 012.79.72 13.47 13.47 0 012.23 1.35c1.33 1 2.47 2 3.63 3a71.61 71.61 0 007.23 5.41L311 182c.65.44 1.26.83 1.94 1.31s1.3.95 1.93 1.44c2.46 2 4.73 4.09 7 6.19s4.46 4.24 6.71 6.29c.56.51 1.12 1 1.69 1.5l1.76 1.44a30 30 0 013.48 3.38 18.5 18.5 0 014.28 8.83c.55 3.08 1 6.09 1.5 9.13 1 6.05 2 12.09 3.33 18.07.67 3 1.41 5.94 2.29 8.86a27.35 27.35 0 003.75 8.21.28.28 0 01-.05.4.29.29 0 01-.39 0c-2.14-2.38-3.3-5.33-4.45-8.2s-2-5.87-2.8-8.85c-1.6-6-2.9-12-4-18.06-.58-3-1.11-6.07-1.73-9a16.23 16.23 0 00-3.84-7.49 27.4 27.4 0 00-3.18-3l-1.85-1.45c-.61-.51-1.2-1-1.78-1.53-2.33-2.07-4.58-4.16-6.82-6.24s-4.52-4.13-6.85-6c-.59-.45-1.18-.91-1.77-1.3s-1.26-.84-1.89-1.26l-3.85-2.56a76.84 76.84 0 01-7.5-5.67c-1.18-1-2.31-2-3.43-2.91a6.4 6.4 0 00-3.33-1.52 2.16 2.16 0 00-1.23.45 7.1 7.1 0 00-1.37 1.28 11.24 11.24 0 00-1.92 3.56 12.08 12.08 0 00-.6 4 13.4 13.4 0 00.79 4.11 32 32 0 004 7.85 47 47 0 005.74 7 .56.56 0 010 .81.58.58 0 01-.71.08z"/><path class="cls-2" d="M346.34 249.86a13.36 13.36 0 01-.21-3.94 21.55 21.55 0 01.72-3.86 21.91 21.91 0 011.34-3.66 15.35 15.35 0 012.05-3.29l-.1.46A92.69 92.69 0 01349 220.7a72.41 72.41 0 01.36-7.5 30.51 30.51 0 011.55-7.46l.17.76a49.3 49.3 0 01-5.21-6.09 62.28 62.28 0 01-4.31-6.75c-.65-1.17-1.29-2.34-1.85-3.57-.28-.61-.58-1.21-.84-1.83l-.75-1.87a32.16 32.16 0 01-1.95-7.84.45.45 0 01.87-.19 55 55 0 003.09 7.13c1.16 2.3 2.49 4.53 3.82 6.76 2.73 4.41 5.67 8.71 8.43 13.16a1 1 0 01.14.72 65.78 65.78 0 00-.47 7.2Q352 217 352 220.7c0 4.89 0 9.81-.13 14.74v.13a.7.7 0 01-.09.33 35.23 35.23 0 01-1.23 3.5c-.43 1.15-.92 2.26-1.35 3.4a35.45 35.45 0 00-2 7 .44.44 0 01-.86 0z"/><path class="cls-2" d="M337.33 182.88a51.69 51.69 0 01-9.45-7 29.18 29.18 0 01-6.75-9.92 14.5 14.5 0 01.9-12.26 12.93 12.93 0 011.9-2.6 8.29 8.29 0 011.27-1.14 5.22 5.22 0 011.74-.85 6.17 6.17 0 013.69.18 9.61 9.61 0 012.89 1.73c3 2.44 6 4.86 9.11 7.16.77.57 1.54 1.14 2.31 1.68s1.53 1 2.35 1.52c1.61 1 3.3 1.88 5 2.8s3.44 1.84 5.15 2.91a19.58 19.58 0 012.56 1.8c.82.7 1.52 1.38 2.23 2.08 2.8 2.79 5.42 5.65 8.05 8.53s5.14 5.84 7.67 8.81a80.91 80.91 0 017.15 9.44 32.59 32.59 0 012.79 5.42 18.64 18.64 0 01.9 3 17.27 17.27 0 01.27 3.15c0 4.06-.57 7.89-.9 11.74-.18 1.92-.33 3.83-.42 5.74-.05 1-.07 1.91-.08 2.87l-.05 2.93-.47 11.64c-.14 3.86-.21 7.73-.18 11.59a63.12 63.12 0 001 11.5.3.3 0 01-.24.37.32.32 0 01-.37-.23 63.19 63.19 0 01-1.64-11.6c-.27-3.89-.31-7.78-.33-11.67v-17.52c0-2 .14-3.92.27-5.87.24-3.88.67-7.78.59-11.48a16.82 16.82 0 00-.28-2.64 17.55 17.55 0 00-.79-2.53 30.16 30.16 0 00-2.61-4.87 79.49 79.49 0 00-7-9q-3.82-4.37-7.74-8.64c-2.58-2.87-5.19-5.74-7.88-8.45-.66-.66-1.36-1.34-2-1.9a18.73 18.73 0 00-2.18-1.56c-1.58-1-3.27-1.9-5-2.83s-3.43-1.86-5.13-2.9c-.85-.52-1.7-1.08-2.53-1.67s-1.59-1.18-2.36-1.78c-3.09-2.41-6.08-4.92-9.05-7.4-1.35-1.21-2.74-1.81-4.06-1.48a2.43 2.43 0 00-.86.41 5.91 5.91 0 00-.91.79 10.66 10.66 0 00-1.56 2.05 12.06 12.06 0 00-1.06 10.19 24.41 24.41 0 002.47 5 31.36 31.36 0 003.45 4.45 53.71 53.71 0 008.85 7.28.6.6 0 01-.66 1z"/><path class="cls-2" d="M358.05 169.89a13.89 13.89 0 01-1.47-5.09 18 18 0 01.27-5.33 12 12 0 012.24-5.09 10.47 10.47 0 014.59-3.43 7 7 0 013.09-.4 5.08 5.08 0 013 1.43 5.93 5.93 0 01.55.61c.14.19.29.38.42.58.26.38.5.76.72 1.15.45.77.86 1.54 1.24 2.32.77 1.55 1.46 3.1 2.16 4.61.35.76.71 1.51 1.08 2.21s.8 1.44 1.21 2.17q2.49 4.35 5.23 8.56c.91 1.39 1.85 2.77 2.82 4.09l3 4 12 16.36c1 1.36 2 2.74 3 4.17s1.89 2.88 2.76 4.35a61.94 61.94 0 014.64 9.29 20.4 20.4 0 011.38 5.27 31.36 31.36 0 01-.06 5.32c-.28 3.44-.8 6.8-1.33 10.14l-.8 5-.36 2.5c-.12.87-.3 1.7-.46 2.54-.69 3.34-1.46 6.61-2.13 9.91a95.55 95.55 0 00-2.31 19.92.39.39 0 01-.78.05 63.28 63.28 0 01-.06-10.21c.21-3.39.65-6.77 1.19-10.12s1.16-6.68 1.7-10c.12-.82.24-1.64.34-2.45l.31-2.52.69-5c.45-3.34.89-6.66 1.08-10a28.36 28.36 0 000-4.8 18.07 18.07 0 00-1.24-4.47 60.41 60.41 0 00-4.48-8.77q-1.29-2.11-2.7-4.16c-.93-1.36-1.93-2.69-2.93-4.06l-11.93-16.33c-2-2.7-4.06-5.52-5.84-8.41s-3.54-5.81-5.2-8.79c-.41-.75-.81-1.5-1.21-2.27s-.77-1.58-1.12-2.36c-.69-1.56-1.35-3.1-2.06-4.59-.35-.74-.72-1.47-1.11-2.16-.19-.34-.39-.68-.6-1-.11-.16-.22-.3-.32-.46s-.2-.21-.29-.33a3.11 3.11 0 00-3.31-.45 7.87 7.87 0 00-3.45 2.52 10.47 10.47 0 00-1.92 4 20.71 20.71 0 00-.71 4.72 21.58 21.58 0 000 2.41 17.88 17.88 0 00.38 2.4.45.45 0 01-.35.55.47.47 0 01-.56-.1z"/><path class="cls-2" d="M388.23 185.23a5.4 5.4 0 012.22-2.59 5.9 5.9 0 013.57-.88 3.8 3.8 0 012.16.91 3.67 3.67 0 01.47.56 3.49 3.49 0 01.29.58 6.26 6.26 0 01.29.91c.26 1.09.43 2.07.58 3.07l.8 5.91a38.3 38.3 0 001.07 5.64v.06a.86.86 0 01-1.56.67 21.54 21.54 0 01-2.12-5.87c-.47-2-.8-4-1.12-5.94-.17-1-.3-2-.51-2.82 0-.19-.11-.42-.15-.53s0-.08 0-.09a1.25 1.25 0 00-.55-.27 5.2 5.2 0 00-2.27.08 7.32 7.32 0 00-2.42 1.12.44.44 0 01-.61-.12.41.41 0 01-.14-.4zm21.71 50.37a53.23 53.23 0 013.78 7.73 23.29 23.29 0 011.18 4.3 16 16 0 01.24 2.29v2.19c-.11 5.75-.56 11.39-1.1 17.07-.28 2.82-.63 5.7-1.05 8.49s-.75 5.57-1.08 8.37c-.61 5.6-1.22 11.2-1.62 16.8-.11 1.41-.15 2.75-.29 4.26s-.3 2.88-.49 4.29c-.37 2.84-.78 5.63-1.19 8.44-.83 5.6-1.65 11.18-2.4 16.78-1.52 11.18-3 22.36-3.81 33.6l-.47 8.46c-.16 2.84-.4 5.66-.53 8.47a59 59 0 001.05 16.64 57.66 57.66 0 006.24 15.43c2.86 4.82 6 9.54 9.1 14.25 6.29 9.38 12.18 19 18.17 28.62s11.85 19.28 17.53 29.08a.85.85 0 01-1.42.93c-6.75-9.11-13.2-18.42-19.45-27.86-3.15-4.71-6.2-9.48-9.25-14.26s-6-9.62-8.71-14.61-5.49-9.93-8-15.07c-.64-1.27-1.25-2.57-1.87-3.87s-1.17-2.62-1.64-4a55.3 55.3 0 01-2.52-8.25 68.13 68.13 0 01-1.21-17.13l.26-8.48.14-8.5c.18-5.68.51-11.36 1-17s1.13-11.31 1.84-16.93 1.57-11.23 2.39-16.83c.41-2.8.82-5.59 1.18-8.37.19-1.39.35-2.78.47-4.14s.18-2.79.28-4.21q.6-8.54 1.76-17c.37-2.82.77-5.64 1.23-8.45s.85-5.53 1.18-8.33c.63-5.58 1.18-11.22 1.38-16.78v-2.05c0-.67-.06-1.29-.14-1.94a31.36 31.36 0 00-.84-3.93c-.71-2.65-1.69-5.3-2.43-8.07a.61.61 0 011.11-.46z"/></g></svg>