<svg xmlns="http://www.w3.org/2000/svg" viewBox="0 0 120 120"><defs><style>.cls-3{fill:#ffea27}.cls-4{mix-blend-mode:multiply}.cls-5{fill:#f4d314}.cls-6{fill:#95a6b1}</style></defs><g style="isolation:isolate"><g id="Capa_1" data-name="Capa 1"><path fill="none" d="M0 0h120v120H0z"/><path class="cls-3" d="M56.67 116.15H35.85a2.29 2.29 0 010-4.58h20.82a2.29 2.29 0 010 4.58zm25.08 0H71.34a2.29 2.29 0 010-4.58h10.41a2.29 2.29 0 110 4.58zm14.64 0a2.3 2.3 0 01-.45-.05 2 2 0 01-.42-.13 2.19 2.19 0 01-.4-.21 3.07 3.07 0 01-.35-.28 2.39 2.39 0 01-.28-.35 2.1 2.1 0 01-.21-.39 2.35 2.35 0 01-.13-.43 2 2 0 010-.9 2 2 0 01.13-.42 2.19 2.19 0 01.21-.4 3.07 3.07 0 01.28-.35 2.39 2.39 0 013.24 0 3.07 3.07 0 01.28.35 2.19 2.19 0 01.21.4 2 2 0 01.13.42 2.05 2.05 0 010 .9 2.35 2.35 0 01-.13.43 2.1 2.1 0 01-.21.39 2 2 0 01-.63.63 2.1 2.1 0 01-.39.21 2.35 2.35 0 01-.43.13 2.3 2.3 0 01-.45.05z"/><g class="cls-4"><path class="cls-5" d="M44.43 116.15H23.61a2.29 2.29 0 110-4.58h20.82a2.29 2.29 0 010 4.58z"/></g><path class="cls-3" d="M75.51 102.17h-51.9a2.29 2.29 0 010-4.58h51.9a2.29 2.29 0 110 4.58z"/><g class="cls-4"><path class="cls-5" d="M23.61 102.17A2.29 2.29 0 0122 98.26a2.38 2.38 0 013.24 0 2.29 2.29 0 01-1.62 3.91z"/></g><g class="cls-4"><path class="cls-5" d="M96.39 102.17H66.93a2.29 2.29 0 010-4.58h29.46a2.29 2.29 0 110 4.58z"/></g><path class="cls-3" d="M41 29.4a11.52 11.52 0 01-4.81-22 11.53 11.53 0 0115.74 14.1A11.51 11.51 0 0141 29.4zm0-19.06a7.53 7.53 0 103.13 14.38 7.42 7.42 0 004-4.48 7.53 7.53 0 00-.3-5.5 7.48 7.48 0 00-4.22-3.93 7.72 7.72 0 00-2.67-.47z"/><path class="cls-6" d="M59.94 73.87H58.7c-9.15-.16-17.75-2-24.22-5.34-6.93-3.53-10.7-8.29-10.61-13.4s4-9.74 11.06-13c6.58-3.06 15.25-4.66 24.39-4.51 19.7.34 35 8.57 34.82 18.73-.14 9.93-15.09 17.52-34.2 17.52zm-1.86-32.28c-8.11 0-15.7 1.46-21.46 4.15-5.5 2.56-8.69 6-8.75 9.46s3 7 8.42 9.75c5.94 3 13.92 4.76 22.48 4.91 16.88.31 31.24-5.94 31.37-13.6s-14-14.37-30.89-14.66z"/><path class="cls-6" d="M58.58 90.87h-.17c-10.3-.18-18.1-15.75-17.76-35.45a74.51 74.51 0 014.42-22.57 2 2 0 113.73 1.43 69.9 69.9 0 00-4.15 21.21c-.29 16.87 6 31.24 13.82 31.38h.11c7.74 0 14.5-14.09 14.78-30.89s-6-31.25-13.82-31.39a2 2 0 11.07-4c10.29.17 18.09 15.74 17.75 35.45s-8.57 34.83-18.78 34.83z"/><path class="cls-6" transform="rotate(-89.88 59.015 55.722)" d="M57.01 22.59h4v66.27h-4z"/><path class="cls-6" transform="rotate(-88.9 59.179 55.715)" d="M25.87 53.73h66.28v4H25.87z"/><path class="cls-6" d="M59.05 90.89a35.25 35.25 0 01-10.67-1.66A34.9 34.9 0 0127.81 71.9 35.28 35.28 0 0133 32.07a2 2 0 013 2.69 31.27 31.27 0 00-4.61 35.3 31.14 31.14 0 1025.66-45.42 2 2 0 01-.25-4 35.15 35.15 0 112.25 70.24z"/><path fill="#fff" d="M103.9 43.76l5.55-24.87-24.87 5.56 5.89 5.89-15.73 15.72 5.48 9.59 17.79-17.78 5.89 5.89z"/><path class="cls-6" d="M80.22 57.65H80a2 2 0 01-1.47-1L73 47.06a2 2 0 01.32-2.41l14.32-14.31-4.47-4.48a2 2 0 011-3.37L109 16.94a2 2 0 011.85.54 2 2 0 01.54 1.85l-5.54 24.87a2 2 0 01-1.4 1.48 2 2 0 01-2-.5L98 40.7 81.64 57.07a2 2 0 01-1.42.58zm-3-11.25l3.42 6 15.95-15.94a2 2 0 012.83 0l3.32 3.31 4.07-18.24-18.24 4.07 3.31 3.32a2 2 0 010 2.83z"/></g></g></svg>