<svg xmlns="http://www.w3.org/2000/svg" viewBox="0 0 120 120"><defs><style>.cls-2{fill:#ffea27}.cls-3{mix-blend-mode:multiply}.cls-4{fill:#f4d314}.cls-5{fill:#95a6b1}</style></defs><g style="isolation:isolate"><g id="Capa_1" data-name="Capa 1"><path class="cls-2" d="M58.24 116.23H40a2 2 0 110-4h18.24a2 2 0 010 4zm21.93 0h-9.1a2 2 0 010-4h9.1a2 2 0 010 4zm12.83 0a2 2 0 01-1.42-3.41 1.79 1.79 0 01.31-.25 2.27 2.27 0 01.34-.19 1.66 1.66 0 01.38-.11 2 2 0 012.39 2 2 2 0 01-.15.77 1.88 1.88 0 01-.44.64 1.92 1.92 0 01-.65.44 2 2 0 01-.76.11z"/><g class="cls-3"><path class="cls-4" d="M47.53 116.23H29.32a2 2 0 010-4h18.21a2 2 0 010 4z"/></g><path class="cls-2" d="M74.71 104H29.32a2 2 0 110-4h45.39a2 2 0 010 4z"/><g class="cls-3"><path class="cls-4" d="M29.33 104a2 2 0 01-2-2 2 2 0 012.39-2 2.65 2.65 0 01.37.12 2.31 2.31 0 01.35.18 2.34 2.34 0 01.3.25 1.89 1.89 0 01.25.31 1.83 1.83 0 01.18.34 2.65 2.65 0 01.12.37 2.56 2.56 0 010 .39 2 2 0 01-2 2z"/></g><g class="cls-3"><path class="cls-4" d="M93 104H67.21a2 2 0 110-4H93a2 2 0 010 4z"/></g><path class="cls-2" d="M28.29 48.16a9.51 9.51 0 113.93-.86 9.36 9.36 0 01-3.93.86zm0-15a5.5 5.5 0 105 3.21 5.5 5.5 0 00-5.03-3.2z"/><path class="cls-5" d="M68.55 64.27a2 2 0 01-2-2v-15.9a.94.94 0 00-.94-.94h-23.8a2 2 0 010-4h23.8a4.94 4.94 0 014.94 4.94v15.9a2 2 0 01-2 2zm-39.91-1.35a2 2 0 01-2-2v-8a2 2 0 014 0v8a2 2 0 01-2 2z"/><path class="cls-5" d="M59.72 45.45a2 2 0 01-2-2V33.7H41.81a2 2 0 010-4h15.95a4 4 0 014 4v9.75a2 2 0 01-2.04 2zM68 90.16a2.1 2.1 0 01-.56-.08 2 2 0 01-1.34-2.48l6-20.68c.07-.22 0-.37-.11-.44L47.6 52.94a.28.28 0 00-.28 0L22.7 66.47a.29.29 0 00-.13.36L29 86.58a2 2 0 01-3.8 1.24l-6.39-19.7a4.26 4.26 0 012-5.16l24.58-13.53a4.28 4.28 0 014.15 0L74 63a4.29 4.29 0 012 5.14l-6 20.6a2 2 0 01-2 1.42z"/><path class="cls-5" d="M47.47 89.71a2 2 0 01-2-2V50.89a2 2 0 014 0v36.82a2 2 0 01-2 2z"/><circle class="cls-5" cx="35.53" cy="67.32" r="2.98"/><circle class="cls-5" cx="59.34" cy="67.32" r="2.98"/><path class="cls-5" d="M55.25 33.75h-14V19.13a3.65 3.65 0 013.64-3.64h6.54a3.77 3.77 0 013.77 3.76zm-10-4h6V19.49h-6z"/><path d="M82.33 92.61A7.5 7.5 0 0176.69 90c-1-1-1.59-1.5-2.84-1.5S72 89 71 90a7.34 7.34 0 01-11.28 0c-1-1-1.59-1.5-2.84-1.5S55.08 89 54 90a7.34 7.34 0 01-11.28 0c-1-1-1.59-1.5-2.84-1.5s-1.77.5-2.81 1.5a7.34 7.34 0 01-11.28 0c-1-1-1.6-1.5-2.85-1.5s-1.81.5-2.85 1.5a7.48 7.48 0 01-5.64 2.64 2 2 0 010-4c1.25 0 1.81-.48 2.85-1.5a7.34 7.34 0 0111.28 0c1 1 1.6 1.5 2.85 1.5s1.81-.48 2.85-1.5a7.34 7.34 0 0111.28 0c1 1 1.59 1.5 2.84 1.5s1.81-.48 2.85-1.5a7.33 7.33 0 0111.27 0c1 1 1.6 1.5 2.85 1.5s1.8-.48 2.84-1.5a7.34 7.34 0 0111.28 0c1 1 1.59 1.5 2.84 1.5a2 2 0 010 4z" fill="#94a5b0"/><path class="cls-5" d="M79.54 54.72a2 2 0 01-2-2V41.91l-.86.86A2 2 0 0173.85 40l4.27-4.28a2 2 0 013.42 1.41v15.59a2 2 0 01-2 2zm6.81-9.09a2 2 0 01-2-2v-6.55a2 2 0 012-2h6.7a2 2 0 010 4h-4.7v4.55a2 2 0 01-2 2z"/><path class="cls-5" d="M88.84 54.73h-.57a6.61 6.61 0 01-3.69-1.51 2 2 0 012.56-3.08 2.62 2.62 0 003.45-.06 3 3 0 001-2 2.86 2.86 0 00-2.5-3.15 2.64 2.64 0 00-1.66.42A2 2 0 0185.27 42a6.53 6.53 0 014.16-1 6.85 6.85 0 016.15 7.46 7 7 0 01-2.35 4.69 6.61 6.61 0 01-4.39 1.58zm14.78-8.05a5.84 5.84 0 116-5.84 5.93 5.93 0 01-6 5.84zm0-7.68a1.85 1.85 0 102 1.84 1.93 1.93 0 00-2-1.84z"/><path class="cls-5" d="M103.62 54.8a6.06 6.06 0 116.22-6.06 6.15 6.15 0 01-6.22 6.06zm0-8.12a2.07 2.07 0 102.22 2.06 2.15 2.15 0 00-2.22-2.06z"/><path fill="none" d="M0 0h120v120H0z"/></g></g></svg>