<svg xmlns="http://www.w3.org/2000/svg" viewBox="0 0 120 120"><defs><style>.cls-2{fill:#ffea27}.cls-3{mix-blend-mode:multiply}.cls-4{fill:#f4d314}.cls-5{fill:#95a6b1}</style></defs><g style="isolation:isolate"><g id="Capa_1" data-name="Capa 1"><path class="cls-2" d="M57.09 115.86H38.88a2 2 0 010-4h18.21a2 2 0 010 4zm21.91 0h-9.1a2 2 0 010-4H79a2 2 0 010 4zm12.82 0a2 2 0 01-1.41-.59 1.88 1.88 0 01-.44-.64 2 2 0 01.44-2.18 2.06 2.06 0 012.83 0 2 2 0 010 2.82 2.51 2.51 0 01-.31.26 2.21 2.21 0 01-.34.18 2.2 2.2 0 01-.77.15z"/><g class="cls-3"><path class="cls-4" d="M46.38 115.86h-18.2a2 2 0 110-4h18.2a2 2 0 110 4z"/></g><path class="cls-2" d="M73.56 103.64H28.18a2 2 0 110-4h45.38a2 2 0 010 4z"/><g class="cls-3"><path class="cls-4" d="M28.18 103.64a2 2 0 01-1.42-.59 2.16 2.16 0 01-.43-.65 2 2 0 01-.15-.76 2 2 0 01.58-1.42l.31-.25a2.21 2.21 0 01.34-.18 2.4 2.4 0 01.38-.12 2 2 0 01.78 0 2.29 2.29 0 01.37.12 2.31 2.31 0 01.35.18 2.48 2.48 0 01.3.25 2.34 2.34 0 01.25.3 1.66 1.66 0 01.18.35 2.65 2.65 0 01.12.37 2.58 2.58 0 010 .4 2 2 0 01-.15.76 2 2 0 01-.44.65 2 2 0 01-1.37.59z"/></g><g class="cls-3"><path class="cls-4" d="M91.82 103.64H66.06a2 2 0 010-4h25.76a2 2 0 010 4z"/></g><path class="cls-2" d="M22.64 30.88a10.28 10.28 0 01-3.53-.64 10.1 10.1 0 1112.71-13.66 10.11 10.11 0 01-9.18 14.3zm0-16.21a6.1 6.1 0 102.54 11.65 6.1 6.1 0 003-8.08 6.13 6.13 0 00-5.55-3.57z"/><path class="cls-5" d="M89.55 34.5h-9.86a2.88 2.88 0 01-2.83-2.92v-4.49a2.88 2.88 0 012.83-2.92h9.86a2.87 2.87 0 012.82 2.92v4.49a2.87 2.87 0 01-2.82 2.92zm-8.89-3.8h7.91V28h-7.91zm8.89-2.7zM102 83.83H69.21a1.9 1.9 0 01-1.9-1.9v-10a3.84 3.84 0 01-3.48-3.81v-.91a3.83 3.83 0 013.48-3.81v-5.5a3.84 3.84 0 01-3.48-3.81v-.92a3.84 3.84 0 013.48-3.81v-9.1a1.9 1.9 0 013.8 0v11a1.9 1.9 0 01-1.9 1.9h-1.55v.94h1.58a1.9 1.9 0 011.9 1.9v9.25a1.9 1.9 0 01-1.9 1.9h-1.58v.94h1.58a1.9 1.9 0 011.9 1.9V80h29V70a1.9 1.9 0 011.9-1.9h1.56v-.93h-1.58a1.9 1.9 0 01-1.9-1.9V56a1.9 1.9 0 011.9-1.9h1.56v-.94H102a1.9 1.9 0 01-1.9-1.9v-11a1.9 1.9 0 113.8 0v9.1a3.83 3.83 0 013.48 3.81v.92a3.83 3.83 0 01-3.48 3.81v5.48a3.82 3.82 0 013.48 3.81v.91a3.83 3.83 0 01-3.48 3.81v10a1.9 1.9 0 01-1.9 1.92z"/><path class="cls-5" d="M95.64 55H75.55a1.9 1.9 0 110-3.8h20.09a1.9 1.9 0 110 3.8zm0 14H75.55a1.9 1.9 0 110-3.8h20.09a1.9 1.9 0 110 3.8zm8.17 22.61H67.38a3.55 3.55 0 01-3.55-3.54v-4.49A3.55 3.55 0 0167.38 80h36.43a3.55 3.55 0 013.55 3.55v4.49a3.55 3.55 0 01-3.55 3.57zm-36.18-3.8h35.93v-4H67.63zm36.05-45.65H67.22a3.54 3.54 0 01-3.53-3.53v-4.39a3.54 3.54 0 013.53-3.54h36.46a3.54 3.54 0 013.53 3.54v4.39a3.54 3.54 0 01-3.53 3.53zm-36.19-3.8h35.92V34.5H67.49z"/><path class="cls-5" transform="rotate(-89.03 43.821 43.776)" d="M19 41.87h49.64v3.8H19z"/><path class="cls-5" d="M19.02 41.45h50.19v3.8H19.02z"/><path class="cls-5" d="M67 53.26a2 2 0 01-.58-.09 1.9 1.9 0 01-1.23-2.39 22.83 22.83 0 001.1-7 21.88 21.88 0 00-.23-3.22 1.9 1.9 0 113.77-.56 24.25 24.25 0 01.28 3.8 26.62 26.62 0 01-1.28 8.17A1.89 1.89 0 0167 53.26zM65.89 35.2a1.9 1.9 0 01-1.72-1.1 22.93 22.93 0 00-25.25-12.8c-.63.12-1.27.28-1.89.46A1.91 1.91 0 1136 18.1c.73-.21 1.48-.39 2.22-.53A26.72 26.72 0 0167.61 32.5a1.88 1.88 0 01-.92 2.5 1.9 1.9 0 01-.8.2z"/><path class="cls-5" d="M43.4 70.49a26.73 26.73 0 01-25.4-35c.19-.57.4-1.14.62-1.69a1.9 1.9 0 113.52 1.43c-.19.47-.37 1-.53 1.45a22.93 22.93 0 0021.79 30 23 23 0 0020.67-13 1.9 1.9 0 013.43 1.64 26.86 26.86 0 01-24.1 15.17z"/><path class="cls-5" d="M43.4 57.76c-15 0-26.72-6.14-26.72-14s11.74-14 26.72-14c9.94 0 19 2.77 23.52 7.23a1.9 1.9 0 01.57 1.36 1.92 1.92 0 011.25.86 8.48 8.48 0 011.37 4.53c0 7.88-11.73 14.02-26.71 14.02zm0-24.17c-10.84 0-22.92 4.18-22.92 10.18S32.56 54 43.4 54s22.91-4.18 22.91-10.19a4.68 4.68 0 00-.79-2.51 1.9 1.9 0 01-.29-1 1.88 1.88 0 01-1-.51c-3.79-3.79-11.98-6.2-20.83-6.2z"/><path class="cls-5" d="M43.4 70.49c-8.17 0-14.57-11.73-14.57-26.72a44.55 44.55 0 012.48-15.09A1.9 1.9 0 1134.88 30a40.68 40.68 0 00-2.25 13.78c0 13.71 5.57 22.92 10.77 22.92s10.77-9.21 10.77-22.92S48.6 20.86 43.4 20.86a1.9 1.9 0 010-3.8c8.17 0 14.6 11.73 14.6 26.71s-6.43 26.72-14.6 26.72z"/><path fill="none" d="M0 0h120v120H0z"/></g></g></svg>