<svg xmlns="http://www.w3.org/2000/svg" viewBox="0 0 120 120"><defs><style>.cls-3{fill:#ffea27}.cls-4{mix-blend-mode:multiply}.cls-5{fill:#f4d314}.cls-6{fill:#95a6b1}</style></defs><g style="isolation:isolate"><g id="Capa_1" data-name="Capa 1"><path fill="none" d="M0 0h120v120H0z"/><path class="cls-3" d="M56.46 115.86H38.25a2 2 0 010-4h18.21a2 2 0 010 4zm21.93 0h-9.1a2 2 0 010-4h9.1a2 2 0 010 4zm12.8 0a2 2 0 01-1.85-1.23 2 2 0 01-.15-.77 2 2 0 01.58-1.41 2 2 0 011.81-.55 1.6 1.6 0 01.42.1 1.66 1.66 0 01.35.18 1.42 1.42 0 01.3.25 2 2 0 01.59 1.41 2 2 0 01-.15.77 2.31 2.31 0 01-.74.9 2.31 2.31 0 01-.35.18 1.58 1.58 0 01-.37.11 1.72 1.72 0 01-.44.06z"/><g class="cls-4"><path class="cls-5" d="M45.75 115.86H27.54a2 2 0 010-4h18.21a2 2 0 110 4z"/></g><path class="cls-3" d="M72.93 103.64H27.54a2 2 0 010-4h45.39a2 2 0 010 4z"/><g class="cls-4"><path class="cls-5" d="M27.54 103.64a2 2 0 01-1.41-.59 2 2 0 01-.44-.65 2 2 0 01-.15-.76 2 2 0 01.59-1.42 2.48 2.48 0 01.3-.25 2.31 2.31 0 01.35-.18 2.29 2.29 0 01.37-.12 2 2 0 01.78 0 2.4 2.4 0 01.38.12 1.83 1.83 0 01.34.18 2.6 2.6 0 01.31.25 3.61 3.61 0 01.25.3 2.31 2.31 0 01.18.35 2.65 2.65 0 01.12.37 2.69 2.69 0 010 .4 2 2 0 01-2 2z"/></g><g class="cls-4"><path class="cls-5" d="M91.19 103.64H65.43a2 2 0 010-4h25.76a2 2 0 010 4z"/></g><path class="cls-6" d="M97.72 35.86A12.81 12.81 0 11102.18 11a12.81 12.81 0 017.69 16 12.8 12.8 0 01-12.15 8.79zm0-21.63a8.82 8.82 0 108 5.15 8.83 8.83 0 00-8-5.15z"/><path d="M96.19 28.9a2 2 0 01-1.47-.64l-3.63-3.94A2 2 0 0194 21.61l2.11 2.29 5.21-6a2 2 0 113 2.61l-6.62 7.7a2 2 0 01-1.48.69z" fill="#94a5b0" id="Trazado_5705" data-name="Trazado 5705"/><path class="cls-5" d="M17.08 54.4a9.5 9.5 0 113.92-.86 9.5 9.5 0 01-3.92.86zm0-15a5.5 5.5 0 102.29 10.5 5.49 5.49 0 002.72-7.28A5.46 5.46 0 0019 39.75a5.62 5.62 0 00-1.94-.35z"/><path class="cls-6" d="M20.61 85.59a1.94 1.94 0 01-.71-.13 2 2 0 01-1.15-2.58 17.14 17.14 0 001.19-7h-2.11a3.55 3.55 0 01-3.55-3.55v-7.5a3.24 3.24 0 013.24-3.24h68.27a.52.52 0 00.18 0l15.44-4.18a3.05 3.05 0 013.76 3.59l-5.94 22.78a2 2 0 01-3.87-1l5.51-21.09L87 65.43a4.56 4.56 0 01-1.23.16H18.28v6.24h3.29a2 2 0 011.94 1.5l.14.53c.83 3.3-.06 7.56-1.17 10.45a2 2 0 01-1.87 1.28zm27.98-30.82H31a2 2 0 010-4h15.59v-3.39a.19.19 0 00-.19-.19h-6.34a2 2 0 01-2-2v-3.73h-8.18a2 2 0 010-4H39a3.15 3.15 0 013 3.26v2.47h4.4a4.2 4.2 0 014.19 4.19v5.39a2 2 0 01-2 2zM39 41.46z"/><path class="cls-6" d="M99.76 75.83H21.57a2 2 0 010-4h78.19a2 2 0 010 4zM55.59 65.59H18.38a2 2 0 01-2-2v-5.26a2 2 0 014 0v3.26h33.21v-6.82H29.7a2 2 0 110-4h25.89a2 2 0 012 2v10.82a2 2 0 01-2 2zM110 91.44c-3.88 0-5.91-2-7.54-3.57-1.44-1.41-2.49-2.43-4.74-2.43s-3.3 1-4.75 2.43c-1.63 1.59-3.65 3.57-7.54 3.57s-5.91-2-7.54-3.57c-1.44-1.41-2.49-2.43-4.74-2.43s-3.3 1-4.75 2.43c-1.62 1.59-3.65 3.57-7.54 3.57s-5.91-2-7.54-3.57c-1.44-1.41-2.49-2.43-4.75-2.43s-3.3 1-4.74 2.43c-1.63 1.59-3.66 3.57-7.54 3.57s-5.92-2-7.55-3.57c-1.44-1.41-2.49-2.43-4.75-2.43s-3.3 1-4.75 2.43c-1.62 1.59-3.65 3.57-7.54 3.57a2 2 0 110-4c2.26 0 3.3-1 4.75-2.43 1.55-1.59 3.62-3.57 7.55-3.57s5.92 2 7.55 3.57c1.44 1.41 2.49 2.43 4.75 2.43s3.3-1 4.74-2.43c1.63-1.59 3.66-3.57 7.54-3.57s5.92 2 7.55 3.57c1.44 1.41 2.49 2.43 4.74 2.43s3.3-1 4.75-2.43c1.63-1.59 3.65-3.57 7.54-3.57s5.91 2 7.54 3.57c1.44 1.41 2.48 2.43 4.74 2.43s3.3-1 4.75-2.43c1.62-1.59 3.65-3.57 7.54-3.57s5.91 2 7.54 3.57c1.44 1.41 2.49 2.43 4.74 2.43a2 2 0 010 4zM74.36 55.67H63.54a2 2 0 01-1.41-3.42l9.46-9.37a2.67 2.67 0 10-4.78-1.64 2 2 0 11-4 0 6.67 6.67 0 1111.8 4.27l-.13.14-6.08 6h6a2 2 0 010 4zm9.26-8.51a2 2 0 010-4 2.43 2.43 0 10-2.24-3.37 2 2 0 01-3.69-1.56 6.43 6.43 0 115.93 8.93z"/><path class="cls-6" d="M83.62 56a6.43 6.43 0 01-5.93-3.92 2 2 0 013.69-1.56 2.43 2.43 0 102.24-3.37 2 2 0 010-4 6.43 6.43 0 010 12.85z"/></g></g></svg>