<svg xmlns="http://www.w3.org/2000/svg" width="120" height="120"><g data-name="Grupo 7424" fill="none"><path data-name="Rectángulo 2578" d="M0 0h120v120H0z"/><g data-name="Grupo 7421" stroke="#ffea27" stroke-linecap="round" stroke-linejoin="round" stroke-width="4"><g data-name="Grupo 7419"><path data-name="Línea 1617" d="M59.596 113.861H41.39"/><path data-name="Línea 1618" d="M81.529 113.861h-9.103"/><path data-name="Línea 1619" d="M94.328 113.861h0"/><path data-name="Línea 1620" style="mix-blend-mode:multiply;isolation:isolate" d="M48.89 113.861H30.684"/></g><g data-name="Grupo 7420"><path data-name="Línea 1621" d="M76.07 101.636H30.684"/><path data-name="Línea 1622" style="mix-blend-mode:multiply;isolation:isolate" d="M30.684 101.636h0"/><path data-name="Línea 1623" style="mix-blend-mode:multiply;isolation:isolate" d="M94.328 101.636H68.57"/></g></g><g data-name="Grupo 7423" stroke-linecap="round" stroke-linejoin="round" stroke-width="4"><path data-name="Línea 1624" stroke="#95a6b1" d="M102.545 89.017l-72.578.009"/><g data-name="Grupo 7422"><path data-name="Trazado 6239" d="M36.787 52.533a7.472 7.472 0 01.3 5.472 7.477 7.477 0 01-4 4.465 7.5 7.5 0 01-9.937-3.7 7.5 7.5 0 013.7-9.937 7.5 7.5 0 019.937 3.7z" stroke="#ffea27"/><path data-name="Línea 1625" stroke="#95a6b1" d="M29.981 41.513V25.449"/><path data-name="Línea 1626" stroke="#95a6b1" d="M29.982 89.034l-.001-18.5"/><path data-name="Trazado 6241" d="M25.138 32.991l4.854-7.612 5.1 7.537" stroke="#95a6b1"/><path data-name="Rectángulo 2579" d="M43.916 63.151h9.627a1.829 1.829 0 011.829 1.829v24.037h0-13.293 0V64.988a1.837 1.837 0 011.837-1.837z" stroke="#95a6b1"/><path data-name="Rectángulo 2580" d="M64.421 49.447h9.966A1.653 1.653 0 0176.04 51.1v37.917h0-13.293 0V51.121a1.674 1.674 0 011.674-1.674z" stroke="#95a6b1"/><path data-name="Rectángulo 2581" d="M85.16 35.787h9.711a1.838 1.838 0 011.838 1.838v51.391h0-13.294 0V37.532a1.745 1.745 0 011.745-1.745z" stroke="#95a6b1"/></g></g></g></svg>