<svg xmlns="http://www.w3.org/2000/svg" viewBox="0 0 536 700"><defs><style>.cls-3{fill:#fff}.cls-6{fill:#28347d}</style></defs><g id="Tablero"><path fill="#1cacfe" d="M478.02 229.06v19H251.07v-19h226.95z"/><path d="M463.61 551.97l4.14 72.04h-8.21l-4.14-72.04h8.21zm-105.85 0h8.21v72.05h-8.21zm-89.42 0l-4.14 72.04h-8.22l4.15-72.04h8.21z" fill="#98cdd0"/><path class="cls-3" d="M390.48 271.35v25.37h-62.95l.18-25.37h62.77zm65.02 81.63v15.27h-45.82l.17-15.27h45.65zm-110.11-.7h39.95v15.45h-39.95zm102.95 119.61l-1 33.48H280.58l1-33.48zM433 487.84a6.61 6.61 0 10-6.58 7.13 6.88 6.88 0 006.58-7.13zm-31 0a6.61 6.61 0 10-6.59 7.13 6.88 6.88 0 006.59-7.13zm-31 0a6.6 6.6 0 10-6.58 7.13 6.88 6.88 0 006.58-7.13zm-31 0a6.61 6.61 0 10-6.6 7.16 6.88 6.88 0 006.6-7.16zm-31 0a6.6 6.6 0 10-6.6 7.16 6.88 6.88 0 006.6-7.16z"/><path class="cls-3" d="M426.42 480.7a7.16 7.16 0 11-6.59 7.14 6.88 6.88 0 016.59-7.14zm-31.01 0a7.16 7.16 0 11-6.58 7.14 6.88 6.88 0 016.58-7.14zm-31 0a7.16 7.16 0 11-6.58 7.14 6.88 6.88 0 016.58-7.14zm-31.01 0a7.16 7.16 0 11-6.58 7.14 6.88 6.88 0 016.58-7.14zm-31 0a7.16 7.16 0 11-6.58 7.14 6.88 6.88 0 016.58-7.14z"/><path class="cls-3" d="M254.35 248.06h220.57L472.15 552H251.59zM455.5 368.25V353h-45.65l-.17 15.27zm-65-71.53v-25.37h-62.79l-.18 25.37zm-5.13 71v-15.44h-39.98v15.46z"/><path class="cls-3" d="M287.66 351.51h41.94l.6 16.22h-34.43l-8.5-3.49.39-12.73z"/><path d="M389.94 271.35v25.37h-62.95l.18-25.37h62.77zm57.86 200.54l-1 33.48H280.05l1-33.48zM287.13 351.51h41.93l.61 16.22h-34.43l-8.5-3.49.39-12.73zm57.73.77h39.95v15.45h-39.95zm110.11.7v15.27h-45.83l.18-15.27h45.65z" fill="#fad70d"/><path d="M425.88 480.7a7.16 7.16 0 11-6.58 7.14 6.88 6.88 0 016.58-7.14zm-31.01 0a7.16 7.16 0 11-6.57 7.14 6.88 6.88 0 016.57-7.14zm-30.99 0a7.16 7.16 0 11-6.59 7.14 6.87 6.87 0 016.59-7.14zm-31.01 0a7.16 7.16 0 11-6.59 7.14 6.88 6.88 0 016.59-7.14zm-31.01 0a7.16 7.16 0 11-6.58 7.14 6.88 6.88 0 016.58-7.14z" fill="#33c977"/><path class="cls-6" d="M478.37 248.41c-18.38.58-37.31.75-56.21.93s-38 .24-57 .3l-57.12-.2-28.53-.23-28.48-.38a.78.78 0 01-.75-.65v-.12a63.1 63.1 0 01-.57-9.5c0-1.58.07-3.17.19-4.75a38.86 38.86 0 01.62-4.75v-.1a.53.53 0 01.5-.43c9.46-.22 18.92-.34 28.37-.49l28.37-.3 28.37-.12c9.46 0 18.91-.09 28.37-.05l28.37.07h14.18l14.19.1 28.36.24c9.46.14 18.92.22 28.37.41a.64.64 0 01.64.58v.06A77.75 77.75 0 01479 239c-.11 3.24-.31 6.47-.63 9.41zm-.69-.7c-.32-3.4-.52-6.49-.61-9.54a64.73 64.73 0 01.31-9.11l.64.65c-9.45.18-18.91.27-28.37.4l-28.36.24-14.19.11h-14.18l-28.37.06c-9.46 0-18.91 0-28.37-.05l-28.37-.12-28.37-.29c-9.45-.15-18.91-.27-28.37-.5l.53-.53a37 37 0 01.62 4.75c.13 1.58.18 3.17.2 4.75a61.83 61.83 0 01-.58 9.5l-.77-.77 28.27-.38 28.21-.23 56.34-.2c18.82.06 37.58.06 56.53.3s37.81.38 57.26.96zm-149.5 24.11c.37 4.52.57 8.63.59 12.7a98.61 98.61 0 01-.61 12.2l-.63-.64c2.62-.16 5.24-.23 7.87-.34l7.87-.19c5.24-.13 10.49-.14 15.73-.15s10.49.05 15.74.19l7.87.23c2.62.14 5.24.22 7.86.4l-.5.5c-.32-2.12-.49-4.23-.62-6.35s-.19-4.23-.21-6.34 0-4.23.11-6.34a61.45 61.45 0 01.58-6.34l.64.64c-2.59.13-5.18.18-7.76.27l-7.73.15c-5.14.08-10.29 0-15.43.06s-10.32-.1-15.54-.21l-7.86-.18zm-.95-.95l7.71-.26 7.84-.18c5.24-.11 10.55-.15 15.84-.21s10.64 0 16 .06l8 .15c2.65.09 5.3.14 7.93.27a.68.68 0 01.64.57v.08a58.78 58.78 0 01.57 6.34c.11 2.11.14 4.23.12 6.34s-.08 4.23-.21 6.34-.31 4.23-.63 6.35a.53.53 0 01-.5.45c-2.62.18-5.24.26-7.86.4l-7.87.23c-5.25.14-10.49.18-15.74.19s-10.49 0-15.73-.15l-7.87-.19c-2.63-.11-5.25-.18-7.87-.34a.67.67 0 01-.63-.61 115.13 115.13 0 01-.43-13.16c0-4.38.26-8.73.69-12.67zm29.14 67.84c.8 1.17 1.49 2.38 2.22 3.51.38.56.75 1.11 1.16 1.62l.62.77.15.18.09.08c0 .05 0 0 .05 0a.18.18 0 01-.09 0h-.07c-.01 0 0 0 .07-.05a2.21 2.21 0 00.44-.57 11.71 11.71 0 00.85-1.7c.53-1.22 1-2.52 1.56-3.82a.51.51 0 01.68-.26.5.5 0 01.3.48 16.92 16.92 0 01-.69 4.27 9.91 9.91 0 01-.86 2.13 4.29 4.29 0 01-.83 1.08 2.25 2.25 0 01-.81.5 1.5 1.5 0 01-.58.11 1.46 1.46 0 01-.6-.09 2.7 2.7 0 01-1.3-1c-.23-.29-.45-.6-.65-.91a14.6 14.6 0 01-1.06-1.94 20.74 20.74 0 01-1.37-4.07.4.4 0 01.31-.48.39.39 0 01.41.16zm-69.57 25.53a37.48 37.48 0 01-.67-6.47 40 40 0 01.29-6.47v-.09a.88.88 0 01.83-.76c3.59-.17 7.17-.24 10.75-.3s7.16 0 10.74 0 7.16.06 10.74.15 7.17.19 10.75.39a.69.69 0 01.64.61 70.52 70.52 0 01.32 8.21 75.55 75.55 0 01-.5 8.22.48.48 0 01-.45.43c-5.76.42-11.52.5-17.28.5s-11.52-.15-17.28-.61a.35.35 0 010-.69c5.76-.46 11.52-.58 17.28-.61s11.52.08 17.28.5l-.46.45a73.12 73.12 0 01-.5-8.22 70.51 70.51 0 01.31-8.21l.65.64c-3.58.2-7.16.3-10.75.39s-7.16.1-10.74.16-7.16 0-10.74-.05-7.16-.13-10.75-.29l.85-.85a37.85 37.85 0 01.29 6.47 38.48 38.48 0 01-.66 6.47.49.49 0 01-.57.38.51.51 0 01-.37-.35zm59.2 2.89c3.37-.1 6.67-.17 10-.23s6.54-.07 9.81-.1 6.5 0 9.76.06 6.53.13 9.83.28l-.6.59a62.34 62.34 0 01-.45-7.72 64.39 64.39 0 01.39-7.72l.66.66c-3.33.12-6.66.18-10 .23h-10c-3.33 0-6.66 0-10-.07s-6.66-.12-10-.22l.64-.64c.13 1.25.2 2.47.25 3.69s0 2.43.05 3.64c-.06 2.49-.14 4.92-.34 7.55zm-1.2 1.21c-.2-2.52-.29-5.24-.33-7.94 0-1.36 0-2.72.05-4.08s.11-2.71.24-4v-.05a.66.66 0 01.63-.59c3.33-.1 6.66-.18 10-.22s6.66-.05 10-.08h10c3.33.05 6.66.1 10 .23a.68.68 0 01.65.6v.06a66.52 66.52 0 01.38 7.72 62.34 62.34 0 01-.45 7.72v.06a.63.63 0 01-.58.54c-3.37.15-6.76.22-10.16.28s-6.8.06-10.21.06-6.8 0-10.17-.1-6.76-.11-10.06-.21zm64.57-15.85c3.75-.11 7.57-.19 11.4-.25l11.56-.1c3.88 0 7.74 0 11.61.06s7.73.13 11.56.27a.53.53 0 01.5.44v.09a51.52 51.52 0 01.51 7.64 47.72 47.72 0 01-.51 7.63v.06a.54.54 0 01-.5.45c-1.91.13-3.82.18-5.73.28l-5.72.16c-3.82.1-7.64.12-11.46.13s-7.63 0-11.45-.12l-5.73-.15c-1.91-.09-3.82-.14-5.73-.26a.59.59 0 01-.54-.54c-.21-2.62-.24-5.31-.2-8 0-1.34.07-2.67.15-4s.16-2.57.28-3.79zm1 1c.1 1.33.15 2.59.2 3.83s.07 2.46.06 3.67a72.21 72.21 0 01-.36 7.3l-.55-.55c1.91-.12 3.82-.18 5.73-.27l5.73-.14c3.82-.1 7.63-.12 11.45-.13s7.64 0 11.46.14l5.72.16c1.91.09 3.82.15 5.73.28l-.5.5a47.74 47.74 0 01-.52-7.63A50.22 50.22 0 01455 353l.5.5c-3.77.14-7.52.22-11.26.27s-7.49.05-11.22.07l-11.26-.1c-3.76-.09-7.57-.16-11.43-.28zm-51.69 25.87a20.22 20.22 0 012.73 3.24c.42.56.79 1.14 1.19 1.64a3.57 3.57 0 00.53.62c0 .05.06 0 .09.06h-.08.07a2.32 2.32 0 00.25-.22 7 7 0 00.56-.68c.39-.49.74-1.08 1.13-1.64.75-1.14 1.51-2.31 2.39-3.42a.39.39 0 01.54-.06.4.4 0 01.13.41 28.06 28.06 0 01-1.51 3.94 15.57 15.57 0 01-1 1.91 6.1 6.1 0 01-.73 1 5 5 0 01-.52.48 2.6 2.6 0 01-.87.39 1.82 1.82 0 01-1.09-.11 2 2 0 01-.42-.23 3 3 0 01-.32-.25 5.85 5.85 0 01-.8-1c-.4-.64-.75-1.24-1.07-1.87-.65-1.24-1.22-2.48-1.79-3.74a.37.37 0 01.59-.43zm68.32 1.56l2.55 2.77 1.27 1.37.64.68.15.16h.09a.88.88 0 00.24-.12 4.7 4.7 0 00.61-.48 16.5 16.5 0 001.24-1.26c.82-.91 1.62-1.88 2.55-2.79a.45.45 0 01.72.51 20.92 20.92 0 01-1.91 3.37 11 11 0 01-1.29 1.57 5 5 0 01-.88.71 2.51 2.51 0 01-.59.31 2.29 2.29 0 01-.37.12 2.38 2.38 0 01-.46 0 1.64 1.64 0 01-.94-.3 2.69 2.69 0 01-.37-.3l-.17-.19c-.21-.24-.43-.48-.63-.74-.4-.51-.8-1-1.16-1.56a17.4 17.4 0 01-1.86-3.42.37.37 0 01.2-.47.37.37 0 01.37.06zM345.39 390c3.33-.19 6.66-.31 10-.41l10-.2c3.33 0 6.66-.06 10 0s6.66.05 10 .15h.13a.84.84 0 01.81.86v.07l-.56 4.83a.38.38 0 01-.75 0l-.56-4.83.94.94c-3.33.1-6.66.13-10 .15s-6.66 0-10 0l-10-.21c-3.33-.1-6.66-.21-10-.4a.44.44 0 010-.88zm75.72 17.85c2.87-.2 5.73-.3 8.6-.37s5.73-.11 8.6-.13 5.73 0 8.59.11l4.3.14c1.44.08 2.87.13 4.3.25l-.46.46a63.9 63.9 0 01-.62-8.6 72.92 72.92 0 01.35-8.61l.73.73c-3.75.16-7.5.22-11.25.27s-7.5 0-11.25 0-7.5-.07-11.25-.16-7.5-.19-11.25-.38l.51-.5a21.83 21.83 0 01.33 4.63 27.79 27.79 0 01-.44 4.62.41.41 0 01-.48.33.42.42 0 01-.32-.33 27.79 27.79 0 01-.44-4.62 21.83 21.83 0 01.33-4.63v-.09a.53.53 0 01.49-.42c3.75-.19 7.5-.29 11.25-.37s7.5-.11 11.25-.16 7.5 0 11.25 0 7.5.12 11.25.28a.75.75 0 01.72.67v.06a70.84 70.84 0 01.35 8.61 60.78 60.78 0 01-.62 8.6.51.51 0 01-.46.43c-1.43.11-2.86.16-4.3.25l-4.3.14c-2.86.08-5.73.1-8.59.1s-5.73 0-8.6-.12-5.73-.17-8.6-.37a.47.47 0 010-.93zM448 506.06l-20.72.28-20.86.19-41.91.16c-14 0-28 0-42-.17l-21-.21-20.92-.31a.59.59 0 01-.58-.55c-.32-5.59-.29-11.18-.17-16.76s.38-11.16 1-16.73v-.05a.84.84 0 01.82-.75l20.84-.16 20.84-.06 41.68-.12 41.68.11 20.84.05 20.84.16a.85.85 0 01.85.81v.07c.13 2.84.13 5.72.11 8.61s-.11 5.78-.23 8.65-.26 5.75-.46 8.56-.43 5.51-.65 8.22zm-1.34-1.38c-.07-2.87-.1-5.66-.11-8.42s0-5.47.05-8.18.14-5.4.29-8.09.33-5.39.63-8.13l.85.88-20.84.16-20.84.05-41.68.1-41.68-.11-20.84-.06-20.84-.16.83-.8c.23 5.59.12 11.17-.08 16.75s-.55 11.15-1.2 16.72l-.58-.6 20.75-.36 20.71-.21c13.79-.14 27.59-.12 41.36-.17l41.45.16 20.82.19z"/><path class="cls-6" d="M309.7 487.84a9.09 9.09 0 01-1.85 5.56 7.61 7.61 0 01-2.37 2 6.84 6.84 0 01-3.08.76 6.72 6.72 0 01-3.09-.72 7.77 7.77 0 01-2.42-2 9.19 9.19 0 010-11.24 7.6 7.6 0 012.42-2 6.88 6.88 0 013.09-.73 6.77 6.77 0 013.07.76 7.39 7.39 0 012.37 2 9 9 0 011.86 5.61zm-1.43 0a6 6 0 00-1.83-4.32 5.65 5.65 0 00-8 .06 6 6 0 000 8.52 5.66 5.66 0 008 0 6 6 0 001.83-4.26zm32.44 0a9.09 9.09 0 01-1.84 5.58 7.58 7.58 0 01-2.37 2 6.82 6.82 0 01-6.22.06 7.76 7.76 0 01-2.46-2 9 9 0 01-1.95-5.68 8.9 8.9 0 012-5.66 7.14 7.14 0 015.55-2.65 7 7 0 015.44 2.75 9.11 9.11 0 011.85 5.6zm-1.45 0a6 6 0 00-1.81-4.33 5.68 5.68 0 00-4.05-1.63 5.52 5.52 0 00-3.93 1.73 6.1 6.1 0 00-1.69 4.23 6 6 0 001.72 4.2 5.58 5.58 0 003.9 1.7 5.7 5.7 0 004-1.6 6 6 0 001.86-4.3zm32.45 0a9 9 0 01-1.85 5.57 7.52 7.52 0 01-2.37 2 6.76 6.76 0 01-6.17 0 7.67 7.67 0 01-2.4-2 9.18 9.18 0 010-11.17 6.82 6.82 0 0110.88 0 8.9 8.9 0 011.91 5.6zm-1.44 0a6.08 6.08 0 00-1.8-4.34 5.77 5.77 0 00-4.06-1.68 5.68 5.68 0 00-4 1.71 6.14 6.14 0 00-1.77 4.31 6.06 6.06 0 001.8 4.28 5.7 5.7 0 008 0 6 6 0 001.83-4.28zm32.47 0a9.3 9.3 0 01-1.81 5.62 7.52 7.52 0 01-2.38 2.06 6.73 6.73 0 01-6.29 0 7.66 7.66 0 01-2.44-2 9.53 9.53 0 010-11.38 7.73 7.73 0 012.43-2 6.73 6.73 0 016.29 0 7.52 7.52 0 012.38 2.06 9.35 9.35 0 011.82 5.64zm-1.49 0a5.79 5.79 0 00-5.84-5.8 5.73 5.73 0 00-3.9 1.61 5.79 5.79 0 000 8.38 5.73 5.73 0 003.89 1.6 5.81 5.81 0 005.84-5.79zm32.41 0a9.4 9.4 0 01-1.78 5.58 7.29 7.29 0 01-2.35 2.05 6.63 6.63 0 01-6.24 0 7.67 7.67 0 01-2.37-2 9.66 9.66 0 010-11.23 6.73 6.73 0 0111 0 9.48 9.48 0 011.74 5.6zm-1.32 0a5.75 5.75 0 00-1.92-4.29 6 6 0 00-4-1.53 5.93 5.93 0 00-4 1.56 5.79 5.79 0 000 8.53 5.89 5.89 0 004 1.57 6 6 0 004-1.54 5.8 5.8 0 001.92-4.3zM306 457.6a36.85 36.85 0 013 3.42l2.38 3.08a.52.52 0 00-.42 0c-.07 0 0 0 .05-.05a3.89 3.89 0 00.49-.67c.36-.54.67-1.2 1-1.84a37.72 37.72 0 012.19-3.94.45.45 0 01.61-.12.43.43 0 01.19.43 23.62 23.62 0 01-1.06 4.45 14.78 14.78 0 01-.94 2.21 5.61 5.61 0 01-.84 1.14 2.42 2.42 0 01-.86.59 1.79 1.79 0 01-1.5-.07 2.31 2.31 0 01-.8-.72l-.35-.48c-.22-.33-.43-.64-.63-1-.39-.66-.78-1.31-1.12-2a29 29 0 01-1.85-4.18.27.27 0 01.18-.35.25.25 0 01.28.1zm55.67-.45c1.12 1.37 2.11 2.81 3.09 4.24l1.44 2.12c.25.33.5.72.71 1a1.39 1.39 0 00.46.44.16.16 0 00-.12 0l.1-.07a3.64 3.64 0 00.6-.71c.44-.62.84-1.37 1.27-2.11a26.75 26.75 0 012.9-4.43.42.42 0 01.61-.05.44.44 0 01.13.46c-.53 1.67-1 3.3-1.7 5a16.7 16.7 0 01-1.2 2.5 5.23 5.23 0 01-1.07 1.28 2.77 2.77 0 01-1 .56 2.22 2.22 0 01-1.4-.11 3.69 3.69 0 01-1.48-1.27c-.3-.43-.51-.78-.74-1.18-.45-.78-.87-1.56-1.24-2.36a35 35 0 01-2-4.92.36.36 0 01.63-.33zm64.69 1.99a33.16 33.16 0 012.43 3.62c.37.6.71 1.23 1.09 1.77a8.1 8.1 0 00.57.77c.09.12.21.23.29.32a.45.45 0 00-.3-.11c-.12.05.16-.07.34-.26a7.15 7.15 0 00.62-.69 18.88 18.88 0 001.2-1.65c.76-1.17 1.52-2.38 2.26-3.6a.49.49 0 01.9.39 21 21 0 01-1.64 4.1 15 15 0 01-1.18 1.94 6.88 6.88 0 01-.81.94 2.64 2.64 0 01-1.48.81 1.59 1.59 0 01-1.29-.45 6.28 6.28 0 01-.43-.49 7.51 7.51 0 01-.68-1c-.39-.68-.72-1.33-1-2-.62-1.31-1.16-2.62-1.7-4a.48.48 0 01.27-.63.47.47 0 01.54.22zM253.48 394c.19 3.28.27 6.56.33 9.84s.07 6.55.06 9.83-.08 6.55-.19 9.83l-.21 4.92c-.11 1.63-.19 3.27-.34 4.91a.47.47 0 01-.93 0c-.12-1.64-.17-3.28-.25-4.92l-.12-4.92q-.09-4.91 0-9.83c0-3.28.09-6.55.23-9.83s.26-6.55.51-9.83a.46.46 0 01.5-.42.45.45 0 01.41.42z"/><path class="cls-6" d="M253 444.53c.14 4.48.19 9 .28 13.43l.11 13.43q.06 13.44-.09 26.87c-.15 8.95-.2 17.9-.43 26.86l-.34 13.43c-.16 4.47-.27 9-.48 13.42l-.49-.49c9.19-.24 18.38-.35 27.57-.52l27.57-.31c9.19-.13 18.38-.15 27.57-.18l27.57-.11c9.19-.05 18.38 0 27.57 0s18.38 0 27.57.12l27.57.3c9.19.17 18.39.28 27.58.52l-.63.62c-.13-12.66-.13-25.33-.19-38v-38q0-19 .18-38l.26-38c.06-12.66.29-25.33.43-38l.51-38 .72-38c.32-12.66.58-25.32 1-38a.45.45 0 01.47-.44.44.44 0 01.44.44c.18 12.67.21 25.33.29 38v38l-.18 38c-.09 12.66-.08 25.33-.26 38l-.43 38c-.13 12.66-.27 25.32-.51 38l-.65 38c-.29 12.66-.52 25.32-.88 38a.65.65 0 01-.62.63c-9.19.24-18.39.35-27.58.52l-27.57.29c-9.19.1-18.38.08-27.57.12s-18.38.1-27.57.05l-27.57-.11c-9.19 0-18.38-.06-27.57-.18l-27.49-.24c-9.19-.17-18.38-.28-27.57-.52a.51.51 0 01-.5-.49c-.12-4.47-.16-9-.24-13.43l-.09-13.43c-.07-9 .05-17.91.06-26.87s.19-17.9.4-26.86l.35-13.42c.17-4.48.3-9 .52-13.43a.47.47 0 01.94 0zm1.88-196.46c.12 4.12.16 8.24.24 12.36l.1 12.36v24.73c-.1 8.24-.14 16.48-.31 24.72s-.33 16.48-.63 24.72a.79.79 0 01-.82.77.81.81 0 01-.77-.78c-.15-8.25-.18-16.49-.18-24.73s.1-16.48.14-24.72l.41-24.73.33-12.36c.15-4.12.27-8.24.46-12.35a.54.54 0 01.56-.52.55.55 0 01.47.53z"/><path class="cls-6" d="M316.29 344.24c1.57-2 3.24-3.79 4.9-5.63s3.37-3.61 5.08-5.39c3.4-3.57 6.87-7.09 10.37-10.56s7-7 10.59-10.33c1.79-1.7 3.6-3.38 5.44-5s3.71-3.26 5.63-4.83a.57.57 0 01.65 0c5.27 3.29 10.46 6.7 15.63 10.12S384.87 319.49 390 323s10.18 7.1 15.17 10.8 10 7.33 14.73 11.53a.85.85 0 01-1.1 1.29c-2.36-1.91-4.85-3.75-7.36-5.55s-5-3.62-7.55-5.4L388.61 325l-15.18-10.74c-5-3.61-10.09-7.22-15.07-10.91l.65-.05c-3.48 3.47-6.92 7-10.42 10.45l-10.46 10.42-10.39 10.49c-3.41 3.53-6.94 7-10.11 10.66a.84.84 0 01-1.19.09.86.86 0 01-.15-1.17z"/><path class="cls-6" d="M358.92 302.87c.33 3.53.6 7.06.86 10.59s.48 7.07.65 10.61.4 7.07.53 10.62.28 7 .21 10.69a.85.85 0 01-1.7 0v-.06c0-1.68-.07-3.49-.14-5.24l-.2-5.3-.38-10.62c-.14-3.53-.21-7.08-.3-10.62s-.11-7.08-.06-10.63a.26.26 0 01.26-.26.28.28 0 01.27.22zM318.3 336c-.05 1.57-.19 3.13-.32 4.67l-.19 2.3c0 .37-.06.78-.07 1.12 0 .07 0 .09 0 0s-.2-.16-.18-.14a2.1 2.1 0 00.72-.1c.32-.09.66-.21 1-.34.68-.26 1.37-.58 2.06-.9 1.39-.66 2.77-1.38 4.21-2a.42.42 0 01.45.71 27.42 27.42 0 01-3.82 2.84 18.42 18.42 0 01-2.16 1.14 8.35 8.35 0 01-1.22.46 3.8 3.8 0 01-1.59.16 1.75 1.75 0 01-1.16-.73 2 2 0 01-.27-1.16c0-.45.07-.82.12-1.23.11-.79.24-1.58.4-2.35a28.28 28.28 0 011.35-4.58.37.37 0 01.47-.2.37.37 0 01.23.35zm97.7 1.94a38.19 38.19 0 012.36 3.72 23.59 23.59 0 011.92 4.11 1.67 1.67 0 01.08.6 1.37 1.37 0 01-.35.87 1.63 1.63 0 01-1.21.5 4.77 4.77 0 01-1.36-.18 15.74 15.74 0 01-2.16-.78 26.63 26.63 0 01-3.9-2.11.39.39 0 01-.11-.54.4.4 0 01.41-.17c1.45.3 2.85.73 4.21 1.14.69.2 1.37.4 2 .53a3.44 3.44 0 00.8.1c.09 0 .06-.08-.21.15a.69.69 0 00-.16.38v.05c-.38-1.19-1-2.58-1.52-3.91s-1.06-2.71-1.47-4.14a.35.35 0 01.25-.45.36.36 0 01.42.13zm-106.26 29.79l-.38 7.51a.47.47 0 01-.94 0l-.38-7.51a.85.85 0 011.7-.08zm53.81 3.5l.58 14.17a.94.94 0 01-1.88.08v-.08l.58-14.17a.36.36 0 01.37-.35.37.37 0 01.35.35zm68.51 2.25l.54 12.44a.9.9 0 11-1.79.08v-.12l.51-12.42a.37.37 0 01.38-.35.36.36 0 01.36.35zm-121.23 58.97c.16 2.55.31 5.1.43 7.65s.22 5.11.33 7.66l.24 7.66c.06 2.55.11 5.1.11 7.66a1.12 1.12 0 01-2.23 0q-.07-3.83-.08-7.66l.05-7.66c.05-2.55.07-5.1.14-7.66s.14-5.11.23-7.66a.39.39 0 01.78 0zm56.51 3.2c.19 2.46.31 4.93.4 7.39s.15 4.93.22 7.4.05 4.93.08 7.4-.06 4.93-.2 7.39a.9.9 0 01-1.8 0c-.13-2.46-.16-4.93-.2-7.39s0-4.93.08-7.4.1-4.93.22-7.4.22-4.93.4-7.39a.4.4 0 01.43-.37.39.39 0 01.37.37zm63.78 2.84c.23 4.55.35 9.09.45 13.64.07 2.27.07 4.54.1 6.82s0 4.54-.05 6.81a1 1 0 01-1.94 0c-.05-2.27-.06-4.54-.06-6.81s0-4.55.1-6.82c.1-4.55.23-9.09.46-13.64a.47.47 0 01.49-.44.48.48 0 01.45.44zm32.94 113.45c.33 3 .58 6 .86 9l.7 9q.66 9 1.13 18c.31 6 .62 12 .82 18s.42 12 .48 18a.3.3 0 01-.29.31.31.31 0 01-.31-.27c-.62-6-1.12-12-1.58-18s-.88-12-1.25-18-.7-12-.95-18l-.33-9c-.06-3-.16-6-.17-9a.44.44 0 01.44-.44.45.45 0 01.45.4zm-8.14 0c.33 3 .58 6 .86 9l.71 9q.66 9 1.12 18c.32 6 .63 12 .82 18s.42 12 .48 18a.37.37 0 01-.36.38.38.38 0 01-.38-.34c-.62-6-1.12-12-1.59-18s-.87-12-1.25-18-.69-12-.95-18l-.32-9c-.07-3-.16-6-.17-9a.51.51 0 01.51-.52.52.52 0 01.52.48zm-195.29.06c0 3-.13 6-.19 9l-.34 9c-.23 6-.57 12-.92 18s-.76 12-1.25 18l-.74 9c-.3 3-.55 6-.89 9a.32.32 0 01-.35.28.32.32 0 01-.28-.32c0-3 .1-6 .15-9l.3-9c.19-6 .5-12 .82-18s.69-12 1.15-18l.69-9c.29-3 .52-6 .85-9a.5.5 0 01.55-.45.51.51 0 01.45.49zm8.37 0c-.05 3-.18 6-.27 9l-.39 9c-.26 6-.65 12-1 18s-.79 12-1.24 18l-.73 9c-.29 3-.54 6-.87 9a.35.35 0 01-.69 0c0-3 .12-6 .17-9l.31-9c.23-6 .53-12 .83-18s.67-12 1.1-18l.64-9c.26-3 .48-6 .77-9a.67.67 0 011.37 0zm89.43 0c.18 6 .25 12 .3 18s0 12 0 18l-.19 18-.18 9c-.1 3-.16 6-.29 9a.32.32 0 01-.34.31.32.32 0 01-.31-.31c-.14-3-.2-6-.3-9l-.19-9-.21-18v-18c0-6 .11-12 .28-18a.68.68 0 011.36 0zm8.23 0c.17 6 .24 12 .29 18s0 12 0 18l-.18 18-.18 9c-.1 3-.17 6-.3 9a.35.35 0 01-.35.33.35.35 0 01-.33-.33c-.13-3-.2-6-.3-9l-.2-9-.11-18v-18c0-6 .12-12 .28-18a.7.7 0 011.4 0z"/></g><path class="cls-3" d="M394.43 398.5a79.11 79.11 0 019.86 3.21c5 1.88 9.23 3.56 17.3 11.76 2.14 2.18.47 5.13-2.25 4l-.13.19-10-7.19-14.89-10.77h-.16z" id="Persona"/></svg>