<svg xmlns="http://www.w3.org/2000/svg" viewBox="0 0 536 800"><defs><style>.cls-1{fill:#fff}.cls-2{fill:#33c977}.cls-3{fill:#30d9cb}.cls-4{fill:#28b8ce}.cls-5{fill:#1cacfe}.cls-10{fill:none}.cls-10,.cls-9{stroke:#28347d;stroke-linecap:round;stroke-linejoin:round}.cls-8,.cls-9{fill:#28347d}.cls-10,.cls-9{stroke-width:2.5px}</style></defs><g id="LIN"><path class="cls-1" d="M293.89 525.82c-2.3-1.55-8.34-5.19-13.43-8.15l3.06-1.25a94.7 94.7 0 0110.38 9.39z"/><path class="cls-2" d="M261.31 534.26a32.09 32.09 0 005.05 5.65c-.26 1.35-5 8.07-6.32 7a1.16 1.16 0 01-.32-.81c-.23-2.1.64-7.22 1.59-11.84z"/><path class="cls-2" d="M262.14 525.2l1 .79c-.33 1.28-1.12 4.62-1.86 8.27-.95 4.62-1.82 9.73-1.6 11.82a1.16 1.16 0 00.32.81 40.53 40.53 0 01-9.31-5.7c.52-7.34.93-13.39 1-15.16l4.87.69z"/><path class="cls-3" d="M302.85 508.52a6.54 6.54 0 01-1.33 5.3c-1.09 1.4-2 1-3.65 0l-3.09-2z"/><path class="cls-1" d="M261.64 516.24c-.89-.89-1.42-1.79-1.16-2.65.47-1.55 1.48-2.49 3.58-2.72s5.67.93 10.24 3.34c1.49.79 3.71 2 6.16 3.46 5.09 3 11.13 6.6 13.43 8.15a94.7 94.7 0 00-10.38-9.39l-2.13-1.69c-2.87-2.27-6.53-2.85-7-5a3.91 3.91 0 012.32-4.43 12.31 12.31 0 017.93.39 101.47 101.47 0 0110.13 6.08l3.09 2c1.63 1 2.56 1.4 3.65 0a6.54 6.54 0 001.33-5.3v-.06c-.4-2.17-1.64-2.95-1.87-5.67a3.78 3.78 0 013.11-4.2c1.08 0 2.64 1.16 4 3.57a36.08 36.08 0 011.35 3.68 18 18 0 01.91 5c0 2 .07 1.74-1.41 5.15s-2.25 4.59-3.1 8-2 4.2-3.35 5.84-.38 1.47-2.25 3.73c-1.18 1.42-2.95 1.78-4.36 2.32a3.57 3.57 0 00-1.95 1.33c-1.1 1.79-3.1 3.81-7.13 5.44s-8.63 3.42-12.46 2.26a23.93 23.93 0 01-7.94-5 32.09 32.09 0 01-5.05-5.65c.74-3.65 1.53-7 1.86-8.27l-1-.79c-1.89-1.46-3.47-2.66-4.18-3.22-2.14-1.71-2.61-3.42-1.83-4.58s3.82-1.75 5.46-1.12z"/><path class="cls-4" d="M247.16 634.87s-29.11 7.61-85.18 6.81c-47.06-.66-72.76-8.47-72.76-8.47a286 286 0 017.73-50 20.62 20.62 0 008.23 3.18c13.48 2.69 74 7.46 99.28 6.84s33.38-1.66 37.93-3.74c4.36 19.88 4.61 34.81 4.77 45.38z"/><path class="cls-2" d="M101.21 259c6-.28 12.38-4.82 13.59-8.61a14.19 14.19 0 011.46-1.45c-.13.38-4 12-8.37 23.28a14.25 14.25 0 01-1.68 3.11c-4.83 6.66-13.84 4.25-18.81 2.5-6.56-2.3-14.61-9-15.13-14.19s5.52-15.66 8.3-23.19a84.51 84.51 0 003.84 8.93 17.46 17.46 0 0016.8 9.62z"/><path class="cls-1" d="M100.08 206.08c-2.62-1.18-9-1.39-12.91-1-.19 0-.4.06-.64.11a5 5 0 00.64-2.1c.27-3.24 3.37-5.24 6.69-5.42 1.06-.06 2.39-.11 3.78-.12 3 0 6.38.16 8.23.85a16.62 16.62 0 014.71 3.45 22.89 22.89 0 013.21 3.58 2.59 2.59 0 00-1 2.35c.16 1.59 1.75 3.59 3.89 5 .44 3.54-.1 6.91-1.91 9.37s-4.24 2.56-5 .93a28 28 0 00-3-10.21 14.62 14.62 0 00-6.69-6.79z"/><path class="cls-1" d="M109.75 177c.41 6.24 1.59 20.28.83 24.91a16.62 16.62 0 00-4.71-3.45c-1.85-.69-5.22-.86-8.23-.85 1.18-3.31 2.53-15.06 2.71-20.66s.36-13.1.64-15.35c.49-4 4.69-2.76 6.14 0s2.27 10.03 2.62 15.4zm6.96 35.76c-2.14-1.38-3.73-3.38-3.89-5a2.59 2.59 0 011-2.35 9.61 9.61 0 013.28-1.43 13.19 13.19 0 017.58 0c2.62 1 4.6 1.71 6.06 5.41.85 2.2.31 9.38-1.18 13.64-.87 2.51-2.26 8.21-6 13.63a22.78 22.78 0 01-7.3 12.34 14.19 14.19 0 00-1.46 1.45c-1.21 3.79-7.62 8.33-13.59 8.61a17.46 17.46 0 01-16.8-9.62 84.51 84.51 0 01-3.84-8.93A115.34 115.34 0 0176.29 227c-1-4.6-1.57-7.79-.55-10.5s4.14-3.86 5.08-4.68.61-2.63 1.22-3.92c.54-1.14 2.88-2.3 4.49-2.69.24 0 .45-.09.64-.11 3.86-.4 10.29-.19 12.91 1a14.62 14.62 0 016.68 6.77 28 28 0 013 10.21c.81 1.63 3.25 1.53 5-.93s2.39-5.85 1.95-9.39z"/><path class="cls-2" d="M192.31 300.51c6.71 6.9 29.08 30 29.88 32.68-.86-1.38-13.58 14.4-16.06 22 0 0-18.35-34.41-27.57-44.15l11.86-12.44zm60.97 56.62c.68 2.29-2.16 6.72-4.86 10.24-2.18 2.86-4.26 5.1-4.26 5.1l-6.11-13.58c5.89-3.36 12.53-5.46 14.68-2.8.27.38.4.73.55 1.04z"/><path class="cls-2" d="M252.73 356.09c-2.15-2.66-8.79-.56-14.68 2.8a110.94 110.94 0 00-13 9.12s-.22-3.55-.54-8.4c2.89-6.87 7.24-17.82 11.4-28.61 1.09 1.77 13.09 18.26 16.82 25.09z"/><path class="cls-2" d="M109.58 380.67a39.6 39.6 0 01-5-.95c-9.33-2.38-43.22-19.27-47.68-24.56s-8.18-7.25-5.28-26.43 15.84-53.86 20.66-65.05c.52 5.21 8.57 11.89 15.13 14.19 5 1.75 14 4.16 18.81-2.5-1.1 10.81-1.95 20.82-1.54 29.74.36 7.77 1.12 9.79 1.23 16.64 0 0 7.17.77 12.24-1.21s11.6-8.91 20.63-11.08 13.78-1.66 20.41 0a53.08 53.08 0 0019.37 1.54c9.22 9.74 27.57 44.15 27.57 44.15 2.48-7.57 15.2-23.35 16.06-22 .63 2.07 1.69 16.8 2.34 26.42.32 4.85.54 8.4.54 8.4a110.94 110.94 0 0113-9.12l6.11 13.58s2.08-2.24 4.26-5.1a122.46 122.46 0 019.42 40c.77 13.05-3.49 81.73-4.27 93.39l-50.32 18.44 48.45 6.84c-.07 1.77-.48 7.82-1 15.16-.92 13.31-2.18 30.88-2.32 35-.2 6.42-1.44 11.19-6 13.26s-12.64 3.12-37.93 3.74-85.8-4.15-99.28-6.84a20.62 20.62 0 01-8.19-3.13c-4.84-3.57-4.07-9.23-2.13-16.72 2.7-10.36 13.48-73.17 14.76-103.32s3.37-64.36-.05-82.48z"/><path class="cls-1" d="M237.68 280.15c-2 2.83-9.22 4.59-15.49 2.36s-7.56-5.65-8.91-9.48c5.19.33 18.72 1.83 24.4 7.12zm8.57 20.32c.44-.42.87-.86 1.27-1.32-1.13 4.24-6.19 17.9-11.59 31.85-4.16 10.79-8.51 21.74-11.4 28.61-.65-9.62-1.71-24.35-2.34-26.42-.8-2.64-23.17-25.78-29.88-32.68a168.68 168.68 0 001.92-20.77 40.48 40.48 0 001.32 8c1.95 6.45 9 13.75 14.95 16.71s14.62 3.33 20.52 2.87a23.73 23.73 0 0015.23-6.85z"/><path class="cls-1" d="M194 275.13c-.63 1.66-2.7 3.1-4.87 1s-3.22-11.84-2.73-16.72 2.79-8.32 5.17-7.39 3 5.4 3.11 8.19l2 .83s4.59-18.55 7.15-25c2.28-5.76 4.77-12 12.13-16.12s16.06-3.22 19.38-2.59 15.13 5 19.37 8.39 8.19 10.89 9 17.1-4.56 28.91-5.18 31.4l1.48.67s2.4-3.64 5.59-3.18 2.62 3.34 1.79 6.76c-.68 2.8-3.7 8.5-6.27 11.61s-7.35 5.9-8.48 1.17a36.62 36.62 0 01-5 7.9c-.4.46-.83.9-1.27 1.32a23.73 23.73 0 01-15.37 6.84c-5.9.46-14.61.07-20.52-2.87s-13-10.26-14.95-16.71a40.48 40.48 0 01-1.32-8c-.12-1.58-.21-3.14-.21-4.6zm43.7 5c-5.65-5.29-19.21-6.79-24.4-7.12 1.35 3.83 2.72 7.28 8.91 9.48s13.46.51 15.47-2.34z"/><path class="cls-5" d="M229.66 199.49a27.22 27.22 0 0110.42-1.65l-2.34 1.76s9.74-1.34 15.54 1l-2.7 1.24s18.65 5 23 17.73l-3.11-.32a26 26 0 014 11.72l-2.7-1.56s.46 26-6.3 42.26c-3.19-.46-5.59 3.18-5.59 3.18l-1.48-.67c.62-2.49 6-25.18 5.18-31.4s-4.76-13.67-9-17.1-16.06-7.77-19.37-8.39-12-1.55-19.38 2.59-9.83 10.4-12.09 16.12c-2.56 6.47-7.15 25-7.15 25l-2-.83c-.1-2.79-.72-7.25-3.11-8.19-.2-5.38 2.23-16 5-25.07 2.2-7.26 8.6-16 9.95-17.2l-1.35-2 3.11.73v-5.19l2.7 4.46s3.9-9.74 20.4-10.57z"/><path class="cls-1" d="M326 200c.6.76.43 9.65.43 9.65a69.11 69.11 0 00-7.33 2.09v-9.44c-.02-1.3 6.13-3.3 6.9-2.3zm54.14 1.52c.72.52.37 10.4.37 10.4a82.81 82.81 0 00-10.93-2.69s-.35-7.47 0-8.71 8.23-.68 10.56 1z"/><path class="cls-1" d="M323.85 215.15c-7.7.78-14.41 1.33-17.27 2.62a45.44 45.44 0 017.17-4 56.51 56.51 0 015.33-2.1 69.11 69.11 0 017.33-2.09 93.28 93.28 0 0121-2.25 128.18 128.18 0 0122.2 1.85 82.81 82.81 0 0110.93 2.69 46.72 46.72 0 0113.72 6.76 74.42 74.42 0 00-13.51-2.59c-15.55-1.54-44.46-2.13-56.9-.89z"/><path class="cls-1" d="M399.61 215.52l3.81 7.69c-.87-1.39-4.31-3.1-9.19-4.53a46.72 46.72 0 00-13.72-6.76s.35-9.88-.37-10.4c-2.33-1.68-10.22-2.25-10.56-1s0 8.71 0 8.71a128.18 128.18 0 00-22.2-1.85 93.28 93.28 0 00-21 2.25s.17-8.89-.43-9.65c-.75-1-6.9 1-6.9 2.32v9.42a56.51 56.51 0 00-5.33 2.1c-.15-8.62 1.3-40.12 24.92-48.73 2.8-3.83 11.1-3.83 11.1-3.83 1-3.42 12.07-3.34 12.07 0 0 0 6.45.83 8.47 3.26 11.12.73 32.36 16.95 29.33 51z"/><path class="cls-3" d="M403.55 223.44c1 2.49-2.17 5.55-8.81 8a15.46 15.46 0 00-1.35-1.55 25 25 0 00-11.3-6.44 69.1 69.1 0 00-16.17-2.17c-15.87-.64-46.41-.26-48 2.18 0 .67.09 2 .17 3.64-5.74-2.06-14.15-6.43-12.81-8.4.39-.29.81-.6 1.28-.91 2.86-1.29 9.57-1.84 17.27-2.62 12.44-1.24 41.35-.65 56.87.94a74.42 74.42 0 0113.51 2.59c4.88 1.43 8.32 3.14 9.19 4.53z"/><path class="cls-5" d="M393.39 229.87l.65 6.91a13.24 13.24 0 00-2.72 3.14l-1.89 3.49-3.73-.41c.15-6-1.17-15.47-3.61-19.51a25 25 0 0111.3 6.38z"/><path class="cls-1" d="M382.09 223.44c2.44 4 3.76 13.47 3.61 19.51l3.73.46 1.89-3.49a13.24 13.24 0 012.72-3.14c1.59-1.28 3.14-1.52 4.49-.43 2.38 1.91 2.22 6 1.08 12.33s-2.9 8.69-5.38 12.12c-2.9 4-7.28 5.5-7.51.72-.11-2-.16-3.26-.16-3.26a43.67 43.67 0 01-8.71 24.15c-3.42 4.25-16.16 11.71-18.75 12s-15.65 1.14-20.21-.64a12.79 12.79 0 01-2.27-1.24c-4.74-3.14-11.37-10.31-13-14.38-1.87-4.76-3.94-20.41-4.14-25.18-.18-3.87-1-18.62-1.4-25.9-.08-1.68-.15-3-.17-3.64 1.57-2.44 32.11-2.82 48-2.18a69.1 69.1 0 0116.17 2.17z"/><path class="cls-1" d="M386.71 261.52c.4 8.16 1.46 29.15 1.8 33.37-4 6.85-15.33 18.81-22.59 21.71-14.33-5.22-25.57-13.69-28.9-17.68l-.41-6.38a12.79 12.79 0 002.27 1.24c4.56 1.78 17.62.95 20.21.64s15.33-7.77 18.75-12a43.67 43.67 0 008.71-24.15s.05 1.22.16 3.25z"/><path class="cls-3" d="M337 298.93c3.33 4 14.57 12.46 28.9 17.68a42.35 42.35 0 00-7.36 7.74 172.28 172.28 0 00-10.87 16c-3-2.17-12.12-17.93-13.22-22.28-.6-2.45-.08-7.5.55-12.05.48-3.53 1-6.75 1.16-8.26a6.66 6.66 0 00.84 1.17z"/><path class="cls-4" d="M365.92 316.61c1.77 1.62 5.06 4.36 8.91 7.53a36 36 0 01-2.83 12.47h-8.81c-1.47-2.18-2.92-5.32-4.67-12.26a42.35 42.35 0 017.4-7.74z"/><path class="cls-3" d="M393.43 301.1a49.62 49.62 0 011.62 21.11 33.44 33.44 0 01-5.29 14.4c-4.57-4-10.17-8.54-14.93-12.47-3.85-3.17-7.14-5.91-8.91-7.53 7.26-2.9 18.55-14.86 22.59-21.71a13.81 13.81 0 001.25-2.58 45.68 45.68 0 013.67 8.78z"/><path class="cls-4" d="M384.48 434.51a54 54 0 01-6.06-.05c-.16-.57-.32-1.07-.47-1.48l-18.05-.23c.19-39.88-.22-79.1 3.33-96.14H372c3 13.53 8.24 53.74 12.48 97.9z"/><path class="cls-3" d="M280.32 422.83c-2.59.94-.25 4.57 2.47 5.26s10.93-.24 13.24-.48l-7.88 2.82c-4.2 1.47-5.44 2.41-9.87 5-1-11.73-3.16-34.43-4.33-45.62s-6.94-37.93 4.33-49.9 27.93-18.34 32.5-20.21S333.46 308 335 306c-.63 4.55-1.15 9.6-.55 12.05 1.1 4.35 10.21 20.11 13.22 22.28a172.28 172.28 0 0110.87-16c1.75 6.94 3.2 10.08 4.67 12.26-3.55 17-3.14 56.26-3.33 96.14l-13.88-.15c.09.3.18.64.27 1 0 0-14.16-.46-17.51-.63a29.84 29.84 0 01-9.71-2.4c-2.65-1.16-7.31-6.84-9.71-7.75s-8.14-2.38-10.32-3.21a13.48 13.48 0 00-7.56 0c-1.81.65-8.69 2.41-11.14 3.24z"/><path class="cls-1" d="M272.92 447.75c-1.92-1.39-2.18-2.64-1.32-5.28s2.25-4.51 6.68-7.07 5.67-3.5 9.87-5l7.88-2.82c-2.31.24-10.53 1.18-13.24.48s-5.06-4.32-2.47-5.26 9.33-2.59 11.1-3.21a13.48 13.48 0 017.56 0c2.18.83 7.9 2.31 10.32 3.21s7.06 6.59 9.71 7.75a29.84 29.84 0 009.71 2.4c3.35.17 17.51.63 17.51.63 1.31 5.6 2.93 20.13 3.23 28.86 0 0-1.5-.14-3.74-.26-5.61-.31-15.83-.63-18.55 1.09-4.84 3.06-11.89 6.22-16.39 7.23s-11.67.85-13.77 1.32a14.5 14.5 0 00-7.87 5.91c.06.12.11.23.18.35-1.25.39-4 .66-5.44-.35s-2.33-2.64-1.32-5.91a8.13 8.13 0 011.59-2.92 41.53 41.53 0 013.2-3c1.29-1.31-.68-2.41-1.6-2.48s-3.35.46-3.73 1.08 1.08 2.18.54 2.18a20.82 20.82 0 01-4.36-.7 7.85 7.85 0 01-4-4.2 4.46 4.46 0 01.17-3.21c-4.22-1.15-4.83-5.88-3.82-8.06a7.63 7.63 0 012.37-2.76z"/><path class="cls-3" d="M381.18 470.45a11.44 11.44 0 01-.22 1.24s-29.59-1.5-32-2a3.45 3.45 0 00.36-1 30.49 30.49 0 00.19-6.22c-.3-8.73-1.92-23.26-3.23-28.86-.09-.39-.18-.73-.27-1l13.94.17L378 433c.15.41.31.91.47 1.48A86.49 86.49 0 01381 449c.53 7.68.73 17.16.18 21.45z"/><path class="cls-3" d="M384.48 434.51c-4.24-44.16-9.52-84.37-12.44-97.9a36 36 0 002.79-12.47c4.76 3.93 10.36 8.51 14.93 12.47a33.44 33.44 0 005.29-14.4 49.62 49.62 0 00-1.62-21.11c4.31 6.13 24.68 9.39 30.58 11.26s26.59 3.73 36.23 9.95 15.85 23.47 17.1 39.95 1.86 51.77 1.39 65.45S476.09 461 471.9 468s-13.06 6.54-18.66 7c-.55 0-1.48.07-2.74.09-5.28.06-16.25-.17-28.45-.77-14.36-.7-30.42-1.93-40.87-3.83.55-4.29.35-13.77-.22-21.5a86.49 86.49 0 00-2.54-14.49 54 54 0 006.06.01z"/><path class="cls-3" d="M422.05 474.28c-8.73 5.81-20.89 9.62-32.87 12.15a244.45 244.45 0 01-29.18 4.13c-5 .41-8.89.61-11.07.71l32-11.8-56.42-4.73-27.33 10a12.49 12.49 0 01-7.88-6.64c-.07-.12-.12-.23-.18-.35a14.5 14.5 0 017.87-5.91c2.1-.47 9.29-.31 13.77-1.32s11.55-4.17 16.39-7.23c2.72-1.72 12.94-1.4 18.55-1.09.55 2.13 2.12 9.24 3.19 7.51 2.46.46 32 2 32 2a11.44 11.44 0 00.22-1.24c10.52 1.88 26.58 3.11 40.94 3.81z"/><path class="cls-4" d="M381 479.47l-32 11.8-39.6 14.57a36.08 36.08 0 00-1.35-3.68c-1.32-2.41-2.88-3.57-4-3.57a3.78 3.78 0 00-3.11 4.2c.23 2.72 1.47 3.5 1.87 5.67v.06l-8.07 3.3a101.47 101.47 0 00-10.13-6.08 12.31 12.31 0 00-7.93-.39 3.91 3.91 0 00-2.32 4.43c.46 2.1 4.12 2.68 7 5l2.13 1.69-3.06 1.25c-2.45-1.42-4.67-2.67-6.16-3.46-4.57-2.41-8.14-3.58-10.24-3.34s-3.11 1.17-3.58 2.72c-.26.86.27 1.76 1.16 2.65-1.62-.63-4.74 0-5.51 1.16s-.31 2.87 1.83 4.58c.71.56 2.29 1.76 4.18 3.22l-5.55 1.52-4.87-.69-48.47-6.86 50.32-18.44 43.63-16 27.33-10z"/><path class="cls-3" d="M378.57 551.91l.08 2.56-10.39.29.08 2.66c-13.58-.13-57.57 4.24-69.93 5.5l-3.26.34.69-27.37c1.41-.54 3.18-.9 4.36-2.32 1.87-2.26.93-2.11 2.25-3.73s2.49-2.42 3.35-5.84 1.63-4.6 3.1-8 1.4-3.14 1.41-5.15a18 18 0 00-.91-5l39.54-14.57c2.18-.1 6.09-.3 11.07-.71l.05.71c.12 17.19.25 31.9.17 41.57z"/><path class="cls-4" d="M392.66 530.46l-14.09 21.45-18.34-19.07c.08-9.67-.05-24.38-.17-41.57l-.05-.71a244.45 244.45 0 0029.17-4.13c1.32 15.64 2.52 30.66 3.48 44.03z"/><path class="cls-3" d="M422.05 474.28c12.2.6 23.17.83 28.45.77s3.05 45.14 3.51 55.55 3 24.56 0 24.56h-1c-8.06.08-56.34.78-56.34.78l-.06-2-18 .49-.08-2.56 14.09-21.45c-1-13.37-2.16-28.39-3.48-44 12.02-2.52 24.18-6.33 32.91-12.14z"/><path class="cls-4" d="M368.34 557.42l.36 13.22s-63.6 3.5-70.29 3.5v-11.22c12.36-1.26 56.35-5.63 69.93-5.5z"/><path class="cls-4" d="M397.03 569.63l.05 1.88-28.33.79-.05-1.66-.36-13.22-.08-2.66 10.39-.29 17.95-.49.05 1.98.38 13.67zM453 555.18l.55 10.1c-4 .78-50.44 4.43-56.52 4.35l-.37-13.63s48.28-.74 56.34-.82z"/><path class="cls-4" d="M397 569.63c6.08.08 52.56-3.57 56.52-4.35 3.36 30.31 4 54.93 3.22 69.59 0 0-30.1 5.44-75.87 5.65a642.21 642.21 0 01-85.67-5.65c-.08-20.31 0-45.4 3.18-60.73 6.69 0 70.29-3.5 70.29-3.5l.05 1.66 28.34-.78z"/><path class="cls-3" d="M284.15 467.29l-1.07-2.74a12.57 12.57 0 012.71-.37c.37.16.83-.41 1.2.68s-2.84 2.43-2.84 2.43z"/><path d="M344.07 179.58c-.06.14-.31.09-.51.1 0-.18.33-.07.51-.1m3.39-.26c-.17 0-.44-.21-.51 0 .19 0 .41.16.51 0m-3.08 0c-.14 0-.44-.09-.51.15.21-.12.37 0 .51-.15m1.82.15a2.32 2.32 0 00-1.37.15s.24.12.26 0c-.25 0 .16-.09.25-.1 0 .21.77.1.86-.05M340 182c0-.14.17-.14.21-.25-.15 0-.42.18-.21.25m12 6.39a5.26 5.26 0 00.1 1.15 3 3 0 00-.1-1.15m-9.2-8.59c.33-.11.68-.2 1-.3a1.68 1.68 0 00-1 .3m2.43.05c-.43 0-.67.11-1.06.1-.16.15-.5.11-.66.25.59-.1 1.1-.28 1.72-.35m-6.92 2.85c0 .07-.22.21-.1.25a9.41 9.41 0 012.87-2.4 7.62 7.62 0 00-3.18 2.55 1.73 1.73 0 01.41-.4m13-1.25c.22.12.56.42.3.2 0 0-.15-.28-.3-.2m-13.49 1.05c.34-.05.52-.65.65-.81a2.22 2.22 0 00-.4.41v-.15c-.24 0-.23.27-.35.4.17 0 .17.08.1.15m.65-.81h.06a.07.07 0 00-.06 0m1.07.66c0-.17.4-.23.25-.4 0 .18-.4.23-.25.4m3.08.2c-.2 0-.25.25-.35.05-.09.1 0 .1-.05.2a.91.91 0 00.4-.25m-4.14.8c.1-.19.44-.39.4-.55-.15.13-.42.41-.4.55m-.86.15c-.1.15-.37.4-.3.55.08-.17.34-.42.3-.55m-.86 2.25c.11-.4.46-.81.51-1.1a3 3 0 00-.51 1.1m.76-.75c0 .17-.34.36-.2.54 0-.2.27-.42.2-.54m13.54 1.1c0-.15-.2-.36-.15-.26s.19.54.15.26m.05.29c.19.25.2.67.4.9-.11-.28-.21-.85-.4-.9m-.2 7.05a7.22 7.22 0 00.8-5c.14 0 .19 0 .16-.15-.3-.1-.19-.61-.36-.85v.15a7.45 7.45 0 01-1.72 7.1 2.74 2.74 0 001.12-1.25m-11.72-1.3c.07.16.18.54.35.45-.18-.09-.19-.35-.35-.45m.6 1.1c0 .15.24.32.3.25-.13 0-.17-.2-.3-.25m10.16 1.5a1.28 1.28 0 00-.66.54 1 1 0 01.45-.24c-.16-.14.19-.18.21-.3m-.51.5c-.06.14-.46.2-.35.34.05-.14.49-.17.35-.34m-3 3.14c.17 0 .51-.13.45-.2s-.34 0-.45.2m-1.36-19c0-.08 0-.17.1-.15s-.06.08.05.15c.49-.16.84 0 1.36-.1-.24 0-.26 0-.15-.2a2 2 0 00-1.82.35c.15 0 .37-.12.46-.05m-5.36 14.54h.06a.46.46 0 01-.07-.07m.59.64c.07.13.24.39.37.38a.8.8 0 00-.37-.38m7.4 3.91h-.06.06m7.57-5.35c-.26.48-.33 1.13-.76 1.45 0 .1.14.06.1.2a10 10 0 01-1.77 2.34c.35.11-.54.46-.6.8a.39.39 0 00-.3 0c-.12.51-.83.41-1 .9a12.58 12.58 0 01-3.64 1.25 11.86 11.86 0 003.33-1.45c-.06-.1-.2.13-.35.1a11.93 11.93 0 01-2 .86 13.23 13.23 0 003.08-2.05c-.29 0-.33.31-.6.35a11.2 11.2 0 002.27-2.34 9.35 9.35 0 01-2.17 1.94c.07-.22.35-.25.45-.45a13.43 13.43 0 01-3 1.8 11.78 11.78 0 001.67-1.05c-.58.17-1.25.67-1.92.9-.05-.17.43-.23.6-.35-.55 0-1.07.47-1.71.55a5.18 5.18 0 01.75-.35s-.05-.05-.09 0c.57-.5 1.5-.92 2.2-1.47a3.07 3.07 0 00.42-.38 17 17 0 01-1.77 1c.07 0 .13 0 .12.06a1.71 1.71 0 00-.53.1 1.87 1.87 0 01-.95.19 5.12 5.12 0 00.93-.25c0-.06-.2.06-.39.06l.26-.17a2.45 2.45 0 01-1.46.23 11.85 11.85 0 01-2 .1c.2 0 .43.12.59 0 .64.48 1.56-.14 2 .13-.63.12-1.3.13-1.94.23.07 0 .15 0 .14.06a7.83 7.83 0 01-1.36-.06c.5.18 1.11.1 1.5.35a1.17 1.17 0 00-.56 0c.07.06.25 0 .23.1-.6 0-1.3-.21-1.88-.13a5.56 5.56 0 001.57.32c.38 0 .88-.1 1.11.11-.31 0-.4.26-.77 0-.09.31-.3-.1-.38.1.25.14.84 0 1.12.23a2.89 2.89 0 00-.88 0c.46.29.94.07 1.35.33-.38.1-.9-.14-1.22.11a4.08 4.08 0 011 0 10.17 10.17 0 01-1.83 0c-.26-.23-.59-.13-.59 0a2.17 2.17 0 00-1.09-.16 11.5 11.5 0 01-4.74-2.61 11.52 11.52 0 003 2.25 8 8 0 01-2.28-1.31l-.08-.07.08.07a.19.19 0 010 .08 9.21 9.21 0 01-2.46-3 9.38 9.38 0 01-1.54-3.19h.07a7.5 7.5 0 01-.28-1.67 7.08 7.08 0 010-.92 11.3 11.3 0 00.86 3.6 11.11 11.11 0 01-.46-5.35 2.06 2.06 0 00.3-1c.09 0 .31-.22.21-.55a9.86 9.86 0 01.75-1.64 4 4 0 01-.4.95c.37-.19.35-.76.61-1.05.06.47-.34.81-.26 1.35a3.06 3.06 0 00.36-.8c.11.36-.28.81-.26 1.1.23 0-.07-.35.26-.3-.1-.44.15-.43.3-.7.1.29-.23.69-.35 1a5.31 5.31 0 00-.36 1.55 15.82 15.82 0 00.66-1.75c.15.05 0 .17 0 .25a1.12 1.12 0 00.25-.5c.06.47-.26 1-.3 1.5.2-.38.24-.93.5-1.25.08 0 0 .07 0 .16.36-.54.64-1.14 1-1.65.08.5-.88 1.07-.7 1.84-.14.12-.14.37-.2.55.36-.52.46-1.3.9-1.74.11-.75.76-1 1-1.55-.29.1-.62.58-.86.9 0-.37.68-.77.91-1.25.07 0 0 .06 0 .15 1-1.18 2.74-1.72 4.34-2.35 0-.15-.13.07-.25 0 .12-.12.45-.15.4-.3a9.44 9.44 0 019.3 3.75c0-.11-.31-.79-.41-.6-.46-1.35-1.84-2.21-3-2.9.66.08 1.76 1 2.43 1.05-.11-.35-.48-.42-.81-.65.39-.08.67.64 1.11.5 0 0 .16.39.25.15a11.42 11.42 0 013.18 7.49 11 11 0 01-.65 4.1c.15-.05.06-.34.25-.35m-17.18-.22l.16-.09a1.16 1.16 0 00.34.81s-.07-.12-.05-.18a3.89 3.89 0 01.3.5 2.11 2.11 0 01.18.27.94.94 0 00.54.52 5.5 5.5 0 01-.47-.81.86.86 0 01-.45-.65 6.82 6.82 0 01-.62-1 1.3 1.3 0 00.11.66m.54.09c-.05 0-.05.08 0 .14a.78.78 0 010-.14m1.19 1.52a3.92 3.92 0 00-.66-.54c.1.23.21.43.31.33.15.1.13.36.35.21m-5-2.32a.13.13 0 000-.06v.1m3.09 5.1a.9.9 0 00-.28-.34c0 .15.16.24.28.34m1.95-2.08l-.1-.14h-.05l-.06.05.21.1m.84 1.8c.05-.18-.3-.22-.46-.32 0 .15.26.23.46.32m3.27 1.46c0-.17-.27-.05-.39-.12 0 .16.27 0 .39.12m1.47-1.65c.3 0 .47.17.75.06 0-.09-.14-.1-.07-.2.63-.11 1.54.06 1.75-.31a.5.5 0 00.35.05l.12-.06a.45.45 0 00.11-.17c.26.14.4 0 .59-.09l.13-.12H349l-.2.15.14-.11h.06a8.32 8.32 0 003.22-5.36c0-.17 0-.34.05-.52v-.74a4.49 4.49 0 000-.51.76.76 0 000-.15c0-.23-.05-.45-.09-.69a7.72 7.72 0 00-2.43-4.44c-.27.1 0-.1-.25 0a4.91 4.91 0 00-.71-.6c-2.24-1.17-5.43-.44-7.17.9-.09 0-.09 0-.1-.1-.34.62-1.12.82-1.37 1.55-.07 0 0-.15-.1-.15-.28.36-.35.74-.65 1.14a.65.65 0 010 .13c-.12.35-.33.74-.44 1.12a1.94 1.94 0 00-.05.2 4.3 4.3 0 01.15-1.1 6.63 6.63 0 012.88-3.39c.15.11 1-.38 1.52-.65a4.34 4.34 0 011.77-.65c-.75-.13-1.41.33-2 .35 0-.26.06-.22.15-.35a3.21 3.21 0 00-1.37.5 4.78 4.78 0 011.82-.9c-.11-.21-.38.11-.6.1 0-.13.19-.07.2-.2-.15 0-.16.11-.31.1.08-.2.35-.19.51-.3-2 .31-3.46 1.91-4.65 3.35.05.09.2-.13.26-.2 0 .19-.57.66-.66 1.1a12.3 12.3 0 012-2.5c.09 0 0 .09 0 .15.23 0 .12-.25.3-.25-.06.34-.35.45-.45.75.21-.06.19-.35.5-.3-.06.29-.42.27-.4.65-.3 0-.4.17-.41.45-.43 0-.64.92-1 1.44-.11 0-.05-.14-.15-.14-.21.21-.15.41-.25.69-.28-.17-.37.92-.61 1.35.18-.21.07.36.05.5s0-.17-.05-.25a.52.52 0 00-.1.35c.06 0 .09 0 .1.05.16 0 0-.25.21-.2 0 .09-.07.3.05.15a11.14 11.14 0 00.25 2.45 6.73 6.73 0 01-.35-1.25 3.87 3.87 0 001.16 3c0 .07-.05 0-.1 0 .05.16.23.2.3.35a.92.92 0 01-.66-.4c.21.61 1 1.09 1.52 1.55a2.42 2.42 0 01-.72-.27h-.08a3 3 0 01-1.14-1.31c-.22.13 0 .22 0 .39.19.64.75.66 1.22 1a4.56 4.56 0 002.53 1.92 7.76 7.76 0 01-1-.84 12.38 12.38 0 002.15 1.24c-.18 0 0 .11.12.11 0 .18-.22-.06-.27.09s0 .07 0 .12a.44.44 0 00.36 0c-.05-.06-.26 0-.21-.15.14.05.71.18.44.25.5 0 1.54.34 1.49 0m4.74-1.29a2.6 2.6 0 00-.85.79h.09a4.68 4.68 0 00.76-.78m-3.41 1.17c.08.2.34 0 .48.05-.05-.13-.32 0-.48-.05m0 .78c-.24-.12-.68.08-1 0 .24.15.7 0 1 0m.67-.28l.12-.1c-.44.1-.89.17-1.33.25.39.09 1-.16 1.21-.15m-.22.16a2.11 2.11 0 01.82-.06l.73-.51a7.84 7.84 0 01-.83.23.8.8 0 00-.22.26c-.17-.11.14-.13.15-.24-.19.1-.4.18-.58.28l.12-.09c-.1 0-.21.06-.17.12m4.14-2.32a10 10 0 01-3.12 2.29l.27.08a10.76 10.76 0 002.85-2.37m-.86 3.69h-.09.09" fill-rule="evenodd" fill="#33c977"/><path d="M116.65 213c.45 3.53-.09 6.91-1.9 9.38s-4.25 2.55-5.06.93m164.55 313.32a4.6 4.6 0 00-.87 4M289.08 478a14.41 14.41 0 017.88-5.9c2.1-.47 9.27-.31 13.77-1.32s11.55-4.17 16.38-7.23c3.81-2.41 22.29-.84 22.29-.84" stroke-width="1.7" stroke="#28347d" stroke-linecap="round" stroke-linejoin="round" fill="none"/><path class="cls-8" d="M359.33 324.34c.84 2 1.49 4.11 2.2 6.13a60.34 60.34 0 002.35 5.87l-.7-.37a20.49 20.49 0 014.4-.41 21.23 21.23 0 014.41.4l-.78.5c.18-1 .45-2 .7-3.05l.78-3c.51-2 .91-4 1.24-6.06a.86.86 0 011.7 0 17.14 17.14 0 01.09 3.36 22.84 22.84 0 01-.49 3.3 21.81 21.81 0 01-1 3.17 14.91 14.91 0 01-1.51 3 1.25 1.25 0 01-.74.5 24.46 24.46 0 01-8.81 0l-.2-.05a.9.9 0 01-.51-.33 17.83 17.83 0 01-3.29-6 31.53 31.53 0 01-1.5-6.53.86.86 0 011.65-.42zm-13.15 137.95c.56 1.87 1 3.73 1.69 5.49a11.86 11.86 0 00.55 1.24 2.42 2.42 0 00.28.44h-.1c-.1 0-.46.07-.44.08s.07-.14.11-.32a2.86 2.86 0 00.14-.61 11.14 11.14 0 00.12-1.33c.08-1.86 0-3.79-.14-5.7s-.24-3.83-.4-5.75c-.33-3.83-.76-7.66-1.17-11.48s-.8-7.68-1.5-11.38a.6.6 0 01.41-.73h.17c5.33-.3 10.66-.34 16-.31s10.66.18 16 .61a.73.73 0 01.64.46 50.29 50.29 0 012.66 9.55c.32 1.62.56 3.25.76 4.9s.28 3.29.39 4.93c.16 3.27.25 6.54.16 9.82a42.85 42.85 0 01-1.08 9.88.53.53 0 01-.54.42c-5.35-.12-10.7-.34-16.05-.54l-8-.38-4-.22c-1.36-.1-2.62-.15-4.11-.35a1 1 0 11.27-2.07h.1c1.16.16 2.58.26 3.88.36l4 .32 8 .57 16 1.19-.56.42a35.48 35.48 0 00.15-4.75c0-1.61-.08-3.23-.14-4.84-.14-3.23-.3-6.47-.5-9.7s-.45-6.39-.91-9.6c-.23-1.59-.47-3.18-.75-4.77s-.58-3.17-1-4.68l.64.45c-5.33.3-10.66.3-16 .21s-10.66-.28-16-.71l.57-.75a40.41 40.41 0 011.4 5.72c.35 1.91.69 3.82.93 5.75.53 3.84.88 7.7 1.16 11.57a87.68 87.68 0 01.27 11.71 11 11 0 01-.2 1.55 4.22 4.22 0 01-.21.79 2.35 2.35 0 01-.55 1 1.05 1.05 0 01-.45.27 1.07 1.07 0 01-.64 0 1.17 1.17 0 01-.41-.22 1.64 1.64 0 01-.23-.23 3.67 3.67 0 01-.48-.78 11.74 11.74 0 01-.54-1.45c-.59-1.9-1-3.81-1.37-5.69a.54.54 0 01.41-.64.55.55 0 01.61.28zm-137.04 136.3c.28 3.06.37 6.12.41 9.18s0 6.12-.1 9.18-.24 6.12-.54 9.17c-.15 1.53-.35 3.06-.62 4.58a24.43 24.43 0 01-1.19 4.55.48.48 0 01-.33.38l-.29.09a18.12 18.12 0 01-4.16.66c-1.38.09-2.77 0-4.16 0a57.28 57.28 0 01-8.32-.87.41.41 0 010-.81 58.73 58.73 0 018.32-.88c1.39 0 2.78-.11 4.16 0a17.61 17.61 0 014.16.67l-.61.46c.37-2.91.53-6 .79-9l.76-9.09.71-9.11c.23-3 .49-6.08.67-9.12a.18.18 0 01.18-.17.19.19 0 01.16.13zm114.03-369.17a10.1 10.1 0 013.14-2 18.38 18.38 0 013.47-1.1 20.11 20.11 0 013.54-.41 13.09 13.09 0 013.66.37 2.21 2.21 0 01-.22 4.32h-.24a26.28 26.28 0 01-3.06.23c-1 .05-2.11.05-3.17.06-2.12 0-4.18 0-6.39.08h-.06a.91.91 0 01-.94-.87.94.94 0 01.27-.68zm30.76-3.42a16.9 16.9 0 015-1 22.92 22.92 0 015 .31 22.4 22.4 0 014.92 1.33 13.59 13.59 0 014.4 2.69.88.88 0 01-.76 1.51 31.38 31.38 0 00-4.46-.5c-1.47-.07-2.94-.07-4.41 0l-4.4.21c-1.46.05-2.92.15-4.34.12h-.14a2.4 2.4 0 01-.84-4.63zM343 229.19a44.32 44.32 0 01-.22 5c-.14 1.66-.32 3.32-.49 5l-1.19 9.89c-.18 1.64-.4 3.29-.5 4.87v1.18a5.27 5.27 0 001.82.54c3.08.49 6.45.4 9.82 1a.33.33 0 01.27.38.35.35 0 01-.28.28 38.41 38.41 0 01-10.12.74 8.62 8.62 0 01-1.37-.25 4.56 4.56 0 01-1.53-.65 2.54 2.54 0 01-.81-.87 2 2 0 01-.23-.63v-1.89c.15-1.73.38-3.37.63-5 .53-3.3 1.15-6.57 1.81-9.84s1.44-6.51 2-9.74a.2.2 0 01.23-.16.2.2 0 01.16.15zm-8.69 37.5c2.25.11 4.44.15 6.66.18s4.45.12 6.68.13 4.47 0 6.71-.06 4.47-.12 6.71-.31a.58.58 0 01.61.52.56.56 0 01-.35.56 29.84 29.84 0 01-6.75 1.81 55.42 55.42 0 01-6.92.62 38.54 38.54 0 01-6.95-.33 18.39 18.39 0 01-6.75-2.15.54.54 0 01-.18-.72.53.53 0 01.48-.25zm8.52 7.6a13.82 13.82 0 012-.24c.65-.06 1.29-.07 1.95-.07h2a12.83 12.83 0 012.09.26h.05a.62.62 0 01.46.75.57.57 0 01-.24.36 6.69 6.69 0 01-2.07 1 8.79 8.79 0 01-2.22.35 7.54 7.54 0 01-2.26-.24 5.22 5.22 0 01-2.11-1.07.64.64 0 01-.05-.9.57.57 0 01.35-.2zm-134.3-34.84a15.9 15.9 0 014.43-1.9 26 26 0 014.64-.88 23.54 23.54 0 014.82 0 14.46 14.46 0 014.89 1.36 2.38 2.38 0 01-1.78 4.4h-.08a36.86 36.86 0 00-7.79-1.41c-1.39-.12-2.81-.17-4.23-.19a34.58 34.58 0 00-4.23.19h-.09a.86.86 0 01-.58-1.57zm34.83 1.55a18 18 0 014.44 1.45 21.08 21.08 0 014 2.47 16.62 16.62 0 013.34 3.46 10.59 10.59 0 011.92 4.42.88.88 0 01-.73 1 .92.92 0 01-.79-.28 19.32 19.32 0 00-6.31-4.49c-1.16-.56-2.36-1.05-3.58-1.51s-2.44-.89-3.66-1.37a2.66 2.66 0 011.43-5.1zm-11.9 4.3c-1.91 4.88-3.79 9.79-5.39 14.75-.39 1.23-.77 2.48-1 3.7l-.14.86c0 .16 0 .29.07.44a1.86 1.86 0 00.92.75 20.55 20.55 0 003.3 1.1l3.78.9a.4.4 0 01.29.48.38.38 0 01-.29.29 15 15 0 01-4.07.41 8.41 8.41 0 01-4.21-1.11 4.1 4.1 0 01-1.73-2.05 3.27 3.27 0 01-.11-1.49c.09-.36.17-.72.26-1.07.4-1.32.88-2.55 1.38-3.79 2-4.89 4.25-9.63 6.53-14.37a.25.25 0 01.33-.11.24.24 0 01.08.31zm-13.58 41.32c1.24.3 2.26.65 3.35 1 .53.16 1.06.34 1.6.52s1.09.37 1.7.63a.41.41 0 01.21.54.38.38 0 01-.17.2 4.14 4.14 0 01-2 .5 6 6 0 01-2-.3 6.19 6.19 0 01-1.81-.92 4.36 4.36 0 01-1.38-1.54.44.44 0 01.19-.58.45.45 0 01.3 0z"/><ellipse class="cls-9" cx="362.8" cy="236.23" rx=".87" ry="1.78"/><ellipse class="cls-9" cx="330.96" cy="236.23" rx=".87" ry="1.78"/><ellipse class="cls-10" cx="245.17" cy="255.11" rx="1.78" ry=".87" transform="rotate(-72.56 245.189 255.111)"/><ellipse class="cls-10" cx="216.79" cy="247.48" rx="1.78" ry=".87" transform="rotate(-72.56 216.812 247.489)"/><path class="cls-8" d="M386.85 258.48a42.34 42.34 0 01-4.24 17.88 46.17 46.17 0 01-2.22 4.09 21.68 21.68 0 01-2.84 3.81 48.16 48.16 0 01-7.34 5.76 74.83 74.83 0 01-8 4.64 18.36 18.36 0 01-2.28.93l-.73.17-.6.06-1.16.1c-1.54.12-3.07.21-4.61.26a75.45 75.45 0 01-9.26-.15 21.77 21.77 0 01-4.76-.87 16.05 16.05 0 01-4.22-2.47 50.32 50.32 0 01-6.79-6.41 43.32 43.32 0 01-2.93-3.65 17.86 17.86 0 01-2.35-4.23 57.56 57.56 0 01-2-9.09c-.49-3-.9-6.05-1.25-9.09-.17-1.52-.33-3-.45-4.57s-.18-3.1-.25-4.6l-.36-9.13-.64-18.26a.38.38 0 01.76 0l1.28 18.22.6 9.12c.1 1.53.17 3 .33 4.51s.34 3 .54 4.51c.4 3 .87 6 1.41 9 .27 1.49.57 3 .89 4.44a37.05 37.05 0 001.15 4.27 16 16 0 002.11 3.7 39.93 39.93 0 002.81 3.45 47.92 47.92 0 006.51 6.08 13.8 13.8 0 003.62 2.12 20.3 20.3 0 004.22.73 89.62 89.62 0 009 .13c1.5-.05 3-.12 4.51-.23l1.11-.09.55-.06.37-.09a16 16 0 002-.79 73.7 73.7 0 007.84-4.38 51.09 51.09 0 007.16-5.31 21 21 0 002.7-3.42 43.9 43.9 0 002.26-3.87 48.82 48.82 0 003.35-8.33 42.15 42.15 0 001.61-8.86.36.36 0 01.71 0z"/><path class="cls-8" d="M393.59 231a24.39 24.39 0 007-3.49 5.88 5.88 0 002.16-2.64 1.25 1.25 0 00-.18-1.16 5.44 5.44 0 00-1.34-1.1 31.18 31.18 0 00-7.29-3 71.89 71.89 0 00-7.84-1.82c-2.64-.47-5.31-.78-8-1s-5.39-.39-8.09-.53q-8.11-.44-16.24-.52t-16.23.09c-2.7.06-5.4.18-8.09.33s-5.33.4-8.05.68-5.39.54-8 .9c-1.32.18-2.64.39-3.9.67a15.38 15.38 0 00-1.81.5 3.56 3.56 0 00-1.26.65.39.39 0 00.05-.13.35.35 0 000-.18 1.2 1.2 0 00.25.39 7.81 7.81 0 001.28 1.18 34.41 34.41 0 003.24 2.16c2.28 1.36 4.66 2.62 7.07 3.85a.45.45 0 01.2.6.46.46 0 01-.5.24 37.29 37.29 0 01-7.79-2.78 26.11 26.11 0 01-3.68-2.1 9.69 9.69 0 01-1.74-1.53 3.56 3.56 0 01-.78-1.34 2.26 2.26 0 010-1.19 2.11 2.11 0 01.27-.59 3.51 3.51 0 01.29-.36 4 4 0 011.17-.84 8.44 8.44 0 011.1-.47 20.26 20.26 0 012.11-.58c1.38-.29 2.75-.5 4.12-.68 2.72-.36 5.43-.62 8.13-.88a151.5 151.5 0 0116.35-.75c5.44 0 10.88.08 16.31.27s10.86.44 16.28.78c2.71.17 5.43.38 8.14.63s5.44.53 8.13 1a73.73 73.73 0 018 1.81 35.94 35.94 0 017.75 3.07 7.21 7.21 0 011.81 1.45 3.05 3.05 0 01.56 2.69 5.56 5.56 0 01-1.14 2.14 11.65 11.65 0 01-1.57 1.57 27.9 27.9 0 01-7.37 4.11 1.13 1.13 0 01-.85-2.1h.06zm-6.69 27.45c.43 3 .71 6.08 1 9.13s.41 6.09.56 9.14.32 6.1.41 9.16.19 6.11.2 9.17a.59.59 0 01-1.17.06q-.47-4.56-.78-9.14c-.24-3.05-.4-6.11-.57-9.16s-.35-6.11-.42-9.17-.11-6.13 0-9.19a.4.4 0 01.41-.39.42.42 0 01.36.39z"/><path class="cls-8" d="M317.58 223.45a3.28 3.28 0 01.31-.34l.31-.19a5 5 0 01.63-.29 8 8 0 011.24-.38c.83-.22 1.65-.37 2.48-.53 1.66-.3 3.33-.49 5-.65 3.33-.34 6.66-.57 10-.71 6.67-.28 13.34-.27 20-.16s13.37.22 20 1.47a36.36 36.36 0 019.69 3.13 22.26 22.26 0 017.87 6.48.56.56 0 01-.11.79.58.58 0 01-.78-.08 21.85 21.85 0 00-7.66-5.77 38.27 38.27 0 00-9.32-2.72 80 80 0 00-9.81-.91c-3.3-.16-6.62-.23-9.94-.28-6.63-.09-13.27 0-19.91.08-3.31.07-6.63.12-9.93.26q-2.49.11-5 .3c-.81.08-1.63.16-2.43.29-.4.06-.79.15-1.18.24a4.11 4.11 0 00-.53.17l-.23.11a.5.5 0 01-.14.1l-.2.11a.34.34 0 01-.46-.14.35.35 0 01.1-.38z"/><path class="cls-8" d="M393.87 230a12.9 12.9 0 01.69 3.43 14.68 14.68 0 01-.1 3.5.51.51 0 01-.58.41.5.5 0 01-.38-.32 14.74 14.74 0 01-.74-3.42 12.83 12.83 0 010-3.5.55.55 0 01.64-.45.52.52 0 01.47.35z"/><path class="cls-8" d="M382.42 223.41a20.32 20.32 0 012 4.72 47.32 47.32 0 011.19 4.94 57.67 57.67 0 011 10.11l-.89-1 3.68.84-.66.35 1.57-2.74a12.52 12.52 0 011.85-2.67 8.65 8.65 0 012.65-2 3.79 3.79 0 013.47 0 5 5 0 012.09 2.72 10.85 10.85 0 01.5 3.26 39.21 39.21 0 01-.54 6.34 33.72 33.72 0 01-1.44 6.24 22 22 0 01-3 5.71 14 14 0 01-4.63 4.67 6 6 0 01-1.71.61 3.21 3.21 0 01-2-.33 2.92 2.92 0 01-1.19-1.59 6.92 6.92 0 01-.19-.88l-.05-.85a.53.53 0 011.06-.12v.07l.13.7c.06.22.14.43.21.64a1.74 1.74 0 00.71.81 1.71 1.71 0 001 .06 4.36 4.36 0 001.2-.53 9.24 9.24 0 002.16-1.86c.33-.36.6-.75.91-1.16l.9-1.26a24 24 0 003-5.26A31.29 31.29 0 00399 248a36.6 36.6 0 00.77-6.11 8.93 8.93 0 00-.35-2.93 4.48 4.48 0 00-.62-1.26 3.52 3.52 0 00-1-.92 2.78 2.78 0 00-2.55.11 6.92 6.92 0 00-2.29 1.79 10.56 10.56 0 00-1.64 2.51l-1.4 2.77a.65.65 0 01-.61.36h-.06l-3.78-.1a.93.93 0 01-.89-.93v-.11a55.79 55.79 0 00-.45-9.82 46.5 46.5 0 00-.89-4.85 19.11 19.11 0 00-1.63-4.57.45.45 0 01.18-.61.46.46 0 01.63.08zm-77.65-5.73c6.33-4.87 14-7.46 21.59-9.2a88.21 88.21 0 0111.64-1.72 107 107 0 0111.74-.36 114.18 114.18 0 0123.26 2.69c7.6 1.78 15.21 4.47 21.46 9.36a.54.54 0 01.1.76.55.55 0 01-.74.11 45.55 45.55 0 00-10.19-5.14 76.43 76.43 0 00-11.06-3.07c-3.76-.74-7.56-1.28-11.38-1.67s-7.67-.55-11.51-.6a107.47 107.47 0 00-22.88 1.88 72.52 72.52 0 00-11.06 3 45.32 45.32 0 00-10.22 5 .64.64 0 01-.76-1z"/><path class="cls-8" d="M318.59 211.54c.07-2.17.07-4.35 0-6.52v-2.44a1.17 1.17 0 010-.34 1.19 1.19 0 01.14-.3 2.12 2.12 0 01.33-.42 11.5 11.5 0 013-1.8c.53-.22 1.07-.41 1.63-.58a4.81 4.81 0 012-.17 1.51 1.51 0 01.88.46 1.05 1.05 0 01.22.34l.07.19v.33c0 .31.06.59.08.87 0 .56.07 1.11.07 1.66a51.16 51.16 0 01-.24 6.55.44.44 0 01-.48.39.44.44 0 01-.38-.37c-.31-2.16-.51-4.33-.67-6.48l-.13-1.6c0-.26-.05-.52-.09-.75v-.15a.42.42 0 000 .1 1.28 1.28 0 00.1.17c.18.17.21.12.16.12a4.47 4.47 0 00-1.27.06 11.65 11.65 0 00-1.5.29 7.77 7.77 0 00-2.8 1.12 1.25 1.25 0 00-.2.2v2.57c-.05 2.17 0 4.35 0 6.52a.45.45 0 01-.43.45.44.44 0 01-.45-.42zm50.31-2.08a43.78 43.78 0 01-.6-7.62 8.87 8.87 0 01.08-1.08c0-.12 0-.22.07-.35a1.63 1.63 0 01.21-.44 2.18 2.18 0 01.25-.28 2.21 2.21 0 01.79-.44 7.64 7.64 0 012.21-.29 19.71 19.71 0 013.93.42 16.09 16.09 0 013.82 1.2c.16.08.31.17.47.27a1.58 1.58 0 01.24.15 1.47 1.47 0 01.37.33.88.88 0 01.13.26 1.57 1.57 0 01.07.18 2.11 2.11 0 01.07.3 3.51 3.51 0 01.07.53c.07.67.08 1.31.09 2 0 2.55-.11 5.06-.25 7.59a.47.47 0 01-.93 0c0-2.5 0-5-.17-7.5 0-.62-.09-1.24-.18-1.81a3.73 3.73 0 00-.08-.41c0-.11-.11-.26 0-.14l-.17-.09-.39-.24a13.32 13.32 0 00-3.45-.75 24.07 24.07 0 00-3.59-.12 5.61 5.61 0 00-1.52.21c-.09 0-.11.06 0 0a.22.22 0 00.09-.1.38.38 0 00.11-.23v.11c0 .2-.06.52-.08.81-.12 2.41-.14 5-.35 7.46a.63.63 0 01-.68.58.63.63 0 01-.63-.51z"/><path class="cls-8" d="M313.26 213.5a71.58 71.58 0 01.81-14.54 60 60 0 013.89-14.1 38.74 38.74 0 018-12.36 30.27 30.27 0 0112.48-7.72l-.26.2a6.58 6.58 0 012.36-2.33 11.45 11.45 0 013-1.25 15.73 15.73 0 013.1-.54 14.82 14.82 0 013.12.08l-.51.39a3 3 0 011.09-2 6 6 0 011.76-1 10.32 10.32 0 013.77-.7 10.56 10.56 0 013.78.62 5.73 5.73 0 011.81 1 3.08 3.08 0 01.72.93 2 2 0 01.18 1.23l-.47-.54a11.87 11.87 0 012.39.09 13.61 13.61 0 012.34.52 9.52 9.52 0 012.25 1 5 5 0 011.85 1.83l-.4-.21a21.2 21.2 0 017.94 2.29l1.82 1c.61.33 1.15.75 1.73 1.12a27.2 27.2 0 013.27 2.5 15.26 15.26 0 011.51 1.39l1.45 1.46c.95 1 1.77 2.09 2.66 3.13s1.54 2.26 2.31 3.39 1.33 2.39 2 3.58a52 52 0 014.75 15.56l.48 4c.07 1.36.08 2.71.11 4.07v2l-.13 2-.26 4v-.21l4.34 7.73a.85.85 0 11-1.48.83v-.07l-3.53-8.13a.31.31 0 010-.19l.12-4 .06-2c0-.67-.07-1.33-.11-2l-.23-4-.56-3.95a53.39 53.39 0 00-4.85-15.06 42 42 0 00-9.6-12.44 34.38 34.38 0 00-3.09-2.43c-.54-.36-1.06-.78-1.63-1.1l-1.71-1a21.34 21.34 0 00-7.35-2.45.56.56 0 01-.38-.19 20.36 20.36 0 00-3.85-1.64c-1.38-.48-2.83-.89-4.25-1.45l-.22-.09a.38.38 0 01-.25-.44 1.45 1.45 0 00-.87-.68 6.45 6.45 0 00-1.38-.36 19 19 0 00-3.14-.18 21.42 21.42 0 00-3.13.29 4.34 4.34 0 00-2.5 1.08l-.28.32a.23.23 0 01-.23.07l-2.9.55c-.95.2-1.9.4-2.82.66a16.41 16.41 0 00-2.66.94 9 9 0 00-2.27 1.49l-.08.08-.17.11a33.3 33.3 0 00-11.53 8 41.12 41.12 0 00-7.6 11.81 65.57 65.57 0 00-4.08 13.64 88.41 88.41 0 00-1.48 14.25.43.43 0 01-.86 0zm76.93 79.18a27.49 27.49 0 01-4.28 7.73 65.43 65.43 0 01-5.68 6.64 59.2 59.2 0 01-6.5 5.86 28.43 28.43 0 01-7.64 4.45.42.42 0 01-.31 0h-.11a62.2 62.2 0 01-8.44-3.08 77.53 77.53 0 01-8-4.17 67.48 67.48 0 01-7.39-5.17 42 42 0 01-3.37-3c-.53-.55-1.05-1.1-1.53-1.7a9.69 9.69 0 01-1.32-2 .55.55 0 01.93-.58l.05.07a17.64 17.64 0 003 2.95c1.12.93 2.28 1.81 3.47 2.66q3.57 2.55 7.34 4.82c2.51 1.51 5.08 2.92 7.68 4.28s5.26 2.61 7.94 3.85h-.41c.6-.36 1.22-.64 1.81-1s1.19-.74 1.74-1.19c1.14-.82 2.25-1.7 3.32-2.62 2.15-1.85 4.2-3.82 6.18-5.86s3.89-4.16 5.7-6.34c.92-1.09 1.8-2.2 2.62-3.35a23.5 23.5 0 002.19-3.54v-.05a.51.51 0 01.94.38z"/><path class="cls-8" d="M336.65 298c-.14 2-.43 3.88-.66 5.81s-.46 3.84-.65 5.75a50 50 0 00-.31 5.71 14.25 14.25 0 00.26 2.68 16.71 16.71 0 00.95 2.56 102 102 0 005.43 10.14c1 1.66 2 3.3 3 4.94.5.82 1 1.62 1.56 2.41a15.17 15.17 0 001.68 2.2l-.61.13c1.1-2.28 2.34-4.46 3.64-6.62s2.69-4.26 4.15-6.32a62.5 62.5 0 014.74-5.93 27.44 27.44 0 015.76-5.07.57.57 0 01.64 0c2.07 1.53 4.14 3.09 6.16 4.7s4 3.31 6 5l3 2.51 2.92 2.58q2.92 2.57 5.73 5.29l-.63.07a39.47 39.47 0 004-10.55 49.94 49.94 0 001.15-11.26 49.12 49.12 0 00-.39-5.68 46.57 46.57 0 00-1-5.6 51.51 51.51 0 00-3.89-10.72.49.49 0 01.23-.66.49.49 0 01.64.19 44 44 0 014.55 10.81 46.22 46.22 0 011.67 11.64 43.36 43.36 0 01-1.23 11.72 30.27 30.27 0 01-2 5.57 23.5 23.5 0 01-3.09 5.06.44.44 0 01-.61.08c-2.05-1.58-4.11-3.16-6.14-4.77l-3.06-2.4-3-2.44c-2-1.62-4.05-3.23-6-4.92a65.5 65.5 0 01-5.65-5.41h.66a48.42 48.42 0 00-4.92 5.47q-2.31 2.9-4.51 5.91l-4.38 6.05c-1.45 2-2.89 4.08-4.37 6.09v.06a.41.41 0 01-.56.08 19.82 19.82 0 01-4.08-4.38 58.34 58.34 0 01-3.26-4.88 101.52 101.52 0 01-5.48-10.38 18.44 18.44 0 01-1.05-2.88 14.52 14.52 0 01-.24-3.1 52 52 0 01.49-5.89c.46-3.87 1.28-7.7 1.85-11.47a.52.52 0 011 .12z"/><path class="cls-8" d="M336.42 299.17a14.76 14.76 0 01-.29-1.59c-.05-.53-.12-1.06-.14-1.59s-.07-1.06-.06-1.6 0-1.06 0-1.6a.59.59 0 01.64-.54.58.58 0 01.53.46c.11.53.19 1.06.25 1.59s.09 1.06.14 1.59.05 1.07.06 1.6 0 1.07-.08 1.61a.56.56 0 01-.62.48.55.55 0 01-.43-.41zm47.35 135.66c-.57-4.08-1-8.17-1.59-12.25l-1.5-12.25-3-24.49c-.95-8.16-2-16.32-3.05-24.47-.52-4.08-1.05-8.15-1.63-12.22s-1.15-8.15-1.84-12.15a.85.85 0 011.67-.34c1.94 8.07 3.19 16.21 4.46 24.36s2.26 16.32 3.29 24.49 1.84 16.37 2.59 24.58l1.07 12.3c.31 4.11.62 8.22.86 12.33a.66.66 0 01-1.32.13zM364 337a205 205 0 00-1.85 23.82c-.24 8-.36 16-.48 24l-.33 24.06-.33 12c-.14 4-.29 8-.52 12a.65.65 0 01-1.3 0c-.2-4-.32-8-.44-12l-.25-12c-.09-8-.12-16.06 0-24.09.05-4 .13-8 .28-12.05s.31-8 .57-12.06a148.43 148.43 0 013-24 .85.85 0 011-.64.86.86 0 01.66 1zm-2.5 154.46c.36 6.93.34 13.87.24 20.8-.05 3.46-.13 6.93-.26 10.4s-.25 6.93-.46 10.39l-.23-.6c1.7 1.42 3.32 2.93 4.9 4.47s3.12 3.12 4.63 4.72a127.54 127.54 0 018.64 10l-1 .09c.94-1.94 2-3.82 3-5.68s2.18-3.69 3.33-5.49 2.32-3.59 3.55-5.34a64.1 64.1 0 014-5.06l-.14.53c-.41-3.66-.82-7.32-1.19-11l-1.07-11-1-11c-.3-3.67-.58-7.34-.81-11a1.4 1.4 0 012.79-.22c.35 3.66.65 7.33.94 11l.77 11 .68 11q.31 5.5.55 11a.78.78 0 01-.08.4l-.06.13a60.31 60.31 0 01-3.06 5.66c-1.12 1.83-2.27 3.63-3.5 5.39s-2.44 3.51-3.72 5.23-2.59 3.41-4 5a.69.69 0 01-1 .08 129.55 129.55 0 01-9.7-9c-1.54-1.58-3.06-3.18-4.53-4.82s-2.93-3.31-4.28-5.07a1.09 1.09 0 01-.22-.56c-.23-3.47-.4-6.93-.54-10.4s-.26-6.92-.33-10.38c-.17-6.93-.24-13.85.06-20.78a1.48 1.48 0 011.55-1.42 1.5 1.5 0 011.55 1.53zm-45.9-117.12c.9 2.36 1.7 4.75 2.52 7.13s1.53 4.8 2.27 7.21c1.48 4.81 2.78 9.68 4 14.58a196.17 196.17 0 015.19 29.8.92.92 0 01-.84 1 .94.94 0 01-1-.76q-2.79-14.76-6-29.43l-3.32-14.67-3.42-14.67a.32.32 0 01.6-.19zm119.56-5.15c-.11 5.07-.13 10.15-.19 15.23s-.14 10.17-.18 15.25-.15 10.17-.27 15.25-.31 10.16-.52 15.22a1 1 0 01-2 0c-.27-5.11-.26-10.2-.24-15.29s.18-10.18.4-15.27.4-10.17.75-15.25.67-10.16 1.29-15.24a.48.48 0 01.53-.41.49.49 0 01.42.48z"/><path class="cls-8" d="M442.65 369.18a52.8 52.8 0 01-.57 6.65 55.11 55.11 0 01-1.36 6.57 40.9 40.9 0 01-2.27 6.39 14.82 14.82 0 01-4.2 5.52.86.86 0 01-1.24-1.15 58.13 58.13 0 005.47-11.41c.72-2 1.37-4.12 1.95-6.22s1.12-4.23 1.6-6.38a.28.28 0 01.35-.22.29.29 0 01.27.25zM432.88 429a17.23 17.23 0 014.37-7.14 22.92 22.92 0 017-4.65 29.34 29.34 0 018-2.12 40.88 40.88 0 018.12-.16.31.31 0 01.27.32.3.3 0 01-.26.27 64 64 0 00-7.79 1.37 33.64 33.64 0 00-7.24 2.64 24.4 24.4 0 00-6.07 4.39 44.08 44.08 0 00-4.88 5.82.86.86 0 01-1.52-.75z"/><path class="cls-8" d="M393.8 301a11.29 11.29 0 003.66 2.85 38 38 0 004.43 1.92 92.55 92.55 0 009.36 2.79c3.16.81 6.36 1.51 9.57 2.26.8.19 1.61.39 2.42.61s1.58.45 2.34.64c1.56.37 3.17.67 4.78 1a195.52 195.52 0 0119.36 4.09 47.33 47.33 0 019.37 3.61 24.12 24.12 0 017.69 6.68 54.35 54.35 0 018.58 18 88.51 88.51 0 013.26 19.63c.44 6.57.69 13.14.9 19.72s.34 13.14.43 19.71.12 13.15 0 19.74-.53 13.2-1.25 19.76c-.37 3.29-.81 6.57-1.38 9.83a74.34 74.34 0 01-2.26 9.75c-.29.8-.51 1.61-.86 2.4l-.5 1.19-.61 1.18a13.29 13.29 0 01-3.51 4.07c-2.9 2.23-6.46 3-9.78 3.4-1.68.19-3.35.27-5 .36s-3.35.19-5 .19c-3.3 0-6.59-.06-9.88-.15-6.58-.17-13.15-.5-19.71-.89-13.12-.82-26.26-1.83-39.24-4.21a.49.49 0 01.17-1c6.45 1 13 1.64 19.52 2.13s13.09.87 19.64 1.14 13.11.47 19.66.61c3.28.07 6.55.1 9.81.07 1.66 0 3.16-.08 4.86-.22s3.27-.19 4.85-.38c3.14-.38 6.25-1.15 8.59-3a11 11 0 002.84-3.36l.53-1 .45-1.08c.32-.7.53-1.49.8-2.23a73.47 73.47 0 002.2-9.43c.55-3.2 1-6.43 1.35-9.67.73-6.49 1.14-13 1.25-19.54s.08-13.11 0-19.67c-.18-13.11-.52-26.24-1.25-39.31a86.13 86.13 0 00-3.06-19.18 52.14 52.14 0 00-8.11-17.38 22 22 0 00-7-6.19 46.34 46.34 0 00-8.95-3.5 193.39 193.39 0 00-19.12-4.11c-1.62-.31-3.24-.62-4.87-1-.83-.21-1.66-.46-2.4-.68s-1.56-.42-2.35-.62c-3.18-.79-6.39-1.54-9.57-2.39a90.42 90.42 0 01-9.45-3.05 32.92 32.92 0 01-4.53-2.16 12.28 12.28 0 01-3.92-3.32.52.52 0 01.84-.62z"/><path class="cls-8" d="M378.43 434c2.25.12 4.59 0 6.91-.12s4.65-.27 7-.44l14-1 7-.49c2.29-.2 4.59-.49 6.88-.84 4.58-.69 9.13-1.64 13.8-2.35s9.3-1.19 14-1.65q3.51-.34 7-.59c1.17-.08 2.35-.15 3.53-.2l1.77-.06h.81a4.54 4.54 0 00.74-.1 4.22 4.22 0 002.37-1.07c.21-.27.21-.37.2-.41a1.16 1.16 0 00-.57-.53 10 10 0 00-2.91-.82 30.83 30.83 0 00-3.36-.34 97.38 97.38 0 00-13.85.37.28.28 0 01-.3-.24.26.26 0 01.19-.28 44.44 44.44 0 016.92-1.49 52.42 52.42 0 017.1-.56 34 34 0 013.62.19 10.59 10.59 0 013.8 1 3.45 3.45 0 011.76 2 2.13 2.13 0 01.12.8 2.26 2.26 0 01-.12.79 2.43 2.43 0 01-.3.67 2.23 2.23 0 01-.4.53 6.57 6.57 0 01-3.82 1.91 7 7 0 01-1 .12h-.94l-1.72.05c-1.16.06-2.31.12-3.47.2-2.31.15-4.63.35-6.94.57-4.62.46-9.29 1-13.85 1.62s-9.17 1.6-13.84 2.22c-2.33.31-4.68.57-7 .74l-7 .38q-7 .4-14 .69c-2.34.09-4.67.17-7 .22a64.91 64.91 0 01-7.09-.17.62.62 0 01-.57-.69.64.64 0 01.66-.58zm-32.27.35q-5.7 0-11.38-.11c-1.89 0-3.79-.05-5.69-.11a27.16 27.16 0 01-5.8-.84c-.94-.24-1.88-.52-2.8-.84a13.75 13.75 0 01-2.79-1.24 27.62 27.62 0 01-4.38-3.89c-.66-.67-1.32-1.34-2-2a11 11 0 00-2.09-1.64 45.73 45.73 0 00-5.3-1.77c-1.81-.53-3.67-1-5.46-1.64a12.75 12.75 0 00-5.33-.11 9.43 9.43 0 00-1.27.31l-.66.23-.69.23-2.73.85-5.43 1.59-1.33.42a2.29 2.29 0 00-.8.38c-.08.09-.14.21-.08.5a2.72 2.72 0 00.41.92 5 5 0 001.75 1.53 4 4 0 001.1.36c.41.06.85.1 1.31.14a52 52 0 005.58 0l5.67-.26a.44.44 0 01.45.42.43.43 0 01-.36.44 69.5 69.5 0 01-11.42 1.16 11.51 11.51 0 01-1.52-.1 5.92 5.92 0 01-1.61-.47 6.49 6.49 0 01-2.54-2.11 4.8 4.8 0 01-.74-1.65 2.49 2.49 0 01.51-2.16 3.52 3.52 0 011.67-1l1.39-.43c1.83-.54 3.67-1 5.51-1.47l2.74-.69.67-.18.69-.2a11.8 11.8 0 011.51-.29 14.34 14.34 0 015.92.47c1.77.69 3.57 1.21 5.39 1.76l2.73.8c.92.28 1.81.49 2.78.88a12.48 12.48 0 012.52 1.65c.76.61 1.49 1.23 2.21 1.85a47.59 47.59 0 004.28 3.45 14.16 14.16 0 002.4 1.05c.86.31 1.74.58 2.62.82a24.88 24.88 0 005.42.85c1.89.07 3.78.2 5.67.29q5.65.3 11.33.73a.53.53 0 01.49.56.53.53 0 01-.52.56z"/><path class="cls-8" d="M303.49 425.53c-3.35 1.37-6.71 2.69-10.07 4l-5.05 1.91a36.51 36.51 0 00-4.8 2.18c-1.53.86-3.05 1.85-4.62 2.75a23.71 23.71 0 00-4.22 3 9.26 9.26 0 00-2.5 4.15 4.54 4.54 0 00-.32 2.22 3.64 3.64 0 001.25 1.85.51.51 0 010 .73.52.52 0 01-.65.1 4.4 4.4 0 01-2.07-2.28 5.73 5.73 0 010-3.11 11.68 11.68 0 011-2.74 10 10 0 011.8-2.36 21.66 21.66 0 014.59-3.29c1.55-.9 3.11-1.8 4.75-2.66a31.64 31.64 0 015.13-2.11l5.16-1.66q5.17-1.64 10.36-3.17a.28.28 0 01.34.19.27.27 0 01-.16.33z"/><path class="cls-8" d="M282.74 441.07a19.28 19.28 0 01-4.73 4.59 15 15 0 01-1.44.88c-.47.25-.93.51-1.37.78a14.16 14.16 0 00-2.46 1.8 5.65 5.65 0 00-1.57 2.28 5.59 5.59 0 00-.05 2.7 5.1 5.1 0 003.38 3.9.85.85 0 01.54 1.08.86.86 0 01-1 .56 6 6 0 01-3.22-1.84 6.69 6.69 0 01-1.62-3.32 6.83 6.83 0 01.25-3.68 7.47 7.47 0 012.18-2.9 14.55 14.55 0 012.84-1.85c.5-.25 1-.48 1.5-.7s.92-.45 1.38-.71a20.36 20.36 0 004.89-3.93.3.3 0 01.43 0 .31.31 0 01.07.36z"/><path class="cls-8" d="M284.94 451.67a5.86 5.86 0 01-1.29 1.47c-.45.41-.92.79-1.4 1.15-1 .72-2 1.38-3 2-.5.32-1 .61-1.54.91s-1.09.59-1.44.82a3.19 3.19 0 00-1.39 2.17 3.9 3.9 0 00.06 1.4 4.18 4.18 0 00.55 1.34 7.89 7.89 0 002.22 2.28 3.9 3.9 0 001.4.64c.54.15 1.1.29 1.67.41a16.33 16.33 0 001.68.28c-.06 0-.08 0-.2.12a.32.32 0 000 .09v.08a.27.27 0 000-.12c0-.12-.11-.24-.18-.37a6.1 6.1 0 01-.41-.85 1.51 1.51 0 01-.1-.6.79.79 0 01.11-.38 1.94 1.94 0 01.22-.25 3.39 3.39 0 01.87-.55 9 9 0 011.79-.62 4.94 4.94 0 011-.13 2.92 2.92 0 011.11.21 2.88 2.88 0 011.73 1.51 1.73 1.73 0 01-.13 1.45 2.5 2.5 0 01-.37.5l-.35.35c-.46.42-.92.79-1.35 1.17a10.41 10.41 0 00-2.15 2.47 8.39 8.39 0 00-1.08 3 3.82 3.82 0 00.49 2.85 3.73 3.73 0 001 1 4 4 0 001.41.44 9.92 9.92 0 003.26-.12.53.53 0 01.63.41.52.52 0 01-.34.61 9.13 9.13 0 01-3.74.48 5.22 5.22 0 01-2-.55 4.79 4.79 0 01-1.54-1.39 5.29 5.29 0 01-.77-3.92 10 10 0 011.24-3.6 10.93 10.93 0 012.5-2.81c.46-.4.93-.76 1.34-1.13s.54-.59.5-.71a1.64 1.64 0 00-.9-.71 1.73 1.73 0 00-.6-.14 7 7 0 00-.78 0 9.84 9.84 0 00-1.64.26 2.61 2.61 0 00-.69.27c-.1.06-.09.05-.1.09a.46.46 0 000 .27 3.57 3.57 0 00.35.75c.07.12.14.26.22.41a2.08 2.08 0 01.1.3.43.43 0 010 .16v.16a.38.38 0 01-.06.13.48.48 0 01-.39.21c-.67 0-1.22 0-1.84-.06a16 16 0 01-1.81-.17 6.41 6.41 0 01-.95-.22 6.53 6.53 0 01-.92-.42 9.64 9.64 0 01-2.91-2.5 5.69 5.69 0 01-.95-1.85 5.88 5.88 0 01-.22-2.1 5 5 0 012.21-3.66 15.75 15.75 0 011.64-.9l1.55-.8 3.09-1.63 1.52-.84a8 8 0 001.31-.9l.09-.07a.39.39 0 01.56 0 .39.39 0 01.11.45z"/><path class="cls-8" d="M282.39 464.54a10.27 10.27 0 01.72 1c.19.35.41.7.58 1.07s.37.72.51 1.11a10.45 10.45 0 01.42 1.15.59.59 0 01-1.05.51 10.07 10.07 0 01-.65-1c-.22-.35-.38-.72-.56-1.08s-.33-.75-.49-1.12a9.58 9.58 0 01-.35-1.19.5.5 0 01.4-.58.49.49 0 01.47.13zm7.24 13.16c.53.72 1 1.43 1.58 2.09a18.24 18.24 0 001.76 1.86 15.61 15.61 0 002 1.56 16.59 16.59 0 002.24 1.26h.06a.51.51 0 01.25.66.49.49 0 01-.5.29 8 8 0 01-2.84-.79 10.9 10.9 0 01-2.47-1.6 11.08 11.08 0 01-1.95-2.21 10 10 0 01-1.26-2.61.62.62 0 011.08-.56zm-11.93-42.05l-1.16-10.18-1.08-10.18c-.7-6.79-1.46-13.57-2.11-20.36l-.5-5.1c-.19-1.67-.43-3.36-.66-5.05-.47-3.38-.93-6.78-1.28-10.19a80.16 80.16 0 01.15-20.7 36.22 36.22 0 011.2-5.12 25.29 25.29 0 012-4.91 21.22 21.22 0 013.09-4.39c1.22-1.25 2.44-2.49 3.75-3.63a80.11 80.11 0 0117.18-11.53c3.07-1.58 6.21-3 9.39-4.3l2.38-1c.78-.31 1.52-.63 2.29-1 1.53-.72 3.06-1.46 4.57-2.24 3-1.54 6.06-3.11 9.05-4.73q2.25-1.21 4.46-2.47c.74-.42 1.48-.85 2.19-1.3.35-.22.72-.44 1.05-.68l.5-.36.41-.36.1-.08a.45.45 0 01.64 0 .46.46 0 010 .62l-.52.52-.52.42c-.34.28-.7.52-1 .77-.7.51-1.42 1-2.14 1.45-1.43.95-2.9 1.83-4.37 2.71q-4.41 2.64-8.93 5.07c-1.51.81-3 1.6-4.58 2.37-.77.38-1.57.77-2.38 1.1l-2.36 1q-4.7 2-9.2 4.28a82.59 82.59 0 00-16.75 11.23c-1.27 1.09-2.45 2.29-3.62 3.48a18.94 18.94 0 00-2.78 4 24.09 24.09 0 00-1.87 4.54 35.93 35.93 0 00-1.12 4.85c-1.06 6.6-.75 13.41-.13 20.15.33 3.37.77 6.74 1.23 10.13.22 1.69.45 3.39.64 5.11l.48 5.1c.64 6.8 1.17 13.61 1.76 20.42l.86 10.2.78 10.22a.53.53 0 01-1.05.1zm71.15 55.25c6.29-.62 12.54-1.35 18.78-2.15s12.44-1.79 18.6-3a182.31 182.31 0 0018.23-4.5c3-.88 5.92-2 8.81-3.16 1.42-.63 2.86-1.24 4.28-1.9s2.74-1.49 4.13-2.21a.56.56 0 01.77.24.57.57 0 01-.16.73 66.53 66.53 0 01-17.09 8.59 129.89 129.89 0 01-18.45 5c-6.24 1.22-12.54 2.1-18.86 2.69a182.72 182.72 0 01-19 .82.58.58 0 01-.57-.58.57.57 0 01.53-.57zm-55.19 35.37c-5.34-3.2-10.8-6.26-16.26-9.27a63.53 63.53 0 00-8.33-4 15.32 15.32 0 00-4.26-1 5.13 5.13 0 00-1.92.32 2.29 2.29 0 00-1.26 1.08 2.2 2.2 0 00-.18.41 1.84 1.84 0 00-.12.37 1 1 0 00.11.57 5.21 5.21 0 001.26 1.48 32.42 32.42 0 003.68 2.66l7.85 5.12c2.6 1.75 5.25 3.4 7.85 5.17 1.29.88 2.57 1.79 3.8 2.77a19.48 19.48 0 013.46 3.28.21.21 0 010 .29.21.21 0 01-.25 0c-1.18-1-2.54-1.74-3.82-2.61l-3.91-2.55c-2.6-1.72-5.2-3.45-7.87-5.06l-8-4.88a29.74 29.74 0 01-4-2.75 7 7 0 01-1.73-2.09 2.86 2.86 0 01-.27-1.7 3.13 3.13 0 01.22-.74 3.51 3.51 0 01.31-.65 4.23 4.23 0 012.24-1.89 6.86 6.86 0 012.68-.4 16.92 16.92 0 014.8 1.22 59.84 59.84 0 018.42 4.37c2.7 1.59 5.37 3.23 8 4.89s5.3 3.33 7.86 5.14a.31.31 0 01.08.43.31.31 0 01-.41.09z"/><path class="cls-8" d="M261.41 516.91a7.55 7.55 0 00-4.11.93 1.54 1.54 0 00-.29.23 1.14 1.14 0 00-.15.23 1.08 1.08 0 00-.1.63 3.21 3.21 0 00.86 1.6 12.84 12.84 0 001.69 1.53l1.93 1.56 3.84 3.13a86.36 86.36 0 017.53 6.62c.59.68 1.07 1.32 1.57 2l1.49 2c.51.65 1 1.29 1.49 2s.95 1.37 1.41 1.91l.05.06a.24.24 0 010 .34.25.25 0 01-.25 0 6.94 6.94 0 01-2.1-1.56 24.52 24.52 0 01-1.67-1.87l-1.6-1.99c-.51-.65-1-1.34-1.51-1.89a60 60 0 00-7.38-6.4c-1.3-1-2.63-2-4-2.92l-2-1.45a14 14 0 01-2-1.71 5.14 5.14 0 01-1.37-2.73 3.15 3.15 0 01.3-1.77 2.6 2.6 0 01.57-.78 4.28 4.28 0 01.69-.5 6.31 6.31 0 012.76-.7 5.21 5.21 0 012.73.58.49.49 0 01.18.67.47.47 0 01-.47.25z"/><path class="cls-8" d="M263.45 526.28c-.91 5.11-2 10.21-2.63 15.33a35.58 35.58 0 00-.33 3.77v.86c0 .26.17.34-.06.15h-.11a2 2 0 00.23-.11 4.76 4.76 0 00.65-.47 24.6 24.6 0 002.51-2.74c.4-.5.77-1 1.14-1.52a10.12 10.12 0 00.93-1.5l.05-.11a.49.49 0 01.65-.25.5.5 0 01.29.55 7.66 7.66 0 01-.8 2c-.32.59-.67 1.15-1 1.71a16.68 16.68 0 01-2.6 3.15 5.16 5.16 0 01-.91.69 3.74 3.74 0 01-.66.28 1.5 1.5 0 01-1.56-.45 2.11 2.11 0 01-.25-.42c-.05-.13-.09-.26-.13-.38l-.05-.33a10.47 10.47 0 01-.05-1.1 30.45 30.45 0 01.42-4c.42-2.6 1-5.15 1.57-7.69s1.23-5.08 2-7.57a.34.34 0 01.43-.22.35.35 0 01.27.37z"/><path class="cls-8" d="M261.45 534.32a41.17 41.17 0 007.18 6.85 27.72 27.72 0 004.14 2.62 9.89 9.89 0 002.21.83 9.58 9.58 0 002.34.21c3.2-.13 6.36-1.42 9.45-2.63a17.17 17.17 0 004.29-2.34 9.89 9.89 0 001.73-1.69 11.83 11.83 0 00.71-1 3 3 0 011-1 18.21 18.21 0 012.38-1.08 8.69 8.69 0 002-1.13 5.62 5.62 0 00.76-.78c.26-.31.5-.63.73-.93a4.56 4.56 0 00.56-1 5.27 5.27 0 01.73-1.21c.57-.7 1.16-1.3 1.68-1.92a8.07 8.07 0 001.29-2 14.56 14.56 0 00.76-2.34c.22-.82.46-1.64.76-2.44s.63-1.58 1-2.37l.91-2.35c.3-.78.65-1.55 1-2.32.15-.38.31-.77.42-1.13a3.61 3.61 0 00.18-1.09v-1.22a11.91 11.91 0 00-.09-1.19 18.17 18.17 0 00-.51-2.39 32.84 32.84 0 00-1.66-4.64v.05a10.24 10.24 0 00-1.42-2 3.64 3.64 0 00-1.76-1.18 2.22 2.22 0 00-1.67.8 3.16 3.16 0 00-.87 1.89 6 6 0 00.34 2.25 22.35 22.35 0 001.06 2.29 7.6 7.6 0 01.29 5.76 7.49 7.49 0 01-.66 1.33 6.59 6.59 0 01-.93 1.22 2.55 2.55 0 01-1.8.77 3.49 3.49 0 01-1.64-.5 22.85 22.85 0 01-2.23-1.52l-2.11-1.52a63.43 63.43 0 00-8.81-5.54 10.86 10.86 0 00-4.84-1 11.64 11.64 0 00-2.45.25 3.52 3.52 0 00-1.89 1 3 3 0 00-.88 1.82 3.07 3.07 0 00.07 1 1.56 1.56 0 00.41.69 7.88 7.88 0 001.95 1.22c.76.38 1.57.75 2.36 1.19a15.07 15.07 0 012.3 1.53l2 1.63c1.36 1.1 2.68 2.26 4 3.43a50.61 50.61 0 013.75 3.72 30.45 30.45 0 013.23 4.18.2.2 0 01-.3.25c-2.53-2.4-5.17-4.61-7.84-6.81-1.32-1.11-2.69-2.17-4.05-3.24l-2.01-1.67a15.41 15.41 0 00-2-1.39c-.72-.42-1.48-.8-2.27-1.21a9.72 9.72 0 01-2.4-1.63 3.43 3.43 0 01-.85-1.57 4.67 4.67 0 011.44-4.34 4.93 4.93 0 011.29-.86 6 6 0 011.45-.38 13.68 13.68 0 018 1.37c1.58.82 3 1.77 4.53 2.69s3 1.79 4.51 2.66 3.07 1.79 4.48 2.52a2.17 2.17 0 00.85.24c.16 0 .27-.07.51-.29a4.8 4.8 0 00.64-.86 5.58 5.58 0 00.5-1 6 6 0 00-.11-4.43 22.37 22.37 0 01-1-2.49 7.52 7.52 0 01-.3-2.9 4.69 4.69 0 011.32-2.74 4.39 4.39 0 011.26-.9 2.77 2.77 0 01.78-.27 2.2 2.2 0 01.92 0 5 5 0 012.54 1.63 12.4 12.4 0 011.58 2.28 33.8 33.8 0 011.66 4.88 19.47 19.47 0 01.49 2.55 11.72 11.72 0 01.09 1.33v1.29a4.8 4.8 0 01-.25 1.4c-.15.43-.32.82-.49 1.21-.34.78-.66 1.55-1 2.31s-.79 1.5-1.17 2.25a21.82 21.82 0 00-1 2.29c-.59 1.55-.83 3.2-1.47 4.85a9.61 9.61 0 01-1.32 2.28c-.54.69-1.12 1.29-1.56 1.95a2.93 2.93 0 00-.46 1 5.52 5.52 0 01-.52 1.3 8.21 8.21 0 01-.76 1.1 5.77 5.77 0 01-1 1c-1.57 1.14-3.44 1.18-4.78 1.88a2.28 2.28 0 00-.79.68 12.87 12.87 0 01-.75 1.07 14 14 0 01-1.82 1.87 18.11 18.11 0 01-4.42 2.71c-3.11 1.28-6.29 2.65-9.85 2.85a10.55 10.55 0 01-2.68-.21 11.51 11.51 0 01-2.51-.9 23.33 23.33 0 01-4.38-2.77 28.67 28.67 0 01-6.75-7.65.24.24 0 01.08-.33.24.24 0 01.19.07zM251 541a33.35 33.35 0 004.51 3c1.57.85 3.22 1.61 4.89 2.34a.85.85 0 01-.69 1.56h-.06c-1.62-.86-3.24-1.75-4.81-2.75a34 34 0 01-4.42-3.38.45.45 0 01.58-.7z"/><path class="cls-8" d="M309.1 505.38c5.78-2.69 11.71-5 17.68-7.17l18-6.41c6-2.16 12-4.19 18-6.28q4.5-1.57 9-3.07l9.05-3 .07.48c-4.74 0-9.46-.13-14.18-.31s-9.43-.46-14.14-.77-9.42-.64-14.11-1.15-9.38-1.08-14-2h.33c-9.95 4.12-20 8-30.06 11.82s-20.19 7.46-30.32 11.09-20.29 7.21-30.47 10.7-20.37 7-30.62 10.3v-.43c4.5.2 9 .59 13.45 1s8.93 1 13.39 1.56c8.9 1.19 17.78 2.51 26.59 4.34h-.35l5.63-1.24a.56.56 0 01.66.42.55.55 0 01-.37.64l-5.46 1.82a.54.54 0 01-.25 0h-.1c-9-.69-17.87-1.88-26.75-3.21-4.44-.68-8.87-1.41-13.29-2.23s-8.83-1.68-13.22-2.73a.22.22 0 010-.43q15-6.12 30-11.91t30.18-11.51c10.08-3.78 20.17-7.53 30.31-11.13s20.32-7.1 30.58-10.39a1.09 1.09 0 01.25 0h.08c4.75-.11 9.46.1 14.17.38s9.41.75 14.11 1.22 9.38 1 14.07 1.6 9.36 1.24 14 2.05a.25.25 0 01.21.29.27.27 0 01-.15.19l-8.84 3.58q-4.42 1.8-8.86 3.52c-5.92 2.31-11.83 4.67-17.78 6.91l-17.82 6.77c-6 2.21-11.95 4.31-18.1 6a.71.71 0 01-.49-1.33zm-12.86 30.72c.15 2.29.18 4.57.2 6.85s0 4.57-.1 6.85c-.11 4.56-.28 9.12-.6 13.68l-.72-.66c12.14-1.67 24.34-2.81 36.53-4 6.1-.5 12.21-1 18.32-1.4s12.25-.68 18.42-.41a.58.58 0 01.56.61.59.59 0 01-.55.57c-6.07.31-12.17.82-18.26 1.31s-12.19 1-18.28 1.54c-12.19 1-24.37 2.19-36.58 3a.68.68 0 01-.68-.66c-.09-4.57 0-9.14.1-13.7 0-2.28.12-4.56.25-6.84s.29-4.56.55-6.83a.45.45 0 01.9 0zM397 569.26c2.31-.14 4.68-.38 7-.58l7.06-.62c4.7-.34 9.41-.79 14.12-1.1s9.42-.73 14.13-1l7.06-.49c2.34-.16 4.74-.31 7-.55l-.48.61a24.48 24.48 0 01-.64-5 37.34 37.34 0 01.08-5.07.62.62 0 011.22-.07 35.83 35.83 0 01.63 5 25.31 25.31 0 01-.1 5.07v.15a.52.52 0 01-.45.46c-4.77.84-9.42 1.28-14.14 1.78s-9.41.87-14.12 1.28-9.44.66-14.15 1-9.43.47-14.23.32a.57.57 0 01-.56-.59.58.58 0 01.54-.56z"/><path class="cls-8" d="M368.68 571.46c-5.84.55-11.7.94-17.55 1.28s-11.71.66-17.57.93-11.72.61-17.58.85-11.71.51-17.62.29a.46.46 0 01-.46-.41v-.06a37.71 37.71 0 01-.33-5.61 55.43 55.43 0 01.29-5.6.51.51 0 01.56-.45.52.52 0 01.45.45 55.43 55.43 0 01.29 5.6 37.71 37.71 0 01-.33 5.61l-.46-.46c5.81-.49 11.68-.86 17.53-1.17l17.57-.93 17.57-.93c5.86-.28 11.71-.53 17.58-.62a.6.6 0 01.63.61.61.61 0 01-.57.62zm27.91-15.85c11.51-.82 23-1 34.55-1 5.76 0 11.52.15 17.28.12h5.64s.05 0 .07-.05a.26.26 0 00.09-.11 4.37 4.37 0 00.46-1.78 49.66 49.66 0 00-.33-8.5c-.28-2.86-.62-5.72-.88-8.6s-.42-5.79-.65-8.64l-1.22-17.23c-.75-11.49-1.42-23-1.61-34.51a.45.45 0 01.45-.47.46.46 0 01.47.41c1.26 11.46 2.05 23 2.76 34.46l1 17.25c.18 2.89.27 5.74.47 8.6l.64 8.61c.1 1.44.19 2.89.24 4.34a36.19 36.19 0 01-.06 4.41 5.44 5.44 0 01-.67 2.35 1.33 1.33 0 01-.25.3 1.08 1.08 0 01-.36.26.89.89 0 01-.44.15h-1.45l-4.32.12c-5.75.13-11.51.41-17.27.59-11.51.36-23 .48-34.54 0a.56.56 0 01-.54-.58.57.57 0 01.47-.5z"/><path class="cls-8" d="M397.36 572a47.77 47.77 0 01-6.68.9c-2.37.2-4.87.24-7.32.3s-4.9.12-7.36.09a57 57 0 01-7.29-.29.68.68 0 01-.55-.49 33 33 0 01-.75-4.37c-.17-1.46-.27-2.92-.33-4.38s-.06-2.92 0-4.39a27.73 27.73 0 01.56-4.4v-.07a.64.64 0 01.52-.5 62.9 62.9 0 017.07-.7c2.36-.15 4.72-.21 7.08-.29s4.73-.16 7.09-.15a48.39 48.39 0 017.1.41.62.62 0 01.51.49 49.35 49.35 0 01.83 9.2c0 1.53 0 3-.11 4.52s-.18 2.88-.37 4.12zm-.66-.63c-.28-1.65-.49-3.16-.65-4.62s-.28-2.86-.35-4.25a41.91 41.91 0 01.34-8.34l.52.48a48.45 48.45 0 01-7.07.81c-2.36.14-4.72.17-7.08.24s-4.72.11-7.09.1a62.39 62.39 0 01-7.09-.31l.54-.57a27.79 27.79 0 01.8 4.36c.15 1.46.24 2.92.25 4.39s0 2.92-.09 4.39a34.87 34.87 0 01-.5 4.4l-.55-.52a52.25 52.25 0 016.87-.69c2.27-.16 4.55-.2 6.81-.29s4.49-.16 6.85-.09 4.79.23 7.49.55zm-97.9 3.07c-.67 5-1 10-1.33 15.08s-.48 10.09-.64 15.15l-.48 15.19c-.2 5.06-.42 10.13-.86 15.21a.33.33 0 01-.35.3.32.32 0 01-.29-.3c-.49-5.07-.71-10.15-.84-15.23s-.08-10.17.12-15.26.49-10.18 1.07-15.25a99.11 99.11 0 012.71-15.08.47.47 0 01.56-.32.46.46 0 01.33.5zm155.2-9.01c.47 2.87.86 5.75 1.25 8.64s.67 5.78 1 8.68c.59 5.79 1 11.6 1.3 17.41s.46 11.64.39 17.47-.24 11.66-.82 17.46a.38.38 0 01-.42.35.39.39 0 01-.35-.39q0-8.7-.3-17.39c-.23-5.8-.48-11.59-.81-17.37s-.7-11.58-1.09-17.37c-.19-2.89-.37-5.79-.59-8.68s-.41-5.8-.55-8.7a.51.51 0 01.48-.54.5.5 0 01.51.43zm-61 11.21c.3 4 .34 7.85.37 11.78s0 7.85-.19 11.77-.39 7.85-.85 11.79c-.1 1-.25 2-.4 2.95l-.22 1.47-.3 1.48c-.1.49-.19 1-.31 1.48l-.41 1.48a20.14 20.14 0 01-1.13 3 1.29 1.29 0 01-1.21.7l-17.1-1a.41.41 0 010-.81l17.1-1-1.23.73a18.93 18.93 0 001-2.46l.43-1.33c.13-.45.23-.92.35-1.38l.34-1.38.27-1.42c.19-.94.37-1.89.51-2.85.61-3.82 1-7.69 1.32-11.58s.55-7.78.69-11.68.25-7.82.12-11.69a.42.42 0 01.83-.05z"/><path class="cls-8" d="M373.89 576.66c.46 3.87.75 7.74 1 11.61s.4 7.74.53 11.61.19 7.75.19 11.62c0 1.94 0 3.88-.05 5.82s-.11 3.9-.09 5.77v.06a.31.31 0 01-.62.07 50.12 50.12 0 01-.91-5.82c-.22-1.94-.4-3.87-.55-5.81-.29-3.87-.48-7.75-.6-11.62s-.19-7.76-.16-11.64.11-7.76.37-11.64a.44.44 0 01.48-.42.45.45 0 01.41.39zM238.1 281.42a38.09 38.09 0 00-6.19-2.95 63.68 63.68 0 00-6.55-2c-2.22-.57-4.48-1.06-6.74-1.52s-4.56-.87-6.85-1.25a.49.49 0 01-.4-.57.48.48 0 01.42-.4 31.83 31.83 0 017.17 0A44.69 44.69 0 01226 274a33.89 33.89 0 016.76 2.55 20.18 20.18 0 015.86 4.26.4.4 0 01-.51.61z"/><path class="cls-8" d="M213.6 273.11a16.89 16.89 0 003.87 5.86 16.55 16.55 0 006.14 3.13 20.49 20.49 0 007 .73 15.42 15.42 0 003.45-.62 6.77 6.77 0 002.93-1.69.4.4 0 01.58 0 .39.39 0 01.06.5 7 7 0 01-3.08 2.52 13.83 13.83 0 01-3.76 1.08 18.92 18.92 0 01-7.74-.49 15.44 15.44 0 01-6.85-3.78A11.16 11.16 0 01214 277a20.68 20.68 0 01-1.14-3.64.4.4 0 01.31-.47.39.39 0 01.43.22z"/><path class="cls-8" d="M194.17 275.44a3.32 3.32 0 01-1.81 2.44 3 3 0 01-1.7.26 3.69 3.69 0 01-1.56-.6 4.31 4.31 0 01-.62-.49 5.83 5.83 0 01-.56-.64 7.19 7.19 0 01-.69-1.35 16 16 0 01-.72-2.69 66.13 66.13 0 01-1-10.75 18.88 18.88 0 01.71-5.46 11 11 0 011.16-2.61 4.84 4.84 0 012.34-2.07 2.77 2.77 0 011.8 0 3.36 3.36 0 011.45.89 6.51 6.51 0 011.46 2.61 16 16 0 01.61 5.47l-.3-.43 2 .64-.93.46q1.92-8.52 4.21-17c.8-2.81 1.6-5.61 2.64-8.41a51 51 0 013.71-8.09 23.41 23.41 0 016.06-6.8 24.38 24.38 0 018.18-4 31.74 31.74 0 019-1.1 35.72 35.72 0 014.5.34 18.9 18.9 0 012.27.44c.74.2 1.45.42 2.16.65 1.41.45 2.79 1 4.15 1.52s2.72 1.12 4.05 1.74a44 44 0 017.76 4.39 23.26 23.26 0 015.66 7 35.76 35.76 0 013.37 8.2 19 19 0 01.69 4.43 40.5 40.5 0 01-.28 4.42c-.33 2.91-.81 5.78-1.29 8.66-1 5.74-2.16 11.43-3.35 17.16l-.53-1.1 1.25 1.13-.55.16a7.75 7.75 0 013.89-3.56 4.89 4.89 0 012.91-.13 3.59 3.59 0 011.45.77 3 3 0 01.9 1.44 6.74 6.74 0 01.1 2.84c-.13.87-.3 1.69-.5 2.5a22.13 22.13 0 01-1.9 4.75 47.63 47.63 0 01-2.53 4.31 22.7 22.7 0 01-3.15 4 10.08 10.08 0 01-4.47 2.67 3.19 3.19 0 01-2.77-.5 3.92 3.92 0 01-1.23-2.39.32.32 0 01.25-.37.31.31 0 01.35.2 3.37 3.37 0 001.18 1.77 2.18 2.18 0 001.91.12 9.78 9.78 0 003.69-2.59 23.53 23.53 0 002.78-3.82 44.35 44.35 0 002.29-4.23 23.55 23.55 0 001.69-4.37c.18-.79.38-1.56.49-2.31a5.13 5.13 0 000-2 1.42 1.42 0 00-1.05-1 3.3 3.3 0 00-1.92-.05 8.2 8.2 0 00-3.64 2.48.51.51 0 01-.46.17h-.1l-1.68-.21a.7.7 0 01-.61-.78v-.09l.06-.22c1.53-5.58 2.84-11.25 3.95-16.93.56-2.84 1-5.7 1.36-8.56a41.2 41.2 0 00.29-4.28 17.67 17.67 0 00-.66-4.15 29.47 29.47 0 00-3.37-7.82 20.46 20.46 0 00-5.55-6.23 44.52 44.52 0 00-7.61-3.76c-2.67-1.06-5.37-2.06-8.09-2.92-.68-.21-1.36-.41-2-.58s-1.31-.28-2-.38a34.3 34.3 0 00-4.18-.34 29.48 29.48 0 00-8.28 1 21.76 21.76 0 00-7.39 3.58 22.29 22.29 0 00-5.52 6.08 48.88 48.88 0 00-3.68 7.67c-1 2.62-1.9 5.4-2.74 8.17-1.71 5.53-3.24 11.13-4.79 16.72v.05a.65.65 0 01-.81.45h-.11l-1.88-1h-.06a.46.46 0 01-.24-.4 24.4 24.4 0 00-1.08-5c-.5-1.55-1.67-2.88-2.74-2.45a3.28 3.28 0 00-1.55 1.41 9.62 9.62 0 00-1.07 2.21 17.9 17.9 0 00-.83 5A35.18 35.18 0 00188 272a15.93 15.93 0 00.85 2.38 6.82 6.82 0 00.54 1c.11.12.18.24.31.36a3.07 3.07 0 00.41.34 2 2 0 001.77.44 3.22 3.22 0 001.75-1.32.31.31 0 01.57.23z"/><path class="cls-8" d="M191 252.27a32.77 32.77 0 01.26-5.79c.22-1.91.52-3.81.89-5.68.76-3.76 1.62-7.48 2.68-11.16l.81-2.75.47-1.39.53-1.37a49.31 49.31 0 012.56-5.21 42.6 42.6 0 013.11-4.86 22.66 22.66 0 013.95-4.25v.3a4.53 4.53 0 01-.8-.9 8.15 8.15 0 01-.65-1 .34.34 0 01.07-.49.32.32 0 01.23-.06h.08a8.27 8.27 0 011.56.3 6.19 6.19 0 011.5.6l-.21.16a12.58 12.58 0 01-.28-2.58 13.22 13.22 0 01.17-2.59.23.23 0 01.13-.32.23.23 0 01.27.05l.13.12a11.72 11.72 0 011.58 2.09 11.37 11.37 0 011.12 2.36h-.53a13.72 13.72 0 013.51-5.11 20 20 0 015.16-3.46 24.19 24.19 0 015.89-1.87c1-.18 2-.26 3-.37s2.05 0 3.06 0a.36.36 0 01.34.36.32.32 0 01-.07.19l-1.65 2.27-.39-.5a11 11 0 012.48-1.16 15.3 15.3 0 012.65-.65 14.69 14.69 0 015.45.07h.06a.37.37 0 01.31.44.4.4 0 01-.16.24l-2.43 1.7-.2-.47a30.07 30.07 0 017.91-.84 18 18 0 017.84 1.72h.05a.45.45 0 010 .81l-2.74 1.12v-.59a38.84 38.84 0 017.23 2.33 42.47 42.47 0 016.77 3.56 27.85 27.85 0 015.76 5.14 18.74 18.74 0 013.48 6.88.32.32 0 01-.22.41.29.29 0 01-.13 0l-3.1-.3.31-.54a12.2 12.2 0 011.85 2.64 17.76 17.76 0 011.25 2.95 20.43 20.43 0 01.75 3.11 17.78 17.78 0 01.21 3.17.3.3 0 01-.29.32.37.37 0 01-.15 0l-2.85-1.42.62-.37a56.38 56.38 0 01.06 10.79c-.24 3.59-.57 7.17-1.05 10.74s-1.14 7.11-2 10.62a69 69 0 01-3.39 10.27.39.39 0 01-.51.2.39.39 0 01-.22-.5 73.73 73.73 0 002.92-10.22c.74-3.48 1.26-7 1.71-10.54s.73-7.09.94-10.64.27-7.13.67-10.68v-.08a.39.39 0 01.44-.35.35.35 0 01.17.06l2.63 1.66-.45.28c-.26-1-.49-2-.78-3s-.59-1.95-.92-2.91-.71-1.9-1.1-2.84-.79-1.88-1.22-2.8v-.06a.34.34 0 01.16-.45.57.57 0 01.18 0l3.1.32-.35.44a26.38 26.38 0 00-4.13-6 39.76 39.76 0 00-5.52-4.74 57.06 57.06 0 00-13.12-6.79.32.32 0 01-.19-.41.3.3 0 01.16-.17l2.63-1.36v.82a38.13 38.13 0 00-7.56-1c-2.57-.13-5.16-.12-7.78-.15a.26.26 0 01-.16-.47l2.28-1.86.21.7c-1.75.22-3.45.4-5.15.69s-3.39.62-5.13.89h-.08a.33.33 0 01-.37-.28.3.3 0 01.06-.24l1.63-2.29.3.56c-1 .21-2 .35-2.93.53s-1.93.4-2.88.65-1.89.48-2.8.84c-.45.16-.92.3-1.37.48l-1.33.57a24.09 24.09 0 00-4.94 3 16.83 16.83 0 00-3.89 4.27.33.33 0 01-.45.11l-.07-.06a10.89 10.89 0 01-1.57-2.09 11.15 11.15 0 01-1.11-2.37l.53-.15a14 14 0 01.17 2.59 12.58 12.58 0 01-.28 2.58v.1a.11.11 0 01-.14.09h-.05a5.72 5.72 0 01-1.61-.12 8.37 8.37 0 01-1.54-.42l.38-.55a8.14 8.14 0 01.69 1 4.17 4.17 0 01.55 1.07v.12a.14.14 0 01-.08.17c-1 1.54-2 3.19-3 4.79s-1.95 3.22-2.87 4.85a49.64 49.64 0 00-2.47 5l-.5 1.3-.44 1.31-.8 2.72c-1 3.64-2 7.29-2.86 11a58.94 58.94 0 00-1.6 11.01.5.5 0 01-.51.49.49.49 0 01-.49-.45zm65.39 31.9c-1.75 3.78-3.3 7.66-5.38 11.36a26.19 26.19 0 01-3.79 5.18 27.65 27.65 0 01-5 4.11 23.69 23.69 0 01-5.9 2.7 28.64 28.64 0 01-6.38 1.06 51.88 51.88 0 01-12.74-.7A29 29 0 01211 306a27.18 27.18 0 01-5.54-3.4 35.9 35.9 0 01-8.53-9.56 20.87 20.87 0 01-2.44-6 42.51 42.51 0 01-.86-6.31c-.15-2.1-.16-4.2-.14-6.3s.11-4.19.32-6.28a.16.16 0 01.31 0 107.67 107.67 0 00.72 12.46 40.67 40.67 0 001.09 6.06 19.1 19.1 0 002.5 5.45 35.82 35.82 0 008.27 8.88 25 25 0 005.13 3.09 29 29 0 005.78 1.71 53.2 53.2 0 0012.23.75 24 24 0 0011.51-3.22 26.81 26.81 0 004.79-3.71 27.12 27.12 0 003.76-4.79c2.23-3.46 3.94-7.3 6-11a.27.27 0 01.48.26z"/><path class="cls-8" d="M194.57 279.93a56.87 56.87 0 01-.08 10.52 64.88 64.88 0 01-1.67 10.35.58.58 0 01-.7.42.59.59 0 01-.44-.59c.15-3.48.52-6.93.9-10.37l1.2-10.33a.39.39 0 01.43-.35.4.4 0 01.36.35zm53.32 19.54c-.64 2.66-1.47 5.23-2.32 7.79s-1.73 5.12-2.67 7.65c-1.82 5.08-3.78 10.11-5.73 15.14s-3.95 10-6 15S227 355 224.85 360a.41.41 0 01-.75-.32c2-5 3.88-10.05 5.83-15.07l5.77-15.11 5.72-15.12c1.85-5.05 3.89-10.06 5.61-15.12a.44.44 0 01.56-.28.45.45 0 01.3.49z"/><path class="cls-8" d="M190.7 298.46c4.94 4.72 9.76 9.57 14.55 14.45s9.52 9.81 14.05 15c1.13 1.32 2.25 2.58 3.32 4.09l.2.31a2.91 2.91 0 01.21.38 3.15 3.15 0 01.19.45l.08.37c.11.5.18.94.24 1.37.13.87.21 1.72.32 2.58.37 3.42.66 6.83.89 10.24.42 6.83.65 13.66.57 20.52l-.5-.22a68.82 68.82 0 0110.06-8 36.4 36.4 0 0111.85-5.37 11.38 11.38 0 013.42-.26 4.07 4.07 0 01.89.16l.45.11.45.2a3.58 3.58 0 012.11 3.17 5.64 5.64 0 01-.29 1.79 15.35 15.35 0 01-1.38 3.05 59.6 59.6 0 01-7.92 10.15.48.48 0 01-.68 0l-.1-.12v-.05c-.6-1.09-1.16-2.2-1.71-3.31s-1.07-2.24-1.61-3.36-1-2.26-1.51-3.4-.94-2.3-1.35-3.47a.57.57 0 01.35-.72.56.56 0 01.67.26c.61 1.08 1.15 2.2 1.7 3.31s1.06 2.25 1.55 3.39 1 2.27 1.45 3.43.93 2.3 1.35 3.47l-.8-.13c1.39-1.58 2.73-3.24 4-4.93a43.62 43.62 0 003.46-5.25 13.74 13.74 0 001.2-2.78 4.44 4.44 0 00.19-1.35 2.12 2.12 0 00-.39-1.1 2.77 2.77 0 00-2.2-1 9.55 9.55 0 00-2.92.3 27.2 27.2 0 00-5.79 2.16 61.51 61.51 0 00-5.48 3.06c-3.57 2.24-7.06 4.65-10.6 7a.3.3 0 01-.42 0 .38.38 0 01-.08-.17c-.94-6.79-1.62-13.59-2.24-20.38-.3-3.4-.55-6.81-.88-10.18-.09-.84-.17-1.69-.29-2.5-.05-.42-.11-.83-.18-1.16l-.05-.27c0-.08 0-.08-.06-.12a.84.84 0 00-.11-.19l-.14-.22a49 49 0 00-3.11-3.89c-4.46-5.13-9.09-10.16-13.73-15.16L190 299.11a.47.47 0 01.67-.65z"/><path class="cls-8" d="M252.82 357.52c-1.28-2.2-2.77-4.36-4.22-6.51l-4.47-6.42-4.45-6.45c-1.46-2.18-2.94-4.29-4.31-6.62a.61.61 0 01.22-.83.62.62 0 01.79.16l2.34 3.09 2.35 3.14c1.53 2.12 3.07 4.24 4.55 6.4s3 4.33 4.32 6.57a59.06 59.06 0 013.86 6.93.57.57 0 01-1 .52zm-31.41-23.68a.7.7 0 00.59.34h.09a1.51 1.51 0 00-.2.16 6.32 6.32 0 00-.56.51c-.37.37-.75.79-1.11 1.22-.74.83-1.45 1.72-2.17 2.6-1.42 1.77-2.81 3.58-4.17 5.41s-2.68 3.69-4 5.57c-.65.94-1.25 1.9-1.83 2.87a28.54 28.54 0 00-1.61 3 .41.41 0 01-.51.3.42.42 0 01-.25-.18v-.05c-4.67-7.34-9.07-14.82-13.53-22.24a617.07 617.07 0 00-6.78-11.07l-1.74-2.74-1.79-2.69c-.59-.9-1.22-1.76-1.84-2.65s-1.3-1.68-1.95-2.54a.54.54 0 01-.06-.74l.06-.09a77.67 77.67 0 015.66-6.48 68.57 68.57 0 016.29-5.87.49.49 0 01.7.67 67.12 67.12 0 01-5.56 6.56 79.52 79.52 0 01-6.21 6v-.84a69.17 69.17 0 018.3 10.23c2.48 3.59 4.81 7.28 7 11a228 228 0 0112.16 23.11l-.79.07a27.52 27.52 0 012.68-6.53 61.53 61.53 0 013.68-6 69.16 69.16 0 014.27-5.54c.77-.88 1.56-1.75 2.41-2.58.43-.41.87-.81 1.35-1.21.25-.19.5-.38.8-.57a2.69 2.69 0 01.54-.28l.2-.07a1.36 1.36 0 01.3 0 1.09 1.09 0 011 .5.86.86 0 01-.28 1.17.85.85 0 01-1.14-.33zm27.44 33.53a118.69 118.69 0 019.15 32.52c.35 2.81.64 5.62.76 8.46.06 1.43.09 2.85.08 4.26s0 2.82 0 4.23c-.11 5.63-.34 11.24-.57 16.86q-.74 16.83-1.78 33.66c-.66 11.21-1.44 22.42-2.26 33.62a.66.66 0 01-1.32-.09l1.8-33.63c.56-11.22 1.14-22.43 1.62-33.65.23-5.6.45-11.21.55-16.81.05-1.4.07-2.8.07-4.19v-4.17c-.1-2.77-.36-5.55-.68-8.32a130.53 130.53 0 00-8.28-32.35.51.51 0 01.28-.67.52.52 0 01.58.27z"/><path class="cls-8" d="M178.55 311.86a76.7 76.7 0 01-9.59.06 58.08 58.08 0 01-9.49-1.51c-1.55-.36-3.08-.68-4.63-.9a32.81 32.81 0 00-4.63-.29 39.18 39.18 0 00-4.59.32c-1.53.19-3.06.45-4.58.79-6.13 1.11-11.32 4.45-16.55 8.07-1.33.89-2.66 1.79-4.14 2.59a16.56 16.56 0 01-4.8 1.65 31.85 31.85 0 01-9.79.16.84.84 0 01-.74-.94.85.85 0 01.87-.75 37.3 37.3 0 009.16-.67 14.4 14.4 0 004.12-1.54c1.32-.73 2.61-1.6 3.91-2.49a80 80 0 018.15-5.18 31.34 31.34 0 014.53-1.94 42.87 42.87 0 0114.47-2 52.82 52.82 0 019.49 1.9 51.58 51.58 0 009.27 1.62 56.94 56.94 0 009.41-.2.63.63 0 01.7.58.64.64 0 01-.57.7z"/><path class="cls-8" d="M106.61 275.61c-.63 8.41-1.35 16.83-1.22 25.22a125.59 125.59 0 00.88 12.54 85.18 85.18 0 01.65 12.78 45.27 45.27 0 01-.62 6.45 50 50 0 01-1.56 6.27c-.61 2-1.29 4-1.76 6a14 14 0 00-.46 2.92 3.79 3.79 0 00.52 2.34c.18.18.23.19.49.14a2.29 2.29 0 00.9-.64 9.63 9.63 0 001.54-2.42 32.63 32.63 0 001.94-5.85 54.21 54.21 0 001.29-12.45.28.28 0 01.29-.28.28.28 0 01.28.27c.1 2.09.28 4.22.21 6.36a37.25 37.25 0 01-.67 6.39 35.34 35.34 0 01-1.79 6.24 10.56 10.56 0 01-1.78 2.95 4.14 4.14 0 01-1.66 1.16 2.38 2.38 0 01-1.28.06 2.3 2.3 0 01-1.11-.66 3.93 3.93 0 01-.92-1.85 7.94 7.94 0 01-.18-1.79 15.49 15.49 0 01.43-3.34c.45-2.12 1.07-4.18 1.68-6.18a42.19 42.19 0 002-12.17v-6.26c0-2.08-.25-4.15-.46-6.25a106.16 106.16 0 01-.64-12.74 224.69 224.69 0 012.08-25.32.46.46 0 01.5-.4.46.46 0 01.43.51z"/><path class="cls-8" d="M72.64 264.07c-3 7.16-5.64 14.46-8.19 21.79s-4.94 14.72-7.08 22.14c-1 3.73-2.08 7.46-2.95 11.23a110.74 110.74 0 00-2.13 11.36 64.77 64.77 0 00-.63 11.43 19.87 19.87 0 001 5.39 14.41 14.41 0 002.85 4.59l1.92 2.17a10.61 10.61 0 001 .95c.16.14.3.29.47.43l.56.42 1.11.83 1.2.78c.78.53 1.6 1 2.42 1.53 3.29 2 6.68 3.84 10.11 5.63s6.88 3.53 10.37 5.2 7 3.33 10.52 4.88a68.55 68.55 0 0010.67 3.93 40.07 40.07 0 005.56.93 48.39 48.39 0 005.58.32 29.1 29.1 0 0010.91-2.24 17.06 17.06 0 004.59-3.13 12.47 12.47 0 001.83-2.13 7.94 7.94 0 00.76-1.21l.71-1.25a.21.21 0 01.3-.08.21.21 0 01.1.25 16.11 16.11 0 01-7.5 9.11 23 23 0 01-5.64 2.21 27.16 27.16 0 01-3 .63c-1 .15-2 .24-3 .33a43.25 43.25 0 01-11.95-.9 28.47 28.47 0 01-2.94-.8c-.95-.31-1.87-.66-2.81-1-1.83-.72-3.66-1.45-5.45-2.24q-10.77-4.65-21-10.28c-3.43-1.85-6.83-3.78-10.16-5.88-.83-.52-1.66-1-2.48-1.62l-1.22-.84-1.21-.94-.6-.46c-.2-.18-.4-.38-.59-.57a14.06 14.06 0 01-1.09-1.13l-1.89-2.23a16.59 16.59 0 01-3.15-5.35 21.5 21.5 0 01-1-6 66 66 0 01.87-11.8 114.44 114.44 0 012.34-11.51c.92-3.8 2-7.54 3.12-11.27 2.27-7.46 4.78-14.83 7.43-22.14s5.44-14.58 8.52-21.74a.47.47 0 01.61-.24.46.46 0 01.24.6z"/><path class="cls-8" d="M80.83 240.8a49.72 49.72 0 01-1.92 5.67c-.72 1.86-1.51 3.67-2.28 5.49s-1.59 3.59-2.31 5.41a19.36 19.36 0 00-1.49 5.52 8 8 0 001.83 5.11 23.83 23.83 0 004 4.19 29.39 29.39 0 0010.08 5.58c3.69 1.16 7.63 1.92 11.26 1a9.51 9.51 0 004.68-2.68 8.12 8.12 0 00.88-1.06l.76-1.16c.39-.86.82-1.67 1.16-2.62 2.91-7.35 5.66-14.78 8.48-22.18a.29.29 0 01.37-.17.3.3 0 01.18.36c-2.21 7.62-4.77 15.13-7.56 22.56-.33.92-.8 1.88-1.24 2.82l-.85 1.33a10.64 10.64 0 01-1 1.22 11.09 11.09 0 01-5.45 3.16 17.23 17.23 0 01-6.19.22 33.78 33.78 0 01-5.92-1.4 30.59 30.59 0 01-10.47-6 24.73 24.73 0 01-4.15-4.45 13.07 13.07 0 01-1.56-2.72 8.46 8.46 0 01-.56-3.16 25.3 25.3 0 011.26-6 53.88 53.88 0 012.18-5.6c1.64-3.63 3.46-7.13 5.19-10.68a.36.36 0 01.47-.16.36.36 0 01.17.4z"/><path class="cls-8" d="M124 237a19.88 19.88 0 01-1.09 4.12 18.6 18.6 0 01-2 3.81 19.73 19.73 0 01-2.77 3.27c-1 1-2.2 1.82-3.12 2.67l.06-.12a9.57 9.57 0 01-2.25 3.72 17.34 17.34 0 01-3.29 2.76 18 18 0 01-8.12 3 20 20 0 01-8.65-1.18 17.77 17.77 0 01-3.9-2.12 17.57 17.57 0 01-3.2-3.07 20.93 20.93 0 01-2.37-3.7c-.63-1.28-1.2-2.56-1.73-3.86-1.06-2.59-2-5.21-2.89-7.84a83.85 83.85 0 01-4-16.22 14.44 14.44 0 01.08-4.3 7.5 7.5 0 01.73-2.1 6.58 6.58 0 011.39-1.74 23.59 23.59 0 013.47-2.35 2.2 2.2 0 00.67-1.55 10.57 10.57 0 01.39-2.14 4 4 0 011.59-1.77 10.34 10.34 0 011.91-1.09 7.65 7.65 0 012.17-.67c.7-.08 1.41-.16 2.11-.19a42.13 42.13 0 018.46.35 14.65 14.65 0 012.16.51 9.54 9.54 0 012 1 15.85 15.85 0 013.35 2.86 15.47 15.47 0 012.45 3.67c.61 1.26 1.18 2.56 1.68 3.9a20 20 0 011.42 8.54 16.36 16.36 0 01-.84 4.32 4.94 4.94 0 01-1.36 2.09 1.79 1.79 0 01-.77.37 1.47 1.47 0 01-.91-.08 2.13 2.13 0 01-.93-1 .41.41 0 01.58-.54 1.48 1.48 0 00.7.28c.14-.06.1-.08.22-.25a5.68 5.68 0 00.56-1.53 20.18 20.18 0 00.54-3.85 20.62 20.62 0 00-1.22-7.71c-.43-1.27-1-2.52-1.51-3.76a13.22 13.22 0 00-2.1-3.22 13.76 13.76 0 00-2.9-2.55 8.29 8.29 0 00-1.57-.74 14.59 14.59 0 00-1.87-.48 40.12 40.12 0 00-8.07-.53c-.68 0-1.36 0-2 .08a7.41 7.41 0 00-1.81.43 9.77 9.77 0 00-1.77.8 3 3 0 00-1.26 1.18 7.79 7.79 0 00-.45 1.9 5.34 5.34 0 01-.27 1.1 2.29 2.29 0 01-.75 1 25.6 25.6 0 00-3.35 2.35 5.64 5.64 0 00-1.74 3.32 12.84 12.84 0 000 4 79.91 79.91 0 004.57 15.76c1 2.57 2 5.13 3.13 7.61.57 1.24 1.17 2.46 1.81 3.64a19.32 19.32 0 002.22 3.19 17.18 17.18 0 006.14 4.51 17.76 17.76 0 007.61 1.39 16.94 16.94 0 007.45-2.26c2.26-1.32 4.52-3.05 5.56-5.43v-.08c.89-1.25 1.89-2.12 2.77-3.16a26.57 26.57 0 002.44-3.18 25.3 25.3 0 001.91-3.51c.57-1.21 1-2.48 1.47-3.77a.52.52 0 01.67-.32.53.53 0 01.39.46z"/><path class="cls-8" d="M80 224.24a4.59 4.59 0 003.35 1.23c1.29.08 2.66.08 4.1.3a10.16 10.16 0 014 1.85 31.37 31.37 0 013.26 2.65c1 .95 2 1.87 3 2.86a12 12 0 003.29 2.17 8.35 8.35 0 003.64.94 1.68 1.68 0 00.4-.05 2.17 2.17 0 00.36-.12 3.62 3.62 0 00.74-.44 2.28 2.28 0 00.89-1.26 2.2 2.2 0 00-.15-1.46 9.8 9.8 0 00-1.09-1.51c-.84-1-1.78-2-2.7-3s-1.85-2-2.74-3.1a28.23 28.23 0 00-2.71-2.87c-1-.91-2-1.8-3-2.65a21.22 21.22 0 00-3.13-2.28l-3.68-1.65c-1.25-.58-2.49-1.16-3.71-1.79a.29.29 0 01-.12-.39.3.3 0 01.33-.15c1.32.34 2.63.73 3.93 1.13l1.94.62 1 .31c.33.11.62.19 1 .37a21.81 21.81 0 013.64 2.27 34.22 34.22 0 013.19 2.7 24.78 24.78 0 012.83 3.14c.81 1 1.71 2.07 2.59 3.1s1.77 2.09 2.62 3.21a10.91 10.91 0 011.19 1.87 3.73 3.73 0 01.3 1.26 3.51 3.51 0 01-.15 1.28 3.7 3.7 0 01-1.49 2 4.67 4.67 0 01-1 .55 3.59 3.59 0 01-.63.19 4.18 4.18 0 01-.61.05 10 10 0 01-4.19-1.15 13.23 13.23 0 01-3.5-2.45 24.63 24.63 0 00-3.09-2.57 34.78 34.78 0 00-3.38-2.14 13.31 13.31 0 00-3.39-1.44c-1.25-.26-2.61-.36-4-.71a7.07 7.07 0 01-2.08-.83 3.2 3.2 0 01-1.44-1.78.24.24 0 01.17-.3.25.25 0 01.25.07zm46.49-9.46c-1.75.22-3.44.41-5.25.46a9.94 9.94 0 01-5.27-1.71 11.88 11.88 0 01-2.15-1.8 7.54 7.54 0 01-1.59-2.42 3.74 3.74 0 01.1-3.23 4.6 4.6 0 012.42-1.89 11.77 11.77 0 011.31-.43c.42-.11.81-.24 1.29-.35a15.65 15.65 0 012.7-.32 11.82 11.82 0 015.32.9 9.22 9.22 0 014.45 3 11.32 11.32 0 011.3 2.39 9.66 9.66 0 01.49 2.73 34.59 34.59 0 01-1.09 10.56 69.67 69.67 0 01-3.48 10 29.52 29.52 0 01-6.18 8.68 23.94 23.94 0 01-9 5.53.21.21 0 01-.26-.12.21.21 0 01.1-.25 29 29 0 008.05-6.23 24.86 24.86 0 001.61-1.95l.76-1 .68-1.07c.48-.69.87-1.44 1.31-2.16s.78-1.5 1.15-2.27c.74-1.51 1.36-3.1 2-4.7.3-.8.57-1.61.85-2.44l.84-2.45a33.86 33.86 0 001.12-5 32.14 32.14 0 00.42-5.08 9.06 9.06 0 00-.3-2.4 9.72 9.72 0 00-1.13-2.2 6.29 6.29 0 00-1.74-1.67 13.16 13.16 0 00-2.28-1.05 9.81 9.81 0 00-4.89-.61 13.23 13.23 0 00-2.45.44c-.36.1-.79.26-1.2.4a9 9 0 00-1.14.44 3.07 3.07 0 00-1.57 1.3 2.17 2.17 0 000 1.81 9.07 9.07 0 003.1 3.45 10.19 10.19 0 004.4 1.79c1.66.14 3.45.27 5.17.51a.18.18 0 010 .36z"/><path class="cls-8" d="M120.37 214.38a13.84 13.84 0 010 3.58 12.08 12.08 0 01-.32 1.78 6.07 6.07 0 01-.74 1.73.35.35 0 01-.49.1.32.32 0 01-.15-.26 21.15 21.15 0 010-3.47 18.15 18.15 0 01.56-3.48.55.55 0 01.69-.39.55.55 0 01.45.41zm-7.04-8.5c-.4-.47-.94-1-1.44-1.46s-1-1-1.55-1.43a31.15 31.15 0 00-3.24-2.59 7.79 7.79 0 00-1.67-.89 10.86 10.86 0 00-1.92-.39c-1.35-.17-2.75-.21-4.15-.25s-2.82 0-4.24 0a17.85 17.85 0 00-2 .12 7.3 7.3 0 00-1.84.46 5.74 5.74 0 00-2.85 2.22 4.85 4.85 0 00-.66 1.74 7.8 7.8 0 01-.32 1.13 2.94 2.94 0 01-.65 1.16.42.42 0 01-.58 0 .39.39 0 01-.1-.44l.08-.22a5.72 5.72 0 00.18-.79 6.87 6.87 0 00.09-1 5.77 5.77 0 01.53-2.36 7 7 0 013.5-3.31 9.37 9.37 0 012.3-.69c.82-.12 1.54-.14 2.26-.18 1.45-.08 2.91-.1 4.37 0a30.22 30.22 0 014.41.39 12.57 12.57 0 012.27.57 9.69 9.69 0 012.08 1.2 24 24 0 013.28 3 18.61 18.61 0 012.69 3.55.46.46 0 01-.18.63.47.47 0 01-.58-.1z"/><path class="cls-8" d="M97.23 197.65a36.37 36.37 0 001-5.17c.25-1.75.46-3.51.64-5.28.35-3.53.64-7.08.69-10.6l.13-10.7c0-.89 0-1.79.08-2.69 0-.45 0-.9.09-1.38a5.86 5.86 0 01.37-1.59 3.78 3.78 0 01.44-.81 3 3 0 01.71-.7 3.16 3.16 0 011.86-.59 5 5 0 013.13 1.18 6.14 6.14 0 011.9 2.54 17.22 17.22 0 01.83 2.72 53.43 53.43 0 01.9 5.42c.45 3.57.64 7.17.84 10.71s.38 7.12.5 10.69c0 1.79.06 3.57 0 5.37a36.81 36.81 0 01-.37 5.41.5.5 0 01-.58.42.51.51 0 01-.39-.6 38 38 0 00.1-5.24c0-1.77-.16-3.54-.29-5.31-.22-3.54-.51-7.09-.82-10.63s-.51-7.09-1-10.58a50.66 50.66 0 00-1-5.14 16.43 16.43 0 00-.75-2.37A4.44 4.44 0 00105 161a3 3 0 00-1.75-.72 1.16 1.16 0 00-.65.18c-.09 0-.15.15-.24.22s-.16.2-.21.36a3.57 3.57 0 00-.25 1c-.06.41-.09.85-.13 1.28l-.19 2.64c-.22 3.55-.41 7.11-.57 10.66s-.59 7.15-1.06 10.69c-.24 1.77-.5 3.54-.82 5.3a36.86 36.86 0 01-1.23 5.27.37.37 0 01-.47.24.38.38 0 01-.24-.47zm13.13 183.07c1.81 8.64 2.15 17.43 2.36 26.15s-.08 17.45-.48 26.15-.79 17.39-1.29 26.07c-.12 2.18-.22 4.34-.39 6.53s-.29 4.36-.51 6.53c-.38 4.35-.88 8.68-1.4 13s-1.1 8.64-1.7 12.95-1.19 8.63-1.84 12.93-1.3 8.61-2 12.91l-2 12.9c-1.38 8.6-2.65 17.2-4.27 25.79-.73 4.36-2.2 8.53-2.26 12.59a8.58 8.58 0 001.42 5.35 9.91 9.91 0 004.62 3.26 29.23 29.23 0 006 1.57c2.08.38 4.25.63 6.38.92q6.45.78 12.94 1.39c8.64.83 17.29 1.59 26 2.23s17.33 1.2 26 1.68 17.35.83 26 .76 17.39-.25 26-1c2.15-.19 4.3-.42 6.41-.79a22.68 22.68 0 006-1.78 8.17 8.17 0 003.84-4.41 20.79 20.79 0 001.12-6.14c.17-8.68.94-17.38 1.57-26s1.45-17.35 2.16-26a.57.57 0 011.14.06c-.31 8.73-.83 17.4-1.37 26.09l-.82 13-.91 13a22.8 22.8 0 01-1.45 6.59 10.63 10.63 0 01-1.81 3 9.12 9.12 0 01-2.79 2.15 24.33 24.33 0 01-6.42 2c-2.18.41-4.36.66-6.53.88-8.72.82-17.41 1.15-26.12 1.45s-17.46 0-26.17-.31-17.4-.8-26.09-1.4-17.38-1.26-26-2.11q-6.51-.64-13-1.46c-2.17-.31-4.33-.57-6.52-1a32.31 32.31 0 01-6.57-1.76 12.61 12.61 0 01-5.82-4.24 11.1 11.1 0 01-1.84-7 32.91 32.91 0 011.05-6.73c.55-2.18 1.09-4.17 1.56-6.31 1-4.22 1.83-8.48 2.67-12.74s1.67-8.53 2.39-12.82 1.46-8.57 2.12-12.86 1.28-8.6 1.87-12.91 1.16-8.61 1.71-12.93 1-8.63 1.41-12.95.83-8.65 1.11-13c.17-2.16.27-4.32.36-6.49s.17-4.33.24-6.5l1-26.08c.23-8.68.57-17.36.55-26 0-4.33 0-8.67-.2-13s-.47-8.63-1.08-12.88a.85.85 0 011.67-.29zm84.15 219.19c.24 2.92.47 5.85.63 8.78s.36 5.85.46 8.78l.36 8.78a68.27 68.27 0 01-.23 8.81.6.6 0 01-.66.53.62.62 0 01-.53-.5 72 72 0 01-.7-8.78l-.1-8.79c-.05-2.93 0-5.86 0-8.8s.07-5.86.16-8.8a.3.3 0 01.31-.29.3.3 0 01.3.28z"/><path class="cls-8" d="M97.28 583.48c-.67 4.18-1.52 8.31-2.26 12.46s-1.52 8.27-2.2 12.43-1.21 8.33-1.79 12.5l-1.53 12.57a.33.33 0 01-.37.28.32.32 0 01-.28-.33q.18-6.35.73-12.67c.34-4.22.86-8.43 1.46-12.62s1.33-8.38 2.26-12.51 2-8.23 3.2-12.29a.4.4 0 01.78.18zm145.46 6.11a112.75 112.75 0 012.69 11.17c.73 3.76 1.25 7.56 1.63 11.37s.61 7.64.68 11.47 0 7.65-.22 11.46a.41.41 0 01-.43.4.43.43 0 01-.4-.38c-.34-3.8-.6-7.6-.88-11.39s-.59-7.56-1-11.33-.82-7.53-1.32-11.29l-1.56-11.3a.41.41 0 01.35-.46.41.41 0 01.46.28z"/><path class="cls-4" d="M382 623.15a166.76 166.76 0 010 17.85"/><path class="cls-8" d="M383.1 623.09a26.78 26.78 0 01.72 4.48c.13 1.5.15 3 .13 4.51a40.34 40.34 0 01-.38 4.51 23.57 23.57 0 01-1.05 4.47.52.52 0 01-1-.07 36.52 36.52 0 01-.63-4.46c-.16-1.48-.23-2.95-.3-4.42s-.07-3 0-4.44a33.37 33.37 0 01.37-4.44 1.1 1.1 0 011.26-.91 1.11 1.11 0 01.88.77z"/><path class="cls-4" d="M200.94 635.07c-.06 2.18-.11 5.23-.33 7.39"/><path class="cls-8" d="M202.11 635.1a17.76 17.76 0 01-.14 3.71 17.43 17.43 0 01-.87 3.7.52.52 0 01-1-.09 36 36 0 01-.4-3.68 19 19 0 01.06-3.69 1.18 1.18 0 011.33-1 1.19 1.19 0 011.02 1.05zm81.54-118.01a5.17 5.17 0 01-1.46.79 8.54 8.54 0 01-1.58.5.55.55 0 01-.61-.38.57.57 0 01.25-.59 9.35 9.35 0 011.48-.75 5.27 5.27 0 011.6-.45.52.52 0 01.56.47.52.52 0 01-.24.41zm19.35-7.91a26.08 26.08 0 01-3.92 2 25.13 25.13 0 01-4.18 1.34.49.49 0 01-.58-.39.48.48 0 01.21-.51 24 24 0 013.92-2 26.72 26.72 0 014.17-1.35.52.52 0 01.6.4.5.5 0 01-.22.51z"/></g></svg>