<svg id="Capa_1" data-name="Capa 1" xmlns="http://www.w3.org/2000/svg" viewBox="0 0 50 50"><defs><style>.cls-1{fill:none}.cls-3{fill:#28347d}</style></defs><path class="cls-1" d="M0 0h50v50H0z"/><circle class="cls-1" cx="25" cy="25" r="22"/><g id="Group_6196" data-name="Group 6196"><path d="M25 48.26a23.26 23.26 0 01-12.35-43 1.27 1.27 0 011.73.4A1.26 1.26 0 0114 7.39 20.75 20.75 0 1042.61 14 21 21 0 0036 7.39a1.26 1.26 0 01-.4-1.72 1.27 1.27 0 011.73-.4 23.26 23.26 0 010 39.46A23.15 23.15 0 0125 48.26z" fill="#fff" id="Path_5327" data-name="Path 5327"/><g id="Group_6195" data-name="Group 6195"><g id="Group_6193" data-name="Group 6193"><path class="cls-3" d="M23.75 9.64h2.5v20.24h-2.5z" id="Path_5178" data-name="Path 5178"/><path class="cls-3" d="M25.08 31.83l-5.97-5.97 1.77-1.76 4.2 4.19 4.19-4.19 1.77 1.76-5.96 5.97z" id="Path_5179" data-name="Path 5179"/></g><path class="cls-3" d="M19.5 32.55h11.24v2.5H19.5z" id="Path_5253" data-name="Path 5253"/></g></g></svg>