<svg id="Capa_1" data-name="Capa 1" xmlns="http://www.w3.org/2000/svg" viewBox="0 0 70 70"><defs><style>.cls-2{fill:#fff}</style></defs><path fill="none" d="M0 0h70v70H0z"/><g id="icon_ocenza_desktop_redes_sociales_twitter" data-name="icon ocenza desktop redes sociales twitter"><g id="Grupo_6810" data-name="Grupo 6810"><g id="Grupo_6809" data-name="Grupo 6809"><path class="cls-2" d="M35.12 69.73A34.73 34.73 0 01.33 35c0-1.14.06-2.3.17-3.43a2 2 0 014 .4c-.1 1-.15 2-.15 3A30.73 30.73 0 1021.71 7.32 2 2 0 1120 3.72a34.73 34.73 0 1115.15 66z" id="Trazado_5849" data-name="Trazado 5849"/></g></g><path d="M9.31 25.9a9.11 9.11 0 110-18.21 8.82 8.82 0 016.4 2.59 9 9 0 012.71 6.36v.15a9.1 9.1 0 01-9.1 9.11zm.06-14.21a5.11 5.11 0 100 10.21 5.1 5.1 0 005.1-5.11v-.11a5 5 0 00-5-5z" fill="#19a500" id="Trazado_5850" data-name="Trazado 5850"/><g id="Grupo_6811" data-name="Grupo 6811"><path class="cls-2" d="M30.41 50.33c-5.09 0-9.84-1.62-12.16-3.95A2 2 0 0120 43a9.55 9.55 0 008.1-2.32 2 2 0 012.68 3A13.91 13.91 0 0127.09 46a18.58 18.58 0 009.66-.84c5.55-2.15 8.66-7.23 9-14.68v-.96a2 2 0 01.43-1.45l.23-.29a2 2 0 01-1.7-.66 4 4 0 00-2.81-1.34 4 4 0 00-2.93 1 4.06 4.06 0 00-1.36 3 3.29 3.29 0 00.07.71 2 2 0 01-3.93.76 7.35 7.35 0 01-.14-1.48 8.09 8.09 0 012.69-6 8.06 8.06 0 0110.34-.36l5.23-2a2 2 0 012.29 3.12L49.77 30v.74c-.41 9-4.5 15.43-11.53 18.16a21.66 21.66 0 01-7.83 1.43z" id="Trazado_4961" data-name="Trazado 4961"/><path class="cls-2" d="M29.45 44.16a1.94 1.94 0 01-.93-.23c-8.86-4.67-9.52-13.34-7.25-19.88a2 2 0 011.5-1.3 2 2 0 011.88.63c4.18 4.62 7.61 5.12 10.64 5.52l.71.1a2 2 0 01-.57 4l-.69-.09a18.43 18.43 0 01-10.47-4.28 10.93 10.93 0 006.09 11.8 2 2 0 01-.93 3.77z" id="Trazado_4962" data-name="Trazado 4962"/></g></g></svg>