<svg xmlns="http://www.w3.org/2000/svg" viewBox="0 0 135 135"><defs><style>.cls-2{fill:#28347d}.cls-5{mix-blend-mode:multiply}.cls-6{fill:#19a500}.cls-7{fill:#a2ce2a}</style></defs><g style="isolation:isolate"><g id="Capa_1" data-name="Capa 1"><path class="cls-2" d="M74.29 66a1.51 1.51 0 01-1.49-1.3l-.45-3.44a1.06 1.06 0 00-.84-.9l-3.81-.81-3.83.76a1.09 1.09 0 00-.85.9l-.5 3.43a1.5 1.5 0 11-3-.43l.49-3.44a4.1 4.1 0 013.23-3.4l1.16-.23a4 4 0 01-.79-2.43V53a4.07 4.07 0 014.07-4 4.07 4.07 0 014 4.09v1.77a4 4 0 01-.68 2.35l1.15.24a4.09 4.09 0 013.19 3.44l.46 3.44A1.51 1.51 0 0174.49 66zm-6.56-14.1a1.08 1.08 0 00-1.07 1.1v1.77a1.07 1.07 0 00.31.76 1.12 1.12 0 00.76.32 1.08 1.08 0 001.07-1.07V53a1.06 1.06 0 00-1.06-1.07zm-2.58 2.82z"/><path class="cls-2" d="M67.67 73.3a14.52 14.52 0 1114.51-14.52A14.54 14.54 0 0167.67 73.3zm0-26a11.52 11.52 0 1011.51 11.48 11.54 11.54 0 00-11.51-11.52zm50.07-3.84a1.51 1.51 0 01-1.49-1.31l-.46-3.44a1.08 1.08 0 00-.83-.9l-3.82-.81-3.82.77a1.09 1.09 0 00-.85.89L106 42.1a1.5 1.5 0 01-3-.44l.5-3.43a4.07 4.07 0 013.23-3.4l1.16-.24a4.07 4.07 0 01-.79-2.42v-1.78a4.06 4.06 0 014.07-4 4.07 4.07 0 014 4.09v1.78a4 4 0 01-.82 2.41l1.16.25a4.07 4.07 0 013.19 3.44l.46 3.44a1.5 1.5 0 01-1.29 1.68zm-7.64-11.27a1.06 1.06 0 001.06 1.07 1.07 1.07 0 001.07-1.06v-1.77a1.08 1.08 0 00-1.07-1.08 1.08 1.08 0 00-1.07 1.06z"/><path class="cls-2" d="M111.11 50.72a14.52 14.52 0 1114.52-14.52 14.53 14.53 0 01-14.52 14.52zm0-26a11.52 11.52 0 1011.52 11.48 11.52 11.52 0 00-11.52-11.51zm.52 60.52a1.51 1.51 0 01-1.49-1.3l-.45-3.44a1.09 1.09 0 00-.84-.91l-3.85-.81-3.82.77a1.09 1.09 0 00-.85.89l-.5 3.44a1.5 1.5 0 01-1.7 1.27 1.52 1.52 0 01-1.27-1.71l.5-3.43a4.07 4.07 0 013.23-3.4l1.16-.23A4.11 4.11 0 01101 74v-1.83a4.08 4.08 0 014.07-4 4.09 4.09 0 012.93 1.17 4 4 0 011.17 2.88V74a4.11 4.11 0 01-.81 2.41l1.15.25a4.09 4.09 0 013.19 3.44l.46 3.44a1.5 1.5 0 01-1.29 1.68zM104 74a1.07 1.07 0 001.06 1 1.06 1.06 0 001.07-1v-1.79a1.08 1.08 0 00-1.06-1.08 1.06 1.06 0 00-.75.31 1.11 1.11 0 00-.32.75z"/><path class="cls-2" d="M105 92.5A14.52 14.52 0 11119.52 78 14.53 14.53 0 01105 92.5zm0-26A11.52 11.52 0 10116.52 78 11.52 11.52 0 00105 66.47zm-74.49-5.9A1.49 1.49 0 0129 59.3l-.46-3.44a1.07 1.07 0 00-.84-.9l-3.81-.81-3.83.77a1.06 1.06 0 00-.85.89l-.49 3.43a1.5 1.5 0 11-3-.43l.5-3.43A4.07 4.07 0 0119.5 52l1.16-.23a4.07 4.07 0 01-.79-2.42v-1.78a4 4 0 011.2-2.87A4.07 4.07 0 0128 47.59v1.77a4 4 0 01-.81 2.42l1.15.24a4.1 4.1 0 013.19 3.45l.47 3.44a1.5 1.5 0 01-1.29 1.68zm-7.64-11.27a1.08 1.08 0 001.07 1.08A1.07 1.07 0 0025 49.35v-1.78a1.06 1.06 0 00-1-1.07 1.06 1.06 0 00-.75.31 1 1 0 00-.31.75z"/><path class="cls-2" d="M23.89 67.87A14.52 14.52 0 1138.4 53.35a14.53 14.53 0 01-14.51 14.52zm0-26A11.52 11.52 0 1035.4 53.35a11.54 11.54 0 00-11.51-11.52zM53.8 99.26A1.49 1.49 0 0152.32 98l-.46-3.44a1.07 1.07 0 00-.84-.9l-3.81-.81-3.82.77a1 1 0 00-.85.89L42 97.9a1.5 1.5 0 01-3-.43l.5-3.43a4.08 4.08 0 013.23-3.41L44 90.4a4 4 0 01-.83-2.4v-1.8a4.06 4.06 0 014.07-4 4.08 4.08 0 014 4.09v1.77a4 4 0 01-.81 2.42l1.16.24a4.06 4.06 0 013.18 3.44l.46 3.45A1.49 1.49 0 0154 99.25zM46.17 88a1.07 1.07 0 102.13 0v-1.78a1.07 1.07 0 00-1.07-1.07 1 1 0 00-.75.31 1 1 0 00-.32.75z"/><path class="cls-2" d="M47.18 106.53A14.52 14.52 0 1161.7 92a14.53 14.53 0 01-14.52 14.53zm0-26A11.52 11.52 0 1058.7 92a11.54 11.54 0 00-11.52-11.51zM65.14 47.5a1.49 1.49 0 01-1.47-1.22l-3-15.61a1.5 1.5 0 112.94-.57l3 15.62a1.49 1.49 0 01-1.19 1.75 1.33 1.33 0 01-.28.03zm13.73 6.08a1.5 1.5 0 01-.7-2.83l20.17-10.6a1.5 1.5 0 011.4 2.66l-20.17 10.6a1.5 1.5 0 01-.7.17zM93.59 73a1.51 1.51 0 01-.65-.15l-14.26-7A1.5 1.5 0 0180 63.24l14.26 6.95a1.5 1.5 0 01-.67 2.81z"/><path class="cls-2" d="M53.63 82.12a1.47 1.47 0 01-.83-.25 1.5 1.5 0 01-.42-2.08L59.54 69A1.5 1.5 0 1162 70.65l-7.16 10.8a1.52 1.52 0 01-1.21.67zm1.07-23.35h-.21l-17.91-2.43a1.49 1.49 0 01-1.28-1.68 1.51 1.51 0 011.7-1.29l17.9 2.41a1.5 1.5 0 01-.19 3zm11.57-34.24a1.51 1.51 0 01-1.49-1.31l-.46-3.44a1.06 1.06 0 00-.83-.9l-3.82-.81-3.82.77a1.06 1.06 0 00-.85.89l-.5 3.44a1.5 1.5 0 01-3-.44l.5-3.43a4.07 4.07 0 013.23-3.4l1.16-.24a4.07 4.07 0 01-.79-2.42v-1.78a4.09 4.09 0 011.21-2.87 4.19 4.19 0 012.88-1.17 4.08 4.08 0 014.05 4.09v1.77A4.05 4.05 0 0163 15.7l1.16.25a4.07 4.07 0 013.19 3.44l.46 3.44a1.5 1.5 0 01-1.29 1.68zm-7.64-11.27a1.08 1.08 0 001.06 1.07 1.07 1.07 0 001.07-1.06v-1.78a1.06 1.06 0 00-.31-.75 1 1 0 00-.75-.32 1.08 1.08 0 00-1.07 1.06z"/><path d="M59.64 31.06a14.52 14.52 0 1110.64-4.64 14.54 14.54 0 01-10.64 4.64zm0-26a11.52 11.52 0 1011.52 11.48A11.53 11.53 0 0059.64 5z" fill="#24a31a"/><path fill="none" d="M0 0h135v135H0z"/><g class="cls-5"><path class="cls-6" d="M54.54 130.48H36.33a1.5 1.5 0 110-3h18.21a1.5 1.5 0 110 3z"/></g><g class="cls-5"><path class="cls-7" d="M65.24 130.48H47a1.5 1.5 0 110-3h18.2a1.5 1.5 0 110 3z"/></g><g class="cls-5"><path class="cls-7" d="M87.18 130.48h-9.11a1.5 1.5 0 010-3h9.11a1.5 1.5 0 110 3z"/></g><g class="cls-5"><path class="cls-7" d="M100 130.48a1.52 1.52 0 01-1.07-.44 1 1 0 01-.18-.23 1.23 1.23 0 01-.14-.25 1.61 1.61 0 01-.09-.29 1.36 1.36 0 010-.29 1.5 1.5 0 01.44-1.06 2.11 2.11 0 01.23-.19 1.26 1.26 0 01.26-.13 1.49 1.49 0 012.07 1.38A1.5 1.5 0 01101 130a1.37 1.37 0 01-.22.19l-.26.14-.28.08z"/></g><g class="cls-5"><path class="cls-7" d="M81.72 118.26H36.33a1.5 1.5 0 010-3h45.39a1.5 1.5 0 010 3z"/></g><path d="M36.33 118.26a1.36 1.36 0 01-.29 0 1.61 1.61 0 01-.54-.23 1 1 0 01-.23-.18 2.11 2.11 0 01-.19-.23 2.15 2.15 0 01-.14-.26 2.29 2.29 0 01-.08-.28 1.5 1.5 0 010-.29 1.53 1.53 0 010-.3c0-.09 0-.19.08-.28s.09-.17.14-.26a2 2 0 01.19-.22 1.06 1.06 0 01.23-.19l.26-.14a1.29 1.29 0 01.28-.08 1.42 1.42 0 01.58 0 1.29 1.29 0 01.28.08l.26.14a1.37 1.37 0 01.23.19 1.48 1.48 0 01.44 1.06 1.5 1.5 0 010 .29 1.31 1.31 0 01-.09.28 1.26 1.26 0 01-.13.26 2.11 2.11 0 01-.19.23 1.65 1.65 0 01-.77.41 1.36 1.36 0 01-.32 0z" fill="#1f9254"/><g class="cls-5"><path class="cls-6" d="M100 118.26H74.22a1.5 1.5 0 010-3H100a1.5 1.5 0 010 3z"/></g></g></g></svg>