<svg xmlns="http://www.w3.org/2000/svg" viewBox="0 0 120 120"><defs><style>.cls-3{fill:#28347d}.cls-4{mix-blend-mode:multiply}.cls-5{fill:#24a31a}.cls-6{fill:#a2ce2a}</style></defs><g style="isolation:isolate"><g id="Capa_1" data-name="Capa 1"><path fill="none" d="M0 0h120v120H0z"/><path class="cls-3" d="M55.38 61.65a1.5 1.5 0 01-1.06-2.56l6.85-6.86a1.51 1.51 0 012.12 0 1.49 1.49 0 010 2.12l-6.85 6.86a1.53 1.53 0 01-1.06.44z"/><path class="cls-3" d="M85.2 66.43a29.14 29.14 0 1129.36-29.14A29.29 29.29 0 0185.2 66.43zm0-55.27a26.14 26.14 0 1026.36 26.13A26.28 26.28 0 0085.2 11.16z"/><path class="cls-3" d="M65 90.8a1.51 1.51 0 01-1.49-1.29l-2-14.45a9.33 9.33 0 00-7.34-7.82l-17-3.51-17 3.51a9.32 9.32 0 00-7.33 7.82l-2 14.45a1.52 1.52 0 01-1.7 1.28 1.5 1.5 0 01-1.32-1.69l2-14.45a12.33 12.33 0 019.7-10.35l17.32-3.57h.1a12.31 12.31 0 01-12.09-12.3V41a12.3 12.3 0 1124.6 0v7.45a12.32 12.32 0 01-12.09 12.3h.09L54.8 64.3a12.34 12.34 0 019.7 10.35l2 14.45a1.49 1.49 0 01-1.28 1.69zM37.17 31.66a9.31 9.31 0 00-9.3 9.3v7.45a9.3 9.3 0 1018.6 0V41a9.31 9.31 0 00-9.3-9.34z"/><g class="cls-4"><path class="cls-5" d="M24.23 111.84H6.94a1.5 1.5 0 110-3h17.29a1.5 1.5 0 010 3z"/></g><g class="cls-4"><path class="cls-6" d="M34.4 111.84H17.11a1.5 1.5 0 010-3H34.4a1.5 1.5 0 110 3z"/></g><g class="cls-4"><path class="cls-6" d="M55.24 111.84h-8.65a1.5 1.5 0 010-3h8.65a1.5 1.5 0 110 3z"/></g><g class="cls-4"><path class="cls-6" d="M67.4 111.84a1.46 1.46 0 01-.58-.11 1.29 1.29 0 01-.48-.33 1.58 1.58 0 01-.33-.48 1.62 1.62 0 01-.11-.58 1.5 1.5 0 010-.29c0-.09 0-.19.08-.28a2.15 2.15 0 01.14-.26 2.11 2.11 0 01.19-.23 1.57 1.57 0 012.12 0 1.52 1.52 0 01.44 1.06 1.5 1.5 0 01-.44 1.06 1.33 1.33 0 01-.49.33 1.38 1.38 0 01-.54.11z"/></g><g class="cls-4"><path class="cls-6" d="M50.05 100.23H6.94a1.5 1.5 0 110-3h43.11a1.5 1.5 0 010 3z"/></g><path d="M6.94 100.23a1.5 1.5 0 01-1.06-.44 1.46 1.46 0 01-.44-1.06 1.36 1.36 0 010-.29 2.29 2.29 0 01.08-.28 2.15 2.15 0 01.14-.26 1.37 1.37 0 01.19-.23l.22-.19a1.58 1.58 0 01.26-.13 1.52 1.52 0 01.28-.09 1.47 1.47 0 01.59 0 1.31 1.31 0 01.28.09 1.26 1.26 0 01.26.13 2.11 2.11 0 01.23.19 2.11 2.11 0 01.19.23 1.26 1.26 0 01.13.26 1.31 1.31 0 01.09.28 1.36 1.36 0 010 .29 1.5 1.5 0 01-1.5 1.5z" fill="#1f9254"/><g class="cls-4"><path class="cls-5" d="M67.4 100.23H42.93a1.5 1.5 0 110-3H67.4a1.5 1.5 0 010 3z"/></g><path class="cls-3" d="M98.25 53.59h-29.6a2.33 2.33 0 01-2.31-2.24l-.59-18a2.21 2.21 0 012-2.28v-5.4A4.42 4.42 0 0168 24l.8-1.86A2 2 0 0170.64 21h10.74a1.92 1.92 0 011.78 1.31l.42 1.37H103a1.59 1.59 0 011.59 1.69l-4 26a2.34 2.34 0 01-2.34 2.22zM68 33a.23.23 0 00-.17.07.22.22 0 00-.06.16l.59 18a.32.32 0 00.31.3h29.6a.34.34 0 00.32-.31v-.13l.87-22.69a.21.21 0 00-.22-.22h-8.6a.92.92 0 00-.71.47v.15a.24.24 0 000 .08l-.29 1.42v.12c-.23.66-1.18 2.55-2.62 2.55zm22.64-6.79h8.6a2.19 2.19 0 011.6.68 2.15 2.15 0 01.61 1.62l-.2 5.4 1.28-8.26h-19a1.92 1.92 0 01-1.78-1.31L81.28 23H70.64l-.77 1.83a2.85 2.85 0 00-.17.82V31h.87v-2.3a1 1 0 011-1h16.62a2.88 2.88 0 012.43-1.46zm-3.79 4.81zM72.57 31h14.29a2.91 2.91 0 00.77-1.13v-.2H72.57zm8.68-8.13z"/></g></g></svg>