<svg xmlns="http://www.w3.org/2000/svg" viewBox="0 0 135 135"><defs><style>.cls-5{mix-blend-mode:multiply}.cls-6{fill:#19a500}.cls-7{fill:#a2ce2a}</style></defs><g style="isolation:isolate"><g id="Capa_1" data-name="Capa 1"><path d="M111.51 103.93h-88a6.21 6.21 0 01-6.21-6.2V43.08a6.21 6.21 0 016.21-6.21h3.07V34a1.5 1.5 0 011.5-1.5h3.6a1.5 1.5 0 010 3h-2.1v55.6H66V40a4.55 4.55 0 00-4.55-4.55 1.5 1.5 0 010-3 7.55 7.55 0 016 3 7.55 7.55 0 016-3h33.39a1.5 1.5 0 011.5 1.5v2.92h3.07a6.21 6.21 0 016.21 6.21v54.65a6.21 6.21 0 01-6.11 6.2zm-42.51-3h42.51a3.21 3.21 0 003.21-3.2V43.08a3.21 3.21 0 00-3.21-3.21h-3.07v52.68a1.5 1.5 0 01-1.5 1.5H69zM23.49 39.87a3.21 3.21 0 00-3.21 3.21v54.65a3.21 3.21 0 003.21 3.2H66v-6.88H28.06a1.5 1.5 0 01-1.5-1.5V39.87zM69 91.05h36.44v-55.6H73.55A4.55 4.55 0 0069 40zm29.24-11.56h-22a1.5 1.5 0 010-3h22a1.5 1.5 0 010 3zm-39.37 0h-22a1.5 1.5 0 010-3h22a1.5 1.5 0 010 3zm39.37-8.33h-22a1.5 1.5 0 010-3h22a1.5 1.5 0 010 3zm-39.37 0h-22a1.5 1.5 0 010-3h22a1.5 1.5 0 110 3zm39.37-8.33h-22a1.5 1.5 0 010-3h22a1.5 1.5 0 010 3zm-39.37 0h-22a1.5 1.5 0 010-3h22a1.5 1.5 0 010 3zm39.37-8.33h-22a1.5 1.5 0 110-3h22a1.5 1.5 0 110 3zm-39.37 0h-22a1.5 1.5 0 010-3h22a1.5 1.5 0 110 3z" fill="#28347d"/><path d="M46.56 44.37A10.43 10.43 0 1154.2 41a10.43 10.43 0 01-7.64 3.37zm0-17.85a7.43 7.43 0 100 14.85A7.43 7.43 0 0054 34a7.44 7.44 0 00-7.44-7.48z" fill="#24a31a"/><path fill="none" d="M0 0h135v135H0z"/><g class="cls-5"><path class="cls-6" d="M54.54 130.48H36.33a1.5 1.5 0 110-3h18.21a1.5 1.5 0 110 3z"/></g><g class="cls-5"><path class="cls-7" d="M65.24 130.48H47a1.5 1.5 0 110-3h18.2a1.5 1.5 0 110 3z"/></g><g class="cls-5"><path class="cls-7" d="M87.18 130.48h-9.11a1.5 1.5 0 010-3h9.11a1.5 1.5 0 110 3z"/></g><g class="cls-5"><path class="cls-7" d="M100 130.48a1.52 1.52 0 01-1.06-.44 1.5 1.5 0 01-.44-1.06 1.43 1.43 0 010-.29 1.69 1.69 0 01.41-.77 1.47 1.47 0 011.64-.32 1.26 1.26 0 01.26.13 2.11 2.11 0 01.23.19 1.65 1.65 0 01.41.77 1.43 1.43 0 010 .29A1.5 1.5 0 01101 130a2.11 2.11 0 01-.23.19l-.26.14-.28.08a1.53 1.53 0 01-.23.07z"/></g><g class="cls-5"><path class="cls-7" d="M81.72 118.26H36.33a1.5 1.5 0 010-3h45.39a1.5 1.5 0 010 3z"/></g><path d="M36.33 118.26a1.5 1.5 0 01-1.5-1.5 1.48 1.48 0 01.44-1.06 1.55 1.55 0 012.12 0 1.5 1.5 0 01.44 1.06 1.52 1.52 0 01-.44 1.06 1.5 1.5 0 01-1.06.44z" fill="#1f9254"/><g class="cls-5"><path class="cls-6" d="M100 118.26H74.22a1.5 1.5 0 010-3H100a1.5 1.5 0 010 3z"/></g></g></g></svg>