<svg xmlns="http://www.w3.org/2000/svg" viewBox="0 0 135 135"><defs><style>.cls-3{mix-blend-mode:multiply}.cls-4{fill:#19a500}.cls-5{fill:#a2ce2a}</style></defs><g style="isolation:isolate"><g id="Capa_1" data-name="Capa 1"><path fill="none" d="M0 0h135v135H0z"/><g class="cls-3"><path class="cls-4" d="M54.54 130.48H36.33a1.5 1.5 0 110-3h18.21a1.5 1.5 0 110 3z"/></g><g class="cls-3"><path class="cls-5" d="M65.24 130.48H47a1.5 1.5 0 110-3h18.2a1.5 1.5 0 110 3z"/></g><g class="cls-3"><path class="cls-5" d="M87.18 130.48h-9.11a1.5 1.5 0 010-3h9.11a1.5 1.5 0 110 3z"/></g><g class="cls-3"><path class="cls-5" d="M100 130.48a1.49 1.49 0 01-1.5-1.5 1.42 1.42 0 010-.29 1.61 1.61 0 01.23-.54 2 2 0 01.18-.23 1.47 1.47 0 011.64-.32 1.26 1.26 0 01.26.13 2.11 2.11 0 01.23.19 2 2 0 01.18.23 1.61 1.61 0 01.23.54 1.43 1.43 0 010 .29 1.36 1.36 0 010 .29 1.61 1.61 0 01-.09.29 1.23 1.23 0 01-.14.25 1.41 1.41 0 01-.18.23 2.11 2.11 0 01-.23.19l-.26.14-.28.08z"/></g><g class="cls-3"><path class="cls-5" d="M81.72 118.26H36.33a1.5 1.5 0 010-3h45.39a1.5 1.5 0 010 3z"/></g><path d="M36.33 118.26a1.5 1.5 0 01-1.06-.44 1.52 1.52 0 01-.44-1.06 1.5 1.5 0 011.79-1.47.9.9 0 01.28.08 1.3 1.3 0 01.26.14 1.06 1.06 0 01.23.19 1.5 1.5 0 01.44 1.06 1.52 1.52 0 01-.44 1.06 1 1 0 01-.23.18 1.61 1.61 0 01-.54.23 1.36 1.36 0 01-.29.03z" fill="#1f9254"/><g class="cls-3"><path class="cls-4" d="M100 118.26H74.22a1.5 1.5 0 010-3H100a1.5 1.5 0 010 3z"/></g><path d="M109.92 104H26.31a1.5 1.5 0 110-3h6.33V89.71a1.5 1.5 0 013 0V101h6.16V89.54a1.5 1.5 0 013 0V101H51V69.32h-4a1.5 1.5 0 010-3h5.46a1.5 1.5 0 011.5 1.5V101h7.33V67.82a1.5 1.5 0 011.5-1.5H72a1.5 1.5 0 011.5 1.5V101h7.33V67.82a1.5 1.5 0 011.5-1.5h9.16a1.5 1.5 0 011.5 1.5V101h7.65V53.67h-65v5.55a1.5 1.5 0 01-3 0v-7a1.5 1.5 0 011.5-1.5h8.06V42.4a1.5 1.5 0 011.5-1.5h22.92V10a1.5 1.5 0 013 0v1.5h6.71a1.51 1.51 0 011.5 1.5v2.66h8.31a1.47 1.47 0 011.35.86 1.51 1.51 0 01-.18 1.59l-3.09 3.8 3.09 3.81a1.51 1.51 0 01-1.17 2.45h-9.81a1.5 1.5 0 01-1.5-1.5V24h-5.21v16.9h22.91A1.5 1.5 0 0194 42.4v8.27h8.07a1.5 1.5 0 011.5 1.5V101h6.32a1.5 1.5 0 010 3zm-26.13-3H90V69.32h-6.21zm-19.5 0h6.17V69.32h-6.17zM45.2 50.67H91V43.9H45.2zm32.63-25.5H83l-1.87-2.31a1.49 1.49 0 010-1.89L83 18.66h-5.17zM69.62 21h5.21v-6.5h-5.21z" fill="#28347d"/><path d="M34 85.28A10.41 10.41 0 1141.65 82 10.43 10.43 0 0134 85.28zm0-17.85a7.43 7.43 0 107.43 7.42A7.43 7.43 0 0034 67.43z" fill="#24a31a"/></g></g></svg>