<svg xmlns="http://www.w3.org/2000/svg" viewBox="0 0 120 120"><defs><style>.cls-3{fill:#28347d}.cls-4{mix-blend-mode:multiply}.cls-5{fill:#24a31a}.cls-6{fill:#a2ce2a}</style></defs><g style="isolation:isolate"><g id="Capa_1" data-name="Capa 1"><path fill="none" d="M0 0h120v120H0z"/><path class="cls-3" d="M55.38 61.65a1.53 1.53 0 01-1.07-.44 1.51 1.51 0 010-2.12l6.86-6.86a1.51 1.51 0 012.12 0 1.49 1.49 0 010 2.12l-6.85 6.86a1.53 1.53 0 01-1.06.44zM96.08 36a2.25 2.25 0 112.25-2.25A2.25 2.25 0 0196.08 36zm0-2.5a.25.25 0 00-.25.25c0 .28.5.28.5 0a.25.25 0 00-.25-.24zm4.63 2.06a1 1 0 01-1-1V33a1 1 0 112 0v1.6a1 1 0 01-1 .96z"/><path class="cls-3" d="M85.2 66.43a29.14 29.14 0 1129.36-29.14A29.28 29.28 0 0185.2 66.43zm0-55.27a26.14 26.14 0 1026.36 26.13A26.27 26.27 0 0085.2 11.16z"/><path class="cls-3" d="M90 53.86a1 1 0 01-.62-.21l-3.9-3.06H75a1 1 0 01-1-1v-7.53h-2.51l-3.9 3.07a1 1 0 01-1 .11 1 1 0 01-.56-.9v-2.28h-.63A3.12 3.12 0 0162.29 39v-8.53a3.12 3.12 0 013.11-3.11h14.47A3.12 3.12 0 0183 30.47v5.41h4.56a5.7 5.7 0 01-.13-1.25v-2.34a6.18 6.18 0 016.18-6.18h8.34a6.18 6.18 0 016.18 6.18v2.34a6.19 6.19 0 01-5.18 6.1v2.36a1 1 0 01-1.62.78l-3.9-3.06h-2.72v8.78a1 1 0 01-1 1H91v2.27a1 1 0 01-.56.9 1 1 0 01-.44.1zm-14-5.27h9.84a1 1 0 01.62.21l2.55 2v-1.21a1 1 0 011-1h2.69v-7.84a6.19 6.19 0 01-4.36-2.87H76zM65.4 29.36a1.11 1.11 0 00-1.11 1.11V39a1.11 1.11 0 001.11 1.11H67a1 1 0 011 1v1.22l2.55-2a1.05 1.05 0 01.62-.21H74v-3.24a1 1 0 011-1h6v-5.41a1.12 1.12 0 00-1.12-1.11zm28.31 9.45h4.06a1 1 0 01.62.21l2.55 2v-1.21a1 1 0 011-1 4.18 4.18 0 004.18-4.18v-2.34a4.18 4.18 0 00-4.18-4.18H93.6a4.18 4.18 0 00-4.18 4.18v2.34a4.18 4.18 0 004.18 4.18z"/><path class="cls-3" d="M79.52 45.34a2.25 2.25 0 112.25-2.25 2.25 2.25 0 01-2.25 2.25zm0-2.5a.25.25 0 00-.25.25c0 .27.5.27.5 0a.25.25 0 00-.25-.25zm4.63 2.5a2.25 2.25 0 112.25-2.25 2.25 2.25 0 01-2.25 2.25zm0-2.5a.25.25 0 00-.25.25c0 .27.5.27.5 0a.25.25 0 00-.25-.25z"/><path class="cls-3" d="M88.78 45.34A2.25 2.25 0 1191 43.09a2.25 2.25 0 01-2.22 2.25zm0-2.5a.25.25 0 00-.25.25c0 .27.5.27.5 0a.25.25 0 00-.25-.25zm-11.51-6.47a1 1 0 01-1-1v-1.61a1 1 0 012 0v1.61a1 1 0 01-1 1zm-4.63 0a1 1 0 01-1-1v-1.61a1 1 0 012 0v1.61a1 1 0 01-1 1zm-4.63 0a1 1 0 01-1-1v-1.61a1 1 0 012 0v1.61a1 1 0 01-1.01 1zM65 90.8a1.51 1.51 0 01-1.49-1.29l-2-14.45a9.33 9.33 0 00-7.34-7.82l-17-3.51-17 3.51a9.32 9.32 0 00-7.33 7.82l-2 14.45a1.52 1.52 0 01-1.7 1.28 1.5 1.5 0 01-1.32-1.69l2-14.45a12.33 12.33 0 019.7-10.35l17.33-3.57h.09a12.31 12.31 0 01-12.09-12.3V41a12.3 12.3 0 1124.6 0v7.45a12.32 12.32 0 01-12.09 12.3h.09L54.8 64.3a12.34 12.34 0 019.7 10.35l2 14.45a1.49 1.49 0 01-1.28 1.69zM37.17 31.66a9.31 9.31 0 00-9.3 9.3v7.45a9.3 9.3 0 1018.6 0V41a9.31 9.31 0 00-9.3-9.34z"/><g class="cls-4"><path class="cls-5" d="M24.23 111.84H6.94a1.5 1.5 0 110-3h17.29a1.5 1.5 0 010 3z"/></g><g class="cls-4"><path class="cls-6" d="M34.4 111.84H17.11a1.5 1.5 0 010-3H34.4a1.5 1.5 0 110 3z"/></g><g class="cls-4"><path class="cls-6" d="M55.24 111.84h-8.65a1.5 1.5 0 010-3h8.65a1.5 1.5 0 110 3z"/></g><g class="cls-4"><path class="cls-6" d="M67.4 111.84a1.46 1.46 0 01-1.06-.44 1.5 1.5 0 01-.44-1.06 1.53 1.53 0 01.44-1.06 1 1 0 01.23-.18 1.08 1.08 0 01.26-.14 1.31 1.31 0 01.28-.09 1.56 1.56 0 011.35.41 1.52 1.52 0 01.44 1.06 1.5 1.5 0 01-.44 1.06 1.47 1.47 0 01-1.06.44z"/></g><g class="cls-4"><path class="cls-6" d="M50.05 100.23H6.94a1.5 1.5 0 110-3h43.11a1.5 1.5 0 010 3z"/></g><path d="M6.94 100.23a1.66 1.66 0 01-.58-.11 1.58 1.58 0 01-.48-.33 1.46 1.46 0 01-.44-1.06 1.36 1.36 0 010-.29 2.29 2.29 0 01.08-.28 2.15 2.15 0 01.14-.26 2.11 2.11 0 01.19-.23l.22-.19a1.58 1.58 0 01.26-.13 1.47 1.47 0 011.67.32 1.3 1.3 0 01.18.23.94.94 0 01.14.26 1.31 1.31 0 01.09.28 1.36 1.36 0 010 .29A1.5 1.5 0 018 99.79a1.63 1.63 0 01-.49.33 1.56 1.56 0 01-.57.11z" fill="#1f9254"/><g class="cls-4"><path class="cls-5" d="M67.4 100.23H42.93a1.5 1.5 0 110-3H67.4a1.5 1.5 0 010 3z"/></g></g></g></svg>