<svg width="46" height="62" fill="none" xmlns="http://www.w3.org/2000/svg"><g clip-path="url(#clip0)" fill="#012969"><path d="M34.5 16.4a2 2 0 01-2-2 1.82 1.82 0 01.6-1.4l4.8-4.8-4.8-4.8a1.93 1.93 0 010-2.8 1.93 1.93 0 012.8 0l6.2 6.2a1.932 1.932 0 010 2.8l-6.2 6.2a2 2 0 01-1.4.6z"/><path d="M38.2 9.9h-8.5a2 2 0 010-4h8.5a2 2 0 010 4zm-30 6.5a2 2 0 01-1.4-.6L.6 9.6a1.93 1.93 0 010-2.8L6.8.6a1.93 1.93 0 012.8 0 1.93 1.93 0 010 2.8L4.8 8.2 9.6 13a1.93 1.93 0 010 2.8 2 2 0 01-1.4.6z"/><path d="M12.9 10.4H4.4a2 2 0 110-4h8.4a2 2 0 012 2 1.92 1.92 0 01-1.9 2zm18.2 21.1a2 2 0 01-2-2v-8.8a.22.22 0 00-.2-.2h-1.7c-.1 0-.1 0-.2.1s-.1.1-.1.2v8.3a2 2 0 01-4 0v-8.3a4.23 4.23 0 014.2-4.2h1.7a4.23 4.23 0 014.2 4.2v8.8a1.841 1.841 0 01-1.9 1.9z"/><path d="M37.2 33.1a2 2 0 01-2-2v-7.4a.22.22 0 00-.2-.2h-1.7c-.1 0-.1 0-.2.1a.35.35 0 00-.1.2v2.4a2 2 0 01-4 0v-2.5a4.23 4.23 0 011.2-3 3.85 3.85 0 013-1.2H35a4.23 4.23 0 014.2 4.2v7.5a2 2 0 01-2 1.9z"/><path d="M43.4 62H30.9l-9.4-.1a2.06 2.06 0 01-1.7-1C13.3 50.4 3.1 34.3 3 34.1a2 2 0 01.6-2.7 8.61 8.61 0 0111.6 1.9l1.6 2.1-.1-25.5A4.27 4.27 0 0121 5.6h1.7a4.23 4.23 0 014.2 4.2v18.4a2 2 0 01-4 0V9.8a.22.22 0 00-.2-.2H21a.22.22 0 00-.2.2l.1 31.3a2 2 0 01-2 2 2.089 2.089 0 01-1.6-.8L12 35.7A4.58 4.58 0 007.6 34c2.9 4.5 9.9 15.6 15 24h18.8V27.2a.22.22 0 00-.2-.2h-1.7c-.1 0-.1 0-.2.1a.35.35 0 00-.1.2v3.2a2 2 0 01-4 0v-3.3a4.23 4.23 0 014.2-4.2h1.7a4.23 4.23 0 014.2 4.2l.1 32.8a2 2 0 01-2 2z"/></g><defs><clipPath id="clip0"><path fill="#fff" d="M0 0h45.4v62H0z"/></clipPath></defs></svg>