<svg xmlns="http://www.w3.org/2000/svg" viewBox="0 0 120 120"><defs><style>.cls-3{mix-blend-mode:multiply}.cls-4{fill:#24a31a}.cls-5{fill:#a2ce2a}.cls-6{fill:#28347d}</style></defs><g style="isolation:isolate"><g id="Capa_1" data-name="Capa 1"><path fill="none" d="M0 0h120v120H0z"/><g class="cls-3"><path class="cls-4" d="M24.23 111.84H6.94a1.5 1.5 0 110-3h17.29a1.5 1.5 0 010 3z"/></g><g class="cls-3"><path class="cls-5" d="M34.4 111.84H17.11a1.5 1.5 0 010-3H34.4a1.5 1.5 0 110 3z"/></g><g class="cls-3"><path class="cls-5" d="M55.24 111.84h-8.65a1.5 1.5 0 010-3h8.65a1.5 1.5 0 110 3z"/></g><g class="cls-3"><path class="cls-5" d="M67.4 111.84h-.29a1.15 1.15 0 01-.28-.09 1.08 1.08 0 01-.26-.14 1.06 1.06 0 01-.23-.19 1.37 1.37 0 01-.19-.22 2.15 2.15 0 01-.14-.26c0-.09-.06-.19-.08-.28a1.5 1.5 0 010-.29 1.52 1.52 0 01.44-1.07 1 1 0 01.23-.18 1.08 1.08 0 01.26-.14 1.15 1.15 0 01.28-.09 1.56 1.56 0 011.35.41 1.52 1.52 0 01.44 1.07 1.41 1.41 0 01-.12.57 1.26 1.26 0 01-.13.26 1.37 1.37 0 01-.19.22 1.52 1.52 0 01-1.09.42z"/></g><path class="cls-6" d="M55.38 61.65a1.53 1.53 0 01-1.07-.44 1.51 1.51 0 010-2.12l6.86-6.86a1.51 1.51 0 012.12 0 1.49 1.49 0 010 2.12l-6.85 6.86a1.53 1.53 0 01-1.06.44z"/><path class="cls-6" d="M85.2 66.43a29.14 29.14 0 1129.36-29.14A29.28 29.28 0 0185.2 66.43zm0-55.28a26.14 26.14 0 1026.36 26.14A26.28 26.28 0 0085.2 11.15z"/><path class="cls-6" d="M106 50.45H64.43a1 1 0 110-2h6.31a3.84 3.84 0 01-1.13-2.18h-3.79a1 1 0 01-1-1V28.54a1 1 0 011-1h23v-.29l-1.08-1.54a1 1 0 01.26-1.39 1 1 0 011.4.24l1.26 1.8a1 1 0 01.18.58v6h.09c.24 0 3.92.35 8.55 4.8l.55.06c3.36.41 5.72 1.19 5.54 7.49a1 1 0 01-1 1h-1.81a3.78 3.78 0 01-1.13 2.18H106a1 1 0 010 2zm-22.68-2H96.4a3.73 3.73 0 01-1.09-2H84.4a3.81 3.81 0 01-1.1 2zm-7.33 0h2.1a3.84 3.84 0 01-1-1.73A3.84 3.84 0 0176 48.45zm23-4.52a1.79 1.79 0 101.78 1.79A1.79 1.79 0 0099 43.93zm-18.34 0a1.79 1.79 0 101.79 1.79v-.12a.31.31 0 010-.1 1.79 1.79 0 00-1.76-1.57zm-9.06 1.57a1.5 1.5 0 000 .22 1.82 1.82 0 100-.35s.01.08 0 .13zm5.41-.78a3.84 3.84 0 012-2.42h-4a3.84 3.84 0 012 2.42zm13.82-.26h4.62a3.78 3.78 0 017.06-.19h1.07c0-4-1.36-4.17-3.8-4.47l-.77-.11h-8.12zm-6.58 0h4.58V42.3h-6.51a3.79 3.79 0 011.94 2.16zm-17.43-.19h3a3.79 3.79 0 011.87-2h-4.86zm0-4h22V29.54h-22zm24-5.35v2.76h5.54c-3.2-2.5-5.5-2.75-5.53-2.75zm2.59 7.35H92a1 1 0 010-2h1.46a1 1 0 010 2zM65 90.81a1.51 1.51 0 01-1.48-1.3l-2-14.45a9.33 9.33 0 00-7.34-7.82l-17-3.51-17 3.51a9.32 9.32 0 00-7.33 7.82l-2 14.45a1.5 1.5 0 01-3-.41l2-14.45a12.33 12.33 0 019.7-10.35l17.33-3.57h.09a12.31 12.31 0 01-12.09-12.3V41a12.3 12.3 0 1124.6 0v7.45a12.32 12.32 0 01-12.09 12.3h.09L54.8 64.3a12.34 12.34 0 019.7 10.35l2 14.45a1.49 1.49 0 01-1.28 1.69zM37.17 31.66a9.31 9.31 0 00-9.3 9.3v7.45a9.3 9.3 0 1018.6 0V41a9.31 9.31 0 00-9.3-9.34z"/><g class="cls-3"><path class="cls-5" d="M50.05 100.23H6.94a1.5 1.5 0 110-3h43.11a1.5 1.5 0 010 3z"/></g><path d="M6.94 100.23a1.5 1.5 0 01-1.5-1.5 1.52 1.52 0 01.44-1.06 1.45 1.45 0 01.23-.19 1.19 1.19 0 01.25-.13 1.52 1.52 0 01.28-.09 1.47 1.47 0 01.59 0 1.31 1.31 0 01.28.09 1.26 1.26 0 01.26.13 2.11 2.11 0 01.23.19 1.52 1.52 0 01.44 1.06A1.5 1.5 0 018 99.79a1.52 1.52 0 01-1.06.44z" fill="#1f9254"/><g class="cls-3"><path class="cls-4" d="M67.4 100.23H42.93a1.5 1.5 0 110-3H67.4a1.5 1.5 0 010 3z"/></g></g></g></svg>