<svg xmlns="http://www.w3.org/2000/svg" viewBox="0 0 120 120"><defs><style>.cls-3{fill:#28347d}.cls-4{mix-blend-mode:multiply}.cls-5{fill:#24a31a}.cls-6{fill:#a2ce2a}</style></defs><g style="isolation:isolate"><g id="Capa_1" data-name="Capa 1"><path fill="none" d="M0 0h120v120H0z"/><path class="cls-3" d="M55.38 61.65a1.5 1.5 0 01-1.06-2.56l6.85-6.86a1.51 1.51 0 012.12 0 1.49 1.49 0 010 2.12l-6.85 6.86a1.53 1.53 0 01-1.06.44z"/><path class="cls-3" d="M85.2 66.43a29.14 29.14 0 1129.36-29.14A29.29 29.29 0 0185.2 66.43zm0-55.27a26.14 26.14 0 1026.36 26.13A26.28 26.28 0 0085.2 11.16z"/><path class="cls-3" d="M96.51 58.92h-8.6a1 1 0 01-1-1v-6.17a1 1 0 01.21-2h.66v-5.64a4.63 4.63 0 011.36-3.3l4.11-4.1a2.85 2.85 0 011.75-.83v-4.41a3.25 3.25 0 116.5 0v9.2a3.58 3.58 0 01-.82 2.28l-3.6 4.31a1.36 1.36 0 00-.31.87v1.64h.59a1 1 0 01.16 2v6.16a1 1 0 01-1.01.99zm-7.6-2h6.6v-5.15h-6.6zm.87-7.15h5v-1.64a3.36 3.36 0 01.76-2.13l3.59-4.31a1.59 1.59 0 00.36-1v-9.2a1.25 1.25 0 10-2.5 0v5a3.74 3.74 0 01.31.27 2.89 2.89 0 010 4l-3.5 3.49a1 1 0 01-1.41 0 1 1 0 010-1.41l3.49-3.5a.85.85 0 00.25-.61.86.86 0 00-.25-.61.85.85 0 00-.25-.17.86.86 0 00-.92.19l-4.1 4.1a2.67 2.67 0 00-.78 1.89zm-6.48 9.15h-8.6a1 1 0 01-1-1v-6.16a1 1 0 01.16-2h.59v-1.63a1.37 1.37 0 00-.32-.87L70.54 43a3.58 3.58 0 01-.82-2.28v-9.2a3.25 3.25 0 016.5 0v4.41a2.87 2.87 0 011.74.83l4.1 4.1a4.64 4.64 0 011.37 3.3v5.66h.66a1 1 0 01.21 2v6.17a1 1 0 01-1 .93zm-7.6-2h6.6v-5.15h-6.6zm.75-7.15h5v-5.66a2.67 2.67 0 00-.78-1.89l-4.1-4.1a.87.87 0 00-.92-.19.9.9 0 00-.26.17.88.88 0 000 1.22l3.5 3.5a1 1 0 01-1.41 1.41l-3.5-3.49a2.86 2.86 0 010-4 2.61 2.61 0 01.31-.27v-5a1.25 1.25 0 00-2.5 0v9.2a1.54 1.54 0 00.36 1L75.67 46a3.36 3.36 0 01.78 2.15zm9.22-5.51a1 1 0 01-1-1v-6.4c-1.27-1.15-5.38-5.27-5.38-10.32 0-5.86 5.51-10.46 5.75-10.65a1 1 0 011.27 0c.23.19 5.74 4.79 5.74 10.65 0 5.05-4.1 9.17-5.38 10.32v6.4a1 1 0 01-1 1zm0-26.24c-1.35 1.31-4.38 4.68-4.38 8.52 0 3.05 1.92 5.81 3.38 7.47V28l-1.53-1.34a1 1 0 111.32-1.5l.21.18v-1a1 1 0 012 0v4.26l.13-.15a1 1 0 111.53 1.28l-1.66 2V34c1.47-1.66 3.38-4.42 3.38-7.46 0-3.84-3.05-7.21-4.38-8.54zM65 90.8a1.5 1.5 0 01-1.48-1.29l-2-14.45a9.33 9.33 0 00-7.34-7.82l-17-3.51-17 3.51a9.32 9.32 0 00-7.33 7.82l-2 14.45a1.52 1.52 0 01-1.7 1.28 1.5 1.5 0 01-1.33-1.69l2-14.45a12.33 12.33 0 019.7-10.35l17.33-3.57h.09a12.31 12.31 0 01-12.09-12.3V41a12.3 12.3 0 1124.6 0v7.45a12.32 12.32 0 01-12.09 12.3h.09L54.8 64.3a12.34 12.34 0 019.7 10.35l2 14.45a1.49 1.49 0 01-1.28 1.69zM37.17 31.66a9.31 9.31 0 00-9.3 9.3v7.45a9.3 9.3 0 1018.6 0V41a9.31 9.31 0 00-9.3-9.34z"/><g class="cls-4"><path class="cls-5" d="M24.23 111.84H6.94a1.5 1.5 0 110-3h17.29a1.5 1.5 0 010 3z"/></g><g class="cls-4"><path class="cls-6" d="M34.4 111.84H17.11a1.5 1.5 0 010-3H34.4a1.5 1.5 0 110 3z"/></g><g class="cls-4"><path class="cls-6" d="M55.24 111.84h-8.65a1.5 1.5 0 010-3h8.65a1.5 1.5 0 110 3z"/></g><g class="cls-4"><path class="cls-6" d="M67.4 111.84a1.46 1.46 0 01-.58-.11 1.29 1.29 0 01-.48-.33 1.58 1.58 0 01-.33-.48 1.62 1.62 0 01-.11-.58 1.5 1.5 0 010-.29c0-.09 0-.19.08-.28a2.15 2.15 0 01.14-.26 2.11 2.11 0 01.19-.23 1.55 1.55 0 011.35-.41 1.69 1.69 0 01.77.41 1.52 1.52 0 01.44 1.06 1.5 1.5 0 01-.44 1.06 1.33 1.33 0 01-.49.33 1.38 1.38 0 01-.54.11z"/></g><g class="cls-4"><path class="cls-6" d="M50.05 100.23H6.94a1.5 1.5 0 110-3h43.11a1.5 1.5 0 010 3z"/></g><path d="M6.94 100.23a1.62 1.62 0 01-.58-.11 1.58 1.58 0 01-.48-.33 1.46 1.46 0 01-.44-1.06 1.36 1.36 0 010-.29 1.29 1.29 0 01.08-.28 2.15 2.15 0 01.14-.26 2.11 2.11 0 01.19-.23 1.45 1.45 0 01.23-.19 1.19 1.19 0 01.25-.13 1.52 1.52 0 01.28-.09 1.47 1.47 0 01.59 0 1.31 1.31 0 01.28.09 1.26 1.26 0 01.26.13 2.11 2.11 0 01.23.19 1.65 1.65 0 01.41.77 1.36 1.36 0 010 .29A1.5 1.5 0 018 99.79a1.63 1.63 0 01-.49.33 1.56 1.56 0 01-.57.11z" fill="#1f9254"/><g class="cls-4"><path class="cls-5" d="M67.4 100.23H42.93a1.5 1.5 0 110-3H67.4a1.5 1.5 0 010 3z"/></g></g></g></svg>