<svg version="1.1" id="Capa_1" xmlns="http://www.w3.org/2000/svg" x="0" y="0" viewBox="0 0 120 120" xml:space="preserve"><style>.st1{fill:#ffea27}.st2{fill:#f4d314}.st3{fill:#95a6b1}</style><path fill="none" d="M0 0h120v120H0z"/><path class="st1" d="M54 115.9H35.7c-1.1 0-2-.9-2-2s.9-2 2-2H54c1.1 0 2 .9 2 2s-.9 2-2 2zm21.9 0h-9.1c-1.1 0-2-.9-2-2s.9-2 2-2h9.1c1.1 0 2 .9 2 2s-.9 2-2 2zm12.8 0h-.4c-.1 0-.3-.1-.4-.1-.1-.1-.2-.1-.3-.2l-.3-.3c-.2-.2-.3-.4-.4-.6-.1-.2-.2-.5-.2-.8 0-.5.2-1 .6-1.4.8-.8 2-.8 2.8 0 .4.4.6.9.6 1.4 0 .3 0 .5-.2.8-.1.2-.3.5-.4.6-.4.4-.9.6-1.4.6z"/><path class="st2" d="M43.2 115.9H25c-1.1 0-2-.9-2-2s.9-2 2-2h18.2c1.1 0 2 .9 2 2s-.9 2-2 2z"/><path class="st1" d="M70.4 103.6H25c-1.1 0-2-.9-2-2s.9-2 2-2h45.4c1.1 0 2 .9 2 2s-.9 2-2 2z"/><path class="st2" d="M25 103.6c-1.1 0-2-.9-2-2s.9-2 2-2h.4c.1 0 .2.1.4.1.1 0 .2.1.4.2.1.1.2.2.3.2.1.1.2.2.2.3.1.1.1.2.2.3 0 .1.1.2.1.4v.4c0 1.2-.9 2.1-2 2.1zm63.7 0H62.9c-1.1 0-2-.9-2-2s.9-2 2-2h25.8c1.1 0 2 .9 2 2s-.9 2-2 2zM15.6 59.9c-5.2 0-9.5-4.2-9.5-9.5 0-5.2 4.2-9.5 9.5-9.5 3.7 0 7.1 2.2 8.6 5.5 2.2 4.8.1 10.4-4.7 12.6-1.2.6-2.5.9-3.9.9zm0-15c-.8 0-1.6.2-2.3.5-2.8 1.3-4 4.5-2.7 7.3s4.5 4 7.3 2.7 4-4.5 2.7-7.3c-.9-2-2.8-3.2-5-3.2z"/><path class="st3" d="M85.5 91.5H53.8c-1.1 0-2-.9-2-2V37c0-1.1.9-2 2-2h31.6c1.1 0 2 .9 2 2v52.6c.1 1.1-.8 1.9-1.9 1.9zm-29.7-3.9h27.7V39H55.8v48.6z"/><path class="st3" d="M53.8 91.5H15.6c-1.1 0-2-.9-2-2V64.8c-.2-1.1.5-2.1 1.6-2.3s2.1.5 2.3 1.6v23.5h34.3V37c0-1.1.9-2 2-2h20.4V20.3H17.6v16.2c-.2 1.1-1.3 1.8-2.3 1.6-.8-.2-1.4-.8-1.6-1.6V18.3c0-1.1.9-2 2-2h60.6c1.1 0 2 .9 2 2V37c0 1.1-.9 2-2 2H55.8v50.6c0 1-.9 1.9-2 1.9z"/><path class="st3" d="M76.2 28.9c-1.1 0-2-.9-2-2v-7.7c-.2-1.1.5-2.1 1.6-2.3s2.1.5 2.3 1.6V27c0 1-.8 1.9-1.9 1.9zm-12.1 0c-1.1 0-2-.9-2-2v-7.7c-.2-1.1.5-2.1 1.6-2.3 1.1-.2 2.1.5 2.3 1.6V27c0 1-.8 1.9-1.9 1.9zm-12.1 0c-1.1 0-2-.9-2-2v-7.7c-.2-1.1.5-2.1 1.6-2.3s2.1.5 2.3 1.6V27c0 1-.8 1.9-1.9 1.9zm-36.4.1c-1.1 0-2-.9-2-2v-7.8c-.2-1.1.5-2.1 1.6-2.3s2.1.5 2.3 1.6V27c.1 1.1-.8 2-1.9 2zm24.3-.1c-1.1 0-2-.9-2-2v-7.7c-.2-1.1.5-2.1 1.6-2.3s2.1.5 2.3 1.6V27c0 1-.9 1.9-1.9 1.9zm-12.2.1c-1.1 0-2-.9-2-2v-7.8c-.2-1.1.5-2.1 1.6-2.3s2.1.5 2.3 1.6V27c.1 1.1-.8 2-1.9 2zm57.8 19c-1.1 0-2-.9-2-2v-8.1c-.2-1.1.5-2.1 1.6-2.3s2.1.5 2.3 1.6V46c0 1.1-.9 2-1.9 2zm-10.6 0c-1.1 0-2-.9-2-2v-8.1c-.2-1.1.5-2.1 1.6-2.3s2.1.5 2.3 1.6V46c.1 1.1-.8 2-1.9 2zm-10.5 0c-1.1 0-2-.9-2-2v-8.1c-.2-1.1.5-2.1 1.6-2.3 1.1-.2 2.1.5 2.3 1.6V46c0 1.1-.9 2-1.9 2zm-10.6 0c-1.1 0-2-.9-2-2v-8.1c-.2-1.1.5-2.1 1.6-2.4 1.1-.2 2.1.5 2.4 1.6.1.3.1.5 0 .8V46c-.1 1.1-.9 2-2 2z"/><path class="st3" d="M89.4 48.1H49.9c-1.1.2-2.1-.5-2.3-1.6s.5-2.1 1.6-2.3h40.3c1.1-.2 2.1.5 2.3 1.6s-.5 2.1-1.6 2.3h-.8zm-4 14.7H65.9c-1.1-.2-1.8-1.3-1.6-2.3.2-.8.8-1.4 1.6-1.6h19.5c1.1.2 1.8 1.3 1.6 2.3-.2.8-.8 1.4-1.6 1.6zm-28.1 0h-3.5c-1.1.2-1.6-.5-1.8-1.6s.5-2.1 1.6-2.3h3.7c1.1.2 1.8 1.3 1.6 2.3-.2.8-.8 1.4-1.6 1.6zm28.1 14.7H65.9c-1.1-.2-1.8-1.3-1.6-2.3.2-.8.8-1.4 1.6-1.6h19.5c1.1.2 1.8 1.3 1.6 2.3-.2.8-.8 1.4-1.6 1.6zm-28.1 0h-3.5c-1.1.2-1.6-.5-1.8-1.6s.5-2.1 1.6-2.3h3.7c1.1.2 1.8 1.3 1.6 2.3-.2.8-.8 1.4-1.6 1.6zm21.9-48.4H12.6c-1.1.2-2.1-.5-2.4-1.6-.2-1.1.5-2.1 1.6-2.4.3-.1.5-.1.8 0h66.5c1.1-.2 2.1.5 2.4 1.6.2 1.1-.5 2.1-1.6 2.4-.2.1-.5.1-.7 0zM46 91.5c-1.1 0-2-.9-2-2V59.8c.2-1.1 1.3-1.8 2.3-1.6.8.2 1.4.8 1.6 1.6v29.8c0 1-.8 1.9-1.9 1.9zm-13.2 0c-1.1 0-2-.9-2-2V59.8c.2-1.1 1.3-1.8 2.3-1.6.8.2 1.4.8 1.6 1.6v29.8c0 1-.8 1.9-1.9 1.9z"/><path class="st3" d="M46 66.7H33.2c-1.1.2-2.1-.5-2.3-1.6s.5-2.1 1.6-2.3H46c1.1.2 1.8 1.3 1.6 2.3-.2.8-.8 1.5-1.6 1.6zm0 8.8H33.2c-1.1.2-2.1-.5-2.3-1.6s.5-2.1 1.6-2.3H46c1.1.2 1.8 1.3 1.6 2.3-.2.9-.8 1.5-1.6 1.6zm0 8.8H33.2c-1.1.2-2.1-.5-2.3-1.6s.5-2.1 1.6-2.3H46c1.1.2 1.8 1.3 1.6 2.3-.2.9-.8 1.5-1.6 1.6zm-9.9 7.3h-9.2c-1.1.2-2.1-.5-2.3-1.6s.5-2.1 1.6-2.3h9.9c1.1-.2 2.1.5 2.3 1.6s-.5 2.1-1.6 2.3h-.7zm62.5-54c-6.9 0-12.4-5.5-12.4-12.4s5.5-12.4 12.4-12.4S111 18.3 111 25.2s-5.6 12.4-12.4 12.4zm0-20.9c-4.7 0-8.5 3.8-8.5 8.5s3.8 8.5 8.5 8.5 8.5-3.8 8.5-8.5-3.8-8.5-8.5-8.5z"/><path class="st3" d="M98.6 29.9c-.6 0-1.2-.3-1.6-.8l-3.5-4.9c-.5-1 0-2.2 1-2.7.7-.3 1.6-.2 2.2.4l1.9 2.7L109.1 11c.8-.7 2.1-.7 2.8.2.5.6.7 1.5.3 2.2l-12.1 15.7c-.3.5-.9.8-1.5.8z"/></svg>