<svg xmlns="http://www.w3.org/2000/svg" viewBox="0 0 135 135"><defs><style>.cls-2{fill:#28347d}.cls-3{fill:#19a500}.cls-5{mix-blend-mode:multiply}.cls-6{fill:#a2ce2a}</style></defs><g style="isolation:isolate"><g id="Capa_1" data-name="Capa 1"><path class="cls-2" d="M30.62 75.5a1.5 1.5 0 01-1.48-1.3l-.6-4.52a1.9 1.9 0 00-1.47-1.59L22 67l-5.12 1a1.89 1.89 0 00-1.49 1.57l-.65 4.51a1.5 1.5 0 11-3-.43l.65-4.51a4.89 4.89 0 013.87-4.08l2.31-.46a4.84 4.84 0 01-1.41-3.46v-2.33A4.88 4.88 0 0122 54a4.88 4.88 0 014.84 4.91v2.29a4.85 4.85 0 01-1.45 3.44l2.3.49a4.87 4.87 0 013.82 4.12l.6 4.52a1.5 1.5 0 01-1.29 1.69zm-10.5-14.34A1.87 1.87 0 0022 63a1.88 1.88 0 001.89-1.86v-2.29A1.88 1.88 0 0022 57a1.89 1.89 0 00-1.88 1.87z"/><path class="cls-2" d="M21.92 85A18.62 18.62 0 013.31 66.44a1.5 1.5 0 013 0 15.61 15.61 0 0031.21 0 1.5 1.5 0 013 0A18.62 18.62 0 0121.92 85zm54.31 9.16a1.5 1.5 0 01-1.48-1.3l-.61-4.52a1.87 1.87 0 00-1.47-1.59l-5.1-1.08-5.12 1A1.88 1.88 0 0061 88.26l-.66 4.51a1.5 1.5 0 01-3-.43l.66-4.51a4.89 4.89 0 013.87-4.08l2.31-.46a4.9 4.9 0 01-1.45-3.49v-2.33a4.88 4.88 0 014.87-4.85 4.89 4.89 0 014.85 4.91v2.33A4.84 4.84 0 0171 83.3l2.31.49a4.9 4.9 0 013.82 4.12l.6 4.52a1.51 1.51 0 01-1.29 1.69zM65.72 79.82a1.88 1.88 0 001.87 1.88 1.83 1.83 0 001.33-.54 1.86 1.86 0 00.55-1.32v-2.33a1.89 1.89 0 00-1.87-1.89 1.86 1.86 0 00-1.87 1.87z"/><path class="cls-2" d="M67.53 103.7a18.62 18.62 0 01-18.61-18.6 1.5 1.5 0 013 0 15.61 15.61 0 0031.21 0 1.5 1.5 0 013 0 18.62 18.62 0 01-18.6 18.6zm54.26-28.2a1.51 1.51 0 01-1.49-1.3l-.6-4.52a1.9 1.9 0 00-1.47-1.59L113.12 67 108 68a1.91 1.91 0 00-1.49 1.57l-.65 4.51a1.5 1.5 0 11-3-.43l.66-4.51a4.88 4.88 0 013.86-4.08l2.31-.46a4.84 4.84 0 01-1.41-3.46v-2.33a4.88 4.88 0 014.89-4.81 4.88 4.88 0 014.83 4.87v2.33a4.85 4.85 0 01-1.45 3.44l2.3.49a4.87 4.87 0 013.82 4.12l.6 4.52a1.5 1.5 0 01-1.27 1.72zm-10.51-14.34a1.87 1.87 0 001.86 1.84 1.88 1.88 0 001.86-1.82v-2.33a1.88 1.88 0 00-1.82-1.85 1.74 1.74 0 00-1.33.54 1.91 1.91 0 00-.56 1.33z"/><path class="cls-2" d="M113.08 85a18.62 18.62 0 01-18.6-18.6 1.5 1.5 0 013 0 15.61 15.61 0 0031.21 0 1.5 1.5 0 013 0A18.62 18.62 0 01113.08 85zM76.23 38.45a1.5 1.5 0 01-1.48-1.3l-.61-4.52A1.87 1.87 0 0072.67 31l-5.1-1-5.12 1A1.88 1.88 0 0061 32.55l-.66 4.51a1.5 1.5 0 11-3-.43l.66-4.51A4.88 4.88 0 0161.86 28l2.31-.46a4.9 4.9 0 01-1.45-3.49v-2.33a4.84 4.84 0 011.45-3.44 4.68 4.68 0 013.45-1.41 4.89 4.89 0 014.85 4.91v2.33A4.8 4.8 0 0171 27.58l2.31.49a4.88 4.88 0 013.82 4.12l.6 4.52a1.49 1.49 0 01-1.29 1.68zM65.72 24.11A1.88 1.88 0 0067.59 26a1.79 1.79 0 001.33-.54 1.86 1.86 0 00.55-1.32v-2.33a1.88 1.88 0 00-1.87-1.89 2.06 2.06 0 00-1.33.54 1.88 1.88 0 00-.55 1.33zm1.81 44.99A1.5 1.5 0 0166 67.6V46.49a1.5 1.5 0 013 0V67.6a1.5 1.5 0 01-1.47 1.5zM21.92 49.6a1.5 1.5 0 01-1.5-1.5V37.51a9.64 9.64 0 019.63-9.62h20.37a1.5 1.5 0 010 3H30.05a6.63 6.63 0 00-6.63 6.62V48.1a1.5 1.5 0 01-1.5 1.5zm91.21 0a1.5 1.5 0 01-1.5-1.5V37.51a6.63 6.63 0 00-6.63-6.62H84.63a1.5 1.5 0 010-3H105a9.64 9.64 0 019.63 9.62V48.1a1.5 1.5 0 01-1.5 1.5z"/><path class="cls-3" d="M67.53 48a18.61 18.61 0 1118.6-18.6A18.62 18.62 0 0167.53 48zm0-34.21a15.61 15.61 0 1015.6 15.61 15.62 15.62 0 00-15.6-15.62z"/><path fill="none" d="M0 0h135v135H0z"/><g class="cls-5"><path class="cls-3" d="M54.54 130.48H36.33a1.5 1.5 0 110-3h18.21a1.5 1.5 0 110 3z"/></g><g class="cls-5"><path class="cls-6" d="M65.24 130.48H47a1.5 1.5 0 110-3h18.2a1.5 1.5 0 110 3z"/></g><g class="cls-5"><path class="cls-6" d="M87.18 130.48h-9.11a1.5 1.5 0 010-3h9.11a1.5 1.5 0 110 3z"/></g><g class="cls-5"><path class="cls-6" d="M100 130.48h-.29a1.47 1.47 0 01-.28-.08l-.26-.14a2.11 2.11 0 01-.23-.19 1.5 1.5 0 01-.44-1.06 1.52 1.52 0 01.44-1.06 2.11 2.11 0 01.23-.19 1.26 1.26 0 01.26-.13 1.49 1.49 0 012 2 1.23 1.23 0 01-.14.25 1.41 1.41 0 01-.18.23 1.52 1.52 0 01-1.11.37z"/></g><g class="cls-5"><path class="cls-6" d="M81.72 118.26H36.33a1.5 1.5 0 010-3h45.39a1.5 1.5 0 010 3z"/></g><path d="M36.33 118.26a1.36 1.36 0 01-.29 0 1.69 1.69 0 01-.77-.41 2.11 2.11 0 01-.19-.23 1.26 1.26 0 01-.13-.26 1.31 1.31 0 01-.09-.28 1.5 1.5 0 010-.29 1.41 1.41 0 01.12-.58 1.26 1.26 0 01.13-.26 2.11 2.11 0 01.19-.23 1.53 1.53 0 011.35-.4 1.29 1.29 0 01.28.08l.26.14a1.41 1.41 0 01.23.18 2.11 2.11 0 01.19.23 2.15 2.15 0 01.14.26c0 .09.06.19.08.28a1.53 1.53 0 010 .3 1.5 1.5 0 010 .29 2.29 2.29 0 01-.08.28 2.15 2.15 0 01-.14.26 2.11 2.11 0 01-.19.23 1 1 0 01-.23.18 1.61 1.61 0 01-.54.23 1.36 1.36 0 01-.32 0z" fill="#1f9254"/><g class="cls-5"><path class="cls-3" d="M100 118.26H74.22a1.5 1.5 0 010-3H100a1.5 1.5 0 010 3z"/></g></g></g></svg>