<svg version="1.1" id="Capa_1" xmlns="http://www.w3.org/2000/svg" x="0" y="0" viewBox="0 0 120 120" xml:space="preserve"><style>.st0{fill:#95a6b1}.st1{fill:#ffea27}.st3{fill:#f4d314}</style><g id="Capa_1_1_"><path class="st0" d="M98.2 82H85.7c-1.1 0-2-.9-2-2s.9-2 2-2h10.5v-4.4H84.7c-1.1 0-2-.9-2-2s.9-2 2-2h13.5c1.1 0 2 .9 2 2V80c0 1.1-.9 2-2 2zm15.8 0h-7.9c-1.1 0-2-.9-2-2s.9-2 2-2h5.9v-4.5h-5.9c-1.1 0-2-.9-2-2s.9-2 2-2h7.9c1.1 0 2 .9 2 2V80c0 1.1-.9 2-2 2z"/><path class="st0" d="M106.1 86h-7.9c-1.1 0-2-.9-2-2V67.5c0-1.1.9-2 2-2h7.9c1.1 0 2 .9 2 2V84c0 1.1-.9 2-2 2zm-5.9-4h3.9V69.5h-3.9V82z"/><path class="st1" d="M13.4 33.9c-5.2 0-9.4-4.2-9.4-9.4s4.2-9.4 9.4-9.4 9.4 4.2 9.4 9.4c0 2.4-.9 4.6-2.5 6.4-1.8 1.9-4.3 3-6.9 3zm0-14.8c-3 0-5.4 2.4-5.4 5.4s2.4 5.4 5.4 5.4c3 0 5.4-2.4 5.4-5.4 0-3-2.4-5.4-5.4-5.4z"/><path class="st0" d="M85.7 90.8H13c-1.1 0-2-.9-2-2V38.9c.2-1.1 1.3-1.8 2.4-1.6.8.2 1.4.8 1.6 1.6v48h68.8V52.1c-.2-1.1.5-2.1 1.6-2.3s2.1.5 2.3 1.6v37.4c-.1 1.1-.9 2-2 2z"/><path class="st0" d="M85.7 54.1c-1.1 0-2-.9-2-2V25.7H27.5c-1.1.2-2.1-.5-2.3-1.6s.5-2.1 1.6-2.3h58.9c1.1 0 2 .9 2 2v28.3c-.1 1.1-.9 2-2 2z"/><path class="st0" d="M85.7 33.5c-1.1 0-2-.9-2-2v-6.6c-.2-1.1.5-2.1 1.6-2.3s2.1.5 2.3 1.6v7.3c0 1.1-.9 1.9-1.9 2zm-52.8 0c-1.1 0-2-.9-2-2v-6.6c-.2-1.1.5-2.1 1.6-2.3s2.1.5 2.3 1.6v7.3c0 1.1-.8 1.9-1.9 2zm14.6 0c-1.1 0-2-.9-2-2v-6.6c-.2-1.1.5-2.1 1.6-2.3s2.1.5 2.3 1.6v7.3c0 1.1-.8 1.9-1.9 2zm21.9 0c-1.1 0-2-.9-2-2v-6.6c-.2-1.1.5-2.1 1.6-2.3s2.1.5 2.3 1.6v7.3c0 1.1-.8 1.9-1.9 2z"/><path class="st0" d="M92 33.6H27.5c-1.1.2-2.1-.5-2.3-1.6s.5-2.1 1.6-2.3H92c1.1.2 1.8 1.3 1.6 2.3-.2.8-.8 1.5-1.6 1.6zM22.9 52.9H13c-1.1-.2-1.8-1.3-1.5-2.4.2-.7.8-1.3 1.5-1.5h9.9c1.1-.2 2.1.5 2.3 1.6s-.5 2.1-1.6 2.3c-.2.1-.5.1-.7 0zm61.9 0H36.5c-1.1.2-2.1-.5-2.3-1.6s.5-2.1 1.6-2.3h49c1.1-.2 2.1.5 2.3 1.6s-.5 2.1-1.6 2.3h-.7zM22.9 73.1H13c-1.1-.2-1.8-1.3-1.6-2.3.2-.8.8-1.4 1.6-1.6h9.9c1.1-.2 2.1.5 2.3 1.6s-.5 2.1-1.6 2.3h-.7zm62.8 0H36.5c-1.1.2-2.1-.5-2.3-1.6s.5-2.1 1.6-2.3h49.9c1.1-.2 2.1.5 2.3 1.6s-.5 2.1-1.6 2.3h-.7z"/><path fill="none" d="M0 0h120v120H0z"/><path class="st1" d="M57.1 115.9H38.9c-1.1 0-2-.9-2-2s.9-2 2-2h18.2c1.1 0 2 .9 2 2s-.9 2-2 2zm21.9 0h-9.1c-1.1 0-2-.9-2-2s.9-2 2-2H79c1.1 0 2 .9 2 2s-.9 2-2 2zm12.8 0c-.5 0-1-.2-1.4-.6-.2-.2-.3-.4-.4-.6-.3-.7-.1-1.6.4-2.2.8-.8 2-.8 2.8 0 .8.8.8 2 0 2.8l-.3.3c-.1.1-.2.1-.3.2-.3 0-.5.1-.8.1z"/><path class="st3" d="M46.4 115.9H28.2c-1.1 0-2-.9-2-2s.9-2 2-2h18.2c1.1 0 2 .9 2 2s-.9 2-2 2z"/><path class="st1" d="M73.6 103.6H28.2c-1.1 0-2-.9-2-2s.9-2 2-2h45.4c1.1 0 2 .9 2 2s-.9 2-2 2z"/><path class="st3" d="M28.2 103.6c-.5 0-1-.2-1.4-.6-.2-.2-.3-.4-.4-.7-.1-.2-.2-.5-.1-.8 0-.5.2-1 .6-1.4l.3-.2c.1-.1.2-.1.3-.2.1-.1.3-.1.4-.1.3-.1.5-.1.8 0 .1 0 .3.1.4.1.1 0 .2.1.4.2.1.1.2.2.3.2.1.1.2.2.2.3.1.1.1.2.2.3 0 .1.1.2.1.4v.4c0 .3-.1.5-.1.8-.1.2-.3.5-.4.7-.6.4-1.1.6-1.6.6zm63.6 0H66.1c-1.1 0-2-.9-2-2s.9-2 2-2h25.8c1.1 0 2 .9 2 2s-1 2-2.1 2z"/></g></svg>