<svg xmlns="http://www.w3.org/2000/svg" viewBox="0 0 135 135"><defs><style>.cls-2{fill:#28347d}.cls-4{mix-blend-mode:multiply}.cls-5{fill:#19a500}.cls-6{fill:#a2ce2a}</style></defs><g style="isolation:isolate"><g id="Capa_1" data-name="Capa 1"><path class="cls-2" d="M91.52 102.64h-41.3a12.54 12.54 0 01-12.53-12.53V33.05a1.5 1.5 0 013 0v57.06a9.54 9.54 0 009.53 9.53h41.3a9.54 9.54 0 009.53-9.53V17.59H56.1a1.5 1.5 0 010-3h46.45a1.5 1.5 0 011.5 1.5v74a12.54 12.54 0 01-12.53 12.55z"/><path d="M41.24 28.66a10.43 10.43 0 117.64-3.34 10.44 10.44 0 01-7.64 3.34zm0-17.86a7.43 7.43 0 000 14.86 7.43 7.43 0 000-14.86z" fill="#24a31a"/><path class="cls-2" d="M58.34 51.54h-9.4a1.5 1.5 0 01-1.5-1.5v-8.56a1.5 1.5 0 011.5-1.5h9.4a1.5 1.5 0 011.5 1.5V50a1.5 1.5 0 01-1.5 1.54zm-7.9-3h6.4V43h-6.4zm25.13 3h-9.4a1.5 1.5 0 01-1.5-1.5v-8.56a1.5 1.5 0 011.5-1.5h9.4a1.5 1.5 0 011.5 1.5V50a1.5 1.5 0 01-1.5 1.54zm-7.9-3h6.4V43h-6.4zm25.13 3h-9.39a1.5 1.5 0 01-1.5-1.5v-8.56a1.5 1.5 0 011.5-1.5h9.39a1.5 1.5 0 011.5 1.5V50a1.5 1.5 0 01-1.5 1.54zm-7.89-3h6.39V43h-6.39zM58.34 67.48h-9.4a1.5 1.5 0 01-1.5-1.5v-8.56a1.5 1.5 0 011.5-1.5h9.4a1.5 1.5 0 011.5 1.5V66a1.5 1.5 0 01-1.5 1.48zm-7.9-3h6.4v-5.56h-6.4zm25.13 3h-9.4a1.5 1.5 0 01-1.5-1.5v-8.56a1.5 1.5 0 011.5-1.5h9.4a1.5 1.5 0 011.5 1.5V66a1.5 1.5 0 01-1.5 1.48zm-7.9-3h6.4v-5.56h-6.4zm25.13 3h-9.39a1.5 1.5 0 01-1.5-1.5v-8.56a1.5 1.5 0 011.5-1.5h9.39a1.5 1.5 0 011.5 1.5V66a1.5 1.5 0 01-1.5 1.48zm-7.89-3h6.39v-5.56h-6.39zM58.34 83.42h-9.4a1.5 1.5 0 01-1.5-1.5v-8.56a1.5 1.5 0 011.5-1.5h9.4a1.5 1.5 0 011.5 1.5v8.56a1.5 1.5 0 01-1.5 1.5zm-7.9-3h6.4v-5.56h-6.4zM76.17 84h-10.6a1.5 1.5 0 01-1.5-1.5v-9.69a1.5 1.5 0 011.5-1.5h10.6a1.5 1.5 0 011.5 1.5v9.66a1.5 1.5 0 01-1.5 1.53zm-9.1-3h7.6v-6.69h-7.6zm25.73 2.42h-9.39a1.5 1.5 0 01-1.5-1.5v-8.56a1.5 1.5 0 011.5-1.5h9.39a1.5 1.5 0 011.5 1.5v8.56a1.5 1.5 0 01-1.5 1.5zm-7.89-3h6.39v-5.56h-6.39z"/><path class="cls-2" d="M71.45 80.24h-.13a1.5 1.5 0 01-1.16-.71l-1.31-2.16a1.5 1.5 0 012.57-1.56l.23.39L77 70a1.5 1.5 0 112.27 2l-6.67 7.78a1.47 1.47 0 01-1.15.46zm21.35-57a1.5 1.5 0 01-1.5-1.5V10.43a1.5 1.5 0 113 0v11.31a1.5 1.5 0 01-1.5 1.5zm-30.37 0a1.5 1.5 0 01-1.5-1.5V10.43a1.5 1.5 0 013 0v11.31a1.5 1.5 0 01-1.5 1.5zm10.12 0a1.5 1.5 0 01-1.5-1.5V10.43a1.5 1.5 0 113 0v11.31a1.5 1.5 0 01-1.5 1.5zm10.13 0a1.5 1.5 0 01-1.5-1.5V10.43a1.5 1.5 0 013 0v11.31a1.5 1.5 0 01-1.5 1.5z"/><g class="cls-4"><path class="cls-5" d="M57.25 127.2h-18.2a1.5 1.5 0 010-3h18.2a1.5 1.5 0 010 3z"/></g><g class="cls-4"><path class="cls-6" d="M68 127.2H49.75a1.5 1.5 0 110-3H68a1.5 1.5 0 010 3z"/></g><g class="cls-4"><path class="cls-6" d="M89.89 127.2h-9.1a1.5 1.5 0 010-3h9.1a1.5 1.5 0 010 3z"/></g><g class="cls-4"><path class="cls-6" d="M102.69 127.2a1.5 1.5 0 01-1.5-1.5 1.5 1.5 0 01.44-1.06 2.11 2.11 0 01.23-.19l.26-.14a1.29 1.29 0 01.28-.08 1.59 1.59 0 01.87.08l.26.14.22.19a1.5 1.5 0 010 2.12 1.5 1.5 0 01-1.06.44z"/></g><g class="cls-4"><path class="cls-6" d="M84.43 115H39.05a1.5 1.5 0 110-3h45.38a1.5 1.5 0 010 3z"/></g><path d="M39.05 115a1.5 1.5 0 01-1.5-1.5 1.36 1.36 0 010-.29 2.29 2.29 0 01.08-.28 2.15 2.15 0 01.14-.26 2.11 2.11 0 01.19-.23 1.45 1.45 0 01.23-.19 1.19 1.19 0 01.25-.13 1.47 1.47 0 011.64.32 2.11 2.11 0 01.19.23 1.26 1.26 0 01.13.26 1.31 1.31 0 01.09.28 1.36 1.36 0 010 .29 1.5 1.5 0 01-.44 1.06 1.63 1.63 0 01-.49.33 1.56 1.56 0 01-.51.11z" fill="#1f9254"/><g class="cls-4"><path class="cls-5" d="M102.69 115H76.93a1.5 1.5 0 010-3h25.76a1.5 1.5 0 010 3z"/></g><path fill="none" d="M0 0h135v135H0z"/></g></g></svg>