<svg xmlns="http://www.w3.org/2000/svg" width="120.36" height="119.871"><g data-name="Grupo 8149" transform="translate(.18 -.064)"><path data-name="Rectángulo 2795" fill="none" d="M-.18.064h120.36v119.871H-.18z"/><g data-name="Grupo 8145"><g data-name="Grupo 8144" fill="none" stroke="#fff" stroke-linecap="round" stroke-linejoin="round" stroke-width="4"><path data-name="Línea 2463" d="M46.375 113.094h-8.39"/><path data-name="Línea 2464" opacity=".5" style="isolation:isolate" d="M27.932 100.832h0"/><g data-name="Grupo 8143" opacity=".5"><path data-name="Línea 2465" d="M79.024 113.119h-9.152"/><path data-name="Línea 2466" d="M91.883 113.119h0"/><path data-name="Línea 2467" d="M46.224 113.119H27.932"/><path data-name="Línea 2468" d="M56.987 113.119H38.683"/></g><path data-name="Línea 2469" opacity=".5" style="isolation:isolate" d="M73.54 100.832H27.932"/><path data-name="Línea 2470" opacity=".5" style="isolation:isolate" d="M91.882 100.832H66"/><path data-name="Línea 2471" d="M73.566 100.832h-7.502"/></g></g><path data-name="Trazado 6768" d="M40.789 16.81a7.5 7.5 0 11-9.937-3.7 7.474 7.474 0 019.937 3.7z" fill="none" stroke="#fff" stroke-linecap="round" stroke-linejoin="round" stroke-width="4" opacity=".85"/><g data-name="Grupo 8146"><path data-name="Trazado 6769" d="M29.68 35.4V77A13.023 13.023 0 0042.7 90.021h20.694l24.97-.054V14.784H48.111" fill="none" stroke="#95a6b1" stroke-linecap="round" stroke-linejoin="round" stroke-width="4"/></g><g data-name="Grupo 8148"><g data-name="Grupo 8147" fill="none" stroke="#95a6b1" stroke-linecap="round" stroke-linejoin="round" stroke-width="4"><path data-name="Línea 2472" d="M64.089 59.936l15.403-.036"/><path data-name="Trazado 6770" d="M57.961 47.468c.681-2.042 2.836-2.975 4.52-3.216 3.31-.472 11.683-1.4 14.946 2.65 1.751 2.176 1.381 5.007 1.6 7.608q.229 2.7.461 5.39"/><path data-name="Trazado 6771" d="M72.047 32.531a4.712 4.712 0 11-9.424 0"/><path data-name="Trazado 6772" d="M62.623 32.531v-3.254a4.712 4.712 0 119.424 0v3.254"/></g></g><path data-name="Trazado 6773" d="M53.616 43.5l-14.9 32.965a1.256 1.256 0 001.145 1.773h31.396a1.256 1.256 0 001.123-1.818l-16.5-32.965a1.256 1.256 0 00-2.264.045z" fill="none" stroke="#95a6b1" stroke-linecap="round" stroke-linejoin="round" stroke-width="4"/><path data-name="Línea 2473" fill="none" stroke="#95a6b1" stroke-linecap="round" stroke-linejoin="round" stroke-width="4" d="M55.05 56.651v8.612"/><ellipse data-name="Elipse 1156" cx="2.501" cy="2.417" rx="2.501" ry="2.417" transform="translate(52.55 68.644)" fill="#95a6b1" stroke="#95a6b1" stroke-miterlimit="10"/></g></svg>