<svg xmlns="http://www.w3.org/2000/svg" viewBox="0 0 120 120"><defs><style>.cls-3{fill:#28347d}.cls-4{mix-blend-mode:multiply}.cls-5{fill:#24a31a}.cls-6{fill:#a2ce2a}</style></defs><g style="isolation:isolate"><g id="Capa_1" data-name="Capa 1"><path fill="none" d="M0 0h120v120H0z"/><path class="cls-3" d="M55.35 62.34a1.51 1.51 0 01-1.06-2.57l6.86-6.85A1.5 1.5 0 0163.27 55l-6.85 6.9a1.53 1.53 0 01-1.07.44z"/><path class="cls-3" d="M85.18 67.12A29.14 29.14 0 11114.54 38a29.28 29.28 0 01-29.36 29.12zm0-55.28A26.14 26.14 0 10111.54 38a26.29 26.29 0 00-26.36-26.16z"/><path class="cls-3" d="M95.73 54.1a1.66 1.66 0 01-1.65-1.53L94 51l-.72-.18-1 1.12a1.64 1.64 0 01-1.13.56 1.68 1.68 0 01-1.2-.4l-1.81-1.57a1.62 1.62 0 01-.57-1.13 1.65 1.65 0 01.4-1.21L89 47l-.38-.64-1.49.11A1.65 1.65 0 0185.35 45l-.16-2.38a1.56 1.56 0 01.4-1.2 1.64 1.64 0 011.14-.57l1.53-.1.19-.72-1.13-1a1.69 1.69 0 01-.56-1.14 1.63 1.63 0 01.4-1.2l1.58-1.81a1.67 1.67 0 012.33-.17l1.18 1 .62-.38-.09-1.49a1.67 1.67 0 01.4-1.2 1.64 1.64 0 011.13-.56l2.39-.17a1.66 1.66 0 011.77 1.54l.11 1.55.71.17 1-1.11a1.66 1.66 0 012.34-.16l1.81 1.57a1.64 1.64 0 01.16 2.34l-1 1.17.39.63 1.48-.1a1.65 1.65 0 011.76 1.54l.17 2.39a1.67 1.67 0 01-.41 1.21 1.62 1.62 0 01-1.14.55l-1.54.11-.18.72 1.12 1a1.64 1.64 0 01.16 2.34l-1.56 1.81a1.67 1.67 0 01-2.34.16l-1.18-1-.63.38.1 1.49a1.66 1.66 0 01-1.54 1.76l-2.39.17zm-2.48-5.27A1.86 1.86 0 0194 49l.65.21A2 2 0 0196 50.88l.08 1.2 1.7-.12-.08-1.2a2 2 0 011.17-1.9l.62-.31a1.94 1.94 0 012.15.23l.92.81 1.12-1.3-.91-.79a2 2 0 01-.51-2.17l.22-.65a1.93 1.93 0 011.69-1.36l1.21-.09-.12-1.7-1.21.08a1.93 1.93 0 01-1.9-1.18l-.3-.61a1.94 1.94 0 01.23-2.15l.8-.91-1.29-1.13-.8.92a2 2 0 01-2.17.5l-.62-.21a2 2 0 01-1.37-1.69l-.08-1.21-1.7.12.08 1.2a2 2 0 01-1.18 1.9l-.61.31a2 2 0 01-2.16-.24l-.91-.8-1.17 1.29.91.79a2 2 0 01.51 2.17l-.22.66a1.92 1.92 0 01-1.7 1.36l-1.2.09.13 1.7 1.2-.08a2 2 0 011.89 1.16l.31.62a2 2 0 01-.23 2.16l-.8.91 1.3 1.12.8-.91a1.94 1.94 0 011.45-.64zm4.85 3.11zm-7.34-1.29zm.49 0zM89.43 49zm14.48-.52zm0-.49zm-16.56-3.17zm18.34-1.61zm-18.82-.4zm.31-.38zm18-1.24zM88.67 38zm14.44-1zm-8.34-3.27zm1.5 13.46a4.18 4.18 0 01-2.73-1A4.16 4.16 0 0196 38.86a4.16 4.16 0 01.58 8.3h-.3zm.23-1zm-.23-5.31h-.15a2.17 2.17 0 00-2 2.31 2.14 2.14 0 00.74 1.48 2.18 2.18 0 001.57.53 2.16 2.16 0 00-.16-4.32zM75.35 45a1.74 1.74 0 01-1.73-1.61l-.12-1.71-1-.28-1.09 1.27a1.72 1.72 0 01-1.18.58A1.68 1.68 0 0169 42.8l-2-1.74a1.72 1.72 0 01-.16-2.44L68 37.34l-.41-.83-1.74.06A1.7 1.7 0 0164 35l-.19-2.63a1.73 1.73 0 01.42-1.25 1.69 1.69 0 011.18-.59l1.71-.12.28-.86-1.26-1.19A1.72 1.72 0 0166 25.9l1.73-2a1.75 1.75 0 011.2-.59 1.65 1.65 0 011.24.43l1.28 1.11.82-.4v-1.74a1.73 1.73 0 011.6-1.84l2.64-.18a1.71 1.71 0 011.24.42 1.69 1.69 0 01.59 1.18l.12 1.7.86.29L80.44 23a1.73 1.73 0 012.42-.17l2 1.75a1.69 1.69 0 01.59 1.17A1.72 1.72 0 0185 27l-1.1 1.3.41.82 1.74-.06a1.74 1.74 0 011.83 1.6l.18 2.64a1.65 1.65 0 01-.42 1.25 1.69 1.69 0 01-1.18.59l-1.7.12-.29.86 1.27 1.19a1.72 1.72 0 01.58 1.18 1.7 1.7 0 01-.42 1.26l-1.73 2a1.74 1.74 0 01-2.43.18l-1.3-1.13-.81.4.06 1.74a1.73 1.73 0 01-1.6 1.84l-2.63.22zm-2.75-5.65a1.84 1.84 0 01.74.14l.72.23a2.09 2.09 0 011.44 1.79l.1 1.43 2.08-.15-.1-1.43a2.11 2.11 0 011.23-2l.69-.36a2 2 0 012.27.25l1.08.94 1.37-1.58-1.08-.94a2.08 2.08 0 01-.54-2.27l.25-.74a2.05 2.05 0 011.78-1.43l1.43-.1-.14-2.08-1.43.1a2.13 2.13 0 01-2-1.24l-.34-.68a2 2 0 01.24-2.23l1-1.08-1.58-1.37-1 1.08a2 2 0 01-2.27.53l-.73-.24a2 2 0 01-1.42-1.78l-.1-1.43-2.09.15.1 1.43a2.06 2.06 0 01-1.24 2l-.68.34a2 2 0 01-2.27-.26L69 25.42 67.66 27l1.08.94a2.07 2.07 0 01.54 2.27l-.24.73a2.05 2.05 0 01-1.79 1.43l-1.42.1.17 2.09 1.43-.1a2.08 2.08 0 012 1.23l.35.69a2.07 2.07 0 01-.24 2.26l-1 1.09 1.58 1.37.94-1.1a2.07 2.07 0 011.54-.65zm5.4 3.42zm-9.6-2.83zm16.07-1.12zm0-.39zM66 34.84zm20.09-1.4zm.26-.3zm-20.53-1zm20.38-1.13zm-18.72-3.8zm0-.4zm16.1-.71zm0-.4zm-14.7-.46zm5.1-2.37zm2 14.44a4.48 4.48 0 11.31 0zm0-7h-.18a2.49 2.49 0 10.35 5 2.46 2.46 0 001.7-.85 2.49 2.49 0 00-.25-3.51 2.47 2.47 0 00-1.6-.62zM9.33 90.8h-.21a1.5 1.5 0 01-1.28-1.7l2-14.45a12.33 12.33 0 019.7-10.35l17.33-3.57h.09a12.31 12.31 0 01-12.09-12.3V41a12.3 12.3 0 0124.6 0v7.45A12.32 12.32 0 0137.4 60.71h.09l17.33 3.59a12.34 12.34 0 019.7 10.35l2 14.45a1.49 1.49 0 01-1.28 1.69 1.51 1.51 0 01-1.69-1.28l-2-14.45a9.33 9.33 0 00-7.34-7.82l-17-3.51-17 3.51a9.32 9.32 0 00-7.33 7.82l-2 14.45a1.51 1.51 0 01-1.55 1.29zm27.86-59.14a9.31 9.31 0 00-9.3 9.3v7.45a9.3 9.3 0 0018.6 0V41a9.31 9.31 0 00-9.3-9.34z"/><g class="cls-4"><path class="cls-5" d="M24.25 111.84H7a1.5 1.5 0 110-3h17.25a1.5 1.5 0 010 3z"/></g><g class="cls-4"><path class="cls-6" d="M34.42 111.84H17.13a1.5 1.5 0 110-3h17.29a1.5 1.5 0 010 3z"/></g><g class="cls-4"><path class="cls-6" d="M55.26 111.84h-8.65a1.5 1.5 0 110-3h8.65a1.5 1.5 0 010 3z"/></g><g class="cls-4"><path class="cls-6" d="M67.42 111.84a1.5 1.5 0 01-1.5-1.5 1.52 1.52 0 01.44-1.06 1.56 1.56 0 012.12 0 2.11 2.11 0 01.19.23 1.26 1.26 0 01.13.26 1.41 1.41 0 01.12.57 1.62 1.62 0 01-.11.58 1.58 1.58 0 01-.33.48 1.25 1.25 0 01-.49.33 1.38 1.38 0 01-.57.11z"/></g><g class="cls-4"><path class="cls-6" d="M50.08 100.23H7a1.5 1.5 0 110-3h43.08a1.5 1.5 0 010 3z"/></g><path d="M7 100.23a1.62 1.62 0 01-.58-.11 1.58 1.58 0 01-.48-.33 1.46 1.46 0 01-.44-1.06 1.5 1.5 0 01.44-1.06l.22-.19a1.58 1.58 0 01.26-.13 1.52 1.52 0 01.28-.09 1.47 1.47 0 01.59 0 1.31 1.31 0 01.28.09 1.26 1.26 0 01.26.13 2.11 2.11 0 01.23.19 1.5 1.5 0 010 2.12 1.52 1.52 0 01-1.06.44z" fill="#1f9254"/><g class="cls-4"><path class="cls-5" d="M67.42 100.23H43a1.5 1.5 0 010-3h24.42a1.5 1.5 0 010 3z"/></g></g></g></svg>