<svg id="Capa_1" data-name="Capa 1" xmlns="http://www.w3.org/2000/svg" viewBox="0 0 42 42"><defs><style>.cls-2{fill:#95a6b1}</style></defs><path fill="none" d="M0 0h42v42H0z"/><path class="cls-2" d="M18.48 34.64a16.58 16.58 0 01-11.8-4.89 2 2 0 112.83-2.83A12.68 12.68 0 0027.44 9a2 2 0 012.83-2.83 16.69 16.69 0 01-11.79 28.47z"/><path class="cls-2" d="M28.86 9.57A2 2 0 0127.44 9a12.65 12.65 0 00-12.69-3.17A2 2 0 0113.58 2a16.65 16.65 0 0116.69 4.16 2 2 0 010 2.83 2 2 0 01-1.41.58zM8.09 30.34a2 2 0 01-1.41-.59 16.61 16.61 0 01-4.89-11.67 2 2 0 012-2 2 2 0 012 2 12.63 12.63 0 003.72 8.87 2 2 0 01-1.42 3.42zm31.16 10.39a2 2 0 01-1.41-.59l-10.4-10.39a2 2 0 012.83-2.83l10.4 10.4a2 2 0 010 2.82 2 2 0 01-1.42.59z"/><path d="M6.53 15a5.78 5.78 0 114.23-1.85A5.79 5.79 0 016.53 15zm0-7.56a1.78 1.78 0 101.3 3A1.75 1.75 0 008.3 9.2a1.78 1.78 0 00-1.77-1.78z" fill="#19a500"/></svg>