<svg xmlns="http://www.w3.org/2000/svg" viewBox="0 0 135 135"><defs><style>.cls-2{fill:#28347d}.cls-5{mix-blend-mode:multiply}.cls-6{fill:#19a500}.cls-7{fill:#a2ce2a}</style></defs><g style="isolation:isolate"><g id="Capa_1" data-name="Capa 1"><path class="cls-2" d="M62.38 76.83a1.5 1.5 0 01-1.5-1.5v-4.81a23.15 23.15 0 01-20.3-30.42 1.5 1.5 0 012.85.95 20.13 20.13 0 0019 26.52 1.5 1.5 0 011.5 1.5v6.26a1.5 1.5 0 01-1.55 1.5zM67 70.08a1.5 1.5 0 01-.32-3 20.2 20.2 0 0015.7-19.53 1.5 1.5 0 011.15-1.46 1.15 1.15 0 01.33 0H94a1.5 1.5 0 010 3h-8.68a23.23 23.23 0 01-18 21zm-8.14-6.34a2.41 2.41 0 01-.91-.17l-2.65-1a2.59 2.59 0 01-1.63-2.89l.33-1.91a14.76 14.76 0 01-1.29-1.2l-1.86.49a2.57 2.57 0 01-3-1.41l-1.18-2.58a2.57 2.57 0 01.9-3.22l1.56-1.06a13 13 0 010-1.77l-1.67-1a2.6 2.6 0 01-1.16-3.12l1-2.66a2.68 2.68 0 012.91-1.61l1.9.36a13.27 13.27 0 011.19-1.29l-.49-1.88a2.59 2.59 0 011.4-3l2.57-1.19a2.56 2.56 0 013.22.92l1.07 1.58a11.13 11.13 0 011.83-.06l.93-1.63A2.61 2.61 0 0167 31.29l2.64 1a2.59 2.59 0 011.64 2.89l-.37 2a11.72 11.72 0 011.26 1.2l1.83-.57a2.59 2.59 0 013 1.41l1.18 2.58a2.58 2.58 0 01-.92 3.2l-1.61 1.1a14.91 14.91 0 010 1.75l1.64 1a2.64 2.64 0 011.16 3.1l-1 2.72a2.6 2.6 0 01-2.9 1.64l-1.93-.37a13.1 13.1 0 01-1.2 1.28l.58 1.83a2.58 2.58 0 01-1.4 3l-2.6 1.2a2.57 2.57 0 01-3.22-.91l-1.09-1.63a15.17 15.17 0 01-1.65.06l-1 1.67a2.58 2.58 0 01-2.21 1.3zm3-3zm2-.08zm3.38 0zm-10.6-.77l2 .74.88-1.54A2.64 2.64 0 0162 57.77a10.31 10.31 0 001.57-.06 2.68 2.68 0 012.51 1.16l1 1.5 1.92-.88-.46-1.7a2.67 2.67 0 01.79-2.68 11.77 11.77 0 001.14-1.21 2.67 2.67 0 012.59-1l1.77.33.74-2-1.57-.87a2.68 2.68 0 01-1.32-2.45 10.37 10.37 0 000-1.66 2.69 2.69 0 011.15-2.5l1.51-1-.88-1.93-1.66.47a2.7 2.7 0 01-2.69-.77 9.57 9.57 0 00-1.2-1.13 2.7 2.7 0 01-1-2.61l.32-1.78-2-.74-.86 1.5a2.7 2.7 0 01-2.47 1.34 8.39 8.39 0 00-1.67 0 2.68 2.68 0 01-2.55-1.1l-1-1.47-1.92.88.46 1.74a2.66 2.66 0 01-.79 2.67A10.84 10.84 0 0054.32 41a2.63 2.63 0 01-2.6 1L50 41.64l-.74 2 1.54.9A2.67 2.67 0 0152.09 47a10 10 0 000 1.65 2.66 2.66 0 01-1.09 2.5l-1.46 1 .88 1.93 1.72-.46a2.65 2.65 0 012.67.8A9.94 9.94 0 0056 55.54a2.65 2.65 0 011 2.6zm-.34-.13zm-2.16-1.88zm-.14-.31zm-1.11-1.06zm-.34-.09zm19.88-.54zm-23.17-3.55zm26.37-6.41zM49.11 44zm26.47-1.42zM52.29 39zm1-1.14zm.09-.32zm17.43-.25zm-2.25-2.19zm-5.79-.85zm-5.28 0zm8.42-.1zm-3.5 20a6.67 6.67 0 01-2.85-12.7 6.56 6.56 0 015.07-.25 6.7 6.7 0 014 8.51 6.6 6.6 0 01-3.42 3.8 6.52 6.52 0 01-2.8.57zm0-10.34a3.47 3.47 0 00-1.54.35A3.62 3.62 0 0059 46.18a3.66 3.66 0 002.21 4.68 3.57 3.57 0 002.76-.13 3.65 3.65 0 001.88-2.09 3.65 3.65 0 00-3.43-4.9zm4.85 5.4zm16.21-4.48A1.51 1.51 0 0182 43.45a20 20 0 00-5.29-10 1.5 1.5 0 010-2.12v-.05l4.87-4.77a1.5 1.5 0 012.1 2.14l-3.88 3.81a23 23 0 015.11 10.48 1.5 1.5 0 01-1.17 1.77zM43.8 38.09a1.55 1.55 0 01-.74-.2l-5.27-3a1.5 1.5 0 111.49-2.61l4 2.32a22.93 22.93 0 0130.53-7.2 1.5 1.5 0 11-1.5 2.6 19.85 19.85 0 00-9.93-2.65 20.05 20.05 0 00-17.25 9.95 1.51 1.51 0 01-1.33.79zM31 31.26A1.5 1.5 0 0129.49 30l-.44-3.28a.94.94 0 00-.74-.8l-3.63-.77-3.63.72a1 1 0 00-.75.8l-.48 3.28a1.5 1.5 0 01-3-.44l.48-3.27a4 4 0 013.13-3.31l1-.2a3.93 3.93 0 01-.7-2.27v-1.73a4 4 0 117.9.05v1.69a3.86 3.86 0 01-.73 2.26l1 .21a4 4 0 013.1 3.34l.44 3.28a1.5 1.5 0 01-1.29 1.69zm-7.24-10.82a1 1 0 00.95 1 1 1 0 00.95-.95v-1.73a1 1 0 00-.94-1 1.11 1.11 0 00-.68.28.93.93 0 00-.28.67z"/><path d="M24.66 38.19a13.92 13.92 0 1113.92-13.92 13.93 13.93 0 01-13.92 13.92zm0-24.84a10.92 10.92 0 1010.92 10.92 10.93 10.93 0 00-10.92-10.92z" fill="#24a31a"/><path class="cls-2" d="M100.58 22.58a1.5 1.5 0 01-1.48-1.3L98.66 18a1 1 0 00-.75-.8l-3.62-.77-3.64.73a1 1 0 00-.75.79l-.48 3.28a1.5 1.5 0 01-3-.43l.48-3.28a4 4 0 013.13-3.3l1-.2a4 4 0 01-.7-2.27v-1.7a4 4 0 011.18-2.79 4.16 4.16 0 012.8-1.14 3.94 3.94 0 013.92 4v1.69a4 4 0 01-.69 2.19l1 .22a4 4 0 013.09 3.34l.44 3.28a1.49 1.49 0 01-1.29 1.68zm-7.22-10.82a1 1 0 001 1 1 1 0 001-.94v-1.74a.94.94 0 00-.94-1 .92.92 0 00-.67.27 1 1 0 00-.29.67z"/><path class="cls-2" d="M94.26 29.51a13.92 13.92 0 1113.92-13.92 13.94 13.94 0 01-13.92 13.92zm0-24.84a10.92 10.92 0 1010.92 10.92A10.93 10.93 0 0094.26 4.67zm22.4 50.04a1.49 1.49 0 01-1.48-1.3l-.44-3.28a.93.93 0 00-.75-.8l-3.62-.77-3.63.73a.93.93 0 00-.76.79l-.47 3.28a1.5 1.5 0 01-3-.43l.47-3.28a4 4 0 013.14-3.31l1-.2a3.92 3.92 0 01-.69-2.26v-1.7a3.89 3.89 0 011.17-2.78 4 4 0 016.73 2.83v1.69a4 4 0 01-.73 2.26l1 .21a4 4 0 013.09 3.34l.44 3.29a1.5 1.5 0 01-1.29 1.68zm-6.25-13.45a.92.92 0 00-.67.27 1 1 0 00-.28.67v1.69a.9.9 0 00.27.68 1 1 0 00.67.28 1.13 1.13 0 00.67-.28.88.88 0 00.29-.67v-1.69a1 1 0 00-1-1z"/><path class="cls-2" d="M110.34 61.65a13.93 13.93 0 1113.92-13.93 13.94 13.94 0 01-13.92 13.93zm0-24.85a10.93 10.93 0 1010.92 10.92 10.93 10.93 0 00-10.92-10.92zM68.92 99a1.51 1.51 0 01-1.49-1.3L67 94.38a1 1 0 00-.75-.81l-3.62-.77-3.63.73a1 1 0 00-.75.8l-.48 3.27a1.5 1.5 0 01-3-.43l.48-3.27a4 4 0 013.13-3.31l1-.2a4 4 0 01-.7-2.27v-1.69a3.94 3.94 0 011.17-2.79 4 4 0 012.8-1.14 4 4 0 013.93 4v1.69a3.94 3.94 0 01-.72 2.26l1 .21A4 4 0 0170 94l.44 3.28A1.51 1.51 0 0169.12 99zm-6.26-13.5a1 1 0 00-.67.28.93.93 0 00-.28.67v1.69a1 1 0 00.95 1 1 1 0 001-.95v-1.73a1 1 0 00-.94-1z"/><path class="cls-2" d="M62.6 105.89A13.92 13.92 0 1176.52 92a13.93 13.93 0 01-13.92 13.89zm0-24.84A10.92 10.92 0 1073.52 92 10.93 10.93 0 0062.6 81.05z"/><path fill="none" d="M0 0h135v135H0z"/><g class="cls-5"><path class="cls-6" d="M54.54 130.48H36.33a1.5 1.5 0 110-3h18.21a1.5 1.5 0 110 3z"/></g><g class="cls-5"><path class="cls-7" d="M65.24 130.48H47a1.5 1.5 0 110-3h18.2a1.5 1.5 0 110 3z"/></g><g class="cls-5"><path class="cls-7" d="M87.18 130.48h-9.11a1.5 1.5 0 010-3h9.11a1.5 1.5 0 110 3z"/></g><g class="cls-5"><path class="cls-7" d="M100 130.48h-.29l-.28-.08-.26-.14a2.11 2.11 0 01-.23-.19 1.5 1.5 0 01-.44-1.06 1.52 1.52 0 01.44-1.06 2.11 2.11 0 01.23-.19 1.26 1.26 0 01.26-.13 1.31 1.31 0 01.28-.09 1.47 1.47 0 01.59 0 1.52 1.52 0 01.28.09 1.26 1.26 0 01.26.13 2.11 2.11 0 01.23.19 1.55 1.55 0 01.43 1.06 1.49 1.49 0 01-1.5 1.5z"/></g><g class="cls-5"><path class="cls-7" d="M81.72 118.26H36.33a1.5 1.5 0 010-3h45.39a1.5 1.5 0 010 3z"/></g><path d="M36.33 118.26a1.36 1.36 0 01-.29 0 1.69 1.69 0 01-.77-.41 1.51 1.51 0 010-2.13 2 2 0 01.23-.18l.26-.14a1.29 1.29 0 01.28-.08 1.42 1.42 0 01.58 0 1.29 1.29 0 01.28.08 1.59 1.59 0 01.26.14 1.41 1.41 0 01.23.18 1.51 1.51 0 010 2.13 1 1 0 01-.23.18 1.08 1.08 0 01-.26.14 1.31 1.31 0 01-.28.09 1.36 1.36 0 01-.29 0z" fill="#1f9254"/><g class="cls-5"><path class="cls-6" d="M100 118.26H74.22a1.5 1.5 0 010-3H100a1.5 1.5 0 010 3z"/></g></g></g></svg>