<svg id="Capa_1" data-name="Capa 1" xmlns="http://www.w3.org/2000/svg" viewBox="0 0 70 70"><defs><style>.cls-2{fill:#fff}</style></defs><path fill="none" d="M0 0h70v70H0z"/><g id="icon_ocenza_desktop_redes_sociales_facebook" data-name="icon ocenza desktop redes sociales facebook"><g id="Grupo_6815" data-name="Grupo 6815"><g id="Grupo_6814" data-name="Grupo 6814"><path class="cls-2" d="M35.12 69.73A34.73 34.73 0 01.33 35c0-1.14.06-2.3.17-3.43a2 2 0 014 .4c-.1 1-.15 2-.15 3A30.73 30.73 0 1021.71 7.32 2 2 0 1120 3.72a34.73 34.73 0 1115.15 66z" id="Trazado_5853" data-name="Trazado 5853"/></g></g><path d="M9.31 25.9a9.11 9.11 0 110-18.21 8.82 8.82 0 016.4 2.59 9 9 0 012.71 6.36v.15a9.1 9.1 0 01-9.1 9.11zm.06-14.21a5.11 5.11 0 100 10.21 5.1 5.1 0 005.1-5.11v-.11a5 5 0 00-5-5z" fill="#19a500" id="Trazado_5854" data-name="Trazado 5854"/><g id="Grupo_6016" data-name="Grupo 6016"><path class="cls-2" d="M34 53a2 2 0 01-2-2V27.67a7.93 7.93 0 017.91-7.91h2.49a2 2 0 010 4h-2.52A3.92 3.92 0 0036 27.67V51a2 2 0 01-2 2z" id="Trazado_4951" data-name="Trazado 4951"/><path class="cls-2" d="M42.48 36h-15.6a2 2 0 110-4h15.6a2 2 0 010 4z" id="Línea_636" data-name="Línea 636"/></g></g></svg>