<svg id="Capa_1" data-name="Capa 1" xmlns="http://www.w3.org/2000/svg" viewBox="0 0 135 135"><defs><style>.cls-1{fill:#fff}.cls-2{fill:#19a500}</style></defs><path class="cls-1" d="M54.22 94.27A1.5 1.5 0 0152.74 93l-1.13-8.5a4.83 4.83 0 00-3.78-4.07L38 78.34l-9.86 2a4.83 4.83 0 00-3.82 4L23.1 92.8a1.5 1.5 0 01-3-.44l1.23-8.45a7.85 7.85 0 016.21-6.54l10.15-2a1.57 1.57 0 01.61 0l10.13 2.15a7.84 7.84 0 016.12 6.62l1.13 8.46a1.49 1.49 0 01-1.29 1.68z"/><path class="cls-1" d="M38.06 76.56a7.82 7.82 0 01-7.78-7.86v-4.37a7.82 7.82 0 017.81-7.77h.05a7.83 7.83 0 017.78 7.86v4.37a7.82 7.82 0 01-7.82 7.77zm-4.82-7.85a4.82 4.82 0 109.64.06v-4.36a4.83 4.83 0 00-4.8-4.85 4.81 4.81 0 00-4.82 4.79zm50.56-3.34a1.5 1.5 0 01-1.48-1.3l-1.13-8.47a4.83 4.83 0 00-3.78-4.07l-9.83-2.09-9.85 2a4.83 4.83 0 00-3.82 4l-1.23 8.46a1.5 1.5 0 01-3-.43L50.94 55a7.84 7.84 0 016.2-6.54l10.16-2a1.51 1.51 0 01.6 0L78 48.59a7.85 7.85 0 016.13 6.62l1.13 8.46A1.51 1.51 0 0184 65.36z"/><path class="cls-1" d="M67.64 47.66a7.82 7.82 0 01-7.77-7.86v-4.37a7.83 7.83 0 017.82-7.77 7.83 7.83 0 017.77 7.87v4.36a7.8 7.8 0 01-7.82 7.77zm-4.82-7.84a4.81 4.81 0 004.79 4.84 4.81 4.81 0 004.82-4.79v-4.36a4.82 4.82 0 00-4.79-4.85 4.83 4.83 0 00-4.82 4.79zM113.38 96a1.5 1.5 0 01-1.48-1.31l-1.13-8.46a4.85 4.85 0 00-3.77-4.09l-9.83-2.08-9.85 2a4.83 4.83 0 00-3.82 4l-1.23 8.45a1.5 1.5 0 01-3-.43l1.23-8.45a7.84 7.84 0 016.2-6.54l10.16-2a1.51 1.51 0 01.6 0l10.13 2.15a7.84 7.84 0 016.13 6.61l1.13 8.47a1.5 1.5 0 01-1.27 1.68z"/><path class="cls-1" d="M97.22 78.28a7.83 7.83 0 01-7.77-7.87v-4.36a7.8 7.8 0 017.82-7.77h.05a7.82 7.82 0 017.77 7.86v4.37a7.83 7.83 0 01-7.87 7.77zm-4.82-7.85a4.82 4.82 0 004.79 4.85 4.83 4.83 0 004.81-4.79v-4.37a4.81 4.81 0 00-4.79-4.84 4.76 4.76 0 00-3.42 1.39 4.81 4.81 0 00-1.43 3.4z"/><path class="cls-1" d="M117.11 75.82a1.86 1.86 0 01-.33 0 1.51 1.51 0 01-1.14-1.82 49.33 49.33 0 00-67.33-56.14 1.5 1.5 0 11-1.17-2.77 52.34 52.34 0 0171.43 59.55 1.49 1.49 0 01-1.46 1.18zm-99.46-1.13a1.51 1.51 0 01-1.47-1.21 53.33 53.33 0 01-1-10.19A52 52 0 0124 34.17a1.5 1.5 0 112.49 1.67 49.13 49.13 0 00-8.34 27.45 49.78 49.78 0 00.94 9.61A1.5 1.5 0 0118 74.66a1.53 1.53 0 01-.35.03z"/><path class="cls-2" d="M35.39 34.69A10.45 10.45 0 1143 31.35a10.44 10.44 0 01-7.61 3.34zm0-17.86a7.43 7.43 0 100 14.86 7.45 7.45 0 007.43-7.43 7.44 7.44 0 00-7.43-7.43zM53.88 124h-18.2a1.5 1.5 0 110-3h18.2a1.5 1.5 0 110 3z"/><path d="M64.59 124H46.38a1.5 1.5 0 010-3h18.21a1.5 1.5 0 010 3zm21.93 0h-9.1a1.5 1.5 0 010-3h9.1a1.5 1.5 0 010 3zm12.8 0a1.49 1.49 0 01-1.38-2.08 1.26 1.26 0 01.13-.26 2.11 2.11 0 01.19-.23 1.56 1.56 0 012.12 0 2.11 2.11 0 01.19.23 2.15 2.15 0 01.14.26c0 .09.06.19.08.28a1.5 1.5 0 01-1.47 1.8zm-18.26-12.21H35.68a1.5 1.5 0 110-3h45.38a1.5 1.5 0 010 3z" fill="#a2ce2a"/><path d="M35.68 111.79a1.66 1.66 0 01-.58-.11 1.58 1.58 0 01-.48-.33 1.47 1.47 0 01-.44-1.06 1.5 1.5 0 01.44-1.06 1.45 1.45 0 01.23-.19 2 2 0 01.25-.14l.29-.08a1.53 1.53 0 011.35.41 1.3 1.3 0 01.18.23.94.94 0 01.14.26 1.31 1.31 0 01.09.28 1.36 1.36 0 010 .29 1.39 1.39 0 01-.12.57 1.34 1.34 0 01-.32.49 1.52 1.52 0 01-1.03.44z" fill="#1f9254"/><path class="cls-2" d="M99.32 111.79H73.56a1.5 1.5 0 010-3h25.76a1.5 1.5 0 010 3z"/><path fill="none" d="M0 0h135v135H0z"/></svg>