<svg version="1.1" id="Capa_1" xmlns="http://www.w3.org/2000/svg" x="0" y="0" viewBox="0 0 120 120" xml:space="preserve"><style>.st1{fill:#ffea27}.st2{fill:#f4d314}.st3{fill:#95a6b1}</style><g id="Capa_1_1_"><path fill="none" d="M0 0h120v120H0z"/><path class="st1" d="M57.1 115.9H38.9c-1.1 0-2-.9-2-2s.9-2 2-2h18.2c1.1 0 2 .9 2 2s-.9 2-2 2zm21.9 0h-9.1c-1.1 0-2-.9-2-2s.9-2 2-2H79c1.1 0 2 .9 2 2s-.9 2-2 2zm12.8 0c-.5 0-1-.2-1.4-.6-.2-.2-.3-.4-.4-.6-.3-.7-.1-1.6.4-2.2.8-.8 2-.8 2.8 0 .8.8.8 2 0 2.8l-.3.3c-.1.1-.2.1-.3.2-.3 0-.5.1-.8.1z"/><path class="st2" d="M46.4 115.9H28.2c-1.1 0-2-.9-2-2s.9-2 2-2h18.2c1.1 0 2 .9 2 2s-.9 2-2 2z"/><path class="st1" d="M73.6 103.6H28.2c-1.1 0-2-.9-2-2s.9-2 2-2h45.4c1.1 0 2 .9 2 2s-.9 2-2 2z"/><path class="st2" d="M28.2 103.6c-.5 0-1-.2-1.4-.6-.2-.2-.3-.4-.4-.7-.1-.2-.2-.5-.1-.8 0-.5.2-1 .6-1.4l.3-.2c.1-.1.2-.1.3-.2.1-.1.3-.1.4-.1.3-.1.5-.1.8 0 .1 0 .3.1.4.1.1 0 .2.1.4.2.1.1.2.2.3.2.1.1.2.2.2.3.1.1.1.2.2.3 0 .1.1.2.1.4v.4c0 .3-.1.5-.1.8-.1.2-.3.5-.4.7-.6.4-1.1.6-1.6.6zm63.6 0H66.1c-1.1 0-2-.9-2-2s.9-2 2-2h25.8c1.1 0 2 .9 2 2s-1 2-2.1 2zM21.4 69.5c-3.7 0-7.1-2.2-8.6-5.5-2.2-4.8-.1-10.4 4.7-12.6s10.4-.1 12.6 4.7c2.2 4.8.1 10.4-4.7 12.6-1.3.5-2.6.8-4 .8zm0-15c-.8 0-1.6.2-2.3.5-2.8 1.3-4 4.5-2.7 7.3.6 1.3 1.7 2.3 3.1 2.8 2.8 1.1 6-.4 7.1-3.2.5-1.4.5-2.9-.2-4.2-.6-1.3-1.7-2.4-3.1-2.9-.6-.2-1.2-.3-1.9-.3z"/><path class="st3" d="M102.7 91.6H21.4c-1.1 0-2-.9-2-2V73.8c-.2-1.1.5-2.1 1.6-2.3s2.1.5 2.3 1.6v14.5h77.3V22.7H23.4v23.8c.2 1.1-.5 2.1-1.6 2.3s-2.1-.5-2.3-1.6V20.8c0-1.1.9-2 2-2h81.2c1.1 0 2 .9 2 2v68.8c0 1.1-.9 2-2 2z"/><path class="st3" d="M46.8 65.9H35.4c-1.1-.2-1.8-1.3-1.6-2.3.2-.8.8-1.4 1.6-1.6h11.5c1.1-.2 2.1.5 2.3 1.6.2 1.1-.5 2.1-1.6 2.3h-.8zm21 0H56.3c-1.1-.2-1.8-1.3-1.6-2.3.2-.8.8-1.4 1.6-1.6h11.5c1.1-.2 2.1.5 2.3 1.6.2 1.1-.5 2.1-1.6 2.3h-.7zm20.9 0H77.3c-1.1.2-2.1-.5-2.3-1.6-.2-1.1.5-2.1 1.6-2.3h12.2c1.1.2 1.8 1.3 1.6 2.3-.2.8-.9 1.4-1.7 1.6zM46.8 79.3H35.4c-1.1-.2-1.8-1.3-1.6-2.3.2-.8.8-1.4 1.6-1.6h11.5c1.1-.2 2.1.5 2.3 1.6s-.5 2.1-1.6 2.3c-.3.1-.5.1-.8 0zm21 0H56.3c-1.1-.2-1.8-1.3-1.6-2.3.2-.8.8-1.4 1.6-1.6h11.5c1.1-.2 2.1.5 2.3 1.6s-.5 2.1-1.6 2.3c-.2.1-.5.1-.7 0zm20.9 0H77.3c-1.1.2-2.1-.5-2.3-1.6s.5-2.1 1.6-2.3h12.2c1.1.2 1.8 1.3 1.6 2.3-.2.8-.9 1.5-1.7 1.6zM46.8 52.5H35.4c-1.1-.2-1.8-1.3-1.6-2.3.2-.8.8-1.4 1.6-1.6h11.5c1.1-.2 2.1.5 2.3 1.6s-.5 2.1-1.6 2.3h-.8zm21 0H56.3c-1.1-.2-1.8-1.3-1.6-2.3.2-.8.8-1.4 1.6-1.6h11.5c1.1-.2 2.1.5 2.3 1.6s-.5 2.1-1.6 2.3h-.7zm20.9 0H77.3c-1.1.2-2.1-.5-2.3-1.6s.5-2.1 1.6-2.3h12.2c1.1.2 1.8 1.3 1.6 2.3-.2.8-.9 1.4-1.7 1.6zm14-11.2H22.6c-1.1.2-2.1-.5-2.3-1.6s.5-2.1 1.6-2.3h80.8c1.1.2 1.8 1.3 1.6 2.3-.2.8-.8 1.4-1.6 1.6zM35.4 29.7c-1.1 0-2-.9-2-2V13.8c-.2-1.1.5-2.1 1.6-2.3 1.1-.2 2.1.5 2.3 1.6v14.6c0 1.1-.9 2-1.9 2zm18.6 0c-1.1 0-2-.9-2-2V13.8c-.2-1.1.5-2.1 1.6-2.3 1.1-.2 2.1.5 2.3 1.6v14.6c0 1.1-.8 2-1.9 2zm18.6 0c-1.1 0-2-.9-2-2V13.8c-.2-1.1.5-2.1 1.6-2.3 1.1-.2 2.1.5 2.3 1.6v14.6c0 1.1-.8 2-1.9 2zm18.6.3c-1.1 0-2-.9-2-2V14.1c-.2-1.1.5-2.1 1.6-2.3 1.1-.2 2.1.5 2.3 1.6V28c0 1.1-.8 2-1.9 2z"/></g></svg>