<svg xmlns="http://www.w3.org/2000/svg" viewBox="0 0 135 135"><defs><style>.cls-2{fill:#28347d}.cls-3{fill:#19a500}.cls-5{mix-blend-mode:multiply}.cls-6{fill:#a2ce2a}</style></defs><g style="isolation:isolate"><g id="Capa_1" data-name="Capa 1"><path class="cls-2" d="M54.22 102.36a1.5 1.5 0 01-1.48-1.3l-1.13-8.46a4.83 4.83 0 00-3.78-4.08L38 86.43l-9.85 2a4.83 4.83 0 00-3.83 4l-1.23 8.45a1.5 1.5 0 01-3-.43L21.36 92a7.83 7.83 0 016.21-6.54l10.15-2a1.4 1.4 0 01.61 0l10.13 2.15a7.82 7.82 0 016.12 6.61l1.13 8.46a1.49 1.49 0 01-1.29 1.69z"/><path class="cls-2" d="M38.06 84.66a7.84 7.84 0 01-7.78-7.87v-4.36a7.82 7.82 0 1115.64.09v4.36a7.82 7.82 0 01-7.82 7.78zm0-17a4.82 4.82 0 00-4.82 4.79v4.37A4.81 4.81 0 0038 81.66a4.83 4.83 0 004.82-4.8V72.5a4.84 4.84 0 00-4.8-4.85zm-6.32 9.14zm52.06-3.34a1.49 1.49 0 01-1.48-1.3l-1.13-8.46a4.84 4.84 0 00-3.78-4.08l-9.83-2.08-9.85 2a4.83 4.83 0 00-3.82 4L52.68 72a1.5 1.5 0 01-3-.43l1.23-8.45a7.83 7.83 0 016.2-6.54l10.16-2a1.35 1.35 0 01.6 0L78 56.69a7.83 7.83 0 016.13 6.61l1.13 8.47A1.5 1.5 0 0184 73.45z"/><path class="cls-2" d="M67.64 55.76a7.82 7.82 0 01-7.77-7.87v-4.36a7.84 7.84 0 017.82-7.78 7.83 7.83 0 017.77 7.87v4.36a7.84 7.84 0 01-7.82 7.78zm0-17a4.84 4.84 0 00-4.82 4.8v4.36a4.81 4.81 0 004.79 4.85A4.84 4.84 0 0072.46 48v-4.37a4.83 4.83 0 00-4.79-4.85zm-6.32 9.14zm52.06 56.18a1.51 1.51 0 01-1.49-1.3l-1.12-8.47a4.83 4.83 0 00-3.77-4.07l-9.83-2.09-9.85 2a4.83 4.83 0 00-3.82 4l-1.23 8.45a1.5 1.5 0 11-3-.43l1.23-8.46a7.84 7.84 0 016.2-6.54l10.15-2a1.57 1.57 0 01.61 0l10.13 2.15a7.85 7.85 0 016.13 6.62l1.13 8.46a1.51 1.51 0 01-1.29 1.69z"/><path class="cls-2" d="M97.22 86.37a7.82 7.82 0 01-7.77-7.86v-4.37a7.82 7.82 0 017.82-7.77h.05a7.83 7.83 0 017.77 7.87v4.36a7.83 7.83 0 01-7.87 7.77zm-4.82-7.84a4.81 4.81 0 004.79 4.84 4.83 4.83 0 004.81-4.79v-4.36a4.82 4.82 0 00-4.79-4.85 4.81 4.81 0 00-4.82 4.79z"/><path class="cls-2" d="M117.11 83.91a1.24 1.24 0 01-.33 0 1.5 1.5 0 01-1.14-1.78A49.34 49.34 0 0048.31 26a1.5 1.5 0 11-1.17-2.76 52.34 52.34 0 0172.67 48.2 52.53 52.53 0 01-1.24 11.34 1.49 1.49 0 01-1.46 1.13zm-99.46-1.13a1.5 1.5 0 01-1.47-1.21 53.31 53.31 0 01-1-10.18A52 52 0 0124 42.27a1.5 1.5 0 112.49 1.67 49.1 49.1 0 00-8.34 27.45 49.68 49.68 0 00.94 9.6A1.5 1.5 0 0118 82.75a1.53 1.53 0 01-.35.03z"/><path class="cls-3" d="M35.39 42.78A10.43 10.43 0 1143 39.45a10.44 10.44 0 01-7.61 3.33zm0-17.86a7.43 7.43 0 000 14.86 7.45 7.45 0 007.43-7.43 7.45 7.45 0 00-7.43-7.43z"/><path fill="none" d="M0 0h135v135H0z"/><g class="cls-5"><path class="cls-3" d="M54.54 130.48H36.33a1.5 1.5 0 110-3h18.21a1.5 1.5 0 110 3z"/></g><g class="cls-5"><path class="cls-6" d="M65.24 130.48H47a1.5 1.5 0 110-3h18.2a1.5 1.5 0 110 3z"/></g><g class="cls-5"><path class="cls-6" d="M87.18 130.48h-9.11a1.5 1.5 0 010-3h9.11a1.5 1.5 0 110 3z"/></g><g class="cls-5"><path class="cls-6" d="M100 130.48h-.29l-.28-.08-.26-.14a2.11 2.11 0 01-.23-.19 1.41 1.41 0 01-.18-.23 1.23 1.23 0 01-.14-.25 1.61 1.61 0 01-.09-.29 1.36 1.36 0 010-.29 1.43 1.43 0 010-.29 1.61 1.61 0 01.23-.54 2 2 0 01.18-.23 2.11 2.11 0 01.23-.19 1.26 1.26 0 01.26-.13 1.52 1.52 0 01.28-.09 1.49 1.49 0 011.35.41 1.37 1.37 0 01.19.23 1.3 1.3 0 01.14.26.9.9 0 01.08.28 1.43 1.43 0 010 .29 1.36 1.36 0 010 .29 1 1 0 01-.08.29 1.23 1.23 0 01-.14.25 1.06 1.06 0 01-.19.23 1.48 1.48 0 01-1.06.41z"/></g><g class="cls-5"><path class="cls-6" d="M81.72 118.26H36.33a1.5 1.5 0 010-3h45.39a1.5 1.5 0 010 3z"/></g><path d="M36.33 118.26a1.5 1.5 0 01-1.5-1.5 1.48 1.48 0 01.44-1.06 1.55 1.55 0 012.12 0 1.5 1.5 0 01.44 1.06 1.5 1.5 0 01-1.5 1.5z" fill="#1f9254"/><g class="cls-5"><path class="cls-3" d="M100 118.26H74.22a1.5 1.5 0 010-3H100a1.5 1.5 0 010 3z"/></g></g></g></svg>