<svg id="Capa_1" data-name="Capa 1" xmlns="http://www.w3.org/2000/svg" viewBox="0 0 70 70"><defs><style>.cls-2{fill:#fff}</style></defs><path fill="none" d="M0 0h70v70H0z"/><g id="icon_ocenza_desktop_redes_sociales_instagram" data-name="icon ocenza desktop redes sociales instagram"><g id="Grupo_6813" data-name="Grupo 6813"><g id="Grupo_6812" data-name="Grupo 6812"><path class="cls-2" d="M35.12 69.73A34.73 34.73 0 01.33 35c0-1.14.06-2.3.17-3.43a2 2 0 014 .4c-.1 1-.15 2-.15 3A30.73 30.73 0 1021.71 7.32 2 2 0 1120 3.72a34.73 34.73 0 1115.15 66z" id="Trazado_5851" data-name="Trazado 5851"/></g></g><path d="M9.31 25.9a9.11 9.11 0 110-18.21 8.83 8.83 0 016.4 2.59 9 9 0 012.71 6.36v.15a9.1 9.1 0 01-9.1 9.11zm.06-14.21a5.11 5.11 0 100 10.21 5.1 5.1 0 005.1-5.11v-.11a5 5 0 00-5-5z" fill="#19a500" id="Trazado_5852" data-name="Trazado 5852"/><path class="cls-2" d="M42 50.14H28.12a8.21 8.21 0 01-8.2-8.2V28.08a8.19 8.19 0 018.19-8.21H42a8.21 8.21 0 018.2 8.2v13.87a8.21 8.21 0 01-8.2 8.2zM28.11 23.87a4.22 4.22 0 00-4.19 4.21v13.86a4.21 4.21 0 004.2 4.2H42a4.2 4.2 0 004.2-4.2V28.07a4.2 4.2 0 00-4.2-4.2z" id="Rectángulo_1820" data-name="Rectángulo 1820"/><path class="cls-2" d="M35.05 41a6 6 0 116-6 6 6 0 01-6 6zm0-8.06a2 2 0 102 2 2 2 0 00-2-1.94z" id="Elipse_670" data-name="Elipse 670"/></g></svg>