<svg xmlns="http://www.w3.org/2000/svg" viewBox="0 0 120 120"><defs><style>.cls-3{fill:#28347d}.cls-4{mix-blend-mode:multiply}.cls-5{fill:#24a31a}.cls-6{fill:#a2ce2a}</style></defs><g style="isolation:isolate"><g id="Capa_1" data-name="Capa 1"><path fill="none" d="M0 0h120v120H0z"/><path class="cls-3" d="M55.38 61.37a1.53 1.53 0 01-1.07-.44 1.51 1.51 0 010-2.12L61.17 52a1.51 1.51 0 012.12 0 1.49 1.49 0 010 2.12l-6.85 6.86a1.53 1.53 0 01-1.06.39z"/><path class="cls-3" d="M85.2 66.15A29.14 29.14 0 11114.56 37 29.28 29.28 0 0185.2 66.15zm0-55.28A26.14 26.14 0 10111.56 37 26.28 26.28 0 0085.2 10.87z"/><path class="cls-3" d="M99.4 54.36a3.11 3.11 0 01-2.23-.92l-11-10.95A13.77 13.77 0 1190.66 38l11 11a3.15 3.15 0 01-2.23 5.38zM98.58 52a1.2 1.2 0 001.64 0 1.16 1.16 0 000-1.64l-4.79-4.76-1.64 1.63L98.58 52zm-10.8-10.7l4.58 4.54L94 44.18l-4.55-4.56c-.25.29-.52.58-.8.86a11.52 11.52 0 01-.87.82zM78.93 19a11.77 11.77 0 108.33 20.1 12 12 0 001.27-1.5l.06-.09A11.77 11.77 0 0078.93 19zM79 36.5a5.49 5.49 0 01-.58 0 11.53 11.53 0 01-8.73-4.67 1 1 0 010-1.19 11.49 11.49 0 018.71-4.67 4.82 4.82 0 011.2 0 11.49 11.49 0 018.71 4.67 1 1 0 010 1.19 11.53 11.53 0 01-8.73 4.67 5.49 5.49 0 01-.58 0zm-.42-2h.84a3.3 3.3 0 000-6.55h-.86a3.3 3.3 0 000 6.55zm-6.8-3.28a9.47 9.47 0 002.28 1.92 5.27 5.27 0 010-3.83 9.66 9.66 0 00-2.29 1.89zm12.16-1.91a5.27 5.27 0 010 3.83 9.66 9.66 0 002.28-1.92 9.86 9.86 0 00-2.29-1.93zM65 91.09a1.51 1.51 0 01-1.49-1.3l-2-14.45a9.33 9.33 0 00-7.34-7.82l-17-3.52-17 3.51a9.32 9.32 0 00-7.33 7.82l-2 14.45a1.5 1.5 0 01-3-.41l2-14.45a12.33 12.33 0 019.7-10.35L36.87 61H37a12.32 12.32 0 01-12.08-12.3v-7.46a12.3 12.3 0 1124.6 0v7.45A12.32 12.32 0 0137.38 61h.09l17.33 3.58a12.34 12.34 0 019.7 10.35l2 14.45a1.49 1.49 0 01-1.28 1.69zM37.17 31.94a9.31 9.31 0 00-9.3 9.3v7.45a9.3 9.3 0 1018.6 0v-7.45a9.31 9.31 0 00-9.3-9.3z"/><g class="cls-4"><path class="cls-5" d="M24.23 112.13H6.94a1.5 1.5 0 110-3h17.29a1.5 1.5 0 010 3z"/></g><g class="cls-4"><path class="cls-6" d="M34.4 112.13H17.11a1.5 1.5 0 010-3H34.4a1.5 1.5 0 110 3z"/></g><g class="cls-4"><path class="cls-6" d="M55.24 112.13h-8.65a1.5 1.5 0 010-3h8.65a1.5 1.5 0 110 3z"/></g><g class="cls-4"><path class="cls-6" d="M67.4 112.13a1.5 1.5 0 01-1.06-.44 1.52 1.52 0 01-.44-1.06 1.48 1.48 0 01.44-1.06 1.55 1.55 0 012.12 0 1.48 1.48 0 01.44 1.06 1.52 1.52 0 01-.44 1.06 1.5 1.5 0 01-1.06.44z"/></g><g class="cls-4"><path class="cls-6" d="M50.05 100.51H6.94a1.5 1.5 0 110-3h43.11a1.5 1.5 0 010 3z"/></g><path d="M6.94 100.51a1.52 1.52 0 01-1.39-.93 1.56 1.56 0 01-.11-.58 1.52 1.52 0 01.44-1A1.55 1.55 0 018 98a1.52 1.52 0 01.44 1 1.39 1.39 0 01-.12.57 1.43 1.43 0 01-.32.49 1.52 1.52 0 01-1.06.45z" fill="#1f9254"/><g class="cls-4"><path class="cls-5" d="M67.4 100.51H42.93a1.5 1.5 0 110-3H67.4a1.5 1.5 0 010 3z"/></g></g></g></svg>