<svg xmlns="http://www.w3.org/2000/svg" viewBox="0 0 120 120"><defs><style>.cls-3{fill:#28347d}.cls-4{mix-blend-mode:multiply}.cls-5{fill:#24a31a}.cls-6{fill:#a2ce2a}</style></defs><g style="isolation:isolate"><g id="Capa_1" data-name="Capa 1"><path fill="none" d="M0 0h120v120H0z"/><path class="cls-3" d="M55.38 61.7a1.5 1.5 0 01-1.06-2.56l6.85-6.86a1.51 1.51 0 012.12 0 1.49 1.49 0 010 2.12l-6.85 6.86a1.53 1.53 0 01-1.06.44z"/><path class="cls-3" d="M85.2 66.48a29.14 29.14 0 1129.36-29.14A29.28 29.28 0 0185.2 66.48zm0-55.28a26.14 26.14 0 1026.36 26.14A26.28 26.28 0 0085.2 11.2z"/><path class="cls-3" d="M101.21 50.44h-34.5a1 1 0 010-2h34.5a1 1 0 010 2zm-34.5-6.27a1 1 0 01-.71-.29 1 1 0 010-1.41l7.27-7.3a1 1 0 011.15-.2l10.13 5 15.76-17.47a1 1 0 011.42-.07 1 1 0 01.07 1.41l-16.27 18a1 1 0 01-1.18.23l-10.17-5-6.76 6.8a1 1 0 01-.71.3z"/><path class="cls-3" d="M74 38.89a3 3 0 113-3 3 3 0 01-3 3zm0-4a1 1 0 101 1 1 1 0 00-1-1.03z"/><path class="cls-3" d="M74 38.89a3 3 0 113-3 3 3 0 01-3 3zm0-4a1 1 0 101 1 1 1 0 00-1-1.03zm10.79 9.28a3 3 0 113-3 3 3 0 01-3 3zm0-4a1 1 0 101 1 1 1 0 00-1-1.03z"/><path class="cls-3" d="M84.79 44.17a3 3 0 113-3 3 3 0 01-3 3zm0-4a1 1 0 101 1 1 1 0 00-1-1.03z"/><path class="cls-3" d="M95.61 50.44a1 1 0 01-1-1V29.23a1 1 0 012 0v20.21a1 1 0 01-1 1zm-10.82 0a1 1 0 01-1-1v-6.25a1 1 0 012 0v6.25a1 1 0 01-1 1zm-10.79 0a1 1 0 01-1-1V37.89a1 1 0 012 0v11.55a1 1 0 01-1 1zm27.23-22.93a1 1 0 01-1-1l-.11-2.35-2.34.12a1 1 0 01-1.05-1 1 1 0 011-1l3.34-.16a1 1 0 011 .95l.16 3.34a1 1 0 01-.95 1.05zM65 90.81a1.51 1.51 0 01-1.48-1.3l-2-14.45a9.33 9.33 0 00-7.34-7.82l-17-3.51-17 3.51a9.32 9.32 0 00-7.33 7.82l-2 14.45a1.5 1.5 0 01-3-.41l2-14.45a12.33 12.33 0 019.7-10.35l17.33-3.57h.09a12.31 12.31 0 01-12.09-12.3V41a12.3 12.3 0 1124.6 0v7.45a12.32 12.32 0 01-12.09 12.3h.09L54.8 64.3a12.34 12.34 0 019.7 10.35l2 14.45a1.49 1.49 0 01-1.28 1.69zM37.17 31.66a9.31 9.31 0 00-9.3 9.3v7.45a9.3 9.3 0 1018.6 0V41a9.31 9.31 0 00-9.3-9.34z"/><g class="cls-4"><path class="cls-5" d="M24.23 111.84H6.94a1.5 1.5 0 110-3h17.29a1.5 1.5 0 010 3z"/></g><g class="cls-4"><path class="cls-6" d="M34.4 111.84H17.11a1.5 1.5 0 010-3H34.4a1.5 1.5 0 110 3z"/></g><g class="cls-4"><path class="cls-6" d="M55.24 111.84h-8.65a1.5 1.5 0 010-3h8.65a1.5 1.5 0 110 3z"/></g><g class="cls-4"><path class="cls-6" d="M67.4 111.85a1.47 1.47 0 01-1.06-.45 1.37 1.37 0 01-.19-.22 2.15 2.15 0 01-.14-.26c0-.09-.06-.19-.08-.28a1.53 1.53 0 010-.3 1.5 1.5 0 010-.29c0-.09 0-.19.08-.28a2.15 2.15 0 01.14-.26 2.11 2.11 0 01.19-.23 1.52 1.52 0 011.35-.4.9.9 0 01.31.12 1.3 1.3 0 01.26.14 2 2 0 01.23.18 2.11 2.11 0 01.19.23 1.26 1.26 0 01.13.26 1.43 1.43 0 010 1.15 1.26 1.26 0 01-.13.26 1.76 1.76 0 01-.42.41 1.61 1.61 0 01-.54.23 1.36 1.36 0 01-.32-.01z"/></g><g class="cls-4"><path class="cls-6" d="M50.05 100.23H6.94a1.5 1.5 0 110-3h43.11a1.5 1.5 0 010 3z"/></g><path d="M6.94 100.23a1.53 1.53 0 01-.3 0l-.28-.08a2 2 0 01-.25-.14 1.57 1.57 0 01-.42-.42 2.15 2.15 0 01-.14-.26 2.29 2.29 0 01-.08-.33 1.36 1.36 0 010-.29 1.52 1.52 0 01.44-1.06 1.45 1.45 0 01.23-.19 2 2 0 01.25-.14l.28-.08a1.52 1.52 0 011.33.43 1.3 1.3 0 01.18.23.94.94 0 01.14.26 1.31 1.31 0 01.09.28 1.42 1.42 0 010 .58 1.31 1.31 0 01-.09.28.94.94 0 01-.14.26 1 1 0 01-.18.23 1.52 1.52 0 01-1.06.44z" fill="#1f9254"/><g class="cls-4"><path class="cls-5" d="M67.4 100.23H42.93a1.5 1.5 0 110-3H67.4a1.5 1.5 0 010 3z"/></g></g></g></svg>