<svg xmlns="http://www.w3.org/2000/svg" viewBox="0 0 120 120"><defs><style>.cls-3{fill:#28347d}.cls-4{mix-blend-mode:multiply}.cls-5{fill:#24a31a}.cls-6{fill:#a2ce2a}</style></defs><g style="isolation:isolate"><g id="Capa_1" data-name="Capa 1"><path fill="none" d="M0 0h120v120H0z"/><path class="cls-3" d="M55.38 61.7a1.53 1.53 0 01-1.07-.44 1.51 1.51 0 010-2.12l6.86-6.86a1.51 1.51 0 012.12 0 1.49 1.49 0 010 2.12l-6.85 6.86a1.53 1.53 0 01-1.06.44zm44.9-10.29H70.13a1 1 0 01-1-1V28.23a1 1 0 011-1h9.14v-.58a2.94 2.94 0 012.93-2.94h6a2.94 2.94 0 012.93 2.94v.58h9.14a1 1 0 011 1v22.18a1 1 0 01-.99 1zm-29.15-2h28.15V36.79l-9.77 2.76v.24a2.9 2.9 0 01-2.9 2.9H83.8a2.9 2.9 0 01-2.9-2.9v-.24l-9.77-2.76zM82.9 38.72v1.07a.9.9 0 00.9.9h2.81a.91.91 0 00.9-.9v-1.07zm-1-2h6.61a1 1 0 011 .76l9.8-2.77v-5.48H71.13v5.48l9.8 2.77a1 1 0 01.97-.76zm-.63-9.49h7.87v-.58a.94.94 0 00-.93-.94h-6a.94.94 0 00-.93.94z"/><path class="cls-3" d="M85.2 66.48a29.14 29.14 0 1129.36-29.14A29.28 29.28 0 0185.2 66.48zm0-55.28a26.14 26.14 0 1026.36 26.14A26.28 26.28 0 0085.2 11.2z"/><path class="cls-3" d="M65 90.81a1.51 1.51 0 01-1.48-1.3l-2-14.45a9.33 9.33 0 00-7.34-7.82l-17-3.51-17 3.51a9.32 9.32 0 00-7.33 7.82l-2 14.45a1.52 1.52 0 01-1.7 1.28 1.5 1.5 0 01-1.33-1.69l2-14.45a12.33 12.33 0 019.7-10.35l17.33-3.57h.09a12.31 12.31 0 01-12.09-12.3V41a12.3 12.3 0 1124.6 0v7.45a12.32 12.32 0 01-12.09 12.3h.09L54.8 64.3a12.34 12.34 0 019.7 10.35l2 14.45a1.49 1.49 0 01-1.28 1.69zM37.17 31.66a9.31 9.31 0 00-9.3 9.3v7.45a9.3 9.3 0 1018.6 0V41a9.31 9.31 0 00-9.3-9.34z"/><g class="cls-4"><path class="cls-5" d="M24.23 111.84H6.94a1.5 1.5 0 110-3h17.29a1.5 1.5 0 010 3z"/></g><g class="cls-4"><path class="cls-6" d="M34.4 111.84H17.11a1.5 1.5 0 010-3H34.4a1.5 1.5 0 110 3z"/></g><g class="cls-4"><path class="cls-6" d="M55.24 111.84h-8.65a1.5 1.5 0 010-3h8.65a1.5 1.5 0 110 3z"/></g><g class="cls-4"><path class="cls-6" d="M67.4 111.85a1.36 1.36 0 01-.29 0 1.61 1.61 0 01-.54-.23 1.76 1.76 0 01-.42-.41 2.15 2.15 0 01-.14-.26c0-.09-.06-.19-.08-.28a1.53 1.53 0 010-.3 1.5 1.5 0 010-.29c0-.09 0-.19.08-.28a2.15 2.15 0 01.14-.26 2.11 2.11 0 01.19-.23 2 2 0 01.23-.18 1.3 1.3 0 01.26-.14.9.9 0 01.28-.08 1.42 1.42 0 01.58 0 .9.9 0 01.31.09 1.3 1.3 0 01.26.14 2 2 0 01.23.18 2.11 2.11 0 01.19.23 1.26 1.26 0 01.13.26 1.43 1.43 0 010 1.15 1.26 1.26 0 01-.13.26 1.37 1.37 0 01-.19.22 1.48 1.48 0 01-1.09.41z"/></g><g class="cls-4"><path class="cls-6" d="M50.05 100.23H6.94a1.5 1.5 0 110-3h43.11a1.5 1.5 0 010 3z"/></g><path d="M6.94 100.23a1.53 1.53 0 01-.3 0l-.28-.08-.26-.15-.22-.19a1.06 1.06 0 01-.19-.23 2.15 2.15 0 01-.14-.26 2.29 2.29 0 01-.08-.32 1.36 1.36 0 010-.29 1.52 1.52 0 01.44-1.06l.22-.19.26-.14.28-.08a1.52 1.52 0 011.33.43 1.5 1.5 0 01.44 1.06 1.36 1.36 0 010 .29 1.31 1.31 0 01-.09.28 1.26 1.26 0 01-.13.26 1.45 1.45 0 01-.19.23 1.52 1.52 0 01-1.09.44z" fill="#1f9254"/><g class="cls-4"><path class="cls-5" d="M67.4 100.23H42.93a1.5 1.5 0 110-3H67.4a1.5 1.5 0 010 3z"/></g></g></g></svg>