<svg xmlns="http://www.w3.org/2000/svg" viewBox="0 0 120 120"><defs><style>.cls-3{fill:#28347d}.cls-4{mix-blend-mode:multiply}.cls-5{fill:#24a31a}.cls-6{fill:#a2ce2a}</style></defs><g style="isolation:isolate"><g id="Capa_1" data-name="Capa 1"><path fill="none" d="M0 0h120v120H0z"/><path class="cls-3" d="M55.38 61.73a1.45 1.45 0 01-1.06-.44 1.49 1.49 0 010-2.12l6.85-6.85a1.5 1.5 0 112.12 2.12l-6.85 6.85a1.48 1.48 0 01-1.06.44z"/><path class="cls-3" d="M85.2 66.51a29.14 29.14 0 1129.36-29.13A29.29 29.29 0 0185.2 66.51zm0-55.27a26.14 26.14 0 1026.36 26.14A26.28 26.28 0 0085.2 11.24z"/><path class="cls-3" d="M9.31 90.81H9.1a1.5 1.5 0 01-1.28-1.71l2-14.45a12.33 12.33 0 019.7-10.35l17.32-3.57h.1a12.31 12.31 0 01-12.09-12.3V41a12.3 12.3 0 1124.6 0v7.45a12.32 12.32 0 01-12.09 12.3h.09L54.8 64.3a12.34 12.34 0 019.7 10.35l2 14.45a1.49 1.49 0 01-1.28 1.69 1.51 1.51 0 01-1.69-1.28l-2-14.45a9.33 9.33 0 00-7.34-7.82l-17-3.51-17 3.51a9.32 9.32 0 00-7.33 7.82l-2 14.45a1.51 1.51 0 01-1.55 1.3zm27.86-59.15a9.31 9.31 0 00-9.3 9.3v7.45a9.3 9.3 0 1018.6 0V41a9.31 9.31 0 00-9.3-9.34z"/><g class="cls-4"><path class="cls-5" d="M24.23 111.84H6.94a1.5 1.5 0 110-3h17.29a1.5 1.5 0 010 3z"/></g><g class="cls-4"><path class="cls-6" d="M34.4 111.84H17.11a1.5 1.5 0 010-3H34.4a1.5 1.5 0 110 3z"/></g><g class="cls-4"><path class="cls-6" d="M55.24 111.84h-8.65a1.5 1.5 0 010-3h8.65a1.5 1.5 0 110 3z"/></g><g class="cls-4"><path class="cls-6" d="M67.4 111.85a1.47 1.47 0 01-1.06-.45 1.37 1.37 0 01-.19-.22 2.15 2.15 0 01-.14-.26c0-.09-.06-.19-.08-.28a1.53 1.53 0 010-.3 1.5 1.5 0 010-.29c0-.09 0-.19.08-.28a2.15 2.15 0 01.14-.26 2.11 2.11 0 01.19-.23 1.41 1.41 0 01.23-.18 1.3 1.3 0 01.26-.14.9.9 0 01.28-.08 1.42 1.42 0 01.58 0 .9.9 0 01.31.12 1.3 1.3 0 01.26.14 2 2 0 01.23.18 2.11 2.11 0 01.19.23 1.26 1.26 0 01.13.26 1.43 1.43 0 010 1.15 1.26 1.26 0 01-.13.26 1.76 1.76 0 01-.42.41 1.61 1.61 0 01-.54.23 1.36 1.36 0 01-.32-.01z"/></g><g class="cls-4"><path class="cls-6" d="M50.05 100.23H6.94a1.5 1.5 0 110-3h43.11a1.5 1.5 0 010 3z"/></g><path d="M6.94 100.23a1.5 1.5 0 01-1.06-.44 1.06 1.06 0 01-.19-.23 2.15 2.15 0 01-.14-.26 1.29 1.29 0 01-.08-.3 1.36 1.36 0 010-.29 1.5 1.5 0 01.44-1.06 1.55 1.55 0 012.12 0 1.52 1.52 0 01.44 1.06 1.36 1.36 0 010 .29 1.61 1.61 0 01-.23.54 1 1 0 01-.18.23 1.52 1.52 0 01-1.12.46z" fill="#1f9254"/><g class="cls-4"><path class="cls-5" d="M67.4 100.23H42.93a1.5 1.5 0 110-3H67.4a1.5 1.5 0 010 3z"/></g><path class="cls-3" d="M84.78 48.47a1.66 1.66 0 01-1.66-1.54L83 45.38l-.72-.17-1 1.12a1.66 1.66 0 01-2.33.16l-1.81-1.57a1.67 1.67 0 01-.56-1.14 1.64 1.64 0 01.4-1.2l1-1.17-.38-.64-1.49.11a1.66 1.66 0 01-1.76-1.55L74.23 37a1.64 1.64 0 011.54-1.77l1.54-.11.18-.72-1.12-1a1.64 1.64 0 01-.16-2.4l1.57-1.81a1.67 1.67 0 012.33-.17l1.18 1 .63-.39-.1-1.48a1.64 1.64 0 01.4-1.2 1.62 1.62 0 011.13-.57l2.4-.17a1.65 1.65 0 011.2.41 1.62 1.62 0 01.57 1.14l.1 1.54.72.17 1-1.11a1.67 1.67 0 012.34-.17l1.81 1.58A1.6 1.6 0 0194 31a1.68 1.68 0 01-.4 1.21l-1 1.16.4.63 1.49-.1a1.67 1.67 0 011.75 1.54l.17 2.39A1.61 1.61 0 0196 39a1.64 1.64 0 01-1.13.56l-1.55.11-.17.72 1.12 1a1.62 1.62 0 01.56 1.13 1.65 1.65 0 01-.4 1.21l-1.57 1.8a1.67 1.67 0 01-2.34.17l-1.17-1-.64.39.11 1.48a1.67 1.67 0 01-1.54 1.77l-2.39.17zm.34-1.68zm-2.83-3.59a1.7 1.7 0 01.71.14l.64.21A1.93 1.93 0 0185 45.24l.08 1.21 1.71-.12-.09-1.21a2 2 0 011.17-1.89l.63-.31a1.93 1.93 0 012.15.23l.91.8 1.12-1.29-.91-.79a2 2 0 01-.5-2.17l.21-.65a2 2 0 011.69-1.37l1.21-.08-.12-1.7-1.2.08a2 2 0 01-1.9-1.18l-.31-.61a2 2 0 01.24-2.19l.8-.91L90.6 30l-.79.91a2 2 0 01-2.18.5L87 31.2a2 2 0 01-1.36-1.69l-.09-1.21-1.7.12.08 1.21a2 2 0 01-1.18 1.89l-.61.31A1.94 1.94 0 0180 31.6l-.92-.8-1.12 1.29.91.79a2 2 0 01.52 2.17l-.22.66a2 2 0 01-1.71 1.36l-1.19.08.12 1.71 1.2-.09a2 2 0 011.9 1.17l.31.62a2 2 0 01-.24 2.16l-.8.91L80 44.75l.8-.91a1.94 1.94 0 011.49-.64zm4.85 3.1zM79.8 45zm.49 0zm-1.77-1.09zm14.43-1zm0-.49zm-16.56-3.23zm18.35-1.61zm-18.83-.4zm.31-.38zm1.5-4.45zm14.43-1zm-6.84 10.19a4.16 4.16 0 11.3 0h-.3zm.23-1zm-.22-5.32h-.15a2.16 2.16 0 10.3 4.31 2.16 2.16 0 00-.15-4.32zM69.19 46.47a1 1 0 01-1-1V30.16a1 1 0 112 0v15.31a1 1 0 01-1 1z"/><path class="cls-3" d="M72.06 34a1 1 0 01-.71-.3l-2.16-2.16L67 33.73a1 1 0 01-1.41-1.41l2.86-2.87a1 1 0 011.42 0l2.86 2.87a1 1 0 010 1.41 1 1 0 01-.67.27zm29.16 12.47a1 1 0 01-1-1V30.16a1 1 0 112 0v15.31a1 1 0 01-1 1z"/><path class="cls-3" d="M104.08 34a1 1 0 01-.7-.3l-2.16-2.16-2.16 2.16a1 1 0 01-1.41 0 1 1 0 010-1.41l2.86-2.87a1 1 0 011.42 0l2.86 2.87a1 1 0 010 1.41 1 1 0 01-.71.3z"/></g></g></svg>