<svg xmlns="http://www.w3.org/2000/svg" viewBox="0 0 120 120"><defs><style>.cls-3{fill:#28347d}.cls-4{mix-blend-mode:multiply}.cls-5{fill:#24a31a}.cls-6{fill:#a2ce2a}</style></defs><g style="isolation:isolate"><g id="Capa_1" data-name="Capa 1"><path fill="none" d="M0 0h120v120H0z"/><path class="cls-3" d="M55.38 61.65a1.5 1.5 0 01-1.06-2.56l6.85-6.86a1.51 1.51 0 012.12 0 1.49 1.49 0 010 2.12l-6.85 6.86a1.53 1.53 0 01-1.06.44z"/><path class="cls-3" d="M85.2 66.43a29.14 29.14 0 1129.36-29.14A29.29 29.29 0 0185.2 66.43zm0-55.28a26.14 26.14 0 1026.36 26.14A26.29 26.29 0 0085.2 11.15z"/><path class="cls-3" d="M95.43 56.1H75a1 1 0 01-1-1V30.62a1 1 0 011-1h3v-9.88a1 1 0 01.45-.84 1 1 0 011-.08l1.95.86 1.3-.92a1 1 0 011-.08l2 1 1.64-1a1 1 0 011 0l1.55.84 1.66-.78a1 1 0 011 .06 1 1 0 01.47.84v9.98h2.49a1 1 0 011 1V55.1a1 1 0 01-1.08 1zM76 54.1h18.43V31.62H76zm4-24.48h10.94v-8.47l-.69.33a1 1 0 01-.91 0l-1.48-.8-1.62 1a1 1 0 01-1 0l-1.93-1-1.27.9a1 1 0 01-1 .1L80 21.27zm12.25 22.64h-1.93a1 1 0 010-2h1.93a1 1 0 010 2zm-5.68 0h-1.94a1 1 0 010-2h1.94a1 1 0 010 2zm-6 0h-1.98a1 1 0 010-2h1.94a1 1 0 010 2zm11.72-3.85h-1.97a1 1 0 010-2h1.93a1 1 0 010 2zm-5.68 0h-1.98a1 1 0 010-2h1.94a1 1 0 010 2zm-6 0h-2.02a1 1 0 010-2h1.94a1 1 0 010 2zm11.72-3.86h-2.01a1 1 0 010-2h1.93a1 1 0 010 2zm-5.68 0h-2.02a1 1 0 010-2h1.94a1 1 0 010 2zm-6 0h-2.06a1 1 0 010-2h1.94a1 1 0 010 2zM91.94 40H79a1 1 0 01-1-1v-5a1 1 0 011-1h12.94a1 1 0 011 1v5a1 1 0 01-1 1zM80 38h10.94v-3H80zm8.5-11.09h-6a1 1 0 010-2h6a1 1 0 010 2zM65 90.81a1.51 1.51 0 01-1.49-1.3l-2-14.45a9.33 9.33 0 00-7.34-7.82l-17-3.51-17 3.51a9.32 9.32 0 00-7.33 7.82l-2 14.45a1.5 1.5 0 11-3-.41l2-14.45a12.33 12.33 0 019.7-10.35l17.33-3.57h.09a12.31 12.31 0 01-12.09-12.3V41a12.3 12.3 0 1124.6 0v7.45a12.32 12.32 0 01-12.09 12.3h.09L54.8 64.3a12.34 12.34 0 019.7 10.35l2 14.45a1.49 1.49 0 01-1.28 1.69zM37.17 31.66a9.31 9.31 0 00-9.3 9.3v7.45a9.3 9.3 0 1018.6 0V41a9.31 9.31 0 00-9.3-9.34z"/><g class="cls-4"><path class="cls-5" d="M24.23 111.84H6.94a1.5 1.5 0 110-3h17.29a1.5 1.5 0 010 3z"/></g><g class="cls-4"><path class="cls-6" d="M34.4 111.84H17.11a1.5 1.5 0 010-3H34.4a1.5 1.5 0 110 3z"/></g><g class="cls-4"><path class="cls-6" d="M55.24 111.84h-8.65a1.5 1.5 0 010-3h8.65a1.5 1.5 0 110 3z"/></g><g class="cls-4"><path class="cls-6" d="M67.4 111.84a1.53 1.53 0 01-1.06-.43 2.11 2.11 0 01-.19-.23 2.15 2.15 0 01-.14-.26c0-.09-.06-.19-.08-.28a1.53 1.53 0 010-.3 1.5 1.5 0 010-.29c0-.09 0-.19.08-.28a2.15 2.15 0 01.14-.26 2.11 2.11 0 01.19-.23 1.57 1.57 0 012.12 0 1.5 1.5 0 01.41 1.36 1.52 1.52 0 01-.09.28 1.26 1.26 0 01-.13.26 2.11 2.11 0 01-.19.23 1.55 1.55 0 01-1.06.43z"/></g><g class="cls-4"><path class="cls-6" d="M50.05 100.23H6.94a1.5 1.5 0 110-3h43.11a1.5 1.5 0 010 3z"/></g><path d="M6.94 100.23a1.36 1.36 0 01-.29 0l-.29-.08-.26-.15-.22-.19a1.5 1.5 0 01-.44-1.06 1.52 1.52 0 01.44-1.06l.22-.19a1.58 1.58 0 01.26-.13 1.4 1.4 0 01.29-.09 1.5 1.5 0 11.29 3z" fill="#1f9254"/><g class="cls-4"><path class="cls-5" d="M67.4 100.23H42.93a1.5 1.5 0 110-3H67.4a1.5 1.5 0 010 3z"/></g></g></g></svg>