<svg xmlns="http://www.w3.org/2000/svg" viewBox="0 0 120 120"><defs><style>.cls-3{fill:#28347d}.cls-4{mix-blend-mode:multiply}.cls-5{fill:#24a31a}.cls-6{fill:#a2ce2a}</style></defs><g style="isolation:isolate"><g id="Capa_1" data-name="Capa 1"><path fill="none" d="M0 0h120v120H0z"/><path class="cls-3" d="M55.38 61.65a1.5 1.5 0 01-1.06-2.56l6.85-6.86a1.51 1.51 0 012.12 0 1.49 1.49 0 010 2.12l-6.85 6.86a1.53 1.53 0 01-1.06.44z"/><path class="cls-3" d="M85.2 66.43a29.14 29.14 0 1129.36-29.14A29.28 29.28 0 0185.2 66.43zm0-55.27a26.14 26.14 0 1026.36 26.13A26.27 26.27 0 0085.2 11.16z"/><path class="cls-3" d="M9.31 90.8H9.1a1.5 1.5 0 01-1.28-1.7l2-14.45a12.33 12.33 0 019.7-10.35l17.33-3.57h.09a12.31 12.31 0 01-12.09-12.3V41a12.3 12.3 0 1124.6 0v7.45a12.32 12.32 0 01-12.09 12.3h.09L54.8 64.3a12.34 12.34 0 019.7 10.35l2 14.45a1.49 1.49 0 01-1.28 1.69 1.51 1.51 0 01-1.69-1.28l-2-14.45a9.33 9.33 0 00-7.34-7.82l-17-3.51-17 3.51a9.32 9.32 0 00-7.33 7.82l-2 14.45a1.49 1.49 0 01-1.55 1.29zm27.86-59.14a9.31 9.31 0 00-9.3 9.3v7.45a9.3 9.3 0 1018.6 0V41a9.31 9.31 0 00-9.3-9.34z"/><g class="cls-4"><path class="cls-5" d="M24.23 111.84H6.94a1.5 1.5 0 110-3h17.29a1.5 1.5 0 010 3z"/></g><g class="cls-4"><path class="cls-6" d="M34.4 111.84H17.11a1.5 1.5 0 010-3H34.4a1.5 1.5 0 110 3z"/></g><g class="cls-4"><path class="cls-6" d="M55.24 111.84h-8.65a1.5 1.5 0 010-3h8.65a1.5 1.5 0 110 3z"/></g><g class="cls-4"><path class="cls-6" d="M67.4 111.84a1.46 1.46 0 01-.58-.11 1.29 1.29 0 01-.48-.33 1.46 1.46 0 01-.44-1.06 1.5 1.5 0 010-.29c0-.09 0-.19.08-.28a2.15 2.15 0 01.14-.26 2.11 2.11 0 01.19-.23 1 1 0 01.23-.18 1.23 1.23 0 01.25-.14 1.52 1.52 0 01.28-.09 1.54 1.54 0 011.36.41 1.52 1.52 0 01.44 1.06 1.5 1.5 0 01-.44 1.06 1.46 1.46 0 01-1.03.44z"/></g><g class="cls-4"><path class="cls-6" d="M50.05 100.23H6.94a1.5 1.5 0 110-3h43.11a1.5 1.5 0 010 3z"/></g><path d="M6.94 100.23a1.5 1.5 0 01-1.06-.44 1.46 1.46 0 01-.44-1.06 1.36 1.36 0 010-.29.9.9 0 01.08-.28 2.15 2.15 0 01.14-.26 1.37 1.37 0 01.19-.23 1.49 1.49 0 011.35-.41 1.31 1.31 0 01.28.09 1.26 1.26 0 01.26.13 2.11 2.11 0 01.23.19 1.52 1.52 0 01.44 1.06A1.5 1.5 0 018 99.79a1.63 1.63 0 01-.49.33 1.56 1.56 0 01-.57.11z" fill="#1f9254"/><g class="cls-4"><path class="cls-5" d="M67.4 100.23H42.93a1.5 1.5 0 110-3H67.4a1.5 1.5 0 010 3z"/></g><path class="cls-3" d="M74.05 52H67a1 1 0 010-2h6.93V39.45H67.4a1 1 0 010-2h6.65a1.86 1.86 0 011.86 1.86v10.8A1.86 1.86 0 0174.05 52zm0-12.52z"/><path class="cls-3" d="M88.33 51.22a1.87 1.87 0 01-1.33-.59l-4.86-5.24A1 1 0 0183.58 44l4.76 5.13a2.51 2.51 0 00.77-1.67 2.54 2.54 0 00-.66-1.86l-5.1-5.6h-8.44a1 1 0 010-2h8.5a1.85 1.85 0 011.38.61l5.15 5.7a4.56 4.56 0 01-.38 6.47 1.86 1.86 0 01-1.23.44zM83.41 40z"/><path class="cls-3" d="M87.41 55.6a1.9 1.9 0 01-.89-.23L78 50.7h-3.06a1 1 0 010-2H78a1.84 1.84 0 01.89.23l8.49 4.63 14.71-9a2.63 2.63 0 00-3-1.24l-9.64 2.58A1 1 0 0189 44l9.64-2.58a4.64 4.64 0 015.36 2.39 1.88 1.88 0 01-.7 2.42l-14.89 9.1a1.84 1.84 0 01-1 .27zm4.23-18.71h-9.13a1 1 0 01-1-1v-9.21a5.25 5.25 0 015.25-5.24h.63a5.25 5.25 0 015.25 5.24v9.21a1 1 0 01-1 1zm-8.13-2h7.13v-8.21a3.25 3.25 0 00-3.25-3.24h-.63a3.25 3.25 0 00-3.25 3.24z"/><path class="cls-3" d="M93.34 36.89H80.63a1 1 0 010-2h12.71a1 1 0 010 2zm-6.46-17.41a1 1 0 01-1-1v-2.87a1 1 0 012 0v2.87a1 1 0 01-1 1zm-7.38 2.94a1 1 0 01-.71-.29l-2-2a1 1 0 111.41-1.41l2 2a1 1 0 010 1.42 1 1 0 01-.7.28zm14.34 0a1 1 0 01-.71-.29 1 1 0 010-1.42l2-2a1 1 0 011.41 1.41l-2 2a1 1 0 01-.7.3zm5.51 7.01h-2.87a1 1 0 010-2h2.87a1 1 0 010 2zm-22.07 0h-2.86a1 1 0 010-2h2.86a1 1 0 010 2z"/><path class="cls-3" d="M86.88 36.89a1 1 0 01-1-1v-6.18a1 1 0 012 0v6.18a1 1 0 01-1 1z"/></g></g></svg>