<svg id="Capa_1" data-name="Capa 1" xmlns="http://www.w3.org/2000/svg" viewBox="0 0 70 70"><defs><style>.cls-2{fill:#fff}</style></defs><path fill="none" d="M0 0h70v70H0z"/><g id="icon_ocenza_desktop_redes_sociales_youtube" data-name="icon ocenza desktop redes sociales youtube"><g id="Grupo_6807" data-name="Grupo 6807"><g id="Grupo_6806" data-name="Grupo 6806"><path class="cls-2" d="M35.12 69.73A34.73 34.73 0 01.33 35c0-1.14.06-2.3.17-3.43a2 2 0 014 .4c-.1 1-.15 2-.15 3A30.73 30.73 0 1021.71 7.32 2 2 0 1120 3.72a34.73 34.73 0 1115.15 66z" id="Trazado_5847" data-name="Trazado 5847"/></g></g><path d="M9.31 25.9a9.11 9.11 0 110-18.21 8.85 8.85 0 016.4 2.59 9 9 0 012.71 6.36v.15a9.1 9.1 0 01-9.1 9.11zm.06-14.21a5.11 5.11 0 100 10.21 5.1 5.1 0 005.1-5.11v-.11a5 5 0 00-5-5z" fill="#19a500" id="Trazado_5848" data-name="Trazado 5848"/><g id="Grupo_6808" data-name="Grupo 6808"><path class="cls-2" d="M43.81 50.38H26.29a10 10 0 01-10-10v-8.75a10 10 0 0110-10h17.52a10 10 0 0110 10v8.76a10 10 0 01-10 9.99zM26.29 25.64a6 6 0 00-6 6v8.76a6 6 0 006 6h17.52a6 6 0 006-6v-8.77a6 6 0 00-6-6z" id="Rectángulo_1821" data-name="Rectángulo 1821"/><path class="cls-2" d="M32.81 42.5a2 2 0 01-1.41-.59 2 2 0 010-2.82L34.47 36l-3.07-3.07a2 2 0 012.83-2.82l4.49 4.49a2 2 0 010 2.82l-4.49 4.49a2 2 0 01-1.42.59z" id="Trazado_4958" data-name="Trazado 4958"/></g></g></svg>