<svg xmlns="http://www.w3.org/2000/svg" viewBox="0 0 536 536"><defs><clipPath id="clip-path"><circle class="cls-1" cx="232.65" cy="69.08" r="51.19"/></clipPath><clipPath id="clip-path-2"><circle class="cls-1" cx="135.83" cy="202.44" r="51.19"/></clipPath><clipPath id="clip-path-3"><circle class="cls-1" cx="259.66" cy="210.08" r="51.19"/></clipPath><style>.cls-1,.cls-12,.cls-9{fill:none}.cls-10,.cls-2{fill:#30d9cb}.cls-3{fill:#fbd80c}.cls-4{fill:#98cdd0}.cls-5{fill:#28b8ce}.cls-6{fill:#fff}.cls-7{fill:#c9e5e7}.cls-8{fill:#1eadfe}.cls-9{stroke:#28347d;stroke-linecap:round;stroke-linejoin:round}.cls-12,.cls-9{stroke-width:1.7px}.cls-10{opacity:.45}.cls-12{stroke:#fff;stroke-miterlimit:10}</style></defs><g id="Figuras_fondo" data-name="Figuras fondo"><path class="cls-1" d="M0-.02h536v536H0z"/><path class="cls-2" d="M104.5 459.46C58.08 397 50.14 350.88 111.34 291.1S167.55 66.86 386.7 167 265.44 676.13 104.5 459.46z"/></g><g id="Parche_color_Chica" data-name="Parche color Chica"><path class="cls-3" d="M410.87 408c2.65 21.45 4.16 42.31 5.65 66.63 0 0-24.55 2.25-44.85 2.65a347.08 347.08 0 01-40.08-1.83c-.51-13.6.21-43.07 1.54-65.33.32-5.33.68-10.26 1.06-14.45l38.33-4.08c3.08 1 5.78 2 8.55 2.92 1.94 11 4.48 19.83 5.78 19.6 1.09-.22 15.87-3.39 21.3-4.56a2.76 2.76 0 002-1.59h.71zm-65.77-3.9a3.9 3.9 0 10-3.89 3.9 3.89 3.89 0 003.89-3.89z"/><path class="cls-3" d="M341.21 400.22a3.9 3.9 0 11-3.9 3.89 3.89 3.89 0 013.9-3.89z"/><path class="cls-4" d="M315 403.51a28.67 28.67 0 0018.16 6.62c-1.33 22.26-2.05 51.73-1.54 65.33 0 0-16.85 0-26.77-2.87 1.86-15.82 7.31-48.49 10.15-69.08z"/><path class="cls-5" d="M315.73 397.64l18.46-2c-.38 4.19-.74 9.12-1.06 14.45a28.67 28.67 0 01-18.13-6.58c.25-2.09.51-4.06.73-5.87z"/><path class="cls-3" d="M299.58 399.36l16.15-1.72c-.22 1.81-.48 3.78-.76 5.87-2.81 20.59-8.26 53.26-10.15 69.08 0 0-4.05-.36-8-1S289.4 470 289.4 470c1.32-14.48 6.93-50.39 9.64-67.31.2-1.19.38-2.29.54-3.28z"/><path class="cls-6" d="M235.27 383.89c1.06 4.11 1.36 9.09 2.74 10.75l-1.76.61c-2.17-2.27-4.35-4.57-4.93-5.37-.85-1.19-1.26-4.82-1.57-6.92s-2.26-14.33-2.44-17.09a2 2 0 01.14-.95c.82-1.95 4.8-1.13 6.05 5.45a1.19 1.19 0 00-.69 1.17 106.9 106.9 0 002.46 12.35z"/><path class="cls-6" d="M249.28 391.33l33.17 9.16a3.15 3.15 0 003-.74l1.17.4a6.18 6.18 0 002.66.3l10.31-1.09c-.16 1-.34 2.09-.54 3.28 0 0-10 .61-15.32.46s-12.15-.88-12.15-.88c-1.07.65-4.93.8-8.72.92s-10.09.19-12.07 1a7.7 7.7 0 01-6.2-.08c-1.64-.87-3.09-.11-4.93.2s-3.4-1.27-4.05-2.49c-2.27-4.27-6.46-11.42-7.37-13a9.69 9.69 0 01-1.18-3.39c-.09-.61-.17-1.29-.24-2.08-.23-2.52-2-16.78-2.14-18.38s2.49-.92 2.78 0a2 2 0 00-.14.95c.18 2.76 2.14 15 2.44 17.09s.72 5.73 1.57 6.92c.58.8 2.76 3.1 4.93 5.37l1.76-.61c-1.38-1.66-1.68-6.64-2.74-10.75a106.9 106.9 0 01-2.46-12.34 1.19 1.19 0 01.69-1.17 2.56 2.56 0 012.86.83 16.68 16.68 0 013.07 6 79.68 79.68 0 012 8.36 6.76 6.76 0 012.5.59c1.51.66 3.6 3.29 5.34 5.17z"/><path class="cls-4" d="M281.48 374.1l1 4.9 3 13.92.84 3.88a3.13 3.13 0 01-3.9 3.69l-33.17-9.16c-1.74-1.88-3.83-4.51-5.31-5.2a6.76 6.76 0 00-2.5-.59 79.68 79.68 0 00-2-8.36 16.68 16.68 0 00-3.07-6 2.56 2.56 0 00-2.86-.83c-1.25-6.58-5.23-7.4-6.05-5.45-.29-.92-2.89-1.6-2.78 0s1.91 15.86 2.14 18.38c.07.79.15 1.47.24 2.08l-25.34-6.31a7 7 0 01-5.14-5.22l-21.49-93.71a3.13 3.13 0 013.25-3.83l77.95 4.75a7 7 0 016.43 5.53l15.64 72.92.63 3 1.08 5 1 4.7zm45.65 14.38l-41.62 4.44-2.98-13.92 44.6 9.48z"/><path class="cls-7" d="M376.83 387.84l-87.65 9.32a6.16 6.16 0 01-2.49-.25l-.34-.11-.84-3.88 41.62-4.44-44.6-9.48-1-4.9a8.38 8.38 0 005.17-.87c.91-.51 2.31-1.52 3.63-2.34l5.34 1.05 7.87 1.53 10.4 2 4.17.82 17.61 3.45 3.55.69 29.37 5.75z"/><path class="cls-4" d="M372.52 391.6l-38.33 4.08-18.46 2-16.15 1.72-10.31 1.09a6.18 6.18 0 01-2.66-.3l-1.17-.4a3.17 3.17 0 00.91-2.95l.34.11a6.16 6.16 0 002.49.25l87.65-9.32v3.3z"/><path class="cls-3" d="M386.63 396.22a93 93 0 011.05 13.87c-.06 2.64-.35 3.88-.79 4-1.3.23-3.84-8.65-5.78-19.6 1.78.59 3.59 1.15 5.55 1.7z"/><path class="cls-3" d="M410.82 392a146.79 146.79 0 01-.43 15 2.72 2.72 0 01-.24.91 2.76 2.76 0 01-2 1.59c-5.43 1.17-20.21 4.34-21.3 4.56.44-.14.73-1.38.79-4a93 93 0 00-1.05-13.87A163 163 0 00381 370.4c-.25-.78-.51-1.52-.77-2.22 2.84 0 18.09.89 24 1.48a7.08 7.08 0 001.66 0c2.11 4.03 4.69 14.98 4.93 22.34z"/><path class="cls-6" d="M305.86 353.1c1.94.35 4.4.83 7 1.35 1.8.36 3.65.73 5.45 1.07 2.09.41 4.08.79 5.77 1.08 4.18.71 8.76 1.45 13.23 2.42 1.86.4 3.71.84 5.49 1.33 1.13.31 2.23.65 3.3 1 6.88 2.29 27.49 7.55 34.88 9a163 163 0 015.65 25.82c-2-.55-3.77-1.11-5.55-1.7-2.77-.91-5.47-1.88-8.55-2.92l4.31-.46v-3.3l-8.22-1.61c-8.92-2.34-20.56-7-28.29-10.16l-3.88-1.55c-1.46-.57-2.62-1-3.38-1.27-3.59 2.1-8.7 1.32-13.66.52a13.5 13.5 0 01-1.32-.3 36.58 36.58 0 01-4.44-1.55c-4.18-1.7-8.37-3.92-8.37-3.92a7 7 0 01-1.09.07c-1.82 0-4.41-.26-5.82-.21a8.87 8.87 0 00-2.11.43 35.68 35.68 0 00-4.31 1.69 14.36 14.36 0 00-1.64.93c-1.32.82-2.72 1.83-3.63 2.34a8.38 8.38 0 01-5.17.87l-.41-1.91-1-4.7-1.08-5-.63-3c2-.69 15.52-5.21 16.95-5.68.82-.27 1.65-.57 2.59-.81a14.64 14.64 0 014.52-.43 32.42 32.42 0 013.41.56z"/><path class="cls-3" d="M368.59 386.22l-29.37-5.75a43.08 43.08 0 011.08-4.41c7.7 3.12 19.37 7.82 28.29 10.16z"/><path class="cls-3" d="M340.3 376.06a43.08 43.08 0 00-1.08 4.41l-3.55-.69s.56-3.75.75-5.27z"/><path class="cls-5" d="M336.42 374.5c-.19 1.52-.75 5.27-.75 5.27l-17.61-3.45v-2.88a13.5 13.5 0 001.32.3c5 .8 10.07 1.58 13.66-.52.76.26 1.96.71 3.38 1.28z"/><path class="cls-3" d="M318.06 373.45v2.88l-4.17-.82s-.2-2.57-.27-3.61a36.58 36.58 0 004.44 1.55z"/><path class="cls-3" d="M305.25 368s4.19 2.22 8.37 3.92c.07 1 .27 3.61.27 3.61l-10.4-2c.4-1.87.67-5.42.67-5.42a7 7 0 001.09-.11z"/><path class="cls-3" d="M298.34 367.84c1.41 0 4 .23 5.82.21s-.27 3.55-.67 5.42l-7.87-1.53s.37-2.08.61-3.66a8.87 8.87 0 012.11-.44zm12.89-71.54c-.82 4.85-1.3 9.17-1.48 11.4-.9 11.38-2.14 24-3.89 45.4a32.42 32.42 0 00-3.45-.51 14.64 14.64 0 00-4.52.43c3.01-13.82 10.02-42.42 13.34-56.72zm103.52-47.73c2.49.82 5.34 1.64 8.63 2.49l2.89.74c5.46 1.4 10.09 2.62 13.75 4.39s6.56 4.29 8.13 8.16c3.33 8.27 5.63 32.46 6.08 44.15.34 8.83-1.26 46.79-2.64 58.59s-1.49 19-2.41 22-7.91 13.42-10.43 15.71-11.24 3.1-15.25 3.1c-3.54 0-10.24.13-12.63.08h-.71a2.72 2.72 0 00.24-.91 146.79 146.79 0 00.43-15c-.24-7.4-2.8-18.35-5-22.4a7.08 7.08 0 01-1.66 0c-5.89-.59-21.14-1.48-24-1.48.26.7.52 1.44.77 2.22-7.39-1.49-28-6.75-34.88-9-1.07-.35-2.17-.69-3.3-1 3.13-25.31 16.48-37.79 27.5-53.35 10.59-14.95 31.11-40.13 31.11-40.13l-7.61-5.39 8.73-.78c1.83-2.86 7.39-13.89 7.39-13.89a146 146 0 004.87 1.7z"/><path class="cls-3" d="M400.34 241.08a29.12 29.12 0 009.58 5.74s-5.56 11-7.39 13.89l-8.73.78 7.61 5.39S380.89 292.06 370.3 307c-11 15.56-24.37 28-27.5 53.35-1.78-.49-3.63-.93-5.49-1.33 2.14-37.46 17.73-50.75 29.2-71.74 3.6-6.59 7.39-13.15 11.08-19.31 8-13.45 15.55-25 19.35-30.8a28.62 28.62 0 003.4 3.91z"/><path class="cls-5" d="M377.59 268c-3.69 6.16-7.48 12.72-11.08 19.31-11.47 21-27.06 34.28-29.2 71.74-4.47-1-9.05-1.71-13.23-2.42-1.69-.29-3.68-.67-5.77-1.08-1-17.93-1.68-31.15 7.84-50.8a268.08 268.08 0 0120.49-34.83c5.66 2.45 21.97 1.39 30.95-1.92z"/><path class="cls-3" d="M343.69 266.42l-9 2.68a171.51 171.51 0 00-16.13 27.51c-7.26 15.68-7.19 34.84-5.68 57.84-2.6-.52-5.06-1-7-1.35 1.75-21.4 3-34 3.89-45.4.18-2.23.66-6.55 1.48-11.4 1.41-8.33 3.83-18.22 7.45-21.74 5.74-5.58 20.56-13.22 27.91-16.71-3.12 3-5.82 5.67-7.12 7z"/><path class="cls-3" d="M346.64 269.89a268.08 268.08 0 00-20.49 34.83c-9.52 19.65-8.82 32.87-7.84 50.8-1.8-.34-3.65-.71-5.45-1.07-1.51-23-1.58-42.16 5.68-57.84a171.51 171.51 0 0116.13-27.51l9-2.68-4.21-1.6c1.3-1.33 4-4 7.12-7 2.25-2.19 4.72-4.54 7-6.72 2.79-2.62 5.35-5 7-6.37a36.78 36.78 0 01-1.88 9.95c-2.83 2.78-7.19 8.22-12.06 15.21z"/><path class="cls-8" d="M360.37 236.2a43.87 43.87 0 01.28 8.52c-1.66 1.41-4.22 3.75-7 6.37-6.4-10.62-10.33-25.64-12-32.46 1.12 1.58 2.19 3 3.08 4.22 3.2 4.35 6.64 11.12 10 12.73a10.31 10.31 0 005.64.62z"/><path class="cls-6" d="M358.77 254.67a36.78 36.78 0 001.88-9.95 43.87 43.87 0 00-.28-8.52 22.81 22.81 0 007.4-2.34c4.24-2.18 18.44-11.72 21.19-15.63.5 1.91 1 3.7 1.52 5.31a47.24 47.24 0 006.46 13.64c-3.8 5.82-11.31 17.35-19.35 30.8-9 3.33-25.29 4.39-30.95 1.91 4.87-6.99 9.23-12.43 12.13-15.22zm11-43.12c-2 3-7.83 5.36-10.33 6a13.82 13.82 0 01-6.67.22 10.05 10.05 0 01-5.31-4.21 138.65 138.65 0 0022.31-2.01z"/><path class="cls-8" d="M334.4 184.9a38.43 38.43 0 010 6.16c-.53-5.38-1.78-10.13-2.31-14.48a39.78 39.78 0 011.53-15.44c.08-.28.17-.56.26-.84 3.37-10.55 19.65-24.6 28.82-20.58-.64 1.26-7.14 11.27-9 15.16l-.58.05c-9.4.94-15.33 8.05-17.62 12.53s-1.64 11.59-1.1 17.44z"/><path class="cls-8" d="M414.75 248.57c-1.79-.58-3.39-1.16-4.83-1.75a29.12 29.12 0 01-9.58-5.74 28.62 28.62 0 01-3.4-3.9 47.24 47.24 0 01-6.46-13.64c-.52-1.61-1-3.4-1.52-5.31a251.76 251.76 0 01-4.91-25.08c-.8-6.19-2.75-18.92-7.22-27.52-4.39-8.43-13.37-11.54-23.08-10.74 1.83-3.89 8.33-13.9 9-15.16 1.9-1.81 12.51-5.59 25.06 1.37 11.56 6.41 15.69 15.32 18.83 31.08 1.14 5.77 5.46 26 7.83 38.3 2.81 14.69 5.73 31.58 11.83 41.33l-2.89-.74c-3.32-.86-6.17-1.68-8.66-2.5z"/><path class="cls-6" d="M369.77 211.55a138.65 138.65 0 01-22.31 2 10.05 10.05 0 005.31 4.21 13.82 13.82 0 006.67-.22c2.5-.63 8.29-2.98 10.33-5.99zm-35.35-20.49a38.43 38.43 0 000-6.16c-.54-5.85-1.14-13 1.15-17.43s8.22-11.59 17.62-12.53l.58-.05c9.71-.8 18.69 2.31 23.08 10.74 4.47 8.6 6.42 21.33 7.22 27.52a251.76 251.76 0 004.93 25.08c-2.75 3.91-16.95 13.45-21.19 15.63a22.81 22.81 0 01-7.4 2.34 10.31 10.31 0 01-5.67-.62c-3.33-1.61-6.77-8.38-10-12.73-.89-1.2-2-2.64-3.08-4.22-2.92-4.17-6.14-9.41-7.13-14.46-.95-4.77-.37-8.87-.11-13.11zM370.9 186c0-.82-.32-1.48-.71-1.48s-.73.66-.73 1.48.33 1.46.73 1.46.71-.66.71-1.46zm-27.13 1.68c0-.82-.32-1.48-.72-1.48s-.72.66-.72 1.48.32 1.47.72 1.47.72-.67.72-1.48z"/><ellipse class="cls-7" cx="225.8" cy="332.09" rx="3.66" ry="7.04" transform="rotate(-10.75 225.922 332.208)"/></g><g id="LIN"><path class="cls-9" d="M353.17 154.94c-9.4.94-15.33 8.05-17.62 12.53s-1.7 11.58-1.15 17.43c.63 6.7-1.26 12.26.12 19.26s7 14.33 10.2 18.69 6.65 11.12 10 12.73 8.83.46 13.07-1.72 18.45-11.74 21.2-15.64"/><path class="cls-9" d="M353.17 154.94c9.94-1 19.19 2.09 23.66 10.69s6.42 21.33 7.22 27.52 3.56 21.33 6.42 30.39 6.35 14.18 9.87 17.54c4 3.78 10.2 6.65 23 10s21.45 5 24.77 13.3 4.9 32.34 5.39 44c.61 14.56-.57 46.9-2 58.71s-1.49 19-2.41 22-7.91 13.42-10.43 15.71-11.24 3.1-15.25 3.1-12.08.16-13.34.05m-49.7-171.74c.81 5.56.64 17.31-4.35 23.56"/><path class="cls-9" d="M362.73 139.72c-9.18-4-25.46 10-28.83 20.58a40 40 0 00-1.79 16.28c.53 4.36 1.79 9.12 2.31 14.51m28.31-51.37c1.89-1.81 12.49-5.59 25 1.37 11.55 6.41 15.7 15.33 18.82 31.08 1.15 5.77 5.48 26 7.84 38.3 2.81 14.7 5.73 31.59 11.83 41.33m-72.48-96.91c1.84-3.9 8.34-13.91 9-15.17M352.64 183c-.85 9.33-4.37 18.12-4.36 20.16 0 1.63 7 1.44 10.6.29m-11.96 10.05a134.51 134.51 0 0023.93-2.15"/><path class="cls-9" d="M347.46 213.51a10.05 10.05 0 005.3 4.22 13.86 13.86 0 006.68-.22c2.5-.6 8.29-2.95 10.33-6m-14.85 11.25c1.45.42 4.55.47 6.27-.77m-14.03-41.89a25.24 25.24 0 00-11.78.32m25.8-1.64c3.72-1.74 10.2-2.41 16.91 0m-36.44 39.84c1.66 6.83 5.59 21.85 12 32.47m26.56 117.1c2.84 0 18.09.88 24 1.47a7.22 7.22 0 003.53-.52c1.39-.58 3.09-1.47 3.45-2.44.63-1.72-.06-11.93-.46-16.8s-.51-39.22 1.55-54.81"/><path class="cls-9" d="M410.82 367.26a13.14 13.14 0 019.81-1c3.56 1.26 11.31 5 15.37 6.72s3.7-1.41 0-3.74-7.8-4.24-11-4.78m-12.74.8c3.29-3 11.54-5.85 22.74-4.62m-29.14 9c2.16 4.05 4.72 15 5 22.4a146.79 146.79 0 01-.43 15 2.78 2.78 0 01-2.2 2.5c-5.52 1.19-20.68 4.45-21.34 4.57"/><path class="cls-9" d="M380.21 368.19c3.92 10.56 7.72 31.59 7.47 41.91s-4-.73-6.61-15.58m-154.01-9.14l-25.35-6.3a7 7 0 01-5.14-5.24l-21.49-93.7a3.13 3.13 0 013.25-3.83l77.95 4.75a7 7 0 016.43 5.53l23.64 110.22a3.14 3.14 0 01-3.9 3.68l-33.17-9.16"/><path class="cls-9" d="M381 370.4c-7.39-1.49-28-6.74-34.88-9s-15-3.55-22-4.76-19.09-3.87-21.67-4a17.14 17.14 0 00-7.11 1.23c-1.44.47-14.94 5-16.95 5.69m16.95-4.39c-4.32 1.3-14.27 6.42-16.35 7.31"/><path class="cls-9" d="M298.74 357.75c-1.54.69-9.23 2.39-11.43 3.52s-5.59 4.67-7.25 6.22m22.52-6.22c-2 .61-5.33.55-7.05 1.3s-6.76 4-8.22 4.64-5.5 4.18-6.24 5m.41 1.89a8.37 8.37 0 005.17-.87c1.31-.74 3.67-2.52 5.27-3.27s4.7-2.06 6.42-2.12 5.22.37 6.91.15c0 0 9.52 5 14.13 5.76 6.14 1 12.5 1.95 15.94-2.54m-84.2 21.84c-1.87-1.26-5.08-6-7.15-6.92s-4.78-.69-5.16.19 3.14 4.17 4.47 5.85 5.71 4.3 7.07 5.24c2.07 1.41 6.39 1.95 10.67 0"/><path class="cls-9" d="M248.69 400.18c-3.84-1.84-9.06-3.9-10.55-5.39s-1.77-6.65-2.86-10.9a105.27 105.27 0 01-2.47-12.34c-.06-1.59 2.24-1.85 3.56-.34a16.66 16.66 0 013.06 6 79 79 0 012 8.35"/><path class="cls-9" d="M241.07 400.39c-1-1.3-8.6-8.91-9.75-10.51-.85-1.19-1.26-4.82-1.57-6.92s-2.26-14.33-2.44-17.09c-.2-3 4.76-3 6.19 4.51"/><path class="cls-9" d="M227.45 364.92c-.28-.92-2.89-1.61-2.78 0s1.91 15.86 2.14 18.38a12 12 0 001.41 5.47c.92 1.6 5.11 8.76 7.38 13 .65 1.22 2.22 2.79 4.05 2.49s3.29-1.07 4.93-.2a7.75 7.75 0 006.2.08c2-.84 8.29-.92 12.07-1s7.65-.27 8.72-.92c0 0 6.82.73 12.15.88s15.33-.46 15.33-.46"/><path class="cls-9" d="M285.43 399.75l1.18.4a6.15 6.15 0 002.66.31l87.56-9.32m-90.48 5.67l.33.1a6.06 6.06 0 002.5.25l87.65-9.32m-91.32 5.08l41.61-4.44m-27.55 10.88c-2.43 15-8.76 55.09-10.17 70.59m87.43-82.11v3.3m0-3.3l-86.55-16.96m36.84 17.6L282.53 379m50.47-5.77c4.52 1.49 22.82 9.66 35.57 13m3.96 5.37c5 1.7 9.09 3.23 14.09 4.62M397 237.18c-5.56 8.49-19 29.13-30.44 50.11s-27.06 34.28-29.2 71.74m72.56-112.21s-5.56 11-7.39 13.9l-8.73.77 7.61 5.39s-20.52 25.18-31.12 40.12c-11 15.56-24.36 28-27.49 53.35M440 256.19c-7-.2-17.67 7.48-24.78 25.2m-9.84 20.35c.92 6.42 2.12 14.45 5.25 21.33m-51.87-68.4c-6.88 6.65-22.06 28.27-32.61 50.05-9.52 19.65-8.83 32.86-7.85 50.81"/><path class="cls-9" d="M360.65 244.72c-5 4.2-17.8 16.66-21.16 20.1l4.2 1.6-9 2.68a171.35 171.35 0 00-16.13 27.52c-7.26 15.67-7.18 34.83-5.68 57.83m33.73-84.58c5.62 2.51 22 1.44 31-1.89"/><path class="cls-9" d="M346.61 257.81c-7.35 3.49-22.18 11.13-27.92 16.71s-8.46 27.13-8.94 33.18c-.9 11.38-2.14 24-3.88 45.4m5.37-56.83c-3.33 14.3-10.34 42.92-13.35 56.75m17.84 44.62c-2.42 19.64-8.83 57.52-10.9 74.95m29.36-76.91c-2 21.64-3.24 62.92-2.6 79.77M410.87 408c2.65 21.45 4.16 42.31 5.64 66.63M315 403.52a28.85 28.85 0 0018.18 6.62"/><circle class="cls-9" cx="341.21" cy="404.11" r="3.89"/><path class="cls-9" d="M355 147.8c-10.44 0-17.17 5.22-21.35 13.34M363 146.71c11.39-1.22 22.52 5.18 26.64 19 3.54 11.89 2.76 18.08 7.28 34.74m-5.6-1.71c2.22 10.58 6.79 31.17 23.43 49.83M399 176.37c2.78 15.58 5.79 40.18 16.81 63.45m-72.04-52.36c0 .81-.33 1.47-.72 1.47s-.73-.66-.73-1.47.33-1.48.73-1.48.72.66.72 1.48zm27.14-1.46c0 .82-.33 1.48-.73 1.48s-.72-.66-.72-1.48.33-1.47.72-1.47.73.64.73 1.47zm-34.49 188.5c-.19 1.51-.75 5.28-.75 5.28m-17.61-6.32v2.87m-4.44-4.43c.07 1 .27 3.61.27 3.61m26.41.55c-.5 1.64-.7 2.63-1.08 4.41m-35.73-7c.4-1.87.67-5.42.67-5.42m-7.93.22c-.24 1.58-.61 3.66-.61 3.66"/><ellipse class="cls-9" cx="225.8" cy="332.09" rx="3.66" ry="7.04" transform="rotate(-10.75 225.922 332.208)"/><circle class="cls-10" cx="228.76" cy="72.86" r="51.19"/><g clip-path="url(#clip-path)"><path class="cls-2" d="M221.35 89.58c-2.86 3-6.6 6.85-8 9.23l1.94 1.49-2.2.78s-8.15 23.6-9.31 31.75H198c.18-4.34 3.75-32.2 9.78-36.78 4.85-3.7 9.67-4.9 13.57-6.47z"/><path class="cls-2" d="M224.45 86.15v2.84c-.6.9-2.17 3.81-4.15 7.9-4.49 9.23-11.07 24.47-13.32 35.94h-3.16c1.16-8.15 9.31-31.75 9.31-31.75l2.2-.78-1.94-1.49c1.36-2.38 5.1-6.23 8-9.23l1.49-1.58c.66-.76 1.21-1.38 1.57-1.85z"/><path class="cls-5" d="M240.22 98.81c-4.26 10.83-9.68 24.44-11.63 34H207c2.25-11.47 8.83-26.71 13.32-35.94.4 4.96 9.68 9.75 19.9 1.94z"/><path class="cls-2" d="M251.85 88.48c.54 1.41-3.19 11.06-3.19 11.06l-4.13 1.26 3 1.55s-9.36 22.35-12.08 30.48h-6.87c1.95-9.58 7.37-23.19 11.63-34 2.59-6.57 4.76-12.11 5.47-15.1-.09-.61-.17-1.19-.23-1.75 1 1 4.23 3.75 5.71 5.5a3.87 3.87 0 01.69 1z"/><path class="cls-2" d="M258.79 132.83h-23.33c2.72-8.13 12.08-30.48 12.08-30.48l-3-1.55 4.13-1.26s3.73-9.65 3.19-11.06c2.77 1.35 14.39 6.12 18.69 8.63s6.87 9.55 8 16.77 2.76 15.17 2.76 19z"/><path class="cls-6" d="M224.45 89v-2.84a72.67 72.67 0 00-1.23-9.78 40.4 40.4 0 006.37 5.22c1.8.92 6.33.55 7.37 0 2.26-1.19 6.7-6.47 8.52-8.92a45.73 45.73 0 000 9.29c.06.56.14 1.14.23 1.75-.71 3-2.88 8.53-5.47 15.1-10.24 7.81-19.5 3-19.92-1.92 1.96-4.1 3.53-7.01 4.13-7.9z"/><path class="cls-2" d="M219.38 70.15a1.81 1.81 0 11-.34-1.69c.1.59.22 1.15.34 1.69zm29.75-3.25a1.81 1.81 0 11-2.34 2.49c.11-.64.21-1.36.3-2.08a1.82 1.82 0 012-.41z"/><path class="cls-5" d="M216.4 68.31a1.78 1.78 0 00-.56 1.31 1.8 1.8 0 003.53.53 17.51 17.51 0 00.65 2.32 15.18 15.18 0 003.19 3.9 72.67 72.67 0 011.23 9.78c-.36.47-.91 1.09-1.57 1.8l-1-1.22c-1-1.89-2.74 1.75-2.74 1.75-.76-1.21.22-3.39.17-4.77s-1.35-2.85-2.08-.81a14.35 14.35 0 01-2.52 4 3.93 3.93 0 000-4c-.82-1.79-.14-5.92-.48-7.22s-1.5-.83-1.75 1.94a11.7 11.7 0 01-2.18 5.28c.29-.77.68-3.54-.24-5.05s-.78-3.44-.24-5.75a22.94 22.94 0 000-6.27c-.94.33-2.11 5.9-2.18 6.25.18-.86-.2-1.9-1-3.93s1-4.17 2.28-6.9a11 11 0 001.18-5.25c-1 .24-3.35 5.27-3.35 5.27 0-2.73 1.75-5.66 1.22-7.7a5.93 5.93 0 011.5-5.77c1.6-1.74 2-4.46 3.15-6.74s3-2 3.35-4.32 1.94-5.43 4.27-5.82 3.05-.58 5.2-2.76 5.89-2.53 7.81.53c2.7-2.87 7.59-2.41 10.93.36s6.76 4.25 8.56 8.13 1.69 4.71 3.64 6.65 1.16 6.64 2.66 11.4a9.07 9.07 0 01-2.72-3c-.67-1.55.44 4.36 2.23 6.79s2.43 3.88 2 5.87-.88 3.78-.25 5.82a15.65 15.65 0 01-1.94-4.49 4.18 4.18 0 00-1.11-2.61c-.39-.57-.73 2.54.09 5.16s1.36 4.46 1.12 6 1.11 3.11.82 5a7.48 7.48 0 01-2.28-3 5.24 5.24 0 00-1.35-2.57 8.35 8.35 0 00.09 5.19c1 2.33 1.65 2.33 1.07 4.61a9 9 0 00-1.65-2.28c-.92-.83-.68 1.89-.1 4.8a3.1 3.1 0 00-1.55-1.21c-1.21-.54-1.84 1.64-1.84 1.89l-.49.19c-1.48-1.75-4.73-4.5-5.71-5.5a45.73 45.73 0 010-9.29c.32-.45.57-.8.7-1a8.22 8.22 0 00.61-2.26 1.81 1.81 0 102.34-2.49c1.63-3.62 2-11.59-1.3-8.93 0 0-.05-4.51-.2-8.15s-1.09-7.79-5.33-9.89c-3.56-1.77-7.52-2-9.32-.88-1.94-1.31-7.27-1.11-8.78.2s-.53 3-2.08 4-.83 2.52-2.28 4.32.1 3.59-2.09 4.85-.53 6.2-.53 6.2c-3.74-3.43-3.71 6.4-.83 9.67z"/><path class="cls-6" d="M239.16 70.52a12.27 12.27 0 01-3.59 3 6.92 6.92 0 01-3.59 0 9.48 9.48 0 01-3.72-3c1.85-.07 9.32-.13 10.9 0z"/><path class="cls-6" d="M219 68.46a1.8 1.8 0 00-2.63-.15c-2.88-3.27-2.91-13.1.83-9.67 0 0-1.65-4.94.53-6.2s.64-3.06 2.09-4.85.72-3.25 2.28-4.32.58-2.72 2.08-4 6.84-1.51 8.78-.2c1.8-1.07 5.76-.89 9.32.88 4.24 2.1 5.19 6.25 5.33 9.89s.2 8.15.2 8.15c3.32-2.66 2.93 5.31 1.3 8.93a1.82 1.82 0 00-2 .41c-.09.72-.19 1.44-.3 2.08a8.22 8.22 0 01-.61 2.26c-.13.22-.38.57-.7 1-1.82 2.45-6.26 7.73-8.52 8.92-1 .55-5.57.92-7.37 0a40.4 40.4 0 01-6.37-5.22 15.18 15.18 0 01-3.19-3.9 17.51 17.51 0 01-.65-2.32c-.14-.54-.26-1.1-.4-1.69zm16.54 5.07a12.27 12.27 0 003.59-3c-1.58-.13-9-.07-10.9 0a9.48 9.48 0 003.72 3 6.92 6.92 0 003.62 0z"/><path class="cls-9" d="M233 39.05c-1.94-1.31-7.27-1.11-8.78.2s-.53 3-2.08 4-.83 2.52-2.28 4.32.1 3.59-2.09 4.85-.53 6.2-.53 6.2M233 39.05c1.8-1.06 5.76-.89 9.32.88 4.24 2.1 5.19 6.25 5.33 9.89s.2 8.15.2 8.15M234 56.27a62.18 62.18 0 012 9.17c0 1.12-3.73.87-4.56.39m6.49-12.76c1.36-.35 5.53-.53 7.23.49m-16-.17c-2-.54-5.51-.58-7.46.33"/><path class="cls-9" d="M218.09 62.43c.39 2.72 1.07 7.76 1.94 10s7.76 8.2 9.56 9.12 6.33.55 7.37 0c2.67-1.4 8.39-8.54 9.22-9.94s1.36-8.73 1.36-9.61m-24.32 14.37c.45 2.85 1.72 8.67 1.08 14.68m21.18-18.38a43.76 43.76 0 00.21 11"/><path class="cls-9" d="M233.24 28.67c-1.92-3.05-5.66-2.71-7.81-.53s-2.87 2.38-5.2 2.76-3.88 3.5-4.27 5.82-2.18 2-3.35 4.32-1.55 5-3.15 6.74a5.94 5.94 0 00-1.5 5.78c.53 2-1.17 5-1.22 7.69 0 0 2.33-5 3.35-5.27a11 11 0 01-1.09 5.27c-1.31 2.73-3.05 4.87-2.28 6.91s1.17 3.08 1 3.94c0 0 1.22-5.93 2.19-6.27a22.94 22.94 0 010 6.27c-.54 2.31-.68 4.25.24 5.76s.53 4.27.24 5a11.71 11.71 0 002.18-5.29c.25-2.76 1.42-3.25 1.75-1.94s-.34 5.44.48 7.23a4 4 0 010 4 14.57 14.57 0 002.52-4c.73-2 2-.57 2.08.81s-.93 3.56-.17 4.77c0 0 1.77-3.64 2.74-1.75m11.27-58.02c2.7-2.88 7.59-2.41 10.93.36s6.76 4.25 8.56 8.13 1.69 4.71 3.63 6.65 1.17 6.64 2.67 11.39a8.9 8.9 0 01-2.71-3c-.68-1.56.43 4.36 2.23 6.79s2.42 3.88 2 5.87-.88 3.78-.25 5.82a15.94 15.94 0 01-1.94-4.49 4.23 4.23 0 00-1.11-2.61c-.39-.57-.73 2.54.09 5.16s1.36 4.46 1.12 6 1.12 3.11.82 5a7.48 7.48 0 01-2.28-3 5.19 5.19 0 00-1.35-2.57 8.35 8.35 0 00.09 5.19c1 2.33 1.65 2.33 1.07 4.61a9 9 0 00-1.65-2.28c-.92-.83-.68 1.89-.1 4.8a3.1 3.1 0 00-1.55-1.21c-1.21-.54-1.84 1.64-1.84 1.89m-12.51-16.65c-1.58-.13-9-.07-10.9 0m0 0a9.36 9.36 0 003.72 3 6.61 6.61 0 003.59 0 12.1 12.1 0 003.59-3m-6.47 5.57a6.47 6.47 0 002.81-.09m-11.05 13c-1.94 2.91-14.23 27.29-17.46 43.85"/><path class="cls-9" d="M224.45 86.16c-1.94 2.5-9.06 9.16-11.06 12.65l1.94 1.49-2.2.78s-8.15 23.6-9.31 31.75m41.87-49.12c-1.89 7.92-14 33.73-17.1 49.12"/><path class="cls-9" d="M245.46 82c1.2 1.23 5.86 5.11 6.39 6.52s-3.19 11.06-3.19 11.06l-4.13 1.26 3 1.55s-9.37 22.35-12.08 30.48m16.4-44.39c2.77 1.35 14.39 6.12 18.69 8.63s6.87 9.55 8 16.77 2.76 15.17 2.76 19m-59.95-43.3c-3.9 1.57-8.72 2.77-13.57 6.46-6 4.59-9.6 32.45-9.78 36.79m22.3-35.95c.41 4.94 9.68 9.74 19.92 1.93m19.35 14.36a101.9 101.9 0 00-.78 19.66m5.63-16.23a21.08 21.08 0 00-5.8 12.35m-39.24-58.8a1.81 1.81 0 11-1.73-2.34 1.79 1.79 0 011.38.65m28.06-1.15a1.78 1.78 0 011.31-.56 1.81 1.81 0 11-1.61 2.64m-29.57-10.75c-3.74-3.43-3.71 6.39-.82 9.67M247.83 58c3.32-2.66 2.93 5.31 1.3 8.93m-7.73-9.3c0 .33-.13.6-.3.6s-.3-.27-.3-.6.14-.61.3-.61.3.27.3.61zm-14.81.37c0 .34-.13.61-.3.61s-.3-.27-.3-.61.14-.61.3-.61.3.24.3.61z"/></g><circle class="cls-12" cx="232.65" cy="69.08" r="51.19"/><circle class="cls-10" cx="129.64" cy="198.54" r="51.19"/><g clip-path="url(#clip-path-2)"><path class="cls-5" d="M152.52 186.25a20.28 20.28 0 01-1 2.09 15.26 15.26 0 00-1.14-5.39c-.54-1.23-.45-4.5-.4-5.83s0-3.93-2.56-4.77-15.95-1.32-19.15-1-4.66 2.12-4.83 3.75.44 4.11-.75 6.54a37.73 37.73 0 00-1.77 7.42 27.07 27.07 0 01-1.31-3.76 31.44 31.44 0 01-1.08-7.06c0-2.43-.13-5.66 0-6.67a5.57 5.57 0 00-1.67 1 9.08 9.08 0 015-6.09 7.26 7.26 0 00-2.69-.57s5.87-3.71 10.82-3.4a8.74 8.74 0 00-3.18-1.42 26.29 26.29 0 0112.41.1c6 1.76 12.67 4.77 12.9 9.49a4.2 4.2 0 012.25 2.08c.99 1.52.21 8.43-1.85 13.49z"/><path class="cls-6" d="M130.81 200.86c2 .14 8.27.27 10.54.21-.35.55-2.32 2.63-3.14 2.83a15.45 15.45 0 01-4.57-.18 6.9 6.9 0 01-2.83-2.86z"/><path class="cls-6" d="M130.81 200.86a6.9 6.9 0 002.83 2.88 15.45 15.45 0 004.57.18c.82-.2 2.79-2.28 3.14-2.83-2.27.04-8.56-.09-10.54-.23zm-9.13-4.53c-1.88 4-4.34-5.43-4.65-8.83s1.54-3.75 2.58-2.21a27.07 27.07 0 001.31 3.76 37.73 37.73 0 011.77-7.42c1.19-2.43.57-4.9.75-6.54s1.63-3.45 4.83-3.75 16.59.18 19.15 1 2.61 3.45 2.56 4.77-.14 4.6.4 5.83a15.26 15.26 0 011.14 5.39 20.28 20.28 0 001-2.09c1.48-1.31 3.31-.2 2.29 3.68s-4.37 10.41-4.84 7.95a31.4 31.4 0 01-1.28 3.93 36.91 36.91 0 01-2.44 4.07c-2 3.1-4.66 6.79-5.42 7.15s-8.67.43-10-.33c-1-.57-4.9-6.59-7.1-10.26a27.8 27.8 0 01-1.5-2.7 21.14 21.14 0 01-.55-3.4z"/><path class="cls-2" d="M146 210.53c.4.92 1.29 2.87 2.17 5.45 1.46 4.31 2.86 10.38 1.8 16.38-3.5-12.4-7.2-8.73-8.3-5.88.1-.29.21-.55.3-.8 1.41-3.71 3-8.11 3.77-10.49zm-24.89 5.84a29.24 29.24 0 012.64-5.82v5c.83 2.58 2.56 7.06 4.45 11.86-2.52-6.36-7.34 1.87-8 5.35-1.02-7.6-.2-12.83.91-16.39z"/><path class="cls-6" d="M123.75 210.55v-8.11c2.2 3.67 6.11 9.69 7.1 10.26 1.35.76 9.16.75 10 .33s3.4-4.05 5.42-7.15l-.25 4.65-.26 4.66c-.8 2.38-2.36 6.78-3.77 10.49-.09.25-.2.51-.3.8v.05c-2.19 5.8-6.73 18.21-6.73 18.21-1.33-3.71-4.2-10.8-6.76-17.32-1.89-4.8-3.62-9.28-4.45-11.86-.02-.22 0-2.43 0-5.01z"/><path class="cls-2" d="M167.56 263.69H88.94c-.06-13.87-.86-27.65 7.36-34 5.57-4.31 19.2-10.12 24.81-13.33-1.13 3.56-1.93 8.79-1 16.4.67-3.48 5.49-11.71 8-5.35 2.56 6.52 5.43 13.61 6.76 17.32 0 0 4.54-12.41 6.73-18.21v-.05c1.1-2.85 4.8-6.52 8.3 5.88 1.06-6-.34-12.07-1.8-16.38 6.14 2.57 19.63 7.06 24.25 10.26 8 5.56 9.89 22.52 10.51 37.45z"/><path class="cls-9" d="M121.33 192.08s.41 6.36.88 7.66 7.25 12.19 8.6 12.95 9.16.76 10 .34c1.19-.57 7.1-9.46 7.85-11.22a39.4 39.4 0 002.38-9.73"/><path class="cls-9" d="M137.26 186.75a59.36 59.36 0 011.19 9.06c-.13 1-4.59.31-5.56 0M124.72 184a26.94 26.94 0 017.11-.62m8.96.3c1.59-.06 6 .16 7.51 1.08"/><path class="cls-9" d="M120.92 189.05a38.4 38.4 0 011.76-7.42c1.2-2.43.58-4.9.75-6.54s1.64-3.44 4.84-3.75 16.59.17 19.15 1 2.6 3.45 2.56 4.77-.13 4.6.4 5.83a15.49 15.49 0 011.15 5.39"/><path class="cls-9" d="M120.92 189.05a30.86 30.86 0 01-2.39-10.82c0-2.43-.13-5.66 0-6.67a5.35 5.35 0 00-1.68 1 9.12 9.12 0 015-6.1 7.28 7.28 0 00-2.7-.57s5.88-3.71 10.83-3.4a8.69 8.69 0 00-3.18-1.41 26.3 26.3 0 0112.41.08c6 1.77 12.67 4.77 12.89 9.5a4.25 4.25 0 012.26 2.08c1.1 1.81-.09 10.63-2.87 15.63"/><path class="cls-9" d="M119.61 185.29c-1-1.54-2.89-1.19-2.58 2.21s2.77 12.81 4.65 8.83m30.84-10.08c1.48-1.31 3.31-.21 2.28 3.68s-4.36 10.42-4.83 7.95m-19.57 2.95c1.32.14 9.13.32 11.25.23"/><path class="cls-9" d="M130.81 200.86a6.78 6.78 0 002.83 2.88 15.79 15.79 0 004.57.19c.82-.21 2.79-2.29 3.14-2.84m-6.77 5.18c.71.24 2.24.42 2.8 0m-7.86-19.52c0 .34-.13.61-.3.61s-.3-.27-.3-.61.14-.61.3-.61.3.28.3.61zm14.41.44c0 .34-.13.61-.3.61s-.3-.27-.3-.61.14-.61.3-.61.3.28.3.61zm-20.22 15.25c.08 2.29.05 12.72 0 13.12m22.54-9.68l-.51 9.31"/><path class="cls-9" d="M123.21 213.74c.53 3.31 9.1 23.69 11.71 31 0 0 5-13.75 7.05-19.06 1.87-4.93 4-11.09 4.28-12.1m-22.49-3.05c-1.25 2.4-5.38 8.35-3.61 22.24M146 210.53c1.06 2.46 5.68 12.23 4 21.83m-29.85.41c.66-3.49 5.49-11.71 8-5.35m13.5-.89c1.07-2.85 4.8-6.65 8.32 5.83"/><path class="cls-9" d="M121.11 216.37c-5.61 3.21-19.24 9-24.81 13.32-8.22 6.35-7.42 20.13-7.36 34M148.17 216c6.14 2.57 19.63 7.06 24.25 10.26 8 5.56 9.89 22.52 10.51 37.45m-79.33-13.98v14m63.6-15.85l.36 15.81"/></g><circle class="cls-12" cx="135.83" cy="202.44" r="51.19"/><circle class="cls-10" cx="262.31" cy="213.84" r="51.19"/><g clip-path="url(#clip-path-3)"><path class="cls-2" d="M286.75 268.16h-73.61c0-13.78 2.88-29.76 9.66-35.94 4.47-4.07 16.13-8.37 20.62-9.78-3 3.35-6.63 8.24-7.68 13.39 2.47-3.35 9.67-6.54 12.23 1.09v.05a41.11 41.11 0 003.93 9c2.69-3.74 6-6.92 9.26-10.33.31-.31.61-.63.91-1 5.93-5.53 13.29.36 14.93 4.36.63-9.29.08-14.61-1-18.06 6.67 4 21.51 11.66 28.05 19.92 5.14 6.5 3.45 27.29 3.45 27.29z"/><path class="cls-2" d="M271.82 220c.2-1.62.32-3.39.43-5.1a15.1 15.1 0 013.68 6c1.11 3.45 1.66 8.77 1 18.06-1.6-4-8.93-9.9-14.87-4.31 3.84-4.01 7.46-8.48 9.76-14.65zm-25.38 6.2a34.9 34.9 0 001.56 10.72c-2.56-7.63-9.76-4.44-12.23-1.09 1-5.15 4.64-10 7.68-13.39a43.47 43.47 0 014.36-4.22c0 2.6-.18 5.71-1.37 7.98z"/><path class="cls-6" d="M247.76 217.25a10.86 10.86 0 009.8 4.76c3.71-.13 8.92-2.25 11.48-5.92a38.16 38.16 0 003.85-8.72 72.47 72.47 0 00-.64 7.53c-.11 1.71-.23 3.48-.43 5.1-2.3 6.17-5.92 10.64-9.73 14.7a12 12 0 00-.91 1c-3.25 3.41-6.57 6.59-9.26 10.33a41.11 41.11 0 01-3.93-9v-.05a34.9 34.9 0 01-1.53-10.72c1.19-2.27 1.37-5.38 1.34-8-.02-.38-.03-.7-.04-1.01z"/><path class="cls-2" d="M244.53 192.86s-.53 4.3-.62 6.42c-1.37-2-1.46-4.78-1.57-5.91a13.3 13.3 0 011.34-.36c.32-.01.57-.11.85-.15z"/><path class="cls-6" d="M254.06 194.9c0 .17 0 .33-.06.5a12.6 12.6 0 01-.39 1.89c-.86 2.9-2.74 4.5-6.29 4a4.7 4.7 0 01-3.4-2.06c.09-2.12.62-6.42.62-6.42 4.08-.53 8.12.88 9.52 2.09zm14.7 1.49c0 4.17-2.75 7.17-6.06 6.86-4.47-.43-5.49-4.57-5.59-7.43v-.52a13 13 0 0111.65 1.09z"/><path class="cls-2" d="M277.29 195.56a12.39 12.39 0 00-2.05 3.32l-1.44-.23a7.5 7.5 0 00-.25-2.86c1.24-.08 2.45-.14 3.74-.23z"/><path class="cls-6" d="M243.91 199.28a4.7 4.7 0 003.4 2.06c3.55.47 5.43-1.13 6.29-4a12.6 12.6 0 00.39-1.89c.88-.22 2.73-.07 3.09.42.1 2.86 1.12 7 5.59 7.43 3.31.31 6.06-2.69 6.06-6.86a35.8 35.8 0 014.79-.6 7.5 7.5 0 01.25 2.86l1.44.23a12.39 12.39 0 012.05-3.32 2.51 2.51 0 011.47-.84 1.84 1.84 0 011 .18c1.85.89.25 4.68-.54 6.71-.94 2.45-3.61 7.61-5.89 4.4-.14.43-.28.89-.43 1.36a38.16 38.16 0 01-3.85 8.72c-2.56 3.67-7.77 5.79-11.48 5.92a10.86 10.86 0 01-9.8-4.76 15.44 15.44 0 01-1.07-1.81c-2.74-5.48-2.91-12.85-2.78-16.15z"/><path class="cls-6" d="M254.06 194.9c-1.4-1.21-5.44-2.62-9.53-2 0 0 .44-4.58.82-6.43s.65-5.25 2-5.92 5.86-.48 8.77.17 12 2.41 14.28 3.45 2.15 2.8 1.5 4.53-1.32 2.74-.08 4.07a7.72 7.72 0 011.78 3.06 35.8 35.8 0 00-4.79.6 13 13 0 00-11.66-1.09v.52c-.36-.49-2.21-.64-3.09-.42-.06-.21-.06-.37 0-.54z"/><path class="cls-5" d="M245.35 186.43c-.38 1.85-.82 6.43-.82 6.43-.28 0-.57.09-.85.15a58.89 58.89 0 00-.25-7.29 2.35 2.35 0 01.45-2 1 1 0 010-1.64s-1-1.39.53-1.77a1.25 1.25 0 01.86-2.24c-.51-.53-1.62-2.65 1.26-3.65a1.57 1.57 0 011.67-2.38 1.31 1.31 0 012.16-1.33c0-1.27 2.18-1.94 2.76-.59.54-1.53 2.07-1.79 2.69-.56.67-1.44 2.47-1.53 3-.5.76-1.15 2.18-1.59 2.83-.35.95-.91 2.09-1.12 2.56-.09a1.58 1.58 0 012.89.94c1.05-.68 3-.26 2.91 1.09 1.27-.15 2.8-.12 2.62 1.71 1.23-.18 2.53.12 2.32 1.56 1.45 0 2.77.45 2.36 1.9a1.55 1.55 0 01.53 2.72c2 .68 1.65 1.53 1.12 2.36a1.73 1.73 0 01.41 3.06c1.25.85 1.59 2.3.59 3.09 1.59 1.09-1.18 6.12-1.18 7.64a2.51 2.51 0 00-1.47.84c-1.27.09-2.5.15-3.74.23a7.72 7.72 0 00-1.78-3.06c-1.24-1.33-.57-2.33.08-4.07s.77-3.5-1.5-4.53-11.37-2.8-14.28-3.45-7.48-.85-8.77-.17-1.58 4.09-1.96 5.95z"/><path class="cls-9" d="M249.92 195.82c0 .33-.14.61-.3.61s-.3-.28-.3-.61.13-.61.3-.61.3.27.3.61zm12.97 1.46c0 .34-.13.61-.3.61s-.29-.27-.29-.61.13-.6.29-.6.3.32.3.6zm-8.82-2.38c-1.66-1.43-7-3.13-11.72-1.53m14.75 1.93a13 13 0 0111.66 1.09"/><path class="cls-9" d="M257.1 195.3c0 2.86.85 7.49 5.6 7.95 3.31.32 6.06-2.69 6.06-6.86m-26.41-3.02c.15 1.72.28 7.35 5 8 4.43.58 6.27-2.06 6.76-6.44"/><path class="cls-9" d="M253.61 197.28c-.47 2.16-1.93 6.44-1.66 7.11s3.45 1.1 5.15 1.1m-6.92 2.87c1.74 1.33 6.14 2.47 10.87 1.1m-8.53 3.41a4 4 0 003.76.53"/><path class="cls-9" d="M274.34 202.22c-.35 1.81-2.74 10.2-5.3 13.87s-7.77 5.79-11.48 5.92a11 11 0 01-10.87-6.58c-2.74-5.48-2.91-12.86-2.78-16.15m28.97 8.09c-.53 2.8-.53 8.24-1.06 12.65m-24.05-2.77c.07 2.77 0 6.39-1.34 8.95"/><path class="cls-9" d="M243.91 199.28c.09-2.12.62-6.42.62-6.42s.44-4.58.82-6.44.65-5.24 2-5.91 5.86-.48 8.77.17 12 2.42 14.28 3.45 2.15 2.79 1.5 4.53-1.32 2.74-.08 4.07a7.36 7.36 0 012 5.91l1.44.24"/><path class="cls-9" d="M275.24 198.88c1.15-2.49 2.65-4.87 4.5-4s.26 4.68-.53 6.72c-.94 2.44-3.62 7.6-5.89 4.38"/><path class="cls-9" d="M278.77 194.71c0-1.52 2.77-6.55 1.18-7.64 1-.79.66-2.24-.59-3.09a1.73 1.73 0 00-.41-3.06c.53-.83.88-1.68-1.12-2.36a1.54 1.54 0 00-.53-2.71c.41-1.46-.91-1.91-2.35-1.91.2-1.44-1.09-1.74-2.33-1.56.18-1.83-1.36-1.86-2.62-1.71.09-1.35-1.86-1.77-2.92-1.09a1.57 1.57 0 00-2.88-.94c-.47-1-1.61-.83-2.56.09-.65-1.24-2.07-.8-2.83.35-.53-1-2.33-.94-3 .5-.62-1.24-2.15-1-2.68.56-.59-1.35-2.77-.68-2.77.59-1.44-1-2.45.32-2.15 1.32a1.58 1.58 0 00-1.68 2.39c-2.88 1-1.77 3.12-1.27 3.65a1.25 1.25 0 00-.85 2.24c-1.5.38-.53 1.77-.53 1.77a1 1 0 000 1.64 2.33 2.33 0 00-.44 2 58.81 58.81 0 01.24 7.29m-1.33.34h-1.07m27.48 3.02a62.5 62.5 0 018.53-.83M254 195.4c.89-.22 2.74-.07 3.11.42m-10.5 27.82c-.76 6.23.76 14.58 5.31 22.35m-4.14-27.78c-1.79 1.46-10.32 9.19-12 17.62m-.04 0c2.47-3.35 9.7-6.55 12.25 1.14m24.12-17.74c-4.35 12.45-14 18.1-20.19 26.76m20.33-31.09c3 3.31 5.88 6.89 4.71 24.11m.04-.01c-1.68-4.24-9.7-10.5-15.78-3.35"/><path class="cls-9" d="M243.42 222.44c-4.49 1.41-16.15 5.71-20.62 9.78-6.78 6.18-9.66 22.16-9.66 35.94M275.93 221c6.67 4 21.51 11.66 28.05 19.92 5.14 6.5 3.44 27.29 3.44 27.29m-83.21-15.51c-.19 6.63.62 15.46.62 15.46m61.92-13.78c-.09 3.09-.09 11.4 0 13.78"/></g><circle class="cls-12" cx="259.66" cy="210.08" r="51.19"/></g></svg>