<svg xmlns="http://www.w3.org/2000/svg" viewBox="0 0 536 700"><defs><style>.cls-15{fill:none}.cls-4{fill:#1cacfe}.cls-5{fill:#98cdd0}.cls-6{fill:#fad70d}.cls-7{fill:#fff}.cls-8{fill:#28b8ce}.cls-10{fill:#33c976}.cls-12{fill:#c9e5e7}.cls-13{fill:#1fadfe}.cls-14{fill:#53b972}.cls-15{stroke:#28347d;stroke-linecap:round;stroke-linejoin:round;stroke-width:1.7px}</style></defs><g id="Figuras_fondo" data-name="Figuras fondo"><path fill="none" d="M0 0h536v700H0z"/><path d="M95.06 458.61c-51.36-69.14-60.14-120.13 7.57-186.27s62.18-248.09 304.64-137.27S273.12 698.32 95.06 458.61z" fill="#30d9cb"/><path d="M279.25 354.68c65.08-41.06 110.8-46 151.84-7.72S380 381 353.55 476.61s-91.07 110.11-112.86 34.1 20.13-144.4 38.56-156.03z" fill="#fad804"/></g><g id="Parche_color" data-name="Parche color"><path class="cls-4" d="M396.82 259.62v15.94h-190.3v-15.94h190.3z"/><path class="cls-5" d="M384.74 530.38l3.47 60.41h-6.88l-3.48-60.41h6.89zm-88.76 0h6.89v60.41h-6.89zm-74.98 0l-3.47 60.41h-6.89l3.48-60.41H221z"/><path class="cls-6" d="M289.06 428.38c-.64-.32-.52-2.55.08-5.7.17-.9.39-1.87.66-2.9l4.52 1.08-.11.49c-2.85 5.46-4.45 7.37-5.15 7.03z"/><path class="cls-7" d="M326.73 401.7a68.5 68.5 0 018.27 2.69c4.22 1.58 7.73 3 14.5 9.86 1.8 1.83.4 4.31-1.88 3.37l-.11.15-8.37-6-12.5-9h-.13z"/><path class="cls-8" d="M338.83 411.87c-1.34-.7-6.42-3.18-8.18-4a45.33 45.33 0 00-4.74-1.71l-1.56-1.16c-.28-.86 1.18-2.48 2.16-2.31h.13l12.5 9-.14.31z"/><path class="cls-8" d="M338.05 415.09c1.73-.78 1.78-2.51.94-3.13l.15-.22 8.37 6 6.84 5 5.5 5.5-7.74-2.78-3.29-2.46-10.76-7.93z"/><path class="cls-7" d="M338.05 415.09l10.77 7.91c2.66 2.29.37 5.41-2.76 3.55-1.92-1.14-3.9-2.26-6.54-3.86a33.91 33.91 0 00-9-3.28c2.54 1.37 9.85 7.76 12.2 10.83s-.3 4.88-2.33 2.95a91.17 91.17 0 00-12-9.12c-2.06-1.35-2.66-.11-2.12.66s8.41 7 9.94 8.84-.77 4.29-3 2.44-11-8.09-11-8.09a34.74 34.74 0 01-20.83-5.37l-7-1.71-4.52-1.08a96.39 96.39 0 016.71-17.49c2 .84 5.41.95 8.31.73s14.69-1.92 18.43-1.83a18 18 0 013.48.51l-.22 1c-1-.17-2.44 1.45-2.16 2.31l1.56 1.15a45.33 45.33 0 014.74 1.71c1.76.84 6.84 3.32 8.18 4l.16.09c.78.64.73 2.37-1 3.15z"/><path class="cls-6" d="M323.41 295.08v21.28h-52.78l.15-21.28h52.63zm54.53 68.45v12.81h-38.42l.14-12.81h38.28zm-92.33-.58h33.5v12.96h-33.5zm86.32 100.29l-.87 28.07H231.27l.87-28.07zm-12.86 13.37a5.54 5.54 0 10-5.52 6 5.76 5.76 0 005.52-6zm-26 0a5.53 5.53 0 10-5.52 6 5.76 5.76 0 005.52-6zm-26 0a5.53 5.53 0 10-5.51 6 5.75 5.75 0 005.51-6zm-26 0a5.54 5.54 0 10-5.52 6 5.76 5.76 0 005.53-6zm-26 0a5.54 5.54 0 10-5.52 6 5.76 5.76 0 005.53-6z"/><path d="M353.55 470.63a6 6 0 11-5.52 6 5.76 5.76 0 015.52-6zm-26 0a6 6 0 11-5.51 6 5.76 5.76 0 015.51-6zm-25.99 0a6 6 0 11-5.52 6 5.75 5.75 0 015.52-6zm-26 0a6 6 0 11-5.52 6 5.76 5.76 0 015.52-6zm-26 0a6 6 0 11-5.52 6 5.76 5.76 0 015.52-6z" fill="#33c977"/><path class="cls-7" d="M347.51 417.77l.11-.15c2.28.94 3.68-1.54 1.88-3.37-6.77-6.87-10.28-8.28-14.5-9.86a68.5 68.5 0 00-8.27-2.69 18 18 0 00-3.48-.51c-3.74-.09-15.54 1.62-18.43 1.83s-6.33.11-8.31-.73c.21-.4.41-.77.6-1.1a270.71 270.71 0 01-48.51-18.78c-6.39-3.06-28.17-14.43-38.21-22.35-.62-.49-1.24-1-1.88-1.58l.76-82.92h185l-2.37 254.82H207l.82-90.09c3.5-1.24 7.82-2.88 9.27-3.91 1.33-.19 2.22-.6 1.85-1.69a4 4 0 00-2.23-2.48 15.58 15.58 0 00-6.11-1.12c-.87 0-1.78-.1-2.7-.19l.3-33c19.6 9.37 49.62 22 80.9 30.44.7.34 2.3-1.57 5.16-7l.11-.49 7 1.71a34.74 34.74 0 0020.83 5.37s8.8 6.24 11 8.09 4.51-.59 3-2.44-9.39-8.09-9.94-8.84.06-2 2.12-.66a91.17 91.17 0 0112 9.12c2 1.93 4.66.08 2.33-2.95s-9.66-9.46-12.2-10.83a33.91 33.91 0 019 3.28c2.64 1.6 4.62 2.72 6.54 3.86 3.13 1.86 5.42-1.26 2.76-3.55l3.29 2.42 7.74 2.78-5.5-5.5zm30.43-41.43v-12.81h-38.28l-.14 12.81zm-6.88 115l.87-28.07H232.14l-.87 28.07zm-47.65-174.98v-21.28h-52.63l-.15 21.28zm-4.3 59.55V363h-33.5v13z"/><path class="cls-10" d="M74.16 539.16c-4.11-1-7.78-2-10.68-3A3.79 3.79 0 0161 532c1-6.78 3.4-23.52 5.09-35.3 2.18-15.09 6.32-37.95 6.53-46.92a268.7 268.7 0 0031.14 6.88c14.44 2.27 36.79 3.6 49.6 4-.07 1.5-.16 3.09-.26 4.74-.18 2.94-.41 6.1-.69 9.39-1.19 14-3.35 30.35-7.08 42.11-5.1 16.06-14.22 24.09-30.72 26.27-11.4 1.48-27.95-.99-40.45-4.01z"/><path d="M132.36 599.26s-12.52.7-29.45.66A234.51 234.51 0 0177 598.18c-.65-9.88-2.5-51-2.85-59 12.5 3 29.05 5.49 40.4 4 16.5-2.18 25.62-10.21 30.72-26.27 3.73-11.76 5.89-28.1 7.08-42.11 1.17.18 4.46.22 5.6.25v1c2 .23 9.76.39 9.76.39v-.71c.83.06 2.95 0 4.37 0-.05 3.7.54 16.37 1 26.31.19 4.11.34 7.76.42 10.11.27 8 .24 30.85-.74 48.11-1.09 19.19-2.83 33.65-3.26 37.33a162.91 162.91 0 01-18.09 1.74c-10.95.44-19.05-.07-19.05-.07z" fill="#6e8a90"/><path class="cls-5" d="M173.71 466.17l-.23 9.44-1.39.05c-1.42 0-3.54.09-4.37 0l.42-9.52h4.33zm-15.33-.47L158 475c-1.14 0-4.43-.07-5.6-.25.28-3.29.51-6.45.69-9.39.74.16 4.01.23 5.29.34z"/><path class="cls-5" d="M158 475l.42-9.33v-.69c2 .22 9.76.38 9.76.38v.78l-.42 9.52v.71s-7.75-.16-9.76-.39z"/><path class="cls-12" d="M173.48 453.78a106.21 106.21 0 01-1 11.61v.8h-4.33v-.78s-7.75-.16-9.76-.38v.69c-1.28-.11-4.55-.18-5.33-.31.1-1.65.19-3.24.26-4.74 2.79.08 5.12.13 6.84.13a66.32 66.32 0 002.24-9.11c2.39-.16 3.94.75 7.42 1.51a31 31 0 003.66.58z"/><path class="cls-10" d="M173.71 466.17h-1.24v-.8a106.21 106.21 0 001-11.61 25.25 25.25 0 005.59-.13c1.49-.18 2.77-.33 3.9-.48 2.6 7 12.22 28.71 14.17 57.54.22 3.29.34 6.68.34 10.15 0 3-1.47 3.31-3.69-1.86-1.92-4.45-7.59-16.16-20.73-17-.43-9.94-1-22.61-1-26.31l1.39-.05z"/><path class="cls-10" d="M192.11 449.77c1.39 14.46 4.28 44.54 5 60.94-1.95-28.83-11.57-50.52-14.17-57.54 3.76-.49 5.71-.9 7.5-2.27.38-.27.95-.66 1.67-1.13zm-2.55-27.22l.34 5.09c-3.53-.83-6.75-1.76-6.49-2.24.39-.77 4.06-2.53 6.15-2.85zm-44.44-4.92a3.32 3.32 0 11-2.71 3.26 3 3 0 012.71-3.26z"/><path class="cls-7" d="M217 436.38c-1.45 1-5.77 2.67-9.27 3.91l-1.86.65c-1.62 1.44-9.88 6.28-13.8 8.82-.72.47-1.29.86-1.64 1.13-1.79 1.37-3.74 1.78-7.5 2.27-1.13.15-2.41.3-3.9.48a25.25 25.25 0 01-5.59.13 31 31 0 01-3.67-.6c-3.48-.76-5-1.67-7.42-1.51 1.44-7.54 2.65-17.27 2.32-22.84a9.49 9.49 0 004.33-3.11c1.1-1.38 2.05-3.83 5.13-5.54a12.1 12.1 0 011.57-.71c4.41-1.67 9-1.94 12.44-2.91a6.8 6.8 0 01.94-.18c2.23-.26 5 .43 6.91.58 1.45.12 3.07-.06 3.65.38s.11 3.28-1.77 4.19-4.47.94-7.81 1h-.54c-2.09.32-5.76 2.08-6.15 2.85-.26.48 3 1.41 6.49 2.24 2.53.59 5.23 1.14 6.93 1.45 3.28.58 7.3 1.43 11 1.81.92.09 1.83.16 2.7.19a15.58 15.58 0 016.11 1.12 4 4 0 012.23 2.48c.37 1.09-.52 1.5-1.85 1.69z"/><path class="cls-10" d="M47.22 311.55c1.45-1 3-2 4.67-3.05 5-3.14 23.22-14.38 25.36-16.26L75.7 302.7 83 306l-4.61 4s54.26 61 69.93 100.29a83.09 83.09 0 013.14 17c1.19 0 2.34.08 3.46.1 3.84.09 7.2.11 9.7.05.05.43.09.89.11 1.38.33 5.57-.88 15.3-2.32 22.84a66.32 66.32 0 01-2.24 9.11c-1.72 0-4.05 0-6.84-.13-12.81-.4-35.16-1.73-49.6-4a268.7 268.7 0 01-31.14-6.88c-2.92-.82-5.34-1.56-7.17-2.13-6.63-2.06-9.56-2.49-11.73-6.94s-5.53-21.27-9-35.71-7-53.83-7-57.85-2-20.62 1.69-26.91a26.31 26.31 0 017.84-8.67zm100.61 109.34a2.76 2.76 0 10-2.71 3.26 3 3 0 002.71-3.26z"/><path class="cls-12" d="M119.47 316.58a82.7 82.7 0 00.78 20c-4.22-9-8.67-17.54-10.47-21-.57-1.1-1.63-2.93-3-5.21a26 26 0 014.16-4.7 38.37 38.37 0 008.17 11.16 2.53 2.53 0 01.36-.25z"/><path class="cls-10" d="M85.37 281.26c1.57-2.88 2.64-4.63 5-4.57a47.91 47.91 0 01-.13 5.47c3.49 6.8 11.84 20.27 16.59 28.24 1.36 2.28 2.42 4.11 3 5.21 1.8 3.47 6.25 12 10.47 21 2.79 5.94 5.48 12.06 7.22 17 5 14.22 15.55 37.35 20.83 56.66C132.63 371 78.37 310 78.37 310l4.63-4-7.3-3.3 1.55-10.46.09-.56c1.46-1.62 6.45-7.54 8.03-10.42zm90.37 138.21a12.1 12.1 0 00-1.57.71c-.16-1.3-.37-2.69-.62-4.14-.14-22.87-15.9-102.43-15.9-102.43l-9.27-3.61 6.56-1.12c-4.36-4.57-11.91-11.27-16.79-16.17 2.67 1.77 12 5.24 18.8 6s10.74.53 14 4.55 10.64 18.78 13.79 24.42c3 5.32 13.81 21.94 23.78 30.77.64.56 1.26 1.09 1.88 1.58 10 7.92 31.82 19.29 38.21 22.35a270.71 270.71 0 0048.51 18.78c-.19.33-.39.7-.6 1.1a96.39 96.39 0 00-6.71 17.49c-.27 1-.49 2-.66 2.9-.6 3.15-.72 5.38-.08 5.7-31.28-8.46-61.3-21.07-80.9-30.44-10.87-5.19-18.53-9.38-21.43-11.31 1.13 12.44 2.1 24 2.41 29.75a6.8 6.8 0 00-.94.18c-3.44 1-8.06 1.27-12.47 2.94z"/><path class="cls-10" d="M173.55 416c-3.4-19.64-14.67-51.81-20.13-67.92-5.37-15.82-14.76-40.47-18.24-50.14a26.89 26.89 0 00-.25-4.58 48.79 48.79 0 00-1.12-5.67 32.19 32.19 0 004.34 5c4.88 4.9 12.43 11.6 16.79 16.17l-6.56 1.14 9.27 3.59s15.76 79.58 15.9 102.41z"/><path class="cls-12" d="M127.34 303.28a17 17 0 015.78 6.74 48.81 48.81 0 002.06-12c3.48 9.67 12.87 34.32 18.24 50.14 5.46 16.11 16.73 48.28 20.13 67.92.25 1.45.46 2.84.62 4.14-3.08 1.71-4 4.16-5.13 5.54a9.49 9.49 0 01-4.33 3.11c0-.49-.06-.95-.11-1.38-2.5.06-5.86 0-9.7-.05C141.55 346.78 131 323 125.38 315a2.21 2.21 0 01.57.07c.88-2.82 1.75-9 1.38-11.73z"/><path class="cls-7" d="M148.3 410.31c-5.3-19.31-15.81-42.44-20.83-56.66-1.74-5-4.43-11.09-7.22-17a82.7 82.7 0 01-.78-20 12.24 12.24 0 015.91-1.63c5.57 8 16.17 31.83 29.52 112.45-1.12 0-2.27-.06-3.46-.1a83.09 83.09 0 00-3.14-17.06z"/><path class="cls-7" d="M120.5 300.15a18.17 18.17 0 016.84 3.13c.37 2.72-.5 8.91-1.38 11.73a2.21 2.21 0 00-.57-.07 12.24 12.24 0 00-5.91 1.63 2.53 2.53 0 00-.35.28A38.37 38.37 0 01111 305.7c2.61-2.44 6.11-4.89 9.5-5.55z"/><path class="cls-12" d="M131.85 282.64a33.65 33.65 0 012 5.09 48.79 48.79 0 011.12 5.67 26.89 26.89 0 01.25 4.58 48.81 48.81 0 01-2.06 12 17 17 0 00-5.78-6.74 18.17 18.17 0 00-6.84-3.13c4.45-3.5 9.42-8.57 11.18-13.1 0-1.31.07-2.83.17-4.41zm-41.52-5.95c0-.95-.06-1.9-.13-2.81 2 3.09 6.94 10.15 9.22 13s4.29 5.27 6.45 6a15.92 15.92 0 004.26.47c1.46 1.43 4.86 3.93 10.37 6.75-3.39.66-6.89 3.11-9.55 5.55a26 26 0 00-4.16 4.7c-4.75-8-13.1-21.44-16.59-28.24a47.91 47.91 0 00.13-5.42z"/><path class="cls-7" d="M132.46 277.77a36.82 36.82 0 00-.61 4.87c-.1 1.58-.13 3.1-.17 4.41-1.76 4.53-6.73 9.6-11.18 13.1-5.51-2.82-8.91-5.32-10.37-6.75 2.93.05 6.35-.27 7.74-1 2.65-1.31 6.19-4.83 8.85-7.76 1.56-1.64 3.86-4.34 5.74-6.87zm-12.55-6.94c-1.36 1.91-5.16 4.11-6.89 4.55a31 31 0 01-6.6 0c-1.44-.17-5.18-3.31-6.07-4.5a109.81 109.81 0 0019.56-.05z"/><path class="cls-7" d="M119.91 270.83a109.81 109.81 0 01-19.56.05c.89 1.19 4.63 4.33 6.07 4.5a31 31 0 006.6 0c1.73-.44 5.53-2.64 6.89-4.55zm-33.47-28.48a143.68 143.68 0 012.8-19.77c.51-1.88 1.59-3.9 7.74-2.68s6.73 2.25 9.77 2.25 10.56-3 14.76-3.4a13.7 13.7 0 016.43.79 7 7 0 014.2 5.14c1.24 5.43.15 8.39.8 10.71s4.56 5.64 4.7 8.25 0 6.87 0 6.87l1.67-.94c.4-4.85 1.76-8.88 3.94-10.1a3.05 3.05 0 012.79-.1c4 1.62 2 12.08 0 15.63s-5.4 8-7.84 3.67c-.65 4.53-1.83 11.87-2.8 14.34a23.36 23.36 0 01-2.94 4.75c-1.88 2.53-4.18 5.2-5.74 6.91-2.66 2.93-6.2 6.45-8.85 7.76-1.39.69-4.81 1-7.74 1a15.92 15.92 0 01-4.26-.47c-2.16-.76-4.17-3.15-6.45-6s-7.27-9.93-9.22-13-2.39-6.78-2.77-10.63c-.24-2.41-.56-5-.77-7.48-.13 2.13-1.93 1.52-2.6-.23a32.47 32.47 0 01-1.25-11.86c.3-5.36 2.86-4.17 3.45-2 .06.14.12.37.18.59zm35.15 5.65c0-.77-.3-1.39-.68-1.39s-.68.62-.68 1.39.31 1.39.68 1.39.68-.66.68-1.39zm-23.74-.17c0-.77-.31-1.39-.69-1.39s-.68.62-.68 1.39.3 1.4.68 1.4.69-.67.69-1.44z"/><path class="cls-4" d="M142.49 212.81c1.3 2.47 2.1 8 1.73 11s-1.06 5.73-1.22 7.89a48.38 48.38 0 00.25 7.77c-2.18 1.22-3.54 5.25-3.94 10.1l-1.67.94s.15-4.27 0-6.87-4-5.94-4.7-8.25.44-5.28-.8-10.71a7 7 0 00-4.2-5.14 54.86 54.86 0 017.53-11.86c2.03-.15 5.72 2.67 7.02 5.13z"/><path class="cls-4" d="M89.24 222.58a143.68 143.68 0 00-2.8 19.77c-.06-.22-.12-.45-.17-.69A80 80 0 0184.54 224c0-6.16 2.52-10.06 2.09-10.71s-4 3.26-3.51 1.41 4-5.55 3.19-6-3 .27-3 .27c1.69-5.69 10.59-14.59 20.76-15.52s22 4.45 26.3 6.95 5.39 5.59 5.06 7.33a54.86 54.86 0 00-7.53 11.86 13.7 13.7 0 00-6.43-.79c-4.2.36-11.73 3.4-14.76 3.4s-3.62-1-9.77-2.25-7.19.75-7.7 2.63z"/><path class="cls-6" d="M237.21 362.3h35.16l.51 13.6h-28.87l-7.13-2.93.33-10.67z"/><path class="cls-13" d="M418.06 525.1v12.8c0 1.7 1.69 2.5 3.23 2.34a4.87 4.87 0 002.62-1 2.78 2.78 0 001.2-1.88V524.6c0-1.7-1.68-2.5-3.23-2.34a4.84 4.84 0 00-2.61 1 2.8 2.8 0 00-1.21 1.88z"/><path class="cls-13" d="M429.25 528.94h-12.8a6.3 6.3 0 00-2.74.5 3.88 3.88 0 00-1.81 1.56 1.54 1.54 0 00.09 1.74 2.73 2.73 0 001.94.84h12.79a6.27 6.27 0 002.74-.5 3.8 3.8 0 001.82-1.54 1.56 1.56 0 00-.09-1.73 2.71 2.71 0 00-1.94-.85z"/><path class="cls-14" d="M439.25 531.5v12.8c0 1.7 1.68 2.5 3.23 2.34a4.84 4.84 0 002.61-1 2.8 2.8 0 001.21-1.88V531c0-1.7-1.69-2.5-3.23-2.34a4.87 4.87 0 00-2.62 1 2.78 2.78 0 00-1.2 1.88z"/><path class="cls-14" d="M450.43 535.34h-12.79a6.27 6.27 0 00-2.74.5 3.85 3.85 0 00-1.82 1.54 1.56 1.56 0 00.09 1.73 2.71 2.71 0 001.94.85h12.8a6.3 6.3 0 002.74-.5 3.88 3.88 0 001.81-1.54 1.54 1.54 0 00-.09-1.74 2.73 2.73 0 00-1.94-.84z"/><path class="cls-7" d="M298 189.27v12.79c0 .49 1 .7 1.29.74a6.55 6.55 0 002.57-.24c1.1-.31 3.1-.95 3.1-2.36v-12.8c0-.49-1-.69-1.29-.73a6.37 6.37 0 00-2.57.24c-1.1.31-3.1 1-3.1 2.36z"/><path class="cls-7" d="M308.1 192.07h-12.79a4.67 4.67 0 00-2.61 1 3 3 0 00-1.2 1.93c-.07 1.84 1.73 2.43 3.25 2.43h12.8a4.77 4.77 0 002.61-1 3 3 0 001.2-1.93c.06-1.84-1.73-2.43-3.26-2.43zm-22.98 16.83v12.8c0 1.67 1.7 2.34 3.18 2.18a5.11 5.11 0 002.62-.95c.53-.42 1.23-1.07 1.23-1.8v-12.8c0-1.67-1.7-2.34-3.19-2.18a5.11 5.11 0 00-2.61.95c-.53.42-1.23 1.07-1.23 1.8z"/><path class="cls-7" d="M297.31 213.7h-12.79a9.85 9.85 0 00-4.92 1.3c-.27.18-1 .52-.84.94s.94.38 1.19.38h12.8a9.87 9.87 0 004.92-1.31c.27-.17.95-.52.84-.94s-.94-.38-1.2-.38zm-25-48.27v12.8c0 1.7 1.69 2.5 3.23 2.34a4.87 4.87 0 002.62-1 2.78 2.78 0 001.2-1.88v-12.8c0-1.7-1.68-2.5-3.23-2.34a4.84 4.84 0 00-2.61 1 2.8 2.8 0 00-1.21 1.88z"/><path class="cls-7" d="M283.5 169.27h-12.8a6.3 6.3 0 00-2.74.5 3.83 3.83 0 00-1.81 1.54 1.54 1.54 0 00.09 1.74 2.73 2.73 0 001.94.84H281a6.27 6.27 0 002.74-.5 3.85 3.85 0 001.82-1.54 1.57 1.57 0 00-.09-1.74 2.74 2.74 0 00-1.94-.84z"/></g><g id="LIN"><path class="cls-15" d="M86.31 245.77c0-7.11 2.12-20.2 2.93-23.19.5-1.88 1.59-3.91 7.74-2.68s6.73 2.25 9.77 2.25 10.56-3 14.76-3.4 9.4.5 10.63 5.93.15 8.39.8 10.71 4.56 5.64 4.7 8.25 0 6.87 0 6.87l1.67-.94"/><path class="cls-15" d="M139.31 249.57c.54-6.68 2.91-11.77 6.73-10.2s2 12.08 0 15.63-5.4 8-7.84 3.66"/><path class="cls-15" d="M138.55 256.08c-.44 3.47-2 13.89-3.15 16.93s-6 8.74-8.68 11.67-6.2 6.44-8.85 7.76c-2.26 1.12-9.82 1.25-12 .49s-4.18-3.15-6.46-6-7.27-9.94-9.23-13-2.38-6.78-2.76-10.63-1-8.11-1-11.89"/><path class="cls-15" d="M106.37 248.54c-.93 3-3.42 13.13-3.48 14.65s6.46 2.06 10.8 1.19m-14.29 6.38a108 108 0 0021.93-.06"/><path class="cls-15" d="M100.35 270.88c.89 1.18 4.63 4.33 6.07 4.49a29.62 29.62 0 006.59 0c1.74-.43 5.54-2.63 6.9-4.54m-12.59 9.07a6.72 6.72 0 004.93 0m1.93-37.65c4.72-.9 11.13-.58 14.49.5m-25.18-.51a31.52 31.52 0 00-13.88 0M121.6 248c0 .77-.31 1.39-.69 1.39s-.68-.62-.68-1.39.31-1.39.68-1.39.69.58.69 1.39zm-23.75-.21c0 .77-.31 1.39-.69 1.39s-.68-.62-.68-1.39.31-1.39.68-1.39.69.6.69 1.39zm37.62-40.11c2-.15 5.72 2.67 7 5.13s2.1 8 1.74 11-1.07 5.74-1.23 7.89a49.57 49.57 0 00.25 7.77m-7.76-31.79c.33-1.74-.72-4.83-5.06-7.33s-16.14-7.87-26.3-6.95-19.11 9.83-20.75 15.52c0 0 2.11-.76 3-.27s-2.64 4.17-3.19 6 3.08-2.06 3.51-1.41-2.06 4.55-2.1 10.71a78.84 78.84 0 001.9 18.37m48.99-34.64a54.48 54.48 0 00-7.53 11.86m-41.63 22.32c-.48-2.27-3.19-3.71-3.5 1.82a32.47 32.47 0 001.25 11.86c.67 1.76 2.48 2.37 2.6.21m3.53 18.13a51.66 51.66 0 010 8.28m42.27-4.39a54.11 54.11 0 00-.77 9.27m-21.56 6.37c1.46 1.42 4.86 3.91 10.36 6.74m11.58-14.26c-1.3 4.81-6.73 10.46-11.58 14.26"/><path class="cls-15" d="M88.68 278.77c1.41 4.88 18.11 31.09 21.1 36.84s13.29 25.55 17.7 38c6.62 18.78 22.87 53.14 24 73.65m-30.99-127.11c-5.89 1.15-12.15 7.74-13.7 10.25m13.7-10.25c5.11 1 10.79 5.45 12.63 9.87 0 0 2.94-9.08 1.81-16.61-1-6.86-1.88-7.9-3.08-10.77M111 305.7a38.37 38.37 0 008.17 11.16m8.16-13.57c.36 2.72-.5 8.9-1.37 11.73m-6.84 1.84c1.44-1.36 5.64-2.17 6.84-1.84m-.58-.02c5.57 8 16.17 31.81 29.51 112.45m-35.42-110.87a82.7 82.7 0 00.78 20"/><path class="cls-15" d="M90.34 276.69c-2.33-.07-3.4 1.7-5 4.57s-6.57 8.79-8 10.42l-1.62 11L83 306l-4.62 4s54.43 61.18 70 100.46M135.18 298c3.47 9.67 12.87 34.32 18.24 50.14 5.86 17.31 18.42 53.12 20.76 72.06"/><path class="cls-15" d="M133.81 287.72c2.17 3.78 14.91 14.66 21.13 21.18l-6.56 1.1 9.27 3.59s15.76 79.56 15.9 102.43"/><path class="cls-15" d="M138.15 292.73c2.68 1.77 12 5.25 18.79 6s10.75.52 14 4.55 10.64 18.78 13.79 24.42 15.21 24.09 25.67 32.35c10 7.92 31.81 19.29 38.2 22.36a271.67 271.67 0 0048.52 18.77m-110.39-14.55c8.14 5.43 53.73 28.62 102.36 41.75"/><path class="cls-15" d="M297.12 401.19a88.58 88.58 0 00-8 21.49c-1.25 6.57-.41 9.15 5.07-1.33m-111.9-78.66c1.52 12.16 6.07 59.84 6.83 73.69M77.25 292.24c-2.14 1.88-20.38 13.12-25.37 16.26s-8.88 5.43-12.53 11.73-1.74 22.9-1.69 26.91 3.53 43.42 7 57.85 6.84 31.26 9 35.71 5.1 4.88 11.72 6.95a275.06 275.06 0 0038.32 9c17.58 2.77 46.88 4.13 56.44 4.13m.01 0c2.11-5.7 5.42-25.62 4.45-33.32"/><path class="cls-15" d="M164.6 427.46c-9.94.21-33.43-.71-46.67-3S87.54 413 86.56 411.56s-3.29-23.94-4.63-33.56c-1.49-10.67-4.27-27.82-8.18-36.07"/><path class="cls-15" d="M87.24 412.15C83.4 410.36 72 415.79 68.6 418s-2.55-5.48 10.63-7.81m6.92-.04a21.5 21.5 0 00-22.49 1.3m-16.43-99.9c6.12 0 18 10.16 21.38 19.57m96.11 97.71a9.59 9.59 0 004.33-3.11c1.26-1.59 2.33-4.61 6.69-6.26s9-1.93 12.44-2.9c2.32-.65 5.72.23 7.85.41 1.45.11 3.07-.07 3.65.37s.12 3.28-1.76 4.18-4.48 1-7.82 1c-1.92 0-6.26 2.05-6.69 2.89s9.33 3 13.42 3.69 9.33 1.86 13.73 2a15.28 15.28 0 016.1 1.12 4 4 0 012.24 2.48c.72 2.14-3.44 1.67-6.22 2s-14.4.11-18 1.16"/><path class="cls-15" d="M217.05 436.38c-2 1.42-9.66 4.07-12.84 5.15s-6.26 1.45-9.48 3.58"/><path class="cls-15" d="M205.91 441c-1.92 1.7-13.13 8.18-15.45 9.95s-4.92 2-11.39 2.75a24.78 24.78 0 01-9.27-.47c-3.47-.76-5-1.67-7.41-1.51m11.09 2.06a106 106 0 01-1 11.61m-19.17-4.74c-.76 15.54-2.93 40.18-8 56.24s-14.25 24.11-30.75 26.27c-15.08 2-39.32-3-51.08-7A3.79 3.79 0 0161 532c1-6.78 3.4-23.52 5.1-35.3 2.17-15.09 6.31-37.95 6.52-46.91m1.54 89.37c.35 8 2.2 49.14 2.85 59M157.92 476c2 .21 9.77.38 9.77.38l.49-11s-7.76-.16-9.77-.38z"/><path class="cls-15" d="M168.14 466.17h5.57l-.23 9.44s-4.46.18-5.76.08m-9.34-9.99c-1.27-.11-4.54-.18-5.33-.31M158 475c-1.14 0-4.43-.07-5.6-.25"/><path class="cls-15" d="M172.09 475.66c-.08 5.23 1.13 28.39 1.39 36.42s.24 30.85-.74 48.12c-1.09 19.18-2.83 33.64-3.26 37.33m-8.85-118.3c.06 3.53-.38 33.91-.92 37.76"/><path class="cls-15" d="M165.46 479.23c0 1.77.07 10 .13 16.94a37.65 37.65 0 01-4.82 18.83 20.43 20.43 0 00-1.06 2c-6.4 18.89-22.47 35-27.35 82.27"/><ellipse class="cls-15" cx="145.12" cy="420.89" rx="2.71" ry="3.26"/><path class="cls-15" d="M183 453.17c2.91 7.82 14.52 33.86 14.52 67.69 0 3-1.46 3.31-3.69-1.85-1.92-4.46-7.6-16.18-20.73-17m24.04 8.7c-.74-16.4-3.64-46.48-5-60.93m-2.58-27.22l.34 5.08m106.6-25.35c2 .84 5.42.95 8.31.73s14.7-1.92 18.44-1.83 9.44 2.34 11.75 3.2c4.22 1.58 7.74 3 14.5 9.86 1.8 1.83.39 4.31-1.88 3.37"/><path class="cls-15" d="M326.64 402.71l27.71 20 5.5 5.5-7.74-2.78-14.05-10.35m-12.14-8.93l-1.57-1.16"/><path class="cls-15" d="M323.24 405.21c1.95.79 5.53 1.73 7.41 2.64s6.84 3.33 8.18 4 1 3.84-3.29 3.6-6.48-2.65-8.14-3.38a21.65 21.65 0 01-8.29-.76m5.24-6.31c-.29-.89 1.32-2.63 2.29-2.28m-3.97 9.35c-3.9 3.94-14 5-19 5.08m-13.86 2.63c2.75.62 11.48 2.79 11.48 2.79a34.84 34.84 0 0020.84 5.43s8.79 6.24 11 8.08 4.5-.6 3-2.44-9.38-8.09-9.93-8.85.06-2 2.12-.65a91.17 91.17 0 0112 9.12c2 1.93 4.67.08 2.33-3s-9.69-9.47-12.22-10.82a34.15 34.15 0 019.06 3.28c2.64 1.6 4.63 2.72 6.54 3.86 3.13 1.86 5.41-1.26 2.76-3.56m45.43-147.46l-2.32 254.82m-184.13-90.09l-.82 90.09m1.21-132.46l-.3 32.98m1.41-155.34l-.75 82.92m-1.99-98.85v15.93m190.29-15.93v15.93m-190.29 0h190.29M206.95 530.38H391.9M206.53 259.63h190.29m-12.08 270.75l3.47 60.41m-10.36-60.41l3.48 60.41m-167.21-60.41l-3.47 60.41M221 530.38l-3.47 60.41m78.44-60.41l.03 60.41m6.86-60.41l.02 60.41m-32.1-295.71l-.15 21.28h52.78v-21.28h-52.63zm25.95 26.44s43.46 29.54 50.84 36.16m-50.84-36.16c.39 9.55 1.55 32.57 1.4 35.61m-1.4-35.61c-8.39 7.53-31.05 30.21-35 35.13"/><path class="cls-15" d="M262.6 349.25a57.58 57.58 0 00-1 6.79c-.17 2.43 6-1.63 7.54-2.61m25.37-1.73a21.23 21.23 0 003.09 5.53c1.12 1.35 2.39-.43 3.53-5.53m43.4-.64a66.94 66.94 0 013 6.62c.49 1.52-3.25-.06-6.51-1.41m-104.14 5.85h36.03v13.78h-28.98m-7.05-13.78v10.85M255 375.9v6.3m30.61-6.3h33.5v-12.95h-33.5v12.95m54.05-12.37h38.28v12.81h-38.42l.14-12.81zm-39.13 15.3v11.89m-4.03-4.89c1.21 1.63 2.46 4 3.22 4.89 1.25 1.41 2.17-.22 4.78-5.27m53.5-4.73c-.05 1.73.07 8.3 0 10.42"/><path class="cls-15" d="M353.79 387.12a32.29 32.29 0 003.53 4.56c1.14 1.25 3.53-2.44 4.83-4.29m-76.54 7.54h33.5v4.06m29.99 10.94h28.84v-14.44H340.2v7.76m30.86 88.06H231.27l.87-28.07h139.79l-.87 28.07z"/><ellipse class="cls-15" cx="249.56" cy="476.61" rx="5.52" ry="5.98"/><ellipse class="cls-15" cx="275.56" cy="476.61" rx="5.52" ry="5.98"/><ellipse class="cls-15" cx="301.56" cy="476.61" rx="5.52" ry="5.98"/><ellipse class="cls-15" cx="327.55" cy="476.61" rx="5.52" ry="5.98"/><ellipse class="cls-15" cx="353.55" cy="476.61" rx="5.52" ry="5.98"/><path class="cls-15" d="M256.31 430.17l.32 25.69m-4.23-4.49s2.68 4.34 3.91 5.93 2.6-2.53 3.9-5.93m43.47-18.52v24.81M299 451s2.35 4.48 3.76 6.51c2.1 3 3.4-2.22 5.57-6.09m48.77-16.18v22.86m-3.94-5.35c1.76 3.08 2.42 4.81 3.43 5.82s3.33-3.19 4.42-5.72"/></g></svg>