<svg xmlns="http://www.w3.org/2000/svg" viewBox="0 0 536 536"><defs><clipPath id="clip-path"><circle class="cls-1" cx="405.32" cy="278.86" r="76.15"/></clipPath><clipPath id="clip-path-2"><circle class="cls-1" cx="446.97" cy="80.93" r="76.15"/></clipPath><clipPath id="clip-path-3"><circle class="cls-1" cx="376.15" cy="453.35" r="76.15"/></clipPath><clipPath id="clip-path-4"><circle class="cls-1" cx="124.03" cy="357.56" r="76.15"/></clipPath><clipPath id="clip-path-5"><circle class="cls-1" cx="91.01" cy="125.98" r="76.15"/></clipPath><style>.cls-1,.cls-10,.cls-9{fill:none}.cls-2,.cls-6{fill:#30d9cb}.cls-4{fill:#fff}.cls-6{opacity:.45}.cls-8{fill:#28b8ce}.cls-9{stroke:#28347d;stroke-linecap:round;stroke-linejoin:round;stroke-width:1.7px}.cls-10{stroke:#fff;stroke-miterlimit:10;stroke-width:2.37px}</style></defs><g id="Figuras_fondo" data-name="Figuras fondo"><path class="cls-2" d="M136 106.05c64.62-55.36 114.27-67.51 184.09-5.32S568.84 145 476.25 391.56-88.06 298 136 106.05z"/><path d="M133 140.29c18.44-20 60.77 56.7 146.42-52.17s229.56 118.4 60.8 200S78.87 199 133 140.29z" fill="#fd0"/></g><g id="Logo"><path id="Path_2911" data-name="Path 2911" class="cls-4" d="M250.84 232.57h-17.93v-28.32h17.93v4.06H237.9v8.08h11.16v4.05H237.9v8h12.94z"/><path id="Path_2912" data-name="Path 2912" class="cls-4" d="M254.14 197.07l19 26.86v-19.69h5v36.29l-19.08-27.23v19.27h-4.92z"/><path id="Path_2913" data-name="Path 2913" class="cls-4" d="M289.94 233a9.6 9.6 0 01-3.23-.53 10.28 10.28 0 01-2.79-1.49 11.8 11.8 0 01-2.27-2.25A14.92 14.92 0 01280 226l3.47-2.87a8.86 8.86 0 001.05 1.78 17.22 17.22 0 001.6 1.91 9.44 9.44 0 001.88 1.48 3.83 3.83 0 002 .6 6.37 6.37 0 002.48-.4 4 4 0 001.51-1 3.17 3.17 0 00.74-1.23 4 4 0 00.19-1.14 5.52 5.52 0 00-.12-1.14 3.54 3.54 0 00-.62-1.35 6.56 6.56 0 00-1.56-1.46 14.19 14.19 0 00-2.9-1.49 36.38 36.38 0 01-4.41-2.11 13.34 13.34 0 01-2.72-2 5.87 5.87 0 01-1.39-2 6.16 6.16 0 01-.39-2.25 7.9 7.9 0 01.48-2.64 6.94 6.94 0 011.58-2.53 8.35 8.35 0 012.88-1.88 11.59 11.59 0 014.44-.75 9.6 9.6 0 015.89 1.74 11.05 11.05 0 013.58 4.9l-4.23 1.35a5.24 5.24 0 00-5.24-3.67 5.12 5.12 0 00-3.12.79 2.53 2.53 0 00-1 2.09 2.13 2.13 0 00.54 1.42 6.23 6.23 0 001.46 1.2 15.78 15.78 0 002.16 1.12l2.67 1.13a16.23 16.23 0 013.81 2.24 9.24 9.24 0 012.09 2.36 7.14 7.14 0 01.88 2.37 14.47 14.47 0 01.19 2.18 8.57 8.57 0 01-.47 2.51 7.92 7.92 0 01-1.58 2.74 8.69 8.69 0 01-3 2.18 11.22 11.22 0 01-4.88.82z"/><path id="Path_2914" data-name="Path 2914" class="cls-4" d="M321.12 232.57l-3.3-7.66h-10.4c-.52 1.2-1.07 2.5-1.65 3.87s-1.1 2.64-1.6 3.79H299l13.65-31.3 13.75 31.3zm-5-11.8l-.9-2.2c-.27-.64-.52-1.26-.77-1.88l-.81-2c-.29-.71-.64-1.59-1.05-2.65-.55 1.4-1.12 2.8-1.71 4.21s-1.2 2.91-1.81 4.52z"/><path id="Path_2915" data-name="Path 2915" d="M183.23 200.82c-.1.23-.51.15-.84.16.04-.29.55-.12.84-.16zm5.65-.44c-.29 0-.73-.34-.85-.08.31.08.69.27.85.08zm-5.13.08c-.23-.07-.72-.15-.84.25.33-.2.6 0 .84-.25zm3 .25a3.84 3.84 0 00-2.27.25c.05 0 .4.19.42 0-.42 0 .27-.16.42-.17-.07.35 1.28.16 1.43-.08zm-10.35 4.07c0-.24.28-.23.34-.42-.22.01-.67.3-.31.42zm20 10.64a8.75 8.75 0 00.16 1.91 4.74 4.74 0 00-.11-1.91zm-15.31-14.3c.55-.18 1.13-.33 1.68-.5a2.79 2.79 0 00-1.63.5zm4 .08c-.71-.06-1.1.19-1.77.17-.26.24-.82.19-1.09.42 1.07-.17 1.92-.46 2.95-.59zm-11.52 4.74c0 .13-.36.35-.17.42a15.87 15.87 0 014.79-4 12.66 12.66 0 00-5.29 4.24 3 3 0 01.76-.66zm21.61-2.08c.37.21.93.7.5.34 0 0-.26-.46-.5-.34zm-22.45 1.75c.57-.09.86-1.09 1.08-1.35a3.86 3.86 0 00-.66.68v-.24c-.4 0-.38.45-.59.66.38-.07.38.13.26.25zm1.08-1.35l.1-.06s.02.02-.01.06zm1.78 1.1c0-.28.67-.38.42-.66.08.3-.58.39-.33.66zm5.13.33c-.33 0-.43.42-.59.09-.15.17.06.16-.09.33a1.42 1.42 0 00.77-.42zm-6.9 1.33c.16-.31.74-.65.67-.91-.16.22-.61.69-.58.89zm-1.43.25c-.16.26-.61.67-.5.92.15-.28.58-.7.5-.92zm-1.34 3.73c.18-.65.77-1.34.84-1.82a5.5 5.5 0 00-.84 1.82zm1.27-1.24c-.07.29-.57.6-.34.91 0-.34.46-.7.34-.91zm22.53 1.83c0-.24-.34-.59-.26-.42s.33.89.25.42zm.08.49c.31.42.33 1.12.68 1.5-.2-.47-.36-1.41-.68-1.49zm-.33 11.73a12.06 12.06 0 001.34-8.32c.22.05.3 0 .25-.25-.49-.17-.3-1-.58-1.41v.25c1.25 4.54-.33 9.47-2.86 11.8a4.5 4.5 0 001.85-2.06zm-19.51-2.17c.12.28.31.91.59.75-.3-.13-.32-.56-.59-.74zm1 1.83c0 .26.39.55.5.42-.22-.09-.28-.33-.5-.42zM193 226a2.18 2.18 0 00-1.1.91 1.54 1.54 0 01.76-.41c-.27-.23.31-.3.34-.5zm-.84.83c-.1.24-.77.34-.59.58.09-.24.82-.29.59-.58zm-5 5.23c.27 0 .84-.21.75-.33-.31.12-.57 0-.76.34zm-2.27-31.67c0-.12 0-.29.16-.25s-.1.13.09.25c.82-.27 1.4 0 2.27-.16-.41 0-.43-.08-.26-.34a3.32 3.32 0 00-3 .59c.27-.06.63-.23.78-.11zM176 224.57v.05l.09.07zm1 1.06c.12.23.4.65.62.64a1.37 1.37 0 00-.62-.64zm12.31 6.5s-.09 0-.09.08l.09-.07zm12.61-8.9c-.43.8-.55 1.9-1.26 2.42 0 .16.23.1.17.33a17 17 0 01-2.95 3.91c.57.17-.9.75-1 1.32a.65.65 0 00-.51 0c-.19.84-1.38.69-1.6 1.5a20.71 20.71 0 01-6 2.08c1.91-.75 4.11-1.2 5.54-2.41-.1-.18-.34.21-.58.17a20.37 20.37 0 01-3.28 1.43c1.78-1.06 3.76-1.93 5.13-3.41-.48 0-.55.51-1 .58a18.16 18.16 0 003.78-3.9 15.83 15.83 0 01-3.61 3.24c.12-.37.58-.42.75-.75a22.71 22.71 0 01-5 3 20 20 0 002.78-1.74c-1 .27-2.08 1.1-3.2 1.49-.08-.28.73-.39 1-.58-.92 0-1.79.77-2.86.91a8.44 8.44 0 011.26-.58c0-.06-.09-.08-.16-.07 1-.83 2.5-1.53 3.67-2.45a6 6 0 00.7-.63 28.82 28.82 0 01-2.94 1.71c.11.06.22 0 .2.09a3.27 3.27 0 00-.88.17h-.08c-.61.2-1.2.46-1.58.32A9.43 9.43 0 00190 231c-.08-.11-.34.1-.65.1l.43-.28c-.79.19-1.47.66-2.44.38-1 .36-2.25 0-3.3.16.33 0 .71.2 1 .08 1.06.79 2.6-.25 3.32.2-1 .21-2.16.22-3.22.38.11.09.24 0 .23.11A13.5 13.5 0 01183 232c.84.3 1.85.16 2.51.57a2 2 0 00-.94 0c.12.1.42-.08.38.17a30.51 30.51 0 00-3.13-.22 9.46 9.46 0 002.62.53c.63.06 1.46-.16 1.85.19-.52.05-.68.42-1.28 0-.16.52-.5-.17-.63.17.41.23 1.38 0 1.86.38a4.84 4.84 0 00-1.47 0c.77.49 1.56.12 2.24.54-.63.18-1.49-.23-2 .2a6.76 6.76 0 011.74 0c-.92.27-2.07-.08-3.05 0-.44-.38-1-.23-1-.08a3.9 3.9 0 00-1.82-.26 19 19 0 01-7.88-4.35c1.15 1.54 3.26 2.67 4.92 3.76a13.16 13.16 0 01-3.79-2.19.24.24 0 00-.14-.12l.14.12a.22.22 0 010 .14 15.6 15.6 0 01-4.08-5 15.31 15.31 0 01-2.57-5.31.25.25 0 01.12.08 12.52 12.52 0 01-.46-2.78 13 13 0 010-1.53c.32 1.94.49 4.31 1.43 6a18.61 18.61 0 01-.75-8.89 3.76 3.76 0 00.5-1.75c.14.07.51-.37.34-.91.48-.85.63-2 1.26-2.75a7 7 0 01-.67 1.59c.61-.31.58-1.25 1-1.74.11.78-.56 1.34-.42 2.24a4.64 4.64 0 00.58-1.33c.2.6-.45 1.36-.42 1.83.38 0-.12-.57.42-.5-.16-.73.25-.71.51-1.16.17.49-.38 1.15-.59 1.74a9.13 9.13 0 00-.59 2.58 29.59 29.59 0 001.09-2.91c.25.07 0 .26 0 .41.24-.18.3-.53.42-.83.11.77-.43 1.62-.5 2.5.34-.64.4-1.55.84-2.08.13 0 0 .1 0 .25.59-.9 1.06-1.89 1.68-2.74.12.82-1.47 1.79-1.17 3.07-.23.19-.23.61-.34.92.61-.87.77-2.18 1.51-2.91.18-1.24 1.26-1.59 1.69-2.58-.48.17-1 1-1.44 1.5.05-.61 1.15-1.28 1.52-2.08.12 0 0 .1 0 .25 1.74-2 4.56-2.86 7.23-3.91-.07-.24-.21.11-.42 0 .21-.21.75-.25.67-.5 6.41-1.46 12.7 2.3 15.47 6.24.05-.18-.51-1.31-.67-1-.78-2.24-3.07-3.67-5.05-4.82 1.1.12 2.93 1.6 4 1.74-.17-.58-.8-.69-1.35-1.08.65-.14 1.12 1.06 1.85.83 0 0 .27.64.42.25a19.1 19.1 0 015.3 12.47 18.44 18.44 0 01-1.09 6.82c.25-.09.11-.56.42-.59zm-28.83-.48l.26-.15a2 2 0 00.58 1.36c0-.09-.12-.21-.09-.31a5 5 0 01.5.84 3.52 3.52 0 01.3.45.15.15 0 01-.07 0 1.72 1.72 0 00.91.87 8.35 8.35 0 01-.79-1.35 1.42 1.42 0 01-.74-1.09 11.18 11.18 0 01-1-1.68 2 2 0 00.18 1.09zm.9.16c-.08.05-.08.13 0 .23v-.23zm1.87 3.4zm.11-.87a5.88 5.88 0 00-1.1-.89c.18.37.35.7.53.54.24.15.21.59.57.35zm-8.27-3.87a.34.34 0 000-.1v-.05c-.04.04-.03.1-.01.15zm5.14 8.5a1.47 1.47 0 00-.47-.58c0 .25.28.4.48.58zm3.25-3.48c-.06-.07-.11-.15-.17-.23h-.08l-.1.09a2.28 2.28 0 00.36.15zm1.4 3c.07-.3-.51-.36-.77-.53.07.25.44.38.77.53zm5.44 2.43c0-.28-.44-.08-.64-.2.03.28.43.08.63.18zm2.45-2.74c.5 0 .78.28 1.25.1.06-.14-.23-.16-.13-.33 1-.19 2.56.1 2.92-.52a1 1 0 00.58.09l.19-.11a.72.72 0 00.2-.28c.43.23.67-.06 1-.15a1.9 1.9 0 00.21-.19.13.13 0 00-.1 0h-.09l-.34.25.24-.19.09-.06a13.83 13.83 0 005.36-8.91c0-.28.06-.57.08-.87a.78.78 0 000-.16v-1.06c0-.28 0-.57-.05-.86v-.25c0-.37-.09-.75-.16-1.14a12.86 12.86 0 00-4-7.4c-.45.16 0-.16-.42 0a9.32 9.32 0 00-1.18-1c-3.73-1.93-9-.73-11.94 1.5-.14 0-.16-.06-.17-.17-.57 1-1.87 1.37-2.27 2.58-.12 0 0-.25-.17-.25-.47.61-.59 1.23-1.09 1.91v.05h.06a.25.25 0 010 .07l-.06.22c-.21.58-.56 1.22-.74 1.86 0 .11 0 .22-.07.33a6.31 6.31 0 01.25-1.83c.72-2.48 2.85-4.36 4.79-5.65.24.19 1.74-.64 2.53-1.08a7.21 7.21 0 012.85-1.08c-1.24-.22-2.35.55-3.28.58 0-.43.11-.37.25-.58a5.26 5.26 0 00-2.27.83 8.05 8.05 0 013-1.5c-.18-.35-.64.19-1 .17 0-.22.33-.12.34-.33-.25 0-.26.19-.51.16.12-.33.58-.31.84-.5-3.32.52-5.76 3.18-7.73 5.57.08.16.33-.22.42-.33 0 .33-1 1.11-1.09 1.83a21.06 21.06 0 013.36-4.16c.15.06 0 .15 0 .25.38.07.2-.41.5-.41-.1.56-.59.74-.75 1.24.36-.09.32-.57.84-.5-.1.49-.71.47-.67 1.08-.5 0-.67.29-.68.75-.71.07-1.07 1.55-1.68 2.41-.19 0-.09-.24-.25-.25-.36.36-.26.7-.42 1.17-.48-.29-.62 1.51-1 2.24.29-.34.11.6.08.83-.18 0 0-.29-.08-.41a.72.72 0 00-.17.58c.1 0 .15 0 .17.08.26 0 0-.41.33-.33-.07.14-.1.49.09.25a19.2 19.2 0 00.42 4.07 12.35 12.35 0 01-.59-2.08 6.47 6.47 0 001.93 5.07c0 .13-.07 0-.16 0 .09.28.38.34.5.59a1.44 1.44 0 01-1.09-.67c.33 1 1.63 1.83 2.52 2.58a3.71 3.71 0 01-1.2-.45.12.12 0 010-.05l-.14-.08a5.11 5.11 0 01-1.9-2.19c-.35.23 0 .38.08.65.32 1.07 1.25 1.11 2 1.76a7.47 7.47 0 004.21 3.18 13.12 13.12 0 01-1.68-1.38 20.47 20.47 0 003.58 2.05c-.3.08 0 .19.2.18-.05.31-.38-.09-.45.17.05 0 .06.1 0 .18a.73.73 0 00.61.09c-.1-.09-.44-.09-.35-.24.23.07 1.17.29.73.41.83 0 2.55.57 2.48 0zm7.88-2.14a4.41 4.41 0 00-1.41 1.31h.15a7.69 7.69 0 001.26-1.29zm-5.66 2c.13.33.55 0 .79.08-.09-.23-.54 0-.8-.08zm0 1.3c-.4-.22-1.14.12-1.69.06.41.24 1.16 0 1.69-.06zm1.1-.48l.21-.15-2.22.4c.64.15 1.6-.27 2-.25zm-.36.26a4 4 0 011.37-.09l1.2-.85c-.45.15-.91.28-1.37.39a1.07 1.07 0 00-.36.43c-.29-.19.23-.23.24-.4-.32.17-.66.31-1 .48l.2-.16c-.17 0-.35.1-.28.2zm6.89-3.86a16.67 16.67 0 01-5.19 3.82 3.19 3.19 0 01.44.13 17.69 17.69 0 004.79-4zm-1.43 6.15h-.15z" fill-rule="evenodd" fill="#fff"/><path id="Path_2916" data-name="Path 2916" class="cls-4" d="M229.19 226.65l-1.89-2-.36-.38a10 10 0 11-2.19-14 10.13 10.13 0 012.23 2.25l3.2-3.48a14.66 14.66 0 10-2 20.63 14.12 14.12 0 002-2.05z"/></g><g id="LIN"><circle class="cls-6" cx="402.53" cy="270.5" r="76.15"/><g clip-path="url(#clip-path)"><path class="cls-2" d="M389.77 303.75a80.07 80.07 0 008.69 19.59c-7.86-10-12.61 8.53-12.61 8.53-3.45-15.26-1.16-25.71 1.55-32.35a46.48 46.48 0 012.73-5.55 89.31 89.31 0 01-.36 9.78zm38.56-7.75c2.57 6.62 5.28 18.93-.4 36.82 0 0-2.33-23.45-12.84-8.21 5.18-7.49 9.59-16 11.62-22.35a94.78 94.78 0 01-.82-11.38 39.45 39.45 0 012.44 5.12z"/><path class="cls-2" d="M400.68 326.85a76.82 76.82 0 006.1 8 73.46 73.46 0 008.22-10.12.24.24 0 01.06-.08c10.51-15.24 12.84 8.21 12.84 8.21 5.68-17.89 3-30.2.4-36.82 6.78 3.81 20.14 9.35 28.33 14.56s12.8 9.33 16.26 13.57c7.28 8.95 7.14 35.62 7.16 43.85H340.92c.07-11.83-.93-33.15 6.6-41.33 5.52-6 32.45-22.95 39.88-27.17-2.71 6.64-5 17.09-1.55 32.35 0 0 4.75-18.55 12.61-8.53.69 1.17 1.44 2.35 2.22 3.51z"/><path class="cls-4" d="M425.89 290.92a94.78 94.78 0 00.82 11.38c-2 6.3-6.44 14.86-11.62 22.35a.24.24 0 00-.06.08 73.46 73.46 0 01-8.25 10.11 76.82 76.82 0 01-6.1-8 24.83 24.83 0 00-2.22-3.51 80.07 80.07 0 01-8.69-19.59 89.31 89.31 0 00.36-9.78 57.76 57.76 0 00-.47-7.5c4.13 5.83 9.8 8.66 15.14 8.84 5.64.19 13.95-3.09 19.23-11.66a27.78 27.78 0 002.06-4.12c-.24 3.12-.29 7.32-.2 11.4zm-11.67-16.8c-.43.69-3.1 3.95-6.23 4.41a28 28 0 01-7.47-.27c-2.44-.45-5-3.79-5.38-4.53 2.02.33 14.3 1.06 19.08.39z"/><path class="cls-8" d="M392.12 233.48c-4.24 2.66-7.35 4.49-8.18 23.19a4.88 4.88 0 00-1.81-1.73c-.28-4.11-1-15.59.95-20.18 1.47-3.51 3.59-4.53 3.59-4.53a6.4 6.4 0 00-2.73-.37c1.93-2.11 5.71-3.1 5.71-3.1a11.7 11.7 0 00-4 0c2.67-3.23 14.15-10 26.37-9.25s16.81 8.94 16.81 8.94a3.1 3.1 0 002.49 0 2.2 2.2 0 01-1.24 2.6 3.48 3.48 0 002.32.87 2.31 2.31 0 01-1.77 1.12c2.79 2.86 4.53 18.92 2.93 26.26-1.73.5-2.61 3.3-3.17 5.08h-1.3c.24-2.82 1.86-19.24-4.09-25.62a10.63 10.63 0 00-4.9-2.73 20 20 0 00-6.44-.66 16.15 16.15 0 00-5.3 1.15 8.62 8.62 0 00-2 1.16c-4.54-3.52-10.72-4.4-14.24-2.2z"/><path class="cls-4" d="M384.35 272.12c-2.5 4.9-3.91-6.74-4.66-9.95-.89-3.91.19-8.24 2.45-7.23a4.88 4.88 0 011.81 1.73c.83-18.7 3.94-20.53 8.18-23.19 3.52-2.2 9.7-1.32 14.22 2.21a8.62 8.62 0 012-1.16 16.15 16.15 0 015.3-1.15 20 20 0 016.44.66 10.63 10.63 0 014.9 2.73c6 6.38 4.33 22.8 4.09 25.62h1.3c.56-1.78 1.44-4.58 3.17-5.08a2.15 2.15 0 011.3 0c2.6.88 1.21 7.06 0 10.66s-5.36 9.88-6.93 5a33.57 33.57 0 01-1.83 6.51 27.78 27.78 0 01-2.06 4.12c-5.28 8.57-13.59 11.85-19.23 11.66-5.34-.18-11-3-15.14-8.84-.23-.32-.46-.67-.69-1-2.51-3.89-3.89-8.92-4.62-13.3zm23.65 6.41c3.13-.46 5.8-3.72 6.23-4.41-4.78.67-17.06-.06-19.08-.39.35.74 2.94 4.08 5.38 4.53a28 28 0 007.47.27z"/><path class="cls-9" d="M394.24 254.15c0 .47-.18.86-.41.86s-.42-.39-.42-.86.18-.85.42-.85.41.38.41.85zm22.95.48c0 .47-.19.86-.42.86s-.42-.39-.42-.86.19-.85.42-.85.42.38.42.85zm-10.85-18.94c-4.53-3.54-10.69-4.41-14.22-2.2-4.24 2.65-7.35 4.48-8.18 23.18m22.4-20.98c4.35-3.41 14.74-3.17 18.69 1.07 6 6.38 4.33 22.8 4.08 25.61m-45.66 1.37c.18 4 1 14.64 5.52 21.71 4.17 6.51 10.18 9.68 15.83 9.86s13.95-3.09 19.23-11.65c4-6.43 4.34-13.78 4.46-15.21m-2.41 11.08c-.5 6.55-.17 17.93.64 22.77"/><path class="cls-9" d="M383.94 256.67c-3.43-4.84-5.37.66-4.26 5.5.75 3.22 2.15 14.85 4.66 9.95m43.59.88c1.57 4.88 5.69-1.41 6.93-5s2.63-9.78 0-10.65-3.78 2.85-4.46 5h-1.31"/><path class="cls-9" d="M433.58 257.3c1.62-7.34-.12-23.41-2.91-26.26a2.3 2.3 0 001.76-1.12 3.42 3.42 0 01-2.32-.87 2.2 2.2 0 001.24-2.6 3.08 3.08 0 01-2.48 0s-4.6-8.13-16.82-8.94-23.7 6-26.37 9.25c0 0 2.79-.44 4 0 0 0-3.78 1-5.71 3.1a6.4 6.4 0 012.73.37s-2.12 1-3.59 4.53c-1.93 4.59-1.23 16.07-.95 20.18m30.26-5.47c2.49-.31 9.19.12 11.92 1.3m-25.19-2.11a37.48 37.48 0 00-11.48.71"/><path class="cls-9" d="M402.93 252.82c-.56 1.67-3.72 11.6-3.23 12.84s7.64 1.18 9.75.81m-14.31 7.26c2 .32 14.31 1.06 19.08.39"/><path class="cls-9" d="M395.14 273.73c.34.75 2.94 4.08 5.38 4.53a28.44 28.44 0 007.47.28c3.13-.47 5.8-3.73 6.23-4.42m-12.61 8.19c.87.37 4.42.91 6.08 0m-7.86-56.96c5.75-.49 14.64 4.41 8.54 9.18m-3.62-12.16c5.58-.2 18.16 8.23 8.94 11m-2.2-12.77c6 .66 19.22 13 8.64 13.43m-13.35 100.81c10.57-10.59 21.34-31.18 21.15-38.8m-39.02 3.48c.74 6.62 6.7 22.5 17.87 35.32m-17.12-48.37c.74 4.69.49 14.43.11 17.28"/><path class="cls-9" d="M390.13 294c-3.18 5.54-8.92 17.37-4.28 37.89 0 0 5.67-22.16 14.87-5m25.17-35.97c1.65 3.06 9.93 17.12 2 41.94 0 0-2.33-23.54-12.9-8.13"/><path class="cls-9" d="M387.4 299.52c-7.43 4.22-34.37 21.17-39.88 27.17-7.53 8.19-6.53 29.5-6.59 41.33m87.4-72.02c6.78 3.81 20.14 9.35 28.33 14.56s12.8 9.33 16.26 13.57c7.29 8.95 7.14 35.62 7.16 43.85"/></g><circle class="cls-10" cx="405.32" cy="278.86" r="76.15"/><circle class="cls-6" cx="441.19" cy="86.56" r="76.15"/><g clip-path="url(#clip-path-2)"><path class="cls-2" d="M430.15 111.43c-4.24 4.46-9.8 10.19-11.84 13.73l2.9 2.22-3.28 1.15s-12.12 35.11-13.85 47.24h-8.66c.28-6.47 5.58-47.9 14.55-54.72 7.22-5.5 14.38-7.29 20.18-9.62z"/><path class="cls-2" d="M434.78 106.33c0 1.38.05 2.79 0 4.22-.89 1.34-3.23 5.67-6.17 11.74-6.67 13.74-16.47 36.4-19.81 53.47h-4.71c1.73-12.13 13.85-47.24 13.85-47.24l3.28-1.15-2.9-2.22c2-3.54 7.6-9.27 11.84-13.73.83-.86 1.6-1.69 2.29-2.43.97-1.05 1.78-1.99 2.33-2.66z"/><path class="cls-8" d="M458.23 125.16c-6.34 16.1-14.41 36.36-17.31 50.61h-32.13c3.34-17.07 13.14-39.73 19.81-53.47.62 7.34 14.4 14.47 29.63 2.86z"/><path class="cls-2" d="M475.53 109.79c.8 2.1-4.75 16.46-4.75 16.46l-6.14 1.87 4.47 2.31s-13.92 33.24-18 45.34h-10.19c2.9-14.25 11-34.51 17.31-50.61 3.85-9.77 7.08-18 8.14-22.46-.13-.91-.25-1.78-.34-2.6 1.45 1.48 6.29 5.57 8.48 8.17a6.21 6.21 0 011.02 1.52z"/><path class="cls-2" d="M485.85 175.77h-34.71c4.05-12.1 18-45.34 18-45.34l-4.47-2.31 6.14-1.87s5.55-14.36 4.75-16.46c4.12 2 21.4 9.11 27.8 12.84s10.22 14.2 11.91 24.94 4.11 22.58 4.11 28.2z"/><path class="cls-4" d="M434.77 110.55c.06-1.43.05-2.84 0-4.22a109.39 109.39 0 00-1.84-14.56c3.5 3.42 7.87 7 9.48 7.77 2.67 1.38 9.42.82 11 0 3.36-1.76 10-9.62 12.67-13.27a68.59 68.59 0 000 13.83c.09.82.21 1.69.34 2.6-1.06 4.44-4.29 12.69-8.14 22.46-15.23 11.61-29 4.48-29.63-2.86 2.89-6.08 5.23-10.41 6.12-11.75z"/><path class="cls-2" d="M427.23 82.53a2.69 2.69 0 01-5.26-.79 2.61 2.61 0 01.84-1.95 2.67 2.67 0 013.91.22c.15.87.33 1.72.51 2.52zm44.26-4.84a2.7 2.7 0 11-3.49 3.7c.17-1 .32-2 .44-3.09a2.69 2.69 0 013-.61z"/><path class="cls-8" d="M422.8 79.79a2.61 2.61 0 00-.84 1.95 2.69 2.69 0 005.26.79 25.44 25.44 0 001 3.45c.51 1.34 2.44 3.54 4.74 5.79a109.39 109.39 0 011.84 14.56c-.55.7-1.36 1.61-2.34 2.67l-1.46-1.81c-1.43-2.81-4.08 2.6-4.08 2.6-1.13-1.8.33-5.05.26-7.09s-2-4.24-3.1-1.21a21.83 21.83 0 01-3.74 6 5.91 5.91 0 00.06-6c-1.23-2.67-.22-8.8-.72-10.74s-2.24-1.24-2.6 2.88a17.43 17.43 0 01-3.25 7.86c.44-1.15 1-5.27-.35-7.5s-1.17-5.12-.37-8.57 0-9.33 0-9.33c-1.4.49-3.14 8.78-3.24 9.31.28-1.28-.3-2.83-1.45-5.84s1.44-6.21 3.4-10.27a16.43 16.43 0 001.58-7.84c-1.51.36-5 7.84-5 7.84.08-4.06 2.6-8.42 1.81-11.45a8.81 8.81 0 012.23-8.58c2.38-2.6 3-6.64 4.69-10s4.4-3 5-6.43 2.88-8.08 6.35-8.66 4.55-.86 7.74-4.11 8.76-3.75 11.62.79c4-4.27 11.28-3.58 16.26.53s10.05 6.33 12.73 12.1 2.52 7 5.41 9.89 1.73 9.88 4 17c0 0-3-2.1-4.05-4.41s.66 6.49 3.32 10.1 3.61 5.77 3 8.74-1.3 5.62-.36 8.65c0 0-2.53-4-2.89-6.68a6.24 6.24 0 00-1.66-3.88c-.57-.84-1.08 3.78.15 7.68s2 6.63 1.66 8.94 1.59 4.56 1.16 7.49c0 0-2.81-2.24-3.39-4.47a7.94 7.94 0 00-2-3.83s-1.38 4.25.14 7.72 2.45 3.46 1.59 6.85a13.65 13.65 0 00-2.46-3.39c-1.37-1.22-1 2.82-.14 7.15a4.65 4.65 0 00-2.31-1.8c-1.8-.8-2.74 2.45-2.74 2.81l-.74.28c-2.19-2.6-7-6.69-8.48-8.17a68.59 68.59 0 010-13.83c.49-.66.85-1.19 1-1.51a12.58 12.58 0 00.91-3.37 2.7 2.7 0 103.49-3.7c2.41-5.38 3-17.24-1.94-13.28 0 0-.08-6.71-.29-12.13s-1.63-11.58-7.94-14.71c-5.29-2.63-11.19-2.9-13.86-1.31-2.88-1.94-10.82-1.66-13.06.3s-.79 4.4-3.09 6-1.24 3.74-3.39 6.41.14 5.35-3.11 7.22-.76 9.16-.76 9.16c-5.57-5.1-5.52 9.52-1.23 14.38z"/><path class="cls-4" d="M456.65 83.07c-.47 1.06-4.07 3.93-5.33 4.48a10.09 10.09 0 01-5.35 0 14.05 14.05 0 01-5.53-4.48c2.74-.07 13.86-.2 16.21 0z"/><path class="cls-4" d="M426.71 80a2.67 2.67 0 00-3.91-.22c-4.3-4.86-4.35-19.48 1.2-14.38 0 0-2.46-7.34.79-9.22s.94-4.55 3.11-7.22 1.07-4.83 3.39-6.41.86-4 3.09-6 10.18-2.24 13.06-.3c2.67-1.59 8.57-1.32 13.86 1.31 6.31 3.13 7.72 9.3 7.94 14.71s.29 12.13.29 12.13c4.95-4 4.35 7.9 1.94 13.28a2.69 2.69 0 00-3 .61c-.12 1.07-.27 2.14-.44 3.09a12.58 12.58 0 01-.91 3.37c-.19.32-.55.85-1 1.51-2.7 3.65-9.31 11.51-12.67 13.27-1.54.82-8.29 1.38-11 0-1.61-.82-6-4.35-9.48-7.77-2.3-2.25-4.23-4.45-4.74-5.79a25.44 25.44 0 01-1-3.45c-.18-.79-.36-1.64-.52-2.52zm24.61 7.54c1.26-.55 4.86-3.42 5.33-4.48-2.35-.2-13.47-.09-16.21 0a14.05 14.05 0 005.56 4.49 10.09 10.09 0 005.32 0z"/><path class="cls-9" d="M447.46 36.27c-2.88-2-10.82-1.66-13 .28s-.8 4.41-3.11 6-1.22 3.76-3.39 6.42.15 5.34-3.1 7.22-.86 9.21-.86 9.21m23.46-29.13c2.67-1.59 8.57-1.33 13.86 1.29 6.31 3.13 7.72 9.31 7.94 14.72s.29 12.13.29 12.13m-20.64-2.53c1 3 3 12 3 13.64s-5.56 1.3-6.78.57m9.7-18.97c2-.53 8.22-.8 10.75.72m-23.8-.25c-3-.8-8.2-.86-11.1.49"/><path class="cls-9" d="M425.31 71c.58 4 1.59 11.55 2.89 14.94s11.55 12.19 14.22 13.57 9.42.81 11 0c4-2.1 12.49-12.7 13.71-14.8s2-13 2-14.28m-36.19 21.34c.67 4.24 2.56 12.9 1.62 21.85m31.49-27.35a65 65 0 00.32 16.42"/><path class="cls-9" d="M447.85 20.82c-2.85-4.54-8.43-4-11.62-.79s-4.28 3.54-7.74 4.11-5.77 5.2-6.35 8.66-3.25 3-5 6.42-2.31 7.44-4.69 10a8.86 8.86 0 00-2.24 8.59c.8 3-1.73 7.39-1.8 11.45 0 0 3.46-7.48 5-7.84a16.37 16.37 0 01-1.59 7.84c-1.95 4.06-4.54 7.24-3.39 10.27s1.73 4.58 1.44 5.86c0 0 1.81-8.82 3.25-9.33 0 0 .79 5.89 0 9.33s-1 6.33.36 8.57.8 6.35.36 7.5a17.43 17.43 0 003.25-7.86c.36-4.11 2.1-4.84 2.6-2.89s-.51 8.08.72 10.75a5.89 5.89 0 01-.07 6 21.53 21.53 0 003.75-6c1.08-3 3-.84 3.1 1.2s-1.39 5.3-.26 7.1c0 0 2.64-5.41 4.09-2.6m16.83-86.34c4-4.28 11.28-3.58 16.26.53s10.05 6.33 12.72 12.1 2.53 7 5.41 9.89 1.74 9.88 4 16.95c0 0-3-2.09-4-4.4s.65 6.5 3.32 10.1 3.61 5.78 3 8.73-1.3 5.63-.36 8.66c0 0-2.53-4-2.89-6.68a6.24 6.24 0 00-1.66-3.88c-.57-.84-1.08 3.78.15 7.68s2 6.63 1.66 8.94 1.54 4.62 1.11 7.56c0 0-2.81-2.24-3.39-4.48a7.77 7.77 0 00-2-3.82s-1.37 4.26.15 7.72 2.45 3.46 1.58 6.86a13.46 13.46 0 00-2.45-3.4c-1.37-1.22-1 2.82-.14 7.15a4.7 4.7 0 00-2.31-1.81c-1.81-.79-2.74 2.46-2.74 2.82m-18.62-24.97c-2.35-.19-13.46-.1-16.21 0m0 0a13.82 13.82 0 005.56 4.47 9.82 9.82 0 005.33 0c1.27-.54 4.86-3.41 5.34-4.47M447 91.36a9.68 9.68 0 004.19-.08m-16.42 19.26c-2.89 4.33-21.17 40.6-26 65.22"/><path class="cls-9" d="M434.77 106.33c-2.89 3.73-13.47 13.63-16.45 18.83l2.89 2.21-3.28 1.16s-12.12 35.11-13.85 47.23m62.29-73.07c-2.81 11.79-20.78 50.18-25.45 73.07"/><path class="cls-9" d="M466 100.1c1.78 1.83 8.71 7.6 9.5 9.69s-4.75 16.45-4.75 16.45l-6.14 1.88 4.47 2.31s-13.92 33.24-18 45.33m24.45-65.97c4.12 2 21.4 9.11 27.8 12.84s10.22 14.2 11.9 24.94 4.11 22.58 4.11 28.19m-89.19-64.33c-5.8 2.33-13 4.12-20.18 9.61-9 6.82-14.27 48.26-14.55 54.72m33.18-53.47c.61 7.34 14.39 14.49 29.63 2.88M487 146.52a153.09 153.09 0 00-1.16 29.24m8.38-24.14c-3.17 3.65-7.63 9-8.62 18.38m-58.38-87.48a2.69 2.69 0 11-.51-2.52m41.74-1.7a2.66 2.66 0 011.95-.84 2.7 2.7 0 11-2.4 3.93M424 65.4c-5.57-5.09-5.52 9.51-1.23 14.39m46.78-15.38c4.95-3.95 4.35 7.9 1.93 13.28M460 63.89c0 .5-.2.91-.45.91s-.44-.41-.44-.91.2-.9.44-.9.45.4.45.9zm-22 .52c0 .5-.19.9-.44.9s-.44-.4-.44-.9.2-.91.44-.91.44.41.44.91z"/></g><circle class="cls-10" cx="446.97" cy="80.93" r="76.15"/><circle class="cls-6" cx="381.94" cy="455.07" r="76.15"/><g clip-path="url(#clip-path-3)"><path class="cls-2" d="M349.23 504c5.77-2.19 10.15-10.33 11.46-16a51.9 51.9 0 00.89-5.79c2.85 6.75 20.14 13.43 32.92 1.53-3.44 13.91-8.93 20.29-8.93 20.29a33.27 33.27 0 0010.17-3.59c-.68 4.16-4.25 7-4.47 7.18 20.32-8.59 23.47-26.89 23.47-26.89a10.78 10.78 0 012.28 5.08 21 21 0 000-10.6c3.68 1.23 5.17 6.48 5.17 6.48-.14-1.73-.45-4.37-.9-7.58 6.68 4.83 13.14 7.29 18.36 12.13 15 13.85 13.81 48.75 14.86 69.32H308.39c.18-6.57 3.16-53.1 14.11-65.28 5.54-6.17 13.58-10.6 17.6-13.22 0 1.62-.07 3.05-.09 4.19-.17 9.11-3.42 11.57-3.42 11.57a19.94 19.94 0 005.26-.61 13.68 13.68 0 01-3.06 3.24 12.11 12.11 0 006.39-1.76 9.85 9.85 0 01-2.1 5.87 22.34 22.34 0 008.74-2.8 10.52 10.52 0 01-2.59 7.24z"/><path class="cls-8" d="M396.74 470.14a116.26 116.26 0 00.25-17.62 21.85 21.85 0 00.94-9.25c-.27-1.78-.84-5.76-.84-5.76-3.31-2.16-7.12-4.34-10.64-8.26-6.64-7.37-11.92-16.3-17.79-20.67s-10.34-2-11.21 4.81c-3.15-.61-5.87 4.29-5.61 10.08s0 16.9 1.23 23.38c.82 4.31 5.27 11.41 9 16.3a53.16 53.16 0 01.24 8.82c-.11 3.34-.35 7-.69 10.17a51.9 51.9 0 01-.89 5.79c-1.31 5.69-5.69 13.83-11.46 16a10.52 10.52 0 002.6-7.26 22.34 22.34 0 01-8.74 2.8 9.85 9.85 0 002.1-5.87 12.11 12.11 0 01-6.39 1.76 13.68 13.68 0 003.06-3.24 19.94 19.94 0 01-5.26.61s3.25-2.46 3.42-11.57c0-1.14.05-2.57.09-4.19.23-11.36.7-32.86.79-41.36.05-5.78-.71-29.78 9.81-26.81a23.82 23.82 0 0111.62-13.13c5.28-2.72 7-7.45 14.39-6.84s15.07 4.91 20.33 11 11.65 15.94 15.76 30.66c3.24 11.59 6.82 31.55 8.48 43.49.45 3.21.76 5.85.9 7.58 0 0-1.49-5.25-5.17-6.48a21 21 0 010 10.6 10.78 10.78 0 00-2.28-5.08s-3.15 18.3-23.47 26.89c.22-.18 3.79-3 4.47-7.18a33.27 33.27 0 01-10.21 3.69s5.49-6.38 8.93-20.29a92 92 0 002.24-13.57z"/><path class="cls-4" d="M397 452.52a22.88 22.88 0 01-1 2.59c-2 4.41-14.89 13.91-17.09 14.35s-9.72.87-12.44-1.23a33.07 33.07 0 01-4.44-5.07c-3.69-4.89-8.14-12-9-16.3-1.23-6.48-1-17.6-1.23-23.38s2.46-10.69 5.61-10.08c.87-6.83 5.35-9.18 11.21-4.81s11.15 13.3 17.79 20.67c3.52 3.92 7.33 6.1 10.64 8.26 0 0 .57 4 .84 5.76a21.85 21.85 0 01-.89 9.24zm-17.46 1a64.44 64.44 0 01-15.43.94c.3 1.1 3 3.77 4.91 3.77a23.74 23.74 0 004.39-.23c1.15-.27 4.69-1.73 6.12-4.52z"/><path class="cls-4" d="M397 452.52a116.26 116.26 0 01-.25 17.62c-10.95 16.81-31.05 9.91-34.47 1.84a53.16 53.16 0 00-.24-8.82 33.07 33.07 0 004.44 5.07c2.72 2.1 10.25 1.66 12.44 1.23S394 459.52 396 455.11a22.88 22.88 0 001-2.59z"/><path class="cls-2" d="M396.74 470.14a92 92 0 01-2.24 13.54c-12.78 11.9-30.07 5.22-32.92-1.53.34-3.16.58-6.83.69-10.17 3.42 8.07 23.52 15.02 34.47-1.84z"/><path class="cls-4" d="M379.53 453.48c-1.43 2.79-5 4.25-6.13 4.48a23.74 23.74 0 01-4.39.23c-1.87 0-4.61-2.67-4.91-3.77a64.44 64.44 0 0015.43-.94z"/><path class="cls-9" d="M360.75 434.69c.05.49-.1.92-.35.94s-.48-.36-.53-.86.11-.92.35-.94.48.36.53.86zm19.68-.9c.05.49-.11.92-.36.94s-.48-.36-.53-.86.11-.92.35-.94.49.36.54.86z"/><path class="cls-9" d="M357.45 413.39c-3.15-.61-5.87 4.29-5.61 10.08s0 16.9 1.23 23.39 10.69 19.27 13.4 21.37 10.25 1.66 12.44 1.23S394 459.52 396 455.11a22.3 22.3 0 001.92-11.85c-.26-1.78-.83-5.75-.83-5.75"/><path class="cls-9" d="M362 463.15c.77 4.38 0 19.1-1.34 24.79s-5.69 13.84-11.47 16a10.54 10.54 0 002.61-7.27 22.34 22.34 0 01-8.75 2.8 9.82 9.82 0 002.11-5.87 12.08 12.08 0 01-6.4 1.76 13.86 13.86 0 003.07-3.24 19.94 19.94 0 01-5.26.61s3.24-2.45 3.42-11.56.77-35.84.87-45.56c.06-5.78-.7-29.78 9.82-26.8m.03.03a23.81 23.81 0 0111.62-13.14c5.28-2.72 7-7.45 14.39-6.84s15.07 4.91 20.33 11 11.65 15.94 15.77 30.66 8.76 42.93 9.37 51.07c0 0-1.49-5.25-5.17-6.48a21 21 0 010 10.6 10.78 10.78 0 00-2.28-5.08s-3.15 18.31-23.47 26.89c0 0 3.76-2.89 4.46-7.18a33.15 33.15 0 01-10.16 3.66s13.49-15.68 11.42-51.5"/><path class="cls-9" d="M357.45 413.39c.88-6.83 5.35-9.18 11.21-4.81s11.15 13.3 17.79 20.67c7.18 8 15.5 8.84 18.57 16.64 3.93 10 6.22 17.35 4.82 30.05M363 429.42c-3.37-1.46-6.68-1.4-8.84-.22m19.23 0a13 13 0 0110-.41M366.41 432c-.26 4.08-1.45 12-2.24 14.06s4.67 2.63 7.76 1.84m-8.35 6.43c2.5.53 13.13.07 16.4-1"/><path class="cls-9" d="M364.1 454.42c.3 1.1 3 3.77 4.91 3.77a23.91 23.91 0 004.4-.23c1.15-.23 4.69-1.68 6.12-4.48m-9.7 8.16a6.1 6.1 0 003.78 0M362.27 472c3.42 8.08 23.52 15 34.47-1.85m-35.16 12c2.85 6.75 20.13 13.43 32.92 1.53M340.1 477c-4 2.62-12.06 7.06-17.6 13.22-10.95 12.17-13.93 58.71-14.11 65.28m27.2-37.07c-.13 4.46-4.46 12.48-5.38 17.6s0 14.34 3.41 19.47m93.56-37.07c-.65 7.09-.26 31.55-.79 37.07M421.3 474c6.67 4.83 13.13 7.3 18.36 12.14 14.95 13.85 13.8 48.75 14.85 69.32m-22.73-33.09c-.66 5.52-2.77 7.88-5 10.77"/></g><circle class="cls-10" cx="376.15" cy="453.35" r="76.15"/><circle class="cls-6" cx="126.68" cy="349.85" r="76.15"/><g clip-path="url(#clip-path-4)"><path class="cls-2" d="M88.92 388.64c7.23 8.14 17.58 14.66 39.22 14.66 25 0 37.57-6 44.11-10.75.72.16 1.46.31 2.22.44 13.58 6.41 16.21 10.31 17.08 22.55.8 11.24 1.67 28.42 1.67 28.42H63.74c.36-12 .47-20 1.76-30.76 1.66-13.93 4.55-20.2 23.42-24.56z"/><path class="cls-4" d="M148.71 374.92a34.83 34.83 0 0023.54 17.63c-6.54 4.71-19.15 10.75-44.11 10.75-21.64 0-32-6.52-39.22-14.66l2-.27a88.92 88.92 0 009.74-2.09 45.44 45.44 0 009.45-3.63c3.71-2 3.28-6.57 3-10.07a25.46 25.46 0 004.65 3.87c3.34 2 9 1.38 13-2 4.73-4 10.7-10.43 12.35-17.79 1.46 6.77 1.72 11.11 5.6 18.26z"/><path class="cls-8" d="M111.93 313.46c-5.88-.87-9.51 6.11-10.78 9.6a34.71 34.71 0 00-1.7 11c-.57 6.37 1.89 25.64 2.32 32.65s.26 15.26-1.08 19.6a88.92 88.92 0 01-9.74 2.09c4.33-9.88 2.12-31.66 2.07-41-.1-13.4-.02-20.4 1.91-25.74s5.26-11.57 9.64-15.86 11.56-8.81 15.77-6.74a38.29 38.29 0 00-3.39 5.06c-2.04 3.44-4.23 7.53-5.02 9.34z"/><path class="cls-8" d="M102.39 354.53a44.55 44.55 0 0010.71 18.05c.31 3.5.74 8-3 10.07a45.44 45.44 0 01-9.45 3.63c1.34-4.34 1.52-12.59 1.08-19.6S98.87 340.4 99.44 334a69.33 69.33 0 002.95 20.53z"/><path class="cls-4" d="M127.69 359.94c-.46 1.83-2.54 4.72-4.66 5.2a18.2 18.2 0 01-4.93.21c-1.59-.19-4.55-3.13-5-4.23 2.02.13 11.27 0 14.59-1.18z"/><path class="cls-4" d="M101.15 323.06c1.27-3.49 4.9-10.47 10.78-9.6 3.81-2.32 13 .93 18.13 9s8.23 16.26 11.74 28.82c.55 2 1 3.75 1.31 5.37-1.65 7.36-7.62 13.79-12.35 17.79-4 3.4-9.67 4-13 2a25.46 25.46 0 01-4.65-3.87 44.55 44.55 0 01-10.71-18.05A69.33 69.33 0 0199.45 334a34.71 34.71 0 011.7-10.94zM123 365.14c2.12-.48 4.2-3.37 4.66-5.2-3.32 1.18-12.57 1.31-14.58 1.18.44 1.1 3.4 4 5 4.23a18.2 18.2 0 004.92-.21z"/><path class="cls-8" d="M117 304.12a38.29 38.29 0 013.39-5.06c3.5-2.24 11.87-.45 18.39 4.29 7.84 5.67 11.48 10.51 15.07 21.9s3.94 27.06 7.5 40.69c3 11.41 3.88 16.42 8.62 20.89 3.44 3.25 6 4.56 6.74 6.48-.74-.09-1.48-.19-2.19-.32s-1.5-.28-2.22-.44a34.83 34.83 0 01-23.54-17.63c-3.88-7.15-4.14-11.49-5.6-18.28-.35-1.62-.76-3.39-1.31-5.37-3.51-12.56-6.66-20.76-11.74-28.82s-14.32-11.3-18.13-9c.74-1.8 2.93-5.89 5.02-9.33z"/><path class="cls-9" d="M109.66 341.21c.06.5-.08.93-.32 1s-.49-.35-.56-.84.08-.92.32-1 .49.35.56.84zm19.27-2.76c.06.5-.08.93-.33 1s-.49-.35-.55-.84.08-.92.32-1 .49.39.56.84z"/><path class="cls-9" d="M111.93 313.46c-5.87-.87-9.51 6.11-10.78 9.6-2.54 7-2.35 19.45 1.24 31.47s12 19.94 15.36 21.92 9 1.38 13-2c4.73-4 10.71-10.45 12.35-17.81"/><path class="cls-9" d="M113.1 372.58c.31 3.5.74 8-3 10.07-7 3.87-18.19 5.66-21.21 6m26.43-49.96c-.26 5.06-.92 14.26-.46 15.64s5.45.53 7 0m-8.75 6.79c2 .13 11.26 0 14.58-1.18"/><path class="cls-9" d="M113.11 361.12c.44 1.1 3.4 4.05 5 4.23a18.24 18.24 0 004.93-.21c2.12-.48 4.2-3.38 4.66-5.2m-25.52-23.35a23.54 23.54 0 018.67-.85m11.7-1.74a18.4 18.4 0 019.66-1.45"/><path class="cls-9" d="M111.93 313.46c3.81-2.32 13 .92 18.13 9s8.23 16.25 11.74 28.82c2.86 10.26 2.1 14.81 6.92 23.66 4.47 8.2 13 16.55 27.94 18.39"/><path class="cls-9" d="M120.34 299.05c-4.21-2.05-11.39 2.46-15.77 6.75s-7.71 10.51-9.64 15.86S92.92 334 93 347.32c.06 9.38 2.27 31.16-2.06 41"/><path class="cls-9" d="M99.44 334c-.57 6.37 1.89 25.64 2.32 32.65s.26 15.26-1.08 19.6m11.25-72.79c1.31-3 6.37-12.13 8.41-14.41m0 0c3.5-2.23 11.87-.43 18.39 4.3 7.84 5.67 11.48 10.51 15.07 21.9s3.94 27.07 7.5 40.69c3 11.41 3.89 16.42 8.62 20.89 3.44 3.25 6 4.56 6.74 6.48"/><path class="cls-9" d="M117 304.12c2.51-1.21 11.62-.34 17.84 5s8 10.16 12 21.9 8.24 38.18 13.49 46.55m-71.41 11.06c7.23 8.15 17.57 14.67 39.21 14.67 25 0 37.58-6 44.12-10.75m-83.33-3.92C70.05 393 67.16 399.27 65.5 413.2 64.21 424 64.1 432 63.74 444m110.73-51c13.58 6.41 16.21 10.31 17.08 22.55.8 11.23 1.67 28.42 1.67 28.42M78.86 420.56c-.14 4.07-.53 23.4-.53 23.4m92.38-18.8v18.8M119.9 369a6.33 6.33 0 003.53-.32"/></g><circle class="cls-10" cx="124.03" cy="357.56" r="76.15"/><circle class="cls-6" cx="89.03" cy="118.4" r="76.15"/><g clip-path="url(#clip-path-5)"><path class="cls-2" d="M143.61 218.49H21.23c3.65-38.8 10.09-47 18.54-52.85 5.87-4.08 22.35-9.09 26.42-12.9a6.16 6.16 0 00-.27 1.43c-.22 4.1 2 14.18 3.75 17.35 0 0 4.13-8 9.06-8.64 1 1.57 3.93 4.09 8 5.18a14.76 14.76 0 007.27.17 19.26 19.26 0 009.32-5.54c4.71 1.53 7.65 11.28 7.65 11.28 2.17-4 8.51-18.51 6.49-23.41 4.28 1.66 22.52 5.62 35.29 13.06 13.85 8.07 14.32 35.95 17.1 54.87z"/><path class="cls-8" d="M108.75 138.39c1.9 2 6.66 7.27 8.67 12.17S113.1 170 110.93 174c0 0-2.94-9.75-7.65-11.28-1.51-.5-3.21-.15-5.06 1.67 3.65-3.76 8.45-9.9 10.67-17.56 0-2.62-.1-5.33-.14-8.44zM74 147.61c.79 5.17 5.05 12.17 9.35 17.08a5.26 5.26 0 00-4.58-1.81c-4.93.68-9.06 8.64-9.06 8.64-1.71-3.17-4-13.25-3.75-17.35a6.16 6.16 0 01.27-1.43c1.26-4.24 6.56-10.51 8.29-12.7a60.65 60.65 0 01-.52 7.57z"/><path class="cls-4" d="M108.89 129.38c-.15 3.4-.17 6.35-.14 9 0 3.11.14 5.82.14 8.41-2.22 7.66-7 13.8-10.67 17.56l-.11.1a40.43 40.43 0 01-3 2.84c-.51.43-1.13.93-1.13.93a14.76 14.76 0 01-7.27-.17l-.13-.07a34.2 34.2 0 01-2.58-2.47c-.24-.29-.47-.55-.71-.79-4.3-4.91-8.56-11.91-9.35-17.08a60.65 60.65 0 00.53-7.57 64 64 0 00-.2-6.53 28.62 28.62 0 003.24 4.16c5.17 5.54 10.43 6.05 13.24 6.05a17.68 17.68 0 0014-7.52 53 53 0 004.14-6.85zm-40.24-11.23c.29 1.52.63 3 1 4.49h-.71a1.92 1.92 0 00-1.56-1.24 1.47 1.47 0 00-1.06.51c-2.59-1.59-3.68-5.44-4.17-7.8A33.91 33.91 0 0068 114c.19 1.46.41 2.87.65 4.15zM99 124.82c-.72 1.68-4 5.05-6.47 5.17a32.27 32.27 0 01-5.16-.08c-1.86-.19-4.51-3.66-5-4.74 4.12.35 12.02.83 16.63-.35z"/><path class="cls-4" d="M99 124.82c-4.65 1.13-12.55.7-16.63.35.49 1.08 3.14 4.55 5 4.74a32.27 32.27 0 005.16.08c2.47-.12 5.79-3.49 6.47-5.17zm-32-25c16.88-2.51 30.5-13.59 34.91-20.89 6.34 8.65 10.88 16.86 11.52 32.27.87-3.67 3-7.63 5.12-8.06 1.87 1.17 1.92 11.41-1.65 16.32a1.73 1.73 0 00-1.37-.9c-1.07 0-2 1.44-2.21 3.4a5.07 5.07 0 01-1.57.08 41.28 41.28 0 01-2.88 7.38 53 53 0 01-4.11 6.82 17.68 17.68 0 01-14 7.52c-2.81 0-8.07-.51-13.24-6.05a28.62 28.62 0 01-3.24-4.16 37 37 0 01-4.61-10.87c-.4-1.47-.74-3-1-4.49-.24-1.28-.46-2.69-.66-4.18a117.23 117.23 0 01-1-14.18z"/><path class="cls-8" d="M67 99.79A117.23 117.23 0 0068 114a33.91 33.91 0 01-5.83.19c-4.35-.27-5.32-1.6-5.32-1.6l1-1.4a6 6 0 01-4.4-2 2.67 2.67 0 002.74-1.58c-4.32-.29-5.19-3.09-5.19-3.09a5.44 5.44 0 004-.51 7.66 7.66 0 01-5.18-4.83 44.68 44.68 0 009.93 1.18 47.79 47.79 0 007.25-.58z"/><path class="cls-8" d="M114.18 74c3.64 5.31 5.62 9 5.4 15.61s-1 13.5-1 13.5c-2.12.43-4.25 4.39-5.12 8.06-.64-15.41-5.18-23.62-11.52-32.27-4.41 7.3-18 18.38-34.91 20.89a47.79 47.79 0 01-7.23.53c-7.12-3.49-7.12-9.46-7.12-9.46 3.39 4.46 5.19 0 5.19 0-2.52-.58-2.17-2.52-2.17-2.52 1.5 1.07 2.3-.94 2.3-.94a6.06 6.06 0 01-4.77-5c4.79 3.94 6.62 0 13.83-6.91a55.29 55.29 0 0118.33-11.72c4.9-2.11 14.88-2.69 17 4.9 3.24-2.02 7.61-.76 11.79 5.33z"/><path class="cls-9" d="M102.39 68.66c-2.12-7.58-12.1-7-17-4.9A55.75 55.75 0 0067 75.48c-7.2 6.92-9 10.86-13.83 6.92a6.07 6.07 0 004.78 5s-.79 2-2.3.94c0 0-.36 1.94 2.16 2.52 0 0-1.8 4.47-5.19 0 0 0 0 6 7.13 9.46"/><path class="cls-9" d="M101.93 78.89c-5.83 9.65-27.8 25.93-52.08 20.24A7.66 7.66 0 0055 104a5.43 5.43 0 01-4 .5s.87 2.81 5.19 3.1a2.66 2.66 0 01-2.74 1.59 6 6 0 004.4 2l-1 1.4S58.61 115 68 114m33.93-35.11c6.34 8.65 10.88 16.86 11.53 32.27m-11.07-42.5c3.24-2 7.61-.74 11.79 5.33 3.65 5.31 5.62 9 5.4 15.61s-1 13.49-1 13.49m-5.12 8.07c.86-3.67 3-7.63 5.11-8.07m0 0c2.52 1.59 1.73 19.69-6.8 18.91"/><path class="cls-9" d="M112.66 117.86c-.85 5.77-3.43 12-7.88 18.33a17.64 17.64 0 01-14 7.53c-2.81 0-8.07-.5-13.25-6.05s-7.46-12.23-8.87-19.52A111.31 111.31 0 0167 99.79m-4.84 14.37c.66 3.2 2.41 9.09 7.51 8.49"/><path class="cls-9" d="M88.89 104.39c-.79 4.32-3.67 12.87-2.66 14s7.2 1.5 9.29 0m-22.69-18.6a24.06 24.06 0 0110.66-.66M96 98.8c2.81-1 9-1 11 0m-25.41 26.29c3.94.38 13.4 1 18.2-.48"/><path class="cls-9" d="M82.41 125.16c.48 1.08 3.13 4.56 5 4.76a34.8 34.8 0 005.16.08c2.46-.13 5.75-3.5 6.47-5.19m-11.23 9.01a9.16 9.16 0 005 0m-18.53-.31a70.25 70.25 0 01-.28 14.15m34.89-18.29c-.34 7.4 0 12.63 0 17.46M80 105.51c0 .54-.22 1-.48 1s-.49-.45-.49-1 .22-1 .49-1 .48.49.48 1zm21.93-.43c0 .55-.22 1-.48 1s-.49-.44-.49-1 .22-1 .49-1 .48.45.48 1zm-28.09 40.51c-.31 6.39 7 17.4 12.72 22.4"/><path class="cls-9" d="M109.88 142.14c-1.63 12.58-11 22-14.79 25.16-.51.43-1.13.93-1.13.93m-19.47-28.18c-1.95 2.45-8.35 10-8.57 14.12s2 14.19 3.75 17.36c0 0 7.54-14.54 14.37-6"/><path class="cls-9" d="M108.75 138.39c1.9 2 6.65 7.28 8.67 12.17S113.1 170 110.94 174c0 0-5.19-17.22-12.83-9.51m-19.38-1.62c2.08 3.38 13.33 11.11 24.55-.18m-16.72 5.3l.16.08m-12.22 1.82c5.89 5.67 21.65 8.74 32.31 1.64m-40.62-18.8c-4 3.81-20.55 8.83-26.42 12.91-8.45 5.89-14.89 14.05-18.54 52.85"/><path class="cls-9" d="M117.42 150.56c4.27 1.66 22.52 5.62 35.29 13.06 13.85 8.07 14.32 35.95 17.1 54.87m-126.1-18.3c.36 6.49 0 18.3 0 18.3m98.49-22.04l1.41 22.04"/><ellipse class="cls-9" cx="67.39" cy="125.98" rx="2.29" ry="4.53"/><ellipse class="cls-9" cx="115.55" cy="123.05" rx="2.29" ry="4.53"/></g><circle class="cls-10" cx="91.01" cy="125.98" r="76.15"/></g></svg>