<svg xmlns="http://www.w3.org/2000/svg" viewBox="0 0 536 536"><defs><style>.cls-15,.cls-16{fill:none}.cls-2{fill:#fd0}.cls-3{fill:#3bb3c3}.cls-4{fill:#1eadfe}.cls-5{fill:#fff}.cls-6{fill:#d48b52}.cls-7{fill:#98cdd0}.cls-8{fill:#c9e5e7}.cls-9{fill:#30d9cb}.cls-10{fill:#28b8ce}.cls-11{fill:#33c976}.cls-13{fill:#96a2b2}.cls-14{fill:#fbd80c}.cls-15,.cls-16{stroke:#28347d;stroke-linecap:round;stroke-linejoin:round}.cls-15{stroke-width:1.7px}.cls-16{stroke-width:1.43px}</style></defs><g id="Figuras_fondo" data-name="Figuras fondo"><path fill="none" d="M0 0h536v536H0z"/><path class="cls-2" d="M51.23 218.19c26.66-28.92 87.88 82 211.72-75.42S594.89 314 350.87 431.91-27 303 51.23 218.19z"/><circle class="cls-2" cx="194.47" cy="143.92" r="26.98"/></g><g id="Parches_color" data-name="Parches color"><path class="cls-3" d="M475.07 277.71l-2.35-10.34-3.3 1.91s-4.05 4.33-9.35 17.83-4.63 18.12-4.63 18.12h9.37z"/><path class="cls-4" d="M460.26 194.33l.06-.64c1.3-1.65 2.29-1.16 4-1.38s1.68-1.77 3.37-2.19 2.1.85 3.55.42 1.38-1.76 2.87-2.1 2.38 1.34 3.1.81.31-1.31 1.42-2 1.76-.34 3.55.2 1.77 0 4.17-.35 3.19 2.41 3.68 2 1.68-.92 2.3-.37 1.3.25 2.75.06 1.8 0 2.95.93 1.46.18 2.48 0a2.56 2.56 0 012.61 1.34 1.83 1.83 0 002.37 1 1.54 1.54 0 011.91 1.57c0 .92 1.15 1 2.34 1.49s.65 1.38 1.49 1.38a2.73 2.73 0 012.45 1.23c.42.87 0 2.18 1.37 2.48a4.64 4.64 0 013.22 2.56c.8 1.46-.12 3.14.42 4.29s2.49 1.61 3.45 3.1-.69 3.1.15 3.44a4.27 4.27 0 012.29 3.53c.12 1.87-.65 1.94-.57 3.78s1.26 1.84 1.23 3-.92 1.76 0 3.25a6.35 6.35 0 01.76 4.55c-.38.92-.42 2.26-.23 4.56a8.31 8.31 0 01-1.18 4.47c.49-2-.58-3.1-.89-4.82s.69-2.48.5-4.44a6.15 6.15 0 00-1.95-3.48 4.22 4.22 0 00-.07 3.48c.6 1.57-.27 2-.77 3.87s.5 2.68 1.11 4.28.23 1.65-.12 2.61.46 2.14.43 3.86a3.21 3.21 0 01-1.27 2.52c.58-1.22.38-1.83-.3-3.32s-.39-1.88-.5-3.52a4 4 0 00-1.65-2.68 3.81 3.81 0 01.08 3.29 2.92 2.92 0 000 3.13 2.33 2.33 0 01-.4 2.8c-.79 1.18-.71 1.42-.21 3.56a4.52 4.52 0 01-.46 3.86c-.49 1 0 3.25 0 3.25a4.43 4.43 0 01-1.38-4.09 20.17 20.17 0 00-.63-5.19 4.31 4.31 0 01-.82 3c-.76 1.07-.85 2-.31 3.67s.35 1.87-.38 3-.54 2.19-.42 4.17a5.4 5.4 0 01-1.19 3.49c.31-1.65-.76-1.88-.65-3.41s.77-1.57.19-2.91-.07-2.63-.5-3.71-1.49-.65-1.22.66a2.88 2.88 0 01-.61 2.67c-.58.85-.31 1.61.11 2.95s-.61 3.33-.61 3.33a3.92 3.92 0 00-1.22-2.72 1.82 1.82 0 01-.73 2.3c-.58.45-.61.84-.8 2.41a2.21 2.21 0 01-1.5 1.91 3 3 0 00-.3-2.87 5 5 0 01-.56-2.27 9.34 9.34 0 010-1.18c0-1.1-.39-2.25-1.08-2.29s-.95.84-.42 2.95a3.59 3.59 0 01.11.93 7.84 7.84 0 01-1.21 3.66c.37-1.19-.5-1.88-.5-3.07s-1.65-1.87-1.69-3-.4-2.43-1.05-2.81-.72 1.79-.51 3.24a11.87 11.87 0 01-.89 4.66l-.17.1c0-1.49-1.06-2.87-.75-4.77.25-1.43-.15-2.48-1.14-2.33s-1-1.22-1.88-1.53-.92.92-.46 1.65.69 1.07.69 3.4-1.87 2.33-1.87 2.33a2.58 2.58 0 000-3.44 7.69 7.69 0 01-1.54-4.7c.08-1.27-.42-3.87-1.22-3.26s-1 1.88-1 4.13a8.29 8.29 0 01-1.61 4.41 4.48 4.48 0 00-1-3.75 6.31 6.31 0 01-1.49-4.41 7.33 7.33 0 00-1.49-4.05c-1.53.84-1.84 3.1-1.49 4.82a10.2 10.2 0 01-.47 4.17c.09-1.15-1-2.53-1.82-3.33a2.49 2.49 0 01-.27-3c.49-.88.38-2.15-.77-3.49s-.46-2.9-.69-4.47-1.72-1.07-1.34.11a2.7 2.7 0 01-.54 2.84 1.9 1.9 0 00-1 2.37 3.44 3.44 0 01-.89 3.25c-.68.88 0 4.55 0 4.55-2.33-2.22-1.1-5.08-2.14-7.31s.23-2.6.2-3.7-1.73-1.42-.84-3.64a10.68 10.68 0 00.4-4.9 2.25 2.25 0 01-1.36 2.14c-.69.23-1.34 1.84-1 3.33a5.91 5.91 0 01-.46 3.94c-.38.47-.23 3.3-.23 3.3a6.63 6.63 0 01-1.68-4.94c.3-1.53-.23-1.76-.73-3.71s2.26-2.76 1.76-5.17.77-2.64 1.42-3.94.5-2.22 0-4.17-2-.15-1.34 1.15-.81 3.1-1.46 3.17-1.72 1.73-1.61 3.14-.3 3.25-1 3.83-1.34 3.33-1.34 3.33c-1-2-.62-4.17 0-6.16s-.92-1.92-.57-3.07 1.34-2.33.76-3.6.08-1.56.52-3.05-.47-1.8-.79-3.18 1-1.88.77-3-3.55 0-3.86 1-.92 1.34-1.8 1.8a8.49 8.49 0 00-2 2.52c-.42-1.29.35-2.87.61-3.9s1-1.68.27-2.52-1.65 1-2 .11 1.23-2.64.77-3.44-1 1-2.07 1.22a2.62 2.62 0 00-2 2.07 2.31 2.31 0 01-2.06 1.65c-1.69.26-2.23 2.63-2.23 2.63-.8-2 .62-4.51 1.5-5.39s2.56-5.43 1.22-5.93c-.89-.33-2.1 1.1-2.22 2s-1.45 1.61-2.14 1.76a1.31 1.31 0 00-1.11 1.72 1.82 1.82 0 01-.68 2.37c-1 .77-.89 3.56-.89 3.56-.92-.84-1-2.22-.65-3.94s-.54-1.65-.38-3.21 1.53-1.46 2.22-2.45c.5-.74 0-.87-.09-1.57a2.53 2.53 0 01.09-1 2.11 2.11 0 01.33-.69c.73-.94 2.12-.82 2-1.72a2.64 2.64 0 01.51-2.11 7.53 7.53 0 01.68-.82c1-1.06 2.41-.59 3.1-1.43s.15-1.64-.61-1.18-1.23-.46-2.45-.5-2.22 2-2.22 2a4.32 4.32 0 01.81-3.55c.53-.8 1.56-.3 1.45-1.07a1.33 1.33 0 011-1.6c.93-.16 1.68-.43 1.65-1s.8-1.23.8-1.23c-2.49-.88-6.23 2.45-6.23 2.45.45-2.33 2.14-2.18 2.5-3.75a1.91 1.91 0 012-1.6c1.19.07 1.46 0 2.41-1.12s2-1.07 3.33-.86a3.67 3.67 0 003.21-.49 5.62 5.62 0 013.07-.32z"/><path class="cls-3" d="M429.05 350.5l-.47-.64a11.66 11.66 0 011.79-3.82 31.13 31.13 0 0112.26-10 11.46 11.46 0 011.22-.44c.57.92 5 7.93 5.85 7.94.29 0 1.72-1.46 3.77-3.71a37.88 37.88 0 01-2.6-12.15 62.69 62.69 0 01.11-7 48.77 48.77 0 011.45-9 96.15 96.15 0 014-11.59c2.3-5.85 10.17-20.14 12.29-23.33l1.95-.59c.13.79.25 1.65.35 2.56a49.44 49.44 0 00-6.26 13.45c-1.84 6.71-1 12.45 5 2.75 5.69-9.15 15-16.76 17.68-19a83.7 83.7 0 019.66-7.21v.4c0 .14.08-.18.19-.5a21.79 21.79 0 014.14-2.07c0 1.19.87 1.88.5 3.07a7.84 7.84 0 001.21-3.66c.48-.17 1.39-.41 1.39-.41a5 5 0 00.56 2.27 3 3 0 01.3 2.87 2.21 2.21 0 001.5-1.91c.19-1.57.22-2 .8-2.41 1.38 4.15 5.53 14.23 6.91 19.16s4.59 15.85 5.51 23.88.29 31-.46 38.86-1.09 35.7-.69 41.95c0 0-6.24 5.83-31 8.24-22.42 2.18-38.26-1-38.26-1 .7-9 2.37-24.2 3-27a6.47 6.47 0 01-1.06.11 8 8 0 01-1.55-.06 11.47 11.47 0 01-3.08-.9 16.07 16.07 0 01-5-3.72c-1.56-1.6-6.08-6.93-9.54-11.16-.22-.25-.42-.51-.62-.76a77.356 77.356 0 01-2.8-3.47z"/><path class="cls-5" d="M504.49 265.53s-.91.24-1.39.41a3.59 3.59 0 00-.1-.94c-.53-2.11-.26-3 .42-2.95s1.11 1.19 1.08 2.29a9.34 9.34 0 00-.01 1.19zm-4.8-2.02c0 1.15 1.69 1.84 1.69 3a21.79 21.79 0 00-4.14 2.07 11.87 11.87 0 00.89-4.66c-.21-1.45-.14-3.63.51-3.24s1.01 1.68 1.05 2.83zm-51.49-29.64a5.38 5.38 0 00.07-1.2 43.39 43.39 0 010-8.14 2.31 2.31 0 002.06-1.65 2.62 2.62 0 012-2.07c1.08-.23 1.61-2 2.07-1.22s-1.15 2.56-.77 3.44 1.3-1 2-.11 0 1.49-.27 2.52-1 2.61-.61 3.9a8.49 8.49 0 012-2.52c.88-.46 1.49-.8 1.8-1.8s3.67-2.1 3.86-1-1.07 1.61-.77 3 1.23 1.69.79 3.18-1.09 1.8-.52 3.05-.42 2.46-.76 3.6 1.23 1.08.57 3.07-1 4.13 0 6.16c0 0 .6-2.76 1.34-3.33s1.14-2.43 1-3.83 1-3.06 1.61-3.14 2.11-1.87 1.46-3.17.84-3.1 1.34-1.15.65 2.87 0 4.17-1.91 1.53-1.42 3.94-2.25 3.22-1.76 5.17 1 2.18.73 3.71a6.63 6.63 0 001.68 4.94s-.15-2.83.23-3.3a5.91 5.91 0 00.46-3.94c-.38-1.49.27-3.1 1-3.33a2.25 2.25 0 001.36-2.14 10.68 10.68 0 01-.4 4.9c-.89 2.22.8 2.52.84 3.64s-1.23 1.49-.2 3.7-.19 5.09 2.14 7.31c0 0-.68-3.67 0-4.55a3.44 3.44 0 00.89-3.25 1.9 1.9 0 011-2.37 2.7 2.7 0 00.54-2.84c-.38-1.18 1.11-1.68 1.34-.11s-.46 3.13.69 4.47 1.26 2.61.77 3.49a2.49 2.49 0 00.27 3c.83.8 1.91 2.18 1.82 3.33a10.2 10.2 0 00.47-4.17c-.35-1.72 0-4 1.49-4.82a7.33 7.33 0 011.49 4.05 6.31 6.31 0 001.49 4.41 4.48 4.48 0 011 3.75 8.29 8.29 0 001.61-4.41c0-2.25.19-3.52 1-4.13s1.3 2 1.22 3.26a7.69 7.69 0 001.54 4.7 2.58 2.58 0 010 3.44s1.87 0 1.87-2.33-.23-2.68-.69-3.4-.46-2 .46-1.65.88 1.69 1.88 1.53 1.39.9 1.14 2.33c-.31 1.9.73 3.28.75 4.77a83.7 83.7 0 00-9.66 7.21c-2.64 2.26-12 9.87-17.68 19-6 9.7-6.83 4-5-2.75a49.44 49.44 0 016.17-13.46c-.1-.91-.22-1.77-.35-2.56-.79-4.9-2-7.73-3.12-9.37a5.43 5.43 0 00-2.43-2.21c-1.26-.51-3.12-.31-5.07.17s-8.17 1.7-10.51 1.2a2.24 2.24 0 01-1.69-1.32 4.37 4.37 0 01-.14-2.54c.19-.81.27-2.41-.76-2.72s-1.22-1.18-.84-1.72 3.71-2.56 3.74-2.87-1.37-.65-2.33-1.07-2.95-1-3.1-1.84 1.46-3.59 1.73-4.19c-1.88-.32-4.34-1.19-4.37-2.08 0-1.11 2.61-4.71 3.52-5.82a13.47 13.47 0 002.92-5.92zm3.71 3.28c0-.41-.13-.75-.29-.75s-.27.34-.27.75.12.74.27.74.29-.33.29-.74z"/><path class="cls-6" d="M450.29 296.89a37.49 37.49 0 007.34-3.55c.93-3.32 1.89-6.5 2.9-8.17 3.1-5.11 5-11.43 8.17-16.2a28.61 28.61 0 00-3.6-4.38c-1.26-.51-3.12-.31-5.07.17s-8.17 1.7-10.51 1.2a2.24 2.24 0 01-1.69-1.32c-.48 3.1-2.08 9-4.22 11.7a8.08 8.08 0 01-.6.67v.07c-1.91.53-8.5 3.88-10.31 4.79a14 14 0 01.62 2.53c.44 3 .49 5.48 2 7.54a83.84 83.84 0 007.25 7 30.25 30.25 0 007.72-2.05z"/><path class="cls-6" d="M455.44 300.84c.73-2.12 1.45-4.85 2.19-7.5a37.49 37.49 0 01-7.34 3.55 30.25 30.25 0 01-7.69 2.11c2.47 2.24 4.85 4.33 5.83 5.21a3.75 3.75 0 00-.85-1.88c1.16.79 6.55 4.73 6.55 4.73-.06-2.54.52-3.91 1.31-6.22z"/><path class="cls-7" d="M450 370.49a8 8 0 001.55.06c-4.19 8.28-10.86 16.1-19.62 23.3l-2-7a85.29 85.29 0 0017-17.29 11.47 11.47 0 003.07.93z"/><path class="cls-3" d="M452.43 311.68a48.77 48.77 0 00-1.45 9 62.69 62.69 0 00-.11 7c-.83-.49-1.57.44-4.73-1.56-2.89-1.84-8.77-6.37-9.93-7a3.23 3.23 0 001.61.27 7.63 7.63 0 001.89-.42 12.92 12.92 0 007-5.81 13.71 13.71 0 001.72-8.94 3.75 3.75 0 00-.85-1.88c1.16.79 6.55 4.73 6.55 4.73.05 1.73-1.24 1.23-1.7 4.61z"/><path class="cls-8" d="M450.87 327.68a37.88 37.88 0 002.6 12.15c-2.05 2.25-3.48 3.71-3.77 3.71-.86 0-5.28-7-5.85-7.94a11.46 11.46 0 00-1.22.44c-1.72-4-9.63-21.45-11-25.58-.25-.75-.47-1.53-.68-2.32.89 1.21 2.82 3.72 4.71 6.05-1.08 2.91-.54 4.3.49 4.85h.07c1.37.79 7.56 5.7 11.58 8.07 1.09.69 2.54.26 3.07.57z"/><path class="cls-6" d="M392.45 244c-2 1.23-12.68 10.58-17.14 14.08a11.46 11.46 0 01.18 3.57c-1.43-1.9-3.12-3.59-5.85-3.88-2.93-.32-12.11.6-11.4 6.84-.16-.33-.3-.66-.43-1a16.82 16.82 0 01-1.09-8.13c.58-4.35 4.7-8.72 7.06-11s12.86-14.12 18.71-20.55 11.37-13 14.87-14.52 8.95-1.9 12.89-2.59c.43 1.16.92 2.36 1.44 3.52-1.84 2.75-3.37 9.82-1 19.5 0 0 2.1-12.09 4.63-4.69.07.19.14.4.2.63a63.17 63.17 0 002.41 6.3c2.57-2.58 4.84-4.92 6.87-7l.64-.67c1.71-1.54 4.29-1.79 2.71 7.1 0 0 11.37-11.42 14.68-15.38.11.7.59.83.09 1.57-.69 1-2.06.88-2.22 2.45s.74 1.49.38 3.21-.27 3.1.65 3.94c0 0-.07-2.79.89-3.56a1.82 1.82 0 00.68-2.37 1.31 1.31 0 011.11-1.72c.69-.15 2-.88 2.14-1.76s1.33-2.32 2.22-2c1.34.5-.34 5-1.22 5.93s-2.3 3.4-1.5 5.39c0 0 .54-2.37 2.23-2.63a43.39 43.39 0 000 8.14 5.38 5.38 0 01-.07 1.2 13.47 13.47 0 01-2.92 5.92c-.91 1.11-3.56 4.71-3.52 5.82 0 .89 2.49 1.76 4.37 2.08-.27.6-1.88 3.39-1.73 4.19s2.14 1.42 3.1 1.84 2.38.76 2.33 1.07-3.36 2.33-3.74 2.87-.2 1.42.84 1.72.95 1.91.76 2.72a4.37 4.37 0 00.14 2.54c-.48 3.1-2.08 9-4.22 11.7a8.08 8.08 0 01-.6.67v.07c-1.91.53-8.5 3.88-10.31 4.79a15.73 15.73 0 00-2.42-4.7c-.09-.33-.17-.62-.25-.83a25.36 25.36 0 01-1.2-5.81c-.12-1.59-.52-2.71-1.57-2.48s-1.8 1.81-1.93 5c-.12 2.89 1.32 7.79 1.58 8.66-.61-1.72-1.72-6.2-2-7.22a4.49 4.49 0 00-1.57-2.63c-.83-.55-2.2-.84-2.62-.38-.11-.18-.23-.35-.35-.53-1.85-2.67-5.08-2-3.9 1.68a2.08 2.08 0 00-2 .67c-2.74-3.33-5.9-.28-3.45 2.59a1 1 0 00-1.18.83c-1.82-1.55-3.82.64-2.52 3l.33.42c-.35-.05-.89.4-.93 1a1.37 1.37 0 00-1-.17q-5.43-2.73-11.35-5.24c-.38-13.19-1.12-23.85-1.93-31.78z"/><path class="cls-5" d="M448.43 304.18a13.71 13.71 0 01-1.72 8.94 12.92 12.92 0 01-7 5.81c-.86-.85-2.44-2.73-4.06-4.74-1.89-2.33-3.82-4.84-4.71-6.05a45.09 45.09 0 01-1.46-11.6c.11-3.41 1.35-7.31 1.67-10.18a34.67 34.67 0 00-.85-9.19 15.73 15.73 0 012.42 4.7 14 14 0 01.62 2.52c.44 3 .49 5.49 2 7.55s10.88 10.26 13.09 12.24z"/><path class="cls-8" d="M441.94 365.87a16.07 16.07 0 005 3.72 85.29 85.29 0 01-17 17.29l-4.27-14.94v-.13l1 .18 5.71-17.28c3.48 4.23 8 9.56 9.56 11.16z"/><path class="cls-9" d="M445.2 212.62c.16.9-1.23.78-2 1.72a42.78 42.78 0 00-.73-5.26c1.08.51 3.2 1.43 3.2 1.43a2.64 2.64 0 00-.47 2.11z"/><path class="cls-5" d="M438.82 199c0 1.26 0 2.77.1 4.4l-1.86.07a15.13 15.13 0 01-3.37 8.19 19.89 19.89 0 01-9 6.16c-3.41 1-7.08 1.33-9.34-1.19a11.89 11.89 0 01-.94-1.21 21.32 21.32 0 01-1.22-2c-.52-1-1-2-1.51-3.08s-1-2.36-1.44-3.52a42.81 42.81 0 01-1.82-5.89c1.85.9 5.16 1.11 6.76-.17s1.73-4.41 1.77-5.7a7.34 7.34 0 014.61.21c.12 1.27.55 3.63 2 4.87s5.8 1.84 7.69.32c1.54-1.24 1.77-4.64 1.81-5.9h1.46a33.19 33.19 0 012.83-3.15c.19 1.48.27 2.32.27 2.32l1.67-.62a13.51 13.51 0 011.19-4 2.74 2.74 0 011.46-1.38 2.43 2.43 0 01.49-.11c1.64-.16 1.7 2.14 1.23 4.26a26.57 26.57 0 01-2.13 6.59c-.91 1.58-2.65 1.93-2.71.53zm-12.65 9a31.4 31.4 0 01-9.76.48c.31.67 1.63 2.55 2.83 2.76a9.41 9.41 0 003.63 0c1.19-.24 2.65-2.08 3.3-3.24z"/><path class="cls-6" d="M443.24 214.34a2.11 2.11 0 00-.33.69 2.53 2.53 0 00-.09 1c-3.31 4-14.68 15.38-14.68 15.38 1.58-8.89-1-8.64-2.71-7.1 8.14-8.54 12-13.38 13.83-16.09s1.63-3.28 1.61-3.35a10.35 10.35 0 011.64 4.17 42.78 42.78 0 01.73 5.3z"/><path class="cls-4" d="M420.09 177.92c-1 .05-1.83.34-3.45.52a3.73 3.73 0 01-3-.59 4.46 4.46 0 00-1.43-.5c-1.64-.29-3.33 1-4.56 2a73.4 73.4 0 00-.37 14.87 12.35 12.35 0 00-1.18.42c-.45-3.12-.79-7.7-1.09-10.94-.35-3.75-.12-6.68.9-8.34.75-1.23 4.14-6.39 9.77-8.65s14.42-2.37 20.2 1.84 5.89 8.45 6.08 10.37.21 5.9.53 8.72a2.43 2.43 0 00-.49.11 2.74 2.74 0 00-1.46 1.38 14.76 14.76 0 00-3.13 2.32c0-.24-.06-.5-.1-.77-.25-1.95-1.52-1.46-2.06-3.63s.77-3.22.52-4.86-2.18-2.76-4.77-3.42c-1.73-.44-3.14-.14-4.9-.12a12.79 12.79 0 01-3-.32 10.64 10.64 0 00-3.01-.41z"/><path class="cls-9" d="M440.87 204.91c0 .07.2.68-1.61 3.35-.15-1.51-.26-3-.32-4.43a2.52 2.52 0 011.93 1.08z"/><path class="cls-10" d="M440.53 189.09a13.51 13.51 0 00-1.19 4l-1.67.62s-.08-.84-.27-2.32a14.76 14.76 0 013.13-2.3z"/><path class="cls-5" d="M438.94 203.83c.06 1.41.17 2.92.32 4.43-1.83 2.71-5.69 7.55-13.83 16.09a4.5 4.5 0 00-.64.67c-2 2.11-4.3 4.45-6.87 7a63.17 63.17 0 01-2.41-6.3c-.06-.23-.13-.44-.2-.63-.33-1.07-.62-2.13-.89-3.18a22 22 0 000-6.54 11.89 11.89 0 00.94 1.21c2.26 2.52 5.93 2.18 9.34 1.19a19.89 19.89 0 009-6.16 15.13 15.13 0 003.37-8.19l1.86-.07z"/><path class="cls-3" d="M439.71 318.93a7.63 7.63 0 01-1.89.42 3.23 3.23 0 01-1.61-.27h-.07c-1-.55-1.57-1.94-.49-4.85 1.62 1.97 3.2 3.85 4.06 4.7z"/><path class="cls-5" d="M437.3 190.64c0 .27.07.53.1.77a33.19 33.19 0 00-2.83 3.15h-1.46v-.47a15.37 15.37 0 00-11.59.31 8.57 8.57 0 00.06.87 7.34 7.34 0 00-4.61-.21v-.55a15.36 15.36 0 00-9.7-.33 73.4 73.4 0 01.37-14.87c1.23-1 2.92-2.24 4.56-2a4.46 4.46 0 011.43.5 3.73 3.73 0 003 .59c1.62-.18 2.4-.47 3.45-.52a10.64 10.64 0 013 .37 12.79 12.79 0 003 .32c1.76 0 3.17-.32 4.9.12 2.59.66 4.5 1.78 4.77 3.42s-1.07 2.69-.52 4.86 1.82 1.72 2.07 3.67zm-10.37 91.1c-.26-.87-1.7-5.77-1.58-8.66.13-3.22.87-4.81 1.93-5s1.45.89 1.57 2.48a25.36 25.36 0 001.2 5.81c.08.21.16.5.25.83a34.67 34.67 0 01.85 9.19c-.32 2.87-1.56 6.77-1.67 10.18a45.09 45.09 0 001.46 11.6c.21.79.43 1.57.68 2.32 1.38 4.13 9.29 21.63 11 25.58a31.13 31.13 0 00-12.26 10c-.33-.75-.7-1.67-1.12-2.72-1.28-3.29-2.9-7.79-4.26-11.7-1.07-3.1-2-5.82-2.47-7.31-1.78-5.56-4.94-16.47-7-21.63-.09-.23-.19-.46-.29-.68-1.08-2.33-2.85-4.31-4.25-6.35a50.45 50.45 0 01-4.18-8.95c-.05-.14-.09-.28-.12-.39.87.74 1.78 1.16 2.34.76 1-.7.2-2.76-1.6-5.19a2.38 2.38 0 00-.74-.7c0-.64.58-1.09.93-1 1.05 1.27 4.29 5 5.65 3.85 1.18-1-1.28-4.86-3.17-6.94a2.64 2.64 0 00-.29-.29 1 1 0 011.18-.83s4.86 7.33 7 5.7c1.7-1.31-.79-5-3.53-8.29a2.08 2.08 0 012-.67 8.82 8.82 0 00.39 1c2.11 4.43 4.61 6 5.72 5.12s-.09-4.47-1.86-7.23c.42-.46 1.79-.17 2.62.38a4.49 4.49 0 011.57 2.63c.33.9 1.44 5.36 2.05 7.1zm5.01 112.11l2.8 9.8-15.45-.75-14.12-.69-62.86-3.05 1.46-35.81 39.66 1.23 42.22 7.23.04.13 4.26 14.94 1.99 6.97z"/><path class="cls-5" d="M433.11 194.09v.47c0 1.26-.27 4.66-1.81 5.9-1.89 1.52-6.13 1-7.69-.32s-1.91-3.6-2-4.87a8.57 8.57 0 01-.06-.87 15.37 15.37 0 0111.56-.31zm-5.31 1.63c0-.33-.11-.6-.23-.6s-.23.27-.23.6.11.61.23.61.23-.27.23-.61z"/><path class="cls-10" d="M431.78 353.94l-5.09 15.43-58-9.93 2.81-5.44 1.42 1.75L385.53 331l-1.42-1.75 1.42-2.8 39.47 5.17c1.36 3.91 3 8.41 4.26 11.7l-12.66-1.64-6 11.68 15.62 2.64 2.83-5.54c.66.92 1.62 2.12 2.73 3.48zm-19.73-15.14l2.57-5-3-.39-2.57 5.05zM405 352.7l6-11.83-3-.38-6 11.71zm-9.66 7.3l13.76-27-2.95-.38-13.76 26.88zm5.46.93l3.2-6.27-2.9-.5-3.2 6.27zm-10.92-1.87l13.66-26.75-3-.38-13.6 26.63zm-5.45-.93l13.54-26.54-3-.38-13.48 26.42zm-5.46-.94l13.43-26.32-3-.39-13.4 26.21z"/><path class="cls-10" d="M429.25 343.32c.42 1.05.79 2 1.12 2.72a11.66 11.66 0 00-1.79 3.82l.47.64-2.83 5.5-15.61-2.68 6-11.68zm-2.56 26.05v2.62l-1.04-.18-42.22-7.23-14.72-2.52v-2.62l57.98 9.93z"/><path class="cls-8" d="M425 331.62l-39.46-5.13-9.54-25.86c2.24.27 8.95 3.65 10.58 5.4l14.49-6.25c1.33.26 2.78.48 4.36.65-.09.36-.19.73-.32 1.1a89.28 89.28 0 0010.11.47c.1.22.2.45.29.68 2 5.16 5.19 16.07 7 21.63.49 1.49 1.41 4.21 2.49 7.31z"/><path class="cls-5" d="M426.17 208c-.65 1.19-2.11 3.05-3.3 3.27a9.41 9.41 0 01-3.63 0c-1.2-.21-2.52-2.09-2.83-2.76a31.4 31.4 0 009.76-.51zm-5.47 63.52c1.77 2.76 2.95 6.35 1.86 7.23s-3.61-.69-5.72-5.12a8.82 8.82 0 01-.39-1c-1.18-3.65 2.05-4.35 3.9-1.68.12.22.24.39.35.57z"/><path class="cls-7" d="M419.28 402.9c-34.51 21.68-89.72 35.72-151.95 35.72a392.68 392.68 0 01-55.12-3.81l8.68-7.43a397.86 397.86 0 0046.44 2.68c54.33 0 103.3-10.71 137.84-27.85z"/><path class="cls-5" d="M414.46 273.34c2.74 3.31 5.23 7 3.53 8.29-2.12 1.63-7-5.7-7-5.7-2.43-2.87.73-5.93 3.47-2.59zm-8.85-78.22v-.3l.49-.22a12.35 12.35 0 011.18-.42 15.36 15.36 0 019.7.33v.55c0 1.29-.3 4.51-1.77 5.7s-4.91 1.07-6.76.17a3.78 3.78 0 01-.77-.49c-1.68-1.44-2.02-4.37-2.07-5.32zm7.59 1.19c0-.33-.09-.6-.22-.6s-.23.27-.23.6.11.61.23.61.22-.27.22-.61z"/><path class="cls-10" d="M414.63 333.76l-2.58 5.04-2.96-.38 2.57-5.05 2.97.39z"/><path class="cls-6" d="M414.4 222c.27 1.05.56 2.11.89 3.18-2.53-7.4-4.63 4.69-4.63 4.69-2.34-9.68-.81-16.75 1-19.5.48 1.08 1 2.12 1.51 3.08a32.32 32.32 0 001.23 8.55zm-3.4 73.65c1.4 2 3.17 4 4.25 6.35a89.28 89.28 0 01-10.11-.47c.13-.37.23-.74.32-1.1a16 16 0 00-2.58-12.29 4.08 4.08 0 00-1.51-1.44h5.45a50.45 50.45 0 004.18 8.95z"/><path class="cls-5" d="M410.12 277.05c1.89 2.08 4.35 6 3.17 6.94-1.36 1.12-4.6-2.58-5.65-3.85l-.33-.42c-1.3-2.32.7-4.51 2.52-3a2.64 2.64 0 01.29.33z"/><path class="cls-10" d="M410.99 340.87l-6.04 11.83-2.9-.5 5.98-11.71 2.96.38z"/><path class="cls-5" d="M407.45 281.88c1.8 2.43 2.6 4.49 1.6 5.19-.56.4-1.47 0-2.34-.76a9.05 9.05 0 01-2.08-2.54 1.93 1.93 0 011.08-2.76 1.37 1.37 0 011 .17 2.38 2.38 0 01.74.7z"/><path class="cls-10" d="M409.05 333.03L395.29 360l-2.9-.5 13.71-26.85 2.95.38zm-14.69-57.26q5.91 2.5 11.35 5.24a1.93 1.93 0 00-1.08 2.76 9.05 9.05 0 002.08 2.54c0 .11.07.25.12.39h-5.45a4.08 4.08 0 011.51 1.44c-4.24-1.62-6.28-5.73-8.69-8.71s-4-4.53-5.22-4.94c-.25-.08-.66-.19-1.17-.31-.19-.44-.38-.87-.57-1.27 2.43.92 4.76 1.88 7.12 2.86z"/><path class="cls-5" d="M381 287.56l-1.47.2c-.81.11-2.47.57-3.51-1.56a2.37 2.37 0 01-.25-1.16 2.17 2.17 0 01.1-.62h-.46a1.8 1.8 0 01-1.87-1.85 4.5 4.5 0 01-.52-.32 1.44 1.44 0 01-.25-.24c-.61-.81-.35-1.54 0-2.52a2.75 2.75 0 01.31-.62 11.9 11.9 0 012-2.44 11.39 11.39 0 01.93-.82c1.44-1.14 2.53-2.09 4.66-2.32a13.3 13.3 0 012.66.1 45.23 45.23 0 014.49.79c.51.12.92.23 1.17.31 1.21.41 2.81 2 5.22 4.94s4.45 7.09 8.69 8.71a16 16 0 012.58 12.29c-1.58-.17-3-.39-4.36-.65-.95-.2-1.83-.41-2.66-.64-8.6-2.41-10.68-6.71-10.68-6.71a7.52 7.52 0 00-4.34-1.23l.45 1a3.24 3.24 0 01-2.86-.41c-1.35-.75-1.28-2.12-.65-3.33a3.29 3.29 0 01.62-.9z"/><path class="cls-8" d="M228.44 353.34v-5.55l-52.91-12.86L161.82 345l-13.92 10.23c1.92.47 3.89 3.74.11 4.73l20.67 5.11v.4l7 1.75v-.4l29.46 7.29zm113.87 45.82l62.86 3.06c-34.54 17.14-83.51 27.85-137.84 27.85a397.86 397.86 0 01-46.44-2.68c5.94-5.11 11.45-9.87 11.45-9.87a2.17 2.17 0 001.54-.38c.84-.54 7.27-8.26 9.64-11.71a16.25 16.25 0 00-.81-3.31c2 1.29 9.23 3.16 12.71 4.35 0 0 11.84-11 23.43-23.53a21.76 21.76 0 005.32-2.44c.75-.6.78-1.69 0-2a3 3 0 00-1.26 0 157.07 157.07 0 0013.34-16.74c-7.2.28-15.46-1.38-23.38-3.43-7.36-1.91-19.8-5.84-24.91-8.48-3.62 3.87-16.91 15.89-22.5 20.63s-21.73 18.37-21.73 18.37l16.39 5.58c-1.26.78-2.42 1.48-3.29 2-3.33 2-24.92 14.38-30.22 16.24a4 4 0 01-.68.2c-1-1.76-18.63-11.77-33.4-28.22-5.35-6-17.07-19.44-22.43-25a39.46 39.46 0 00-4.31-3.8c-5.11-3.94-11.42-7.51-16-11.64a45.75 45.75 0 00-3.74-3c.89-3.21 1.5-6.77 1.79-8.49a4 4 0 00-1.09-3.74c-2.78-2.46-8-5.18-13.09-7.4 1.74-4.33 5.13-10.92 8.75-11.79 2.49-.6 7.53-.26 11-1 2.52-.56 6.11-1.81 7-3.75s.11-5.52.22-6.62c.15-1.57 2.78-1.5 2.83-3.3s-5.13-3.1-4.88-4 5.06-1.77 5.3-2.94c.13-.67-.75-2.23-1.55-3.55 2.5-1.39 5.09-2.75 7.77-4.06 2.15-1.07 4.35-2.1 6.6-3.11 7.86 1.6 20.4 3.85 23.36 4.37.68.18 2-.92 4.13-4.27a9.3 9.3 0 003.9.75 41.7 41.7 0 014.88 3.87c2.81 2.56 3.73.75 2.84-.4s-6.2-6.49-6.2-6.49a92.26 92.26 0 018.76 6.17c1.5 1.32 2.53 1.19 2.8.47l25.47 13.65 27.36-9.76v-2.14l-27.89-13.35-20.32 6a2.29 2.29 0 00-.5-1.43 52.29 52.29 0 00-5.26-5.75l1.31-.42c.39.67 1.6 1.26 2.32 1.78 1.64-.5 10.36-2.34 13.85-2.87s17.17-3.41 21-4.67c3.33-1.09 3.62-3.92 2.88-7.44q7.61-.88 15.45-1.48c1.61 1.29 4.22 2.31 8.34 3.15l1.45 21.93 69.95 2.18 4.5-17.57h-4.22l.1-6.6c3.23 0 6.19.13 8.64.07a327.8 327.8 0 0132.14 6.46c.13.32.27.65.43 1a15.32 15.32 0 005.6 6.37 11.73 11.73 0 01-.42-2.45 6.58 6.58 0 002.19 3.13L334.05 282s.43-.05 1.18-.1l-3.4 1.21 28.78 11.18-12 16.6 20.08 48.56v2.62l14.72 2.52-39.66-1.23zm11.06-128.63v-2l-10-2.76-13.15 7.49v1.66l10.19 3.21zm-38.66 41.56l35.41-8.27-16.93-10.42-33.35 5.49zM330 348.28c1-.38 4.72-1.83 4.44-4.54s-3.57-2.74-6.33-.3l1.62-5.69a1.85 1.85 0 00.27-.95c0-2.39-5-4.33-11.08-4.33s-11.07 1.94-11.07 4.33a1.66 1.66 0 00.19.78l4.86 16.93a.82.82 0 00.09.34c.52 1.1 3 1.93 5.93 1.93s5.42-.83 5.94-1.93a1 1 0 00.09-.34l1-3.67c.88-1.6 3.05-2.19 4.05-2.56zm-42.5-45.14l5.81-16.38-47.82-3.08-10 15.55zM173.4 319l22.14-13c-3.5-2.4-12-3.57-17.72-4.78a58.82 58.82 0 01-16-6.16l-23.18 11.79c3.84 2.06 15.78 5.33 22 7.57S173.4 319 173.4 319z"/><path class="cls-10" d="M403.95 354.66l-3.2 6.27-2.9-.5 3.2-6.26 2.9.49zm-.46-22.35l-13.66 26.75-2.9-.5 13.6-26.63 2.96.38zm-2.38-32.53L386.62 306c-1.63-1.75-8.34-5.13-10.58-5.4l-.76-2.07c2.28.24 8.76 3 11.69 5.32l11.48-4.74c.83.26 1.71.47 2.66.67z"/><path class="cls-10" d="M398.45 299.14L387 303.88c-2.93-2.35-9.41-5.08-11.69-5.32l-4.06-11.06 4.59-2.46a2.37 2.37 0 00.25 1.16c1 2.13 2.7 1.67 3.51 1.56l1.47-.2a3.29 3.29 0 00-.67.88c-.63 1.21-.7 2.58.65 3.33a3.24 3.24 0 002.86.41l-.45-1a7.52 7.52 0 014.34 1.23s2.05 4.32 10.65 6.73zm-.53 32.45l-13.54 26.54-2.9-.5 13.48-26.42 2.96.38zm-5.57-.72l-13.43 26.32-2.9-.5 13.38-26.2 2.95.38z"/><path class="cls-5" d="M383.32 273.39a13.3 13.3 0 00-2.66-.1c-2.13.23-3.22 1.18-4.66 2.32a11.39 11.39 0 00-.93.82s-3-3.65-3.83-3.37 1.13 4.2 1.87 5.81a2.75 2.75 0 00-.31.62c-.35 1-.61 1.71 0 2.52a1.44 1.44 0 00.25.24 2.13 2.13 0 01-1.17-.46c-3-3.54-3.39-8.44-5.29-9.48a7.21 7.21 0 01-1-.64 6.58 6.58 0 01-2.19-3.13c-.24-4.17 2.35-8.09 14.06-4h.13a23.43 23.43 0 015.82 2.42c1.09.92 2.38 2.76 3.81 5.88.19.4.38.83.57 1.27a45.23 45.23 0 00-4.47-.72z"/><path class="cls-11" d="M376.04 300.63l9.49 25.86-1.42 2.8-.68-.84-12.6 24.69.68.84h-.01l-2.79 5.46-20.08-48.56 11.98-16.6.5-.69.57-.8 7.61-10.54 1.93 5.25 4.06 11.06.76 2.07z"/><path class="cls-10" d="M384.11 329.29l1.42 1.75-12.6 24.69-1.42-1.75-.68-.84 12.6-24.69.68.84z"/><path class="cls-6" d="M377.61 264.61h-.13c-11.71-4.13-14.3-.21-14.06 4a11.73 11.73 0 00.42 2.45 15.32 15.32 0 01-5.6-6.37c-.71-6.24 8.47-7.16 11.4-6.84 2.73.29 4.42 2 5.85 3.88.75.9 1.42 1.94 2.12 2.88z"/><path class="cls-10" d="M375.45 284.42h.46a2.17 2.17 0 00-.1.62l-4.59 2.46-1.93-5.25-7.61 10.54c-5.87-9-16.51-10.78-22.73-11-1.56 0-2.85 0-3.71.07s-1.18.1-1.18.1l31.56-10.32a7.21 7.21 0 001 .64c1.9 1 2.27 5.94 5.29 9.48a2.13 2.13 0 001.17.46 4.5 4.5 0 00.52.32 1.8 1.8 0 001.85 1.88zm-.38-7.99a11.9 11.9 0 00-2 2.44c-.74-1.61-2.73-5.52-1.87-5.81s3.87 3.37 3.87 3.37z"/><path class="cls-10" d="M361.68 292.79l-.57.8c-2.26-2.79-10.72-10.52-26.76-10.22l4.59-1.55c6.23.18 16.87 1.93 22.74 10.97z"/><path class="cls-10" d="M361.11 293.59l-.5.69-28.78-11.18 3.4-1.21c.86-.06 2.15-.11 3.71-.07l-4.59 1.55c16.04-.3 24.5 7.43 26.76 10.22zm-7.74-25.06v2l-12.95 7.6-10.19-3.21v-1.66l10.19 3.04 12.95-7.77z"/><path class="cls-10" d="M353.37 268.53l-12.95 7.77-10.19-3.04 13.15-7.49 9.99 2.76z"/><path class="cls-5" d="M350.12 303.82l-35.41 8.27-14.87-13.2 33.35-5.49 16.93 10.42z"/><path d="M314.76 240.57l-51.87-1.25c-.34-9.71-.63-14.8-1.23-18.72a124.79 124.79 0 00-6.78 18.53l-10.83-.27 1.2 18.3c-4.12-.84-6.73-1.86-8.34-3.15-2.26-1.78-2.54-4.07-2.27-7.06.69-7.43 8.31-27.71 9.87-31.88s6.7-15.34 10.68-18.78 16.63-8 21.72-9.56c-1.87 3.15-3.9 7.22-4.1 17.51 0 0 4.84-6.16 11.51-.58.67.75 1.42 1.51 2.27 2.29.69.66 1.45 1.32 2.26 2a27.21 27.21 0 004.86-3.54c.45-.41.91-.86 1.37-1.36 5.69-4.75 11.13 1.6 11.13 1.6a44.89 44.89 0 00-2.58-18.34c3.78.43 15.15 2.77 19.28 4.59a17.41 17.41 0 013.56 2c1.61 1.25 2.55 2.85 3.61 5.73a90.46 90.46 0 015.74 27.75c.52 12-1.32 24.85-3.91 28.81-1 1.51-3.22 1.93-6.25 2-2.45.06-5.41-.09-8.64-.07l.26-16.47z" fill="#6e8a90"/><path class="cls-8" d="M334.46 343.74c.28 2.71-3.43 4.16-4.44 4.54s-3.19 1-4 2.57l2.11-7.41c2.76-2.44 6.07-2.3 6.33.3z"/><path class="cls-10" d="M330 336.8l-.27.95c-1.11 1.93-5.52 3.38-10.81 3.38s-9.94-1.53-10.88-3.54a1.66 1.66 0 01-.19-.78c0-2.39 5-4.33 11.07-4.33S330 334.41 330 336.8z"/><path class="cls-10" d="M312.92 354.52l-4.86-16.93c.94 2 5.46 3.54 10.88 3.54s9.7-1.45 10.81-3.38l-1.62 5.69-2.13 7.41-1 3.67-.09.34c-.52 1.1-3 1.93-5.94 1.93s-5.41-.83-5.93-1.93zm8.23-90.82l-4.5 17.57.28-17.57h4.22zm-3.86-23.07L317 257.1l-.1 6.6-.28 17.57-69.95-2.18-1.45-21.93-1.2-18.3 10.83.27 8 .19 51.87 1.25zm-33.68 18.54a2.54 2.54 0 10-2.53 2.82 2.68 2.68 0 002.53-2.82z"/><path class="cls-13" d="M303 185.36l.1-.62c.18.51.36 1 .53 1.57a44.89 44.89 0 012.58 18.34s-5.44-6.35-11.13-1.6a28.29 28.29 0 006.58-13 12.81 12.81 0 00.71-1.83 28.28 28.28 0 00.63-2.86z"/><path class="cls-5" d="M303.42 171.55c-.25 2.24.28 4.27.21 7.15a48.3 48.3 0 01-.53 6l-.1.62a2.91 2.91 0 01-2.9.9c-2.84-.54-7.09-.61-9.32.31s-5 2.12-7.21-.6-5.63-8.67-5.77-12.4 2-7 2.9-9.42a16.58 16.58 0 00.54-6.16 50.32 50.32 0 0011.05-.54A30.09 30.09 0 00299 155c3.27 3.77 4.85 12.69 4.42 16.55zm-2.81 2.83c0-.33-.11-.6-.23-.6s-.23.27-.23.6.11.6.23.6.23-.27.23-.6zM288 175.56c0-.33-.11-.6-.23-.6s-.23.27-.23.6.1.6.23.6.23-.27.23-.6z"/><path class="cls-4" d="M277.3 180.35c-.52-2.5-.59-7.6-2.88-10-.14-.27-3.3-7-1-14.23 2.82-8.87 12.17-10.64 17.18-9.07s8.83 7.73 8.83 7.73l-.43.22a30.09 30.09 0 01-6.74 2.45 50.32 50.32 0 01-11.05.54 16.58 16.58 0 01-.54 6.16c-.91 2.42-3 5.68-2.9 9.42s3.56 9.67 5.77 12.4 5 1.52 7.21.6 6.48-.85 9.32-.31a2.91 2.91 0 002.9-.9 28.28 28.28 0 01-.63 2.84 12.81 12.81 0 01-.71 1.83 32.56 32.56 0 01-4.6 7c-1 .86-3.3 1.29-6.34.49s-9.59-6.26-11.2-8.55a7.86 7.86 0 01-.48-.81c-.12-.23-.23-.47-.34-.71a15.32 15.32 0 01-.76-2.49 32.08 32.08 0 01-.61-4.61z"/><path class="cls-5" d="M297.06 197.07a32.56 32.56 0 004.6-7 28.29 28.29 0 01-6.58 13 11.67 11.67 0 00-1.37 1.36 27.21 27.21 0 01-4.86 3.54c-.81-.68-1.57-1.34-2.26-2a20.52 20.52 0 00-2.27-2.29 21.72 21.72 0 01-4.94-8.27 62.43 62.43 0 00-.34-7.19 7.86 7.86 0 00.48.81c1.61 2.29 8.16 7.74 11.2 8.55s5.37.35 6.34-.51z"/><path class="cls-14" d="M272.87 358.31c7.92 2.05 16.18 3.71 23.38 3.43a157.07 157.07 0 01-13.34 16.74c-1.2.16-2.89.59-4 .85-1.43.32-5 1.22-7.43 1.71s-2.44-.45-1.75-1a28.09 28.09 0 014.27-2c1.26-.57 4.66-.95 6-1.38s3.27-1.11 3.81-2.1a1.27 1.27 0 00-.89-2 46 46 0 00-5.42.35 38.35 38.35 0 00-5.56.72c-1.74.43-4.52 1.71-6.53 1.92A22.51 22.51 0 01270 373c1.7-.53 6.66-1.36 7.48-1.47 2.16-.27 3.34-1.27 3.08-2.35-.2-.82-2.83-.8-4.79-.8h-2c-2.28-1.78-12.22-.36-14.1 0-3.18.57-8 3.21-10.63 5.13a68.89 68.89 0 00-7.83 7.58c-1.38 1.47-7.93 7-10.54 8.08a8.91 8.91 0 00-1.52-.31c-.46.28-5.2 3.26-9 5.58l-16.39-5.58s16.15-13.62 21.73-18.37 18.88-16.76 22.5-20.63c5.08 2.61 17.52 6.54 24.88 8.45z"/><path class="cls-5" d="M293.31 286.76l-5.81 16.38-52-3.91 9.99-15.55 47.82 3.08zm-19.56 81.6h2c2 0 4.59 0 4.79.8.26 1.08-.92 2.08-3.08 2.35-.82.11-5.78.94-7.48 1.47a22.51 22.51 0 00-4.53 2.61c2-.21 4.79-1.49 6.53-1.92a38.35 38.35 0 015.56-.72 46 46 0 015.42-.35 1.27 1.27 0 01.89 2c-.54 1-2.46 1.67-3.81 2.1s-4.75.81-6 1.38a28.09 28.09 0 00-4.27 2c-.69.53-.66 1.46 1.75 1s6-1.39 7.43-1.71c1.1-.26 2.79-.69 4-.85a3 3 0 011.26 0c.78.32.75 1.41 0 2a21.76 21.76 0 01-5.32 2.44l-.7.24c-1 .34-5.52 1.46-6.89 2.06s-3.32 4.23-8.7 7.23c-6.48 3.61-12.78 3.48-14.8 4.16s-5.56 4.2-5.56 4.2c-2.16-5.05-6.56-10.28-11.55-11.69 2.61-1.05 9.16-6.61 10.54-8.08a68.89 68.89 0 017.83-7.58c2.59-1.92 7.45-4.56 10.63-5.13 1.84-.37 11.78-1.79 14.06-.01z"/><path class="cls-10" d="M281.08 256.36a2.83 2.83 0 11-2.53 2.81 2.68 2.68 0 012.53-2.81z"/><path class="cls-13" d="M279.38 195.39a21.72 21.72 0 004.94 8.27c-6.67-5.58-11.51.58-11.51.58.2-10.29 2.23-14.36 4.1-17.51.35-.6.7-1.16 1-1.73a15.32 15.32 0 00.76 2.49 21.46 21.46 0 00.71 7.9z"/><path class="cls-14" d="M278.15 383.18l.7-.24c-11.59 12.51-23.43 23.53-23.43 23.53-3.48-1.19-10.74-3.06-12.71-4.35-.16-.43-.32-.86-.51-1.29 0 0 3.66-3.56 5.56-4.2s8.32-.55 14.8-4.16c5.38-3 7.32-6.63 8.7-7.23s5.89-1.72 6.89-2.06z"/><path class="cls-11" d="M122.72 431c.92 7.23.56 28.91 0 35.34 0 0-19.44 2.08-60.72-6.89-45.23-9.83-49.45-18.17-49.45-18.17-2.4-29.85.4-64.46 2-81.92.95-10.13 3.69-28.29 9.7-36.05 6.21-8 14-8.72 18.42-10.16.58-1.83 1.56-5.23 2.49-6.65a1.56 1.56 0 01.16-.2 27.59 27.59 0 006.73 2.8c4.43 1.31 9.34 2.17 12.09 2.79 4.36 1 16.94 4.77 22.5 6.83 2 .76 4.46 1.72 6.94 2.81 5 2.22 10.31 4.94 13.09 7.4a4 4 0 011.09 3.74c-.29 1.72-.9 5.28-1.79 8.49a45.75 45.75 0 013.74 3c4.61 4.13 10.92 7.7 16 11.64a39.46 39.46 0 014.31 3.8c5.36 5.59 17.08 19.07 22.43 25 14.77 16.45 32.4 26.46 33.4 28.22a4 4 0 00.68-.2c5.3-1.86 26.89-14.28 30.22-16.24.87-.51 2-1.21 3.29-2 3.81-2.32 8.55-5.3 9-5.58a8.91 8.91 0 011.52.31c5 1.41 9.39 6.64 11.55 11.69.19.43.35.86.51 1.29a16.25 16.25 0 01.81 3.31c-2.37 3.45-8.8 11.17-9.64 11.71a2.17 2.17 0 01-1.54.38s-5.51 4.76-11.45 9.87l-8.68 7.43c-2.17 1.86-4 3.38-5 4.21-4.52 3.75-10.12 8.9-15.62 10-6.5 1.32-16.66.14-24.49-2-11.63-3.13-34.81-12.14-41.63-14.92z"/><path class="cls-10" d="M234.03 283.68v2.14l-27.47 9.68v-2.14l.04-.01 27.43-9.67zm-.03 0l-27.43 9.67v-.11l-23.27-12.47c.28-.4.19-1.19-.43-2.08-.19-.27-.52-.71-1-1.25l2.19-.64c.84.48 1.66.25 1.71-.5l20.32-6zm-37.5-8c.31-.08.56-.21.54-.29s-.3-.07-.62 0-.56.21-.54.29.33.09.65 0zm31.94 72.11v5.55l-23.24 20.77c1.91-2.22 1.7-4.09-.9-4.87l12.3-10.93z"/><path class="cls-10" d="M228.44 347.79l-11.84 10.52L161.82 345l13.71-10.07 52.91 12.86z"/><path class="cls-14" d="M194.67 205.92c1.91 1.87 4.83 7 6.41 10.27 1.73 3.51 8.5 14 10.87 18.37s8.09 15.63 9.07 19.2c.17.59.31 1.17.43 1.74.74 3.52.45 6.35-2.88 7.44-3.87 1.26-17.56 4.13-21 4.67s-12.21 2.37-13.85 2.87a15.15 15.15 0 00-.57-2.3 16.68 16.68 0 00-5.15-7.78 2.61 2.61 0 00-2.05-.67l1.38-.42c1.61-.46 4.15-1.16 7-2a198.5 198.5 0 002.8-40.71l-3.93-.34c0-.14-.06-.26-.1-.39l3.53-2c-.23-1.42-2.67-6.87-4-9.74 0-.51-.05-1-.09-1.57v-.26c1.56.15 9.73 1.81 11.61 3.19a4 4 0 01.52.43zm8 46.54c-1.84-2.87-6.73-12.42-7.63-14.22-.6 6.6-1.38 13.2-2 16.77 3.88-1.01 7.49-2.01 9.6-2.55z"/><path class="cls-10" d="M216.6 358.31l-12.3 10.93-26.94-6.69.66-.56-7.09-1.76-.66.56-22.37-5.56L161.82 345l54.78 13.31zm-10.04-65.07v2.25l-25.47-13.65a2.37 2.37 0 00-.77-2.25c1.49 1.57 2.59 1.72 3 1.17z"/><path class="cls-10" d="M204.3 369.24c2.6.78 2.81 2.65.9 4.87l-29.46-7.29v-1.62a2.78 2.78 0 011-2.13l.62-.52zm-7.23-93.85c0 .08-.23.21-.54.29s-.6.09-.62 0 .22-.21.54-.29.6-.07.62 0z"/><path class="cls-5" d="M195.54 306l-22.14 13s-6.54-2.3-12.74-4.54-18.14-5.51-22-7.57l23.18-11.79a58.82 58.82 0 0016 6.16c5.72 1.19 14.16 2.36 17.7 4.74z"/><path class="cls-14" d="M187.21 216.64a198.5 198.5 0 01-2.8 40.71c-2.9.8-5.44 1.5-7 2a193.69 193.69 0 001.34-27.75v-.57a142 142 0 00-1.28-14.84 35.25 35.25 0 003.29 5.86c-1.43-3.56.43-5.51.43-5.51a5.74 5.74 0 004.73 4 8.9 8.9 0 01-2.57-4.18z"/><path class="cls-9" d="M186.72 213.89l-3.53 2c-.74-3.07-.24-6.78-.47-11.76 1.33 2.87 3.77 8.34 4 9.76z"/><path class="cls-5" d="M180.32 279.6a2.37 2.37 0 01.77 2.25c-.27.72-1.3.85-2.8-.47a92.26 92.26 0 00-8.76-6.17s5.3 5.34 6.2 6.49 0 3-2.84.4a41.7 41.7 0 00-4.88-3.87 9.3 9.3 0 01-3.9-.75 8.79 8.79 0 01-1.46-.8l-2.85-.24a17.83 17.83 0 014.16-8.57 16.22 16.22 0 007.71-1.52c1.78-.64 3.21-1.5 5.19-.09a36.22 36.22 0 013.21 2.86 52.29 52.29 0 015.26 5.75 2.29 2.29 0 01.5 1.43c-.05.75-.87 1-1.71.5a2.73 2.73 0 01-.42-.3c-1.38-1.17-7.74-7-9.23-7.74 0 0 5.13 5.82 7.46 8.68.44.54.77 1 1 1.25.62.89.71 1.68.43 2.08-.45.55-1.55.4-3.04-1.17zm-.58-.57a105.94 105.94 0 00-8.34-7.37c.4.34 6.15 5.25 8.34 7.34z"/><path class="cls-4" d="M185.85 220.48a5.74 5.74 0 01-4.73-4s-1.86 1.95-.43 5.51a35.25 35.25 0 01-3.29-5.86 32.42 32.42 0 01-2.39-7.61 56.56 56.56 0 01-.69-9.55 6.88 6.88 0 001.75-.08c1.69-.28 3.41-1.67 4.73-4.42-.16 2 1.48 4.69 1.79 7.85v.26c0 .54.06 1.06.09 1.57.23 5-.27 8.69.47 11.76 0 .13.06.25.1.39a8.9 8.9 0 002.6 4.18z"/><path class="cls-8" d="M184.1 276.8l-2.19.64c-2.33-2.86-7.46-8.68-7.46-8.68 1.49.7 7.85 6.57 9.23 7.74a2.73 2.73 0 00.42.3z"/><path class="cls-5" d="M179.82 189.14a19.11 19.11 0 01-7.5.48A7.67 7.67 0 00175 192a3.6 3.6 0 003-.2 8.65 8.65 0 001.78-2.64zm-5.5 9.83a56.56 56.56 0 00.69 9.55 32.42 32.42 0 002.39 7.61 142 142 0 011.28 14.87v.57c-3.53 2.75-9.55 3.22-14.17 2.13h-.05c-1.49-6.38-2.86-10.71-3.65-13.22a10.67 10.67 0 001-3.87c.42-6.28-2.14-12-3-15.92s-1-9.68-.35-11.39a33.19 33.19 0 006.09-8.88c1.72-3.54 4.3-12.53 5.16-14.65s2.83-3.65 4.94-3.36a4.1 4.1 0 011 .26c2.58-1.38 4.77 1.05 6.42 3.85a69.8 69.8 0 01.56 21.52 23.65 23.65 0 01-1.82 6.42c-1.32 2.75-3 4.14-4.73 4.42a6.88 6.88 0 01-1.76.12zm6.11-21.33c0-.33-.11-.6-.23-.6s-.23.27-.23.6.1.6.23.6.23-.24.23-.6zm-10.82 1c0-.33-.1-.6-.23-.6s-.22.27-.22.6.1.61.22.61.23-.25.23-.64z"/><path class="cls-4" d="M174.32 153.94c1.74 1.57 8.43 8.17 8.38 13.75-.2-.39-.42-.78-.64-1.16-1.65-2.8-3.84-5.23-6.42-3.85a4.1 4.1 0 00-1-.26l.22-1.53a45.23 45.23 0 00-4.55-4.56 53.77 53.77 0 00-6.38-5c3.19-2.27 7.43-.06 10.39 2.61z"/><path class="cls-5" d="M183.11 268.18c-.41.11-1.12.33-1.75.52l-1.31.42a36.22 36.22 0 00-3.21-2.86c-2-1.41-3.41-.55-5.19.09a16.22 16.22 0 01-7.71 1.52 5.21 5.21 0 01.79-.67c-4.15-.51-8.24-1.18-11.88-1.83a5.11 5.11 0 013.16-2.49c1.7-.31 4.48.06 9 0h.69a31.25 31.25 0 003.47-.3 46.57 46.57 0 008.83-2.18 16.68 16.68 0 015.11 7.78zm-3.29-79.04a8.65 8.65 0 01-1.78 2.64 3.6 3.6 0 01-3 .2 7.67 7.67 0 01-2.71-2.37 19.11 19.11 0 007.49-.47z"/><path class="cls-10" d="M178.7 231.56a193.69 193.69 0 01-1.34 27.75l-1.38.42a2.61 2.61 0 012.05.67 46.57 46.57 0 01-8.88 2.18 231.34 231.34 0 00-4.67-28.88h.05c4.62 1.08 10.64.61 14.17-2.14zM178 362l-.66.56-.62.52a2.78 2.78 0 00-1 2.13v2.02l-7-1.75v-2a2.81 2.81 0 011-2.13l.61-.53.66-.56z"/><path class="cls-4" d="M158.45 189.3c-.64 1.71-.49 7.49.35 11.39s3.41 9.64 3 15.92a10.67 10.67 0 01-1 3.87 9.81 9.81 0 01-7.79 5.27s2.4-1.95 2.56-6.43c0 0-1.92 3-4.4 3.64a9.58 9.58 0 001.53-5.32 11 11 0 01-3.86 2.7 7 7 0 01-1.23.36 10.64 10.64 0 001.76-2.82 10.25 10.25 0 00.88-5 8.8 8.8 0 01-3.42 1.78 7.23 7.23 0 01-1.52.22s.77-3.68-.64-6.36a4.35 4.35 0 01-4 1.76s1.45-.95 1.41-3.83c0-.89-.1-1.86-.18-2.87a15.81 15.81 0 01.49-6.69c1.15-3.14 5.62-8.44 7-10.44a104.37 104.37 0 007-12.77c1.6-3.83 3.6-9.94 4.75-11.94 2.56-4.47 7-6.79 9.13-5.39a45.23 45.23 0 014.55 4.56l-.22 1.53c-2.11-.29-4.09 1.24-4.94 3.36s-3.44 11.11-5.16 14.65a33.19 33.19 0 01-6.05 8.85z"/><path class="cls-10" d="M170.27 360.79l-.61.53a2.81 2.81 0 00-1 2.13v1.62L148 360c3.78-1 1.81-4.26-.11-4.73z"/><path class="cls-4" d="M163.93 151.32a53.77 53.77 0 016.38 5c-2.12-1.4-6.57.92-9.13 5.39-1.15 2-3.15 8.11-4.75 11.94a104.37 104.37 0 01-7 12.77c-1.38 2-5.85 7.3-7 10.44a15.81 15.81 0 00-.49 6.69c-2.16.62-5.11 1.35-7.8 2.22.58-1.84 3.1-4.26 4.18-6.68 1.86-4.19 2.35-9.25 2.92-12.34.73-4 1.81-11.74 3.82-17.36s4.2-10.28 8.3-15c3.39-4 8.79-4.24 10.57-3.07z"/><path class="cls-14" d="M169.15 262.58a31.25 31.25 0 01-3.47.3H165c-6.74-22.36-13.53-35.84-16.13-42.54a11 11 0 003.86-2.7 9.58 9.58 0 01-1.53 5.32c2.48-.69 4.4-3.64 4.4-3.64-.16 4.48-2.56 6.43-2.56 6.43a9.81 9.81 0 007.79-5.27c.79 2.51 2.16 6.84 3.65 13.22a231.34 231.34 0 014.67 28.88z"/><path class="cls-14" d="M129.21 207.86a5.69 5.69 0 01.52-.33 26.28 26.28 0 014.37-1.76c2.69-.87 5.64-1.6 7.8-2.22.08 1 .17 2 .18 2.87 0 2.88-1.41 3.83-1.41 3.83a4.35 4.35 0 004-1.76c1.41 2.68.64 6.36.64 6.36a7.23 7.23 0 001.52-.22 17.87 17.87 0 001.05 3.47l1.49-.22a10.64 10.64 0 01-1.76 2.82 7 7 0 001.23-.36c2.6 6.7 9.39 20.18 16.13 42.54-4.5.05-7.28-.32-9 0a5.11 5.11 0 00-3.16 2.49c3.64.65 7.73 1.32 11.88 1.83a5.21 5.21 0 00-.79.67 17.83 17.83 0 00-4.16 8.57 18.59 18.59 0 00-.38 2.5c-.14 1.49 0 2.65.58 2.81-3-.52-15.5-2.77-23.36-4.37l-2.83-.59a27.88 27.88 0 01-3.81-1.05c-3.5-1.27-5-3-5.83-6.14-1.08-4.06-1.61-13.24-1.53-20.89s.74-22.53 1.61-29.58c.43-3.57 2.12-9.21 5-11.27z"/><path class="cls-14" d="M162.65 276.68a8.79 8.79 0 001.46.8c-2.18 3.35-3.45 4.45-4.13 4.27-.6-.16-.72-1.32-.58-2.81a18.59 18.59 0 01.38-2.5z"/><path class="cls-9" d="M150.27 212.85a10.25 10.25 0 01-.88 5l-1.49.22a17.87 17.87 0 01-1.05-3.47 8.8 8.8 0 003.42-1.75zm-16.49 63.94l2.83.59c-2.25 1-4.45 2-6.6 3.11.06-1.35 0-3.31 0-4.74a27.88 27.88 0 003.77 1.04z"/><path class="cls-5" d="M89.55 280.65l3.82-1.91a45.56 45.56 0 01-.58-10.35c.28-3.27 2.24-5.13 4.21-7.07s3.51-6 3.83-9a13.74 13.74 0 012.69-6.77 3.77 3.77 0 00.58-1.18c4.09 4.31 8.44 12.52 10.07 17.16 1.71 4.87 2.69 8 2.69 8s6.55 5.43 8 8.17c1.1 2-3.85 4.21-3.84 4.77a15.86 15.86 0 001.19 2.08c.8 1.32 1.68 2.88 1.55 3.55-.24 1.17-5.05 2.07-5.3 2.94s4.92 2.17 4.88 4-2.68 1.73-2.83 3.3c-.11 1.1.65 4.68-.22 6.62s-4.44 3.19-7 3.75c-3.46.77-8.5.43-11 1-3.62.87-7 7.46-8.75 11.79-2.48-1.09-4.9-2.05-6.94-2.81-5.56-2.06-18.14-5.85-22.5-6.83-2.75-.62-7.66-1.48-12.09-2.79a16.64 16.64 0 00.58-2.8 28.56 28.56 0 000-7.69l.69.1c2.33.32 13.38-.66 16.9-1.64s6.33-5.15 6.49-7.62 1.59-6.56 3.17-7.15a4.35 4.35 0 013.28-4.27c2.21-.37 4.19.65 6.43 2.65zm24.06-9.2c.28 0 .44-.65.36-1.39s-.37-1.31-.64-1.27-.44.64-.36 1.38.37 1.31.64 1.28z"/><path class="cls-4" d="M103.06 242.12a1.75 1.75 0 011 2.25 3.77 3.77 0 01-.58 1.18 13.74 13.74 0 00-2.69 6.77c-.32 3-1.85 7.06-3.83 9s-3.93 3.8-4.21 7.07a45.56 45.56 0 00.58 10.35l-3.82 1.91c-2.24-2-4.22-3-6.43-2.65a4.35 4.35 0 00-3.23 4.27c-1.58.59-3 4.69-3.17 7.15s-3 6.65-6.49 7.62-14.57 2-16.9 1.64l-.69-.1c-1.87-.31-2.76-.69-3.14-2.06 0 0-3-1.39-3.06-4.22 0 0-4.16-.52-4.28-5.53 0 0-3.2-1.3-2.45-4a6.59 6.59 0 01-3.48-7.31s-3.39-1.77-1.61-6.83c0 0-2.82-5.19.29-9.53 0 0-3.26-3.78.59-7.21 0 0-1.54-5.34 3.11-6.87 0 0-.1-7.13 6.65-6.51 0 0 .55-4.86 5.25-3.74 0 0 .37-4.63 6.26-3.37 0 0 2.46-4.1 8.29-1.7a5.91 5.91 0 017.14-1.07 5.46 5.46 0 017.22.48s3.85-2.57 6.68-.13c0 0 3.44-1.62 4.94 1 0 0 3-.37 3 2 0 0 3.12-1.29 3.73 1.75a2.76 2.76 0 013.45 2.7s4.02 1.97 1.88 5.69z"/><path class="cls-5" d="M271.59 173.14c.21-1.73.34-2.86 1.17-3a1.89 1.89 0 012.12.78 9.84 9.84 0 011.44 3.48 38.6 38.6 0 01.82 5.06c0 .78-.23 2-1.23 1.63a6.76 6.76 0 01-3-2.81 8 8 0 01-1.24-3.15c-.05-1.21-.08-1.99-.08-1.99z"/><path class="cls-9" d="M46.05 305.9a60.62 60.62 0 016.62.37l-.58 2.8-5.9-2.31z"/><path class="cls-10" d="M379.71 286.53a3 3 0 012.52-1.34c1 .14 2.38.44 2 .87s-1.81.53-2.5 1a2.17 2.17 0 01-1.75.43c-.29-.11-.27-.96-.27-.96z"/></g><g id="LIN"><path class="cls-15" d="M175.64 162.67c2.93-1.57 5.38 1.8 7.06 5m-18.77-16.34c3.19-2.27 7.43-.06 10.39 2.61 1.74 1.57 8.43 8.18 8.38 13.74"/><path class="cls-15" d="M182.05 166.52a69.22 69.22 0 01.56 21.53c-1.08 7.15-3.84 10.39-6.54 10.84-3.25.55-6.42-1.2-10.15-3.41s-4.94-2.94-5.59-4.65m13.99 8.17a55.61 55.61 0 00.69 9.55m.63-45.88c-2.47-1-4.95.65-5.94 3.1-.86 2.12-3.44 11.11-5.16 14.65a33.22 33.22 0 01-15.69 15.86m15.08-44.95c-1.78-1.18-7.17-.94-10.62 3-4.09 4.73-6.28 9.38-8.29 15s-3.09 13.33-3.82 17.36c-.56 3.09-1.06 8.15-2.92 12.34-1.08 2.42-3.6 4.85-4.17 6.68m29.82-54.38a59.85 59.85 0 0110.93 9.55"/><path class="cls-15" d="M175.64 177.1c1.26 2.29 3 7.34 2.9 8.38s-2.53 1-3.76.86m3.39-12.69a8.3 8.3 0 014.24-.31m-10.25 1.07a13.29 13.29 0 00-5.21.39m5.15 14.79c1.38.21 5.37.47 8-.54"/><path class="cls-15" d="M172.32 189.62A7.67 7.67 0 00175 192a3.64 3.64 0 003-.2 8.65 8.65 0 001.78-2.64m-4.14 4.97a3.55 3.55 0 002-.12m2.78-16.37c0 .33-.1.6-.22.6s-.23-.27-.23-.6.1-.6.23-.6.22.27.22.6zm-10.81.98c0 .33-.1.6-.23.6s-.22-.27-.22-.6.1-.61.22-.61.23.27.23.61zM288 175.56c0 .33-.11.6-.23.6s-.23-.27-.23-.6.1-.61.23-.61.23.27.23.61zm12.61-1.18c0 .33-.1.6-.23.6s-.22-.27-.22-.6.1-.6.22-.6.23.27.23.6zm112.6 21.93c0 .34-.11.61-.23.61s-.23-.27-.23-.61.1-.6.23-.6.23.29.23.6zm14.58-.58c0 .33-.1.6-.22.6s-.23-.27-.23-.6.1-.61.23-.61.22.27.22.61zm24.11 41.42c0 .41-.12.74-.28.74s-.28-.33-.28-.74.13-.75.28-.75.28.34.28.75zM114 270.06c.08.74-.08 1.36-.36 1.39s-.56-.54-.64-1.28.09-1.36.36-1.39.53.55.64 1.28zm44.45-80.76c-.64 1.71-.49 7.48.35 11.39s3.41 9.64 3 15.91-5 8.65-8.76 9.15c0 0 2.41-1.95 2.56-6.43 0 0-1.91 3-4.4 3.64a9.58 9.58 0 001.53-5.32 10.28 10.28 0 01-5.09 3.06 11.05 11.05 0 002.64-7.85 8.4 8.4 0 01-4.93 2s.76-3.67-.66-6.35a4.32 4.32 0 01-4 1.76s1.45-.95 1.41-3.82-.84-6.43.31-9.57 5.62-8.44 7-10.44a104.37 104.37 0 007-12.77c1.6-3.83 3.6-9.94 4.75-11.94 2.56-4.47 7-6.79 9.13-5.39"/><path class="cls-15" d="M141.9 203.55c-3.49 1-9 2.26-12.18 4s-5 7.82-5.51 11.6c-.87 7.05-1.53 21.92-1.6 29.58s.46 16.83 1.53 20.89 3.31 5.83 9.64 7.19c7.22 1.56 22.87 4.38 26.2 5m20.82-87.35c-.17 2.07 1.56 4.85 1.81 8.12.66 8.67-1.2 13.72 3.25 17.9a5.74 5.74 0 01-4.74-4s-1.86 1.95-.43 5.51a35.92 35.92 0 01-5.69-13.44m-14.18 11.93c1.68 5.27 5.92 18.68 8.33 42.1"/><path class="cls-15" d="M182.59 202.31c1.56.16 9.73 1.82 11.61 3.2s5.16 7.15 6.88 10.67 8.5 14 10.87 18.38 8.09 15.63 9.07 19.2c1.19 4.32 1.42 7.92-2.45 9.18s-17.56 4.13-21 4.67-12.21 2.37-13.86 2.87m12.29-50c.23 6.26-1.71 27-3 34.53m-17 4.72c3.14-1 22.79-6.3 27.55-7.5"/><path class="cls-15" d="M203.53 252.23c2.64-1.84 7.46-2.64 9.42-2 2.79.92.88 1.67-2.26 1.48m-7.16.13a11.93 11.93 0 019.26-4.32M195 238.23c.89 1.81 5.79 11.36 7.63 14.22M176 259.73c2.19-.58 6.78 5 7.69 10.75"/><path class="cls-15" d="M178 260.4a43.17 43.17 0 01-12.35 2.47c-4.91.12-7.89-.31-9.67 0a5.2 5.2 0 00-3.17 2.5m11.3 12.11c-4.11 6.33-5 4.62-4.71 1.46.49-5.41 3.1-10.22 5.33-11.73"/><path class="cls-15" d="M163.94 267.87a16.22 16.22 0 007.71-1.52c1.78-.64 3.21-1.5 5.19-.09a61.1 61.1 0 018.47 8.61c1.35 2-.26 2.81-1.64 1.63s-7.73-7.05-9.22-7.73c0 0 7.24 8.19 8.42 9.92 1.44 2.09.06 3.64-2.55.91a107.43 107.43 0 00-8.93-8s7.41 6.32 8.93 8c1.78 1.93.61 4.11-2 1.78a91.1 91.1 0 00-8.75-6.17s5.31 5.34 6.2 6.49 0 2.95-2.85.4a41.21 41.21 0 00-4.87-3.87 9.25 9.25 0 01-5.36-1.55l-2.85-.24m4.89-9.23c-10.81-1.36-21.15-3.67-24.6-4.33m0 0c-4.33-1.32-8-.38-9.43.45"/><path class="cls-15" d="M140.13 262.88c-5.28.22-8 3.24-8.43 5.62s1.38 0 4.16-2.64m4.27-2.98c-.38-5 .32-10.65.28-17.83 0-5.85 0-11.79-.38-15.21m-10.82-21.98c2.31.52 5.41 3.42 7.4 11.12m12.24 1.36c2.61 6.7 9.4 20.18 16.14 42.54m-15.6-45l-1.49.22a17.87 17.87 0 01-1.05-3.47m17.68 19.05c4.62 1.1 10.64.63 14.17-2.12m15.97-25.64a42.4 42.4 0 01.6 6.88m-12.16 55.38c-.87.23-3.06.94-3.06.94m3.62 1.36c-.71-.52-1.92-1.12-2.31-1.78m2.74 8.1l-2.19.65"/><path class="cls-16" d="M206.14 270.33l-20.32 5.97m24.74-3.54l-26.89 7.91m50.36 3.01l-27.47 9.68m27.47-7.53l-27.47 9.68m0-2.15v2.15"/><path class="cls-15" d="M234.03 283.68v2.15"/><path class="cls-16" d="M206.14 270.33l27.89 13.35m-50.73-2.91l23.26 12.47m-25.47-11.38l25.47 13.65"/><ellipse class="cls-15" cx="195.71" cy="275.28" rx=".48" ry=".11" transform="rotate(-14.75 195.782 275.339)"/><path class="cls-15" d="M274.42 170.34s-3.35-6.88-1-14.23c2.82-8.87 12.17-10.64 17.18-9.07s8.83 7.73 8.83 7.73a28.11 28.11 0 01-7.12 2.68 49.68 49.68 0 01-11 .53 16.72 16.72 0 01-.55 6.17c-.92 2.41-2.55 5.24-2.36 9.39.17 3.73 3 9.7 5.23 12.42s5 1.52 7.2.61 6.49-.85 9.33-.3a2.86 2.86 0 002.9-.92"/><path class="cls-15" d="M277.31 179.48c.35 2.58-2.15 1.86-3.18.58s-3.14-4.67-2.53-7.92 3.36-2.68 4.11.48"/><path class="cls-15" d="M277.3 180.35c.19 2.46.62 6.36 2.22 8.66s8.15 7.74 11.2 8.55 5.36.37 6.34-.49 4.48-5.94 5.31-8.87a41.34 41.34 0 001.26-9.5c.07-2.88-.46-4.91-.21-7.15.43-3.86-1.15-12.78-4.39-16.55"/><path class="cls-15" d="M294.68 173.54a42.48 42.48 0 014.22 8.64c.37 1.52-3.16 1.92-6.58 1.4m-8.78-10.44a30.21 30.21 0 017.18-1m6.8-.73a13.88 13.88 0 015.34 0m-11.42 17.28a8.59 8.59 0 007.2-.49m-4.57 3.56a3.61 3.61 0 002.91-.16M279 188.2a62.77 62.77 0 01.34 7.21m-.64-7.93c-.29 5.14-.41 11.74 10.15 20.47m0 .05c3.3-2 10.07-6.29 12.8-17.92"/><path class="cls-15" d="M277.94 185c-2.06 3.57-4.9 7-5.13 19.24 0 0 6-7.59 13.78 1.72m16.51-21.22c1.79 5.16 3.69 11.18 3.11 19.91 0 0-6.35-7.41-12.5-.23m-47.02 74.67l-2.64-40.22 73.24 1.76-.64 40.64-69.96-2.18z"/><path class="cls-15" d="M316.65 281.27l4.5-17.56h-4.22"/><ellipse class="cls-15" cx="281.22" cy="259.17" rx="2.53" ry="2.81"/><path class="cls-15" d="M303.64 186.31c3.78.43 15.15 2.77 19.28 4.59s5.51 3.17 7.18 7.69a90.84 90.84 0 015.73 27.75c.52 12-1.32 24.85-3.9 28.81-1.78 2.73-7.67 1.9-14.9 2"/><path class="cls-15" d="M320.58 212c-1.14 5.39-2.08 20.13-2.08 28a17.26 17.26 0 01-3.74.61m3.74-.61c6.31-2.46 9.89-.25 11.61 1.48s-4.24-.47-6-.87m-5.61-.61c3.84 1.09 8.26 4.63 9.55 7.62m-1.58-54.75a25.87 25.87 0 00-4.47 8.8m-45.09-14.94c-5.08 1.52-17.74 6.11-21.72 9.56s-9.11 14.61-10.68 18.78-9.18 24.45-9.87 31.88c-.47 5.12.69 8.18 10.61 10.21m14.99-42.85c1.68 5.85 2.12 9.68 2.64 25m-1.22-18.71a125.22 125.22 0 00-6.78 18.53m.31-42.84a42.86 42.86 0 013.27 10.14m-12.97 77.25l47.82 3.08-5.81 16.38-52-3.91 9.99-15.55zm-83.63 11.39a58.16 58.16 0 0016 6.17c5.74 1.21 14.22 2.37 17.72 4.78L173.4 319s-6.54-2.3-12.74-4.54-18.14-5.51-22-7.57zm13.67 39.86l52.91 12.86v5.57M161.82 345l54.78 13.31m11.84-10.52l-24.14 21.45m-28.78-34.31l-27.62 20.3m80.56-1.92l-23.26 20.8m-57.3-18.88c1.92.48 3.89 3.74.11 4.73m56.29 9.28c2.6.78 2.81 2.66.9 4.87m-36.52-8.64v-2a2.77 2.77 0 011-2.13l1.27-1.09L178 362l-1.28 1.08a2.82 2.82 0 00-1 2.13v2zm8.68-2.92l26.94 6.69m-56.4-14.01l22.37 5.56m5.47 6.03l29.46 7.29m-57.19-14.15l20.67 5.11M421.52 194.4a15.36 15.36 0 0111.59-.31s.09 4.85-1.8 6.37-6.13 1-7.7-.32c-2.09-1.75-2.09-5.74-2.09-5.74zm-15.92.42a15.07 15.07 0 0111.36-.31s.09 4.75-1.77 6.24-6 1-7.53-.3c-2.06-1.72-2.06-5.63-2.06-5.63zm11.4.24a7.4 7.4 0 014.61.2m-4.24.68c-.38 1.72-1.42 7.25-1.11 8.25s3.71.84 5.78.21m-6.3 3.92a29.23 29.23 0 0010.68-.42"/><path class="cls-15" d="M416.41 208.44c.31.66 1.62 2.56 2.83 2.77a9.36 9.36 0 003.62 0c1.2-.22 2.66-2.08 3.32-3.27m-6.36 5.37a4.7 4.7 0 002.73 0m1.18-21.92a18.05 18.05 0 018-.23m-15.85.59a15.33 15.33 0 00-7 .12m-1.23-12.56a72.85 72.85 0 00-.39 14.87"/><path class="cls-15" d="M408.43 200.93c.65 3.31 3.94 12.38 6.93 15.71 2.26 2.52 5.93 2.18 9.34 1.19a19.89 19.89 0 009-6.16 15 15 0 003.36-8.19m1.75-6.23a107.6 107.6 0 00.45 11"/><path class="cls-15" d="M439.34 193.11c.46-2.65 1.14-4.89 2.65-5.4 2.11-.7 2.23 1.84 1.72 4.16a26.49 26.49 0 01-2.13 6.58c-1 1.64-2.77 2-2.77.48m-33.2-3.81l-1.01.06m28.51-.62h1.46m0 0a19.94 19.94 0 016-5.47"/><path class="cls-15" d="M406.68 180c1.18-.74 3.39-3 5.51-2.64s1.67 1.41 4.45 1.1 3.1-.95 6.49-.16 5.28-.22 7.86.44 4.51 1.78 4.76 3.42-1.06 2.68-.51 4.86 1.81 1.68 2.06 3.63.37 3.1.37 3.1l1.67-.63"/><path class="cls-15" d="M406.09 194.6c-.46-3.11-.79-7.7-1.09-10.94-.35-3.75-.12-6.68.9-8.34.75-1.22 4.14-6.39 9.77-8.65s14.42-2.37 20.2 1.84 5.89 8.45 6.08 10.37.21 5.9.53 8.72m-28.85-9.75c-1-2.22-1.06-5.66 8.95-9.68m-2.5 9.75c-.94-1.89-1.06-5.42 6.95-8.11m-.95 8.8c-1.12-1.8.66-3.84 7.46-5.82m7.32 32.11s1.62 2.44-23 27.18m-4.66-18.67c-.17 4.78 2.06 12.82 4.7 18.67m-3.48-16.65a22 22 0 010 6.54m24.52-18.15c2 .08 3.61 2.57 4.3 10.52"/><path class="cls-15" d="M424.76 225.05c1.58-2 5.18-3.74 3.38 6.4 0 0 11.36-11.42 14.68-15.38m-31.13-5.72c-1.84 2.73-3.37 9.81-1 19.49 0 0 2.23-12.75 4.85-4.06m-5.29-18.97c-3.94.71-9.39 1.05-12.89 2.6s-9 8.09-14.87 14.52-16.36 18.25-18.71 20.55-6.48 6.67-7.06 11a16.25 16.25 0 007.12 15.52m0 0c-1.32-4.76-.4-11.42 13.77-6.38"/><path class="cls-15" d="M377.61 264.61c-2.06-2.74-3.83-6.4-8-6.84-2.93-.32-12.12.6-11.4 6.84m17.28-2.96a14.76 14.76 0 00-5.49-12.41m5.31 8.84c4.46-3.5 15.19-12.87 17.14-14.08m10.44 44.14c-4.24-1.62-6.28-5.72-8.69-8.71s-4-4.53-5.22-4.93-6.2-1.44-8.33-1.21-3.21 1.19-4.64 2.32a11.25 11.25 0 00-3.21 3.88c-.35 1-.61 1.71 0 2.52a3 3 0 00.77.56"/><path class="cls-15" d="M389.9 277.71c-1.67-.34-5.08-1.63-6.47-2.1s-3.41-.66-4.67.44a52.45 52.45 0 00-4.48 3.9c-.86 1-1.4 4.42 1.17 4.48h.46"/><path class="cls-15" d="M389 281.78a32.8 32.8 0 00-6.42-2.46 4.3 4.3 0 00-4.14 1.6c-1.09 1.32-3.44 3.16-2.41 5.28a2.77 2.77 0 003.5 1.55l1.5-.2"/><path class="cls-15" d="M379.62 287c.12-1.2 1.67-2 3.33-1.78a8.82 8.82 0 012.81.87 6.69 6.69 0 00-2.81.39c-.92.52-1.95.81-2.58 2s-.7 2.59.65 3.33a3.2 3.2 0 002.86.4l-.45-1a7.52 7.52 0 014.34 1.23s3.15 6.51 17.7 8m-4.1-13.74c1.71.59 6.15 8 3.77 14.83m1.69-14.83h-5.46m3.77 14.83a89.68 89.68 0 0010.12.47m-37.78-37.43c2.46.77 5.11 1.76 5.95 2.46 1.24 1 2.72 3.25 4.38 7.15m-4.49-.79l-2.3-3.89m-5.46 1.04l2.35 3.66m-2.84 2.23s-3-3.66-3.83-3.37 1.12 4.19 1.86 5.8m-9.68-10.33a6.53 6.53 0 003.17 3.78c1.9 1 2.27 5.94 5.28 9.47a2.13 2.13 0 001.18.47m17.19-52.41c1.66 6 3.38 21.65 4.12 45.94m10.27 7.99c-.93-1.79 1.2-4.09 2.82-1.9 1.8 2.44 2.6 4.5 1.6 5.2s-3.53-1.59-4.42-3.3zm2.68-4.05c-1.37-2.45.93-4.75 2.82-2.67s4.34 6 3.16 6.95c-1.63 1.33-5.98-4.28-5.98-4.28zm3.69-3.79c-2.46-2.87.7-5.92 3.44-2.6s5.22 7 3.53 8.3c-2.1 1.63-6.97-5.7-6.97-5.7zm9.36-4.93c-2-2.89-5.64-1.83-3.52 2.64s4.6 6 5.72 5.12-.26-4.96-2.2-7.76zm-5.9 2.33a2.08 2.08 0 012-.66m-6.63 4.09a1 1 0 011.19-.83m-4.31 5.25c0-.64.58-1.09.93-1.05"/><path class="cls-15" d="M442.63 336c-1.73-3.94-9.63-21.44-11-25.57a44.87 44.87 0 01-2.14-13.92c.11-3.41 1.36-7.31 1.66-10.18a32.53 32.53 0 00-1.09-10 25.5 25.5 0 01-1.2-5.8c-.12-1.59-.52-2.72-1.57-2.49s-1.8 1.82-1.93 5 1.62 8.79 1.62 8.79c-.59-1.61-1.75-6.3-2.06-7.35a4.56 4.56 0 00-1.58-2.63c-.83-.55-2.21-.84-2.62-.38"/><path class="cls-15" d="M430.29 277.17a16.72 16.72 0 013 7.23c.43 3 .49 5.48 2 7.54s10.87 10.26 13.08 12.24m-17.43 3.96c1.66 2.26 6.91 8.95 8.77 10.79"/><path class="cls-15" d="M447.58 302.3c1.35 1.32 1.66 6.35-.86 10.82a12.5 12.5 0 01-8.9 6.23c-1.81.11-3.78-.85-2.17-5.16m.49 4.81c2.9 1.41 12.81 10.86 14.72 8.4m-3.28-25.1c1.17.79 6.23 4.76 6.23 4.76m-47.1-20.75a48.64 48.64 0 004.31 9.34c1.52 2.23 3.5 4.4 4.53 7 2 5.16 5.19 16.07 7 21.63 1.27 3.95 5.69 16.77 7.84 21.73m2.33-64.14c2-1 9.85-5 10.75-4.85 2.72.44 7.09 1.91 9 4.85m-4.65-17.24c-.51 3.39-2.37 10.06-4.81 12.37m.6-.66c4.35-.93 9.31-.09 11.83 3.09m7.14-84.31a6.11 6.11 0 00-5.48-.33 3.62 3.62 0 01-3.21.47c-1.3-.2-2.37-.2-3.33.87s-1.22 1.19-2.41 1.12a1.92 1.92 0 00-2 1.6c-.36 1.57-2.05 1.41-2.51 3.75 0 0 3.75-3.33 6.24-2.45 0 0-.84.63-.8 1.23s-.72.87-1.65 1a1.33 1.33 0 00-1 1.6c.11.77-.92.27-1.46 1.08a4.32 4.32 0 00-.8 3.54s1-2.09 2.22-2 1.68.95 2.45.5 1.3.34.61 1.18-2.1.36-3.1 1.43-1.38 1.86-1.19 2.93-1.83.69-2.29 2.41.69 1.61 0 2.61-2.07.88-2.22 2.45.73 1.49.38 3.21-.27 3.1.65 3.94c0 0-.07-2.79.88-3.56a1.81 1.81 0 00.69-2.37 1.31 1.31 0 011.11-1.72c.69-.16 2-.88 2.14-1.76s1.34-2.32 2.22-2c1.34.5-.34 5-1.22 5.93s-2.3 3.4-1.49 5.39c0 0 .53-2.37 2.22-2.64a2.29 2.29 0 002.06-1.64 2.63 2.63 0 012-2.07c1.07-.23 1.61-2 2.07-1.22s-1.15 2.56-.77 3.44 1.3-.95 2-.11 0 1.49-.27 2.52-1 2.6-.61 3.91a8.49 8.49 0 012-2.53c.88-.46 1.49-.8 1.8-1.8s3.67-2.1 3.86-1-1.07 1.6-.76 3 1.22 1.68.78 3.18-1.09 1.8-.52 3.06-.42 2.45-.76 3.59 1.22 1.08.57 3.07-1 4.13 0 6.16c0 0 .62-2.76 1.34-3.33s1.15-2.43 1-3.84.95-3.05 1.6-3.13 2.11-1.87 1.46-3.17.84-3.1 1.34-1.15.65 2.87 0 4.17-1.92 1.53-1.42 3.94-2.26 3.22-1.76 5.17 1 2.18.73 3.71a6.59 6.59 0 001.68 4.93s-.15-2.83.23-3.29a6 6 0 00.46-3.94c-.38-1.49.27-3.1 1-3.33a2.23 2.23 0 001.34-2.29 10.89 10.89 0 01-.39 5c-.88 2.22.81 2.52.85 3.63s-1.23 1.5-.2 3.72-.19 5.08 2.15 7.3c0 0-.69-3.67 0-4.55a3.44 3.44 0 00.88-3.25 1.9 1.9 0 011-2.37 2.7 2.7 0 00.54-2.84c-.38-1.18 1.11-1.68 1.34-.11s-.46 3.14.69 4.48 1.26 2.6.76 3.48a2.51 2.51 0 00.28 3c.83.81 1.9 2.18 1.83 3.33a10.26 10.26 0 00.46-4.17c-.35-1.72 0-4 1.49-4.82a7.37 7.37 0 011.49 4.06 6.3 6.3 0 001.49 4.4 4.48 4.48 0 011 3.75 8.2 8.2 0 001.61-4.4c0-2.26.19-3.52 1-4.14s1.3 2 1.23 3.26a7.62 7.62 0 001.53 4.7 2.59 2.59 0 010 3.45s1.87 0 1.87-2.34-.23-2.68-.69-3.4-.46-2 .46-1.65.88 1.68 1.88 1.53 1.38.9 1.14 2.34c-.34 2.06.92 3.52.73 5.16 0 0 1.34-3.25 1.07-5.16-.2-1.45-.13-3.62.52-3.24s1 1.67 1.05 2.81 1.69 1.84 1.69 3 .88 1.87.49 3.06c0 0 1.65-2.49 1.11-4.59s-.27-3 .42-2.95 1.11 1.19 1.07 2.3a6.86 6.86 0 00.58 3.44 3 3 0 01.3 2.87 2.19 2.19 0 001.5-1.91c.19-1.57.23-2 .8-2.41a1.83 1.83 0 00.73-2.3 3.92 3.92 0 011.22 2.72s1-2 .61-3.33-.68-2.11-.11-2.95a2.89 2.89 0 00.61-2.68c-.27-1.3.81-1.72 1.23-.65s-.08 2.37.49 3.71-.07 1.38-.19 2.91 1 1.76.65 3.41a5.36 5.36 0 001.19-3.48c-.12-2-.31-3.07.42-4.18s.92-1.33.38-3-.46-2.6.31-3.67a4.16 4.16 0 00.73-3.45s1 3.91.72 5.59a4.44 4.44 0 001.38 4.09s-.5-2.25 0-3.25a4.52 4.52 0 00.46-3.86c-.5-2.15-.58-2.38.21-3.56a2.32 2.32 0 00.4-2.79 2.93 2.93 0 010-3.14 3.81 3.81 0 00-.08-3.29 4 4 0 011.65 2.68c.11 1.64-.19 2 .5 3.52s.88 2.1.3 3.32a3.15 3.15 0 001.26-2.52c0-1.72-.76-2.91-.42-3.87s.73-1 .12-2.6-1.61-2.37-1.11-4.28 1.38-2.3.76-3.87a4.26 4.26 0 01.08-3.48 6.15 6.15 0 011.95 3.48c.19 2-.8 2.72-.5 4.44s1.38 2.79.88 4.82a8.28 8.28 0 001.19-4.47c-.19-2.3-.15-3.64.23-4.56a6.3 6.3 0 00-.76-4.55c-.88-1.49 0-2.11 0-3.25s-1.14-1.15-1.22-3 .69-1.91.57-3.79a4.26 4.26 0 00-2.29-3.52c-.84-.34.8-1.95-.16-3.44s-2.9-1.95-3.44-3.1.38-2.83-.42-4.28a4.64 4.64 0 00-3.21-2.57c-1.42-.3-1-1.61-1.38-2.49a2.74 2.74 0 00-2.45-1.22c-.84 0-.31-.84-1.49-1.38s-2.3-.57-2.34-1.49a1.53 1.53 0 00-1.91-1.57 1.84 1.84 0 01-2.37-1 2.55 2.55 0 00-2.6-1.34c-1 .15-1.34.86-2.49 0s-1.49-1.12-2.95-.93-2.14.49-2.75-.06-1.8 0-2.3.37-1.26-2.37-3.67-2-2.37.88-4.17.34-2.45-.84-3.56-.19-.69 1.42-1.42 2-1.6-1.15-3.1-.81-1.41 1.69-2.87 2.11-1.87-.85-3.55-.42-1.69 2-3.37 2.18-2.68-.27-4 1.37"/><path class="cls-15" d="M448.27 224.52a43.51 43.51 0 000 8.15c.17 2.85-2.07 6-3 7.12s-3.56 4.71-3.52 5.82 3.83 2.18 5.59 2.22"/><path class="cls-15" d="M446.13 247.69c-.27.6-1.88 3.39-1.73 4.19s2.14 1.42 3.1 1.84 2.37.76 2.33 1.07-3.36 2.33-3.74 2.87-.2 1.42.84 1.72.95 1.91.76 2.72-.5 3.37 1.83 3.86 8.5-.71 10.51-1.2 3.81-.68 5.07-.17c.81.32 5.45 2.49 6.28 18.78"/><path class="cls-15" d="M468.83 269.28a95.64 95.64 0 00-8.89 18.19c-2.32 6.2-5.22 15-5.81 18.64"/><path class="cls-15" d="M468.7 276.76c-2.12 3.19-10 17.48-12.28 23.33s-4.88 12.23-5.44 20.55c-.52 7.74.13 13 2.49 19.19"/><path class="cls-15" d="M471 278.74a48.93 48.93 0 00-6.26 13.43c-1.84 6.72-1 12.46 5 2.76 5.69-9.16 15-16.75 17.68-19 3.86-3.31 10.09-8.06 14-9.37m6.23-.21c1.38 4.15 5.53 14.23 6.91 19.17s4.59 15.84 5.51 23.87.28 31-.46 38.86-1.09 35.7-.69 41.95"/><path class="cls-15" d="M477.71 304.18c4.82-3.45 16-9.42 26.11-5.41 9.06 3.61 10.91 10.85 10.68 18.43m-14.75-40.98S501 293 501.38 298m-27.97 18.45c-4.77 5.8-22.62 27.12-23.71 27.09-.86 0-5.28-7-5.85-7.94m0 0c-4.71 1.34-13.84 8.23-15.27 14.26"/><path class="cls-15" d="M446.83 352.55c-.26 2.3-1.4 10.74-2.15 5.05s2.61-12.11 5-14.06m.02 0c-.92 2.24-1.38 7.38.63 14.75"/><path class="cls-15" d="M428.58 349.86c2.18 3 11.05 13.63 13.36 16 2.77 2.86 5.2 4.19 8.08 4.62 3.05.46 7-1.12 11.27-3.47 3.24-1.8 15.66-10.71 20.9-14.58 3.88-2.87 24.85-20.61 29.1-24.51m-58.66 42.53c-.63 2.82-2.3 18-3 27m47.72-57.51c5.36-.7 11.56-2.46 15.77-5.91m-64.91-100.17a3 3 0 01-2.53-.86m4.02 1.52a2.93 2.93 0 002.07 1.21 3.36 3.36 0 012.12 1m-3.74-6.42a9.78 9.78 0 016.68 2.91"/><path class="cls-16" d="M343.39 265.77l-13.17 7.49 10.2 3.04 12.95-7.77-9.98-2.76z"/><path class="cls-16" d="M330.22 273.26v1.66l10.2 3.21 12.95-7.59v-2.01m7.73 25.06c-2.25-2.79-10.71-10.52-26.74-10.22l4.59-1.55"/><path class="cls-16" d="M360.61 294.28l-28.78-11.17 3.4-1.22"/><path class="cls-15" d="M368.72 359.44l-20.09-48.56 20.66-28.63 16.24 44.25m0 0l39.46 5.11"/><path class="cls-16" d="M409.09 338.42l2.96.38m-4.02 1.69l2.96.38"/><path class="cls-15" d="M385.53 331.05l-12.6 24.68"/><path class="cls-16" d="M416.58 341.67l-5.96 11.7m18.43-2.88l-2.83 5.55m-36.82-25.55l-13.38 26.2m16.33-25.82l-13.43 26.32m16.04-25.98l-13.48 26.42m16.44-26.04l-13.54 26.54m16.15-26.2l-13.6 26.63m16.56-26.25l-13.66 26.75m16.27-26.41l-13.71 26.85m16.66-26.46L395.29 360"/><path class="cls-15" d="M383.43 328.45l-12.61 24.69m12.61-24.69l2.1 2.6m-14.71 22.09l2.11 2.59m-1.42-1.75l-2.79 5.46m16.81-32.94l-1.42 2.79m-15.39 30.15l57.97 9.93"/><path class="cls-16" d="M410.62 353.37l15.6 2.67"/><path class="cls-15" d="M368.72 362.06l57.97 9.93m-57.97-12.55v2.62m57.97 7.31v2.62m0-2.62l5.09-15.42m-5.09 18.04l5.71-17.29m-56.38 1.99l2.9.5m10.48-26.7l2.95.38m2.61.34l2.96.38m2.61.34l2.96.38m2.61.34l2.95.39m2.61.33l2.96.39m-33.14 23.87l2.9.5m2.55.43l2.9.5m2.56.44l2.9.5m2.56.43l2.9.5"/><path class="cls-16" d="M401.05 354.17l2.9.49m-1.9-2.46l2.9.5m9.67-18.94l-2.57 5.04m-1.06 2.07l-6.04 11.83m-1 1.96l-3.2 6.27m10.91-27.56l-2.57 5.05m-1.06 2.07l-5.98 11.71m-1 1.97l-3.2 6.26m18.73-18.76l12.67 1.65"/><path class="cls-15" d="M383.43 364.58l-39.66-1.23-1.46 35.81 92.43 4.49-9.06-31.72-.03-.12m-125.81-72.92l33.35-5.48 16.93 10.41-35.41 8.27-14.87-13.2z"/><ellipse class="cls-15" cx="318.95" cy="336.8" rx="11.07" ry="4.33"/><path class="cls-15" d="M325 354.43c0 1.31-2.7 2.37-6 2.37s-6-1.06-6-2.37m-4.95-16.85l4.96 17.29m17.01-18.07l-5.14 18.07m3.25-11.43c2.75-2.44 6.07-2.3 6.34.3s-3.47 4.16-4.47 4.54-3.19 1-4 2.57m45.22-63.35l4.59-2.46"/><path class="cls-16" d="M375.28 298.56c2.28.24 8.76 3 11.69 5.32l11.48-4.74"/><path class="cls-16" d="M376 300.63c2.23.27 8.95 3.65 10.58 5.4l14.5-6.25"/><path class="cls-15" d="M104.1 244.37c4.08 4.31 8.44 12.52 10.07 17.16 1.71 4.87 2.69 8 2.69 8s6.55 5.43 8 8.17c1.1 2-3.85 4.21-3.83 4.77s3 4.45 2.73 5.62-5.05 2.08-5.3 3 4.92 2.17 4.87 4-2.66 1.73-2.82 3.3c-.12 1.1.64 4.68-.22 6.62s-4.44 3.2-7 3.75c-3.46.77-8.5.43-11 1-3.61.87-7 7.46-8.74 11.8m19.92-61.21a11.67 11.67 0 00-6 6.41"/><path class="cls-15" d="M103.06 242.11c1.17.48 1.6 1.8.46 3.44a13.88 13.88 0 00-2.7 6.77c-.31 3-1.85 7.06-3.82 9s-3.93 3.8-4.21 7.07a46.06 46.06 0 00.58 10.35l-3.82 1.9"/><path class="cls-15" d="M90.26 281.3c-2.54-2.42-4.7-3.71-7.14-3.3s-4.46 4-2.36 7.78 4.87 5 7.35 8c1.81 2.19 4.49 1.68 4.83-.08a10.58 10.58 0 00-.6-4.76"/><path class="cls-15" d="M79.89 282.27c-1.58.59-3 4.69-3.17 7.15s-3 6.65-6.49 7.62-14.57 2-16.91 1.64-3.4-.63-3.82-2.16c0 0-3-1.39-3.06-4.22 0 0-4.16-.51-4.29-5.53 0 0-3.19-1.3-2.44-4a6.58 6.58 0 01-3.48-7.3s-3.39-1.78-1.61-6.84c0 0-2.82-5.19.29-9.53 0 0-3.26-3.79.59-7.21 0 0-1.54-5.34 3.11-6.87 0 0-.1-7.14 6.65-6.51 0 0 .55-4.86 5.25-3.74 0 0 .37-4.63 6.26-3.38 0 0 2.46-4.09 8.29-1.69a5.89 5.89 0 017.14-1.07 5.46 5.46 0 017.22.48s3.85-2.57 6.68-.13c0 0 3.44-1.61 4.94 1 0 0 3-.37 3 2 0 0 3.12-1.29 3.73 1.75a2.76 2.76 0 013.45 2.7s4 1.93 1.81 5.64m-50.39 56.5a27 27 0 01-.55 10.5"/><path class="cls-15" d="M45.35 306.27c4.73 3 14.47 4.61 18.83 5.59s16.93 4.77 22.5 6.83c6.2 2.3 15.88 6.54 20 10.22a4 4 0 011.09 3.73c-.29 1.72-.9 5.28-1.79 8.49"/><path class="cls-15" d="M52.67 306.27c-3.16-.29-6.61-1.13-7.47.19s-1.91 4.83-2.49 6.66m3.75 3.88a75.11 75.11 0 0020.44 9.64c7.42 2 16.68 3.9 23.11 6.28s13.69 5.83 19.74 11.25 15 9.87 20.36 15.45 17.07 19.07 22.42 25c14.77 16.45 32.4 26.46 33.4 28.22s4.21 11.88 2.72 19.15"/><path class="cls-15" d="M185.93 412.84c3.71-.75 27.4-14.37 30.9-16.44s11.69-7.19 12.3-7.57"/><path class="cls-15" d="M243.52 405.43c-2.37 3.45-8.8 11.18-9.64 11.71a2.15 2.15 0 01-1.53.38s-20.59 17.76-25.1 21.51-10.12 8.9-15.62 10c-6.5 1.31-16.66.13-24.48-2-11.64-3.13-34.82-12.14-41.64-14.92-5-2-39.25-16.91-43.54-18.67"/><path class="cls-15" d="M186.61 412.64c4.75 2.24 8 8.6 8.58 16.32s-2.9-4.4-4.21-6.39m38.15-33.74c7.2.86 13.59 10.17 14.39 16.6m-23-7.25c5.28 2.65 10.56 8.21 11.77 18"/><path class="cls-15" d="M230.65 389.14c2.61-1.06 9.16-6.62 10.53-8.09a70.76 70.76 0 017.84-7.58c2.58-1.92 7.45-4.56 10.63-5.13 1.87-.34 11.82-1.76 14.1 0"/><path class="cls-15" d="M260.83 371.49c1.88-.58 5.95-2.06 7.73-2.58a32.61 32.61 0 017.18-.57c1.95 0 4.58 0 4.78.8.26 1.08-.92 2.09-3.08 2.35-.82.11-5.78.94-7.48 1.48a22.31 22.31 0 00-4.54 2.6"/><path class="cls-15" d="M265.42 375.57c2-.21 4.8-1.49 6.54-1.91a37 37 0 015.56-.73 46 46 0 015.42-.35 1.27 1.27 0 01.89 2c-.54 1-2.46 1.67-3.81 2.1s-4.75.81-6 1.38a29.07 29.07 0 00-4.27 2c-.69.52-.66 1.47 1.75 1s6-1.39 7.43-1.71c1.61-.37 4.48-1.15 5.25-.83s.74 1.4 0 2a24.59 24.59 0 01-6 2.68c-1 .34-5.51 1.46-6.89 2.06s-3.32 4.23-8.7 7.23c-6.48 3.62-12.78 3.49-14.8 4.16s-5.56 4.2-5.56 4.2m5.77-51.02c-3.62 3.87-16.91 15.89-22.5 20.63s-21.74 18.37-21.74 18.37l16.4 5.59m62.75-15.94a157.07 157.07 0 0013.34-16.74"/><path class="cls-15" d="M242.7 402.11c2 1.3 9.24 3.17 12.72 4.36 0 0 11.84-11 23.43-23.53M248 349.83c5.11 2.64 17.55 6.57 24.91 8.48 7.92 2.05 16.18 3.71 23.38 3.43m-170.5-5.94c-6.05-2-32.31 4.43-34.52 52.31M102 422.08c-13.34-1.69-21.09-.54-28.55 1.53s-7.26 4.76 3.21 3.9c9.21-.75 13.54-2.51 13.54-2.51m32.52 6c.92 7.22.57 28.91 0 35.34M42.71 313.12c-4.42 1.44-12.2 2.13-18.42 10.16-6 7.76-8.75 25.92-9.7 36.05-1.64 17.46-4.44 52.07-2 81.92M130 275.74c0 1.42.07 3.39 0 4.74m316.93 89.11a85.29 85.29 0 01-17 17.29m-42.68-113.97c6.53 2.51 12.7 5.21 18.46 8.1m-80.04-23.85c11.21 1.7 22 3.87 32.14 6.47m-136.36-8.13c5.07-.59 10.23-1.09 15.45-1.48m-114.66 30.53q6.77-3.76 14.37-7.17m268.55 124.84c-34.52 17.15-83.5 27.85-137.83 27.85a397.86 397.86 0 01-46.44-2.68"/><path class="cls-15" d="M419.28 402.9c-34.51 21.69-89.72 35.74-151.95 35.74a392.65 392.65 0 01-55.12-3.82m239.35-64.26c-4.19 8.27-10.86 16.09-19.62 23.29m-254.53-177.7a145.45 145.45 0 011.27 14.85 192.33 192.33 0 01-1.32 28.32"/><path class="cls-16" d="M365.61 271.67L334.05 282s19-2.52 27.63 10.79"/><path class="cls-15" d="M503.09 265.94c.48-.17 1.4-.41 1.4-.41m-321.2-49.23l3.92.34a199.33 199.33 0 01-2.8 40.71m-1.7-53.2c1.34 2.87 3.78 8.32 4 9.74l-3.53 2m259.33-6.81c1.08.5 3.2 1.43 3.2 1.43M442.63 299a41.33 41.33 0 0015.37-6M275.71 172.62a43.65 43.65 0 011.6 6.86"/></g></svg>