<svg xmlns="http://www.w3.org/2000/svg" viewBox="0 0 55.58 54.99"><g data-name="Capa 2"><g data-name="Layer 1"><g data-name="Group 5350"><path data-name="Path 2915" d="M25.22 1.7c-.16.36-.81.24-1.32.26.1-.45.86-.19 1.32-.26zm8.86-.7c-.46 0-1.14-.53-1.34-.11.5.12 1.08.42 1.34.12zm-8 .12c-.4-.12-1.18-.22-1.37.4.53-.31.95.08 1.32-.39zm4.75.39a6 6 0 00-3.56.4c.08.07.63.3.66 0-.65-.06.42-.25.66-.27-.1.55 2 .26 2.24-.12zm-16.27 6.4c0-.36.43-.35.52-.65-.39.02-1.08.47-.52.65zM46 24.61a13.78 13.78 0 00.26 3 7.41 7.41 0 00-.26-3zM22 2.18c.86-.29 1.77-.52 2.64-.79a4.3 4.3 0 00-2.7.79zm6.33.13c-1.11-.1-1.73.28-2.77.26-.41.37-1.28.29-1.71.65 1.47-.22 2.81-.72 4.42-.91zM10.2 9.74c0 .2-.56.55-.26.65a24.94 24.94 0 017.52-6.26 19.88 19.88 0 00-8.31 6.65 4.71 4.71 0 011.05-1.04zm33.9-3.26c.59.33 1.46 1.09.8.52-.06 0-.41-.72-.8-.52zM8.89 9.22c.9-.14 1.34-1.71 1.68-2.12a6.94 6.94 0 00-1 1.07v-.39c-.62 0-.6.71-.92 1 .43-.07.42.22.24.44zm1.68-2.12l.16-.1c-.05 0-.1 0-.16.1zm2.8 1.73c0-.45 1.05-.6.66-1-.03.43-1.03.57-.66 1zm8 .52c-.51 0-.66.65-.92.13-.23.26.1.25-.13.52a2.18 2.18 0 001.09-.65zM10.6 11.44c.25-.5 1.16-1 1.05-1.44-.39.35-1.1 1.08-1.05 1.44zm-2.24.39c-.25.4-1 1.05-.79 1.43.23-.43.9-1.1.79-1.43zm-2.25 5.86c.28-1 1.2-2.11 1.32-2.86-.44.86-1.3 2-1.32 2.86zm2-2c-.1.46-.88.94-.52 1.43 0-.54.72-1.11.52-1.43zm35.35 2.87c0-.38-.52-.92-.4-.66s.51 1.41.4.66zm.13.78c.49.64.52 1.75 1.06 2.35-.32-.69-.58-2.18-1.08-2.3zm-.52 18.39a18.82 18.82 0 002.1-13c.35.07.48-.06.4-.39-.78-.28-.48-1.62-.92-2.22v.39c2 7.12-.51 14.86-4.48 18.52 1.13-.5 1.9-1.58 2.88-3.25zm-30.6-3.39c.18.42.49 1.42.92 1.17-.49-.18-.51-.85-.94-1.12zM14 37.25c0 .4.62.86.79.66-.35-.14-.44-.52-.79-.65zm26.51 3.92a3.4 3.4 0 00-1.72 1.43A2.49 2.49 0 0140 42c-.43-.35.49-.47.53-.78zm-1.32 1.3c-.15.38-1.2.54-.92.91.14-.38 1.28-.46.92-.91zm-7.78 8.21c.43-.06 1.32-.33 1.18-.52-.48.19-.89 0-1.18.53zM27.88 1c0-.2 0-.45.26-.39s-.16.2.13.39c1.29-.42 2.21 0 3.56-.26-.64-.05-.67-.11-.4-.52a5.22 5.22 0 00-4.74.91c.39-.05.96-.32 1.19-.13zm-14 38v.08l.14.11zm1.53 1.66c.2.36.63 1 1 1a2.15 2.15 0 00-1-1zm19.33 10.17c-.07 0-.13.05-.13.12l.14-.12zm19.78-14c-.67 1.25-.87 3-2 3.79 0 .26.36.16.27.52a26.33 26.33 0 01-4.62 6.13c.89.28-1.42 1.18-1.58 2.08a1 1 0 00-.79 0c-.3 1.32-2.17 1.08-2.51 2.35-3 1.38-5.54 2.66-9.5 3.26 3-1.17 6.45-1.89 8.7-3.78-.16-.28-.54.32-.92.26-1.37.53-3 1.72-5.15 2.25 2.8-1.67 5.9-3 8.05-5.35-.75.09-.86.8-1.58.91a28.68 28.68 0 005.93-6.12c-1.47 1.59-3.4 3.85-5.67 5.08.2-.58.92-.66 1.19-1.17-2.47 1.69-4.76 3.55-7.78 4.69 1.4-1 3.16-1.56 4.35-2.74-1.5.43-3.26 1.74-5 2.35-.14-.44 1.14-.61 1.58-.91-1.45 0-2.81 1.21-4.48 1.43A11.83 11.83 0 0135 51c0-.1-.15-.13-.26-.12 1.5-1.32 3.92-2.41 5.75-3.85a8.63 8.63 0 001.1-1A46.08 46.08 0 0137 48.67c.17.09.34 0 .31.15a5 5 0 00-1.37.26h-.13c-1 .3-1.88.71-2.48.5a14.77 14.77 0 002.43-.58c-.12-.16-.54.17-1 .16l.68-.44c-1.24.3-2.31 1-3.83.6-1.54.57-3.54 0-5.19.25.52 0 1.12.32 1.54.12 1.67 1.25 4.09-.38 5.21.32-1.64.32-3.39.35-5 .6.18.14.39 0 .36.16-1.06.29-2.42-.22-3.55-.15 1.31.47 2.89.25 3.93.9a3.18 3.18 0 00-1.47.05c.18.17.66-.12.6.27-1.58 0-3.4-.54-4.91-.33a14.73 14.73 0 004.1.83c1 .08 2.3-.26 2.9.3-.81.07-1.06.66-2 0-.25.82-.78-.27-1 .27.65.36 2.17-.07 2.92.59a7.45 7.45 0 00-2.31 0c1.22.76 2.46.19 3.52.86-1 .28-2.33-.37-3.17.3a10.7 10.7 0 012.71.07c-1.43.42-3.24-.14-4.78 0-.68-.59-1.55-.35-1.54-.11a6 6 0 00-2.85-.42C16.56 53 12 49.72 9.19 47.28c1.81 2.41 5.12 4.18 7.73 5.88a20.76 20.76 0 01-6-3.42.36.36 0 00-.21-.19l.21.19A.31.31 0 0111 50a24.19 24.19 0 01-6.4-7.82 23.91 23.91 0 01-4-8.32.62.62 0 01.16.14A20.35 20.35 0 010 29.6a17.48 17.48 0 010-2.4c.55 3.05.8 6.8 2.29 9.39-1.1-3.52-2.24-9-1.19-14a5.79 5.79 0 00.79-2.74c.21.11.8-.57.53-1.43.76-1.34 1-3.2 2-4.3a11.34 11.34 0 01-1.05 2.49c1-.49.91-2 1.58-2.74.18 1.23-.87 2.11-.66 3.52a7.65 7.65 0 00.92-2.09c.3.94-.72 2.14-.66 2.87.59 0-.2-.89.66-.78-.25-1.14.39-1.12.79-1.83.27.77-.59 1.82-.92 2.74a14.29 14.29 0 00-.92 4c.82-1.28 1-3.16 1.71-4.57.39.11-.08.42 0 .66.37-.29.47-.85.66-1.31.16 1.21-.69 2.54-.79 3.91.53-1 .62-2.42 1.32-3.26.2.06 0 .17 0 .4.92-1.4 1.67-3 2.63-4.3.19 1.3-2.31 2.81-1.84 4.82-.36.3-.36 1-.53 1.43 1-1.36 1.21-3.41 2.37-4.56.28-1.94 2-2.48 2.64-4-.74.26-1.61 1.53-2.24 2.35.07-.95 1.8-2 2.37-3.26.2.05 0 .16 0 .39 2.72-3 7.14-4.44 11.33-6.08-.12-.39-.34.17-.66 0 .33-.32 1.17-.39 1.05-.78 10.06-2.3 19.92 3.6 24.27 9.78.08-.28-.8-2.05-1.05-1.57-1.22-3.51-4.81-5.75-7.92-7.56 1.73.2 4.6 2.52 6.33 2.74-.27-.92-1.25-1.09-2.11-1.7 1-.22 1.75 1.66 2.9 1.3 0 .07.42 1 .66.39a30 30 0 018.31 19.56 28.87 28.87 0 01-1.71 10.7c.39-.14.17-.88.66-.92zM9.29 36.1l.42-.23a3.09 3.09 0 00.91 2.13c0-.15-.2-.34-.15-.49a8.23 8.23 0 01.78 1.31 4.85 4.85 0 01.47.71.22.22 0 01-.11 0A2.64 2.64 0 0013 40.85a12.45 12.45 0 01-1.23-2.12A2.2 2.2 0 0110.64 37 16.89 16.89 0 019 34.39a3.24 3.24 0 00.27 1.71zm1.42.26c-.13.07-.13.2-.06.36a1.93 1.93 0 01.06-.36zm2.92 5.33zm.19-1.36a9.36 9.36 0 00-1.73-1.41c.27.59.54 1.1.82.86.38.24.34.92.91.55zm-13-6.07a.78.78 0 000-.16.25.25 0 000-.07c-.03.06-.01.15.02.23zm8.09 13.32a2.45 2.45 0 00-.75-.91c0 .4.44.63.75.91zM14 42.13l-.28-.36h-.13l-.14.15a3.35 3.35 0 00.55.23zm2.19 4.7c.11-.47-.8-.55-1.21-.83.1.39.68.6 1.21.83zm8.54 3.82c-.08-.44-.7-.12-1-.32.07.44.69.13 1.01.32zm3.84-4.3c.78.07 1.21.43 2 .16.09-.23-.36-.26-.2-.52 1.64-.3 4 .16 4.57-.82a1.39 1.39 0 00.92.14 2.14 2.14 0 01.3-.17 1.28 1.28 0 00.3-.43c.67.35 1-.1 1.54-.24.11-.1.23-.2.33-.31a.23.23 0 00-.16-.06.28.28 0 00-.15 0l-.53.4a3.72 3.72 0 01.37-.3l.15-.1a21.69 21.69 0 008.4-14v-.06c.07-.44.1-.9.14-1.36a2 2 0 000-.25v-1.67c0-.44 0-.89-.09-1.34v-.39c-.06-.59-.14-1.19-.25-1.8a20.17 20.17 0 00-6.33-11.6c-.7.25 0-.26-.66 0a13.84 13.84 0 00-1.85-1.57C31.52 7.09 23.2 9 18.65 12.48c-.23 0-.25-.1-.27-.26-.89 1.63-2.93 2.14-3.56 4-.19 0-.05-.39-.26-.39-.75 1-.93 1.93-1.72 3v.07H13a.61.61 0 010 .11c0 .11-.06.23-.1.35a.21.21 0 010 .07c-.31.92-.87 1.92-1.15 2.92a4.87 4.87 0 00-.12.52 9.66 9.66 0 01.4-2.87c1.12-3.89 4.46-6.83 7.51-8.86.38.3 2.73-1 4-1.7A11.41 11.41 0 0128 7.79c-2-.35-3.68.87-5.15.91 0-.68.18-.58.4-.91-1.17-.08-2.52.8-3.56 1.3a12.38 12.38 0 014.75-2.35c-.29-.56-1 .29-1.58.26 0-.34.51-.19.52-.52-.38 0-.4.3-.79.26.19-.51.91-.49 1.32-.78-5.22.81-9 5-12.13 8.74.13.25.52-.35.66-.53 0 .52-1.49 1.74-1.72 2.87A33.15 33.15 0 0116 10.52c.23.1 0 .24 0 .39.6.12.31-.65.79-.65-.16.89-.93 1.17-1.19 2 .57-.14.5-.9 1.32-.78-.16.75-1.11.72-1 1.69-.78 0-1.05.45-1.06 1.17-1.12.1-1.68 2.43-2.64 3.78-.3.05-.14-.37-.4-.39-.56.56-.4 1.1-.66 1.83-.74-.45-1 2.38-1.58 3.52.46-.54.18.94.13 1.3-.28 0-.06-.46-.13-.65a1.17 1.17 0 00-.26.92c.15 0 .23 0 .26.13.42.06.05-.65.53-.53-.12.23-.17.77.13.4a31.12 31.12 0 00.62 6.35 19.51 19.51 0 01-.92-3.26 10.2 10.2 0 003 8c-.06.19-.11 0-.26 0 .14.43.61.53.79.91a2.29 2.29 0 01-1.72-1c.53 1.61 2.56 2.86 4 4a6.11 6.11 0 01-1.88-.7V39l-.07-.08-.21-.12a8 8 0 01-3-3.44c-.56.35 0 .6.12 1 .5 1.68 2 1.73 3.2 2.75 1.08 2.21 3.79 4 6.59 5a21.81 21.81 0 01-2.63-2.17 31.93 31.93 0 005.62 3.22c-.47.12 0 .3.31.28-.08.49-.59-.14-.7.26.08.07.09.17 0 .29a1.22 1.22 0 00.95.15c-.14-.15-.68-.15-.55-.39.36.11 1.84.47 1.15.65 1.31-.07 4 .89 3.9 0zM40.94 43a6.91 6.91 0 00-2.22 2H39a13 13 0 002-2zm-8.89 3.06c.2.51.87 0 1.25.12-.15-.36-.85 0-1.25-.12zm.08 2c-.63-.33-1.78.2-2.65.1.64.38 1.83-.07 2.65-.1zm1.73-.75l.34-.24c-1.16.24-2.33.43-3.5.64 1 .23 2.52-.43 3.16-.4zm-.56.42a6 6 0 012.14-.15c.63-.44 1.27-.88 1.89-1.33-.71.24-1.43.44-2.15.61a1.87 1.87 0 00-.57.68c-.45-.3.37-.36.39-.64h-.06c-.49.26-1 .47-1.52.75a3.76 3.76 0 01.31-.25c-.27.06-.55.15-.43.3zm10.8-6.06a26.15 26.15 0 01-8.14 6 3.92 3.92 0 01.69.2c2.77-1.77 5.49-3.6 7.45-6.18zm-2.24 9.65c-.08 0-.18 0-.23.08z" fill="#fff" fill-rule="evenodd"/></g></g></g></svg>