<svg xmlns="http://www.w3.org/2000/svg" viewBox="0 0 249.76 68.19"><defs><style>.cls-1{fill:#fff}</style></defs><g id="Capa_2" data-name="Capa 2"><g id="Layer_1" data-name="Layer 1"><g id="Group_5350" data-name="Group 5350"><path id="Path_2911" data-name="Path 2911" class="cls-1" d="M131.27 55.69h-28.12V11.26h28.12v6.37H111v12.68h17.52v6.35H111v12.55h20.3z"/><path id="Path_2912" data-name="Path 2912" class="cls-1" d="M136.45 0l29.87 42.14V11.26h7.79v56.93l-29.94-42.73v30.23h-7.72z"/><path id="Path_2913" data-name="Path 2913" class="cls-1" d="M192.61 56.42a15 15 0 01-5.06-.84 16.41 16.41 0 01-4.37-2.33 18.37 18.37 0 01-3.57-3.53 24.06 24.06 0 01-2.61-4.37l5.46-4.51a14.56 14.56 0 001.64 2.8 27.4 27.4 0 002.51 3 14.92 14.92 0 002.9 2.36 6.07 6.07 0 003.1.95 10.56 10.56 0 003.9-.62 6.73 6.73 0 002.37-1.57 4.83 4.83 0 001.12-1.94 6.37 6.37 0 00.29-1.78 9 9 0 00-.18-1.79 5.58 5.58 0 00-1-2.11 10.25 10.25 0 00-2.44-2.3 22.21 22.21 0 00-4.55-2.33 58.55 58.55 0 01-6.92-3.31 20.47 20.47 0 01-4.2-3.14 9.27 9.27 0 01-2.19-3.2 9.87 9.87 0 01-.62-3.53 12.5 12.5 0 01.77-4.15 10.94 10.94 0 012.47-4 13.3 13.3 0 014.52-3 18.32 18.32 0 017-1.17 15 15 0 019.26 2.74 17.29 17.29 0 015.6 7.68l-6.62 2.11q-2.26-5.75-8.24-5.75a8 8 0 00-4.95 1.32 4 4 0 00-1.6 3.27 3.35 3.35 0 00.85 2.23 9.7 9.7 0 002.29 1.89 24.67 24.67 0 003.46 1.75c1.28.56 2.68 1.15 4.18 1.78a25.55 25.55 0 016 3.5 14 14 0 013.28 3.72 10.76 10.76 0 011.31 3.75 23.12 23.12 0 01.29 3.43 13.19 13.19 0 01-.73 3.93 12.43 12.43 0 01-2.48 4.3 13.65 13.65 0 01-4.74 3.34 18 18 0 01-7.5 1.42z"/><path id="Path_2914" data-name="Path 2914" class="cls-1" d="M241.53 55.69l-5.18-12H220c-.82 1.9-1.69 3.92-2.59 6.09s-1.73 4.14-2.51 5.93h-8.16L228.2 6.6l21.56 49.09zm-7.8-18.5c-.53-1.31-1-2.46-1.42-3.46s-.81-2-1.2-2.95-.81-2-1.27-3.13-1-2.5-1.64-4.15q-1.3 3.27-2.7 6.59c-.92 2.21-1.87 4.57-2.84 7.1z"/><path id="Path_2915" data-name="Path 2915" d="M25.22 5.88c-.16.37-.81.25-1.32.27.1-.46.86-.15 1.32-.27zm8.86-.68c-.46-.06-1.14-.54-1.34-.13.5.13 1.08.43 1.34.13zm-8 .12c-.35-.11-1.13-.24-1.32.39.53-.31.95.08 1.32-.39zm4.75.39a6.12 6.12 0 00-3.56.39c.08.07.63.3.66 0-.65-.06.42-.25.66-.26-.1.55 2 .25 2.24-.13zM14.56 12.1c0-.37.43-.36.52-.65-.39.01-1.08.47-.52.65zM46 28.79a13.72 13.72 0 00.26 3 7.41 7.41 0 00-.26-3zM22 6.36c.86-.28 1.77-.52 2.64-.78a4.29 4.29 0 00-2.7.78zm6.33.13c-1.11-.1-1.73.29-2.77.26-.41.38-1.28.3-1.71.65 1.47-.26 2.81-.72 4.42-.91zM10.2 13.92c0 .2-.56.55-.26.66a24.66 24.66 0 017.52-6.26A19.88 19.88 0 009.15 15a4.55 4.55 0 011.05-1.08zm33.9-3.26c.59.33 1.46 1.09.8.53-.06 0-.41-.72-.8-.53zM8.89 13.4c.9-.14 1.34-1.7 1.68-2.12a6.59 6.59 0 00-1 1.08V12c-.62 0-.6.7-.92 1 .43-.1.42.21.24.4zm1.68-2.12l.16-.1c-.05 0-.1.04-.16.1zm2.8 1.72c0-.44 1.05-.6.66-1-.03.44-1.03.58-.66 1zm8 .52c-.51 0-.66.66-.92.13-.23.27.1.26-.13.53a2.19 2.19 0 001.09-.65zm-10.77 2.1c.25-.49 1.16-1 1.05-1.43-.39.34-1.1 1.07-1.05 1.43zM8.36 16c-.25.41-1 1-.79 1.43.23-.42.9-1.09.79-1.43zm-2.25 5.88c.28-1 1.2-2.11 1.32-2.87-.44.86-1.3 2-1.32 2.87zm2-2c-.1.47-.88.95-.52 1.44 0-.55.72-1.11.52-1.44zm35.35 2.87c0-.37-.52-.92-.4-.65s.51 1.4.4.65zm.13.78c.49.65.52 1.75 1.06 2.35-.32-.71-.58-2.18-1.08-2.31zM43.05 42a18.82 18.82 0 002.1-13c.35.08.48-.05.4-.39-.78-.27-.48-1.61-.92-2.22v.4c2 7.12-.51 14.86-4.48 18.51 1.15-.59 1.92-1.67 2.9-3.3zm-30.6-3.39c.18.43.49 1.42.92 1.18-.47-.27-.49-.95-.92-1.22zM14 41.44c0 .4.62.85.79.65-.35-.13-.44-.52-.79-.65zm26.51 3.91a3.45 3.45 0 00-1.72 1.43 2.49 2.49 0 011.21-.65c-.43-.35.49-.46.53-.78zm-1.32 1.3c-.15.38-1.2.55-.92.92.14-.38 1.28-.46.92-.92zm-7.78 8.22c.43-.06 1.32-.34 1.18-.52-.48.19-.89 0-1.18.52zM27.88 5.19c0-.2 0-.46.26-.39s-.16.2.13.39c1.29-.43 2.21 0 3.56-.27-.64 0-.67-.11-.4-.52a5.22 5.22 0 00-4.74.92c.39-.05.96-.32 1.19-.13zm-14 38a.2.2 0 000 .08l.14.12zm1.53 1.66c.2.37.63 1 1 1a2.18 2.18 0 00-1-1zM34.74 55c-.07 0-.13.05-.13.12l.14-.11zm19.78-14c-.67 1.25-.87 3-2 3.78 0 .26.36.17.27.52a26.12 26.12 0 01-4.62 6.13c.89.28-1.42 1.19-1.58 2.09a.91.91 0 00-.79 0c-.3 1.31-2.17 1.07-2.51 2.35-3 1.37-5.54 2.66-9.5 3.26 3-1.17 6.45-1.89 8.7-3.79-.16-.28-.54.33-.92.26-1.37.53-3 1.71-5.15 2.24 2.8-1.66 5.9-3 8.05-5.35-.75.09-.86.8-1.58.92a28.73 28.73 0 005.93-6.13c-1.47 1.59-3.4 3.86-5.67 5.08.2-.57.92-.66 1.19-1.17-2.47 1.69-4.76 3.56-7.78 4.7 1.4-1 3.16-1.57 4.35-2.74-1.5.43-3.26 1.73-5 2.34-.14-.44 1.14-.6 1.58-.91-1.45 0-2.81 1.22-4.48 1.44a11.87 11.87 0 012-.92c0-.1-.15-.13-.26-.11 1.5-1.31 3.92-2.41 5.75-3.85a9.38 9.38 0 001.1-1 48.09 48.09 0 01-4.6 2.72c.17.09.34 0 .31.14a5 5 0 00-1.37.26l-.13.05a4.86 4.86 0 01-2.48.5 15.78 15.78 0 002.45-.65c-.12-.17-.54.16-1 .16l.68-.44c-1.24.3-2.31 1-3.83.59-1.54.58-3.54 0-5.19.26.52.05 1.12.31 1.54.12 1.67 1.24 4.09-.39 5.21.32-1.64.32-3.39.35-5 .6.18.14.39 0 .36.16-1.06.28-2.42-.23-3.55-.16 1.31.48 2.89.26 3.93.9a3 3 0 00-1.47.06c.18.17.66-.13.6.27-1.58 0-3.4-.55-4.91-.34a15.11 15.11 0 004.1.84c1 .08 2.3-.27 2.9.29-.81.08-1.06.66-2 0-.25.82-.78-.26-1 .28.65.35 2.17-.08 2.92.58a8.12 8.12 0 00-2.31 0c1.22.77 2.46.19 3.52.86-1 .28-2.33-.37-3.17.3a10.7 10.7 0 012.71.07c-1.43.43-3.24-.13-4.78 0-.68-.59-1.55-.35-1.54-.11a5.79 5.79 0 00-2.85-.42c-5-1.09-9.57-4.37-12.37-6.82 1.81 2.42 5.12 4.19 7.73 5.89a20.56 20.56 0 01-6-3.43.34.34 0 00-.21-.18l.21.18a.32.32 0 010 .21 24.15 24.15 0 01-6.41-7.83 24 24 0 01-4-8.32.39.39 0 01.19.12A20.16 20.16 0 010 33.79a17.48 17.48 0 010-2.4c.5 3 .75 6.76 2.24 9.39-1.1-3.53-2.24-9-1.19-14a5.73 5.73 0 00.79-2.74c.21.11.8-.57.53-1.43.76-1.33 1-3.19 2-4.3a11.14 11.14 0 01-1.05 2.49c1-.49.91-2 1.58-2.74.18 1.23-.87 2.11-.66 3.52a7.59 7.59 0 00.92-2.08c.3.94-.72 2.13-.66 2.86.59 0-.2-.89.66-.78-.25-1.14.39-1.12.79-1.83.27.78-.59 1.82-.92 2.74a14.45 14.45 0 00-.92 4C5 25.3 5.16 23.41 5.85 22c.39.11-.08.42 0 .65a3 3 0 00.66-1.3c.16 1.2-.69 2.53-.79 3.91.53-1 .62-2.43 1.32-3.26.2.06 0 .16 0 .39.92-1.4 1.67-3 2.63-4.3.19 1.3-2.31 2.81-1.84 4.82-.36.3-.36.95-.53 1.44 1-1.37 1.21-3.42 2.37-4.57.28-1.94 2-2.48 2.64-4-.74.26-1.61 1.53-2.24 2.35.07-1 1.8-2 2.37-3.26.2.06 0 .17 0 .39 2.74-3.08 7.16-4.48 11.35-6.13-.12-.38-.34.17-.66 0 .33-.32 1.17-.39 1.05-.78C34.24 6 44.1 11.92 48.45 18.1c.08-.28-.8-2.05-1.05-1.56C46.18 13 42.59 10.78 39.48 9c1.73.2 4.6 2.52 6.33 2.74-.27-.91-1.25-1.09-2.11-1.69 1-.23 1.75 1.66 2.9 1.3 0 .06.42 1 .66.39a29.94 29.94 0 018.31 19.56A28.82 28.82 0 0153.86 42c.39-.13.17-.87.66-.91zm-45.23-.71l.42-.23a3 3 0 00.91 2.13c0-.14-.2-.33-.15-.49a8.23 8.23 0 01.78 1.3 5.45 5.45 0 01.47.71.21.21 0 01-.11 0A2.68 2.68 0 0013 45a12.85 12.85 0 01-1.23-2.12 2.2 2.2 0 01-1.17-1.71 17 17 0 01-1.6-2.6 3.28 3.28 0 00.27 1.72zm1.42.25c-.13.07-.13.2-.06.36a2.25 2.25 0 01.06-.36zm2.92 5.34zm.19-1.36a9 9 0 00-1.73-1.41c.27.59.54 1.1.82.86.38.23.34.91.91.54zm-13-6.08a.88.88 0 000-.16v-.08c-.03.07-.01.16.02.24zm8.09 13.33a2.37 2.37 0 00-.75-.91c0 .4.44.63.75.91zM14 46.32l-.27-.32h-.13l-.14.15a4.56 4.56 0 00.55.24zM16.2 51c.11-.47-.8-.56-1.21-.83.1.39.68.6 1.21.83zm8.54 3.81c-.08-.43-.7-.12-1-.31.06.5.68.14 1 .33zm3.84-4.29c.78.06 1.21.43 2 .16.09-.23-.36-.27-.2-.52 1.64-.3 4 .15 4.57-.82a1.45 1.45 0 00.92.13 2.11 2.11 0 01.3-.16 1.23 1.23 0 00.3-.44c.67.36 1-.1 1.54-.23.11-.1.23-.2.33-.31a.19.19 0 00-.16-.06.42.42 0 00-.15 0l-.53.4c.11-.1.24-.2.37-.3l.15-.1a21.67 21.67 0 008.4-14v-.05c.07-.45.1-.9.14-1.37a1.94 1.94 0 000-.24v-1.67c0-.44 0-.9-.09-1.35v-.39c-.06-.59-.14-1.19-.25-1.8a20.2 20.2 0 00-6.33-11.6c-.7.26 0-.25-.66 0a13.76 13.76 0 00-1.85-1.56c-5.85-3-14.17-1.16-18.72 2.34-.23.05-.25-.1-.27-.26-.89 1.64-2.93 2.15-3.56 4-.19 0-.05-.38-.26-.39-.75.95-.93 1.94-1.72 3V23a.09.09 0 000-.05.45.45 0 010 .11c0 .12-.06.23-.1.35s0 .05 0 .08c-.31.91-.87 1.91-1.15 2.91a4.37 4.37 0 00-.12.52 9.62 9.62 0 01.4-2.87c1.12-3.9 4.46-6.84 7.51-8.87.38.3 2.73-1 4-1.69A11.43 11.43 0 0128 12c-2-.34-3.68.87-5.15.91 0-.67.18-.57.4-.91-1.17-.07-2.52.81-3.56 1.3a12.51 12.51 0 014.75-2.34c-.29-.56-1 .29-1.58.26 0-.34.51-.19.52-.53-.38 0-.4.3-.79.27.19-.52.91-.49 1.32-.79-5.22.81-9 5-12.13 8.74.13.25.52-.34.66-.52 0 .52-1.49 1.73-1.72 2.87A33.15 33.15 0 0116 14.71c.23.1 0 .23 0 .39.6.11.31-.65.79-.65-.16.88-.93 1.17-1.19 1.95.57-.14.5-.9 1.32-.78-.16.76-1.11.72-1 1.69-.78 0-1.05.45-1.06 1.18-1.12.1-1.68 2.42-2.64 3.78-.3 0-.14-.38-.4-.39-.56.56-.4 1.09-.66 1.82-.74-.44-1 2.38-1.58 3.52.46-.54.18.94.13 1.31-.28 0-.06-.46-.13-.65a1.15 1.15 0 00-.26.91c.15 0 .23 0 .26.13.42.06.05-.65.53-.52-.12.22-.17.77.13.39a31.15 31.15 0 00.66 6.39 19.51 19.51 0 01-.92-3.26 10.18 10.18 0 003 7.95c-.06.2-.11 0-.26 0 .14.43.61.53.79.92a2.3 2.3 0 01-1.72-1c.53 1.61 2.56 2.86 4 4a6.37 6.37 0 01-1.88-.7l-.07-.08-.21-.12a8 8 0 01-3-3.43c-.56.35 0 .59.12 1 .5 1.69 2 1.74 3.2 2.76 1.08 2.2 3.79 4 6.59 5A21.89 21.89 0 0117.89 46a31.36 31.36 0 005.62 3.23c-.47.11 0 .29.31.28-.08.48-.59-.14-.7.26.08.07.09.16 0 .29a1.18 1.18 0 00.95.14c-.14-.15-.68-.14-.55-.39.36.11 1.84.47 1.15.66 1.31-.08 4 .88 3.9 0zm12.36-3.36a7 7 0 00-2.22 2h.24a13.51 13.51 0 002-2zm-8.89 3c.2.52.87 0 1.25.13-.15-.36-.85 0-1.25-.13zm.08 2c-.63-.34-1.78.2-2.65.1.64.38 1.83-.08 2.65-.1zm1.73-.75l.34-.24c-1.16.23-2.33.42-3.5.64 1 .23 2.52-.43 3.16-.4zm-.56.41a5.73 5.73 0 012.14-.14l1.89-1.33c-.71.23-1.43.44-2.15.6a1.87 1.87 0 00-.57.68c-.45-.29.37-.36.39-.63h-.06c-.49.26-1 .48-1.52.75l.31-.25c-.27.06-.55.16-.43.31zm10.8-6.06a26.15 26.15 0 01-8.14 6 5 5 0 01.69.2c2.77-1.67 5.49-3.5 7.45-6.09zm-2.24 9.65c-.08 0-.18 0-.23.09z" fill-rule="evenodd" fill="#fff"/><path id="Path_2916" data-name="Path 2916" class="cls-1" d="M97.32 46.4l-3-3.06-.57-.59a15.68 15.68 0 11-3.43-21.92 15.84 15.84 0 013.5 3.53l5-5.46a23 23 0 10-3.15 32.36 22.44 22.44 0 003.19-3.2z"/></g></g></g></svg>