<svg xmlns="http://www.w3.org/2000/svg" width="998.563" height="1244.769"><g data-name="Grupo 642" transform="translate(-183.718 -501.848)"><rect data-name="Rectángulo 12" width="279.697" height="41.788" rx="20.894" transform="translate(426.442 1426.583)" fill="#24a31a"/><circle data-name="Elipse 5" cx="68.023" cy="68.023" r="68.023" transform="translate(183.718 854.121)" fill="#28347d"/><circle data-name="Elipse 6" cx="68.023" cy="68.023" r="68.023" transform="translate(183.718 573.456)" fill="#28347d"/><text transform="translate(208.531 911.908)" fill="#fff" font-size="15.438" font-family="Roboto-Bold, Roboto" font-weight="700"><tspan x="30.991" y="15">Ley</tspan></text><path data-name="Línea 37" fill="none" stroke="#28347d" stroke-linecap="round" d="M325.601 922.144h45.123"/><path data-name="Línea 38" fill="none" stroke="#28347d" stroke-linecap="round" d="M325.601 640.824h45.123"/><path data-name="Línea 39" fill="none" stroke="#28347d" stroke-linecap="round" d="M370.725 839.332v165.623"/><path data-name="Línea 40" fill="none" stroke="#28347d" stroke-linecap="round" d="M370.725 613.999v53.651"/><path data-name="Línea 41" fill="none" stroke="#28347d" stroke-linecap="round" d="M370.725 839.332h50.578"/><circle data-name="Elipse 7" cx="68.023" cy="68.023" r="68.023" transform="translate(183.718 1403.771)" fill="#28347d"/><text transform="translate(208.531 1461.579)" fill="#fff" font-size="15.438" font-family="Roboto-Bold, Roboto" font-weight="700"><tspan x="7.928" y="15">Segmento</tspan></text><path data-name="Línea 42" fill="none" stroke="#28347d" stroke-linecap="round" d="M325.601 1471.793h45.123"/><path data-name="Línea 43" fill="none" stroke="#28347d" stroke-linecap="round" d="M370.725 1230.848v494.259"/><path data-name="Línea 44" fill="none" stroke="#28347d" stroke-linecap="round" d="M370.725 1230.848h50.578"/><path data-name="Línea 45" fill="none" stroke="#28347d" stroke-linecap="round" d="M370.725 1284.5h50.578"/><path data-name="Línea 46" fill="none" stroke="#28347d" stroke-linecap="round" d="M370.725 1338.151h50.578"/><path data-name="Línea 47" fill="none" stroke="#28347d" stroke-linecap="round" d="M370.725 1391.802h50.578"/><path data-name="Línea 48" fill="none" stroke="#28347d" stroke-linecap="round" d="M370.725 1447.477h50.578"/><path data-name="Línea 49" fill="none" stroke="#28347d" stroke-linecap="round" d="M370.725 1503.616h50.578"/><path data-name="Línea 50" fill="none" stroke="#28347d" stroke-linecap="round" d="M370.725 1560.711h50.578"/><path data-name="Línea 51" fill="none" stroke="#28347d" stroke-linecap="round" d="M370.725 1614.362h50.578"/><path data-name="Línea 52" fill="none" stroke="#28347d" stroke-linecap="round" d="M370.725 1671.457h50.578"/><path data-name="Línea 53" fill="none" stroke="#28347d" stroke-linecap="round" d="M370.725 1725.108h50.578"/><path data-name="Línea 54" fill="none" stroke="#28347d" stroke-linecap="round" d="M370.725 892.983h50.578"/><path data-name="Línea 55" fill="none" stroke="#28347d" stroke-linecap="round" d="M370.725 946.635h50.578"/><path data-name="Línea 56" fill="none" stroke="#28347d" stroke-linecap="round" d="M370.725 1004.956h50.578"/><path data-name="Trazado 18" d="M885.403 595.128H784.012a18.871 18.871 0 000 37.741h101.391a18.871 18.871 0 100-37.741z" fill="#30d9cb"/><path data-name="Trazado 19" d="M885.403 501.848H784.012a18.87 18.87 0 000 37.741h101.391a18.87 18.87 0 100-37.741z" fill="#28347d"/><path data-name="Trazado 20" d="M885.403 648.779H784.012a18.871 18.871 0 000 37.742h101.391a18.871 18.871 0 100-37.742z" fill="#30d9cb"/><text transform="translate(834.71 526.984)" fill="#fff" font-size="15.438" font-family="Roboto-MediumItalic, Roboto" font-weight="500" font-style="italic" style="isolation:isolate"><tspan x="-21.096" y="0">NIVEL</tspan></text><text transform="translate(208.531 630.588)" fill="#fff" font-size="15.438" font-family="Roboto-Bold, Roboto" font-weight="700"><tspan x="1.11" y="15">Estatutarios</tspan></text><path data-name="Trazado 21" d="M687.268 595.128H445.312a18.871 18.871 0 100 37.741h241.956a18.871 18.871 0 100-37.741z" fill="#24a31a"/><path data-name="Trazado 22" d="M687.268 648.779H445.312a18.871 18.871 0 100 37.742h241.956a18.871 18.871 0 100-37.742z" fill="#24a31a"/><text data-name="Comité Auditoria" transform="translate(566.291 619.368)" fill="#fff" font-size="15.438" font-family="Roboto-Medium, Roboto" font-weight="500"><tspan x="-58.119" y="0">Comité Auditoria</tspan></text><text data-name="Junta Directiva" transform="translate(834.709 619.368)" fill="#28347d" font-size="15.438" font-family="Roboto-Medium, Roboto" font-weight="500"><tspan x="-52.33" y="0">Junta Directiva</tspan></text><text data-name="Junta Directiva" transform="translate(834.709 673.019)" fill="#28347d" font-size="15.438" font-family="Roboto-Medium, Roboto" font-weight="500"><tspan x="-52.33" y="0">Junta Directiva</tspan></text><text data-name="Comité Compensación" transform="translate(566.291 672.162)" fill="#fff" font-size="15.438" font-family="Roboto-Medium, Roboto" font-weight="500"><tspan x="-78.333" y="0">Comité Compensación</tspan></text><path data-name="Línea 57" fill="none" stroke="#28347d" stroke-linecap="round" d="M370.725 613.999h50.578"/><path data-name="Línea 58" fill="none" stroke="#28347d" stroke-linecap="round" d="M370.725 667.65h50.578"/><circle data-name="Elipse 8" cx="68.023" cy="68.023" r="68.023" transform="translate(183.718 1051.121)" fill="#28347d"/><text transform="translate(198.718 1109.037)" fill="#fff" font-size="15.438" font-family="Roboto-Bold, Roboto" font-weight="700"><tspan x="12.614" y="15">Contractual</tspan></text><g data-name="Grupo 35" fill="none" stroke="#28347d" stroke-linecap="round"><path data-name="Línea 59" d="M325.601 1119.144h45.123"/><path data-name="Línea 60" d="M370.725 1092.318v53.651"/><path data-name="Línea 61" d="M370.725 1092.318h50.578"/><path data-name="Línea 62" d="M370.725 1145.97h50.578"/></g><path data-name="Línea 63" fill="none" stroke="#28347d" stroke-linecap="round" d="M709.08 613.999h51.338"/><path data-name="Línea 64" fill="none" stroke="#28347d" stroke-linecap="round" d="M709.08 667.65h51.338"/><path data-name="Trazado 23" d="M1161.591 595.128h-168.62a18.871 18.871 0 000 37.741h168.62a18.871 18.871 0 100-37.741z" fill="#fad804"/><path data-name="Trazado 24" d="M1161.591 648.779h-168.62a18.871 18.871 0 000 37.742h168.62a18.871 18.871 0 100-37.742z" fill="#fad804"/><text transform="translate(1077.282 619.368)" fill="#28347d" font-size="15.438" font-family="Roboto-Medium, Roboto" font-weight="500"><tspan x="-19.641" y="0">Mixto</tspan></text><text transform="translate(1077.282 673.019)" fill="#28347d" font-size="15.438" font-family="Roboto-Medium, Roboto" font-weight="500"><tspan x="-36.903" y="0">Consultivo</tspan></text><path data-name="Línea 65" fill="none" stroke="#28347d" stroke-linecap="round" d="M908.76 613.999h57.234"/><path data-name="Línea 66" fill="none" stroke="#28347d" stroke-linecap="round" d="M908.76 667.65h57.234"/><path data-name="Trazado 25" d="M841.449 548.552l-6.741 6.74-6.74-6.74" fill="none" stroke="#28347d" stroke-linecap="round" stroke-width="2.5"/><path data-name="Trazado 26" d="M618.634 501.848H517.241a18.87 18.87 0 000 37.741h101.393a18.87 18.87 0 100-37.741z" fill="#28347d"/><text transform="translate(567.939 526.984)" fill="#fff" font-size="15.438" font-family="Roboto-MediumItalic, Roboto" font-weight="500" font-style="italic" style="isolation:isolate"><tspan x="-31.536" y="0">NOMBRE</tspan></text><path data-name="Trazado 27" d="M574.678 548.552l-6.74 6.74-6.74-6.74" fill="none" stroke="#28347d" stroke-linecap="round" stroke-width="2.5"/><path data-name="Trazado 28" d="M316.003 501.848h-101.4a18.87 18.87 0 100 37.741h101.4a18.87 18.87 0 100-37.741z" fill="#28347d"/><text transform="translate(265.303 526.984)" fill="#fff" font-size="15.438" font-family="Roboto-MediumItalic, Roboto" font-weight="500" font-style="italic" style="isolation:isolate"><tspan x="-27.314" y="0">ORIGEN</tspan></text><path data-name="Trazado 29" d="M272.042 548.552l-6.74 6.74-6.74-6.74" fill="none" stroke="#28347d" stroke-linecap="round" stroke-width="2.5"/><path data-name="Trazado 30" d="M1127.878 501.848h-101.392a18.87 18.87 0 100 37.741h101.393a18.87 18.87 0 100-37.741z" fill="#28347d"/><text transform="translate(1077.182 526.984)" fill="#fff" font-size="15.438" font-family="Roboto-MediumItalic, Roboto" font-weight="500" font-style="italic" style="isolation:isolate"><tspan x="-47.494" y="0">NATURALEZA</tspan></text><path data-name="Trazado 31" d="M1083.922 548.552l-6.74 6.74-6.74-6.74" fill="none" stroke="#28347d" stroke-linecap="round" stroke-width="2.5"/><path data-name="Trazado 32" d="M885.403 820.462H784.012a18.871 18.871 0 000 37.741h101.391a18.871 18.871 0 100-37.741z" fill="#30d9cb"/><path data-name="Trazado 33" d="M885.403 874.113H784.012a18.871 18.871 0 000 37.741h101.391a18.871 18.871 0 100-37.741z" fill="#30d9cb"/><path data-name="Trazado 34" d="M687.268 820.462H445.312a18.871 18.871 0 100 37.741h241.956a18.871 18.871 0 100-37.741z" fill="#24a31a"/><path data-name="Trazado 35" d="M687.268 874.113H445.312a18.871 18.871 0 100 37.741h241.956a18.871 18.871 0 100-37.741z" fill="#24a31a"/><text data-name="Comité Conciliación" transform="translate(566.291 844.702)" fill="#fff" font-size="15.438" font-family="Roboto-Medium, Roboto" font-weight="500"><tspan x="-69.212" y="0">Comité Conciliación</tspan></text><text transform="translate(834.709 844.702)" fill="#28347d" font-size="15.438" font-family="Roboto-Medium, Roboto" font-weight="500"><tspan x="-25.46" y="0">Táctico</tspan></text><text transform="translate(834.709 898.353)" fill="#28347d" font-size="15.438" font-family="Roboto-Medium, Roboto" font-weight="500"><tspan x="-33.477" y="0">Operativo</tspan></text><text data-name="Comité COPASST" transform="translate(566.227 897.495)" fill="#fff" font-size="15.438" font-family="Roboto-Medium, Roboto" font-weight="500"><tspan x="-59.94" y="0">Comité COPASST</tspan></text><path data-name="Línea 67" fill="none" stroke="#28347d" stroke-linecap="round" d="M709.08 839.332h51.338"/><path data-name="Línea 68" fill="none" stroke="#28347d" stroke-linecap="round" d="M709.08 892.983h51.338"/><path data-name="Trazado 36" d="M1161.591 820.462h-168.62a18.871 18.871 0 000 37.741h168.62a18.871 18.871 0 100-37.741z" fill="#fad804"/><path data-name="Trazado 37" d="M1161.591 874.113h-168.62a18.871 18.871 0 000 37.741h168.62a18.871 18.871 0 100-37.741z" fill="#fad804"/><text transform="translate(1077.282 844.702)" fill="#28347d" font-size="15.438" font-family="Roboto-Medium, Roboto" font-weight="500"><tspan x="-32.697" y="0">Decisorio</tspan></text><text data-name="Consultivo" transform="translate(1077.282 898.353)" fill="#28347d" font-size="15.438" font-family="Roboto-Medium, Roboto" font-weight="500"><tspan x="-36.903" y="0">Consultivo</tspan></text><path data-name="Línea 69" fill="none" stroke="#28347d" stroke-linecap="round" d="M908.76 839.332h57.234"/><path data-name="Línea 70" fill="none" stroke="#28347d" stroke-linecap="round" d="M908.76 892.983h57.234"/><path data-name="Trazado 38" d="M885.403 927.764H784.012a18.871 18.871 0 000 37.741h101.391a18.871 18.871 0 100-37.741z" fill="#30d9cb"/><path data-name="Trazado 39" d="M687.268 927.764H445.312a18.871 18.871 0 100 37.741h241.956a18.871 18.871 0 100-37.741z" fill="#24a31a"/><text data-name="Operativo" transform="translate(834.709 952.004)" fill="#28347d" font-size="15.438" font-family="Roboto-Medium, Roboto" font-weight="500"><tspan x="-33.477" y="0">Operativo</tspan></text><text data-name="Comité Convivencia" transform="translate(566.291 951.146)" fill="#fff" font-size="15.438" font-family="Roboto-Medium, Roboto" font-weight="500"><tspan x="-68.639" y="0">Comité Convivencia</tspan></text><path data-name="Línea 71" fill="none" stroke="#28347d" stroke-linecap="round" d="M709.08 946.635h51.338"/><path data-name="Trazado 40" d="M1161.591 927.764h-168.62a18.871 18.871 0 000 37.741h168.62a18.871 18.871 0 100-37.741z" fill="#fad804"/><text data-name="Consultivo" transform="translate(1077.282 952.004)" fill="#28347d" font-size="15.438" font-family="Roboto-Medium, Roboto" font-weight="500"><tspan x="-36.903" y="0">Consultivo</tspan></text><path data-name="Línea 72" fill="none" stroke="#28347d" stroke-linecap="round" d="M908.76 946.635h57.234"/><path data-name="Trazado 41" d="M885.403 986.085H784.012a18.87 18.87 0 000 37.741h101.391a18.87 18.87 0 100-37.741z" fill="#30d9cb"/><path data-name="Trazado 42" d="M687.268 986.085H445.312a18.87 18.87 0 100 37.741h241.956a18.87 18.87 0 100-37.741z" fill="#24a31a"/><text data-name="Operativo" transform="translate(834.709 1010.325)" fill="#28347d" font-size="15.438" font-family="Roboto-Medium, Roboto" font-weight="500"><tspan x="-33.477" y="0">Operativo</tspan></text><text data-name="Comité Archivo*" transform="translate(566.291 1009.467)" fill="#fff" font-size="15.438" font-family="Roboto-Medium, Roboto" font-weight="500"><tspan x="-56.031" y="0">Comité Archivo*</tspan></text><path data-name="Línea 73" fill="none" stroke="#28347d" stroke-linecap="round" d="M709.08 1004.956h51.338"/><path data-name="Trazado 43" d="M1161.591 986.085h-168.62a18.87 18.87 0 000 37.741h168.62a18.87 18.87 0 100-37.741z" fill="#fad804"/><text data-name="Mixto*" transform="translate(1077.282 1010.325)" fill="#28347d" font-size="15.438" font-family="Roboto-Medium, Roboto" font-weight="500"><tspan x="-22.927" y="0">Mixto*</tspan></text><path data-name="Línea 74" fill="none" stroke="#28347d" stroke-linecap="round" d="M908.76 1004.956h57.234"/><path data-name="Trazado 44" d="M885.403 1071.128H784.012a18.87 18.87 0 000 37.741h101.391a18.87 18.87 0 100-37.741z" fill="#30d9cb"/><path data-name="Trazado 45" d="M687.268 1071.128H445.312a18.87 18.87 0 100 37.741h241.956a18.87 18.87 0 100-37.741z" fill="#24a31a"/><text data-name="Operativo" transform="translate(834.709 1095.368)" fill="#28347d" font-size="15.438" font-family="Roboto-Medium, Roboto" font-weight="500"><tspan x="-33.477" y="0">Operativo</tspan></text><text data-name="Comité de Igualdad de Género" transform="translate(566.291 1094.51)" fill="#fff" font-size="15.438" font-family="Roboto-Medium, Roboto" font-weight="500"><tspan x="-103.936" y="0">Comité de Igualdad de Género</tspan></text><path data-name="Línea 75" fill="none" stroke="#28347d" stroke-linecap="round" d="M709.08 1089.999h51.338"/><path data-name="Línea 76" fill="none" stroke="#28347d" stroke-linecap="round" d="M908.76 1089.999h57.234"/><path data-name="Trazado 46" d="M885.403 1129.449H784.012a18.87 18.87 0 000 37.741h101.391a18.87 18.87 0 100-37.741z" fill="#30d9cb"/><path data-name="Trazado 47" d="M687.268 1129.449H445.312a18.87 18.87 0 100 37.741h241.956a18.87 18.87 0 100-37.741z" fill="#24a31a"/><text data-name="Operativo" transform="translate(834.709 1153.689)" fill="#28347d" font-size="15.438" font-family="Roboto-Medium, Roboto" font-weight="500"><tspan x="-33.477" y="0">Operativo</tspan></text><text data-name="Comité de Acuerdos TLU3" transform="translate(566.292 1152.831)" fill="#fff" font-size="15.438" font-family="Roboto-Medium, Roboto" font-weight="500"><tspan x="-89.923" y="0">Comité de Acuerdos TLU3</tspan></text><path data-name="Línea 77" fill="none" stroke="#28347d" stroke-linecap="round" d="M709.08 1148.319h51.338"/><path data-name="Trazado 48" d="M1161.591 1129.449h-168.62a18.87 18.87 0 000 37.741h168.62a18.87 18.87 0 100-37.741z" fill="#fad804"/><text data-name="Mixto" transform="translate(1077.282 1153.689)" fill="#28347d" font-size="15.438" font-family="Roboto-Medium, Roboto" font-weight="500"><tspan x="-19.641" y="0">Mixto</tspan></text><path data-name="Línea 78" fill="none" stroke="#28347d" stroke-linecap="round" d="M908.76 1148.319h57.234"/><rect data-name="Rectángulo 13" width="210" height="43.019" rx="21.509" transform="translate(972.282 1068.489)" fill="#fad804"/><text data-name="Alineación / Informativo / Seguimiento" transform="translate(1077.282 1087.113)" fill="#28347d" font-size="15.438" font-family="Roboto-Medium, Roboto" font-weight="500"><tspan x="-83.349" y="0">Alineación / Informativo</tspan><tspan x="-48.757" y="16">/ Seguimiento</tspan></text><rect data-name="Rectángulo 14" width="210" height="43.019" rx="21.509" transform="translate(972.282 1483.013)" fill="#fad804"/><text data-name="Alineación / Informativo / Seguimiento" transform="translate(1077.282 1501.637)" fill="#28347d" font-size="15.438" font-family="Roboto-Medium, Roboto" font-weight="500"><tspan x="-83.349" y="0">Alineación / Informativo</tspan><tspan x="-48.757" y="16">/ Seguimiento</tspan></text><path data-name="Trazado 49" d="M885.403 1211.238H784.012a18.87 18.87 0 000 37.741h101.391a18.87 18.87 0 100-37.741z" fill="#30d9cb"/><path data-name="Trazado 50" d="M687.268 1211.238H445.312a18.87 18.87 0 100 37.741h241.956a18.87 18.87 0 100-37.741z" fill="#24a31a"/><text transform="translate(834.709 1235.478)" fill="#28347d" font-size="15.438" font-family="Roboto-Medium, Roboto" font-weight="500"><tspan x="-39.281" y="0">Estratégico</tspan></text><text data-name="RAR para el segmento Midstream" transform="translate(566.292 1235.478)" fill="#fff" font-size="15.438" font-family="Roboto-Medium, Roboto" font-weight="500"><tspan x="-115.831" y="0">RAR para el segmento Midstream</tspan></text><path data-name="Línea 79" fill="none" stroke="#28347d" stroke-linecap="round" d="M709.08 1230.109h51.338"/><path data-name="Línea 80" fill="none" stroke="#28347d" stroke-linecap="round" d="M908.76 1230.109h57.234"/><rect data-name="Rectángulo 15" width="210" height="43.019" rx="21.509" transform="translate(972.282 1208.599)" fill="#fad804"/><text data-name="Alineación / Informativo" transform="translate(1077.282 1235.478)" fill="#28347d" font-size="15.438" font-family="Roboto-Medium, Roboto" font-weight="500"><tspan x="-83.349" y="0">Alineación / Informativo</tspan></text><path data-name="Trazado 51" d="M885.403 1265.629H784.012a18.87 18.87 0 000 37.741h101.391a18.87 18.87 0 100-37.741z" fill="#30d9cb"/><path data-name="Trazado 52" d="M687.268 1265.629H445.312a18.87 18.87 0 100 37.741h241.956a18.87 18.87 0 100-37.741z" fill="#24a31a"/><text data-name="Operativo" transform="translate(834.709 1289.869)" fill="#28347d" font-size="15.438" font-family="Roboto-Medium, Roboto" font-weight="500"><tspan x="-33.477" y="0">Operativo</tspan></text><text data-name="RAR Seguros Midstream" transform="translate(566.291 1289.869)" fill="#fff" font-size="15.438" font-family="Roboto-Medium, Roboto" font-weight="500"><tspan x="-84.45" y="0">RAR Seguros Midstream</tspan></text><path data-name="Línea 81" fill="none" stroke="#28347d" stroke-linecap="round" d="M709.08 1284.5h51.338"/><path data-name="Línea 82" fill="none" stroke="#28347d" stroke-linecap="round" d="M908.76 1284.5h57.234"/><rect data-name="Rectángulo 16" width="210" height="43.019" rx="21.509" transform="translate(972.282 1262.99)" fill="#fad804"/><text data-name="Alineación / Informativo" transform="translate(1077.282 1289.869)" fill="#28347d" font-size="15.438" font-family="Roboto-Medium, Roboto" font-weight="500"><tspan x="-83.349" y="0">Alineación / Informativo</tspan></text><path data-name="Trazado 53" d="M885.403 1317.673H784.012a18.87 18.87 0 000 37.741h101.391a18.87 18.87 0 100-37.741z" fill="#30d9cb"/><path data-name="Trazado 54" d="M687.268 1317.673H445.312a18.87 18.87 0 100 37.741h241.956a18.87 18.87 0 100-37.741z" fill="#24a31a"/><text data-name="Operativo" transform="translate(834.709 1341.913)" fill="#28347d" font-size="15.438" font-family="Roboto-Medium, Roboto" font-weight="500"><tspan x="-33.477" y="0">Operativo</tspan></text><text data-name="RAR Tesorería Segmento Midstream" transform="translate(566.291 1341.913)" fill="#fff" font-size="15.438" font-family="Roboto-Medium, Roboto" font-weight="500"><tspan x="-125.356" y="0">RAR Tesorería Segmento Midstream</tspan></text><path data-name="Línea 83" fill="none" stroke="#28347d" stroke-linecap="round" d="M709.08 1336.543h51.338"/><path data-name="Línea 84" fill="none" stroke="#28347d" stroke-linecap="round" d="M908.76 1336.543h57.234"/><rect data-name="Rectángulo 17" width="210" height="43.019" rx="21.509" transform="translate(972.282 1315.034)" fill="#fad804"/><text data-name="Alineación / Informativo" transform="translate(1077.282 1341.913)" fill="#28347d" font-size="15.438" font-family="Roboto-Medium, Roboto" font-weight="500"><tspan x="-83.349" y="0">Alineación / Informativo</tspan></text><path data-name="Trazado 55" d="M885.403 1372.931H784.012a18.871 18.871 0 000 37.742h101.391a18.871 18.871 0 100-37.742z" fill="#30d9cb"/><path data-name="Trazado 56" d="M687.268 1372.931H445.312a18.871 18.871 0 100 37.742h241.956a18.871 18.871 0 100-37.742z" fill="#24a31a"/><text data-name="Táctico" transform="translate(834.709 1397.171)" fill="#28347d" font-size="15.438" font-family="Roboto-Medium, Roboto" font-weight="500"><tspan x="-25.46" y="0">Táctico</tspan></text><text data-name="RAR HSE y Seguridad de Procesos" transform="translate(566.291 1397.172)" fill="#fff" font-size="15.438" font-family="Roboto-Medium, Roboto" font-weight="500"><tspan x="-118.677" y="0">RAR HSE y Seguridad de Procesos</tspan></text><path data-name="Línea 85" fill="none" stroke="#28347d" stroke-linecap="round" d="M709.08 1391.802h51.338"/><path data-name="Línea 86" fill="none" stroke="#28347d" stroke-linecap="round" d="M908.76 1391.802h57.234"/><rect data-name="Rectángulo 18" width="210" height="43.019" rx="21.509" transform="translate(972.282 1370.293)" fill="#fad804"/><text data-name="Alineación / Informativo" transform="translate(1077.282 1397.171)" fill="#28347d" font-size="15.438" font-family="Roboto-Medium, Roboto" font-weight="500"><tspan x="-83.349" y="0">Alineación / Informativo</tspan></text><path data-name="Trazado 57" d="M885.403 1652.586H784.012a18.87 18.87 0 000 37.741h101.391a18.87 18.87 0 100-37.741z" fill="#30d9cb"/><path data-name="Trazado 58" d="M687.268 1652.586H445.312a18.87 18.87 0 100 37.741h241.956a18.87 18.87 0 100-37.741z" fill="#24a31a"/><text data-name="Operativo" transform="translate(834.709 1676.826)" fill="#28347d" font-size="15.438" font-family="Roboto-Medium, Roboto" font-weight="500"><tspan x="-33.477" y="0">Operativo</tspan></text><text data-name="RAR Táctico - Operativo Digital" transform="translate(566.291 1676.826)" fill="#fff" font-size="15.438" font-family="Roboto-Medium, Roboto" font-weight="500"><tspan x="-107.166" y="0">RAR Táctico - Operativo Digital</tspan></text><path data-name="Línea 87" fill="none" stroke="#28347d" stroke-linecap="round" d="M709.08 1671.457h51.338"/><path data-name="Línea 88" fill="none" stroke="#28347d" stroke-linecap="round" d="M908.76 1671.457h57.234"/><rect data-name="Rectángulo 19" width="210" height="43.019" rx="21.509" transform="translate(972.282 1649.947)" fill="#fad804"/><text data-name="Alineación / Informativo" transform="translate(1077.282 1676.826)" fill="#28347d" font-size="15.438" font-family="Roboto-Medium, Roboto" font-weight="500"><tspan x="-83.349" y="0">Alineación / Informativo</tspan></text><path data-name="Trazado 59" d="M885.403 1485.652H784.012a18.87 18.87 0 000 37.741h101.391a18.87 18.87 0 100-37.741z" fill="#30d9cb"/><path data-name="Trazado 60" d="M687.268 1485.652H445.312a18.87 18.87 0 100 37.741h241.956a18.87 18.87 0 100-37.741z" fill="#24a31a"/><text data-name="Táctico" transform="translate(834.709 1509.892)" fill="#28347d" font-size="15.438" font-family="Roboto-Medium, Roboto" font-weight="500"><tspan x="-25.46" y="0">Táctico</tspan></text><text data-name="RAR de Sostenibilidad" transform="translate(566.291 1509.892)" fill="#fff" font-size="15.438" font-family="Roboto-Medium, Roboto" font-weight="500"><tspan x="-76.486" y="0">RAR de Sostenibilidad</tspan></text><path data-name="Línea 89" fill="none" stroke="#28347d" stroke-linecap="round" d="M709.08 1504.522h51.338"/><path data-name="Línea 90" fill="none" stroke="#28347d" stroke-linecap="round" d="M908.76 1504.522h57.234"/><path data-name="Trazado 61" d="M885.403 1428.606H784.012a18.871 18.871 0 000 37.741h101.391a18.871 18.871 0 100-37.741z" fill="#30d9cb"/><text data-name="Táctico" transform="translate(834.709 1452.846)" fill="#28347d" font-size="15.438" font-family="Roboto-Medium, Roboto" font-weight="500"><tspan x="-25.46" y="0">Táctico</tspan></text><text data-name="RAR Gestión de Entorno y Seguridad Física" transform="translate(566.291 1443.236)" fill="#fff" font-size="15.438" font-family="Roboto-Medium, Roboto" font-weight="500"><tspan x="-82.645" y="0">RAR Gestión de Entorno</tspan><tspan x="-65.393" y="17"> y Seguridad Física</tspan></text><path data-name="Línea 91" fill="none" stroke="#28347d" stroke-linecap="round" d="M709.08 1447.477h51.338"/><path data-name="Línea 92" fill="none" stroke="#28347d" stroke-linecap="round" d="M908.76 1447.477h57.234"/><rect data-name="Rectángulo 20" width="210" height="43.019" rx="21.509" transform="translate(972.282 1425.968)" fill="#fad804"/><text data-name="Alineación / Informativo" transform="translate(1077.282 1452.846)" fill="#28347d" font-size="15.438" font-family="Roboto-Medium, Roboto" font-weight="500"><tspan x="-83.349" y="0">Alineación / Informativo</tspan></text><rect data-name="Rectángulo 21" width="279.697" height="41.788" rx="20.894" transform="translate(426.442 1539.816)" fill="#24a31a"/><path data-name="Trazado 62" d="M885.403 1541.84H784.012a18.871 18.871 0 000 37.741h101.391a18.871 18.871 0 100-37.741z" fill="#30d9cb"/><text data-name="Operativo" transform="translate(834.709 1566.08)" fill="#28347d" font-size="15.438" font-family="Roboto-Medium, Roboto" font-weight="500"><tspan x="-33.477" y="0">Operativo</tspan></text><text data-name="RAR Responsabilidad Social Corporativa de Segmento" transform="translate(566.291 1556.47)" fill="#fff" font-size="15.438" font-family="Roboto-Medium, Roboto" font-weight="500"><tspan x="-97.513" y="0">RAR Responsabilidad Social</tspan><tspan x="-87.887" y="17">Corporativa de Segmento</tspan></text><path data-name="Línea 93" fill="none" stroke="#28347d" stroke-linecap="round" d="M709.08 1560.711h51.338"/><path data-name="Línea 94" fill="none" stroke="#28347d" stroke-linecap="round" d="M908.76 1560.711h57.234"/><rect data-name="Rectángulo 22" width="210" height="43.019" rx="21.509" transform="translate(972.282 1539.201)" fill="#fad804"/><text data-name="Alineación / Informativo" transform="translate(1077.282 1566.08)" fill="#28347d" font-size="15.438" font-family="Roboto-Medium, Roboto" font-weight="500"><tspan x="-83.349" y="0">Alineación / Informativo</tspan></text><rect data-name="Rectángulo 23" width="279.697" height="41.788" rx="20.894" transform="translate(426.442 1704.214)" fill="#24a31a"/><path data-name="Trazado 63" d="M885.403 1706.237H784.012a18.87 18.87 0 000 37.741h101.391a18.87 18.87 0 100-37.741z" fill="#30d9cb"/><text data-name="Táctico" transform="translate(834.709 1730.477)" fill="#28347d" font-size="15.438" font-family="Roboto-Medium, Roboto" font-weight="500"><tspan x="-25.46" y="0">Táctico</tspan></text><text data-name="RAR Asuntos Legales para el Segmento de Transporte" transform="translate(566.291 1720.867)" fill="#fff" font-size="15.438" font-family="Roboto-Medium, Roboto" font-weight="500"><tspan x="-91.585" y="0">RAR Asuntos Legales para</tspan><tspan x="-93.3" y="17">el Segmento de Transporte</tspan></text><path data-name="Línea 95" fill="none" stroke="#28347d" stroke-linecap="round" d="M709.08 1725.108h51.338"/><path data-name="Línea 96" fill="none" stroke="#28347d" stroke-linecap="round" d="M908.76 1725.108h57.234"/><rect data-name="Rectángulo 24" width="210" height="43.019" rx="21.509" transform="translate(972.282 1703.598)" fill="#fad804"/><text data-name="Alineación / Informativo" transform="translate(1077.282 1730.477)" fill="#28347d" font-size="15.438" font-family="Roboto-Medium, Roboto" font-weight="500"><tspan x="-83.349" y="0">Alineación / Informativo</tspan></text><rect data-name="Rectángulo 25" width="279.697" height="41.788" rx="20.894" transform="translate(426.442 1593.468)" fill="#24a31a"/><path data-name="Trazado 64" d="M885.403 1595.491H784.012a18.871 18.871 0 000 37.741h101.391a18.871 18.871 0 100-37.741z" fill="#30d9cb"/><text data-name="Táctico" transform="translate(834.709 1619.731)" fill="#28347d" font-size="15.438" font-family="Roboto-Medium, Roboto" font-weight="500"><tspan x="-25.46" y="0">Táctico</tspan></text><text data-name="RAR Estrategia Digital Segmento Midstream" transform="translate(566.291 1610.121)" fill="#fff" font-size="15.438" font-family="Roboto-Medium, Roboto" font-weight="500"><tspan x="-76.049" y="0">RAR Estrategia Digital</tspan><tspan x="-74.552" y="17">Segmento Midstream</tspan></text><path data-name="Línea 97" fill="none" stroke="#28347d" stroke-linecap="round" d="M709.08 1614.362h51.338"/><path data-name="Línea 98" fill="none" stroke="#28347d" stroke-linecap="round" d="M908.76 1614.362h57.234"/><rect data-name="Rectángulo 26" width="210" height="43.019" rx="21.509" transform="translate(972.282 1592.852)" fill="#fad804"/><text data-name="Alineación / Informativo" transform="translate(1077.282 1619.731)" fill="#28347d" font-size="15.438" font-family="Roboto-Medium, Roboto" font-weight="500"><tspan x="-83.349" y="0">Alineación / Informativo</tspan></text></g></svg>