<svg version="1.1" id="Capa_1" xmlns="http://www.w3.org/2000/svg" x="0" y="0" viewBox="0 0 500 300" xml:space="preserve"><style>.st1{stroke:#19a500}.st1,.st2,.st3{fill:none;stroke-width:4;stroke-linecap:round;stroke-linejoin:round}.st2{stroke:#fff}.st3{stroke:#a1d005}.st5{fill:#00bc00}</style><path fill="none" d="M0 0h500v300H0z"/><g id="Grupo_6330"><g id="Grupo_6103"><path id="Línea_651" class="st1" d="M117.3 247h18.2"/><path id="Línea_652" class="st2" d="M106.6 247h18.2"/><path id="Línea_653" class="st3" d="M84.7 247h9.1"/></g><g id="Grupo_6104"><path id="Línea_652-2" class="st2" d="M110.3 257h-8.5"/><path id="Línea_653-2" class="st3" d="M132.2 257h-9.1"/></g></g><g id="Grupo_6331"><g id="Grupo_6103-2"><path id="Línea_651-2" class="st1" d="M424.6 257h-18.2"/><path id="Línea_652-3" class="st2" d="M435.3 257h-18.2"/><path id="Línea_653-3" class="st3" d="M457.2 257h-9.1"/></g><g id="Grupo_6104-2"><path id="Línea_652-4" class="st2" d="M431.6 247h8.4"/><path id="Línea_653-4" class="st3" d="M409.6 247h9.2"/></g></g><path class="st5" d="M202.2 190c-.9-.4-1.6.1-2.1.5-1.5 1.2-3 2.5-4.4 3.8-1.3 1.2-2.6 2.4-3.9 3.5-3.6 3.1-7.3 6.2-10.9 9.4-3.9 3.5-8.3 6.3-12.9 8.9-1.8 1-3.9 1.7-5.9 2.4-3.1 1.1-6.2 2.1-9.3 3.1-.5.2-1 .4-1.5.5-1.1.2-2.1 0-3-.7-1.4-1.1-2.2-2.5-2.3-4.3-.1-1.2.4-2.3 1.3-3 1.6-1.3 3.3-2.4 5.4-2.7 3.5-.5 6.6-1.9 9.6-3.7 2.1-1.3 4.3-2.5 6.4-3.8 1-.6 2-1.2 2.8-1.9 4.4-3.7 8.8-7.5 13.1-11.2.7-.6 1.4-1.4 2-2.1 3.1-3.6 6.2-7.3 9.3-10.9 1.5-1.7 2.2-3.6 2.5-5.7.6-5.9.8-11.8.6-17.8-.3-6.1.2-12.2 1.8-18.2 1.1-4.1 2.6-7.9 5.5-11.1.6-.6 1.1-1.4 1.5-2.2.6-1.1.4-2.1-.6-2.8-.7-.5-1.5-1-2.3-1.3-4.6-2-9.2-4-14.2-5-4.7-.9-9.3-2.3-13.9-3.3-3.7-.8-7.5-1.5-11.2-2.1-4.8-.8-9.4-2.6-13.9-4.4-1.6-.7-3.3-1.4-4.8-2.3-1.5-.9-3-1.8-4.4-3-1.6-1.4-1.7-2.4-.7-4.2.6-1.1 1.1-2.2 1.1-3.5 0-1.2.7-1.7 1.9-1.8.7-.1 1.4-.1 2.1-.2 1-.2 1.5-1.4.8-2.3-.3-.4-.7-.8-1.2-1.1-.6-.4-1.2-.7-1.8-1.1-.7-.4-1.4-.9-1.9-1.4-1.3-1.2-1.4-2.3-.4-3.8.2-.3.4-.6.7-.8.7-.8.9-1.7.6-2.7-.2-.6-.3-1.2-.5-1.8-.2-1.1 0-2.1.7-3 .9-1.1 2-1.3 3.3-.6.7.4 1.3.9 1.9 1.4 2.2 1.9 4.6 3.3 7.2 4.5 4.4 2 8.7 4 13 6 3.6 1.6 7.2 3.4 10.6 5.6 4.3 2.8 8.8 5.3 13.1 8.2 3.4 2.3 6.5 4.9 9.7 7.4.8.7 1.6 1.4 2.3 2.2 1.9 2.1 3.8 4.3 5.6 6.4 1.1 1.4 2.1 2.8 3.1 4.3 1.3 1.8 2.2 2.1 4.3 1.6 2.4-.6 4.8-1.2 7.2-1.7 3.4-.7 6.8-.8 10.3-.6 3.3.2 6.5.4 9.7 1.2.3.1.7.1 1.1.1 3.2.3 6.3.6 9.3 1.9 1.4.6 2.9.7 4.3 1.2 2.1.7 4.1 1.7 5.9 2.9.9.6 1.8 1.1 2.8 1.5 1.2.5 2 .2 2.7-.9.4-.8.7-1.6 1-2.4 1.1-3 2.3-5.9 4.1-8.6.1-.2.3-.5.4-.7 2.6-2.9 4.5-6.4 6.8-9.5.4-.5.7-1 1-1.6 1.5-2.5 3.1-5 4.6-7.4.4-.7.9-1.4 1-2.1.4-2 1.2-3.9 2.2-5.7 1.1-1.8 1.1-3.7.8-5.7-.2-1.5-.9-2.3-2.5-2.2-2.2.1-4.5.2-6.6.7-6.3 1.6-12.4 3.5-18.2 6.6-.7.4-1.4.7-2.2 1-2.5 1-4.7 2.4-6.9 4-1.5 1.1-3.1 2.1-4.7 3-.7.4-1.5.5-2.3.6-1 .1-1.7-.9-1.2-1.8.2-.4.4-.8.7-1.1 3.2-3.7 6.8-6.9 11.2-9.3 4.5-2.4 9.2-4.4 14.1-6.2 4.1-1.5 8.3-2.4 12.7-2.7 3.1-.2 6.2-.7 9.2-1 2.4-.2 4.7-.4 7.2-.1 2.4.3 3.6-.7 4.1-3.1.3-1.3.4-2.6.9-3.9.7-1.8.2-3.3-.8-4.7-.4-.5-.8-.9-1.3-1.4-.3-.3-.6-.6-.9-1-.8-1.3-.1-2.8 1.4-2.9.5 0 1.1 0 1.6.1 1.8.5 3.6.4 5.1-.7 2.6-1.9 6.8 0 7.6 2.9.5 2 1.6 3.2 3.6 3.9 1.7.6 2.3 1.9 1.9 3.6-.3 1.4-1.3 2.1-2.7 1.9-.7-.1-1.4-.3-2.1-.5-1.3-.3-2.5 0-3.5.8-2 1.8-3.6 3.9-4.2 6.6-.6 2.4.3 4 2.7 4.6 3.5.9 6.6.1 9.1-2.4 3.7-3.8 7.1-7.9 9.9-12.5.6-1 1.1-2 1.6-3.1.2-.5.4-1 .5-1.5.2-1.4-.2-2.2-1.5-2.8-.8-.4-1.7-.6-2.5-.9-5.6-2-10.6-5-14.7-9.3-1.6-1.7-3-3.5-3.5-5.8-1-4.4-1.3-8.8.1-13.1 1.1-3.5 3.1-6.4 6.1-8.5 2-1.4 4.2-2.6 6.3-3.9.5-.3 1.1-.6 1.7-.8 1.7-.7 9.8-2.6 11.6-2.6 4.5 0 9 .1 13.5.9 4 .7 7.9 2.1 11.4 4.2 3.5 2 6 5 7.6 8.7.6 1.4 1.1 2.8 1.7 4.2.8 2 .8 4.2.7 6.3-.2 3.2-.7 6.3-2.3 9.2-2.4 4.3-6.2 6.9-10.6 8.9-1.6.7-3.3 1.4-4.8 2.2-2.1 1-4.3 1.5-6.6 1.8-2 .3-4.1.5-6.1.5-2.1 0-3.5.9-4.4 2.8-.8 1.8-1.6 3.5-2.6 5.2-1.6 3-3.3 6.1-5 9-2.2 3.7-5.4 6.3-9.4 7.9-2.6 1.1-5.2 2.2-7.9 3.2-1.4.5-2.4 1.4-3.1 2.8-1.1 2.2-2.3 4.4-3.4 6.6-1.1 2.1-1.9 4.4-2.3 6.8-.5 3.1-1.4 6-2.6 8.9-.3.7-.6 1.5-.7 2.3-.3 1.5.4 2.2 1.8 2.3.6 0 1.2 0 1.8-.2.9-.2 1.6-.7 1.8-1.7.3-1.7 1.3-2.9 3-3.4 1.1-.4 1.6-1.1 1.9-2.3.4-2 .8-2.3 2.8-2.5 1.3-.1 2.4-.4 2.9-1.8.4-1.1 1.2-1.7 2.3-2.1 1-.3 1.7-.9 1.9-2 .4-1.9 1.8-2.7 3.6-2.9.4 0 .7-.1 1.1-.1 1.1-.2 1.9-.8 2.3-1.9.2-.6.4-1.2.6-1.7.7-1.4 2.1-2 3.6-1.3.7.3 1.3.9 2 1.3 1.5.9 2.4.7 3.2-.9.3-.6.6-1.3.9-1.9.5-1 1.1-1.8 2.1-2.4 1.2-.7 2.2-.6 3 .5.4.6.8 1.2 1.1 1.8.5.9 1.2 1.2 2.2 1 .3-.1.7-.2 1-.3 2.1-.5 3.6.4 4.4 2.4.2.6.4 1.2.5 1.8.4 2.6 1.7 4.6 3.4 6.5.6.7 1.4 1.4 2.1 2.1 3.6 3.3 6.6 7.2 9.2 11.3.8 1.3 1.8 2.4 3 3.3 2.7 2.3 4.9 5.1 6.5 8.3.2.3.3.6.5 1 .8 1.6.1 3.5-2.4 3.6-.8 0-1.7-.3-2.6-.6-.7-.2-1.3-.6-2-.8-.9-.2-1.6.5-1.4 1.4.2.7.5 1.3.7 2 .5 1.5-.4 2.4-2 2.2-1.4-.3-2.7-1-3.8-1.9-1.7-1.5-3.8-2.2-5.9-3-2.1-.8-4-.5-5.8.8-1.4 1-2.7 2-4.1 3-1.1.8-1.9 1.9-2.5 3.1-2.8 5.5-5.3 11.2-6.3 17.4-.7 4.5-1.5 8.9-2.4 13.3-.2 1.1-.5 2.2-.8 3.4-.1.6-.4 1.2-.4 1.8-.1 1.3.4 2 1.6 2.4.8.3 1.7.5 2.6.6 3.1.4 6 1.4 9 2.3.9.3 1.8.7 2.6 1.3 3.4 2.1 6.7 4.3 10 6.5.9.6 1.7 1.3 2.5 2 4.2 3.6 8.4 7.1 12.5 10.7 3.8 3.4 7.3 7.2 10.5 11.2.9 1.2 1.6 2.6 2.1 4 .3.9.4 1.9.3 2.9-.2 1.4-1.1 2.2-2.5 2.3-2.1.1-3.8-.5-5.2-2.1-2.6-3.2-5.2-6.2-7.8-9.4-4.4-5.5-9.5-10.2-15.3-14.3-1.1-.8-2.2-1.5-3.4-2.1-2.4-1.2-4.8-2.4-7.2-3.3-4.4-1.6-9-2.7-13.7-2.6-1.4 0-2.8.2-4.2.5-1.1.2-2.2.8-2.5 2.1-.2 1.4.7 2.1 1.7 2.7 1.1.7 2.4 1.2 3.5 1.9 2 1.2 4.1 2.2 5.9 3.6 4.3 3.3 7.1 7.5 8 13 .6 3.8-1.7 8.9-6.1 10.4-1.7.6-3.4 1.2-5.2 1.1-.6 0-1.2-.1-1.8-.2-2-.5-2.7-1.9-1.8-3.8.5-1.3 1.4-2.3 2.6-2.9.8-.5 1.7-1 2.4-1.6 1.8-1.6 1.9-3.8-.1-5.2-2.5-1.9-5.1-3.5-7.7-5.3-.9-.6-2-1.2-2.8-2-1-.9-2.1-1.6-3.4-2.1-2.9-1.1-5.7-2.6-8.8-2.9-2.5-.3-5.1-.7-7.7-.7-4.2 0-8.3.3-12.5.6-4.7.3-9.4.8-14.1.5-1.1-.1-2.3.1-3.5.1h-5c-2.3-.1-3.4.7-3.7 2.9-.3 2.2-.2 4.4-.3 6.6 0 .9 0 1.8-.1 2.6-.3 1.7-1.2 2.5-2.9 2.6-1.4.1-2.9.1-4.2-.5-2.2-.9-4.3-.6-6.3.6-1.1.6-2.3 1-3.4 1.5-.5.2-1 .3-1.5.4-1.5.1-2.6-1-2.4-2.5.1-.6.3-1.2.5-1.8.4-1.1.8-2.1 1.3-3.2.7-1.7 1.2-3.5 1.4-5.4.5-3.9 1.1-7.7 1.7-11.5.6-3.5.1-4.5-2.9-6.2-3.1-1.7-6.4-2.9-9.8-3.1-5.7-.4-11.3.3-16.6 2.8-2.5 1.2-4.4 3-5.4 5.6-.6 1.7-1.2 3.3-1.7 5-.2.7-.3 1.4-.5 2.1-.4 1.3-1.1 2.5-2.4 3-1.8.7-2.8 2.1-3.6 3.7-.5 1.1-1.2 2.2-1.7 3.3-2.6 6-5.9 11.7-9.2 17.4-1.2 2.1-2.8 4.1-4.4 6-3 3.9-6.3 7.7-10.1 10.9-2.4 2-5 3.7-8 4.7-.9.3-1.9.5-2.8.7-2.9.4-5.7-2.7-4.9-5.7.4-1.5 1-2.9 2.1-4 .9-.9 2-1.8 3-2.6 1.7-1.4 3.5-2.7 5.3-4 .8-.6 1.6-1.2 2.4-1.6 1.7-.9 3-2.1 4.2-3.6 2.5-3.1 4.7-6.5 6.5-10 2.5-4.7 4.5-9.6 6.1-14.7.5-1.5.7-3.1 1-4.7.6-.9.3-1.6.3-2.1zm90.2-48.4c.3.5.6.9.8 1.3.7 1.5 0 2.6-1.7 2.6-.7 0-1.4-.3-2.1-.4-1.9-.3-3.3.8-3.6 2.7-.2 1.2.4 1.9 1.6 1.9 1 0 1.9-.1 2.9 0 .7 0 1.3.6 1.3 1.1 0 .5-.5 1.2-1.1 1.3-.4.1-.9.2-1.3.1-.6-.1-1.2-.3-1.8-.6-1.7-.9-2.3.1-2.7 1.4-.1.3-.2.7-.1 1 .2 1.5-.5 2.5-1.4 3.5-.8.9-1.3 2.1-1.7 3.3-.4 1.3.2 2.3 1.4 2.7.7.2 1.4.4 2 .6.5.2.9.6.8 1.2-.1.6-.5 1-1.1 1-.7 0-1.4-.1-2.1-.2-.6-.1-1.2-.2-1.8-.2-.8.1-1.4.8-1.5 1.6-.1.8.4 1.1 1.1 1.3.3.1.7.2 1 .4 1 .5 1.2 1.5.4 2.4-.7.8-1.3.9-2.3.5-.2-.1-.4-.3-.7-.4-1.4-.6-2.4-.4-3.1 1-.7 1.4-1.3 2.9-1.7 4.4-.5 2.1.1 3.2 2.2 3.8 1.8.5 3.6 1 5.5 1 4.2.1 8.3.4 12.5-.1.8-.1 1.6-.2 2.4-.1 4.8.2 9.5-1.1 14.2-1.5.6-.1 1.2-.3 1.8-.5 4.6-1.4 8.8-3.7 12.9-6.2 1.2-.7 2.3-1.7 3-2.9.5-.7 1-1.5.7-2.6-.3 0-.7-.2-1-.1-1.2.3-2.4.5-3.7.4-.8 0-1.7.4-2.5.7-.6.3-1.2.8-1.8 1-.5.2-1 .4-1.5.4-.7 0-1.4-.6-1.5-1.2-.1-.7.1-1.2.7-1.6.4-.3.9-.6 1.4-.7 2-.4 3.9-1.2 5.7-2 1.7-.8 3.5-1.3 5.4-.5.7.3 1.3-.2 1.4-.9.1-.7 0-1.4 0-2.1-.1-1 .3-1.7 1.2-2.2.3-.1.7-.3 1-.4 1-.3 1.6-1.1 2-2 .2-.7.4-1.3.6-2 .7-3.3 1.5-6.6 2.2-9.8.1-.4.2-.9.3-1.3.1-1.1-.6-1.7-1.6-1.5-.8.2-1.5.5-2.3.6-.8.1-1.7-.6-1.8-1.3-.2-.7.1-1.2.6-1.7 1.6-1.3 3.2-2.5 5.5-2.1 1.6.3 2.8-.5 3.4-1.9.7-1.4 1.2-2.9 1.7-4.4.5-1.6.3-3-1.3-3.9-.1-.1-.3-.2-.4-.3-1.4-1.3-1.2-2.6.3-3.7.4-.3.9-.5 1.4-.8.7-.5.9-1.4.5-2.1-.5-.8-1.5-1-2.3-.5-.4.2-.7.5-1.1.8-1.3.9-2.4 1.1-3.1.3-.8-.9-.5-1.8.1-2.7.4-.7.9-1.3.7-2.3-1.3-1.3-3.1-2-4.8-3.1-.3-.2-.9-.3-1.3-.2-.7.3-1.4.7-2 1.2-.7.7-1.3 1.5-1.1 2.4.2.2.3.3.4.3.4.1.9.1 1.3.2.5 0 1.1 0 1.6.1.6.1 1 .9.8 1.4-.9 2.6-3.3 3.1-5 1.2-.1-.1-.2-.3-.3-.4-.7-.7-1.2-.9-2.1-.5-.6.3-1.3.7-1.7 1.2-1 1-.9 1.7.3 2.6.3.2.6.4.8.6.6.5.6 1.3.1 1.9-.8 1.1-1.9 1.3-2.9.4l-.6-.6c-1.2-1-2-1.2-3.3-.5-1.3.7-2.4 1.8-3.2 3.1-.2.4-.5.8-.1 1.3.7.1 1.5.2 2.2.4.9.2 1.3 1.4.8 2.1-.4.6-.9 1.1-1.5 1.5-.9.6-2 .3-2.6-.5-.4-.5-.5-1.1-.9-1.6-.2-.3-.7-.6-1.1-.6-1.1 0-2.1.4-2.9 1.1-.6.6-1.3 1.2-1.3 2.2.5.2.9.4 1.3.6 1.5.9 1.7 1.9.6 3.3-.2.3-.5.5-.7.8-.9.9-1.9.8-2.7-.2-.3-.4-.4-.9-.6-1.4-.2-.5-.2-1-.4-1.5-2.4-.4-4.4.3-6 1.8-1.2 1.1-2.5 1.8-4.1 2.2-1.8.4-3 1.1-3.9 2.6zm-58.5-13.9c.1.4.1.7.1.9.1.3.2.5.3.7.3 1.4-.5 2.3-1.9 2-1.2-.2-1.9-.9-2.3-2-.5-1.6-1.7-1.9-3.1-1.9-1.4 0-2.6.4-3.9.9-1 .4-1.9.9-3 1.2-4.1 1.2-7.1 3.8-9.8 7-2.7 3.3-3.1 7-2.2 11 .2.9.6 1.9.7 2.8.3 1.7 1 3.2 2 4.6 1.7 2.5 3.7 4.7 6.3 6.4 2.9 2 6 3.4 9.2 4.8 1.9.8 4 1.5 6.1 1.6 1.4.1 1.8-.2 2.2-1.6.1-.3.1-.5.2-.8.4-1.1 1.1-1.5 2.3-1.3 1.2.1 1.8.7 2.1 1.7.1.5.1 1.1.2 1.6 0 .8.5 1.3 1.2 1.6.3.1.7.2 1 .3 1.3.2 2.5-.1 3.4-1.1.8-.8 1.6-1.7 2.8-2 .9-.3 1.6 0 2.1.8.5.7.8 1.6 1.4 2.3 1.1 1.5 2.6 2.1 4.5 1.7 1.2-.3 2.4-.7 3.3-1.7-.1-.7-.3-1.4-.4-2.1-.2-1.4.9-2.2 2.2-1.6.5.2.9.5 1.4.8 1.4.8 2.2.6 3.3-.6 1.4-1.7 2.3-3.5 1.9-5.8-.1-.5-.1-1.1-.2-1.6-.1-.7 0-1.4.6-2 .9-.8 1.2-1.9 1.4-3.1.1-.6.3-1.2.5-1.8.3-1 .4-1.9-.1-2.8-.6-1.2-.7-2.3-.2-3.6.7-1.5.4-3-.7-4.2-.9-1.1-1.7-2.2-1.7-3.8 0-1.1-.7-1.8-1.7-2.2-.5-.2-1-.4-1.5-.5-1.5-.2-2.8-.8-4.1-1.7-1.3-.9-2.9-1.3-4.5-1.6-1.3-.2-1.9.4-1.5 1.6.5 1.8.6 3.7 2.1 5 .4.4.2 1-.1 1.4-.6.6-1.2 1-2.1.7-1.2-.4-1.9-1-1.9-2.2.1-1.5-.5-2.5-1.7-3.3-.8-.6-.8-1.1-.3-2.1.4-.7.8-1.3 1.1-1.9-.7-1.5-2-2-3.3-2.3-1.4-.4-2.9-.6-4.5.2.2.5.4.9.4 1.3.5 2-.1 2.7-2.1 2.5-.6-.1-1.2-.2-1.8-.4-.5-.1-1-.5-1.1-1.1-.1-.7.1-1.2.7-1.6.5-.4 1.1-.7 2.2-1.3-2.9-.2-5.2-1.3-7.5.2zm106.3-83.8c-1-1.4-2-2.7-2.9-4.1-.6-1-1.2-2-1.6-3-.8-2-.7-4 .6-5.8l1.2-1.8c.8-1.3 1.9-2.1 3.2-2.7 3.3-1.6 6.8-1.9 10.4-1.6 3.2.3 5.5 2.3 7.2 4.9.3.5.5 1.1.6 1.7.7 3.5-.7 6.8-3.8 8.6-1.3.8-2.7 1.4-4 2.1-.5.3-1.2.5-1.6.9-.4.3-.7.9-.7 1.3 0 .7.6 1 1.2 1.2.4.1.9.2 1.3.2 1.4.1 2.8-.3 4.1-.9 3-1.6 5.2-3.9 6.9-6.8 1.3-2.2 1.8-4.6 1.6-7.1-.2-2.7-1.3-4.9-3.5-6.6-2.3-1.7-4.7-3.1-7.6-3.6-2-.4-4-.7-6-.9-5.8-.6-10.6 1.5-14.4 5.8-2 2.3-3.1 8-2.1 10.8 0 .1.1.2.1.2 1.6 4.3 4.9 6.6 9.3 7.2 0 .4.2.2.5 0zm-4.8-26.1c-.6-.2-.8-.4-.9-.4-4.9.2-9.1 2.1-12.3 5.9-1.2 1.4-2 3.1-2 5.1 0 2.2-.1 4.4.2 6.6.4 3.9 2.4 7 5.5 9.3.8.6 1.7 1.2 2.7 1.7 2.8 1.6 5.6 3.1 8.4 4.6.6.3 1.3.4 2 .5.6.1 1.1-.3 1.2-.8.1-.4-.1-1-.4-1.2-.8-.6-1.6-1.2-2.5-1.5-2.2-.8-4.1-2.1-6-3.4-1.2-.8-2.1-1.9-2.8-3.1-.7-1.4-1.5-2.8-2.1-4.3-2-5.1-.4-10.9 3.7-14.4 1.3-1.1 2.6-2.1 3.9-3.1.6-.4.9-.9 1.4-1.5zm-31.5 74.5c-.1-.6-.2-1.2-.4-1.8-.4-1.4-1.7-2-2.9-1.3-.6.3-1.2.8-1.5 1.4-.5.9-.9 1.9-1.3 2.9-.7 1.6-1.1 3.4-2 4.9-2.9 4.9-4.4 10.4-6.1 15.8-.3.8-.3 1.7-.3 2.6 0 1.2.8 2.3 1.5 2.3.9 0 1.4-.7 1.8-1.4.8-1.2 1.6-2.3 2.3-3.5 1.3-2.1 2.7-4.2 3.9-6.3.5-.9.9-2 1-3 .1-2.2 1-4.1 2.1-5.9 1.4-2.1 2-4.3 1.9-6.7zm62.2-68.9c0 1.7.3 2.9.7 4 .9 2.9.9 5.7.4 8.6-1 5.7-4.8 9.2-9.5 12-.4.2-.8.3-1.3.4-2.2.7-4.5 1.1-6.8 1-.7 0-1.4.2-2.1.4-.6.2-1 .7-1 1.4s.5 1.1 1.1 1.4c1.1.5 2.2.5 3.4.3 2.1-.4 4.1-1 6.1-1.9 1.2-.6 2.4-1.1 3.7-1.5 5.5-1.9 8.9-5.9 11.3-10.9.3-.5.4-1.2.4-1.8.1-1.2.2-2.5.1-3.7-.1-2.4-.7-4.7-2.2-6.7-1-1.4-2.2-2.5-4.3-3zm-19.4 5.5c-3.3.2-6.5 2.8-7.2 5.7-.3 1.3-.2 2.6.7 3.8.8 1 1.8 1.5 3 1.1 1.3-.5 2.6-.5 3.9-.1.9.2 1.8.1 2.6-.3 2-1.1 3.4-2.8 3.8-5.1.3-1.4-.2-2.6-1.5-3.4-1.8-1.2-3.7-1.6-5.3-1.7zm-43.2 93.3c1.2 0 1.9-.9 1.9-2.4 0-.8-.3-1.6-1.1-2-.5-.3-1.4.2-2 1-.3.4-.5 1-.6 1.5-.1 1.1.7 1.9 1.8 1.9zm54.6-8.2c-.4-.2-.7-.4-.9-.4-.1 0-.4.3-.4.5 0 .5.3.6.7.5l.6-.6z"/><path class="st5" d="M327.3 134.8c.4.6.9 1.1 1.3 1.7.6.8.6 1.7.1 2.5-.5 1-1.3 1.6-2.5 1.6-.6 0-1.2-.6-1.2-1.2 0-.5 0-1.1.1-1.6.3-1.2 0-2.2-.8-3.2-1.3-1.5-1.1-2.4.5-3.4.7-.4 1.4-.8 2.2-1 1-.3 1.8.6 1.4 1.6-.2.6-.5 1.1-.8 1.7-.1.4-.2.8-.3 1.3zm-11.2 6.7c-.6-.2-1.3-.4-1.9-.7-.7-.3-.8-1.2-.3-1.8 1.1-1.2 2.5-2 4-2.3.7-.2 1.4.5 1.5 1.2.1 1.2-1.1 3.1-2.1 3.4-.4.1-.8.1-1.2.2zm-16.3 4.8c.5.1.9.2 1.2.3.7.2 1.1 1 .8 1.7-.6 1.1-1.5 1.9-2.7 2.3-1.1.4-2.8-.7-3-1.9-.1-.6.2-1.1.7-1.3 1-.4 2.1-.7 3-1.1zm-4.7 30.8c-1.8.1-3-1.2-2.4-2.8.2-.6.6-.9 1.2-.9 1.2.1 2.5.2 3.7.4.4.1.8.4 1 .8.3.5-.1 1-.5 1.4-.9.8-1.9 1.1-3 1.1zm-12.3 1.5c-.7-.2-1.8-.5-2.8-.9-.4-.2-.8-.7-.9-1.2-.3-.9.6-1.9 1.5-1.6 1.2.3 2.3.8 3.5 1.2.6.2 1 .8.9 1.5-.2.6-.9 1.1-2.2 1zM323 143c-.1.4-.1.8-.2 1.1-.6 1.1-1.5 1.8-2.7 2-.9.2-1.8-.4-2-1.3-.3-1.1.1-2.1.9-2.5 1.1-.5 2.3-.5 3.4-.1.2.2.4.6.6.8zm-23.9 8.9c.6.1 1 .1 1.3.2.8.2 1.3.8 1.4 1.4.1.7-.3 1.2-.8 1.6-1 .7-2.1.9-3.2.4-1-.5-1.2-1.7-.5-2.4.6-.6 1.3-.9 1.8-1.2zm10.4 11.4c.5.2 1 .2 1.3.5.3.2.5.6.5.9 0 1.1-.8 1.8-1.6 2.2-.7.4-1.5.4-2.2-.2-.9-.7-1-1.8-.1-2.4.7-.5 1.4-.7 2.1-1zm-9.6 6.2c-.4-.1-1-.2-1.5-.6-.3-.2-.6-.7-.6-1.1 0-.4.4-.8.7-1 1.1-.5 2.2-.6 3.4-.3.8.2 1.1 1.2.6 1.9-.7.8-1.5.9-2.6 1.1zm9.7-13.9c.4.1.9.1 1.2.3.3.2.6.7.6 1.1-.1 1.5-1.9 2.5-3.3 1.8-.6-.3-1-.8-.9-1.5.1-.5.5-.9.9-1.2.3-.3.9-.3 1.5-.5zm-.5-10.4c-.9.1-1.8-.4-2.1-1.1-.3-.7 0-1.2.4-1.7.6-.7 1.3-1.2 2.3-1 1 .1 1.6 1 1.2 1.9-.3.9-.9 1.6-1.8 1.9zM293.5 171c.1 1.2-.7 1.9-1.8 1.6-.6-.2-1.3-.6-1.8-1-.7-.5-.5-1.5.3-1.9.7-.3 1.3-.4 2-.2.8.3 1.2.8 1.3 1.5zm7.4-31.7c.4.1 1.1.3 1.9.6.4.2.5 1 .3 1.4-.9 1.4-3 1.4-3.9 0-.6-.9-.2-1.8.9-1.9.1 0 .2 0 .8-.1zm-.7 22.3c-.1.3-.2.7-.4.9-1 1.2-2.9 1-3.9-.3-.3-.4-.2-1.1.3-1.4 1.2-.6 2.4-.6 3.5 0 .2.3.3.6.5.8zm32.6-28.5c0-1.2 1.6-2.4 2.8-2.1.5.1.9.7.9 1.2-.1 1-1 2.1-1.9 2.3-.8.2-1.8-.5-1.8-1.4zm-23.3 39c-.1.3-.1.6-.3.8-.9 1.2-2.7 1.4-3.7.3-.5-.5-.3-1.5.4-1.8.9-.3 1.9-.4 2.9-.1.3.2.5.6.7.8zm9.2-18.5c-.9.1-1.5-.3-1.8-.8-.2-.5 0-1.3.5-1.6.3-.2.6-.4.9-.5.8-.3 1.5 0 1.8.6.3.6.1 1.4-.6 1.8-.2.3-.6.5-.8.5zm15.2-27.5c-.8.1-1.5-.6-1.5-1.4 0-.9.8-1.6 1.7-1.6.8 0 1.5.5 1.6 1.1 0 .9-.8 1.9-1.8 1.9zm-6.8 30c.1 1-.5 1.9-1.3 2.2-.6.3-1.4 0-1.8-.7-.2-.3-.3-.7-.2-1 .3-1.1 1.8-1.7 2.7-1.2.3.2.5.6.6.7zm1.7-10c0 1-.4 1.7-1.1 2.1-.6.4-1.4.3-2-.2-.7-.6-.7-1.6.1-2 .7-.4 1.5-.6 2.3-.4.3.1.5.4.7.5zm-20.4 3.8c-.1-.8.5-1.6 1.3-1.7.8-.1 1.7.4 1.8 1.2.1.8-.5 1.5-1.3 1.7-.9.1-1.7-.4-1.8-1.2zm25.6 1.7c.1.6-.5 1.3-1.3 1.4-.9.1-1.8-.6-1.9-1.4 0-.5.6-1.1 1.2-1.2.9-.2 1.9.4 2 1.2zm-45.7 4.4h.6c.7.1 1.2.7 1.1 1.2-.1.6-.5 1-1.1 1-.5 0-1.1 0-1.5-.3-.4-.2-.8-.8-.8-1.2 0-.6.7-.7 1.2-.8.2.1.3.1.5.1zm29.4 6.2c-.2-.2-.6-.6-.7-1-.2-.5.4-1 1-1 .5 0 1 .5 1 1s-.5 1-1.3 1zM262.8 152c-.3-1-.6-1.6-.8-2.3-.2-.6 0-1.2.5-1.7.4-.4.9-.6 1.4-.3.6.4 1.2.8 1.7 1.3.7.7.9 1.6.4 2.4-.8 1.1-.6 2.1-.3 3.3.4 1.4.3 1.5-1 2.3-.3.2-.6.4-1 .6-.1.7-.2 1.4-.4 2.1-.3 1.2-1.3 1.7-2.4 1.1-.4-.2-.8-.5-1.1-.8-.4-.4-.5-.9-.2-1.4.3-.4.7-.8 1-1.2.2-.4.5-.8.5-1.2-.1-1.7.6-3 1.7-4.2zm-12-.8c-.8.6-1.6 1.2-2.3 1.7-.5.8 0 1.5.2 2.3.3 1.1-.2 1.9-1.4 2-.9.1-1.7-.3-2.4-.9-.7-.6-.8-1.3-.3-2.1.1-.2.2-.3.3-.4.8-.7.9-1.6.8-2.6-.1-1.6 1-2.5 2.5-2.1 1.2.2 2.1.8 2.6 2.1zm2.6 9.3c-.4-.9-.8-1.5-1.1-2.1-.3-.6-.3-1.2.3-1.7s1.2-.8 1.9-.4c.9.4 1.6 1.1 1.9 2-.1 1.4-1.6 1.5-2.3 2.5.4.7.8 1.5 1.1 2.3.3.7-.1 1.5-.9 1.6-1.1.1-2.3 0-3.4-.1-.7-.1-1.1-1-.8-1.7.2-.4.6-.8 1-1.2.3-.3.8-.4 1.1-.7.4 0 .7-.2 1.2-.5zm-21.7-3c1.5 0 2.8.3 3.8 1.3.4.4.6.9.4 1.4-.2.5-.7.9-1.3.8-1.5-.3-2.9-.7-4.3-1.1-.3-.1-.6-.7-.6-1-.1-.6.4-1 .9-1.1.3-.3.8-.3 1.1-.3zm30.1-17.9c-1.3-.6-2.7-1.1-3.8-2.1.2-1.4 1.2-1.9 2.4-2 1.1-.1 1.7.7 2.2 1.6.4.8.3 1.3-.8 2.5zm-17.4 23.3c-.9-.2-2-.4-3.1-.7-.3-.1-.7-.6-.7-1s.2-.9.6-1.1c1.3-.9 3.7-.4 4.7 1 .4.5.1 1.3-.5 1.5-.3.1-.5.1-1 .3zm-6-7.2c-.9 0-2-.1-2.8-.9-.5-.5-.5-1.2-.1-1.7.7-.8 1.6-1.1 2.6-.8.9.2 1.5.9 1.7 1.8.3.8-.3 1.5-1.4 1.6zm25.8-12.4c.1 1-.7 1.8-1.5 1.6-.7-.2-1.5-.5-2.1-.9-.6-.3-.8-1-.4-1.6.3-.5.8-.9 1.2-1.3.2-.1.5-.2.7-.1 1.1.5 1.8 1.3 2.1 2.3zm-26.1-2.8c1.1 0 1.9.1 2.6.8.6.5.5 1.4-.1 1.8-1 .7-3 .5-3.9-.4-.4-.4-.4-1.3.1-1.6.5-.4 1-.5 1.3-.6zm-14.7 19.6c-1-.2-1.9-.4-2.8-.7-.5-.2-.9-.7-.7-1.2.1-.4.5-.8.8-.9 1.1-.4 2.2-.2 3.3.4.6.4 1 1.1.7 1.5-.3.3-.8.5-1.3.9zm22.1-16.8c.3-.3.5-.9.9-1 1.3-.5 2.9.3 3.5 1.5.3.6-.1 1.3-.7 1.4-1.3.3-2.4-.2-3.3-1.1-.2-.1-.2-.4-.4-.8zm-17.6-3c-1.2-.1-2.1-.5-2.8-1.1-.6-.5-.4-1.4.3-1.7 1.2-.5 3.3.4 3.7 1.7.1.2-.1.7-.4.9-.2.1-.6.1-.8.2zm28 4.8c.5.1.9.2 1.3.4.7.3 1 1 .9 1.7-.1.7-.6 1.1-1.2 1.2-1.2.3-2.5-.8-2.6-2 0-.3.2-.7.4-.9.4-.2.8-.2 1.2-.4zm-40.3-1.7c-.3.2-.6.7-1.1.7-1.1.2-2-.2-2.8-1.1-.4-.5-.3-1.3.2-1.6 1.2-.7 3.3.1 3.6 1.5.1.1.1.2.1.5zm32.2-7.3c-.3.3-.6.9-1 1-1.3.6-3.2-.8-3-2.3.1-.4.3-.9.8-.8 1.1 0 2 .4 2.8 1.2.1.2.2.5.4.9zm-14.7 10.7c0 .8-1.2 1.7-2.3 1.7-.7 0-1.3-.8-1.4-1.7-.1-.8.5-1.6 1.4-1.6 1.1-.1 2.3.6 2.3 1.6zm4.3 1.4c.1-.2.2-.5.4-.8 1-1 2.7-.6 3.3.7.1.2.1.5.1.8-.2.8-1.1 1.3-2.1 1.2-.8-.1-1.6-.9-1.7-1.9zm18.3 5.3c-1.2.1-1.9-.3-2.5-1.1-.3-.4-.3-.9.1-1.1.5-.3 1-.6 1.6-.8.6-.2 1.2.1 1.6.6.4.5.6 1.1.2 1.7-.2.3-.8.5-1 .7zm-25.6-4.4c.3.8.6 1.3.8 1.9.1.5-.1 1-.6 1.3-.7.4-1.6.1-2.1-.6-.3-.5-.2-1 .1-1.4.2-.2.3-.4.6-.5.3-.3.6-.4 1.2-.7zm-10.2-9.6c-1-.1-1.7-.2-2.3-.8-.2-.2-.3-.7-.2-.9.1-.3.4-.6.7-.6.8-.2 1.5.1 2.2.6.3.3.7.6.4 1.1-.2.2-.6.4-.8.6zm3.7 5.7l-.3.6c-.2.2-.4.3-.7.3-1 .1-1.8-.4-1.9-1.3-.1-.5.3-1 .9-1.1.9-.2 1.8.3 2.1 1.2-.1 0-.1.1-.1.3zm-2.2 6.6c-1 0-1.7-.4-1.9-1.1-.1-.5.3-1 .8-1.1 1-.2 1.9.3 2.1 1.1.1.3-.1.6-.3.9-.2.2-.5.2-.7.2zm15.1-15c-.4-.1-.8-.2-1.1-.3-.5-.2-.7-.9-.4-1.3.2-.3.7-.6 1-.6.4 0 .8.3 1.1.6.2.2.4.7.3.9-.2.2-.6.4-.9.7zM213.9 150c-1 .1-1.7-.5-1.7-1.1 0-.4.5-.9 1.1-1 .8-.1 1.6.5 1.4 1.1-.1.4-.6.7-.8 1zm8.7-17.6c.3-.1.5-.4.7-.3.2 0 .3.3.4.5-.2.1-.4.3-.6.3-.1 0-.2-.3-.5-.5z"/></svg>