<svg id="Capa_1" data-name="Capa 1" xmlns="http://www.w3.org/2000/svg" viewBox="0 0 500 300"><defs><style>.cls-2,.cls-3,.cls-4{fill:none}.cls-2{stroke:#19a500}.cls-2,.cls-3,.cls-4{stroke-linecap:round;stroke-linejoin:round;stroke-width:4px}.cls-3{stroke:#fff}.cls-4{stroke:#a1d005}.cls-6{fill:#00bc00}</style></defs><path fill="none" d="M0 0h500v300H0z"/><g id="Grupo_6330" data-name="Grupo 6330"><g id="Grupo_6103" data-name="Grupo 6103"><path id="Línea_651" data-name="Línea 651" class="cls-2" d="M100.85 239h18.21"/><path id="Línea_652" data-name="Línea 652" class="cls-3" d="M90.15 239h18.2"/><path id="Línea_653" data-name="Línea 653" class="cls-4" d="M68.21 239h9.11"/></g><g id="Grupo_6104" data-name="Grupo 6104"><path id="Línea_652-2" data-name="Línea 652-2" class="cls-3" d="M93.83 249h-8.42"/><path id="Línea_653-2" data-name="Línea 653-2" class="cls-4" d="M115.76 249h-9.1"/></g></g><g id="Grupo_6331" data-name="Grupo 6331"><g id="Grupo_6103-2" data-name="Grupo 6103-2"><path id="Línea_651-2" data-name="Línea 651-2" class="cls-2" d="M408.12 249h-18.21"/><path id="Línea_652-3" data-name="Línea 652-3" class="cls-3" d="M418.83 249h-18.21"/><path id="Línea_653-3" data-name="Línea 653-3" class="cls-4" d="M440.76 249h-9.1"/></g><g id="Grupo_6104-2" data-name="Grupo 6104-2"><path id="Línea_652-4" data-name="Línea 652-4" class="cls-3" d="M415.15 239h8.41"/><path id="Línea_653-4" data-name="Línea 653-4" class="cls-4" d="M393.21 239h9.11"/></g></g><g id="Grupo_6973" data-name="Grupo 6973"><path id="Trazado_3229" data-name="Trazado 3229" class="cls-6" d="M342.82 211.47c-1 1.19-1.9 2.44-2.93 3.62a3.14 3.14 0 01-3.84 1c-1.44-.54-2.09-1.56-2-3.4 0-1.27.2-2.53.32-3.9a20.89 20.89 0 00-7.5-3.15 1.92 1.92 0 00-2.21.95 42.24 42.24 0 00-2.07 4.22 6 6 0 01-2.6 3.27c-.79.45-1.25 1.47-1.87 2.23a3.23 3.23 0 01-3.85 1 2.6 2.6 0 01-2.18-2.79 22.51 22.51 0 011.42-9.26c1.55-4.16 1.43-4.42-2.63-5.95-3.75-1.42-7.58-2.6-11.3-4.07-4-1.58-8-3-11.2-6.17-.79-.78-2-1.1-2.94-1.74a19.88 19.88 0 01-3.36-2.63c-1.43-1.53-1.34-3.09.08-4.59a18.36 18.36 0 012.62-2.21c5.46-3.95 10.77-8 15.12-13.3a41.83 41.83 0 015.39-4.91q11.63-9.84 23.33-19.63a6.91 6.91 0 012.48-1.56 4 4 0 002.84-2.92 116 116 0 018.26-17c2.43-4.19 2.27-4.69-2.05-6.78-2.45-1.18-5-2.19-7.43-3.36a42.23 42.23 0 01-11.05-7.34 27.47 27.47 0 01-3.32-3.91 2 2 0 01.5-2.7 2 2 0 01.78-.32 7.47 7.47 0 015.46.25A39.92 39.92 0 00333.7 97a62.66 62.66 0 0112.05 4.5c3.51 1.58 7.12 3 10.7 4.42a1.88 1.88 0 002.32-.63 34.56 34.56 0 003.15-5 4.88 4.88 0 00-.09-2.88c-.37-1.66-1.09-3.26-1.35-4.94a8.25 8.25 0 012.3-7.49 66.07 66.07 0 003.23-3.46 8.85 8.85 0 017.28-3 41.49 41.49 0 0114.2 3.1 7.21 7.21 0 014.41 5c2.12 7.39.26 13-5.33 17.72a21.13 21.13 0 01-3.95 2.58 6.51 6.51 0 01-5.36.56 57.12 57.12 0 00-6.33-1.38c-1.87 2.1-2.05 4.7-3 7.23a13.75 13.75 0 002.32 1.27c3.55 1.08 7.17 1.92 10.43 3.8a15.83 15.83 0 002.86.9c6.75 2.34 13.52 4.62 20.24 7.07a22.16 22.16 0 014.85 2.7c1.26.86 1.35 2 .63 3.42-1.15 2.2-2.91 3.16-5.33 2.46a72.63 72.63 0 01-10.54-3.57c-4.07-1.88-8.41-2.8-12.55-4.37-.35-.14-.82.07-1.2.12-1.18 1.12-1.34 2.59-1.54 4-1.05 7.29-3.91 14.05-6.09 21-.69 2.18-1.5 4.31-2.28 6.46a6.49 6.49 0 00-.06 4.22 31.44 31.44 0 011 8.07c.18 3.42.63 6.84 1 10.25a86.94 86.94 0 011 8.95c0 6.15-.16 12.32-2.9 18.06-.49 1-.74 2.16-1.14 3.24-1.11 3-2.46 3.9-5.51 3.39-6.48-1.08-12.95-2.2-19.43-3.29a5 5 0 00-.87-.01zm-40.9-26.82l4.67 1.71c3.08 1.15 6.15 2.33 9.24 3.44s5.91 2.13 8.9 3.1c4.48 1.46 9.12 2.53 13.46 4.34 6.25 2.6 12.84 3.91 19.28 5.77a1.6 1.6 0 002.13-.8 1.56 1.56 0 00.14-.48c.48-4.83 1.72-9.57 1.39-14.49-.47-6.84-.62-13.72-1.39-20.53a40.09 40.09 0 01.41-13.6 89.58 89.58 0 012.4-9.1c1.77-5.13 3.81-10.16 5.7-15.25a21.71 21.71 0 00.82-2.89c.3-1.4-.16-2.22-1.58-2.49a51.89 51.89 0 01-10.29-2.94c-1.86-.77-2.57-.4-3.28 1.46-3.16 8.28-5.64 16.82-9.95 24.63-.92 4.19-3.9 6.87-6.94 9.53-2.15 1.88-4.28 3.78-6.43 5.66a18.36 18.36 0 01-2.35 1.87A78.93 78.93 0 00317 172.1a9.07 9.07 0 01-1.73 1.27c-4.34 2.32-7.69 5.92-11.51 8.91a14 14 0 00-1.82 2.37zm75.22-84.79a10.78 10.78 0 004.72-4.56c1.48-2.75.87-5.57-1.55-7.74-1.55-1.38-5.92-1.58-7.71-.3a3.89 3.89 0 00-1.14 1.25 6.82 6.82 0 00-.17 6.95c1.24 2.28 3.24 3.51 5.85 4.4z"/><path id="Trazado_3230" data-name="Trazado 3230" class="cls-6" d="M213 144.78a7.45 7.45 0 00.7 4.38 21.74 21.74 0 011.16 6.74c.08 2.71.41 5.42.67 8.13.82 8.55 2 17.08 2.4 25.65.5 10.43.72 20.91-1.12 31.28-.28 1.55-.32 3.15-.63 4.68-.67 3.23-3.35 4.38-6.19 2.73a6.05 6.05 0 01-3.07-5.74c.05-5.3.05-10.6.05-15.9 0-9 .24-18-.1-27.06a133.28 133.28 0 00-2.65-20.86c-1.14-5.75-2.36-11.5-2.31-17.41 0-2.7-.57-5.05-3.12-6.64a5.08 5.08 0 01-1.91-2.78 7.67 7.67 0 00-3.41-4.24c-.93-.66-1.8-1.42-2.75-2.06a14.28 14.28 0 01-5.05-5.63c-1.79-3.54-4.3-6.72-6.44-10-1.73-.24-3.4-.14-4.77-.74a6.19 6.19 0 00-5.74.48c-1.65.85-3.28 1.75-5 2.53a5.16 5.16 0 01-6.27-1.11c-1.67-1.69-1.57-3.15.34-4.58q4.47-3.34 9-6.66c3.7-2.74 5.17-6.74 6.16-11a2.13 2.13 0 00-1-1.68 40.33 40.33 0 00-3.94-1.7 29.65 29.65 0 01-3.9-1.76 15.48 15.48 0 01-3.28-2.7c-1.27-1.42-1.57-3.14-.86-3.9a3.87 3.87 0 014-1 13.43 13.43 0 015.51 2.26 10.86 10.86 0 002.5 1.15c1.75-1.5 1.55-3.3 1.56-5a8.47 8.47 0 00-1.54-5.55 14.5 14.5 0 01-2.64-5.35 5.77 5.77 0 010-1.66c1.25-1.2 2.69-.89 4.08-.68a6 6 0 013.52 2.29c1.33 1.49 2.7 2.94 4.13 4.33a8.88 8.88 0 001.77 1.07c1.92-.8 2.61-2.42 3.19-4 1.07-3 2-6 2.94-9 .23-.67.43-1.36.6-2 .64-3 2.12-3.31 4.75-2.93s4 2 3.73 4.8c-.27 3.43-.67 6.84-.91 10.27a40.07 40.07 0 000 5.14 1.47 1.47 0 001.49 1.44 1.59 1.59 0 00.7-.19 22 22 0 003.28-2 32.71 32.71 0 018.06-4 7.46 7.46 0 018 1.35 2.21 2.21 0 01.54 3.06 4.91 4.91 0 01-2.49 2.24c-2.17 1.1-4.33 2.21-6.48 3.35a12.52 12.52 0 00-1.82 1.12 1.59 1.59 0 00-.24 2.23v.06a4.8 4.8 0 001 .82c3.11 1.77 6.24 3.51 9.35 5.27 1.74 1 3.52 1.92 5.17 3 2.5 1.68 2.58 4.21.16 5.9-3.6 2.5-7.53 3.47-11.79 1.87-1.47-.55-2.84-1.34-4.28-2s-2.55-.25-2.9 1.38a23.38 23.38 0 01-3 8c-2.51 4-5.55 7.29-10.14 8.86a5 5 0 00-1.09.65 3.26 3.26 0 00-.42.59 13.19 13.19 0 001.1 1.48 30.52 30.52 0 0011.2 7.77A46.91 46.91 0 01219 134.3a39.73 39.73 0 007.67 5.46c3.41 2.1 6.66 4.46 10 6.6 2.53 1.6 5.17 3 7.77 4.54q4.27 2.46 8.56 4.9c1.74 1 3.47 2 5.23 2.95s3.33 1.66 4.92 2.63a6.26 6.26 0 012.75 7.77 10.25 10.25 0 01-9.25 6.54 8.13 8.13 0 01-2.88-.71 3.08 3.08 0 01-2-3.07c0-.71.21-1.41.28-2.12.18-1.69 0-2.2-1.37-2.71-5.72-2.08-10.49-5.86-15.78-8.7a28 28 0 01-4.24-2.92c-5.18-4.1-11-7.22-16.6-10.67-.14-.12-.49-.01-1.06-.01zm-22.69-40.58c.26-.08.61-.08.79-.25a20.13 20.13 0 005.64-11.29 8.39 8.39 0 00-3.5-8.5c-3.85 2.4-5.86 5.32-6.22 8.87-.34 3.2 1.08 7.97 3.29 11.17z"/><path id="Trazado_3231" data-name="Trazado 3231" class="cls-6" d="M167.36 142.82a15.71 15.71 0 00-2.66 1.56c-5.76 5.58-11.46 11.21-17.19 16.81-1.33 1.3-2.7 2.56-4 3.85a26.62 26.62 0 00-6.75 10.32 5.76 5.76 0 01-6.27 4 4.15 4.15 0 01-3.19-1.93c-.79-1.18-1.48-2.43-2.27-3.73a14.45 14.45 0 00-2-.46c-2-.15-3.06-1.39-4-2.92a1.84 1.84 0 01.28-2.59 2 2 0 01.51-.29 17.71 17.71 0 014.4-1.6 42.21 42.21 0 004.38-1.56c3.8-1.11 6-3.88 8.57-6.6 7.51-8 15.3-15.86 22.92-23.82 2.87-3 5.56-6.15 8.38-9.2a38.58 38.58 0 014-3.87 16.81 16.81 0 013.67-2.13 4.46 4.46 0 014.47.68c1.16.78 2 2 1.35 3.28-.78 1.69-.39 3.35-.47 5a55.06 55.06 0 01-.73 6.39 194.63 194.63 0 00-3 25.12c-.24 6.29-.35 12.58-.68 18.86-.3 5.86-.79 11.7-1.26 17.55-.52 6.42-1.1 12.83-1.68 19.24a14.87 14.87 0 01-.58 3.37 3.66 3.66 0 01-4.52 2.51 3.6 3.6 0 01-1.67-1 6.11 6.11 0 01-2.14-4.09 18.45 18.45 0 010-3.86 100 100 0 00.61-12 133.52 133.52 0 011-14.12 172.56 172.56 0 00.8-37.26c-.15-1.57-.17-3.14-.28-5.51z"/></g></svg>