<svg id="Capa_1" data-name="Capa 1" xmlns="http://www.w3.org/2000/svg" viewBox="0 0 500 300"><defs><style>.cls-2{fill:#19a500}.cls-3{fill:#fff}.cls-4{fill:#a1d005}.cls-5{fill:#feec35}.cls-6{fill:#00bc00}</style></defs><path fill="none" d="M0 0h500v300H0z"/><g id="Grupo_6330" data-name="Grupo 6330"><g id="Grupo_6103" data-name="Grupo 6103"><path class="cls-2" d="M133.83 273.5h-18.21a2 2 0 010-4h18.21a2 2 0 110 4z" id="Línea_651" data-name="Línea 651"/><path class="cls-3" d="M123.12 273.5h-18.2a2 2 0 010-4h18.2a2 2 0 010 4z" id="Línea_652" data-name="Línea 652"/><path class="cls-4" d="M92.09 273.5H83a2 2 0 010-4h9.11a2 2 0 110 4z" id="Línea_653" data-name="Línea 653"/><path class="cls-5" d="M70.18 273.5a2 2 0 01-.76-.15 1.92 1.92 0 01-.65-.44 2 2 0 01-.59-1.41 2 2 0 012.39-2 1.66 1.66 0 01.38.11 1.63 1.63 0 01.34.19 2.34 2.34 0 01.31.24 2 2 0 01.58 1.42 1.72 1.72 0 010 .39 1.58 1.58 0 01-.11.37 2.31 2.31 0 01-.18.35 2.48 2.48 0 01-.25.3 2 2 0 01-1.46.63z" id="Línea_654" data-name="Línea 654"/></g><g id="Grupo_6104" data-name="Grupo 6104"><path class="cls-3" d="M108.59 283.5h-8.41a2 2 0 010-4h8.41a2 2 0 110 4z" id="Línea_652-2" data-name="Línea 652-2"/><path class="cls-4" d="M130.53 283.5h-9.11a2 2 0 010-4h9.11a2 2 0 010 4z" id="Línea_653-2" data-name="Línea 653-2"/><path class="cls-5" d="M143.33 283.5a2 2 0 01-1.42-.59 2 2 0 01-.58-1.41 1.72 1.72 0 010-.39 1.66 1.66 0 01.11-.38 1.63 1.63 0 01.19-.34 1.55 1.55 0 01.55-.55 1.63 1.63 0 01.34-.19 1.66 1.66 0 01.38-.11 2 2 0 011.8.54 2.42 2.42 0 01.25.31 2.21 2.21 0 01.18.34 2.4 2.4 0 01.12.38 2.58 2.58 0 010 .39 2 2 0 01-.59 1.41 1.42 1.42 0 01-.3.25 1.7 1.7 0 01-.35.19 1.58 1.58 0 01-.37.11 1.72 1.72 0 01-.31.04z" id="Línea_654-2" data-name="Línea 654-2"/></g></g><g id="Grupo_6331" data-name="Grupo 6331"><g id="Grupo_6103-2" data-name="Grupo 6103-2"><path class="cls-2" d="M422.89 283.5h-18.21a2 2 0 010-4h18.21a2 2 0 010 4z" id="Línea_651-2" data-name="Línea 651-2"/><path class="cls-3" d="M433.59 283.5h-18.2a2 2 0 010-4h18.2a2 2 0 010 4z" id="Línea_652-3" data-name="Línea 652-3"/><path class="cls-4" d="M455.53 283.5h-9.11a2 2 0 010-4h9.11a2 2 0 010 4z" id="Línea_653-3" data-name="Línea 653-3"/><path class="cls-5" d="M468.33 283.5a2 2 0 01-1.42-.59 2 2 0 01-.58-1.41 1.72 1.72 0 010-.39 1.66 1.66 0 01.11-.38 1.63 1.63 0 01.19-.34 2.34 2.34 0 01.24-.31 2 2 0 011.81-.54 1.58 1.58 0 01.37.11 1.7 1.7 0 01.35.19 1.76 1.76 0 01.3.24 2.42 2.42 0 01.25.31 2.21 2.21 0 01.18.34 2.4 2.4 0 01.12.38 2.58 2.58 0 010 .39 2 2 0 01-2 2z" id="Línea_654-3" data-name="Línea 654-3"/></g><g id="Grupo_6104-2" data-name="Grupo 6104-2"><path class="cls-3" d="M438.33 273.5h-8.41a2 2 0 010-4h8.41a2 2 0 010 4z" id="Línea_652-4" data-name="Línea 652-4"/><path class="cls-4" d="M417.09 273.5H408a2 2 0 010-4h9.11a2 2 0 010 4z" id="Línea_653-4" data-name="Línea 653-4"/><path class="cls-5" d="M395.18 273.5a2 2 0 01-2-2 2 2 0 01.59-1.42 2.08 2.08 0 012.83 0 2 2 0 01.58 1.42 2.56 2.56 0 010 .39 2.29 2.29 0 01-.12.37 2.31 2.31 0 01-.18.35 2.48 2.48 0 01-.25.3 2 2 0 01-.65.44 2 2 0 01-.8.15z" id="Línea_654-4" data-name="Línea 654-4"/></g></g><g id="Grupo_6231" data-name="Grupo 6231"><path class="cls-6" d="M367.36 50.43c1.84-.3 3.47-.64 5.12-.81a29.31 29.31 0 015.77-.29 67.88 67.88 0 009.46 0 73.9 73.9 0 0116 .93c1.21.22 2.43.41 3.65.51 5.29.44 10.35 1.91 15.41 3.39 1.6.47 3.2 1 4.78 1.47a36.62 36.62 0 018.75 4.77 4.91 4.91 0 011.7 2.92c-.16.48-.3 1-.47 1.48a4.76 4.76 0 01-7.24 2.54 7.53 7.53 0 00-1.66-.68c-2.1-.61-4.21-1.2-6.27-2a29.25 29.25 0 00-5.4-1.11c-2-.34-4-.55-6-.91a29.36 29.36 0 00-6.28-.56c-1.31 0-2.62-.13-3.94-.18-3.16-.13-6.31-.27-9.47-.35-2.28-.06-4.56 0-6.84 0a2.36 2.36 0 00-1.86.82c-2.87 3.18-6.24 6-8.28 9.79a38.78 38.78 0 00-3.42 7.61c-1.1 3.95-1.66 8-2.45 12.08a6 6 0 00-.13 1c0 4.21-.59 8.38-.73 12.58a3.09 3.09 0 010 1.05c-.81 1.91-.61 4-.89 5.95-.43 3-1 6.07-1.44 9.1-.35 2.17-.59 4.36-1.07 6.49-.83 3.68-1.84 7.31-2.71 11-.47 2-.81 4-1.16 5.94-.28 1.56-.41 3.14-.75 4.67s-.82 3.23-1.33 4.81c-1.3 4-2.2 8.1-1.34 12.37-.15 4.42 1.21 8.68 1.28 13.09.07 3.67.69 7.33 1.06 11 .3 3.06.58 6.11.9 9.16.47 4.45 1 8.9 1.43 13.35.19 1.83.34 3.67.41 5.51.14 3.86.24 7.72.32 11.58 0 1.05-.09 2.1-.13 3.15a4.2 4.2 0 01-2.8 3.82 26.7 26.7 0 01-4.29 1.26 1.46 1.46 0 01-1.87-.9v-.08a38.09 38.09 0 01-2.49-7.2c-.73-3.43-1.65-6.81-2.45-10.22-.4-1.71-.74-3.43-1.08-5.15-.75-3.88-1.53-7.75-2.23-11.64-.82-4.57-1.54-9.16-2.34-13.74-.64-3.63-1.28-7.26-2-10.87-.8-3.95-1.7-7.89-2.6-11.82-.33-1.45-.76-2.88-1.17-4.31a5.18 5.18 0 00-.4-.82c-.68 0-.59.52-.59.8-.07 4.14-.9 8.19-1.3 12.29a74.17 74.17 0 00-.19 11.83c.35 5.52.8 11 1.08 16.55.18 3.5.13 7 .23 10.53 0 1.49.16 3 .31 4.47.36 3.49.86 7 1.09 10.47a42.77 42.77 0 01-.23 6.3 4.42 4.42 0 01-3.37 3.94c-2.11.74-4.32.68-6.49 1a1.6 1.6 0 01-1.49-.91 21.94 21.94 0 01-3.67-9.25c-.59-4.61-1.18-9.22-1.73-13.84-.15-1.3-.15-2.62-.22-3.94q0-.91-.12-1.83c-1.12-6.33-1.3-12.75-1.92-19.12-.36-3.66-.17-7.37-.22-11.05 0-3.51-.17-7-.12-10.52 0-3.77.25-7.54.39-11.31.49-12.63-.81-26.8 3.61-38.89a6.72 6.72 0 00.53-1.5c.62-4.66 2.64-8.91 3.8-13.4 1.34-5.18 3.36-10.17 4.24-15.47a53.27 53.27 0 00.61-5.49c.1-1.84 0-3.69 0-5.53 0-2.31-.92-4.45-1.44-6.66a1.07 1.07 0 00-1.22-.87h-.19a57.25 57.25 0 00-9.95 3.4 60.57 60.57 0 00-8.1 4.9 43.75 43.75 0 01-3.75 2.47 55.47 55.47 0 00-9.13 7.08c-2.48 2.22-4.94 4.45-7.36 6.72-1.6 1.5-3.11 3.09-4.65 4.65-.86.87-1.72 1.76-2.56 2.65-1.8 1.91-3.6 3.82-5.38 5.75-1.31 1.42-2.55 2.9-3.89 4.29a6.26 6.26 0 01-1.73 1.14 2 2 0 01-2.62-.5c-.57-.65-1.24-1.28-.7-2.32a1.1 1.1 0 00-.1-1 2.5 2.5 0 010-2.75 57.55 57.55 0 014.64-7.92c1.14-1.67 2.34-3.29 3.59-4.88a65.08 65.08 0 016.89-7.09 128.16 128.16 0 0110.35-8.54c1-.74 2-1.47 3-2.15 3.94-2.62 7.83-5.34 11.88-7.79 2.69-1.62 5.62-2.85 8.46-4.23 2.45-1.18 4.88-2.41 7.4-3.42 1.94-.79 4-1.28 6-1.88s3.87-1.13 5.8-1.68c2.87-.82 5.73-1.73 8.63-2.41a4.77 4.77 0 002.9-2 22.42 22.42 0 002.58-5.46 4.31 4.31 0 00.08-1.82c-.18-2.88-.4-5.76-.63-8.87a6.2 6.2 0 01-2.16-2.57c-1.35-1-2.65-2-4.08-2.86a17.72 17.72 0 01-3.91-3.08 3.6 3.6 0 01-1-2.62 1.65 1.65 0 011.14-1.79 4.75 4.75 0 011.8-.19c1.57.14 3.15.3 4.7.58a9.28 9.28 0 008.06-2.28c.79-.68 1.46-1.51 2.24-2.2a4.12 4.12 0 011.76-1.12c3-.57 6-.49 8.26 2 1 1.1 2 2.22 3 3.31a4.72 4.72 0 001.2.93A9.48 9.48 0 00375 26c1 0 1.93 0 2.9-.1a7 7 0 015.42 2.27 2.18 2.18 0 01-.21 3.62 16.19 16.19 0 01-4.55 2.6c-1 .34-2 .69-3 .93a11 11 0 00-4.17 2.14 4.6 4.6 0 00-1.86 2.45c-.82 3.14-1.53 6.3-2.27 9.46a4.81 4.81 0 00.1 1.06zM353.88 78c-3.17.56-5.26 2.6-7.12 5a4.68 4.68 0 00-.44 1.22c-.95 2.59-.74 5.35-1.19 8-.41 2.4-.54 4.86-.91 7.27-.66 4.25-1.42 8.47-2.11 12.7a46.76 46.76 0 00-.93 6.76c-.08 3.94-.2 7.89-.29 11.83 0 .35-.2.9.43 1a2 2 0 00.43-.33 10.11 10.11 0 00.58-.87 47.88 47.88 0 004.92-11.58c1.07-3.7 2.08-7.42 3.27-11.09 1.27-3.92 2.06-8 3.06-12a5 5 0 00.17-.77c.47-4.52.59-9.07.86-13.61a5.54 5.54 0 00-.73-3.53zm.69 158.32v-.15a.8.8 0 00-.2-.07v.29z" id="Trazado_3079" data-name="Trazado 3079"/><path class="cls-6" d="M281.81 98.21l-.4-.73-.78.3-.82.33c-.48.2-.94.38-1.39.52l-4.56 1.37c-3 .9-6.17 1.82-9.24 2.78a15.53 15.53 0 00-2.51 1.1c-.38.2-.76.4-1.15.57l-2.59 1.17c-2.05.93-4.17 1.9-6.29 2.72a19.23 19.23 0 01-2.6.72 16.4 16.4 0 00-3.57 1.1c-4.26 2.09-8.8 4.53-13.88 7.44a42.77 42.77 0 00-5.6 4.13l-.36.29c-1 .81-2 1.94-1.6 5l.26 2.09 1.4-1.57c.34-.38.65-.75.94-1.1a11.1 11.1 0 011.74-1.82c3.63-2.73 6.65-4.87 9.49-6.75a38 38 0 0111.34-5.54 96.9 96.9 0 009.23-3.22l2.79-1.06c.93-.35 1.82-.77 2.68-1.18a20.87 20.87 0 014.63-1.74 29.07 29.07 0 004.19-1.31c2.44-.9 4.75-1.75 7.42-1.4a1.63 1.63 0 001.65-.65c.56-.77.41-2.05-.42-3.56z" id="Trazado_3080" data-name="Trazado 3080"/><g id="Grupo_5324" data-name="Grupo 5324"><path class="cls-6" d="M148.61 139.24a13.18 13.18 0 01-1.52.57 3 3 0 00-1.77 1.5 6.86 6.86 0 00-.71 3.36 3.34 3.34 0 00.84 2.35 9.73 9.73 0 004.23 2.75 4.16 4.16 0 005.2-2.32 22 22 0 001-3.06 3.11 3.11 0 000-1.29 5.2 5.2 0 00-1.49-2.48 5.36 5.36 0 00-5.78-1.38zm2.91 4.92a2.73 2.73 0 01-.6 1.83c-.21.32-.56.33-.95.1a2 2 0 01-.81-2.52 1 1 0 01.57-.67c1.07-.46 1.72 0 1.79 1.26z" id="Trazado_3081" data-name="Trazado 3081"/><path class="cls-6" d="M170.49 156.4h-.77a6.85 6.85 0 01-1.43-.12 2.3 2.3 0 00-1.65.14 3.79 3.79 0 00-1.86 1.78 5 5 0 00-.45 3.06 4.16 4.16 0 002.07 3.07 5.87 5.87 0 005.12.26 2.33 2.33 0 001.5-1.57 11.18 11.18 0 00.55-3.24 5.16 5.16 0 000-.55 3 3 0 00-3.08-2.83zm-1.27 5c-.55 0-.66-.33-.66-.68s.22-.66.76-.7z" id="Trazado_3082" data-name="Trazado 3082"/><path class="cls-6" d="M148.71 130.84c3.13-.34 4.32-2.58 4.13-5.24a8 8 0 00-3.18-5.4 2.4 2.4 0 00-2.29-.4 5.8 5.8 0 00-3.9 3.35 13.16 13.16 0 00-.63 2.62 4 4 0 00.94 3.16 5.65 5.65 0 004.93 1.91zm-1.42-6.09c.05-.2.33-.47.5-.46a.72.72 0 01.53.44 4.57 4.57 0 01.14 2.11c-.08.32-.17.67-.62.65a.87.87 0 01-.72-.7 3.55 3.55 0 010-.46H147a13.92 13.92 0 01.27-1.57z" id="Trazado_3083" data-name="Trazado 3083"/><path class="cls-6" d="M109.54 130.6a3 3 0 002-2.26 12.43 12.43 0 00.36-2.58 3.15 3.15 0 00-2.81-3.46c-.33 0-.66-.08-1-.1a6.26 6.26 0 00-2.51.68 5 5 0 00-3.24 4 2.9 2.9 0 001.2 3 6.39 6.39 0 004 1.27c.68-.15 1.35-.32 2-.55zm-2.33-2.6a1 1 0 01-.54-.35.52.52 0 01.08-.47 10.09 10.09 0 01.77-.83h.15c0 .43-.06.86-.14 1.28 0 .14-.25.36-.32.34z" id="Trazado_3084" data-name="Trazado 3084"/><path class="cls-6" d="M143.69 144.17a38.63 38.63 0 00-.39-4.29 4.12 4.12 0 010-.61 5.39 5.39 0 01.7-2.34c.56-1.1 1.09-2.22 1.6-3.34a1.11 1.11 0 00-.26-1.45 2 2 0 00-1.61-.58c-1.35.14-2.39.31-3.44.34a8.09 8.09 0 00-3 .79 1.21 1.21 0 00-.83 1.5 1.09 1.09 0 00.1.25c.26.75.61 1.48.84 2.24a8 8 0 01-.38 5.86 12.61 12.61 0 01-2.13 3.3 1.37 1.37 0 00-.22 1.91 1.33 1.33 0 00.93.5c.44.13.92.15 1.37.25a11.61 11.61 0 011.7.47c.76.31 1.47.72 2.22 1.08a2.63 2.63 0 002.16.13 1.57 1.57 0 001-1.72 12.43 12.43 0 01-.36-4.29z" id="Trazado_3085" data-name="Trazado 3085"/><path class="cls-6" d="M196.45 154.57a3.3 3.3 0 00-2.9-1.36 8.88 8.88 0 00-4.72 2.5 5.22 5.22 0 00.79 7.34l.2.15a6.27 6.27 0 003.4 1.07 3.79 3.79 0 003.37-1.52 5.67 5.67 0 001.31-4.59 9.38 9.38 0 00-1.45-3.59zm-2.9 5.73c-.31.58-.7.64-1.16.18a1.51 1.51 0 01-.14-2.12l.1-.1c.28-.29.51-.63.76-.94a2.52 2.52 0 01.44 3z" id="Trazado_3086" data-name="Trazado 3086"/><path class="cls-6" d="M172.12 137a10.6 10.6 0 00-3.56 1 2.44 2.44 0 00-1.57 1.56 2.81 2.81 0 01-.43.73 2.5 2.5 0 00-.3 2.35c.22.57.41 1.17.66 1.73a4.8 4.8 0 004.85 3.19 4.08 4.08 0 003.6-1.94 8.86 8.86 0 001.32-3.44 4.14 4.14 0 00-.33-2.4 12.22 12.22 0 00-.74-1.26 3.48 3.48 0 00-3.5-1.52zm-.23 6.62c-.28.44-.64.45-.86 0s-.45-1.12-.66-1.69c.06-.88.22-1.15.86-1.33a.77.77 0 011 .37 1 1 0 01.07.25 3.13 3.13 0 01-.41 2.38z" id="Trazado_3087" data-name="Trazado 3087"/><path class="cls-6" d="M198.47 136.25a4.24 4.24 0 00-3.74-1 12 12 0 00-4.17 1.77 3.54 3.54 0 00-1.75 2.68 6.72 6.72 0 002.36 6.07 3.74 3.74 0 003.12 1.2 5.82 5.82 0 004.9-2.78 7.81 7.81 0 001-3.75 3.69 3.69 0 00-.29-2.17 6.88 6.88 0 00-1.43-2.02zM195.1 143c-.41.49-.68.46-1.14 0a2.51 2.51 0 01-.72-2v-.3c-.05-1.11.13-1.32 1.26-1.47s1.36.2 1.42 1.2a3.49 3.49 0 01-.79 2.52z" id="Trazado_3088" data-name="Trazado 3088"/><path class="cls-6" d="M111.9 137.1a8.17 8.17 0 00-4.27 1.38 4.12 4.12 0 00-1.75 2.64 3.09 3.09 0 001 3.43 6.51 6.51 0 004 1.46c2.65-.3 3.82-1.1 4.69-3.3a4.05 4.05 0 00-2.16-5.3 4.11 4.11 0 00-1.51-.31zm-.61 5.42c-.23.29-.58.25-.94 0l1.09-1.74a1.83 1.83 0 01-.15 1.74z" id="Trazado_3089" data-name="Trazado 3089"/><path class="cls-6" d="M245.08 123.05c-.49-1.81-1-3.61-1.63-5.38-.53-1.56-6.54-10.61-7.2-12.12-.44-1-5.88-17-5.75-17.57s.41-1 .5-1.45a21.17 21.17 0 00.56-4.27c0-1 .17-2 .2-2.92 0-.61-.11-1.23-.08-1.83a14.72 14.72 0 00-.4-4 11.92 11.92 0 00-.38-1.33 1 1 0 00-1.09-.71 2.6 2.6 0 00-2.36 1.2c-1.21 2.1-2.44 4.18-3.65 6.28-.73 1.25-1.42 2.52-2.12 3.78a.81.81 0 01-.78.51c-.82 0-1.65 0-2.47-.08a.91.91 0 01-.85-.65c-.74-1.81-1.54-3.6-2.31-5.4-.63-1.47-1.33-2.91-1.85-4.41a30.65 30.65 0 00-2.17-4.86 3.05 3.05 0 00-4-1.42 1 1 0 00-.66.79c-.18 1.07-.41 2.12-.54 3.19-.29 2.4-.46 4.82-.8 7.2-.25 1.73-8.63 20.88-9.91 21.77a4.91 4.91 0 01-2.3 1.2 19.86 19.86 0 01-2.78.17 51.26 51.26 0 00-6.32 0c-2 .17-3.89.38-5.84.44-2.78.09-5.55.06-8.32.29-.66 0-1.33.07-2 .11l-3.84.2h-.62c-1.6 0-3.19-.13-4.78-.16h-5.79a41.52 41.52 0 00-4.32.08 37.8 37.8 0 01-4.39.12c-1.59 0-3.18-.11-4.77-.14h-4c-2.39 0-4.78-.24-7.16-.15-2.55.09-5.1 0-7.65 0-.71 0-1.43 0-2.15-.1-1.51-.1-3-.23-4.54-.32s-3.33-.19-5-.26c-1.43-.06-2.87-.14-4.31-.13-1.26 0-2.52.14-3.78.18q-3.55.12-7.11.21c-2.52.07-5 .16-7.57.17a19 19 0 01-4.06-.32 25.39 25.39 0 00-4.59-.58c-2.4-.06-2.57 0-4.14-1.77-.81-.9-1.57-1.84-2.37-2.75-.49-.56-1-1.08-1.49-1.67-.83-1-1.62-2.13-2.43-3.2L63 85.91c-.76-1-1.46-2.07-2.3-3a24 24 0 01-3-3.85 9.1 9.1 0 00-.81-1.06c-.34-.39-.7-.76-1-1.16-.73-.9-1.41-1.83-2.16-2.72a22.91 22.91 0 01-2.92-3.88c-.25-.45-.56-.87-.85-1.29-1.16-1.7-2.33-3.4-3.47-5.12-.63-.94-1.16-2-1.8-2.88-.9-1.32-1.86-2.6-2.82-3.88a16.72 16.72 0 00-2.77-3.11 5.49 5.49 0 00-5.66-1.23 2.49 2.49 0 00-1.64 3.06c.05.2.12.4.16.6a8.76 8.76 0 001.36 3.33 5 5 0 01.38.67 24.34 24.34 0 002.42 3.68 29.61 29.61 0 012 2.82 21.14 21.14 0 001.77 2.42c.76.94 1.45 1.94 2.17 2.91.42.56.83 1.12 1.25 1.67.22.29.43.58.66.86.5.62 1 1.23 1.52 1.85a33.85 33.85 0 002.29 2.81 22 22 0 012.7 3.46A25.86 25.86 0 0052.73 86a29.27 29.27 0 013 3.89 7.55 7.55 0 001.06 1.33 46.85 46.85 0 015.59 6.58 29.16 29.16 0 002.5 3c2.3 2.46 4.65 4.88 7 7.3a51 51 0 014 4.19c.33.43.76.77 1.12 1.17.65.7 1.33 1.37 1.9 2.12a13.82 13.82 0 011.3 2.1 15.53 15.53 0 011 2.34c.3.9.49 1.84.71 2.76a7.69 7.69 0 01.4 2c0 1.28-.22 2.55-.27 3.84-.07 1.89.17 3.76.27 5.63.08 1.54.33 3.07.46 4.6.06.64 0 1.29 0 1.93 0 1 .05 2 .1 2.94s.11 1.7.2 2.54c.15 1.3.39 2.6.47 3.91.1 1.59.07 3.19.11 4.78l.18 6.57v.31c0 1.95-.23 3.91-.14 5.85.1 2.39-.21 4.77 0 7.17a23.86 23.86 0 01-.08 4.39 47.12 47.12 0 00-.14 5.7v2c.07 1.45.18 2.91.22 4.37s-.06 2.63 0 3.93c.11 1.72.34 3.43.54 5.14.13 1.07.26 2.15.47 3.2a6.63 6.63 0 002.06 3.8 5.69 5.69 0 002.9 1.51 2.43 2.43 0 002.66-1.52 4.8 4.8 0 00.26-2.73c-.11-.52-.23-1.05-.33-1.58a64.49 64.49 0 01-.49-7.48v-.23c0-1.51.09-3 .11-4.54v-1.93c-.06-2.11-.15-4.22-.21-6.33s-.13-4-.12-5.95c0-1.46.3-2.9.22-4.37v-.51c.28 1.35.51 2.69.74 4 .18 1 .36 2.07.55 3.11s.36 2.13.56 3.18c.12.64.29 1.26.42 1.89.41 2 .8 3.93 1.23 5.88.24 1.06.61 2.08.83 3.14.35 1.65.59 3.34.94 5 .41 1.93.85 3.86 1.34 5.78a31.26 31.26 0 001.3 4.12 37.9 37.9 0 002.08 3.8 2 2 0 002.57 1l.13-.06a1.82 1.82 0 001.27-1.51 6.63 6.63 0 00.11-.76c0-1.6.08-3.19 0-4.78a26.84 26.84 0 00-.5-3.9c-.56-2.7-.77-5.45-1.13-8.17-.25-1.92-.42-3.84-.63-5.76-.17-1.45-.35-2.91-.52-4.36-.13-1.07-.26-2.15-.38-3.22-.19-1.69-.42-3.37-.55-5.06-.08-1 0-2.11 0-3.17 0-.88.32-1.23 1.22-1.15s1.58.24 2.36.39c2.48.48 4.94 1 7.43 1.43 2.71.46 5.46.74 8.16 1.24 3.39.63 6.76 1.39 10.12 2.14 1.51.33 3 .81 4.49 1.17 1.78.41 3.58.74 5.36 1.14q4.6 1 9.19 2.08c2.58.6 5.15 1.23 7.73 1.84l5.79 1.32c3.14.71 6.25 1.55 9.3 2.55 1.58.51 3.19.82 4.79 1.18a55.77 55.77 0 015.65 1.59 22 22 0 004.26 1.34 1.54 1.54 0 01.66.2 1.81 1.81 0 01.66.6q1 2.13 1.92 4.3c.82 1.94 1.41 4 2.39 5.85a9 9 0 01.6 1.59 53.6 53.6 0 002.39 6.6 16.7 16.7 0 01.65 1.57c.91 2.73 1.82 5.47 2.69 8.21.77 2.4 1.47 4.83 2.23 7.23.38 1.2.81 2.39 1.23 3.58.2.56.39 1.12.6 1.67.79 2.07 1.54 4.15 2.38 6.2.9 2.22 1.84 4.42 2.85 6.6a3 3 0 002.4 1.74 6.91 6.91 0 011.6.5 2.37 2.37 0 001.95.1c.26-.1.49-.28.74-.39a1.8 1.8 0 001.15-2 25.32 25.32 0 00-.43-3.13c-.26-1.31-.78-2.55-1-3.88a41.87 41.87 0 00-1-4.44c-.46-1.79-1-3.56-1.5-5.35s-.88-3.6-1.31-5.4c-.4-1.65-.78-3.3-1.19-4.95-.14-.6-.32-1.19-.5-1.78-.22-.79-.49-1.57-.79-2.34-1.11-2.6-2.26-5.19-3.4-7.78-.6-1.37-1.24-2.72-1.79-4.11-.81-2.06-1.55-4.15-2.31-6.23a7.61 7.61 0 01-.31-1c-.25-1.08-.53-2.15-.69-3.24a10.24 10.24 0 01-.18-2.92 12.16 12.16 0 011.36-3.93c.6-1.15 1.31-1.21 2.18-.22l.09.12a11.25 11.25 0 001 .86 13.33 13.33 0 013.06 3c.76 1.07 1.56 2.11 2.31 3.18s1.61 2.28 2.3 3.48c.55.95.91 2 1.39 3s1 1.91 1.44 2.9q1 2.25 1.95 4.54c.69 1.69 1.39 3.38 2 5.1.71 2 1.34 3.94 2 5.92.11.34.26.67.4 1l1 2.53.83 2.16.87 2.23c.18.45.34.91.54 1.36.64 1.49 1.32 3 1.94 4.46a16 16 0 002 3.37 1.68 1.68 0 001.9.69 2.05 2.05 0 001.58-1.79 5.52 5.52 0 00-.32-2.35c-.69-1.94-1.36-3.88-2-5.82-.26-.73-.54-1.45-.81-2.17s-.58-1.54-.86-2.32c-.14-.38-.24-.79-.39-1.17q-2-5.09-4.07-10.18c-.26-.64-.58-1.27-.79-1.93-.54-1.72-1-3.45-1.54-5.18-.59-2-1.18-4-1.74-6.08s-1.12-4.17-1.68-6.26c-.18-.7-.33-1.4-.53-2.09A3.77 3.77 0 01218 184a2.11 2.11 0 000-1.36 9 9 0 01-.43-1.4c-.42-2.2-.85-4.39-1.23-6.59-.5-2.89-.93-5.79-1.43-8.68-.2-1.16-.52-2.3-.75-3.45a24.11 24.11 0 01-.42-2.66c-.15-1.67-.2-3.34-.34-5 0-.71-.22-1.42-.32-2.13s-.23-1.58-.3-2.37c-.07-.61-.07-1.22-.1-1.83q-.18-3.4-.35-6.8a1 1 0 010-.39 4.57 4.57 0 00-.08-2.35 27.89 27.89 0 01-.32-5.4c0-1.28.16-2.56.19-3.84v-6.48a57.66 57.66 0 00-.08-7.08c0-.5.18-.67.64-.46a9.63 9.63 0 011.1.58c1.16.71 11.09 13.12 12.27 13.81 2.45 1.42 4.93 2.78 7.38 4.21a2.94 2.94 0 003.46-.1 20 20 0 003-2.15 2.52 2.52 0 01.62-.45 8.44 8.44 0 002.85-2.39 6.22 6.22 0 001.12-2.09 5.2 5.2 0 01.31-1 4 4 0 00.29-3.1zm-74.39-2.42a4.13 4.13 0 010 2.6c-.08.21-.17.51-.45.41a.75.75 0 01-.38-.5 3.33 3.33 0 01.83-2.51zm-44.88.69c.76.24.9.35.88 1a8.37 8.37 0 01-.28 1.65 1.92 1.92 0 01-.36.56 2.91 2.91 0 01-.24-3.21zm5.55 40.2a1.92 1.92 0 01-.1-1.41.55.55 0 01.32-.26c.08 0 .22.11.29.2a4.82 4.82 0 01.55 2.17.86.86 0 01-1-.63v-.06zm70-17.3a10.39 10.39 0 01-1.14 3.35 3.75 3.75 0 01-1.18 1.29 1.55 1.55 0 00-.72 2.07 1.59 1.59 0 00.61.65c.24.19.52.33.78.5a2.22 2.22 0 011.18 2c0 1.41 0 2.83-.12 4.23a14 14 0 01-.58 2.72 22.25 22.25 0 01-1.69 4.39 4.82 4.82 0 01-1.36 1.55 19.57 19.57 0 01-6 3.25c-.81.25-1.63.48-2.45.66s-1.21 0-1.62-.87c-.19-.42-.42-.82-.65-1.23a8.42 8.42 0 01-1.23-3.54 3.16 3.16 0 00-.18-.75 50.33 50.33 0 01-1.24-5.57c-.24-1.21-.55-2.41-.73-3.63a10.93 10.93 0 010-2.14 1 1 0 01.76-.88 10.58 10.58 0 001.31-.64l3-1.74a1.29 1.29 0 00.58-1.73l-.09-.16c-.27-.43-.5-.9-.76-1.33a7.33 7.33 0 00-.7-1.1 7 7 0 01-1.6-3.29c-.22-1.16-.56-2.3-.77-3.46-.15-.89-.16-1.8-.28-2.69a7.45 7.45 0 01.41-3.34 2 2 0 00.05-1.57 1.45 1.45 0 00-1.18-.87 8.77 8.77 0 00-2.75.2c-1.11.22-2.23.42-3.34.6a6.9 6.9 0 00-2.52.92c-.89.54-1 1.06-.37 1.89.33.43.7.83 1 1.24a8.22 8.22 0 011.37 2.58c.45 1.26 1 2.5 1.43 3.75a9.76 9.76 0 01.08 6.51c-.13.39-.28.78-.42 1.16a.89.89 0 01-.8.63 16.14 16.14 0 00-2.27.41 5 5 0 00-1.44.72 1.09 1.09 0 00-.33 1.51v.06q1.14 1.89 2.31 3.76a32.55 32.55 0 012.36 4.68 6.21 6.21 0 01.34 1.65c.06.44 0 .88.08 1.32a6.37 6.37 0 01-.7 3.66c-.22.47-.45.93-.64 1.41a.77.77 0 01-.81.57h-.93L169 169c-1.41-.15-2.81-.36-4.22-.41a2.24 2.24 0 01-2.16-1.76c-.46-1.33-.87-2.69-1.24-4.05s-.7-2.75-.94-4.14a23.75 23.75 0 01-.21-2.92.82.82 0 01.18-.56 4.8 4.8 0 001-1.72 2.44 2.44 0 01.91-1.12c.53-.37 1-.77 1.54-1.18a1.44 1.44 0 00.55-2 2.34 2.34 0 00-.2-.27 7.32 7.32 0 01-1.43-4.33c-.09-1.76 0-3.54.06-5.32 0-.46.07-.92.1-1.38a12.86 12.86 0 011.34-4.32c.15-.33.3-.66.47-1 .53-1-.46-2-1.47-2a4.8 4.8 0 00-3.25 1.57 4.23 4.23 0 01-3.35 1 4.53 4.53 0 00-2.13.21 1.33 1.33 0 00-.9 1.65 1.48 1.48 0 00.12.29 2.59 2.59 0 00.25.39 8.77 8.77 0 011.8 4.37c.16 1.22.46 2.42.7 3.64a7.87 7.87 0 01.14 1 26.27 26.27 0 010 5.32 10.86 10.86 0 01-.34 1.5 1.51 1.51 0 01-1.07 1 8 8 0 00-2.41 1.19 1.46 1.46 0 00-.76 1.62.5.5 0 01-.31.62h-.09a7.2 7.2 0 00-3.3 2.19 3.34 3.34 0 00-1 3.51 5.23 5.23 0 004.62 3.61 3.63 3.63 0 004.12-3c.05-.19.1-.38.2-.71a4.83 4.83 0 01.44.64 13.33 13.33 0 011.1 3.76 2.44 2.44 0 010 .54c0 .64-.25.82-.9.7-1.11-.2-2.22-.45-3.34-.64-2-.34-4-.64-5.94-1-1.07-.17-1.23-.37-1.31-1.46 0-.54-.1-1.08-.18-1.61a16.19 16.19 0 01.11-4.23c.14-1.38.28-2.76.37-4.15A1.84 1.84 0 00145 152h-.38c-1 0-2.07 0-3.09.06a7.92 7.92 0 00-3.63.92 1.22 1.22 0 00-.72 1.56 1.24 1.24 0 00.45.58l.29.26a7.12 7.12 0 012.49 4.65 6.55 6.55 0 01-.25 3.34c-.16.53-.27.63-.83.56s-1.21-.24-1.82-.35a.85.85 0 01-.75-.75c-.28-1.12-.6-2.23-.91-3.35 0-.17-.12-.34-.18-.51a3.64 3.64 0 00-4.54-2.43l-.22.07a7.74 7.74 0 00-2.22.88 3.59 3.59 0 00-1.54 2.4c0 .23-.1.45-.16.76a2.36 2.36 0 01-1.88-.32c-.29-.17-.24-.47-.19-.76.19-1.17.39-2.34.55-3.51a1.65 1.65 0 00-2-1.91 9.61 9.61 0 01-3.38-.15 2.83 2.83 0 00-2.6.87 1.17 1.17 0 000 1.65 1.06 1.06 0 00.21.16 4.33 4.33 0 01.72.7 2.33 2.33 0 01-1.68-.83.62.62 0 010-.5c.65-2-.21-3.63-1.27-5.19a2.76 2.76 0 00-3.35-.78c-.56.32-1.1.67-1.63 1s-.59.32-1-.11a49.41 49.41 0 01-4.11-5l-.3-.44a.73.73 0 01-.07-1 1.59 1.59 0 00.2-1.26 19.92 19.92 0 01-.15-5.23c.05-.52.08-1 .14-1.54a.65.65 0 00-.38-.69 2.36 2.36 0 00-1.94-.2 4.25 4.25 0 01-2.21.1.68.68 0 01-.6-.51c-.09-.24-.17-.48-.24-.73a31.48 31.48 0 01-1-6.48c0-.92-.18-1.85-.15-2.78 0-1.15.21-2.3.33-3.45 0-.38.15-.76.17-1.14a1 1 0 01.69-.92 5.71 5.71 0 012.85-.52c.77 0 1.54 0 2.31.1s1.59.12 2.38.18c1.23.1 2.46.2 3.69.27a.82.82 0 01.84.55 2 2 0 00.28.46 6 6 0 011.17 3.37 8.83 8.83 0 01-.57 4.1 6.44 6.44 0 01-.93 1.58c-.54.72-.57 1 0 1.7a1.89 1.89 0 01.32.67 1.92 1.92 0 00.8 1.2 9.22 9.22 0 013.61 4.78q.28.81.6 1.59a20.47 20.47 0 01.76 4.09 11.85 11.85 0 01-.17 4.36c-.22 1.23 0 1.85 1.08 2.35a2.41 2.41 0 001.12.18c1.55-.07 3.09-.25 4.63-.26a27.89 27.89 0 013.3.29 3.13 3.13 0 001.85-.38 1.33 1.33 0 00.74-1.74 1.37 1.37 0 00-.3-.45 14.41 14.41 0 01-1-1.12 20.94 20.94 0 01-1.59-2.81 7.22 7.22 0 00.77.56 6.34 6.34 0 004.95.82 3.38 3.38 0 002.58-3 19.35 19.35 0 00.2-2.14 4.89 4.89 0 00-4-4.57 4.11 4.11 0 00-.6.08h-1.3a2 2 0 00-.6 0 4.43 4.43 0 00-3.1 4.11 6 6 0 00.29 2.63l-.19.06a11.12 11.12 0 01-.72-1.31 10 10 0 01-.63-2.15 10.45 10.45 0 01.2-4.75 5.74 5.74 0 01.5-1.2 1.62 1.62 0 000-1.88 1.68 1.68 0 00-1.69-.53c-.43.06-.85.2-1.27.29a4.8 4.8 0 01-2 .08 3.36 3.36 0 00-1.07-1.92 3.77 3.77 0 01-.93-2.08c-.09-.64-.35-1.25-.42-1.88-.1-.94-.13-1.89-.15-2.84a16.1 16.1 0 01.06-1.7 2 2 0 01.34-.91l.24.65.4-.66.24.26c.4-.47.88-.28 1.35-.19 0 .93-.14 1.82-.13 2.71a6 6 0 001.78 4.46 3.33 3.33 0 002.67 1 4.87 4.87 0 01.54 0 4.23 4.23 0 003.7-1.9 6.16 6.16 0 00.87-5.86c0-.15-.07-.3-.11-.45a.43.43 0 01.61 0c.06 0 .13.15.16.14.83-.26.71.5.83.86a9.53 9.53 0 01.34 3.36 17.39 17.39 0 01-.42 2.5 2.16 2.16 0 01-.94 1.37l-.33.22a1.3 1.3 0 00.29 2.43 7.41 7.41 0 003.26.49c.85 0 1.7-.1 2.55-.19a4.13 4.13 0 001.19-.28 1.3 1.3 0 00.71-1.71A9.47 9.47 0 01138 125a26.78 26.78 0 010-3.47 12.36 12.36 0 01.52-2.14l14-1.08a4.46 4.46 0 001.29 1.8 3.39 3.39 0 01.74 2.16 11.69 11.69 0 01-.66 5.62 1.57 1.57 0 00.64 2.12 1.7 1.7 0 00.48.16 3 3 0 001.06.2 66.3 66.3 0 004.23-.32 1.8 1.8 0 001-.54 1.31 1.31 0 00.2-1.64 8.56 8.56 0 01-1.17-3.57c-.13-1.54-.19-3.08-.27-4.62q0-.61.06-1.23a.46.46 0 01.42-.49h.07l5.1-.17h1.74c-.46.94-.9 1.73-1.25 2.55a5.26 5.26 0 00-.35 3.47 5 5 0 004.51 3.53 7.33 7.33 0 001.68-.13 3.64 3.64 0 002.75-2.84 8 8 0 000-5.24 12.44 12.44 0 00-.66-1.38 2.8 2.8 0 01.57-.22q1-.15 2.07-.27c.71-.08.74 0 1.1.57a6 6 0 01.74 2.57c.15 1.71.51 3.4.58 5.13 0 1.08.66 1.59 1.74 1.71a9.78 9.78 0 004.38-.66c.82-.28 1-.83.76-1.67a4 4 0 00-.4-.92 14.56 14.56 0 01-2.12-6.62c0-.33-.09-.64-.13-1a4.89 4.89 0 012.28-.19 3.88 3.88 0 001.58-.25c.6-.2 1.2-.42 1.85-.65a12.9 12.9 0 00-1.3 1.47 8 8 0 00-1.14 3.5 4.81 4.81 0 001.07 3.24 4.63 4.63 0 004.6 2.25 5.66 5.66 0 002-.41 6.39 6.39 0 003.16-4.53 4.79 4.79 0 00-.65-4 6.62 6.62 0 01-.4-.77h.45a6.35 6.35 0 012.17 2.26.76.76 0 01-.05 1 1.86 1.86 0 00-.33 1.76c.13.62.3 1.25.47 1.87a14.66 14.66 0 01.38 3.68 2.52 2.52 0 01-1.36 2.43c-.32.16-.63.34-.94.53a1.12 1.12 0 00-.55 1.48 1 1 0 00.2.29 5.25 5.25 0 00.78.85 6 6 0 011.51 2.12 9 9 0 001.06 1.79 3.83 3.83 0 01.81 2.13 7.7 7.7 0 00.31 1.9 9.12 9.12 0 01.03 4.1zM131 140.3c0-.28.26-.35.5-.37a.34.34 0 01.4.27v.09a14.22 14.22 0 01-.11 1.73.28.28 0 01-.34.21.3.3 0 01-.19-.16A6.24 6.24 0 01131 141h.06a5.31 5.31 0 010-.69z" id="Trazado_3090" data-name="Trazado 3090"/></g></g></svg>