<svg version="1.1" id="Capa_1" xmlns="http://www.w3.org/2000/svg" x="0" y="0" viewBox="0 0 500 300" xml:space="preserve"><style>.st1{fill:#19a500}.st2{fill:#fff}.st3{fill:#a1d005}.st4{fill:#feec35}</style><path fill="none" d="M0 0h500v300H0z"/><g id="Grupo_6330"><g id="Grupo_6103"><path class="st1" d="M123.1 227h-18.2c-1.1 0-2-.9-2-2s.9-2 2-2h18.2c1.1 0 2 .9 2 2s-.9 2-2 2z" id="Línea_651"/><path class="st2" d="M112.3 227H94.2c-1.1 0-2-.9-2-2s.9-2 2-2h18.2c1.1 0 2 .9 2 2s-.9 2-2.1 2z" id="Línea_652"/><path class="st3" d="M81.3 227h-9.1c-1.1 0-2-.9-2-2s.9-2 2-2h9.1c1.1 0 2 .9 2 2s-.9 2-2 2z" id="Línea_653"/><path class="st4" d="M59.4 227c-1.1 0-2-.9-2-2v-.4c0-.1.1-.3.1-.4.1-.1.1-.2.2-.3.1-.1.2-.2.2-.3.1-.1.2-.2.3-.2.1-.1.2-.1.3-.2.1-.1.3-.1.4-.1.3-.1.5-.1.8 0 .1 0 .3.1.4.1.1 0 .2.1.3.2.1.1.2.1.3.2.1.1.2.2.2.3.1.1.1.2.2.3.1.1.1.3.1.4v.4c.1 1.1-.7 2-1.8 2z" id="Línea_654"/></g><g id="Grupo_6104"><path class="st2" d="M97.8 237h-8.4c-1.1 0-2-.9-2-2s.9-2 2-2h8.4c1.1 0 2 .9 2 2s-.9 2-2 2z" id="Línea_652-2"/><path class="st3" d="M119.8 237h-9.1c-1.1 0-2-.9-2-2s.9-2 2-2h9.1c1.1 0 2 .9 2 2s-.9 2-2 2z" id="Línea_653-2"/><path class="st4" d="M132.6 237c-.5 0-1-.2-1.4-.6-.1-.1-.2-.2-.2-.3-.1-.1-.1-.2-.2-.4-.1-.1-.1-.2-.1-.4-.1-.3-.1-.5 0-.8 0-.1.1-.3.1-.4.1-.1.1-.2.2-.3.1-.1.2-.2.2-.3.8-.7 2-.7 2.8 0 .4.4.6.9.6 1.4v.4c0 .1-.1.3-.1.4 0 .1-.1.2-.2.4-.1.1-.2.2-.2.3-.5.4-1 .6-1.5.6z" id="Línea_654-2"/></g></g><g id="Grupo_6331"><g id="Grupo_6103-2"><path class="st1" d="M412.1 237h-18.2c-1.1 0-2-.9-2-2s.9-2 2-2h18.2c1.1 0 2 .9 2 2s-.9 2-2 2z" id="Línea_651-2"/><path class="st2" d="M422.8 237h-18.2c-1.1 0-2-.9-2-2s.9-2 2-2h18.2c1.1 0 2 .9 2 2s-.9 2-2 2z" id="Línea_652-3"/><path class="st3" d="M444.8 237h-9.1c-1.1 0-2-.9-2-2s.9-2 2-2h9.1c1.1 0 2 .9 2 2s-.9 2-2 2z" id="Línea_653-3"/><path class="st4" d="M457.6 237c-.5 0-1-.2-1.4-.6-.1-.1-.2-.2-.2-.3-.1-.1-.1-.2-.2-.4-.1-.1-.1-.2-.1-.4v-.4c0-.5.2-1 .6-1.4.8-.7 2-.7 2.8 0 .1.1.2.2.2.3.1.1.1.2.2.3s.1.2.1.4c.1.3.1.5 0 .8 0 .1-.1.3-.1.4 0 .1-.1.2-.2.4l-.3.3c-.4.4-.9.6-1.4.6z" id="Línea_654-3"/></g><g id="Grupo_6104-2"><path class="st2" d="M427.6 227h-8.4c-1.1 0-2-.9-2-2s.9-2 2-2h8.4c1.1 0 2 .9 2 2s-.9 2-2 2z" id="Línea_652-4"/><path class="st3" d="M406.3 227h-9.1c-1.1 0-2-.9-2-2s.9-2 2-2h9.1c1.1 0 2 .9 2 2s-.9 2-2 2z" id="Línea_653-4"/><path class="st4" d="M384.4 227c-1.1 0-2-.9-2-2v-.4c0-.1.1-.3.1-.4 0-.1.1-.2.2-.3s.2-.2.2-.3c.1-.1.2-.2.3-.2.1-.1.2-.1.3-.2.1-.1.3-.1.4-.1.3-.1.5-.1.8 0 .1 0 .3.1.4.1s.2.1.4.2c.1.1.2.1.3.2.1.1.2.2.2.3.1.1.1.2.2.3s.1.3.1.4v.4c0 1.1-.8 2-1.9 2z" id="Línea_654-4"/></g></g><path d="M221.3 208.5c-.5-1.3-1.3-2.3-2.8-2.8-.6-.2-1.1-.9-1.4-1.5-1.5-2.4-3-4.9-4.4-7.4-3.4-6.4-7.1-12.5-11.4-18.4-.5-.7-1-1.4-1.6-2-2.3-2.5-4.8-2-6 1.3-.5 1.3-.7 2.7-.8 4.1-.1 1.7-.1 3.5.1 5.2.4 3.9.8 7.8 1.4 11.6.7 5.1 1.5 10.1 3.3 15 .1.2.2.5.2.7.2.8-.4 1.6-1.2 1.7-.7.1-1.4.1-2.1 0-1.7-.2-3.2-.9-4.3-2.2-2-2.5-4.3-4.8-5.4-7.9-.1-.2-.2-.3-.2-.5-1.2-4.5-3.5-8.5-5-12.9-1.5-4.7-2.8-9.5-3.6-14.4-.5-2.8-1.1-5.6-1.6-8.4-1-5.8-2-11.6-2.9-17.5-.6-4.3-1.2-8.6-1.6-12.9-.2-1.9-.1-3.8-.1-5.7v-7.8c0-.5 0-1-.1-1.6-.3-1.7-1.1-2.9-2.9-3.3-.4-.1-.8-.3-1.3-.3-3.4-.7-6.8-5.2-5.3-9.6 1-3 2.4-5.8 5-7.8 5.4-4.1 10.9-8.2 17.6-9.9 3.3-.9 6.6-1.6 9.9-2.3 3-.6 6-1.2 8.9-1.7.8-.1 1.5-.3 2.3-.3 4.9-.2 9.7-1 14.5-1.4 3.4-.3 6.8-.3 10.1-.4 2.3-.1 4.7-.2 7-.2 7.1 0 14.2 0 21.4.1 4.9.1 9.7.4 14.6.6 1.9.1 3.8.4 5.7.6 3.9.4 7.8.7 11.7 1 2 .2 4 .6 6 .7 2.2.1 4.5.1 6.8.1 1.8 0 3.1-.8 4-2.5 1.8-3.3 3.4-6.6 4.4-10.3 1.4-5 2.9-10 4.2-15 1-3.8 3.5-6.3 6.8-8.2 1.2-.7 2.5-.6 3.3.5 1.5 1.8 2.8 3.7 4.1 5.7.5.8.4 1.8.6 2.8.1.6 0 1.2.1 1.8.1.7.5 1.1 1.1 1.3 2.1.6 4.2 0 5.6-1.8.4-.5.6-1 1-1.5 1.3-1.5 3.1-1.7 4.6-.3.5.5.9 1 1.4 1.6 2.7 3.3 7.4 6.4 11.6 7.6 1.3.3 2.5.6 3.8 1 2.5.7 4.9 1.8 7.2 3.1 1.5.9 2.8 2 3.8 3.5.8 1.2 1.5 2.3 2.3 3.5 1.7 2.6 2.2 5.5 1.6 8.5-.8 4.1-1.5 8.2-3.2 12.1-1.1 2.6-2.2 5.1-3.5 7.6-1.7 3.1-4.5 4.9-8 5.8-1 .2-1.9 0-2.8-.3-2.2-.6-4.3-1.2-6.5-1.8-.3-.1-.7-.1-1-.1-1.6.3-3.2.7-4.8 1.1-1 .2-1.7.9-2.2 1.7-.5.9-.9 1.9-1.2 2.9-1 2.9-1.9 5.8-2.8 8.7-.3 1-.6 2-.8 3-.9 5.1-1.7 10.3-2.6 15.4-.6 3.5-1.3 7-1.9 10.5-.9 4.9-1.8 9.7-2.5 14.6-.4 2.3-.6 4.6-.8 7-.3 3.6-.4 7.1-.6 10.7-.1.9-.2 1.7-.3 2.6-.1 1.5-.4 2.9-.4 4.4-.1 3.2-.1 6.4-.1 9.6 0 3.6-1 4.5-4.6 4.2-1.3-.1-2.3-.7-3-1.8-.4-.7-.7-1.4-1-2.1l-3.6-8.1c-1.1-2.4-2.2-4.7-3.3-7.1-.5-1.1-.9-2.3-2.1-2.7-.9.3-1.2 1-1.5 1.8-.4 1.2-.8 2.5-1 3.8-.7 4.5-2.2 8.7-3.3 13.1-.2.7-.5 1.5-.9 2.2-1.3 2.2-3.9 2.3-5.3.1-2.1-3.3-3.5-7-3.7-11-.1-1.8-.2-3.6-.4-5.5-.1-1.4-.4-2.7-.6-4.1-.5-3.4-1-6.9-1.4-10.3-.4-3.3-1.8-3.8-4.5-3.6-2.2.2-4.3.3-6.5.3-5.2.1-10.4.1-15.6.1-1.1 0-2.3.1-3.4.1-3.5.1-6.9.3-10.4.2-6.6 0-13.2-.2-19.8-.3-2.5-.1-5-.3-7.5-.4-1-.1-2.1-.2-3.1-.1-1.6.1-2.4 1.2-2 2.7.2 1 .7 2 1.1 2.9 1.3 3.3 2.7 6.6 4 9.9.7 1.9 1.2 3.8 1.9 5.7.4 1.3.8 2.7 1.4 3.9.8 1.8 1 3.7 1.4 5.5.1.3.1.7.1 1-.1 1.6-1.1 2.6-2.7 2.4-1.7-.5-3.2-.9-4.7-1.2zM185 130.9v.5c.1 2.5 1.3 3.5 3.6 3.2.8-.1 1.5-.3 2.3-.6 2.3-.8 4.7-1.3 7.1-1.6 1-.1 2-.4 3.1-.6.6-.1 1.2-.4 1.7-.6.9-.5 1.2-1.3.7-2.2-.4-.7-.9-1.3-1.5-1.8-2.4-2-5.1-3.2-8.1-3.9-1.6-.4-3.1-.1-4.5.6-2.8 1.6-4.3 3.9-4.4 7zm113.6-11.3c-1 .1-1.7.2-2.4.3-2.2.3-4.2 1.2-5.7 2.9-.4.4-.8.9-1 1.5-.6 1.2.1 2.3 1.4 2.4.5 0 1 0 1.6-.1 2.1-.3 4.3-.6 6.4-1 1.2-.2 2.4-.5 3.5-.9 1.6-.6 1.9-2.1.7-3.3-.4-.4-.9-.8-1.5-1-1.1-.4-2.2-.6-3-.8zm-55.1 34.8c.2 1 .4 1.9.6 2.8.6 2 1.9 3.3 4 3.5l1.8.3c1.1.1 2.2.2 2.8-.8s.1-2-.4-2.9c-1.2-2.1-2.7-4-4.6-5.6-.3-.3-.7-.5-1.1-.7-1.1-.5-2.2-.1-2.6 1-.2.7-.3 1.6-.5 2.4zm68.9 1.6c0-.3 0-.9-.1-1.4-.2-1.2-1.1-2.2-2-2-1 .2-1.3 1-1.6 1.8-.1.4-.1.9-.2 1.3s-.1.9-.2 1.3c-.2.8-.4 1.8-1.3 2.1-1 .3-1.5-.5-2.1-1.1-.3-.3-.5-.7-.8-1l-.9-.9c-.8-.6-1.8-.4-2.1.5-.5 1.3-.8 2.7-.7 4.1.1.9.6 1.4 1.5 1.6 1.3.2 2.6 0 3.8-.5.9-.4 1.8-.6 2.7-.7 2.8-.2 3.6-1 3.9-3.8 0-.4 0-.8.1-1.3zm-50-27.6v.2c1.3-.1 2.6 0 3.9-.2 1.8-.3 2.5-1.7 1.6-3.3-1-1.9-2.6-3.2-4.7-3.9-1.2-.3-2.2-.1-3.2.7-1.1.9-2.1 2.1-2.7 3.5-.7 1.5 0 2.8 1.7 3 1.2.1 2.3 0 3.4 0zm1.2 33.7c.7-.1 1.3-.1 1.9-.2 2-.3 2.6-1.5 1.7-3.3-.1-.2-.3-.4-.4-.6-1.1-1.4-2.3-2.8-3.4-4.2-.4-.5-.9-.9-1.4-1.2-1-.6-2-.3-2.3.8-.7 2.1-1 4.2-.6 6.4.2 1 .8 1.7 1.8 1.9.9.2 1.8.3 2.7.4zm-33.4-32.7c1.8-.2 3.5-.3 5.2-.5.3 0 .5 0 .8-.1.3 0 .5-.1.8-.2 1.1-.4 1.5-1.2 1.2-2.2-.7-2.2-2.4-3.3-4.5-4-1.9-.6-3.3.5-4.5 1.8-.5.5-.9 1.1-1.2 1.7-1.2 2.2-.5 3.4 2.1 3.4 0 .1 0 .1.1.1zm-10.9-14.5c1.2-.1 2.2-.2 3.2-.3.8-.1 1.5-.3 2.2-.6 1.4-.6 1.7-2 .7-3.2-2-2.3-4.8-3-7.8-1.9-1.5.6-2.3 1.7-2.7 3.2-.3 1.3.4 2.4 1.8 2.6.9.2 1.8.2 2.6.2zm-22 35.6c1.8-.4 3.7-.9 5.4-2 .8-.5.9-1.5.4-2.3-1-2-4.8-3.7-7-3.2-1.5.4-2.6 1.8-2.6 3.2.1 2 1.7 4.1 3.2 4.2.3.1.3.1.6.1zm7.7-35.1s0-.1 0 0c.7-.1 1.4-.1 2.1-.1 1-.1 1.9-.2 2.4-1.2.4-.7-.2-1.7-1.3-2.6-2.5-1.9-6.9-2.2-9.6-.6-.2.1-.4.3-.6.4-.7.6-1.3 1.3-1 2.2.2.9 1.1 1.1 1.9 1.2 1.9.3 4 .5 6.1.7zm83.8 41.6c.1 1.2 0 2.1.1 2.9.1.9.5 1.7 1.4 2.1 1.4.7 2.8.8 4.3.3.7-.3 1.2-.8 1.2-1.5 0-.5 0-1.1-.2-1.5-.6-1.9-1.4-3.7-2.7-5.2l-.9-.9c-1.2-.9-2.4-.6-2.8.9-.3 1-.3 2.1-.4 2.9zm-13.1 5.3c1.3-.2 2.6-.3 3.8-.6.9-.2 1.2-1 1-1.8-.1-.3-.2-.7-.4-.9-1.2-1.3-2.5-2.7-3.8-4-.2-.2-.6-.4-.9-.5-.9-.4-1.8-.2-2.2.8-.6 1.6-1.1 3.3-1.5 5-.2.9.2 1.5 1.2 1.7.9.1 1.8.1 2.8.3zm-63.2-31.9c1.3-.2 2.5-.3 3.6-.5.3 0 .7-.1 1-.2 1.7-.5 2.1-1.7 1.1-3.2-.7-1.1-1.8-1.9-2.9-2.5-1.4-.7-2.9-.7-4.2.2-1.4 1-1.8 2.5-1.5 4.1.1 1 .7 1.5 1.7 1.8.4.2.8.2 1.2.3zm-1.2 16.2c.9-.2 2.5-.4 4-.9s1.6-1.8.4-2.8c-.2-.2-.4-.3-.6-.4-1.2-.5-2.4-1.1-3.6-1.5-2.3-.7-3.5.3-3.5 2.7v.5c.1 1.8.9 2.4 3.3 2.4zm22.6 13.3c.6-.1 1.2-.1 1.8-.3 1.3-.3 1.8-1.4 1.2-2.6-.9-1.8-2.4-3.1-4.1-4.1-.4-.2-.8-.2-1.2-.2-.4.1-.8.3-1.1.6-1 1.3-.3 5 1 5.9.3.2.6.3.9.4.5.2 1 .2 1.5.3zm28.8-16.5c1.6-.2 2.9-.3 4.2-.5.4-.1.9-.5 1.1-.9.3-.6-.1-1.2-.6-1.6-1.3-1.1-2.8-1.8-4.4-1.9-1.7-.1-3.4 1.1-4 2.8-.3.8 0 1.6.9 1.8 1.1.3 2.1.3 2.8.3zm-19.9-32.3c-.5-.6-.6-.9-.9-1.1-1.7-1.1-3.6-1.4-5.5-1.3-1.4 0-2.5.7-3.2 2s-.1 2.5 1.4 2.5c2.1.1 4.2-.2 6.1-.9.7-.2 1.2-.7 2.1-1.2zM245 144c.7-.1 1.9-.3 2.9-.6 1.2-.4 1.4-1.5.6-2.5-.3-.4-.7-.8-1.2-.9-1.2-.4-2.4-.9-3.7-1.1-1.4-.2-2.5.8-2.6 2.3-.2 1.4.6 2.5 2.1 2.7.5.1 1 0 1.9.1zm1.5-15.5c.8 0 1.3-.1 1.8-.1.3 0 .5-.1.8-.1 1.1-.3 1.6-1.2 1.1-2.2-.6-1.4-1.7-2.4-3.1-2.9-1-.4-2.1-.2-2.8.7-.8.9-1.2 1.9-.9 3.1.2.7.7 1.2 1.4 1.4.6 0 1.3 0 1.7.1zm30.6-.2c1.1-.2 2.3-.4 3.3-.7 1-.3 1.2-1.3.7-2.1-.9-1.3-2.1-2-3.7-2-1.5 0-2.9 1.1-3.3 2.5-.2.7.1 1.5.8 1.7.6.3 1.4.4 2.2.6zm21 14.3c.6-.1 1.6-.3 2.5-.7.7-.3.9-1.1.4-1.7-1.1-1.5-2.7-2.1-4.5-2.2-.3 0-.7.1-1 .3-.9.4-1.5 1.7-1.3 2.6.1.8.8 1.4 1.8 1.5.6.1 1.1.1 2.1.2zm-17.8.6c.8-.1 1.5-.2 2.3-.3 1-.3 1.2-1.2.6-2-1-1.3-3.3-2-4.9-1.3-.4.2-.9.6-1.2 1-.7.9-.3 2.2.9 2.4.7.1 1.5.1 2.3.2zM226 145c.3-.1.8-.1 1.2-.2.9-.2 2-.4 2.1-1.6.1-1-.7-1.7-1.5-2.2-.4-.2-.8-.4-1.2-.5-.8-.2-1.5 0-2.1.6-.8.7-1.1 2-.7 2.8.3.9 1.2 1 2.2 1.1zm-7.8 9.7c.3 1.4 1 2.8 2.4 3.9.2.1.5.2.7.3 1.1.3 2.1-.6 2-1.7-.2-1.6-2.1-3.6-3.7-3.9-.8-.1-1.4.4-1.4 1.4zm38.4-43.6c1.2 0 2.1-.2 2.9-.8.4-.3.5-1 .2-1.4-.9-1.4-3.2-1.9-4.6-.8-.6.4-.9 1-.9 1.8 0 .5.7 1.1 1.5 1.2h.9zm77.2-27.2c1.1 1.4 1.9 3 3.1 3.9s2.9.5 4.1-.6c1.3-1.3 2-2.9 1.3-4.7-.3-.9-.8-1.8-1.3-2.6-1.3-1.7-3.8-1.9-5.1-.2-.9 1.1-1.3 2.5-2.1 4.2zm-126.2 72.8c.4 1.7 1.8 2.5 3.3 3.1.1 0 .3-.1.4-.2.1-.1.2-.3.1-.4-.6-1.5-1.6-2.6-3.3-2.8-.1 0-.2.1-.5.3zm76.7-48.1c-.4.1-.8.2-1.1.2.1.1.1.4.2.4.5.3.8.1.9-.6z" fill="#00bc00"/></svg>