<svg version="1.1" id="Capa_1" xmlns="http://www.w3.org/2000/svg" x="0" y="0" viewBox="0 0 89.9 32.3" xml:space="preserve"><style>.st8{fill:#fff}.st9{fill:#efef00}.st13{fill:#0d0}</style><path class="st8" d="M30.7 6.5H17.5c-1.7 0-3-1.3-3-3s1.3-3 3-3h13.2c1.7 0 3 1.3 3 3s-1.3 3-3 3z"/><path class="st8" d="M17.1 6.5H3.9c-1.7 0-3-1.3-3-3s1.3-3 3-3h13.2c1.7 0 3 1.3 3 3s-1.3 3-3 3z"/><path class="st8" d="M30.7 6.5H17.5c-1.7 0-3-1.3-3-3s1.3-3 3-3h13.2c1.7 0 3 1.3 3 3s-1.3 3-3 3z"/><path class="st13" d="M17.1 6.5H3.9c-1.7 0-3-1.3-3-3s1.3-3 3-3h13.2c1.7 0 3 1.3 3 3s-1.3 3-3 3z"/><g id="Group_7150"><path class="st8" d="M-478.5-1092.2h-13.2c-1.7 0-3-1.3-3-3s1.3-3 3-3h13.2c1.7 0 3 1.3 3 3s-1.4 3-3 3z" transform="translate(495.686 1124)"/><path class="st8" d="M-465-1092.2h-13.2c-1.7 0-3-1.3-3-3s1.3-3 3-3h13.2c1.7 0 3 1.3 3 3s-1.3 3-3 3z" transform="translate(495.686 1124)"/><path class="st8" d="M-483.4-1092.2h-8.4c-1.7 0-3-1.3-3-3s1.3-3 3-3h8.4c1.7 0 3 1.3 3 3s-1.3 3-3 3z" transform="translate(495.686 1124)"/><path class="st9" d="M-465-1092.2h-18.4c-1.7 0-3-1.3-3-3s1.3-3 3-3h18.4c1.7 0 3 1.3 3 3s-1.3 3-3 3z" transform="translate(495.686 1124)"/></g><path class="st8" d="M23.6 18.9H3.9c-1.7 0-3-1.3-3-3s1.3-3 3-3h19.7c1.7 0 3 1.3 3 3s-1.3 3-3 3z"/><path class="st8" d="M3.9 18.9c-.8 0-1.6-.3-2.1-.9-.6-.6-.9-1.3-.9-2.1 0-.2 0-.4.1-.6 0-.2.1-.4.2-.6.1-.2.2-.4.3-.5.1-.2.2-.3.4-.4 1.1-1.1 3.1-1.1 4.2 0l.4.4c.1.2.2.3.3.5.1.2.1.4.2.6 0 .2.1.4.1.6 0 .8-.3 1.6-.9 2.1-.1.1-.3.3-.5.4-.2.1-.3.2-.5.3-.2.1-.4.1-.6.2h-.7z"/><path d="M30.6 18.9H18.8c-1.7 0-3-1.3-3-3s1.3-3 3-3h11.8c1.7 0 3 1.3 3 3s-1.3 3-3 3z" fill="#00cd00"/><path class="st9" d="M23.6 18.9H3.9c-1.7 0-3-1.3-3-3s1.3-3 3-3h19.7c1.7 0 3 1.3 3 3s-1.3 3-3 3z"/><path class="st8" d="M3.9 18.9c-.8 0-1.6-.3-2.1-.9-.6-.6-.9-1.3-.9-2.1 0-.2 0-.4.1-.6 0-.2.1-.4.2-.6.1-.2.2-.4.3-.5.1-.2.2-.3.4-.4 1.1-1.1 3.1-1.1 4.2 0l.4.4c.1.2.2.3.3.5.1.2.1.4.2.6 0 .2.1.4.1.6 0 .8-.3 1.6-.9 2.1-.1.1-.3.3-.5.4-.2.1-.3.2-.5.3-.2.1-.4.1-.6.2h-.7z"/><path class="st13" d="M30.6 18.9H18.8c-1.7 0-3-1.3-3-3s1.3-3 3-3h11.8c1.7 0 3 1.3 3 3s-1.3 3-3 3z"/><path class="st8" d="M24.2 18.9h-5.4c-1.7 0-3-1.3-3-3s1.3-3 3-3h5.4c1.7 0 3 1.3 3 3s-1.3 3-3 3zm49.2.8c-1 0-1.9-.4-2.7-1.1-1.5-1.5-1.5-3.9 0-5.3L82.5 1.6c1.5-1.5 3.8-1.5 5.3 0s1.5 3.9 0 5.3L76.1 18.6c-.7.8-1.7 1.1-2.7 1.1z"/><path class="st8" d="M61.4 31.8c-1 0-1.9-.4-2.7-1.1-1.5-1.5-1.5-3.9 0-5.3l11.7-11.7c1.5-1.5 3.8-1.5 5.3 0s1.5 3.9 0 5.3L64.1 30.7c-.8.7-1.7 1.1-2.7 1.1z"/><path class="st8" d="M73.4 19.7c-1 0-1.9-.4-2.7-1.1-1.5-1.5-1.5-3.9 0-5.3L82.5 1.6c1.5-1.5 3.8-1.5 5.3 0s1.5 3.9 0 5.3L76.1 18.6c-.7.8-1.7 1.1-2.7 1.1z"/><path class="st13" d="M61.4 31.8c-1 0-1.9-.4-2.7-1.1-1.5-1.5-1.5-3.9 0-5.3l11.7-11.7c1.5-1.5 3.8-1.5 5.3 0s1.5 3.9 0 5.3L64.1 30.7c-.8.7-1.7 1.1-2.7 1.1z"/><path class="st8" d="M73.1 19.7c-1 0-1.9-.4-2.7-1.1L58.7 6.9c-1.5-1.5-1.5-3.9 0-5.3C60.2.1 62.5.1 64 1.6l11.7 11.7c1.5 1.5 1.5 3.9 0 5.3-.7.8-1.6 1.1-2.6 1.1z"/><path class="st8" d="M85.2 31.8c-1 0-1.9-.4-2.7-1.1L70.8 19c-1.5-1.5-1.5-3.9 0-5.3 1.5-1.5 3.8-1.5 5.3 0l11.7 11.7c1.5 1.5 1.5 3.9 0 5.3-.7.7-1.7 1.1-2.6 1.1z"/><path class="st8" d="M68.8 15.4c-1 0-1.9-.4-2.7-1.1l-7.4-7.4c-1.5-1.5-1.5-3.9 0-5.3C60.2.1 62.5.1 64 1.6L71.5 9c1.5 1.5 1.5 3.9 0 5.3-.8.8-1.7 1.1-2.7 1.1z"/><path class="st9" d="M85.2 31.8c-1 0-1.9-.4-2.7-1.1L66.2 14.3c-1.5-1.5-1.5-3.9 0-5.3 1.5-1.5 3.8-1.5 5.3 0l16.3 16.3c1.5 1.5 1.5 3.9 0 5.3-.7.8-1.7 1.2-2.6 1.2z"/></svg>