<svg id="Capa_1" data-name="Capa 1" xmlns="http://www.w3.org/2000/svg" viewBox="0 0 48 48"><defs><style>.cls-1{fill:none;}.cls-2{fill:#fff;}.cls-3{fill:#ffea27;}.cls-4{fill:#95a6b1;}</style></defs><title>04-icon_ocenza_home_audio_inactivo</title><rect class="cls-1" width="48" height="48"/><g id="Elipse_1030" data-name="Elipse 1030"><circle class="cls-2" cx="24" cy="24" r="24"/><path class="cls-2" d="M24,48A24,24,0,1,1,48,24,24,24,0,0,1,24,48ZM24,2A22,22,0,1,0,46,24,22,22,0,0,0,24,2Z"/></g><g id="Grupo_7528" data-name="Grupo 7528"><g id="Grupo_7527" data-name="Grupo 7527"><g id="Trazado_6321" data-name="Trazado 6321"><path class="cls-3" d="M13,22.47h0a4,4,0,1,1,4-4h0a4,4,0,0,1-4,4Zm0-6a2,2,0,0,0,0,4h0a2,2,0,0,0,2-2h0A2,2,0,0,0,13,16.49Z"/></g><g id="Grupo_7526" data-name="Grupo 7526"><g id="Grupo_7525" data-name="Grupo 7525"><g id="Grupo_7524" data-name="Grupo 7524"><g id="Trazado_6322" data-name="Trazado 6322"><path class="cls-4" d="M28.52,34.55a1,1,0,0,1-.63-.22l-5.6-4.56H13.81a1,1,0,0,1-1-1V25.63a1,1,0,0,1,2,0v2.14h7.84a1,1,0,0,1,.63.22l4.24,3.46V16.53l-4.25,3.4a.92.92,0,0,1-.62.22H20.1a1,1,0,0,1,0-2h2.2l5.6-4.48A1,1,0,0,1,29,13.54a1,1,0,0,1,.56.91v19.1a1,1,0,0,1-.57.91A1,1,0,0,1,28.52,34.55Z"/></g><g id="Trazado_6323" data-name="Trazado 6323"><path class="cls-4" d="M35.64,31.3a1,1,0,0,1-.78-1.62A9.94,9.94,0,0,0,37,23.76a8.07,8.07,0,0,0-2-5.4,1,1,0,1,1,1.51-1.31A10.05,10.05,0,0,1,39,23.79a12,12,0,0,1-2.54,7.13A1,1,0,0,1,35.64,31.3Z"/></g><g id="Trazado_6324" data-name="Trazado 6324"><path class="cls-4" d="M32.58,27.17A1,1,0,0,1,32,27a1,1,0,0,1-.16-1.41,2.8,2.8,0,0,0,.58-1.64,2.11,2.11,0,0,0-.52-1.42,1,1,0,0,1,1.51-1.32,4.18,4.18,0,0,1,1,2.76,4.83,4.83,0,0,1-1,2.86A1,1,0,0,1,32.58,27.17Z"/></g></g></g></g></g></g></svg>