<svg id="Capa_1" data-name="Capa 1" xmlns="http://www.w3.org/2000/svg" viewBox="0 0 48 48"><defs><style>.cls-1{fill:none;}.cls-2{fill:#95a6b1;}.cls-3{fill:#ffea27;}.cls-4{fill:#fff;}</style></defs><title>04-icon_ocenza_home_documento_activo</title><rect class="cls-1" width="48" height="48"/><g id="Elipse_1030" data-name="Elipse 1030"><circle class="cls-2" cx="24" cy="24" r="24"/><path class="cls-3" d="M24,48A24,24,0,1,1,48,24,24,24,0,0,1,24,48ZM24,2A22,22,0,1,0,46,24,22,22,0,0,0,24,2Z"/></g><g id="Grupo_7520" data-name="Grupo 7520"><g id="Grupo_7523" data-name="Grupo 7523"><g id="Grupo_7522" data-name="Grupo 7522"><g id="Grupo_7521" data-name="Grupo 7521"><g id="Trazado_6318" data-name="Trazado 6318"><path class="cls-4" d="M32.66,27.47a1,1,0,0,1-1-1V16.64l-2.45-2.51H21.08a1,1,0,0,1,0-2h8.55a1,1,0,0,1,.72.3l3,3.11a1,1,0,0,1,.28.69V26.47A1,1,0,0,1,32.66,27.47Z"/></g><g id="Trazado_6319" data-name="Trazado 6319"><path class="cls-4" d="M32.66,38.58h-19a1,1,0,0,1-1-1V21.27a1,1,0,0,1,2,0V36.58h17V27a1,1,0,0,1,2,0V37.58A1,1,0,0,1,32.66,38.58Z"/></g><g id="Grupo_7520-2" data-name="Grupo 7520-2"><g id="Línea_1701" data-name="Línea 1701"><path class="cls-4" d="M26.15,33a1,1,0,0,1-.71-.3,1,1,0,0,1,0-1.42L36.61,20.38A1,1,0,0,1,38,21.81L26.85,32.72A.94.94,0,0,1,26.15,33Z"/></g></g></g><g id="Línea_1703" data-name="Línea 1703"><path class="cls-4" d="M26.15,20H18.77a1,1,0,1,1,0-2h7.38a1,1,0,0,1,0,2Z"/></g><g id="Línea_1704" data-name="Línea 1704"><path class="cls-4" d="M23.49,26.18H18.77a1,1,0,0,1,0-2h4.72a1,1,0,1,1,0,2Z"/></g><g id="Línea_1705" data-name="Línea 1705"><path class="cls-4" d="M21.71,32.33H18.77a1,1,0,1,1,0-2h2.94a1,1,0,0,1,0,2Z"/></g></g><g id="Trazado_6320" data-name="Trazado 6320"><path class="cls-3" d="M13.69,17.4h0a4,4,0,0,1,0-8h0a4,4,0,0,1,2.82,1.16,4,4,0,0,1,1.17,2.82h0a4,4,0,0,1-1.07,2.72A4,4,0,0,1,13.69,17.4Zm0-6h0a2,2,0,0,0,0,4h0a2,2,0,0,0,2-2h0a2,2,0,0,0-2-2Z"/></g></g></g></svg>