<svg id="Capa_1" data-name="Capa 1" xmlns="http://www.w3.org/2000/svg" viewBox="0 0 48 48"><defs><style>.cls-1{fill:none;}.cls-2{fill:#fff;}.cls-3{fill:#95a6b1;}.cls-4{fill:#ffea27;}</style></defs><title>04-icon_ocenza_home_imagenes_inactivo</title><rect class="cls-1" width="48" height="48"/><g id="Elipse_1030" data-name="Elipse 1030"><circle class="cls-2" cx="24" cy="24" r="24"/><path class="cls-2" d="M24,48A24,24,0,1,1,48,24,24,24,0,0,1,24,48ZM24,2A22,22,0,1,0,46,24,22,22,0,0,0,24,2Z"/></g><g id="Grupo_7533" data-name="Grupo 7533"><g id="Grupo_7532" data-name="Grupo 7532"><g id="Grupo_7531" data-name="Grupo 7531"><g id="Grupo_7530" data-name="Grupo 7530"><g id="Grupo_7529" data-name="Grupo 7529"><g id="Trazado_6325" data-name="Trazado 6325"><path class="cls-3" d="M37.58,38.34H14a1,1,0,0,1-1-1V21.09a1,1,0,1,1,2,0V36.34H36.58V14.73H20.91a1,1,0,0,1,0-2H37.58a1,1,0,0,1,1,1V37.34A1,1,0,0,1,37.58,38.34Z"/></g></g></g><g id="Trazado_6326" data-name="Trazado 6326"><path class="cls-3" d="M29.42,33.55a1,1,0,0,1-.7-.28l-8.9-8.81-5.07,5.39a1,1,0,0,1-1.46-1.37l5.78-6.14a1,1,0,0,1,1.43,0l9.63,9.52a1,1,0,0,1,0,1.42A1,1,0,0,1,29.42,33.55Z"/></g><g id="Trazado_6327" data-name="Trazado 6327"><path class="cls-3" d="M37.39,31.34a1,1,0,0,1-.56-.18L32.34,28.1l-4.44,3a1,1,0,0,1-1.39-.28,1,1,0,0,1,.28-1.38l5-3.34a1,1,0,0,1,1.12,0L38,29.51a1,1,0,0,1,.26,1.39A1,1,0,0,1,37.39,31.34Z"/></g><g id="Elipse_1027" data-name="Elipse 1027"><path class="cls-3" d="M29.93,24.05a3.37,3.37,0,1,1,3.37-3.37A3.37,3.37,0,0,1,29.93,24.05Zm0-4.73a1.37,1.37,0,1,0,1.37,1.36A1.37,1.37,0,0,0,29.93,19.32Z"/></g></g><g id="Trazado_6328" data-name="Trazado 6328"><path class="cls-4" d="M13.42,17.64h0a4,4,0,1,1,4-4h0a4,4,0,0,1-4,4Zm0-6a2,2,0,1,0,0,4h0a2,2,0,0,0,2-2h0A2,2,0,0,0,13.41,11.66Z"/></g></g></g></svg>