<svg id="Capa_1" data-name="Capa 1" xmlns="http://www.w3.org/2000/svg" viewBox="0 0 48 48"><defs><style>.cls-1{fill:none;}.cls-2{fill:#95a6b1;}.cls-3{fill:#ffea27;}.cls-4{fill:#fff;}</style></defs><title>04-icon_ocenza_home_videos_activo</title><rect class="cls-1" width="48" height="48"/><g id="Elipse_1030" data-name="Elipse 1030"><circle class="cls-2" cx="24" cy="24" r="24"/><path class="cls-3" d="M24,48A24,24,0,1,1,48,24,24,24,0,0,1,24,48ZM24,2A22,22,0,1,0,46,24,22,22,0,0,0,24,2Z"/></g><g id="Grupo_7535" data-name="Grupo 7535"><g id="Grupo_7534" data-name="Grupo 7534"><g id="Trazado_6329" data-name="Trazado 6329"><path class="cls-4" d="M37.69,37.77H10.31a1,1,0,0,1-1-1V14.27a1,1,0,0,1,1-1h10a1,1,0,0,1,0,2h-9v20.5H36.69V15.27H35a1,1,0,0,1,0-2h2.66a1,1,0,0,1,1,1v22.5A1,1,0,0,1,37.69,37.77Z"/></g><g id="Trazado_6330" data-name="Trazado 6330"><path class="cls-4" d="M21.15,31a.91.91,0,0,1-.51-.14,1,1,0,0,1-.49-.87l.09-8.35a1,1,0,0,1,.51-.86,1,1,0,0,1,1,0L28.93,25a1,1,0,0,1,0,1.73l-7.27,4.1A1.11,1.11,0,0,1,21.15,31Zm1.07-7.6-.06,4.88,4.26-2.39Z"/></g></g><g id="Trazado_6331" data-name="Trazado 6331"><path class="cls-3" d="M27.57,18.21h0a4,4,0,0,1,0-8h0a4,4,0,0,1,4,4h0a4,4,0,0,1-4,4Zm0-6h0a2,2,0,0,0,0,4h0a2,2,0,0,0,2-2h0a2,2,0,0,0-2-2Z"/></g></g></svg>