<svg xmlns="http://www.w3.org/2000/svg" viewBox="0 0 120 120"><defs><style>.cls-1{isolation:isolate;}.cls-2{fill:#ffea27;}.cls-3{mix-blend-mode:multiply;}.cls-4{fill:#f4d314;}.cls-5{fill:#95a6b1;}.cls-6{fill:none;}</style></defs><title>05-icon_ocenza_con_potuaria_que_es</title><g class="cls-1"><g id="Capa_1" data-name="Capa 1"><path class="cls-2" d="M58.22,116.23H40a2,2,0,1,1,0-4h18.2a2,2,0,0,1,0,4Z"/><path class="cls-2" d="M80.16,116.23H71.05a2,2,0,0,1,0-4h9.11a2,2,0,0,1,0,4Z"/><path class="cls-2" d="M93,116.23a2,2,0,0,1-.76-.15,2,2,0,0,1-.65-.44,1.85,1.85,0,0,1-.43-.64,2,2,0,0,1-.15-.77,2.56,2.56,0,0,1,0-.39,2.29,2.29,0,0,1,.12-.37,1.92,1.92,0,0,1,.18-.35,1.81,1.81,0,0,1,.25-.3,2,2,0,0,1,1.81-.55,1.73,1.73,0,0,1,.37.11,2.37,2.37,0,0,1,.35.19,1.73,1.73,0,0,1,.3.25,2,2,0,0,1,.59,1.41,2,2,0,0,1-2,2Z"/><g class="cls-3"><path class="cls-4" d="M47.52,116.23H29.31a2,2,0,1,1,0-4H47.52a2,2,0,0,1,0,4Z"/></g><path class="cls-2" d="M74.7,104H29.31a2,2,0,0,1,0-4H74.7a2,2,0,0,1,0,4Z"/><g class="cls-3"><path class="cls-4" d="M29.31,104a2,2,0,0,1-1.41-.59,2,2,0,0,1,0-2.83,1.81,1.81,0,0,1,.3-.25,2.31,2.31,0,0,1,.35-.18,2.29,2.29,0,0,1,.37-.12,2,2,0,0,1,1.8.55A2,2,0,0,1,29.31,104Z"/></g><g class="cls-3"><path class="cls-4" d="M93,104H67.2a2,2,0,1,1,0-4H93a2,2,0,0,1,0,4Z"/></g><path class="cls-2" d="M48.69,31.85a8.42,8.42,0,1,1,6.19-2.69A8.45,8.45,0,0,1,48.69,31.85Zm0-12.88a4.44,4.44,0,1,0,0,8.88,4.43,4.43,0,0,0,4.44-4.44A4.44,4.44,0,0,0,48.69,19Z"/><path class="cls-5" d="M94.06,57.75a2,2,0,0,1-.79-3.84,14.3,14.3,0,0,0,5.82-5.78l.07-.13L104,38.93,83.45,41.51l-4.74,6a2,2,0,0,1-1.57.76H54.45a2,2,0,0,1-1.6-.8l-4.39-5.87H14.74v4.63h5.31a2,2,0,0,1,1.77,1.07l.19.35c1.48,2.85,1.37,5.6-.33,7.75A2,2,0,0,1,18.54,53a2.48,2.48,0,0,0,.25-2.69h-6a2,2,0,0,1-2-2V39.63a2,2,0,0,1,2-2H49.46a2,2,0,0,1,1.61.81l4.38,5.86H76.17l4.64-5.9a2,2,0,0,1,1.32-.75l25.18-3.17a2,2,0,0,1,2,2.92l-6.61,12.43c-1,2.26-4.4,6.28-7.88,7.76A2,2,0,0,1,94.06,57.75Z"/><path class="cls-5" d="M46.14,41.63H22.54a2,2,0,0,1-2-2V31.5a2,2,0,0,1,2-2H32V25.37a2,2,0,0,1,2-2h2.92a2,2,0,0,1,0,4H36V31.5a2,2,0,0,1-2,2H24.54v4.13h19.6V35.39a2,2,0,0,1,4,0v4.24A2,2,0,0,1,46.14,41.63Z"/><path class="cls-5" d="M30.35,33.5h-6a2,2,0,0,1-2-2l-.22-14.66a2,2,0,0,1,2-2h6.09a2,2,0,0,1,2,2l.11,14.65a1.94,1.94,0,0,1-.58,1.42A2,2,0,0,1,30.35,33.5Zm-4-4h2l-.09-10.65H26.18Z"/><path class="cls-5" d="M82.38,41.63H46.14a2,2,0,0,1,0-4H82.38a2,2,0,0,1,0,4Z"/><path class="cls-5" d="M40,36.71a2,2,0,0,1-2-2V32.3a2,2,0,0,1,4,0v2.41A2,2,0,0,1,40,36.71Z"/><path class="cls-5" d="M63.07,78.5H44.37A12.24,12.24,0,0,1,32.14,66.26V55.75a2,2,0,0,1,2-2h7a2,2,0,0,1,2,2V66.26a1.23,1.23,0,0,0,1.23,1.24h18.7a2,2,0,0,1,2,2v7A2,2,0,0,1,63.07,78.5ZM36.14,57.75v8.51a8.24,8.24,0,0,0,8.23,8.24h16.7v-3H44.37a5.24,5.24,0,0,1-5.23-5.24V57.75Z"/><path class="cls-5" d="M69.51,82.65H63.07a2,2,0,0,1-2-2V65.46a2,2,0,0,1,2-2h6.44a2,2,0,0,1,2,2V80.65A2,2,0,0,1,69.51,82.65Zm-4.44-4h2.44V67.46H65.07Z"/><path class="cls-5" d="M105,78.5H69.51a2,2,0,0,1-2-2v-7a2,2,0,0,1,2-2H105a2,2,0,0,1,2,2v7A2,2,0,0,1,105,78.5Zm-33.5-4H103v-3H71.51Z"/><path class="cls-5" d="M109.31,59.25a10.66,10.66,0,0,1-6.08-1.78,7.27,7.27,0,0,0-8.06,0,11.26,11.26,0,0,1-12.15,0,7.27,7.27,0,0,0-8.06,0,11.26,11.26,0,0,1-12.15,0,7.27,7.27,0,0,0-8.06,0,11.26,11.26,0,0,1-12.15,0,7.27,7.27,0,0,0-8.06,0,10.65,10.65,0,0,1-6.07,1.78,10.66,10.66,0,0,1-6.08-1.78,6.76,6.76,0,0,0-4-1.22,6.73,6.73,0,0,0-4,1.22,10.66,10.66,0,0,1-6.08,1.78,2,2,0,1,1,0-4,6.76,6.76,0,0,0,4-1.22,10.62,10.62,0,0,1,6.07-1.78A10.66,10.66,0,0,1,24.43,54a6.76,6.76,0,0,0,4,1.22,6.75,6.75,0,0,0,4-1.22,11.26,11.26,0,0,1,12.15,0,7.27,7.27,0,0,0,8.06,0,11.26,11.26,0,0,1,12.15,0,7.27,7.27,0,0,0,8.06,0,11.24,11.24,0,0,1,12.14,0,7.28,7.28,0,0,0,8.07,0,11.24,11.24,0,0,1,12.14,0,6.76,6.76,0,0,0,4,1.22,2,2,0,0,1,0,4Z"/><path class="cls-5" d="M109.31,91.09a10.66,10.66,0,0,1-6.08-1.78,7.27,7.27,0,0,0-8.06,0,11.26,11.26,0,0,1-12.15,0,7.27,7.27,0,0,0-8.06,0,11.26,11.26,0,0,1-12.15,0,7.27,7.27,0,0,0-8.06,0,11.26,11.26,0,0,1-12.15,0,7.27,7.27,0,0,0-8.06,0,10.65,10.65,0,0,1-6.07,1.78,10.66,10.66,0,0,1-6.08-1.78,6.76,6.76,0,0,0-4-1.22,6.73,6.73,0,0,0-4,1.22,10.66,10.66,0,0,1-6.08,1.78,2,2,0,1,1,0-4,6.76,6.76,0,0,0,4-1.22,10.62,10.62,0,0,1,6.07-1.78,10.66,10.66,0,0,1,6.08,1.78,6.76,6.76,0,0,0,4,1.22,6.75,6.75,0,0,0,4-1.22,11.26,11.26,0,0,1,12.15,0,7.27,7.27,0,0,0,8.06,0,11.26,11.26,0,0,1,12.15,0,7.27,7.27,0,0,0,8.06,0,11.24,11.24,0,0,1,12.14,0,7.28,7.28,0,0,0,8.07,0,11.24,11.24,0,0,1,12.14,0,6.76,6.76,0,0,0,4,1.22,2,2,0,0,1,0,4Z"/><rect class="cls-6" width="120" height="120"/></g></g></svg>