<svg xmlns="http://www.w3.org/2000/svg" viewBox="0 0 120 120"><defs><style>.cls-1{isolation:isolate;}.cls-2{fill:none;}.cls-3{fill:#ffea27;}.cls-4{mix-blend-mode:multiply;}.cls-5{fill:#f4d314;}.cls-6{fill:#95a6b1;}</style></defs><title>06-icon_ocenza_con_potuaria_ani</title><g class="cls-1"><g id="Capa_1" data-name="Capa 1"><rect class="cls-2" x="-0.18" y="0.06" width="120.36" height="119.87"/><path class="cls-3" d="M53.77,116.23H35.57a2,2,0,0,1,0-4h18.2a2,2,0,0,1,0,4Z"/><path class="cls-3" d="M75.71,116.23H66.6a2,2,0,0,1,0-4h9.11a2,2,0,0,1,0,4Z"/><path class="cls-3" d="M88.51,116.23a2,2,0,0,1-1.42-.59,1.85,1.85,0,0,1-.43-.64,2,2,0,0,1-.15-.77,1.72,1.72,0,0,1,0-.39,1.58,1.58,0,0,1,.11-.37,1.92,1.92,0,0,1,.18-.35,2.48,2.48,0,0,1,.25-.3,2.06,2.06,0,0,1,2.83,0,1.81,1.81,0,0,1,.25.3,1.92,1.92,0,0,1,.18.35,2.29,2.29,0,0,1,.12.37,2.58,2.58,0,0,1,0,.39,2,2,0,0,1-.16.77,1.85,1.85,0,0,1-.43.64A2,2,0,0,1,88.51,116.23Z"/><g class="cls-4"><path class="cls-5" d="M43.07,116.23H24.86a2,2,0,0,1,0-4H43.07a2,2,0,1,1,0,4Z"/></g><path class="cls-3" d="M70.25,104H24.86a2,2,0,0,1,0-4H70.25a2,2,0,0,1,0,4Z"/><g class="cls-4"><path class="cls-5" d="M24.86,104a2,2,0,0,1-2-2,2.09,2.09,0,0,1,.15-.76,1.86,1.86,0,0,1,.19-.34,1.48,1.48,0,0,1,.25-.31,2,2,0,0,1,1.8-.55,2.4,2.4,0,0,1,.38.12,2.21,2.21,0,0,1,.34.18,2.42,2.42,0,0,1,.31.25,2.6,2.6,0,0,1,.25.31,1.83,1.83,0,0,1,.18.34,2.09,2.09,0,0,1,.15.76,2,2,0,0,1-.58,1.42A2,2,0,0,1,24.86,104Z"/></g><g class="cls-4"><path class="cls-5" d="M88.51,104H62.75a2,2,0,0,1,0-4H88.51a2,2,0,0,1,0,4Z"/></g><path class="cls-3" d="M28.78,44.58A12,12,0,1,1,33,21.33a12,12,0,0,1,7.2,15,12.07,12.07,0,0,1-6.4,7.14A11.93,11.93,0,0,1,28.78,44.58Zm0-20a8,8,0,0,0-7.49,5.21,7.92,7.92,0,0,0,.22,6.12,8,8,0,0,0,10.6,4,8,8,0,0,0,4-10.6h0a8,8,0,0,0-7.28-4.68Z"/><path class="cls-6" d="M85.15,91.54H33.24a5.43,5.43,0,0,1-5.43-5.42V49a2,2,0,0,1,4,0V86.12a1.43,1.43,0,0,0,1.43,1.42H85.15A1.55,1.55,0,0,0,86.7,86V42.59a2,2,0,0,1,4,0V86A5.56,5.56,0,0,1,85.15,91.54Z"/><path class="cls-6" d="M61.75,23.65H44.11a2,2,0,0,1,0-4H61.17V11.48H31.47v3.45a2,2,0,0,1-4,0V11.18a3.58,3.58,0,0,1,3.43-3.7H61.75a3.57,3.57,0,0,1,3.42,3.7V20A3.56,3.56,0,0,1,61.75,23.65Z"/><path class="cls-6" d="M45.73,64.92h-7a3.19,3.19,0,0,1-3.19-3.19V54.07a3.19,3.19,0,0,1,3.19-3.19h7a3.2,3.2,0,0,1,3.19,3.19v7.66A3.2,3.2,0,0,1,45.73,64.92Zm-6.19-4h5.38v-6H39.54Z"/><path class="cls-6" d="M62.75,64.92h-7a3.19,3.19,0,0,1-3.19-3.19V54.07a3.19,3.19,0,0,1,3.19-3.19h7A3.2,3.2,0,0,1,66,54.07v7.66A3.2,3.2,0,0,1,62.75,64.92Zm-6.18-4H62v-6H56.57Z"/><path class="cls-6" d="M79.78,64.92h-7a3.19,3.19,0,0,1-3.19-3.19V54.07a3.19,3.19,0,0,1,3.19-3.19h7A3.19,3.19,0,0,1,83,54.07v7.66A3.19,3.19,0,0,1,79.78,64.92Zm-6.18-4H79v-6H73.6Z"/><path class="cls-6" d="M70.54,91.54a2,2,0,0,1-2-2V75.21H51.46V89.54a2,2,0,0,1-4,0V74.4a3.19,3.19,0,0,1,3.19-3.19h18.7a3.19,3.19,0,0,1,3.19,3.19V89.54A2,2,0,0,1,70.54,91.54Z"/><path class="cls-6" d="M94.62,44.59H48.69a2,2,0,0,1,0-4H92.62V23.71H45.85a2,2,0,0,1,0-4H94.62a2,2,0,0,1,2,2V42.59A2,2,0,0,1,94.62,44.59Z"/><path class="cls-6" d="M75.78,39.17a1.5,1.5,0,0,1-1.23-.64l-4.76-6.85v6a1.5,1.5,0,0,1-3,0V26.89A1.5,1.5,0,0,1,69.52,26l4.76,6.85v-6a1.5,1.5,0,0,1,3,0V37.67a1.48,1.48,0,0,1-1,1.43A1.41,1.41,0,0,1,75.78,39.17Z"/><path class="cls-6" d="M64.34,39.17A1.5,1.5,0,0,1,63,38.26l-3.21-7.57-3.29,7.58a1.5,1.5,0,0,1-2.76-1.19L58.38,26.3a1.51,1.51,0,0,1,1.38-.91h0a1.51,1.51,0,0,1,1.37.92l4.58,10.78a1.5,1.5,0,0,1-.79,2A1.52,1.52,0,0,1,64.34,39.17Z"/><path class="cls-6" d="M62.73,35.66H56.61a1.5,1.5,0,0,1,0-3h6.12a1.5,1.5,0,1,1,0,3Z"/><path class="cls-6" d="M81.06,39.17a1.5,1.5,0,0,1-1.5-1.5V26.89a1.5,1.5,0,0,1,3,0V37.67A1.5,1.5,0,0,1,81.06,39.17Z"/></g></g></svg>