<svg xmlns="http://www.w3.org/2000/svg" viewBox="0 0 120 120"><defs><style>.cls-1{isolation:isolate;}.cls-2{fill:none;}.cls-3{fill:#ffea27;}.cls-4{mix-blend-mode:multiply;}.cls-5{fill:#f4d314;}.cls-6{fill:#95a6b1;}</style></defs><title>07-icon_ocenza_con_potuaria_ocensayani</title><g class="cls-1"><g id="Capa_1" data-name="Capa 1"><rect class="cls-2" width="120" height="120"/><path class="cls-3" d="M53.29,115.89H35.08a2,2,0,0,1,0-4H53.29a2,2,0,1,1,0,4Z"/><path class="cls-3" d="M75.22,115.89h-9.1a2,2,0,0,1,0-4h9.1a2,2,0,0,1,0,4Z"/><path class="cls-3" d="M88,115.89a2,2,0,0,1-1.42-.58,3.76,3.76,0,0,1-.25-.31,1.83,1.83,0,0,1-.18-.34,1.73,1.73,0,0,1-.11-.37,1.75,1.75,0,0,1,0-.4,2.09,2.09,0,0,1,.15-.76,1.7,1.7,0,0,1,.19-.35,2.25,2.25,0,0,1,.24-.3,2.06,2.06,0,0,1,2.83,0,1.73,1.73,0,0,1,.25.3,2.37,2.37,0,0,1,.19.35,2.59,2.59,0,0,1,.11.37,1.72,1.72,0,0,1,0,.39,1.75,1.75,0,0,1,0,.4,1.73,1.73,0,0,1-.11.37,1.41,1.41,0,0,1-.19.34,1.79,1.79,0,0,1-.25.31A2,2,0,0,1,88,115.89Z"/><g class="cls-4"><path class="cls-5" d="M42.58,115.89H24.37a2,2,0,1,1,0-4H42.58a2,2,0,0,1,0,4Z"/></g><path class="cls-3" d="M69.76,103.67H24.37a2,2,0,0,1,0-4H69.76a2,2,0,0,1,0,4Z"/><g class="cls-4"><path class="cls-5" d="M24.38,103.67a2,2,0,0,1-1.42-.59,2,2,0,0,1-.58-1.41,2.56,2.56,0,0,1,0-.39,2.4,2.4,0,0,1,.12-.38,2.21,2.21,0,0,1,.18-.34,2.42,2.42,0,0,1,.25-.31,2,2,0,0,1,1.81-.54,1.73,1.73,0,0,1,.37.11,1.7,1.7,0,0,1,.35.19,2.25,2.25,0,0,1,.3.24,3.76,3.76,0,0,1,.25.31,2.21,2.21,0,0,1,.18.34,1.66,1.66,0,0,1,.11.38,1.72,1.72,0,0,1,0,.39,2,2,0,0,1-2,2Z"/></g><g class="cls-4"><path class="cls-5" d="M88,103.67H62.26a2,2,0,0,1,0-4H88a2,2,0,0,1,0,4Z"/></g><path class="cls-3" d="M33.06,27.11a9.33,9.33,0,0,1-3.32-.61A9.5,9.5,0,0,1,29.1,9a9.52,9.52,0,0,1,12.59,4.69h0a9.44,9.44,0,0,1,.38,6.93A9.55,9.55,0,0,1,37,26.24,9.41,9.41,0,0,1,33.06,27.11Zm0-15a5.5,5.5,0,0,0-1.92,10.65A5.5,5.5,0,0,0,35,12.45,5.52,5.52,0,0,0,33.05,12.1Z"/><path class="cls-6" d="M41.79,89.7a15,15,0,0,1-15-15V33.07a2,2,0,0,1,4,0v41.6a11,11,0,0,0,11,11H62.48l23,0V14.46H47.19a2,2,0,0,1,0-4H87.45a2,2,0,0,1,2,2V87.64a2,2,0,0,1-2,2l-25,.06Z"/><path class="cls-6" d="M75.91,36.52H39.6a2,2,0,0,1,0-4H75.91a2,2,0,0,1,0,4Z"/><path class="cls-6" d="M76.21,50.27H39.9a2,2,0,0,1,0-4H76.21a2,2,0,0,1,0,4Z"/><path class="cls-6" d="M62.28,63.21H39.53a2,2,0,0,1,0-4H62.28a2,2,0,0,1,0,4Z"/><path class="cls-6" d="M65.4,82.68h-.09a2,2,0,0,1-1.52-.81L60,76.7a2,2,0,0,1,3.22-2.37l2.33,3.17,7.6-8.58a2,2,0,0,1,3,2.65L66.9,82A2,2,0,0,1,65.4,82.68Z"/><rect class="cls-2" width="120" height="120"/></g></g></svg>