<svg id="Capa_1" data-name="Capa 1" xmlns="http://www.w3.org/2000/svg" viewBox="0 0 120 120"><defs><style>.cls-1{fill:#fff;}.cls-2{opacity:0.8;}.cls-2,.cls-6,.cls-7{isolation:isolate;}.cls-3{opacity:0.85;}.cls-4{opacity:0.7;}.cls-5,.cls-6{opacity:0.6;}.cls-7{opacity:0.5;}.cls-8{fill:#95a6b1;}.cls-9{fill:none;}</style></defs><title>08-icon_ocenza_con_potuaria_que_es_comport</title><path class="cls-1" d="M46.38,115.09H38a2,2,0,0,1,0-4h8.39a2,2,0,0,1,0,4Z"/><g class="cls-2"><path class="cls-1" d="M27.93,102.83a2,2,0,0,1-1.41-.59,1.88,1.88,0,0,1-.44-.64,2,2,0,0,1-.15-.77,2,2,0,0,1,.59-1.41,2.06,2.06,0,0,1,2.83,0,2.48,2.48,0,0,1,.25.3,2.31,2.31,0,0,1,.18.35,1.58,1.58,0,0,1,.11.37,1.72,1.72,0,0,1,0,.39,2,2,0,0,1-2,2Z"/></g><g class="cls-3"><path class="cls-1" d="M79,115.12H69.87a2,2,0,0,1,0-4H79a2,2,0,0,1,0,4Z"/></g><path class="cls-1" d="M91.88,115.12a2,2,0,0,1-1.41-.59,1.88,1.88,0,0,1-.44-.64,2,2,0,0,1-.15-.77,2,2,0,0,1,.59-1.41,2.06,2.06,0,0,1,2.83,0,2,2,0,0,1,.58,1.41,2,2,0,0,1-.15.77,1.85,1.85,0,0,1-.43.64,1.79,1.79,0,0,1-.31.25,1.63,1.63,0,0,1-.34.19,1.73,1.73,0,0,1-.37.11A1.75,1.75,0,0,1,91.88,115.12Z"/><g class="cls-4"><path class="cls-1" d="M46.22,115.12H27.93a2,2,0,0,1,0-4H46.22a2,2,0,0,1,0,4Z"/></g><g class="cls-5"><path class="cls-1" d="M57,115.12H38.68a2,2,0,0,1,0-4H57a2,2,0,1,1,0,4Z"/></g><g class="cls-6"><path class="cls-1" d="M73.54,102.83H27.93a2,2,0,1,1,0-4H73.54a2,2,0,0,1,0,4Z"/></g><g class="cls-7"><path class="cls-1" d="M91.88,102.83H66a2,2,0,0,1,0-4H91.88a2,2,0,0,1,0,4Z"/></g><path class="cls-1" d="M73.57,102.83H66.06a2,2,0,0,1,0-4h7.51a2,2,0,0,1,0,4Z"/><path class="cls-8" d="M107.29,56.43H55a4.65,4.65,0,0,1-4.65-4.65V45.67A4.65,4.65,0,0,1,55,41h52.25a4.64,4.64,0,0,1,4.64,4.64v6.11A4.65,4.65,0,0,1,107.29,56.43ZM55,45a.65.65,0,0,0-.65.64v6.11a.65.65,0,0,0,.65.65h52.25a.65.65,0,0,0,.64-.65V45.67a.64.64,0,0,0-.64-.64Z"/><path class="cls-8" d="M105.32,45H58.2a2,2,0,0,1,0-4h45.12V13A2.38,2.38,0,0,0,101,10.64H62.36A2.16,2.16,0,0,0,60.2,12.8v6.75a2,2,0,0,1-4,0V12.8a6.16,6.16,0,0,1,6.16-6.16H101A6.38,6.38,0,0,1,107.32,13V43A2,2,0,0,1,105.32,45Z"/><path class="cls-8" d="M58.28,19a2,2,0,1,1,0-4h47a2,2,0,0,1,0,4Z"/><path class="cls-8" d="M83.66,45a2,2,0,0,1-2-2v-26a2,2,0,1,1,4,0V43A2,2,0,0,1,83.66,45Z"/><path class="cls-8" d="M96.46,25.23H83.66a2,2,0,0,1,0-4h12.8a2,2,0,0,1,0,4Z"/><path class="cls-8" d="M96.46,31.73H83.66a2,2,0,0,1,0-4h12.8a2,2,0,0,1,0,4Z"/><path class="cls-8" d="M96.46,38.46H83.66a2,2,0,0,1,0-4h12.8a2,2,0,0,1,0,4Z"/><path class="cls-8" d="M96.5,45a2,2,0,0,1-2-2v-26a2,2,0,1,1,4,0V43A2,2,0,0,1,96.5,45Z"/><g class="cls-3"><path class="cls-1" d="M58.2,39.52a8.06,8.06,0,1,1,5.9-2.58A8.07,8.07,0,0,1,58.2,39.52Zm0-12.11a4.06,4.06,0,0,0,0,8.11,4.06,4.06,0,0,0,4-4.06A4.05,4.05,0,0,0,58.2,27.41Z"/></g><path class="cls-8" d="M73.86,74.39H34.31a2,2,0,0,1-2-2v-8a2,2,0,0,1,2-2H73.86a3,3,0,0,0,3-3v-5a2,2,0,0,1,2-2h8a2,2,0,0,1,2,2v5A15,15,0,0,1,73.86,74.39Zm-37.55-4H73.86a11,11,0,0,0,11-11v-3h-4v3a7,7,0,0,1-7,7H36.31Z"/><path class="cls-8" d="M34.31,77.8H26.5a2,2,0,0,1-2-2V61a2,2,0,0,1,2-2h7.81a2,2,0,0,1,2,2V75.8A2,2,0,0,1,34.31,77.8Zm-5.81-4h3.81V63H28.5Z"/><path class="cls-8" d="M26.5,74.39H13.44a2,2,0,0,1-2-2v-8a2,2,0,0,1,2-2H26.5a2,2,0,0,1,2,2v8A2,2,0,0,1,26.5,74.39Zm-11.06-4H24.5v-4H15.44Z"/><path class="cls-8" d="M45.59,52.73a7.34,7.34,0,0,1-5.5-2.57c-1-1-1.52-1.43-2.71-1.43s-1.72.46-2.71,1.43a7.18,7.18,0,0,1-11,0c-1-1-1.52-1.43-2.71-1.43s-1.72.46-2.71,1.43a7.37,7.37,0,0,1-5.51,2.57,2,2,0,1,1,0-4c1.19,0,1.72-.47,2.72-1.44a7.19,7.19,0,0,1,11,0c1,1,1.53,1.44,2.72,1.44s1.71-.47,2.71-1.44a7.19,7.19,0,0,1,11,0c1,1,1.53,1.44,2.71,1.44a2,2,0,0,1,0,4Z"/><path class="cls-8" d="M109.93,89.72a8.73,8.73,0,0,1-6.13-2.46,4.94,4.94,0,0,0-7.17,0,8.87,8.87,0,0,1-12.26,0,5,5,0,0,0-7.18,0,8.87,8.87,0,0,1-12.26,0,4.94,4.94,0,0,0-7.17,0,8.88,8.88,0,0,1-12.27,0,5,5,0,0,0-7.18,0,8.87,8.87,0,0,1-12.26,0,5,5,0,0,0-7.19,0,8.71,8.71,0,0,1-6.13,2.46,2,2,0,0,1,0-4,4.89,4.89,0,0,0,3.59-1.55,8.91,8.91,0,0,1,12.27,0,4.93,4.93,0,0,0,7.18,0,8.91,8.91,0,0,1,12.27,0,4.92,4.92,0,0,0,7.17,0,8.89,8.89,0,0,1,12.26,0,4.93,4.93,0,0,0,7.18,0,8.89,8.89,0,0,1,12.26,0,4.93,4.93,0,0,0,7.18,0,8.89,8.89,0,0,1,12.26,0,4.88,4.88,0,0,0,3.58,1.55,2,2,0,0,1,0,4Z"/><rect class="cls-9" width="120" height="120"/></svg>