<svg xmlns="http://www.w3.org/2000/svg" viewBox="0 0 120 120"><defs><style>.cls-1{isolation:isolate;}.cls-2{fill:none;}.cls-3{fill:#ffea27;}.cls-4{fill:#95a6b1;}.cls-5{mix-blend-mode:multiply;}.cls-6{fill:#f4d314;}</style></defs><title>09-icon_ocenza_con_potuaria_componente_ambiental</title><g class="cls-1"><g id="Capa_1" data-name="Capa 1"><rect class="cls-2" width="120" height="120"/><path class="cls-3" d="M33.3,26a9.86,9.86,0,1,1,9-13.95h0a9.86,9.86,0,0,1-4.87,13.06A9.69,9.69,0,0,1,33.3,26Zm0-15.72a5.74,5.74,0,0,0-2.43.54A5.86,5.86,0,1,0,35.72,21.5a5.85,5.85,0,0,0-.39-10.81A5.85,5.85,0,0,0,33.28,10.31Z"/><path class="cls-4" d="M64.12,91.62H42.43A15.66,15.66,0,0,1,26.79,76V32.39a2,2,0,0,1,4,0V76A11.65,11.65,0,0,0,42.43,87.62H64.11l24.17-.05V12.79H48.1a2,2,0,0,1,0-4H90.28a2,2,0,0,1,2,2V89.57a2,2,0,0,1-2,2Z"/><path class="cls-4" d="M59.49,75a2,2,0,0,1-2-2V45a2,2,0,0,1,4,0V73A2,2,0,0,1,59.49,75Z"/><path class="cls-4" d="M59.67,51.85a2,2,0,0,1-1.41-.58,2,2,0,0,1,0-2.83L72.2,34.5A2,2,0,1,1,75,37.32l-13.94,14A2,2,0,0,1,59.67,51.85Z"/><path class="cls-4" d="M59.27,60.75a2,2,0,0,1-1.12-.34l-12-8.17a2,2,0,0,1,2.25-3.31l12,8.17a2,2,0,0,1-1.12,3.65Z"/><path class="cls-4" d="M71.56,47.3A9.57,9.57,0,0,1,64.8,31c3.24-3.25,14.66-5.31,16.91-5.69a2,2,0,0,1,1.75.56A2,2,0,0,1,84,27.58c-.38,2.26-2.44,13.67-5.69,16.92A9.5,9.5,0,0,1,71.56,47.3Zm8-17.54c-4.8,1-10.49,2.61-11.91,4a5.57,5.57,0,1,0,7.87,7.88C76.93,40.24,78.54,34.56,79.54,29.76Z"/><path class="cls-4" d="M52.44,56.21a2,2,0,0,1-1.12-.34l-7.38-5a2,2,0,1,1,2.25-3.31l7.37,5a2,2,0,0,1,.53,2.78A2,2,0,0,1,52.44,56.21Z"/><path class="cls-4" d="M47,59.58a7.88,7.88,0,0,1-4.45-1.36c-3.19-2.17-6.27-11-7.13-13.63a2,2,0,0,1,.24-1.74A2,2,0,0,1,37.23,42c2.78-.17,12.11-.56,15.3,1.61h0a8,8,0,0,1,3.41,5.53,9.25,9.25,0,0,1-7,10.24A8.1,8.1,0,0,1,47,59.58Zm-6.9-13.72c1.54,4.13,3.52,8.25,4.7,9a4,4,0,0,0,3.23.55A5.27,5.27,0,0,0,52,49.69a4,4,0,0,0-1.71-2.8h0C49.1,46.09,44.54,45.76,40.14,45.86Z"/><path class="cls-4" d="M72.3,75.07H47.69a2,2,0,0,1,0-4H72.3a2,2,0,1,1,0,4Z"/><path class="cls-3" d="M57.09,115.85H38.88a2,2,0,1,1,0-4H57.09a2,2,0,0,1,0,4Z"/><path class="cls-3" d="M79,115.85h-9.1a2,2,0,1,1,0-4H79a2,2,0,1,1,0,4Z"/><path class="cls-3" d="M91.82,115.85a2,2,0,0,1-2-2,2,2,0,0,1,.59-1.42,2.08,2.08,0,0,1,2.83,0,2,2,0,0,1,.58,1.42,2,2,0,0,1-.15.76,2.16,2.16,0,0,1-.43.65,2,2,0,0,1-.65.44A2,2,0,0,1,91.82,115.85Z"/><g class="cls-5"><path class="cls-6" d="M46.38,115.85H28.18a2,2,0,0,1,0-4h18.2a2,2,0,0,1,0,4Z"/></g><path class="cls-3" d="M73.56,103.62H28.18a2,2,0,0,1,0-4H73.56a2,2,0,0,1,0,4Z"/><g class="cls-5"><path class="cls-6" d="M28.18,103.62a2,2,0,0,1-1.42-.59,2.48,2.48,0,0,1-.25-.3,2.21,2.21,0,0,1-.18-.34,2.2,2.2,0,0,1-.15-.77,2,2,0,0,1,.58-1.41,1.79,1.79,0,0,1,.31-.25,2.27,2.27,0,0,1,.34-.19l.38-.11a2,2,0,0,1,1.8.55,1.81,1.81,0,0,1,.25.3,2.37,2.37,0,0,1,.19.35,2.26,2.26,0,0,1,.11.37,1.72,1.72,0,0,1,0,.39,1.67,1.67,0,0,1,0,.39,2.38,2.38,0,0,1-.11.38,1.63,1.63,0,0,1-.19.34,1.42,1.42,0,0,1-.25.3A2,2,0,0,1,28.18,103.62Z"/></g><g class="cls-5"><path class="cls-6" d="M91.82,103.62H66.06a2,2,0,0,1,0-4H91.82a2,2,0,0,1,0,4Z"/></g></g></g></svg>