<svg id="Capa_1" data-name="Capa 1" xmlns="http://www.w3.org/2000/svg" viewBox="0 0 120 120"><defs><style>.cls-1{fill:#fff;}.cls-2{opacity:0.8;}.cls-2,.cls-6,.cls-7{isolation:isolate;}.cls-3{opacity:0.85;}.cls-4{opacity:0.7;}.cls-5,.cls-6{opacity:0.6;}.cls-7{opacity:0.5;}.cls-8{fill:#95a6b1;}.cls-9{fill:none;}</style></defs><title>10-icon_ocenza_con_potuaria_componente_los_requerimientos</title><path class="cls-1" d="M46.47,115.09H38.08a2,2,0,0,1,0-4h8.39a2,2,0,0,1,0,4Z"/><g class="cls-2"><path class="cls-1" d="M28,102.83a2,2,0,0,1-1.42-.59,1.85,1.85,0,0,1-.43-.64,2,2,0,0,1-.15-.77,2,2,0,0,1,.58-1.41,2.34,2.34,0,0,1,.3-.25,2.31,2.31,0,0,1,.35-.18,2.65,2.65,0,0,1,.37-.12,2,2,0,0,1,2.4,2,2,2,0,0,1-.16.77,1.85,1.85,0,0,1-.43.64A2,2,0,0,1,28,102.83Z"/></g><g class="cls-3"><path class="cls-1" d="M79.12,115.12H70a2,2,0,1,1,0-4h9.16a2,2,0,0,1,0,4Z"/></g><path class="cls-1" d="M92,115.12a1.75,1.75,0,0,1-.4,0,1.73,1.73,0,0,1-.37-.11,1.41,1.41,0,0,1-.34-.19,1.79,1.79,0,0,1-.31-.25,1.85,1.85,0,0,1-.43-.64,2,2,0,0,1-.15-.77,1.72,1.72,0,0,1,0-.39,1.66,1.66,0,0,1,.11-.38,2.21,2.21,0,0,1,.18-.34,2.48,2.48,0,0,1,.25-.3,2,2,0,0,1,1.81-.55,1.73,1.73,0,0,1,.37.11,1.7,1.7,0,0,1,.35.19,1.42,1.42,0,0,1,.3.25,2,2,0,0,1,.59,1.41,2.07,2.07,0,0,1-.15.77,2.15,2.15,0,0,1-.44.64,1.73,1.73,0,0,1-.3.25,1.7,1.7,0,0,1-.35.19,1.58,1.58,0,0,1-.37.11A1.72,1.72,0,0,1,92,115.12Z"/><g class="cls-4"><path class="cls-1" d="M46.32,115.12H28a2,2,0,0,1,0-4h18.3a2,2,0,0,1,0,4Z"/></g><g class="cls-5"><path class="cls-1" d="M57.08,115.12H38.78a2,2,0,0,1,0-4h18.3a2,2,0,0,1,0,4Z"/></g><g class="cls-6"><path class="cls-1" d="M73.63,102.83H28a2,2,0,1,1,0-4H73.63a2,2,0,0,1,0,4Z"/></g><g class="cls-7"><path class="cls-1" d="M92,102.83H66.09a2,2,0,0,1,0-4H92a2,2,0,0,1,0,4Z"/></g><path class="cls-1" d="M73.66,102.83h-7.5a2,2,0,0,1,0-4h7.5a2,2,0,0,1,0,4Z"/><g class="cls-3"><path class="cls-1" d="M32.78,29.08A9.5,9.5,0,1,1,41.4,15.64h0a9.44,9.44,0,0,1,.38,6.93,9.54,9.54,0,0,1-5.07,5.66A9.44,9.44,0,0,1,32.78,29.08Zm0-15a5.42,5.42,0,0,0-2.27.5,5.49,5.49,0,1,0,2.27-.5Z"/></g><path class="cls-8" d="M41.73,91.68a15,15,0,0,1-15-15V35.06a2,2,0,0,1,4,0v41.6a11,11,0,0,0,11,11H62.42l23-.05V16.44H47.14a2,2,0,1,1,0-4H87.39a2,2,0,0,1,2,2V89.63a2,2,0,0,1-2,2l-25,.05Z"/><path class="cls-8" d="M75.09,77.33H39.73a3.41,3.41,0,0,1-3.11-4.82L53.4,35.37l1.82.83-1.82-.83a3.38,3.38,0,0,1,3-2,3.44,3.44,0,0,1,3.12,1.89L78.15,72.39a3.41,3.41,0,0,1-3.06,4.94Zm-34.46-4H74.15L56.54,38.14Z"/><path class="cls-8" d="M56.84,62.71a2,2,0,0,1-2-2V51a2,2,0,1,1,4,0v9.7A2,2,0,0,1,56.84,62.71Z"/><ellipse class="cls-8" cx="56.84" cy="67.25" rx="2.82" ry="2.72"/><path class="cls-8" d="M62.59,47.47a1.72,1.72,0,0,1-1.48-.82c-.19-.29-4.48-7.23-2.43-13.74s9.56-9.73,9.88-9.86a1.75,1.75,0,0,1,2.16.68C70.9,24,75.2,31,73.14,37.47h0c-2.06,6.52-9.56,9.73-9.88,9.86A1.61,1.61,0,0,1,62.59,47.47ZM68.5,27c-2,1.11-5.38,3.48-6.48,7s.33,7.4,1.3,9.43c2-1.11,5.38-3.49,6.48-7h0C70.91,32.92,69.47,29,68.5,27Z"/><path class="cls-8" d="M62.59,47.47a1.63,1.63,0,0,1-.53-.08,1.75,1.75,0,0,1-1.14-2.2l3.32-10.53a1.75,1.75,0,0,1,3.34,1.06L64.26,46.25A1.75,1.75,0,0,1,62.59,47.47Z"/><path class="cls-8" d="M71.24,52.76c-4.72,0-8.67-3.66-8.84-3.82a1.74,1.74,0,0,1-.26-2.25c.14-.22,3.6-5.3,8.75-5.88s9.66,3.59,9.85,3.76A1.75,1.75,0,0,1,81,46.82c-.15.22-3.6,5.3-8.75,5.89h0C71.91,52.74,71.57,52.76,71.24,52.76Zm-5.17-5.38c1.34.92,3.56,2.11,5.78,1.85h0a9.1,9.1,0,0,0,5.21-3.1c-1.34-.92-3.55-2.11-5.77-1.85A9.18,9.18,0,0,0,66.07,47.38Z"/><path class="cls-8" d="M63.59,49.41a1.75,1.75,0,0,1-.19-3.49l8-.9a1.75,1.75,0,1,1,.4,3.48l-8,.9Z"/><rect class="cls-9" width="120" height="120"/></svg>