<svg id="Capa_1" data-name="Capa 1" xmlns="http://www.w3.org/2000/svg" viewBox="0 0 120 120"><defs><style>.cls-1{opacity:0.85;}.cls-2{fill:#fff;}.cls-3{fill:#95a6b1;}.cls-4{opacity:0.8;}.cls-4,.cls-7,.cls-8{isolation:isolate;}.cls-5{opacity:0.7;}.cls-6,.cls-7{opacity:0.6;}.cls-8{opacity:0.5;}.cls-9{fill:none;}</style></defs><title>11-icon_ocenza_con_potuaria_componente_una_licencia</title><g class="cls-1"><path class="cls-2" d="M34.87,28.74a9.54,9.54,0,0,1-3.32-.6,9.5,9.5,0,1,1,12-12.85h0a9.5,9.5,0,0,1-8.64,13.45Zm0-15a5.56,5.56,0,0,0-2.29.5A5.5,5.5,0,0,0,33,24.39a5.5,5.5,0,0,0,3.84-10.3A5.61,5.61,0,0,0,34.87,13.74Z"/></g><path class="cls-3" d="M43.87,91.7a15,15,0,0,1-15-15V35.08a2,2,0,0,1,4,0v41.6a11,11,0,0,0,11,11H64.56l23,0V16.47H49.27a2,2,0,0,1,0-4H89.53a2,2,0,0,1,2,2V89.65a2,2,0,0,1-2,2l-25,0Z"/><g id="Trazado_6132" data-name="Trazado 6132"><path class="cls-3" d="M67.28,48.32a2,2,0,0,1-1.85-1.24c-.13-.33-3.2-8,0-14.17s11.26-8,11.6-8.12a2,2,0,0,1,2.3,1.2c.13.32,3.19,8,0,14.16S68.06,48.2,67.72,48.27A1.65,1.65,0,0,1,67.28,48.32Zm8.9-19.08c-2.12.79-5.6,2.49-7.19,5.52s-1,6.87-.41,9.06c2.13-.78,5.62-2.48,7.2-5.52l1.78.93-1.78-.93C77.36,35.29,76.75,31.44,76.18,29.24Z"/></g><g id="Línea_1426" data-name="Línea 1426"><path class="cls-3" d="M67.28,48.32a2,2,0,0,1-1.77-2.92l5.1-9.79a2,2,0,0,1,3.55,1.85l-5.11,9.79A2,2,0,0,1,67.28,48.32Z"/></g><path class="cls-3" d="M60.19,66.89A8.86,8.86,0,1,1,69,58,8.87,8.87,0,0,1,60.19,66.89Zm0-13.72A4.86,4.86,0,1,0,65,58,4.87,4.87,0,0,0,60.19,53.17Z"/><path class="cls-3" d="M60.19,78.67A20.69,20.69,0,0,1,57,78.4a2,2,0,0,1-1.52-1.17l-1.91-4.31a2.87,2.87,0,0,0-3-1.72l-4.71.51A2,2,0,0,1,44.12,71a20.74,20.74,0,0,1-3.18-5.52,2,2,0,0,1,.25-1.9L44,59.75a2.91,2.91,0,0,0,0-3.44l-2.8-3.81a2,2,0,0,1-.25-1.91,20.68,20.68,0,0,1,3.18-5.51,2,2,0,0,1,1.77-.73l4.71.51a2.88,2.88,0,0,0,3-1.72l1.91-4.32A2,2,0,0,1,57,37.65a23.26,23.26,0,0,1,3.16-.27,20.67,20.67,0,0,1,3.18.27,2,2,0,0,1,1.52,1.17l1.91,4.32a2.89,2.89,0,0,0,3,1.72l4.71-.51a2,2,0,0,1,1.77.73,20.68,20.68,0,0,1,3.18,5.51,2,2,0,0,1-.25,1.91l-2.8,3.81a2.91,2.91,0,0,0,0,3.44l2.8,3.81a2,2,0,0,1,.25,1.9A20.74,20.74,0,0,1,76.25,71a2,2,0,0,1-1.77.73l-4.71-.51a2.87,2.87,0,0,0-3,1.72l-1.91,4.31a2,2,0,0,1-1.52,1.17A20.67,20.67,0,0,1,60.19,78.67Zm-1.51-4.08a13.77,13.77,0,0,0,3,0l1.45-3.29a6.88,6.88,0,0,1,7.06-4.08l3.58.39a16.4,16.4,0,0,0,1.5-2.6l-2.12-2.9a6.87,6.87,0,0,1,0-8.16l2.12-2.9a15.55,15.55,0,0,0-1.5-2.6l-3.58.38a6.86,6.86,0,0,1-7.06-4.08l-1.45-3.28a13.37,13.37,0,0,0-1.5-.09,14.91,14.91,0,0,0-1.51.1l-1.45,3.27a6.86,6.86,0,0,1-7.06,4.08l-3.58-.38a15.55,15.55,0,0,0-1.5,2.6L47.21,54a6.87,6.87,0,0,1,0,8.16L45.09,65a16.4,16.4,0,0,0,1.5,2.6l3.58-.39a6.87,6.87,0,0,1,7.06,4.08Z"/><path class="cls-2" d="M46.47,115.09H38.08a2,2,0,0,1,0-4h8.39a2,2,0,0,1,0,4Z"/><g class="cls-4"><path class="cls-2" d="M28,102.83a2,2,0,0,1-1.42-.59,1.85,1.85,0,0,1-.43-.64,2,2,0,0,1-.15-.77,2,2,0,0,1,.58-1.41,2.34,2.34,0,0,1,.3-.25,2.31,2.31,0,0,1,.35-.18,2.65,2.65,0,0,1,.37-.12,2,2,0,0,1,2.4,2,2,2,0,0,1-.16.77,1.85,1.85,0,0,1-.43.64A2,2,0,0,1,28,102.83Z"/></g><g class="cls-1"><path class="cls-2" d="M79.12,115.12H70a2,2,0,1,1,0-4h9.16a2,2,0,0,1,0,4Z"/></g><path class="cls-2" d="M92,115.12a1.75,1.75,0,0,1-.4,0,1.73,1.73,0,0,1-.37-.11,1.41,1.41,0,0,1-.34-.19,1.79,1.79,0,0,1-.31-.25,1.85,1.85,0,0,1-.43-.64,2,2,0,0,1-.15-.77,1.72,1.72,0,0,1,0-.39,1.66,1.66,0,0,1,.11-.38,2.21,2.21,0,0,1,.18-.34,2.48,2.48,0,0,1,.25-.3,2,2,0,0,1,1.81-.55,1.73,1.73,0,0,1,.37.11,1.7,1.7,0,0,1,.35.19,1.42,1.42,0,0,1,.3.25,2,2,0,0,1,.59,1.41,2.07,2.07,0,0,1-.15.77,2.15,2.15,0,0,1-.44.64,1.73,1.73,0,0,1-.3.25,1.7,1.7,0,0,1-.35.19,1.58,1.58,0,0,1-.37.11A1.72,1.72,0,0,1,92,115.12Z"/><g class="cls-5"><path class="cls-2" d="M46.32,115.12H28a2,2,0,0,1,0-4h18.3a2,2,0,0,1,0,4Z"/></g><g class="cls-6"><path class="cls-2" d="M57.08,115.12H38.78a2,2,0,0,1,0-4h18.3a2,2,0,0,1,0,4Z"/></g><g class="cls-7"><path class="cls-2" d="M73.63,102.83H28a2,2,0,1,1,0-4H73.63a2,2,0,0,1,0,4Z"/></g><g class="cls-8"><path class="cls-2" d="M92,102.83H66.09a2,2,0,0,1,0-4H92a2,2,0,0,1,0,4Z"/></g><path class="cls-2" d="M73.66,102.83h-7.5a2,2,0,0,1,0-4h7.5a2,2,0,0,1,0,4Z"/><rect class="cls-9" width="120" height="120"/></svg>