<svg id="Capa_1" data-name="Capa 1" xmlns="http://www.w3.org/2000/svg" viewBox="0 0 120 120"><defs><style>.cls-1{opacity:0.85;}.cls-2{fill:#fff;}.cls-3{fill:#95a6b1;}.cls-4{opacity:0.8;}.cls-4,.cls-7,.cls-8{isolation:isolate;}.cls-5{opacity:0.7;}.cls-6,.cls-7{opacity:0.6;}.cls-8{opacity:0.5;}.cls-9{fill:none;}</style></defs><title>12-icon_ocenza_con_potuaria_componente_el_cambio</title><g class="cls-1"><path class="cls-2" d="M32.33,43.38a9.51,9.51,0,1,1,3.94-.86A9.37,9.37,0,0,1,32.33,43.38Zm0-15a5.61,5.61,0,0,0-2.28.49,5.5,5.5,0,0,0,4.57,10,5.49,5.49,0,0,0,2.72-7.28h0A5.5,5.5,0,0,0,32.31,28.39Z"/></g><path class="cls-3" d="M100.61,84.71a2,2,0,0,1-2-2V55.85a.32.32,0,0,0-.33-.32h-72a.69.69,0,0,0-.69.69V81.08a2,2,0,0,1-4,0V56.22a4.7,4.7,0,0,1,4.69-4.69H98.28a4.33,4.33,0,0,1,4.33,4.32V82.71A2,2,0,0,1,100.61,84.71Z"/><path class="cls-3" d="M23.54,63.9a2,2,0,0,1,0-4H58.82a2,2,0,1,1,0,4Z"/><line class="cls-2" x1="44.32" y1="61.87" x2="44.32" y2="82.74"/><path class="cls-3" d="M44.32,84.74a2,2,0,0,1-2-2V61.87a2,2,0,0,1,4,0V82.74A2,2,0,0,1,44.32,84.74Z"/><path class="cls-3" d="M44.31,71H32.4a2,2,0,1,1,0-4H44.31a2,2,0,0,1,0,4Z"/><path class="cls-3" d="M44.33,78.35H32.42a2,2,0,0,1,0-4H44.33a2,2,0,0,1,0,4Z"/><path class="cls-3" d="M32.36,88.91a2,2,0,0,1-2-2v-25a2,2,0,1,1,4,0v25A2,2,0,0,1,32.36,88.91Z"/><path class="cls-3" d="M58.86,89.72a2,2,0,0,1-2-2V53.62a2,2,0,1,1,4,0v34.1A2,2,0,0,1,58.86,89.72Z"/><path class="cls-3" d="M90.31,55.51H32.61a2,2,0,0,1-2-2v-6.3a2,2,0,1,1,4,0v4.3h53.7v-17a.36.36,0,0,0-.36-.36H46.22a2,2,0,0,1,0-4H88a4.37,4.37,0,0,1,4.36,4.36v19A2,2,0,0,1,90.31,55.51Z"/><path class="cls-3" d="M80.5,34.17H51.78a2,2,0,0,1-2-2V25.24A4.24,4.24,0,0,1,54,21H78.56a3.94,3.94,0,0,1,3.94,3.93v7.24A2,2,0,0,1,80.5,34.17Zm-26.72-4H78.5V25H54a.23.23,0,0,0-.23.24ZM78.56,25h0Z"/><path class="cls-3" d="M90.39,42.12H45.52a2,2,0,0,1,0-4H90.39a2,2,0,0,1,0,4Z"/><path class="cls-3" d="M109.15,89.8c-3.89,0-5.91-2-7.54-3.57-1.44-1.41-2.49-2.43-4.75-2.43s-3.3,1-4.74,2.43c-1.63,1.59-3.65,3.57-7.54,3.57s-5.91-2-7.54-3.57c-1.44-1.41-2.49-2.43-4.74-2.43s-3.3,1-4.75,2.43C65.92,87.82,63.9,89.8,60,89.8s-5.91-2-7.54-3.57C51,84.82,50,83.8,47.72,83.8s-3.3,1-4.74,2.43c-1.63,1.59-3.66,3.57-7.54,3.57s-5.92-2-7.55-3.57c-1.44-1.41-2.49-2.43-4.75-2.43s-3.3,1-4.75,2.43c-1.63,1.59-3.65,3.57-7.54,3.57a2,2,0,1,1,0-4c2.26,0,3.3-1,4.75-2.44,1.63-1.59,3.66-3.56,7.54-3.56s5.92,2,7.55,3.56c1.44,1.42,2.49,2.44,4.75,2.44s3.3-1,4.74-2.43c1.63-1.59,3.66-3.57,7.54-3.57s5.92,2,7.54,3.57c1.45,1.41,2.49,2.43,4.75,2.43s3.3-1,4.75-2.43c1.62-1.59,3.65-3.57,7.54-3.57s5.91,2,7.54,3.57c1.44,1.41,2.48,2.43,4.74,2.43s3.3-1,4.74-2.43C91,81.77,93,79.8,96.86,79.8s5.92,2,7.55,3.57c1.44,1.41,2.48,2.43,4.74,2.43a2,2,0,0,1,0,4Z"/><path class="cls-2" d="M46.47,115.09H38.08a2,2,0,0,1,0-4h8.39a2,2,0,0,1,0,4Z"/><g class="cls-4"><path class="cls-2" d="M28,102.83a2,2,0,0,1-1.42-.59,1.85,1.85,0,0,1-.43-.64,2,2,0,0,1-.15-.77,2,2,0,0,1,.58-1.41,2.34,2.34,0,0,1,.3-.25,2.31,2.31,0,0,1,.35-.18,2.65,2.65,0,0,1,.37-.12,2,2,0,0,1,2.4,2,2,2,0,0,1-.16.77,1.85,1.85,0,0,1-.43.64A2,2,0,0,1,28,102.83Z"/></g><g class="cls-1"><path class="cls-2" d="M79.12,115.12H70a2,2,0,1,1,0-4h9.16a2,2,0,0,1,0,4Z"/></g><path class="cls-2" d="M92,115.12a1.75,1.75,0,0,1-.4,0,1.73,1.73,0,0,1-.37-.11,1.41,1.41,0,0,1-.34-.19,1.79,1.79,0,0,1-.31-.25,1.85,1.85,0,0,1-.43-.64,2,2,0,0,1-.15-.77,1.72,1.72,0,0,1,0-.39,1.66,1.66,0,0,1,.11-.38,2.21,2.21,0,0,1,.18-.34,2.48,2.48,0,0,1,.25-.3,2,2,0,0,1,1.81-.55,1.73,1.73,0,0,1,.37.11,1.7,1.7,0,0,1,.35.19,1.42,1.42,0,0,1,.3.25,2,2,0,0,1,.59,1.41,2.07,2.07,0,0,1-.15.77,2.15,2.15,0,0,1-.44.64,1.73,1.73,0,0,1-.3.25,1.7,1.7,0,0,1-.35.19,1.58,1.58,0,0,1-.37.11A1.72,1.72,0,0,1,92,115.12Z"/><g class="cls-5"><path class="cls-2" d="M46.32,115.12H28a2,2,0,0,1,0-4h18.3a2,2,0,0,1,0,4Z"/></g><g class="cls-6"><path class="cls-2" d="M57.08,115.12H38.78a2,2,0,0,1,0-4h18.3a2,2,0,0,1,0,4Z"/></g><g class="cls-7"><path class="cls-2" d="M73.63,102.83H28a2,2,0,1,1,0-4H73.63a2,2,0,0,1,0,4Z"/></g><g class="cls-8"><path class="cls-2" d="M92,102.83H66.09a2,2,0,0,1,0-4H92a2,2,0,0,1,0,4Z"/></g><path class="cls-2" d="M73.66,102.83h-7.5a2,2,0,0,1,0-4h7.5a2,2,0,0,1,0,4Z"/><rect class="cls-9" width="120" height="120"/></svg>