<svg id="Capa_1" data-name="Capa 1" xmlns="http://www.w3.org/2000/svg" viewBox="0 0 120 120"><defs><style>.cls-1{fill:#95a6b1;}.cls-2{opacity:0.85;}.cls-3{fill:#fff;}.cls-4{opacity:0.8;}.cls-4,.cls-7,.cls-8{isolation:isolate;}.cls-5{opacity:0.7;}.cls-6,.cls-7{opacity:0.6;}.cls-8{opacity:0.5;}.cls-9{fill:none;}</style></defs><title>13-icon_ocenza_con_potuaria_componente_el_impacto</title><path class="cls-1" d="M60.51,60.71H21.38a2,2,0,0,1-2-2V42.5a2,2,0,0,1,2-2H60.51a2,2,0,0,1,2,2V58.71A2,2,0,0,1,60.51,60.71Zm-37.13-4H58.51V44.5H23.38Z"/><path class="cls-1" d="M70.35,62.71H60.53a2,2,0,0,1-2-2V40.5a2,2,0,0,1,2-2h9.82a2,2,0,0,1,2,2V60.71A2,2,0,0,1,70.35,62.71Zm-7.82-4h5.82V42.5H62.53Z"/><path class="cls-1" d="M39.38,60.71a2,2,0,0,1-2-2V54.23a2,2,0,0,1,4,0v4.48A2,2,0,0,1,39.38,60.71Z"/><path class="cls-1" d="M39.38,49.05a2,2,0,0,1-2-2V42.5a2,2,0,0,1,4,0v4.55A2,2,0,0,1,39.38,49.05Z"/><g class="cls-2"><path class="cls-3" d="M16,35.69a9.55,9.55,0,0,1-8.64-5.56A9.46,9.46,0,1,1,16,35.69Zm0-15a5.57,5.57,0,0,0-2.28.49,5.5,5.5,0,1,0,4.57,10,5.39,5.39,0,0,0,2.93-3.27,5.46,5.46,0,0,0-.22-4h0A5.49,5.49,0,0,0,16,20.69Z"/></g><path class="cls-1" d="M50.42,44.5h-29a2,2,0,0,1-2-2V38.78a2,2,0,0,1,4,0V40.5h25V28.89H29.72a2,2,0,0,1,0-4h20.7a2,2,0,0,1,2,2V42.5A2,2,0,0,1,50.42,44.5Z"/><path class="cls-1" d="M35.9,28.89a2,2,0,0,1-2-2V17.36a2,2,0,0,1,4,0v9.53A2,2,0,0,1,35.9,28.89Z"/><path class="cls-1" d="M42.57,19.36H29.72a2,2,0,0,1,0-4H42.57a2,2,0,0,1,0,4Z"/><path class="cls-1" d="M50.42,36.7H29.61a2,2,0,0,1,0-4H50.42a2,2,0,0,1,0,4Z"/><path class="cls-1" d="M105.17,87.93H86.27a2,2,0,0,1-2-2V69.73a2,2,0,0,1,2-2h18.9a2,2,0,0,1,2,2v16.2A2,2,0,0,1,105.17,87.93Zm-16.9-4h14.9V71.73H88.27Z"/><path class="cls-1" d="M86.25,89.94H76.43a2,2,0,0,1-2-2V67.72a2,2,0,0,1,2-2h9.82a2,2,0,0,1,2,2V87.94A2,2,0,0,1,86.25,89.94Zm-7.82-4h5.82V69.72H78.43Z"/><path class="cls-1" d="M63.34,88.78a2,2,0,0,1-2-2V73.9a2,2,0,0,1,4,0V86.78A2,2,0,0,1,63.34,88.78Z"/><path class="cls-1" d="M63.34,89.32a2,2,0,0,1-1.41-.59l-5.37-5.37a2,2,0,1,1,2.83-2.83l4,4,4-4a2,2,0,1,1,2.83,2.83l-5.37,5.37A2,2,0,0,1,63.34,89.32Z"/><path class="cls-1" d="M77.42,34.89a2,2,0,0,1-2-2V20a2,2,0,0,1,4,0V32.89A2,2,0,0,1,77.42,34.89Z"/><path class="cls-1" d="M82.79,26.85a2,2,0,0,1-1.41-.59l-4-4-4,4a2,2,0,1,1-2.83-2.83L76,18.06a2,2,0,0,1,2.82,0l5.38,5.37a2,2,0,0,1-1.42,3.42Z"/><path class="cls-1" d="M89.94,58.62a9.17,9.17,0,0,1-9.15-9.16,9,9,0,0,1,.75-3.57,2,2,0,0,1,.12-.31l6.49-13.21a2,2,0,0,1,1.79-1.12h0a2,2,0,0,1,1.8,1.12l6.49,13.21a1.75,1.75,0,0,1,.12.32,8.89,8.89,0,0,1,.75,3.56A9.17,9.17,0,0,1,89.94,58.62ZM85.37,47.09a1.8,1.8,0,0,1-.08.21,5.16,5.16,0,1,0,9.31,0,1.8,1.8,0,0,1-.08-.21l-4.58-9.3Z"/><path class="cls-3" d="M46.47,115.09H38.08a2,2,0,0,1,0-4h8.39a2,2,0,0,1,0,4Z"/><g class="cls-4"><path class="cls-3" d="M28,102.83a2,2,0,0,1-1.42-.59,1.85,1.85,0,0,1-.43-.64,2,2,0,0,1-.15-.77,2,2,0,0,1,.58-1.41,2.34,2.34,0,0,1,.3-.25,2.31,2.31,0,0,1,.35-.18,2.65,2.65,0,0,1,.37-.12,2,2,0,0,1,2.4,2,2,2,0,0,1-.16.77,1.85,1.85,0,0,1-.43.64A2,2,0,0,1,28,102.83Z"/></g><g class="cls-2"><path class="cls-3" d="M79.12,115.12H70a2,2,0,1,1,0-4h9.16a2,2,0,0,1,0,4Z"/></g><path class="cls-3" d="M92,115.12a1.75,1.75,0,0,1-.4,0,1.73,1.73,0,0,1-.37-.11,1.41,1.41,0,0,1-.34-.19,1.79,1.79,0,0,1-.31-.25,1.85,1.85,0,0,1-.43-.64,2,2,0,0,1-.15-.77,1.72,1.72,0,0,1,0-.39,1.66,1.66,0,0,1,.11-.38,2.21,2.21,0,0,1,.18-.34,2.48,2.48,0,0,1,.25-.3,2,2,0,0,1,1.81-.55,1.73,1.73,0,0,1,.37.11,1.7,1.7,0,0,1,.35.19,1.42,1.42,0,0,1,.3.25,2,2,0,0,1,.59,1.41,2.07,2.07,0,0,1-.15.77,2.15,2.15,0,0,1-.44.64,1.73,1.73,0,0,1-.3.25,1.7,1.7,0,0,1-.35.19,1.58,1.58,0,0,1-.37.11A1.72,1.72,0,0,1,92,115.12Z"/><g class="cls-5"><path class="cls-3" d="M46.32,115.12H28a2,2,0,0,1,0-4h18.3a2,2,0,0,1,0,4Z"/></g><g class="cls-6"><path class="cls-3" d="M57.08,115.12H38.78a2,2,0,0,1,0-4h18.3a2,2,0,0,1,0,4Z"/></g><g class="cls-7"><path class="cls-3" d="M73.63,102.83H28a2,2,0,1,1,0-4H73.63a2,2,0,0,1,0,4Z"/></g><g class="cls-8"><path class="cls-3" d="M92,102.83H66.09a2,2,0,0,1,0-4H92a2,2,0,0,1,0,4Z"/></g><path class="cls-3" d="M73.66,102.83h-7.5a2,2,0,0,1,0-4h7.5a2,2,0,0,1,0,4Z"/><rect class="cls-9" width="120" height="120"/></svg>