<svg id="Capa_1" data-name="Capa 1" xmlns="http://www.w3.org/2000/svg" viewBox="0 0 120 120"><defs><style>.cls-1{opacity:0.85;}.cls-2{fill:#fff;}.cls-3{fill:#95a6b1;}.cls-4{opacity:0.8;}.cls-4,.cls-7,.cls-8{isolation:isolate;}.cls-5{opacity:0.7;}.cls-6,.cls-7{opacity:0.6;}.cls-8{opacity:0.5;}.cls-9{fill:none;}</style></defs><title>14-icon_ocenza_con_potuaria_componente_aunque_reemplazo</title><g class="cls-1"><path class="cls-2" d="M72.7,30.29a9.5,9.5,0,1,1,8.62-13.44h0a9.49,9.49,0,0,1-4.69,12.58A9.36,9.36,0,0,1,72.7,30.29Zm0-15a5.61,5.61,0,0,0-2.28.49,5.52,5.52,0,1,0,2.28-.49Z"/></g><path class="cls-3" d="M107.21,39H97.15a2,2,0,0,1-2-2V23.77a2,2,0,0,1,2-2h10.06a2,2,0,0,1,2,2V37A2,2,0,0,1,107.21,39Zm-8.06-4h6.06V25.77H99.15Z"/><path class="cls-3" d="M112.89,43h-4.26a3.42,3.42,0,0,1-3.42-3.41V21.15a3.42,3.42,0,0,1,3.42-3.42h4.26a3.42,3.42,0,0,1,3.41,3.42V39.57A3.41,3.41,0,0,1,112.89,43Zm-3.68-4h3.09V21.73h-3.09Z"/><path class="cls-3" d="M90.16,42.63a2,2,0,0,1-.94-3.77l7-3.68a2,2,0,1,1,1.87,3.54l-7,3.68A2,2,0,0,1,90.16,42.63Z"/><path class="cls-3" d="M97.15,25.77a2,2,0,0,1-1-.24l-7-3.83a2,2,0,0,1,1.92-3.51l7,3.83a2,2,0,0,1-1,3.75Z"/><path class="cls-3" d="M90.15,42.63H71.73a2,2,0,0,1-2-2V35.24a2,2,0,1,1,4,0v3.39H88.15V22H86.38a2,2,0,0,1,0-4h3.77a2,2,0,0,1,2,2V40.63A2,2,0,0,1,90.15,42.63Z"/><path class="cls-3" d="M26.39,84.15h-10a2,2,0,0,1-2-2V69a2,2,0,0,1,2-2H26.39a2,2,0,0,1,2,2V82.15A2,2,0,0,1,26.39,84.15Zm-8-4h6.05V71H18.34Z"/><path class="cls-3" d="M14.92,88.19H10.66a3.42,3.42,0,0,1-3.41-3.42V66.35a3.41,3.41,0,0,1,3.41-3.41h4.26a3.41,3.41,0,0,1,3.41,3.41V84.77A3.42,3.42,0,0,1,14.92,88.19Zm-3.67-4h3.08V66.94H11.25Z"/><path class="cls-3" d="M33.39,87.83a2,2,0,0,1-.93-.23l-7-3.68a2,2,0,1,1,1.86-3.54l7,3.68a2,2,0,0,1-.94,3.77Z"/><path class="cls-3" d="M26.4,71a2,2,0,0,1-1-3.75l7-3.83a2,2,0,0,1,1.91,3.51l-7,3.83A2,2,0,0,1,26.4,71Z"/><path class="cls-3" d="M51.81,87.83H33.4a2,2,0,0,1-2-2V65.15a2,2,0,0,1,2-2H51.81a2,2,0,0,1,2,2V85.83A2,2,0,0,1,51.81,87.83Zm-16.41-4H49.81V67.15H35.4Z"/><path class="cls-3" d="M65.12,87.83H51.81a2,2,0,0,1-2-2V65.15a2,2,0,0,1,.59-1.42,2,2,0,0,1,1.41-.58H65.29c2.61,0,4.43-1.64,4.43-4V40.63a2,2,0,0,1,2-2H90.15a2,2,0,0,1,2,2V59.15C92.15,74.43,79.52,87.83,65.12,87.83Zm-11.31-4H65.12c12.27,0,23-11.53,23-24.68V42.63H73.72V59.15c0,4.56-3.62,8-8.43,8H53.81Z"/><path class="cls-3" d="M90.15,90a2,2,0,0,1-1.54-.73L60.1,54.6a2,2,0,1,1,3.08-2.54L91.7,86.72a2,2,0,0,1-.28,2.81A2,2,0,0,1,90.15,90Z"/><path class="cls-3" d="M65.18,87.29a2,2,0,0,1-2-2V73a2,2,0,0,1,4,0V85.29A2,2,0,0,1,65.18,87.29Z"/><path class="cls-3" d="M65.18,82.53a2.17,2.17,0,0,1-.66-.11l-7.26-2.54A2,2,0,0,1,55.92,78V74.58a2,2,0,0,1,4,0v2l5.92,2.07a2,2,0,0,1-.66,3.89Z"/><circle class="cls-3" cx="72.95" cy="80.86" r="3.39"/><g id="Grupo_7400" data-name="Grupo 7400"><g id="Trazado_6211" data-name="Trazado 6211"><path class="cls-3" d="M53,28.05a2,2,0,0,1-.77-3.85l3.21-1.34L54,18.9a2,2,0,0,1,3.77-1.35l2,5.75a2,2,0,0,1-1.11,2.52l-5,2.07A1.9,1.9,0,0,1,53,28.05Z"/></g></g><g id="Grupo_7401" data-name="Grupo 7401"><g id="Trazado_6212" data-name="Trazado 6212"><path class="cls-3" d="M19.64,52.28A2,2,0,0,1,18,51.43L14.93,47a2,2,0,1,1,3.28-2.28l2,2.85,3.57-2.21a2,2,0,1,1,2.11,3.4L20.69,52A1.91,1.91,0,0,1,19.64,52.28Z"/></g></g><g id="Trazado_6213" data-name="Trazado 6213"><path class="cls-3" d="M20.29,50.86h-.1a2,2,0,0,1-1.9-2.1A30.71,30.71,0,0,1,57.45,20.83a2,2,0,0,1-1.11,3.85,26.13,26.13,0,0,0-6.07-1,26.68,26.68,0,0,0-28,25.3A2,2,0,0,1,20.29,50.86Z"/></g><path class="cls-2" d="M46.47,115.09H38.08a2,2,0,0,1,0-4h8.39a2,2,0,0,1,0,4Z"/><g class="cls-4"><path class="cls-2" d="M28,102.83a2,2,0,0,1-1.42-.59,1.85,1.85,0,0,1-.43-.64,2,2,0,0,1-.15-.77,2,2,0,0,1,.58-1.41,2.34,2.34,0,0,1,.3-.25,2.31,2.31,0,0,1,.35-.18,2.65,2.65,0,0,1,.37-.12,2,2,0,0,1,2.4,2,2,2,0,0,1-.16.77,1.85,1.85,0,0,1-.43.64A2,2,0,0,1,28,102.83Z"/></g><g class="cls-1"><path class="cls-2" d="M79.12,115.12H70a2,2,0,1,1,0-4h9.16a2,2,0,0,1,0,4Z"/></g><path class="cls-2" d="M92,115.12a1.75,1.75,0,0,1-.4,0,1.73,1.73,0,0,1-.37-.11,1.41,1.41,0,0,1-.34-.19,1.79,1.79,0,0,1-.31-.25,1.85,1.85,0,0,1-.43-.64,2,2,0,0,1-.15-.77,1.72,1.72,0,0,1,0-.39,1.66,1.66,0,0,1,.11-.38,2.21,2.21,0,0,1,.18-.34,2.48,2.48,0,0,1,.25-.3,2,2,0,0,1,1.81-.55,1.73,1.73,0,0,1,.37.11,1.7,1.7,0,0,1,.35.19,1.42,1.42,0,0,1,.3.25,2,2,0,0,1,.59,1.41,2.07,2.07,0,0,1-.15.77,2.15,2.15,0,0,1-.44.64,1.73,1.73,0,0,1-.3.25,1.7,1.7,0,0,1-.35.19,1.58,1.58,0,0,1-.37.11A1.72,1.72,0,0,1,92,115.12Z"/><g class="cls-5"><path class="cls-2" d="M46.32,115.12H28a2,2,0,0,1,0-4h18.3a2,2,0,0,1,0,4Z"/></g><g class="cls-6"><path class="cls-2" d="M57.08,115.12H38.78a2,2,0,0,1,0-4h18.3a2,2,0,0,1,0,4Z"/></g><g class="cls-7"><path class="cls-2" d="M73.63,102.83H28a2,2,0,1,1,0-4H73.63a2,2,0,0,1,0,4Z"/></g><g class="cls-8"><path class="cls-2" d="M92,102.83H66.09a2,2,0,0,1,0-4H92a2,2,0,0,1,0,4Z"/></g><path class="cls-2" d="M73.66,102.83h-7.5a2,2,0,0,1,0-4h7.5a2,2,0,0,1,0,4Z"/><rect class="cls-9" width="120" height="120"/></svg>