<?xml version="1.0" encoding="utf-8"?>
<!-- Generator: Adobe Illustrator 24.0.2, SVG Export Plug-In . SVG Version: 6.00 Build 0)  -->
<svg version="1.1" id="Capa_1" xmlns="http://www.w3.org/2000/svg" xmlns:xlink="http://www.w3.org/1999/xlink" x="0px" y="0px"
	 viewBox="0 0 120 120" style="enable-background:new 0 0 120 120;" xml:space="preserve">
<style type="text/css">
	.st0{fill:none;}
	.st1{opacity:0.85;}
	.st2{fill:#FFFFFF;}
	.st3{fill:#95A6B1;}
	.st4{opacity:0.8;}
	.st5{opacity:0.7;}
	.st6{opacity:0.6;}
	.st7{opacity:0.5;}
</style>
<title>15-icon_ocenza_con_potuaria_componente_que_se_haria</title>
<rect class="st0" width="120" height="120"/>
<g class="st1">
	<path class="st2" d="M32.6,28c-5.2,0-9.5-4.3-9.5-9.5c0-1.1,0.2-2.3,0.6-3.3c1.8-4.9,7.3-7.4,12.2-5.6c2.4,0.9,4.3,2.7,5.3,4.9l0,0
		c2.2,4.8,0.1,10.4-4.7,12.6c0,0,0,0,0,0C35.3,27.7,34,28,32.6,28z M32.6,13c-0.8,0-1.6,0.2-2.3,0.5c-2.8,1.2-4.1,4.4-2.9,7.2
		c1.2,2.8,4.4,4.1,7.2,2.9c0.1,0,0.2-0.1,0.3-0.1c2.8-1.3,4-4.5,2.7-7.3c-0.6-1.3-1.7-2.3-3.1-2.9C33.9,13.1,33.2,13,32.6,13z"/>
</g>
<path class="st3" d="M41.3,90.6c-8.3,0-15-6.7-15-15V34c0-1.1,0.9-2,2-2s2,0.9,2,2v41.6c0,6.1,4.9,11,11,11H62l23-0.1V15.4H46.7
	c-1.1,0-2-0.9-2-2s0.9-2,2-2H87c1.1,0,2,0.9,2,2v75.2c0,1.1-0.9,2-2,2l-25,0.1L41.3,90.6z"/>
<path class="st3" d="M53.9,50.6L53.9,50.6c-0.7,0-1.3-0.3-1.6-0.8l-3.8-5.2c-0.7-0.9-0.5-2.1,0.4-2.8s2.1-0.5,2.8,0.4l2.3,3.2
	l7.6-8.6c0.7-0.8,2-0.9,2.8-0.2c0.8,0.7,0.9,2,0.2,2.8l-9.2,10.4C55,50.4,54.5,50.6,53.9,50.6z"/>
<path class="st3" d="M56.6,61.3c-2.1,0-4.3-0.4-6.3-1.1C41,56.8,36.3,46.4,39.7,37.1S53.5,23,62.9,26.4C72,29.8,76.7,39.8,73.7,49
	c-1.6,4.7-5,8.6-9.6,10.7C61.8,60.8,59.2,61.3,56.6,61.3z M56.6,29.4c-7.7-0.1-14.1,6.1-14.2,13.8s6.1,14.1,13.8,14.2
	c2.1,0,4.2-0.4,6.2-1.3c7-3.2,10.1-11.5,6.9-18.5l0,0C67.1,32.6,62.1,29.4,56.6,29.4L56.6,29.4z"/>
<path class="st3" d="M46,76.6c-0.9,0-1.7-0.4-2.2-1.2l-1.7-2.7l-3.4,0.3c-1,0.1-1.9-0.4-2.4-1.2c-0.5-0.8-0.5-1.8,0-2.6l8.8-14.3
	c0.5-1,1.1,0.4,2.1,0.9s1.9-0.2,1.5,0.8c-0.1,0.2-0.2,0.3-0.3,0.4l-7.2,11.7l1.1-0.1c1.1-0.1,2.3,0.4,2.9,1.4l0.8,1.2l7.9-13
	c0.5-1,1.4-0.1,2.3,0.5c1,0.5,1.7,0.5,1.2,1.5c0,0,0,0.1-0.1,0.1l-9,14.9C47.8,76.1,46.9,76.6,46,76.6z M44.8,73.2L44.8,73.2z"/>
<path class="st3" d="M69.4,76.8L69.4,76.8c-0.9,0-1.7-0.5-2.2-1.2L58,60.1c-0.6-0.9,0.4-1.1,1.3-1.7c0.9-0.6,1.4-1.5,2-0.6
	c0.1,0.1,0.1,0.2,0.2,0.3l7.9,13.4l0.8-1.2c0.6-1,1.7-1.5,2.9-1.4l1.1,0.1l-7.9-13.3c-0.7-0.9,0.7-0.9,1.5-1.6
	c0.9-0.7,1-1.7,1.7-0.8c0.1,0.1,0.2,0.3,0.2,0.4l9.4,15.8c0.5,0.8,0.5,1.8,0,2.6c-0.5,0.8-1.5,1.3-2.4,1.2l-3.4-0.3l-1.7,2.7
	C71.1,76.3,70.2,76.8,69.4,76.8z M75.6,71.4L75.6,71.4z"/>
<path class="st2" d="M46.5,115.1h-8.4c-1.1,0-2-0.9-2-2s0.9-2,2-2h8.4c1.1,0,2,0.9,2,2S47.6,115.1,46.5,115.1z"/>
<g class="st4">
	<path class="st2" d="M28,102.8c-0.5,0-1-0.2-1.4-0.6c-0.2-0.2-0.3-0.4-0.4-0.6c-0.1-0.2-0.2-0.5-0.1-0.8c0-0.5,0.2-1,0.6-1.4
		c0.1-0.1,0.2-0.2,0.3-0.2c0.1-0.1,0.2-0.1,0.4-0.2c0.1,0,0.2-0.1,0.4-0.1c1.1-0.2,2.1,0.5,2.4,1.6c0,0.1,0,0.3,0,0.4
		c0,0.3-0.1,0.5-0.2,0.8c-0.1,0.2-0.2,0.5-0.4,0.6C29,102.6,28.5,102.8,28,102.8z"/>
</g>
<g class="st1">
	<path class="st2" d="M79.1,115.1H70c-1.1,0-2-0.9-2-2s0.9-2,2-2h9.2c1.1,0,2,0.9,2,2S80.3,115.1,79.1,115.1L79.1,115.1z"/>
</g>
<path class="st2" d="M92,115.1c-0.1,0-0.3,0-0.4,0c-0.1,0-0.3-0.1-0.4-0.1c-0.1,0-0.2-0.1-0.3-0.2c-0.1-0.1-0.2-0.2-0.3-0.2
	c-0.2-0.2-0.3-0.4-0.4-0.6c-0.1-0.2-0.2-0.5-0.2-0.8c0-0.1,0-0.3,0-0.4c0-0.1,0.1-0.3,0.1-0.4c0.1-0.1,0.1-0.2,0.2-0.3
	c0.1-0.1,0.2-0.2,0.2-0.3c0.5-0.5,1.2-0.7,1.8-0.6c0.1,0,0.3,0.1,0.4,0.1c0.1,0,0.2,0.1,0.3,0.2c0.1,0.1,0.2,0.2,0.3,0.2
	c0.4,0.4,0.6,0.9,0.6,1.4c0,0.3-0.1,0.5-0.2,0.8c-0.1,0.2-0.3,0.5-0.4,0.6c-0.1,0.1-0.2,0.2-0.3,0.2c-0.1,0.1-0.2,0.1-0.3,0.2
	c-0.1,0.1-0.2,0.1-0.4,0.1C92.2,115.1,92.1,115.1,92,115.1z"/>
<g class="st5">
	<path class="st2" d="M46.3,115.1H28c-1.1,0-2-0.9-2-2s0.9-2,2-2h18.3c1.1,0,2,0.9,2,2S47.4,115.1,46.3,115.1L46.3,115.1z"/>
</g>
<g class="st6">
	<path class="st2" d="M57.1,115.1H38.8c-1.1,0-2-0.9-2-2s0.9-2,2-2h18.3c1.1,0,2,0.9,2,2S58.2,115.1,57.1,115.1z"/>
</g>
<g class="st6">
	<path class="st2" d="M73.6,102.8H28c-1.1,0-2-0.9-2-2s0.9-2,2-2h45.6c1.1,0,2,0.9,2,2S74.7,102.8,73.6,102.8z"/>
</g>
<g class="st7">
	<path class="st2" d="M92,102.8H66.1c-1.1,0-2-0.9-2-2s0.9-2,2-2H92c1.1,0,2,0.9,2,2S93.1,102.8,92,102.8z"/>
</g>
<path class="st2" d="M73.7,102.8h-7.5c-1.1,0-2-0.9-2-2s0.9-2,2-2h7.5c1.1,0,2,0.9,2,2S74.8,102.8,73.7,102.8z"/>
</svg>
