<svg id="Capa_1" data-name="Capa 1" xmlns="http://www.w3.org/2000/svg" viewBox="0 0 120 120"><defs><style>.cls-1{opacity:0.85;}.cls-2{fill:#fff;}.cls-3{fill:#95a6b1;}.cls-4{fill:none;}.cls-5{opacity:0.8;}.cls-5,.cls-8,.cls-9{isolation:isolate;}.cls-6{opacity:0.7;}.cls-7,.cls-8{opacity:0.6;}.cls-9{opacity:0.5;}</style></defs><title>16-icon_ocenza_con_potuaria_componente_el_agua</title><g class="cls-1"><path class="cls-2" d="M32.61,29.08a9.5,9.5,0,1,1,8.62-13.44h0a9.44,9.44,0,0,1,.38,6.93,9.46,9.46,0,0,1-9,6.51Zm0-15a5.42,5.42,0,0,0-2.27.5,5.49,5.49,0,1,0,2.27-.5Z"/></g><path class="cls-3" d="M41.33,91.68a15,15,0,0,1-15-15V35.06a2,2,0,0,1,4,0v41.6a11,11,0,0,0,11,11H62l23-.05V16.44H46.73a2,2,0,1,1,0-4H87a2,2,0,0,1,2,2V89.63a2,2,0,0,1-2,2l-25,.05Z"/><path class="cls-3" d="M53.8,75.62A18.32,18.32,0,0,1,35.51,57.33c0-6.43,7-17.09,12.79-24.91a6.84,6.84,0,0,1,5.5-2.76h0a6.84,6.84,0,0,1,5.5,2.76c5.83,7.82,12.79,18.48,12.79,24.91a2,2,0,0,1-4,0c0-4.1-4.37-12.3-12-22.51a2.84,2.84,0,0,0-4.58,0c-7.63,10.21-12,18.41-12,22.51a14.3,14.3,0,0,0,22,12.07,2,2,0,1,1,2.14,3.37A18.24,18.24,0,0,1,53.8,75.62Z"/><path class="cls-3" d="M68.88,69.9h-.09a2,2,0,0,1-1.52-.81l-3.8-5.17a2,2,0,0,1,3.23-2.37L69,64.72l7.6-8.58a2,2,0,0,1,3,2.65L70.38,69.23A2,2,0,0,1,68.88,69.9Z"/><path class="cls-3" d="M56,69.61h-.24c-8.86-1-11.3-5.65-12.76-8.41a2,2,0,0,1,3.53-1.87c1.3,2.45,2.92,5.51,9.7,6.3a2,2,0,0,1-.23,4Z"/><rect class="cls-4" width="120" height="120"/><path class="cls-2" d="M46.47,115.09H38.08a2,2,0,0,1,0-4h8.39a2,2,0,0,1,0,4Z"/><g class="cls-5"><path class="cls-2" d="M28,102.83a2,2,0,0,1-1.42-.59,1.85,1.85,0,0,1-.43-.64,2,2,0,0,1-.15-.77,2,2,0,0,1,.58-1.41,2.34,2.34,0,0,1,.3-.25,2.31,2.31,0,0,1,.35-.18,2.65,2.65,0,0,1,.37-.12,2,2,0,0,1,2.4,2,2,2,0,0,1-.16.77,1.85,1.85,0,0,1-.43.64A2,2,0,0,1,28,102.83Z"/></g><g class="cls-1"><path class="cls-2" d="M79.12,115.12H70a2,2,0,1,1,0-4h9.16a2,2,0,0,1,0,4Z"/></g><path class="cls-2" d="M92,115.12a1.75,1.75,0,0,1-.4,0,1.73,1.73,0,0,1-.37-.11,1.41,1.41,0,0,1-.34-.19,1.79,1.79,0,0,1-.31-.25,1.85,1.85,0,0,1-.43-.64,2,2,0,0,1-.15-.77,1.72,1.72,0,0,1,0-.39,1.66,1.66,0,0,1,.11-.38,2.21,2.21,0,0,1,.18-.34,2.48,2.48,0,0,1,.25-.3,2,2,0,0,1,1.81-.55,1.73,1.73,0,0,1,.37.11,1.7,1.7,0,0,1,.35.19,1.42,1.42,0,0,1,.3.25,2,2,0,0,1,.59,1.41,2.07,2.07,0,0,1-.15.77,2.15,2.15,0,0,1-.44.64,1.73,1.73,0,0,1-.3.25,1.7,1.7,0,0,1-.35.19,1.58,1.58,0,0,1-.37.11A1.72,1.72,0,0,1,92,115.12Z"/><g class="cls-6"><path class="cls-2" d="M46.32,115.12H28a2,2,0,0,1,0-4h18.3a2,2,0,0,1,0,4Z"/></g><g class="cls-7"><path class="cls-2" d="M57.08,115.12H38.78a2,2,0,0,1,0-4h18.3a2,2,0,0,1,0,4Z"/></g><g class="cls-8"><path class="cls-2" d="M73.63,102.83H28a2,2,0,1,1,0-4H73.63a2,2,0,0,1,0,4Z"/></g><g class="cls-9"><path class="cls-2" d="M92,102.83H66.09a2,2,0,0,1,0-4H92a2,2,0,0,1,0,4Z"/></g><path class="cls-2" d="M73.66,102.83h-7.5a2,2,0,0,1,0-4h7.5a2,2,0,0,1,0,4Z"/></svg>