<svg id="Capa_1" data-name="Capa 1" xmlns="http://www.w3.org/2000/svg" viewBox="0 0 120 120"><defs><style>.cls-1{fill:#95a6b1;}.cls-2{fill:#94a5b0;}.cls-3{opacity:0.85;}.cls-4{fill:#fff;}.cls-5{opacity:0.8;}.cls-5,.cls-8,.cls-9{isolation:isolate;}.cls-6{opacity:0.7;}.cls-7,.cls-8{opacity:0.6;}.cls-9{opacity:0.5;}.cls-10{fill:none;}</style></defs><title>17-icon_ocenza_con_potuaria_componente_el_26_noviembre</title><path class="cls-1" d="M88.66,91.87H57.48a3.25,3.25,0,0,1-3-4.58l14.8-32.74h0a3.25,3.25,0,0,1,5.86-.12L91.56,87.17a3.25,3.25,0,0,1-2.9,4.7Zm-30-4H87.44L72.31,57.64Z"/><path class="cls-1" d="M72.56,79a2,2,0,0,1-2-2V68.43a2,2,0,0,1,4,0V77A2,2,0,0,1,72.56,79Z"/><ellipse class="cls-1" cx="72.56" cy="82.74" rx="2.48" ry="2.4"/><g id="Grupo_6636" data-name="Grupo 6636"><g id="Línea_1013" data-name="Línea 1013"><path class="cls-2" d="M48.43,38.33a2,2,0,0,1-2-2v-6.2a2,2,0,0,1,4,0v6.2A2,2,0,0,1,48.43,38.33Z"/></g><g id="Línea_1014" data-name="Línea 1014"><path class="cls-2" d="M57.51,38.33a2,2,0,0,1-2-2v-6.2a2,2,0,0,1,4,0v6.2A2,2,0,0,1,57.51,38.33Z"/></g><g id="Trazado_5699" data-name="Trazado 5699"><path class="cls-2" d="M74.24,51.13a2,2,0,0,1-2-2v-.72c-.44-1.84-1.72-4-3.39-4.78L56.69,38.17a2,2,0,0,1,1.64-3.65L70.49,40c3.32,1.49,5.15,5.13,5.71,7.8a1.9,1.9,0,0,1,0,.41v.94A2,2,0,0,1,74.24,51.13Z"/></g><g id="Trazado_5700" data-name="Trazado 5700"><path class="cls-2" d="M57.56,72.13h-26a2,2,0,0,1-2-2V60.82a2,2,0,1,1,4,0v7.31h24a2,2,0,0,1,0,4Z"/></g><g id="Línea_1015" data-name="Línea 1015"><path class="cls-2" d="M42.82,40.94A2,2,0,0,1,42,37.12l5.61-2.59a2,2,0,1,1,1.68,3.63l-5.61,2.59A1.94,1.94,0,0,1,42.82,40.94Z"/></g><g id="Línea_1016" data-name="Línea 1016"><path class="cls-2" d="M53,43.48a2,2,0,0,1-1.5-.68l-4.54-5.15a2,2,0,0,1,3-2.65l4.54,5.15A2,2,0,0,1,53,43.48Z"/></g><g id="Línea_1017" data-name="Línea 1017"><path class="cls-2" d="M53,43.48a2,2,0,0,1-1.5-3.33L56,35a2,2,0,0,1,3,2.65L54.47,42.8A2,2,0,0,1,53,43.48Z"/></g><g id="Trazado_5701" data-name="Trazado 5701"><path class="cls-2" d="M52.94,33.43A10.57,10.57,0,0,1,42.38,22.88a2,2,0,0,1,4,0,6.56,6.56,0,0,0,13.11,0,2,2,0,0,1,4,0A10.56,10.56,0,0,1,52.94,33.43Z"/></g><g id="Trazado_5702" data-name="Trazado 5702"><path class="cls-2" d="M61.48,24.88a2,2,0,0,1-2-2V17a6.55,6.55,0,1,0-13.1,0v5.9a2,2,0,1,1-4,0V17a10.55,10.55,0,1,1,21.1,0v5.9A2,2,0,0,1,61.48,24.88Z"/></g></g><g id="Trazado_5703" data-name="Trazado 5703" class="cls-3"><path class="cls-4" d="M31.74,56.56a9.5,9.5,0,1,1,.07-19,9.44,9.44,0,0,1,9.43,9.38v.12A9.52,9.52,0,0,1,31.74,56.56Zm.06-15h0a5.5,5.5,0,1,0,5.48,5.5V47a5.45,5.45,0,0,0-5.44-5.39Z"/></g><path class="cls-4" d="M46.47,115.09H38.08a2,2,0,0,1,0-4h8.39a2,2,0,0,1,0,4Z"/><g class="cls-5"><path class="cls-4" d="M28,102.83a2,2,0,0,1-1.42-.59,1.85,1.85,0,0,1-.43-.64,2,2,0,0,1-.15-.77,2,2,0,0,1,.58-1.41,2.34,2.34,0,0,1,.3-.25,2.31,2.31,0,0,1,.35-.18,2.65,2.65,0,0,1,.37-.12,2,2,0,0,1,2.4,2,2,2,0,0,1-.16.77,1.85,1.85,0,0,1-.43.64A2,2,0,0,1,28,102.83Z"/></g><g class="cls-3"><path class="cls-4" d="M79.12,115.12H70a2,2,0,1,1,0-4h9.16a2,2,0,0,1,0,4Z"/></g><path class="cls-4" d="M92,115.12a1.75,1.75,0,0,1-.4,0,1.73,1.73,0,0,1-.37-.11,1.41,1.41,0,0,1-.34-.19,1.79,1.79,0,0,1-.31-.25,1.85,1.85,0,0,1-.43-.64,2,2,0,0,1-.15-.77,1.72,1.72,0,0,1,0-.39,1.66,1.66,0,0,1,.11-.38,2.21,2.21,0,0,1,.18-.34,2.48,2.48,0,0,1,.25-.3,2,2,0,0,1,1.81-.55,1.73,1.73,0,0,1,.37.11,1.7,1.7,0,0,1,.35.19,1.42,1.42,0,0,1,.3.25,2,2,0,0,1,.59,1.41,2.07,2.07,0,0,1-.15.77,2.15,2.15,0,0,1-.44.64,1.73,1.73,0,0,1-.3.25,1.7,1.7,0,0,1-.35.19,1.58,1.58,0,0,1-.37.11A1.72,1.72,0,0,1,92,115.12Z"/><g class="cls-6"><path class="cls-4" d="M46.32,115.12H28a2,2,0,0,1,0-4h18.3a2,2,0,0,1,0,4Z"/></g><g class="cls-7"><path class="cls-4" d="M57.08,115.12H38.78a2,2,0,0,1,0-4h18.3a2,2,0,0,1,0,4Z"/></g><g class="cls-8"><path class="cls-4" d="M73.63,102.83H28a2,2,0,1,1,0-4H73.63a2,2,0,0,1,0,4Z"/></g><g class="cls-9"><path class="cls-4" d="M92,102.83H66.09a2,2,0,0,1,0-4H92a2,2,0,0,1,0,4Z"/></g><path class="cls-4" d="M73.66,102.83h-7.5a2,2,0,0,1,0-4h7.5a2,2,0,0,1,0,4Z"/><rect class="cls-10" width="120" height="120"/></svg>