<svg id="Capa_1" data-name="Capa 1" xmlns="http://www.w3.org/2000/svg" viewBox="0 0 120 120"><defs><style>.cls-1{opacity:0.85;}.cls-2{fill:#fff;}.cls-3{fill:#95a6b1;}.cls-4{opacity:0.8;}.cls-4,.cls-7,.cls-8{isolation:isolate;}.cls-5{opacity:0.7;}.cls-6,.cls-7{opacity:0.6;}.cls-8{opacity:0.5;}.cls-9{fill:none;}</style></defs><title>19-icon_ocenza_con_potuaria_componente_en_la_planeacion</title><g class="cls-1"><path class="cls-2" d="M36.57,28.38a9.5,9.5,0,1,1,8.62-13.45h0a9.5,9.5,0,0,1-8.62,13.45Zm0-15a5.42,5.42,0,0,0-2.27.5,5.5,5.5,0,1,0,4.57,10,5.42,5.42,0,0,0,2.93-3.27,5.5,5.5,0,0,0-5.23-7.23Z"/></g><path class="cls-3" d="M45.29,91a15,15,0,0,1-15-15V34.35a2,2,0,0,1,4,0V76a11,11,0,0,0,11,11H66l23,0V15.74H50.69a2,2,0,0,1,0-4H91a2,2,0,0,1,2,2V88.92a2,2,0,0,1-2,2L66,91Z"/><path class="cls-3" d="M79.41,37.8H43.11a2,2,0,0,1,0-4h36.3a2,2,0,0,1,0,4Z"/><path class="cls-3" d="M79.71,51.55H43.4a2,2,0,1,1,0-4H79.71a2,2,0,0,1,0,4Z"/><path class="cls-3" d="M79.34,64.48H43a2,2,0,1,1,0-4H79.34a2,2,0,0,1,0,4Z"/><path class="cls-3" d="M68.73,84.07a2.05,2.05,0,0,1-1.41-.57l-5.44-5.38a2,2,0,0,1,2.81-2.85l4,4,9-9.12a2,2,0,1,1,2.85,2.81L70.15,83.48a2,2,0,0,1-1.41.59Z"/><path class="cls-2" d="M46.47,115.09H38.08a2,2,0,0,1,0-4h8.39a2,2,0,0,1,0,4Z"/><g class="cls-4"><path class="cls-2" d="M28,102.83a2,2,0,0,1-1.42-.59,1.85,1.85,0,0,1-.43-.64,2,2,0,0,1-.15-.77,2,2,0,0,1,.58-1.41,2.34,2.34,0,0,1,.3-.25,2.31,2.31,0,0,1,.35-.18,2.65,2.65,0,0,1,.37-.12,2,2,0,0,1,2.4,2,2,2,0,0,1-.16.77,1.85,1.85,0,0,1-.43.64A2,2,0,0,1,28,102.83Z"/></g><g class="cls-1"><path class="cls-2" d="M79.12,115.12H70a2,2,0,1,1,0-4h9.16a2,2,0,0,1,0,4Z"/></g><path class="cls-2" d="M92,115.12a1.75,1.75,0,0,1-.4,0,1.73,1.73,0,0,1-.37-.11,1.41,1.41,0,0,1-.34-.19,1.79,1.79,0,0,1-.31-.25,1.85,1.85,0,0,1-.43-.64,2,2,0,0,1-.15-.77,1.72,1.72,0,0,1,0-.39,1.66,1.66,0,0,1,.11-.38,2.21,2.21,0,0,1,.18-.34,2.48,2.48,0,0,1,.25-.3,2,2,0,0,1,1.81-.55,1.73,1.73,0,0,1,.37.11,1.7,1.7,0,0,1,.35.19,1.42,1.42,0,0,1,.3.25,2,2,0,0,1,.59,1.41,2.07,2.07,0,0,1-.15.77,2.15,2.15,0,0,1-.44.64,1.73,1.73,0,0,1-.3.25,1.7,1.7,0,0,1-.35.19,1.58,1.58,0,0,1-.37.11A1.72,1.72,0,0,1,92,115.12Z"/><g class="cls-5"><path class="cls-2" d="M46.32,115.12H28a2,2,0,0,1,0-4h18.3a2,2,0,0,1,0,4Z"/></g><g class="cls-6"><path class="cls-2" d="M57.08,115.12H38.78a2,2,0,0,1,0-4h18.3a2,2,0,0,1,0,4Z"/></g><g class="cls-7"><path class="cls-2" d="M73.63,102.83H28a2,2,0,1,1,0-4H73.63a2,2,0,0,1,0,4Z"/></g><g class="cls-8"><path class="cls-2" d="M92,102.83H66.09a2,2,0,0,1,0-4H92a2,2,0,0,1,0,4Z"/></g><path class="cls-2" d="M73.66,102.83h-7.5a2,2,0,0,1,0-4h7.5a2,2,0,0,1,0,4Z"/><rect class="cls-9" width="120" height="120"/></svg>