<svg xmlns="http://www.w3.org/2000/svg" viewBox="0 0 536 536"><defs><style>.cls-1{fill:#fd0;}.cls-2,.cls-3{fill:#fff;}.cls-3{fill-rule:evenodd;}</style></defs><title>2-fondo-02</title><g id="BG"><path class="cls-1" d="M133,140.29c18.44-20,60.77,56.7,146.42-52.17s229.56,118.4,60.8,200S78.87,199,133,140.29Z"/></g><g id="LOGO"><path id="Path_2911" data-name="Path 2911" class="cls-2" d="M250.84,232.57H232.91V204.25h17.93v4.06H237.9v8.08h11.16v4.05H237.9v8h12.94Z"/><path id="Path_2912" data-name="Path 2912" class="cls-2" d="M254.14,197.07l19,26.86V204.24h5v36.29L259.06,213.3v19.27h-4.92Z"/><path id="Path_2913" data-name="Path 2913" class="cls-2" d="M289.94,233a9.6,9.6,0,0,1-3.23-.53,10.28,10.28,0,0,1-2.79-1.49,11.8,11.8,0,0,1-2.27-2.25A14.92,14.92,0,0,1,280,226l3.47-2.87a8.86,8.86,0,0,0,1.05,1.78,17.22,17.22,0,0,0,1.6,1.91A9.44,9.44,0,0,0,288,228.3a3.83,3.83,0,0,0,2,.6,6.37,6.37,0,0,0,2.48-.4,4,4,0,0,0,1.51-1,3.17,3.17,0,0,0,.74-1.23,4,4,0,0,0,.19-1.14,5.52,5.52,0,0,0-.12-1.14,3.54,3.54,0,0,0-.62-1.35,6.56,6.56,0,0,0-1.56-1.46,14.19,14.19,0,0,0-2.9-1.49,36.38,36.38,0,0,1-4.41-2.11,13.34,13.34,0,0,1-2.72-2,5.87,5.87,0,0,1-1.39-2,6.16,6.16,0,0,1-.39-2.25,7.9,7.9,0,0,1,.48-2.64,6.94,6.94,0,0,1,1.58-2.53,8.35,8.35,0,0,1,2.88-1.88,11.59,11.59,0,0,1,4.44-.75,9.6,9.6,0,0,1,5.89,1.74,11.05,11.05,0,0,1,3.58,4.9l-4.23,1.35a5.24,5.24,0,0,0-5.24-3.67,5.12,5.12,0,0,0-3.12.79,2.53,2.53,0,0,0-1,2.09,2.13,2.13,0,0,0,.54,1.42,6.23,6.23,0,0,0,1.46,1.2,15.78,15.78,0,0,0,2.16,1.12l2.67,1.13a16.23,16.23,0,0,1,3.81,2.24,9.24,9.24,0,0,1,2.09,2.36,7.14,7.14,0,0,1,.88,2.37,14.47,14.47,0,0,1,.19,2.18,8.57,8.57,0,0,1-.47,2.51,7.92,7.92,0,0,1-1.58,2.74,8.69,8.69,0,0,1-3,2.18A11.22,11.22,0,0,1,289.94,233Z"/><path id="Path_2914" data-name="Path 2914" class="cls-2" d="M321.12,232.57l-3.3-7.66h-10.4c-.52,1.2-1.07,2.5-1.65,3.87s-1.1,2.64-1.6,3.79H299l13.65-31.3,13.75,31.3Zm-5-11.8-.9-2.2c-.27-.64-.52-1.26-.77-1.88l-.81-2c-.29-.71-.64-1.59-1.05-2.65-.55,1.4-1.12,2.8-1.71,4.21s-1.2,2.91-1.81,4.52Z"/><path id="Path_2915" data-name="Path 2915" class="cls-3" d="M183.23,200.82c-.1.23-.51.15-.84.16C182.43,200.69,182.94,200.86,183.23,200.82Zm5.65-.44c-.29,0-.73-.34-.85-.08.31.08.69.27.85.08Zm-5.13.08c-.23-.07-.72-.15-.84.25.33-.2.6,0,.84-.25Zm3,.25a3.84,3.84,0,0,0-2.27.25c.05,0,.4.19.42,0-.42,0,.27-.16.42-.17-.07.35,1.28.16,1.43-.08Zm-10.35,4.07c0-.24.28-.23.34-.42C176.52,204.37,176.07,204.66,176.43,204.78Zm20,10.64a8.75,8.75,0,0,0,.16,1.91A4.74,4.74,0,0,0,196.45,215.42Zm-15.31-14.3c.55-.18,1.13-.33,1.68-.5A2.79,2.79,0,0,0,181.14,201.12Zm4,.08c-.71-.06-1.1.19-1.77.17-.26.24-.82.19-1.09.42C183.3,201.62,184.15,201.33,185.18,201.2Zm-11.52,4.74c0,.13-.36.35-.17.42a15.87,15.87,0,0,1,4.79-4,12.66,12.66,0,0,0-5.29,4.24A3,3,0,0,1,173.66,205.94Zm21.61-2.08c.37.21.93.7.5.34,0,0-.26-.46-.5-.34Zm-22.45,1.75c.57-.09.86-1.09,1.08-1.35a3.86,3.86,0,0,0-.66.68v-.24c-.4,0-.38.45-.59.66C172.94,205.29,172.94,205.49,172.82,205.61Zm1.08-1.35.1-.06S173.93,204.22,173.9,204.26Zm1.78,1.1c0-.28.67-.38.42-.66C176.09,205,175.43,205.09,175.68,205.36Zm5.13.33c-.33,0-.43.42-.59.09-.15.17.06.16-.09.33A1.42,1.42,0,0,0,180.81,205.69Zm-6.9,1.33c.16-.31.74-.65.67-.91C174.33,206.33,173.88,206.8,173.91,207Zm-1.43.25c-.16.26-.61.67-.5.92.15-.28.58-.7.5-.92ZM171.05,211c.18-.65.77-1.34.84-1.82a5.5,5.5,0,0,0-.84,1.82Zm1.27-1.24c-.07.29-.57.6-.34.91,0-.34.46-.7.34-.91Zm22.53,1.83c0-.24-.34-.59-.26-.42s.33.89.25.42Zm.08.49c.31.42.33,1.12.68,1.5C195.41,213.11,195.25,212.17,194.93,212.09Zm-.33,11.73a12.06,12.06,0,0,0,1.34-8.32c.22.05.3,0,.25-.25-.49-.17-.3-1-.58-1.41v.25c1.25,4.54-.33,9.47-2.86,11.8A4.5,4.5,0,0,0,194.6,223.82Zm-19.51-2.17c.12.28.31.91.59.75C175.38,222.26,175.36,221.83,175.09,221.65Zm1,1.83c0,.26.39.55.5.42-.22-.09-.28-.33-.5-.42ZM193,226a2.18,2.18,0,0,0-1.1.91,1.54,1.54,0,0,1,.76-.41c-.27-.23.31-.3.34-.5Zm-.84.83c-.1.24-.77.34-.59.58.09-.24.82-.29.59-.58Zm-5,5.23c.27,0,.84-.21.75-.33-.31.12-.57,0-.76.34Zm-2.27-31.67c0-.12,0-.29.16-.25s-.1.13.09.25c.82-.27,1.4,0,2.27-.16-.41,0-.43-.08-.26-.34a3.32,3.32,0,0,0-3,.59C184.42,200.42,184.78,200.25,184.93,200.37ZM176,224.57s0,0,0,.05l.09.07Zm1,1.06c.12.23.4.65.62.64a1.37,1.37,0,0,0-.62-.64Zm12.31,6.5s-.09,0-.09.08l.09-.07h0Zm12.61-8.9c-.43.8-.55,1.9-1.26,2.42,0,.16.23.1.17.33a17,17,0,0,1-2.95,3.91c.57.17-.9.75-1,1.32a.65.65,0,0,0-.51,0c-.19.84-1.38.69-1.6,1.5a20.71,20.71,0,0,1-6,2.08c1.91-.75,4.11-1.2,5.54-2.41-.1-.18-.34.21-.58.17v0a20.37,20.37,0,0,1-3.28,1.43c1.78-1.06,3.76-1.93,5.13-3.41-.48,0-.55.51-1,.58a18.16,18.16,0,0,0,3.78-3.9,15.83,15.83,0,0,1-3.61,3.24c.12-.37.58-.42.75-.75a22.71,22.71,0,0,1-5,3,20,20,0,0,0,2.78-1.74c-1,.27-2.08,1.1-3.2,1.49-.08-.28.73-.39,1-.58-.92,0-1.79.77-2.86.91a8.44,8.44,0,0,1,1.26-.58c0-.06-.09-.08-.16-.07h0c1-.83,2.5-1.53,3.67-2.45a6,6,0,0,0,.7-.63,28.82,28.82,0,0,1-2.94,1.71c.11.06.22,0,.2.09a3.27,3.27,0,0,0-.88.17l-.08,0h0c-.61.2-1.2.46-1.58.32A9.43,9.43,0,0,0,190,231c-.08-.11-.34.1-.65.1l.43-.28c-.79.19-1.47.66-2.44.38-1,.36-2.25,0-3.3.16.33,0,.71.2,1,.08,1.06.79,2.6-.25,3.32.2-1,.21-2.16.22-3.22.38.11.09.24,0,.23.11A13.5,13.5,0,0,1,183,232c.84.3,1.85.16,2.51.57a2,2,0,0,0-.94,0c.12.1.42-.08.38.17a30.51,30.51,0,0,0-3.13-.22,9.46,9.46,0,0,0,2.62.53c.63.06,1.46-.16,1.85.19-.52.05-.68.42-1.28,0-.16.52-.5-.17-.63.17.41.23,1.38,0,1.86.38a4.84,4.84,0,0,0-1.47,0c.77.49,1.56.12,2.24.54-.63.18-1.49-.23-2,.2a6.76,6.76,0,0,1,1.74,0c-.92.27-2.07-.08-3.05,0-.44-.38-1-.23-1-.08a3.9,3.9,0,0,0-1.82-.26,19,19,0,0,1-7.88-4.35c1.15,1.54,3.26,2.67,4.92,3.76a13.16,13.16,0,0,1-3.79-2.19.24.24,0,0,0-.14-.12l.14.12a.22.22,0,0,1,0,.14,15.6,15.6,0,0,1-4.08-5,15.31,15.31,0,0,1-2.57-5.31.25.25,0,0,1,.12.08h0a12.52,12.52,0,0,1-.46-2.78,13,13,0,0,1,0-1.53c.32,1.94.49,4.31,1.43,6a18.61,18.61,0,0,1-.75-8.89,3.76,3.76,0,0,0,.5-1.75c.14.07.51-.37.34-.91.48-.85.63-2,1.26-2.75a7,7,0,0,1-.67,1.59c.61-.31.58-1.25,1-1.74.11.78-.56,1.34-.42,2.24a4.64,4.64,0,0,0,.58-1.33c.2.6-.45,1.36-.42,1.83.38,0-.12-.57.42-.5-.16-.73.25-.71.51-1.16.17.49-.38,1.15-.59,1.74a9.13,9.13,0,0,0-.59,2.58,29.59,29.59,0,0,0,1.09-2.91c.25.07,0,.26,0,.41.24-.18.3-.53.42-.83.11.77-.43,1.62-.5,2.5.34-.64.4-1.55.84-2.08.13,0,0,.1,0,.25.59-.9,1.06-1.89,1.68-2.74.12.82-1.47,1.79-1.17,3.07-.23.19-.23.61-.34.92.61-.87.77-2.18,1.51-2.91.18-1.24,1.26-1.59,1.69-2.58-.48.17-1,1-1.44,1.5.05-.61,1.15-1.28,1.52-2.08.12,0,0,.1,0,.25,1.74-2,4.56-2.86,7.23-3.91-.07-.24-.21.11-.42,0,.21-.21.75-.25.67-.5,6.41-1.46,12.7,2.3,15.47,6.24.05-.18-.51-1.31-.67-1-.78-2.24-3.07-3.67-5.05-4.82,1.1.12,2.93,1.6,4,1.74-.17-.58-.8-.69-1.35-1.08.65-.14,1.12,1.06,1.85.83,0,0,.27.64.42.25a19.1,19.1,0,0,1,5.3,12.47,18.44,18.44,0,0,1-1.09,6.82c.25-.09.11-.56.42-.59Zm-28.83-.48.26-.15a2,2,0,0,0,.58,1.36c0-.09-.12-.21-.09-.31a5,5,0,0,1,.5.84,3.52,3.52,0,0,1,.3.45.15.15,0,0,1-.07,0,1.72,1.72,0,0,0,.91.87,8.35,8.35,0,0,1-.79-1.35,1.42,1.42,0,0,1-.74-1.09,11.18,11.18,0,0,1-1-1.68,2,2,0,0,0,.18,1.09Zm.9.16c-.08.05-.08.13,0,.23,0-.08,0-.15,0-.23Zm1.87,3.4h0v0Zm.11-.87a5.88,5.88,0,0,0-1.1-.89c.18.37.35.7.53.54.24.15.21.59.57.35Zm-8.27-3.87a.34.34,0,0,0,0-.1h0l0-.05C167.66,221.46,167.67,221.52,167.69,221.57Zm5.14,8.5a1.47,1.47,0,0,0-.47-.58c0,.25.28.4.48.58Zm3.25-3.48c-.06-.07-.11-.15-.17-.23h-.08l-.1.09a2.28,2.28,0,0,0,.36.15Zm1.4,3c.07-.3-.51-.36-.77-.53.07.25.44.38.77.53Zm5.44,2.43c0-.28-.44-.08-.64-.2C182.32,232.1,182.72,231.9,182.92,232Zm2.45-2.74c.5,0,.78.28,1.25.1.06-.14-.23-.16-.13-.33,1-.19,2.56.1,2.92-.52a1,1,0,0,0,.58.09l.19-.11a.72.72,0,0,0,.2-.28c.43.23.67-.06,1-.15a1.9,1.9,0,0,0,.21-.19.13.13,0,0,0-.1,0h0l-.09,0-.34.25.24-.19.09-.06h0a13.83,13.83,0,0,0,5.36-8.91s0,0,0,0c0-.28.06-.57.08-.87a.78.78,0,0,0,0-.16c0-.28,0-.58,0-.87v-.19c0-.28,0-.57-.05-.86,0-.08,0-.16,0-.25,0-.37-.09-.75-.16-1.14a12.86,12.86,0,0,0-4-7.4c-.45.16,0-.16-.42,0a9.32,9.32,0,0,0-1.18-1c-3.73-1.93-9-.73-11.94,1.5-.14,0-.16-.06-.17-.17-.57,1-1.87,1.37-2.27,2.58-.12,0,0-.25-.17-.25-.47.61-.59,1.23-1.09,1.91,0,0,0,0,0,.05h.06s0,0,0,0,0,0,0,0h0a.25.25,0,0,1,0,.07l-.06.22s0,0,0,0c-.21.58-.56,1.22-.74,1.86v0c0,.11,0,.22-.07.33a6.31,6.31,0,0,1,.25-1.83c.72-2.48,2.85-4.36,4.79-5.65.24.19,1.74-.64,2.53-1.08A7.21,7.21,0,0,1,185,204.7c-1.24-.22-2.35.55-3.28.58,0-.43.11-.37.25-.58a5.26,5.26,0,0,0-2.27.83,8.05,8.05,0,0,1,3-1.5c-.18-.35-.64.19-1,.17,0-.22.33-.12.34-.33-.25,0-.26.19-.51.16.12-.33.58-.31.84-.5-3.32.52-5.76,3.18-7.73,5.57.08.16.33-.22.42-.33,0,.33-1,1.11-1.09,1.83a21.06,21.06,0,0,1,3.36-4.16c.15.06,0,.15,0,.25.38.07.2-.41.5-.41-.1.56-.59.74-.75,1.24.36-.09.32-.57.84-.5-.1.49-.71.47-.67,1.08-.5,0-.67.29-.68.75-.71.07-1.07,1.55-1.68,2.41-.19,0-.09-.24-.25-.25-.36.36-.26.7-.42,1.17-.48-.29-.62,1.51-1,2.24.29-.34.11.6.08.83-.18,0,0-.29-.08-.41a.72.72,0,0,0-.17.58c.1,0,.15,0,.17.08.26,0,0-.41.33-.33-.07.14-.1.49.09.25a19.2,19.2,0,0,0,.42,4.07,12.35,12.35,0,0,1-.59-2.08,6.47,6.47,0,0,0,1.93,5.07c0,.13-.07,0-.16,0,.09.28.38.34.5.59a1.44,1.44,0,0,1-1.09-.67c.33,1,1.63,1.83,2.52,2.58a3.71,3.71,0,0,1-1.2-.45l0,0a.12.12,0,0,1,0-.05l-.14-.08h0v0a5.11,5.11,0,0,1-1.9-2.19c-.35.23,0,.38.08.65v0c.32,1.07,1.25,1.11,2,1.76a7.47,7.47,0,0,0,4.21,3.18,13.12,13.12,0,0,1-1.68-1.38,20.47,20.47,0,0,0,3.58,2.05c-.3.08,0,.19.2.18-.05.31-.38-.09-.45.17.05,0,.06.1,0,.18a.73.73,0,0,0,.61.09c-.1-.09-.44-.09-.35-.24.23.07,1.17.29.73.41.83,0,2.55.57,2.48,0Zm7.88-2.14a4.41,4.41,0,0,0-1.41,1.31l.15,0a7.69,7.69,0,0,0,1.26-1.29Zm-5.66,2c.13.33.55,0,.79.08-.09-.23-.54,0-.8-.08Zm0,1.3c-.4-.22-1.14.12-1.69.06.41.24,1.16,0,1.69-.06Zm1.1-.48.21-.15-2.22.4c.64.15,1.6-.27,2-.25Zm-.36.26a4,4,0,0,1,1.37-.09l1.2-.85c-.45.15-.91.28-1.37.39a1.07,1.07,0,0,0-.36.43c-.29-.19.23-.23.24-.4h0c-.32.17-.66.31-1,.48l.2-.16c-.17,0-.35.1-.28.2Zm6.89-3.86a16.67,16.67,0,0,1-5.19,3.82,3.19,3.19,0,0,1,.44.13A17.69,17.69,0,0,0,195.27,226.31Zm-1.43,6.15c-.05,0-.12,0-.15,0Z"/><path id="Path_2916" data-name="Path 2916" class="cls-2" d="M229.19,226.65l-1.89-2h0l-.36-.38a10,10,0,1,1-2.19-14,10.13,10.13,0,0,1,2.23,2.25l3.2-3.48a14.66,14.66,0,1,0-2,20.63,14.12,14.12,0,0,0,2-2.05Z"/></g></svg>