<svg xmlns="http://www.w3.org/2000/svg" viewBox="0 0 536 536"><defs><style>.cls-1{fill:#93ebe4;}.cls-2{fill:#fd0;}.cls-3{fill:#fff;}.cls-4{fill:#1eadfe;}.cls-5,.cls-7{fill:none;stroke:#28347d;}.cls-5{stroke-linecap:round;stroke-linejoin:round;stroke-width:2.5px;}.cls-6{fill:#28347d;}.cls-7{stroke-miterlimit:10;stroke-width:2.37px;}</style></defs><title>2-personaje-02</title><g id="Rostro5"><circle class="cls-1" cx="126.68" cy="349.85" r="76.15"/><path class="cls-2" d="M186.71,400.8h0A76.15,76.15,0,0,1,66.4,407.33c.83-4.07,2.07-7.33,4.35-10,.21-.24.42-.48.64-.71a18.79,18.79,0,0,1,4.07-3.16c.48-.29,1-.56,1.52-.84h0l1.1-.53.59-.26c.59-.25,1.2-.5,1.84-.75l.67-.24,1.37-.47h0c1.88-.61,4-1.19,6.35-1.73.45.51.91,1,1.39,1.51.72.74,1.46,1.46,2.25,2.16.53.48,1.08.94,1.64,1.39a36.32,36.32,0,0,0,3.61,2.56q1,.62,2,1.17c6.6,3.57,15.46,5.87,28.31,5.87,25,0,37.58-6,44.12-10.75l.27.06,1.49.29c.15,0,.31.06.46.09,5.51,2.6,9.22,4.79,11.74,7.3Z"/><path class="cls-3" d="M148.71,374.92a34.83,34.83,0,0,0,23.54,17.63c-6.54,4.71-19.15,10.75-44.11,10.75-21.64,0-32-6.52-39.22-14.66l2-.27a88.92,88.92,0,0,0,9.74-2.09,45.44,45.44,0,0,0,9.45-3.63c3.71-2,3.28-6.57,3-10.07a25.46,25.46,0,0,0,4.65,3.87c3.34,2,9,1.38,13-2,4.73-4,10.7-10.43,12.35-17.79C144.57,363.43,144.83,367.77,148.71,374.92Z"/><path class="cls-4" d="M111.93,313.46c-5.88-.87-9.51,6.11-10.78,9.6a34.71,34.71,0,0,0-1.7,11h0c-.57,6.37,1.89,25.64,2.32,32.65s.26,15.26-1.08,19.6a88.92,88.92,0,0,1-9.74,2.09h0c4.33-9.88,2.12-31.66,2.07-41C92.92,334,93,327,94.93,321.66s5.26-11.57,9.64-15.86,11.56-8.81,15.77-6.74a38.29,38.29,0,0,0-3.39,5.06C114.91,307.56,112.72,311.65,111.93,313.46Z"/><path class="cls-4" d="M102.39,354.53a44.55,44.55,0,0,0,10.71,18.05c.31,3.5.74,8-3,10.07a45.44,45.44,0,0,1-9.45,3.63c1.34-4.34,1.52-12.59,1.08-19.6S98.87,340.4,99.44,334h0A69.33,69.33,0,0,0,102.39,354.53Z"/><path class="cls-3" d="M127.69,359.94c-.46,1.83-2.54,4.72-4.66,5.2a18.2,18.2,0,0,1-4.93.21c-1.59-.19-4.55-3.13-5-4.23C115.12,361.25,124.37,361.12,127.69,359.94Z"/><path class="cls-3" d="M142,352.12c-.07-.28-.15-.57-.23-.86q-.77-2.76-1.53-5.26c-.07-.22-.14-.43-.2-.65-.29-.94-.58-1.87-.87-2.76-.44-1.33-.88-2.61-1.32-3.85a81.22,81.22,0,0,0-7.83-16.3,23.21,23.21,0,0,0-1.61-2.24c-5.24-6.4-13.09-8.83-16.52-6.74-2.93-.43-5.3,1.09-7.1,3.16-.21.24-.42.5-.62.75s-.38.52-.56.79-.35.53-.52.8l-.24.4-.44.8-.4.79c-.18.38-.35.76-.5,1.11s-.29.69-.4,1-.13.36-.19.55-.13.43-.2.65l-.18.64c-.11.43-.22.88-.32,1.35,0,.23-.1.46-.14.7q-.14.71-.24,1.47c-.05.33-.09.66-.13,1-.06.49-.11,1-.15,1.49s-.07,1-.1,1.51,0,1.07,0,1.62a64.8,64.8,0,0,0,.54,9.23c.11.82.23,1.64.37,2.46q.42,2.49,1,5c.3,1.26.64,2.52,1,3.78q.16.56.36,1.11l.3.87c0,.15.1.3.16.45s.19.51.29.76c.19.49.39,1,.61,1.46.13.33.28.65.43,1q.42.93.9,1.83c.26.51.53,1,.81,1.48.37.67.76,1.31,1.16,1.93s.64,1,1,1.43.73,1,1.09,1.52l.71.91c.56.7,1.11,1.36,1.66,2,.36.41.72.79,1.08,1.16a2,2,0,0,0,.2.21l0,0,.65.64c.23.23.45.44.67.63l.64.58c.44.39.86.72,1.24,1,.16.13.32.25.47.35.34.25.65.45.93.62,3,1.75,7.72,1.48,11.56-.94a15.28,15.28,0,0,0,1.46-1.08c.89-.75,1.82-1.59,2.76-2.5,4.06-3.95,8.25-9.32,9.59-15.29h0C142.81,355.25,142.46,353.76,142,352.12Zm-14.45,8.18a5.27,5.27,0,0,1-.26.63,9.5,9.5,0,0,1-2,2.83,1.54,1.54,0,0,1-.19.17,4.74,4.74,0,0,1-2.09,1.21,18.29,18.29,0,0,1-4.94.21,2.28,2.28,0,0,1-.64-.19,2.39,2.39,0,0,1-.37-.17c-.24-.14-.5-.3-.75-.48a13,13,0,0,1-1.87-1.62,10.45,10.45,0,0,1-.87-1c-.08-.1-.15-.2-.21-.29a3.64,3.64,0,0,1-.27-.49c2,.13,11.26,0,14.58-1.18A2.92,2.92,0,0,1,127.58,360.3Z"/><path class="cls-4" d="M117,304.12a38.29,38.29,0,0,1,3.39-5.06c3.5-2.24,11.87-.45,18.39,4.29,7.84,5.67,11.48,10.51,15.07,21.9s3.94,27.06,7.5,40.69c3,11.41,3.88,16.42,8.62,20.89,3.44,3.25,6,4.56,6.74,6.48-.74-.09-1.48-.19-2.19-.32s-1.5-.28-2.22-.44a34.83,34.83,0,0,1-23.54-17.63c-3.88-7.15-4.14-11.49-5.6-18.28h0c-.35-1.62-.76-3.39-1.31-5.37-3.51-12.56-6.66-20.76-11.74-28.82s-14.32-11.3-18.13-9C112.72,311.65,114.91,307.56,117,304.12Z"/><path class="cls-5" d="M109.66,341.21c.06.5-.08.93-.32,1s-.49-.35-.56-.84.08-.92.32-1S109.59,340.72,109.66,341.21Z"/><path class="cls-5" d="M128.93,338.45c.06.5-.08.93-.33,1s-.49-.35-.55-.84.08-.92.32-1S128.86,338,128.93,338.45Z"/><path class="cls-6" d="M115.59,338.71c.15,3.85.06,7.69,0,11.5,0,1,0,1.9,0,2.81,0,.23,0,.46,0,.66a1.85,1.85,0,0,0,0,.25l0,.1s0,0,0,0,0,0,.1,0a2.75,2.75,0,0,0,.51.12,30.57,30.57,0,0,0,5.46-.11h0a.33.33,0,0,1,.35.31.33.33,0,0,1-.17.31,11.53,11.53,0,0,1-2.81,1,10.3,10.3,0,0,1-3.08.26,3.8,3.8,0,0,1-.89-.18,3.08,3.08,0,0,1-.52-.25,1.78,1.78,0,0,1-.53-.53,2,2,0,0,1-.18-.36l-.06-.26a3.12,3.12,0,0,1-.06-.45,7.15,7.15,0,0,1,0-.78c0-1,0-2,0-2.94.2-3.86.64-7.67,1.19-11.48a.27.27,0,0,1,.31-.23A.28.28,0,0,1,115.59,338.71Z"/><path class="cls-6" d="M113.14,360.56c1.19-.1,2.41-.23,3.62-.31l3.63-.24,3.6-.25a32.23,32.23,0,0,0,3.5-.41h0a.61.61,0,0,1,.72.49.6.6,0,0,1-.35.68,14.79,14.79,0,0,1-3.69,1,33.22,33.22,0,0,1-3.7.41,33.8,33.8,0,0,1-7.44-.29.57.57,0,0,1,.05-1.12Z"/><path class="cls-6" d="M113.55,360.94A8.57,8.57,0,0,0,115,362.5a12.63,12.63,0,0,0,1.77,1.36,7.31,7.31,0,0,0,.9.49,2,2,0,0,0,.86.17,18.82,18.82,0,0,0,2.25,0,10.71,10.71,0,0,0,2.14-.26,4.63,4.63,0,0,0,1.69-1,8.94,8.94,0,0,0,1.46-1.6,8,8,0,0,0,1.08-1.87l0-.05a.53.53,0,0,1,.69-.28.52.52,0,0,1,.31.59,8.7,8.7,0,0,1-2.46,4.41,5.62,5.62,0,0,1-2.31,1.46,12.38,12.38,0,0,1-2.53.35,18.55,18.55,0,0,1-2.47,0,4,4,0,0,1-1.43-.38,6.49,6.49,0,0,1-1.12-.71,14.08,14.08,0,0,1-1.81-1.72,10.73,10.73,0,0,1-.77-1,4.79,4.79,0,0,1-.63-1.17.46.46,0,0,1,.29-.6.47.47,0,0,1,.54.17Z"/><path class="cls-6" d="M102.05,336.56a13.35,13.35,0,0,1,4.36-2.15,15.86,15.86,0,0,1,2.39-.51,8.57,8.57,0,0,1,2.53,0,1.28,1.28,0,0,1,0,2.53h0L107,337c-1.48.19-3,.41-4.53.55h0a.58.58,0,0,1-.61-.52A.56.56,0,0,1,102.05,336.56Z"/><path class="cls-6" d="M123,332.25a7.45,7.45,0,0,1,2.62-.85,13,13,0,0,1,2.64-.08,13.46,13.46,0,0,1,5.07,1.21.58.58,0,0,1,.27.76.57.57,0,0,1-.53.32h0a33.63,33.63,0,0,0-4.73.21c-.77.08-1.54.22-2.28.33s-1.48.25-2.17.34l-.11,0a1.21,1.21,0,0,1-1.36-1.05A1.19,1.19,0,0,1,123,332.25Z"/><path class="cls-6" d="M100.28,334.1a55.54,55.54,0,0,0,.07,6.44q.16,3.25.43,6.52l1.13,13.05c.18,2.19.36,4.37.47,6.57s.14,4.39.11,6.59a48.7,48.7,0,0,1-1.55,13.09.27.27,0,0,1-.34.19.27.27,0,0,1-.18-.33v0a32.69,32.69,0,0,0,.91-6.41c.12-2.17.17-4.34.13-6.52s-.14-4.35-.31-6.52-.42-4.33-.66-6.5q-.73-6.51-1.34-13.06A90.7,90.7,0,0,1,98.59,334a.85.85,0,0,1,1.7.11h0Z"/><path class="cls-6" d="M89.1,389.46c-1,.33-2.07.64-3.11.94s-2.09.56-3.11.89h0a.92.92,0,0,1-.29,0h0l.3,0c-.93.31-1.87.6-2.77,1l-1.36.54c-.44.18-.88.4-1.32.59l-.08,0a1,1,0,0,1-.34.06h0l.41-.09a23.07,23.07,0,0,0-3.89,2.34,16.85,16.85,0,0,0-3.17,3.2,23.85,23.85,0,0,0-3.63,8.43.3.3,0,0,1-.37.23.33.33,0,0,1-.23-.35,32.77,32.77,0,0,1,1.08-4.66,17.86,17.86,0,0,1,2.07-4.4,16.56,16.56,0,0,1,3.26-3.68,25,25,0,0,1,4.07-2.71.72.72,0,0,1,.34-.09H77l-.41.1c.92-.48,1.87-.94,2.81-1.32s1.92-.72,2.88-1.07a.73.73,0,0,1,.25,0h0l-.3.05c1-.38,2.14-.58,3.21-.88s2.16-.53,3.24-.77a.85.85,0,0,1,.45,1.64Z"/><path class="cls-6" d="M120.05,368.4c.56-.12,1-.15,1.54-.22a8,8,0,0,1,1.66-.06.63.63,0,0,1,.56.68.66.66,0,0,1-.19.38h0a3.13,3.13,0,0,1-1.82.8,3,3,0,0,1-2-.42.63.63,0,0,1-.19-.88.64.64,0,0,1,.41-.28Z"/><path class="cls-6" d="M111.57,313.31a64.26,64.26,0,0,1,3.36-7.47c.64-1.2,1.29-2.4,2-3.57a22.7,22.7,0,0,1,2.43-3.44.85.85,0,0,1,1.3,1.09l0,0a37.28,37.28,0,0,0-2.18,3.24c-.7,1.14-1.41,2.28-2.09,3.44l-2.06,3.48c-.67,1.17-1.37,2.33-2,3.5h0a.39.39,0,0,1-.71-.32Z"/><path class="cls-6" d="M116.58,303.35a8.21,8.21,0,0,1,3.21-.65,19.3,19.3,0,0,1,3,.15,26.3,26.3,0,0,1,5.87,1.47,24.22,24.22,0,0,1,5.35,2.87,28.84,28.84,0,0,1,4.44,4.1,32.93,32.93,0,0,1,5.91,10.35c1.39,3.68,2.62,7.32,3.8,11.07s2,7.55,2.85,11.33l2.55,11.36c.88,3.77,1.76,7.54,2.8,11.27a50,50,0,0,0,4,10.81h0a.18.18,0,0,1-.07.26.19.19,0,0,1-.26-.07,51.26,51.26,0,0,1-4.46-10.79c-1.16-3.71-2.18-7.47-3.14-11.23-1.94-7.51-3.64-15.11-5.91-22.46-1.2-3.63-2.53-7.32-3.94-10.87a31.16,31.16,0,0,0-5.72-9.66,29.83,29.83,0,0,0-4.15-3.73,21.93,21.93,0,0,0-4.87-2.61,25.17,25.17,0,0,0-5.37-1.48,21.5,21.5,0,0,0-2.74-.26,7.67,7.67,0,0,0-2.5.29l-.1,0a.84.84,0,0,1-1.08-.51A.86.86,0,0,1,116.58,303.35Z"/><path class="cls-6" d="M113.58,372.54a28,28,0,0,1,.34,4.23,12.7,12.7,0,0,1-.26,2.2,7.94,7.94,0,0,1-.84,2.14,7,7,0,0,1-1.59,1.75,16.68,16.68,0,0,1-1.92,1.1,40.64,40.64,0,0,1-3.91,1.67A68.08,68.08,0,0,1,97.31,388a71.64,71.64,0,0,1-8.3,1.46.85.85,0,0,1-.2-1.69h0c2.69-.34,5.42-.87,8.1-1.45a66.74,66.74,0,0,0,7.91-2.24,37.8,37.8,0,0,0,3.77-1.56,17.06,17.06,0,0,0,1.72-.93,5.38,5.38,0,0,0,1.24-1.28,8,8,0,0,0,1.07-3.62,34.94,34.94,0,0,0,0-4.09.5.5,0,0,1,.46-.51A.49.49,0,0,1,113.58,372.54Z"/><path class="cls-6" d="M176.6,393.85A39.36,39.36,0,0,1,162.91,390a33.81,33.81,0,0,1-11.16-9,39.79,39.79,0,0,1-6.86-12.57c-1.52-4.59-2-9.29-3.14-13.79s-2.48-9-3.93-13.42a92.39,92.39,0,0,0-5.31-12.89,67.61,67.61,0,0,0-3.47-6,21.93,21.93,0,0,0-4.58-5,19.8,19.8,0,0,0-5.9-3.29,13.66,13.66,0,0,0-3.26-.7,5.89,5.89,0,0,0-3.15.5h0l-.07,0a.56.56,0,0,1-.22,0,7.16,7.16,0,0,0-5.75,2.34,18.9,18.9,0,0,0-3.6,5.54c-1.8,4.08-2.21,8.7-2.24,13.22a68,68,0,0,0,1.51,13.56,49.61,49.61,0,0,0,4.37,12.83,43.72,43.72,0,0,0,7.94,10.93,31.14,31.14,0,0,0,2.51,2.24,10,10,0,0,0,2.69,1.65,10.47,10.47,0,0,0,6.27,0,12.16,12.16,0,0,0,3-1.28,17.76,17.76,0,0,0,2.62-2,54.86,54.86,0,0,0,4.93-4.71,28.54,28.54,0,0,0,6.69-11.7h0a.36.36,0,0,1,.44-.27.37.37,0,0,1,.27.43,29.62,29.62,0,0,1-6.4,12.4,46.48,46.48,0,0,1-4.78,5.14,18.34,18.34,0,0,1-2.87,2.21,14.39,14.39,0,0,1-3.37,1.46,12.17,12.17,0,0,1-7.36-.06,11.66,11.66,0,0,1-3.2-1.91,35.24,35.24,0,0,1-2.65-2.37,45.7,45.7,0,0,1-8.3-11.37,39.91,39.91,0,0,1-2.71-6.51,64.48,64.48,0,0,1-1.76-6.79A69.18,69.18,0,0,1,98.61,335a47.29,47.29,0,0,1,.52-7,24.2,24.2,0,0,1,2-6.83,18.28,18.28,0,0,1,4.09-5.87,8.92,8.92,0,0,1,3.12-1.94A7.28,7.28,0,0,1,112,313l-.29.06h0a6.27,6.27,0,0,1,3.64-.93,12,12,0,0,1,3.63.6,19.7,19.7,0,0,1,6.39,3.41,23.42,23.42,0,0,1,5,5.28,66.56,66.56,0,0,1,3.62,6.13c4.42,8.44,7.18,17.51,9.55,26.64,1.15,4.6,1.67,9.31,3.12,13.64a39,39,0,0,0,2.75,6.3,35.58,35.58,0,0,0,3.76,5.73,33.55,33.55,0,0,0,10.5,8.7,40.45,40.45,0,0,0,13.12,4.18h0a.54.54,0,0,1-.14,1.07Z"/><path class="cls-6" d="M89.33,388.27a42,42,0,0,0,8.47,6.94,40.12,40.12,0,0,0,10,4.39,73.66,73.66,0,0,0,21.78,2.55c3.69,0,7.38-.19,11.06-.49s7.33-.86,10.94-1.56a65.71,65.71,0,0,0,10.6-3,48.14,48.14,0,0,0,9.82-5h0a.5.5,0,0,1,.58.81c-6,4.61-13.26,7.37-20.59,9a107.49,107.49,0,0,1-22.39,2.42,83.6,83.6,0,0,1-11.29-.53,59.17,59.17,0,0,1-11.13-2.3,42.45,42.45,0,0,1-10.28-4.92A40.09,40.09,0,0,1,88.5,389a.56.56,0,0,1,.07-.78.54.54,0,0,1,.75,0Z"/><path class="cls-6" d="M174.75,392.41a30.48,30.48,0,0,1,6.75,3,23,23,0,0,1,3.06,2.18,13.8,13.8,0,0,1,2.54,2.84l.08.13a.27.27,0,0,1,0,.21h0a.52.52,0,0,1-1,0h0l.13.34c-1-.67-1.93-1.38-2.91-2s-2-1.25-3-1.85c-2-1.22-4.16-2.35-6.19-3.72a.65.65,0,0,1,.55-1.16Z"/><path class="cls-6" d="M175.88,393.64a7.56,7.56,0,0,0-2.19-2.53c-.94-.8-1.92-1.61-2.87-2.46a20.7,20.7,0,0,1-4.93-6,35.27,35.27,0,0,1-2.67-7.17c-.69-2.44-1.28-4.88-1.89-7.32-2.72-9.74-3.61-19.85-5.19-29.74a79.68,79.68,0,0,0-3.47-14.55c-1.65-4.69-3.69-9.29-6.86-13a34.47,34.47,0,0,0-5.31-5.07,39.93,39.93,0,0,0-6.1-4.1,29.32,29.32,0,0,0-3.35-1.47,23.82,23.82,0,0,0-3.49-1.07,16.76,16.76,0,0,0-3.58-.43,7.41,7.41,0,0,0-3.39.68h0a.56.56,0,0,1-.44,0c-1.85-.71-3.95-.17-5.83.62a27.52,27.52,0,0,0-5.38,3.21,37.4,37.4,0,0,0-8.58,9.2A40.34,40.34,0,0,0,94.89,324a58.14,58.14,0,0,0-1.2,12.76c0,4.3,0,8.65.1,12.95s.45,8.64.53,13,.09,8.69-.2,13.05a40.36,40.36,0,0,1-2.59,12.9.64.64,0,0,1-1.19-.48v0a41.77,41.77,0,0,0,2.3-12.49c.26-4.29.23-8.6.1-12.91l-.44-13c-.07-4.36,0-8.67,0-13a63.32,63.32,0,0,1,1.3-13,42.52,42.52,0,0,1,2.25-6.21,52.37,52.37,0,0,1,3-5.88,29.93,29.93,0,0,1,9-9.73,23.93,23.93,0,0,1,5.9-3.16,11.39,11.39,0,0,1,3.34-.72,6.37,6.37,0,0,1,3.44.67l-.45,0h0a8,8,0,0,1,3.83-1.18,16,16,0,0,1,3.92.24,25.7,25.7,0,0,1,7.34,2.45,34.12,34.12,0,0,1,6.43,4.25,35.91,35.91,0,0,1,5.51,5.38c3.31,4,5.24,8.89,6.78,13.68a63.11,63.11,0,0,1,1.9,7.36c.53,2.48.95,5,1.32,7.46,1.49,9.95,2.5,20,5.24,29.62.65,2.43,1.28,4.86,2,7.26a34.84,34.84,0,0,0,2.68,6.88,19.27,19.27,0,0,0,4.77,5.47c.95.8,1.93,1.56,2.92,2.36a9,9,0,0,1,2.73,3.1.86.86,0,0,1-.42,1.13.87.87,0,0,1-1.13-.42v-.06Z"/><circle class="cls-7" cx="124.03" cy="357.56" r="76.15"/></g></svg>