<svg xmlns="http://www.w3.org/2000/svg" viewBox="0 0 536 536"><defs><style>.cls-1{fill:#93ebe4;}.cls-2{fill:#fd0;}.cls-3{fill:#1eadfe;}.cls-4{fill:#fff;}.cls-5,.cls-7{fill:none;stroke:#28347d;}.cls-5{stroke-linecap:round;stroke-linejoin:round;stroke-width:2.5px;}.cls-6{fill:#28347d;}.cls-7{stroke-miterlimit:10;stroke-width:2.37px;}</style></defs><title>2-personaje-03</title><g id="Rostro4"><circle class="cls-1" cx="381.94" cy="455.07" r="76.15"/><path class="cls-2" d="M443,489.9h0a76.15,76.15,0,0,1-126.13,11.18c1.6-4.6,3.47-8.43,5.67-10.87.35-.38.7-.76,1.07-1.13s.73-.74,1.11-1.1c.76-.72,1.55-1.4,2.34-2.07,1.8-1.48,3.66-2.84,5.45-4.05l1.75-1.16.58-.37,1.1-.7L337,479h0l1-.62.47-.29.88-.56c.28-.17.56-.34.81-.51v0c0,.38,0,.76,0,1.12,0,1.15,0,2.18-.06,3-.11,6-1.55,9.09-2.52,10.52a6.22,6.22,0,0,1-.76.92l-.05.05,0,0,0,0h0a19.9,19.9,0,0,0,5.25-.61h0a5.82,5.82,0,0,1-.61.88,15.1,15.1,0,0,1-1.72,1.75,8.77,8.77,0,0,1-.72.59l0,0a12.07,12.07,0,0,0,6.39-1.76,9.85,9.85,0,0,1-2.1,5.87,22.26,22.26,0,0,0,8.74-2.8,9.33,9.33,0,0,1-.09,1.93c0,.22-.07.44-.12.65a10.4,10.4,0,0,1-.84,2.35,5.19,5.19,0,0,1-.25.47,9.89,9.89,0,0,1-1.3,1.86,7.8,7.8,0,0,0,1.07-.48,12.72,12.72,0,0,0,1.52-.94,0,0,0,0,0,0,0,17.45,17.45,0,0,0,1.44-1.19h0c.15-.15.31-.29.46-.45a24.65,24.65,0,0,0,3.62-4.77c.45-.78.88-1.57,1.25-2.37h0a29.39,29.39,0,0,0,1.8-4.7c.1-.37.2-.73.28-1.09q.06-.27.12-.57l.12-.62a.36.36,0,0,0,0-.1c0-.19.07-.38.1-.57.11-.7.22-1.45.32-2.26,0-.12,0-.24.05-.37.05-.39.1-.79.14-1.2a.34.34,0,0,0,0-.1c2.86,6.75,20.14,13.43,32.92,1.53q-.64,2.61-1.37,4.87l-.36,1.11a.14.14,0,0,1,0,.06c-.24.7-.48,1.37-.72,2l-.09.24q-.33.87-.66,1.68c-.12.3-.25.6-.37.89l-.33.75c-.14.32-.27.62-.41.91l-.37.77a45,45,0,0,1-2.86,5.12l-.23.33a18.13,18.13,0,0,1-1.13,1.54,33.15,33.15,0,0,0,10.16-3.59,10.68,10.68,0,0,1-1.82,4.31l-.29.39a13.54,13.54,0,0,1-2.35,2.47,42.44,42.44,0,0,0,8.31-4.62c.48-.35.94-.69,1.39-1,.23-.17.45-.35.67-.53,1.08-.89,2.08-1.81,3-2.73a37.11,37.11,0,0,0,10.1-18,10.82,10.82,0,0,1,2.27,5.08c.06-.25.12-.5.17-.75.11-.49.19-1,.26-1.44l.09-.69a21.77,21.77,0,0,0,0-5.14q-.07-.66-.18-1.17-.06-.35-.12-.6c0-.18-.07-.32-.11-.44s-.1-.37-.1-.37a6.14,6.14,0,0,1,2.36,1.53,8.37,8.37,0,0,1,.69.78c.14.18.28.37.4.55s.25.38.36.56a14.38,14.38,0,0,1,1.36,3.06c-.13-1.73-.44-4.36-.89-7.58,1.25.9,2.49,1.72,3.72,2.49l1.23.76,2.41,1.43,2.36,1.38c.78.45,1.54.91,2.29,1.38s1.2.75,1.78,1.14a36.84,36.84,0,0,1,4.57,3.55l.69.66c.45.46.89.93,1.31,1.42S442.54,489.33,443,489.9Z"/><path class="cls-3" d="M396.74,470.14a116.26,116.26,0,0,0,.25-17.62,21.85,21.85,0,0,0,.94-9.25c-.27-1.78-.84-5.76-.84-5.76-3.31-2.16-7.12-4.34-10.64-8.26-6.64-7.37-11.92-16.3-17.79-20.67s-10.34-2-11.21,4.81c-3.15-.61-5.87,4.29-5.61,10.08s0,16.9,1.23,23.38c.82,4.31,5.27,11.41,9,16.3h0a53.16,53.16,0,0,1,.24,8.82c-.11,3.34-.35,7-.69,10.17a51.9,51.9,0,0,1-.89,5.79c-1.31,5.69-5.69,13.83-11.46,16a10.52,10.52,0,0,0,2.6-7.26,22.34,22.34,0,0,1-8.74,2.8,9.85,9.85,0,0,0,2.1-5.87,12.11,12.11,0,0,1-6.39,1.76,13.68,13.68,0,0,0,3.06-3.24,19.94,19.94,0,0,1-5.26.61s3.25-2.46,3.42-11.57c0-1.14.05-2.57.09-4.19.23-11.36.7-32.86.79-41.36.05-5.78-.71-29.78,9.81-26.81a23.82,23.82,0,0,1,11.62-13.13c5.28-2.72,7-7.45,14.39-6.84s15.07,4.91,20.33,11,11.65,15.94,15.76,30.66c3.24,11.59,6.82,31.55,8.48,43.49.45,3.21.76,5.85.9,7.58,0,0-1.49-5.25-5.17-6.48a21,21,0,0,1,0,10.6,10.78,10.78,0,0,0-2.28-5.08s-3.15,18.3-23.47,26.89c.22-.18,3.79-3,4.47-7.18A33.27,33.27,0,0,1,385.57,504s5.49-6.38,8.93-20.29A92,92,0,0,0,396.74,470.14Z"/><path class="cls-4" d="M397.93,443.26c-.27-1.78-.84-5.75-.84-5.75l-1.75-1.12-.81-.53L393.2,435c-.45-.3-.9-.62-1.35-.94a36,36,0,0,1-2.88-2.29c-.39-.35-.78-.71-1.16-1.08,0,0,0,0,0,0-.45-.44-.89-.9-1.33-1.39-1.24-1.38-2.44-2.82-3.6-4.27-1.55-1.94-3-3.9-4.49-5.79s-2.88-3.71-4.3-5.37l-1.07-1.2c-.36-.4-.72-.78-1.07-1.14l-.54-.54a26.11,26.11,0,0,0-2.71-2.36c-5.87-4.37-10.34-2-11.21,4.81-3.16-.61-5.87,4.29-5.61,10.08s0,16.9,1.22,23.39c0,.13.05.26.09.4s.07.28.11.43a9,9,0,0,0,.27.9l.16.46c.09.24.18.48.28.73l.22.52c0,.07.06.15.1.23.15.33.3.68.47,1a2.53,2.53,0,0,0,.14.29l.38.77a70.64,70.64,0,0,0,4.62,7.59c.23.34.47.69.71,1,.48.68,1,1.32,1.41,1.94h0l.37.47.51.65c.5.63,1,1.22,1.42,1.73.29.34.56.66.82.94s.51.53.73.74l.22.2.37.32c2.71,2.1,10.25,1.66,12.44,1.23S394,459.52,396,455.11c.19-.42.37-.84.53-1.25a.05.05,0,0,1,0,0c.15-.41.3-.82.42-1.22a.41.41,0,0,1,0-.08v0c.19-.59.35-1.18.48-1.75.1-.41.18-.82.25-1.22,0-.2.07-.39.1-.59s.06-.39.08-.58c.08-.58.13-1.15.15-1.69,0-.18,0-.36,0-.53A17.05,17.05,0,0,0,397.93,443.26Zm-19.8,12.07a11,11,0,0,1-4.72,2.63,23.8,23.8,0,0,1-4.39.23c-1.88,0-4.61-2.67-4.92-3.77h.14c.35,0,.77.07,1.25.09.87,0,1.92,0,3.06,0s2.65-.07,4-.17l.5,0,1.68-.14c.74-.07,1.45-.15,2.12-.24l.38,0c.5-.07,1-.15,1.39-.23l.37-.08.51-.11h0A7.06,7.06,0,0,1,378.13,455.33Z"/><path class="cls-4" d="M397,452.52a116.26,116.26,0,0,1-.25,17.62c-10.95,16.81-31.05,9.91-34.47,1.84a53.16,53.16,0,0,0-.24-8.82,33.07,33.07,0,0,0,4.44,5.07c2.72,2.1,10.25,1.66,12.44,1.23S394,459.52,396,455.11A22.88,22.88,0,0,0,397,452.52Z"/><path class="cls-2" d="M396.74,470.14a92,92,0,0,1-2.24,13.54c-12.78,11.9-30.07,5.22-32.92-1.53.34-3.16.58-6.83.69-10.17C365.69,480.05,385.79,487,396.74,470.14Z"/><path class="cls-4" d="M379.53,453.48c-1.43,2.79-5,4.25-6.13,4.48a23.74,23.74,0,0,1-4.39.23c-1.87,0-4.61-2.67-4.91-3.77A64.44,64.44,0,0,0,379.53,453.48Z"/><path class="cls-5" d="M360.75,434.69c.05.49-.1.92-.35.94s-.48-.36-.53-.86.11-.92.35-.94S360.7,434.19,360.75,434.69Z"/><path class="cls-5" d="M380.43,433.79c.05.49-.11.92-.36.94s-.48-.36-.53-.86.11-.92.35-.94S380.38,433.29,380.43,433.79Z"/><path class="cls-6" d="M409.65,475.92c.12-2.07.23-4.13.19-6.18a50.65,50.65,0,0,0-3.51-18c-.71-1.92-1.46-3.86-2.26-5.73a12.71,12.71,0,0,0-3.41-4.62c-2.92-2.62-6.76-4.42-10.09-7.06a34.38,34.38,0,0,1-4.71-4.32c-1.4-1.57-2.71-3.19-4-4.83-2.6-3.26-5-6.65-7.66-9.76a44.81,44.81,0,0,0-4.22-4.37,17.27,17.27,0,0,0-4.79-3.19,6,6,0,0,0-2.53-.42,3.94,3.94,0,0,0-2.24.95,10.91,10.91,0,0,0-2.74,5v0a.26.26,0,0,1-.27.18,2.94,2.94,0,0,0-1.58.28,4.39,4.39,0,0,0-1.25,1.07,9,9,0,0,0-1.54,3,16.26,16.26,0,0,0-.6,3.4,32.46,32.46,0,0,0,.06,3.54c.18,4.8.17,9.59.46,14.35a61,61,0,0,0,.75,7.06,23,23,0,0,0,2.54,6.46,77.57,77.57,0,0,0,7.94,11.77,32.61,32.61,0,0,0,2.33,2.59,4.22,4.22,0,0,0,1.26.86,8.27,8.27,0,0,0,1.55.5,26.09,26.09,0,0,0,6.92.4c.58,0,1.16-.09,1.73-.16a8,8,0,0,0,.81-.14l.29-.11a3.82,3.82,0,0,0,.36-.17,27.56,27.56,0,0,0,3-1.82c1.95-1.33,3.85-2.77,5.68-4.28a52.59,52.59,0,0,0,5.19-4.79,13.35,13.35,0,0,0,2-2.69,22.18,22.18,0,0,0,1.19-3.25,23.79,23.79,0,0,0,.87-6.86c0-1.12-.2-2.32-.31-3.51s-.22-2.4-.29-3.6a.37.37,0,0,1,.74-.1c.27,1.17.51,2.35.74,3.52s.48,2.34.59,3.61A21.53,21.53,0,0,1,398,452a22.74,22.74,0,0,1-1.27,3.49,14.69,14.69,0,0,1-2.25,3.11,55.63,55.63,0,0,1-5.36,5c-1.87,1.54-3.79,3-5.8,4.37a28,28,0,0,1-3.16,1.93,4.71,4.71,0,0,1-.45.22l-.56.19a7,7,0,0,1-.95.16c-.63.09-1.24.14-1.85.18a27.5,27.5,0,0,1-7.39-.43,9.62,9.62,0,0,1-1.86-.61,5.6,5.6,0,0,1-1.7-1.15,31.53,31.53,0,0,1-2.47-2.76,78.8,78.8,0,0,1-8-12.11,33.6,33.6,0,0,1-1.56-3.32c-.25-.55-.42-1.16-.63-1.74a18.15,18.15,0,0,1-.44-1.84,65.94,65.94,0,0,1-.71-7.24c-.23-4.81-.22-9.61-.29-14.39a31.83,31.83,0,0,1,0-3.65,14.55,14.55,0,0,1,.8-3.63,9.21,9.21,0,0,1,1.88-3.24,5,5,0,0,1,1.56-1.13,3.31,3.31,0,0,1,1.94-.17l-.29.2a10.68,10.68,0,0,1,.37-3.21,7.39,7.39,0,0,1,1.59-3,5.45,5.45,0,0,1,3.23-1.73,7.43,7.43,0,0,1,3.56.42,16.74,16.74,0,0,1,5.45,3.72,52,52,0,0,1,4.2,4.74c2.61,3.27,5.09,6.59,7.66,9.8,1.3,1.6,2.63,3.17,4,4.66a33.68,33.68,0,0,0,4.51,4c1.62,1.2,3.34,2.29,5.08,3.42a37,37,0,0,1,5.14,3.78,14.73,14.73,0,0,1,3.75,5.39c.77,2,1.46,3.9,2.13,5.89a53,53,0,0,1,2.65,12.27A54.8,54.8,0,0,1,410,476a.19.19,0,0,1-.21.16A.21.21,0,0,1,409.65,475.92Z"/><path class="cls-6" d="M362.73,430.61c-.7-.09-1.41-.17-2.11-.2a15,15,0,0,0-2.12,0,9.32,9.32,0,0,0-4,1.29h0a.49.49,0,0,1-.67-.16.48.48,0,0,1,0-.56,8.44,8.44,0,0,1,4.27-2.65,11.08,11.08,0,0,1,5-.32,1.29,1.29,0,0,1-.36,2.55Z"/><path class="cls-6" d="M374.73,428a13.27,13.27,0,0,1,5.71-.84,11.51,11.51,0,0,1,5.45,1.65.48.48,0,0,1,.15.65.47.47,0,0,1-.52.19h0a13.35,13.35,0,0,0-5.05-.42,23.52,23.52,0,0,0-4.86,1.13h0a1.26,1.26,0,0,1-.86-2.37Z"/><path class="cls-6" d="M366.78,432a51.65,51.65,0,0,1-.23,5.84c-.19,1.94-.43,3.87-.8,5.8-.1.49-.2,1-.32,1.46-.05.24-.13.5-.19.74s-.21.64-.18.56,0,0,0,0,0,0,0,0a.65.65,0,0,0,.24.21,4.18,4.18,0,0,0,1.08.44,17.9,17.9,0,0,0,5.46.46h0a.36.36,0,0,1,.39.34.38.38,0,0,1-.22.37,10.11,10.11,0,0,1-3,.68,10.75,10.75,0,0,1-3.09-.13,5.09,5.09,0,0,1-1.62-.57,2.53,2.53,0,0,1-.84-.73,1.7,1.7,0,0,1-.29-.64,1.61,1.61,0,0,1,0-.72,4.12,4.12,0,0,1,.24-.82l.18-.66c.11-.45.22-.91.32-1.37.39-1.86.75-3.75,1.09-5.64s.7-3.78,1-5.68a.37.37,0,0,1,.42-.31A.38.38,0,0,1,366.78,432Z"/><path class="cls-6" d="M370.08,461.12a14.49,14.49,0,0,1,1.64,0,13.76,13.76,0,0,1,1.66.12l.22,0a.46.46,0,0,1,.39.54.47.47,0,0,1-.14.28,2.55,2.55,0,0,1-1.07.57,4.3,4.3,0,0,1-1.06.15,3.28,3.28,0,0,1-2.15-.63.56.56,0,0,1-.1-.8.54.54,0,0,1,.39-.22Z"/><path class="cls-6" d="M363.66,454c1.31,0,2.68-.17,4-.26s2.72-.16,4.08-.22l4.07-.19c1.35-.07,2.72-.11,4-.27h0a.36.36,0,0,1,.39.31.34.34,0,0,1-.2.36,17.13,17.13,0,0,1-4.07,1.17,40.49,40.49,0,0,1-8.32.55,15.5,15.5,0,0,1-4.2-.69.38.38,0,0,1-.23-.49.36.36,0,0,1,.35-.26Z"/><path class="cls-6" d="M364.52,454.3a6.39,6.39,0,0,0,1.44,1.46,9.68,9.68,0,0,0,1.78,1.16,4.75,4.75,0,0,0,.88.32,2.76,2.76,0,0,0,.37,0h.57c.77,0,1.54,0,2.27-.06.37,0,.73,0,1.08-.09a6.48,6.48,0,0,0,1-.22,13.33,13.33,0,0,0,2-.84,9.26,9.26,0,0,0,3.33-2.75h0a.37.37,0,0,1,.52-.09.38.38,0,0,1,.13.44,8,8,0,0,1-3.18,3.75,10.34,10.34,0,0,1-2.21,1.16,5.52,5.52,0,0,1-1.28.36c-.42.07-.83.12-1.24.15-.81.07-1.6.05-2.38.05H369a3.74,3.74,0,0,1-.78-.13,5.08,5.08,0,0,1-1.27-.56,8.55,8.55,0,0,1-1.93-1.64,7.62,7.62,0,0,1-.76-1,3.46,3.46,0,0,1-.55-1.24A.43.43,0,0,1,364,454a.45.45,0,0,1,.45.19Z"/><path class="cls-6" d="M361.93,482a13.77,13.77,0,0,0,6.87,5.42,24.34,24.34,0,0,0,8.74,1.89,23.33,23.33,0,0,0,8.83-1.4,29,29,0,0,0,7.81-4.57h0a.46.46,0,0,1,.65.08.45.45,0,0,1,0,.61,24.9,24.9,0,0,1-7.87,5.35l-2.28.82c-.78.19-1.57.35-2.36.53a25,25,0,0,1-4.81.35,23.61,23.61,0,0,1-9.34-2.22,18.26,18.26,0,0,1-2.11-1.18c-.68-.43-1.31-.94-2-1.44a10.84,10.84,0,0,1-2.86-3.93.38.38,0,0,1,.68-.33Z"/><path class="cls-6" d="M316.41,501a34.54,34.54,0,0,1,2.59-7.37,21.45,21.45,0,0,1,2.07-3.45c.42-.57.87-1.06,1.3-1.55s.89-1,1.36-1.44c1-.89,1.91-1.78,3-2.6s2.1-1.54,3.18-2.26a67.23,67.23,0,0,1,6.72-3.85l.11-.06a.45.45,0,0,1,.25-.05h0l-.35.1,1.68-.82q.82-.42,1.68-.81h0a.25.25,0,0,1,.33.12.26.26,0,0,1-.06.3c-1,.81-2,1.56-2.95,2.33a.43.43,0,0,1-.22.09H337l.36-.11c-2.05,1.57-4.12,3.05-6.09,4.62-1,.77-2,1.58-2.93,2.38-.47.39-.93.82-1.4,1.23L325.48,489c-.86.85-1.86,1.72-2.62,2.59a22.26,22.26,0,0,0-2.14,2.95c-1.29,2.12-2.38,4.41-3.48,6.71a.44.44,0,0,1-.59.22A.46.46,0,0,1,316.41,501Z"/><path class="cls-6" d="M421.55,473.7a29.06,29.06,0,0,1,5.95,3.13c1.88,1.22,3.84,2.3,5.81,3.45a33.54,33.54,0,0,1,5.65,4,16.49,16.49,0,0,1,2.39,2.55,15.63,15.63,0,0,1,1.81,3l0,.08a.06.06,0,0,1,0,.07h0a.26.26,0,0,1-.31.2.26.26,0,0,1-.2-.2h0l.05.15c-1.73-1.49-3.32-2.95-5.08-4.25s-3.57-2.54-5.44-3.75-3.83-2.34-5.81-3.43a25.5,25.5,0,0,1-2.87-1.85,12.87,12.87,0,0,1-2.51-2.39.45.45,0,0,1,.1-.62.42.42,0,0,1,.4-.06Z"/><path class="cls-6" d="M362.69,471.8a10.73,10.73,0,0,0,3.19,3.65,17.18,17.18,0,0,0,4.3,2.37,25.57,25.57,0,0,0,9.62,1.56,19.84,19.84,0,0,0,9.34-2.67,22.82,22.82,0,0,0,7.12-6.89v0a.57.57,0,0,1,.8-.14.58.58,0,0,1,.16.79,28,28,0,0,1-3.21,4.17,25.54,25.54,0,0,1-4,3.43,20.5,20.5,0,0,1-10.06,3.46,20.17,20.17,0,0,1-10.45-2.08,19.09,19.09,0,0,1-4.45-2.94,11.17,11.17,0,0,1-3.16-4.33.45.45,0,0,1,.82-.37Z"/><path class="cls-6" d="M362.57,463.06a36.19,36.19,0,0,1,.5,5.74c.06,1.9,0,3.8,0,5.7A92.47,92.47,0,0,1,362,485.85a28.43,28.43,0,0,1-4.15,10.77,25.68,25.68,0,0,1-3.61,4.52,14.12,14.12,0,0,1-4.85,3.19h0a.37.37,0,0,1-.49-.2.38.38,0,0,1,.06-.4l0,0a10.66,10.66,0,0,0,1.09-1.54,10,10,0,0,0,.79-1.73,9.2,9.2,0,0,0,.54-3.7h0l.7.37a7.54,7.54,0,0,1-2,1.38,12.5,12.5,0,0,1-2.23.85,11.57,11.57,0,0,1-4.75.43h0a.24.24,0,0,1-.29-.18.27.27,0,0,1,0-.19l0-.05a9.53,9.53,0,0,0,1.33-2.74,8.5,8.5,0,0,0,.38-3v0l.92.48A6.54,6.54,0,0,1,344,495a10.84,10.84,0,0,1-1.67.54,9.28,9.28,0,0,1-3.48.12h0a.3.3,0,0,1-.31-.25.28.28,0,0,1,.1-.24l0,0a12.37,12.37,0,0,0,2.79-3.25h0l.58.74a11.14,11.14,0,0,1-2.65.64,9.27,9.27,0,0,1-2.73-.06h0a.44.44,0,0,1-.47-.41.45.45,0,0,1,.12-.33l.08-.09a7.52,7.52,0,0,0,1.35-2.18,17,17,0,0,0,.84-2.56,29.44,29.44,0,0,0,.69-5.41l.24-11.22.57-22.48.24-11.24c.06-1.88,0-3.74,0-5.62s0-3.77.07-5.66a42.78,42.78,0,0,1,1.62-11.33,11.68,11.68,0,0,1,3-5.17,5.28,5.28,0,0,1,2.84-1.38,5.59,5.59,0,0,1,3,.49h0l-.25.13a18,18,0,0,1,4-8.34c1.95-2.5,4.76-4.14,7.5-5.55a21.11,21.11,0,0,0,3.58-2.46,31.62,31.62,0,0,1,3.68-2.83,11.08,11.08,0,0,1,4.6-1.62,16.39,16.39,0,0,1,4.76.22,27.78,27.78,0,0,1,8.73,3.12,36.18,36.18,0,0,1,7.44,5.42,69.54,69.54,0,0,1,11,14.55,79.67,79.67,0,0,1,7.3,16.72c1.77,5.84,3,11.78,4.18,17.7s2.17,11.89,3.07,17.86q.69,4.49,1.23,9c.36,3,.71,6,.86,9v0a.32.32,0,0,1-.29.33.34.34,0,0,1-.29-.16l0-.06a26.18,26.18,0,0,0-2.16-3.48,12.16,12.16,0,0,0-1.31-1.45,9.16,9.16,0,0,0-1.55-1.08h0l.73-.73a11.64,11.64,0,0,1,.66,2.71,16.87,16.87,0,0,1,.11,2.75,17.71,17.71,0,0,1-.32,2.72,15.73,15.73,0,0,1-.72,2.63s0,0,0,0a.27.27,0,0,1-.29.23.25.25,0,0,1-.22-.18l0-.09a12.71,12.71,0,0,0-1.09-2.44,15.63,15.63,0,0,0-1.51-2.15l0,0,1.39-.36a31.25,31.25,0,0,1-3.14,9,37.13,37.13,0,0,1-12.55,13.93,40.2,40.2,0,0,1-4.08,2.34,18,18,0,0,1-2.15.95c-.72.3-1.44.59-2.17.86l0,0a.33.33,0,0,1-.43-.19.33.33,0,0,1,.08-.35l0,0a17.8,17.8,0,0,0,2.55-3.26,15.46,15.46,0,0,0,1.56-3.71v0l.83.58a16,16,0,0,1-4.93,2.42,19.17,19.17,0,0,1-5.41,1.07h0a.39.39,0,0,1-.46-.31.41.41,0,0,1,.07-.29l0-.05a49.81,49.81,0,0,0,5.84-11.84A91.4,91.4,0,0,0,394.49,479l.57-3.27.44-3.29c.35-2.2.44-4.42.64-6.63s.19-4.44.29-6.66l0-6.68v0a.6.6,0,0,1,1.19,0c.12,2.24.29,4.49.38,6.74s.06,4.51-.05,6.77-.21,4.51-.51,6.75c-.14,1.12-.23,2.25-.41,3.37l-.59,3.34a70.46,70.46,0,0,1-3.8,13,60.49,60.49,0,0,1-2.92,6.14,32.23,32.23,0,0,1-3.82,5.65l-.35-.65h0a43.27,43.27,0,0,0,5-1.67c1.63-.66,3.22-1.44,4.89-2l.17-.06a.51.51,0,0,1,.65.32.5.5,0,0,1,0,.32.09.09,0,0,0,0,0,7.63,7.63,0,0,1-.55,2.21,9.86,9.86,0,0,1-1.11,2,12.26,12.26,0,0,1-1.43,1.7,11.2,11.2,0,0,1-1.72,1.42l-.33-.57,0,0a55.32,55.32,0,0,0,7.74-4.85,39.63,39.63,0,0,0,6.6-6.14,39.23,39.23,0,0,0,5.11-7.41,37.5,37.5,0,0,0,3.35-8.3l0-.11a.78.78,0,0,1,.94-.55.79.79,0,0,1,.43.3l0,0a9.67,9.67,0,0,1,1.38,2.62,8.78,8.78,0,0,1,.52,2.88l-.54,0s0,0,0,0a35.25,35.25,0,0,0,.26-5.22c0-.86-.07-1.72-.19-2.57s-.21-1.72-.36-2.52l0-.14a.53.53,0,0,1,.43-.62.49.49,0,0,1,.32,0h0a5.45,5.45,0,0,1,2.13,1.05,8.42,8.42,0,0,1,1.55,1.72,9.67,9.67,0,0,1,1,2,9.26,9.26,0,0,1,.55,2.16l-.61.11v0c-.73-6-1.85-11.89-2.89-17.82s-2.28-11.83-3.51-17.72-2.62-11.75-4.33-17.46A95.17,95.17,0,0,0,404.47,412a65.51,65.51,0,0,0-4.68-7.63,41.88,41.88,0,0,0-5.79-6.78A30.6,30.6,0,0,0,378.37,390a16.94,16.94,0,0,0-4.25-.17,9.88,9.88,0,0,0-3.88,1.31c-2.42,1.41-4.55,3.79-7.41,5.25-2.62,1.36-4.66,3.46-6.77,5.42a28.26,28.26,0,0,0-5.16,7.09l0,.07a.16.16,0,0,1-.2.07h0a6.69,6.69,0,0,0-2.6.25,4.45,4.45,0,0,0-2,1.38,12.86,12.86,0,0,0-2.33,4.61,53.77,53.77,0,0,0-1.87,10.84c-.35,3.71-.31,7.44-.39,11.2l-.2,11.25L341,471.05c-.09,3.76-.1,7.48-.25,11.27a25.1,25.1,0,0,1-.91,5.69,10.64,10.64,0,0,1-2.95,5.12l-.26-.83h0l5.08-.65h.14a.47.47,0,0,1,.53.41.44.44,0,0,1-.09.34v0a9.18,9.18,0,0,1-1.54,1.78,22.27,22.27,0,0,1-1.78,1.43l-.18-.52h0a27.7,27.7,0,0,0,3.14-.77,15.63,15.63,0,0,0,1.49-.55c.48-.19,1-.42,1.42-.63l.14-.06a.54.54,0,0,1,.72.25.51.51,0,0,1,0,.29v0a9.84,9.84,0,0,1-.76,3.24,10.38,10.38,0,0,1-1.73,2.78l-.21-.42h0c1.48-.43,2.89-.9,4.28-1.44a32.6,32.6,0,0,1,4.23-1.51l.3-.07a.34.34,0,0,1,.41.25.31.31,0,0,1,0,.19h0a10.17,10.17,0,0,1-.67,4.06,11.6,11.6,0,0,1-.9,1.84,10.62,10.62,0,0,1-1.23,1.66l-.41-.63h0a13.14,13.14,0,0,0,4.38-3.2,24.05,24.05,0,0,0,3.22-4.47,29.3,29.3,0,0,0,3.57-10.36c.52-3.68.82-7.43,1.06-11.17.14-1.87.21-3.74.28-5.61a48.65,48.65,0,0,0-.09-5.55v0a.55.55,0,0,1,1.08-.15Z"/><circle class="cls-7" cx="376.15" cy="453.35" r="76.15"/></g></svg>