<svg xmlns="http://www.w3.org/2000/svg" viewBox="0 0 536 536"><defs><style>.cls-1{fill:#93ebe4;}.cls-2{fill:#fd0;}.cls-3{fill:#28b8ce;}.cls-4{fill:#fff;}.cls-5{fill:#1eadfe;}.cls-6{fill:#28347d;}.cls-7,.cls-8,.cls-9{fill:none;stroke:#28347d;}.cls-7,.cls-8{stroke-linecap:round;stroke-linejoin:round;}.cls-7{stroke-width:2.5px;}.cls-8{stroke-width:1.7px;}.cls-9{stroke-miterlimit:10;stroke-width:2.37px;}</style></defs><title>2-personaje-01</title><g id="Rostro1"><circle class="cls-1" cx="89.03" cy="118.4" r="76.15"/><path class="cls-2" d="M155.82,166a76.15,76.15,0,0,1-124.1,7.81,26.67,26.67,0,0,1,4.23-5.1c.24-.23.49-.45.73-.66.5-.43,1-.84,1.52-1.23.25-.2.51-.39.77-.58l.79-.56a40.63,40.63,0,0,1,6-3.2l2.85-1.25h0l3-1.25c4-1.69,8.15-3.37,11.12-4.94.49-.26,1-.52,1.37-.77a12.26,12.26,0,0,0,2.06-1.48c0,.14-.08.28-.11.42s0,.22-.07.32a4.36,4.36,0,0,0-.09.69c-.21,4.1,2,14.17,3.76,17.35L70,171a4.89,4.89,0,0,1,.27-.46l.16-.27.39-.62.59-.87.28-.39c.23-.32.47-.64.73-1,.09-.12.19-.23.29-.35a13.57,13.57,0,0,1,4.25-3.62l.44-.2.41-.15L78,163a2.25,2.25,0,0,1,.35-.09c.12,0,.24-.05.36-.06a1.15,1.15,0,0,0,.14.19,3.2,3.2,0,0,0,.31.42s0,0,0,0a8.62,8.62,0,0,0,.85.89c.25.23.52.47.82.71a7.47,7.47,0,0,0,.63.48,16.45,16.45,0,0,0,2.67,1.55c.35.16.71.32,1.08.45l.74.26c.31.1.63.18,1,.27l.7.16.54.1.66.1c.27,0,.55.06.83.07l.45,0a12.74,12.74,0,0,0,1.38,0,15.61,15.61,0,0,0,1.63-.18c.28-.05.56-.1.84-.17l1.12-.3.57-.19a16.73,16.73,0,0,0,1.73-.72c.39-.19.78-.4,1.17-.62.19-.1.39-.22.59-.35l.59-.39.58-.4,0,0,.56-.43c.2-.14.39-.3.59-.47s.38-.32.57-.5c.41-.35.81-.73,1.22-1.14a4,4,0,0,1,.44.17,7,7,0,0,1,.84.46,8.81,8.81,0,0,1,1.17,1c.25.25.5.52.73.8l.32.4a5.6,5.6,0,0,1,.36.49l.32.46.45.71c.11.17.21.35.31.53s.2.36.3.54a35.51,35.51,0,0,1,1.62,3.53l.16.42c.08.21.15.41.22.58s.19.53.25.73.09.28.12.36a.46.46,0,0,0,0,.09,0,0,0,0,0,0,0c2.17-4,8.5-18.51,6.49-23.41,4.27,1.66,22.52,5.62,35.28,13.06A17.3,17.3,0,0,1,155.82,166Z"/><path class="cls-3" d="M108.75,138.39c1.9,2,6.66,7.27,8.67,12.17S113.1,170,110.93,174c0,0-2.94-9.75-7.65-11.28-1.51-.5-3.21-.15-5.06,1.67,3.65-3.76,8.45-9.9,10.67-17.56C108.89,144.21,108.79,141.5,108.75,138.39Z"/><path class="cls-3" d="M74,147.61c.79,5.17,5.05,12.17,9.35,17.08a5.26,5.26,0,0,0-4.58-1.81c-4.93.68-9.06,8.64-9.06,8.64-1.71-3.17-4-13.25-3.75-17.35a6.16,6.16,0,0,1,.27-1.43c1.26-4.24,6.56-10.51,8.29-12.7h0A60.65,60.65,0,0,1,74,147.61Z"/><path class="cls-4" d="M108.89,129.38h0c-.15,3.4-.17,6.35-.14,9,0,3.11.14,5.82.14,8.41-2.22,7.66-7,13.8-10.67,17.56l-.11.1a40.43,40.43,0,0,1-3,2.84c-.51.43-1.13.93-1.13.93a14.76,14.76,0,0,1-7.27-.17l-.13-.07A34.2,34.2,0,0,1,84,165.51l0,0c-.24-.29-.47-.55-.71-.79-4.3-4.91-8.56-11.91-9.35-17.08a60.65,60.65,0,0,0,.53-7.57,64,64,0,0,0-.2-6.53,28.62,28.62,0,0,0,3.24,4.16c5.17,5.54,10.43,6.05,13.24,6.05a17.68,17.68,0,0,0,14-7.52A53,53,0,0,0,108.89,129.38Z"/><path class="cls-4" d="M68.65,118.15c.29,1.52.63,3,1,4.49h0c-.24,0-.48,0-.71,0h0a1.92,1.92,0,0,0-1.56-1.24,1.47,1.47,0,0,0-1.06.51c-2.59-1.59-3.68-5.44-4.17-7.8A33.91,33.91,0,0,0,68,114C68.19,115.46,68.41,116.87,68.65,118.15Z"/><path class="cls-4" d="M99,124.82c-.72,1.68-4,5.05-6.47,5.17a32.27,32.27,0,0,1-5.16-.08c-1.86-.19-4.51-3.66-5-4.74C86.49,125.52,94.39,126,99,124.82Z"/><path class="cls-4" d="M118.71,103.21l-.14-.11a4.06,4.06,0,0,0-2.14,1.54c-.18.23-.36.47-.54.73a18.28,18.28,0,0,0-2.44,5.79c-.65-15.41-5.18-23.62-11.52-32.27-.17.28-.36.57-.56.87s-.33.48-.52.73-.47.64-.73,1-.39.49-.61.73-.39.47-.6.7l-.39.43q-1,1.11-2.22,2.22l-.34.31c-.61.57-1.25,1.13-1.93,1.68-.32.28-.66.55-1,.81l-.23.18c-.72.57-1.48,1.13-2.26,1.67-.41.29-.83.58-1.26.86L88,91.88c-.44.28-.89.55-1.35.82l-1.4.8c-.42.24-.85.47-1.28.68s-.78.41-1.18.6-.58.29-.88.42q-2.09,1-4.32,1.83c-1,.36-1.92.69-2.9,1-.43.14-.87.27-1.31.39L73,98.5l-.87.23-.85.21-1.13.26-.08,0q-.77.16-1.53.3L67,99.78h0c0,1,0,2.15.07,3.31,0,.58,0,1.17.08,1.77,0,.33,0,.67.06,1,0,.88.12,1.77.19,2.65.1,1.24.22,2.47.36,3.67,0,.41.09.81.14,1.21l.06.44a.49.49,0,0,0,0,.12c0,.35.09.69.14,1,.16,1.12.34,2.18.53,3.16.07.38.15.76.23,1.14s.15.75.24,1.12.17.75.27,1.12.19.74.29,1.11.26,1,.4,1.44.25.84.39,1.26c0,.1.06.2.1.3l.33,1c.3.83.63,1.65,1,2.45.1.25.21.49.33.73a31.65,31.65,0,0,0,2.06,3.73c0,.07.09.15.15.22.18.29.37.57.57.85a31.26,31.26,0,0,0,2.52,3.09,21.18,21.18,0,0,0,3.38,3c.48.33.95.63,1.42.9.31.18.62.34.93.5a16.64,16.64,0,0,0,5.69,1.61c.69.06,1.3.08,1.83.08a16.68,16.68,0,0,0,6.62-1.47c.46-.21.93-.44,1.39-.69s.93-.54,1.39-.85c.3-.2.6-.42.9-.65a16.37,16.37,0,0,0,1.73-1.52c.28-.28.55-.57.82-.88.4-.46.78-.95,1.15-1.47a50.46,50.46,0,0,0,3-4.65c.24-.41.46-.82.68-1.23l.48-.93h0a.61.61,0,0,0,0-.12,2.44,2.44,0,0,0,.14-.28c.16-.33.32-.66.47-1s.25-.54.37-.81.17-.39.25-.59c.26-.62.5-1.23.72-1.85.3-.83.57-1.65.8-2.46,0-.09,0-.18.08-.27l.41,0h.17a4.17,4.17,0,0,0,.8-.08,1.13,1.13,0,0,0,.18,0h0a4.59,4.59,0,0,0,2-.64c.52,0,1-1,1.52-1.85h0s0,0,0,0C120.39,114.61,120.44,104.81,118.71,103.21Zm-24.2,26.16a4.75,4.75,0,0,1-2,.62l-1.09,0A29.76,29.76,0,0,1,88.1,130q-.34,0-.69-.06a2.31,2.31,0,0,1-.73-.21,7,7,0,0,1-1.92-1.45c-.13-.12-.25-.25-.37-.38a12.94,12.94,0,0,1-2-2.7l1.54.12,1.06.07,1.22.07.59,0H87l.81,0h.3l.85,0c1.41,0,2.85,0,4.26,0,.41,0,.82,0,1.22-.06l.69,0,1-.1c.77-.08,1.5-.19,2.18-.33l.64-.14A11.89,11.89,0,0,1,94.51,129.37Z"/><path class="cls-5" d="M67,99.79A117.23,117.23,0,0,0,68,114a33.91,33.91,0,0,1-5.83.19c-4.35-.27-5.32-1.6-5.32-1.6l1-1.4a6,6,0,0,1-4.4-2,2.67,2.67,0,0,0,2.74-1.58c-4.32-.29-5.19-3.09-5.19-3.09a5.44,5.44,0,0,0,4-.51,7.66,7.66,0,0,1-5.18-4.83,44.68,44.68,0,0,0,9.93,1.18h0A47.79,47.79,0,0,0,67,99.78Z"/><path class="cls-5" d="M114.18,74c3.64,5.31,5.62,9,5.4,15.61s-1,13.5-1,13.5c-2.12.43-4.25,4.39-5.12,8.06-.64-15.41-5.18-23.62-11.52-32.27-4.41,7.3-18,18.38-34.91,20.89a47.79,47.79,0,0,1-7.23.53h0c-7.12-3.49-7.12-9.46-7.12-9.46,3.39,4.46,5.19,0,5.19,0-2.52-.58-2.17-2.52-2.17-2.52C57.2,89.41,58,87.4,58,87.4a6.06,6.06,0,0,1-4.77-5c4.79,3.94,6.62,0,13.83-6.91A55.29,55.29,0,0,1,85.39,63.77c4.9-2.11,14.88-2.69,17,4.9C105.63,66.65,110,67.91,114.18,74Z"/><ellipse class="cls-3" cx="67.57" cy="125.94" rx="2.11" ry="4.64"/><ellipse class="cls-3" cx="115.45" cy="122.92" rx="2.36" ry="4.52"/><path class="cls-6" d="M118.74,103.93a4.51,4.51,0,0,0-1.48,1.15,12.29,12.29,0,0,0-1.37,1.83,24.42,24.42,0,0,0-2.1,4.33h0a.34.34,0,0,1-.38.29.36.36,0,0,1-.29-.29v-.06c-.41-2.88-.82-5.73-1.39-8.54a61.36,61.36,0,0,0-2.23-8.26A57.11,57.11,0,0,0,106,86.57c-1.35-2.53-2.85-5-4.37-7.48h0l.56,0a26.37,26.37,0,0,1-4.39,6.09,42.76,42.76,0,0,1-5.59,5,57.29,57.29,0,0,1-13.06,7.35A50.07,50.07,0,0,1,64.6,101a44.84,44.84,0,0,1-7.51,0,24.46,24.46,0,0,1-7.31-1.58l.36-.39h0a7.92,7.92,0,0,0,2.1,2.75,6.06,6.06,0,0,0,1.43.88,6.2,6.2,0,0,0,1.56.46.83.83,0,0,1,.66,1,.81.81,0,0,1-.38.55l0,0h0a7.08,7.08,0,0,1-2.31.48,4.57,4.57,0,0,1-2.25-.45l.37-.35h0a3.71,3.71,0,0,0,.9,1.12,5,5,0,0,0,1.23.75,6.82,6.82,0,0,0,1.39.38,8.88,8.88,0,0,0,1.46.08.81.81,0,0,1,.81.8.62.62,0,0,1,0,.23l0,.08h0a2.8,2.8,0,0,1-.72,1,3.3,3.3,0,0,1-.91.55,3.9,3.9,0,0,1-1.92.21l.3-.63h0a6.25,6.25,0,0,0,.92.68,6.05,6.05,0,0,0,1,.49,4.47,4.47,0,0,0,2.12.24h0l.5.17a.69.69,0,0,1,.43.87.69.69,0,0,1-.21.31l-1.37,1.14h0v-.45a3.31,3.31,0,0,0,1,.57,7.42,7.42,0,0,0,1.27.35,15.92,15.92,0,0,0,2.69.24,37.33,37.33,0,0,0,5.47-.43h0a.85.85,0,1,1,.25,1.68h-.07a37.66,37.66,0,0,1-5.72,0,17.45,17.45,0,0,1-2.86-.49,9.43,9.43,0,0,1-1.4-.51,3.42,3.42,0,0,1-1.3-1,.35.35,0,0,1,0-.43v0h0l.65-1.65.71,1.34h0a5.94,5.94,0,0,1-2.7-.83,6.47,6.47,0,0,1-2-1.79h0a.36.36,0,0,1,0-.51.47.47,0,0,1,.21-.11h.1a2.93,2.93,0,0,0,1.34-.53,1.76,1.76,0,0,0,.41-.46,1,1,0,0,0,.18-.47h0l.75,1.11a11.24,11.24,0,0,1-1.69-.41,7.11,7.11,0,0,1-1.57-.76,5.8,5.8,0,0,1-1.31-1.16,4.43,4.43,0,0,1-.82-1.53h0a.26.26,0,0,1,.13-.35.22.22,0,0,1,.16,0h.08a3.71,3.71,0,0,0,1.87-.13,5.54,5.54,0,0,0,.87-.37,5.08,5.08,0,0,0,.77-.48h0l.22,1.57a8.31,8.31,0,0,1-1.86-.87,7.41,7.41,0,0,1-1.53-1.3,8.35,8.35,0,0,1-1.14-1.6,8.07,8.07,0,0,1-.75-1.79h0a.27.27,0,0,1,.13-.36.31.31,0,0,1,.13,0h.1c2.47.14,4.86.42,7.28.56a43.66,43.66,0,0,0,7.23-.21,52.8,52.8,0,0,0,14-3.6,60.49,60.49,0,0,0,12.67-7,49.77,49.77,0,0,0,10.56-9.88l0,0a.32.32,0,0,1,.45-.06.34.34,0,0,1,.08.09h0a55.23,55.23,0,0,1,5.25,7.06,41.59,41.59,0,0,1,6,16.6,48,48,0,0,1,.38,8.8l-.68-.07h0a15.94,15.94,0,0,1,1.38-4.92,10.21,10.21,0,0,1,1.37-2.29,4.18,4.18,0,0,1,2.53-1.61.85.85,0,0,1,1,.7.84.84,0,0,1-.53.93Z"/><path class="cls-6" d="M68.7,122a.91.91,0,0,1,.44-.22.89.89,0,0,1,.43,0l.2,0a.85.85,0,0,1,0,1.64,1.56,1.56,0,0,1-.57,0,1.14,1.14,0,0,1-.57-.19.75.75,0,0,1-.18-1,.69.69,0,0,1,.11-.13Z"/><path class="cls-6" d="M62.8,114a26.85,26.85,0,0,0,1.46,4,7.91,7.91,0,0,0,2.38,3.11h0a.85.85,0,0,1-1,1.41,8.34,8.34,0,0,1-3-3.82,15.84,15.84,0,0,1-1.18-4.46.66.66,0,0,1,.58-.73.65.65,0,0,1,.7.46Z"/><path class="cls-6" d="M89.23,104.45a39.64,39.64,0,0,1-.91,6c-.39,2-.89,3.91-1.19,5.8a9.34,9.34,0,0,0-.13,1.31c0,.17,0,.38,0,.29s0,0,.15.06a9,9,0,0,0,2.57.64,18.15,18.15,0,0,0,2.86.13,7.54,7.54,0,0,0,2.74-.51l0,0a.33.33,0,0,1,.42.17.33.33,0,0,1-.09.36A6.55,6.55,0,0,1,92.76,120a14.43,14.43,0,0,1-3.14.26,8.87,8.87,0,0,1-3.29-.58,2.16,2.16,0,0,1-1-.85,2.52,2.52,0,0,1-.27-1.17,9.64,9.64,0,0,1,.12-1.67A41.47,41.47,0,0,1,86.65,110c.59-1.92,1.26-3.8,1.91-5.69h0a.35.35,0,0,1,.44-.21A.36.36,0,0,1,89.23,104.45Z"/><path class="cls-6" d="M72.68,99.26A16.21,16.21,0,0,1,78,97.57a13.24,13.24,0,0,1,5.72.3,1.3,1.3,0,0,1-.48,2.53h-.06c-1.6-.12-3.29-.22-5-.23s-3.44.06-5.24.15h0a.55.55,0,0,1-.58-.53A.53.53,0,0,1,72.68,99.26Z"/><path class="cls-6" d="M95.55,97.63a8.73,8.73,0,0,1,2.93-.92,14.47,14.47,0,0,1,2.94-.11,16.25,16.25,0,0,1,2.92.39,7.51,7.51,0,0,1,2.87,1.24.66.66,0,0,1,.12.91.64.64,0,0,1-.59.24h-.14a14.79,14.79,0,0,0-2.51-.05c-.87,0-1.75.11-2.63.18-1.74.17-3.51.36-5.1.47h-.12a1.26,1.26,0,0,1-.69-2.35Z"/><path class="cls-6" d="M81.64,124.66c1.53-.14,3-.18,4.56-.2s3,0,4.53,0a80.35,80.35,0,0,0,8.93-.28h0a.46.46,0,0,1,.51.41.48.48,0,0,1-.26.47,15.71,15.71,0,0,1-4.55,1.28,33.14,33.14,0,0,1-4.65.32,39.51,39.51,0,0,1-4.62-.27,27.37,27.37,0,0,1-4.56-.87.43.43,0,0,1-.3-.53A.46.46,0,0,1,81.64,124.66Z"/><path class="cls-6" d="M82.83,125a16.92,16.92,0,0,0,3.47,3.4,3.6,3.6,0,0,0,.91.47,1.17,1.17,0,0,0,.38.07l.62,0c.83,0,1.67,0,2.51,0L92,129c.2,0,.46,0,.6,0a4,4,0,0,0,.46-.07,6.69,6.69,0,0,0,2-1,14.11,14.11,0,0,0,3.54-3.3l0,0a.49.49,0,0,1,.68-.12.51.51,0,0,1,.18.55,8.19,8.19,0,0,1-1.39,2.43,12,12,0,0,1-1.94,2,7.47,7.47,0,0,1-2.57,1.44,3.51,3.51,0,0,1-.82.16,6.21,6.21,0,0,1-.69.05l-1.33.05a26.88,26.88,0,0,1-2.69-.11l-.67-.08a3.09,3.09,0,0,1-.88-.23,5,5,0,0,1-1.33-.83,11,11,0,0,1-1.87-2.08A10.1,10.1,0,0,1,82,125.35a.45.45,0,0,1,.28-.57.43.43,0,0,1,.5.15Z"/><path class="cls-6" d="M88,133.32a16.65,16.65,0,0,1,2.34,0c.79,0,1.59.06,2.36.13h.09a.47.47,0,0,1,.42.5.44.44,0,0,1-.18.32,4.68,4.68,0,0,1-2.68.84,5.46,5.46,0,0,1-1.39-.13,3.35,3.35,0,0,1-1.31-.62.56.56,0,0,1-.08-.79.58.58,0,0,1,.38-.21Z"/><path class="cls-7" d="M80,105.51c0,.54-.22,1-.48,1s-.49-.45-.49-1,.22-1,.49-1S80,105,80,105.51Z"/><path class="cls-7" d="M101.93,105.08c0,.55-.22,1-.48,1s-.49-.44-.49-1,.22-1,.49-1S101.93,104.53,101.93,105.08Z"/><path class="cls-6" d="M73.6,145.12a25.57,25.57,0,0,0,2.13,6.16,59.32,59.32,0,0,0,3.19,5.79c1.18,1.86,2.45,3.68,3.81,5.42a42.33,42.33,0,0,0,4.39,4.86h0A.85.85,0,0,1,86,168.63a35.4,35.4,0,0,1-4.71-5A49.18,49.18,0,0,1,77.43,158a42.45,42.45,0,0,1-3.07-6.1,18.17,18.17,0,0,1-1.5-6.72.37.37,0,0,1,.74-.07Z"/><path class="cls-6" d="M75.15,140.58c-1.76,2.3-3.51,4.53-5.09,6.88a37.15,37.15,0,0,0-2.15,3.6,14,14,0,0,0-.78,1.85,5.35,5.35,0,0,0-.22.9c0,.15,0,.29-.06.45l0,.5a49.52,49.52,0,0,0,1,8.37c.26,1.41.55,2.8.9,4.18A28.39,28.39,0,0,0,70,171.36h-.62A21.39,21.39,0,0,1,71.67,167a15.5,15.5,0,0,1,3.43-3.68,9,9,0,0,1,2.37-1.28,5.87,5.87,0,0,1,2.86-.23A7.06,7.06,0,0,1,84.7,165a.85.85,0,0,1-1.31,1.08h0a6.45,6.45,0,0,0-3.39-2.1A5.34,5.34,0,0,0,76.27,165a18.14,18.14,0,0,0-3.35,3A44,44,0,0,0,70,171.69l0,0a.36.36,0,0,1-.5.08.52.52,0,0,1-.1-.11h0a34.35,34.35,0,0,1-3-8.23c-.35-1.41-.65-2.84-.91-4.28a27.69,27.69,0,0,1-.46-4.43,7.63,7.63,0,0,1,.35-2.4,14.48,14.48,0,0,1,.86-2.14,29.59,29.59,0,0,1,2.27-3.82,77.4,77.4,0,0,1,5.36-6.87h0a.85.85,0,0,1,1.2-.1A.87.87,0,0,1,75.15,140.58Z"/><path class="cls-6" d="M109.37,137.81a52.78,52.78,0,0,1,6.44,7.75,28,28,0,0,1,2.5,4.5,12.31,12.31,0,0,1,.4,1.42c0,.46.08.93.1,1.39l-.06,1.33c0,.44-.11.86-.17,1.29a46.35,46.35,0,0,1-2.84,9.7c-.62,1.56-1.33,3.07-2.07,4.57a42.73,42.73,0,0,1-2.47,4.36l0,0a.29.29,0,0,1-.4.08.32.32,0,0,1-.12-.18h0a43.55,43.55,0,0,0-2.09-4.42,24.07,24.07,0,0,0-2.67-4,6.05,6.05,0,0,0-3.52-2.22,3.68,3.68,0,0,0-1.87.36,9.21,9.21,0,0,0-1.79,1.25l0,0a.85.85,0,0,1-1.15-1.24,8,8,0,0,1,2.15-1.73,4.93,4.93,0,0,1,2.92-.56,5.61,5.61,0,0,1,2.69,1.13,10.37,10.37,0,0,1,1.88,1.93,19.75,19.75,0,0,1,2.5,4.47,29.7,29.7,0,0,1,1.57,4.78h0l-.54-.06c1.26-3,2.38-6.14,3.44-9.24a53.83,53.83,0,0,0,2.52-9.38,8.73,8.73,0,0,0-.21-4.36,26.67,26.67,0,0,0-2.28-4.19,68.76,68.76,0,0,0-6-7.69.85.85,0,0,1,1.24-1.16Z"/><path class="cls-8" d="M78.73,162.87c2.08,3.38,13.33,11.11,24.55-.18"/><line class="cls-8" x1="86.56" y1="167.99" x2="86.72" y2="168.07"/><path class="cls-6" d="M74.78,169.6a23.18,23.18,0,0,0,7.46,3.58,34.63,34.63,0,0,0,8.2,1.36,31.14,31.14,0,0,0,16.13-3.37h0a.43.43,0,0,1,.47.71,21.56,21.56,0,0,1-7.9,3.89,28.38,28.38,0,0,1-8.8.88,29.86,29.86,0,0,1-8.67-1.76,19,19,0,0,1-7.46-4.7.41.41,0,0,1,0-.58.4.4,0,0,1,.52,0Z"/><path class="cls-6" d="M66.79,153.33a18.55,18.55,0,0,1-4.28,2.85c-1.47.77-3,1.45-4.47,2.1q-4.5,2-9,3.8l-.38.08a1,1,0,0,0,.7-.3.91.91,0,0,0,.2-.33.94.94,0,0,0,.07-.31l-.6.87c-1.62.72-3.29,1.36-4.88,2.12a31.18,31.18,0,0,0-4.59,2.49,37.76,37.76,0,0,0-4.15,3.22,31.74,31.74,0,0,0-3.55,3.94.17.17,0,0,1-.23,0,.16.16,0,0,1,0-.2,24.19,24.19,0,0,1,3.08-4.47,28.33,28.33,0,0,1,4-3.72,28,28,0,0,1,4.67-2.91c1.62-.82,3.25-1.57,4.9-2.29l-.6.87a1.52,1.52,0,0,1,.06-.32,1.13,1.13,0,0,1,.21-.33,1,1,0,0,1,.72-.31l-.39.08,9-3.79c1.49-.64,3-1.29,4.4-2a22.25,22.25,0,0,0,3.93-2.37l.07-.06a.85.85,0,0,1,1.13,1.26Z"/><path class="cls-6" d="M117.69,149.87a34.63,34.63,0,0,1,5,1.21c1.66.49,3.33,1,5,1.49q5,1.56,9.88,3.41c3.26,1.23,6.48,2.59,9.62,4.13,1.56.78,3.12,1.58,4.62,2.48a18.78,18.78,0,0,1,4.26,3.11.35.35,0,0,1,0,.5.36.36,0,0,1-.49,0,17.7,17.7,0,0,0-4.24-2.82c-1.51-.82-3.08-1.54-4.65-2.23-3.16-1.38-6.39-2.59-9.67-3.67s-6.59-2-9.92-3l-5-1.41a19.75,19.75,0,0,1-4.95-1.86.75.75,0,0,1,.5-1.39Z"/><path class="cls-6" d="M70.4,126a8.49,8.49,0,0,1-.59,2.92,4.62,4.62,0,0,1-.81,1.35,2,2,0,0,1-3.22,0,4.58,4.58,0,0,1-.8-1.35,8.47,8.47,0,0,1-.57-2.92,8.2,8.2,0,0,1,.35-3,4.65,4.65,0,0,1,.78-1.49,2.64,2.64,0,0,1,1.81-1,2.15,2.15,0,0,1,1.2.32,2.86,2.86,0,0,1,.74.67A4.69,4.69,0,0,1,70,123,8.85,8.85,0,0,1,70.4,126Zm-1.46,0a6.58,6.58,0,0,0-.54-2.4,3.14,3.14,0,0,0-.56-.9,1,1,0,0,0-.27-.25l-.11,0c-.21-.05-.8.49-1.09,1.2a6.61,6.61,0,0,0-.58,2.38,7.06,7.06,0,0,0,.34,2.48c.23.77.79,1.5,1.26,1.48s1-.72,1.24-1.48A7.11,7.11,0,0,0,68.94,126Z"/><path class="cls-6" d="M118.58,123.05A8.4,8.4,0,0,1,118,126a4.81,4.81,0,0,1-.8,1.35,2.13,2.13,0,0,1-1.6.82,2.16,2.16,0,0,1-1.61-.81,5.14,5.14,0,0,1-.82-1.35,8.41,8.41,0,0,1-.64-2.92,8.59,8.59,0,0,1,.36-3,4.63,4.63,0,0,1,.79-1.5,2.32,2.32,0,0,1,3.83,0,4.6,4.6,0,0,1,.77,1.51A9,9,0,0,1,118.58,123.05Zm-1.49,0a6.44,6.44,0,0,0-.56-2.38c-.28-.71-.9-1.24-1-1.14-.08-.09-.68.44-1,1.15a6.85,6.85,0,0,0-.54,2.37,7.36,7.36,0,0,0,.26,2.48c.21.76.75,1.51,1.24,1.51a1.11,1.11,0,0,0,.74-.46,3.28,3.28,0,0,0,.52-1A7.18,7.18,0,0,0,117.09,123.05Z"/><path class="cls-6" d="M118.15,103.05c.24-3.72.42-7.44.55-11.14a38.15,38.15,0,0,0-.1-5.47,18.61,18.61,0,0,0-1.32-5.14,29.22,29.22,0,0,0-2.59-4.74,37.07,37.07,0,0,0-3.2-4.38,12,12,0,0,0-4-3.16,5.48,5.48,0,0,0-4.82,0l-.06,0a.47.47,0,0,1-.62-.21.36.36,0,0,1,0-.11h0a7.7,7.7,0,0,0-1.74-3A7.85,7.85,0,0,0,97.34,64a14.67,14.67,0,0,0-6.92-.63,17.5,17.5,0,0,0-3.44.78c-1.08.36-2.2.91-3.33,1.39a58.54,58.54,0,0,0-6.5,3.34,54.48,54.48,0,0,0-6,4.12c-1.92,1.51-3.71,3.17-5.49,4.87A74.25,74.25,0,0,1,60.18,83a8.09,8.09,0,0,1-1.68,1,4,4,0,0,1-2,.38,6.13,6.13,0,0,1-3.42-1.78l.37-.19h0a5.55,5.55,0,0,0,1.77,2.88,5.08,5.08,0,0,0,1.4.86,6.78,6.78,0,0,0,1.58.45.81.81,0,0,1,.65.94l0,.12,0,.07h0a3.56,3.56,0,0,1-.61.75,2.74,2.74,0,0,1-.85.54,1.58,1.58,0,0,1-1,0,1.84,1.84,0,0,1-.73-.49l.35-.14h0a1.68,1.68,0,0,0,.23.75,1.47,1.47,0,0,0,.49.53,2.15,2.15,0,0,0,.66.28A3.66,3.66,0,0,0,58,90a.73.73,0,0,1,.69.76.48.48,0,0,1,0,.18l-.06.21h0a4.34,4.34,0,0,1-1.2,1.68,2.69,2.69,0,0,1-2.17.7,3.37,3.37,0,0,1-1.8-1,6.17,6.17,0,0,1-1-1.5h0l.5-.16a8.78,8.78,0,0,0,.76,2.78,10.16,10.16,0,0,0,1.56,2.41A11.73,11.73,0,0,0,57.38,98a19.13,19.13,0,0,0,2.49,1.43l.06,0a.85.85,0,0,1-.76,1.52l0,0c-.47-.27-.93-.52-1.39-.8s-.89-.6-1.29-1a13.5,13.5,0,0,1-2.21-2.32A11.16,11.16,0,0,1,52.81,94a8.11,8.11,0,0,1-.43-3.14.27.27,0,0,1,.3-.26.26.26,0,0,1,.19.09h0a10.44,10.44,0,0,0,1.29,1,2.21,2.21,0,0,0,1.23.42,1.26,1.26,0,0,0,.92-.47,4.42,4.42,0,0,0,.74-1.1l.6,1.15a5.37,5.37,0,0,1-1-.51,3.41,3.41,0,0,1-.83-.78,2.64,2.64,0,0,1-.44-1,2.37,2.37,0,0,1,.06-1.06h0a.19.19,0,0,1,.18-.19h.06l.11,0a1.33,1.33,0,0,0,.6.1.6.6,0,0,0,.4-.21,1.69,1.69,0,0,0,.25-.44,1.88,1.88,0,0,0,.13-.52h0l.59,1.14A8.41,8.41,0,0,1,56,87.34,6.41,6.41,0,0,1,54.44,86,6.4,6.4,0,0,1,53,82.42h0a.22.22,0,0,1,.34-.21l0,0a5.82,5.82,0,0,0,3.18,1.33,4.81,4.81,0,0,0,3-1.43c1.78-1.6,3.39-3.5,5.11-5.29a55.21,55.21,0,0,1,11.56-9.57,62.34,62.34,0,0,1,6.71-3.43,34.61,34.61,0,0,1,3.53-1.42,19.1,19.1,0,0,1,3.8-.76,15.2,15.2,0,0,1,7.67,1A8.65,8.65,0,0,1,101.11,65a8.44,8.44,0,0,1,1.74,3.52h0l-.72-.28A6.05,6.05,0,0,1,105,67.1a6.75,6.75,0,0,1,3.09.35,12.3,12.3,0,0,1,4.89,3.4,33.06,33.06,0,0,1,3.42,4.63,29.85,29.85,0,0,1,2.7,5.1,19.62,19.62,0,0,1,1.31,5.69,38.6,38.6,0,0,1-.12,5.71c-.26,3.75-.7,7.46-1.26,11.16a.43.43,0,0,1-.49.36A.42.42,0,0,1,118.15,103.05Z"/><path class="cls-6" d="M113.3,122.87a.35.35,0,0,1-.3,0,.61.61,0,0,0-.3-.11,3.86,3.86,0,0,0-.58,0,.71.71,0,0,1-.81-.61.72.72,0,0,1,.62-.81.5.5,0,0,1,.21,0h.11a1.73,1.73,0,0,0,.45,0,.46.46,0,0,0,.22-.11.2.2,0,0,1,.22,0l.23.14a.89.89,0,0,1-.07,1.55Z"/><path class="cls-6" d="M119,102.38a2.61,2.61,0,0,1,1,1.24,6.27,6.27,0,0,1,.39,1.18,12.11,12.11,0,0,1,.31,2.29,28.05,28.05,0,0,1-.18,4.5,23.78,23.78,0,0,1-.89,4.41,16.19,16.19,0,0,1-.83,2.13,18.34,18.34,0,0,1-1.09,2,.69.69,0,0,1-1,.25.7.7,0,0,1-.25-1h0c.38-.65.75-1.22,1-1.84a14.21,14.21,0,0,0,.73-2,22.26,22.26,0,0,0,.79-4.14,22,22,0,0,0,0-4.22,18.1,18.1,0,0,0-.34-2,6.22,6.22,0,0,0-.28-.89,2.55,2.55,0,0,0-.29-.51l-.1-.08a.83.83,0,0,1-.14-1.18A.85.85,0,0,1,119,102.38Z"/><path class="cls-6" d="M113,117.91a28.22,28.22,0,0,1-3,11.22,51.93,51.93,0,0,1-2.82,5.12c-.52.82-1.05,1.63-1.61,2.43a20.12,20.12,0,0,1-1.91,2.32,18.72,18.72,0,0,1-10.54,5.44A17.49,17.49,0,0,1,81.48,142a21.26,21.26,0,0,1-4.59-3.8,30,30,0,0,1-3.56-4.69,40.07,40.07,0,0,1-4.48-10.79,73,73,0,0,1-2-11.42c-.4-3.83-.65-7.67-.67-11.54a.85.85,0,1,1,1.7,0h0c0,3.78.24,7.59.63,11.37a72.28,72.28,0,0,0,1.94,11.17,36.82,36.82,0,0,0,4.29,10.33,24,24,0,0,0,7.65,7.89,15.8,15.8,0,0,0,10.44,2.11,17,17,0,0,0,9.49-4.94,17.69,17.69,0,0,0,1.76-2.09c.54-.76,1.07-1.54,1.58-2.34a48.21,48.21,0,0,0,2.76-4.91,61.39,61.39,0,0,0,4-10.56.31.31,0,0,1,.38-.23A.32.32,0,0,1,113,117.91Z"/><path class="cls-6" d="M75,133.43a41.12,41.12,0,0,1,.28,7.18,46.81,46.81,0,0,1-.71,7.15.65.65,0,0,1-1.29-.18v0c.24-2.28.3-4.64.34-7s0-4.68-.11-7h0a.75.75,0,0,1,.72-.78A.77.77,0,0,1,75,133.43Z"/><path class="cls-6" d="M110.27,142.19a28.68,28.68,0,0,1-1.57,7.8,30.88,30.88,0,0,1-3.52,7.18,48.9,48.9,0,0,1-4.94,6.24,44.21,44.21,0,0,1-5.87,5.33h0a.66.66,0,0,1-.82-1A48.27,48.27,0,0,0,99,162.29a47.71,47.71,0,0,0,4.52-6.18,57.17,57.17,0,0,0,3.58-6.74,41.36,41.36,0,0,0,2.39-7.28h0a.4.4,0,0,1,.78.11Z"/><path class="cls-6" d="M109.56,129.4c0,1.46,0,2.9,0,4.35v4.34c0,2.9,0,5.81-.11,8.74a.58.58,0,0,1-.62.55.58.58,0,0,1-.55-.55c-.16-2.89-.34-5.8-.4-8.72,0-1.46,0-2.92,0-4.39s.14-2.92.31-4.38a.67.67,0,0,1,1.34.06Z"/><circle class="cls-9" cx="91.01" cy="125.98" r="76.15"/></g></svg>