<svg id="Capa_1" data-name="Capa 1" xmlns="http://www.w3.org/2000/svg" viewBox="0 0 120 120"><defs><style>.cls-1{opacity:0.85;}.cls-2{fill:#fff;}.cls-3{fill:#95a6b1;}.cls-4{opacity:0.8;}.cls-4,.cls-7,.cls-8{isolation:isolate;}.cls-5{opacity:0.7;}.cls-6,.cls-7{opacity:0.6;}.cls-8{opacity:0.5;}.cls-9{fill:none;}</style></defs><title>20-icon_ocenza_con_potuaria_componente_por_cultura</title><g class="cls-1"><path class="cls-2" d="M32.76,29.35a9.55,9.55,0,0,1-8.64-5.56,9.5,9.5,0,1,1,12.59,4.69A9.42,9.42,0,0,1,32.76,29.35Zm0-15a5.51,5.51,0,1,0,5,3.22h0A5.51,5.51,0,0,0,32.75,14.34Z"/></g><path class="cls-3" d="M41.49,91.94a15,15,0,0,1-15-15V35.31a2,2,0,0,1,4,0v41.6a11,11,0,0,0,11,11H62.18l23,0V16.7H46.9a2,2,0,0,1,0-4H87.15a2,2,0,0,1,2,2V89.88a2,2,0,0,1-2,2l-25,.06Z"/><path class="cls-3" d="M55.27,62.19h-.16a3.58,3.58,0,0,1-2.73-1.46l-2.64-3.59A2,2,0,0,1,53,54.77l2.33,3.17,7.6-8.58a2,2,0,1,1,3,2.65L58,61A3.57,3.57,0,0,1,55.27,62.19Z"/><path class="cls-3" d="M57.88,78a4.15,4.15,0,0,1-.7-.07c-3.46-.69-20.6-5.58-18-34.67A3.58,3.58,0,0,1,42.57,40h0a22.86,22.86,0,0,0,13.09-4.86,3.55,3.55,0,0,1,4.44,0A26.6,26.6,0,0,0,73.35,40a3.56,3.56,0,0,1,3.19,3.14C78.1,56.54,74.31,72.68,59,77.76A3.62,3.62,0,0,1,57.88,78Zm-.13-4Zm-14.63-30C41,69,54.77,73.29,57.85,73.93c6.95-2.34,11.55-7.41,13.69-15.07A41.71,41.71,0,0,0,72.6,43.92a30.43,30.43,0,0,1-14.68-5.49A27,27,0,0,1,43.12,43.94Z"/><path class="cls-2" d="M46.47,115.09H38.08a2,2,0,0,1,0-4h8.39a2,2,0,0,1,0,4Z"/><g class="cls-4"><path class="cls-2" d="M28,102.83a2,2,0,0,1-1.42-.59,1.85,1.85,0,0,1-.43-.64,2,2,0,0,1-.15-.77,2,2,0,0,1,.58-1.41,2.34,2.34,0,0,1,.3-.25,2.31,2.31,0,0,1,.35-.18,2.65,2.65,0,0,1,.37-.12,2,2,0,0,1,2.4,2,2,2,0,0,1-.16.77,1.85,1.85,0,0,1-.43.64A2,2,0,0,1,28,102.83Z"/></g><g class="cls-1"><path class="cls-2" d="M79.12,115.12H70a2,2,0,1,1,0-4h9.16a2,2,0,0,1,0,4Z"/></g><path class="cls-2" d="M92,115.12a1.75,1.75,0,0,1-.4,0,1.73,1.73,0,0,1-.37-.11,1.41,1.41,0,0,1-.34-.19,1.79,1.79,0,0,1-.31-.25,1.85,1.85,0,0,1-.43-.64,2,2,0,0,1-.15-.77,1.72,1.72,0,0,1,0-.39,1.66,1.66,0,0,1,.11-.38,2.21,2.21,0,0,1,.18-.34,2.48,2.48,0,0,1,.25-.3,2,2,0,0,1,1.81-.55,1.73,1.73,0,0,1,.37.11,1.7,1.7,0,0,1,.35.19,1.42,1.42,0,0,1,.3.25,2,2,0,0,1,.59,1.41,2.07,2.07,0,0,1-.15.77,2.15,2.15,0,0,1-.44.64,1.73,1.73,0,0,1-.3.25,1.7,1.7,0,0,1-.35.19,1.58,1.58,0,0,1-.37.11A1.72,1.72,0,0,1,92,115.12Z"/><g class="cls-5"><path class="cls-2" d="M46.32,115.12H28a2,2,0,0,1,0-4h18.3a2,2,0,0,1,0,4Z"/></g><g class="cls-6"><path class="cls-2" d="M57.08,115.12H38.78a2,2,0,0,1,0-4h18.3a2,2,0,0,1,0,4Z"/></g><g class="cls-7"><path class="cls-2" d="M73.63,102.83H28a2,2,0,1,1,0-4H73.63a2,2,0,0,1,0,4Z"/></g><g class="cls-8"><path class="cls-2" d="M92,102.83H66.09a2,2,0,0,1,0-4H92a2,2,0,0,1,0,4Z"/></g><path class="cls-2" d="M73.66,102.83h-7.5a2,2,0,0,1,0-4h7.5a2,2,0,0,1,0,4Z"/><rect class="cls-9" width="120" height="120"/></svg>