<svg id="Capa_1" data-name="Capa 1" xmlns="http://www.w3.org/2000/svg" viewBox="0 0 120 120"><defs><style>.cls-1{opacity:0.85;}.cls-2{fill:#fff;}.cls-3{fill:#95a6b1;}.cls-4{opacity:0.8;}.cls-4,.cls-7,.cls-8{isolation:isolate;}.cls-5{opacity:0.7;}.cls-6,.cls-7{opacity:0.6;}.cls-8{opacity:0.5;}.cls-9{fill:none;}</style></defs><title>21-icon_ocenza_con_potuaria_componente_la_operacion</title><g class="cls-1"><path class="cls-2" d="M34.5,35.36A10.83,10.83,0,1,1,44.33,20h0a10.77,10.77,0,0,1,.44,7.89A10.83,10.83,0,0,1,34.5,35.36Zm0-17.65a6.82,6.82,0,1,0,6.21,4h0a6.84,6.84,0,0,0-6.21-4Z"/></g><path class="cls-3" d="M55.85,54A10,10,0,1,1,64.91,39.9h0a9.86,9.86,0,0,1,.4,7.28A10,10,0,0,1,55.85,54Zm0-16a6,6,0,1,0,2.5,11.43,5.93,5.93,0,0,0,3.2-3.56,6,6,0,0,0-.24-4.37h0A6,6,0,0,0,55.82,38.06Z"/><path class="cls-3" d="M79.06,79.46a8,8,0,1,1,8-8A8,8,0,0,1,79.06,79.46Zm0-12a4,4,0,1,0,4,4A4,4,0,0,0,79.06,67.41Z"/><path class="cls-3" d="M79.06,89.83a18.64,18.64,0,0,1-2.84-.24,2,2,0,0,1-1.52-1.17L73,84.62a2.31,2.31,0,0,0-2.37-1.37l-4.13.45A2,2,0,0,1,64.74,83a18.7,18.7,0,0,1-2.83-4.91,2,2,0,0,1,.26-1.9l2.45-3.36a2.3,2.3,0,0,0,0-2.73l-2.45-3.36a2,2,0,0,1-.26-1.9,18.7,18.7,0,0,1,2.83-4.91,2,2,0,0,1,1.78-.73l4.13.45A2.32,2.32,0,0,0,73,58.25l1.68-3.8a2,2,0,0,1,1.55-1.17A21.54,21.54,0,0,1,79.06,53a18.42,18.42,0,0,1,2.83.24,2,2,0,0,1,1.53,1.17l1.67,3.8a2.32,2.32,0,0,0,2.37,1.37l4.14-.45a2,2,0,0,1,1.77.73,18.43,18.43,0,0,1,2.83,4.91,2,2,0,0,1-.25,1.9l-2.46,3.36a2.3,2.3,0,0,0,0,2.73L96,76.16a2,2,0,0,1,.25,1.9A18.43,18.43,0,0,1,93.37,83a2,2,0,0,1-1.77.73l-4.14-.45a2.32,2.32,0,0,0-2.37,1.37l-1.67,3.8a2,2,0,0,1-1.53,1.17A18.42,18.42,0,0,1,79.06,89.83ZM77.9,85.77a12.73,12.73,0,0,0,2.31,0L81.43,83a6.28,6.28,0,0,1,6.46-3.73l3,.32a14.67,14.67,0,0,0,1.16-2l-1.78-2.43a6.29,6.29,0,0,1,0-7.47l1.78-2.43a14.67,14.67,0,0,0-1.16-2l-3,.32a6.29,6.29,0,0,1-6.46-3.73L80.21,57.1a12.7,12.7,0,0,0-2.31,0l-1.22,2.75a6.28,6.28,0,0,1-6.46,3.73l-3-.32a13.65,13.65,0,0,0-1.15,2l1.78,2.43a6.32,6.32,0,0,1,0,7.47L66.07,77.6a13.65,13.65,0,0,0,1.15,2l3-.32A6.29,6.29,0,0,1,76.68,83Z"/><path class="cls-3" d="M56.13,90.11a2,2,0,0,1-1.32-.49A102.08,102.08,0,0,1,41.52,74.85c-8.77-11.91-12.83-23-12.07-33.13a2,2,0,0,1,2.14-1.85A2,2,0,0,1,33.44,42C32,60.9,50.75,80.24,56.06,85.32c.7-.71,1.42-1.46,1.9-2a2,2,0,1,1,2.93,2.71c-.78.85-2.17,2.26-3.08,3.2l-.25.25A2,2,0,0,1,56.13,90.11Z"/><path class="cls-3" d="M79.28,48.72l-.25,0a2,2,0,0,1-1.74-2.23,24.89,24.89,0,0,0,.16-5.7c-1.09-9.14-4.36-15.66-9.72-19.42-7.87-5.52-17.82-3.29-17.92-3.27a2,2,0,1,1-.92-3.89c.47-.11,11.74-2.68,21.1,3.86C76.34,22.49,80.18,30,81.41,40.24A27.1,27.1,0,0,1,81.26,47,2,2,0,0,1,79.28,48.72Z"/><path class="cls-2" d="M46.47,115.09H38.08a2,2,0,0,1,0-4h8.39a2,2,0,0,1,0,4Z"/><g class="cls-4"><path class="cls-2" d="M28,102.83a2,2,0,0,1-1.42-.59,1.85,1.85,0,0,1-.43-.64,2,2,0,0,1-.15-.77,2,2,0,0,1,.58-1.41,2.34,2.34,0,0,1,.3-.25,2.31,2.31,0,0,1,.35-.18,2.65,2.65,0,0,1,.37-.12,2,2,0,0,1,2.4,2,2,2,0,0,1-.16.77,1.85,1.85,0,0,1-.43.64A2,2,0,0,1,28,102.83Z"/></g><g class="cls-1"><path class="cls-2" d="M79.12,115.12H70a2,2,0,1,1,0-4h9.16a2,2,0,0,1,0,4Z"/></g><path class="cls-2" d="M92,115.12a1.75,1.75,0,0,1-.4,0,1.73,1.73,0,0,1-.37-.11,1.41,1.41,0,0,1-.34-.19,1.79,1.79,0,0,1-.31-.25,1.85,1.85,0,0,1-.43-.64,2,2,0,0,1-.15-.77,1.72,1.72,0,0,1,0-.39,1.66,1.66,0,0,1,.11-.38,2.21,2.21,0,0,1,.18-.34,2.48,2.48,0,0,1,.25-.3,2,2,0,0,1,1.81-.55,1.73,1.73,0,0,1,.37.11,1.7,1.7,0,0,1,.35.19,1.42,1.42,0,0,1,.3.25,2,2,0,0,1,.59,1.41,2.07,2.07,0,0,1-.15.77,2.15,2.15,0,0,1-.44.64,1.73,1.73,0,0,1-.3.25,1.7,1.7,0,0,1-.35.19,1.58,1.58,0,0,1-.37.11A1.72,1.72,0,0,1,92,115.12Z"/><g class="cls-5"><path class="cls-2" d="M46.32,115.12H28a2,2,0,0,1,0-4h18.3a2,2,0,0,1,0,4Z"/></g><g class="cls-6"><path class="cls-2" d="M57.08,115.12H38.78a2,2,0,0,1,0-4h18.3a2,2,0,0,1,0,4Z"/></g><g class="cls-7"><path class="cls-2" d="M73.63,102.83H28a2,2,0,1,1,0-4H73.63a2,2,0,0,1,0,4Z"/></g><g class="cls-8"><path class="cls-2" d="M92,102.83H66.09a2,2,0,0,1,0-4H92a2,2,0,0,1,0,4Z"/></g><path class="cls-2" d="M73.66,102.83h-7.5a2,2,0,0,1,0-4h7.5a2,2,0,0,1,0,4Z"/><rect class="cls-9" width="120" height="120"/></svg>