<svg id="Capa_1" data-name="Capa 1" xmlns="http://www.w3.org/2000/svg" viewBox="0 0 120 120"><defs><style>.cls-1{opacity:0.85;}.cls-2{fill:#fff;}.cls-3{fill:#95a6b1;}.cls-4{opacity:0.8;}.cls-4,.cls-7,.cls-8{isolation:isolate;}.cls-5{opacity:0.7;}.cls-6,.cls-7{opacity:0.6;}.cls-8{opacity:0.5;}.cls-9{fill:none;}</style></defs><title>22-icon_ocenza_con_potuaria_componente_si_un_eventual</title><g class="cls-1"><path class="cls-2" d="M32.48,75.41a9.69,9.69,0,1,1,8.81-13.72h0a9.71,9.71,0,0,1-8.81,13.72Zm0-15.31A5.61,5.61,0,0,0,27.38,68a5.61,5.61,0,0,0,10.2-4.66h0A5.62,5.62,0,0,0,32.47,60.1Z"/></g><path class="cls-3" d="M50.83,91.24a2,2,0,0,1,0-4l22.87-.07h0a2,2,0,0,1,0,4l-22.87.07Z"/><path class="cls-3" d="M73.69,91.17a2,2,0,0,1-2-1.83l-.87-10.13c-.1-1.12-.13-2.26-.17-3.36-.13-3.7-.26-7.19-2.41-9.87-3.57-4.43-11.42-5.18-17.37-5a2,2,0,0,1-.1-4c10-.24,16.9,2,20.59,6.54,3,3.71,3.14,8.24,3.28,12.23,0,1.1.08,2.13.17,3.16L75.68,89a2,2,0,0,1-1.82,2.17Z"/><path class="cls-3" d="M50.83,91.24h0L28,91.17a2,2,0,0,1-2-2,2,2,0,0,1,2-2l22.86.07a2,2,0,1,1,0,4Z"/><path class="cls-3" d="M28,91.17H27.8A2,2,0,0,1,26,89c.15-1.72.3-3,.44-4.17s.29-2.37.43-4a2,2,0,1,1,4,.34c-.15,1.72-.3,3-.44,4.16s-.29,2.38-.43,4A2,2,0,0,1,28,91.17Z"/><path class="cls-3" d="M45.6,61.07a2,2,0,0,1-.23-4A25.6,25.6,0,0,1,50,56.91l.93,0A2,2,0,0,1,52.83,59a2,2,0,0,1-2,1.95l-.94,0a21.31,21.31,0,0,0-4,.14Z"/><path class="cls-3" d="M50.83,48.56A10.87,10.87,0,0,1,40,37.7a2,2,0,0,1,4,0,6.86,6.86,0,0,0,13.72,0,2,2,0,0,1,4,0A10.87,10.87,0,0,1,50.83,48.56Z"/><path class="cls-3" d="M59.69,39.7a2,2,0,0,1-2-2V31.58a6.86,6.86,0,0,0-13.72,0V37.7a2,2,0,0,1-4,0V31.58a10.86,10.86,0,0,1,21.72,0V37.7A2,2,0,0,1,59.69,39.7Z"/><path class="cls-2" d="M46.47,115.09H38.08a2,2,0,0,1,0-4h8.39a2,2,0,0,1,0,4Z"/><g class="cls-4"><path class="cls-2" d="M28,102.83a2,2,0,0,1-1.42-.59,1.85,1.85,0,0,1-.43-.64,2,2,0,0,1-.15-.77,2,2,0,0,1,.58-1.41,2.34,2.34,0,0,1,.3-.25,2.31,2.31,0,0,1,.35-.18,2.65,2.65,0,0,1,.37-.12,2,2,0,0,1,2.4,2,2,2,0,0,1-.16.77,1.85,1.85,0,0,1-.43.64A2,2,0,0,1,28,102.83Z"/></g><g class="cls-1"><path class="cls-2" d="M79.12,115.12H70a2,2,0,1,1,0-4h9.16a2,2,0,0,1,0,4Z"/></g><path class="cls-2" d="M92,115.12a1.75,1.75,0,0,1-.4,0,1.73,1.73,0,0,1-.37-.11,1.41,1.41,0,0,1-.34-.19,1.79,1.79,0,0,1-.31-.25,1.85,1.85,0,0,1-.43-.64,2,2,0,0,1-.15-.77,1.72,1.72,0,0,1,0-.39,1.66,1.66,0,0,1,.11-.38,2.21,2.21,0,0,1,.18-.34,2.48,2.48,0,0,1,.25-.3,2,2,0,0,1,1.81-.55,1.73,1.73,0,0,1,.37.11,1.7,1.7,0,0,1,.35.19,1.42,1.42,0,0,1,.3.25,2,2,0,0,1,.59,1.41,2.07,2.07,0,0,1-.15.77,2.15,2.15,0,0,1-.44.64,1.73,1.73,0,0,1-.3.25,1.7,1.7,0,0,1-.35.19,1.58,1.58,0,0,1-.37.11A1.72,1.72,0,0,1,92,115.12Z"/><g class="cls-5"><path class="cls-2" d="M46.32,115.12H28a2,2,0,0,1,0-4h18.3a2,2,0,0,1,0,4Z"/></g><g class="cls-6"><path class="cls-2" d="M57.08,115.12H38.78a2,2,0,0,1,0-4h18.3a2,2,0,0,1,0,4Z"/></g><g class="cls-7"><path class="cls-2" d="M73.63,102.83H28a2,2,0,1,1,0-4H73.63a2,2,0,0,1,0,4Z"/></g><g class="cls-8"><path class="cls-2" d="M92,102.83H66.09a2,2,0,0,1,0-4H92a2,2,0,0,1,0,4Z"/></g><path class="cls-2" d="M73.66,102.83h-7.5a2,2,0,0,1,0-4h7.5a2,2,0,0,1,0,4Z"/><path class="cls-3" d="M86.56,27.15a2,2,0,0,1-2-2V16.33a2,2,0,1,1,4.08,0v8.78A2,2,0,0,1,86.56,27.15Z"/><ellipse class="cls-3" cx="86.56" cy="31.02" rx="2.55" ry="2.47"/><path class="cls-3" d="M86.56,40.56a16.37,16.37,0,1,1,16.37-16.37A16.39,16.39,0,0,1,86.56,40.56Zm0-28.66A12.29,12.29,0,1,0,98.85,24.19,12.31,12.31,0,0,0,86.56,11.9Z"/><path class="cls-3" d="M72.22,43.25a2,2,0,0,1-1.57-3.33l5-6.13a2,2,0,0,1,3.16,2.58l-5,6.13A2,2,0,0,1,72.22,43.25Z"/><rect class="cls-9" width="120" height="120"/></svg>