<svg id="Capa_1" data-name="Capa 1" xmlns="http://www.w3.org/2000/svg" viewBox="0 0 120 120"><defs><style>.cls-1{opacity:0.85;}.cls-2{fill:#fff;}.cls-3{fill:#95a6b1;}.cls-4{opacity:0.8;}.cls-4,.cls-7,.cls-8{isolation:isolate;}.cls-5{opacity:0.7;}.cls-6,.cls-7{opacity:0.6;}.cls-8{opacity:0.5;}.cls-9{fill:none;}</style></defs><title>23-icon_ocenza_con_potuaria_componente_la_intervencion</title><g class="cls-1"><path class="cls-2" d="M35,29a9.51,9.51,0,1,1,3.93-.86A9.36,9.36,0,0,1,35,29Zm0-15a5.5,5.5,0,1,0,2.3,10.5A5.51,5.51,0,0,0,40,17.21h0A5.5,5.5,0,0,0,35,14Z"/></g><path class="cls-3" d="M43.72,91.59a15,15,0,0,1-15-15V35a2,2,0,0,1,4,0v41.6a11,11,0,0,0,11,11h20.7l23,0V16.35H49.13a2,2,0,1,1,0-4H89.39a2,2,0,0,1,2,2V89.54a2,2,0,0,1-2,2l-25,0Z"/><path class="cls-3" d="M60,74.6a22.08,22.08,0,1,1,9.15-2A22.12,22.12,0,0,1,60,74.6Zm-.06-40.16A18.08,18.08,0,1,0,76.41,45h0A18.11,18.11,0,0,0,59.94,34.44Z"/><path class="cls-3" d="M57.72,65.26A12.75,12.75,0,0,1,54,64.72c-6.64-2-10-9.62-10.09-9.94a2,2,0,0,1,.76-2.48c.3-.18,7.3-4.59,13.94-2.55h0c6.64,2,9.95,9.62,10.09,9.94a2,2,0,0,1-.76,2.48A21.26,21.26,0,0,1,57.72,65.26ZM48.44,54.82c1.16,2,3.46,5.07,6.73,6.08s6.93-.29,9-1.25c-1.15-1.94-3.45-5.07-6.73-6.08h0C54.17,52.57,50.5,53.87,48.44,54.82Z"/><path class="cls-3" d="M66.85,62.48a2.06,2.06,0,0,1-.59-.09L55.71,59.15a2,2,0,0,1,1.17-3.83l10.56,3.25a2,2,0,0,1-.59,3.91Z"/><path class="cls-3" d="M68.83,55.35A1.43,1.43,0,0,1,68,55.1c-.19-.12-4.51-3-5-7.37s3-8.2,3.13-8.36a1.48,1.48,0,0,1,1.9-.23c.18.12,4.51,3,5,7.37h0c.52,4.36-3,8.2-3.13,8.36A1.5,1.5,0,0,1,68.83,55.35ZM67.45,42.48a7.67,7.67,0,0,0-1.53,4.9,7.78,7.78,0,0,0,2.66,4.39,7.67,7.67,0,0,0,1.52-4.9A7.65,7.65,0,0,0,67.45,42.48Z"/><path class="cls-3" d="M68.83,55.35A1.48,1.48,0,0,1,67.36,54l-.82-6.74a1.48,1.48,0,0,1,2.94-.36l.82,6.75A1.48,1.48,0,0,1,69,55.34Z"/><path class="cls-2" d="M46.47,115.09H38.08a2,2,0,0,1,0-4h8.39a2,2,0,0,1,0,4Z"/><g class="cls-4"><path class="cls-2" d="M28,102.83a2,2,0,0,1-1.42-.59,1.85,1.85,0,0,1-.43-.64,2,2,0,0,1-.15-.77,2,2,0,0,1,.58-1.41,2.34,2.34,0,0,1,.3-.25,2.31,2.31,0,0,1,.35-.18,2.65,2.65,0,0,1,.37-.12,2,2,0,0,1,2.4,2,2,2,0,0,1-.16.77,1.85,1.85,0,0,1-.43.64A2,2,0,0,1,28,102.83Z"/></g><g class="cls-1"><path class="cls-2" d="M79.12,115.12H70a2,2,0,1,1,0-4h9.16a2,2,0,0,1,0,4Z"/></g><path class="cls-2" d="M92,115.12a1.75,1.75,0,0,1-.4,0,1.73,1.73,0,0,1-.37-.11,1.41,1.41,0,0,1-.34-.19,1.79,1.79,0,0,1-.31-.25,1.85,1.85,0,0,1-.43-.64,2,2,0,0,1-.15-.77,1.72,1.72,0,0,1,0-.39,1.66,1.66,0,0,1,.11-.38,2.21,2.21,0,0,1,.18-.34,2.48,2.48,0,0,1,.25-.3,2,2,0,0,1,1.81-.55,1.73,1.73,0,0,1,.37.11,1.7,1.7,0,0,1,.35.19,1.42,1.42,0,0,1,.3.25,2,2,0,0,1,.59,1.41,2.07,2.07,0,0,1-.15.77,2.15,2.15,0,0,1-.44.64,1.73,1.73,0,0,1-.3.25,1.7,1.7,0,0,1-.35.19,1.58,1.58,0,0,1-.37.11A1.72,1.72,0,0,1,92,115.12Z"/><g class="cls-5"><path class="cls-2" d="M46.32,115.12H28a2,2,0,0,1,0-4h18.3a2,2,0,0,1,0,4Z"/></g><g class="cls-6"><path class="cls-2" d="M57.08,115.12H38.78a2,2,0,0,1,0-4h18.3a2,2,0,0,1,0,4Z"/></g><g class="cls-7"><path class="cls-2" d="M73.63,102.83H28a2,2,0,1,1,0-4H73.63a2,2,0,0,1,0,4Z"/></g><g class="cls-8"><path class="cls-2" d="M92,102.83H66.09a2,2,0,0,1,0-4H92a2,2,0,0,1,0,4Z"/></g><path class="cls-2" d="M73.66,102.83h-7.5a2,2,0,0,1,0-4h7.5a2,2,0,0,1,0,4Z"/><rect class="cls-9" width="120" height="120"/></svg>