<svg id="Capa_1" data-name="Capa 1" xmlns="http://www.w3.org/2000/svg" viewBox="0 0 120 120"><defs><style>.cls-1{opacity:0.85;}.cls-2{fill:#fff;}.cls-3{fill:#95a6b1;}.cls-4{fill:#94a5b0;}.cls-5{opacity:0.8;}.cls-5,.cls-8,.cls-9{isolation:isolate;}.cls-6{opacity:0.7;}.cls-7,.cls-8{opacity:0.6;}.cls-9{opacity:0.5;}.cls-10{fill:none;}</style></defs><title>24-icon_ocenza_con_potuaria_componente_a_las_enbarcaciones</title><g class="cls-1"><path class="cls-2" d="M33.42,29.09a9.5,9.5,0,0,1-8.91-12.82,9.5,9.5,0,0,1,17.54-.63h0a9.44,9.44,0,0,1,.38,6.93,9.5,9.5,0,0,1-9,6.52Zm0-15a5.5,5.5,0,0,0-1.91,10.65A5.5,5.5,0,1,0,33.4,14.09Z"/></g><path class="cls-3" d="M42.15,91.68a15,15,0,0,1-15-15V35.06a2,2,0,0,1,4,0v41.6a11,11,0,0,0,11,11H62.84l23-.05V16.44H47.55a2,2,0,1,1,0-4H87.81a2,2,0,0,1,2,2V89.63a2,2,0,0,1-2,2l-25,.05Z"/><path class="cls-3" d="M72.51,58.58a2,2,0,0,1-2-2V46.89H49.74v8.86a2,2,0,0,1-4,0V44.89a2,2,0,0,1,2-2H70.69a3.83,3.83,0,0,1,3.82,3.82v9.87A2,2,0,0,1,72.51,58.58Z"/><path class="cls-3" d="M67,46.9a2,2,0,0,1-2-2V39.78a.14.14,0,0,0-.14-.14H54.61v5.25a2,2,0,0,1-4,0V39.4a3.76,3.76,0,0,1,3.76-3.76H64.89A4.14,4.14,0,0,1,69,39.78V44.9A2,2,0,0,1,67,46.9Z"/><path class="cls-3" d="M72.18,74.65a2.23,2.23,0,0,1-.56-.08,2,2,0,0,1-1.36-2.48l3.63-12.46-14.47-8-14.58,8,3.83,11.82a2,2,0,0,1-3.81,1.23l-4-12.22a3.39,3.39,0,0,1,1.59-4.1L57.77,48a3.39,3.39,0,0,1,3.31,0l15.15,8.4a3.42,3.42,0,0,1,1.58,4.1L74.1,73.21A2,2,0,0,1,72.18,74.65ZM74,59.25a0,0,0,0,0,0,0Zm-29.31-.1v0Z"/><path class="cls-3" d="M59.43,74.37a2,2,0,0,1-2-2V49.52a2,2,0,0,1,4,0V72.37A2,2,0,0,1,59.43,74.37Z"/><circle class="cls-3" cx="52.02" cy="59.71" r="1.85"/><circle class="cls-3" cx="66.79" cy="59.71" r="1.85"/><path class="cls-3" d="M65,39.64H54.84V29.81a3,3,0,0,1,3-3h4.06A3.09,3.09,0,0,1,65,29.88Zm-6.17-4H61V30.79H58.84Z"/><path class="cls-4" d="M81.06,76a5.24,5.24,0,0,1-3.92-1.81c-.6-.59-.8-.76-1.34-.76s-.74.17-1.34.76a5.16,5.16,0,0,1-7.85,0c-.6-.59-.8-.76-1.34-.76s-.73.17-1.34.76a5.16,5.16,0,0,1-7.85,0c-.6-.59-.8-.76-1.34-.76s-.73.17-1.34.76a5.16,5.16,0,0,1-7.85,0c-.6-.59-.8-.76-1.34-.76s-.74.17-1.35.76A5.24,5.24,0,0,1,38.94,76a1.85,1.85,0,1,1,0-3.7c.54,0,.73-.17,1.34-.76a5.16,5.16,0,0,1,7.85,0c.61.59.81.76,1.35.76s.73-.17,1.34-.76a5.16,5.16,0,0,1,7.85,0c.6.59.8.76,1.34.76s.73-.17,1.34-.76a5.16,5.16,0,0,1,7.85,0c.6.59.8.76,1.34.76s.73-.17,1.34-.76a5.15,5.15,0,0,1,7.84,0c.61.59.81.76,1.34.76a1.85,1.85,0,0,1,0,3.7Z"/><path class="cls-2" d="M46.47,115.09H38.08a2,2,0,0,1,0-4h8.39a2,2,0,0,1,0,4Z"/><g class="cls-5"><path class="cls-2" d="M28,102.83a2,2,0,0,1-1.42-.59,1.85,1.85,0,0,1-.43-.64,2,2,0,0,1-.15-.77,2,2,0,0,1,.58-1.41,2.34,2.34,0,0,1,.3-.25,2.31,2.31,0,0,1,.35-.18,2.65,2.65,0,0,1,.37-.12,2,2,0,0,1,2.4,2,2,2,0,0,1-.16.77,1.85,1.85,0,0,1-.43.64A2,2,0,0,1,28,102.83Z"/></g><g class="cls-1"><path class="cls-2" d="M79.12,115.12H70a2,2,0,1,1,0-4h9.16a2,2,0,0,1,0,4Z"/></g><path class="cls-2" d="M92,115.12a1.75,1.75,0,0,1-.4,0,1.73,1.73,0,0,1-.37-.11,1.41,1.41,0,0,1-.34-.19,1.79,1.79,0,0,1-.31-.25,1.85,1.85,0,0,1-.43-.64,2,2,0,0,1-.15-.77,1.72,1.72,0,0,1,0-.39,1.66,1.66,0,0,1,.11-.38,2.21,2.21,0,0,1,.18-.34,2.48,2.48,0,0,1,.25-.3,2,2,0,0,1,1.81-.55,1.73,1.73,0,0,1,.37.11,1.7,1.7,0,0,1,.35.19,1.42,1.42,0,0,1,.3.25,2,2,0,0,1,.59,1.41,2.07,2.07,0,0,1-.15.77,2.15,2.15,0,0,1-.44.64,1.73,1.73,0,0,1-.3.25,1.7,1.7,0,0,1-.35.19,1.58,1.58,0,0,1-.37.11A1.72,1.72,0,0,1,92,115.12Z"/><g class="cls-6"><path class="cls-2" d="M46.32,115.12H28a2,2,0,0,1,0-4h18.3a2,2,0,0,1,0,4Z"/></g><g class="cls-7"><path class="cls-2" d="M57.08,115.12H38.78a2,2,0,0,1,0-4h18.3a2,2,0,0,1,0,4Z"/></g><g class="cls-8"><path class="cls-2" d="M73.63,102.83H28a2,2,0,1,1,0-4H73.63a2,2,0,0,1,0,4Z"/></g><g class="cls-9"><path class="cls-2" d="M92,102.83H66.09a2,2,0,0,1,0-4H92a2,2,0,0,1,0,4Z"/></g><path class="cls-2" d="M73.66,102.83h-7.5a2,2,0,0,1,0-4h7.5a2,2,0,0,1,0,4Z"/><rect class="cls-10" width="120" height="120"/></svg>