<svg id="Capa_1" data-name="Capa 1" xmlns="http://www.w3.org/2000/svg" viewBox="0 0 120 120"><defs><style>.cls-1{opacity:0.85;}.cls-2{fill:#fff;}.cls-3{fill:#95a6b1;}.cls-4{opacity:0.8;}.cls-4,.cls-7,.cls-8{isolation:isolate;}.cls-5{opacity:0.7;}.cls-6,.cls-7{opacity:0.6;}.cls-8{opacity:0.5;}.cls-9{fill:none;}</style></defs><title>25-icon_ocenza_con_potuaria_componente_al-final_ocensa</title><g class="cls-1"><path class="cls-2" d="M35,29.08a9.46,9.46,0,1,1,3.93-.85A9.53,9.53,0,0,1,35,29.08Zm0-15a5.38,5.38,0,0,0-2.27.5A5.49,5.49,0,1,0,40,17.3h0A5.5,5.5,0,0,0,35,14.09Z"/></g><path class="cls-3" d="M43.72,91.68a15,15,0,0,1-15-15V35.06a2,2,0,0,1,4,0v41.6a11,11,0,0,0,11,11h20.7l23-.05V16.44H49.13a2,2,0,1,1,0-4H89.39a2,2,0,0,1,2,2V89.63a2,2,0,0,1-2,2l-25,.05Z"/><path class="cls-3" d="M76.63,73.1H41.53a1.65,1.65,0,0,1,0-3.3h35.1a1.65,1.65,0,0,1,0,3.3Z"/><path class="cls-3" d="M54.81,81H41.53a1.65,1.65,0,1,1,0-3.3H54.81a1.65,1.65,0,1,1,0,3.3Z"/><path class="cls-3" d="M60,41.37l-.23,0a2,2,0,0,1-1.54-1L55,34.2a2,2,0,0,1,3.53-1.89l1.91,3.57,8.27-9.43a2,2,0,0,1,3,2.64L61.52,40.69A2,2,0,0,1,60,41.37Z"/><path class="cls-3" d="M59.22,61.78A1.49,1.49,0,0,1,58,61.14l-4.77-6.85v6a1.5,1.5,0,0,1-3,0V49.5A1.5,1.5,0,0,1,53,48.65l4.77,6.85v-6a1.5,1.5,0,0,1,3,0V60.28a1.49,1.49,0,0,1-1,1.43A1.41,1.41,0,0,1,59.22,61.78Z"/><path class="cls-3" d="M47.78,61.78a1.49,1.49,0,0,1-1.38-.91L43.18,53.3l-3.29,7.58a1.5,1.5,0,1,1-2.75-1.2L41.82,48.9A1.52,1.52,0,0,1,43.2,48h0a1.5,1.5,0,0,1,1.38.92l4.58,10.77a1.51,1.51,0,0,1-1.38,2.09Z"/><path class="cls-3" d="M46.17,58.26H40a1.5,1.5,0,0,1,0-3h6.13a1.5,1.5,0,0,1,0,3Z"/><path class="cls-3" d="M81.26,61.78a1.49,1.49,0,0,1-1.38-.91L76.66,53.3l-3.29,7.58a1.5,1.5,0,1,1-2.75-1.2L75.3,48.9a1.52,1.52,0,0,1,1.38-.9h0a1.5,1.5,0,0,1,1.38.92l4.58,10.77a1.51,1.51,0,0,1-1.38,2.09Z"/><path class="cls-3" d="M79.65,58.26H73.52a1.5,1.5,0,0,1,0-3h6.13a1.5,1.5,0,0,1,0,3Z"/><path class="cls-3" d="M68.55,61.78H63.47a1.5,1.5,0,0,1-1.5-1.5V49.5a1.5,1.5,0,0,1,3,0v9.28h3.58a1.5,1.5,0,0,1,0,3Z"/><path class="cls-2" d="M46.47,115.38H38.08a2,2,0,1,1,0-4h8.39a2,2,0,0,1,0,4Z"/><g class="cls-4"><path class="cls-2" d="M28,103.11a2,2,0,0,1-2-2,1.75,1.75,0,0,1,0-.4,1.73,1.73,0,0,1,.11-.37,2.31,2.31,0,0,1,.18-.35,3.61,3.61,0,0,1,.25-.3,2.08,2.08,0,0,1,2.83,0,2.34,2.34,0,0,1,.25.3,2.31,2.31,0,0,1,.18.35,2.65,2.65,0,0,1,.12.37,2.6,2.6,0,0,1,0,.4,2,2,0,0,1-2,2Z"/></g><g class="cls-1"><path class="cls-2" d="M79.12,115.4H70a2,2,0,0,1,0-4h9.16a2,2,0,0,1,0,4Z"/></g><path class="cls-2" d="M92,115.4a2,2,0,0,1-.77-.15,2,2,0,0,1-.65-.44A1.94,1.94,0,0,1,90,113.4a1.72,1.72,0,0,1,0-.39,1.58,1.58,0,0,1,.11-.37,2.31,2.31,0,0,1,.18-.35,2.48,2.48,0,0,1,.25-.3,2.06,2.06,0,0,1,2.83,0,1.81,1.81,0,0,1,.25.3,2.31,2.31,0,0,1,.18.35,2.29,2.29,0,0,1,.12.37,2.58,2.58,0,0,1,0,.39,2.71,2.71,0,0,1,0,.4c0,.12-.07.25-.11.37a2.27,2.27,0,0,1-.19.34,1.81,1.81,0,0,1-.25.3A2,2,0,0,1,92,115.4Z"/><g class="cls-5"><path class="cls-2" d="M46.32,115.4H28a2,2,0,0,1,0-4h18.3a2,2,0,0,1,0,4Z"/></g><g class="cls-6"><path class="cls-2" d="M57.08,115.4H38.78a2,2,0,0,1,0-4h18.3a2,2,0,1,1,0,4Z"/></g><g class="cls-7"><path class="cls-2" d="M73.63,103.12H28a2,2,0,0,1,0-4H73.63a2,2,0,0,1,0,4Z"/></g><g class="cls-8"><path class="cls-2" d="M92,103.12H66.09a2,2,0,0,1,0-4H92a2,2,0,1,1,0,4Z"/></g><path class="cls-2" d="M73.66,103.12h-7.5a2,2,0,0,1,0-4h7.5a2,2,0,0,1,0,4Z"/><rect class="cls-9" width="120" height="120"/></svg>