<svg xmlns="http://www.w3.org/2000/svg" viewBox="0 0 120 120"><defs><style>.cls-1{isolation:isolate;}.cls-2{fill:none;}.cls-3{fill:#ffea27;}.cls-4{mix-blend-mode:multiply;}.cls-5{fill:#f4d314;}.cls-6{fill:#95a6b1;}.cls-7{fill:#fff;}</style></defs><title>26-icon_ocenza_tlu2_tlu2_nueva</title><g class="cls-1"><g id="Capa_1" data-name="Capa 1"><rect class="cls-2" width="120" height="119.87"/><path class="cls-3" d="M58.67,116.23H40.46a2,2,0,1,1,0-4H58.67a2,2,0,0,1,0,4Z"/><path class="cls-3" d="M80.6,116.23H71.5a2,2,0,0,1,0-4h9.1a2,2,0,0,1,0,4Z"/><path class="cls-3" d="M93.4,116.23A2,2,0,0,1,92,112.82a2,2,0,0,1,1.8-.55,1.82,1.82,0,0,1,.38.11,2.27,2.27,0,0,1,.34.19,1.42,1.42,0,0,1,.3.25,2,2,0,0,1,.59,1.41,2,2,0,0,1-.15.77,1.88,1.88,0,0,1-.44.64A2,2,0,0,1,93.4,116.23Z"/><g class="cls-4"><path class="cls-5" d="M48,116.23H29.76a2,2,0,0,1,0-4H48a2,2,0,0,1,0,4Z"/></g><path class="cls-3" d="M75.14,104H29.76a2,2,0,1,1,0-4H75.14a2,2,0,0,1,0,4Z"/><g class="cls-4"><path class="cls-5" d="M29.76,104a2,2,0,0,1-2-2,2,2,0,0,1,2.39-2,2.65,2.65,0,0,1,.37.12,2.31,2.31,0,0,1,.35.18,1.81,1.81,0,0,1,.3.25,1.89,1.89,0,0,1,.25.31,1.83,1.83,0,0,1,.18.34,2.65,2.65,0,0,1,.12.37,2.58,2.58,0,0,1,0,.39,2,2,0,0,1-2,2Z"/></g><g class="cls-4"><path class="cls-5" d="M93.4,104H67.64a2,2,0,1,1,0-4H93.4a2,2,0,0,1,0,4Z"/></g><path class="cls-6" d="M109.15,89.36c-3.89,0-5.91-2-7.54-3.57-1.44-1.41-2.49-2.43-4.74-2.43s-3.31,1-4.75,2.43c-1.63,1.59-3.65,3.57-7.54,3.57s-5.91-2-7.54-3.57c-1.44-1.41-2.49-2.43-4.74-2.43s-3.3,1-4.75,2.43c-1.63,1.59-3.65,3.57-7.54,3.57s-5.91-2-7.54-3.57C51,84.38,50,83.36,47.72,83.36s-3.3,1-4.74,2.43c-1.63,1.59-3.66,3.57-7.54,3.57s-5.92-2-7.55-3.57c-1.44-1.41-2.49-2.43-4.75-2.43s-3.3,1-4.75,2.43c-1.63,1.59-3.65,3.57-7.54,3.57a2,2,0,1,1,0-4c2.26,0,3.3-1,4.75-2.43,1.63-1.59,3.66-3.57,7.54-3.57s5.92,2,7.55,3.57c1.44,1.41,2.49,2.43,4.75,2.43s3.3-1,4.74-2.43c1.63-1.59,3.66-3.57,7.54-3.57s5.92,2,7.54,3.57c1.45,1.41,2.49,2.43,4.75,2.43s3.3-1,4.75-2.43c1.63-1.59,3.65-3.57,7.54-3.57s5.91,2,7.54,3.57c1.44,1.41,2.48,2.43,4.74,2.43s3.3-1,4.74-2.43C91,81.34,93,79.36,96.87,79.36s5.91,2,7.54,3.57c1.44,1.41,2.48,2.43,4.74,2.43a2,2,0,0,1,0,4Z"/><path class="cls-6" d="M42.87,77.89H31a2,2,0,1,1,0-4H42.87a2,2,0,0,1,0,4Z"/><path class="cls-6" d="M84,55.07a2,2,0,0,1-2-2,2,2,0,0,1,.59-1.41,2.06,2.06,0,0,1,2.83,0,2.48,2.48,0,0,1,.25.3,1.92,1.92,0,0,1,.18.35,1.58,1.58,0,0,1,.11.37,1.72,1.72,0,0,1,0,.39,2.56,2.56,0,0,1,0,.39,2.4,2.4,0,0,1-.12.38,2.21,2.21,0,0,1-.18.34,1.81,1.81,0,0,1-.25.3,2,2,0,0,1-.65.44A2,2,0,0,1,84,55.07Z"/><path class="cls-6" d="M68.58,55.07h-36a2,2,0,0,1-2-2v-6.3a2,2,0,1,1,4,0v4.3h34a2,2,0,0,1,0,4Z"/><path class="cls-3" d="M32.33,42.94a9.49,9.49,0,0,1-4-18.13A9.51,9.51,0,0,1,41,29.5a9.49,9.49,0,0,1-4.69,12.58A9.37,9.37,0,0,1,32.33,42.94Zm0-15a5.42,5.42,0,0,0-2.29.51,5.5,5.5,0,1,0,7.29,2.71h0a5.49,5.49,0,0,0-3.08-2.87A5.61,5.61,0,0,0,32.32,27.94Z"/><path class="cls-6" d="M90.31,55.07H84a2,2,0,0,1,0-4h4.35v-17a.36.36,0,0,0-.36-.35H46.22a2,2,0,1,1,0-4H88a4.36,4.36,0,0,1,4.36,4.35v19A2,2,0,0,1,90.31,55.07Z"/><path class="cls-6" d="M80.5,33.74H51.78a2,2,0,0,1-2-2V24.8A4.24,4.24,0,0,1,54,20.56H78.56A4,4,0,0,1,82.5,24.5v7.24A2,2,0,0,1,80.5,33.74Zm-26.72-4H78.5V24.56H54a.23.23,0,0,0-.23.24Zm24.78-5.18h0Z"/><path class="cls-6" d="M90.39,41.69H45.52a2,2,0,0,1,0-4H90.39a2,2,0,0,1,0,4Z"/><path class="cls-6" d="M23.2,82.64a2,2,0,0,1-2-2V55.78a4.7,4.7,0,0,1,4.69-4.69H68.58a2,2,0,0,1,0,4H25.89a.69.69,0,0,0-.69.69V80.64A2,2,0,0,1,23.2,82.64Z"/><path class="cls-6" d="M100.27,84.27a2,2,0,0,1-2-2V55.42a.33.33,0,0,0-.33-.33l-14,0a2,2,0,0,1,0-4h0l14,0a4.34,4.34,0,0,1,4.33,4.33V82.27A2,2,0,0,1,100.27,84.27Z"/><path class="cls-6" d="M23.2,62.35a2,2,0,1,1,0-4H50.59a2,2,0,0,1,0,4Z"/><line class="cls-7" x1="42.88" y1="60.33" x2="42.88" y2="83"/><path class="cls-6" d="M42.88,85a2,2,0,0,1-2-2V60.33a2,2,0,0,1,4,0V83A2,2,0,0,1,42.88,85Z"/><path class="cls-6" d="M42.87,69.42H31a2,2,0,1,1,0-4H42.87a2,2,0,0,1,0,4Z"/><path class="cls-6" d="M30.92,87.36a2,2,0,0,1-2-2v-25a2,2,0,0,1,4,0v25A2,2,0,0,1,30.92,87.36Z"/><path class="cls-6" d="M50.59,83.2a2,2,0,0,1-2-2V53.07a2,2,0,1,1,4,0V81.2A2,2,0,0,1,50.59,83.2Z"/><path class="cls-6" d="M83.94,66.88H68.54a2,2,0,0,1-1.42-.59,2,2,0,0,1-.58-1.42l0-11.75a2,2,0,0,1,2-2h0a2,2,0,0,1,2,2l0,9.74h11.4V53.11a2,2,0,0,1,4,0V64.88A2,2,0,0,1,83.94,66.88Z"/><path class="cls-6" d="M59.09,33.74a2,2,0,0,1-2-2V22.56a2,2,0,0,1,4,0v9.18A2,2,0,0,1,59.09,33.74Z"/><path class="cls-6" d="M66.14,33.74a2,2,0,0,1-2-2V22.56a2,2,0,0,1,4,0v9.18A2,2,0,0,1,66.14,33.74Z"/><path class="cls-6" d="M73.43,33.74a2,2,0,0,1-2-2V22.56a2,2,0,0,1,4,0v9.18A2,2,0,0,1,73.43,33.74Z"/><path class="cls-6" d="M92.11,67.66a2,2,0,0,1-2-2V53.11a2,2,0,0,1,4,0V65.66A2,2,0,0,1,92.11,67.66Z"/><path class="cls-6" d="M59.56,67.66a2,2,0,0,1-2-2V53.11a2,2,0,0,1,4,0V65.66A2,2,0,0,1,59.56,67.66Z"/></g></g></svg>