<svg xmlns="http://www.w3.org/2000/svg" viewBox="0 0 120 120"><defs><style>.cls-1{isolation:isolate;}.cls-2{fill:#ffea27;}.cls-3{mix-blend-mode:multiply;}.cls-4{fill:#f4d314;}.cls-5{fill:#95a6b1;}.cls-6{fill:#fff;}.cls-7{fill:none;}</style></defs><title>27-icon_ocenza_tlu2_el_futuro_tlu2</title><g class="cls-1"><g id="Capa_1" data-name="Capa 1"><path class="cls-2" d="M58.67,116.23H40.46a2,2,0,1,1,0-4H58.67a2,2,0,0,1,0,4Z"/><path class="cls-2" d="M80.6,116.23H71.5a2,2,0,0,1,0-4h9.1a2,2,0,0,1,0,4Z"/><path class="cls-2" d="M93.4,116.23A2,2,0,0,1,92,112.82a2,2,0,0,1,1.8-.55,1.82,1.82,0,0,1,.38.11,2.27,2.27,0,0,1,.34.19,1.42,1.42,0,0,1,.3.25,2,2,0,0,1,.59,1.41,2,2,0,0,1-.15.77,1.88,1.88,0,0,1-.44.64A2,2,0,0,1,93.4,116.23Z"/><g class="cls-3"><path class="cls-4" d="M48,116.23H29.76a2,2,0,0,1,0-4H48a2,2,0,0,1,0,4Z"/></g><path class="cls-2" d="M75.14,104H29.76a2,2,0,1,1,0-4H75.14a2,2,0,0,1,0,4Z"/><g class="cls-3"><path class="cls-4" d="M29.76,104a2,2,0,0,1-2-2,2,2,0,0,1,2.39-2,2.65,2.65,0,0,1,.37.12,2.31,2.31,0,0,1,.35.18,1.81,1.81,0,0,1,.3.25,1.89,1.89,0,0,1,.25.31,1.83,1.83,0,0,1,.18.34,2.65,2.65,0,0,1,.12.37,2.58,2.58,0,0,1,0,.39,2,2,0,0,1-2,2Z"/></g><g class="cls-3"><path class="cls-4" d="M93.4,104H67.64a2,2,0,1,1,0-4H93.4a2,2,0,0,1,0,4Z"/></g><path class="cls-4" d="M31.83,43.1a9.54,9.54,0,0,1-3.32-.6,9.5,9.5,0,1,1,12.33-5.92,9.5,9.5,0,0,1-9,6.52Zm0-15A5.5,5.5,0,0,0,29.9,38.75a5.49,5.49,0,0,0,4.21-.15A5.42,5.42,0,0,0,37,35.33a5.48,5.48,0,0,0-.22-4h0A5.51,5.51,0,0,0,31.82,28.1Z"/><path class="cls-5" d="M100.11,84.42a2,2,0,0,1-2-2V55.57a.32.32,0,0,0-.32-.32H25.74a.69.69,0,0,0-.69.69V80.8a2,2,0,0,1-4,0V55.94a4.69,4.69,0,0,1,4.69-4.69H97.79a4.33,4.33,0,0,1,4.32,4.32V82.42A2,2,0,0,1,100.11,84.42Z"/><path class="cls-5" d="M23.05,63.61a2,2,0,1,1,0-4H58.32a2,2,0,1,1,0,4Z"/><line class="cls-6" x1="43.82" y1="61.59" x2="43.82" y2="82.46"/><path class="cls-5" d="M43.83,84.46a2,2,0,0,1-2-2V61.59a2,2,0,0,1,4,0V82.46A2,2,0,0,1,43.83,84.46Z"/><path class="cls-5" d="M43.82,70.68H31.9a2,2,0,0,1,0-4H43.82a2,2,0,0,1,0,4Z"/><path class="cls-5" d="M43.83,78.07H31.92a2,2,0,0,1,0-4H43.83a2,2,0,0,1,0,4Z"/><path class="cls-5" d="M31.87,88.62a2,2,0,0,1-2-2v-25a2,2,0,1,1,4,0v25A2,2,0,0,1,31.87,88.62Z"/><path class="cls-5" d="M58.37,89.43a2,2,0,0,1-2-2V53.34a2,2,0,0,1,4,0V87.43A2,2,0,0,1,58.37,89.43Z"/><path class="cls-5" d="M89.81,55.22H32.11a2,2,0,0,1-2-2V46.93a2,2,0,1,1,4,0v4.29h53.7v-17a.36.36,0,0,0-.36-.36H45.73a2,2,0,0,1,0-4H87.45a4.36,4.36,0,0,1,4.36,4.36v19A2,2,0,0,1,89.81,55.22Z"/><path class="cls-5" d="M80,33.89H51.28a2,2,0,0,1-2-2V25a4.24,4.24,0,0,1,4.24-4.24H78.07A3.94,3.94,0,0,1,82,24.65v7.24A2,2,0,0,1,80,33.89Zm-26.72-4H78V24.71H53.52a.24.24,0,0,0-.24.24Zm24.79-5.18h0Z"/><path class="cls-5" d="M89.9,41.84H45a2,2,0,0,1,0-4H89.9a2,2,0,0,1,0,4Z"/><path class="cls-5" d="M108.66,89.51c-3.89,0-5.92-2-7.54-3.57-1.45-1.41-2.49-2.43-4.75-2.43s-3.3,1-4.75,2.43C90,87.53,88,89.51,84.08,89.51s-5.91-2-7.53-3.57c-1.45-1.41-2.49-2.43-4.75-2.43s-3.3,1-4.74,2.43c-1.63,1.59-3.66,3.57-7.54,3.57s-5.92-2-7.54-3.57c-1.45-1.41-2.49-2.43-4.75-2.43s-3.3,1-4.75,2.43c-1.63,1.59-3.65,3.57-7.54,3.57s-5.91-2-7.54-3.57c-1.45-1.41-2.49-2.43-4.75-2.43s-3.31,1-4.75,2.43c-1.63,1.59-3.66,3.57-7.55,3.57a2,2,0,1,1,0-4c2.26,0,3.31-1,4.75-2.43,1.63-1.59,3.66-3.57,7.55-3.57s5.91,2,7.54,3.57c1.45,1.41,2.49,2.43,4.75,2.43s3.3-1,4.75-2.43c1.63-1.59,3.65-3.57,7.54-3.57s5.91,2,7.54,3.57c1.45,1.41,2.49,2.43,4.75,2.43s3.3-1,4.74-2.43c1.63-1.59,3.66-3.57,7.54-3.57s5.91,2,7.54,3.57c1.45,1.41,2.49,2.43,4.74,2.43s3.3-1,4.75-2.43c1.63-1.59,3.65-3.57,7.54-3.57s5.91,2,7.54,3.57c1.44,1.41,2.49,2.43,4.75,2.43a2,2,0,0,1,0,4Z"/><g id="Trazado_6132" data-name="Trazado 6132"><path class="cls-5" d="M90.42,37.32a2,2,0,0,1-1.85-1.25c-.14-.32-3.2-8,0-14.16s11.27-8,11.61-8.12a2,2,0,0,1,2.3,1.19c.13.33,3.19,8,0,14.17s-11.27,8-11.61,8.12A2.28,2.28,0,0,1,90.42,37.32Zm8.91-19.08c-2.12.78-5.61,2.48-7.2,5.52s-1,6.87-.41,9.06c2.13-.79,5.62-2.48,7.2-5.52h0C100.51,24.26,99.9,20.43,99.33,18.24Z"/></g><g id="Línea_1426" data-name="Línea 1426"><path class="cls-5" d="M90.42,37.32a2,2,0,0,1-.93-.23,2,2,0,0,1-.84-2.7l5.1-9.79a2,2,0,0,1,3.55,1.85l-5.11,9.79A2,2,0,0,1,90.42,37.32Z"/></g><g id="Trazado_6132-2" data-name="Trazado 6132"><path class="cls-5" d="M102.06,47.78a12.49,12.49,0,0,1-2.76-.31h0c-6.77-1.56-10.62-8.88-10.78-9.19a2,2,0,0,1,.58-2.52c.28-.21,7-5.11,13.71-3.55s10.62,8.88,10.78,9.19a2,2,0,0,1-.58,2.52C112.77,44.1,107.77,47.78,102.06,47.78Zm-1.86-4.21c3.31.77,6.88-.79,8.86-1.89-1.29-1.85-3.81-4.8-7.14-5.57S95,36.9,93.05,38c1.29,1.86,3.81,4.8,7.15,5.57Z"/></g><g id="Línea_1426-2" data-name="Línea 1426"><path class="cls-5" d="M101.06,41.84a2.3,2.3,0,0,1-.45-.05L89.85,39.31a2,2,0,0,1,.89-3.9l10.76,2.48a2,2,0,0,1-.44,4Z"/></g><rect class="cls-7" width="120" height="119.87"/></g></g></svg>