<svg xmlns="http://www.w3.org/2000/svg" viewBox="0 0 120 120"><defs><style>.cls-1{isolation:isolate;}.cls-2{fill:none;}.cls-3{fill:#ffea27;}.cls-4{mix-blend-mode:multiply;}.cls-5{fill:#f4d314;}.cls-6{fill:#95a6b1;}.cls-7{fill:#94a5b0;}</style></defs><title>28-icon_ocenza_terminal_coveñas_datos_interes</title><g class="cls-1"><g id="Capa_1" data-name="Capa 1"><rect class="cls-2" width="120" height="120"/><path class="cls-3" d="M54,115.86H35.74a2,2,0,1,1,0-4H54a2,2,0,0,1,0,4Z"/><path class="cls-3" d="M75.88,115.86h-9.1a2,2,0,0,1,0-4h9.1a2,2,0,0,1,0,4Z"/><path class="cls-3" d="M88.68,115.86a1.72,1.72,0,0,1-.39,0,1.66,1.66,0,0,1-.38-.11,2.21,2.21,0,0,1-.34-.18,2.51,2.51,0,0,1-.31-.26,2,2,0,0,1-.43-.64,2,2,0,0,1-.15-.77,2,2,0,0,1,.58-1.41,2.06,2.06,0,0,1,2.83,0,2,2,0,0,1,.59,1.41,2,2,0,0,1-.15.77,1.88,1.88,0,0,1-.44.64A2,2,0,0,1,88.68,115.86Z"/><g class="cls-4"><path class="cls-5" d="M43.24,115.86H25a2,2,0,0,1,0-4h18.2a2,2,0,0,1,0,4Z"/></g><path class="cls-3" d="M70.42,103.64H25a2,2,0,0,1,0-4H70.42a2,2,0,0,1,0,4Z"/><g class="cls-4"><path class="cls-5" d="M25,103.64a2,2,0,0,1-2-2,2,2,0,0,1,2.39-2,2.65,2.65,0,0,1,.37.12,2.31,2.31,0,0,1,.35.18,2.48,2.48,0,0,1,.3.25,2.34,2.34,0,0,1,.25.3,2.31,2.31,0,0,1,.18.35,2.65,2.65,0,0,1,.12.37,2.6,2.6,0,0,1,0,.4,2,2,0,0,1-2,2Z"/></g><g class="cls-4"><path class="cls-5" d="M88.68,103.64H62.92a2,2,0,0,1,0-4H88.68a2,2,0,0,1,0,4Z"/></g><path class="cls-3" d="M29.55,41.16a9.5,9.5,0,1,1,8.64-13.45h0a9.52,9.52,0,0,1-8.64,13.45Zm0-15a5.5,5.5,0,0,0-5,7.79,5.5,5.5,0,1,0,10-4.57h0a5.49,5.49,0,0,0-3.08-2.87A5.61,5.61,0,0,0,29.55,26.15Z"/><path class="cls-6" d="M102,91.61H18a2,2,0,0,1-2-2V52.88a2,2,0,0,1,2-2h84a2,2,0,0,1,2,2V89.61A2,2,0,0,1,102,91.61Zm-82-4h80V54.88H20Z"/><path class="cls-6" d="M18,62.62a2,2,0,0,1-2-2V52.88a2,2,0,0,1,4,0v7.74A2,2,0,0,1,18,62.62Z"/><path class="cls-6" d="M85.38,62.62a2,2,0,0,1-2-2V52.88a2,2,0,1,1,4,0v7.74A2,2,0,0,1,85.38,62.62Z"/><path class="cls-6" d="M102,62.74a2,2,0,0,1-2-2V52.88a2,2,0,1,1,4,0v7.86A2,2,0,0,1,102,62.74Z"/><path class="cls-6" d="M108.28,62.78H11.72a2,2,0,1,1,0-4h96.56a2,2,0,0,1,0,4Z"/><path class="cls-6" d="M81.06,82.07h-63a2,2,0,0,1,0-4h63a2,2,0,0,1,0,4Z"/><path class="cls-6" d="M102,82.07H92.1a2,2,0,0,1,0-4H102a2,2,0,0,1,0,4Z"/><path class="cls-7" d="M29,19.41a2,2,0,0,1-2-2v-5.7a8,8,0,0,1,8-8h9.4a2,2,0,0,1,0,4H35a4,4,0,0,0-4,4v5.7A2,2,0,0,1,29,19.41Z"/><path class="cls-7" d="M50.4,62.62a2,2,0,0,1-2-2V11.71a4,4,0,0,0-4-4,2,2,0,0,1,0-4,8,8,0,0,1,8,8V60.62A2,2,0,0,1,50.4,62.62Z"/><path class="cls-7" d="M71.33,54.88a2,2,0,0,1-2-2v-9c0-3.3-2.43-6-5.42-6H50.38a2,2,0,0,1,0-4H63.91c5.19,0,9.42,4.49,9.42,10v9A2,2,0,0,1,71.33,54.88Z"/><path class="cls-7" d="M59.4,62.78a2,2,0,0,1-2-2V27.52c0-3.31-2.43-6-5.41-6H51a2,2,0,0,1,0-4h1c5.19,0,9.41,4.49,9.41,10V60.78A2,2,0,0,1,59.4,62.78Z"/><path class="cls-7" d="M29,62.78a2,2,0,0,1-2-2V45.14a2,2,0,0,1,4,0V60.78A2,2,0,0,1,29,62.78Z"/></g></g></svg>