<svg xmlns="http://www.w3.org/2000/svg" viewBox="0 0 120 120"><defs><style>.cls-1{isolation:isolate;}.cls-2{fill:none;}.cls-3{fill:#ffea27;}.cls-4{mix-blend-mode:multiply;}.cls-5{fill:#f4d314;}.cls-6{fill:#95a6b1;}</style></defs><title>29-icon_ocenza_terminal_coveñas_ubicado</title><g class="cls-1"><g id="Capa_1" data-name="Capa 1"><rect class="cls-2" width="120" height="120"/><path class="cls-3" d="M56.46,115.86H38.25a2,2,0,0,1,0-4H56.46a2,2,0,0,1,0,4Z"/><path class="cls-3" d="M78.39,115.86h-9.1a2,2,0,0,1,0-4h9.1a2,2,0,0,1,0,4Z"/><path class="cls-3" d="M91.19,115.86a2,2,0,0,1-1.85-1.23,2,2,0,0,1-.15-.77,2,2,0,0,1,.58-1.41,2,2,0,0,1,1.81-.55A1.6,1.6,0,0,1,92,112a1.66,1.66,0,0,1,.35.18,1.42,1.42,0,0,1,.3.25,2,2,0,0,1,.59,1.41,2,2,0,0,1-.15.77,2.31,2.31,0,0,1-.74.9,2.31,2.31,0,0,1-.35.18,1.58,1.58,0,0,1-.37.11A1.72,1.72,0,0,1,91.19,115.86Z"/><g class="cls-4"><path class="cls-5" d="M45.75,115.86H27.54a2,2,0,0,1,0-4H45.75a2,2,0,1,1,0,4Z"/></g><path class="cls-3" d="M72.93,103.64H27.54a2,2,0,0,1,0-4H72.93a2,2,0,0,1,0,4Z"/><g class="cls-4"><path class="cls-5" d="M27.54,103.64a2,2,0,0,1-1.41-.59,2,2,0,0,1-.44-.65,2,2,0,0,1-.15-.76,2,2,0,0,1,.59-1.42,2.48,2.48,0,0,1,.3-.25,2.31,2.31,0,0,1,.35-.18,2.29,2.29,0,0,1,.37-.12,2,2,0,0,1,.78,0,2.4,2.4,0,0,1,.38.12,1.83,1.83,0,0,1,.34.18,2.6,2.6,0,0,1,.31.25,3.61,3.61,0,0,1,.25.3,2.31,2.31,0,0,1,.18.35,2.65,2.65,0,0,1,.12.37,2.69,2.69,0,0,1,0,.4,2,2,0,0,1-2,2Z"/></g><g class="cls-4"><path class="cls-5" d="M91.19,103.64H65.43a2,2,0,0,1,0-4H91.19a2,2,0,0,1,0,4Z"/></g><path class="cls-3" d="M82.82,36.28a9.5,9.5,0,0,1-4-18.14,9.5,9.5,0,0,1,13,11.62,9.5,9.5,0,0,1-9,6.52Zm0-15a5.33,5.33,0,0,0-2.28.5,5.49,5.49,0,1,0,7.28,2.71h0a5.46,5.46,0,0,0-5-3.21Z"/><path class="cls-6" d="M43.35,90.05h-.21a2,2,0,0,1-1.69-1.38l-1.92-6.08-8.66-4.33A2,2,0,0,1,30,75.54l3.65-7L27.49,62.7a2,2,0,0,1-.63-1.45V50a2,2,0,0,1,1.55-2l12.31-2.9a2.09,2.09,0,0,1,1.11.06l10.44,3.59,9.81-9.31A2,2,0,0,1,63.54,39l7.12.31,2.41-3.1a2,2,0,1,1,3.16,2.45l-3,3.92a2,2,0,0,1-1.67.77L64.22,43,54.15,52.56a2,2,0,0,1-2,.44l-11-3.8L30.86,51.6v8.79l6.62,6.25a2,2,0,0,1,.4,2.37l-3.41,6.57,7.6,3.8a2,2,0,0,1,1,1.19l.8,2.55,3.16-5.48a2,2,0,0,1,2.13-1l3.62.73a2,2,0,0,1,1.61,2v4.26l10.35.53,1.6-13.71a2,2,0,0,1,2-1.77h8.78L87.5,42.4a1.72,1.72,0,0,1,.33-.55l5.39-6.41L95.37,14l-2.6,3.35a2,2,0,0,1-3.16-2.45l6.86-8.84A2,2,0,0,1,100,7.48l-2.9,29a2,2,0,0,1-.46,1.09L91.1,44.18,80.35,71.4a2,2,0,0,1-1.86,1.27H70.13l-1.61,13.8a2,2,0,0,1-2.09,1.77l-14.12-.72a2,2,0,0,1-1.9-2V81l-.61-.12-4.72,8.17A2,2,0,0,1,43.35,90.05Z"/></g></g></svg>