<svg xmlns="http://www.w3.org/2000/svg" viewBox="0 0 536 536"><defs><style>.cls-1{fill:#93ebe4;}.cls-2{fill:#1eadfe;}.cls-3{fill:#fff;}.cls-4{fill:#30d9cb;}.cls-5{fill:#28347d;}.cls-6,.cls-7{fill:none;stroke:#28347d;}.cls-6{stroke-linecap:round;stroke-linejoin:round;stroke-width:2.1px;}.cls-7{stroke-miterlimit:10;stroke-width:1.7px;}</style></defs><title>3-personaje-02</title><g id="Rostro2"><circle class="cls-1" cx="112.52" cy="195.38" r="57.39"/><path class="cls-2" d="M138.16,181.6a22.07,22.07,0,0,1-1.11,2.34,17.09,17.09,0,0,0-1.29-6c-.59-1.38-.49-5.05-.44-6.54s0-4.4-2.87-5.34-17.88-1.49-21.47-1.14-5.22,2.37-5.42,4.21.5,4.6-.84,7.32a43.1,43.1,0,0,0-2,8.32,31.88,31.88,0,0,1-1.47-4.21,34.82,34.82,0,0,1-1.2-7.92c0-2.72-.15-6.33,0-7.47a6,6,0,0,0-1.88,1.08,10.19,10.19,0,0,1,5.64-6.83,8.06,8.06,0,0,0-3-.64s6.58-4.16,12.13-3.81a9.68,9.68,0,0,0-3.57-1.59s7.19-1.88,13.92.1,14.21,5.35,14.46,10.65a4.68,4.68,0,0,1,2.52,2.32C141.35,168.18,140.48,175.93,138.16,181.6Z"/><path class="cls-3" d="M113.84,198c2.21.15,9.26.3,11.81.23v0c-.4.62-2.6,3-3.52,3.18a17.89,17.89,0,0,1-5.13-.2A7.76,7.76,0,0,1,113.84,198Z"/><path class="cls-3" d="M141,182.88h0a3.3,3.3,0,0,0-.09-.49h0a3.26,3.26,0,0,0-.14-.41h0a2,2,0,0,0-.19-.33h0a2,2,0,0,0-.23-.26,1.28,1.28,0,0,0-.56-.3,1.06,1.06,0,0,0-.31,0,1.24,1.24,0,0,0-.33,0l-.28.09a1.26,1.26,0,0,0-.26.13.09.09,0,0,0-.06,0,2,2,0,0,0-.26.18l0,0-.11.09a22.09,22.09,0,0,1-1.12,2.34,17.09,17.09,0,0,0-1.28-6c-.6-1.38-.5-5.05-.45-6.53s0-4.41-2.87-5.35-17.88-1.49-21.47-1.14l-.5.06a.8.8,0,0,0-.15,0l-.3.05-.3.07-.14,0-.42.12-.4.14-.12.05-.25.1-.15.08-.19.09-.32.17h0l-.29.2-.09.06h0a.09.09,0,0,0,0,0,1.55,1.55,0,0,0-.24.19l-.06,0h0l-.08.07-.23.23a4.6,4.6,0,0,0-.45.56,1.65,1.65,0,0,0-.15.25l0,0a.83.83,0,0,0-.07.13.25.25,0,0,0,0,.07,1.22,1.22,0,0,0-.1.24.61.61,0,0,0-.07.17s0,0,0,0a1.52,1.52,0,0,0-.09.25,3.46,3.46,0,0,0-.12.61c-.2,1.83.5,4.6-.84,7.33a43,43,0,0,0-2,8.31c-.15-.34-.29-.69-.43-1s-.26-.7-.38-1.05-.24-.71-.35-1.06-.21-.71-.3-1.06c0,0,0,0,0,0h0a3.3,3.3,0,0,0-.32-.4,2.09,2.09,0,0,0-.28-.24,2.2,2.2,0,0,0-.28-.18,1.25,1.25,0,0,0-.29-.1,1,1,0,0,0-.29,0c-.88,0-1.64,1-1.42,3.46,0,.3.07.63.12,1,0,.15,0,.31.08.46.07.42.15.87.25,1.33l.15.7c.08.35.16.69.25,1s.11.45.18.68c1.07,4,2.78,7.69,4.19,4.7.11,1.15.25,2.26.4,3a3.33,3.33,0,0,0,.08.39,2.23,2.23,0,0,0,.11.4,2.44,2.44,0,0,0,.2.42l.16.31.43.78c.25.44.55,1,.89,1.52s.77,1.28,1.2,2c.12.18.23.37.35.56.27.43.54.86.82,1.29.09.15.18.3.28.44.57.9,1.16,1.8,1.73,2.64l.11.15c.07.12.15.24.23.35s.22.33.34.48a34.61,34.61,0,0,0,2.16,2.9l.26.29a3.54,3.54,0,0,0,.29.28l.08.06a.59.59,0,0,0,.11.08c1.52.86,10.27.85,11.24.38a1.44,1.44,0,0,0,.22-.15l.07-.06a6,6,0,0,0,.68-.71l.17-.19v0l.09-.1a.76.76,0,0,0,.08-.11l.13-.15.07-.09.3-.38.32-.41,1-1.37.36-.5.77-1.12c.11-.14.2-.29.31-.43l.15-.23.9-1.34.36-.54a.75.75,0,0,1,.07-.12c.09-.13.17-.26.27-.39.35-.55.69-1.08,1-1.57l.46-.76.09-.15c.18-.3.34-.57.47-.82a9.45,9.45,0,0,0,.45-.87c.11-.25.22-.53.34-.85.34-.95.73-2.18,1.1-3.55.08.41.24.6.44.6l.11,0a.35.35,0,0,0,.13-.05l.13-.08a4.41,4.41,0,0,0,.93-1.05l.35-.54.18-.3c.18-.3.36-.63.55-1l.18-.35c.28-.54.55-1.12.81-1.71l.09-.2c.23-.53.45-1.06.65-1.59.1-.27.2-.53.29-.79s.18-.52.26-.77.12-.37.17-.56.1-.36.15-.53a9.11,9.11,0,0,0,.33-2.27A5.17,5.17,0,0,0,141,182.88Zm-15.38,15.35a9.8,9.8,0,0,1-.81,1l-.49.51a14.88,14.88,0,0,1-1.21,1.09l-.29.22-.27.18a2,2,0,0,1-.25.13l-.21.08a17.84,17.84,0,0,1-5.12-.2,5.91,5.91,0,0,1-1.76-1.31l-.23-.24h0c-.07-.08-.15-.16-.22-.25s-.15-.17-.22-.25a2.92,2.92,0,0,1-.21-.28c0-.07-.11-.14-.15-.21h0s0,0,0,0a2.22,2.22,0,0,1-.15-.23l-.11-.23a1,1,0,0,1-.09-.21l.93.05,1.21.05,1.71,0h.88l.9,0,.82,0,1.6,0H123c1.09,0,2,0,2.69,0Z"/><path class="cls-4" d="M130.86,208.82c.44,1,1.45,3.21,2.43,6.1,1.64,4.83,3.21,11.64,2,18.37-3.92-13.9-8.07-9.79-9.31-6.6.12-.31.24-.61.34-.89,1.58-4.16,3.33-9.09,4.22-11.76Z"/><path class="cls-4" d="M103,215.36a33.41,33.41,0,0,1,3-6.52c0,2.89,0,5.37,0,5.61h0c.93,2.9,2.87,7.92,5,13.3-2.83-7.13-8.23,2.09-9,6C100.8,225.22,101.69,219.36,103,215.36Z"/><path class="cls-3" d="M105.91,208.84c0-3.54,0-7.69,0-9.09h0c2.46,4.12,6.85,10.87,8,11.5,1.52.86,10.27.85,11.24.38s3.8-4.54,6.07-8l-.28,5.22-.3,5.22c-.89,2.67-2.64,7.6-4.22,11.76-.1.28-.22.58-.34.89,0,0,0,0,0,.07-2.45,6.49-7.55,20.41-7.55,20.41-1.49-4.16-4.7-12.12-7.57-19.42-2.12-5.38-4.06-10.4-5-13.3h0C105.89,214.21,105.91,211.73,105.91,208.84Z"/><path class="cls-4" d="M165.16,231.69c.31.5.59,1,.87,1.57,0,0,0,0,0,0a57.38,57.38,0,0,1-93.46-.47,16.15,16.15,0,0,1,2.58-2.51C81.38,225.48,96.65,219,103,215.36h0l-.16.52c-.11.36-.21.73-.31,1.12,0,.19-.09.38-.14.58s-.14.61-.2.92-.13.64-.19,1-.07.45-.11.68-.07.48-.1.73,0,.25,0,.38,0,.25,0,.38-.05.51-.07.78,0,.28,0,.43l0,.37c0,.47-.05,1-.07,1.46,0,.17,0,.34,0,.51,0,.68,0,1.38,0,2.11v.48c0,.12,0,.25,0,.37l0,.87c0,.37,0,.74.07,1.12.07,1.15.19,2.34.35,3.6a10.91,10.91,0,0,1,.32-1.2c.07-.21.15-.44.24-.67s.28-.69.44-1,.22-.48.35-.72.25-.48.38-.71.41-.71.63-1l.45-.66c1.15-1.56,2.48-2.7,3.72-2.57l.16,0a.86.86,0,0,1,.23.06,3.06,3.06,0,0,1,1.62,1.59l.15.29c.05.09.09.19.14.29l.15.36.94,2.4.27.68.16.4c.09.22.18.45.26.67s.09.2.13.3l.09.24c.24.6.48,1.19.71,1.79l.16.42c0,.09.07.17.11.25s.17.45.26.67c.44,1.1.87,2.19,1.28,3.24l.18.47s0,.05,0,.08.15.36.21.54l.06.15.21.54c.08.18.15.35.21.53l.35.9c0,.09.07.18.1.27s0,.07,0,.1c.21.53.41,1.05.59,1.55.07.18.13.35.2.52q.33.84.6,1.59c.08.25.18.49.26.72h0c0,.13.08.26.13.39v0a1.13,1.13,0,0,0,.07-.15l.08-.22.06-.17c0-.06,0-.13.07-.2l.07-.18,0,0,.09-.26a.32.32,0,0,0,0-.09,1.36,1.36,0,0,1,.09-.23s0-.09,0-.14.13-.34.19-.52a.14.14,0,0,0,0-.06l.19-.51a.08.08,0,0,0,0,0l.22-.59s0,0,0,0,.08-.21.12-.31l2.08-5.67.3-.79a.43.43,0,0,0,0-.05l.12-.33a1.12,1.12,0,0,0,.05-.13c0-.13.1-.26.14-.39h0l.31-.85c.34-.91.67-1.82,1-2.7l.16-.42.55-1.49.95-2.55c.06-.14.11-.28.16-.42l.09-.25q.12-.33.24-.63v0a0,0,0,0,0,0,0c0-.09.07-.18.11-.28l0-.12,0,0,0-.06a.14.14,0,0,1,0-.06l.12-.22c.1-.19.21-.37.32-.55l.21-.31.3-.37a4,4,0,0,1,.41-.41l.34-.28.19-.11.19-.1a1.56,1.56,0,0,1,.39-.15,1.27,1.27,0,0,1,.28-.06,1.73,1.73,0,0,1,.64,0,1.32,1.32,0,0,1,.33.08l.16.06a1.46,1.46,0,0,1,.35.18,2.12,2.12,0,0,1,.37.24l.27.24a2.37,2.37,0,0,1,.28.27l.1.1.09.11h0l0,0,.14.18h0l.09.12.08.1.16.23a.43.43,0,0,1,0,.07h0l.19.29c.13.2.26.42.39.65s.26.48.39.75.13.27.2.41.26.58.39.89c.2.48.4,1,.6,1.55s.39,1.15.59,1.79c.14.43.27.87.4,1.34a29.53,29.53,0,0,0,.38-6.61,1.15,1.15,0,0,1,0-.19.34.34,0,0,1,0-.1c0-.89-.14-1.77-.26-2.64l-.09-.66v0c0-.07,0-.14,0-.21s0-.22-.05-.33c-.12-.76-.27-1.5-.43-2.22,0-.12-.05-.24-.08-.36s-.05-.25-.08-.36,0,0,0,0a.5.5,0,0,1,0-.12l-.09-.35c-.32-1.3-.68-2.52-1.05-3.65,0-.1-.07-.2-.1-.29s-.05-.16-.08-.23h0c.86.36,1.85.75,2.93,1.18l2.58,1,1.85.7,2.9,1.1,1.24.47,2.48,1c1.24.48,2.48,1,3.67,1.46.79.32,1.57.65,2.32,1s1.19.51,1.75.77l1.37.64a30.15,30.15,0,0,1,4.09,2.26h0c.42.3.82.62,1.21,1l.39.36c.38.36.75.76,1.11,1.17.17.21.35.42.52.64a18.5,18.5,0,0,1,1.45,2.13Z"/><path class="cls-5" d="M103.53,188.11c.37,2.63.65,5.34,1.15,7.86a2.74,2.74,0,0,0,.28.79c.14.27.3.55.47.83l1,1.71c.69,1.13,1.4,2.25,2.12,3.37,1.44,2.24,2.9,4.48,4.47,6.57l.6.75a4,4,0,0,0,.54.55c.07.07.17.08.27.13l.41.11c.31.05.61.11.93.14a36.18,36.18,0,0,0,3.92.25c1.32,0,2.64,0,3.93-.1.31,0,.64-.07.91-.12s.18,0,.45-.29a16.69,16.69,0,0,0,1.22-1.44c1.59-2.09,3.09-4.3,4.54-6.52.72-1.1,1.45-2.23,2.08-3.35a22.51,22.51,0,0,0,1.42-3.57,62.61,62.61,0,0,0,2-7.68.32.32,0,0,1,.64.07,34.56,34.56,0,0,1-1.26,8c-.18.65-.37,1.3-.58,1.95a10.55,10.55,0,0,1-.81,2c-.66,1.22-1.37,2.35-2.09,3.5-1.45,2.26-3,4.47-4.64,6.62a19.5,19.5,0,0,1-1.39,1.59l-.21.2-.32.23a1.87,1.87,0,0,1-.71.26c-.4.07-.74.09-1.09.12-1.38.09-2.72.1-4.08.07a37.69,37.69,0,0,1-4.08-.25c-.34,0-.7-.1-1-.16l-.56-.14a2.74,2.74,0,0,1-.63-.29,5.15,5.15,0,0,1-.88-.85l-.66-.81c-1.65-2.18-3.1-4.42-4.54-6.69-.71-1.14-1.41-2.29-2.08-3.45-.34-.58-.68-1.16-1-1.76-.16-.3-.31-.61-.47-.93a4.14,4.14,0,0,1-.34-1.11,33.6,33.6,0,0,1-.4-4.06c-.08-1.34-.11-2.68-.11-4a.31.31,0,0,1,.32-.33A.33.33,0,0,1,103.53,188.11Z"/><path class="cls-5" d="M121.4,182.08a31.87,31.87,0,0,1,1.1,4.1c.28,1.38.51,2.76.68,4.18l.1,1.08c0,.17,0,.38,0,.57v.36a2.45,2.45,0,0,1-.08.35,1.42,1.42,0,0,1-.21.36,1.87,1.87,0,0,1-.89.54,4.65,4.65,0,0,1-.66.12,6.57,6.57,0,0,1-1.17,0,11.85,11.85,0,0,1-4.24-1.08.38.38,0,0,1-.18-.51.4.4,0,0,1,.36-.22h0c1.33.05,2.75.12,4,.1a8.61,8.61,0,0,0,.92-.07,1.53,1.53,0,0,0,.36-.07c.09,0,.13-.09,0,0a.41.41,0,0,0-.08.13s0,.17,0,.1V192c0-.15,0-.3,0-.47l-.07-1-.72-8.28v0a.35.35,0,0,1,.32-.38A.36.36,0,0,1,121.4,182.08Z"/><path class="cls-5" d="M106.78,178.52a8.39,8.39,0,0,1,2-.81,18.19,18.19,0,0,1,2-.4,17.86,17.86,0,0,1,2.06-.16,8.88,8.88,0,0,1,2.22.19,1.07,1.07,0,0,1-.15,2.1h-.19c-.46,0-1.17.09-1.8.12l-2,.07-2,0c-.64,0-1.31,0-1.88,0h-.1a.61.61,0,0,1-.63-.59A.63.63,0,0,1,106.78,178.52Z"/><path class="cls-5" d="M125,177.56a14.45,14.45,0,0,1,4.46.16,15.64,15.64,0,0,1,2.19.56,6.5,6.5,0,0,1,2.13,1.14.61.61,0,0,1-.53,1.05l-.1,0a13.45,13.45,0,0,0-1.91-.24c-.67,0-1.35-.08-2-.1-1.37,0-2.78-.09-4.1-.23H125a1.16,1.16,0,0,1,0-2.3Z"/><path class="cls-5" d="M137.11,183.61a.23.23,0,0,0-.16,0l0,0h0l0,0,.08-.12.15-.27c.1-.19.19-.39.28-.59a11.68,11.68,0,0,0,.45-1.25c.28-.85.48-1.71.69-2.57.37-1.73.75-3.48,1-5.25a39.47,39.47,0,0,0,.51-5.28,7.17,7.17,0,0,0-.08-1.25c0-.1,0-.19-.06-.26a.92.92,0,0,0-.11-.23c-.1-.18-.22-.36-.33-.54a4.5,4.5,0,0,0-1.8-1.63h0a.31.31,0,0,1-.25-.28h0a6.25,6.25,0,0,0-1.56-3.5,12.61,12.61,0,0,0-3-2.53,34.33,34.33,0,0,0-7.41-3.26,28.59,28.59,0,0,0-7.87-1.63,40.12,40.12,0,0,0-8.11.41h0l0-.5a4.45,4.45,0,0,1,2,.56,7.64,7.64,0,0,1,.86.53,5.29,5.29,0,0,1,.76.66h0a.11.11,0,0,1,0,.14l-.07,0h0a26.09,26.09,0,0,0-6.09,1.57c-2,.75-3.88,1.61-5.87,2.39h0l-.2-.55a3.39,3.39,0,0,1,1.68.06,5.07,5.07,0,0,1,1.49.6h0a.31.31,0,0,1,.14.42.29.29,0,0,1-.1.12l0,0a21.58,21.58,0,0,0-1.78,1.32,13.88,13.88,0,0,0-1.57,1.5,11.92,11.92,0,0,0-2.19,3.78h0l-.42-.2a2.49,2.49,0,0,1,.91-.78,4.37,4.37,0,0,1,1.06-.4h0a.28.28,0,0,1,.35.17s0,0,0,.07v0c.07,1.61.22,3.29.27,4.94.05.83.07,1.66.08,2.5s.09,1.61.18,2.42a39.44,39.44,0,0,0,2.31,9.51h0l-.92.17a27.69,27.69,0,0,1,.6-4.07,32.81,32.81,0,0,1,1-4,5.27,5.27,0,0,1,.21-.53l.19-.42a6.38,6.38,0,0,0,.3-.87,9.29,9.29,0,0,0,.31-1.85c.11-1.28-.1-2.58.07-4.06a5,5,0,0,1,2.56-3.55,8.68,8.68,0,0,1,4.09-1c2.72-.06,5.4,0,8.09.1s5.37.21,8.07.37a38.3,38.3,0,0,1,4.06.42,5.33,5.33,0,0,1,2.1.81,4.42,4.42,0,0,1,1.5,1.79,9.4,9.4,0,0,1,.55,4.25c0,1.32,0,2.65.06,3.93,0,.32.05.64.1.94a3.11,3.11,0,0,0,.08.44,3.44,3.44,0,0,0,.14.45,12.71,12.71,0,0,1,.33,2.09c.07.68.11,1.35.19,2,0,.33.07.66.13,1,0,.16.07.32.1.46a2,2,0,0,0,.07.19C137.21,183.68,137.32,183.69,137.11,183.61Zm-.12.67c-.37-.14-.34-.3-.41-.38l-.1-.28c0-.18-.09-.35-.13-.52l-.19-1c-.12-.66-.25-1.32-.38-2a13.07,13.07,0,0,0-.5-1.85c-.05-.09-.13-.29-.21-.48s-.12-.37-.16-.54a10.28,10.28,0,0,1-.19-1.06,24.66,24.66,0,0,1-.13-4.11,8.19,8.19,0,0,0-.37-3.66c-.8-2.27-3.95-2.21-6.51-2.59s-5.33-.44-8-.56-5.36-.15-8,0a7.74,7.74,0,0,0-3.61,1,3.84,3.84,0,0,0-1.92,2.8c-.1,1.19.1,2.58,0,4a9.69,9.69,0,0,1-.31,2.12,6.54,6.54,0,0,1-.34,1l-.21.5a3.17,3.17,0,0,0-.17.41c-.43,1.19-.74,2.51-1.07,3.79l-.46,1.94a18.19,18.19,0,0,0-.39,1.89v.06a.47.47,0,0,1-.53.41.47.47,0,0,1-.38-.29h0a31.2,31.2,0,0,1-2.67-9.75c-.09-.84-.16-1.68-.17-2.54s0-1.66,0-2.5,0-1.66.07-2.5a15.85,15.85,0,0,1,.3-2.53l.36.29h0c-.6.36-1.29.64-1.79,1l-.05,0a.23.23,0,0,1-.33-.06.2.2,0,0,1,0-.16h0a7.54,7.54,0,0,1,.66-2.29,8.67,8.67,0,0,1,1.25-2,8.16,8.16,0,0,1,1.72-1.65,7.89,7.89,0,0,1,2.12-1.09v.56h0c-1-.19-2-.55-2.86-.63h-.06a.3.3,0,0,1-.27-.33.28.28,0,0,1,.13-.21h0a17.13,17.13,0,0,1,5.77-3.09,16.93,16.93,0,0,1,3.23-.71,10.74,10.74,0,0,1,3.3.15l-.07.18h0a28.82,28.82,0,0,0-3.53-1.41h0a.26.26,0,0,1-.19-.31.28.28,0,0,1,.19-.19h0a26.67,26.67,0,0,1,8.29-1.15,22.1,22.1,0,0,1,4.2.44,32,32,0,0,1,4,1.18,33.28,33.28,0,0,1,7.56,3.63,13.62,13.62,0,0,1,3.16,2.86,6.77,6.77,0,0,1,1.5,4l-.24-.29h0a5,5,0,0,1,2.36,1.72,6,6,0,0,1,.42.57,1.35,1.35,0,0,1,.21.38,2.07,2.07,0,0,1,.12.38,7.44,7.44,0,0,1,.2,1.44,31.45,31.45,0,0,1-.32,5.5,35.52,35.52,0,0,1-1.14,5.36,25.85,25.85,0,0,1-1,2.57l-.6,1.25-.32.61-.18.32-.11.16a.73.73,0,0,1-.09.1.3.3,0,0,1-.08.07l-.08,0A.37.37,0,0,1,137,184.28Z"/><path class="cls-5" d="M118.2,203.61a4.38,4.38,0,0,1,1.42-.17,7.07,7.07,0,0,1,1.43.14l.08,0a.52.52,0,0,1,.39.62.58.58,0,0,1-.18.29,2.85,2.85,0,0,1-1.71.55,2.43,2.43,0,0,1-1.72-.58.5.5,0,0,1,0-.7.49.49,0,0,1,.23-.14Z"/><path class="cls-6" d="M112.38,182.16c0,.38-.15.68-.33.68s-.34-.3-.34-.68.15-.68.34-.68S112.38,181.78,112.38,182.16Z"/><path class="cls-6" d="M128.54,182.65c0,.38-.15.69-.34.69s-.33-.31-.33-.69.15-.68.33-.68S128.54,182.28,128.54,182.65Z"/><path class="cls-5" d="M113.41,197.56a43.86,43.86,0,0,1,6.28-.23,47.23,47.23,0,0,1,6.27.54h0a.33.33,0,0,1,.28.39.32.32,0,0,1-.26.27,19.27,19.27,0,0,1-3.17.42c-1.06.07-2.11.09-3.17.08s-2.1-.07-3.16-.18a17.71,17.71,0,0,1-3.16-.54.39.39,0,0,1-.27-.47.4.4,0,0,1,.33-.27Z"/><path class="cls-5" d="M114.14,197.87a9.93,9.93,0,0,0,2.45,2.29,2.7,2.7,0,0,0,.61.33,4.57,4.57,0,0,0,.73.11c.57.06,1.16.08,1.75.12s1.18,0,1.74,0a1.86,1.86,0,0,0,.62-.08,3.23,3.23,0,0,0,.64-.38,23.82,23.82,0,0,0,2.64-2.26l.05-.05a.39.39,0,0,1,.55,0,.41.41,0,0,1,.06.47,12.13,12.13,0,0,1-2.44,2.93,5.28,5.28,0,0,1-.87.62,3.07,3.07,0,0,1-1.15.26,13.48,13.48,0,0,1-1.9,0,15.06,15.06,0,0,1-1.88-.16,4.24,4.24,0,0,1-1-.25,3.72,3.72,0,0,1-.94-.6,9.79,9.79,0,0,1-1.32-1.42,4.72,4.72,0,0,1-.91-1.77.34.34,0,0,1,.25-.39.34.34,0,0,1,.34.13Z"/><path class="cls-5" d="M100.91,180.77c-.43-.58-1.1-.89-1.4-.59A2.43,2.43,0,0,0,99,182a21.89,21.89,0,0,0,.78,4.68,29.91,29.91,0,0,0,1.45,4.56,7.94,7.94,0,0,0,1.07,1.87,1.09,1.09,0,0,0,.2.18s0,.06,0,.05a1.89,1.89,0,0,0,.67-.59l0,0a.44.44,0,0,1,.77.41,2.26,2.26,0,0,1-.81,1.34,1.52,1.52,0,0,1-.53.23,1.69,1.69,0,0,1-.6,0,2,2,0,0,1-.83-.47,6.91,6.91,0,0,1-1.42-2.35A31.52,31.52,0,0,1,98.34,187c-.19-.82-.32-1.64-.44-2.47a12.92,12.92,0,0,1-.17-2.59,5.08,5.08,0,0,1,.25-1.36,2.44,2.44,0,0,1,.93-1.29,1.68,1.68,0,0,1,1.69,0,2.93,2.93,0,0,1,1,1,.45.45,0,0,1-.73.51Z"/><path class="cls-5" d="M138,181.38a2.71,2.71,0,0,1,1.13-.7,1.71,1.71,0,0,1,1.46.26,3.18,3.18,0,0,1,1,2.48,13.54,13.54,0,0,1-1,4.8,32.75,32.75,0,0,1-1.89,4.4,14.48,14.48,0,0,1-1.35,2,4,4,0,0,1-1,.93,1.38,1.38,0,0,1-.5.18.92.92,0,0,1-.7-.23,1.27,1.27,0,0,1-.34-.83.45.45,0,0,1,.35-.53.44.44,0,0,1,.51.28l0,.08c.05.13.16.28.14.22s-.14-.07-.16-.08,0,0,0-.05a5.5,5.5,0,0,0,.58-.76c.39-.61.75-1.29,1.09-2,.69-1.36,1.36-2.75,1.92-4.18a15.51,15.51,0,0,0,1.15-4.31,2.51,2.51,0,0,0-.49-1.8c-.37-.39-1.09-.25-1.67.18h0a.28.28,0,0,1-.36-.44Z"/><path class="cls-5" d="M106.31,199.73a46.92,46.92,0,0,1,.46,7.37c0,1.23,0,2.45-.08,3.68s-.13,2.4-.31,3.74a.51.51,0,0,1-.57.44.52.52,0,0,1-.44-.46v-.12c-.1-1.1-.18-2.41-.22-3.61s-.06-2.45-.06-3.67a64.3,64.3,0,0,1,.35-7.34h0a.44.44,0,0,1,.49-.39A.44.44,0,0,1,106.31,199.73Z"/><path class="cls-5" d="M131.74,203.64c.06.87,0,1.74,0,2.61s-.07,1.74-.14,2.61c-.14,1.74-.32,3.47-.63,5.2a.46.46,0,0,1-.52.36.45.45,0,0,1-.36-.41,48.06,48.06,0,0,1-.06-5.23c0-.87.08-1.74.15-2.61s.17-1.74.33-2.6a.6.6,0,0,1,.7-.48A.61.61,0,0,1,131.74,203.64Z"/><path class="cls-5" d="M106.43,209.08a42.77,42.77,0,0,0-2.53,5.81,32.64,32.64,0,0,0-1.41,6.11,44.48,44.48,0,0,0-.48,6.32c-.06,2.13.06,4.26.15,6.4h0l-.55,0a11,11,0,0,1,.9-3.84,13.48,13.48,0,0,1,2-3.45,7.55,7.55,0,0,1,1.55-1.48,3.63,3.63,0,0,1,2.39-.68,3,3,0,0,1,2.06,1.4,5.41,5.41,0,0,1,.71,2,.39.39,0,0,1-.32.46.39.39,0,0,1-.39-.15l0,0a10.48,10.48,0,0,0-1.1-1.36,1.65,1.65,0,0,0-1.09-.52,2.33,2.33,0,0,0-1.15.48,8.87,8.87,0,0,0-1.2,1.12,21.65,21.65,0,0,0-2.09,2.92,22.91,22.91,0,0,0-1.7,3.26l0,0a.29.29,0,0,1-.37.15.26.26,0,0,1-.16-.21h0c-.19-1.07-.37-2.13-.51-3.21s-.24-2.15-.27-3.24a37.56,37.56,0,0,1,.2-6.53,29.63,29.63,0,0,1,1.47-6.41,27.08,27.08,0,0,1,1.3-3c.51-1,1.07-1.93,1.62-2.81l0,0a.57.57,0,0,1,1,.55Z"/><path class="cls-5" d="M125.51,226.58a7.59,7.59,0,0,1,.95-2.07,4.06,4.06,0,0,1,2-1.58,3,3,0,0,1,2.66.42,6.28,6.28,0,0,1,1.66,1.72,6.9,6.9,0,0,1,.58,1c.17.32.37.64.51,1a21.67,21.67,0,0,1,.77,2,27.32,27.32,0,0,1,1,4.15l-.63,0a41.38,41.38,0,0,0,0-6.2,46.86,46.86,0,0,0-.95-6.1q-.69-3-1.63-6c-.62-2-1.3-3.93-2-5.94a.47.47,0,0,1,.29-.6.48.48,0,0,1,.56.21h0A39.56,39.56,0,0,1,134,214.4a38.46,38.46,0,0,1,1.75,6.17,33.57,33.57,0,0,1,.66,6.4,25.82,25.82,0,0,1-.8,6.38.32.32,0,0,1-.4.23.33.33,0,0,1-.22-.18v0l-1.65-3.85a20.49,20.49,0,0,0-1.93-3.52,4.67,4.67,0,0,0-1.23-1.3,1.43,1.43,0,0,0-1.32-.31,4.89,4.89,0,0,0-2.43,2.53h0a.5.5,0,0,1-.93-.36Z"/><path class="cls-5" d="M103,215.81h0l.22-.06a77.23,77.23,0,0,1-7.65,4.45c-2.61,1.35-5.23,2.65-7.86,3.93s-5.23,2.6-7.81,4c-1.27.69-2.53,1.41-3.74,2.19a17.32,17.32,0,0,0-3.35,2.7.27.27,0,0,1-.37,0,.26.26,0,0,1,0-.34,15.46,15.46,0,0,1,3.1-3.26,43.75,43.75,0,0,1,3.65-2.58c2.49-1.6,5.08-3,7.7-4.38s5.26-2.63,7.91-3.87l8-3.58.07,0a.39.39,0,0,1,.15,0h0a.45.45,0,0,1,.41.49A.46.46,0,0,1,103,215.81Z"/><path class="cls-5" d="M133.48,214.48c2.33.77,4.64,1.59,7,2.4s4.62,1.69,6.94,2.56,4.58,1.85,6.84,2.87a38.55,38.55,0,0,1,6.62,3.56l-.38-.12h.07a.53.53,0,0,1,.33.12c.47.4,1,.78,1.41,1.2s.84.9,1.25,1.35a11.85,11.85,0,0,1,1.06,1.49l1,1.53-.06.56a.47.47,0,0,0,.1-.16.5.5,0,0,0,0-.2.47.47,0,0,0-.18-.32.45.45,0,0,0-.27-.09l.39.23.81,1.65a.38.38,0,0,1-.18.51.37.37,0,0,1-.48-.15l0,0-.92-1.53.39.23a.45.45,0,0,1-.27-.09.47.47,0,0,1-.18-.33.53.53,0,0,1,0-.2.52.52,0,0,1,.11-.17l-.06.56-1-1.4a10,10,0,0,0-1.09-1.33c-.42-.39-.79-.81-1.22-1.19s-.9-.69-1.34-1l.39.12h0a.59.59,0,0,1-.35-.09l0,0a48.32,48.32,0,0,0-6.49-3.2c-2.24-1-4.54-1.83-6.83-2.72s-4.58-1.77-6.87-2.71l-3.41-1.42c-1.13-.5-2.26-1-3.38-1.54a.48.48,0,0,1-.22-.65.47.47,0,0,1,.58-.25Z"/><path class="cls-5" d="M105.83,212.33a42.94,42.94,0,0,0,1.49,4.29c.54,1.44,1.11,2.88,1.68,4.32l3.37,8.64c1.09,2.9,2.23,5.78,3.28,8.7s2.11,5.83,3,8.81h-.45c.89-3,1.87-5.92,2.86-8.86s2-5.86,3.12-8.76,2.14-5.81,3.24-8.7,2.19-5.82,3.19-8.68l0,0a.53.53,0,0,1,1,.32c-.84,3.06-1.84,5.95-2.87,8.89s-2.15,5.83-3.21,8.74-2.21,5.78-3.33,8.67-2.32,5.75-3.59,8.58h0a.23.23,0,0,1-.31.12.21.21,0,0,1-.13-.13h0l-3.64-8.54c-1.22-2.85-2.37-5.72-3.57-8.58s-2.29-5.76-3.38-8.67c-.53-1.46-1.05-2.92-1.56-4.39a34,34,0,0,1-1.26-4.57.52.52,0,0,1,.43-.61.54.54,0,0,1,.59.38Z"/><circle class="cls-7" cx="119.46" cy="199.74" r="57.39"/></g></svg>