<svg xmlns="http://www.w3.org/2000/svg" viewBox="0 0 536 536"><defs><style>.cls-1{fill:#93ebe4;}.cls-2{fill:#30d9cb;}.cls-3{fill:#28b8ce;}.cls-4{fill:#fff;}.cls-5{fill:#1eadfe;}.cls-6{fill:#28347d;}.cls-7,.cls-8{fill:none;stroke:#28347d;stroke-width:1.7px;}.cls-7{stroke-linecap:round;stroke-linejoin:round;}.cls-8{stroke-miterlimit:10;}</style></defs><title>3-personaje-01</title><g id="Rostro3"><circle class="cls-1" cx="210.77" cy="84.97" r="57.39"/><path class="cls-2" d="M188.36,131.48a54.67,54.67,0,0,1-7.87-5c1.76-7.12,4-13.44,6.76-15.51,5.44-4.14,10.84-5.49,15.21-7.24-.19.21-.4.42-.61.64l-.61.63c-.16.19-.34.37-.52.56l-.12.13h0c-.1.11-.22.23-.33.36l-.31.33-.65.68-.65.71-.64.69-.62.69-.6.68-.34.39-.65.76c-.3.36-.58.72-.85,1.06-.09.12-.19.24-.27.36s-.35.46-.51.69-.21.31-.3.46-.23.35-.32.51h0l2.18,1.66-2.46.87h0a.51.51,0,0,1,0,.11l0,.1a.31.31,0,0,1,0,.08,0,0,0,0,1,0,0c-.06.2-.16.49-.28.85a.08.08,0,0,0,0,0l-.19.56,0,.08-.09.27a.3.3,0,0,1,0,.1c-.12.36-.26.75-.4,1.17-.07.22-.15.44-.22.67s-.15.47-.23.72a1.59,1.59,0,0,0-.07.2c0,.11-.08.22-.11.33l-.18.54-.14.41c-.05.14-.09.28-.14.42s-.07.21-.1.32-.06.19-.1.29c-.29.9-.61,1.87-.93,2.88,0,.13-.09.26-.13.39l-.09.29c-.08.22-.15.45-.22.68l0,.1,0,.1a2.25,2.25,0,0,0-.08.24c-.08.24-.16.48-.23.72-.23.72-.47,1.46-.7,2.21"/><path class="cls-2" d="M206,101c0,.31,0,.64,0,1s0,.33,0,.5,0,.41,0,.61l-.08.12-.09.14c-.06.1-.13.21-.2.34s-.16.27-.25.42l-.13.23-.14.26,0,.06c-.07.15-.16.3-.25.46-.32.6-.7,1.31-1.12,2.12l-.42.81-.14.28-.59,1.17a0,0,0,0,1,0,0l-.64,1.28-.55,1.12h0l-.12.25-.64,1.32c-.06.15-.14.3-.21.45-.16.35-.33.7-.5,1.06-1.24,2.65-2.57,5.59-3.9,8.71-.26.62-.53,1.23-.79,1.86-.57,1.38-1.15,2.78-1.72,4.21-.23.58-.46,1.16-.68,1.75l-.68,1.76c-1.25-.55-2.48-1.14-3.68-1.78.23-.75.47-1.49.7-2.21.07-.24.15-.48.23-.72a2.25,2.25,0,0,1,.08-.24l0-.1s0-.06,0-.1h0a2.76,2.76,0,0,0,.08-.27c0-.14.08-.28.13-.41h0l.09-.29a2.91,2.91,0,0,1,.12-.39h0c.32-1,.64-2,.93-2.88l.09-.29h0c0-.11.07-.21.1-.32s.09-.28.14-.42l.14-.41c0-.11.07-.22.1-.32s.05-.15.07-.22h0c0-.11.07-.22.11-.33l.06-.2h0c.08-.25.16-.49.23-.72s.15-.45.22-.67c.14-.42.28-.81.4-1.17l0-.1h0l.09-.27a.31.31,0,0,0,0-.08h0c0-.09.05-.18.08-.26a.14.14,0,0,1,0-.06q0-.14.09-.24s0,0,0,0h0c.12-.36.22-.65.28-.85h0a.31.31,0,0,0,0-.08l0-.1a.51.51,0,0,0,0-.11h0l2.46-.87-2.18-1.66h0c.09-.16.2-.33.32-.51s.19-.3.3-.46.33-.46.51-.69.18-.24.27-.36c.27-.34.55-.7.85-1.06l.65-.76.34-.39.6-.68.62-.69.64-.69.65-.71.65-.68.31-.33.35-.37.12-.13c.18-.19.36-.37.52-.56l.61-.63c.21-.22.42-.43.61-.64l1.47-1.55c.09-.09.17-.19.25-.28l.19-.2c.3-.32.58-.63.82-.91l.42-.48.17-.21.16-.2h0c0,.21,0,.42,0,.64A3.65,3.65,0,0,1,206,101Z"/><path class="cls-3" d="M192.05,133.27l.68-1.76c.22-.59.45-1.17.68-1.75.57-1.43,1.15-2.83,1.72-4.21.26-.63.53-1.24.79-1.86,1.33-3.12,2.66-6.06,3.9-8.71.17-.36.34-.71.5-1.06.07-.15.15-.3.21-.45l.64-1.32.12-.25c0,.1,0,.21,0,.31s0,.07,0,.1a5.84,5.84,0,0,0,1,2.38l.23.3a6.47,6.47,0,0,0,.5.56c.17.17.34.34.53.5l0,0c.18.15.37.29.56.43a3.81,3.81,0,0,0,.41.29l.13.08a10.73,10.73,0,0,0,1,.56l.4.18.42.18.42.16c.34.11.7.22,1.06.31l.32.08.29.06c.22,0,.45.09.68.12l.51.06.51,0,.39,0,.6,0c3.59,0,7.84-1.26,12.25-4.62-.1.25-.2.5-.29.76s-.25.62-.37.93c-.22.55-.44,1.1-.66,1.67l-.18.46-1,2.66c-.08.2-.16.41-.25.62s-.17.42-.25.64-.17.46-.26.69c-.39,1-.78,2-1.16,3h0l-.24.6-.24.65c-.23.58-.45,1.17-.67,1.77-.12.33-.25.66-.37,1-.27.71-.53,1.43-.8,2.15s-.45,1.25-.68,1.88c-.31.86-.61,1.72-.91,2.58-.16.47-.33.94-.49,1.42l-.18.54a56.81,56.81,0,0,1-22.52-4.83"/><path class="cls-2" d="M223.87,137.45a58.43,58.43,0,0,1-8.73.66h-.56l.18-.54c.16-.48.33-.95.49-1.42.3-.86.6-1.72.91-2.58.23-.63.45-1.26.68-1.88s.53-1.44.8-2.15c.12-.34.25-.67.37-1,.22-.6.44-1.19.67-1.77l.48-1.25h0c.38-1,.77-2,1.16-3,.09-.23.18-.46.26-.69l.12-.28.13-.36c.09-.21.17-.42.25-.62l1-2.66.18-.46c.22-.57.44-1.12.66-1.67.12-.31.24-.62.37-.93s.19-.51.29-.76a1.11,1.11,0,0,1,.07-.16c.16-.41.32-.81.47-1.21s.35-.89.52-1.33l.06-.14c.12-.29.23-.59.34-.87l.33-.85c.1-.24.19-.48.28-.72s.25-.62.36-.93c.23-.57.44-1.13.65-1.68.08-.23.17-.45.25-.67s.18-.47.26-.7.18-.47.27-.71a.64.64,0,0,0,0-.07c.09-.24.18-.47.26-.7.46-1.26.87-2.42,1.2-3.45l0-.14.05-.17h0c.09-.28.18-.55.26-.81,0,0,0-.1,0-.15l0-.09.12-.43s0,0,0-.06l.06-.23c.06-.23.12-.45.17-.66-.09-.63-.17-1.23-.24-1.81,0,0,0-.09,0-.14h0c.3.3.77.74,1.34,1.26l.52.47c.93.85,2,1.85,3,2.79.14.13.27.27.4.4l0,0c.25.25.48.49.7.73l.08.09.17.19c.06.06.11.13.16.19a3.33,3.33,0,0,1,.26.32s0,0,0,0a3.41,3.41,0,0,1,.49.79c.6,1.58-3.58,12.4-3.58,12.4l-4.63,1.41,3.37,1.74h0a0,0,0,0,0,0,0,.64.64,0,0,0-.06.14c0,.08-.07.18-.13.31s-.12.29-.19.46-.07.18-.11.28h0l0,.08-.09.23a.25.25,0,0,1,0,.07,1.8,1.8,0,0,1-.08.21s0,0,0,.06l0,0-.12.29a.08.08,0,0,1,0,0l0,0-.15.38-.18.43q-.19.44-.39.93l-.21.51q-.21.49-.42,1c-.15.35-.3.72-.45,1.09s-.31.76-.48,1.16-.33.8-.5,1.22c-.09.21-.18.42-.26.63-.18.43-.35.86-.53,1.3l-.51,1.25c0,.14-.11.29-.17.43h0c-.11.29-.22.57-.34.86l-1.07,2.63-.72,1.79c-.1.24-.2.48-.29.72s-.21.53-.31.8"/><path class="cls-2" d="M261,115.28a57.35,57.35,0,0,1-37.08,22.17c.1-.27.21-.53.31-.8s.19-.48.29-.72c1-2.39,1.93-4.76,2.82-7,.18-.44.36-.87.53-1.3.08-.21.17-.42.26-.63l.5-1.22c.17-.4.33-.78.48-1.16s.31-.74.45-1.09.29-.69.42-1l1.89-4.53h0l-3.37-1.74,4.63-1.41s4.18-10.82,3.58-12.4l1.12.52,1.55.69,1.23.54,1.36.6,1.46.63,1.53.67c4.68,2.06,10,4.44,12.7,6A11.35,11.35,0,0,1,261,115.28Z"/><path class="cls-4" d="M205.94,103.05c0-1.08,0-2.15,0-3.18a81.83,81.83,0,0,0-1.38-11,45.58,45.58,0,0,0,7.14,5.85c2,1,7.1.62,8.26,0,2.53-1.33,7.51-7.25,9.55-10a51.69,51.69,0,0,0,0,10.42c.06.62.15,1.27.25,2-.79,3.35-3.23,9.56-6.13,16.93-11.48,8.75-21.86,3.38-22.33-2.15h0C203.51,107.32,205.27,104.06,205.94,103.05Z"/><path class="cls-2" d="M200.26,81.93h0a2,2,0,0,1-4-.6,2,2,0,0,1,.63-1.46,2,2,0,0,1,1.4-.57,2,2,0,0,1,1.56.73C200,80.69,200.12,81.33,200.26,81.93Z"/><path class="cls-2" d="M233.61,78.29A2,2,0,1,1,231,81.07c.13-.71.24-1.52.33-2.33h0a2.05,2.05,0,0,1,1.47-.63A1.89,1.89,0,0,1,233.61,78.29Z"/><path class="cls-5" d="M196.91,79.87a2,2,0,0,0-.63,1.46,2,2,0,0,0,4,.6h0a18.52,18.52,0,0,0,.73,2.6,17,17,0,0,0,3.57,4.37,81.83,81.83,0,0,1,1.38,11c-.41.52-1,1.21-1.76,2l-1.07-1.36c-1.09-2.12-3.08,2-3.08,2-.85-1.36.25-3.81.2-5.35s-1.52-3.19-2.34-.91a16.18,16.18,0,0,1-2.82,4.51,4.45,4.45,0,0,0,.05-4.51c-.93-2-.17-6.63-.55-8.1s-1.68-.93-2,2.18a13.18,13.18,0,0,1-2.44,5.92c.32-.87.76-4-.27-5.65s-.88-3.86-.28-6.46a25.49,25.49,0,0,0,0-7c-1.05.37-2.36,6.62-2.44,7,.21-1-.22-2.12-1.09-4.4S187.18,75,188.65,72a12.38,12.38,0,0,0,1.19-5.9c-1.14.26-3.75,5.9-3.75,5.9.06-3.06,2-6.34,1.36-8.63a6.62,6.62,0,0,1,1.69-6.46c1.79-2,2.22-5,3.53-7.56s3.32-2.23,3.75-4.84,2.17-6.09,4.79-6.53,3.42-.65,5.83-3.1,6.6-2.83,8.75.6c3-3.22,8.51-2.7,12.26.4s7.58,4.77,9.59,9.11,1.9,5.28,4.08,7.46,1.3,7.45,3,12.78a10.13,10.13,0,0,1-3.05-3.32c-.76-1.74.49,4.89,2.5,7.61s2.72,4.35,2.23,6.58-1,4.24-.27,6.52a17.18,17.18,0,0,1-2.17-5,4.78,4.78,0,0,0-1.25-2.92c-.44-.64-.82,2.84.1,5.78s1.53,5,1.25,6.74,1.25,3.49.93,5.66c0,0-2.12-1.69-2.56-3.37a5.8,5.8,0,0,0-1.52-2.88,9.39,9.39,0,0,0,.11,5.81c1.14,2.61,1.85,2.61,1.2,5.17A10.34,10.34,0,0,0,240.36,95c-1-.92-.77,2.12-.11,5.39A3.44,3.44,0,0,0,238.51,99c-1.36-.6-2.07,1.85-2.07,2.12l-.55.21c-1.65-2-5.3-5-6.39-6.16a51.69,51.69,0,0,1,0-10.42c.37-.5.64-.9.79-1.14a9.5,9.5,0,0,0,.68-2.54,2,2,0,1,0,2.63-2.78c1.82-4.06,2.27-13-1.46-10,0,0-.06-5-.22-9.13s-1.23-8.73-6-11.09c-4-2-8.43-2.18-10.45-1-2.17-1.47-8.15-1.26-9.84.22s-.59,3.31-2.33,4.51-.93,2.82-2.56,4.84.11,4-2.34,5.43-.59,6.95-.59,6.95c-4.2-3.84-4.17,7.17-.93,10.84Z"/><path class="cls-4" d="M222.43,82.34a13.65,13.65,0,0,1-4,3.37,7.53,7.53,0,0,1-4,0,10.55,10.55,0,0,1-4.17-3.37C212.28,82.27,220.65,82.19,222.43,82.34Z"/><path class="cls-4" d="M232.15,68.27s0-1.27-.05-3c0-.44,0-.92,0-1.41,0-.31,0-.63,0-1s0-.4,0-.6v-.14c0-.44,0-.9-.05-1.34s0-.59,0-.88l0-.78c-.16-4.07-1.22-8.73-6-11.09a15.51,15.51,0,0,0-8-1.67,7.76,7.76,0,0,0-.92.14,5,5,0,0,0-1.51.55,2.2,2.2,0,0,0-.26-.15l-.08,0-.35-.16-.4-.14h0a5.15,5.15,0,0,0-.56-.16,1.22,1.22,0,0,0-.26-.06,5.86,5.86,0,0,0-.63-.12l-.5-.06-.54,0-.55,0c-.31,0-.62,0-.93,0H210l-.52,0-.62.07-.39.05-.37.07-.35.07a6.17,6.17,0,0,0-.65.17l-.3.1-.28.11-.49.24a2.55,2.55,0,0,0-.4.28,3,3,0,0,0-.66.8,1,1,0,0,0-.1.21,2.87,2.87,0,0,0-.15.37,1.92,1.92,0,0,0-.09.32c0,.12-.06.24-.09.36l-.06.3,0,.13a1.4,1.4,0,0,1-.06.28,2.68,2.68,0,0,1-.07.27l-.06.2a1.34,1.34,0,0,1-.07.18h0l-.11.22a1.4,1.4,0,0,1-.1.16,2.39,2.39,0,0,1-.25.33l-.07.07-.07.08h0l-.12.1a1.09,1.09,0,0,1-.17.13c-.11.08-.21.15-.3.23a2.72,2.72,0,0,0-.24.24.7.7,0,0,0-.14.17l-.05.06a1.58,1.58,0,0,0-.15.24l0,0a0,0,0,0,0,0,0l-.09.18a1.54,1.54,0,0,0-.08.19,1.07,1.07,0,0,0-.07.19c-.06.18-.11.36-.17.55s-.1.41-.17.62a3,3,0,0,1-.1.33,4.18,4.18,0,0,1-.27.68,6.82,6.82,0,0,1-.41.72l-.28.37a4.44,4.44,0,0,0-.27.38l-.14.25,0,0c0,.06,0,.11-.07.17h0v0c0,.07,0,.13-.07.19a.14.14,0,0,0,0,.07,2,2,0,0,0-.07.23.29.29,0,0,0,0,.09v0a5.55,5.55,0,0,0-.11.79c0,.19,0,.39,0,.58l0,.28a1.11,1.11,0,0,0,0,.17,5,5,0,0,1-.14.67,2.44,2.44,0,0,1-.1.24l-.12.23-.14.21a1,1,0,0,1-.13.16,3.27,3.27,0,0,1-.81.64c-2.45,1.41-.6,6.95-.6,6.95-4.2-3.84-4.16,7.17-.93,10.84h0a1.71,1.71,0,0,1,.26-.21l.17-.1a1.36,1.36,0,0,1,.33-.14l.23-.07h0a1.75,1.75,0,0,1,.4,0l.28,0a1.27,1.27,0,0,1,.28.06l.19.07a1.77,1.77,0,0,1,.31.15,1.56,1.56,0,0,1,.34.27,1.06,1.06,0,0,1,.15.15h0c.06.33.12.65.19,1s.13.62.2.92h0c.11.51.23,1,.35,1.42,0,.09,0,.18.08.27a3.58,3.58,0,0,0,.11.35l.06.18c0,.13.08.26.13.38s.07.16.11.25a1.82,1.82,0,0,0,.15.27l.18.29.21.31h0l.25.33.13.17c.05,0,.09.11.14.17l.3.36c.21.24.43.49.67.74l.37.39.38.39c.22.23.44.46.68.68a44.31,44.31,0,0,0,7.14,5.86l.25.11.16.06a5,5,0,0,0,.62.18l.18,0h0l.39.07.57.07a1.87,1.87,0,0,0,.34,0h.32c.21,0,.42,0,.64,0h1.42l.34,0a6,6,0,0,0,.61-.06h0l.62-.07.56-.09.24,0h0l.23-.05.17,0,.09,0,.09,0a1,1,0,0,0,.21-.08l.14-.06.32-.19.1-.06,0,0h0l0,0a.24.24,0,0,0,.09-.06c.15-.09.3-.21.46-.33l.28-.22a3.07,3.07,0,0,0,.29-.24l0,0,.31-.27h0s0,0,0,0l.22-.2.16-.14.09-.09.1-.09.71-.69.34-.34.16-.17c.27-.28.55-.57.82-.87a1.29,1.29,0,0,0,.16-.17l.81-.88,1.16-1.35c.13-.14.25-.29.37-.44l.61-.73.11-.13.16-.2c.62-.77,1.16-1.46,1.58-2h0c.2-.26.36-.49.49-.68l.13-.2,0,0,.13-.21a2.63,2.63,0,0,0,.17-.37,11,11,0,0,0,.48-2,1.77,1.77,0,0,1,0-.2c0-.15,0-.3.07-.46s.05-.28.07-.42l0-.25,0-.17,0-.22a1.49,1.49,0,0,0,0-.21h0c0-.15,0-.29.05-.44a.77.77,0,0,0,0-.15,2,2,0,0,1,1.47-.63,2,2,0,0,1,.82.17C235.43,74.22,235.88,65.29,232.15,68.27ZM222.34,82.5h0l-.14.19-.16.18-.25.26-.25.25-.28.25-.61.52h0l-.16.13-.16.12h0l-.32.24-.61.45a7.82,7.82,0,0,1-1,.59,7.6,7.6,0,0,1-4,0,3.82,3.82,0,0,1-.61-.27l-.34-.19c-.24-.14-.48-.3-.73-.48a12.46,12.46,0,0,1-1.1-.88c-.18-.17-.37-.34-.54-.52l-.36-.39s0,0,0,0h0l0,0-.08-.09a53.43,53.43,0,0,0-.38-.51h.24l.65,0h.75l1.47,0h.46c2,0,4.25,0,6,0h1.25l.57,0h.44l.34,0A.89.89,0,0,1,222.34,82.5Z"/><path class="cls-6" d="M216.92,66.26a34,34,0,0,1,1.25,3.86c.36,1.3.68,2.61.93,3.94.13.66.26,1.32.35,2a3.51,3.51,0,0,1,.05.59,1.26,1.26,0,0,1-.47.93,2.55,2.55,0,0,1-1.25.49,7.09,7.09,0,0,1-2.16,0,7.43,7.43,0,0,1-1-.23,3.48,3.48,0,0,1-1-.47.31.31,0,0,1-.07-.45.32.32,0,0,1,.34-.12h.06a7.58,7.58,0,0,0,1.83.15,9,9,0,0,0,1.83-.16,1.59,1.59,0,0,0,.61-.22s0,0,0,.07a3.58,3.58,0,0,0,0-.41c-.06-.62-.18-1.28-.29-1.93l-.74-3.92c-.27-1.3-.51-2.62-.81-3.9h0a.34.34,0,0,1,.25-.41A.35.35,0,0,1,216.92,66.26Z"/><path class="cls-6" d="M220.8,61.81a8.33,8.33,0,0,1,2.22-.42,14.27,14.27,0,0,1,2.17,0,11.48,11.48,0,0,1,2.16.43,5.48,5.48,0,0,1,2,1.08.44.44,0,0,1,0,.63.46.46,0,0,1-.44.14l0,0a10.3,10.3,0,0,0-1.87-.2c-.64,0-1.29,0-1.94,0l-2,.1-1.85.13h-.12a1,1,0,0,1-.39-1.95Z"/><path class="cls-6" d="M199,73.25c.5,2.49,1,5,1.52,7.45a24.51,24.51,0,0,0,1,3.56,12.57,12.57,0,0,0,2.15,2.82,55.71,55.71,0,0,0,5.55,5.08,17.64,17.64,0,0,0,1.53,1.08,11.65,11.65,0,0,0,1.47.87,9.78,9.78,0,0,0,3.44.55,13.23,13.23,0,0,0,3.52-.57,1.54,1.54,0,0,0,.3-.12l.34-.2a6.33,6.33,0,0,0,.71-.48c.47-.37.95-.76,1.41-1.17a35.71,35.71,0,0,0,5.11-5.52l2.19-3,.24-.35.15-.28a7.71,7.71,0,0,0,.26-.81c.16-.58.29-1.19.41-1.8.45-2.46.86-5,1.22-7.48v0a.23.23,0,0,1,.26-.2.24.24,0,0,1,.21.22,49.48,49.48,0,0,1-.25,7.7c-.07.64-.16,1.29-.29,1.95a9,9,0,0,1-.26,1,3.79,3.79,0,0,1-.26.58l-.28.44a30.16,30.16,0,0,1-2.45,3c-1.74,1.89-3.34,3.88-5.15,5.75a19,19,0,0,1-1.46,1.35c-.28.2-.52.42-.84.61-.16.1-.3.2-.47.29a3.19,3.19,0,0,1-.6.22,16.88,16.88,0,0,1-4,.33,11.46,11.46,0,0,1-4.08-.47,7.22,7.22,0,0,1-1.76-1.14c-.51-.41-1-.84-1.48-1.25A62.28,62.28,0,0,1,202.74,88a16.85,16.85,0,0,1-1.28-1.5,7.62,7.62,0,0,1-1.09-1.79,26.54,26.54,0,0,1-.89-3.81c-.42-2.53-.66-5.07-.88-7.6a.22.22,0,0,1,.2-.24A.23.23,0,0,1,199,73.25Z"/><path class="cls-6" d="M210.55,82.12a14.4,14.4,0,0,0,2.73,2.17,5.9,5.9,0,0,0,1.45.69,6.77,6.77,0,0,0,1.61.19,6.68,6.68,0,0,0,1.6-.12,5.91,5.91,0,0,0,1.4-.75c.5-.32,1-.66,1.48-1a8.8,8.8,0,0,0,1.31-1.09l.07-.07a.32.32,0,0,1,.45,0,.33.33,0,0,1,.08.36,5.94,5.94,0,0,1-1.17,1.65,15.72,15.72,0,0,1-1.4,1.3,8.73,8.73,0,0,1-.77.59,3.81,3.81,0,0,1-1,.53,6.87,6.87,0,0,1-2.06.25,7.49,7.49,0,0,1-2-.28,6.25,6.25,0,0,1-1.82-1,8.75,8.75,0,0,1-2.57-2.93.4.4,0,0,1,.18-.54.41.41,0,0,1,.47.08Z"/><path class="cls-6" d="M215.31,88.09a7.56,7.56,0,0,1,1.44-.14,4.59,4.59,0,0,1,1.41.15l.2.07a.44.44,0,0,1,.29.56.46.46,0,0,1-.14.21,2.68,2.68,0,0,1-1.74.57,3.37,3.37,0,0,1-1.73-.42.53.53,0,0,1,.15-1Z"/><path class="cls-7" d="M225,67.69c0,.38-.15.69-.33.69s-.34-.31-.34-.69.15-.68.34-.68S225,67.32,225,67.69Z"/><path class="cls-7" d="M208.39,68.08c0,.38-.15.68-.33.68s-.34-.3-.34-.68.15-.68.34-.68S208.39,67.7,208.39,68.08Z"/><path class="cls-6" d="M222.4,82.69a41.17,41.17,0,0,1-6.07.49,31.35,31.35,0,0,1-6.1-.46.4.4,0,0,1-.31-.46.39.39,0,0,1,.28-.3,18,18,0,0,1,3.06-.49c1-.1,2-.13,3.06-.13s2,0,3.06.14a16.64,16.64,0,0,1,3.08.51.35.35,0,0,1,.24.44.33.33,0,0,1-.28.25Z"/><path class="cls-6" d="M205,88.83A37.65,37.65,0,0,1,206.53,97a31.41,31.41,0,0,1-.37,8.38.38.38,0,0,1-.45.3.37.37,0,0,1-.31-.38,74,74,0,0,0-.41-8.16c-.28-2.71-.73-5.4-.83-8.2a.41.41,0,0,1,.4-.42.4.4,0,0,1,.4.28Z"/><path class="cls-6" d="M230,84.79c0,1,0,2.06,0,3.09l0,3.06c0,2,.11,4.06.21,6.12a.46.46,0,0,1-.44.49.48.48,0,0,1-.48-.35,27.88,27.88,0,0,1-.81-6.25c0-1,0-2.1.11-3.14s.21-2.07.4-3.1a.52.52,0,0,1,1,.08Z"/><path class="cls-6" d="M200.64,82.05a2.4,2.4,0,0,1-2.46,2,2.7,2.7,0,0,1-2.6-2.13,2.64,2.64,0,0,1,1.57-3,2.33,2.33,0,0,1,2.93.93.29.29,0,0,1-.12.39.27.27,0,0,1-.3,0h0a1.72,1.72,0,0,0-1.93-.12,1.43,1.43,0,0,0-.66,1.5,1.38,1.38,0,0,0,1.18,1.11,1.71,1.71,0,0,0,1.63-.89v0a.41.41,0,0,1,.56-.15A.41.41,0,0,1,200.64,82.05Z"/><path class="cls-6" d="M231,78.46a1.9,1.9,0,0,1,1.28-1,2.6,2.6,0,0,1,1.71.19,2.75,2.75,0,0,1-.77,5.21,2.29,2.29,0,0,1-2.59-1.59.39.39,0,0,1,.29-.47.4.4,0,0,1,.35.09l0,0a1.84,1.84,0,0,0,1.69.54,1.31,1.31,0,0,0,.33-2.43,1.41,1.41,0,0,0-.79-.16,3.28,3.28,0,0,0-.93.18l-.07,0a.43.43,0,0,1-.55-.28A.47.47,0,0,1,231,78.46Z"/><path class="cls-6" d="M196.7,80.05a8.42,8.42,0,0,1-1.95-3.27,15.2,15.2,0,0,1-.82-3.71,9.53,9.53,0,0,1,.36-3.93,3,3,0,0,1,.61-1,1.77,1.77,0,0,1,1.31-.57,2.93,2.93,0,0,1,2,1.09l-.81.53a24.47,24.47,0,0,1-.59-4.35,4.78,4.78,0,0,1,.48-2.29,2.75,2.75,0,0,1,.9-1,2.73,2.73,0,0,0,.63-.58,2.7,2.7,0,0,0,.45-1.61,5.6,5.6,0,0,1,.48-2.31,5.75,5.75,0,0,1,.68-1,4.17,4.17,0,0,0,.54-.78,8.85,8.85,0,0,0,.71-1.91,3.75,3.75,0,0,1,1.35-2A2.14,2.14,0,0,0,204,50a6,6,0,0,1,.35-1.1,4.25,4.25,0,0,1,.67-1,5.37,5.37,0,0,1,2-1.34,13.57,13.57,0,0,1,4.37-1,10.79,10.79,0,0,1,2.26.1,5.63,5.63,0,0,1,2.28.8l-.76,0a7.62,7.62,0,0,1,4.43-.73,21.28,21.28,0,0,1,4.21.88,16.69,16.69,0,0,1,3.92,1.8,10,10,0,0,1,3,3.19,15.79,15.79,0,0,1,1.9,8.33c0,2.78,0,5.56-.11,8.34l-.61-.29h0a2.07,2.07,0,0,1,1.78-.92,1.71,1.71,0,0,1,1.1.62,2.87,2.87,0,0,1,.48.91,10.12,10.12,0,0,1,.37,3.45,19.28,19.28,0,0,1-.46,3.3,13.65,13.65,0,0,1-1.08,3.17.55.55,0,0,1-1-.43v0A20.49,20.49,0,0,0,234.27,72a8.59,8.59,0,0,0-.25-3,1.15,1.15,0,0,0-.5-.72,2.09,2.09,0,0,0-1.14.25h0a.35.35,0,0,1-.51,0,.33.33,0,0,1-.09-.2v0c-.24-2.77-.39-5.53-.52-8.29a17.13,17.13,0,0,0-1.71-7.71,10.17,10.17,0,0,0-6.09-4.69,13,13,0,0,0-3.94-.64,7.87,7.87,0,0,0-3.65.73.76.76,0,0,1-.76,0,6.83,6.83,0,0,0-3.69-.65,12.31,12.31,0,0,0-3.91.78A3.63,3.63,0,0,0,205,50.34a3.44,3.44,0,0,1-.58,1.1,4.64,4.64,0,0,1-.9.79,2.32,2.32,0,0,0-1,1.47,15.77,15.77,0,0,1-.61,2.12,6.08,6.08,0,0,1-.58,1,4.32,4.32,0,0,0-.46.8,5.72,5.72,0,0,0-.32,1.84,3.6,3.6,0,0,1-.87,2.33,4.18,4.18,0,0,1-1,.75,1.61,1.61,0,0,0-.6.51,3.6,3.6,0,0,0-.55,1.78,8.77,8.77,0,0,0,.74,4,.49.49,0,0,1-.74.59l-.07-.06a1.91,1.91,0,0,0-1.24-.5.53.53,0,0,0-.29.22,1.72,1.72,0,0,0-.31.56,9.09,9.09,0,0,0-.38,3.31,17.88,17.88,0,0,0,.48,3.49,9.94,9.94,0,0,0,1.36,3.21h0a.28.28,0,0,1-.43.36Z"/><path class="cls-6" d="M235.84,102a1.79,1.79,0,0,1-.4-1.37,3.28,3.28,0,0,1,.27-1.2,2.89,2.89,0,0,1,.75-1.09,2.11,2.11,0,0,1,1.46-.55,2,2,0,0,1,1.31.54,4,4,0,0,1,.72,1c.18.32.37.65.55.92,0,0,0,0-.05,0l0,0a.42.42,0,0,0-.13,0,.3.3,0,0,0-.23.1c-.09.14,0,.12,0,.12v-.09l0-.24-.06-.51a29.19,29.19,0,0,1-.4-4.15.91.91,0,0,1,.28-.66.47.47,0,0,1,.51,0,1.79,1.79,0,0,1,.27.18,8,8,0,0,1,.76.78,12.17,12.17,0,0,1,1.21,1.76h0l-.75.07a9,9,0,0,0,.11-1.33,2.63,2.63,0,0,0-.29-1.13,23.41,23.41,0,0,1-1.33-2.56,7,7,0,0,1-.46-3.06,7.91,7.91,0,0,1,.74-2.9h0a.29.29,0,0,1,.33-.23l.1,0,.12.08a4,4,0,0,1,1.38,1.52,5.88,5.88,0,0,1,.38,1l.14.48a2.59,2.59,0,0,0,.11.37,14.49,14.49,0,0,0,1.92,3h0l-.25.09a8.1,8.1,0,0,0-.84-3.2,7.25,7.25,0,0,1-.51-1.78,4.93,4.93,0,0,1,0-1,5,5,0,0,0,0-.77,15.13,15.13,0,0,0-.69-3.21,31.43,31.43,0,0,1-.87-3.38,14.72,14.72,0,0,1-.11-3.57c0-.3.06-.6.12-.92a2.58,2.58,0,0,1,.17-.52.66.66,0,0,1,.17-.2.49.49,0,0,1,.25-.12.52.52,0,0,1,.3.06,1,1,0,0,1,.27.28A6.05,6.05,0,0,1,244.19,76a4.32,4.32,0,0,1,.32.89c.07.31.11.61.14.84a12.06,12.06,0,0,0,.45,1.54c.37,1,.83,2.08,1.27,3.13h0l-.53.24a8.43,8.43,0,0,1-.49-3.49,29.88,29.88,0,0,1,.5-3.4,4.91,4.91,0,0,0-.4-3,16.83,16.83,0,0,0-1.73-2.73,14.16,14.16,0,0,1-2.33-6.58,14,14,0,0,1-.19-1.75.76.76,0,0,1,0-.14.31.31,0,0,1,0-.11.23.23,0,0,1,.09-.11s.22-.08.24,0c.18.1.15.14.19.18l.06.11L242,62a4.48,4.48,0,0,0,.42.7,9.12,9.12,0,0,0,2.48,2.19h0l-.49.36a24,24,0,0,1-1.5-6c-.13-1-.28-2-.44-3a8.47,8.47,0,0,0-.79-2.65,3.65,3.65,0,0,0-.34-.5,2.13,2.13,0,0,0-.21-.22l-.28-.29a11.7,11.7,0,0,1-1.06-1.24,14,14,0,0,1-1.5-2.85c-.4-.93-.8-1.85-1.22-2.75a13.3,13.3,0,0,0-1.41-2.48,19.13,19.13,0,0,0-4.27-3.92l-2.47-1.81c-.41-.31-.82-.63-1.22-1s-.73-.61-1.13-.87A10.48,10.48,0,0,0,221.28,34a7,7,0,0,0-5.17,1.77h0a.43.43,0,0,1-.61,0l0,0,0,0a5.1,5.1,0,0,0-2.5-1.8,4.94,4.94,0,0,0-3,.1,6.18,6.18,0,0,0-1.36.68,5.41,5.41,0,0,0-.61.46l-.59.55a8.23,8.23,0,0,1-1.51,1c-.53.31-1,.69-1.61,1a10.27,10.27,0,0,1-1.76.62c-.57.16-1.23.27-1.62.43a5.46,5.46,0,0,0-2.17,2,12.26,12.26,0,0,0-1.39,2.92q-.12.39-.21.78a5.48,5.48,0,0,1-.28.94A3.84,3.84,0,0,1,195.64,47a7.47,7.47,0,0,0-2.41,2.28A17.36,17.36,0,0,0,192,52.44a22,22,0,0,1-1.27,3.37,8.75,8.75,0,0,1-1,1.59,7.55,7.55,0,0,0-.9,1.3,5.94,5.94,0,0,0-.79,2.94,7.94,7.94,0,0,0,.2,1.57,5.2,5.2,0,0,1,0,2c-.45,2.46-1.53,4.5-1.76,6.75h0l-.65-.15c.44-1.11.92-2.19,1.44-3.27.26-.54.54-1.08.86-1.61a7.5,7.5,0,0,1,.54-.8,2.64,2.64,0,0,1,.36-.41,1.54,1.54,0,0,1,.67-.42h0a.73.73,0,0,1,.91.46l0,.14V66a10.07,10.07,0,0,1,0,2.58A11.63,11.63,0,0,1,190,71a29.57,29.57,0,0,1-2.24,4.35c-.73,1.34-1.44,2.74-1.08,4,.22.7.52,1.49.73,2.27a5.16,5.16,0,0,1,.23,2.59h0a.42.42,0,0,1-.83-.15v0c.19-1.26.41-2.5.69-3.76.14-.62.29-1.25.49-1.88a8.94,8.94,0,0,1,.36-1,3.48,3.48,0,0,1,.29-.52,1.53,1.53,0,0,1,.73-.64h0a.84.84,0,0,1,1.1.43,1.05,1.05,0,0,1,.06.24v0a33.34,33.34,0,0,1,.14,5,12.8,12.8,0,0,1-.39,2.53,17.19,17.19,0,0,0-.43,2.3,7,7,0,0,0,.06,2.24,4.39,4.39,0,0,0,.35,1l.29.56a4.1,4.1,0,0,1,.23.64,8.08,8.08,0,0,1,.23,2.57,9.76,9.76,0,0,1-.45,2.52h0l-.65-.35a14.16,14.16,0,0,0,2-5.29c.05-.42.08-1,.18-1.51a5.38,5.38,0,0,1,.53-1.62,2,2,0,0,1,.82-.83,1.19,1.19,0,0,1,.91,0,1.29,1.29,0,0,1,.59.49,3.52,3.52,0,0,1,.42,1.81c0,2.07-.19,4,0,5.89a4.54,4.54,0,0,0,.12.66c.07.21.12.37.23.64a6.41,6.41,0,0,1,.44,1.56,4.92,4.92,0,0,1-.76,3.12h0l-.62-.42a23.64,23.64,0,0,0,1.93-3.08c.13-.27.27-.54.38-.81s.19-.5.34-.87a2.18,2.18,0,0,1,.76-1,1.31,1.31,0,0,1,.86-.23,1.53,1.53,0,0,1,.74.32,3.07,3.07,0,0,1,1,2.08,6.46,6.46,0,0,1-.22,2c-.15.62-.29,1.21-.37,1.79a2.85,2.85,0,0,0,.12,1.58h0l-.67.06a8.38,8.38,0,0,1,.75-1.46,3.69,3.69,0,0,1,1.23-1.26,1.47,1.47,0,0,1,1.06-.14,1.88,1.88,0,0,1,.83.56,5.08,5.08,0,0,1,.87,1.47.43.43,0,0,1-.22.57.44.44,0,0,1-.58-.22h0a4.59,4.59,0,0,0-.69-1.24c-.3-.34-.56-.43-.9-.26a2.92,2.92,0,0,0-.94,1,7.21,7.21,0,0,0-.71,1.31h0a.36.36,0,0,1-.49.19.39.39,0,0,1-.17-.14h0a3.45,3.45,0,0,1-.47-2.06,18.64,18.64,0,0,1,.24-1.92,6.87,6.87,0,0,0,.14-1.69,1.91,1.91,0,0,0-.59-1.21c-.16-.09-.07-.07-.13-.05a1.14,1.14,0,0,0-.34.47c-.09.21-.22.59-.36.87a8,8,0,0,1-.46.87,14.45,14.45,0,0,1-2.39,3,.38.38,0,0,1-.62-.42h0a4.22,4.22,0,0,0,.42-2.63,6.75,6.75,0,0,0-.45-1.28,7.16,7.16,0,0,1-.31-.75,5.8,5.8,0,0,1-.19-.8,39.92,39.92,0,0,1-.19-6,2.52,2.52,0,0,0-.21-1.07s0,0,0,0a.2.2,0,0,0,.19,0,.9.9,0,0,0-.19.24,4,4,0,0,0-.42,1.2c-.09.45-.12.89-.21,1.45a12.35,12.35,0,0,1-2.73,5.54.37.37,0,0,1-.52,0,.37.37,0,0,1-.12-.39v0h0a8.59,8.59,0,0,0,0-4.53,2.68,2.68,0,0,0-.21-.49l-.3-.51a5.83,5.83,0,0,1-.5-1.25,8.27,8.27,0,0,1-.22-2.61,18.79,18.79,0,0,1,.34-2.5,10.91,10.91,0,0,0,.22-2.29,31,31,0,0,0-.37-4.71l1.16.71h0c.2-.11.08-.08,0,0a1.87,1.87,0,0,0-.2.28,6.58,6.58,0,0,0-.39.75c-.25.55-.47,1.12-.67,1.7-.41,1.17-.78,2.37-1.11,3.57l-.82-.18h0a4.53,4.53,0,0,0-.42-2.08l-.9-2.22a4.47,4.47,0,0,1,0-2.73,13.3,13.3,0,0,1,1-2.34,38.39,38.39,0,0,0,2-4.2,14.17,14.17,0,0,0,.74-4.33l.94.67h0a1.15,1.15,0,0,0-.33.27c-.17.18-.35.39-.52.61-.35.44-.67.92-1,1.41-.63,1-1.22,2-1.78,3h0a.34.34,0,0,1-.46.13.33.33,0,0,1-.18-.29h0c-.13-2.46.86-4.76,1.07-6.91a4,4,0,0,0-.07-1.48,8.79,8.79,0,0,1-.3-1.88,6.85,6.85,0,0,1,.94-3.75,8.31,8.31,0,0,1,1.15-1.52,7,7,0,0,0,1-1.25A20.67,20.67,0,0,0,191,52.08a26.73,26.73,0,0,1,1.43-3.28,6.53,6.53,0,0,1,1.17-1.49c.45-.44.95-.79,1.32-1.16a2.65,2.65,0,0,0,.75-1.21,6.31,6.31,0,0,0,.14-.75c0-.31.11-.62.17-.92a10.63,10.63,0,0,1,1.46-3.44,5.66,5.66,0,0,1,3.08-2.4c.73-.18,1.23-.17,1.81-.27a5.28,5.28,0,0,0,1.56-.42,3.42,3.42,0,0,0,1.31-.94c.37-.42.67-.92,1.06-1.33a7.14,7.14,0,0,1,3.26-2,5.93,5.93,0,0,1,3.9.18,5.48,5.48,0,0,1,2.77,2.59l-.67-.06h0a7,7,0,0,1,2.61-1.93,8.39,8.39,0,0,1,3.2-.65,11.3,11.3,0,0,1,6.16,1.82,13.3,13.3,0,0,1,1.31.94c.38.32.77.62,1.17.92L232.4,38a21.08,21.08,0,0,1,4.66,4.27,12.87,12.87,0,0,1,1.6,2.8c.42.94.81,1.89,1.19,2.83a12.89,12.89,0,0,0,1.26,2.55,10.1,10.1,0,0,0,.89,1.09l.25.26c.09.1.21.23.3.35a4.15,4.15,0,0,1,.5.76,10.06,10.06,0,0,1,.9,3.16c.15,1,.21,2,.3,3.06a47.21,47.21,0,0,0,.76,5.95l0,0a.31.31,0,0,1-.24.37.29.29,0,0,1-.27-.06h0A16.75,16.75,0,0,1,242.09,63a6.2,6.2,0,0,1-.49-.73l-.19-.38,0-.08s-.06,0,.06,0,.18,0,.19,0,0-.07.06-.07,0,0,0,0v.07a7.27,7.27,0,0,0,.4,1.59c.36,1.07.82,2.09,1.26,3.1a13.31,13.31,0,0,0,1.55,2.8,14.63,14.63,0,0,1,1.79,3.06A6,6,0,0,1,247,76c-.27,1.13-.57,2.19-.72,3.27a8.17,8.17,0,0,0,.13,3.23h0a.31.31,0,0,1-.22.37.3.3,0,0,1-.32-.13h0a15.37,15.37,0,0,1-1.88-3,8.43,8.43,0,0,1-.62-1.73c-.08-.34-.11-.6-.15-.86s-.06-.53-.11-.78a2.88,2.88,0,0,0-.66-1.41c0-.06-.15-.17,0,0a.35.35,0,0,0,.2,0,.36.36,0,0,0,.15-.06s0,0,0,0a1.74,1.74,0,0,0-.08.3,5.18,5.18,0,0,0-.07.8,12.48,12.48,0,0,0,.45,3.28,23.36,23.36,0,0,1,1.61,6.8,6,6,0,0,1-.07.94,7.1,7.1,0,0,0-.1.77,6.09,6.09,0,0,0,.27,1.56,6.8,6.8,0,0,1,.29,3.53v0a.16.16,0,0,1-.19.11l-.06,0h0a7,7,0,0,1-1.62-1.14A5.46,5.46,0,0,1,242,90.13a4,4,0,0,1-.2-.52l-.12-.43c-.1-.28-.17-.56-.28-.83a11.38,11.38,0,0,0-.76-1.59l.55-.12h0a12,12,0,0,0,.35,5.27c.31.84.76,1.61,1.17,2.57a3.26,3.26,0,0,1,.24,1.66,7,7,0,0,1-.38,1.48l0,.08a.38.38,0,0,1-.49.23.45.45,0,0,1-.23-.24h0a8.13,8.13,0,0,0-1-1.73,4.45,4.45,0,0,0-.64-.72c-.12-.14-.25-.13-.12-.15a.85.85,0,0,0-.08.29,9,9,0,0,0,.11,2c.09.67.22,1.34.34,2l.08.52,0,.27a1,1,0,0,1,0,.17s0,.06-.08.23a.31.31,0,0,1-.26.12.29.29,0,0,1-.14,0l0,0a.7.7,0,0,1-.09-.09,3,3,0,0,0-.72-.7,3.32,3.32,0,0,0-1.41-.54c-.25,0-.6.23-.89.71a3.46,3.46,0,0,0-.34.76c-.1.25-.11.57-.15.62l-.41.56a.17.17,0,0,1-.23,0Z"/><path class="cls-6" d="M206.39,103a.57.57,0,0,1,0,.16.47.47,0,0,1-.1.16.49.49,0,0,1-.33.15l.4-.25-.11.23a.43.43,0,0,1,0,.13l-.12.33-.31.71,0-.06-.08.18,0,.09a1.05,1.05,0,0,1-.16.25l.14-.2-.41.91-.41.86-.86,1.72,0,0-.72,1.5v0l-1.14,2.41h0v0l-.76,1.56,0-.07-2.31,4.91-2.32,4.84c-1.53,3.24-3,6.52-4.47,9.79a.23.23,0,0,1-.3.12.23.23,0,0,1-.13-.28c.54-1.71,1.09-3.43,1.71-5.12s1.22-3.39,1.9-5l2.08-5c.7-1.64,1.42-3.37,2.15-4.9l0-.06.76-1.58h0l1.24-2.39v0l.74-1.4,0,0,.92-1.68.49-.84c.17-.28.33-.53.49-.77l.14-.2h0s-.09.14-.06.1l0-.08.1-.14,0-.06c.14-.18.28-.37.43-.55l.24-.3.15-.18c.06-.07.05,0,.09-.07l.4-.25a.52.52,0,0,0-.32.14.85.85,0,0,0-.09.15.61.61,0,0,0,0,.15.45.45,0,0,1,.89,0Z"/><path class="cls-6" d="M187.92,131.35c.1-.71.25-1.41.4-2.1l.26-1,.3-1.06,0,.06.13-.39-.05.15.15-.54.14-.44.3-.88.62-1.74,0-.06.44-1.14c.15-.38,2-5.71,2.08-5.81a.47.47,0,0,1,.41-.35l2.37-1-.19,1.22-2.24-1.59a.77.77,0,0,1-.21-1l.56-.91c.19-.3.41-.58.62-.86l0,0c.23-.34.47-.62.69-.9s.45-.56.69-.82c.45-.54.95-1.09,1.43-1.59l1.48-1.54c.49-.52,2.17-2.2,2.17-2.2l.32-.31,0,0,2.4-2.29,1.2-1.14,1.17-1.16v0l.18-.18.17-.09a.27.27,0,0,0-.16.07.32.32,0,0,0-.06.15.24.24,0,0,1,.47,0,.28.28,0,0,1-.07.17.24.24,0,0,1-.17.08l.17-.09-.14.22v0c-.34.5-.68.91-1,1.36s-.7.88-1.06,1.3l-2.18,2.5s-1.93,2.17-2.38,2.69L198,109.67l-1.35,1.6c-.43.52-.89,1.11-1.26,1.58l0,.05c-.19.26-.39.5-.57.76l1.39,1.51,0,0a.69.69,0,0,1,.09,1,.62.62,0,0,1-.32.21s-2.19.54-2.22.58-1.63,5.19-1.74,5.62-.22.83-.38,1.3l0-.06-.53,1.82-.29.9-.27.8-.05.15-.07.19s0,0,0,.06c-.08.27-.23.63-.35,1l-.38,1c-.28.65-.56,1.31-.89,1.94a.46.46,0,0,1-.62.2A.47.47,0,0,1,187.92,131.35Z"/><path class="cls-6" d="M230.05,97.2c0,.3-.09.63-.13.91l0,.09v.06l0-.07c0,.19-.06.35-.11.55l0-.06,0,.16v0l-.2.84,0-.17h0v.09l0,.08c0,.12-.06.23-.1.35v0c-.21.72-.41,1.44-.65,2.16l-.34,1.07-.39,1.14,0-.07c-.61,1.81-1.28,3.6-2,5.42l-2,5.38-2,5.37c-.67,1.8-1.39,3.55-2.09,5.33l.06-.34h0v0a1,1,0,0,1-.06.34l-1.26,3.07c-.43,1-.84,2.08-1.29,3.1l-1.28,3.09-1.34,3.07a.31.31,0,0,1-.59-.19c.52-2.19,1.16-4.34,1.83-6.48.32-1.07.69-2.12,1-3.18s.72-2.13,1.13-3.19l-.07.35h0a1.13,1.13,0,0,1,0-.32h0c.67-1.79,1.34-3.62,2.06-5.38s1.44-3.54,2.18-5.32l2.17-5.31,2.14-5.31,0-.07.76-2c.25-.7.54-1.38.82-2.07v0a2.31,2.31,0,0,0,.1-.28l0,.17h0v-.06a.36.36,0,0,1,0-.1l.32-.78v0l.05-.15,0,0c.06-.14.12-.33.19-.49l0-.07,0-.06,0,.09c.11-.31.21-.58.33-.87h0a.31.31,0,0,1,.4-.16A.3.3,0,0,1,230.05,97.2Z"/><path class="cls-6" d="M223.5,137.31c.9-3,2-5.9,3.08-8.79.55-1.43,1.09-2.92,1.69-4.33.3-.72.59-1.43.91-2.14l.48-1.07c.16-.36.29-.67.52-1.09l0,.06.15-.28,0,.1.08-.17c0-.08.05-.08.06-.09l.06-.07,0-.1.18-.27,0,.06c.12-.22.24-.4.35-.57s.23-.36.34-.55l0,0,.12-.23-.07.23a.55.55,0,0,1,.14-.32l-.12.29h0l.22.37c-.26-.17-2.27-1.1-2.52-1.3a3,3,0,0,0-.82-.49.34.34,0,0,1-.19-.45.36.36,0,0,1,.21-.19l0,0c.76-.26,1.51-.59,2.25-.91s1.5-.61,2.27-.87l-.49.44c.73-2.18,1.39-4.4,2.11-6.57.35-1.1.71-2.18,1-3.26a11.33,11.33,0,0,0,.33-1.57c0-.1,0-.24,0-.32s0-.07,0-.13-.7-1-.7-1l0,0-.12-.14-.1-.12-.59-.67c-.23-.26-.45-.51-.7-.76l-1.46-1.49L230.69,97c-.49-.5-1-1-1.44-1.55a.35.35,0,0,1,0-.49.36.36,0,0,1,.46,0v0c1.08.86,2.16,1.74,3.24,2.65L234.57,99c.27.22.54.47.8.71l.38.37.19.19.1.09.18.2-.1-.12.22.24-.05,0c.19.2.36.4.53.6a5.32,5.32,0,0,1,.58.9,2.5,2.5,0,0,1,.16.73c0,.2,0,.35,0,.54a13,13,0,0,1-.3,1.85,35.13,35.13,0,0,1-.93,3.42c-.35,1.12-.77,2.21-1.19,3.29s-.89,2.16-1.35,3.24l0,0a.67.67,0,0,1-.46.39c-.78.21-1.56.4-2.36.54s-1.6.29-2.38.5l.06-.66a3.38,3.38,0,0,0,.87.38c.31.09,2.23,1.19,2.53,1.31a.35.35,0,0,1,.21.27V118l-.09.38c0,.18-.08.37-.13.58s-.09.4-.12.56l0,.06-.08.33,0-.1-.07.25s0,.1,0,.07a0,0,0,0,0,0,0h0l0,.1-.09.3,0,.06a7.43,7.43,0,0,1-.37,1.05l-.42,1.08c-.27.73-.56,1.44-.86,2.16-.58,1.45-1.22,2.83-1.83,4.27s-1.27,2.83-1.89,4.24-1.3,2.81-2,4.2a.4.4,0,0,1-.53.17A.39.39,0,0,1,223.5,137.31Z"/><path class="cls-6" d="M201.78,111.85a6.14,6.14,0,0,0,1.33,2.63,7.68,7.68,0,0,0,1.11,1l.6.46.67.36a12.13,12.13,0,0,0,5.93,1.44,17.9,17.9,0,0,0,6.15-1.18l1.49-.59c.47-.24.94-.5,1.43-.73a9.72,9.72,0,0,0,1.4-.8l1.39-.84,0,0a.57.57,0,0,1,.77.19.56.56,0,0,1-.13.73,22.78,22.78,0,0,1-5.77,3.61,17.54,17.54,0,0,1-6.77,1.46,12.8,12.8,0,0,1-6.77-1.82l-.75-.49-.68-.59a9.62,9.62,0,0,1-1.23-1.32,6.69,6.69,0,0,1-1.2-3.42.5.5,0,0,1,.48-.52.52.52,0,0,1,.51.4Z"/><path class="cls-6" d="M236.84,102.09c2.21.73,4.35,1.49,6.5,2.39s4.24,1.85,6.33,2.83,4.17,2,6.2,3.17a19,19,0,0,1,3,1.93,11.71,11.71,0,0,1,2.31,2.72.27.27,0,0,1-.43.31,12.86,12.86,0,0,0-2.48-2.25,25.35,25.35,0,0,0-3-1.56c-2.08-.95-4.2-1.85-6.32-2.76s-4.22-1.81-6.33-2.78a54,54,0,0,1-6.16-3.23.44.44,0,0,1-.14-.59.41.41,0,0,1,.5-.18Z"/><path class="cls-6" d="M179.9,126.32a62.53,62.53,0,0,1,2.22-8.31,31.88,31.88,0,0,1,1.69-4,11.2,11.2,0,0,1,2.75-3.71,31,31,0,0,1,7.65-4.18c2.69-1.06,5.45-1.77,8.16-2.59a.23.23,0,0,1,.17.43c-2.57,1.26-5.23,2.27-7.74,3.5a39.65,39.65,0,0,0-7,4.35,10.6,10.6,0,0,0-2.32,3.06,35.85,35.85,0,0,0-1.72,3.77c-1,2.6-1.85,5.29-2.65,8a.6.6,0,0,1-1.17-.29Z"/><path class="cls-6" d="M210.6,63.89l-1.87,0-1.95,0c-.65,0-1.3.06-1.94.13a9.17,9.17,0,0,0-1.85.34l-.05,0a.45.45,0,0,1-.56-.29.46.46,0,0,1,.1-.45,5.38,5.38,0,0,1,2-1.22,11.47,11.47,0,0,1,2.11-.6,13.17,13.17,0,0,1,2.16-.21,7.71,7.71,0,0,1,2.25.24,1,1,0,0,1-.24,2Z"/><circle class="cls-8" cx="215.14" cy="80.73" r="57.39"/></g></svg>