<svg xmlns="http://www.w3.org/2000/svg" viewBox="0 0 120 120"><defs><style>.cls-1{isolation:isolate;}.cls-2{fill:none;}.cls-3{fill:#ffea27;}.cls-4{mix-blend-mode:multiply;}.cls-5{fill:#f4d314;}.cls-6{fill:#95a6b1;}</style></defs><title>30-icon_ocenza_terminal_coveñas_es_el_puerto</title><g class="cls-1"><g id="Capa_1" data-name="Capa 1"><rect class="cls-2" width="120" height="120"/><path class="cls-3" d="M57.3,115.86H39.09a2,2,0,1,1,0-4H57.3a2,2,0,0,1,0,4Z"/><path class="cls-3" d="M79.23,115.86h-9.1a2,2,0,0,1,0-4h9.1a2,2,0,0,1,0,4Z"/><path class="cls-3" d="M92,115.86a2,2,0,0,1-1.85-1.23,2,2,0,0,1-.15-.77,2,2,0,0,1,.58-1.41,2.06,2.06,0,0,1,2.83,0,2,2,0,0,1,.59,1.41,2,2,0,0,1-.15.77,2.31,2.31,0,0,1-.74.9,2.31,2.31,0,0,1-.35.18,1.58,1.58,0,0,1-.37.11A1.72,1.72,0,0,1,92,115.86Z"/><g class="cls-4"><path class="cls-5" d="M46.59,115.86H28.38a2,2,0,0,1,0-4H46.59a2,2,0,0,1,0,4Z"/></g><path class="cls-3" d="M73.77,103.64H28.38a2,2,0,0,1,0-4H73.77a2,2,0,0,1,0,4Z"/><g class="cls-4"><path class="cls-5" d="M28.38,103.64a2,2,0,0,1-1.41-.59,2,2,0,0,1-.44-.65,2,2,0,0,1-.15-.76,2.58,2.58,0,0,1,0-.4,2.65,2.65,0,0,1,.12-.37,2.31,2.31,0,0,1,.18-.35,2.34,2.34,0,0,1,.25-.3,2.48,2.48,0,0,1,.3-.25,2.31,2.31,0,0,1,.35-.18,2.65,2.65,0,0,1,.37-.12,2,2,0,0,1,.78,0,2.4,2.4,0,0,1,.38.12,1.83,1.83,0,0,1,.34.18,2.6,2.6,0,0,1,.31.25,2,2,0,0,1,.58,1.42,2,2,0,0,1-2,2Z"/></g><g class="cls-4"><path class="cls-5" d="M92,103.64H66.27a2,2,0,0,1,0-4H92a2,2,0,0,1,0,4Z"/></g><path class="cls-3" d="M29.19,38.17a9.54,9.54,0,0,1-3.32-.6,9.47,9.47,0,1,1,3.32.6Zm0-15a5.5,5.5,0,1,0,5.23,7.22,5.51,5.51,0,0,0-.22-4h0A5.52,5.52,0,0,0,29.18,23.17Z"/><path class="cls-6" d="M58.63,26.73H46.81a3.12,3.12,0,0,1-3.12-3.11V18.71a3.12,3.12,0,0,1,3.12-3.11H58.63a3.12,3.12,0,0,1,3.12,3.11v4.91A3.12,3.12,0,0,1,58.63,26.73Zm-10.94-4H57.75V19.6H47.69ZM58.63,19.6h0Z"/><path class="cls-6" d="M73.54,83.5H34.24a2,2,0,0,1-2-2V69.22a4.31,4.31,0,0,1-4.17-4.3v-1.1a4.31,4.31,0,0,1,4.17-4.3V52.43a4.32,4.32,0,0,1-4.17-4.31V47a4.32,4.32,0,0,1,4.17-4.31v-1a2,2,0,0,1,4,0v3a2,2,0,0,1-2,2H32.38a.31.31,0,0,0-.31.31v1.09a.31.31,0,0,0,.31.31h1.86a2,2,0,0,1,2,2V61.52a2,2,0,0,1-2,2H32.38a.3.3,0,0,0-.31.3v1.1a.3.3,0,0,0,.31.3h1.86a2,2,0,0,1,2,2V79.5h35.3V67.22a2,2,0,0,1,2-2h1.87a.3.3,0,0,0,.31-.3v-1.1a.3.3,0,0,0-.31-.3H73.54a2,2,0,0,1-2-2V50.43a2,2,0,0,1,2-2h1.87a.31.31,0,0,0,.31-.31V47a.31.31,0,0,0-.31-.31H73.54a2,2,0,0,1-2-2V33.55H44.63a2,2,0,0,1,0-4H73.54a2,2,0,0,1,2,2V42.72A4.32,4.32,0,0,1,79.72,47v1.09a4.32,4.32,0,0,1-4.18,4.31v7.09a4.31,4.31,0,0,1,4.18,4.3v1.1a4.31,4.31,0,0,1-4.18,4.3V81.5A2,2,0,0,1,73.54,83.5Z"/><path class="cls-6" d="M65.94,49H41.85a2,2,0,0,1,0-4H65.94a2,2,0,0,1,0,4Z"/><path class="cls-6" d="M65.94,65.67H41.85a2,2,0,0,1,0-4H65.94a2,2,0,0,1,0,4Z"/><path class="cls-6" d="M76,90.31H31.76a3.69,3.69,0,0,1-3.69-3.69V83.18a3.69,3.69,0,0,1,3.69-3.68H76a3.69,3.69,0,0,1,3.69,3.68v3.44A3.69,3.69,0,0,1,76,90.31Zm-44-4H75.72V83.5H32.07Z"/><path class="cls-6" d="M76,33.55H43.14a2,2,0,0,1,0-4H75.72V26.73H42.59a2,2,0,0,1,0-4H76a3.7,3.7,0,0,1,3.69,3.69v3.44A3.7,3.7,0,0,1,76,33.55Zm0-6.82h0Z"/><path class="cls-6" d="M86.21,51.65a1.94,1.94,0,0,1-.84-.19,2,2,0,0,1-1-2.66L88.09,41a2,2,0,0,1,2.57-1l7.93,3.23a2,2,0,0,1-1.5,3.71l-6.18-2.52L88,50.5A2,2,0,0,1,86.21,51.65Z"/><path class="cls-6" d="M91.68,83.94a2,2,0,0,1-.8-.16,2,2,0,0,1-1-2.63,44,44,0,0,0-1.63-38.42,2,2,0,1,1,3.52-1.89,47.91,47.91,0,0,1,1.78,41.89A2,2,0,0,1,91.68,83.94Z"/></g></g></svg>