<svg xmlns="http://www.w3.org/2000/svg" viewBox="0 0 120 120"><defs><style>.cls-1{isolation:isolate;}.cls-2{fill:none;}.cls-3{fill:#ffea27;}.cls-4{mix-blend-mode:multiply;}.cls-5{fill:#f4d314;}.cls-6{fill:#95a6b1;}</style></defs><title>32-icon_ocenza_terminal_coveñas_su_area</title><g class="cls-1"><g id="Capa_1" data-name="Capa 1"><rect class="cls-2" width="120" height="120"/><path class="cls-3" d="M56.13,116.37H37.93a2,2,0,0,1,0-4h18.2a2,2,0,0,1,0,4Z"/><path class="cls-3" d="M78.07,116.37H69a2,2,0,1,1,0-4h9.11a2,2,0,0,1,0,4Z"/><path class="cls-3" d="M90.87,116.37a2,2,0,0,1-2-2,2,2,0,0,1,2.39-2,2.65,2.65,0,0,1,.37.12,1.83,1.83,0,0,1,.34.18,1.89,1.89,0,0,1,.31.25,3.61,3.61,0,0,1,.25.3,2.31,2.31,0,0,1,.18.35,2.65,2.65,0,0,1,.12.37,2.6,2.6,0,0,1,0,.4,2,2,0,0,1-2,2Z"/><g class="cls-4"><path class="cls-5" d="M45.43,116.37H27.22a2,2,0,0,1,0-4H45.43a2,2,0,1,1,0,4Z"/></g><path class="cls-3" d="M72.61,104.14H27.22a2,2,0,0,1,0-4H72.61a2,2,0,0,1,0,4Z"/><g class="cls-4"><path class="cls-5" d="M27.22,104.14a2,2,0,0,1-1.41-.59,1.42,1.42,0,0,1-.25-.3,1.7,1.7,0,0,1-.19-.35,1.58,1.58,0,0,1-.11-.37,1.92,1.92,0,0,1,0-.78,2.38,2.38,0,0,1,.11-.38,2.27,2.27,0,0,1,.19-.34,1.79,1.79,0,0,1,.25-.31,2.07,2.07,0,0,1,2.82,0,1.79,1.79,0,0,1,.25.31,1.63,1.63,0,0,1,.19.34,1.66,1.66,0,0,1,.11.38,1.92,1.92,0,0,1,0,.78,1.58,1.58,0,0,1-.11.37,2.31,2.31,0,0,1-.18.35,1.87,1.87,0,0,1-.26.3A2,2,0,0,1,27.22,104.14Z"/></g><g class="cls-4"><path class="cls-5" d="M90.86,104.14H65.11a2,2,0,0,1,0-4H90.86a2,2,0,0,1,0,4Z"/></g><path class="cls-6" d="M91.47,90.42a2,2,0,0,1-1.08-3.68l5-3.22-5-3.39a2,2,0,0,1,2.24-3.32l7.54,5.1a2,2,0,0,1,0,3.34l-7.62,4.86A2,2,0,0,1,91.47,90.42Z"/><path class="cls-6" d="M26.5,85.58a2,2,0,0,1,0-4H99.08a2,2,0,0,1,0,4Z"/><path class="cls-3" d="M26.51,49.14a9.55,9.55,0,0,1-8.64-5.56,9.46,9.46,0,1,1,8.64,5.56Zm0-15a5.5,5.5,0,0,0-1.92,10.66,5.44,5.44,0,0,0,4.21-.16,5.39,5.39,0,0,0,2.93-3.27,5.45,5.45,0,0,0-.22-4h0a5.43,5.43,0,0,0-3.08-2.87A5.52,5.52,0,0,0,26.5,34.13Z"/><path class="cls-6" d="M26.52,85.58a2,2,0,0,1-2-2V54.06a2,2,0,0,1,4,0V83.58A2,2,0,0,1,26.52,85.58Z"/><path class="cls-6" d="M26.52,27.81a2,2,0,0,1-2-2V11a2,2,0,1,1,4,0V25.81A2,2,0,0,1,26.52,27.81Z"/><path class="cls-6" d="M21.67,20.54A2,2,0,0,1,20,17.47l4.85-7.61a2,2,0,0,1,3.34,0l5.1,7.54A2,2,0,0,1,30,19.59l-3.39-5-3.22,5.05A2,2,0,0,1,21.67,20.54Z"/><path class="cls-6" d="M85.44,72.16H44.71A4.73,4.73,0,0,1,40,67.44V26.71A4.72,4.72,0,0,1,44.71,22H85.44a4.72,4.72,0,0,1,4.72,4.72V67.44A4.73,4.73,0,0,1,85.44,72.16ZM44.71,26a.72.72,0,0,0-.72.72V67.44a.72.72,0,0,0,.72.72H85.44a.72.72,0,0,0,.72-.72V26.71a.72.72,0,0,0-.72-.72Z"/><path class="cls-6" d="M88.16,64.79a2,2,0,0,1-1.41-.59l-39-38.8a2,2,0,1,1,2.82-2.83l39,38.8a2,2,0,0,1-1.41,3.42Z"/><path class="cls-6" d="M80.32,72.16a2,2,0,0,1-1.4-.58l-38.34-38a2,2,0,0,1,2.82-2.84l38.33,38a2,2,0,0,1-1.41,3.42Z"/><path class="cls-6" d="M88.16,47.85a2,2,0,0,1-1.39-.57L64.37,25.42a2,2,0,0,1,2.8-2.86L89.56,44.42a2,2,0,0,1-1.4,3.43Z"/><path class="cls-6" d="M64.38,72.16A2,2,0,0,1,63,71.59L40.59,49.73a2,2,0,1,1,2.8-2.86L65.78,68.73a2,2,0,0,1-1.4,3.43Z"/></g></g></svg>