<svg xmlns="http://www.w3.org/2000/svg" viewBox="0 0 120 120"><defs><style>.cls-1{isolation:isolate;}.cls-2{fill:none;}.cls-3{fill:#ffea27;}.cls-4{mix-blend-mode:multiply;}.cls-5{fill:#f4d314;}.cls-6{fill:#95a6b1;}</style></defs><title>33-icon_ocenza_terminal_coveñas_aqui_llegan</title><g class="cls-1"><g id="Capa_1" data-name="Capa 1"><rect class="cls-2" width="120" height="120"/><path class="cls-3" d="M56.06,115.86H37.85a2,2,0,0,1,0-4H56.06a2,2,0,1,1,0,4Z"/><path class="cls-3" d="M78,115.86h-9.1a2,2,0,0,1,0-4H78a2,2,0,0,1,0,4Z"/><path class="cls-3" d="M90.79,115.86a1.72,1.72,0,0,1-.39,0,1.66,1.66,0,0,1-.38-.11,2.79,2.79,0,0,1-.34-.18,2.31,2.31,0,0,1-.74-.9,2,2,0,0,1-.15-.77,2,2,0,0,1,.59-1.41,2.06,2.06,0,0,1,2.83,0,2,2,0,0,1,0,2.82,2.51,2.51,0,0,1-.31.26,2.21,2.21,0,0,1-.34.18,2.2,2.2,0,0,1-.77.15Z"/><g class="cls-4"><path class="cls-5" d="M45.35,115.86H27.15a2,2,0,1,1,0-4h18.2a2,2,0,1,1,0,4Z"/></g><path class="cls-3" d="M72.53,103.64H27.15a2,2,0,1,1,0-4H72.53a2,2,0,0,1,0,4Z"/><g class="cls-4"><path class="cls-5" d="M27.15,103.64a2,2,0,0,1-2-2,1.81,1.81,0,0,1,0-.4,1.73,1.73,0,0,1,.11-.37,2.31,2.31,0,0,1,.18-.35,3.61,3.61,0,0,1,.25-.3,2,2,0,0,1,1.81-.55,2.65,2.65,0,0,1,.37.12,2.31,2.31,0,0,1,.35.18,2.48,2.48,0,0,1,.3.25,2,2,0,0,1,.59,1.42,2,2,0,0,1-.15.76,2,2,0,0,1-.44.65A2,2,0,0,1,27.15,103.64Z"/></g><g class="cls-4"><path class="cls-5" d="M90.79,103.64H65a2,2,0,0,1,0-4H90.79a2,2,0,0,1,0,4Z"/></g><path class="cls-6" d="M28.42,77.22H25.18a2,2,0,0,1,0-4h3.24a2,2,0,0,1,0,4Z"/><path class="cls-6" d="M92.9,77.74H89.66a2,2,0,0,1,0-4H92.9a2,2,0,0,1,0,4Z"/><path class="cls-6" d="M92.89,82.31H25a2,2,0,0,1-2-2V59a2,2,0,0,1,2-2H92.89a2,2,0,0,1,2,2V80.31A2,2,0,0,1,92.89,82.31ZM27,78.31H90.89V61H27Z"/><path class="cls-6" d="M25,84.32H15.22a2,2,0,0,1-2-2V57a2,2,0,0,1,2-2H25a2,2,0,0,1,2,2V82.32A2,2,0,0,1,25,84.32Zm-7.81-4H23V59H17.22Z"/><path class="cls-6" d="M28.38,71.65h-3.2a2,2,0,0,1,0-4h3.2a2,2,0,0,1,0,4Z"/><path class="cls-6" d="M28.42,66.06H25.18a2,2,0,0,1,0-4h3.24a2,2,0,0,1,0,4Z"/><path class="cls-6" d="M102.72,84.32H92.9a2,2,0,0,1-2-2V57a2,2,0,0,1,2-2h9.82a2,2,0,0,1,2,2V82.32A2,2,0,0,1,102.72,84.32Zm-7.82-4h5.82V59H94.9Z"/><path class="cls-6" d="M92.9,71.66H89.61a2,2,0,1,1,0-4H92.9a2,2,0,0,1,0,4Z"/><path class="cls-6" d="M92.9,65.55H89.66a2,2,0,0,1,0-4H92.9a2,2,0,0,1,0,4Z"/><path class="cls-6" d="M63.25,82.31a2,2,0,0,1-2-2V70.73a2,2,0,0,1,4,0v9.58A2,2,0,0,1,63.25,82.31Z"/><path class="cls-6" d="M63.25,65.55a2,2,0,0,1-2-2V59a2,2,0,0,1,4,0v4.55A2,2,0,0,1,63.25,65.55Z"/><path class="cls-3" d="M39.85,52.19a9.33,9.33,0,0,1-3.32-.61,9.43,9.43,0,0,1-5.33-4.95,9.5,9.5,0,1,1,12.59,4.69A9.41,9.41,0,0,1,39.85,52.19Zm0-15a5.5,5.5,0,0,0-1.92,10.66,5.44,5.44,0,0,0,4.21-.16,5.39,5.39,0,0,0,2.93-3.27,5.45,5.45,0,0,0-.22-4h0a5.43,5.43,0,0,0-3.08-2.87A5.52,5.52,0,0,0,39.84,37.18Z"/><path class="cls-6" d="M74.29,61h-29a2,2,0,0,1-2-2V55.28a2,2,0,0,1,4,0V57h25V45.39H53.59a2,2,0,0,1,0-4h20.7a2,2,0,0,1,2,2V59A2,2,0,0,1,74.29,61Z"/><path class="cls-6" d="M59.77,45.39a2,2,0,0,1-2-2V33.86a2,2,0,0,1,4,0v9.53A2,2,0,0,1,59.77,45.39Z"/><path class="cls-6" d="M66.44,35.86H53.59a2,2,0,0,1,0-4H66.44a2,2,0,0,1,0,4Z"/><path class="cls-6" d="M74.29,53.2H53.48a2,2,0,0,1,0-4H74.29a2,2,0,0,1,0,4Z"/></g></g></svg>