<?xml version="1.0" encoding="utf-8"?>
<!-- Generator: Adobe Illustrator 24.0.2, SVG Export Plug-In . SVG Version: 6.00 Build 0)  -->
<svg version="1.1" id="Layer_1" xmlns="http://www.w3.org/2000/svg" xmlns:xlink="http://www.w3.org/1999/xlink" x="0px" y="0px"
	 viewBox="0 0 120 120" style="enable-background:new 0 0 120 120;" xml:space="preserve">
<style type="text/css">
	.st0{fill:none;}
	.st1{fill:#FFEA27;}
	.st2{fill:#F4D314;}
	.st3{fill:#95A6B1;}
</style>
<title>34-icon_ocenza_terminal_coveñas_nuestra_terminal</title>
<g>
	<g id="Capa_1">
		<rect class="st0" width="120" height="120"/>
		<path class="st1" d="M57.1,115.8H38.9c-1.1,0-2-0.9-2-2s0.9-2,2-2h18.2c1.1,0,2,0.9,2,2S58.2,115.8,57.1,115.8z"/>
		<path class="st1" d="M79,115.8h-9.1c-1.1,0-2-0.9-2-2s0.9-2,2-2H79c1.1,0,2,0.9,2,2S80.1,115.8,79,115.8z"/>
		<path class="st1" d="M91.8,115.8c-1.1,0-2-0.9-2-2c0-0.5,0.2-1,0.6-1.4c0.8-0.7,2-0.7,2.8,0c0.4,0.4,0.6,0.9,0.6,1.4
			c0,0.3-0.1,0.5-0.2,0.8c-0.1,0.2-0.2,0.5-0.4,0.7c-0.2,0.2-0.4,0.3-0.7,0.4C92.3,115.8,92.1,115.9,91.8,115.8z"/>
		<g>
			<path class="st2" d="M46.4,115.8H28.2c-1.1,0-2-0.9-2-2s0.9-2,2-2h18.2c1.1,0,2,0.9,2,2S47.5,115.8,46.4,115.8z"/>
		</g>
		<path class="st1" d="M73.6,103.6H28.2c-1.1,0-2-0.9-2-2s0.9-2,2-2h45.4c1.1,0,2,0.9,2,2S74.7,103.6,73.6,103.6z"/>
		<g>
			<path class="st2" d="M28.2,103.6c-0.5,0-1-0.2-1.4-0.6c-0.1-0.1-0.2-0.2-0.2-0.3c-0.1-0.1-0.1-0.2-0.2-0.3
				c-0.1-0.2-0.1-0.5-0.1-0.8c0-0.5,0.2-1,0.6-1.4c0.1-0.1,0.2-0.2,0.3-0.2c0.1-0.1,0.2-0.1,0.3-0.2l0.4-0.1
				c0.7-0.1,1.3,0.1,1.8,0.6c0.1,0.1,0.2,0.2,0.2,0.3c0.1,0.1,0.1,0.2,0.2,0.3c0,0.1,0.1,0.2,0.1,0.4c0,0.1,0,0.3,0,0.4
				c0,0.1,0,0.3,0,0.4c0,0.1-0.1,0.3-0.1,0.4c0,0.1-0.1,0.2-0.2,0.3c-0.1,0.1-0.2,0.2-0.2,0.3C29.2,103.4,28.7,103.6,28.2,103.6z"/>
		</g>
		<g>
			<path class="st2" d="M91.8,103.6H66.1c-1.1,0-2-0.9-2-2s0.9-2,2-2h25.8c1.1,0,2,0.9,2,2S92.9,103.6,91.8,103.6z"/>
		</g>
		<path class="st1" d="M19.7,34.5c-5.2,0-9.4-4.2-9.4-9.4c0-5.2,4.2-9.4,9.4-9.4c5.2,0,9.4,4.2,9.4,9.4c0,2.4-0.9,4.7-2.5,6.4
			C24.8,33.4,22.3,34.5,19.7,34.5z M19.7,19.7c-3-0.1-5.5,2.2-5.6,5.2c-0.1,3,2.2,5.5,5.2,5.6c0.2,0,0.3,0,0.5,0
			c3,0,5.4-2.4,5.4-5.4C25.1,22.1,22.7,19.7,19.7,19.7z"/>
		<path class="st3" d="M112,60.2c-0.2-1.1-1.3-1.8-2.3-1.6h-4.3v-5.9c0-1.1-0.9-2-2-2H94V34.2h4.2c0.2,0,0.5,0,0.7,0
			c1.1-0.2,1.8-1.3,1.6-2.3c-0.2-1.1-1.3-1.8-2.3-1.6H94v-5.9c0-1.1-0.9-2-2-2H33.8c-0.8,0.2-1.4,0.8-1.6,1.6
			c-0.2,1.1,0.5,2.1,1.6,2.3h3.4v4h-3.4c-0.8,0.2-1.4,0.8-1.6,1.6C32,33,32.7,34,33.8,34.2H90v16.5H40.1c-1,0-1.8,0.7-2,1.6
			c0,0.1-0.1,0.2-0.1,0.4v5.9h-4.2c-0.8,0.2-1.4,0.8-1.6,1.6c-0.2,1.1,0.5,2.1,1.6,2.3h4.3v25H21.2v-34h8c0.8-0.2,1.4-0.8,1.6-1.6
			c0.2-1.1-0.5-2.1-1.6-2.3h-8V39.5c0-0.2,0-0.5,0-0.7C21,37.7,20,37,18.9,37.2c-1.1,0.2-1.8,1.3-1.6,2.3v49.9c0,1.1,0.9,2,2,2H40v0
			c0.2,0,0.5,0,0.7,0c0.1,0,0.1,0,0.2,0h62.5c1.1,0,2-0.9,2-2V62.5h4.3c0.2,0,0.5,0,0.7,0C111.5,62.3,112.2,61.3,112,60.2z
			 M51.8,30.3H41.1v-4h10.7V30.3z M73.7,30.3h-18v-4h18V30.3z M77.6,30.3v-4H90v4H77.6z M74.5,54.7H90v4H74.5V54.7z M55.1,54.7h15.5
			v4H55.1V54.7z M42,54.7h9.2v4H42V54.7z M101.4,77.9H61c-0.3-0.1-0.5-0.1-0.8,0c-1.1,0.2-1.8,1.3-1.6,2.4c0.2,1.1,1.3,1.8,2.4,1.6
			h40.4v5.6H42v-5.6h8c0.3,0.1,0.5,0.1,0.8,0c1.1-0.2,1.8-1.3,1.6-2.4c-0.2-1.1-1.3-1.8-2.4-1.6h-8V62.5h59.4V77.9z M101.4,58.6
			h-7.5v-4h7.5V58.6z"/>
	</g>
</g>
</svg>
