<svg xmlns="http://www.w3.org/2000/svg" viewBox="0 0 120 120"><defs><style>.cls-1{isolation:isolate;}.cls-2{fill:#ffea27;}.cls-3{mix-blend-mode:multiply;}.cls-4{fill:#f4d314;}.cls-5{fill:#95a6b1;}.cls-6{fill:none;}</style></defs><title>35-icon_ocenza_terminal_coveñas_un_barril</title><g class="cls-1"><g id="Capa_1" data-name="Capa 1"><path class="cls-2" d="M52.8,115.86H34.59a2,2,0,1,1,0-4H52.8a2,2,0,0,1,0,4Z"/><path class="cls-2" d="M74.73,115.86h-9.1a2,2,0,1,1,0-4h9.1a2,2,0,0,1,0,4Z"/><path class="cls-2" d="M87.53,115.86a1.72,1.72,0,0,1-.39,0,1.58,1.58,0,0,1-.37-.11,2.31,2.31,0,0,1-.35-.18,2.31,2.31,0,0,1-.74-.9,2,2,0,0,1-.15-.77,2,2,0,0,1,.59-1.41,2,2,0,0,1,1.8-.55,1.68,1.68,0,0,1,.38.12,1.59,1.59,0,0,1,.34.18,1.79,1.79,0,0,1,.31.25,2,2,0,0,1-1.42,3.41Z"/><g class="cls-3"><path class="cls-4" d="M42.09,115.86H23.89a2,2,0,0,1,0-4h18.2a2,2,0,0,1,0,4Z"/></g><path class="cls-2" d="M69.27,103.64H23.89a2,2,0,0,1,0-4H69.27a2,2,0,0,1,0,4Z"/><g class="cls-3"><path class="cls-4" d="M23.89,103.64a2,2,0,0,1-1.42-.59,2.16,2.16,0,0,1-.43-.65,2,2,0,0,1-.15-.76,1.81,1.81,0,0,1,0-.4,1.73,1.73,0,0,1,.11-.37,2.31,2.31,0,0,1,.18-.35,3.61,3.61,0,0,1,.25-.3l.31-.25a2.21,2.21,0,0,1,.34-.18,2.4,2.4,0,0,1,.38-.12,2,2,0,0,1,.78,0,2.29,2.29,0,0,1,.37.12A2.31,2.31,0,0,1,25,100a2.48,2.48,0,0,1,.3.25,2.34,2.34,0,0,1,.25.3,2.31,2.31,0,0,1,.18.35,2.65,2.65,0,0,1,.12.37,2.71,2.71,0,0,1,0,.4,2,2,0,0,1-.15.76,2,2,0,0,1-.44.65A2,2,0,0,1,23.89,103.64Z"/></g><g class="cls-3"><path class="cls-4" d="M87.53,103.64H61.77a2,2,0,1,1,0-4H87.53a2,2,0,0,1,0,4Z"/></g><path class="cls-2" d="M35.71,37.22a9.54,9.54,0,0,1-3.32-.6,9.5,9.5,0,1,1,12-12.85h0a9.5,9.5,0,0,1-8.64,13.45Zm0-15a5.56,5.56,0,0,0-2.29.5,5.51,5.51,0,1,0,4.21-.15A5.38,5.38,0,0,0,35.71,22.22Z"/><path class="cls-5" d="M64.13,25.59H52.3a3.12,3.12,0,0,1-3.11-3.11V17.57a3.11,3.11,0,0,1,3.11-3.11H64.13a3.11,3.11,0,0,1,3.11,3.11v4.91A3.11,3.11,0,0,1,64.13,25.59Zm-10.94-4H63.24V18.46H53.19Zm10.94-3.13h0Z"/><path class="cls-5" d="M79,82.35H39.74a2,2,0,0,1-2-2V68.08a4.32,4.32,0,0,1-4.17-4.31v-1.1a4.31,4.31,0,0,1,4.17-4.3V51.28A4.31,4.31,0,0,1,33.57,47v-1.1a4.31,4.31,0,0,1,4.17-4.3v-1a2,2,0,0,1,4,0v3a2,2,0,0,1-2,2H37.87a.31.31,0,0,0-.3.31V47a.3.3,0,0,0,.3.3h1.87a2,2,0,0,1,2,2V60.37a2,2,0,0,1-2,2H37.87a.31.31,0,0,0-.3.3v1.1a.31.31,0,0,0,.3.31h1.87a2,2,0,0,1,2,2V78.35H77V66.08a2,2,0,0,1,2-2h1.87a.31.31,0,0,0,.3-.31v-1.1a.31.31,0,0,0-.3-.3H79a2,2,0,0,1-2-2V49.28a2,2,0,0,1,2-2h1.87a.3.3,0,0,0,.3-.3v-1.1a.31.31,0,0,0-.3-.31H79a2,2,0,0,1-2-2V32.4H50.13a2,2,0,0,1,0-4H79a2,2,0,0,1,2,2V41.58a4.31,4.31,0,0,1,4.17,4.3V47A4.31,4.31,0,0,1,81,51.28v7.09a4.31,4.31,0,0,1,4.17,4.3v1.1A4.32,4.32,0,0,1,81,68.08V80.35A2,2,0,0,1,79,82.35Z"/><path class="cls-5" d="M81.52,89.16H37.25a3.68,3.68,0,0,1-3.68-3.68V82a3.69,3.69,0,0,1,3.68-3.69H81.52A3.69,3.69,0,0,1,85.21,82v3.44A3.69,3.69,0,0,1,81.52,89.16Zm-43.95-4H81.21V82.35H37.57Z"/><path class="cls-5" d="M81.52,32.4H48.63a2,2,0,0,1,0-4H81.21V25.59H48.09a2,2,0,0,1,0-4H81.52a3.69,3.69,0,0,1,3.69,3.68v3.44A3.69,3.69,0,0,1,81.52,32.4Zm0-6.81h0Z"/><path class="cls-5" d="M69.27,63.37H60.2A2,2,0,0,1,58.8,60l7.91-7.83A1.92,1.92,0,0,0,65.19,49,1.92,1.92,0,0,0,63.27,51a2,2,0,0,1-4,0,5.92,5.92,0,1,1,10.46,3.78.86.86,0,0,1-.13.14l-4.53,4.49h4.2a2,2,0,0,1,0,4Z"/><path class="cls-5" d="M54.26,63.37a2,2,0,0,1-2-2V59.86H46.31a2,2,0,0,1-1.61-3.19l8-10.63a2,2,0,0,1,3.6,1.2v8.62h1.05a2,2,0,0,1,0,4H56.26v1.51A2,2,0,0,1,54.26,63.37Zm-4-7.51h2V53.25Z"/><rect class="cls-6" width="119.56" height="119.56"/></g></g></svg>