<svg xmlns="http://www.w3.org/2000/svg" viewBox="0 0 120 120"><defs><style>.cls-1{isolation:isolate;}.cls-2{fill:#ffea27;}.cls-3{mix-blend-mode:multiply;}.cls-4{fill:#f4d314;}.cls-5{fill:#94a5b0;}.cls-6{fill:#95a6b1;}.cls-7{fill:none;}</style></defs><title>36-icon_ocenza_terminal_coveñas_todo_este_petroleo</title><g class="cls-1"><g id="Capa_1" data-name="Capa 1"><path class="cls-2" d="M53.4,115.85H35.2a2,2,0,0,1,0-4H53.4a2,2,0,1,1,0,4Z"/><path class="cls-2" d="M75.34,115.85H66.23a2,2,0,1,1,0-4h9.11a2,2,0,0,1,0,4Z"/><path class="cls-2" d="M88.14,115.85a2,2,0,0,1-1.42-.59,2.16,2.16,0,0,1-.43-.65,2,2,0,0,1-.15-.76,1.72,1.72,0,0,1,0-.39,1.66,1.66,0,0,1,.11-.38,2.21,2.21,0,0,1,.18-.34,3.76,3.76,0,0,1,.25-.31,2,2,0,0,1,1.81-.54,1.58,1.58,0,0,1,.37.11,1.7,1.7,0,0,1,.35.19,1.76,1.76,0,0,1,.3.24,2,2,0,0,1,.59,1.42,2,2,0,0,1-.59,1.41,2.34,2.34,0,0,1-.3.25,2.37,2.37,0,0,1-.35.19,2.26,2.26,0,0,1-.37.11A2.58,2.58,0,0,1,88.14,115.85Z"/><g class="cls-3"><path class="cls-4" d="M42.7,115.85H24.49a2,2,0,0,1,0-4H42.7a2,2,0,1,1,0,4Z"/></g><path class="cls-2" d="M69.88,103.62H24.49a2,2,0,1,1,0-4H69.88a2,2,0,0,1,0,4Z"/><g class="cls-3"><path class="cls-4" d="M24.49,103.62a2,2,0,0,1-1.41-.59,2,2,0,0,1-.59-1.41,2.58,2.58,0,0,1,0-.39,2.29,2.29,0,0,1,.12-.37,2.31,2.31,0,0,1,.18-.35,1.81,1.81,0,0,1,.25-.3,2,2,0,0,1,1.8-.55l.38.11a1.86,1.86,0,0,1,.34.19,1.79,1.79,0,0,1,.31.25,2,2,0,0,1,.58,1.41,2.2,2.2,0,0,1-.15.77,2.21,2.21,0,0,1-.18.34,2.48,2.48,0,0,1-.25.3,2.51,2.51,0,0,1-.31.26,2.21,2.21,0,0,1-.34.18,1.73,1.73,0,0,1-.37.11A1.75,1.75,0,0,1,24.49,103.62Z"/></g><g class="cls-3"><path class="cls-4" d="M88.14,103.62H62.38a2,2,0,1,1,0-4H88.14a2,2,0,0,1,0,4Z"/></g><path class="cls-2" d="M26.34,50.86a9.54,9.54,0,0,1-3.32-.6,9.38,9.38,0,0,1-5.32-4.95A9.5,9.5,0,1,1,35,37.41h0a9.5,9.5,0,0,1-8.63,13.45Zm0-15a5.43,5.43,0,0,0-2.28.5,5.5,5.5,0,0,0,4.57,10,5.43,5.43,0,0,0,2.94-3.27,5.5,5.5,0,0,0-5.23-7.23Z"/><g id="Grupo_6636" data-name="Grupo 6636"><g id="Línea_1013" data-name="Línea 1013"><path class="cls-5" d="M44.53,35.85a2,2,0,0,1-2-2V28.12a2,2,0,0,1,4,0v5.73A2,2,0,0,1,44.53,35.85Z"/></g><g id="Línea_1014" data-name="Línea 1014"><path class="cls-5" d="M52.92,35.85a2,2,0,0,1-2-2V28.12a2,2,0,0,1,4,0v5.73A2,2,0,0,1,52.92,35.85Z"/></g><g id="Trazado_5699" data-name="Trazado 5699"><path class="cls-5" d="M66.33,42.75A2,2,0,0,1,65,42.23l-.37-.34a15.57,15.57,0,0,0-1.35-1.19l-11.17-5A2,2,0,1,1,53.74,32L65,37.09A10.07,10.07,0,0,1,67.37,39l.31.29a2,2,0,0,1-1.35,3.48Z"/></g><g id="Trazado_5700" data-name="Trazado 5700"><path class="cls-5" d="M60.21,67.07H28.92a2,2,0,0,1-2-2V54.63a2,2,0,0,1,4,0v8.44H60.21a2,2,0,1,1,0,4Z"/></g><g id="Línea_1015" data-name="Línea 1015"><path class="cls-5" d="M38.81,38.43A2,2,0,0,1,38,34.61L43.71,32a2,2,0,0,1,1.64,3.64l-5.73,2.57A1.8,1.8,0,0,1,38.81,38.43Z"/></g><g id="Línea_1016" data-name="Línea 1016"><path class="cls-5" d="M48.72,40.6a2,2,0,0,1-1.5-.67L43,35.17a2,2,0,0,1,3-2.65l4.19,4.76A2,2,0,0,1,50,40.1,2,2,0,0,1,48.72,40.6Z"/></g><g id="Línea_1017" data-name="Línea 1017"><path class="cls-5" d="M48.72,40.6a2,2,0,0,1-1.32-.5,2,2,0,0,1-.18-2.82l4.2-4.76a2,2,0,0,1,3,2.65l-4.2,4.76A2,2,0,0,1,48.72,40.6Z"/></g><g id="Trazado_5701" data-name="Trazado 5701"><path class="cls-5" d="M48.69,31.33a9.92,9.92,0,0,1-9.9-9.9,2,2,0,0,1,4,0,5.9,5.9,0,0,0,11.8,0,2,2,0,0,1,4,0A9.92,9.92,0,0,1,48.69,31.33Z"/></g><g id="Trazado_5702" data-name="Trazado 5702"><path class="cls-5" d="M56.58,23.43a2,2,0,0,1-2-2V16a5.9,5.9,0,1,0-11.8,0v5.46a2,2,0,0,1-4,0V16a9.9,9.9,0,1,1,19.8,0v5.46A2,2,0,0,1,56.58,23.43Z"/></g></g><path class="cls-6" d="M79.05,42.75H69.91a2.86,2.86,0,0,1-2.85-2.86V36.1a2.86,2.86,0,0,1,2.85-2.86h9.14a2.86,2.86,0,0,1,2.86,2.86v3.79A2.86,2.86,0,0,1,79.05,42.75Zm-8-4h6.85V37.24H71.06Zm8-1.51h0Z"/><path class="cls-6" d="M90.57,86.6H60.21a2,2,0,0,1-2-2V75.54A3.79,3.79,0,0,1,55,71.8V71a3.78,3.78,0,0,1,3.22-3.74V62.56A3.78,3.78,0,0,1,55,58.82V58a3.79,3.79,0,0,1,3.22-3.74V46a2,2,0,0,1,4,0V56.19a2,2,0,0,1-2,2H59v.41h1.22a2,2,0,0,1,2,2v8.57a2,2,0,0,1-2,2H59v.41h1.22a2,2,0,0,1,2,2v9H88.57v-9a2,2,0,0,1,2-2h1.22v-.41H90.57a2,2,0,0,1-2-2V60.6a2,2,0,0,1,2-2h1.22v-.41H90.57a2,2,0,0,1-2-2V46a2,2,0,0,1,4,0v8.21A3.79,3.79,0,0,1,95.79,58v.85a3.78,3.78,0,0,1-3.22,3.74v4.65A3.78,3.78,0,0,1,95.79,71v.85a3.79,3.79,0,0,1-3.22,3.74V84.6A2,2,0,0,1,90.57,86.6Z"/><path class="cls-6" d="M84.69,59.91H66.09a2,2,0,0,1,0-4h18.6a2,2,0,0,1,0,4Z"/><path class="cls-6" d="M84.69,72.83H66.09a2,2,0,0,1,0-4h18.6a2,2,0,0,1,0,4Z"/><path class="cls-6" d="M92.49,91.87H58.29a3.3,3.3,0,0,1-3.3-3.3V85.91a3.31,3.31,0,0,1,3.3-3.31h34.2a3.31,3.31,0,0,1,3.3,3.31v2.66A3.3,3.3,0,0,1,92.49,91.87Zm-33.5-4h32.8V86.6H59Z"/><path class="cls-6" d="M92.36,48H58.16a3.31,3.31,0,0,1-3.31-3.31V42.05a3.31,3.31,0,0,1,3.31-3.3h34.2a3.3,3.3,0,0,1,3.3,3.3v2.66A3.31,3.31,0,0,1,92.36,48ZM58.85,44H91.66V42.75H58.85Z"/><rect class="cls-7" width="120" height="120"/></g></g></svg>