<svg xmlns="http://www.w3.org/2000/svg" viewBox="0 0 120 120"><defs><style>.cls-1{isolation:isolate;}.cls-2{fill:none;}.cls-3{fill:#ffea27;}.cls-4{mix-blend-mode:multiply;}.cls-5{fill:#f4d314;}.cls-6{fill:#95a6b1;}.cls-7{fill:#fff;}</style></defs><title>38-icon_ocenza_terminal_coveñas_el_ultimo_tramo</title><g class="cls-1"><g id="Capa_1" data-name="Capa 1"><rect class="cls-2" width="120" height="120"/><path class="cls-3" d="M57.68,116.23H39.48a2,2,0,0,1,0-4h18.2a2,2,0,0,1,0,4Z"/><path class="cls-3" d="M79.61,116.23h-9.1a2,2,0,0,1,0-4h9.1a2,2,0,0,1,0,4Z"/><path class="cls-3" d="M92.41,116.23a2,2,0,0,1-.76-.15,2,2,0,0,1-.65-.44,1.88,1.88,0,0,1-.44-.64,2,2,0,0,1-.15-.77,2,2,0,0,1,.59-1.41,2.06,2.06,0,0,1,2.83,0,2,2,0,0,1,.58,1.41,2,2,0,0,1-.15.77,1.85,1.85,0,0,1-.43.64A2,2,0,0,1,92.41,116.23Z"/><g class="cls-4"><path class="cls-5" d="M47,116.23H28.77a2,2,0,1,1,0-4H47a2,2,0,1,1,0,4Z"/></g><path class="cls-3" d="M74.15,104H28.77a2,2,0,0,1,0-4H74.15a2,2,0,0,1,0,4Z"/><g class="cls-4"><path class="cls-5" d="M28.77,104a2,2,0,0,1-1.42-3.42,2.42,2.42,0,0,1,.31-.25,2.21,2.21,0,0,1,.34-.18,2.78,2.78,0,0,1,.38-.12,2,2,0,0,1,1.8.55A2,2,0,0,1,28.77,104Z"/></g><g class="cls-4"><path class="cls-5" d="M92.41,104H66.65a2,2,0,0,1,0-4H92.41a2,2,0,0,1,0,4Z"/></g><path class="cls-6" d="M42.8,66.74H31.56a2,2,0,1,1,0-4H42.8a2,2,0,1,1,0,4Z"/><path class="cls-6" d="M81.57,45.21a1.72,1.72,0,0,1-.39,0,1.58,1.58,0,0,1-.37-.11,2.31,2.31,0,0,1-.35-.18,2.31,2.31,0,0,1-.74-.9,2,2,0,0,1-.15-.77,2,2,0,0,1,.59-1.41,2,2,0,0,1,2.82,0,2,2,0,0,1-1.41,3.41Z"/><path class="cls-6" d="M67.06,45.21H33.12a2,2,0,0,1-2-2V37.27a2,2,0,0,1,4,0v3.94H67.06a2,2,0,0,1,0,4Z"/><path class="cls-3" d="M31.74,33.27a9.5,9.5,0,0,1-4-18.14,9.5,9.5,0,0,1,12.59,4.69h0a9.5,9.5,0,0,1-8.63,13.45Zm0-15a5.52,5.52,0,0,0-5.14,3.58,5.5,5.5,0,1,0,5.14-3.58Z"/><path class="cls-6" d="M87.56,45.21h-6a2,2,0,0,1,0-4h4V25.31a.23.23,0,0,0-.23-.23H46a2,2,0,1,1,0-4H85.33a4.24,4.24,0,0,1,4.23,4.23v17.9A2,2,0,0,1,87.56,45.21Z"/><path class="cls-6" d="M78.3,25.08H51.2a2,2,0,0,1-2-2V16.54a4.12,4.12,0,0,1,4.12-4.11H76.48a3.82,3.82,0,0,1,3.82,3.82v6.83A2,2,0,0,1,78.3,25.08Zm-25.1-4H76.3V16.43h-23a.11.11,0,0,0-.12.11Zm23.28-4.65h0Z"/><path class="cls-6" d="M87.64,32.58H45.3a2,2,0,0,1,0-4H87.64a2,2,0,0,1,0,4Z"/><path class="cls-6" d="M24.25,73.44a2,2,0,0,1-2-2V45.77a4.54,4.54,0,0,1,4.54-4.54H67.06a2,2,0,0,1,0,4H26.79a.54.54,0,0,0-.54.54V71.44A2,2,0,0,1,24.25,73.44Z"/><path class="cls-6" d="M97,73.44a2,2,0,0,1-2-2v-26a.2.2,0,0,0-.19-.19l-13.19,0a2,2,0,0,1,0-4h0l13.19,0A4.2,4.2,0,0,1,99,45.42v26A2,2,0,0,1,97,73.44Z"/><path class="cls-6" d="M24.25,52.08a2,2,0,0,1,0-4H50.09a2,2,0,1,1,0,4Z"/><line class="cls-7" x1="42.81" y1="50.06" x2="42.81" y2="71.44"/><path class="cls-6" d="M42.81,73.44a2,2,0,0,1-2-2V50.06a2,2,0,0,1,4,0V71.44A2,2,0,0,1,42.81,73.44Z"/><path class="cls-6" d="M42.8,58.75H31.56a2,2,0,0,1,0-4H42.8a2,2,0,0,1,0,4Z"/><path class="cls-6" d="M31.53,73.44a2,2,0,0,1-2-2V50.06a2,2,0,0,1,4,0V71.44A2,2,0,0,1,31.53,73.44Z"/><path class="cls-6" d="M50.09,73.44a2,2,0,0,1-2-2V43.21a2,2,0,0,1,4,0V71.44A2,2,0,0,1,50.09,73.44Z"/><path class="cls-6" d="M81.55,56.35H67a2,2,0,0,1-1.42-.59A2,2,0,0,1,65,54.34l0-11.08a2,2,0,0,1,2-2h0a2,2,0,0,1,2,2l0,9.07H79.55v-9.1a2,2,0,0,1,4,0v11.1A2,2,0,0,1,81.55,56.35Z"/><path class="cls-6" d="M58.1,25.08a2,2,0,0,1-2-2V14.43a2,2,0,0,1,4,0v8.65A2,2,0,0,1,58.1,25.08Z"/><path class="cls-6" d="M64.75,25.08a2,2,0,0,1-2-2V14.43a2,2,0,0,1,4,0v8.65A2,2,0,0,1,64.75,25.08Z"/><path class="cls-6" d="M71.63,25.08a2,2,0,0,1-2-2V14.43a2,2,0,0,1,4,0v8.65A2,2,0,0,1,71.63,25.08Z"/><path class="cls-6" d="M89.26,57.08a2,2,0,0,1-2-2V43.25a2,2,0,1,1,4,0V55.08A2,2,0,0,1,89.26,57.08Z"/><path class="cls-6" d="M58.55,57.08a2,2,0,0,1-2-2V43.25a2,2,0,0,1,4,0V55.08A2,2,0,0,1,58.55,57.08Z"/><path class="cls-6" d="M97,73.44H24.25a2,2,0,0,1,0-4H97a2,2,0,0,1,0,4Z"/><path class="cls-6" d="M89.71,93.11H82.89a2,2,0,0,1-2-2V78.41a2,2,0,0,1,2-2h6.82a2,2,0,0,1,2,2v12.7A2,2,0,0,1,89.71,93.11Zm-4.82-4h2.82v-8.7H84.89Z"/><path class="cls-6" d="M82.89,91.75H65a12,12,0,0,1-12-12V71.44a2,2,0,0,1,2-2H65a2,2,0,0,1,2,2v5.68a.61.61,0,0,0,.61.61l15.28,0a2,2,0,0,1,2,2v10A2,2,0,0,1,82.89,91.75ZM57,73.44v6.29a8,8,0,0,0,8,8H80.89v-6l-13.29,0A4.62,4.62,0,0,1,63,77.12V73.44Z"/></g></g></svg>