<svg xmlns="http://www.w3.org/2000/svg" viewBox="0 0 120 120"><defs><style>.cls-1{isolation:isolate;}.cls-2{fill:none;}.cls-3{fill:#ffea27;}.cls-4{mix-blend-mode:multiply;}.cls-5{fill:#f4d314;}.cls-6{fill:#95a6b1;}.cls-7{fill:#94a5b0;}</style></defs><title>39-icon_ocenza_terminal_coveñas_por_que_almacenamos</title><g class="cls-1"><g id="Capa_1" data-name="Capa 1"><rect class="cls-2" width="120" height="120"/><path class="cls-3" d="M53.29,115.89H35.08a2,2,0,0,1,0-4H53.29a2,2,0,1,1,0,4Z"/><path class="cls-3" d="M75.22,115.89h-9.1a2,2,0,0,1,0-4h9.1a2,2,0,0,1,0,4Z"/><path class="cls-3" d="M88,115.89a2,2,0,0,1-1.42-.58,3.76,3.76,0,0,1-.25-.31,1.83,1.83,0,0,1-.18-.34,1.73,1.73,0,0,1-.11-.37,1.75,1.75,0,0,1,0-.4,2.09,2.09,0,0,1,.15-.76,1.7,1.7,0,0,1,.19-.35,2.25,2.25,0,0,1,.24-.3,2.06,2.06,0,0,1,2.83,0,1.73,1.73,0,0,1,.25.3,2.37,2.37,0,0,1,.19.35,2.59,2.59,0,0,1,.11.37,1.72,1.72,0,0,1,0,.39,1.75,1.75,0,0,1,0,.4,1.73,1.73,0,0,1-.11.37,1.41,1.41,0,0,1-.19.34,1.79,1.79,0,0,1-.25.31A2,2,0,0,1,88,115.89Z"/><g class="cls-4"><path class="cls-5" d="M42.58,115.89H24.37a2,2,0,1,1,0-4H42.58a2,2,0,0,1,0,4Z"/></g><path class="cls-3" d="M69.76,103.67H24.37a2,2,0,0,1,0-4H69.76a2,2,0,0,1,0,4Z"/><g class="cls-4"><path class="cls-5" d="M24.38,103.67a2,2,0,0,1-1.42-.59,2,2,0,0,1-.58-1.41,2.56,2.56,0,0,1,0-.39,2.4,2.4,0,0,1,.12-.38,2.21,2.21,0,0,1,.18-.34,2.42,2.42,0,0,1,.25-.31,2,2,0,0,1,1.81-.54,1.73,1.73,0,0,1,.37.11,1.7,1.7,0,0,1,.35.19,2.25,2.25,0,0,1,.3.24,3.76,3.76,0,0,1,.25.31,2.21,2.21,0,0,1,.18.34,1.66,1.66,0,0,1,.11.38,1.72,1.72,0,0,1,0,.39,2,2,0,0,1-2,2Z"/></g><g class="cls-4"><path class="cls-5" d="M88,103.67H62.26a2,2,0,0,1,0-4H88a2,2,0,0,1,0,4Z"/></g><path class="cls-6" d="M101.38,70H89.13a2,2,0,0,1-2-2V43.19a2,2,0,0,1,2-2h12.25a2,2,0,0,1,2,2V68A2,2,0,0,1,101.38,70ZM91.13,66h8.25V45.19H91.13Z"/><path class="cls-6" d="M108.29,74.94H103.1a3.73,3.73,0,0,1-3.72-3.72V40a3.73,3.73,0,0,1,3.72-3.72h5.19A3.73,3.73,0,0,1,112,40V71.22A3.73,3.73,0,0,1,108.29,74.94Zm-4.91-4H108V40.27h-4.63Z"/><path class="cls-6" d="M29.9,70H17.65a2,2,0,0,1-2-2V43.19a2,2,0,0,1,2-2H29.9a2,2,0,0,1,2,2V68A2,2,0,0,1,29.9,70ZM19.65,66H27.9V45.19H19.65Z"/><path class="cls-6" d="M15.93,74.94H10.75A3.73,3.73,0,0,1,7,71.22V40a3.73,3.73,0,0,1,3.72-3.72h5.18A3.73,3.73,0,0,1,19.65,40V71.22A3.73,3.73,0,0,1,15.93,74.94Zm-4.9-4h4.62V40.27H11Z"/><path class="cls-6" d="M89.13,68.37H29.9a2,2,0,0,1-2-2V44.49a2,2,0,0,1,2-2H89.13a2,2,0,0,1,2,2V66.37A2,2,0,0,1,89.13,68.37Zm-57.23-4H87.13V46.49H31.9Z"/><path class="cls-7" d="M49.4,68.37a2,2,0,0,1-1.82-1.17l-10-21.88a2,2,0,1,1,3.64-1.66l10,21.88a2,2,0,0,1-1,2.65A2,2,0,0,1,49.4,68.37Z"/><path class="cls-7" d="M64.58,68.37a2,2,0,0,1-1.82-1.17l-10-21.88a2,2,0,1,1,3.64-1.66l10,21.88a2,2,0,0,1-1,2.65A2,2,0,0,1,64.58,68.37Z"/><path class="cls-7" d="M80,68.37a2,2,0,0,1-1.82-1.17l-10-21.88a2,2,0,0,1,3.64-1.66l9.95,21.88a2,2,0,0,1-1,2.65A2,2,0,0,1,80,68.37Z"/><path class="cls-3" d="M40.14,31.93a9.49,9.49,0,1,1,8.62-13.44h0a9.49,9.49,0,0,1-8.62,13.44Zm0-15a5.5,5.5,0,1,0,2.29,10.51,5.5,5.5,0,0,0,2.72-7.29h0a5.46,5.46,0,0,0-3.08-2.87A5.62,5.62,0,0,0,40.12,16.93Z"/><path class="cls-6" d="M105.69,88.53a9.36,9.36,0,0,1-6.36-2.43,5.63,5.63,0,0,0-7.8,0,9.52,9.52,0,0,1-12.71,0,5.63,5.63,0,0,0-7.8,0,9.54,9.54,0,0,1-12.72,0,5.63,5.63,0,0,0-7.8,0,9.54,9.54,0,0,1-12.72,0,5.63,5.63,0,0,0-7.81,0,9.58,9.58,0,0,1-12.73,0,5.47,5.47,0,0,0-3.9-1.58,2,2,0,0,1,0-4A9.34,9.34,0,0,1,19.7,83a5.62,5.62,0,0,0,7.81,0,9.58,9.58,0,0,1,12.73,0A5.6,5.6,0,0,0,48,83a9.57,9.57,0,0,1,12.72,0,5.6,5.6,0,0,0,7.8,0,9.57,9.57,0,0,1,12.72,0,5.59,5.59,0,0,0,7.79,0,9.57,9.57,0,0,1,12.72,0,5.5,5.5,0,0,0,3.9,1.58,2,2,0,0,1,0,4Z"/><path class="cls-6" d="M19.85,28.59A6,6,0,0,1,15,25.86c-.82-1-1.1-1.27-1.7-1.27a2,2,0,0,1,0-4,6,6,0,0,1,4.81,2.74c.82,1,1.1,1.26,1.7,1.26s.88-.25,1.7-1.26a6,6,0,0,1,4.81-2.74,2,2,0,0,1,0,4c-.6,0-.88.26-1.71,1.27A5.94,5.94,0,0,1,19.85,28.59Z"/><path class="cls-6" d="M105.69,28.59a9.3,9.3,0,0,1-6.34-2.42,5.53,5.53,0,0,0-7.74,0,9.51,9.51,0,0,1-12.68,0,5.54,5.54,0,0,0-7.75,0,9.51,9.51,0,0,1-12.68,0,5.44,5.44,0,0,0-3.88-1.58,2,2,0,0,1,0-4A9.28,9.28,0,0,1,61,23a5.58,5.58,0,0,0,7.76,0A9.49,9.49,0,0,1,81.4,23a5.55,5.55,0,0,0,7.74,0,9.49,9.49,0,0,1,12.68,0,5.47,5.47,0,0,0,3.87,1.57,2,2,0,0,1,0,4Z"/><rect class="cls-2" width="120" height="120"/></g></g></svg>