<svg xmlns="http://www.w3.org/2000/svg" viewBox="0 0 536 536"><defs><style>.cls-1{fill:#33c976;}.cls-2{fill:#28347d;}</style></defs><title>4-icono-02</title><g id="Cir_Verde" data-name="Cir Verde"><path class="cls-1" d="M115.13,131.86a53.55,53.55,0,1,1-53.54,53.55A53.55,53.55,0,0,1,115.13,131.86Z"/><path class="cls-2" d="M115.13,240.21a54.8,54.8,0,1,1,54.8-54.8A54.87,54.87,0,0,1,115.13,240.21Zm0-107.1a52.3,52.3,0,1,0,52.3,52.3A52.36,52.36,0,0,0,115.13,133.11Z"/><path class="cls-2" d="M83.84,203.15a.83.83,0,0,1-.6-.25.85.85,0,0,1,0-1.2l10-10a13.23,13.23,0,0,1,10.25-3.85l6.14.4c.4,0,.82,0,1.23,0h12a4.53,4.53,0,0,1,0,9.05H111.59a.85.85,0,0,1,0-1.7h11.25a2.83,2.83,0,0,0,0-5.65h-12c-.45,0-.9,0-1.35,0l-6.13-.41a11.57,11.57,0,0,0-8.94,3.37l-10,10A.82.82,0,0,1,83.84,203.15Z"/><path class="cls-2" d="M93.71,213a.85.85,0,0,1-.61-1.45l5-5a8.26,8.26,0,0,1,5.88-2.43h17a7,7,0,0,0,3.61-1l21.48-13a2.67,2.67,0,0,0-2.77-4.57l-13.17,8a.85.85,0,0,1-1.16-.29.83.83,0,0,1,.28-1.16l13.17-8a4.37,4.37,0,0,1,6,1.48,4.37,4.37,0,0,1-1.48,6l-21.48,13a8.67,8.67,0,0,1-4.49,1.26H104a6.56,6.56,0,0,0-4.68,1.93l-5,5A.85.85,0,0,1,93.71,213Z"/><path class="cls-2" d="M129.44,188.63a.83.83,0,0,1-.65-.31.84.84,0,0,1,.11-1.19,18.44,18.44,0,1,0-26.63-3.3.85.85,0,0,1-1.37,1,20.14,20.14,0,1,1,29.08,3.6A.83.83,0,0,1,129.44,188.63Z"/><path class="cls-2" d="M119.27,182.89a.85.85,0,0,1-.85-.85V168.26a.85.85,0,0,1,.85-.85h4.83v-2.75H110.17v2.75H115a.85.85,0,0,1,.85.85V182a.85.85,0,1,1-1.7,0V169.11h-4.84a.85.85,0,0,1-.85-.85v-4.45a.85.85,0,0,1,.85-.85H125a.85.85,0,0,1,.85.85v4.45a.85.85,0,0,1-.85.85h-4.83V182A.85.85,0,0,1,119.27,182.89Z"/></g></svg>