<svg xmlns="http://www.w3.org/2000/svg" viewBox="0 0 536 536"><defs><style>.cls-1{fill:#1eadfe;}.cls-2{fill:#28347d;}</style></defs><title>4-icono-01</title><g id="Cir_Azul" data-name="Cir Azul"><circle class="cls-1" cx="169.19" cy="77.88" r="53.55"/><path class="cls-2" d="M169.19,132.68A54.8,54.8,0,1,1,224,77.88,54.86,54.86,0,0,1,169.19,132.68Zm0-107.1a52.3,52.3,0,1,0,52.3,52.3A52.36,52.36,0,0,0,169.19,25.58Z"/><path class="cls-2" d="M153.65,108.59a.86.86,0,0,1-.85-.85v-4.51a4.52,4.52,0,0,0-1-2.78L142,87.77a6,6,0,0,1-1.24-3.64V62.19a4,4,0,0,1,7.94,0V75.61a.85.85,0,0,1-1.7,0V62.19a2.27,2.27,0,0,0-4.54,0V84.13a4.28,4.28,0,0,0,.89,2.6l9.83,12.68a6.3,6.3,0,0,1,1.3,3.82v4.51A.85.85,0,0,1,153.65,108.59Z"/><path class="cls-2" d="M165.41,108.59a.85.85,0,0,1-.85-.85V97.38a7.12,7.12,0,0,0-3.48-6.11l-.85-.51a12.76,12.76,0,0,1-3.56-3.15l-5.39-7a2.21,2.21,0,0,0-3.16-.34,2.19,2.19,0,0,0-.33,3L158,96.54a.85.85,0,1,1-1.34,1L146.44,84.4A3.91,3.91,0,0,1,150,78.12a3.82,3.82,0,0,1,2.66,1.49l5.4,7a11,11,0,0,0,3.08,2.73l.85.5a8.85,8.85,0,0,1,4.31,7.58v10.36A.85.85,0,0,1,165.41,108.59Z"/><path class="cls-2" d="M182.87,108.59a.85.85,0,0,1-.85-.85v-4.51a6.3,6.3,0,0,1,1.3-3.82l9.83-12.68a4.28,4.28,0,0,0,.89-2.6V62.19a2.27,2.27,0,1,0-4.54,0V75.61a.85.85,0,0,1-1.7,0V62.19a4,4,0,1,1,7.94,0V84.13a5.94,5.94,0,0,1-1.25,3.64l-9.82,12.68a4.52,4.52,0,0,0-.95,2.78v4.51A.86.86,0,0,1,182.87,108.59Z"/><path class="cls-2" d="M171.11,108.59a.85.85,0,0,1-.85-.85V97.38a8.85,8.85,0,0,1,4.31-7.58l.85-.5a11,11,0,0,0,3.08-2.73l5.4-7a3.82,3.82,0,0,1,2.67-1.49,3.91,3.91,0,0,1,3.51,6.28L179.86,97.58a.85.85,0,1,1-1.34-1l10.21-13.18a2.19,2.19,0,0,0-.33-3,2.21,2.21,0,0,0-3.16.34l-5.39,7a12.76,12.76,0,0,1-3.56,3.15l-.85.5A7.15,7.15,0,0,0,172,97.38v10.36A.85.85,0,0,1,171.11,108.59Z"/><path class="cls-2" d="M168.26,76.9a14.25,14.25,0,1,1,5.91-27.21.86.86,0,0,1,.42,1.13.87.87,0,0,1-1.13.42,12.39,12.39,0,0,0-5.2-1.13,12.53,12.53,0,1,0,10.38,5.5.86.86,0,0,1,.22-1.18.84.84,0,0,1,1.18.22A14.25,14.25,0,0,1,168.26,76.9Z"/><path class="cls-2" d="M168.27,68.94a.82.82,0,0,1-.6-.25l-5.78-5.78a.85.85,0,0,1,1.2-1.2l5,5,11-20.14a.85.85,0,0,1,1.15-.34.86.86,0,0,1,.34,1.16L169,68.5a.85.85,0,0,1-.62.44Z"/></g></svg>