<svg xmlns="http://www.w3.org/2000/svg" viewBox="0 0 536 536"><defs><style>.cls-1{fill:#fd0;}.cls-2{fill:#28347d;}</style></defs><title>4-icono-03</title><g id="Cir_Amarillo" data-name="Cir Amarillo"><path class="cls-1" d="M233.29,131.86a53.55,53.55,0,1,1-53.55,53.55A53.55,53.55,0,0,1,233.29,131.86Z"/><path class="cls-2" d="M233.28,240.21a54.8,54.8,0,1,1,54.8-54.8A54.87,54.87,0,0,1,233.28,240.21Zm0-107.1a52.3,52.3,0,1,0,52.3,52.3A52.36,52.36,0,0,0,233.28,133.11Z"/><path class="cls-2" d="M268.31,194.32H243a.85.85,0,0,1,0-1.7h24.49V169.11H234.15v14.08a.85.85,0,0,1-1.7,0V168.26a.85.85,0,0,1,.85-.85h35a.85.85,0,0,1,.85.85v25.21A.85.85,0,0,1,268.31,194.32Z"/><path class="cls-2" d="M269.83,169.11h-38a.85.85,0,0,1-.85-.85v-4.78a.85.85,0,0,1,.85-.85h38a.85.85,0,0,1,.85.85v4.78A.85.85,0,0,1,269.83,169.11Zm-37.2-1.7H269v-3.08H232.63Z"/><path class="cls-2" d="M239.27,187.43a.89.89,0,0,1-.59-.23.85.85,0,0,1,0-1.2l4.11-4.38a.86.86,0,0,1,.62-.27h0a.85.85,0,0,1,.62.27l2.07,2.19,4.72-5.29a.81.81,0,0,1,.61-.28.79.79,0,0,1,.63.25l2.5,2.57,7.68-8a.85.85,0,1,1,1.22,1.18l-8.28,8.59a.83.83,0,0,1-.61.26h0a.86.86,0,0,1-.61-.25l-2.48-2.55-4.73,5.31a.85.85,0,0,1-1.25,0l-2.09-2.21-3.49,3.72A.86.86,0,0,1,239.27,187.43Z"/><path class="cls-2" d="M250.8,206.11a.86.86,0,0,1-.85-.85V193.47a.85.85,0,0,1,1.7,0v11.79A.85.85,0,0,1,250.8,206.11Z"/><path class="cls-2" d="M196.54,206.11h-.12a.84.84,0,0,1-.72-.95l1.5-11.23a9.24,9.24,0,0,1,7.23-7.82l5.62-1.19h.07l7.73-1.65.2,0,.19,0,7.76,1.56h.05l5.64,1.13a9.25,9.25,0,0,1,7.33,7.72l1.63,11.22a.85.85,0,0,1-.72,1,.84.84,0,0,1-1-.72l-1.64-11.21a7.54,7.54,0,0,0-6-6.31l-4.93-1L224.28,193a.86.86,0,0,1-1.53.18L221,190.36l-.87,1.09,2.94,13.48a.85.85,0,1,1-1.66.36l-2.65-12.13h0a.84.84,0,0,1-.66.32h0a.85.85,0,0,1-.66-.31h0l-2.51,12.17a.86.86,0,0,1-1,.66.85.85,0,0,1-.66-1l2.79-13.52-.89-1.07-1.71,2.78a.84.84,0,0,1-.81.4.85.85,0,0,1-.72-.56l-2.22-6.3-4.91,1.05a7.54,7.54,0,0,0-5.91,6.37l-1.5,11.23A.85.85,0,0,1,196.54,206.11Zm21.09-15.39.46.56.46-.56,0,0,1.48-1.85-2-3.15-1.95,3.18,1.5,1.82Zm-6.25-4.35,1.56,4.4,1.37-2.23.06-.1,1.92-3.11Zm10.46,2.12,1.4,2.22,1.5-4.42-4.91-1,1.95,3.1ZM218,182.62a9.25,9.25,0,0,1-9.24-9.19l0-4.46v-1.33a9.25,9.25,0,0,1,9.18-9.29H218a9.24,9.24,0,0,1,9.23,9.19v.73l0,5.06h0a9.24,9.24,0,0,1-9.18,9.29Zm-7.56-12.72,0,3.52a7.56,7.56,0,0,0,7.54,7.5h0a7.55,7.55,0,0,0,5.32-2.24,7.47,7.47,0,0,0,2.17-5.35l0-4.31a11,11,0,0,1-5.87-2.81,11.19,11.19,0,0,1-8.25,3.72C211.06,169.93,210.75,169.92,210.43,169.9Zm0-1.71c.32,0,.64,0,1,0a9.44,9.44,0,0,0,7.48-3.75l.07-.09.17-.24a9.48,9.48,0,0,0,1.26-2.6c.1-.34.18-.68.25-1a7.73,7.73,0,0,0-2.69-.48,7.53,7.53,0,0,0-7.49,7.58Zm10.24-3.34a9.3,9.3,0,0,0,4.82,2.44,7.49,7.49,0,0,0-2.23-5.06,7.78,7.78,0,0,0-1.09-.9c0,.24-.12.48-.19.71A10.75,10.75,0,0,1,220.66,164.85Z"/><path class="cls-2" d="M255.2,206.11h-8.79a.85.85,0,0,1,0-1.7h8.79a.85.85,0,0,1,0,1.7Z"/></g></svg>