<svg xmlns="http://www.w3.org/2000/svg" viewBox="0 0 120 120"><defs><style>.cls-1{isolation:isolate;}.cls-2{fill:none;}.cls-3{fill:#ffea27;}.cls-4{mix-blend-mode:multiply;}.cls-5{fill:#f4d314;}.cls-6{fill:#95a6b1;}.cls-7{fill:#fff;}</style></defs><title>40-icon_ocenza_terminal_coveñas_aqui_contamos</title><g class="cls-1"><g id="Capa_1" data-name="Capa 1"><rect class="cls-2" width="120" height="120"/><path class="cls-3" d="M56.67,116.15H35.85a2.29,2.29,0,0,1,0-4.58H56.67a2.29,2.29,0,0,1,0,4.58Z"/><path class="cls-3" d="M81.75,116.15H71.34a2.29,2.29,0,0,1,0-4.58H81.75a2.29,2.29,0,1,1,0,4.58Z"/><path class="cls-3" d="M96.39,116.15a2.3,2.3,0,0,1-.45-.05,2,2,0,0,1-.42-.13,2.19,2.19,0,0,1-.4-.21,3.07,3.07,0,0,1-.35-.28,2.39,2.39,0,0,1-.28-.35,2.1,2.1,0,0,1-.21-.39,2.35,2.35,0,0,1-.13-.43,2,2,0,0,1,0-.9,2,2,0,0,1,.13-.42,2.19,2.19,0,0,1,.21-.4,3.07,3.07,0,0,1,.28-.35,2.39,2.39,0,0,1,3.24,0,3.07,3.07,0,0,1,.28.35,2.19,2.19,0,0,1,.21.4,2,2,0,0,1,.13.42,2.05,2.05,0,0,1,0,.9,2.35,2.35,0,0,1-.13.43,2.1,2.1,0,0,1-.21.39,2,2,0,0,1-.63.63,2.1,2.1,0,0,1-.39.21,2.35,2.35,0,0,1-.43.13A2.3,2.3,0,0,1,96.39,116.15Z"/><g class="cls-4"><path class="cls-5" d="M44.43,116.15H23.61a2.29,2.29,0,1,1,0-4.58H44.43a2.29,2.29,0,0,1,0,4.58Z"/></g><path class="cls-3" d="M75.51,102.17H23.61a2.29,2.29,0,0,1,0-4.58h51.9a2.29,2.29,0,1,1,0,4.58Z"/><g class="cls-4"><path class="cls-5" d="M23.61,102.17A2.29,2.29,0,0,1,22,98.26a2.38,2.38,0,0,1,3.24,0,2.29,2.29,0,0,1-1.62,3.91Z"/></g><g class="cls-4"><path class="cls-5" d="M96.39,102.17H66.93a2.29,2.29,0,0,1,0-4.58H96.39a2.29,2.29,0,1,1,0,4.58Z"/></g><path class="cls-3" d="M41,29.4a11.52,11.52,0,0,1-4.81-22,11.53,11.53,0,0,1,15.74,14.1A11.51,11.51,0,0,1,41,29.4Zm0-19.06a7.53,7.53,0,1,0,3.13,14.38,7.42,7.42,0,0,0,4-4.48,7.53,7.53,0,0,0-.3-5.5h0a7.48,7.48,0,0,0-4.22-3.93A7.72,7.72,0,0,0,40.94,10.34Z"/><path class="cls-6" d="M59.94,73.87H58.7c-9.15-.16-17.75-2-24.22-5.34C27.55,65,23.78,60.24,23.87,55.13s4-9.74,11.06-13c6.58-3.06,15.25-4.66,24.39-4.51,19.7.34,35,8.57,34.82,18.73h0C94,66.28,79.05,73.87,59.94,73.87ZM58.08,41.59c-8.11,0-15.7,1.46-21.46,4.15-5.5,2.56-8.69,6-8.75,9.46s3,7,8.42,9.75c5.94,3,13.92,4.76,22.48,4.91,16.88.31,31.24-5.94,31.37-13.6s-14-14.37-30.89-14.66Z"/><path class="cls-6" d="M58.58,90.87h-.17c-10.3-.18-18.1-15.75-17.76-35.45a74.51,74.51,0,0,1,4.42-22.57,2,2,0,1,1,3.73,1.43,69.9,69.9,0,0,0-4.15,21.21c-.29,16.87,6,31.24,13.82,31.38h.11c7.74,0,14.5-14.09,14.78-30.89s-6-31.25-13.82-31.39a2,2,0,1,1,.07-4c10.29.17,18.09,15.74,17.75,35.45S68.79,90.87,58.58,90.87Z"/><rect class="cls-6" x="57.01" y="22.59" width="4" height="66.27" transform="translate(3.17 114.62) rotate(-89.88)"/><rect class="cls-6" x="25.87" y="53.73" width="66.28" height="4" transform="matrix(0.02, -1, 1, 0.02, 2.28, 113.78)"/><path class="cls-6" d="M59.05,90.89a35.25,35.25,0,0,1-10.67-1.66A34.9,34.9,0,0,1,27.81,71.9,35.28,35.28,0,0,1,33,32.07a2,2,0,0,1,3,2.69,31.27,31.27,0,0,0-4.61,35.3A31.14,31.14,0,1,0,57.05,24.64a2,2,0,0,1-.25-4,35.15,35.15,0,1,1,2.25,70.24Z"/><polygon class="cls-7" points="103.9 43.76 109.45 18.89 84.58 24.45 90.47 30.34 74.74 46.06 80.22 55.65 98.01 37.87 103.9 43.76"/><path class="cls-6" d="M80.22,57.65H80a2,2,0,0,1-1.47-1L73,47.06a2,2,0,0,1,.32-2.41L87.64,30.34l-4.47-4.48a2,2,0,0,1,1-3.37L109,16.94a2,2,0,0,1,1.85.54,2,2,0,0,1,.54,1.85L105.85,44.2a2,2,0,0,1-1.4,1.48,2,2,0,0,1-2-.5L98,40.7,81.64,57.07A2,2,0,0,1,80.22,57.65Zm-3-11.25,3.42,6L96.59,36.46a2,2,0,0,1,2.83,0l3.32,3.31,4.07-18.24L88.57,25.6l3.31,3.32a2,2,0,0,1,0,2.83Z"/></g></g></svg>