<svg xmlns="http://www.w3.org/2000/svg" viewBox="0 0 120 120"><defs><style>.cls-1{isolation:isolate;}.cls-2{fill:#ffea27;}.cls-3{mix-blend-mode:multiply;}.cls-4{fill:#f4d314;}.cls-5{fill:#95a6b1;}.cls-6{fill:#94a5b0;}.cls-7{fill:none;}</style></defs><title>41-icon_ocenza_terminal_coveñas_2020_tlu2</title><g class="cls-1"><g id="Capa_1" data-name="Capa 1"><path class="cls-2" d="M58.24,116.23H40a2,2,0,1,1,0-4H58.24a2,2,0,0,1,0,4Z"/><path class="cls-2" d="M80.17,116.23h-9.1a2,2,0,0,1,0-4h9.1a2,2,0,0,1,0,4Z"/><path class="cls-2" d="M93,116.23a2,2,0,0,1-1.42-3.41,1.79,1.79,0,0,1,.31-.25,2.27,2.27,0,0,1,.34-.19,1.66,1.66,0,0,1,.38-.11,2,2,0,0,1,2.39,2,2,2,0,0,1-.15.77,1.88,1.88,0,0,1-.44.64,1.92,1.92,0,0,1-.65.44A2,2,0,0,1,93,116.23Z"/><g class="cls-3"><path class="cls-4" d="M47.53,116.23H29.32a2,2,0,0,1,0-4H47.53a2,2,0,0,1,0,4Z"/></g><path class="cls-2" d="M74.71,104H29.32a2,2,0,1,1,0-4H74.71a2,2,0,0,1,0,4Z"/><g class="cls-3"><path class="cls-4" d="M29.33,104a2,2,0,0,1-2-2,2,2,0,0,1,2.39-2,2.65,2.65,0,0,1,.37.12,2.31,2.31,0,0,1,.35.18,2.34,2.34,0,0,1,.3.25,1.89,1.89,0,0,1,.25.31,1.83,1.83,0,0,1,.18.34,2.65,2.65,0,0,1,.12.37,2.56,2.56,0,0,1,0,.39,2,2,0,0,1-2,2Z"/></g><g class="cls-3"><path class="cls-4" d="M93,104H67.21a2,2,0,1,1,0-4H93a2,2,0,0,1,0,4Z"/></g><path class="cls-2" d="M28.29,48.16a9.51,9.51,0,1,1,3.93-.86A9.36,9.36,0,0,1,28.29,48.16Zm0-15a5.5,5.5,0,1,0,5,3.21h0A5.5,5.5,0,0,0,28.26,33.17Z"/><path class="cls-5" d="M68.55,64.27a2,2,0,0,1-2-2V46.37a.94.94,0,0,0-.94-.94H41.81a2,2,0,0,1,0-4h23.8a4.94,4.94,0,0,1,4.94,4.94v15.9A2,2,0,0,1,68.55,64.27Z"/><path class="cls-5" d="M28.64,62.92a2,2,0,0,1-2-2v-8a2,2,0,0,1,4,0v8A2,2,0,0,1,28.64,62.92Z"/><path class="cls-5" d="M59.72,45.45a2,2,0,0,1-2-2V33.7l-15.91,0a2,2,0,0,1,0-4H57.76a4,4,0,0,1,4,4v9.75A2,2,0,0,1,59.72,45.45Z"/><path class="cls-5" d="M68,90.16a2.1,2.1,0,0,1-.56-.08A2,2,0,0,1,66.1,87.6l6-20.68c.07-.22,0-.37-.11-.44L47.6,52.94a.28.28,0,0,0-.28,0L22.7,66.47a.29.29,0,0,0-.13.36L29,86.58a2,2,0,0,1-3.8,1.24l-6.39-19.7a4.26,4.26,0,0,1,2-5.16L45.39,49.43a4.28,4.28,0,0,1,4.15,0L74,63a4.29,4.29,0,0,1,2,5.14l-6,20.6A2,2,0,0,1,68,90.16Z"/><path class="cls-5" d="M47.47,89.71a2,2,0,0,1-2-2V50.89a2,2,0,0,1,4,0V87.71A2,2,0,0,1,47.47,89.71Z"/><circle class="cls-5" cx="35.53" cy="67.32" r="2.98"/><circle class="cls-5" cx="59.34" cy="67.32" r="2.98"/><path class="cls-5" d="M55.25,33.75h-14V19.13a3.65,3.65,0,0,1,3.64-3.64h6.54a3.77,3.77,0,0,1,3.77,3.76Zm-10-4h6V19.49h-6Z"/><path class="cls-6" d="M82.33,92.61A7.5,7.5,0,0,1,76.69,90c-1-1-1.59-1.5-2.84-1.5S72,89,71,90a7.34,7.34,0,0,1-11.28,0c-1-1-1.59-1.5-2.84-1.5S55.08,89,54,90a7.34,7.34,0,0,1-11.28,0c-1-1-1.59-1.5-2.84-1.5S38.11,89,37.07,90a7.34,7.34,0,0,1-11.28,0c-1-1-1.6-1.5-2.85-1.5S21.13,89,20.09,90a7.48,7.48,0,0,1-5.64,2.64,2,2,0,0,1,0-4c1.25,0,1.81-.48,2.85-1.5a7.34,7.34,0,0,1,11.28,0c1,1,1.6,1.5,2.85,1.5s1.81-.48,2.85-1.5a7.34,7.34,0,0,1,11.28,0c1,1,1.59,1.5,2.84,1.5s1.81-.48,2.85-1.5a7.33,7.33,0,0,1,11.27,0c1,1,1.6,1.5,2.85,1.5s1.8-.48,2.84-1.5a7.34,7.34,0,0,1,11.28,0c1,1,1.59,1.5,2.84,1.5a2,2,0,0,1,0,4Z"/><path class="cls-5" d="M79.54,54.72a2,2,0,0,1-2-2V41.91l-.86.86A2,2,0,0,1,73.85,40l4.27-4.28a2,2,0,0,1,3.42,1.41V52.72A2,2,0,0,1,79.54,54.72Z"/><path class="cls-5" d="M86.35,45.63a2,2,0,0,1-2-2V37.08a2,2,0,0,1,2-2h6.7a2,2,0,0,1,0,4h-4.7v4.55A2,2,0,0,1,86.35,45.63Z"/><path class="cls-5" d="M88.84,54.73l-.57,0a6.61,6.61,0,0,1-3.69-1.51,2,2,0,0,1,2.56-3.08,2.62,2.62,0,0,0,3.45-.06,3,3,0,0,0,1-2,2.86,2.86,0,0,0-2.5-3.15,2.64,2.64,0,0,0-1.66.42A2,2,0,0,1,85.27,42a6.53,6.53,0,0,1,4.16-1,6.85,6.85,0,0,1,6.15,7.46,7,7,0,0,1-2.35,4.69A6.61,6.61,0,0,1,88.84,54.73Z"/><path class="cls-5" d="M103.62,46.68a5.84,5.84,0,1,1,6-5.84A5.93,5.93,0,0,1,103.62,46.68Zm0-7.68a1.85,1.85,0,1,0,2,1.84A1.93,1.93,0,0,0,103.62,39Z"/><path class="cls-5" d="M103.62,54.8a6.06,6.06,0,1,1,6.22-6.06A6.15,6.15,0,0,1,103.62,54.8Zm0-8.12a2.07,2.07,0,1,0,2.22,2.06A2.15,2.15,0,0,0,103.62,46.68Z"/><rect class="cls-7" width="120" height="120"/></g></g></svg>