<svg xmlns="http://www.w3.org/2000/svg" viewBox="0 0 120 120"><defs><style>.cls-1{isolation:isolate;}.cls-2{fill:#ffea27;}.cls-3{mix-blend-mode:multiply;}.cls-4{fill:#f4d314;}.cls-5{fill:#95a6b1;}.cls-6{fill:none;}</style></defs><title>42-icon_ocenza_terminal_coveñas_2020_barriles</title><g class="cls-1"><g id="Capa_1" data-name="Capa 1"><path class="cls-2" d="M57.09,115.86H38.88a2,2,0,0,1,0-4H57.09a2,2,0,0,1,0,4Z"/><path class="cls-2" d="M79,115.86h-9.1a2,2,0,0,1,0-4H79a2,2,0,0,1,0,4Z"/><path class="cls-2" d="M91.82,115.86a2,2,0,0,1-1.41-.59,1.88,1.88,0,0,1-.44-.64,2,2,0,0,1,.44-2.18,2.06,2.06,0,0,1,2.83,0,2,2,0,0,1,0,2.82,2.51,2.51,0,0,1-.31.26,2.21,2.21,0,0,1-.34.18,2.2,2.2,0,0,1-.77.15Z"/><g class="cls-3"><path class="cls-4" d="M46.38,115.86H28.18a2,2,0,1,1,0-4h18.2a2,2,0,1,1,0,4Z"/></g><path class="cls-2" d="M73.56,103.64H28.18a2,2,0,1,1,0-4H73.56a2,2,0,0,1,0,4Z"/><g class="cls-3"><path class="cls-4" d="M28.18,103.64a2,2,0,0,1-1.42-.59,2.16,2.16,0,0,1-.43-.65,2,2,0,0,1-.15-.76,2,2,0,0,1,.58-1.42l.31-.25a2.21,2.21,0,0,1,.34-.18,2.4,2.4,0,0,1,.38-.12,2,2,0,0,1,.78,0,2.29,2.29,0,0,1,.37.12,2.31,2.31,0,0,1,.35.18,2.48,2.48,0,0,1,.3.25,2.34,2.34,0,0,1,.25.3,1.66,1.66,0,0,1,.18.35,2.65,2.65,0,0,1,.12.37,2.58,2.58,0,0,1,0,.4,2,2,0,0,1-.15.76,2,2,0,0,1-.44.65A2,2,0,0,1,28.18,103.64Z"/></g><g class="cls-3"><path class="cls-4" d="M91.82,103.64H66.06a2,2,0,0,1,0-4H91.82a2,2,0,0,1,0,4Z"/></g><path class="cls-2" d="M22.64,30.88a10.28,10.28,0,0,1-3.53-.64A10.1,10.1,0,1,1,31.82,16.58h0a10.11,10.11,0,0,1-9.18,14.3Zm0-16.21a6.1,6.1,0,1,0,2.54,11.65,6.1,6.1,0,0,0,3-8.08h0a6.13,6.13,0,0,0-5.55-3.57Z"/><path class="cls-5" d="M89.55,34.5H79.69a2.88,2.88,0,0,1-2.83-2.92V27.09a2.88,2.88,0,0,1,2.83-2.92h9.86a2.87,2.87,0,0,1,2.82,2.92v4.49A2.87,2.87,0,0,1,89.55,34.5Zm-8.89-3.8h7.91V28H80.66ZM89.55,28h0Z"/><path class="cls-5" d="M102,83.83H69.21a1.9,1.9,0,0,1-1.9-1.9v-10a3.84,3.84,0,0,1-3.48-3.81v-.91a3.83,3.83,0,0,1,3.48-3.81V57.9a3.84,3.84,0,0,1-3.48-3.81v-.92a3.84,3.84,0,0,1,3.48-3.81v-9.1a1.9,1.9,0,0,1,3.8,0v11a1.9,1.9,0,0,1-1.9,1.9H67.66l0,.94,1.58,0a1.9,1.9,0,0,1,1.9,1.9v9.25a1.9,1.9,0,0,1-1.9,1.9H67.66l0,.94,1.58,0a1.9,1.9,0,0,1,1.9,1.9V80h29V70a1.9,1.9,0,0,1,1.9-1.9h1.56l0-.93-1.58,0a1.9,1.9,0,0,1-1.9-1.9V56a1.9,1.9,0,0,1,1.9-1.9h1.56l0-.94-1.58,0a1.9,1.9,0,0,1-1.9-1.9v-11a1.9,1.9,0,1,1,3.8,0v9.1a3.83,3.83,0,0,1,3.48,3.81v.92a3.83,3.83,0,0,1-3.48,3.81v5.48a3.82,3.82,0,0,1,3.48,3.81v.91a3.83,3.83,0,0,1-3.48,3.81v10A1.9,1.9,0,0,1,102,83.83Z"/><path class="cls-5" d="M95.64,55H75.55a1.9,1.9,0,1,1,0-3.8H95.64a1.9,1.9,0,1,1,0,3.8Z"/><path class="cls-5" d="M95.64,69H75.55a1.9,1.9,0,1,1,0-3.8H95.64a1.9,1.9,0,1,1,0,3.8Z"/><path class="cls-5" d="M103.81,91.61H67.38a3.55,3.55,0,0,1-3.55-3.54V83.58A3.55,3.55,0,0,1,67.38,80h36.43a3.55,3.55,0,0,1,3.55,3.55v4.49A3.55,3.55,0,0,1,103.81,91.61Zm-36.18-3.8h35.93v-4H67.63Z"/><path class="cls-5" d="M103.68,42.16H67.22a3.54,3.54,0,0,1-3.53-3.53V34.24a3.54,3.54,0,0,1,3.53-3.54h36.46a3.54,3.54,0,0,1,3.53,3.54v4.39A3.54,3.54,0,0,1,103.68,42.16Zm-36.19-3.8h35.92V34.5H67.49Z"/><rect class="cls-5" x="19" y="41.87" width="49.64" height="3.8" transform="translate(-0.69 86.85) rotate(-89.03)"/><rect class="cls-5" x="19.02" y="41.45" width="50.19" height="3.8"/><path class="cls-5" d="M67,53.26a2,2,0,0,1-.58-.09,1.9,1.9,0,0,1-1.23-2.39,22.83,22.83,0,0,0,1.1-7,21.88,21.88,0,0,0-.23-3.22A1.9,1.9,0,1,1,69.83,40a24.25,24.25,0,0,1,.28,3.8,26.62,26.62,0,0,1-1.28,8.17A1.89,1.89,0,0,1,67,53.26Z"/><path class="cls-5" d="M65.89,35.2a1.9,1.9,0,0,1-1.72-1.1A22.93,22.93,0,0,0,38.92,21.3c-.63.12-1.27.28-1.89.46A1.91,1.91,0,1,1,36,18.1c.73-.21,1.48-.39,2.22-.53A26.72,26.72,0,0,1,67.61,32.5,1.88,1.88,0,0,1,66.69,35,1.9,1.9,0,0,1,65.89,35.2Z"/><path class="cls-5" d="M43.4,70.49a26.73,26.73,0,0,1-25.4-35c.19-.57.4-1.14.62-1.69a1.9,1.9,0,1,1,3.52,1.43c-.19.47-.37,1-.53,1.45a22.93,22.93,0,0,0,21.79,30,23,23,0,0,0,20.67-13,1.9,1.9,0,0,1,3.43,1.64A26.86,26.86,0,0,1,43.4,70.49Z"/><path class="cls-5" d="M43.4,57.76c-15,0-26.72-6.14-26.72-14s11.74-14,26.72-14c9.94,0,19,2.77,23.52,7.23a1.9,1.9,0,0,1,.57,1.36,1.92,1.92,0,0,1,1.25.86,8.48,8.48,0,0,1,1.37,4.53C70.11,51.62,58.38,57.76,43.4,57.76Zm0-24.17c-10.84,0-22.92,4.18-22.92,10.18S32.56,54,43.4,54s22.91-4.18,22.91-10.19a4.68,4.68,0,0,0-.79-2.51,1.9,1.9,0,0,1-.29-1,1.88,1.88,0,0,1-1-.51C60.44,36,52.25,33.59,43.4,33.59Z"/><path class="cls-5" d="M43.4,70.49c-8.17,0-14.57-11.73-14.57-26.72a44.55,44.55,0,0,1,2.48-15.09A1.9,1.9,0,1,1,34.88,30a40.68,40.68,0,0,0-2.25,13.78c0,13.71,5.57,22.92,10.77,22.92s10.77-9.21,10.77-22.92S48.6,20.86,43.4,20.86a1.9,1.9,0,0,1,0-3.8C51.57,17.06,58,28.79,58,43.77S51.57,70.49,43.4,70.49Z"/><rect class="cls-6" width="120" height="120"/></g></g></svg>