<svg xmlns="http://www.w3.org/2000/svg" viewBox="0 0 120 120"><defs><style>.cls-1{isolation:isolate;}.cls-2{fill:none;}.cls-3{fill:#ffea27;}.cls-4{mix-blend-mode:multiply;}.cls-5{fill:#f4d314;}.cls-6{fill:#95a6b1;}.cls-7{fill:#94a5b0;}</style></defs><title>43-icon_ocenza_terminal_coveñas_2020_record_buques</title><g class="cls-1"><g id="Capa_1" data-name="Capa 1"><rect class="cls-2" width="120" height="120"/><path class="cls-3" d="M56.46,115.86H38.25a2,2,0,0,1,0-4H56.46a2,2,0,0,1,0,4Z"/><path class="cls-3" d="M78.39,115.86h-9.1a2,2,0,0,1,0-4h9.1a2,2,0,0,1,0,4Z"/><path class="cls-3" d="M91.19,115.86a2,2,0,0,1-1.85-1.23,2,2,0,0,1-.15-.77,2,2,0,0,1,.58-1.41,2,2,0,0,1,1.81-.55A1.6,1.6,0,0,1,92,112a1.66,1.66,0,0,1,.35.18,1.42,1.42,0,0,1,.3.25,2,2,0,0,1,.59,1.41,2,2,0,0,1-.15.77,2.31,2.31,0,0,1-.74.9,2.31,2.31,0,0,1-.35.18,1.58,1.58,0,0,1-.37.11A1.72,1.72,0,0,1,91.19,115.86Z"/><g class="cls-4"><path class="cls-5" d="M45.75,115.86H27.54a2,2,0,0,1,0-4H45.75a2,2,0,1,1,0,4Z"/></g><path class="cls-3" d="M72.93,103.64H27.54a2,2,0,0,1,0-4H72.93a2,2,0,0,1,0,4Z"/><g class="cls-4"><path class="cls-5" d="M27.54,103.64a2,2,0,0,1-1.41-.59,2,2,0,0,1-.44-.65,2,2,0,0,1-.15-.76,2,2,0,0,1,.59-1.42,2.48,2.48,0,0,1,.3-.25,2.31,2.31,0,0,1,.35-.18,2.29,2.29,0,0,1,.37-.12,2,2,0,0,1,.78,0,2.4,2.4,0,0,1,.38.12,1.83,1.83,0,0,1,.34.18,2.6,2.6,0,0,1,.31.25,3.61,3.61,0,0,1,.25.3,2.31,2.31,0,0,1,.18.35,2.65,2.65,0,0,1,.12.37,2.69,2.69,0,0,1,0,.4,2,2,0,0,1-2,2Z"/></g><g class="cls-4"><path class="cls-5" d="M91.19,103.64H65.43a2,2,0,0,1,0-4H91.19a2,2,0,0,1,0,4Z"/></g><path class="cls-6" d="M97.72,35.86A12.81,12.81,0,1,1,102.18,11a12.81,12.81,0,0,1,7.69,16,12.8,12.8,0,0,1-12.15,8.79Zm0-21.63a8.82,8.82,0,1,0,8,5.15h0a8.83,8.83,0,0,0-8-5.15Z"/><g id="Trazado_5705" data-name="Trazado 5705"><path class="cls-7" d="M96.19,28.9a2,2,0,0,1-1.47-.64l-3.63-3.94A2,2,0,0,1,94,21.61l2.11,2.29,5.21-6a2,2,0,1,1,3,2.61L97.7,28.21a2,2,0,0,1-1.48.69Z"/></g><path class="cls-5" d="M17.08,54.4A9.5,9.5,0,1,1,21,53.54,9.5,9.5,0,0,1,17.08,54.4Zm0-15a5.5,5.5,0,1,0,2.29,10.5,5.49,5.49,0,0,0,2.72-7.28h0A5.46,5.46,0,0,0,19,39.75,5.62,5.62,0,0,0,17.06,39.4Z"/><path class="cls-6" d="M20.61,85.59a1.94,1.94,0,0,1-.71-.13,2,2,0,0,1-1.15-2.58,17.14,17.14,0,0,0,1.19-7H17.83a3.55,3.55,0,0,1-3.55-3.55V64.83a3.24,3.24,0,0,1,3.24-3.24H85.79a.52.52,0,0,0,.18,0l15.44-4.18A3.05,3.05,0,0,1,105.17,61L99.23,83.78a2,2,0,0,1-3.87-1l5.51-21.09L87,65.43a4.56,4.56,0,0,1-1.23.16H18.28v6.24h3.29a2,2,0,0,1,1.94,1.5l.14.53c.83,3.3-.06,7.56-1.17,10.45A2,2,0,0,1,20.61,85.59Z"/><path class="cls-6" d="M48.59,54.77H31a2,2,0,0,1,0-4H46.59V47.38a.19.19,0,0,0-.19-.19H40.06a2,2,0,0,1-2-2V41.46H29.88a2,2,0,0,1,0-4H39a3.15,3.15,0,0,1,3,3.26v2.47H46.4a4.2,4.2,0,0,1,4.19,4.19v5.39A2,2,0,0,1,48.59,54.77ZM39,41.46h0Z"/><path class="cls-6" d="M99.76,75.83H21.57a2,2,0,0,1,0-4H99.76a2,2,0,0,1,0,4Z"/><path class="cls-6" d="M55.59,65.59H18.38a2,2,0,0,1-2-2V58.33a2,2,0,0,1,4,0v3.26H53.59V54.77H29.7a2,2,0,1,1,0-4H55.59a2,2,0,0,1,2,2V63.59A2,2,0,0,1,55.59,65.59Z"/><path class="cls-6" d="M110,91.44c-3.88,0-5.91-2-7.54-3.57-1.44-1.41-2.49-2.43-4.74-2.43s-3.3,1-4.75,2.43c-1.63,1.59-3.65,3.57-7.54,3.57s-5.91-2-7.54-3.57c-1.44-1.41-2.49-2.43-4.74-2.43s-3.3,1-4.75,2.43c-1.62,1.59-3.65,3.57-7.54,3.57s-5.91-2-7.54-3.57c-1.44-1.41-2.49-2.43-4.75-2.43s-3.3,1-4.74,2.43c-1.63,1.59-3.66,3.57-7.54,3.57s-5.92-2-7.55-3.57c-1.44-1.41-2.49-2.43-4.75-2.43s-3.3,1-4.75,2.43c-1.62,1.59-3.65,3.57-7.54,3.57a2,2,0,1,1,0-4c2.26,0,3.3-1,4.75-2.43C18,83.42,20.07,81.44,24,81.44s5.92,2,7.55,3.57c1.44,1.41,2.49,2.43,4.75,2.43s3.3-1,4.74-2.43c1.63-1.59,3.66-3.57,7.54-3.57s5.92,2,7.55,3.57c1.44,1.41,2.49,2.43,4.74,2.43s3.3-1,4.75-2.43c1.63-1.59,3.65-3.57,7.54-3.57s5.91,2,7.54,3.57c1.44,1.41,2.48,2.43,4.74,2.43s3.3-1,4.75-2.43c1.62-1.59,3.65-3.57,7.54-3.57s5.91,2,7.54,3.57c1.44,1.41,2.49,2.43,4.74,2.43a2,2,0,0,1,0,4Z"/><path class="cls-6" d="M74.36,55.67H63.54a2,2,0,0,1-1.41-3.42l9.46-9.37a2.67,2.67,0,1,0-4.78-1.64,2,2,0,1,1-4,0,6.67,6.67,0,1,1,11.8,4.27l-.13.14-6.08,6h6a2,2,0,0,1,0,4Z"/><path class="cls-6" d="M83.62,47.16a2,2,0,0,1,0-4,2.43,2.43,0,1,0-2.24-3.37,2,2,0,0,1-3.69-1.56,6.43,6.43,0,1,1,5.93,8.93Z"/><path class="cls-6" d="M83.62,56a6.43,6.43,0,0,1-5.93-3.92,2,2,0,0,1,3.69-1.56,2.43,2.43,0,1,0,2.24-3.37,2,2,0,0,1,0-4,6.43,6.43,0,0,1,0,12.85Z"/></g></g></svg>