<svg xmlns="http://www.w3.org/2000/svg" viewBox="0 0 536 700"><defs><style>.cls-1{fill:#fad70d;}.cls-2{fill:#fff;}.cls-3{fill:#28b8ce;}.cls-4{fill:#33c976;}.cls-5{fill:#6e8a90;}.cls-6{fill:#c9e5e7;}.cls-7{fill:#1cacfe;}.cls-8{fill:#28347d;}.cls-10,.cls-9{fill:none;stroke:#28347d;stroke-linecap:round;stroke-linejoin:round;}.cls-9{stroke-width:2.3px;}.cls-10{stroke-width:1.7px;}</style></defs><title>5-personaje-01</title><g id="Persona"><path class="cls-1" d="M349.51,430.31c-.77-.37-.63-3,.09-6.79.2-1.07.47-2.23.79-3.45h0c1.16.26,3.21.75,5.39,1.28l-.14.59C352.24,428.44,350.34,430.72,349.51,430.31Z"/><path class="cls-2" d="M394.43,398.5a79.11,79.11,0,0,1,9.86,3.21c5,1.88,9.23,3.56,17.3,11.76,2.14,2.18.47,5.13-2.25,4l-.13.19-10-7.19L394.32,399.7l-.16,0Z"/><path class="cls-3" d="M408.86,410.62c-1.59-.82-7.66-3.78-9.75-4.79a53.15,53.15,0,0,0-5.65-2l-1.86-1.37c-.34-1,1.4-3,2.56-2.77l.16,0,14.92,10.78-.19.26A2,2,0,0,0,408.86,410.62Z"/><path class="cls-3" d="M407.94,414.46c2.05-.92,2.11-3,1.11-3.72l.19-.26,10,7.19,8.16,5.89,6.56,6.57-9.23-3.32-3.93-2.89-12.83-9.45Z"/><path class="cls-2" d="M407.94,414.46h0l12.83,9.45c3.17,2.73.45,6.45-3.28,4.24-2.29-1.36-4.66-2.7-7.81-4.61-4.11-2.49-10.39-3.83-10.78-3.9,3,1.63,11.75,9.25,14.56,12.9s-.36,5.83-2.79,3.53a107,107,0,0,0-14.34-10.87c-2.46-1.62-3.18-.14-2.53.77s10,8.35,11.85,10.55-.91,5.12-3.56,2.91S389,429.8,389,429.8a41.49,41.49,0,0,1-24.85-6.41l-8.31-2c-2.18-.53-4.23-1-5.39-1.28h0a114.79,114.79,0,0,1,8-20.87c2.36,1,6.45,1.13,9.91.88s17.52-2.3,22-2.18a20.56,20.56,0,0,1,4.15.6l-.27,1.16c-1.16-.19-2.9,1.74-2.56,2.77l1.86,1.37a53.15,53.15,0,0,1,5.65,2c2.09,1,8.16,4,9.75,4.79a2,2,0,0,1,.19.12C410.05,411.47,410,413.54,407.94,414.46Z"/><path class="cls-4" d="M93.21,562.44c-4.9-1.19-9.27-2.45-12.74-3.63a4.54,4.54,0,0,1-3-4.93c1.18-8.09,4.07-28,6.08-42.09,2.6-18,7.54-45.26,7.79-56A324,324,0,0,0,128.45,464c17.23,2.71,43.88,4.29,59.16,4.76-.09,1.79-.19,3.68-.31,5.66-.22,3.5-.49,7.27-.82,11.19-1.42,16.72-4,36.2-8.45,50.22-6.08,19.16-17,28.74-36.63,31.33C127.85,569,108.12,566,93.21,562.44Z"/><path class="cls-5" d="M162.62,634.11s-14.92.84-35.12.79a280.13,280.13,0,0,1-30.89-2.08c-.78-11.78-3-60.81-3.4-70.38,14.91,3.6,34.64,6.54,48.19,4.76C161.07,564.61,172,555,178,535.87c4.45-14,7-33.5,8.45-50.22,1.39.21,5.31.26,6.68.3l0,1.18c2.39.26,11.64.46,11.64.46l0-.85c1,.07,3.52,0,5.22,0-.07,4.4.63,19.51,1.16,31.37.21,4.9.4,9.25.49,12.06.32,9.57.29,36.79-.88,57.38-1.3,22.88-3.37,40.12-3.89,44.52a195.4,195.4,0,0,1-21.57,2.07C172.28,634.72,162.62,634.11,162.62,634.11Z"/><path class="cls-5" d="M211.94,475.39l-.28,11.25-1.65.07c-1.7,0-4.22.1-5.22,0l.51-11.35,5.16,0Z"/><path class="cls-5" d="M193.65,474.83,193.16,486c-1.37,0-5.29-.09-6.68-.3.33-3.92.6-7.69.82-11.19C188.23,474.61,192.13,474.69,193.65,474.83Z"/><path class="cls-5" d="M193.16,486l.49-11.12,0-.83c2.4.27,11.65.46,11.65.46l0,.93-.51,11.35,0,.85s-9.25-.2-11.64-.46Z"/><path class="cls-6" d="M211.66,460.61a128.58,128.58,0,0,1-1.21,13.85v1l-5.16,0,0-.93s-9.25-.19-11.65-.46l0,.83c-1.52-.14-5.42-.22-6.35-.37.12-2,.22-3.87.31-5.66,3.32.1,6.11.16,8.15.16a78.71,78.71,0,0,0,2.68-10.86c2.85-.2,4.7.89,8.84,1.79A36.49,36.49,0,0,0,211.66,460.61Z"/><path class="cls-4" d="M211.94,475.39l-1.48,0v-1a128.58,128.58,0,0,0,1.21-13.85,29.61,29.61,0,0,0,6.67-.16l4.65-.56c3.1,8.37,14.58,34.23,16.9,68.61h0c.26,3.92.41,8,.41,12.1,0,3.63-1.75,3.94-4.41-2.21-2.29-5.31-9-19.29-24.71-20.32-.53-11.86-1.23-27-1.16-31.37l1.65-.07Z"/><path class="cls-4" d="M233.88,455.83c1.66,17.24,5.11,53.12,6,72.67-2.32-34.38-13.8-60.24-16.9-68.61,4.48-.59,6.82-1.09,8.94-2.71C232.35,456.85,233,456.39,233.88,455.83Z"/><path class="cls-4" d="M230.84,423.37l.4,6.06c-4.21-1-8-2.09-7.73-2.67C224,425.85,228.35,423.74,230.84,423.37Z"/><path class="cls-4" d="M177.84,417.5c1.78,0,3.23,1.74,3.23,3.89s-1.45,3.89-3.23,3.89-3.23-1.74-3.23-3.89S176.05,417.5,177.84,417.5Z"/><path class="cls-2" d="M263.61,439.86c-1.73,1.23-6.88,3.18-11.05,4.67l-2.22.77h0c-1.93,1.72-11.79,7.49-16.46,10.52-.85.56-1.53,1-2,1.35-2.12,1.62-4.46,2.12-8.94,2.71l-4.65.56a29.61,29.61,0,0,1-6.67.16,36.49,36.49,0,0,1-4.38-.72c-4.14-.9-6-2-8.84-1.79,1.71-9,3.16-20.6,2.77-27.24,1.07-.14,3.65-1.82,5.16-3.72,1.31-1.64,2.45-4.57,6.12-6.6a14.16,14.16,0,0,1,1.87-.85c5.25-2,10.76-2.31,14.84-3.47a6.53,6.53,0,0,1,1.12-.21h0c2.66-.3,6,.53,8.24.7,1.72.14,3.66-.07,4.35.45s.14,3.91-2.11,5-5.34,1.12-9.31,1.16a5.24,5.24,0,0,0-.65.06c-2.49.37-6.87,2.48-7.33,3.39-.31.58,3.52,1.68,7.73,2.67,3,.71,6.24,1.36,8.27,1.73,3.91.69,8.7,1.71,13.16,2.16,1.1.11,2.18.2,3.21.23a18.62,18.62,0,0,1,7.29,1.33,4.74,4.74,0,0,1,2.66,3c.44,1.29-.62,1.78-2.21,2Z"/><path class="cls-4" d="M61.09,291c1.73-1.25,3.57-2.39,5.56-3.64C72.6,283.6,94.35,270.2,96.9,268l-1.84,12.48,8.67,3.95-5.5,4.79S163,361.91,181.64,408.76A99.71,99.71,0,0,1,185.38,429l4.12.12c4.58.11,8.59.13,11.57.06.06.51.11,1.06.14,1.65.39,6.64-1.06,18.24-2.77,27.24A78.71,78.71,0,0,1,195.76,469c-2,0-4.83-.06-8.15-.16-15.28-.47-41.93-2.05-59.16-4.76a324,324,0,0,1-37.13-8.21c-3.48-1-6.37-1.86-8.56-2.54-7.9-2.46-11.39-3-14-8.28S62.18,419.64,58,402.43s-8.28-64.2-8.35-69-2.39-24.59,2-32.1A31.28,31.28,0,0,1,61.09,291Zm120,130.4c0-2.15-1.45-3.89-3.23-3.89s-3.23,1.74-3.23,3.89,1.44,3.89,3.23,3.89S181.07,423.54,181.07,421.39Z"/><path class="cls-6" d="M147.25,297a98.91,98.91,0,0,0,.93,23.89c-5-10.72-10.34-20.92-12.49-25.05-.67-1.31-1.94-3.5-3.56-6.22a30.66,30.66,0,0,1,5-5.6,45.76,45.76,0,0,0,9.74,13.31A3.39,3.39,0,0,1,147.25,297Z"/><path class="cls-4" d="M106.58,254.87c1.87-3.44,3.15-5.53,5.92-5.46a56.37,56.37,0,0,1-.16,6.53c4.17,8.1,14.13,24.17,19.79,33.67,1.62,2.72,2.89,4.91,3.56,6.22,2.15,4.13,7.45,14.33,12.49,25.05,3.32,7.08,6.53,14.39,8.62,20.32,6,16.95,18.53,44.54,24.84,67.56C163,361.91,98.23,289.17,98.23,289.17l5.5-4.79-8.67-3.95L96.9,268l.1-.66C98.75,265.35,104.7,258.29,106.58,254.87Z"/><path class="cls-4" d="M214.36,419.69a14.16,14.16,0,0,0-1.87.85c-.19-1.55-.44-3.21-.75-4.94h0c-.17-27.28-19-122.16-19-122.16l-11.07-4.27,7.83-1.34c-5.19-5.45-14.2-13.45-20-19.29,3.19,2.11,14.26,6.25,22.42,7.17s12.81.63,16.69,5.42,12.69,22.41,16.44,29.13c3.52,6.34,16.47,26.16,28.37,36.69.75.67,1.5,1.3,2.24,1.89,12,9.45,37.94,23,45.56,26.66a324.15,324.15,0,0,0,57.86,22.4c-.23.39-.48.83-.72,1.3a114.79,114.79,0,0,0-8,20.87c-.32,1.22-.59,2.38-.79,3.45-.72,3.76-.86,6.42-.09,6.79C312.21,420.23,276.4,405.19,253,394c-13-6.19-22.1-11.19-25.55-13.49h0c1.35,14.83,2.5,28.61,2.88,35.47h0a6.53,6.53,0,0,0-1.12.21C225.12,417.38,219.61,417.7,214.36,419.69Z"/><path class="cls-4" d="M211.75,415.6h0c-4.05-23.43-17.49-61.79-24-81-6.39-18.87-17.6-48.27-21.75-59.8a32.08,32.08,0,0,0-.29-5.46,62.91,62.91,0,0,0-1.33-6.77,36.64,36.64,0,0,0,5.17,6c5.82,5.84,14.83,13.84,20,19.29l-7.83,1.34,11.07,4.27S211.58,388.32,211.75,415.6Z"/><path class="cls-6" d="M156.63,281.12a20.33,20.33,0,0,1,6.9,8.05A57.79,57.79,0,0,0,166,274.8c4.15,11.53,15.36,40.93,21.75,59.8,6.52,19.21,20,57.57,24,81,.31,1.73.56,3.39.75,4.94-3.67,2-4.81,5-6.12,6.6-1.51,1.9-4.09,3.58-5.16,3.72,0-.59-.08-1.14-.14-1.65-3,.07-7,.05-11.57-.06C173.59,333,161,304.63,154.3,295a2.53,2.53,0,0,1,.68.08c1.05-3.36,2.08-10.74,1.65-14Z"/><path class="cls-7" d="M181.64,408.76c-6.31-23-18.86-50.61-24.84-67.56-2.09-5.93-5.3-13.24-8.62-20.32a98.91,98.91,0,0,1-.93-23.89h0A14.65,14.65,0,0,1,154.3,295c6.65,9.59,19.29,38,35.2,134.11l-4.12-.12A99.71,99.71,0,0,0,181.64,408.76Z"/><path class="cls-7" d="M148.48,277.39a21.62,21.62,0,0,1,8.15,3.73h0c.43,3.25-.6,10.63-1.65,14a2.53,2.53,0,0,0-.68-.08,14.65,14.65,0,0,0-7.05,1.94h0a3.39,3.39,0,0,0-.42.33A45.76,45.76,0,0,1,137.09,284C140.26,281.1,144.43,278.18,148.48,277.39Z"/><path class="cls-6" d="M162,256.51a42.21,42.21,0,0,1,2.34,6.06,62.91,62.91,0,0,1,1.33,6.77,32.08,32.08,0,0,1,.29,5.46,57.79,57.79,0,0,1-2.45,14.37,20.33,20.33,0,0,0-6.9-8.05,21.62,21.62,0,0,0-8.15-3.73c5.31-4.18,11.23-10.22,13.34-15.63.05-1.55.08-3.37.19-5.25Z"/><path class="cls-6" d="M112.5,249.41c0-1.13-.08-2.27-.16-3.35,2.33,3.69,8.28,12.11,11,15.53s5.11,6.28,7.7,7.19a18.62,18.62,0,0,0,5.07.56c1.75,1.7,5.8,4.68,12.37,8.05-4,.79-8.22,3.71-11.39,6.62a30.66,30.66,0,0,0-5,5.6c-5.66-9.5-15.62-25.57-19.79-33.67A56.37,56.37,0,0,0,112.5,249.41Z"/><path class="cls-2" d="M162.74,250.7a45.65,45.65,0,0,0-.73,5.81c-.11,1.88-.14,3.7-.19,5.25-2.11,5.41-8,11.45-13.34,15.63-6.57-3.37-10.62-6.35-12.37-8.05,3.49.06,7.57-.32,9.24-1.15,3.16-1.56,7.38-5.76,10.54-9.25C157.75,256.9,160.5,253.71,162.74,250.7Z"/><path class="cls-2" d="M147.77,242.42c-1.61,2.29-6.15,4.9-8.22,5.42a35.6,35.6,0,0,1-7.86,0c-1.72-.19-6.18-3.94-7.25-5.36A130.38,130.38,0,0,0,147.77,242.42Z"/><path class="cls-2" d="M147.77,242.42a130.38,130.38,0,0,1-23.33.06c1.07,1.42,5.53,5.17,7.25,5.36a35.6,35.6,0,0,0,7.86,0C141.62,247.32,146.16,244.71,147.77,242.42Zm-39.92-34a175.54,175.54,0,0,1,3.34-23.58c.61-2.24,1.9-4.66,9.24-3.19s8,2.68,11.65,2.68,12.6-3.63,17.6-4.06a16.31,16.31,0,0,1,7.67.94,8.32,8.32,0,0,1,5,6.14c1.47,6.47.17,10,.95,12.76s5.44,6.74,5.62,9.84,0,8.2,0,8.2l2-1.12c.48-5.79,2.1-10.59,4.7-12a3.68,3.68,0,0,1,3.33-.12c4.71,1.94,2.33,14.41,0,18.64s-6.44,9.5-9.35,4.38c-.77,5.4-2.18,14.16-3.34,17.11a28,28,0,0,1-3.51,5.66h0c-2.24,3-5,6.2-6.85,8.24-3.16,3.49-7.38,7.69-10.54,9.25-1.67.83-5.75,1.21-9.24,1.15a18.62,18.62,0,0,1-5.07-.56c-2.59-.91-5-3.76-7.7-7.19s-8.67-11.84-11-15.53-2.85-8.09-3.3-12.68c-.28-2.87-.67-5.93-.92-8.92-.16,2.54-2.3,1.82-3.1-.27-.87-2.3-1.85-7.54-1.49-14.14.36-6.4,3.41-5,4.11-2.42h0C107.72,207.92,107.78,208.19,107.85,208.46Zm41.93,6.69c0-.92-.36-1.66-.81-1.66s-.81.74-.81,1.66.36,1.65.81,1.65S149.78,216.07,149.78,215.15Zm-28.32-.21c0-.91-.36-1.65-.82-1.65s-.81.74-.81,1.65.36,1.67.81,1.67S121.46,215.86,121.46,214.94Z"/><path class="cls-7" d="M174.7,173.23c1.56,2.94,2.51,9.58,2.07,13.12s-1.27,6.84-1.46,9.4a58.73,58.73,0,0,0,.3,9.27c-2.6,1.46-4.22,6.26-4.7,12l-2,1.12s.17-5.09,0-8.2-4.84-7.07-5.62-9.84.52-6.29-.95-12.76a8.32,8.32,0,0,0-5-6.14c1.4-3.48,6.38-11.43,9-14.14C168.75,166.93,173.15,170.3,174.7,173.23Z"/><path class="cls-7" d="M111.19,184.88a175.54,175.54,0,0,0-3.34,23.58c-.07-.27-.13-.54-.2-.83a95.41,95.41,0,0,1-2.06-21.07c0-7.35,3-12,2.5-12.77s-4.84,3.89-4.19,1.69,4.81-6.63,3.81-7.21-3.53.32-3.53.32c2-6.79,12.63-17.4,24.75-18.51s26.19,5.31,31.36,8.28,6.43,6.68,6,8.75c-2.6,2.71-7.58,10.66-9,14.14a16.31,16.31,0,0,0-7.67-.94c-5,.43-14,4.06-17.6,4.06s-4.32-1.22-11.65-2.68S111.8,182.64,111.19,184.88Z"/><path class="cls-8" d="M131.93,215.93q-.72,3.87-1.5,7.72l-1.58,7.67c-.12.62-.25,1.29-.3,1.83l0,.19s0-.11,0-.14,0-.07,0,0a2.3,2.3,0,0,0,.55.3,15.69,15.69,0,0,0,3.55.75,46,46,0,0,0,7.71.24h0a.3.3,0,0,1,.31.28.29.29,0,0,1-.2.29,23.08,23.08,0,0,1-8,1,13.85,13.85,0,0,1-4.16-.7,3.61,3.61,0,0,1-1.16-.65,2,2,0,0,1-.59-.83,1.67,1.67,0,0,1-.1-.63l0-.3c.09-.76.22-1.38.36-2,.53-2.61,1.22-5.14,1.94-7.68a78.77,78.77,0,0,1,2.54-7.5.35.35,0,0,1,.43-.18.36.36,0,0,1,.2.37Z"/><path class="cls-8" d="M123.37,241.93l13,0c4.33,0,8.67-.08,13.05,0a.36.36,0,0,1,.34.36.35.35,0,0,1-.27.33A67.94,67.94,0,0,1,136.4,244a60.63,60.63,0,0,1-6.6-.2,36.56,36.56,0,0,1-6.54-1.07.42.42,0,0,1-.29-.51A.44.44,0,0,1,123.37,241.93Z"/><path class="cls-8" d="M124.78,242.23a39.36,39.36,0,0,0,5.31,3.78,9.5,9.5,0,0,0,1.33.65c.09,0,.22.09.27.08a1.17,1.17,0,0,0,.27,0l.81,0c1.09.07,2.2.09,3.29.11a22.23,22.23,0,0,0,3.13-.11,13.83,13.83,0,0,0,2.88-1.07,29.47,29.47,0,0,0,2.86-1.57,14.14,14.14,0,0,0,2.57-2l0,0a.32.32,0,0,1,.47,0,.32.32,0,0,1,.06.39,10.42,10.42,0,0,1-2.28,2.7,19,19,0,0,1-2.81,2.07,12.55,12.55,0,0,1-3.32,1.54,11.87,11.87,0,0,1-1.85.22c-.59,0-1.17,0-1.74.05-1.15,0-2.29-.07-3.44-.15l-.88-.1a4.88,4.88,0,0,1-.56-.11,3,3,0,0,1-.53-.19,9.07,9.07,0,0,1-1.63-.95,20.74,20.74,0,0,1-2.66-2.26,14.71,14.71,0,0,1-2.23-2.7.41.41,0,0,1,.14-.57.42.42,0,0,1,.48,0Z"/><path class="cls-8" d="M133,252.89c.8,0,1.78,0,2.69,0s1.83,0,2.73-.09h.06a.49.49,0,0,1,.52.46.51.51,0,0,1-.15.4,3.73,3.73,0,0,1-1.52.8,6.43,6.43,0,0,1-3.26,0,3.23,3.23,0,0,1-1.55-.88.41.41,0,0,1,0-.59.4.4,0,0,1,.3-.11Z"/><path class="cls-8" d="M140.65,206.8a26.73,26.73,0,0,1,9-.74,32.25,32.25,0,0,1,4.47.62,19.26,19.26,0,0,1,4.34,1.45.85.85,0,0,1,.4,1.14.86.86,0,0,1-.88.48h0c-1.37-.18-2.77-.25-4.17-.31s-2.81-.05-4.22,0c-2.8.05-5.59.23-8.34.46h0a1.57,1.57,0,0,1-.55-3.07Z"/><path class="cls-8" d="M127.82,209.88c-2.6-.36-5.23-.64-7.91-.76a65.56,65.56,0,0,0-8,.07h0a.85.85,0,0,1-.92-.79.84.84,0,0,1,.51-.85,23.78,23.78,0,0,1,8.49-1.8,24.79,24.79,0,0,1,8.66,1,1.61,1.61,0,0,1-.72,3.13Z"/><path class="cls-9" d="M149.79,215.15c0,.91-.37,1.66-.82,1.66s-.81-.75-.81-1.66.36-1.66.81-1.66S149.79,214.23,149.79,215.15Z"/><path class="cls-9" d="M121.46,215c0,.91-.36,1.66-.81,1.66s-.82-.75-.82-1.66.37-1.66.82-1.66S121.46,214,121.46,215Z"/><path class="cls-8" d="M108.45,411.74a9.92,9.92,0,0,0-4.92.21,39.19,39.19,0,0,0-5.15,1.6,85,85,0,0,0-9.94,4.56c-.4.21-.78.44-1.16.67a3.91,3.91,0,0,1-1.82.65,2.09,2.09,0,0,1-.72-.08,1.92,1.92,0,0,1-.76-.48,2,2,0,0,1-.5-1.37,3.87,3.87,0,0,1,.52-1.81,11.58,11.58,0,0,1,4.38-4.13,26.41,26.41,0,0,1,10.85-3.2.21.21,0,0,1,.23.19.22.22,0,0,1-.16.24,32.47,32.47,0,0,0-10,4.23,10.59,10.59,0,0,0-3.46,3.61,1.79,1.79,0,0,0-.23.84c0,.08,0,0-.06-.08s-.26-.14-.21-.14a2.6,2.6,0,0,0,.74-.37c.41-.25.82-.51,1.23-.74a62,62,0,0,1,10.28-4.72,36.29,36.29,0,0,1,5.52-1.53,13.49,13.49,0,0,1,1.44-.2l.74-.08h.75a7,7,0,0,1,3.12.59.84.84,0,0,1-.58,1.58Z"/><path class="cls-8" d="M107.09,409.31a29.66,29.66,0,0,0-13.17-2.83,26.63,26.63,0,0,0-6.74,1.07,28.5,28.5,0,0,0-6.32,2.81h0a.3.3,0,0,1-.4-.11.29.29,0,0,1,.07-.37,22.88,22.88,0,0,1,6.21-3.64,24.2,24.2,0,0,1,7.09-1.61,25.23,25.23,0,0,1,7.3.49,22.24,22.24,0,0,1,6.81,2.7.85.85,0,0,1,.27,1.17.84.84,0,0,1-1.09.32Z"/><path class="cls-8" d="M193.58,486.72a.42.42,0,0,0,.09-.18s0,0,0,0h2.35c1,0,1.94.05,2.91.06s1.93.07,2.9.12,1.94.13,2.91.25h0l-.65.6c0-2.19.08-4.38.17-6.56s.21-4.38.43-6.56h0l.61.65a47.72,47.72,0,0,1-5.85.19c-1,0-1.95-.06-2.92-.14a23.44,23.44,0,0,1-2.95-.4h0l.81-.69c.08,1,.08,2.09.07,3.11s-.08,2.06-.16,3.09C194.16,482.32,193.91,484.43,193.58,486.72Zm-1,.81c-.13-2.08-.19-4.34-.17-6.64,0-1.15.06-2.31.14-3.47s.18-2.32.36-3.45v0a.8.8,0,0,1,.81-.67h0c.93,0,1.91,0,2.87,0s1.94,0,2.9.07c1.94.1,3.88.23,5.81.51h.06a.65.65,0,0,1,.55.64h0c0,2.19-.06,4.38-.16,6.56s-.22,4.38-.41,6.56h0a.66.66,0,0,1-.65.6h0c-1,.08-2,.1-2.92.11s-1.95,0-2.92-.05-2-.08-2.92-.17l-1.46-.14-.74-.09-.18,0a2.61,2.61,0,0,1-.33-.06A2.67,2.67,0,0,1,192.63,487.53Z"/><path class="cls-8" d="M202.44,491c.4,6.27.61,12.53.73,18.8,0,1.55.08,3.18,0,4.77a42.53,42.53,0,0,1-.58,4.77,44.16,44.16,0,0,1-2.75,9.16c-.64,1.47-1.32,2.91-2.06,4.32-.4.7-.77,1.39-1.11,2a12.11,12.11,0,0,0-1,2c-1,3-2.21,5.92-3.45,8.83-2.47,5.8-5.35,11.39-8.12,17s-5.27,11.31-7.62,17.08l-1.69,4.35c-.54,1.46-1,2.94-1.54,4.41-1.06,2.93-1.91,5.93-2.84,8.9a251.78,251.78,0,0,0-7.46,36.72h0a.32.32,0,0,1-.63-.07l.9-9.38c.35-3.12.86-6.22,1.29-9.34s1.11-6.2,1.69-9.29,1.4-6.15,2.2-9.19A175.29,175.29,0,0,1,182,561.65c2.81-5.63,5.85-11.11,8.65-16.68.71-1.38,1.33-2.81,2-4.23s1.14-2.89,1.72-4.33a17.23,17.23,0,0,1,1-2.19c.37-.75.74-1.44,1.1-2.11a38,38,0,0,0,1.87-4.23,50.83,50.83,0,0,0,3-18.1c0-6.28.15-12.55.46-18.82a.32.32,0,0,1,.35-.32.34.34,0,0,1,.32.32Z"/><path class="cls-8" d="M181.79,421.39a4.73,4.73,0,0,1-1.07,3,3.81,3.81,0,0,1-2.88,1.44,3.89,3.89,0,0,1-2.94-1.4,4.69,4.69,0,0,1,0-6.08,3.89,3.89,0,0,1,2.94-1.4,3.81,3.81,0,0,1,2.88,1.44A4.71,4.71,0,0,1,181.79,421.39Zm-1.45,0a4.07,4.07,0,0,0-.62-2.24,2.28,2.28,0,0,0-1.88-1.1,2.21,2.21,0,0,0-1.83,1.14,4.46,4.46,0,0,0,0,4.4,2.23,2.23,0,0,0,1.83,1.13,2.28,2.28,0,0,0,1.88-1.1A4,4,0,0,0,180.34,421.39Z"/><path class="cls-8" d="M231.24,423.34a12.13,12.13,0,0,1,.53,3,12.59,12.59,0,0,1-.14,3.06.4.4,0,0,1-.46.32.41.41,0,0,1-.31-.27,13.07,13.07,0,0,1-.55-3,12.52,12.52,0,0,1,.12-3.05.42.42,0,0,1,.49-.34A.43.43,0,0,1,231.24,423.34Z"/><path class="cls-8" d="M390.43,402.28c3,1.08,6.2,1.69,9.26,3.08l8.8,4.17a5.14,5.14,0,0,1,1.25.71,2.41,2.41,0,0,1,.76,1.61,3.15,3.15,0,0,1-1.34,2.8,5.32,5.32,0,0,1-2.65.94,11.73,11.73,0,0,1-2.59-.07,14.24,14.24,0,0,1-4.85-1.53c-1.49-.75-2.85-1.85-4.14-2.43h0l.39.05a15,15,0,0,1-2.58.17,19.91,19.91,0,0,1-2.56-.19,18,18,0,0,1-2.51-.49,15.74,15.74,0,0,1-2.42-.84.29.29,0,0,1-.16-.4.3.3,0,0,1,.34-.18h0a27.52,27.52,0,0,0,4.85.56c.82,0,1.63,0,2.44,0l2.41-.09h.1a.64.64,0,0,1,.28.06h0a16.85,16.85,0,0,1,2.17,1.33,21.28,21.28,0,0,0,2,1.21,12.78,12.78,0,0,0,4.37,1.4,9.31,9.31,0,0,0,2.24,0,3.78,3.78,0,0,0,1.84-.75,1.66,1.66,0,0,0,.67-1.39c-.08-.54-.19-.57-1.09-1l-8.65-4.4a34.59,34.59,0,0,0-4.42-1.79c-1.52-.55-3.06-1.06-4.58-1.71a.45.45,0,0,1-.23-.58.43.43,0,0,1,.55-.23Z"/><path class="cls-8" d="M393.17,404.19l-2-1.25a.51.51,0,0,1-.22-.3v0h0a2.1,2.1,0,0,1,.24-1.52,3.83,3.83,0,0,1,.76-1,3.74,3.74,0,0,1,1-.75,1.9,1.9,0,0,1,1.49-.15h0a.31.31,0,0,1,.1.05l0,0,16.56,11.87,8.33,5.87L423.7,420l4.11,3h0l.08.07c1.07,1.11,2.14,2.23,3.17,3.38s2.06,2.32,3,3.54h0a.24.24,0,0,1,0,.34.23.23,0,0,1-.25.07h0l-9.39-2.88h0a.51.51,0,0,1-.18-.09L407.6,414.94a.58.58,0,0,1,.69-.94l16.82,12.23-.18-.09h0l9.08,3.75-.26.41h0c-1.22-1-2.38-2-3.53-3s-2.27-2.1-3.39-3.17l.1.08-4.15-3-4.1-3-8.2-6.06-16.49-12,.14.07h0a1,1,0,0,0-.61.14,2.74,2.74,0,0,0-.69.56,2.92,2.92,0,0,0-.51.73.94.94,0,0,0-.12.58h0l-.23-.32,1.78,1.5a.49.49,0,0,1,.05.68A.48.48,0,0,1,393.17,404.19Z"/><path class="cls-8" d="M389.89,411.16a13,13,0,0,1-5.05,3.58,29,29,0,0,1-5.86,1.74,43.63,43.63,0,0,1-6,.73,39,39,0,0,1-6-.09.2.2,0,0,1,0-.4c3.95-.5,7.86-1.09,11.68-2a51.86,51.86,0,0,0,5.58-1.62,20,20,0,0,0,5.1-2.57v0a.43.43,0,0,1,.59.1A.44.44,0,0,1,389.89,411.16Z"/><path class="cls-8" d="M107.42,207.94a5.26,5.26,0,0,0-1-1.25c-.35-.33-.75-.48-.89-.41a1.3,1.3,0,0,0-.58.69,6.41,6.41,0,0,0-.38,1.48,24.33,24.33,0,0,0-.2,3.37c0,1.15,0,2.31.07,3.46a41.58,41.58,0,0,0,.86,6.81,15.81,15.81,0,0,0,.44,1.61,3.64,3.64,0,0,0,.65,1.22,2.15,2.15,0,0,0,.41.36.66.66,0,0,0,.26.1c.06,0,.2-.08.32-.27a3.52,3.52,0,0,0,.28-.7v0a.42.42,0,0,1,.81.08,3,3,0,0,1,0,1,1.62,1.62,0,0,1-2.19,1.22,3.11,3.11,0,0,1-1-.62,4.58,4.58,0,0,1-1.15-1.79c-.22-.59-.39-1.18-.55-1.77a36.46,36.46,0,0,1-1-7.15c-.07-1.2-.06-2.4,0-3.6a22.14,22.14,0,0,1,.34-3.65,7.91,7.91,0,0,1,.61-1.9,3.64,3.64,0,0,1,.68-.95,2,2,0,0,1,1.26-.6,2.19,2.19,0,0,1,.73.08,2.44,2.44,0,0,1,.58.3,2.59,2.59,0,0,1,.77.82,3.42,3.42,0,0,1,.51,1.93.3.3,0,0,1-.32.29.29.29,0,0,1-.25-.14Z"/><path class="cls-8" d="M107.53,208.55a67.83,67.83,0,0,1-2.41-13c-.2-2.2-.32-4.41-.39-6.62a32.31,32.31,0,0,1,.34-6.71,31.91,31.91,0,0,1,1.79-6.47c.2-.51.4-1,.53-1.45a1.87,1.87,0,0,1,.06-.22.13.13,0,0,0,.06.12.49.49,0,0,0,.36.21c.13,0,0,0-.07,0l-.31.15c-.44.23-.89.54-1.35.84a11.29,11.29,0,0,1-1.51.8,2.92,2.92,0,0,1-.48.17.53.53,0,0,1-.45-.11.55.55,0,0,1-.17-.4,2.78,2.78,0,0,1,.2-.94,14,14,0,0,1,.66-1.59,15.06,15.06,0,0,1,1.72-2.82c.34-.43.69-.84,1-1.26a2.24,2.24,0,0,0,.33-.59c0-.09,0-.11.06-.05s0,0,0,0l-.06,0-.13-.05a13.33,13.33,0,0,0-3,.4h0a.39.39,0,0,1-.48-.25.37.37,0,0,1,0-.21,22.25,22.25,0,0,1,4.93-8.36,34.63,34.63,0,0,1,7.38-6.33,28.62,28.62,0,0,1,18.73-4.63A60.52,60.52,0,0,1,153.57,154c1.48.65,3,1.31,4.38,2.06a32,32,0,0,1,4.24,2.47,12.65,12.65,0,0,1,3.45,3.65,6.5,6.5,0,0,1,1,4.93h0l-.34-.37a5.9,5.9,0,0,1,2.81.56,14.52,14.52,0,0,1,2.42,1.4,13.93,13.93,0,0,1,3.87,4.1,20.54,20.54,0,0,1,1.77,5.32,34.58,34.58,0,0,1,.73,5.47,18.19,18.19,0,0,1-.06,2.85c-.1.91-.23,1.81-.37,2.71-.29,1.78-.67,3.54-.92,5.25-.49,3.38-.27,6.92-.51,10.53a.45.45,0,0,1-.47.42.46.46,0,0,1-.41-.34,30.37,30.37,0,0,1-.79-10.91c.26-1.83.6-3.58.91-5.32.15-.87.29-1.74.41-2.61a18.84,18.84,0,0,0,.12-2.52,33.68,33.68,0,0,0-.45-5.19A19.46,19.46,0,0,0,174,173.6a13.07,13.07,0,0,0-3.22-3.86,12.69,12.69,0,0,0-2.09-1.5,5.28,5.28,0,0,0-2.32-.82.35.35,0,0,1-.34-.35v0a6.49,6.49,0,0,0-1.48-4.07,13.66,13.66,0,0,0-3.33-3,56.37,56.37,0,0,0-8.38-4.16A63.44,63.44,0,0,0,134.71,151a28.92,28.92,0,0,0-9.2.55,30.26,30.26,0,0,0-8.53,3.58,36.19,36.19,0,0,0-7.29,5.83,23.14,23.14,0,0,0-5.15,7.71l-.48-.46h0a7.07,7.07,0,0,1,1.63-.53,3.28,3.28,0,0,1,1.83.06,1.63,1.63,0,0,1,.25.1l.12,0a1.25,1.25,0,0,1,.19.15.9.9,0,0,1,.19.73,3.65,3.65,0,0,1-.28.93,13,13,0,0,1-.75,1.54,19.12,19.12,0,0,1-2,2.63,8.63,8.63,0,0,0-.9,1.3,1.9,1.9,0,0,0-.24.64s0,0-.05,0-.09,0-.06,0a1,1,0,0,0,.28-.14c.41-.29.77-.72,1.19-1.07a16.76,16.76,0,0,1,1.33-1.07,3.66,3.66,0,0,1,.41-.26A1.45,1.45,0,0,1,108,173a.91.91,0,0,1,.71.4,1.46,1.46,0,0,1,.17.51,2.72,2.72,0,0,1,0,.6,13,13,0,0,1-.43,1.69,42.86,42.86,0,0,0-1.57,6.24,38.77,38.77,0,0,0-.34,6.41c0,2.17.08,4.35.21,6.52a101.16,101.16,0,0,0,1.5,13,.34.34,0,0,1-.65.17Z"/><path class="cls-8" d="M166.74,167.49c-1.49,2.28-3,4.63-4.52,6.93l-2.29,3.47c-.76,1.16-1.55,2.31-2.27,3.49h0a.34.34,0,0,1-.46.11.34.34,0,0,1-.15-.37,21.29,21.29,0,0,1,1.5-4,40.9,40.9,0,0,1,2-3.75,37.67,37.67,0,0,1,2.4-3.52,17.92,17.92,0,0,1,3-3.12.56.56,0,0,1,.82.75Z"/><path class="cls-8" d="M170.3,224.87c-.17,2.58-.42,5.16-.75,7.72s-.66,5.13-1.14,7.69c-.24,1.28-.51,2.55-.86,3.84a12.8,12.8,0,0,1-.7,2c-.3.63-.63,1.22-1,1.79a65.86,65.86,0,0,1-4.59,6.38,98.23,98.23,0,0,1-10.69,11.39,33.47,33.47,0,0,1-3.15,2.45,15,15,0,0,1-1.81,1,10.62,10.62,0,0,1-2.06.62,40,40,0,0,1-7.92.54,25.31,25.31,0,0,1-4-.36,8.49,8.49,0,0,1-3.81-1.95,39.58,39.58,0,0,1-5.34-5.86c-3.19-4.12-6.16-8.31-9.06-12.61-.72-1.09-1.43-2.14-2.12-3.3a18,18,0,0,1-1.63-3.72,37.79,37.79,0,0,1-1.32-7.79c-.39-5.13-1-10.28-.82-15.49a.32.32,0,0,1,.33-.3.32.32,0,0,1,.31.3c.27,5.12,1.2,10.19,1.77,15.32a35.85,35.85,0,0,0,1.48,7.39,16.06,16.06,0,0,0,1.5,3.32c.65,1.05,1.39,2.13,2.11,3.18,2.92,4.21,5.87,8.45,9,12.49a38.68,38.68,0,0,0,5,5.59,6.63,6.63,0,0,0,3,1.56,22,22,0,0,0,3.68.34,35,35,0,0,0,7.48-.54,7.64,7.64,0,0,0,1.63-.49,11.62,11.62,0,0,0,1.54-.9,30.09,30.09,0,0,0,2.93-2.32,101.4,101.4,0,0,0,10.39-11.2,62.26,62.26,0,0,0,4.51-6.1c.33-.53.64-1.06.9-1.59a11.79,11.79,0,0,0,.63-1.67c.37-1.18.66-2.42.94-3.67,1.12-5,2.07-10.06,3.05-15.11a.3.3,0,0,1,.59.07Z"/><path class="cls-8" d="M107.37,212.54a52.37,52.37,0,0,1-.05-7.41q.2-3.69.69-7.35c.33-2.44.73-4.87,1.18-7.29.23-1.21.5-2.41.8-3.61.15-.6.29-1.2.47-1.81a8.6,8.6,0,0,1,.67-1.87,4.89,4.89,0,0,1,1.39-1.62,5.32,5.32,0,0,1,1.91-.84,13.57,13.57,0,0,1,3.9-.2,49,49,0,0,1,7.39,1.31c1.21.29,2.41.7,3.52,1a11.74,11.74,0,0,0,1.62.29,9.91,9.91,0,0,0,1.63,0,22.28,22.28,0,0,0,3.4-.62c1.16-.27,2.34-.6,3.52-.9,2.37-.61,4.75-1.26,7.21-1.72a22.68,22.68,0,0,1,3.78-.44,22.14,22.14,0,0,1,3.81.21,11,11,0,0,1,6.86,3.47,9.44,9.44,0,0,1,1.88,3.48,23.26,23.26,0,0,1,.82,3.71,31.81,31.81,0,0,1,.34,3.77c0,1.26,0,2.5,0,3.67a10.49,10.49,0,0,0,.13,1.64,5,5,0,0,0,.5,1.41,26.58,26.58,0,0,0,2,2.93,33.21,33.21,0,0,1,2.11,3.15,8.92,8.92,0,0,1,.78,1.89,5.3,5.3,0,0,1,.18,1.08c0,.34,0,.64,0,.95,0,2.49-.16,4.94-.39,7.39h0l-.68-.41,2-1.11h0l-.23.35a26.7,26.7,0,0,1,.8-6.32,16.82,16.82,0,0,1,1.1-3.07,8,8,0,0,1,2-2.78,4.53,4.53,0,0,1,3.55-1.13,3.51,3.51,0,0,1,.92.2l.44.14.45.22a4.6,4.6,0,0,1,1.44,1.33,8,8,0,0,1,1.23,3.29,17.5,17.5,0,0,1,.22,3.29,30.25,30.25,0,0,1-.86,6.39,21,21,0,0,1-2.33,6.09,18.41,18.41,0,0,1-4.14,5.12,5.18,5.18,0,0,1-1.62.9,3.86,3.86,0,0,1-1,.2,4,4,0,0,1-1-.14,3.3,3.3,0,0,1-1.57-1.15,5,5,0,0,1-.76-1.55.31.31,0,0,1,.2-.39.3.3,0,0,1,.31.07l0,0a4.3,4.3,0,0,0,2.17,1.4,3.06,3.06,0,0,0,2.1-.86,17,17,0,0,0,3.57-4.63,20.72,20.72,0,0,0,2.08-5.56,31.87,31.87,0,0,0,.87-6,15.07,15.07,0,0,0-.13-2.94,6.26,6.26,0,0,0-.86-2.54,2.6,2.6,0,0,0-.82-.8l-.24-.13-.3-.1a2.2,2.2,0,0,0-.6-.15,2.78,2.78,0,0,0-2.22.68,10.65,10.65,0,0,0-2.79,5,39.16,39.16,0,0,0-1.33,6v0a.46.46,0,0,1-.22.32h0l-2,1.13a.46.46,0,0,1-.62-.17.42.42,0,0,1-.06-.21v0h0c-.09-2.44-.17-4.89-.32-7.3,0-.3,0-.61-.07-.88a3.7,3.7,0,0,0-.18-.71,6.87,6.87,0,0,0-.73-1.46,32.4,32.4,0,0,0-2.07-2.89,28.23,28.23,0,0,1-2.21-3.12,6.59,6.59,0,0,1-.75-2,11.62,11.62,0,0,1-.15-2,60.38,60.38,0,0,0,0-7.24c-.25-2.37-.54-4.78-2-6.5a9,9,0,0,0-6-2.9c-4.72-.66-9.3,1.21-14,2.62-1.17.38-2.36.72-3.56,1.05a23.08,23.08,0,0,1-3.82.74,11.5,11.5,0,0,1-2,0,12.84,12.84,0,0,1-2-.39c-1.26-.38-2.37-.79-3.51-1.17a52.65,52.65,0,0,0-7-1.78,10.34,10.34,0,0,0-3.42,0,3.21,3.21,0,0,0-2.45,1.68,12.08,12.08,0,0,0-.86,3.36l-.53,3.62c-.36,2.41-.69,4.82-1,7.24-.65,4.83-1.37,9.65-1.84,14.51a.34.34,0,0,1-.68,0Z"/><path class="cls-8" d="M162.86,260.54a16.58,16.58,0,0,1-2.16,5.35,31.11,31.11,0,0,1-3.38,4.58,40.61,40.61,0,0,1-4,4q-1.08.92-2.19,1.77c-.76.55-1.52,1.1-2.32,1.59h0a.57.57,0,0,1-.52.07h0a34,34,0,0,1-6.74-3.24,25.67,25.67,0,0,1-5.9-4.74.74.74,0,0,1,1-1.07l0,0c.93.72,1.93,1.39,2.93,2.07s2,1.34,3,2c2,1.32,4.12,2.59,6.13,4l-.56.06h0l2-1.93c.66-.63,1.31-1.28,1.94-1.93,1.28-1.31,2.53-2.63,3.72-4a49.85,49.85,0,0,0,3.35-4.24,23.23,23.23,0,0,0,2.55-4.66v0a.61.61,0,0,1,1.16.33Z"/><path class="cls-8" d="M162.46,256.33c.63,1.23,1.29,2.46,1.87,3.78a29.38,29.38,0,0,1,1.3,4.09c.36,1.38.61,2.77.85,4.16a31.68,31.68,0,0,1,.46,4.27,40.85,40.85,0,0,1-.73,8.5,44.3,44.3,0,0,1-2.31,8.15h0a.39.39,0,0,1-.52.22.37.37,0,0,1-.2-.17v0a20.86,20.86,0,0,0-2.88-3.78,29.58,29.58,0,0,0-3.55-3.16,29.91,29.91,0,0,0-4-2.57,27.19,27.19,0,0,0-4.37-1.86h.21A21.8,21.8,0,0,0,144,280a40.39,40.39,0,0,0-4.19,2.82,48.84,48.84,0,0,0-3.84,3.36,34,34,0,0,0-3.37,3.76l0,0a.61.61,0,0,1-1-.67,23.18,23.18,0,0,1,3.26-4.24,33.21,33.21,0,0,1,3.89-3.61,26.36,26.36,0,0,1,4.46-3,14.9,14.9,0,0,1,5.14-1.65h.24a18.7,18.7,0,0,1,9.27,4.07,20.56,20.56,0,0,1,3.61,3.61,13.74,13.74,0,0,1,2.41,4.51l-.73,0h0c.6-2.7,1.05-5.44,1.41-8.16a54.87,54.87,0,0,0,.45-8.18,37.22,37.22,0,0,0-.39-4.05q-.3-2.06-.66-4.08a31,31,0,0,0-1-4c-.39-1.29-1-2.57-1.4-3.92a.48.48,0,0,1,.88-.36Z"/><path class="cls-8" d="M137.58,283.81c1.5,2.24,3.09,4.44,4.67,6.65s3.22,4.37,4.95,6.42h0l-.76,0a5.84,5.84,0,0,1,1.91-1.45,10.88,10.88,0,0,1,2.13-.82,11.23,11.23,0,0,1,2.24-.43,5.93,5.93,0,0,1,2.45.23h0l-.86.47c.26-2.28.57-4.58.89-6.87s.67-4.59.87-6.84v0a.57.57,0,0,1,1.12-.11,14,14,0,0,1,.48,3.66,27.2,27.2,0,0,1-.19,3.61,30.65,30.65,0,0,1-.62,3.55,17,17,0,0,1-1.2,3.45l-.1.22a.57.57,0,0,1-.76.25h0c-.49,0-1.2.14-1.85.25s-1.33.26-2,.41-1.32.33-2,.53a9.14,9.14,0,0,0-1.77.75l-.07,0a.66.66,0,0,1-.7,0h0a18.16,18.16,0,0,1-3.27-2.77,32.27,32.27,0,0,1-2.72-3.23,29.46,29.46,0,0,1-2.28-3.56,16.26,16.26,0,0,1-1.6-4,.53.53,0,0,1,.41-.65.53.53,0,0,1,.57.22Z"/><path class="cls-8" d="M154.63,294.8a72.2,72.2,0,0,1,8.18,15.49c2.17,5.41,4.1,10.92,5.78,16.49,3.43,11.13,6.29,22.41,8.86,33.74l1.9,8.51,1.78,8.53c.6,2.85,1.17,5.69,1.71,8.55l1.62,8.56c1,5.71,2,11.44,2.93,17.17s1.71,11.49,2.48,17.25a.37.37,0,0,1-.32.42.38.38,0,0,1-.42-.3q-1.77-8.52-3.39-17.08l-1.69-8.53-1.65-8.54c-2.29-11.37-4.47-22.76-7.09-34.05s-5.33-22.56-8.62-33.65l-1.26-4.15-1.35-4.12c-.86-2.76-1.86-5.47-2.84-8.19A88.55,88.55,0,0,0,154,295.27h0a.41.41,0,0,1,.14-.57A.41.41,0,0,1,154.63,294.8Z"/><path class="cls-8" d="M147.74,297c0,4,.07,7.93.22,11.89.08,2,.2,3.95.32,5.93l.49,5.94h0a.6.6,0,0,1-.55.64.58.58,0,0,1-.62-.45,54.49,54.49,0,0,1-1.06-6c-.28-2-.43-4-.51-6a54.12,54.12,0,0,1,.73-12.06.5.5,0,0,1,.58-.4A.51.51,0,0,1,147.74,297Z"/><path class="cls-8" d="M163.22,250.79c0,1.85-.16,3.65-.29,5.48a54.6,54.6,0,0,1-.58,5.5.54.54,0,0,1-1.06,0,30.9,30.9,0,0,1-.14-5.61,18.1,18.1,0,0,1,1.12-5.55.49.49,0,0,1,.95.2Z"/><path class="cls-8" d="M112.85,246a19.6,19.6,0,0,1,.63,5,16.61,16.61,0,0,1-.6,5,.55.55,0,0,1-.69.37.53.53,0,0,1-.39-.46h0a40.1,40.1,0,0,1-.22-4.89,47.69,47.69,0,0,1,.24-4.9.54.54,0,0,1,.58-.46A.53.53,0,0,1,112.85,246Z"/><path class="cls-8" d="M110.8,251.81a48.49,48.49,0,0,0,2.78,5.28c1,1.74,2.07,3.45,3.1,5.17L123,272.57c4.2,6.88,8.4,13.73,12.46,20.75,3.87,7.15,7.47,14.32,11,21.57s7,14.58,9.94,22.13c5.44,15.19,11.8,30,17.47,45.09,2.86,7.55,5.45,15.22,7.7,23s4,15.76,4.3,23.9a.49.49,0,0,1-.47.51.48.48,0,0,1-.5-.44v0a88.12,88.12,0,0,0-2-11.82l-.67-2.92c-.24-1-.53-1.94-.79-2.9l-.79-2.9-.89-2.88c-2.31-7.68-5.1-15.23-7.9-22.76-5.64-15.05-12.08-29.89-17.48-45.07-2.9-7.46-6.29-14.76-9.76-22Q142,310.35,139.28,305l-2.74-5.38c-.93-1.79-1.83-3.59-2.81-5.3-4-6.94-8.32-13.78-12.38-20.74-2.06-3.47-4-7-6-10.53-1-1.77-1.88-3.58-2.79-5.39-.43-.92-.88-1.82-1.27-2.76l-.59-1.41-.47-1.48a.29.29,0,0,1,.19-.36.27.27,0,0,1,.34.16Z"/><path class="cls-8" d="M112.49,250c-1.87,0-3,1.51-3.93,3.21-.48.87-.88,1.73-1.41,2.67s-1.1,1.78-1.68,2.63c-1.16,1.69-2.44,3.28-3.72,4.86s-2.65,3.08-4.11,4.52h0l.21-.45c-.07,1.11-.21,2.21-.35,3.31S97.17,272.9,97,274s-.39,2.18-.63,3.26-.46,2.17-.74,3.25h0l-.32-.58a32.76,32.76,0,0,1,4.44,1.75,28,28,0,0,1,4.16,2.34h0a.33.33,0,0,1,.23.4l0,.08-.1.17a13,13,0,0,1-2.38,2.82,12.27,12.27,0,0,1-3,2.09h0l0-.78c2.23,2.11,4.32,4.35,6.36,6.63s4,4.64,5.94,7q5.9,7,11.65,14.17c7.67,9.52,15.22,19.15,22.36,29.09s14.14,20,20.52,30.43,12.42,21.19,16.61,32.73a.38.38,0,0,1-.7.3v0q-2-4.11-3.93-8.24c-1.36-2.72-2.89-5.36-4.29-8.05l-1.07-2-1.16-2-2.32-3.93L166.3,381l-2.44-3.86c-6.42-10.35-13.43-20.34-20.64-30.17-3.6-4.93-7.31-9.76-11-14.64s-7.47-9.63-11.3-14.38-7.68-9.48-11.59-14.17-7.91-9.28-11.54-14.21l0,0a.55.55,0,0,1,.08-.74h0a11.84,11.84,0,0,1,2.49-2.69,12.74,12.74,0,0,1,3.11-2l.1.65h0a27.66,27.66,0,0,1-4.5-1.61,33.3,33.3,0,0,1-4.23-2.2l-.11-.06a.47.47,0,0,1-.2-.51h0c0-1.11.13-2.22.22-3.32s.24-2.2.35-3.3.3-2.2.45-3.29.37-2.18.62-3.26l0-.12a.69.69,0,0,1,.19-.33h0l3.72-4.73c1.26-1.56,2.48-3.15,3.68-4.74.6-.79,1.18-1.59,1.69-2.4s1-1.75,1.6-2.6a10.19,10.19,0,0,1,2.17-2.46,4.66,4.66,0,0,1,3.3-.92h0a.55.55,0,0,1,.48.61A.57.57,0,0,1,112.49,250Z"/><path class="cls-8" d="M164.87,262.28a26.68,26.68,0,0,0,2.84,3.24c1,1.06,2.09,2.09,3.16,3.11q3.21,3.08,6.47,6.12c2.13,2.07,4.31,4.1,6.41,6.22s4.2,4.24,6.14,6.53h0a.36.36,0,0,1,.16.5.46.46,0,0,1-.15.16l-.27.14a9.24,9.24,0,0,1-1.89.71,16,16,0,0,1-2,.39c-.65.1-1.31.17-2,.21a13.62,13.62,0,0,1-2,0h0l.09-.87a32.61,32.61,0,0,1,5.71,1.68A29.91,29.91,0,0,1,193,293h0a.41.41,0,0,1,.27.27l0,.08c1.43,5,2.47,10,3.51,15.08l3,15.18c2,10.12,3.72,20.29,5.45,30.46s3.18,20.39,4.57,30.62c1.23,10.25,2.46,20.53,2.49,30.91a.48.48,0,0,1-.48.48.49.49,0,0,1-.48-.46v0c-.26-5.12-.8-10.23-1.47-15.33s-1.39-10.19-2.16-15.28c-1.52-10.19-3.29-20.33-5-30.5L197.36,324l-2.69-15.22c-.89-5.08-1.78-10.15-2.34-15.29l.29.34h0a30.78,30.78,0,0,1-5.71-1.69,32.93,32.93,0,0,1-5.35-2.59l-.14-.09a.44.44,0,0,1-.14-.59.41.41,0,0,1,.37-.19h0a14.8,14.8,0,0,1,1.9-.67c.64-.18,1.28-.34,1.93-.46a16.39,16.39,0,0,1,2-.28,9.79,9.79,0,0,1,2,0l-.27.81h0l-13.15-12c-2.16-2.05-4.33-4.1-6.42-6.24a39.31,39.31,0,0,1-5.78-7,.58.58,0,0,1,.21-.8.59.59,0,0,1,.78.17Z"/><path class="cls-8" d="M222.55,328.08c1.12,7.28,2,14.59,2.83,21.9s1.55,14.63,2.3,21.95,1.32,14.66,1.9,22l.75,11c.2,3.68.41,7.35.49,11a.5.5,0,0,1-.49.51.51.51,0,0,1-.51-.45l-2.14-22-2.06-22-2-22-1.89-22a.39.39,0,0,1,.35-.42A.39.39,0,0,1,222.55,328.08Z"/><path class="cls-8" d="M166.34,274.67c5,11.74,9.54,23.69,13.93,35.68q3.28,9,6.42,18.06l6.2,18.13c2.05,6,4.09,12.1,6.07,18.17s3.85,12.19,5.67,18.32,3.54,12.29,5,18.52a131.76,131.76,0,0,1,3.31,18.93.47.47,0,0,1-.41.5.46.46,0,0,1-.49-.39c-1-6.26-2.59-12.44-4.18-18.6s-3.34-12.28-5.17-18.39c-3.69-12.2-7.69-24.31-11.76-36.4-2.05-6-4.06-12.11-6.19-18.11s-4.32-12-6.52-18c-4.36-12-8.9-23.92-12.6-36.17a.38.38,0,0,1,.26-.48A.37.37,0,0,1,166.34,274.67Z"/><path class="cls-8" d="M201.09,430.07c-7.59.21-15.15,0-22.71-.28s-15.12-.77-22.66-1.58c-3.77-.41-7.54-.87-11.31-1.57a80.63,80.63,0,0,1-11.1-3,138.81,138.81,0,0,1-21-9.06c-.84-.44-1.68-.94-2.51-1.42l-1.25-.79-.64-.46-.32-.23c-.13-.12-.28-.26-.41-.4a2.25,2.25,0,0,1-.59-1,5.27,5.27,0,0,1-.24-.85c-.13-.5-.23-1-.31-1.46-.19-1-.32-1.89-.48-2.84-.56-3.76-1-7.51-1.49-11.26-.93-7.5-1.76-15-2.75-22.47s-2.22-14.89-3.59-22.27c-.69-3.7-1.42-7.38-2.26-11a85.81,85.81,0,0,0-3-10.81h0a.3.3,0,0,1,.17-.38.3.3,0,0,1,.36.13,57.47,57.47,0,0,1,4.32,10.58c1.11,3.64,2,7.33,2.82,11,1.58,7.42,2.7,14.91,3.76,22.41s1.85,15,2.79,22.49c.47,3.74.94,7.48,1.51,11.19.15.91.28,1.84.46,2.74.08.46.17.9.28,1.31a2.72,2.72,0,0,0,.14.51c0,.08,0,.19.11.21l.1.1.25.18.51.37,1.15.72c.8.46,1.59.93,2.42,1.36a141.18,141.18,0,0,0,20.51,9,80,80,0,0,0,10.75,2.94c3.65.7,7.38,1.18,11.11,1.62q11.21,1.23,22.5,1.84c7.52.4,15.06.71,22.57.68h0a.84.84,0,0,1,.85.84A.85.85,0,0,1,201.09,430.07Z"/><path class="cls-8" d="M61.09,290.13a11.32,11.32,0,0,1,4.77.87A21.83,21.83,0,0,1,68,292c.68.37,1.33.8,2,1.2A46.29,46.29,0,0,1,77,299.05a49.37,49.37,0,0,1,5.79,7,31.54,31.54,0,0,1,4,8.13.3.3,0,0,1-.56.2,34.84,34.84,0,0,0-4.55-7.57,53.39,53.39,0,0,0-6-6.49,44.54,44.54,0,0,0-7-5.32,24.07,24.07,0,0,0-7.73-3.21H61a.85.85,0,0,1,.1-1.69Z"/><path class="cls-8" d="M201.15,430.33a6.67,6.67,0,0,0,1.77-1,16,16,0,0,0,1.66-1.4,10.9,10.9,0,0,0,1.38-1.61c.39-.59.77-1.26,1.19-1.92a13.5,13.5,0,0,1,7.51-5.87,51.93,51.93,0,0,1,9.06-1.93c1.51-.22,3-.48,4.46-.81a16.21,16.21,0,0,1,2.33-.48,14.56,14.56,0,0,1,2.38,0c1.57.07,3.1.31,4.59.47s2.84.06,4.56.2a5.27,5.27,0,0,1,.7.13,1.8,1.8,0,0,1,.91.55,2,2,0,0,1,.37,1,4.63,4.63,0,0,1,0,.74,6.23,6.23,0,0,1-.81,2.52,4.8,4.8,0,0,1-1.93,1.91,9.05,9.05,0,0,1-2.37.79,26.86,26.86,0,0,1-4.69.37h-2.3a7.11,7.11,0,0,0-1.05,0,10.1,10.1,0,0,0-1,.19,21.7,21.7,0,0,0-4.21,1.47,6.48,6.48,0,0,0-1.77,1.17l0,.06s0-.13,0-.13,0,0,0,0a.22.22,0,0,0,.07.06,2.68,2.68,0,0,0,.45.24,8,8,0,0,0,1,.38c1.43.42,2.93.71,4.42,1s3,.61,4.45.93c3,.65,6,1.13,9,1.7s6,1.12,9,1.46c1.51.18,3,.27,4.51.33a22.67,22.67,0,0,1,4.66.62,12,12,0,0,1,2.28.83,5.42,5.42,0,0,1,2,1.63,5.33,5.33,0,0,1,.65,1.13,5.5,5.5,0,0,1,.23.61,2.37,2.37,0,0,1,.1.82,1.75,1.75,0,0,1-.3.89,2.18,2.18,0,0,1-.64.56,4.35,4.35,0,0,1-1.28.49,41.57,41.57,0,0,1-4.65.49l-1.09.13c-.37,0-.8.1-1.18.12-.78.06-1.54.12-2.31.14-3.06.1-6.1.12-9.13.14-1.52,0-3,0-4.55.09A31.46,31.46,0,0,0,237,442h0a.32.32,0,0,1-.38-.26.33.33,0,0,1,.22-.37A42.2,42.2,0,0,1,246,440c3.05-.22,6.1-.28,9.13-.37l2.25-.08c.39,0,.71-.05,1.1-.08l1.18-.09a34.66,34.66,0,0,0,4.45-.29c.68-.13,1.21-.42,1.13-.63s0-.2,0-.31a3.78,3.78,0,0,0-.17-.46,3.7,3.7,0,0,0-.49-.84,4.12,4.12,0,0,0-1.51-1.22,11.43,11.43,0,0,0-2-.72,21.7,21.7,0,0,0-4.38-.57c-1.5,0-3.08-.14-4.6-.32-3.06-.34-6.08-.88-9.08-1.43s-6-1.09-9-1.77a56,56,0,0,1-8.81-2.63,11.37,11.37,0,0,1-1.09-.45,3.54,3.54,0,0,1-.55-.32l-.15-.13a.62.62,0,0,1-.15-.22.5.5,0,0,1,0-.4,1.11,1.11,0,0,1,.11-.16,4.2,4.2,0,0,1,1-.82c.32-.22.66-.42,1-.62a22.7,22.7,0,0,1,4.24-2,8.87,8.87,0,0,1,1.18-.31,6.81,6.81,0,0,1,1.23-.12l2.27-.08a25.1,25.1,0,0,0,4.39-.52,8.39,8.39,0,0,0,1.94-.68,3.13,3.13,0,0,0,1.24-1.28,4.39,4.39,0,0,0,.56-1.8,2.66,2.66,0,0,0,0-.4c0-.07,0-.09,0-.13h0l0,0,.05,0a.68.68,0,0,0-.13,0,1.93,1.93,0,0,0-.41-.09c-.65-.09-1.42-.08-2.2-.11a17,17,0,0,1-2.36-.24c-1.52-.25-3-.55-4.47-.69a13.25,13.25,0,0,0-2.18,0,10.56,10.56,0,0,0-2.13.45c-1.51.39-3,.66-4.51,1a59.93,59.93,0,0,0-8.69,2.3,13.48,13.48,0,0,0-3.77,1.95,13.05,13.05,0,0,0-2.91,3.1c-.43.6-.84,1.24-1.33,1.89a11.83,11.83,0,0,1-1.7,1.76,14.63,14.63,0,0,1-2,1.38,6.19,6.19,0,0,1-2.35.93.52.52,0,0,1-.21-1Z"/><path class="cls-8" d="M263.93,440.3a32,32,0,0,1-6.51,3.32c-2.23.91-4.48,1.71-6.76,2.47-1.13.36-2.26.76-3.45,1.08s-2.33.59-3.48.86a26.65,26.65,0,0,0-6.59,2.44.24.24,0,0,1-.32-.09.23.23,0,0,1,.06-.3,20.8,20.8,0,0,1,6.48-3.3c1.14-.4,2.29-.73,3.4-1.1s2.23-.78,3.35-1.19l6.71-2.43c1.12-.4,2.23-.81,3.32-1.25a26.16,26.16,0,0,0,3.17-1.4l.05,0a.53.53,0,0,1,.73.21A.54.54,0,0,1,263.93,440.3Z"/><path class="cls-8" d="M250.65,445.66a25.29,25.29,0,0,1-2.82,2.23c-1,.69-2,1.32-2.93,2-2,1.29-4,2.51-6,3.72s-4,2.42-5.92,3.73l-.68.5c-.25.18-.5.38-.77.55a11.17,11.17,0,0,1-1.67.89,20.34,20.34,0,0,1-3.54,1c-2.35.49-4.67.81-7,1.16a29.45,29.45,0,0,1-7.23.36,34.1,34.1,0,0,1-7.08-1.46c-2.31-.7-4.35-1.71-6.58-1.74a.52.52,0,0,1-.5-.52.5.5,0,0,1,.42-.49h0a11,11,0,0,1,3.71.11c1.19.23,2.32.52,3.45.77a44.88,44.88,0,0,0,6.74,1,38.89,38.89,0,0,0,6.79-.27c2.34-.23,4.68-.4,6.95-.72a15.48,15.48,0,0,0,3.24-.77,9.34,9.34,0,0,0,1.46-.7,7.91,7.91,0,0,0,.68-.44l.74-.53c2-1.32,4-2.56,6-3.81s4-2.48,6-3.68,4.07-2.37,5.91-3.64l0,0a.47.47,0,0,1,.59.74Z"/><path class="cls-10" d="M211.66,460.61a126.08,126.08,0,0,1-1.21,13.85"/><path class="cls-8" d="M239.36,528.53c-.37-6.06-.92-12.11-1.41-18.16l-1.58-18.15c-.53-6.05-1.14-12.1-1.63-18.16-.27-3-.52-6.05-.73-9.08s-.42-6.07-.58-9.1a.46.46,0,0,1,.43-.48.45.45,0,0,1,.47.39q.64,4.51,1.16,9c.37,3,.69,6,1,9.06.64,6.05,1.12,12.11,1.65,18.17s1,12.12,1.37,18.19.7,12.14.9,18.22a.52.52,0,0,1-1,0Z"/><path class="cls-8" d="M223.52,459.68l3,7.28c1,2.44,1.9,4.91,2.82,7.38q2.7,7.43,4.89,15a196.91,196.91,0,0,1,6.28,31c.26,2.63.61,5.25.73,7.89s.35,5.28.36,7.92l.07,4a9,9,0,0,1-.18,2.28,3,3,0,0,1-.8,1.55,1.88,1.88,0,0,1-.59.41,2,2,0,0,1-.79.16,2.69,2.69,0,0,1-.68-.11l-.48-.22a5.93,5.93,0,0,1-.64-.49l-.43-.48a9.1,9.1,0,0,1-.67-.94,19,19,0,0,1-1-1.86c-.6-1.27-1.06-2.46-1.61-3.61a41.3,41.3,0,0,0-3.82-6.61,30.52,30.52,0,0,0-5.06-5.64,27.14,27.14,0,0,0-6.38-4,27.79,27.79,0,0,0-7.38-1.93h0a.58.58,0,0,1-.49-.67.59.59,0,0,1,.61-.5,27.09,27.09,0,0,1,7.93,1.51,26.61,26.61,0,0,1,7.07,4,36.35,36.35,0,0,1,9.88,12.74c.61,1.2,1.12,2.46,1.67,3.54a14.66,14.66,0,0,0,.9,1.57,7.54,7.54,0,0,0,.48.66l.24.24.14.11s0,0,0,0a.39.39,0,0,0-.21,0c-.05,0-.21,0-.3.07s-.15.06-.2.12,0,0,0-.2a7.08,7.08,0,0,0,.1-1.63l-.1-3.91c0-1.3,0-2.6-.12-3.9l-.24-3.9c-.1-2.6-.42-5.19-.65-7.78a203.6,203.6,0,0,0-5.6-30.76q-2-7.59-4.47-15c-1.66-5-3.5-9.85-5.29-14.81a.58.58,0,0,1,1.09-.42Z"/><path class="cls-8" d="M169.87,268a24.1,24.1,0,0,0,3.26,1.61c1.13.48,2.29.92,3.45,1.33,2.34.82,4.7,1.56,7.09,2.2a58.3,58.3,0,0,0,7.23,1.48c2.42.31,4.92.48,7.43.76a19.33,19.33,0,0,1,7.55,2,15.93,15.93,0,0,1,5.4,5.72c2.71,4.29,5.05,8.7,7.42,13.11s4.65,8.85,7,13.21,5.18,8.47,8,12.56,5.79,8.09,8.91,12a113.27,113.27,0,0,0,10,11,82.4,82.4,0,0,0,11.78,9c4.17,2.72,8.43,5.29,12.75,7.79,8.64,5,17.41,9.72,26.39,14.05a342.86,342.86,0,0,0,55.73,21.52h0a.58.58,0,0,1,.38.73.11.11,0,0,1,0,.07l0,0c-1.58,3.34-2.92,6.84-4.26,10.31s-2.62,7-3.65,10.55c-.53,1.79-.95,3.57-1.31,5.38-.18.91-.33,1.82-.43,2.71-.05.45-.09.9-.1,1.33a3.81,3.81,0,0,0,.1,1.1.64.64,0,0,0,0,.09.15.15,0,0,0-.06,0,.24.24,0,0,0-.14-.05c-.21,0-.07,0,0-.08a4.49,4.49,0,0,0,.85-.81,21.32,21.32,0,0,0,1.61-2.19c1-1.54,2-3.16,2.9-4.78a.53.53,0,0,1,.94.49c-.81,1.71-1.67,3.39-2.64,5a20,20,0,0,1-1.61,2.43,6,6,0,0,1-1.15,1.16,1.68,1.68,0,0,1-1.26.34A1.44,1.44,0,0,1,349,431a1.75,1.75,0,0,1-.32-.29,2.05,2.05,0,0,1-.29-.54,5.05,5.05,0,0,1-.25-1.67c0-.51,0-1,.06-1.49.07-1,.2-1.93.35-2.87a55.16,55.16,0,0,1,1.26-5.59,106.32,106.32,0,0,1,3.64-10.76c.72-1.76,1.48-3.49,2.33-5.19a40.14,40.14,0,0,1,2.84-5l.34.84h0c-4.82-1.33-9.62-2.73-14.37-4.3s-9.5-3.18-14.16-5c-9.36-3.56-18.53-7.63-27.49-12s-17.86-9-26.56-14c-4.34-2.48-8.65-5-12.86-7.76a82.79,82.79,0,0,1-12.07-9.1,112.85,112.85,0,0,1-10.21-11.11q-4.74-5.85-9-12c-2.85-4.13-5.63-8.29-8.12-12.7s-4.71-8.82-7.08-13.22-4.74-8.78-7.38-12.94a14.54,14.54,0,0,0-4.72-5.1,17.59,17.59,0,0,0-6.81-1.86c-2.45-.31-4.93-.47-7.46-.84a59.35,59.35,0,0,1-7.41-1.67,74.43,74.43,0,0,1-7.16-2.43c-1.18-.46-2.34-1-3.49-1.48A25.83,25.83,0,0,1,169.2,269a.6.6,0,0,1,.65-1Z"/><path class="cls-8" d="M227.83,380c2.34,1.39,4.73,2.72,7.18,4s4.88,2.51,7.34,3.74c4.93,2.42,9.87,4.83,14.86,7.12q14.94,7,30.21,13.25t30.83,11.71q15.62,5.34,31.51,9.73h0a.85.85,0,0,1-.45,1.64q-16-4.39-31.64-9.72t-31-11.49q-15.36-6.17-30.36-13.18c-5-2.38-9.93-4.8-14.82-7.37a161.16,161.16,0,0,1-14.37-8.31.65.65,0,0,1,.69-1.11Z"/><path class="cls-8" d="M358.58,398.73a15.19,15.19,0,0,0,4.41.83,37,37,0,0,0,4.59,0c3.05-.24,6.15-.73,9.24-1.1s6.18-.79,9.31-1.08a37.33,37.33,0,0,1,4.77-.21,26.57,26.57,0,0,1,4.76.78,84.77,84.77,0,0,1,9,2.87,37.24,37.24,0,0,1,8.64,4.08,50.7,50.7,0,0,1,7.36,6.06l1.68,1.66a5.89,5.89,0,0,1,.9,1.19,4.12,4.12,0,0,1,.43,1.57,3,3,0,0,1-1.59,2.87,2.87,2.87,0,0,1-2.92-.28.52.52,0,0,1-.11-.71.53.53,0,0,1,.46-.21h0a2,2,0,0,0,1.58-.4,1.23,1.23,0,0,0,.33-1.11,2.29,2.29,0,0,0-.74-1.32l-1.64-1.62a56.91,56.91,0,0,0-7-5.86,36.69,36.69,0,0,0-8.11-4.08,84.52,84.52,0,0,0-8.72-3.07,25.66,25.66,0,0,0-4.43-.86,33.26,33.26,0,0,0-4.55.12c-3.08.24-6.18.58-9.27.92s-6.16.76-9.33,1a35.71,35.71,0,0,1-4.74,0,15.48,15.48,0,0,1-4.73-1,.52.52,0,0,1-.28-.67.53.53,0,0,1,.67-.29Z"/><path class="cls-8" d="M350.58,419.24c2.29.54,4.56,1.16,6.84,1.74l3.41.93c1.14.3,2.27.62,3.4,1h0l.14.07h0a43.56,43.56,0,0,0,5.76,2.76,45.86,45.86,0,0,0,6.07,2,42.78,42.78,0,0,0,6.27,1.18,52.47,52.47,0,0,0,6.4.36H389a.63.63,0,0,1,.3.1l9.09,6.46,2.27,1.64,1.12.84c.37.27.78.63,1.07.81a1.81,1.81,0,0,0,1.9.21,1.41,1.41,0,0,0,.75-1.53,1.92,1.92,0,0,0-.47-.9c-.27-.31-.6-.64-.91-.95-.66-.63-1.33-1.27-2-1.89l-4.14-3.72c-1.37-1.26-2.73-2.51-4.1-3.82a1.51,1.51,0,0,1-.51-1.56,1.07,1.07,0,0,1,.65-.68,1.67,1.67,0,0,1,.85-.07,8.86,8.86,0,0,1,2.65,1.23,74,74,0,0,1,9.28,6.27c1.48,1.14,2.92,2.36,4.29,3.64a3.93,3.93,0,0,0,.92.68,2,2,0,0,0,.92.19,1,1,0,0,0,.83-1.11c-.08-1.36-1.5-2.77-2.71-4.09s-2.56-2.64-3.9-3.9-2.69-2.53-4.07-3.75c-.69-.62-1.39-1.22-2.1-1.81a22.8,22.8,0,0,0-2.18-1.66h0a.28.28,0,0,1-.07-.38.26.26,0,0,1,.27-.11,40.8,40.8,0,0,1,7.27,1.85,24.53,24.53,0,0,1,3.49,1.54l3.26,1.81,3.24,1.82,1.61.93.71.38a4,4,0,0,0,.71.2,1.72,1.72,0,0,0,2.08-1,3,3,0,0,0-.79-2.75l0,0a.39.39,0,0,1,.06-.55.39.39,0,0,1,.46,0,4.17,4.17,0,0,1,1.46,1.49,3.17,3.17,0,0,1,.33,2.3,3,3,0,0,1-1.54,1.91,3.7,3.7,0,0,1-2.34.3,6,6,0,0,1-1.07-.3c-.32-.15-.67-.32-.94-.48l-1.6-1-3.16-2L409,424a24.52,24.52,0,0,0-3.23-1.65,55.43,55.43,0,0,0-6.95-2.42l.18-.5h0a31.67,31.67,0,0,1,4.73,3.07c1.49,1.12,2.94,2.31,4.36,3.53s2.77,2.51,4.09,3.86c.66.68,1.28,1.4,1.89,2.16a5.58,5.58,0,0,1,1.26,3,2.75,2.75,0,0,1-.54,1.85,2.59,2.59,0,0,1-1.75.95,3.57,3.57,0,0,1-1.79-.34,6,6,0,0,1-1.32-1c-1.33-1.26-2.73-2.44-4.15-3.62-2.85-2.34-5.89-4.43-8.83-6.71a6.39,6.39,0,0,0-2.25-1.34c-.39-.07-.74,0-.8.29a.88.88,0,0,0,.38.91c1.34,1.23,2.87,2.33,4.32,3.48s2.9,2.33,4.33,3.53c.71.61,1.42,1.21,2.11,1.86.35.33.69.66,1,1a3.34,3.34,0,0,1,.8,1.54,2.9,2.9,0,0,1-.21,1.83,3,3,0,0,1-1.28,1.3,3.27,3.27,0,0,1-3.37-.34c-.48-.34-.76-.6-1.13-.9l-1.09-.85-2.2-1.7c-2.94-2.26-6-4.4-9-6.58l.35.1h0a34.85,34.85,0,0,1-6.62.12,37.26,37.26,0,0,1-6.56-1.08,38.53,38.53,0,0,1-6.27-2.2,29.69,29.69,0,0,1-5.75-3.36h0l.19.09c-1.16-.22-2.31-.46-3.46-.7l-3.44-.74c-2.29-.53-4.58-1-6.86-1.58h0a.85.85,0,0,1,.4-1.65Z"/><path class="cls-8" d="M205.3,474.76a24.63,24.63,0,0,1,3.31-.21,19.47,19.47,0,0,1,3.31.23H212a.68.68,0,0,1,.56.61,53.08,53.08,0,0,1,.1,5.64c0,.93-.06,1.87-.14,2.81s-.15,1.87-.3,2.81a.63.63,0,0,1-.47.52h-.05a16.06,16.06,0,0,1-3.44.39,16.8,16.8,0,0,1-3.51-.23.62.62,0,0,1-.48-.73.6.6,0,0,1,.54-.49h0c1.08-.1,2.24-.17,3.37-.2a19,19,0,0,1,3.44.18l-.53.53c-.09-.94-.13-1.88-.16-2.82s0-1.88,0-2.81a55.83,55.83,0,0,1,.38-5.63l.63.62a19.56,19.56,0,0,1-3.33.23,25,25,0,0,1-3.34-.21.63.63,0,0,1,0-1.25Z"/><path class="cls-8" d="M193.6,475.46c-.52.07-1,.09-1.58.11s-1.06,0-1.59,0-1.06-.05-1.59-.12a9.57,9.57,0,0,1-1.65-.32.66.66,0,0,1,.14-1.3h.07c.46,0,1-.05,1.53-.06s1,0,1.58,0,1.06.06,1.59.13a10.16,10.16,0,0,1,1.61.31.65.65,0,0,1-.1,1.26Z"/><path class="cls-8" d="M193.14,486.55a20.85,20.85,0,0,1-3.35.19c-.57,0-1.13,0-1.69-.1a9.74,9.74,0,0,1-1.72-.31.69.69,0,0,1,.16-1.35h0c.51,0,1.07,0,1.61,0l1.65,0a25.43,25.43,0,0,1,3.34.36.61.61,0,0,1,0,1.2Z"/><path class="cls-8" d="M210.48,486.71c.29,6,.72,12.09,1,18.14l.95,18.17c.14,3,.32,6.06.37,9.11s.08,6.08.08,9.12q0,9.12-.19,18.22c-.3,12.13-.76,24.29-1.76,36.39s-2.21,24.18-3.82,36.21a.27.27,0,0,1-.29.23.26.26,0,0,1-.22-.29c1.25-12.06,2.18-24.15,2.9-36.25s1.07-24.2,1.16-36.32.15-24.24-.39-36.33c-.21-6.05-.49-12.11-.66-18.18-.08-3-.19-6.07-.2-9.1s-.06-6.07.08-9.13a.48.48,0,0,1,.95,0Z"/><path class="cls-8" d="M196.63,491c.25,3.76.33,7.52.39,11.27s.06,7.52,0,11.28-.14,7.51-.3,11.27a111.45,111.45,0,0,1-1,11.29.54.54,0,0,1-.62.46.55.55,0,0,1-.46-.57v0c.07-1.81.06-3.72.07-5.58l0-5.62c.05-3.75.12-7.5.25-11.25s.22-7.51.41-11.26.35-7.5.58-11.25h0a.29.29,0,0,1,.57,0Z"/><path class="cls-8" d="M93.82,562.41c.29,2.92.5,5.85.74,8.78l.58,8.78q.52,8.81.87,17.59c.24,5.87.46,11.74.58,17.61s.27,11.75.27,17.63h0a.25.25,0,0,1-.5,0c-.57-5.85-1-11.71-1.43-17.57s-.79-11.72-1.12-17.58S93.19,586,93,580.08l-.26-8.81c0-2.93-.12-5.87-.11-8.81a.61.61,0,0,1,.61-.61A.62.62,0,0,1,93.82,562.41Z"/><path class="cls-8" d="M188.2,468.83a320.18,320.18,0,0,1-2.58,35.8c-.8,5.94-1.74,11.87-3,17.75a120.09,120.09,0,0,1-4.8,17.43,59.69,59.69,0,0,1-3.88,8.26l-.56,1-.63,1c-.43.64-.83,1.29-1.28,1.91a38.08,38.08,0,0,1-2.92,3.56,17.92,17.92,0,0,1-1.61,1.65c-.56.52-1.11,1.06-1.7,1.56l-1.81,1.42c-.6.48-1.28.86-1.91,1.29l-1,.63-1,.56c-.68.35-1.34.75-2,1.07a42.38,42.38,0,0,1-4.24,1.74,59.81,59.81,0,0,1-17.85,3.18,126,126,0,0,1-18-.83c-6-.65-11.9-1.59-17.79-2.77a166,166,0,0,1-17.47-4.41L80,559.87a5.76,5.76,0,0,1-2.31-1.55,5.65,5.65,0,0,1-1.28-2.46,5.1,5.1,0,0,1-.15-1.4,4,4,0,0,1,0-.69l.08-.57,1.34-8.85,2.66-17.72,2.68-17.71C84,503,85,497.12,86,491.23l2.86-17.68c.45-2.95.89-5.9,1.26-8.85s.73-5.92.85-8.88a.39.39,0,0,1,.41-.38.4.4,0,0,1,.39.4c0,3-.34,6-.65,9s-.68,5.95-1.06,8.91c-.77,5.93-1.66,11.84-2.56,17.74s-1.82,11.81-2.66,17.71l-2.46,17.74-2.45,17.75-1.23,8.87-.07.54c0,.14,0,.28,0,.42a3.85,3.85,0,0,0,.1.83,3.57,3.57,0,0,0,.78,1.46,3.34,3.34,0,0,0,1.37.91l2.09.69a208.71,208.71,0,0,0,34.78,7.47,112,112,0,0,0,17.73.88,57.28,57.28,0,0,0,17.25-3.19,40.79,40.79,0,0,0,4-1.69c.66-.31,1.28-.69,1.92-1l1-.53.91-.6c.59-.41,1.23-.77,1.78-1.23l1.7-1.35c.56-.47,1.06-1,1.59-1.48a16,16,0,0,0,1.51-1.57c3.94-4.27,6.63-9.58,8.71-15a128.34,128.34,0,0,0,4.6-17.11c1.19-5.81,2.13-11.68,2.92-17.58,1.65-11.79,2.69-23.66,3.75-35.55a.59.59,0,0,1,.64-.54A.6.6,0,0,1,188.2,468.83Z"/><path class="cls-8" d="M97.29,268.39c-1.43,1.17-2.85,2.11-4.3,3.11l-4.34,2.91c-2.9,1.93-5.83,3.81-8.77,5.68l-8.8,5.61c-2.92,1.87-5.92,3.69-8.74,5.63a30.85,30.85,0,0,0-7.33,6.9c-.5.68-1,1.37-1.44,2.08a16.69,16.69,0,0,0-2.71,6.84,58.5,58.5,0,0,0-.8,10.2c0,3.45.12,6.9.31,10.37.09,1.74.21,3.46.26,5.24s.15,3.43.28,5.17c.23,3.46.52,6.93.82,10.39.58,6.93,1.29,13.85,2.08,20.76s1.68,13.8,2.76,20.65c.57,3.43,1.14,6.85,1.89,10.22s1.62,6.76,2.39,10.14c1.6,6.78,3.13,13.57,4.78,20.32.84,3.36,1.68,6.73,2.7,10a24.81,24.81,0,0,0,1.83,4.63,9,9,0,0,0,3.14,3.38,19.4,19.4,0,0,0,4.52,1.92c1.63.52,3.31,1,5,1.51q5,1.53,10,2.9,10,2.73,20.22,4.85c6.78,1.4,13.62,2.58,20.47,3.51s13.77,1.58,20.69,2.15,13.85,1,20.79,1.37,13.88.72,20.79.79h0l-1.24.86A75,75,0,0,0,197,459c.69-3.26,1.28-6.55,1.79-9.85s.93-6.61,1.22-9.92a56.39,56.39,0,0,0,.18-9.88v0a.86.86,0,0,1,.77-.93.85.85,0,0,1,.92.75,59.3,59.3,0,0,1,.07,10.23c-.22,3.38-.57,6.74-1,10.09s-.95,6.68-1.57,10a76.48,76.48,0,0,1-2.4,10,1.25,1.25,0,0,1-1.19.86h-.06c-14-.06-27.9-.87-41.81-2-7-.57-13.9-1.25-20.84-2.16q-5.2-.7-10.37-1.66c-3.44-.61-6.86-1.31-10.28-2.05q-10.24-2.22-20.33-5.09c-3.35-1-6.7-2-10-3-1.65-.52-3.32-1-5-1.57a22,22,0,0,1-5-2.21,11.34,11.34,0,0,1-3.84-4.22,26.92,26.92,0,0,1-2-5.07c-1-3.38-1.83-6.77-2.64-10.17C62,424.3,60.55,417.5,59,410.72c-.75-3.41-1.59-6.75-2.31-10.19s-1.27-6.89-1.81-10.34c-1-6.9-1.86-13.82-2.68-20.73S50.71,355.61,50,348.68c-.34-3.47-.67-6.93-.95-10.41-.15-1.73-.28-3.5-.34-5.25s-.22-3.44-.33-5.18c-.24-3.48-.42-7-.4-10.49a62.07,62.07,0,0,1,.8-10.59,20,20,0,0,1,1.64-5.24,7.83,7.83,0,0,1,.66-1.22c.24-.38.46-.77.71-1.14.49-.74,1-1.47,1.55-2.19a32.69,32.69,0,0,1,7.85-7.28c5.88-3.88,11.85-7.38,17.77-11.05l8.88-5.48,4.41-2.77c1.45-.93,3-1.88,4.25-2.88l0,0a.59.59,0,0,1,.82.1A.59.59,0,0,1,97.29,268.39Z"/></g></svg>