<svg xmlns="http://www.w3.org/2000/svg" viewBox="0 0 444.4 625.51"><defs><style>.cls-1{fill:#19a500;}.cls-2{fill:#28347d;}.cls-3,.cls-4{fill:#fff;}.cls-4{fill-rule:evenodd;}</style></defs><title>6-personaje-02</title><g id="Circulo"><circle class="cls-1" cx="346.42" cy="121.29" r="80.7"/><path class="cls-2" d="M429,118.73A81.92,81.92,0,0,0,427,103.52c-.27-1.25-.58-2.49-.91-3.73a80.6,80.6,0,0,0-7.57-19.38,81.3,81.3,0,0,0-76.83-42,81.43,81.43,0,0,0-21,4.19l-.45.15-1.37.48a79.12,79.12,0,0,0-12.43,5.5,82.59,82.59,0,0,0-23.63,19.55,84,84,0,0,0-7.08,10.1,69.8,69.8,0,0,0-5.37,10.51c-.8,2-1.51,4-2.15,6,0,.09-.07.18-.1.28l-.06.19c-.19.64-.38,1.28-.56,1.92a83.35,83.35,0,0,0-3.08,28.26,81,81,0,0,0,3.7,19.51,78.5,78.5,0,0,0,36.23,46.71,80.69,80.69,0,0,0,28.85,10.3l3.83.45a34.9,34.9,0,0,0,3.83.32l3.84.13c.64,0,1.28.06,1.92,0l1.92-.06A83.64,83.64,0,0,0,363.75,201c2-.45,4-1,6-1.6a.85.85,0,0,0,.42,0,78.46,78.46,0,0,0,47.62-36.5,80.71,80.71,0,0,0,10.31-28.85l.44-3.83a32.63,32.63,0,0,0,.33-3.82l.12-3.85c0-.64.06-1.28.05-1.92Zm-65.73,80a80.68,80.68,0,0,1-14.78,1.63l-1.86,0c-.62,0-1.24-.05-1.86-.08l-3.71-.18a32.9,32.9,0,0,1-3.7-.38l-3.68-.49A80.51,80.51,0,0,1,306,189a81.66,81.66,0,0,1-22.21-19.4A86.56,86.56,0,0,1,272.39,151a78.64,78.64,0,0,1-5.46-25.57,80.82,80.82,0,0,1,69-83.54,82,82,0,0,1,14.86-.77c2,.08,4,.27,6,.5a80.64,80.64,0,0,1,69.42,83.14c-.05,1.34-.15,2.68-.28,4-.05.39-.1.78-.16,1.17l-.49,3.68a80.31,80.31,0,0,1-10.19,27.68,81.3,81.3,0,0,1-19.39,22.21,85.69,85.69,0,0,1-9,6.31A77.89,77.89,0,0,1,363.25,198.68Z"/></g><g id="LOGO"><path id="Path_2911" data-name="Path 2911" class="cls-3" d="M350.28,133.25H334.22V107.88h16.06v3.64H338.69v7.24h10v3.63h-10v7.16h11.59Z"/><path id="Path_2912" data-name="Path 2912" class="cls-3" d="M353.24,101.46l17,24.05V107.88h4.45v32.5L357.64,116v17.26h-4.4Z"/><path id="Path_2913" data-name="Path 2913" class="cls-3" d="M385.29,133.66a8.62,8.62,0,0,1-2.89-.47,9.51,9.51,0,0,1-2.49-1.34,10.23,10.23,0,0,1-2-2,13.52,13.52,0,0,1-1.51-2.5l3.11-2.57a7.81,7.81,0,0,0,.94,1.6,14.46,14.46,0,0,0,1.43,1.7,8.37,8.37,0,0,0,1.68,1.35,3.4,3.4,0,0,0,1.77.54,5.83,5.83,0,0,0,2.23-.35,3.83,3.83,0,0,0,1.35-.89,2.92,2.92,0,0,0,.67-1.1,3.61,3.61,0,0,0,.16-1,4.9,4.9,0,0,0-.1-1,3.19,3.19,0,0,0-.56-1.21,6,6,0,0,0-1.39-1.31,13,13,0,0,0-2.6-1.33,34.93,34.93,0,0,1-3.95-1.89,11.91,11.91,0,0,1-2.43-1.79,5.19,5.19,0,0,1-1.25-1.83,5.77,5.77,0,0,1-.36-2,7.42,7.42,0,0,1,.44-2.37,6.23,6.23,0,0,1,1.42-2.26,7.46,7.46,0,0,1,2.57-1.69,10.56,10.56,0,0,1,4-.66,8.55,8.55,0,0,1,5.29,1.56,9.89,9.89,0,0,1,3.2,4.39l-3.79,1.2a4.69,4.69,0,0,0-4.7-3.28,4.46,4.46,0,0,0-2.78.7,2.27,2.27,0,0,0-.92,1.87,1.91,1.91,0,0,0,.48,1.27,5.43,5.43,0,0,0,1.31,1.08,14.22,14.22,0,0,0,1.94,1l2.39,1a14.6,14.6,0,0,1,3.41,2,8.24,8.24,0,0,1,1.87,2.12,6.18,6.18,0,0,1,.79,2.12,12.82,12.82,0,0,1,.16,2,7.46,7.46,0,0,1-.41,2.25,6.94,6.94,0,0,1-1.42,2.45,7.82,7.82,0,0,1-2.7,2A10.34,10.34,0,0,1,385.29,133.66Z"/><path id="Path_2914" data-name="Path 2914" class="cls-3" d="M413.22,133.25l-3-6.86H401c-.47,1.08-1,2.24-1.47,3.47s-1,2.36-1.44,3.39h-4.65l12.22-28,12.31,28Zm-4.45-10.56q-.45-1.12-.81-2c-.24-.57-.46-1.13-.68-1.68l-.73-1.79c-.26-.64-.58-1.43-.94-2.37-.5,1.25-1,2.5-1.54,3.76s-1.06,2.62-1.62,4.06Z"/><path id="Path_2915" data-name="Path 2915" class="cls-4" d="M289.74,104.81c-.1.21-.47.14-.76.15C289,104.7,289.48,104.85,289.74,104.81Zm5.05-.39c-.26,0-.65-.31-.76-.07.28.07.62.25.76.07Zm-4.59.07c-.2-.06-.65-.13-.75.22.3-.17.54.05.75-.22Zm2.71.22a3.45,3.45,0,0,0-2,.23s.36.17.37,0c-.36,0,.25-.14.38-.15-.06.31,1.15.14,1.28-.07Zm-9.26,3.65c0-.21.24-.2.3-.37C283.73,108,283.32,108.26,283.65,108.36Zm17.92,9.53a8.12,8.12,0,0,0,.15,1.71A4.14,4.14,0,0,0,301.57,117.89Zm-13.7-12.8c.49-.16,1-.3,1.5-.45A2.44,2.44,0,0,0,287.87,105.09Zm3.61.07c-.64-.06-1,.17-1.58.15-.24.22-.74.17-1,.37C289.8,105.53,290.56,105.27,291.48,105.16Zm-10.32,4.24c0,.12-.32.32-.15.38a14.14,14.14,0,0,1,4.3-3.58,11.39,11.39,0,0,0-4.75,3.8A2.84,2.84,0,0,1,281.16,109.4Zm19.36-1.86c.33.19.83.62.45.3,0,0-.23-.41-.46-.3Zm-20.11,1.57c.52-.08.77-1,1-1.21a3.41,3.41,0,0,0-.59.61v-.22c-.36,0-.34.4-.53.59C280.52,108.82,280.52,109,280.41,109.11Zm1-1.21.09-.06A.12.12,0,0,0,281.38,107.9Zm1.59,1c0-.25.6-.34.38-.59C283.34,108.56,282.75,108.64,283,108.88Zm4.59.3c-.29,0-.38.38-.52.08-.13.15,0,.14-.08.29A1.22,1.22,0,0,0,287.56,109.18Zm-6.17,1.19c.14-.28.66-.58.6-.82C281.77,109.75,281.36,110.17,281.39,110.37Zm-1.28.23c-.14.23-.54.6-.45.81.13-.24.52-.62.45-.81ZM278.83,114c.16-.59.68-1.21.75-1.64a5,5,0,0,0-.75,1.64Zm1.13-1.12c-.06.26-.51.54-.3.82,0-.31.41-.63.3-.82Zm20.18,1.64c0-.22-.3-.53-.23-.38s.29.8.23.38Zm.07.44c.28.37.3,1,.61,1.34C300.65,115.83,300.5,115,300.21,114.91Zm-.3,10.5a10.73,10.73,0,0,0,1.21-7.44c.19,0,.27,0,.22-.23-.44-.15-.27-.92-.52-1.26v.22c1.12,4.07-.29,8.49-2.56,10.57A4,4,0,0,0,299.91,125.41Zm-17.47-1.94c.11.25.29.82.53.68C282.7,124,282.69,123.63,282.44,123.47Zm.91,1.64c0,.23.35.49.45.38-.2-.08-.25-.3-.45-.38Zm15.13,2.24a2,2,0,0,0-1,.81,1.46,1.46,0,0,1,.68-.37c-.24-.2.28-.26.3-.44Zm-.75.74c-.09.21-.69.31-.53.52.08-.22.74-.26.53-.52Zm-4.44,4.69c.24,0,.75-.19.67-.3-.28.11-.51,0-.67.3Zm-2-28.36c0-.12,0-.26.15-.23s-.09.12.08.23c.73-.25,1.26,0,2-.15-.36,0-.38-.07-.23-.3a3,3,0,0,0-2.71.52C290.8,104.46,291.12,104.31,291.25,104.42Zm-8,21.66s0,0,0,0l.08.07Zm.87,1c.11.21.36.59.57.58a1.28,1.28,0,0,0-.57-.58Zm11,5.83s-.08,0-.08.07a.27.27,0,0,0,.08-.07h0Zm11.29-8c-.38.71-.49,1.69-1.13,2.16,0,.15.21.09.15.3a15.22,15.22,0,0,1-2.63,3.5c.51.16-.81.67-.9,1.19a.53.53,0,0,0-.46,0c-.17.75-1.23.61-1.43,1.34a18.68,18.68,0,0,1-5.42,1.86c1.71-.67,3.68-1.08,5-2.16-.1-.16-.31.18-.53.15v0a18.12,18.12,0,0,1-2.94,1.28,19.89,19.89,0,0,0,4.6-3.05c-.43.05-.5.46-.91.52a16.31,16.31,0,0,0,3.39-3.5,13.85,13.85,0,0,1-3.23,2.91c.11-.33.52-.38.67-.67a20.64,20.64,0,0,1-4.44,2.68,16.83,16.83,0,0,0,2.48-1.57c-.85.25-1.86,1-2.86,1.34-.07-.25.65-.34.91-.52-.83,0-1.61.7-2.56.82a6.79,6.79,0,0,1,1.13-.52c0-.06-.09-.08-.15-.07h0c.86-.75,2.24-1.37,3.29-2.2a5.5,5.5,0,0,0,.62-.56,27.68,27.68,0,0,1-2.63,1.53c.1.05.19,0,.18.08a3.56,3.56,0,0,0-.79.15l-.07,0h0c-.55.18-1.08.41-1.41.29a9.49,9.49,0,0,0,1.39-.37c-.07-.1-.31.09-.58.09l.39-.25c-.71.17-1.32.59-2.19.34-.88.32-2,0-3,.14.3,0,.64.18.88.07.95.71,2.33-.22,3,.18-.93.19-1.93.2-2.88.35.11.08.22,0,.21.09a11.67,11.67,0,0,1-2-.09c.75.27,1.65.14,2.24.51a2,2,0,0,0-.84,0c.11.1.38-.07.35.16a27.44,27.44,0,0,0-2.81-.19,8.92,8.92,0,0,0,2.34.47c.57.05,1.32-.15,1.66.17-.47,0-.61.38-1.15,0-.14.47-.44-.15-.56.15.37.21,1.24,0,1.66.34a4.43,4.43,0,0,0-1.31,0c.69.44,1.4.11,2,.49-.57.16-1.34-.21-1.82.17a6.69,6.69,0,0,1,1.55,0,14.62,14.62,0,0,1-2.73,0c-.39-.34-.88-.2-.87-.07a3.38,3.38,0,0,0-1.63-.23,17,17,0,0,1-7.06-3.9c1,1.38,2.92,2.39,4.41,3.36a11.65,11.65,0,0,1-3.4-1.95.22.22,0,0,0-.12-.11l.12.11a.17.17,0,0,1,0,.12,13.94,13.94,0,0,1-3.65-4.43,13.69,13.69,0,0,1-2.3-4.75.21.21,0,0,1,.1.06h0a11.07,11.07,0,0,1-.41-2.5,10.44,10.44,0,0,1,0-1.37c.29,1.75.44,3.87,1.28,5.36a16.73,16.73,0,0,1-.67-8,3.32,3.32,0,0,0,.45-1.57c.12.07.45-.32.3-.81a15,15,0,0,1,1.13-2.46,5.94,5.94,0,0,1-.6,1.42c.55-.27.52-1.12.9-1.56.1.7-.49,1.2-.37,2a4.35,4.35,0,0,0,.52-1.19c.17.54-.41,1.22-.37,1.64.33,0-.12-.51.37-.45-.14-.65.22-.64.45-1,.15.44-.33,1-.52,1.56a8,8,0,0,0-.53,2.31,26.05,26.05,0,0,0,1-2.61c.22.06-.05.24,0,.37.21-.16.27-.48.38-.74.09.69-.4,1.44-.46,2.23.31-.57.36-1.38.76-1.86.11,0,0,.09,0,.22.52-.8.95-1.69,1.5-2.45.11.74-1.32,1.6-1.05,2.75-.21.17-.21.54-.3.82.54-.78.69-2,1.35-2.6.16-1.11,1.13-1.42,1.51-2.31-.43.15-.93.87-1.28,1.34,0-.54,1-1.14,1.35-1.86.12,0,0,.09,0,.22,1.56-1.76,4.09-2.56,6.48-3.5-.07-.22-.19.1-.38,0,.19-.18.67-.22.6-.44,5.75-1.32,11.38,2.05,13.86,5.58,0-.16-.46-1.17-.6-.89-.7-2-2.75-3.29-4.52-4.32,1,.11,2.62,1.44,3.61,1.56-.15-.52-.71-.62-1.2-1,.58-.12,1,1,1.65.75,0,0,.24.57.38.22a17.1,17.1,0,0,1,4.74,11.17,16,16,0,0,1-1,6.1c.23-.08.1-.5.38-.52Zm-25.82-.43.24-.14a1.74,1.74,0,0,0,.52,1.22c0-.08-.11-.19-.09-.28a4.14,4.14,0,0,1,.45.75,2.9,2.9,0,0,1,.27.41l-.06,0a1.54,1.54,0,0,0,.81.78,8.09,8.09,0,0,1-.7-1.21,1.28,1.28,0,0,1-.67-1,9.57,9.57,0,0,1-.92-1.5,1.89,1.89,0,0,0,.15,1Zm.82.14c-.08,0-.08.11,0,.21a1.55,1.55,0,0,1,0-.21Zm1.66,3h0l0,0v0Zm.11-.77a5.48,5.48,0,0,0-1-.81c.16.34.31.63.47.5.22.13.19.52.52.31Zm-7.41-3.47s0-.06,0-.09h0l0,0S275.8,123.35,275.82,123.4Zm4.6,7.61a1.26,1.26,0,0,0-.42-.52c0,.23.25.36.43.52Zm2.92-3.11-.16-.21h-.08l-.08.08a1.83,1.83,0,0,0,.32.14Zm1.25,2.68c.06-.27-.46-.32-.7-.47.07.22.4.34.7.47Zm4.87,2.18c0-.25-.4-.07-.58-.18C288.92,132.83,289.28,132.65,289.46,132.76Zm2.2-2.45c.44,0,.69.24,1.11.09.05-.13-.2-.15-.11-.3.94-.17,2.29.09,2.61-.47a.78.78,0,0,0,.52.08.7.7,0,0,1,.17-.09.59.59,0,0,0,.17-.25c.39.2.6-.06.89-.14a1.45,1.45,0,0,0,.18-.17.1.1,0,0,0-.09,0h0s-.06,0-.08,0a3.55,3.55,0,0,0-.31.23l.21-.18.09,0h0a12.39,12.39,0,0,0,4.8-8v0c0-.26.06-.52.08-.78,0-.05,0-.1,0-.14,0-.26,0-.53,0-.79v-.17c0-.25,0-.51,0-.76,0-.08,0-.15,0-.23,0-.33-.08-.68-.14-1a11.55,11.55,0,0,0-3.61-6.62c-.4.15,0-.14-.38,0a7.46,7.46,0,0,0-1.06-.89c-3.34-1.74-8.09-.66-10.69,1.34-.12,0-.14-.06-.15-.15-.51.93-1.67,1.22-2,2.31-.11,0,0-.23-.15-.23-.43.55-.53,1.11-1,1.72l0,0h.05s0,0,0,0a0,0,0,0,0,0,0h0a.14.14,0,0,1,0,.06,1.46,1.46,0,0,1-.05.2.08.08,0,0,0,0,0c-.18.52-.5,1.09-.66,1.66v0a1.59,1.59,0,0,0-.06.3,5.64,5.64,0,0,1,.22-1.64c.64-2.23,2.55-3.91,4.29-5.06.22.17,1.56-.57,2.26-1a6.59,6.59,0,0,1,2.64-1c-1.11-.2-2.1.5-2.94.52,0-.39.1-.33.23-.52a4.8,4.8,0,0,0-2,.74,7.18,7.18,0,0,1,2.71-1.34c-.17-.32-.57.17-.91.15,0-.19.3-.11.3-.3-.22,0-.23.17-.45.15.11-.29.52-.28.76-.44-3,.46-5.17,2.84-6.93,5,.07.15.3-.19.37-.29,0,.29-.84,1-1,1.63a18.88,18.88,0,0,1,3-3.72c.13.06,0,.14,0,.22.34.07.17-.37.45-.37-.09.51-.53.67-.68,1.12.32-.08.29-.51.75-.45-.09.44-.63.42-.6,1-.44,0-.59.26-.6.67-.64.06-1,1.38-1.51,2.16-.17,0-.08-.22-.22-.22-.32.32-.23.62-.38,1-.43-.26-.55,1.36-.9,2,.26-.31.1.53.07.74-.16,0,0-.26-.07-.37a.61.61,0,0,0-.15.52.12.12,0,0,1,.15.08c.23,0,0-.37.3-.3-.07.13-.1.44.07.22a17.88,17.88,0,0,0,.38,3.65,12.28,12.28,0,0,1-.53-1.86,5.84,5.84,0,0,0,1.73,4.54c0,.11-.06,0-.15,0,.08.24.35.3.46.52a1.29,1.29,0,0,1-1-.6c.3.92,1.46,1.64,2.26,2.31a3.52,3.52,0,0,1-1.08-.4l0,0,0,0-.12-.07h0v0a4.43,4.43,0,0,1-1.7-2c-.32.2,0,.34.07.58h0c.29,1,1.12,1,1.83,1.57a6.68,6.68,0,0,0,3.76,2.85,12.66,12.66,0,0,1-1.5-1.24,18.26,18.26,0,0,0,3.21,1.84c-.27.07,0,.17.18.16-.05.28-.34-.08-.4.15,0,0,0,.09,0,.17a.71.71,0,0,0,.55.08c-.09-.09-.4-.08-.32-.22.21.06,1.05.26.66.37.74,0,2.28.5,2.22,0Zm7-1.92a4.05,4.05,0,0,0-1.27,1.17l.14,0a7.23,7.23,0,0,0,1.13-1.15Zm-5.07,1.74c.11.3.49,0,.71.07-.09-.2-.48,0-.72-.07Zm0,1.16c-.36-.19-1,.12-1.51.06.36.22,1,0,1.51-.06Zm1-.42.19-.14c-.66.13-1.33.24-2,.36.58.14,1.43-.24,1.8-.22Zm-.32.23a3.34,3.34,0,0,1,1.22-.08l1.08-.76a12.41,12.41,0,0,1-1.23.35,1,1,0,0,0-.32.38c-.26-.16.21-.2.22-.36h0c-.28.15-.59.27-.86.43l.18-.15c-.16,0-.32.09-.25.18Zm6.16-3.46a14.78,14.78,0,0,1-4.64,3.43,2.5,2.5,0,0,1,.39.11A15.86,15.86,0,0,0,300.51,127.64Zm-1.28,5.51s-.1,0-.13,0Z"/><path id="Path_2916" data-name="Path 2916" class="cls-3" d="M330.9,128l-1.7-1.75h0l-.32-.34a9,9,0,1,1,0-10.49l2.86-3.12a13.13,13.13,0,1,0-1.8,18.48,13.26,13.26,0,0,0,1.83-1.84Z"/></g></svg>