<svg xmlns="http://www.w3.org/2000/svg" viewBox="0 0 444.4 625.51"><defs><style>.cls-1{fill:#1eadfe;}.cls-2{fill:#fd0;}.cls-3{fill:#fff;}.cls-4{fill:#30d9cb;}.cls-5{fill:#28347d;}.cls-6{fill:none;stroke:#28347d;stroke-linecap:round;stroke-linejoin:round;stroke-width:4.05px;}</style></defs><title>6-personaje-01</title><g id="chica"><path class="cls-1" d="M278.8,530.09c4.41,22,5.79,43,3.85,58.69,0,0-51.92,8.19-96.65,8.19s-95.79-8.19-95.79-8.19c-.18-1.26-.34-2.57-.49-3.93-2.07-18.32-1.17-38.35.1-47.56,4.52,2.71,45.53,1.57,62.62.93,15.5-.58,33.08-2.27,38-13.24,1.7-3.74,2.81-10.3,3.54-18,1,12.64,4,25.87,25.81,27S274.67,532.57,278.8,530.09Z"/><path class="cls-2" d="M181.43,434.2a4.47,4.47,0,1,1-4.46,4.48A4.48,4.48,0,0,1,181.43,434.2Z"/><path class="cls-2" d="M179.17,394.8a4.47,4.47,0,1,1-4.46,4.46A4.47,4.47,0,0,1,179.17,394.8Z"/><path class="cls-2" d="M175,355.38a4.47,4.47,0,1,1-4.46,4.47A4.47,4.47,0,0,1,175,355.38Z"/><path class="cls-2" d="M103.59,353.56c-1,20.59-7.94,97.77-9.52,120.66,3-14.16,6.61-29.23,9.39-39.76,4.75-18,6.84-46.65,3.51-65.6C106.09,363.78,104.89,358.55,103.59,353.56Zm66.93,6.29a4.47,4.47,0,1,0,4.46-4.47A4.47,4.47,0,0,0,170.52,359.85ZM177,438.68a4.47,4.47,0,1,0,4.46-4.48A4.46,4.46,0,0,0,177,438.68Zm-2.26-39.42a4.47,4.47,0,1,0,4.46-4.46A4.47,4.47,0,0,0,174.71,399.26Zm-84.89,138c-1.27,9.21-2.17,29.24-.1,47.56,0,0-7.43,3-20.54,3a84.38,84.38,0,0,1-22.76-3c-1-23.14,0-110.3,1.65-132.2s4.34-79.78,5.58-103.14C54.44,334.63,57,287.1,59,273a36.62,36.62,0,0,1,5.08-14.66c3-4.66,6.86-7.89,11.2-11l.06,0c6-3.43,15.62-6.47,25-10.38l-2.53,11.75h14.67L99.13,261.87s81.9,73.95,88.28,93.51c4.71,21.47,7.38,68.49,7.82,105.94.14,11.7.19,30.82-1.21,45.65-.73,7.71-1.84,14.27-3.54,18-5,11-22.54,12.66-38,13.24C135.35,538.86,94.34,540,89.82,537.29Z"/><path class="cls-3" d="M361.75,201.55c-2.76-.85-5.57,1.09-6.69,2.73-.32.47-.73,1.11-1.2,1.89-.35.57-.72,1.22-1.1,1.93,0,0,0,0,0,0A7,7,0,0,1,345.8,211c-1.89-.28-3.33-1.23-3.27-2.46.09-1.73,1.1-3.86,2.28-6.53a53,53,0,0,0,2.12-5.38,8.61,8.61,0,0,1,4.76-5c1.87-.68,8.47-3.36,11.13-3.64s4.29,2.28,5.61,5.86c.44,1.2,1.08,3.24,1.71,5.4,1.26,4.26,2.55,9,2.55,9-3.73-2.29-7.81-4.78-9.5-6A4.67,4.67,0,0,0,361.75,201.55Z"/><path class="cls-3" d="M352.75,208.12s0,0,0,0a17.88,17.88,0,0,0,1.1-1.93c.47-.78.88-1.42,1.2-1.89,1.12-1.64,3.93-3.58,6.69-2.73a4.67,4.67,0,0,1,1.44.73c1.69,1.21,5.77,3.7,9.5,6,3.29,2,6.32,3.88,7.19,4.55,1.85,1.44,4.33,4.75,4.33,7a7.09,7.09,0,0,1-.22,1.43c1.44,1.25,2.87,3,2.29,5.61a4.53,4.53,0,0,1-1.21,1.68h0a10.49,10.49,0,0,1,1.33,7c-.39,2.62-3.42,11-5.83,16.47-1.24,2.79-1.94,8-2.28,13.09a108.84,108.84,0,0,0-.17,12.22c-7-1-18.11-6.28-24.12-11.46,0-10.68-4.67-17.33-7.25-23.27a32.59,32.59,0,0,1-2-19A72.62,72.62,0,0,0,345.8,211,7,7,0,0,0,352.75,208.12Z"/><path class="cls-2" d="M378.11,277.34a14.68,14.68,0,0,0,2.1.17c2.45,0,3.81-.84,4.23-2.2-.54,3.11-1.05,21.59-1.06,22.23h0c-12.9,4-27-.31-33.14-8.44,0,0,1.45-23.17,1.45-25.51a20.69,20.69,0,0,0,2.3,2.28C360,271.06,371.14,276.34,378.11,277.34Z"/><path class="cls-2" d="M291.21,238.32c10.46,11.64,18.88,42.73,25.55,62.1,6.93,20.08,17.51,39.58,22.12,47.42.6-2.64,1.15-5.28,1.65-7.9,2.67-14.17,6.21-43.14,7.86-53.88a14.79,14.79,0,0,0,1.85,3.05c6.14,8.13,20.24,12.4,33.14,8.44h0c.6-.18,1.19-.38,1.79-.6.83,13.65-3.44,77.31-5.51,88.05s-6.61,28-9.37,32.94-7.16,8.81-14.18,8.68-29.5-13.5-43-28.67-40.5-55.71-46.33-67.87c-5.46,23.29-11.42,65.07-7.27,94.47,3.44,24.4,15.3,51.47,19.29,80.74.91,6.65,4.14,22.33,0,24.81s-37.2,5-59,3.86S195,519.61,194,507c1.4-14.83,1.35-34,1.21-45.65-.44-37.45-3.11-84.47-7.82-105.94a60.18,60.18,0,0,0-1.62-6.08c-.42-1.27-1-2.87-1.82-4.76h0c4-22.34,66.65-97.95,66.65-97.95l-16.26-6.85,14-6a51.91,51.91,0,0,0,10.49,2c7.55.57,23.34-.9,31.24,1.34h0C290.45,237.5,290.83,237.89,291.21,238.32Z"/><path class="cls-2" d="M220,212.2a35.44,35.44,0,0,0,5.17,7.58c6.61,7.26,15.38,11.64,23.13,13.95l-14,6,16.26,6.85S187.94,322.19,184,344.53c-.38-.91-.8-1.89-1.25-2.94,4.7-26.84,29.24-102,32.25-117.67A51,51,0,0,1,220,237.48c0-14.53-2.35-26.83-6.14-36C213.89,201.51,218.69,211,220,212.2Z"/><path class="cls-2" d="M182.72,341.59c.45,1.05.87,2,1.25,2.94h0c.78,1.89,1.4,3.49,1.82,4.76a60.18,60.18,0,0,1,1.62,6.08c-6.38-19.56-88.28-93.51-88.28-93.51l13.42-13.15H97.88L100.41,237a80.63,80.63,0,0,0,17-9.06A59.71,59.71,0,0,0,134.52,209c-2.74,7.36-4.81,23.79-.89,41.05a36.17,36.17,0,0,1,2-10.36h0C138.64,252.45,171.5,315.74,182.72,341.59Z"/><path class="cls-4" d="M163.57,230c4.7,6.63,9.07,12.66,12,16.58,3-4.55,8.48-13.38,14.12-22.73,4.92-5.91,16.82-14.35,25.25.06h0c-3,15.66-27.55,90.83-32.25,117.67-11.22-25.85-44.08-89.14-47.08-101.86h0C138,232.59,142.25,225.51,147,224c5.86-2,11.07-.76,14.64,3.24C162.25,228.14,162.91,229.08,163.57,230Z"/><path class="cls-4" d="M135.62,239.73a36.17,36.17,0,0,0-2,10.36c-3.92-17.26-1.85-33.69.89-41.05a50.47,50.47,0,0,0,5.43-15c2.22,4.93,12.24,19.79,21.64,33.13-3.57-4-8.78-5.21-14.64-3.24C142.25,225.51,138,232.59,135.62,239.73Z"/><path class="cls-4" d="M213.89,201.51c3.79,9.14,6.14,21.44,6.14,36A51,51,0,0,0,215,223.92h0c-8.43-14.41-20.33-6-25.25-.06,5.68-9.44,11.5-19.41,15-26h0a36.8,36.8,0,0,0,3-6.91A42.63,42.63,0,0,1,213.89,201.51Z"/><path class="cls-1" d="M213.08,179.41c-.34,7.58,1.27,21.81,6.95,32.79-1.34-1.21-6.14-10.69-6.14-10.69a42.63,42.63,0,0,0-6.16-10.63,36.8,36.8,0,0,1-3,6.91V181.41h0a55,55,0,0,0,9.46-14C213.66,171.65,213.24,175.7,213.08,179.41Z"/><path class="cls-3" d="M204.68,197.79h0c-3.46,6.64-9.28,16.61-15,26S178.57,242,175.6,246.58c-3-3.92-7.33-10-12-16.58a15.63,15.63,0,0,0-2-2.81c-9.4-13.34-19.42-28.2-21.64-33.13.06-.37.14-.74.2-1.12a146.72,146.72,0,0,0,1.48-20.84c2.46,5.07,15.21,15.85,25.13,20.92,8.84,4.52,19.44,2.46,23.19.81,3.07-1.36,9.17-6.21,14.73-12.42Z"/><path class="cls-3" d="M168.64,165.88c5.75,0,23.87-.33,29-.48v.22a71.54,71.54,0,0,1-7.77,5.89c-3.17,2-8.85,2.22-12.93,0A79,79,0,0,1,168.64,165.88Z"/><path class="cls-3" d="M197.59,165.4c-5.08.15-23.2.48-29,.48a79,79,0,0,0,8.25,5.63c4.08,2.22,9.76,2,12.93,0a71.54,71.54,0,0,0,7.77-5.89Zm18.24-54.34c1,9.79,1,19.16.34,34.66-.33,7.58-1.26,14.92-2,21.64a55,55,0,0,1-9.46,14h0c-5.56,6.21-11.66,11.06-14.73,12.42-3.75,1.65-14.35,3.71-23.19-.81-9.92-5.07-22.67-15.85-25.13-20.92.16-9,.06-18,.62-24.66,2.14-25.08,5.23-40.09,9.47-46.88C164.3,80.42,181,81.44,185.79,85.16c2.34-1.38,10.76-4.28,18.05,1.1S214.87,101.28,215.83,111.06Z"/><path class="cls-1" d="M100.41,237c-9.43,3.91-19.07,6.95-25,10.38l-.06,0a24.22,24.22,0,0,0-2.08,1.33c2.34-9.93,16.4-21.5,21.63-40.8,4.28-15.76,8.4-43.45,11.71-59.24,4.46-21.25,7.86-41,21.22-65.66C147.22,47.13,171.31,52.1,177.93,56c.48,1.91,1.93,6.86,3.46,12.18.61,2.15,1.23,4.35,1.81,6.44h0a102.89,102.89,0,0,1,2.58,10.58c-4.78-3.72-21.49-4.74-34.07,15.4-4.24,6.79-7.33,21.8-9.47,46.88-.56,6.63-.46,15.67-.62,24.66a146.72,146.72,0,0,1-1.48,20.84c-.06.38-.14.75-.2,1.12a50.47,50.47,0,0,1-5.43,15,59.71,59.71,0,0,1-17.07,18.87A80.63,80.63,0,0,1,100.41,237Z"/><path class="cls-1" d="M185.79,85.16a102.89,102.89,0,0,0-2.58-10.58h0c-.58-2.09-1.2-4.29-1.81-6.44-1.53-5.32-3-10.27-3.46-12.18,4.26-2.07,12.38-3.41,18.75.82,9.79,6.47,13.71,15.87,17.88,24.55a148.9,148.9,0,0,1,10.64,34c1.75,9.76,5.23,31.41,7,43.53s5.11,31.43,9.1,44.24,8.82,20.12,17.37,22.88,25.07.68,34.85,12.8a9.19,9.19,0,0,0-3.48-1.68c-7.9-2.24-23.69-.77-31.24-1.34a51.91,51.91,0,0,1-10.49-2c-7.75-2.31-16.52-6.69-23.13-13.95A35.44,35.44,0,0,1,220,212.2c-5.68-11-7.29-25.21-6.95-32.79.16-3.71.58-7.76,1.06-12,.77-6.72,1.7-14.06,2-21.64.7-15.5.63-24.87-.34-34.66s-4.69-19.43-12-24.8S188.13,83.78,185.79,85.16Z"/><path class="cls-2" d="M379.79,266.25c1.27,1.08,4.94,6,4.65,9.06s-2.69,2.11-4.23,2.2a4.73,4.73,0,0,1-2.1-.17l.41-10.08Z"/><path class="cls-5" d="M186.74,122.27c1.22,3.69,2.28,7.42,3.31,11.15l1.49,5.6,1.42,5.62,1.37,5.61.18.66,0,.16,0,.16,0,.27a2.45,2.45,0,0,1-.13,1.15,2.79,2.79,0,0,1-1.17,1.34,4.56,4.56,0,0,1-1,.45,12.11,12.11,0,0,1-3.27.5,33.78,33.78,0,0,1-6-.37,27.73,27.73,0,0,1-5.81-1.39.52.52,0,0,1,.19-1h.06c1.85,0,3.82-.07,5.71-.12s3.8-.12,5.61-.31a12.59,12.59,0,0,0,2.44-.44.92.92,0,0,0,.3-.14c.09,0-.1,0-.19.3a1,1,0,0,0-.07.45l0,.08a.1.1,0,0,0,0,0V152l-.05-.19-.19-.74c-.44-1.91-.86-3.8-1.27-5.69l-1.14-5.69-1-5.72c-.65-3.81-1.26-7.64-1.71-11.5a.42.42,0,0,1,.37-.46A.41.41,0,0,1,186.74,122.27Z"/><path class="cls-5" d="M152.49,118.3a29.54,29.54,0,0,1,11-3.73,37.37,37.37,0,0,1,5.77-.44,30.64,30.64,0,0,1,5.74.51,2.54,2.54,0,0,1-.52,5h0c-1.78,0-3.54-.15-5.3-.23s-3.53-.18-5.29-.18a47.76,47.76,0,0,0-10.52,1h0a1.09,1.09,0,0,1-1.3-.83A1.1,1.1,0,0,1,152.49,118.3Z"/><path class="cls-5" d="M212.58,119c-1.65.13-3.24.16-4.81.19l-4.65.08c-1.53,0-3,.07-4.54.1s-3,.1-4.5.07H194a2.31,2.31,0,0,1-.58-4.53,19.51,19.51,0,0,1,5-.67,29.83,29.83,0,0,1,5,.38,31.86,31.86,0,0,1,4.83,1.2,23,23,0,0,1,4.56,2,.6.6,0,0,1,.2.84.59.59,0,0,1-.47.29Z"/><path class="cls-5" d="M167.21,165.38A130.47,130.47,0,0,1,183,164.19c2.63-.05,5.27,0,7.91.06s5.29.29,7.91.64h0a.47.47,0,0,1,0,.93,65.51,65.51,0,0,1-7.92,1c-2.63.22-5.27.32-7.91.36s-5.28,0-7.93-.1a67.17,67.17,0,0,1-7.94-.74.5.5,0,0,1-.41-.57.5.5,0,0,1,.42-.41Z"/><path class="cls-5" d="M169,165.49c2.56,1.15,5,2.51,7.37,3.72.59.29,1.2.62,1.73.83a11.66,11.66,0,0,0,1.67.55,15.67,15.67,0,0,0,7.12.14,10.23,10.23,0,0,0,1.62-.52,17.91,17.91,0,0,0,1.66-.86c2.33-1.3,4.67-2.79,7.14-4.11h0a.52.52,0,0,1,.66.77,36.08,36.08,0,0,1-6,6.09,15.92,15.92,0,0,1-1.87,1.32,11.29,11.29,0,0,1-2.24,1,15.38,15.38,0,0,1-9.27-.09,12.93,12.93,0,0,1-2.19-1,16.81,16.81,0,0,1-1.87-1.23,35,35,0,0,1-6.21-5.82.51.51,0,0,1,.07-.72.53.53,0,0,1,.54-.08Z"/><path class="cls-6" d="M203,128.62c0,1.23-.48,2.22-1.08,2.22s-1.08-1-1.08-2.22.48-2.21,1.08-2.21S203,127.4,203,128.62Z"/><path class="cls-6" d="M164.45,128.62c0,1.23-.48,2.22-1.08,2.22s-1.08-1-1.08-2.22.48-2.21,1.08-2.21S164.45,127.4,164.45,128.62Z"/><path class="cls-5" d="M267.41,329.76c1.41,2.45,2.86,4.9,4.41,7.3s3.06,4.81,4.63,7.2c3.09,4.79,6.27,9.54,9.42,14.31,6.32,9.52,12.43,19.21,19.37,28.28a153.29,153.29,0,0,0,11,13,113.32,113.32,0,0,0,12.94,11A135.81,135.81,0,0,0,343.5,420a72.38,72.38,0,0,0,7.55,3.62c.64.25,1.29.45,1.93.68s1.26.32,1.89.5l.87.1.44.05h.49a15.52,15.52,0,0,0,1.93-.14,12.41,12.41,0,0,0,6.79-3.19,17.89,17.89,0,0,0,4.38-6.46c1-2.54,1.9-5.26,2.72-8s1.58-5.45,2.3-8.2,1.4-5.52,2-8.29,1.27-5.59,1.65-8.3c.77-5.59,1.28-11.31,1.79-17q1.5-17.08,2.51-34.22.54-8.56.86-17.13c.2-5.69.41-11.45.19-17v0l1.82,1.19a32.74,32.74,0,0,1-10.56,2.32,33.72,33.72,0,0,1-10.77-1.1,29.17,29.17,0,0,1-9.81-4.62,19.28,19.28,0,0,1-6.68-8.48h0l1.17-.17c-1,8.79-1.94,17.61-3.06,26.4s-2.2,17.59-3.74,26.37c-.76,4.41-1.76,8.75-2.74,13.07s-2,8.63-2.89,12.93A122.63,122.63,0,0,0,333.43,391a.34.34,0,0,1-.68.05c-1.48-8.85-.59-18,1-26.71.81-4.39,1.81-8.72,2.8-13s1.94-8.61,2.76-12.93,1.48-8.69,2.19-13.06l2-13.12c.66-4.38,1.31-8.76,2-13.13s1.38-8.76,2.2-13.13a.61.61,0,0,1,.72-.49.59.59,0,0,1,.41.27l0,.06h0a20.93,20.93,0,0,0,7,6.89,30.63,30.63,0,0,0,9.12,3.76,37.19,37.19,0,0,0,9.86,1,38.35,38.35,0,0,0,9.78-1.74l.12,0a1.29,1.29,0,0,1,1.63.85,1.19,1.19,0,0,1,.06.37v0c.23,5.86,0,11.56-.2,17.3s-.49,11.46-.8,17.19q-.9,17.16-2.25,34.31c-.47,5.73-.92,11.42-1.68,17.18-.4,3-1,5.73-1.64,8.56s-1.3,5.61-2,8.4-1.46,5.57-2.3,8.34-1.71,5.52-2.85,8.28a21.18,21.18,0,0,1-5.2,7.62,15.69,15.69,0,0,1-8.53,4,15,15,0,0,1-4.82-.05c-.75-.21-1.53-.38-2.24-.63s-1.43-.5-2.12-.78a74.75,74.75,0,0,1-7.86-3.92,123.67,123.67,0,0,1-14.34-9.78,117.08,117.08,0,0,1-12.85-11.64,152.72,152.72,0,0,1-11-13.34c-13.88-18.25-27.74-36.65-37.71-57.54a.7.7,0,0,1,.33-.94.71.71,0,0,1,.92.28Z"/><path class="cls-5" d="M374,217.17a11.91,11.91,0,0,1-2.93,0c-1-.1-1.9-.23-2.84-.37-1.88-.3-3.74-.63-5.59-.86a13.6,13.6,0,0,0-2.68-.15,6.27,6.27,0,0,0-2.43.51,3.46,3.46,0,0,0-1.62,1.5,11.07,11.07,0,0,0-.87,2.41c-.49,1.77-.91,3.61-1.26,5.44s-.74,3.69-.91,5.44a5.37,5.37,0,0,0,0,1.2,9.37,9.37,0,0,0,.22,1.25,17.12,17.12,0,0,0,.82,2.51,11,11,0,0,0,1.24,2.27,3.58,3.58,0,0,0,1.84,1.44h0a.45.45,0,0,1-.09.89,4.15,4.15,0,0,1-3-1.27,9.92,9.92,0,0,1-1.84-2.48A14.11,14.11,0,0,1,351,234a12.18,12.18,0,0,1-.33-1.53,8.15,8.15,0,0,1-.05-1.63,56.91,56.91,0,0,1,2.4-11.33,11.82,11.82,0,0,1,1.2-2.86,5.42,5.42,0,0,1,2.6-2.15,8.25,8.25,0,0,1,3.12-.52,15.18,15.18,0,0,1,3,.33c1.89.38,3.72.85,5.56,1.28.92.22,1.83.45,2.75.64a11.73,11.73,0,0,0,2.71.33h0a.28.28,0,0,1,.3.27A.29.29,0,0,1,374,217.17Z"/><path class="cls-5" d="M169.83,361l-3.05-.45a.71.71,0,0,1,0-1.4l3.05-.45a1.16,1.16,0,0,1,.33,2.3Z"/><path class="cls-5" d="M180.35,358.7l2.82.45a.71.71,0,0,1,0,1.4l-2.82.45a1.16,1.16,0,0,1-.36-2.3Z"/><path class="cls-5" d="M174,400.6l-3.05-.74a.62.62,0,0,1-.45-.74.59.59,0,0,1,.45-.45l3.05-.75a1.38,1.38,0,1,1,.65,2.68A1.3,1.3,0,0,1,174,400.6Z"/><path class="cls-5" d="M183.64,398.22l2.83.37a.68.68,0,0,1,0,1.34l-2.83.37a1,1,0,1,1-.27-2.08A1.22,1.22,0,0,1,183.64,398.22Z"/><path class="cls-5" d="M176.28,439.91l-3.05-.52a.72.72,0,0,1,0-1.43l3.05-.52a1.25,1.25,0,1,1,.42,2.47A1,1,0,0,1,176.28,439.91Z"/><path class="cls-5" d="M185.9,437.66l2.83.52a.5.5,0,0,1,.4.59.51.51,0,0,1-.4.4l-2.83.52a1,1,0,1,1-.37-2A1.15,1.15,0,0,1,185.9,437.66Z"/><path class="cls-5" d="M142.25,171.79a24.09,24.09,0,0,0,3.58,4.32c1.36,1.34,2.79,2.62,4.27,3.85a97.18,97.18,0,0,0,9.24,6.93c1.6,1.05,3.22,2.08,4.88,3a39.24,39.24,0,0,0,5,2.53,27.3,27.3,0,0,0,10.83,1.69,32.88,32.88,0,0,0,5.52-.65,24.32,24.32,0,0,0,2.64-.71,11.44,11.44,0,0,0,2.36-1.08,38.13,38.13,0,0,0,4.56-3.25c1.48-1.19,2.92-2.46,4.33-3.75a78.67,78.67,0,0,0,7.78-8.44,50,50,0,0,0,6.17-9.58v0a.94.94,0,0,1,1.72.76c-3,7.49-8.08,13.78-13.65,19.4-1.42,1.38-2.86,2.76-4.41,4a40.24,40.24,0,0,1-4.91,3.59,13.73,13.73,0,0,1-2.93,1.37,28,28,0,0,1-3,.82,36.44,36.44,0,0,1-6.07.72,29.9,29.9,0,0,1-12.09-2,42.55,42.55,0,0,1-5.36-2.86c-.86-.5-1.68-1.06-2.52-1.59s-1.63-1.12-2.43-1.71a102.85,102.85,0,0,1-9.15-7.51q-2.16-2-4.14-4.26a22.45,22.45,0,0,1-3.48-5,.7.7,0,0,1,.33-.92.68.68,0,0,1,.89.27Z"/><path class="cls-5" d="M178.56,55.8a143.52,143.52,0,0,1,4.76,14.35c.67,2.44,1.3,4.88,1.84,7.36a44.65,44.65,0,0,1,1.15,7.59.52.52,0,0,1-1,.17l0-.06c-.67-2.33-1.51-4.74-2.26-7.13s-1.5-4.8-2.21-7.21-1.37-4.85-2-7.3-1.18-4.9-1.55-7.44a.67.67,0,0,1,.56-.76.69.69,0,0,1,.72.42Z"/><path class="cls-5" d="M183,75.18a34.87,34.87,0,0,0-20.78.64,31.5,31.5,0,0,0-9,5.13,34.2,34.2,0,0,0-3.73,3.69l-.87,1-.43.49-.38.54-1.52,2.17a17.27,17.27,0,0,0-1.38,2.26l-1.31,2.31-2.33,4.88-2.08,5c-.61,1.7-1.27,3.38-1.82,5.09a129.55,129.55,0,0,0-5,21.09c-1.09,7.18-1.7,14.44-2.51,21.74-.39,3.64-.92,7.3-1.55,10.92s-1.29,7.2-2,10.8A166.76,166.76,0,0,1,121,194.29a68.32,68.32,0,0,1-4.26,10.19,60,60,0,0,1-6,9.26.26.26,0,0,1-.37,0,.27.27,0,0,1-.06-.37,64.66,64.66,0,0,0,9.35-19.55c1-3.48,1.89-7,2.63-10.58s1.43-7.14,2-10.73,1.2-7.2,1.77-10.81,1-7.18,1.36-10.81c.72-7.25,1.23-14.57,2.23-21.87a125.85,125.85,0,0,1,4.8-21.62c.57-1.76,1.24-3.49,1.85-5.24l2.11-5.14,2.38-5,1.39-2.47a20,20,0,0,1,1.48-2.41l1.64-2.31.41-.58.47-.54.95-1.07a36.54,36.54,0,0,1,4.07-4,34.34,34.34,0,0,1,10-5.6c.91-.28,1.82-.57,2.75-.81l2.81-.57,2.84-.27c1,0,1.9,0,2.85,0a27.87,27.87,0,0,1,11,2.59.64.64,0,0,1,.31.85.65.65,0,0,1-.75.35Z"/><path class="cls-5" d="M180.66,67.47c.24-.24.48-.48.73-.71a7.9,7.9,0,0,1,.8-.53,8.83,8.83,0,0,1,1.68-.79,15.49,15.49,0,0,1,3.46-.74,20.19,20.19,0,0,1,6.89.6c.55.16,1.11.29,1.66.49l1.61.61c.52.25,1,.52,1.54.79s1,.61,1.46.92a17.14,17.14,0,0,1,4.74,4.9.52.52,0,0,1-.83.61h0a18.82,18.82,0,0,0-4.85-4,19.36,19.36,0,0,0-5.82-2.15,23.27,23.27,0,0,0-6.17-.33,17,17,0,0,0-3,.49,8,8,0,0,0-2.47,1.17l-.12.11a1,1,0,0,1-1.33-1.45Z"/><path class="cls-5" d="M121.57,133.85c-1.37,9.48-3.13,18.89-5,28.27s-3.78,18.74-5.73,28.11a178.92,178.92,0,0,1-8.15,27.69A97.23,97.23,0,0,1,96.47,231a51.52,51.52,0,0,1-8.82,11.54.62.62,0,0,1-.88-.86h0A54.73,54.73,0,0,0,94.67,230a108.66,108.66,0,0,0,5.68-13,214.74,214.74,0,0,0,7.78-27.37l3.07-14,3.21-14,3.29-14c1.15-4.65,2.24-9.3,3.34-13.95a.27.27,0,0,1,.32-.2A.27.27,0,0,1,121.57,133.85Z"/><path class="cls-5" d="M226,115.2a68,68,0,0,1,.6,7.29c.12,2.41.19,4.81.25,7.21.11,4.81.14,9.62.17,14.42s0,9.61-.06,14.42c0,2.39-.06,4.82-.15,7.22s-.12,4.78-.12,7.16a110.06,110.06,0,0,0,3.22,28.28A58.39,58.39,0,0,0,235,214.43a44.76,44.76,0,0,0,3.85,6,42.73,42.73,0,0,0,4.84,5.23h0a.26.26,0,0,1,0,.37.26.26,0,0,1-.36,0,38.32,38.32,0,0,1-5.22-5,45,45,0,0,1-4.23-5.93,59.89,59.89,0,0,1-5.7-13.39,68.69,68.69,0,0,1-1.72-7.07c-.47-2.38-.85-4.78-1.14-7.18a123.2,123.2,0,0,1-.9-14.49c0-2.41,0-4.83.1-7.24s.11-4.77.13-7.18l.12-14.39c0-4.8,0-9.6,0-14.39,0-2.4,0-4.79-.06-7.18s-.08-4.82-.34-7.08v-.06a.79.79,0,0,1,.69-.87A.8.8,0,0,1,226,115.2Z"/><path class="cls-5" d="M140.54,193.79c1.28,2.23,2.78,4.42,4.27,6.58l4.5,6.51,9.05,13c3,4.36,6,8.71,8.94,13.1s5.87,8.8,8.75,13.25l-.93,0h0c2.65-4.66,5.3-9.33,8-14l8.11-13.88,8.14-13.85c1.37-2.29,2.71-4.6,4-6.91.68-1.15,1.31-2.31,2-3.47l.88-1.76c.33-.59.49-1.13.75-1.71l.11-.23a.67.67,0,0,1,.9-.33.68.68,0,0,1,.29.24h0a34.15,34.15,0,0,1,3.75,5c.58.87,1,1.81,1.57,2.71S214.55,200,215,201a67.13,67.13,0,0,1,3.91,11.85,89.56,89.56,0,0,1,2,12.27,41.25,41.25,0,0,1-.47,12.39l0,.15a.35.35,0,0,1-.43.27.34.34,0,0,1-.28-.34h0a71.5,71.5,0,0,0-4.12-10.46,30.23,30.23,0,0,0-2.88-4.66,14.66,14.66,0,0,0-3.78-3.64,9.75,9.75,0,0,0-4.72-1.6,12.14,12.14,0,0,0-5,.91,21,21,0,0,0-4.67,2.63,28.26,28.26,0,0,0-4.11,3.63l0,0a.83.83,0,0,1-1.26-1.08,23.35,23.35,0,0,1,9.16-7.41,14.12,14.12,0,0,1,6.07-1.17,12.07,12.07,0,0,1,5.92,2.06,16.76,16.76,0,0,1,4.24,4.33,27.08,27.08,0,0,1,2.8,5.18,50,50,0,0,1,1.91,5.47l.67,2.8c.2.94.38,1.88.55,2.81h0l-.74.09a102.18,102.18,0,0,1-1.67-12.1,108.48,108.48,0,0,0-1.89-11.93,82,82,0,0,0-3.38-11.53,47.25,47.25,0,0,0-5.55-10.58h0l1.29-.32a19.24,19.24,0,0,1-.58,2.08l-.74,1.92c-.55,1.24-1,2.52-1.65,3.72-1.15,2.45-2.4,4.84-3.66,7.22q-3.84,7.09-8.05,14t-8.56,13.65c-2.94,4.5-6,9-9.15,13.29h0a.54.54,0,0,1-.73.22l-.14-.12-.06-.07c-3.48-4-6.79-8.17-10-12.4s-6.29-8.53-9.33-12.88-6-8.76-8.78-13.27a105.17,105.17,0,0,1-7.71-14,.66.66,0,0,1,1.18-.58Z"/><path class="cls-5" d="M162.45,230.75a14.31,14.31,0,0,0-3.74-4.17,10.71,10.71,0,0,0-5.05-1.93,13.7,13.7,0,0,0-5.59.51c-.23.07-.47.13-.69.21l-.58.25a5,5,0,0,0-1.16.62,7.13,7.13,0,0,0-1.1.84,8,8,0,0,0-1,1,24.91,24.91,0,0,0-3.52,4.78,43.83,43.83,0,0,0-2.7,5.45,45,45,0,0,0-2,5.8,32.39,32.39,0,0,0-1.08,6h0v0a.58.58,0,0,1-.65.52.57.57,0,0,1-.5-.42c-.49-1.67-.95-3.36-1.3-5.08-.19-.85-.35-1.71-.49-2.57s-.31-1.73-.41-2.6a72.08,72.08,0,0,1-.65-10.49A69.53,69.53,0,0,1,131,219q.41-2.61,1-5.18a37.79,37.79,0,0,1,1.67-5.05.83.83,0,0,1,1.57.56v0a59.36,59.36,0,0,0-1.93,10c-.37,3.38-.6,6.79-.64,10.2s.06,6.82.33,10.23c0,.86.14,1.71.21,2.56s.16,1.7.28,2.55c.16,1.71.45,3.4.66,5.11l-1.16.13h0a30.15,30.15,0,0,1,.58-6.37,42.23,42.23,0,0,1,1.66-6.17,39.36,39.36,0,0,1,2.53-5.91,26.92,26.92,0,0,1,3.68-5.43,10.35,10.35,0,0,1,1.18-1.21,9.73,9.73,0,0,1,1.35-1.11,7.21,7.21,0,0,1,1.55-.92l.85-.39c.27-.1.54-.17.81-.25a16.75,16.75,0,0,1,6.78-.71,13.11,13.11,0,0,1,6.47,2.56,15.47,15.47,0,0,1,4.33,5.28,1.37,1.37,0,0,1-.59,1.82,1.34,1.34,0,0,1-1.76-.5Z"/><path class="cls-5" d="M205.78,181.4c.16,1.37.22,2.73.28,4.1s0,2.73,0,4.1-.07,2.73-.16,4.1-.17,2.73-.32,4.1a.91.91,0,0,1-1,.8.92.92,0,0,1-.81-.8c-.15-1.37-.25-2.73-.32-4.1s-.13-2.73-.15-4.1,0-2.73,0-4.1.11-2.73.27-4.1a1.12,1.12,0,0,1,1.25-1A1.1,1.1,0,0,1,205.78,181.4Z"/><path class="cls-5" d="M136.09,239.63c1,3,2.26,6,3.57,8.89s2.69,5.84,4.09,8.74c2.78,5.81,5.65,11.57,8.47,17.37l17.1,34.7c5.61,11.63,11.27,23.21,16.28,35.21.58,1.54,1.18,3.08,1.71,4.64s1,3.19,1.27,4.8c.74,3.19,1.29,6.4,1.79,9.61,1,6.42,1.66,12.86,2.28,19.29,1.17,12.88,1.95,25.78,2.49,38.68.25,6.45.49,12.9.68,19.35s.3,12.91.43,19.36c.21,12.91.22,25.83-.45,38.77a145.12,145.12,0,0,1-2.05,19.4,47.52,47.52,0,0,1-1.18,4.85c-.31.8-.57,1.62-.92,2.41a23.64,23.64,0,0,1-1.32,2.3,20.11,20.11,0,0,1-8,6.5c-6.14,2.93-12.75,4-19.22,4.64s-13,.82-19.42,1.06-12.91.39-19.37.5-12.93.16-19.42,0c-3.25-.09-6.49-.21-9.78-.52a27.27,27.27,0,0,1-5.16-.89,4.46,4.46,0,0,1-.81-.33,3.61,3.61,0,0,1-.85-.57A5.45,5.45,0,0,1,87.21,537a10.85,10.85,0,0,1-1-2.72,43.48,43.48,0,0,1-.72-10.07c.07-3.29.31-6.54.6-9.77s.66-6.46,1.06-9.68.81-6.43,1.35-9.63c1-6.41,2.29-12.76,3.62-19.09q4-19,8.93-37.72a169.07,169.07,0,0,0,5.88-37.88c.6-12.81.25-25.64-2.6-38.12-1.28-6.28-2.92-12.49-4.65-18.68-.87-3.1-1.81-6.17-2.79-9.23-.49-1.53-1-3.06-1.52-4.57a46,46,0,0,0-1.73-4.41l0-.06a.49.49,0,0,1,.23-.65.51.51,0,0,1,.64.19,37.61,37.61,0,0,1,2.12,4.46c.63,1.49,1.23,3,1.81,4.51q1.71,4.55,3.22,9.16c2,6.15,3.75,12.4,5.24,18.72A113.23,113.23,0,0,1,109.72,381a178.47,178.47,0,0,1,0,19.49c-.35,6.48-1,13-1.95,19.38-.51,3.21-1,6.41-1.75,9.59s-1.53,6.35-2.31,9.45Q99,457.69,95.15,476.62c-1.27,6.3-2.46,12.63-3.42,19-.5,3.16-.87,6.33-1.25,9.53s-.7,6.39-1,9.57-.46,6.38-.5,9.54a41.7,41.7,0,0,0,.65,9.19,7.93,7.93,0,0,0,.64,1.81,2,2,0,0,0,.36.48s0,.07.15.09a1.53,1.53,0,0,0,.31.12,24,24,0,0,0,4.37.71c3.13.29,6.33.4,9.53.49,12.82.27,25.72.06,38.59-.28l9.66-.3c3.2-.11,6.39-.27,9.56-.55,6.31-.58,12.69-1.52,18.27-4.11a17.41,17.41,0,0,0,7-5.45c1.7-2.32,2.43-5.44,3.1-8.51a142.59,142.59,0,0,0,2.27-19c.8-12.83.86-25.72.76-38.6-.32-25.77-1.6-51.55-4.18-77.16-.69-6.39-1.44-12.78-2.47-19.1-.52-3.16-1.08-6.31-1.82-9.39-.31-1.57-.82-3-1.24-4.55s-1.09-2.94-1.67-4.42c-2.45-5.89-5.23-11.72-8-17.54s-5.55-11.62-8.37-17.42c-5.57-11.63-11.22-23.23-16.63-35-2.73-5.85-5.39-11.73-7.92-17.68l-1.9-4.46-1.79-4.51a78.69,78.69,0,0,1-3.05-9.28.47.47,0,0,1,.91-.26Z"/><path class="cls-5" d="M215.47,224c-.94,5.06-2.28,10-3.53,14.9l-4,14.74-8.14,29.41-2,7.37-2,7.34c-1.37,4.9-2.83,9.77-4.25,14.64s-2.88,9.74-4.26,14.62-2.75,9.76-4,14.68v0a.53.53,0,0,1-1-.2,247.53,247.53,0,0,1,6.09-30c1.26-4.94,2.58-9.86,4-14.75l2.2-7.31,2.29-7.28,9.12-29.13,4.47-14.58c1.42-4.88,3-9.74,4.07-14.66h0a.51.51,0,0,1,1,.2Z"/><path class="cls-5" d="M64.93,257.8a75,75,0,0,1,5.91,9.69q2.63,5,4.89,10.14c1.53,3.43,3,6.91,4.21,10.45a72.28,72.28,0,0,1,3.13,10.84.36.36,0,0,1-.69.18h0c-1.22-3.51-2.68-6.92-4.2-10.31S75,282.06,73.4,278.72s-3.33-6.65-5-10l-2.53-4.95c-.85-1.64-1.7-3.31-2.6-4.84l0-.05a1,1,0,0,1,1.7-1.12Z"/><path class="cls-5" d="M101.18,237.14a35,35,0,0,1-.78,6c-.19,1-.44,2-.72,2.92a20.38,20.38,0,0,1-1.05,2.85l-.75-.93h0a21.6,21.6,0,0,1,3.67-.71c1.22-.14,2.45-.22,3.67-.24a23.8,23.8,0,0,1,3.67.17,14.22,14.22,0,0,1,3.67.92l.45.2a.46.46,0,0,1,.25.61.43.43,0,0,1-.27.26h0a28.53,28.53,0,0,1-2.82,3.84,45.5,45.5,0,0,1-3.21,3.44,38.67,38.67,0,0,1-3.53,3.11,24.47,24.47,0,0,1-4,2.65v-.67h0a266.37,266.37,0,0,1,24.58,21c7.82,7.4,15.58,14.87,23.17,22.52s15,15.47,22.21,23.52c3.6,4,7.07,8.17,10.36,12.48q2.49,3.22,4.74,6.64c.73,1.16,1.46,2.31,2.09,3.55.31.62.64,1.23.93,1.87l.76,2a.9.9,0,0,1-1.69.64h0l0-.08a34.19,34.19,0,0,0-3.89-6.74c-1.54-2.15-3.17-4.26-4.87-6.31-3.41-4.11-7-8.09-10.62-12-7.27-7.88-14.89-15.44-22.5-23s-15.35-15-23.14-22.42S106,270.26,98.81,262.22h0a.32.32,0,0,1-.15-.41v0l.13-.24a25.19,25.19,0,0,1,2.73-3.93,41.92,41.92,0,0,1,3.18-3.47q1.68-1.65,3.51-3.14a28.66,28.66,0,0,1,3.9-2.74h0l.44,1.07a14.66,14.66,0,0,1-3.67.93,23.79,23.79,0,0,1-3.67.16,32.3,32.3,0,0,1-3.67-.24,21.6,21.6,0,0,1-3.67-.71h0a.6.6,0,0,1-.72-.45.5.5,0,0,1,0-.12v-.36a20.16,20.16,0,0,1,.21-3c.14-1,.32-2,.55-3a34.07,34.07,0,0,1,1.75-5.76.79.79,0,0,1,1-.43A.81.81,0,0,1,101.18,237.14Z"/><path class="cls-5" d="M248.58,234.3a22.73,22.73,0,0,1-3.26,2c-1.12.6-2.28,1.11-3.45,1.6a51.49,51.49,0,0,1-7.19,2.53V239h0a70.38,70.38,0,0,1,8.35,2.9,52.57,52.57,0,0,1,7.93,3.91l.23.14a.73.73,0,0,1,.22,1,.51.51,0,0,1-.13.16h0c-5.88,8-11.95,15.82-17.94,23.71s-11.82,15.89-17.63,23.9S204.18,310.8,198.76,319c-1.37,2-2.7,4.12-4,6.2s-2.6,4.17-3.84,6.29c-2.41,4.25-4.8,8.58-6.08,13.16l0,.05a.87.87,0,0,1-1.07.61.89.89,0,0,1-.64-1,34.48,34.48,0,0,1,2.07-7.38c.44-1.19,1-2.34,1.45-3.5l1.64-3.4c1.13-2.24,2.3-4.45,3.53-6.63s2.51-4.32,3.83-6.44q3.94-6.36,8.21-12.5c2.83-4.09,5.69-8.16,8.66-12.15,5.88-8,12.06-15.81,18.26-23.57s12.51-15.43,19.23-22.76h0l.32,1.3a52.16,52.16,0,0,1-8.34-2.93,72,72,0,0,1-7.91-3.95h0a.73.73,0,0,1-.53-.89.71.71,0,0,1,.32-.45l.21-.13a52.25,52.25,0,0,1,6.78-3.48c1.16-.5,2.33-1,3.54-1.39a22.94,22.94,0,0,1,3.73-1,.64.64,0,0,1,.72.54A.62.62,0,0,1,248.58,234.3Z"/><path class="cls-5" d="M292.36,239a105.25,105.25,0,0,0-4.44,11.32c-1.34,3.9-2.65,7.82-3.85,11.78-.59,2-1.17,4-1.72,6s-1.14,4-1.66,6c-1.05,4-2.07,8-3,12.09a.54.54,0,0,1-1.06-.18c.49-4.15,1.14-8.29,1.93-12.39.39-2.06.82-4.11,1.25-6.15s1-4.08,1.47-6.1c1-4.06,2.14-8.11,3.5-12.09a53.67,53.67,0,0,1,5.28-11.64,1.36,1.36,0,0,1,1.87-.4,1.35,1.35,0,0,1,.48,1.73Z"/><path class="cls-5" d="M72.75,249.41c0-.37-.06-.8,0-1.3a5.34,5.34,0,0,1,.25-1.43c.26-.68.5-1.22.75-1.83.55-1.16,1.13-2.31,1.78-3.39,1.27-2.19,2.69-4.27,4.09-6.33,2.81-4.12,5.62-8.2,8-12.52a65.85,65.85,0,0,0,5.78-13.5c1.37-4.71,2.38-9.6,3.4-14.46,2-9.74,3.66-19.56,5.4-29.38.87-4.91,1.74-9.82,2.72-14.73l3-14.66a226,226,0,0,1,7.83-29c1.66-4.74,3.52-9.42,5.64-14,.5-1.15,1-2.28,1.6-3.4s1.08-2.27,1.68-3.38l1.74-3.34c.6-1.1,1.27-2.18,1.9-3.27l1.93-3.27c.7-1,1.45-2.08,2.17-3.12S133.79,71,134.61,70l2.46-2.92c.42-.47.79-1,1.26-1.43l1.36-1.35L141.06,63a14.48,14.48,0,0,1,1.41-1.3l3-2.4c1-.79,2.15-1.42,3.22-2.13a34.18,34.18,0,0,1,14.59-4.93c.32,0,.64-.07,1-.09h2.92c.65,0,1.29.12,1.94.18a14.14,14.14,0,0,1,1.92.29,20.61,20.61,0,0,1,7.25,2.73l-.65,0h0a21,21,0,0,1,15.51-1.55,16.6,16.6,0,0,1,3.73,1.66c.61.33,1.11.73,1.66,1.09s1.06.77,1.57,1.19a36,36,0,0,1,5.59,5.52,64.51,64.51,0,0,1,8,13.27c1.09,2.31,2.2,4.56,3.24,6.94s1.94,4.74,2.81,7.15c1.73,4.81,3.19,9.71,4.45,14.66.62,2.48,1.19,5,1.68,7.48s.84,5,1.24,7.53l4.67,30.1,1.19,7.52,1.14,7.51q1.19,7.5,2.61,15c.94,5,2,9.92,3.28,14.81a102.9,102.9,0,0,0,4.69,14.32c2,4.56,4.48,9,8.2,12a18.73,18.73,0,0,0,6.26,3.38,46.19,46.19,0,0,0,7.26,1.44c5,.69,10.16,1.36,15.05,3.19a29,29,0,0,1,6.93,3.56l1.56,1.18c.5.42,1,.88,1.44,1.32l.71.67.63.74,1.25,1.49h0a.49.49,0,0,1-.06.7.51.51,0,0,1-.62,0l0,0a9.17,9.17,0,0,0-3.08-1.38,25.22,25.22,0,0,0-3.47-.63,70.92,70.92,0,0,0-7.16-.41c-4.8,0-9.62.14-14.48.21a65,65,0,0,1-7.36-.2,52.93,52.93,0,0,1-7.3-1.32,58.52,58.52,0,0,1-13.73-5.39,51.67,51.67,0,0,1-6.23-4,47.37,47.37,0,0,1-5.51-5,16.53,16.53,0,0,1-1.24-1.4c-.39-.49-.8-1-1.18-1.46l-1.06-1.54-.53-.77-.47-.81-.93-1.61c-.29-.55-.55-1.11-.83-1.66-.58-1.1-1-2.25-1.51-3.38a70.83,70.83,0,0,1-3.94-14.17c-.41-2.41-.74-4.84-.93-7.29a58.32,58.32,0,0,1-.2-7.37c.48-9.78,2.18-19.3,2.83-28.92s.82-19.3.43-28.89q-.17-3.6-.46-7.19c-.22-2.4-.44-4.77-.87-7.08a39.49,39.49,0,0,0-4.73-13.1A25.08,25.08,0,0,0,205,89.05a17.36,17.36,0,0,0-5.57-3.64c-.51-.21-1-.36-1.57-.53a15.36,15.36,0,0,0-1.64-.33,16.46,16.46,0,0,0-3.37-.21,19.09,19.09,0,0,0-6.68,1.4h0a.86.86,0,0,1-.75,0h0A13.46,13.46,0,0,0,179,84.28h-.83l-.83.06a11.56,11.56,0,0,0-1.65.18c-.55.1-1.1.16-1.64.28l-1.62.42a29.79,29.79,0,0,0-11.59,6.59,47.84,47.84,0,0,0-8.54,10.59,36.11,36.11,0,0,0-2.59,6.29c-.72,2.19-1.3,4.45-1.83,6.72a231.29,231.29,0,0,0-4.25,27.85c-1.12,9.34-.93,18.76-1.17,28.23-.09,4.73-.21,9.46-.61,14.2a69.12,69.12,0,0,1-2.44,14.13A54.81,54.81,0,0,1,124.21,224a69.72,69.72,0,0,1-5.47,4.69c-.95.74-2,1.41-3,2.11s-2,1.28-3.09,1.9a98.17,98.17,0,0,1-13,6.12c-4.42,1.76-8.87,3.36-13.3,5-2.22.79-4.38,1.67-6.55,2.53-1,.48-2.14.9-3.15,1.44l-.77.39-.39.2-.53.28A10.42,10.42,0,0,1,72.75,249.41Zm.93-1.39c.36-.47.47-.89.7-1.12a1.11,1.11,0,0,1,.22-.19l.4-.23.78-.46c1-.64,2.12-1.14,3.18-1.71,2.15-1.06,4.35-2,6.54-2.89,4.38-1.84,8.8-3.47,13.13-5.26a125.91,125.91,0,0,0,12.64-6c1-.59,2-1.17,3-1.78s1.91-1.27,2.83-2c1.86-1.39,3.69-2.81,5.4-4.37a51.31,51.31,0,0,0,15.22-22.82,50.14,50.14,0,0,0,1.66-6.76c.38-2.3.65-4.62.83-7,.4-4.67.52-9.38.61-14.09.14-9.41-.16-18.93.83-28.39.41-4.72.88-9.43,1.48-14.14s1.29-9.41,2.26-14.09c.49-2.34,1-4.67,1.76-7a38.23,38.23,0,0,1,2.68-6.83,35.44,35.44,0,0,1,2-3.13l1-1.51c.34-.5.75-1,1.12-1.44a31.44,31.44,0,0,1,2.38-2.78,33.85,33.85,0,0,1,15.47-9.75,21.75,21.75,0,0,1,7.46-.53,13.37,13.37,0,0,1,1.86.31,11.81,11.81,0,0,1,1.82.53l.88.34.86.45a8.52,8.52,0,0,1,1.59,1.1l-.77,0h0a14.63,14.63,0,0,1,3.46-1.65,18.31,18.31,0,0,1,3.73-.84,17.15,17.15,0,0,1,7.7.8A18.69,18.69,0,0,1,206.9,87a27.75,27.75,0,0,1,4.75,6,40,40,0,0,1,5,14.08c.41,2.46.59,4.92.77,7.33s.27,4.87.33,7.31c.11,4.87,0,9.73-.16,14.57s-.34,9.69-.73,14.55-.91,9.67-1.47,14.47-1.1,9.61-1.29,14.38a58.7,58.7,0,0,0,.22,7.13c.19,2.37.53,4.74.94,7.1a68.31,68.31,0,0,0,3.87,13.73c.47,1.08.91,2.19,1.47,3.23.27.53.52,1.06.8,1.58l.9,1.52.44.76.5.72,1,1.45c.36.46.74.89,1.11,1.35a15.9,15.9,0,0,0,1.17,1.31,44.44,44.44,0,0,0,5.27,4.7,53,53,0,0,0,5.95,3.85,56.24,56.24,0,0,0,13.2,5.2,49,49,0,0,0,7,1.27,67.22,67.22,0,0,0,7.13.3c4.82,0,9.68-.11,14.55.14a58.38,58.38,0,0,1,7.31.73,26.08,26.08,0,0,1,3.62.87,9.56,9.56,0,0,1,3.37,1.82l-.71.69h0a26.78,26.78,0,0,0-5.63-4.79,30,30,0,0,0-6.71-3.08c-4.71-1.53-9.7-2.1-14.74-2.72a47,47,0,0,1-7.67-1.4,21,21,0,0,1-7-3.85,23.83,23.83,0,0,1-5.14-6,45.14,45.14,0,0,1-3.43-7,120.27,120.27,0,0,1-4.43-14.69c-1.2-4.94-2.24-9.92-3.24-14.9s-1.88-10-2.7-15l-1.19-7.53-1.24-7.5-5-30a148.17,148.17,0,0,0-7.6-29.21c-.86-2.36-1.78-4.7-2.78-7s-2.14-4.56-3.22-6.84a62,62,0,0,0-7.69-12.74,36.75,36.75,0,0,0-5.19-5.17c-.47-.38-.95-.77-1.46-1.11a15.31,15.31,0,0,0-1.49-1A14.61,14.61,0,0,0,192.4,56a17.61,17.61,0,0,0-3.46-.82,21.85,21.85,0,0,0-10.71,1.38h0a.66.66,0,0,1-.58,0l-.08,0a21.43,21.43,0,0,0-6.89-1.88,13.08,13.08,0,0,0-1.78-.16c-.6,0-1.2-.08-1.8-.08l-1.79.09-.89.05-.89.13a34.53,34.53,0,0,0-13.42,4.8c-1,.66-2.06,1.24-3,2l-2.84,2.27A12.93,12.93,0,0,0,142.92,65l-1.3,1.27-1.3,1.28c-.44.41-.8.92-1.2,1.37l-2.36,2.8c-.8.93-1.44,2-2.16,3s-1.43,2-2.1,3l-1.87,3.17c-.62,1.07-1.27,2.1-1.86,3.19l-1.72,3.28c-.6,1.09-1.1,2.22-1.66,3.33s-1.09,2.21-1.58,3.35c-2.09,4.48-3.92,9.08-5.57,13.74a226.23,226.23,0,0,0-7.77,28.67l-3.09,14.62c-1,4.86-1.89,9.76-2.79,14.66-1.79,9.8-3.53,19.63-5.58,29.41-1,4.89-2.11,9.77-3.58,14.61a68.16,68.16,0,0,1-6.11,13.87c-2.49,4.38-5.39,8.49-8.24,12.57-1.42,2-2.84,4.07-4.09,6.18a32.11,32.11,0,0,0-1.73,3.21l-.69,1.62a.56.56,0,0,1-.29.35A2.44,2.44,0,0,0,73.68,248Z"/><path class="cls-5" d="M290.56,236.6c3.78,3.65,6.41,8.16,8.76,12.68a147.12,147.12,0,0,1,6.11,14c3.62,9.51,6.69,19.19,9.86,28.8,1.59,4.8,3.19,9.58,5,14.27s3.79,9.33,5.89,13.92c4.21,9.15,8.78,18.17,13.85,26.87h0a1.35,1.35,0,0,1-2.33,1.36h0a296.94,296.94,0,0,1-14-27.14c-2.08-4.64-4.05-9.34-5.86-14.1s-3.41-9.61-5-14.43c-3.11-9.64-6.11-19.31-9.64-28.76-1.72-4.73-3.6-9.41-5.77-13.93-.51-1.15-1.12-2.24-1.69-3.35s-1.22-2.18-1.85-3.25a35,35,0,0,0-4.42-5.94l0,0a.71.71,0,0,1,1-1Z"/><path class="cls-5" d="M339.79,348.84c-3.5,3.53-6.91,7.07-10,10.83a69.64,69.64,0,0,0-4.34,5.85,38.06,38.06,0,0,0-3.29,6.37,22.25,22.25,0,0,0-1.36,6.87c0,.6,0,1.19,0,1.75a6.08,6.08,0,0,0,.1.79,2.75,2.75,0,0,0,.13.46.5.5,0,0,0-.23-.12.42.42,0,0,0-.26,0,1.27,1.27,0,0,0,.39-.29,9.64,9.64,0,0,0,1.07-1.3c1.37-2,2.54-4.19,3.75-6.36s2.33-4.43,3.78-6.55a.38.38,0,0,1,.52-.09.37.37,0,0,1,.12.47l0,0c-2.26,4.38-3.83,9.16-6.48,13.6a10,10,0,0,1-1.21,1.68,3.29,3.29,0,0,1-1.09.84,1.75,1.75,0,0,1-1.17.1,1.84,1.84,0,0,1-1-.67,3.51,3.51,0,0,1-.58-1.26,7.34,7.34,0,0,1-.21-1.06,20.06,20.06,0,0,1-.18-2,23.94,23.94,0,0,1,1.18-7.84,40.35,40.35,0,0,1,3.26-7.09,57.31,57.31,0,0,1,4.41-6.34A72.11,72.11,0,0,1,338,346.84a1.35,1.35,0,0,1,1.81,2Z"/><path class="cls-5" d="M349.58,289.07a112.94,112.94,0,0,1,.09-12.75q.18-3.18.52-6.36c.24-2.12.53-4.24,1-6.36l0-.17a.52.52,0,0,1,.6-.39.53.53,0,0,1,.31.21h0a60.22,60.22,0,0,0,10.22,6.55,76.22,76.22,0,0,0,11.15,4.84,28.77,28.77,0,0,0,5.74,1.36c1.89.25,3.71-.08,4-1.09a3.48,3.48,0,0,0-.17-2.23,11.09,11.09,0,0,0-1.25-2.51,23.36,23.36,0,0,0-3.93-4.48h0a.74.74,0,0,1,.91-1.15,20.48,20.48,0,0,1,4.81,4.36,12.6,12.6,0,0,1,1.76,2.93,6,6,0,0,1,.38,3.87,3.92,3.92,0,0,1-1.24,1.93,5.07,5.07,0,0,1-1.87,1,9.94,9.94,0,0,1-3.59.26,31.34,31.34,0,0,1-6.43-1.32,51.87,51.87,0,0,1-6-2.28c-1.93-.9-3.82-1.88-5.65-3a40,40,0,0,1-5.24-3.65,21.67,21.67,0,0,1-4.39-4.72h0l1-.34c.2,2.13.24,4.26.24,6.39s-.09,4.27-.21,6.41a112,112,0,0,1-1.37,12.76.66.66,0,0,1-1.31-.08Z"/><path class="cls-5" d="M382.4,297.52c-.06-1.86,0-3.73,0-5.59s.11-3.72.23-5.59.2-3.72.39-5.58a47.11,47.11,0,0,1,.73-5.64.72.72,0,0,1,.85-.57.73.73,0,0,1,.58.76v.07c-.12,1.74-.12,3.65-.16,5.49s-.09,3.71-.12,5.56-.12,3.72-.18,5.58-.18,3.71-.35,5.56a1,1,0,0,1-2-.05Z"/><path class="cls-5" d="M384.54,227.28a9.28,9.28,0,0,1,2.6,6.14,11.38,11.38,0,0,1-.27,3.39c-.24,1.09-.53,2.13-.84,3.18a106.82,106.82,0,0,1-4.44,12.22,25.08,25.08,0,0,0-1.58,6c-.35,2.09-.56,4.21-.76,6.33s-.33,4.27-.41,6.4-.15,4.28-.13,6.41h0a.62.62,0,0,1-.6.61.6.6,0,0,1-.6-.55,92.63,92.63,0,0,1-.1-13c.11-2.17.34-4.33.66-6.5a26.35,26.35,0,0,1,1.65-6.49c1.71-3.9,3.29-7.9,4.76-11.91.35-1,.69-2,1-3a10.2,10.2,0,0,0,.41-3,9.48,9.48,0,0,0-1.84-5.72.35.35,0,0,1,.52-.47Z"/><path class="cls-5" d="M382.89,219.84a7.24,7.24,0,0,1,2.38,1.31,5.83,5.83,0,0,1,1.75,2.36,4.79,4.79,0,0,1,.2,3,3.87,3.87,0,0,1-.26.77,2.58,2.58,0,0,1-.49.67,4.1,4.1,0,0,1-1.17.83.35.35,0,0,1-.47-.16.37.37,0,0,1,0-.31l0,0c.19-.37.39-.74.53-1.09a2,2,0,0,0,.12-.45,3.25,3.25,0,0,1,0-.47,4.62,4.62,0,0,0-.42-2,9.22,9.22,0,0,0-1.16-1.82c-.47-.6-1-1.21-1.55-1.95a.47.47,0,0,1,.53-.71Z"/><path class="cls-5" d="M352.18,226.14c-.77-1-1.62-2-2.35-3.2a7.76,7.76,0,0,1-1.17-4,20.06,20.06,0,0,1,1.64-8,35.47,35.47,0,0,1,3.82-7,7.94,7.94,0,0,1,3.37-2.79,6.18,6.18,0,0,1,4.42-.34,6.86,6.86,0,0,1,1,.44c.3.2.66.42.89.6l1.6,1.08c1.07.72,2.19,1.4,3.3,2.07,2.25,1.33,4.56,2.55,6.83,3.86,1.14.64,2.26,1.31,3.37,2a16.36,16.36,0,0,1,1.68,1.19,10.69,10.69,0,0,1,1.5,1.51,13.65,13.65,0,0,1,2.17,3.56,6.71,6.71,0,0,1,.5,2.12,4.71,4.71,0,0,1-.09,1.13,8.17,8.17,0,0,1-.32,1,.41.41,0,0,1-.53.24.42.42,0,0,1-.26-.41v0a4.59,4.59,0,0,0-.06-1.75,7.14,7.14,0,0,0-.7-1.59,16,16,0,0,0-2.23-2.9,12.12,12.12,0,0,0-1.32-1.19c-.45-.33-1-.68-1.54-1-1.08-.69-2.18-1.39-3.26-2.12-2.18-1.44-4.33-2.93-6.52-4.35l-3.32-2.1c-.56-.36-1.11-.71-1.67-1.09a8.51,8.51,0,0,0-.75-.46,4.45,4.45,0,0,0-.77-.28c-2.11-.57-4.5.87-5.69,2.71a51.08,51.08,0,0,0-3.64,6.7,23.76,23.76,0,0,0-2,7.19,6.33,6.33,0,0,0,.71,3.46c.57,1.1,1.33,2.18,2,3.29a.42.42,0,0,1-.69.48Z"/><path class="cls-5" d="M375.39,225.74a11.88,11.88,0,0,1-2.79.93q-1.41.3-2.82.48c-1.86.26-3.8.39-5.62.48a4.55,4.55,0,0,0-3.78,1.91,17.06,17.06,0,0,0-2.1,4.76,19,19,0,0,0-.52,2.6c-.05.43-.1.87-.11,1.31,0,.2,0,.46,0,.63a1.72,1.72,0,0,0,.08.42c.37,1.18,1.94,2.3,3.44,2.83a5.58,5.58,0,0,0,1.11.27c.35,0,.86,0,1.28,0a19.34,19.34,0,0,0,2.65-.16,10.94,10.94,0,0,0,2.48-.56,2.73,2.73,0,0,0,1.73-1.5l0-.07a.22.22,0,0,1,.27-.12.24.24,0,0,1,.13.15,2.89,2.89,0,0,1-1.47,2.79,8,8,0,0,1-2.84,1.14,19.25,19.25,0,0,1-2.92.36,12.67,12.67,0,0,1-1.51,0,6.29,6.29,0,0,1-1.62-.35,9.87,9.87,0,0,1-2.77-1.48,5.65,5.65,0,0,1-2-2.75,4.28,4.28,0,0,1-.15-1c0-.29,0-.51,0-.77,0-.49.06-1,.12-1.48a19.92,19.92,0,0,1,.55-2.89,29.22,29.22,0,0,1,.85-2.8,14.25,14.25,0,0,1,1.26-2.79,6.25,6.25,0,0,1,2.52-2.33,7.18,7.18,0,0,1,3.24-.65l5.58.15c.93,0,1.85,0,2.77,0a14.73,14.73,0,0,0,2.69-.22h0a.35.35,0,0,1,.4.27A.36.36,0,0,1,375.39,225.74Z"/><path class="cls-5" d="M364.77,235.54c1.57.19,3,.49,4.31.54a12.08,12.08,0,0,0,4-.51h0a.52.52,0,0,1,.57.81,4.56,4.56,0,0,1-2.13,1.52,6.25,6.25,0,0,1-2.6.37,7.79,7.79,0,0,1-4.58-1.86.5.5,0,0,1,.38-.86Z"/><path class="cls-5" d="M378.13,243a8.08,8.08,0,0,1-3.14.37,7.61,7.61,0,0,1-3.17-1,7.69,7.69,0,0,1-2.46-2.21,8.41,8.41,0,0,1-1.36-2.85.5.5,0,0,1,.85-.46,16.54,16.54,0,0,0,4,3.64,11.58,11.58,0,0,0,2.42,1c.88.25,1.8.43,2.79.67h0a.41.41,0,0,1,.31.5A.39.39,0,0,1,378.13,243Z"/><path class="cls-5" d="M364.9,239.19a11,11,0,0,1,.77-.83l.64-.65a6.75,6.75,0,0,1,.63-.57,3,3,0,0,1,.84-.47l.13,0a.88.88,0,0,1,1.12.54.79.79,0,0,1,0,.4,2.59,2.59,0,0,1-1.52,2,3.43,3.43,0,0,1-1.23.37,2.91,2.91,0,0,1-1.24-.13.37.37,0,0,1-.24-.47A.6.6,0,0,1,364.9,239.19Z"/><path class="cls-5" d="M363.89,243.58c0,1.2,0,2.32,0,3.46s.07,2.26.17,3.39a33.1,33.1,0,0,0,.48,3.4c.21,1.15.49,2.28.74,3.48h0a.38.38,0,0,1-.29.44.36.36,0,0,1-.36-.14,15,15,0,0,1-2.94-6.89,13.89,13.89,0,0,1-.12-3.81,9.38,9.38,0,0,1,1.18-3.66.59.59,0,0,1,.81-.2.6.6,0,0,1,.29.49Z"/><path class="cls-5" d="M355.92,198.71a15,15,0,0,1-.31,5,17.46,17.46,0,0,1-1.91,4.69,11.45,11.45,0,0,1-.77,1.14,9.45,9.45,0,0,1-1,1,7.78,7.78,0,0,1-2.47,1.29,8.35,8.35,0,0,1-5.47-.17,5.34,5.34,0,0,1-1.3-.78,3.24,3.24,0,0,1-1-1.46,4.18,4.18,0,0,1-.08-1c0-.23.05-.47.11-.69a9.57,9.57,0,0,1,.37-1.28,42.36,42.36,0,0,1,2.08-4.5,46.57,46.57,0,0,0,2-4.4l.41-1.14a7.34,7.34,0,0,1,.53-1.18,9.79,9.79,0,0,1,3.53-3.66,8.27,8.27,0,0,1,1.17-.56l1.11-.48c1.49-.64,3-1.27,4.53-1.84a31.59,31.59,0,0,1,4.77-1.47,4.63,4.63,0,0,1,2.93.29,6.16,6.16,0,0,1,2.16,1.86,17.69,17.69,0,0,1,2.23,4.62c.54,1.56,1,3.11,1.44,4.68.88,3.13,1.67,6.28,2.32,9.46a.56.56,0,0,1-.44.66.55.55,0,0,1-.64-.37c-1.06-3.06-2-6.15-3-9.23s-1.78-6.28-3.47-8.67a4.18,4.18,0,0,0-1.42-1.34,2.78,2.78,0,0,0-1.81-.19,36.78,36.78,0,0,0-4.55,1.24l-4.58,1.53a21.53,21.53,0,0,0-2.21.81,8.13,8.13,0,0,0-1.85,1.32,7.6,7.6,0,0,0-1.39,1.8,8,8,0,0,0-.46,1l-.38,1.16c-.54,1.54-1.13,3.07-1.72,4.58s-1.19,3-1.58,4.49a8.84,8.84,0,0,0-.2,1.08,4.36,4.36,0,0,0,0,.51c0,.14,0,.15,0,.23a2.2,2.2,0,0,0,1.21.87,7,7,0,0,0,4.08.11,5.62,5.62,0,0,0,3.25-2.37,18.32,18.32,0,0,0,3.23-8.7.3.3,0,0,1,.33-.27.31.31,0,0,1,.27.27Z"/><path class="cls-5" d="M361.6,201.16c.29-.5.51-.86.79-1.26s.53-.79.86-1.23l.08-.1a.51.51,0,0,1,.73-.1.53.53,0,0,1,.19.26,2.56,2.56,0,0,1-.41,2.16,2.71,2.71,0,0,1-.81.77,1.78,1.78,0,0,1-1.14.29.46.46,0,0,1-.41-.51.64.64,0,0,1,.06-.18Z"/><path class="cls-5" d="M346.14,211a75.54,75.54,0,0,1-.86,14.2,34.27,34.27,0,0,0,1.21,13.62c1.29,4.34,3.82,8.4,5.55,12.91a38,38,0,0,1,2,7,33.4,33.4,0,0,1,.46,7.19.49.49,0,0,1-1,0,37.38,37.38,0,0,0-3.2-13.43c-.92-2.13-2-4.21-3.06-6.32a36.69,36.69,0,0,1-2.82-6.68,32.09,32.09,0,0,1-.69-14.44c.42-2.38.88-4.63,1.16-7s.49-4.67.56-7a.34.34,0,0,1,.35-.33A.35.35,0,0,1,346.14,211Z"/><path class="cls-5" d="M75.87,248.09c-1.42,1.06-2.81,2.16-4.13,3.3A45.94,45.94,0,0,0,68,255.06,31.79,31.79,0,0,0,65,259.22a30.55,30.55,0,0,0-2.25,4.64,41,41,0,0,0-2.4,10.1c-.45,3.5-.73,7.07-1,10.62-1.07,14.25-1.77,28.55-2.54,42.84l-4.62,85.79c-.78,14.29-1.68,28.62-2.78,42.88-.85,14.24-1.23,28.57-1.61,42.87s-.65,28.63-.84,42.94c-.09,7.16-.17,14.32-.19,21.47s-.08,14.32.12,21.47a.42.42,0,0,1-.41.44.44.44,0,0,1-.44-.41c-.71-14.33-.75-28.65-.83-43s0-28.65.15-43,.38-28.64,1-43C47.27,441.6,48,427.33,48.69,413l2-42.91,1-21.47L53,327.2c.91-14.3,1.94-28.59,3.31-42.88.37-3.58.72-7.15,1.25-10.74a43.53,43.53,0,0,1,2.85-10.67A33.08,33.08,0,0,1,63,258a34.07,34.07,0,0,1,3.42-4.4,48.89,48.89,0,0,1,8.45-6.95.9.9,0,0,1,1,1.47Z"/><path class="cls-5" d="M104,353.58c-.31,10.1-1,20.18-1.62,30.25S100.94,404,100.21,414s-1.63,20.11-2.44,30.17L95.1,474.32a1,1,0,0,1-2.06-.14c.52-10.09,1.31-20.15,2.09-30.21s1.66-20.11,2.58-30.16l2.75-30.14c.92-10,1.88-20.09,2.7-30.13h0a.43.43,0,0,1,.85.05Z"/><path class="cls-5" d="M90.75,537.41l-.41,12.81c-.13,4.27-.31,8.54-.35,12.82s0,8.56.05,12.83.26,8.57.57,12.85a.4.4,0,0,1-.37.43.38.38,0,0,1-.41-.31,115.65,115.65,0,0,1-2-12.83c-.43-4.3-.69-8.63-.81-13s-.09-8.65.17-13a78.49,78.49,0,0,1,1.72-12.91.94.94,0,0,1,1.86.24Z"/><path class="cls-5" d="M279.37,530a102.83,102.83,0,0,1,3.42,14.45c.83,4.89,1.31,9.82,1.65,14.77a147.47,147.47,0,0,1,.23,14.87A96.33,96.33,0,0,1,283,588.83a.38.38,0,0,1-.44.29.37.37,0,0,1-.3-.38q.3-7.38,0-14.69c-.15-4.89-.48-9.76-.93-14.63s-1-9.71-1.61-14.57-1.17-9.72-1.56-14.65a.59.59,0,0,1,1.14-.23Z"/><path class="cls-5" d="M194.61,506.93a58.24,58.24,0,0,0,1.85,9.57,22.62,22.62,0,0,0,4.28,8.35,19.19,19.19,0,0,0,7.48,5.31l1.09.42a6.88,6.88,0,0,0,1.11.37l2.28.62c.78.16,1.57.27,2.35.41l1.17.2,1.2.09,2.39.2,2.46.11c1.63.08,3.28.1,4.92.14,3.28.06,6.57,0,9.86,0,6.57-.13,13.16-.31,19.72-.73,3.28-.21,6.57-.45,9.83-.79a83.47,83.47,0,0,0,9.64-1.41l1.13-.29.9-.36a2.86,2.86,0,0,0,1-1.43,15.49,15.49,0,0,0,.58-4.56,69.74,69.74,0,0,0-.8-9.72c-.46-3.24-1-6.53-1.46-9.79s-1.09-6.48-1.74-9.7c-1.31-6.44-3-12.81-4.79-19.15s-3.74-12.64-5.63-19-3.72-12.72-5.21-19.21l-.56-2.43-.49-2.45-.49-2.46-.42-2.47c-.12-.83-.29-1.65-.38-2.48l-.28-2.49c-.16-1.67-.42-3.33-.5-5l-.3-5c-.13-1.66-.1-3.32-.15-5-.12-3.33,0-6.65,0-10,.18-6.64.66-13.27,1.34-19.86s1.53-13.18,2.53-19.72c2.17-13.07,4.67-26.12,8.89-38.72a.47.47,0,0,1,.59-.29.45.45,0,0,1,.3.56v0c-3.51,12.68-5.61,25.74-7.43,38.77a350.24,350.24,0,0,0-3.09,39.31c0,3.28-.1,6.57,0,9.84.06,1.64,0,3.28.16,4.91l.33,4.89c.08,1.64.34,3.24.51,4.87s.36,3.24.63,4.84l.38,2.42.45,2.41.46,2.41.52,2.4c2.87,12.79,6.71,25.44,10.07,38.25,1.66,6.41,3.25,12.85,4.52,19.36.63,3.26,1.21,6.53,1.67,9.82s1,6.5,1.5,9.8a73.59,73.59,0,0,1,.89,10,17.13,17.13,0,0,1-.67,5.23,4.81,4.81,0,0,1-1.8,2.57c-.46.24-.91.41-1.37.61l-1.27.35a82.13,82.13,0,0,1-9.92,1.66c-3.3.41-6.6.71-9.9,1-6.61.52-13.23.92-19.86,1-3.32,0-6.64.08-10,0-1.66,0-3.32,0-5-.12l-2.5-.1-2.54-.24-1.27-.12-1.26-.23c-.85-.16-1.69-.29-2.53-.48l-2.49-.71a7.73,7.73,0,0,1-1.22-.44l-1.21-.5a20.77,20.77,0,0,1-8.28-6.33,24.21,24.21,0,0,1-4.27-9.35,52.25,52.25,0,0,1-1.17-10,.6.6,0,0,1,1.19-.09Z"/><path class="cls-5" d="M180.76,359.85a4.86,4.86,0,0,1-1.93,3.85A6.48,6.48,0,0,1,175,365a6.61,6.61,0,0,1-3.94-1.2,4.82,4.82,0,0,1,0-7.88,6.54,6.54,0,0,1,3.94-1.2,6.47,6.47,0,0,1,3.86,1.29A4.88,4.88,0,0,1,180.76,359.85Zm-2.62,0a4.4,4.4,0,0,0-.69-2.47,2.93,2.93,0,0,0-2.47-1.33,2.84,2.84,0,0,0-2.37,1.42,5.17,5.17,0,0,0,0,4.76,2.82,2.82,0,0,0,2.37,1.42,2.93,2.93,0,0,0,2.48-1.33A4.47,4.47,0,0,0,178.14,359.85Z"/><path class="cls-5" d="M184.88,399.26a4.81,4.81,0,0,1-1.9,3.81,6.54,6.54,0,0,1-7.68.07,4.78,4.78,0,0,1,0-7.76,6.47,6.47,0,0,1,3.88-1.21,6.36,6.36,0,0,1,3.81,1.28A4.83,4.83,0,0,1,184.88,399.26Zm-2.48,0a4.46,4.46,0,0,0-.72-2.51,3,3,0,0,0-2.51-1.34,3,3,0,0,0-2.44,1.41,4.76,4.76,0,0,0-.63,2.44,4.64,4.64,0,0,0,.63,2.44,2.93,2.93,0,0,0,2.44,1.41,3,3,0,0,0,2.52-1.34A4.45,4.45,0,0,0,182.4,399.26Z"/><path class="cls-5" d="M187.23,438.67a4.89,4.89,0,0,1-1.93,3.86,6.53,6.53,0,0,1-7.74,0,4.86,4.86,0,0,1,0-7.78,6.53,6.53,0,0,1,7.79,0A4.91,4.91,0,0,1,187.23,438.67Zm-2.65,0a4.44,4.44,0,0,0-.71-2.43,2.88,2.88,0,0,0-4.85,0,4.37,4.37,0,0,0-.69,2.41,4.59,4.59,0,0,0,.66,2.45,2.9,2.9,0,0,0,4.91,0A4.52,4.52,0,0,0,184.58,438.67Z"/></g></svg>