<svg id="Capa_1" data-name="Capa 1" xmlns="http://www.w3.org/2000/svg" viewBox="0 0 50 50"><defs><style>.cls-1{fill:none;}.cls-2{fill:#24a31a;}.cls-3{fill:#28347d;}</style></defs><title>boton_ocensa_gobierno_corporativo_descargar_verde</title><rect class="cls-1" width="50" height="50"/><circle class="cls-1" cx="25" cy="25" r="22"/><g id="Group_6196" data-name="Group 6196"><g id="Path_5327" data-name="Path 5327"><path class="cls-2" d="M25,48.26a23.26,23.26,0,0,1-12.35-43,1.27,1.27,0,0,1,1.73.4A1.26,1.26,0,0,1,14,7.39,20.75,20.75,0,1,0,42.61,14,21,21,0,0,0,36,7.39a1.26,1.26,0,0,1-.4-1.72,1.27,1.27,0,0,1,1.73-.4,23.26,23.26,0,0,1,0,39.46A23.15,23.15,0,0,1,25,48.26Z"/></g><g id="Group_6195" data-name="Group 6195"><g id="Group_6193" data-name="Group 6193"><g id="Path_5178" data-name="Path 5178"><rect class="cls-3" x="23.75" y="9.64" width="2.5" height="20.24"/></g><g id="Path_5179" data-name="Path 5179"><polygon class="cls-3" points="25.08 31.83 19.11 25.86 20.88 24.1 25.08 28.29 29.27 24.1 31.04 25.86 25.08 31.83"/></g></g><g id="Path_5253" data-name="Path 5253"><rect class="cls-3" x="19.5" y="32.55" width="11.24" height="2.5"/></g></g></g></svg>