<svg id="Capa_1" data-name="Capa 1" xmlns="http://www.w3.org/2000/svg" viewBox="0 0 65 65"><defs><style>.cls-1{fill:none;}.cls-2{fill:#24a31a;}.cls-3{fill:#19a501;}.cls-4{fill:#fff;}</style></defs><title>boton_ocensa_gobierno_corporativo_subir</title><rect class="cls-1" width="65" height="65"/><g id="Componente_12_4" data-name="Componente 12 4"><g id="Elipse_48" data-name="Elipse 48"><circle class="cls-2" cx="32.5" cy="32.5" r="30"/><path class="cls-3" d="M32.5,63.75A31.25,31.25,0,1,1,63.75,32.5,31.29,31.29,0,0,1,32.5,63.75Zm0-60A28.75,28.75,0,1,0,61.25,32.5,28.79,28.79,0,0,0,32.5,3.75Z"/></g><g id="Trazado_436" data-name="Trazado 436"><path class="cls-4" d="M41.2,38.6a1.25,1.25,0,0,1-.89-.37l-8-8-8,8a1.24,1.24,0,0,1-1.76-1.76l8.84-8.85a1.25,1.25,0,0,1,1.77,0l8.85,8.85a1.24,1.24,0,0,1,0,1.76A1.21,1.21,0,0,1,41.2,38.6Z"/></g></g></svg>