<svg id="Capa_1" data-name="Capa 1" xmlns="http://www.w3.org/2000/svg" viewBox="0 0 50 50"><defs><style>.cls-1{fill:none;}.cls-2{fill:#24a31a;}.cls-3{fill:#28347d;}</style></defs><title>boton_ocensa_gobierno_corporativo_ver_estandar_instancias</title><circle class="cls-1" cx="25.57" cy="24.46" r="22"/><rect class="cls-1" width="50" height="50"/><g id="Group_6196" data-name="Group 6196"><g id="Path_5327" data-name="Path 5327"><path class="cls-2" d="M25.63,47.7A23.26,23.26,0,0,1,5.86,36.76,1.25,1.25,0,1,1,8,35.44a20.74,20.74,0,1,0,0-22,1.25,1.25,0,0,1-2.12-1.32,23.25,23.25,0,1,1,32,32A23.09,23.09,0,0,1,25.63,47.7Z"/></g><g id="Group_6195" data-name="Group 6195"><g id="Group_6193" data-name="Group 6193"><g id="Path_5178" data-name="Path 5178"><rect class="cls-3" x="10.23" y="23.21" width="20.24" height="2.5"/></g><g id="Path_5179" data-name="Path 5179"><polygon class="cls-3" points="26.45 30.34 24.68 28.57 28.88 24.38 24.68 20.18 26.45 18.41 32.41 24.38 26.45 30.34"/></g></g><g id="Path_5253" data-name="Path 5253"><rect class="cls-3" x="33.14" y="18.72" width="2.5" height="11.24"/></g></g></g></svg>