<svg id="Capa_1" data-name="Capa 1" xmlns="http://www.w3.org/2000/svg" viewBox="0 0 112 112"><defs><style>.cls-1{fill:none;}.cls-2{fill:#24a31a;}.cls-3{isolation:isolate;}.cls-4{fill:#fff;}</style></defs><title>boton_ocensa_gobierno_corporativo_instancias_1_comite</title><rect class="cls-1" width="112" height="112"/><circle class="cls-2" cx="56" cy="56" r="54"/><path class="cls-2" d="M56,111.5A55.5,55.5,0,1,1,111.5,56,55.57,55.57,0,0,1,56,111.5Zm0-108A52.5,52.5,0,1,0,108.5,56,52.56,52.56,0,0,0,56,3.5Z"/><g id="_02" data-name=" 02"><g class="cls-3"><path class="cls-4" d="M59,66.5h-4.2V47.84a8.35,8.35,0,0,1-3.26,1.54l-.42-3.56a5.26,5.26,0,0,0,1.35-.55,8.85,8.85,0,0,0,1.36-.93A9.17,9.17,0,0,0,55,43.21,5.28,5.28,0,0,0,55.81,42H59Z"/></g></g></svg>