<svg id="Capa_1" data-name="Capa 1" xmlns="http://www.w3.org/2000/svg" viewBox="0 0 50 50"><defs><style>.cls-1{fill:none;}.cls-2{fill:#24a31a;}.cls-3{fill:#28347d;}</style></defs><title>boton_ocensa_gobierno_corporativo_mas_comites_eticayimte</title><rect class="cls-1" width="50" height="50"/><circle class="cls-1" cx="25" cy="25" r="22"/><g id="Path_5327-2" data-name="Path 5327-2"><path class="cls-2" d="M25,48.24A23.28,23.28,0,0,1,5.27,37.31,1.26,1.26,0,0,1,7.4,36a20.77,20.77,0,1,0,0-22,1.26,1.26,0,0,1-2.13-1.33,23.57,23.57,0,0,1,7.42-7.42A23.26,23.26,0,1,1,25,48.24Z"/></g><g id="Group_6195" data-name="Group 6195"><g id="Group_6193" data-name="Group 6193"><g id="Path_5178" data-name="Path 5178"><rect class="cls-3" x="14.79" y="23.75" width="20.24" height="2.5"/></g><g id="Path_5179" data-name="Path 5179"><polygon class="cls-3" points="31.02 30.88 29.25 29.12 33.44 24.92 29.25 20.73 31.02 18.96 36.98 24.92 31.02 30.88"/></g></g></g></svg>