<svg id="Capa_1" data-name="Capa 1" xmlns="http://www.w3.org/2000/svg" viewBox="0 0 40 40"><defs><style>.cls-1{fill:none;}.cls-2{fill:#fff;}.cls-3{fill:#28347d;}</style></defs><title>boton_ocensa_gobierno_corporativo_bajar</title><rect class="cls-1" width="40" height="40"/><circle class="cls-2" cx="20" cy="20" r="17.5"/><path class="cls-3" d="M20,38.75A18.75,18.75,0,1,1,38.75,20,18.77,18.77,0,0,1,20,38.75Zm0-35A16.25,16.25,0,1,0,36.25,20,16.27,16.27,0,0,0,20,3.75Z"/><path class="cls-3" d="M20,24.36a1.22,1.22,0,0,1-.88-.37L12.9,17.78A1.25,1.25,0,0,1,14.67,16L20,21.34,25.33,16a1.25,1.25,0,0,1,1.77,1.77L20.88,24A1.22,1.22,0,0,1,20,24.36Z"/></svg>