<svg id="Capa_1" data-name="Capa 1" xmlns="http://www.w3.org/2000/svg" viewBox="0 0 260 55"><defs><style>.cls-1{fill:none;}.cls-2{fill:#24a31a;}.cls-3,.cls-5{fill:#fff;}.cls-4,.cls-5{isolation:isolate;}.cls-5{font-size:20px;font-family:Roboto-Regular, Roboto;}</style></defs><title>boton_ocensa_gobierno_corporativo_gestion_documental_comites</title><rect class="cls-1" width="235" height="55"/><g id="Componente_10_1" data-name="Componente 10 1"><g id="Trazado_314" data-name="Trazado 314"><path class="cls-2" d="M233.24,5.5H26.76a22,22,0,0,0,0,44H233.24a22,22,0,0,0,0-44Z"/><path class="cls-2" d="M233.24,50.75H26.76a23.25,23.25,0,0,1,0-46.5H233.24a23.25,23.25,0,0,1,0,46.5ZM26.76,6.75a20.75,20.75,0,0,0,0,41.5H233.24a20.75,20.75,0,0,0,0-41.5Z"/></g><g id="Group_6195" data-name="Group 6195"><g id="Group_6193" data-name="Group 6193"><g id="Path_5178" data-name="Path 5178"><rect class="cls-3" x="16.54" y="26.25" width="20.24" height="2.5"/></g><g id="Path_5179" data-name="Path 5179"><polygon class="cls-3" points="32.77 33.39 31 31.62 35.2 27.42 31 23.23 32.77 21.46 38.73 27.42 32.77 33.39"/></g></g></g><g id="Grupo_235" data-name="Grupo 235"><g id="Gestión_Documental" data-name="Gestión Documental" class="cls-4"><text class="cls-5" transform="translate(49.53 36.22)">Gestión Documental</text></g></g></g></svg>