<svg id="Capa_1" data-name="Capa 1" xmlns="http://www.w3.org/2000/svg" viewBox="0 0 235 55"><defs><style>.cls-1{fill:none;}.cls-2{fill:#24a31a;}.cls-3,.cls-5{fill:#fff;}.cls-4,.cls-5{isolation:isolate;}.cls-5{font-size:20px;font-family:Roboto-Regular, Roboto;}.cls-6{letter-spacing:-0.02em;}</style></defs><title>boton_ocensa_gobierno_corporativo_Ver_agenda_comite_ejecutivo</title><rect class="cls-1" width="235" height="55"/><g id="Trazado_313" data-name="Trazado 313"><path class="cls-2" d="M210.75,5.5H24.25a22,22,0,0,0,0,44h186.5a22,22,0,0,0,0-44Z"/><path class="cls-2" d="M210.75,50.75H24.25a23.25,23.25,0,0,1,0-46.5h186.5a23.25,23.25,0,0,1,0,46.5Zm-186.5-44a20.75,20.75,0,0,0,0,41.5h186.5a20.75,20.75,0,0,0,0-41.5Z"/></g><g id="Group_6195" data-name="Group 6195"><g id="Group_6193" data-name="Group 6193"><g id="Path_5178" data-name="Path 5178"><rect class="cls-3" x="14.04" y="26.25" width="20.24" height="2.5"/></g><g id="Path_5179" data-name="Path 5179"><polygon class="cls-3" points="30.27 33.39 28.5 31.62 32.7 27.42 28.5 23.23 30.27 21.46 36.23 27.42 30.27 33.39"/></g></g></g><g id="Grupo_233" data-name="Grupo 233"><g id="Ver_agenda_anual_" data-name="Ver agenda anual " class="cls-4"><text class="cls-5" transform="translate(50.9 35.08)"><tspan class="cls-6">V</tspan><tspan x="12.29" y="0">er agenda anual*</tspan></text></g></g></svg>