<svg id="Capa_1" data-name="Capa 1" xmlns="http://www.w3.org/2000/svg" viewBox="0 0 30 30"><defs><style>.cls-1{fill:none;}.cls-2{fill:#24a31a;}</style></defs><title>bullet_ocensa_gobierno_corporativo_modelo_organizacional</title><rect class="cls-1" width="30" height="30"/><g id="Grupo_383" data-name="Grupo 383"><g id="Trazado_425" data-name="Trazado 425"><path class="cls-2" d="M13.62,20.51a1,1,0,0,1-.74-.34L8.11,14.75A1,1,0,0,1,9.6,13.44l4,4.56L25.29,4.14A1,1,0,0,1,26.68,4a1,1,0,0,1,.12,1.4L14.38,20.16a1,1,0,0,1-.74.35Z"/></g><g id="Trazado_426" data-name="Trazado 426"><path class="cls-2" d="M13.39,26.21A10.43,10.43,0,1,1,23.82,15.7v.08A10.44,10.44,0,0,1,13.39,26.21Zm0-18.87a8.45,8.45,0,1,0,8.41,8.44h0v-.07a8.42,8.42,0,0,0-8.41-8.37Z"/></g></g></svg>