<svg xmlns="http://www.w3.org/2000/svg" viewBox="0 0 120 120"><defs><style>.cls-1{isolation:isolate;}.cls-2{fill:none;}.cls-3{fill:#28347d;}.cls-4{mix-blend-mode:multiply;}.cls-5{fill:#24a31a;}.cls-6{fill:#a2ce2a;}.cls-7{fill:#1f9254;}</style></defs><title>icon_ocensa_gobierno_corporativo_</title><g class="cls-1"><g id="Capa_1" data-name="Capa 1"><rect class="cls-2" width="120" height="120"/><path class="cls-3" d="M55.38,61.65a1.53,1.53,0,0,1-1.07-.44,1.51,1.51,0,0,1,0-2.12l6.86-6.86a1.51,1.51,0,0,1,2.12,0,1.49,1.49,0,0,1,0,2.12l-6.85,6.86A1.53,1.53,0,0,1,55.38,61.65Z"/><path class="cls-3" d="M96.08,36a2.25,2.25,0,1,1,2.25-2.25A2.25,2.25,0,0,1,96.08,36Zm0-2.5a.25.25,0,0,0-.25.25c0,.28.5.28.5,0A.25.25,0,0,0,96.08,33.51Z"/><path class="cls-3" d="M100.71,35.56a1,1,0,0,1-1-1V33a1,1,0,1,1,2,0v1.6A1,1,0,0,1,100.71,35.56Z"/><path class="cls-3" d="M85.2,66.43a29.14,29.14,0,1,1,29.36-29.14A29.28,29.28,0,0,1,85.2,66.43Zm0-55.27a26.14,26.14,0,1,0,26.36,26.13A26.27,26.27,0,0,0,85.2,11.16Z"/><path class="cls-3" d="M90,53.86a1,1,0,0,1-.62-.21l-3.9-3.06H75a1,1,0,0,1-1-1V42.06H71.49l-3.9,3.07a1,1,0,0,1-1,.11,1,1,0,0,1-.56-.9V42.06H65.4A3.12,3.12,0,0,1,62.29,39V30.47a3.12,3.12,0,0,1,3.11-3.11H79.87A3.12,3.12,0,0,1,83,30.47v5.41h4.56a5.7,5.7,0,0,1-.13-1.25V32.29a6.18,6.18,0,0,1,6.18-6.18h8.34a6.18,6.18,0,0,1,6.18,6.18v2.34a6.19,6.19,0,0,1-5.18,6.1v2.36a1,1,0,0,1-1.62.78l-3.9-3.06H94.71v8.78a1,1,0,0,1-1,1H91v2.27a1,1,0,0,1-.56.9A1,1,0,0,1,90,53.86ZM76,48.59h9.84a1,1,0,0,1,.62.21l2.55,2V49.59a1,1,0,0,1,1-1h2.69V40.75a6.19,6.19,0,0,1-4.36-2.87H76ZM65.4,29.36a1.11,1.11,0,0,0-1.11,1.11V39a1.11,1.11,0,0,0,1.11,1.11H67a1,1,0,0,1,1,1v1.22l2.55-2a1.05,1.05,0,0,1,.62-.21H74V36.88a1,1,0,0,1,1-1h6V30.47a1.12,1.12,0,0,0-1.12-1.11Zm28.31,9.45h4.06a1,1,0,0,1,.62.21l2.55,2V39.81a1,1,0,0,1,1-1,4.18,4.18,0,0,0,4.18-4.18V32.29a4.18,4.18,0,0,0-4.18-4.18H93.6a4.18,4.18,0,0,0-4.18,4.18v2.34a4.18,4.18,0,0,0,4.18,4.18Z"/><path class="cls-3" d="M79.52,45.34a2.25,2.25,0,1,1,2.25-2.25A2.25,2.25,0,0,1,79.52,45.34Zm0-2.5a.25.25,0,0,0-.25.25c0,.27.5.27.5,0A.25.25,0,0,0,79.52,42.84Z"/><path class="cls-3" d="M84.15,45.34a2.25,2.25,0,1,1,2.25-2.25A2.25,2.25,0,0,1,84.15,45.34Zm0-2.5a.25.25,0,0,0-.25.25c0,.27.5.27.5,0A.25.25,0,0,0,84.15,42.84Z"/><path class="cls-3" d="M88.78,45.34A2.25,2.25,0,1,1,91,43.09,2.25,2.25,0,0,1,88.78,45.34Zm0-2.5a.25.25,0,0,0-.25.25c0,.27.5.27.5,0A.25.25,0,0,0,88.78,42.84Z"/><path class="cls-3" d="M77.27,36.37a1,1,0,0,1-1-1V33.76a1,1,0,0,1,2,0v1.61A1,1,0,0,1,77.27,36.37Zm-4.63,0a1,1,0,0,1-1-1V33.76a1,1,0,0,1,2,0v1.61A1,1,0,0,1,72.64,36.37Zm-4.63,0a1,1,0,0,1-1-1V33.76a1,1,0,0,1,2,0v1.61A1,1,0,0,1,68,36.37Z"/><path class="cls-3" d="M65,90.8a1.51,1.51,0,0,1-1.49-1.29l-2-14.45a9.33,9.33,0,0,0-7.34-7.82l-17-3.51-17,3.51a9.32,9.32,0,0,0-7.33,7.82l-2,14.45a1.52,1.52,0,0,1-1.7,1.28A1.5,1.5,0,0,1,7.82,89.1l2-14.45a12.33,12.33,0,0,1,9.7-10.35l17.33-3.57.09,0a12.31,12.31,0,0,1-12.09-12.3V41a12.3,12.3,0,1,1,24.6,0v7.45a12.32,12.32,0,0,1-12.09,12.3l.09,0L54.8,64.3a12.34,12.34,0,0,1,9.7,10.35l2,14.45a1.49,1.49,0,0,1-1.28,1.69ZM37.17,31.66a9.31,9.31,0,0,0-9.3,9.3v7.45a9.3,9.3,0,1,0,18.6,0V41A9.31,9.31,0,0,0,37.17,31.66Z"/><g class="cls-4"><path class="cls-5" d="M24.23,111.84H6.94a1.5,1.5,0,1,1,0-3H24.23a1.5,1.5,0,0,1,0,3Z"/></g><g class="cls-4"><path class="cls-6" d="M34.4,111.84H17.11a1.5,1.5,0,0,1,0-3H34.4a1.5,1.5,0,1,1,0,3Z"/></g><g class="cls-4"><path class="cls-6" d="M55.24,111.84H46.59a1.5,1.5,0,0,1,0-3h8.65a1.5,1.5,0,1,1,0,3Z"/></g><g class="cls-4"><path class="cls-6" d="M67.4,111.84a1.46,1.46,0,0,1-1.06-.44,1.5,1.5,0,0,1-.44-1.06,1.53,1.53,0,0,1,.44-1.06,1,1,0,0,1,.23-.18,1.08,1.08,0,0,1,.26-.14,1.31,1.31,0,0,1,.28-.09,1.56,1.56,0,0,1,1.35.41,1.52,1.52,0,0,1,.44,1.06,1.5,1.5,0,0,1-.44,1.06,1.47,1.47,0,0,1-1.06.44Z"/></g><g class="cls-4"><path class="cls-6" d="M50.05,100.23H6.94a1.5,1.5,0,1,1,0-3H50.05a1.5,1.5,0,0,1,0,3Z"/></g><g class="cls-4"><path class="cls-7" d="M6.94,100.23a1.66,1.66,0,0,1-.58-.11,1.58,1.58,0,0,1-.48-.33,1.46,1.46,0,0,1-.44-1.06,1.36,1.36,0,0,1,0-.29,2.29,2.29,0,0,1,.08-.28,2.15,2.15,0,0,1,.14-.26,2.11,2.11,0,0,1,.19-.23l.22-.19a1.58,1.58,0,0,1,.26-.13A1.47,1.47,0,0,1,8,97.67a1.3,1.3,0,0,1,.18.23.94.94,0,0,1,.14.26,1.31,1.31,0,0,1,.09.28,1.36,1.36,0,0,1,0,.29A1.5,1.5,0,0,1,8,99.79a1.63,1.63,0,0,1-.49.33A1.56,1.56,0,0,1,6.94,100.23Z"/></g><g class="cls-4"><path class="cls-5" d="M67.4,100.23H42.93a1.5,1.5,0,1,1,0-3H67.4a1.5,1.5,0,0,1,0,3Z"/></g></g></g></svg>