<svg id="Capa_1" data-name="Capa 1" xmlns="http://www.w3.org/2000/svg" viewBox="0 0 70 70"><defs><style>.cls-1{fill:none;}.cls-2{fill:#fff;}.cls-3{fill:#19a500;}</style></defs><title>icon_ocensa_inversionistas_redes_sociales</title><rect class="cls-1" width="70" height="70"/><g id="icon_ocenza_desktop_redes_sociales_twitter" data-name="icon ocenza desktop redes sociales twitter"><g id="Grupo_6810" data-name="Grupo 6810"><g id="Grupo_6809" data-name="Grupo 6809"><g id="Trazado_5849" data-name="Trazado 5849"><path class="cls-2" d="M35.12,69.73A34.73,34.73,0,0,1,.33,35c0-1.14.06-2.3.17-3.43a2,2,0,0,1,4,.4c-.1,1-.15,2-.15,3A30.73,30.73,0,1,0,21.71,7.32,2,2,0,1,1,20,3.72a34.73,34.73,0,1,1,15.15,66Z"/></g></g></g><g id="Trazado_5850" data-name="Trazado 5850"><path class="cls-3" d="M9.31,25.9a9.11,9.11,0,1,1,0-18.21,8.82,8.82,0,0,1,6.4,2.59,9,9,0,0,1,2.71,6.36v.15a9.1,9.1,0,0,1-9.1,9.11Zm.06-14.21h0a5.11,5.11,0,1,0,0,10.21h0a5.1,5.1,0,0,0,5.1-5.11v-.11a5,5,0,0,0-5-5Z"/></g><g id="Grupo_6811" data-name="Grupo 6811"><g id="Trazado_4961" data-name="Trazado 4961"><path class="cls-2" d="M30.41,50.33c-5.09,0-9.84-1.62-12.16-3.95A2,2,0,0,1,20,43a9.55,9.55,0,0,0,8.1-2.32,2,2,0,0,1,2.68,3A13.91,13.91,0,0,1,27.09,46a18.58,18.58,0,0,0,9.66-.84c5.55-2.15,8.66-7.23,9-14.68,0-.05,0-.1,0-.14s0-.28,0-.41,0-.16,0-.23,0-.12,0-.18a2,2,0,0,1,.43-1.45l.23-.29a2,2,0,0,1-1.7-.66,4,4,0,0,0-2.81-1.34,4,4,0,0,0-2.93,1,4.06,4.06,0,0,0-1.36,3,3.29,3.29,0,0,0,.07.71,2,2,0,0,1-3.93.76,7.35,7.35,0,0,1-.14-1.48,8.09,8.09,0,0,1,2.69-6,8.06,8.06,0,0,1,10.34-.36l5.23-2a2,2,0,0,1,2.29,3.12L49.77,30c0,.24,0,.49,0,.74-.41,9-4.5,15.43-11.53,18.16A21.66,21.66,0,0,1,30.41,50.33Z"/></g><g id="Trazado_4962" data-name="Trazado 4962"><path class="cls-2" d="M29.45,44.16a1.94,1.94,0,0,1-.93-.23C19.66,39.26,19,30.59,21.27,24.05a2,2,0,0,1,1.5-1.3,2,2,0,0,1,1.88.63C28.83,28,32.26,28.5,35.29,28.9L36,29a2,2,0,0,1-.57,4l-.69-.09a18.43,18.43,0,0,1-10.47-4.28,10.93,10.93,0,0,0,6.09,11.8,2,2,0,0,1-.93,3.77Z"/></g></g></g></svg>