<svg xmlns="http://www.w3.org/2000/svg" viewBox="0 0 135 135"><defs><style>.cls-1{isolation:isolate;}.cls-2{fill:#28347d;}.cls-3{fill:#24a31a;}.cls-4{fill:none;}.cls-5{mix-blend-mode:multiply;}.cls-6{fill:#19a500;}.cls-7{fill:#a2ce2a;}.cls-8{fill:#1f9254;}</style></defs><title>icon_ocensa_gobierno_corporativo_</title><g class="cls-1"><g id="Capa_1" data-name="Capa 1"><path class="cls-2" d="M111.51,103.93h-88a6.21,6.21,0,0,1-6.21-6.2V43.08a6.21,6.21,0,0,1,6.21-6.21h3.07V34a1.5,1.5,0,0,1,1.5-1.5h3.6a1.5,1.5,0,0,1,0,3h-2.1v55.6H66V40a4.55,4.55,0,0,0-4.55-4.55,1.5,1.5,0,0,1,0-3,7.55,7.55,0,0,1,6,3,7.55,7.55,0,0,1,6-3h33.39a1.5,1.5,0,0,1,1.5,1.5v2.92h3.07a6.21,6.21,0,0,1,6.21,6.21V97.73A6.21,6.21,0,0,1,111.51,103.93Zm-42.51-3h42.51a3.21,3.21,0,0,0,3.21-3.2V43.08a3.21,3.21,0,0,0-3.21-3.21h-3.07V92.55a1.5,1.5,0,0,1-1.5,1.5H69ZM23.49,39.87a3.21,3.21,0,0,0-3.21,3.21V97.73a3.21,3.21,0,0,0,3.21,3.2H66V94.05H28.06a1.5,1.5,0,0,1-1.5-1.5V39.87ZM69,91.05h36.44V35.45H73.55A4.55,4.55,0,0,0,69,40ZM98.24,79.49h-22a1.5,1.5,0,0,1,0-3h22a1.5,1.5,0,0,1,0,3Zm-39.37,0h-22a1.5,1.5,0,0,1,0-3h22a1.5,1.5,0,0,1,0,3Zm39.37-8.33h-22a1.5,1.5,0,0,1,0-3h22a1.5,1.5,0,0,1,0,3Zm-39.37,0h-22a1.5,1.5,0,0,1,0-3h22a1.5,1.5,0,1,1,0,3Zm39.37-8.33h-22a1.5,1.5,0,0,1,0-3h22a1.5,1.5,0,0,1,0,3Zm-39.37,0h-22a1.5,1.5,0,0,1,0-3h22a1.5,1.5,0,0,1,0,3ZM98.24,54.5h-22a1.5,1.5,0,1,1,0-3h22a1.5,1.5,0,1,1,0,3Zm-39.37,0h-22a1.5,1.5,0,0,1,0-3h22a1.5,1.5,0,1,1,0,3Z"/><path class="cls-3" d="M46.56,44.37A10.43,10.43,0,1,1,54.2,41,10.43,10.43,0,0,1,46.56,44.37Zm0-17.85a7.43,7.43,0,1,0,0,14.85A7.43,7.43,0,0,0,54,34,7.44,7.44,0,0,0,46.56,26.52Z"/><rect class="cls-4" width="135" height="135"/><g class="cls-5"><path class="cls-6" d="M54.54,130.48H36.33a1.5,1.5,0,1,1,0-3H54.54a1.5,1.5,0,1,1,0,3Z"/></g><g class="cls-5"><path class="cls-7" d="M65.24,130.48H47a1.5,1.5,0,1,1,0-3h18.2a1.5,1.5,0,1,1,0,3Z"/></g><g class="cls-5"><path class="cls-7" d="M87.18,130.48H78.07a1.5,1.5,0,0,1,0-3h9.11a1.5,1.5,0,1,1,0,3Z"/></g><g class="cls-5"><path class="cls-7" d="M100,130.48a1.52,1.52,0,0,1-1.06-.44,1.5,1.5,0,0,1-.44-1.06,1.43,1.43,0,0,1,0-.29,1.69,1.69,0,0,1,.41-.77,1.47,1.47,0,0,1,1.64-.32,1.26,1.26,0,0,1,.26.13,2.11,2.11,0,0,1,.23.19,1.65,1.65,0,0,1,.41.77,1.43,1.43,0,0,1,0,.29A1.5,1.5,0,0,1,101,130a2.11,2.11,0,0,1-.23.19l-.26.14-.28.08A1.53,1.53,0,0,1,100,130.48Z"/></g><g class="cls-5"><path class="cls-7" d="M81.72,118.26H36.33a1.5,1.5,0,0,1,0-3H81.72a1.5,1.5,0,0,1,0,3Z"/></g><g class="cls-5"><path class="cls-8" d="M36.33,118.26a1.5,1.5,0,0,1-1.5-1.5,1.48,1.48,0,0,1,.44-1.06,1.55,1.55,0,0,1,2.12,0,1.5,1.5,0,0,1,.44,1.06,1.52,1.52,0,0,1-.44,1.06A1.5,1.5,0,0,1,36.33,118.26Z"/></g><g class="cls-5"><path class="cls-6" d="M100,118.26H74.22a1.5,1.5,0,0,1,0-3H100a1.5,1.5,0,0,1,0,3Z"/></g></g></g></svg>