<svg xmlns="http://www.w3.org/2000/svg" viewBox="0 0 120 120"><defs><style>.cls-1{isolation:isolate;}.cls-2{fill:none;}.cls-3{fill:#28347d;}.cls-4{mix-blend-mode:multiply;}.cls-5{fill:#24a31a;}.cls-6{fill:#a2ce2a;}.cls-7{fill:#1f9254;}</style></defs><title>icon_ocensa_gobierno_corporativo_</title><g class="cls-1"><g id="Capa_1" data-name="Capa 1"><rect class="cls-2" width="120" height="120"/><path class="cls-3" d="M55.38,61.65a1.5,1.5,0,0,1-1.06-2.56l6.85-6.86a1.51,1.51,0,0,1,2.12,0,1.49,1.49,0,0,1,0,2.12l-6.85,6.86A1.53,1.53,0,0,1,55.38,61.65Z"/><path class="cls-3" d="M85.2,66.43a29.14,29.14,0,1,1,29.36-29.14A29.29,29.29,0,0,1,85.2,66.43Zm0-55.27a26.14,26.14,0,1,0,26.36,26.13A26.28,26.28,0,0,0,85.2,11.16Z"/><path class="cls-3" d="M65,90.8a1.51,1.51,0,0,1-1.49-1.29l-2-14.45a9.33,9.33,0,0,0-7.34-7.82l-17-3.51-17,3.51a9.32,9.32,0,0,0-7.33,7.82l-2,14.45a1.52,1.52,0,0,1-1.7,1.28A1.5,1.5,0,0,1,7.82,89.1l2-14.45a12.33,12.33,0,0,1,9.7-10.35l17.32-3.57.1,0a12.31,12.31,0,0,1-12.09-12.3V41a12.3,12.3,0,1,1,24.6,0v7.45a12.32,12.32,0,0,1-12.09,12.3l.09,0L54.8,64.3a12.34,12.34,0,0,1,9.7,10.35l2,14.45a1.49,1.49,0,0,1-1.28,1.69ZM37.17,31.66a9.31,9.31,0,0,0-9.3,9.3v7.45a9.3,9.3,0,1,0,18.6,0V41A9.31,9.31,0,0,0,37.17,31.66Z"/><g class="cls-4"><path class="cls-5" d="M24.23,111.84H6.94a1.5,1.5,0,1,1,0-3H24.23a1.5,1.5,0,0,1,0,3Z"/></g><g class="cls-4"><path class="cls-6" d="M34.4,111.84H17.11a1.5,1.5,0,0,1,0-3H34.4a1.5,1.5,0,1,1,0,3Z"/></g><g class="cls-4"><path class="cls-6" d="M55.24,111.84H46.59a1.5,1.5,0,0,1,0-3h8.65a1.5,1.5,0,1,1,0,3Z"/></g><g class="cls-4"><path class="cls-6" d="M67.4,111.84a1.46,1.46,0,0,1-.58-.11,1.29,1.29,0,0,1-.48-.33,1.58,1.58,0,0,1-.33-.48,1.62,1.62,0,0,1-.11-.58,1.5,1.5,0,0,1,0-.29c0-.09,0-.19.08-.28a2.15,2.15,0,0,1,.14-.26,2.11,2.11,0,0,1,.19-.23,1.57,1.57,0,0,1,2.12,0,1.52,1.52,0,0,1,.44,1.06,1.5,1.5,0,0,1-.44,1.06,1.33,1.33,0,0,1-.49.33A1.38,1.38,0,0,1,67.4,111.84Z"/></g><g class="cls-4"><path class="cls-6" d="M50.05,100.23H6.94a1.5,1.5,0,1,1,0-3H50.05a1.5,1.5,0,0,1,0,3Z"/></g><g class="cls-4"><path class="cls-7" d="M6.94,100.23a1.5,1.5,0,0,1-1.06-.44,1.46,1.46,0,0,1-.44-1.06,1.36,1.36,0,0,1,0-.29,2.29,2.29,0,0,1,.08-.28,2.15,2.15,0,0,1,.14-.26,1.37,1.37,0,0,1,.19-.23l.22-.19a1.58,1.58,0,0,1,.26-.13,1.52,1.52,0,0,1,.28-.09,1.47,1.47,0,0,1,.59,0,1.31,1.31,0,0,1,.28.09,1.26,1.26,0,0,1,.26.13,2.11,2.11,0,0,1,.23.19,2.11,2.11,0,0,1,.19.23,1.26,1.26,0,0,1,.13.26,1.31,1.31,0,0,1,.09.28,1.36,1.36,0,0,1,0,.29,1.5,1.5,0,0,1-1.5,1.5Z"/></g><g class="cls-4"><path class="cls-5" d="M67.4,100.23H42.93a1.5,1.5,0,1,1,0-3H67.4a1.5,1.5,0,0,1,0,3Z"/></g><path class="cls-3" d="M98.25,53.59H68.65a2.33,2.33,0,0,1-2.31-2.24l-.59-18a2.21,2.21,0,0,1,2-2.28v-5.4A4.42,4.42,0,0,1,68,24l.8-1.86A2,2,0,0,1,70.64,21H81.38a1.92,1.92,0,0,1,1.78,1.31l.42,1.37H103a1.59,1.59,0,0,1,1.59,1.69l-4,26h0A2.34,2.34,0,0,1,98.25,53.59ZM68,33a.23.23,0,0,0-.17.07.22.22,0,0,0-.06.16l.59,18a.32.32,0,0,0,.31.3h29.6a.34.34,0,0,0,.32-.31v-.13l.87-22.69a.21.21,0,0,0-.22-.22h-8.6a.92.92,0,0,0-.71.47l0,.15a.24.24,0,0,0,0,.08l-.29,1.42,0,.12c-.23.66-1.18,2.55-2.62,2.55Zm22.64-6.79h8.6a2.19,2.19,0,0,1,1.6.68,2.15,2.15,0,0,1,.61,1.62l-.2,5.4,1.28-8.26h-19a1.92,1.92,0,0,1-1.78-1.31L81.28,23H70.64l-.77,1.83a2.85,2.85,0,0,0-.17.82V31h.87V28.7a1,1,0,0,1,1-1H88.19A2.88,2.88,0,0,1,90.62,26.24Zm-3.79,4.81ZM72.57,31H86.86a2.91,2.91,0,0,0,.77-1.13l0-.2H72.57Zm8.68-8.13Z"/></g></g></svg>