<?xml version="1.0" encoding="utf-8"?>
<!-- Generator: Adobe Illustrator 24.0.2, SVG Export Plug-In . SVG Version: 6.00 Build 0)  -->
<svg version="1.1" id="Capa_1" xmlns="http://www.w3.org/2000/svg" xmlns:xlink="http://www.w3.org/1999/xlink" x="0px" y="0px"
	 viewBox="0 0 120 120" style="enable-background:new 0 0 120 120;" xml:space="preserve">
<style type="text/css">
	.st0{fill:#95A6B1;}
	.st1{fill:#FFEA27;}
	.st2{fill:none;}
	.st3{fill:#F4D314;}
</style>
<title>03-icon_ocenza_home_componente_ambiental</title>
<g>
	<g id="Capa_1_1_">
		<path class="st0" d="M98.2,82H85.7c-1.1,0-2-0.9-2-2s0.9-2,2-2h10.5v-4.4H84.7c-1.1,0-2-0.9-2-2s0.9-2,2-2h13.5c1.1,0,2,0.9,2,2
			V80C100.2,81.1,99.3,82,98.2,82z"/>
		<path class="st0" d="M114,82h-7.9c-1.1,0-2-0.9-2-2s0.9-2,2-2h5.9v-4.5h-5.9c-1.1,0-2-0.9-2-2s0.9-2,2-2h7.9c1.1,0,2,0.9,2,2V80
			C116,81.1,115.1,82,114,82z"/>
		<path class="st0" d="M106.1,86h-7.9c-1.1,0-2-0.9-2-2V67.5c0-1.1,0.9-2,2-2h7.9c1.1,0,2,0.9,2,2V84C108.1,85.1,107.2,86,106.1,86z
			 M100.2,82h3.9V69.5h-3.9V82z"/>
		<path class="st1" d="M13.4,33.9c-5.2,0-9.4-4.2-9.4-9.4c0-5.2,4.2-9.4,9.4-9.4c5.2,0,9.4,4.2,9.4,9.4c0,2.4-0.9,4.6-2.5,6.4
			C18.5,32.8,16,33.9,13.4,33.9z M13.4,19.1c-3,0-5.4,2.4-5.4,5.4s2.4,5.4,5.4,5.4c3,0,5.4-2.4,5.4-5.4c0,0,0,0,0,0
			C18.8,21.5,16.4,19.1,13.4,19.1z"/>
		<path class="st0" d="M85.7,90.8H13c-1.1,0-2-0.9-2-2V38.9c0.2-1.1,1.3-1.8,2.4-1.6c0.8,0.2,1.4,0.8,1.6,1.6v48h68.8V52.1
			c-0.2-1.1,0.5-2.1,1.6-2.3s2.1,0.5,2.3,1.6c0,0.2,0,0.5,0,0.7v36.7C87.6,89.9,86.8,90.8,85.7,90.8z"/>
		<path class="st0" d="M85.7,54.1c-1.1,0-2-0.9-2-2V25.7H27.5c-1.1,0.2-2.1-0.5-2.3-1.6s0.5-2.1,1.6-2.3c0.2,0,0.5,0,0.7,0h58.2
			c1.1,0,2,0.9,2,2v28.3C87.6,53.2,86.8,54.1,85.7,54.1z"/>
		<path class="st0" d="M85.7,33.5c-1.1,0-2-0.9-2-2v-6.6c-0.2-1.1,0.5-2.1,1.6-2.3s2.1,0.5,2.3,1.6c0,0.2,0,0.5,0,0.7v6.6
			C87.6,32.6,86.7,33.4,85.7,33.5z"/>
		<path class="st0" d="M32.9,33.5c-1.1,0-2-0.9-2-2v-6.6c-0.2-1.1,0.5-2.1,1.6-2.3s2.1,0.5,2.3,1.6c0,0.2,0,0.5,0,0.7v6.6
			C34.8,32.6,34,33.4,32.9,33.5z"/>
		<path class="st0" d="M47.5,33.5c-1.1,0-2-0.9-2-2v-6.6c-0.2-1.1,0.5-2.1,1.6-2.3s2.1,0.5,2.3,1.6c0,0.2,0,0.5,0,0.7v6.6
			C49.4,32.6,48.6,33.4,47.5,33.5z"/>
		<path class="st0" d="M69.4,33.5c-1.1,0-2-0.9-2-2v-6.6c-0.2-1.1,0.5-2.1,1.6-2.3s2.1,0.5,2.3,1.6c0,0.2,0,0.5,0,0.7v6.6
			C71.3,32.6,70.5,33.4,69.4,33.5z"/>
		<path class="st0" d="M92,33.6H27.5c-1.1,0.2-2.1-0.5-2.3-1.6s0.5-2.1,1.6-2.3c0.2,0,0.5,0,0.7,0H92c1.1,0.2,1.8,1.3,1.6,2.3
			C93.4,32.8,92.8,33.5,92,33.6z"/>
		<path class="st0" d="M22.9,52.9H13c-1.1-0.2-1.8-1.3-1.5-2.4c0.2-0.7,0.8-1.3,1.5-1.5h9.9c1.1-0.2,2.1,0.5,2.3,1.6
			s-0.5,2.1-1.6,2.3C23.4,53,23.1,53,22.9,52.9L22.9,52.9z"/>
		<path class="st0" d="M84.8,52.9H36.5c-1.1,0.2-2.1-0.5-2.3-1.6s0.5-2.1,1.6-2.3c0.2,0,0.5,0,0.7,0h48.3c1.1-0.2,2.1,0.5,2.3,1.6
			s-0.5,2.1-1.6,2.3C85.3,52.9,85.1,52.9,84.8,52.9z"/>
		<path class="st0" d="M22.9,73.1H13c-1.1-0.2-1.8-1.3-1.6-2.3c0.2-0.8,0.8-1.4,1.6-1.6h9.9c1.1-0.2,2.1,0.5,2.3,1.6
			s-0.5,2.1-1.6,2.3C23.4,73.1,23.1,73.1,22.9,73.1z"/>
		<path class="st0" d="M85.7,73.1H36.5c-1.1,0.2-2.1-0.5-2.3-1.6s0.5-2.1,1.6-2.3c0.2,0,0.5,0,0.7,0h49.2c1.1-0.2,2.1,0.5,2.3,1.6
			s-0.5,2.1-1.6,2.3C86.2,73.1,85.9,73.1,85.7,73.1z"/>
		<rect class="st2" width="120" height="120"/>
		<path class="st1" d="M57.1,115.9H38.9c-1.1,0-2-0.9-2-2s0.9-2,2-2h18.2c1.1,0,2,0.9,2,2S58.2,115.9,57.1,115.9z"/>
		<path class="st1" d="M79,115.9h-9.1c-1.1,0-2-0.9-2-2s0.9-2,2-2H79c1.1,0,2,0.9,2,2S80.1,115.9,79,115.9z"/>
		<path class="st1" d="M91.8,115.9c-0.5,0-1-0.2-1.4-0.6c-0.2-0.2-0.3-0.4-0.4-0.6c-0.3-0.7-0.1-1.6,0.4-2.2c0.8-0.8,2-0.8,2.8,0
			c0.8,0.8,0.8,2,0,2.8c-0.1,0.1-0.2,0.2-0.3,0.3c-0.1,0.1-0.2,0.1-0.3,0.2C92.3,115.8,92.1,115.9,91.8,115.9z"/>
		<g>
			<path class="st3" d="M46.4,115.9H28.2c-1.1,0-2-0.9-2-2s0.9-2,2-2h18.2c1.1,0,2,0.9,2,2S47.5,115.9,46.4,115.9z"/>
		</g>
		<path class="st1" d="M73.6,103.6H28.2c-1.1,0-2-0.9-2-2s0.9-2,2-2h45.4c1.1,0,2,0.9,2,2S74.7,103.6,73.6,103.6z"/>
		<g>
			<path class="st3" d="M28.2,103.6c-0.5,0-1-0.2-1.4-0.6c-0.2-0.2-0.3-0.4-0.4-0.7c-0.1-0.2-0.2-0.5-0.1-0.8c0-0.5,0.2-1,0.6-1.4
				l0.3-0.2c0.1-0.1,0.2-0.1,0.3-0.2c0.1-0.1,0.3-0.1,0.4-0.1c0.3-0.1,0.5-0.1,0.8,0c0.1,0,0.3,0.1,0.4,0.1c0.1,0,0.2,0.1,0.4,0.2
				c0.1,0.1,0.2,0.2,0.3,0.2c0.1,0.1,0.2,0.2,0.2,0.3c0.1,0.1,0.1,0.2,0.2,0.3c0,0.1,0.1,0.2,0.1,0.4c0,0.1,0,0.3,0,0.4
				c0,0.3-0.1,0.5-0.1,0.8c-0.1,0.2-0.3,0.5-0.4,0.7C29.2,103.4,28.7,103.6,28.2,103.6z"/>
		</g>
		<g>
			<path class="st3" d="M91.8,103.6H66.1c-1.1,0-2-0.9-2-2s0.9-2,2-2h25.8c1.1,0,2,0.9,2,2S92.9,103.6,91.8,103.6z"/>
		</g>
	</g>
</g>
</svg>
