<?xml version="1.0" encoding="utf-8"?>
<!-- Generator: Adobe Illustrator 24.0.2, SVG Export Plug-In . SVG Version: 6.00 Build 0)  -->
<svg version="1.1" id="Capa_1" xmlns="http://www.w3.org/2000/svg" xmlns:xlink="http://www.w3.org/1999/xlink" x="0px" y="0px"
	 viewBox="0 0 120 120" style="enable-background:new 0 0 120 120;" xml:space="preserve">
<style type="text/css">
	.st0{fill:none;}
	.st1{fill:#FFEA27;}
	.st2{fill:#F4D314;}
	.st3{fill:#95A6B1;}
</style>
<title>02-icon_ocenza_home_linea_de_tiempo</title>
<g>
	<g id="Capa_1_1_">
		<rect class="st0" width="120" height="120"/>
		<path class="st1" d="M57.1,115.9H38.9c-1.1,0-2-0.9-2-2s0.9-2,2-2h18.2c1.1,0,2,0.9,2,2S58.2,115.9,57.1,115.9z"/>
		<path class="st1" d="M79,115.9h-9.1c-1.1,0-2-0.9-2-2s0.9-2,2-2H79c1.1,0,2,0.9,2,2S80.1,115.9,79,115.9z"/>
		<path class="st1" d="M91.8,115.9c-0.5,0-1-0.2-1.4-0.6c-0.2-0.2-0.3-0.4-0.4-0.6c-0.3-0.7-0.1-1.6,0.4-2.2c0.8-0.8,2-0.8,2.8,0
			c0.8,0.8,0.8,2,0,2.8c-0.1,0.1-0.2,0.2-0.3,0.3c-0.1,0.1-0.2,0.1-0.3,0.2C92.3,115.8,92.1,115.9,91.8,115.9z"/>
		<g>
			<path class="st2" d="M46.4,115.9H28.2c-1.1,0-2-0.9-2-2s0.9-2,2-2h18.2c1.1,0,2,0.9,2,2S47.5,115.9,46.4,115.9z"/>
		</g>
		<path class="st1" d="M73.6,103.6H28.2c-1.1,0-2-0.9-2-2s0.9-2,2-2h45.4c1.1,0,2,0.9,2,2S74.7,103.6,73.6,103.6z"/>
		<g>
			<path class="st2" d="M28.2,103.6c-0.5,0-1-0.2-1.4-0.6c-0.2-0.2-0.3-0.4-0.4-0.7c-0.1-0.2-0.2-0.5-0.1-0.8c0-0.5,0.2-1,0.6-1.4
				l0.3-0.2c0.1-0.1,0.2-0.1,0.3-0.2c0.1-0.1,0.3-0.1,0.4-0.1c0.3-0.1,0.5-0.1,0.8,0c0.1,0,0.3,0.1,0.4,0.1c0.1,0,0.2,0.1,0.4,0.2
				c0.1,0.1,0.2,0.2,0.3,0.2c0.1,0.1,0.2,0.2,0.2,0.3c0.1,0.1,0.1,0.2,0.2,0.3c0,0.1,0.1,0.2,0.1,0.4c0,0.1,0,0.3,0,0.4
				c0,0.3-0.1,0.5-0.1,0.8c-0.1,0.2-0.3,0.5-0.4,0.7C29.2,103.4,28.7,103.6,28.2,103.6z"/>
		</g>
		<g>
			<path class="st2" d="M91.8,103.6H66.1c-1.1,0-2-0.9-2-2s0.9-2,2-2h25.8c1.1,0,2,0.9,2,2S92.9,103.6,91.8,103.6z"/>
		</g>
		<path class="st2" d="M21.4,69.5c-3.7,0-7.1-2.2-8.6-5.5c-2.2-4.8-0.1-10.4,4.7-12.6s10.4-0.1,12.6,4.7l0,0l0,0
			c2.2,4.8,0.1,10.4-4.7,12.6c0,0,0,0,0,0C24.1,69.2,22.8,69.5,21.4,69.5z M21.4,54.5c-0.8,0-1.6,0.2-2.3,0.5
			c-2.8,1.3-4,4.5-2.7,7.3c0.6,1.3,1.7,2.3,3.1,2.8c2.8,1.1,6-0.4,7.1-3.2c0.5-1.4,0.5-2.9-0.2-4.2l0,0c-0.6-1.3-1.7-2.4-3.1-2.9
			C22.7,54.6,22.1,54.5,21.4,54.5L21.4,54.5z"/>
		<path class="st3" d="M102.7,91.6H21.4c-1.1,0-2-0.9-2-2V73.8c-0.2-1.1,0.5-2.1,1.6-2.3s2.1,0.5,2.3,1.6c0,0.2,0,0.5,0,0.7v13.8
			h77.3V22.7H23.4v23.8c0.2,1.1-0.5,2.1-1.6,2.3s-2.1-0.5-2.3-1.6c0-0.2,0-0.5,0-0.7V20.8c0-1.1,0.9-2,2-2h81.2c1.1,0,2,0.9,2,2
			v68.8C104.7,90.7,103.8,91.6,102.7,91.6z"/>
		<path class="st3" d="M46.8,65.9H35.4c-1.1-0.2-1.8-1.3-1.6-2.3c0.2-0.8,0.8-1.4,1.6-1.6h11.5c1.1-0.2,2.1,0.5,2.3,1.6
			c0.2,1.1-0.5,2.1-1.6,2.3C47.3,65.9,47.1,65.9,46.8,65.9z"/>
		<path class="st3" d="M67.8,65.9H56.3c-1.1-0.2-1.8-1.3-1.6-2.3c0.2-0.8,0.8-1.4,1.6-1.6h11.5c1.1-0.2,2.1,0.5,2.3,1.6
			c0.2,1.1-0.5,2.1-1.6,2.3C68.3,65.9,68,65.9,67.8,65.9z"/>
		<path class="st3" d="M88.7,65.9H77.3c-1.1,0.2-2.1-0.5-2.3-1.6c-0.2-1.1,0.5-2.1,1.6-2.3c0.2,0,0.5,0,0.7,0h11.5
			c1.1,0.2,1.8,1.3,1.6,2.3C90.2,65.1,89.5,65.7,88.7,65.9z"/>
		<path class="st3" d="M46.8,79.3H35.4c-1.1-0.2-1.8-1.3-1.6-2.3c0.2-0.8,0.8-1.4,1.6-1.6h11.5c1.1-0.2,2.1,0.5,2.3,1.6
			s-0.5,2.1-1.6,2.3C47.3,79.4,47.1,79.4,46.8,79.3z"/>
		<path class="st3" d="M67.8,79.3H56.3c-1.1-0.2-1.8-1.3-1.6-2.3c0.2-0.8,0.8-1.4,1.6-1.6h11.5c1.1-0.2,2.1,0.5,2.3,1.6
			s-0.5,2.1-1.6,2.3C68.3,79.4,68,79.4,67.8,79.3z"/>
		<path class="st3" d="M88.7,79.3H77.3c-1.1,0.2-2.1-0.5-2.3-1.6s0.5-2.1,1.6-2.3c0.2,0,0.5,0,0.7,0h11.5c1.1,0.2,1.8,1.3,1.6,2.3
			C90.2,78.5,89.5,79.2,88.7,79.3z"/>
		<path class="st3" d="M46.8,52.5H35.4c-1.1-0.2-1.8-1.3-1.6-2.3c0.2-0.8,0.8-1.4,1.6-1.6h11.5c1.1-0.2,2.1,0.5,2.3,1.6
			s-0.5,2.1-1.6,2.3C47.3,52.5,47.1,52.5,46.8,52.5z"/>
		<path class="st3" d="M67.8,52.5H56.3c-1.1-0.2-1.8-1.3-1.6-2.3c0.2-0.8,0.8-1.4,1.6-1.6h11.5c1.1-0.2,2.1,0.5,2.3,1.6
			s-0.5,2.1-1.6,2.3C68.3,52.5,68,52.5,67.8,52.5z"/>
		<path class="st3" d="M88.7,52.5H77.3c-1.1,0.2-2.1-0.5-2.3-1.6s0.5-2.1,1.6-2.3c0.2,0,0.5,0,0.7,0h11.5c1.1,0.2,1.8,1.3,1.6,2.3
			C90.2,51.7,89.5,52.3,88.7,52.5z"/>
		<path class="st3" d="M102.7,41.3H22.6c-1.1,0.2-2.1-0.5-2.3-1.6s0.5-2.1,1.6-2.3c0.2,0,0.5,0,0.7,0h80.1c1.1,0.2,1.8,1.3,1.6,2.3
			C104.1,40.5,103.5,41.1,102.7,41.3z"/>
		<path class="st3" d="M35.4,29.7c-1.1,0-2-0.9-2-2V13.8c-0.2-1.1,0.5-2.1,1.6-2.3c1.1-0.2,2.1,0.5,2.3,1.6c0,0.2,0,0.5,0,0.7v13.9
			C37.3,28.8,36.4,29.7,35.4,29.7z"/>
		<path class="st3" d="M54,29.7c-1.1,0-2-0.9-2-2V13.8c-0.2-1.1,0.5-2.1,1.6-2.3c1.1-0.2,2.1,0.5,2.3,1.6c0,0.2,0,0.5,0,0.7v13.9
			C55.9,28.8,55.1,29.7,54,29.7z"/>
		<path class="st3" d="M72.6,29.7c-1.1,0-2-0.9-2-2V13.8c-0.2-1.1,0.5-2.1,1.6-2.3c1.1-0.2,2.1,0.5,2.3,1.6c0,0.2,0,0.5,0,0.7v13.9
			C74.5,28.8,73.7,29.7,72.6,29.7z"/>
		<path class="st3" d="M91.2,30c-1.1,0-2-0.9-2-2V14.1c-0.2-1.1,0.5-2.1,1.6-2.3c1.1-0.2,2.1,0.5,2.3,1.6c0,0.2,0,0.5,0,0.7v13.9
			C93.1,29.1,92.3,30,91.2,30z"/>
	</g>
</g>
</svg>
