<svg width="42" height="42" viewBox="0 0 42 42" fill="none" xmlns="http://www.w3.org/2000/svg">
<path d="M18.48 34.64C16.2875 34.6456 14.1157 34.2163 12.0902 33.3769C10.0647 32.5376 8.22587 31.3048 6.68001 29.75C6.49419 29.5642 6.34679 29.3436 6.24623 29.1008C6.14566 28.858 6.0939 28.5978 6.0939 28.335C6.0939 28.0722 6.14566 27.812 6.24623 27.5692C6.34679 27.3264 6.49419 27.1058 6.68001 26.92C6.86584 26.7342 7.08644 26.5868 7.32922 26.4862C7.57201 26.3857 7.83223 26.3339 8.09502 26.3339C8.3578 26.3339 8.61802 26.3857 8.86081 26.4862C9.10359 26.5868 9.32419 26.7342 9.51002 26.92C11.9086 29.1874 15.0967 30.4301 18.397 30.3842C21.6973 30.3382 24.8496 29.0072 27.1842 26.674C29.5187 24.3408 30.8514 21.1892 30.8992 17.8889C30.947 14.5887 29.706 11.3998 27.44 9C27.0647 8.62472 26.8539 8.11573 26.8539 7.585C26.8539 7.05428 27.0647 6.54529 27.44 6.17C27.8153 5.79472 28.3243 5.58389 28.855 5.58389C29.3857 5.58389 29.8947 5.79472 30.27 6.17C32.5961 8.50456 34.1789 11.4755 34.819 14.7083C35.4591 17.9411 35.1278 21.291 33.8669 24.3358C32.606 27.3806 30.4719 29.9839 27.7337 31.8177C24.9954 33.6514 21.7756 34.6335 18.48 34.64V34.64Z" fill="white"/>
<path d="M28.86 9.56999C28.3298 9.57573 27.8191 9.37071 27.44 8.99999C25.8144 7.36548 23.7731 6.20626 21.5365 5.64757C19.3 5.08887 16.9533 5.15195 14.75 5.82999C14.2421 5.98515 13.6934 5.93218 13.2246 5.68276C12.7557 5.43334 12.4052 5.00788 12.25 4.49999C12.0949 3.9921 12.1478 3.44338 12.3972 2.97454C12.6467 2.5057 13.0721 2.15515 13.58 1.99999C16.4771 1.10849 19.5626 1.02477 22.5038 1.75787C25.445 2.49096 28.1302 4.01305 30.27 6.15999C30.456 6.34574 30.6035 6.56632 30.7041 6.80911C30.8048 7.05191 30.8566 7.31216 30.8566 7.57499C30.8566 7.83783 30.8048 8.09808 30.7041 8.34087C30.6035 8.58367 30.456 8.80425 30.27 8.98999C29.895 9.36191 29.3882 9.57042 28.86 9.56999V9.56999ZM8.09001 30.34C7.56043 30.3378 7.05336 30.1256 6.68001 29.75C3.57416 26.6575 1.81648 22.4628 1.79001 18.08C1.79001 17.5496 2.00072 17.0409 2.3758 16.6658C2.75087 16.2907 3.25958 16.08 3.79001 16.08C4.32044 16.08 4.82915 16.2907 5.20422 16.6658C5.57929 17.0409 5.79001 17.5496 5.79001 18.08C5.81157 21.4116 7.14864 24.5997 9.51001 26.95C9.79207 27.2297 9.98443 27.5871 10.0626 27.9766C10.1407 28.3661 10.1011 28.7701 9.94875 29.137C9.79642 29.5038 9.53827 29.8171 9.20724 30.0367C8.8762 30.2563 8.48726 30.3723 8.09001 30.37V30.34ZM39.25 40.73C38.7204 40.7278 38.2134 40.5156 37.84 40.14L27.44 29.75C27.0647 29.3747 26.8539 28.8657 26.8539 28.335C26.8539 27.8043 27.0647 27.2953 27.44 26.92C27.8153 26.5447 28.3243 26.3339 28.855 26.3339C29.3857 26.3339 29.8947 26.5447 30.27 26.92L40.67 37.32C41.0425 37.6947 41.2516 38.2016 41.2516 38.73C41.2516 39.2584 41.0425 39.7653 40.67 40.14C40.4839 40.3272 40.2627 40.4757 40.019 40.5769C39.7753 40.6782 39.5139 40.7302 39.25 40.73Z" fill="white"/>
<path d="M6.52999 15C5.20176 15.0019 3.91339 14.5463 2.88163 13.7099C1.84988 12.8734 1.13769 11.7071 0.864878 10.4072C0.592068 9.10726 0.775287 7.75305 1.38371 6.57236C1.99213 5.39167 2.98863 4.45656 4.20557 3.92433C5.42251 3.3921 6.78562 3.29523 8.06559 3.65003C9.34556 4.00482 10.4643 4.78963 11.2335 5.87241C12.0028 6.9552 12.3757 8.26989 12.2894 9.59532C12.2032 10.9208 11.6631 12.176 10.76 13.15C10.2195 13.732 9.56507 14.1966 8.83736 14.5149C8.10965 14.8331 7.32425 14.9983 6.52999 15V15ZM6.52999 7.44C6.23515 7.44064 5.94509 7.5145 5.68586 7.65496C5.42663 7.79542 5.20635 7.99808 5.04481 8.24472C4.88326 8.49136 4.78551 8.77427 4.76034 9.06803C4.73517 9.36179 4.78337 9.65721 4.9006 9.92774C5.01782 10.1983 5.20042 10.4354 5.43198 10.618C5.66353 10.8005 5.9368 10.9226 6.22723 10.9734C6.51766 11.0242 6.81616 11.002 7.09591 10.9089C7.37566 10.8158 7.62791 10.6547 7.82999 10.44C8.14326 10.1043 8.31206 9.65898 8.29999 9.2C8.3 8.72964 8.11383 8.2784 7.78218 7.94487C7.45052 7.61134 7.00034 7.42264 6.52999 7.42V7.44Z" fill="#FFEA27"/>
</svg>
