<svg xmlns="http://www.w3.org/2000/svg" viewBox="0 0 135 135"><defs><style>.cls-1{isolation:isolate;}.cls-2{fill:#28347d;}.cls-3{fill:#24a31a;}.cls-4{fill:none;}.cls-5{mix-blend-mode:multiply;}.cls-6{fill:#19a500;}.cls-7{fill:#a2ce2a;}.cls-8{fill:#1f9254;}</style></defs><title>icon_ocensa_gobierno_corporativo_</title><g class="cls-1"><g id="Capa_1" data-name="Capa 1"><path class="cls-2" d="M74.29,66a1.51,1.51,0,0,1-1.49-1.3l-.45-3.44a1.06,1.06,0,0,0-.84-.9l-3.81-.81-3.83.76a1.09,1.09,0,0,0-.85.9l-.5,3.43a1.5,1.5,0,1,1-3-.43l.49-3.44a4.1,4.1,0,0,1,3.23-3.4l1.16-.23a4,4,0,0,1-.79-2.43V53a4.07,4.07,0,0,1,4.07-4h0a4.07,4.07,0,0,1,4,4.09v1.77A4,4,0,0,1,71,57.21l1.15.24a4.09,4.09,0,0,1,3.19,3.44l.46,3.44A1.51,1.51,0,0,1,74.49,66Zm-6.56-14.1A1.08,1.08,0,0,0,66.66,53v1.77h0a1.07,1.07,0,0,0,.31.76,1.12,1.12,0,0,0,.76.32h0a1.08,1.08,0,0,0,1.07-1.07V53a1.06,1.06,0,0,0-1.06-1.07Zm-2.58,2.82h0Z"/><path class="cls-2" d="M67.67,73.3A14.52,14.52,0,1,1,82.18,58.78,14.54,14.54,0,0,1,67.67,73.3Zm0-26A11.52,11.52,0,1,0,79.18,58.78,11.54,11.54,0,0,0,67.67,47.26Z"/><path class="cls-2" d="M117.74,43.46a1.51,1.51,0,0,1-1.49-1.31l-.46-3.44a1.08,1.08,0,0,0-.83-.9L111.14,37l-3.82.77a1.09,1.09,0,0,0-.85.89L106,42.1a1.5,1.5,0,0,1-3-.44l.5-3.43a4.07,4.07,0,0,1,3.23-3.4l1.16-.24a4.07,4.07,0,0,1-.79-2.42h0V30.39a4.06,4.06,0,0,1,4.07-4h0a4.07,4.07,0,0,1,4,4.09v1.78a4,4,0,0,1-.82,2.41l1.16.25a4.07,4.07,0,0,1,3.19,3.44l.46,3.44a1.5,1.5,0,0,1-1.29,1.68ZM110.1,32.19a1.06,1.06,0,0,0,1.06,1.07h0a1.07,1.07,0,0,0,1.07-1.06V30.43a1.08,1.08,0,0,0-1.07-1.08h0a1.08,1.08,0,0,0-1.07,1.06Z"/><path class="cls-2" d="M111.11,50.72A14.52,14.52,0,1,1,125.63,36.2,14.53,14.53,0,0,1,111.11,50.72Zm0-26A11.52,11.52,0,1,0,122.63,36.2,11.52,11.52,0,0,0,111.11,24.69Z"/><path class="cls-2" d="M111.63,85.24a1.51,1.51,0,0,1-1.49-1.3l-.45-3.44a1.09,1.09,0,0,0-.84-.91L105,78.78l-3.82.77a1.09,1.09,0,0,0-.85.89l-.5,3.44a1.5,1.5,0,0,1-1.7,1.27,1.52,1.52,0,0,1-1.27-1.71l.5-3.43a4.07,4.07,0,0,1,3.23-3.4l1.16-.23A4.11,4.11,0,0,1,101,74h0V72.17a4.08,4.08,0,0,1,4.07-4h0A4.09,4.09,0,0,1,108,69.34a4,4,0,0,1,1.17,2.88V74a4.11,4.11,0,0,1-.81,2.41l1.15.25a4.09,4.09,0,0,1,3.19,3.44l.46,3.44a1.5,1.5,0,0,1-1.29,1.68ZM104,74A1.07,1.07,0,0,0,105.06,75h0A1.06,1.06,0,0,0,106.13,74V72.21a1.08,1.08,0,0,0-1.06-1.08h0a1.06,1.06,0,0,0-.75.31,1.11,1.11,0,0,0-.32.75Z"/><path class="cls-2" d="M105,92.5A14.52,14.52,0,1,1,119.52,78,14.53,14.53,0,0,1,105,92.5Zm0-26A11.52,11.52,0,1,0,116.52,78,11.52,11.52,0,0,0,105,66.47Z"/><path class="cls-2" d="M30.51,60.6A1.49,1.49,0,0,1,29,59.3l-.46-3.44a1.07,1.07,0,0,0-.84-.9l-3.81-.81-3.83.77a1.06,1.06,0,0,0-.85.89l-.49,3.43a1.5,1.5,0,1,1-3-.43l.5-3.43A4.07,4.07,0,0,1,19.5,52l1.16-.23a4.07,4.07,0,0,1-.79-2.42h0l0-1.78a4,4,0,0,1,1.2-2.87A4.07,4.07,0,0,1,28,47.59v1.77a4,4,0,0,1-.81,2.42l1.15.24a4.1,4.1,0,0,1,3.19,3.45L32,58.91a1.5,1.5,0,0,1-1.29,1.68ZM22.87,49.33a1.08,1.08,0,0,0,1.07,1.08h0A1.07,1.07,0,0,0,25,49.35V47.57A1.06,1.06,0,0,0,24,46.5h0a1.06,1.06,0,0,0-.75.31,1,1,0,0,0-.31.75Z"/><path class="cls-2" d="M23.89,67.87A14.52,14.52,0,1,1,38.4,53.35,14.53,14.53,0,0,1,23.89,67.87Zm0-26A11.52,11.52,0,1,0,35.4,53.35,11.54,11.54,0,0,0,23.89,41.83Z"/><path class="cls-2" d="M53.8,99.26A1.49,1.49,0,0,1,52.32,98l-.46-3.44a1.07,1.07,0,0,0-.84-.9l-3.81-.81-3.82.77a1,1,0,0,0-.85.89L42,97.9a1.5,1.5,0,0,1-3-.43l.5-3.43a4.08,4.08,0,0,1,3.23-3.41L44,90.4A4,4,0,0,1,43.17,88h0V86.2a4.06,4.06,0,0,1,4.07-4h0a4.08,4.08,0,0,1,4,4.09l0,1.77a4,4,0,0,1-.81,2.42l1.16.24a4.06,4.06,0,0,1,3.18,3.44l.46,3.45A1.49,1.49,0,0,1,54,99.25ZM46.17,88a1.07,1.07,0,1,0,2.13,0l0-1.78a1.07,1.07,0,0,0-1.07-1.07,1,1,0,0,0-.75.31,1,1,0,0,0-.32.75Z"/><path class="cls-2" d="M47.18,106.53A14.52,14.52,0,1,1,61.7,92,14.53,14.53,0,0,1,47.18,106.53Zm0-26A11.52,11.52,0,1,0,58.7,92,11.54,11.54,0,0,0,47.18,80.49Z"/><path class="cls-2" d="M65.14,47.5a1.49,1.49,0,0,1-1.47-1.22l-3-15.61a1.5,1.5,0,1,1,2.94-.57l3,15.62a1.49,1.49,0,0,1-1.19,1.75A1.33,1.33,0,0,1,65.14,47.5Z"/><path class="cls-2" d="M78.87,53.58a1.5,1.5,0,0,1-.7-2.83l20.17-10.6a1.5,1.5,0,0,1,1.4,2.66L79.57,53.41A1.5,1.5,0,0,1,78.87,53.58Z"/><path class="cls-2" d="M93.59,73a1.51,1.51,0,0,1-.65-.15l-14.26-7A1.5,1.5,0,0,1,80,63.24l14.26,6.95A1.5,1.5,0,0,1,93.59,73Z"/><path class="cls-2" d="M53.63,82.12a1.47,1.47,0,0,1-.83-.25,1.5,1.5,0,0,1-.42-2.08L59.54,69A1.5,1.5,0,1,1,62,70.65l-7.16,10.8A1.52,1.52,0,0,1,53.63,82.12Z"/><path class="cls-2" d="M54.7,58.77h-.21L36.58,56.34a1.49,1.49,0,0,1-1.28-1.68A1.51,1.51,0,0,1,37,53.37l17.9,2.41a1.5,1.5,0,0,1-.19,3Z"/><path class="cls-2" d="M66.27,24.53a1.51,1.51,0,0,1-1.49-1.31l-.46-3.44a1.06,1.06,0,0,0-.83-.9l-3.82-.81-3.82.77a1.06,1.06,0,0,0-.85.89l-.5,3.44a1.5,1.5,0,0,1-3-.44L52,19.3a4.07,4.07,0,0,1,3.23-3.4l1.16-.24a4.07,4.07,0,0,1-.79-2.42h0V11.46a4.09,4.09,0,0,1,1.21-2.87,4.19,4.19,0,0,1,2.88-1.17,4.08,4.08,0,0,1,4.05,4.09v1.77A4.05,4.05,0,0,1,63,15.7l1.16.25a4.07,4.07,0,0,1,3.19,3.44l.46,3.44a1.5,1.5,0,0,1-1.29,1.68ZM58.63,13.26a1.08,1.08,0,0,0,1.06,1.07h0a1.07,1.07,0,0,0,1.07-1.06V11.49a1.06,1.06,0,0,0-.31-.75,1,1,0,0,0-.75-.32h0a1.08,1.08,0,0,0-1.07,1.06Z"/><path class="cls-3" d="M59.64,31.06a14.52,14.52,0,1,1,10.64-4.64A14.54,14.54,0,0,1,59.64,31.06Zm0-26A11.52,11.52,0,1,0,71.16,16.54,11.53,11.53,0,0,0,59.64,5Z"/><rect class="cls-4" width="135" height="135"/><g class="cls-5"><path class="cls-6" d="M54.54,130.48H36.33a1.5,1.5,0,1,1,0-3H54.54a1.5,1.5,0,1,1,0,3Z"/></g><g class="cls-5"><path class="cls-7" d="M65.24,130.48H47a1.5,1.5,0,1,1,0-3h18.2a1.5,1.5,0,1,1,0,3Z"/></g><g class="cls-5"><path class="cls-7" d="M87.18,130.48H78.07a1.5,1.5,0,0,1,0-3h9.11a1.5,1.5,0,1,1,0,3Z"/></g><g class="cls-5"><path class="cls-7" d="M100,130.48a1.52,1.52,0,0,1-1.07-.44,1,1,0,0,1-.18-.23,1.23,1.23,0,0,1-.14-.25,1.61,1.61,0,0,1-.09-.29,1.36,1.36,0,0,1,0-.29,1.5,1.5,0,0,1,.44-1.06,2.11,2.11,0,0,1,.23-.19,1.26,1.26,0,0,1,.26-.13,1.49,1.49,0,0,1,2.07,1.38A1.5,1.5,0,0,1,101,130a1.37,1.37,0,0,1-.22.19l-.26.14-.28.08Z"/></g><g class="cls-5"><path class="cls-7" d="M81.72,118.26H36.33a1.5,1.5,0,0,1,0-3H81.72a1.5,1.5,0,0,1,0,3Z"/></g><g class="cls-5"><path class="cls-8" d="M36.33,118.26a1.36,1.36,0,0,1-.29,0,1.61,1.61,0,0,1-.54-.23,1,1,0,0,1-.23-.18,2.11,2.11,0,0,1-.19-.23,2.15,2.15,0,0,1-.14-.26,2.29,2.29,0,0,1-.08-.28,1.5,1.5,0,0,1,0-.29,1.53,1.53,0,0,1,0-.3c0-.09,0-.19.08-.28s.09-.17.14-.26a2,2,0,0,1,.19-.22,1.06,1.06,0,0,1,.23-.19l.26-.14a1.29,1.29,0,0,1,.28-.08,1.42,1.42,0,0,1,.58,0,1.29,1.29,0,0,1,.28.08l.26.14a1.37,1.37,0,0,1,.23.19,1.48,1.48,0,0,1,.44,1.06,1.5,1.5,0,0,1,0,.29,1.31,1.31,0,0,1-.09.28,1.26,1.26,0,0,1-.13.26,2.11,2.11,0,0,1-.19.23,1.65,1.65,0,0,1-.77.41A1.36,1.36,0,0,1,36.33,118.26Z"/></g><g class="cls-5"><path class="cls-6" d="M100,118.26H74.22a1.5,1.5,0,0,1,0-3H100a1.5,1.5,0,0,1,0,3Z"/></g></g></g></svg>