<svg width="46" height="62" viewBox="0 0 46 62" fill="none" xmlns="http://www.w3.org/2000/svg">
<g clip-path="url(#clip0)">
<path d="M34.5 16.4C33.9696 16.4 33.4609 16.1893 33.0858 15.8142C32.7107 15.4391 32.5 14.9304 32.5 14.4C32.4929 14.1372 32.5429 13.8759 32.6465 13.6342C32.7501 13.3925 32.9048 13.1762 33.1 13L37.9 8.2L33.1 3.4C32.91 3.21968 32.7586 3.00256 32.6552 2.76188C32.5518 2.52119 32.4985 2.26197 32.4985 2C32.4985 1.73804 32.5518 1.47882 32.6552 1.23813C32.7586 0.997439 32.91 0.780322 33.1 0.600002C33.2803 0.409976 33.4974 0.258649 33.7381 0.155238C33.9788 0.0518268 34.238 -0.00150299 34.5 -0.00150299C34.762 -0.00150299 35.0212 0.0518268 35.2619 0.155238C35.5026 0.258649 35.7197 0.409976 35.9 0.600002L42.1 6.8C42.29 6.98032 42.4413 7.19744 42.5448 7.43813C42.6482 7.67882 42.7015 7.93804 42.7015 8.2C42.7015 8.46197 42.6482 8.72119 42.5448 8.96188C42.4413 9.20256 42.29 9.41968 42.1 9.6L35.9 15.8C35.5307 16.1768 35.0275 16.3925 34.5 16.4Z" fill="#012969"/>
<path d="M38.2 9.9H29.7C29.1696 9.9 28.6609 9.68929 28.2858 9.31422C27.9107 8.93914 27.7 8.43043 27.7 7.9C27.7 7.36957 27.9107 6.86086 28.2858 6.48579C28.6609 6.11072 29.1696 5.9 29.7 5.9H38.2C38.7304 5.9 39.2391 6.11072 39.6142 6.48579C39.9893 6.86086 40.2 7.36957 40.2 7.9C40.2 8.43043 39.9893 8.93914 39.6142 9.31422C39.2391 9.68929 38.7304 9.9 38.2 9.9Z" fill="#012969"/>
<path d="M8.19999 16.4C7.67246 16.3925 7.16925 16.1768 6.79999 15.8L0.599994 9.6C0.409969 9.41968 0.258641 9.20256 0.15523 8.96188C0.0518192 8.72119 -0.00151062 8.46197 -0.00151062 8.2C-0.00151062 7.93804 0.0518192 7.67882 0.15523 7.43813C0.258641 7.19744 0.409969 6.98032 0.599994 6.8V6.8L6.79999 0.600002C6.98031 0.409976 7.19743 0.258649 7.43812 0.155238C7.67881 0.0518268 7.93803 -0.00150299 8.19999 -0.00150299C8.46196 -0.00150299 8.72118 0.0518268 8.96187 0.155238C9.20256 0.258649 9.41967 0.409976 9.59999 0.600002C9.79002 0.780322 9.94135 0.997439 10.0448 1.23813C10.1482 1.47882 10.2015 1.73804 10.2015 2C10.2015 2.26197 10.1482 2.52119 10.0448 2.76188C9.94135 3.00256 9.79002 3.21968 9.59999 3.4L4.79999 8.2L9.59999 13C9.79002 13.1803 9.94135 13.3974 10.0448 13.6381C10.1482 13.8788 10.2015 14.138 10.2015 14.4C10.2015 14.662 10.1482 14.9212 10.0448 15.1619C9.94135 15.4026 9.79002 15.6197 9.59999 15.8C9.23073 16.1768 8.72753 16.3925 8.19999 16.4V16.4Z" fill="#012969"/>
<path d="M12.9 10.4H4.39999C3.86956 10.4 3.36085 10.1893 2.98578 9.81422C2.61071 9.43914 2.39999 8.93043 2.39999 8.4C2.39999 7.86957 2.61071 7.36086 2.98578 6.98579C3.36085 6.61072 3.86956 6.4 4.39999 6.4H12.8C13.3304 6.4 13.8391 6.61072 14.2142 6.98579C14.5893 7.36086 14.8 7.86957 14.8 8.4C14.8107 8.65711 14.7697 8.91376 14.6792 9.15469C14.5888 9.39562 14.4509 9.61592 14.2737 9.80249C14.0964 9.98906 13.8835 10.1381 13.6475 10.2407C13.4115 10.3434 13.1573 10.3975 12.9 10.4Z" fill="#012969"/>
<path d="M31.1 31.5C30.5696 31.5 30.0609 31.2893 29.6858 30.9142C29.3107 30.5391 29.1 30.0304 29.1 29.5V20.7C29.0955 20.6485 29.073 20.6002 29.0364 20.5636C28.9998 20.527 28.9515 20.5045 28.9 20.5H27.2C27.1 20.5 27.1 20.5 27 20.6C26.9 20.7 26.9 20.7 26.9 20.8V29.1C26.9 29.6304 26.6893 30.1391 26.3142 30.5142C25.9391 30.8893 25.4304 31.1 24.9 31.1C24.3696 31.1 23.8609 30.8893 23.4858 30.5142C23.1107 30.1391 22.9 29.6304 22.9 29.1V20.8C22.9078 19.6885 23.3529 18.6248 24.1388 17.8388C24.9248 17.0529 25.9885 16.6079 27.1 16.6H28.8C29.9115 16.6079 30.9752 17.0529 31.7612 17.8388C32.5471 18.6248 32.9921 19.6885 33 20.8V29.6C33.0083 29.8518 32.9649 30.1026 32.8724 30.3369C32.7799 30.5712 32.6402 30.784 32.4621 30.9621C32.284 31.1402 32.0712 31.2799 31.8369 31.3724C31.6026 31.4649 31.3518 31.5084 31.1 31.5V31.5Z" fill="#012969"/>
<path d="M37.2 33.1C36.6696 33.1 36.1609 32.8893 35.7858 32.5142C35.4107 32.1391 35.2 31.6304 35.2 31.1V23.7C35.1955 23.6485 35.173 23.6002 35.1364 23.5636C35.0998 23.527 35.0515 23.5045 35 23.5H33.3C33.2 23.5 33.2 23.5 33.1 23.6C33.0457 23.6539 33.0106 23.7242 33 23.8V26.2C33 26.7304 32.7893 27.2391 32.4142 27.6142C32.0391 27.9893 31.5304 28.2 31 28.2C30.4696 28.2 29.9609 27.9893 29.5858 27.6142C29.2107 27.2391 29 26.7304 29 26.2V23.7C28.9873 22.5806 29.4188 21.5018 30.2 20.7C30.5832 20.2946 31.05 19.9773 31.568 19.7701C32.086 19.5629 32.6429 19.4707 33.2 19.5H35C36.1115 19.5079 37.1752 19.9529 37.9612 20.7388C38.7471 21.5248 39.1921 22.5885 39.2 23.7V31.2C39.1743 31.7129 38.9523 32.1963 38.58 32.55C38.2077 32.9037 37.7136 33.1006 37.2 33.1V33.1Z" fill="#012969"/>
<path d="M43.4 62H30.9L21.5 61.9C21.1556 61.8888 20.8195 61.7914 20.5225 61.6167C20.2255 61.442 19.9771 61.1956 19.8 60.9C13.3 50.4 3.1 34.3 3 34.1C2.73293 33.6593 2.64625 33.1326 2.75804 32.6296C2.86982 32.1265 3.17143 31.6861 3.6 31.4C5.41438 30.1878 7.62133 29.7098 9.77467 30.0625C11.928 30.4152 13.8671 31.5723 15.2 33.3L16.8 35.4L16.7 9.9C16.696 9.3342 16.8045 8.77325 17.0192 8.24975C17.2339 7.72625 17.5505 7.25063 17.9505 6.85055C18.3506 6.45046 18.8262 6.13387 19.3497 5.91919C19.8733 5.70451 20.4342 5.59601 21 5.6H22.7C23.8115 5.60785 24.8752 6.05287 25.6612 6.83883C26.4471 7.62479 26.8921 8.68852 26.9 9.8V28.2C26.9 28.7304 26.6893 29.2391 26.3142 29.6142C25.9391 29.9893 25.4304 30.2 24.9 30.2C24.3696 30.2 23.8609 29.9893 23.4858 29.6142C23.1107 29.2391 22.9 28.7304 22.9 28.2V9.8C22.8955 9.74847 22.873 9.70017 22.8364 9.6636C22.7998 9.62702 22.7515 9.6045 22.7 9.6H21C20.9485 9.6045 20.9002 9.62702 20.8636 9.6636C20.827 9.70017 20.8045 9.74847 20.8 9.8L20.9 41.1C20.9 41.6304 20.6893 42.1391 20.3142 42.5142C19.9391 42.8893 19.4304 43.1 18.9 43.1C18.5907 43.0934 18.2868 43.0182 18.0101 42.8798C17.7334 42.7415 17.4909 42.5434 17.3 42.3L12 35.7C11.4898 35.0442 10.8108 34.5395 10.0357 34.24C9.26059 33.9405 8.41863 33.8576 7.6 34C10.5 38.5 17.5 49.6 22.6 58H41.4V27.2C41.3955 27.1485 41.373 27.1002 41.3364 27.0636C41.2998 27.027 41.2515 27.0045 41.2 27H39.5C39.4 27 39.4 27 39.3 27.1C39.2457 27.1539 39.2106 27.2242 39.2 27.3V30.5C39.2 31.0304 38.9893 31.5391 38.6142 31.9142C38.2391 32.2893 37.7304 32.5 37.2 32.5C36.6696 32.5 36.1609 32.2893 35.7858 31.9142C35.4107 31.5391 35.2 31.0304 35.2 30.5V27.2C35.2079 26.0885 35.6529 25.0248 36.4388 24.2388C37.2248 23.4529 38.2885 23.0079 39.4 23H41.1C42.2115 23.0079 43.2752 23.4529 44.0612 24.2388C44.8471 25.0248 45.2921 26.0885 45.3 27.2L45.4 60C45.4 60.5304 45.1893 61.0391 44.8142 61.4142C44.4391 61.7893 43.9304 62 43.4 62Z" fill="#012969"/>
</g>
<defs>
<clipPath id="clip0">
<rect width="45.4" height="62" fill="white"/>
</clipPath>
</defs>
</svg>
