<svg xmlns="http://www.w3.org/2000/svg" viewBox="0 0 135 135"><defs><style>.cls-1{isolation:isolate;}.cls-2{fill:none;}.cls-3{mix-blend-mode:multiply;}.cls-4{fill:#19a500;}.cls-5{fill:#a2ce2a;}.cls-6{fill:#1f9254;}.cls-7{fill:#28347d;}.cls-8{fill:#24a31a;}</style></defs><title>icon_ocensa_gobierno_corporativo_</title><g class="cls-1"><g id="Capa_1" data-name="Capa 1"><rect class="cls-2" width="135" height="135"/><g class="cls-3"><path class="cls-4" d="M54.54,130.48H36.33a1.5,1.5,0,1,1,0-3H54.54a1.5,1.5,0,1,1,0,3Z"/></g><g class="cls-3"><path class="cls-5" d="M65.24,130.48H47a1.5,1.5,0,1,1,0-3h18.2a1.5,1.5,0,1,1,0,3Z"/></g><g class="cls-3"><path class="cls-5" d="M87.18,130.48H78.07a1.5,1.5,0,0,1,0-3h9.11a1.5,1.5,0,1,1,0,3Z"/></g><g class="cls-3"><path class="cls-5" d="M100,130.48a1.49,1.49,0,0,1-1.5-1.5,1.42,1.42,0,0,1,0-.29,1.61,1.61,0,0,1,.23-.54,2,2,0,0,1,.18-.23,1.47,1.47,0,0,1,1.64-.32,1.26,1.26,0,0,1,.26.13,2.11,2.11,0,0,1,.23.19,2,2,0,0,1,.18.23,1.61,1.61,0,0,1,.23.54,1.43,1.43,0,0,1,0,.29,1.36,1.36,0,0,1,0,.29,1.61,1.61,0,0,1-.09.29,1.23,1.23,0,0,1-.14.25,1.41,1.41,0,0,1-.18.23,2.11,2.11,0,0,1-.23.19l-.26.14-.28.08Z"/></g><g class="cls-3"><path class="cls-5" d="M81.72,118.26H36.33a1.5,1.5,0,0,1,0-3H81.72a1.5,1.5,0,0,1,0,3Z"/></g><g class="cls-3"><path class="cls-6" d="M36.33,118.26a1.5,1.5,0,0,1-1.06-.44,1.52,1.52,0,0,1-.44-1.06,1.5,1.5,0,0,1,1.79-1.47.9.9,0,0,1,.28.08,1.3,1.3,0,0,1,.26.14,1.06,1.06,0,0,1,.23.19,1.5,1.5,0,0,1,.44,1.06,1.52,1.52,0,0,1-.44,1.06,1,1,0,0,1-.23.18,1.61,1.61,0,0,1-.54.23A1.36,1.36,0,0,1,36.33,118.26Z"/></g><g class="cls-3"><path class="cls-4" d="M100,118.26H74.22a1.5,1.5,0,0,1,0-3H100a1.5,1.5,0,0,1,0,3Z"/></g><path class="cls-7" d="M109.92,104H26.31a1.5,1.5,0,1,1,0-3h6.33V89.71a1.5,1.5,0,0,1,3,0V101H41.8V89.54a1.5,1.5,0,0,1,3,0V101H51V69.32H47a1.5,1.5,0,0,1,0-3h5.46a1.5,1.5,0,0,1,1.5,1.5V101h7.33V67.82a1.5,1.5,0,0,1,1.5-1.5H72a1.5,1.5,0,0,1,1.5,1.5V101h7.33V67.82a1.5,1.5,0,0,1,1.5-1.5h9.16a1.5,1.5,0,0,1,1.5,1.5V101h7.65V53.67h-65v5.55a1.5,1.5,0,0,1-3,0v-7a1.5,1.5,0,0,1,1.5-1.5H42.2V42.4a1.5,1.5,0,0,1,1.5-1.5H66.62V10a1.5,1.5,0,0,1,3,0V11.5h6.71a1.51,1.51,0,0,1,1.5,1.5v2.66h8.31a1.47,1.47,0,0,1,1.35.86,1.51,1.51,0,0,1-.18,1.59l-3.09,3.8,3.09,3.81a1.51,1.51,0,0,1-1.17,2.45H76.33a1.5,1.5,0,0,1-1.5-1.5V24H69.62V40.9H92.53A1.5,1.5,0,0,1,94,42.4v8.27h8.07a1.5,1.5,0,0,1,1.5,1.5V101h6.32a1.5,1.5,0,0,1,0,3Zm-26.13-3H90V69.32H83.79Zm-19.5,0h6.17V69.32H64.29ZM45.2,50.67H91V43.9H45.2Zm32.63-25.5H83l-1.87-2.31a1.49,1.49,0,0,1,0-1.89L83,18.66H77.83ZM69.62,21h5.21V14.5H69.62Z"/><path class="cls-8" d="M34,85.28A10.41,10.41,0,1,1,41.65,82,10.43,10.43,0,0,1,34,85.28Zm0-17.85a7.43,7.43,0,1,0,7.43,7.42A7.43,7.43,0,0,0,34,67.43Z"/></g></g></svg>