<svg xmlns="http://www.w3.org/2000/svg" viewBox="0 0 45.4 62"><defs><style>.cls-1{fill:#fff;}</style></defs><g id="Capa_2" data-name="Capa 2"><g id="Capa_1-2" data-name="Capa 1"><path class="cls-1" d="M34.5,16.4a2,2,0,0,1-2-2,1.82,1.82,0,0,1,.6-1.4l4.8-4.8L33.1,3.4a1.93,1.93,0,0,1,0-2.8,1.93,1.93,0,0,1,2.8,0l6.2,6.2a1.93,1.93,0,0,1,0,2.8l-6.2,6.2A2,2,0,0,1,34.5,16.4Z"/><path class="cls-1" d="M38.2,9.9H29.7a2,2,0,0,1,0-4h8.5a2,2,0,0,1,0,4Z"/><path class="cls-1" d="M8.2,16.4a2,2,0,0,1-1.4-.6L.6,9.6a1.93,1.93,0,0,1,0-2.8h0L6.8.6A1.93,1.93,0,0,1,9.6.6a1.93,1.93,0,0,1,0,2.8L4.8,8.2,9.6,13a1.93,1.93,0,0,1,0,2.8,2,2,0,0,1-1.4.6Z"/><path class="cls-1" d="M12.9,10.4H4.4a2,2,0,0,1,0-4h8.4a2,2,0,0,1,2,2A1.92,1.92,0,0,1,12.9,10.4Z"/><path class="cls-1" d="M31.1,31.5a2,2,0,0,1-2-2V20.7a.22.22,0,0,0-.2-.2H27.2c-.1,0-.1,0-.2.1s-.1.1-.1.2v8.3a2,2,0,0,1-2,2h0a2,2,0,0,1-2-2V20.8a4.23,4.23,0,0,1,4.2-4.2h1.7A4.23,4.23,0,0,1,33,20.8v8.8a1.84,1.84,0,0,1-1.9,1.9Z"/><path class="cls-1" d="M37.2,33.1a2,2,0,0,1-2-2V23.7a.22.22,0,0,0-.2-.2H33.3c-.1,0-.1,0-.2.1a.35.35,0,0,0-.1.2v2.4a2,2,0,0,1-2,2h0a2,2,0,0,1-2-2V23.7a4.23,4.23,0,0,1,1.2-3,3.85,3.85,0,0,1,3-1.2H35a4.23,4.23,0,0,1,4.2,4.2v7.5a2,2,0,0,1-2,1.9Z"/><path class="cls-1" d="M43.4,62H30.9l-9.4-.1a2.06,2.06,0,0,1-1.7-1C13.3,50.4,3.1,34.3,3,34.1a2,2,0,0,1,.6-2.7,8.61,8.61,0,0,1,11.6,1.9l1.6,2.1L16.7,9.9A4.27,4.27,0,0,1,21,5.6h1.7a4.23,4.23,0,0,1,4.2,4.2V28.2a2,2,0,0,1-2,2h0a2,2,0,0,1-2-2V9.8a.22.22,0,0,0-.2-.2H21a.22.22,0,0,0-.2.2l.1,31.3a2,2,0,0,1-2,2,2.09,2.09,0,0,1-1.6-.8L12,35.7A4.58,4.58,0,0,0,7.6,34c2.9,4.5,9.9,15.6,15,24H41.4V27.2a.22.22,0,0,0-.2-.2H39.5c-.1,0-.1,0-.2.1a.35.35,0,0,0-.1.2v3.2a2,2,0,0,1-2,2h0a2,2,0,0,1-2-2V27.2A4.23,4.23,0,0,1,39.4,23h1.7a4.23,4.23,0,0,1,4.2,4.2L45.4,60a2,2,0,0,1-2,2Z"/></g></g></svg>