<svg xmlns="http://www.w3.org/2000/svg" viewBox="0 0 120 120"><defs><style>.cls-1{isolation:isolate;}.cls-2{fill:none;}.cls-3{fill:#28347d;}.cls-4{mix-blend-mode:multiply;}.cls-5{fill:#24a31a;}.cls-6{fill:#a2ce2a;}.cls-7{fill:#1f9254;}</style></defs><title>icon_ocensa_gobierno_corporativo_</title><g class="cls-1"><g id="Capa_1" data-name="Capa 1"><rect class="cls-2" width="120" height="120"/><path class="cls-3" d="M55.38,61.65a1.5,1.5,0,0,1-1.06-2.56l6.85-6.86a1.51,1.51,0,0,1,2.12,0,1.49,1.49,0,0,1,0,2.12l-6.85,6.86A1.53,1.53,0,0,1,55.38,61.65Z"/><path class="cls-3" d="M85.2,66.43a29.14,29.14,0,1,1,29.36-29.14A29.28,29.28,0,0,1,85.2,66.43Zm0-55.27a26.14,26.14,0,1,0,26.36,26.13A26.27,26.27,0,0,0,85.2,11.16Z"/><path class="cls-3" d="M9.31,90.8H9.1A1.5,1.5,0,0,1,7.82,89.1l2-14.45a12.33,12.33,0,0,1,9.7-10.35l17.33-3.57.09,0a12.31,12.31,0,0,1-12.09-12.3V41a12.3,12.3,0,1,1,24.6,0v7.45a12.32,12.32,0,0,1-12.09,12.3l.09,0L54.8,64.3a12.34,12.34,0,0,1,9.7,10.35l2,14.45a1.49,1.49,0,0,1-1.28,1.69,1.51,1.51,0,0,1-1.69-1.28l-2-14.45a9.33,9.33,0,0,0-7.34-7.82l-17-3.51-17,3.51a9.32,9.32,0,0,0-7.33,7.82l-2,14.45A1.49,1.49,0,0,1,9.31,90.8ZM37.17,31.66a9.31,9.31,0,0,0-9.3,9.3v7.45a9.3,9.3,0,1,0,18.6,0V41A9.31,9.31,0,0,0,37.17,31.66Z"/><g class="cls-4"><path class="cls-5" d="M24.23,111.84H6.94a1.5,1.5,0,1,1,0-3H24.23a1.5,1.5,0,0,1,0,3Z"/></g><g class="cls-4"><path class="cls-6" d="M34.4,111.84H17.11a1.5,1.5,0,0,1,0-3H34.4a1.5,1.5,0,1,1,0,3Z"/></g><g class="cls-4"><path class="cls-6" d="M55.24,111.84H46.59a1.5,1.5,0,0,1,0-3h8.65a1.5,1.5,0,1,1,0,3Z"/></g><g class="cls-4"><path class="cls-6" d="M67.4,111.84a1.46,1.46,0,0,1-.58-.11,1.29,1.29,0,0,1-.48-.33,1.46,1.46,0,0,1-.44-1.06,1.5,1.5,0,0,1,0-.29c0-.09,0-.19.08-.28a2.15,2.15,0,0,1,.14-.26,2.11,2.11,0,0,1,.19-.23,1,1,0,0,1,.23-.18,1.23,1.23,0,0,1,.25-.14,1.52,1.52,0,0,1,.28-.09,1.54,1.54,0,0,1,1.36.41,1.52,1.52,0,0,1,.44,1.06,1.5,1.5,0,0,1-.44,1.06A1.46,1.46,0,0,1,67.4,111.84Z"/></g><g class="cls-4"><path class="cls-6" d="M50.05,100.23H6.94a1.5,1.5,0,1,1,0-3H50.05a1.5,1.5,0,0,1,0,3Z"/></g><g class="cls-4"><path class="cls-7" d="M6.94,100.23a1.5,1.5,0,0,1-1.06-.44,1.46,1.46,0,0,1-.44-1.06,1.36,1.36,0,0,1,0-.29.9.9,0,0,1,.08-.28,2.15,2.15,0,0,1,.14-.26,1.37,1.37,0,0,1,.19-.23,1.49,1.49,0,0,1,1.35-.41,1.31,1.31,0,0,1,.28.09,1.26,1.26,0,0,1,.26.13,2.11,2.11,0,0,1,.23.19,1.52,1.52,0,0,1,.44,1.06A1.5,1.5,0,0,1,8,99.79a1.63,1.63,0,0,1-.49.33A1.56,1.56,0,0,1,6.94,100.23Z"/></g><g class="cls-4"><path class="cls-5" d="M67.4,100.23H42.93a1.5,1.5,0,1,1,0-3H67.4a1.5,1.5,0,0,1,0,3Z"/></g><path class="cls-3" d="M74.05,52H67a1,1,0,0,1,0-2h6.93V39.45H67.4a1,1,0,0,1,0-2h6.65a1.86,1.86,0,0,1,1.86,1.86v10.8A1.86,1.86,0,0,1,74.05,52Zm0-12.52h0Z"/><path class="cls-3" d="M88.33,51.22A1.87,1.87,0,0,1,87,50.63l-4.86-5.24A1,1,0,0,1,83.58,44l4.76,5.13a2.51,2.51,0,0,0,.77-1.67,2.54,2.54,0,0,0-.66-1.86L83.35,40H74.91a1,1,0,0,1,0-2h8.5a1.85,1.85,0,0,1,1.38.61l5.15,5.7a4.56,4.56,0,0,1-.38,6.47A1.86,1.86,0,0,1,88.33,51.22ZM83.41,40h0Z"/><path class="cls-3" d="M87.41,55.6a1.9,1.9,0,0,1-.89-.23L78,50.7l-3.06,0a1,1,0,0,1,0-2H78a1.84,1.84,0,0,1,.89.23l8.49,4.63,14.71-9a2.63,2.63,0,0,0-3-1.24l-9.64,2.58A1,1,0,0,1,89,44l9.64-2.58A4.64,4.64,0,0,1,104,43.81a1.88,1.88,0,0,1-.7,2.42l-14.89,9.1A1.84,1.84,0,0,1,87.41,55.6Z"/><path class="cls-3" d="M91.64,36.89H82.51a1,1,0,0,1-1-1V26.68a5.25,5.25,0,0,1,5.25-5.24h.63a5.25,5.25,0,0,1,5.25,5.24v9.21A1,1,0,0,1,91.64,36.89Zm-8.13-2h7.13V26.68a3.25,3.25,0,0,0-3.25-3.24h-.63a3.25,3.25,0,0,0-3.25,3.24Z"/><path class="cls-3" d="M93.34,36.89H80.63a1,1,0,0,1,0-2H93.34a1,1,0,0,1,0,2Z"/><path class="cls-3" d="M86.88,19.48a1,1,0,0,1-1-1V15.61a1,1,0,0,1,2,0v2.87A1,1,0,0,1,86.88,19.48Z"/><path class="cls-3" d="M79.5,22.42a1,1,0,0,1-.71-.29l-2-2a1,1,0,1,1,1.41-1.41l2,2a1,1,0,0,1,0,1.42A1,1,0,0,1,79.5,22.42Z"/><path class="cls-3" d="M93.84,22.42a1,1,0,0,1-.71-.29,1,1,0,0,1,0-1.42l2-2a1,1,0,0,1,1.41,1.41l-2,2A1,1,0,0,1,93.84,22.42Z"/><path class="cls-3" d="M99.35,29.43H96.48a1,1,0,0,1,0-2h2.87a1,1,0,0,1,0,2Z"/><path class="cls-3" d="M77.28,29.43H74.42a1,1,0,0,1,0-2h2.86a1,1,0,0,1,0,2Z"/><path class="cls-3" d="M86.88,36.89a1,1,0,0,1-1-1V29.71a1,1,0,0,1,2,0v6.18A1,1,0,0,1,86.88,36.89Z"/></g></g></svg>