<svg xmlns="http://www.w3.org/2000/svg" viewBox="0 0 120 120"><defs><style>.cls-1{isolation:isolate;}.cls-2{fill:none;}.cls-3{mix-blend-mode:multiply;}.cls-4{fill:#24a31a;}.cls-5{fill:#a2ce2a;}.cls-6{fill:#28347d;}.cls-7{fill:#1f9254;}</style></defs><title>icon_ocensa_gobierno_corporativo_</title><g class="cls-1"><g id="Capa_1" data-name="Capa 1"><rect class="cls-2" width="120" height="120"/><g class="cls-3"><path class="cls-4" d="M24.23,111.84H6.94a1.5,1.5,0,1,1,0-3H24.23a1.5,1.5,0,0,1,0,3Z"/></g><g class="cls-3"><path class="cls-5" d="M34.4,111.84H17.11a1.5,1.5,0,0,1,0-3H34.4a1.5,1.5,0,1,1,0,3Z"/></g><g class="cls-3"><path class="cls-5" d="M55.24,111.84H46.59a1.5,1.5,0,0,1,0-3h8.65a1.5,1.5,0,1,1,0,3Z"/></g><g class="cls-3"><path class="cls-5" d="M67.4,111.84l-.29,0a1.15,1.15,0,0,1-.28-.09,1.08,1.08,0,0,1-.26-.14,1.06,1.06,0,0,1-.23-.19,1.37,1.37,0,0,1-.19-.22,2.15,2.15,0,0,1-.14-.26c0-.09-.06-.19-.08-.28a1.5,1.5,0,0,1,0-.29,1.52,1.52,0,0,1,.44-1.07,1,1,0,0,1,.23-.18,1.08,1.08,0,0,1,.26-.14,1.15,1.15,0,0,1,.28-.09,1.56,1.56,0,0,1,1.35.41,1.52,1.52,0,0,1,.44,1.07,1.41,1.41,0,0,1-.12.57,1.26,1.26,0,0,1-.13.26,1.37,1.37,0,0,1-.19.22A1.52,1.52,0,0,1,67.4,111.84Z"/></g><path class="cls-6" d="M55.38,61.65a1.53,1.53,0,0,1-1.07-.44,1.51,1.51,0,0,1,0-2.12l6.86-6.86a1.51,1.51,0,0,1,2.12,0,1.49,1.49,0,0,1,0,2.12l-6.85,6.86A1.53,1.53,0,0,1,55.38,61.65Z"/><path class="cls-6" d="M85.2,66.43a29.14,29.14,0,1,1,29.36-29.14A29.28,29.28,0,0,1,85.2,66.43Zm0-55.28a26.14,26.14,0,1,0,26.36,26.14A26.28,26.28,0,0,0,85.2,11.15Z"/><path class="cls-6" d="M106,50.45H64.43a1,1,0,1,1,0-2h6.31a3.84,3.84,0,0,1-1.13-2.18H65.82a1,1,0,0,1-1-1V28.54a1,1,0,0,1,1-1h23v-.29l-1.08-1.54A1,1,0,0,1,88,24.32a1,1,0,0,1,1.4.24l1.26,1.8a1,1,0,0,1,.18.58v6h.09c.24,0,3.92.35,8.55,4.8l.55.06c3.36.41,5.72,1.19,5.54,7.49a1,1,0,0,1-1,1h-1.81a3.78,3.78,0,0,1-1.13,2.18H106a1,1,0,0,1,0,2Zm-22.68-2H96.4a3.73,3.73,0,0,1-1.09-2H84.4A3.81,3.81,0,0,1,83.3,48.45Zm-7.33,0h2.1a3.84,3.84,0,0,1-1-1.73h0A3.84,3.84,0,0,1,76,48.45Zm23-4.52a1.79,1.79,0,1,0,1.78,1.79A1.79,1.79,0,0,0,99,43.93Zm-18.34,0a1.79,1.79,0,1,0,1.79,1.79V45.6a.31.31,0,0,1,0-.1A1.79,1.79,0,0,0,80.68,43.93ZM71.59,45.5a1.5,1.5,0,0,0,0,.22,1.82,1.82,0,1,0,0-.35S71.6,45.45,71.59,45.5ZM77,44.72h0a3.84,3.84,0,0,1,2-2.42H75A3.84,3.84,0,0,1,77,44.72Zm13.82-.26h4.62a3.78,3.78,0,0,1,7.06-.19h1.07c0-4-1.36-4.17-3.8-4.47L99,39.69l-8.12,0Zm-6.58,0h4.58V42.3H82.31A3.79,3.79,0,0,1,84.25,44.46Zm-17.43-.19h3a3.79,3.79,0,0,1,1.87-2H66.82Zm0-4h22V38.72h0V34.14s0-.06,0-.09,0-.07,0-.1V29.54h-22Zm24-5.35v2.76h5.54c-3.2-2.5-5.5-2.75-5.53-2.75Zm2.59,7.35H92a1,1,0,0,1,0-2h1.46a1,1,0,0,1,0,2Z"/><path class="cls-6" d="M65,90.81a1.51,1.51,0,0,1-1.48-1.3l-2-14.45a9.33,9.33,0,0,0-7.34-7.82l-17-3.51-17,3.51a9.32,9.32,0,0,0-7.33,7.82l-2,14.45a1.5,1.5,0,0,1-3-.41l2-14.45a12.33,12.33,0,0,1,9.7-10.35l17.33-3.57.09,0a12.31,12.31,0,0,1-12.09-12.3V41a12.3,12.3,0,1,1,24.6,0v7.45a12.32,12.32,0,0,1-12.09,12.3l.09,0L54.8,64.3a12.34,12.34,0,0,1,9.7,10.35l2,14.45a1.49,1.49,0,0,1-1.28,1.69ZM37.17,31.66a9.31,9.31,0,0,0-9.3,9.3v7.45a9.3,9.3,0,1,0,18.6,0V41A9.31,9.31,0,0,0,37.17,31.66Z"/><g class="cls-3"><path class="cls-5" d="M50.05,100.23H6.94a1.5,1.5,0,1,1,0-3H50.05a1.5,1.5,0,0,1,0,3Z"/></g><g class="cls-3"><path class="cls-7" d="M6.94,100.23a1.5,1.5,0,0,1-1.5-1.5,1.52,1.52,0,0,1,.44-1.06,1.45,1.45,0,0,1,.23-.19,1.19,1.19,0,0,1,.25-.13,1.52,1.52,0,0,1,.28-.09,1.47,1.47,0,0,1,.59,0,1.31,1.31,0,0,1,.28.09,1.26,1.26,0,0,1,.26.13,2.11,2.11,0,0,1,.23.19,1.52,1.52,0,0,1,.44,1.06A1.5,1.5,0,0,1,8,99.79,1.52,1.52,0,0,1,6.94,100.23Z"/></g><g class="cls-3"><path class="cls-4" d="M67.4,100.23H42.93a1.5,1.5,0,1,1,0-3H67.4a1.5,1.5,0,0,1,0,3Z"/></g></g></g></svg>