<svg xmlns="http://www.w3.org/2000/svg" viewBox="0 0 120 120"><defs><style>.cls-1{isolation:isolate;}.cls-2{fill:none;}.cls-3{fill:#28347d;}.cls-4{mix-blend-mode:multiply;}.cls-5{fill:#24a31a;}.cls-6{fill:#a2ce2a;}.cls-7{fill:#1f9254;}</style></defs><title>icon_ocensa_gobierno_corporativo_</title><g class="cls-1"><g id="Capa_1" data-name="Capa 1"><rect class="cls-2" width="120" height="120"/><path class="cls-3" d="M55.38,61.73a1.45,1.45,0,0,1-1.06-.44,1.49,1.49,0,0,1,0-2.12l6.85-6.85a1.5,1.5,0,1,1,2.12,2.12l-6.85,6.85A1.48,1.48,0,0,1,55.38,61.73Z"/><path class="cls-3" d="M85.2,66.51a29.14,29.14,0,1,1,29.36-29.13A29.28,29.28,0,0,1,85.2,66.51Zm0-55.27a26.14,26.14,0,1,0,26.36,26.14A26.27,26.27,0,0,0,85.2,11.24Z"/><path class="cls-3" d="M95.1,44.81H75.81a1,1,0,0,1-.59-.19l-3.44-2.45H68.53v.67a1,1,0,0,1-1,1H62.9a1,1,0,0,1-1-1V31.69a1,1,0,0,1,1-1h4.63a1,1,0,0,1,1,1v.63H71.8L75.25,30a1,1,0,0,1,.56-.17H95.1a1,1,0,0,1,.56.17l3.61,2.38h3.19v-.63a1,1,0,0,1,1-1h4.22a1,1,0,0,1,1,1V42.93a1,1,0,0,1-1,1h-4.22a1,1,0,0,1-1-1v-.67H99.27l-3.61,2.37a1,1,0,0,1-.56.18Zm-18.29-2H94.1v-11H76.81ZM96.1,32.71V42L98,40.72V34Zm8.36,9.22h2.22V32.78h-2.22ZM73.1,40.66l1.71,1.21V32.72L73.1,33.86Zm-9.2,1.18h2.63V32.69H63.9ZM100,40.26h2.49V34.41H100Zm-31.44-.09H71.1V34.32H68.53Z"/><path class="cls-3" d="M65,90.81a1.51,1.51,0,0,1-1.49-1.3l-2-14.45a9.33,9.33,0,0,0-7.34-7.82l-17-3.51-17,3.51a9.32,9.32,0,0,0-7.33,7.82l-2,14.45a1.5,1.5,0,1,1-3-.41l2-14.45a12.33,12.33,0,0,1,9.7-10.35l17.33-3.57.09,0a12.31,12.31,0,0,1-12.09-12.3V41a12.3,12.3,0,1,1,24.6,0v7.45a12.32,12.32,0,0,1-12.09,12.3l.09,0L54.8,64.3a12.34,12.34,0,0,1,9.7,10.35l2,14.45a1.49,1.49,0,0,1-1.28,1.69ZM37.17,31.66a9.31,9.31,0,0,0-9.3,9.3v7.45a9.3,9.3,0,1,0,18.6,0V41A9.31,9.31,0,0,0,37.17,31.66Z"/><g class="cls-4"><path class="cls-5" d="M24.23,111.84H6.94a1.5,1.5,0,1,1,0-3H24.23a1.5,1.5,0,0,1,0,3Z"/></g><g class="cls-4"><path class="cls-6" d="M34.4,111.84H17.11a1.5,1.5,0,0,1,0-3H34.4a1.5,1.5,0,1,1,0,3Z"/></g><g class="cls-4"><path class="cls-6" d="M55.24,111.84H46.59a1.5,1.5,0,0,1,0-3h8.65a1.5,1.5,0,1,1,0,3Z"/></g><g class="cls-4"><path class="cls-6" d="M67.4,111.84a1.49,1.49,0,0,1-1.5-1.5,1.52,1.52,0,0,1,.44-1.06,1.56,1.56,0,0,1,1.35-.41,1.69,1.69,0,0,1,.77.41,1.51,1.51,0,0,1,0,2.13,1.65,1.65,0,0,1-.77.41Z"/></g><g class="cls-4"><path class="cls-6" d="M50.05,100.23H6.94a1.5,1.5,0,1,1,0-3H50.05a1.5,1.5,0,0,1,0,3Z"/></g><g class="cls-4"><path class="cls-7" d="M6.94,100.23a1.53,1.53,0,0,1-.3,0l-.28-.08L6.1,100l-.22-.19a1.06,1.06,0,0,1-.19-.23,2.15,2.15,0,0,1-.14-.26A1.29,1.29,0,0,1,5.47,99a1.42,1.42,0,0,1,0-.58,1.29,1.29,0,0,1,.08-.28,2.15,2.15,0,0,1,.14-.26,1.37,1.37,0,0,1,.19-.23l.22-.19a1.58,1.58,0,0,1,.26-.13,1.52,1.52,0,0,1,.28-.09,1.47,1.47,0,0,1,.59,0,1.31,1.31,0,0,1,.28.09,1.26,1.26,0,0,1,.26.13,2.11,2.11,0,0,1,.23.19,1.65,1.65,0,0,1,.41.77,1.42,1.42,0,0,1,0,.58,1.61,1.61,0,0,1-.23.54,1,1,0,0,1-.18.23A1.52,1.52,0,0,1,6.94,100.23Z"/></g><g class="cls-4"><path class="cls-5" d="M67.4,100.23H42.93a1.5,1.5,0,1,1,0-3H67.4a1.5,1.5,0,0,1,0,3Z"/></g></g></g></svg>