<svg xmlns="http://www.w3.org/2000/svg" viewBox="0 0 120 120"><defs><style>.cls-1{isolation:isolate;}.cls-2{fill:none;}.cls-3{fill:#28347d;}.cls-4{mix-blend-mode:multiply;}.cls-5{fill:#24a31a;}.cls-6{fill:#a2ce2a;}.cls-7{fill:#1f9254;}</style></defs><title>icon_ocensa_gobierno_corporativo_</title><g class="cls-1"><g id="Capa_1" data-name="Capa 1"><rect class="cls-2" width="120" height="120"/><path class="cls-3" d="M55.38,61.73a1.45,1.45,0,0,1-1.06-.44,1.49,1.49,0,0,1,0-2.12l6.85-6.85a1.5,1.5,0,1,1,2.12,2.12l-6.85,6.85A1.48,1.48,0,0,1,55.38,61.73Z"/><path class="cls-3" d="M85.2,66.51a29.14,29.14,0,1,1,29.36-29.13A29.29,29.29,0,0,1,85.2,66.51Zm0-55.27a26.14,26.14,0,1,0,26.36,26.14A26.28,26.28,0,0,0,85.2,11.24Z"/><path class="cls-3" d="M9.31,90.81l-.21,0A1.5,1.5,0,0,1,7.82,89.1l2-14.45a12.33,12.33,0,0,1,9.7-10.35l17.32-3.57.1,0a12.31,12.31,0,0,1-12.09-12.3V41a12.3,12.3,0,1,1,24.6,0v7.45a12.32,12.32,0,0,1-12.09,12.3l.09,0L54.8,64.3a12.34,12.34,0,0,1,9.7,10.35l2,14.45a1.49,1.49,0,0,1-1.28,1.69,1.51,1.51,0,0,1-1.69-1.28l-2-14.45a9.33,9.33,0,0,0-7.34-7.82l-17-3.51-17,3.51a9.32,9.32,0,0,0-7.33,7.82l-2,14.45A1.51,1.51,0,0,1,9.31,90.81ZM37.17,31.66a9.31,9.31,0,0,0-9.3,9.3v7.45a9.3,9.3,0,1,0,18.6,0V41A9.31,9.31,0,0,0,37.17,31.66Z"/><g class="cls-4"><path class="cls-5" d="M24.23,111.84H6.94a1.5,1.5,0,1,1,0-3H24.23a1.5,1.5,0,0,1,0,3Z"/></g><g class="cls-4"><path class="cls-6" d="M34.4,111.84H17.11a1.5,1.5,0,0,1,0-3H34.4a1.5,1.5,0,1,1,0,3Z"/></g><g class="cls-4"><path class="cls-6" d="M55.24,111.84H46.59a1.5,1.5,0,0,1,0-3h8.65a1.5,1.5,0,1,1,0,3Z"/></g><g class="cls-4"><path class="cls-6" d="M67.4,111.85a1.47,1.47,0,0,1-1.06-.45,1.37,1.37,0,0,1-.19-.22,2.15,2.15,0,0,1-.14-.26c0-.09-.06-.19-.08-.28a1.53,1.53,0,0,1,0-.3,1.5,1.5,0,0,1,0-.29c0-.09,0-.19.08-.28a2.15,2.15,0,0,1,.14-.26,2.11,2.11,0,0,1,.19-.23,1.41,1.41,0,0,1,.23-.18,1.3,1.3,0,0,1,.26-.14.9.9,0,0,1,.28-.08,1.42,1.42,0,0,1,.58,0A.9.9,0,0,1,68,109a1.3,1.3,0,0,1,.26.14,2,2,0,0,1,.23.18,2.11,2.11,0,0,1,.19.23,1.26,1.26,0,0,1,.13.26,1.43,1.43,0,0,1,0,1.15,1.26,1.26,0,0,1-.13.26,1.76,1.76,0,0,1-.42.41,1.61,1.61,0,0,1-.54.23A1.36,1.36,0,0,1,67.4,111.85Z"/></g><g class="cls-4"><path class="cls-6" d="M50.05,100.23H6.94a1.5,1.5,0,1,1,0-3H50.05a1.5,1.5,0,0,1,0,3Z"/></g><g class="cls-4"><path class="cls-7" d="M6.94,100.23a1.5,1.5,0,0,1-1.06-.44,1.06,1.06,0,0,1-.19-.23,2.15,2.15,0,0,1-.14-.26A1.29,1.29,0,0,1,5.47,99a1.36,1.36,0,0,1,0-.29,1.5,1.5,0,0,1,.44-1.06,1.55,1.55,0,0,1,2.12,0,1.52,1.52,0,0,1,.44,1.06,1.36,1.36,0,0,1,0,.29,1.61,1.61,0,0,1-.23.54,1,1,0,0,1-.18.23A1.52,1.52,0,0,1,6.94,100.23Z"/></g><g class="cls-4"><path class="cls-5" d="M67.4,100.23H42.93a1.5,1.5,0,1,1,0-3H67.4a1.5,1.5,0,0,1,0,3Z"/></g><path class="cls-3" d="M84.78,48.47a1.66,1.66,0,0,1-1.66-1.54L83,45.38l-.72-.17-1,1.12a1.66,1.66,0,0,1-2.33.16l-1.81-1.57a1.67,1.67,0,0,1-.56-1.14,1.64,1.64,0,0,1,.4-1.2l1-1.17-.38-.64-1.49.11a1.66,1.66,0,0,1-1.76-1.55L74.23,37a1.64,1.64,0,0,1,1.54-1.77l1.54-.11.18-.72-1.12-1A1.64,1.64,0,0,1,76.21,31l1.57-1.81a1.67,1.67,0,0,1,2.33-.17l1.18,1,.63-.39-.1-1.48a1.64,1.64,0,0,1,.4-1.2,1.62,1.62,0,0,1,1.13-.57l2.4-.17a1.65,1.65,0,0,1,1.2.41,1.62,1.62,0,0,1,.57,1.14l.1,1.54.72.17,1-1.11a1.67,1.67,0,0,1,2.34-.17l1.81,1.58A1.6,1.6,0,0,1,94,31a1.68,1.68,0,0,1-.4,1.21l-1,1.16L93,34l1.49-.1h0a1.67,1.67,0,0,1,1.75,1.54l.17,2.39A1.61,1.61,0,0,1,96,39a1.64,1.64,0,0,1-1.13.56l-1.55.11-.17.72,1.12,1a1.62,1.62,0,0,1,.56,1.13,1.65,1.65,0,0,1-.4,1.21l-1.57,1.8a1.67,1.67,0,0,1-2.34.17l-1.17-1-.64.39.11,1.48a1.67,1.67,0,0,1-1.54,1.77l-2.39.17Zm.34-1.68ZM82.29,43.2a1.7,1.7,0,0,1,.71.14l.64.21A1.93,1.93,0,0,1,85,45.24l.08,1.21,1.71-.12-.09-1.21a2,2,0,0,1,1.17-1.89l.63-.31a1.93,1.93,0,0,1,2.15.23l.91.8,1.12-1.29-.91-.79a2,2,0,0,1-.5-2.17l.21-.65a2,2,0,0,1,1.69-1.37l1.21-.08-.12-1.7-1.2.08a2,2,0,0,1-1.9-1.18l-.31-.61A2,2,0,0,1,91.09,32l.8-.91L90.6,30l-.79.91a2,2,0,0,1-2.18.5L87,31.2a2,2,0,0,1-1.36-1.69l-.09-1.21-1.7.12.08,1.21a2,2,0,0,1-1.18,1.89l-.61.31A1.94,1.94,0,0,1,80,31.6l-.92-.8-1.12,1.29.91.79a2,2,0,0,1,.52,2.17l-.22.66a2,2,0,0,1-1.71,1.36l-1.19.08.12,1.71,1.2-.09a2,2,0,0,1,1.9,1.17l.31.62a2,2,0,0,1-.24,2.16l-.8.91L80,44.75l.8-.91A1.94,1.94,0,0,1,82.29,43.2Zm4.85,3.1ZM79.8,45Zm.49,0h0Zm-1.77-1.09Zm14.43-1h0Zm0-.49ZM76.39,39.19h0Zm18.35-1.61h0Zm-18.83-.4h0Zm.31-.38Zm1.5-4.45h0Zm14.43-1h0ZM85.31,41.54a4.16,4.16,0,1,1,.3,0h-.3Zm.23-1h0Zm-.22-5.32h-.15a2.16,2.16,0,1,0,.3,4.31h0a2.16,2.16,0,0,0-.15-4.32Z"/><path class="cls-3" d="M69.19,46.47a1,1,0,0,1-1-1V30.16a1,1,0,1,1,2,0V45.47A1,1,0,0,1,69.19,46.47Z"/><path class="cls-3" d="M72.06,34a1,1,0,0,1-.71-.3l-2.16-2.16L67,33.73a1,1,0,0,1-1.41-1.41l2.86-2.87a1,1,0,0,1,1.42,0l2.86,2.87a1,1,0,0,1,0,1.41A1,1,0,0,1,72.06,34Z"/><path class="cls-3" d="M101.22,46.47a1,1,0,0,1-1-1V30.16a1,1,0,1,1,2,0V45.47A1,1,0,0,1,101.22,46.47Z"/><path class="cls-3" d="M104.08,34a1,1,0,0,1-.7-.3l-2.16-2.16-2.16,2.16a1,1,0,0,1-1.41,0,1,1,0,0,1,0-1.41l2.86-2.87a1,1,0,0,1,1.42,0l2.86,2.87a1,1,0,0,1,0,1.41A1,1,0,0,1,104.08,34Z"/></g></g></svg>