<svg id="Capa_1" data-name="Capa 1" xmlns="http://www.w3.org/2000/svg" viewBox="0 0 42 42"><defs><style>.cls-1{fill:none;}.cls-2{fill:#fff;}.cls-3{opacity:0.5;}</style></defs><title>icon_menu_buscador_1</title><rect class="cls-1" width="42" height="42"/><path class="cls-2" d="M18.48,34.64a16.58,16.58,0,0,1-11.8-4.89,2,2,0,1,1,2.83-2.83A12.68,12.68,0,0,0,27.44,9a2,2,0,0,1,2.83-2.83A16.69,16.69,0,0,1,18.48,34.64Z"/><path class="cls-2" d="M28.86,9.57A2,2,0,0,1,27.44,9,12.65,12.65,0,0,0,14.75,5.83,2,2,0,0,1,13.58,2,16.65,16.65,0,0,1,30.27,6.16a2,2,0,0,1,0,2.83A2,2,0,0,1,28.86,9.57Z"/><path class="cls-2" d="M8.09,30.34a2,2,0,0,1-1.41-.59A16.61,16.61,0,0,1,1.79,18.08a2,2,0,0,1,2-2h0a2,2,0,0,1,2,2,12.63,12.63,0,0,0,3.72,8.87,2,2,0,0,1-1.42,3.42Z"/><path class="cls-2" d="M39.25,40.73a2,2,0,0,1-1.41-.59L27.44,29.75a2,2,0,0,1,2.83-2.83l10.4,10.4a2,2,0,0,1,0,2.82A2,2,0,0,1,39.25,40.73Z"/><g class="cls-3"><path class="cls-2" d="M6.53,15a5.78,5.78,0,1,1,4.23-1.85A5.79,5.79,0,0,1,6.53,15Zm0-7.56a1.78,1.78,0,1,0,1.3,3A1.75,1.75,0,0,0,8.3,9.2,1.78,1.78,0,0,0,6.53,7.42Z"/></g></svg>