<svg id="Capa_1" data-name="Capa 1" xmlns="http://www.w3.org/2000/svg" viewBox="0 0 135 135"><defs><style>.cls-1{fill:#fff;}.cls-2{fill:#19a500;}.cls-3{fill:#a2ce2a;}.cls-4{fill:#1f9254;}.cls-5{fill:none;}</style></defs><title>icon_ocensa_gobierno_corporativo_</title><path class="cls-1" d="M54.22,94.27A1.5,1.5,0,0,1,52.74,93L51.61,84.5a4.83,4.83,0,0,0-3.78-4.07L38,78.34l-9.86,2a4.83,4.83,0,0,0-3.82,4L23.1,92.8a1.5,1.5,0,0,1-3-.44l1.23-8.45a7.85,7.85,0,0,1,6.21-6.54l10.15-2a1.57,1.57,0,0,1,.61,0l10.13,2.15a7.84,7.84,0,0,1,6.12,6.62l1.13,8.46a1.49,1.49,0,0,1-1.29,1.68Z"/><path class="cls-1" d="M38.06,76.56h0a7.82,7.82,0,0,1-7.78-7.86h0l0-4.37a7.82,7.82,0,0,1,7.81-7.77h.05a7.83,7.83,0,0,1,7.78,7.86l0,4.37a7.82,7.82,0,0,1-7.82,7.77Zm-4.82-7.85a4.82,4.82,0,1,0,9.64.06l0-4.36a4.83,4.83,0,0,0-4.8-4.85h0a4.81,4.81,0,0,0-4.82,4.79Z"/><path class="cls-1" d="M83.8,65.37a1.5,1.5,0,0,1-1.48-1.3L81.19,55.6a4.83,4.83,0,0,0-3.78-4.07l-9.83-2.09-9.85,2a4.83,4.83,0,0,0-3.82,4L52.68,63.9a1.5,1.5,0,0,1-3-.43L50.94,55a7.84,7.84,0,0,1,6.2-6.54l10.16-2a1.51,1.51,0,0,1,.6,0L78,48.59a7.85,7.85,0,0,1,6.13,6.62l1.13,8.46A1.51,1.51,0,0,1,84,65.36Z"/><path class="cls-1" d="M67.64,47.66h0a7.82,7.82,0,0,1-7.77-7.86h0l0-4.37a7.83,7.83,0,0,1,7.82-7.77h0a7.83,7.83,0,0,1,7.77,7.87l0,4.36a7.8,7.8,0,0,1-7.82,7.77Zm-4.82-7.84a4.81,4.81,0,0,0,4.79,4.84h0a4.81,4.81,0,0,0,4.82-4.79l0-4.36a4.82,4.82,0,0,0-4.79-4.85h0a4.83,4.83,0,0,0-4.82,4.79Z"/><path class="cls-1" d="M113.38,96a1.5,1.5,0,0,1-1.48-1.31l-1.13-8.46A4.85,4.85,0,0,0,107,82.14l-9.83-2.08-9.85,2a4.83,4.83,0,0,0-3.82,4l-1.23,8.45a1.5,1.5,0,0,1-3-.43l1.23-8.45a7.84,7.84,0,0,1,6.2-6.54l10.16-2a1.51,1.51,0,0,1,.6,0l10.13,2.15a7.84,7.84,0,0,1,6.13,6.61l1.13,8.47A1.5,1.5,0,0,1,113.58,96Z"/><path class="cls-1" d="M97.22,78.28h0a7.83,7.83,0,0,1-7.77-7.87h0l0-4.36a7.8,7.8,0,0,1,7.82-7.77h.05a7.82,7.82,0,0,1,7.77,7.86l0,4.37A7.83,7.83,0,0,1,97.22,78.28ZM92.4,70.43a4.82,4.82,0,0,0,4.79,4.85h0A4.83,4.83,0,0,0,102,70.49l0-4.37a4.81,4.81,0,0,0-4.79-4.84,4.76,4.76,0,0,0-3.42,1.39,4.81,4.81,0,0,0-1.43,3.4Z"/><path class="cls-1" d="M117.11,75.82a1.86,1.86,0,0,1-.33,0A1.51,1.51,0,0,1,115.64,74,49.33,49.33,0,0,0,48.31,17.86a1.5,1.5,0,1,1-1.17-2.77,52.34,52.34,0,0,1,71.43,59.55A1.49,1.49,0,0,1,117.11,75.82Z"/><path class="cls-1" d="M17.65,74.69a1.51,1.51,0,0,1-1.47-1.21,53.33,53.33,0,0,1-1-10.19A52,52,0,0,1,24,34.17a1.5,1.5,0,1,1,2.49,1.67,49.13,49.13,0,0,0-8.34,27.45,49.78,49.78,0,0,0,.94,9.61A1.5,1.5,0,0,1,18,74.66,1.53,1.53,0,0,1,17.65,74.69Z"/><path class="cls-2" d="M35.39,34.69A10.45,10.45,0,1,1,43,31.35,10.44,10.44,0,0,1,35.39,34.69Zm0-17.86a7.43,7.43,0,1,0,0,14.86,7.45,7.45,0,0,0,7.43-7.43A7.44,7.44,0,0,0,35.39,16.83Z"/><path class="cls-2" d="M53.88,124H35.68a1.5,1.5,0,1,1,0-3h18.2a1.5,1.5,0,1,1,0,3Z"/><path class="cls-3" d="M64.59,124H46.38a1.5,1.5,0,0,1,0-3H64.59a1.5,1.5,0,0,1,0,3Z"/><path class="cls-3" d="M86.52,124h-9.1a1.5,1.5,0,0,1,0-3h9.1a1.5,1.5,0,0,1,0,3Z"/><path class="cls-3" d="M99.32,124a1.49,1.49,0,0,1-1.38-2.08,1.26,1.26,0,0,1,.13-.26,2.11,2.11,0,0,1,.19-.23,1.56,1.56,0,0,1,2.12,0,2.11,2.11,0,0,1,.19.23,2.15,2.15,0,0,1,.14.26c0,.09.06.19.08.28a1.5,1.5,0,0,1-1.47,1.8Z"/><path class="cls-3" d="M81.06,111.79H35.68a1.5,1.5,0,1,1,0-3H81.06a1.5,1.5,0,0,1,0,3Z"/><path class="cls-4" d="M35.68,111.79a1.66,1.66,0,0,1-.58-.11,1.58,1.58,0,0,1-.48-.33,1.47,1.47,0,0,1-.44-1.06,1.5,1.5,0,0,1,.44-1.06,1.45,1.45,0,0,1,.23-.19,2,2,0,0,1,.25-.14l.29-.08a1.53,1.53,0,0,1,1.35.41,1.3,1.3,0,0,1,.18.23.94.94,0,0,1,.14.26,1.31,1.31,0,0,1,.09.28,1.36,1.36,0,0,1,0,.29,1.39,1.39,0,0,1-.12.57,1.34,1.34,0,0,1-.32.49A1.52,1.52,0,0,1,35.68,111.79Z"/><path class="cls-2" d="M99.32,111.79H73.56a1.5,1.5,0,0,1,0-3H99.32a1.5,1.5,0,0,1,0,3Z"/><rect class="cls-5" width="135" height="135"/></svg>