<svg id="Capa_1" data-name="Capa 1" xmlns="http://www.w3.org/2000/svg" viewBox="0 0 70 70"><defs><style>.cls-1{fill:none;}.cls-2{fill:#fff;}.cls-3{fill:#19a500;}</style></defs><title>icon_ocensa_inversionistas_redes_sociales</title><rect class="cls-1" width="70" height="70"/><g id="icon_ocenza_desktop_redes_sociales_facebook" data-name="icon ocenza desktop redes sociales facebook"><g id="Grupo_6815" data-name="Grupo 6815"><g id="Grupo_6814" data-name="Grupo 6814"><g id="Trazado_5853" data-name="Trazado 5853"><path class="cls-2" d="M35.12,69.73A34.73,34.73,0,0,1,.33,35c0-1.14.06-2.3.17-3.43a2,2,0,0,1,4,.4c-.1,1-.15,2-.15,3A30.73,30.73,0,1,0,21.71,7.32,2,2,0,1,1,20,3.72a34.73,34.73,0,1,1,15.15,66Z"/></g></g></g><g id="Trazado_5854" data-name="Trazado 5854"><path class="cls-3" d="M9.31,25.9a9.11,9.11,0,1,1,0-18.21,8.82,8.82,0,0,1,6.4,2.59,9,9,0,0,1,2.71,6.36v.15a9.1,9.1,0,0,1-9.1,9.11Zm.06-14.21h0a5.11,5.11,0,1,0,0,10.21h0a5.1,5.1,0,0,0,5.1-5.11v-.11a5,5,0,0,0-5-5Z"/></g><g id="Grupo_6016" data-name="Grupo 6016"><g id="Trazado_4951" data-name="Trazado 4951"><path class="cls-2" d="M34,53a2,2,0,0,1-2-2V27.67a7.93,7.93,0,0,1,7.91-7.91H42.4a2,2,0,0,1,0,4H39.88A3.92,3.92,0,0,0,36,27.67V51A2,2,0,0,1,34,53Z"/></g><g id="Línea_636" data-name="Línea 636"><path class="cls-2" d="M42.48,36H26.88a2,2,0,1,1,0-4h15.6a2,2,0,0,1,0,4Z"/></g></g></g></svg>