<svg xmlns="http://www.w3.org/2000/svg" viewBox="0 0 120 120"><defs><style>.cls-1{isolation:isolate;}.cls-2{fill:none;}.cls-3{fill:#28347d;}.cls-4{mix-blend-mode:multiply;}.cls-5{fill:#24a31a;}.cls-6{fill:#a2ce2a;}.cls-7{fill:#1f9254;}</style></defs><title>icon_ocensa_gobierno_corporativo_</title><g class="cls-1"><g id="Capa_1" data-name="Capa 1"><rect class="cls-2" width="120" height="120"/><path class="cls-3" d="M55.38,61.37a1.53,1.53,0,0,1-1.07-.44,1.51,1.51,0,0,1,0-2.12L61.17,52a1.51,1.51,0,0,1,2.12,0,1.49,1.49,0,0,1,0,2.12l-6.85,6.86A1.53,1.53,0,0,1,55.38,61.37Z"/><path class="cls-3" d="M85.2,66.15A29.14,29.14,0,1,1,114.56,37,29.28,29.28,0,0,1,85.2,66.15Zm0-55.28A26.14,26.14,0,1,0,111.56,37,26.28,26.28,0,0,0,85.2,10.87Z"/><path class="cls-3" d="M99.4,54.36a3.11,3.11,0,0,1-2.23-.92l-11-10.95A13.77,13.77,0,1,1,90.66,38l11,11a3.15,3.15,0,0,1-2.23,5.38ZM98.58,52a1.2,1.2,0,0,0,1.64,0,1.16,1.16,0,0,0,0-1.64L95.43,45.6l-1.64,1.63L98.58,52ZM87.78,41.3l4.58,4.54L94,44.18l-4.55-4.56c-.25.29-.52.58-.8.86A11.52,11.52,0,0,1,87.78,41.3ZM78.93,19a11.77,11.77,0,1,0,8.33,20.1h0a12,12,0,0,0,1.27-1.5l.06-.09A11.77,11.77,0,0,0,78.93,19ZM79,36.5a5.49,5.49,0,0,1-.58,0,11.53,11.53,0,0,1-8.73-4.67,1,1,0,0,1,0-1.19,11.49,11.49,0,0,1,8.71-4.67,4.82,4.82,0,0,1,1.2,0,11.49,11.49,0,0,1,8.71,4.67,1,1,0,0,1,0,1.19,11.53,11.53,0,0,1-8.73,4.67A5.49,5.49,0,0,1,79,36.5Zm-.42-2q.42,0,.84,0a3.3,3.3,0,0,0,0-6.55h-.86a3.3,3.3,0,0,0,0,6.55Zm-6.8-3.28a9.47,9.47,0,0,0,2.28,1.92,5.27,5.27,0,0,1,0-3.83A9.66,9.66,0,0,0,71.77,31.2Zm12.16-1.91a5.27,5.27,0,0,1,0,3.83,9.66,9.66,0,0,0,2.28-1.92A9.86,9.86,0,0,0,83.93,29.29Z"/><path class="cls-3" d="M65,91.09a1.51,1.51,0,0,1-1.49-1.3l-2-14.45a9.33,9.33,0,0,0-7.34-7.82L37.17,64l-17,3.51a9.32,9.32,0,0,0-7.33,7.82l-2,14.45a1.5,1.5,0,0,1-3-.41l2-14.45a12.33,12.33,0,0,1,9.7-10.35L36.87,61,37,61a12.32,12.32,0,0,1-12.08-12.3V41.24a12.3,12.3,0,1,1,24.6,0v7.45A12.32,12.32,0,0,1,37.38,61l.09,0L54.8,64.58a12.34,12.34,0,0,1,9.7,10.35l2,14.45a1.49,1.49,0,0,1-1.28,1.69ZM37.17,31.94a9.31,9.31,0,0,0-9.3,9.3v7.45a9.3,9.3,0,1,0,18.6,0V41.24A9.31,9.31,0,0,0,37.17,31.94Z"/><g class="cls-4"><path class="cls-5" d="M24.23,112.13H6.94a1.5,1.5,0,1,1,0-3H24.23a1.5,1.5,0,0,1,0,3Z"/></g><g class="cls-4"><path class="cls-6" d="M34.4,112.13H17.11a1.5,1.5,0,0,1,0-3H34.4a1.5,1.5,0,1,1,0,3Z"/></g><g class="cls-4"><path class="cls-6" d="M55.24,112.13H46.59a1.5,1.5,0,0,1,0-3h8.65a1.5,1.5,0,1,1,0,3Z"/></g><g class="cls-4"><path class="cls-6" d="M67.4,112.13a1.5,1.5,0,0,1-1.06-.44,1.52,1.52,0,0,1-.44-1.06,1.48,1.48,0,0,1,.44-1.06,1.55,1.55,0,0,1,2.12,0,1.48,1.48,0,0,1,.44,1.06,1.52,1.52,0,0,1-.44,1.06A1.5,1.5,0,0,1,67.4,112.13Z"/></g><g class="cls-4"><path class="cls-6" d="M50.05,100.51H6.94a1.5,1.5,0,1,1,0-3H50.05a1.5,1.5,0,0,1,0,3Z"/></g><g class="cls-4"><path class="cls-7" d="M6.94,100.51a1.52,1.52,0,0,1-1.39-.93A1.56,1.56,0,0,1,5.44,99,1.52,1.52,0,0,1,5.88,98,1.55,1.55,0,0,1,8,98,1.52,1.52,0,0,1,8.44,99a1.39,1.39,0,0,1-.12.57,1.43,1.43,0,0,1-.32.49A1.52,1.52,0,0,1,6.94,100.51Z"/></g><g class="cls-4"><path class="cls-5" d="M67.4,100.51H42.93a1.5,1.5,0,1,1,0-3H67.4a1.5,1.5,0,0,1,0,3Z"/></g></g></g></svg>