<svg xmlns="http://www.w3.org/2000/svg" viewBox="0 0 120 120"><defs><style>.cls-1{isolation:isolate;}.cls-2{fill:none;}.cls-3{fill:#28347d;}.cls-4{mix-blend-mode:multiply;}.cls-5{fill:#24a31a;}.cls-6{fill:#a2ce2a;}.cls-7{fill:#1f9254;}</style></defs><title>icon_ocensa_gobierno_corporativo_</title><g class="cls-1"><g id="Capa_1" data-name="Capa 1"><rect class="cls-2" width="120" height="120"/><path class="cls-3" d="M55.38,61.7a1.53,1.53,0,0,1-1.07-.44,1.51,1.51,0,0,1,0-2.12l6.86-6.86a1.51,1.51,0,0,1,2.12,0,1.49,1.49,0,0,1,0,2.12l-6.85,6.86A1.53,1.53,0,0,1,55.38,61.7Z"/><path class="cls-3" d="M100.28,51.41H70.13a1,1,0,0,1-1-1V28.23a1,1,0,0,1,1-1h9.14v-.58a2.94,2.94,0,0,1,2.93-2.94h6a2.94,2.94,0,0,1,2.93,2.94v.58h9.14a1,1,0,0,1,1,1V50.41A1,1,0,0,1,100.28,51.41Zm-29.15-2H99.28V36.79l-9.77,2.76v.24a2.9,2.9,0,0,1-2.9,2.9H83.8a2.9,2.9,0,0,1-2.9-2.9v-.24l-9.77-2.76ZM82.9,38.72v1.07a.9.9,0,0,0,.9.9h2.81a.91.91,0,0,0,.9-.9V38.72Zm-1-2h6.61a1,1,0,0,1,1,.76l9.8-2.77V29.23H71.13v5.48l9.8,2.77A1,1,0,0,1,81.9,36.72Zm-.63-9.49h7.87v-.58a.94.94,0,0,0-.93-.94h-6a.94.94,0,0,0-.93.94Z"/><path class="cls-3" d="M85.2,66.48a29.14,29.14,0,1,1,29.36-29.14A29.28,29.28,0,0,1,85.2,66.48Zm0-55.28a26.14,26.14,0,1,0,26.36,26.14A26.28,26.28,0,0,0,85.2,11.2Z"/><path class="cls-3" d="M65,90.81a1.51,1.51,0,0,1-1.48-1.3l-2-14.45a9.33,9.33,0,0,0-7.34-7.82l-17-3.51-17,3.51a9.32,9.32,0,0,0-7.33,7.82l-2,14.45a1.52,1.52,0,0,1-1.7,1.28A1.5,1.5,0,0,1,7.82,89.1l2-14.45a12.33,12.33,0,0,1,9.7-10.35l17.33-3.57.09,0a12.31,12.31,0,0,1-12.09-12.3V41a12.3,12.3,0,1,1,24.6,0v7.45a12.32,12.32,0,0,1-12.09,12.3l.09,0L54.8,64.3a12.34,12.34,0,0,1,9.7,10.35l2,14.45a1.49,1.49,0,0,1-1.28,1.69ZM37.17,31.66a9.31,9.31,0,0,0-9.3,9.3v7.45a9.3,9.3,0,1,0,18.6,0V41A9.31,9.31,0,0,0,37.17,31.66Z"/><g class="cls-4"><path class="cls-5" d="M24.23,111.84H6.94a1.5,1.5,0,1,1,0-3H24.23a1.5,1.5,0,0,1,0,3Z"/></g><g class="cls-4"><path class="cls-6" d="M34.4,111.84H17.11a1.5,1.5,0,0,1,0-3H34.4a1.5,1.5,0,1,1,0,3Z"/></g><g class="cls-4"><path class="cls-6" d="M55.24,111.84H46.59a1.5,1.5,0,0,1,0-3h8.65a1.5,1.5,0,1,1,0,3Z"/></g><g class="cls-4"><path class="cls-6" d="M67.4,111.85a1.36,1.36,0,0,1-.29,0,1.61,1.61,0,0,1-.54-.23,1.76,1.76,0,0,1-.42-.41,2.15,2.15,0,0,1-.14-.26c0-.09-.06-.19-.08-.28a1.53,1.53,0,0,1,0-.3,1.5,1.5,0,0,1,0-.29c0-.09,0-.19.08-.28a2.15,2.15,0,0,1,.14-.26,2.11,2.11,0,0,1,.19-.23,2,2,0,0,1,.23-.18,1.3,1.3,0,0,1,.26-.14.9.9,0,0,1,.28-.08,1.42,1.42,0,0,1,.58,0A.9.9,0,0,1,68,109a1.3,1.3,0,0,1,.26.14,2,2,0,0,1,.23.18,2.11,2.11,0,0,1,.19.23,1.26,1.26,0,0,1,.13.26,1.43,1.43,0,0,1,0,1.15,1.26,1.26,0,0,1-.13.26,1.37,1.37,0,0,1-.19.22A1.48,1.48,0,0,1,67.4,111.85Z"/></g><g class="cls-4"><path class="cls-6" d="M50.05,100.23H6.94a1.5,1.5,0,1,1,0-3H50.05a1.5,1.5,0,0,1,0,3Z"/></g><g class="cls-4"><path class="cls-7" d="M6.94,100.23a1.53,1.53,0,0,1-.3,0l-.28-.08L6.1,100l-.22-.19a1.06,1.06,0,0,1-.19-.23,2.15,2.15,0,0,1-.14-.26A2.29,2.29,0,0,1,5.47,99a1.36,1.36,0,0,1,0-.29,1.52,1.52,0,0,1,.44-1.06l.22-.19.26-.14.28-.08A1.52,1.52,0,0,1,8,97.67a1.5,1.5,0,0,1,.44,1.06,1.36,1.36,0,0,1,0,.29,1.31,1.31,0,0,1-.09.28,1.26,1.26,0,0,1-.13.26,1.45,1.45,0,0,1-.19.23A1.52,1.52,0,0,1,6.94,100.23Z"/></g><g class="cls-4"><path class="cls-5" d="M67.4,100.23H42.93a1.5,1.5,0,1,1,0-3H67.4a1.5,1.5,0,0,1,0,3Z"/></g></g></g></svg>