<svg id="Capa_1" data-name="Capa 1" xmlns="http://www.w3.org/2000/svg" viewBox="0 0 70 70"><defs><style>.cls-1{fill:none;}.cls-2{fill:#fff;}.cls-3{fill:#19a500;}</style></defs><title>icon_ocensa_inversionistas_redes_sociales</title><rect class="cls-1" width="70" height="70"/><g id="icon_ocenza_desktop_redes_sociales_youtube" data-name="icon ocenza desktop redes sociales youtube"><g id="Grupo_6807" data-name="Grupo 6807"><g id="Grupo_6806" data-name="Grupo 6806"><g id="Trazado_5847" data-name="Trazado 5847"><path class="cls-2" d="M35.12,69.73A34.73,34.73,0,0,1,.33,35c0-1.14.06-2.3.17-3.43a2,2,0,0,1,4,.4c-.1,1-.15,2-.15,3A30.73,30.73,0,1,0,21.71,7.32,2,2,0,1,1,20,3.72a34.73,34.73,0,1,1,15.15,66Z"/></g></g></g><g id="Trazado_5848" data-name="Trazado 5848"><path class="cls-3" d="M9.31,25.9a9.11,9.11,0,1,1,0-18.21,8.85,8.85,0,0,1,6.4,2.59,9,9,0,0,1,2.71,6.36v.15a9.1,9.1,0,0,1-9.1,9.11Zm.06-14.21h0a5.11,5.11,0,1,0,0,10.21h0a5.1,5.1,0,0,0,5.1-5.11v-.11a5,5,0,0,0-5-5Z"/></g><g id="Grupo_6808" data-name="Grupo 6808"><g id="Rectángulo_1821" data-name="Rectángulo 1821"><path class="cls-2" d="M43.81,50.38H26.29a10,10,0,0,1-10-10V31.63a10,10,0,0,1,10-10H43.81a10,10,0,0,1,10,10v8.76A10,10,0,0,1,43.81,50.38ZM26.29,25.64a6,6,0,0,0-6,6v8.76a6,6,0,0,0,6,6H43.81a6,6,0,0,0,6-6V31.63a6,6,0,0,0-6-6Z"/></g><g id="Trazado_4958" data-name="Trazado 4958"><path class="cls-2" d="M32.81,42.5a2,2,0,0,1-1.41-.59,2,2,0,0,1,0-2.82L34.47,36,31.4,32.93a2,2,0,0,1,2.83-2.82l4.49,4.49a2,2,0,0,1,0,2.82l-4.49,4.49A2,2,0,0,1,32.81,42.5Z"/></g></g></g></svg>