<svg xmlns="http://www.w3.org/2000/svg" width="120.36" height="119.871" viewBox="0 0 120.36 119.871">
  <g id="Grupo_8149" data-name="Grupo 8149" transform="translate(0.18 -0.064)">
    <rect id="Rectángulo_2795" data-name="Rectángulo 2795" width="120.36" height="119.871" transform="translate(-0.18 0.064)" fill="none"/>
    <g id="Grupo_8145" data-name="Grupo 8145">
      <g id="Grupo_8144" data-name="Grupo 8144">
        <line id="Línea_2463" data-name="Línea 2463" x1="8.39" transform="translate(37.985 113.094)" fill="none" stroke="#fff" stroke-linecap="round" stroke-linejoin="round" stroke-width="4"/>
        <line id="Línea_2464" data-name="Línea 2464" transform="translate(27.932 100.832)" fill="none" stroke="#fff" stroke-linecap="round" stroke-linejoin="round" stroke-width="4" opacity="0.5" style="isolation: isolate"/>
        <g id="Grupo_8143" data-name="Grupo 8143" opacity="0.5">
          <line id="Línea_2465" data-name="Línea 2465" x1="9.152" transform="translate(69.872 113.119)" fill="none" stroke="#fff" stroke-linecap="round" stroke-linejoin="round" stroke-width="4"/>
          <line id="Línea_2466" data-name="Línea 2466" transform="translate(91.883 113.119)" fill="none" stroke="#fff" stroke-linecap="round" stroke-linejoin="round" stroke-width="4"/>
          <line id="Línea_2467" data-name="Línea 2467" x1="18.292" transform="translate(27.932 113.119)" fill="none" stroke="#fff" stroke-linecap="round" stroke-linejoin="round" stroke-width="4"/>
          <line id="Línea_2468" data-name="Línea 2468" x1="18.304" transform="translate(38.683 113.119)" fill="none" stroke="#fff" stroke-linecap="round" stroke-linejoin="round" stroke-width="4"/>
        </g>
        <line id="Línea_2469" data-name="Línea 2469" x1="45.608" transform="translate(27.932 100.832)" fill="none" stroke="#fff" stroke-linecap="round" stroke-linejoin="round" stroke-width="4" opacity="0.5" style="isolation: isolate"/>
        <line id="Línea_2470" data-name="Línea 2470" x1="25.882" transform="translate(66 100.832)" fill="none" stroke="#fff" stroke-linecap="round" stroke-linejoin="round" stroke-width="4" opacity="0.5" style="isolation: isolate"/>
        <line id="Línea_2471" data-name="Línea 2471" x1="7.502" transform="translate(66.064 100.832)" fill="none" stroke="#fff" stroke-linecap="round" stroke-linejoin="round" stroke-width="4"/>
      </g>
    </g>
    <path id="Trazado_6768" data-name="Trazado 6768" d="M40.789,16.81a7.5,7.5,0,1,1-9.937-3.7A7.474,7.474,0,0,1,40.789,16.81Z" fill="none" stroke="#fff" stroke-linecap="round" stroke-linejoin="round" stroke-width="4" opacity="0.85"/>
    <g id="Grupo_8146" data-name="Grupo 8146">
      <path id="Trazado_6769" data-name="Trazado 6769" d="M29.68,35.4V77A13.023,13.023,0,0,0,42.7,90.021H63.394l24.97-.054V14.784H48.111" fill="none" stroke="#95a6b1" stroke-linecap="round" stroke-linejoin="round" stroke-width="4"/>
    </g>
    <g id="Grupo_8148" data-name="Grupo 8148">
      <g id="Grupo_8147" data-name="Grupo 8147">
        <line id="Línea_2472" data-name="Línea 2472" y1="0.036" x2="15.403" transform="translate(64.089 59.9)" fill="none" stroke="#95a6b1" stroke-linecap="round" stroke-linejoin="round" stroke-width="4"/>
        <path id="Trazado_6770" data-name="Trazado 6770" d="M57.961,47.468c.681-2.042,2.836-2.975,4.52-3.216,3.31-.472,11.683-1.4,14.946,2.65,1.751,2.176,1.381,5.007,1.6,7.608q.229,2.7.461,5.39" fill="none" stroke="#95a6b1" stroke-linecap="round" stroke-linejoin="round" stroke-width="4"/>
        <path id="Trazado_6771" data-name="Trazado 6771" d="M72.047,32.531a4.712,4.712,0,1,1-9.424,0" fill="none" stroke="#95a6b1" stroke-linecap="round" stroke-linejoin="round" stroke-width="4"/>
        <path id="Trazado_6772" data-name="Trazado 6772" d="M62.623,32.531V29.277a4.712,4.712,0,1,1,9.424,0v3.254" fill="none" stroke="#95a6b1" stroke-linecap="round" stroke-linejoin="round" stroke-width="4"/>
      </g>
    </g>
    <path id="Trazado_6773" data-name="Trazado 6773" d="M53.616,43.5l-14.9,32.965a1.256,1.256,0,0,0,1.145,1.773H71.257A1.256,1.256,0,0,0,72.38,76.42l-16.5-32.965A1.256,1.256,0,0,0,53.616,43.5Z" fill="none" stroke="#95a6b1" stroke-linecap="round" stroke-linejoin="round" stroke-width="4"/>
    <line id="Línea_2473" data-name="Línea 2473" y2="8.612" transform="translate(55.05 56.651)" fill="none" stroke="#95a6b1" stroke-linecap="round" stroke-linejoin="round" stroke-width="4"/>
    <ellipse id="Elipse_1156" data-name="Elipse 1156" cx="2.501" cy="2.417" rx="2.501" ry="2.417" transform="translate(52.55 68.644)" fill="#95a6b1" stroke="#95a6b1" stroke-miterlimit="10" stroke-width="1"/>
  </g>
</svg>
