<svg xmlns="http://www.w3.org/2000/svg" viewBox="0 0 135 135"><defs><style>.cls-1{isolation:isolate;}.cls-2{fill:#28347d;}.cls-3{fill:#24a31a;}.cls-4{mix-blend-mode:multiply;}.cls-5{fill:#19a500;}.cls-6{fill:#a2ce2a;}.cls-7{fill:#1f9254;}.cls-8{fill:none;}</style></defs><title>icon_ocensa_gobierno_corporativo_</title><g class="cls-1"><g id="Capa_1" data-name="Capa 1"><path class="cls-2" d="M91.52,102.64H50.22A12.54,12.54,0,0,1,37.69,90.11V33.05a1.5,1.5,0,0,1,3,0V90.11a9.54,9.54,0,0,0,9.53,9.53h41.3a9.54,9.54,0,0,0,9.53-9.53V17.59H56.1a1.5,1.5,0,0,1,0-3h46.45a1.5,1.5,0,0,1,1.5,1.5v74A12.54,12.54,0,0,1,91.52,102.64Z"/><path class="cls-3" d="M41.24,28.66a10.43,10.43,0,1,1,7.64-3.34A10.44,10.44,0,0,1,41.24,28.66Zm0-17.86a7.43,7.43,0,0,0,0,14.86,7.43,7.43,0,0,0,0-14.86Z"/><path class="cls-2" d="M58.34,51.54h-9.4a1.5,1.5,0,0,1-1.5-1.5V41.48a1.5,1.5,0,0,1,1.5-1.5h9.4a1.5,1.5,0,0,1,1.5,1.5V50A1.5,1.5,0,0,1,58.34,51.54Zm-7.9-3h6.4V43h-6.4Z"/><path class="cls-2" d="M75.57,51.54h-9.4a1.5,1.5,0,0,1-1.5-1.5V41.48a1.5,1.5,0,0,1,1.5-1.5h9.4a1.5,1.5,0,0,1,1.5,1.5V50A1.5,1.5,0,0,1,75.57,51.54Zm-7.9-3h6.4V43h-6.4Z"/><path class="cls-2" d="M92.8,51.54H83.41a1.5,1.5,0,0,1-1.5-1.5V41.48a1.5,1.5,0,0,1,1.5-1.5H92.8a1.5,1.5,0,0,1,1.5,1.5V50A1.5,1.5,0,0,1,92.8,51.54Zm-7.89-3H91.3V43H84.91Z"/><path class="cls-2" d="M58.34,67.48h-9.4a1.5,1.5,0,0,1-1.5-1.5V57.42a1.5,1.5,0,0,1,1.5-1.5h9.4a1.5,1.5,0,0,1,1.5,1.5V66A1.5,1.5,0,0,1,58.34,67.48Zm-7.9-3h6.4V58.92h-6.4Z"/><path class="cls-2" d="M75.57,67.48h-9.4a1.5,1.5,0,0,1-1.5-1.5V57.42a1.5,1.5,0,0,1,1.5-1.5h9.4a1.5,1.5,0,0,1,1.5,1.5V66A1.5,1.5,0,0,1,75.57,67.48Zm-7.9-3h6.4V58.92h-6.4Z"/><path class="cls-2" d="M92.8,67.48H83.41a1.5,1.5,0,0,1-1.5-1.5V57.42a1.5,1.5,0,0,1,1.5-1.5H92.8a1.5,1.5,0,0,1,1.5,1.5V66A1.5,1.5,0,0,1,92.8,67.48Zm-7.89-3H91.3V58.92H84.91Z"/><path class="cls-2" d="M58.34,83.42h-9.4a1.5,1.5,0,0,1-1.5-1.5V73.36a1.5,1.5,0,0,1,1.5-1.5h9.4a1.5,1.5,0,0,1,1.5,1.5v8.56A1.5,1.5,0,0,1,58.34,83.42Zm-7.9-3h6.4V74.86h-6.4Z"/><path class="cls-2" d="M76.17,84H65.57a1.5,1.5,0,0,1-1.5-1.5V72.81a1.5,1.5,0,0,1,1.5-1.5h10.6a1.5,1.5,0,0,1,1.5,1.5v9.66A1.5,1.5,0,0,1,76.17,84Zm-9.1-3h7.6V74.31h-7.6Z"/><path class="cls-2" d="M92.8,83.42H83.41a1.5,1.5,0,0,1-1.5-1.5V73.36a1.5,1.5,0,0,1,1.5-1.5H92.8a1.5,1.5,0,0,1,1.5,1.5v8.56A1.5,1.5,0,0,1,92.8,83.42Zm-7.89-3H91.3V74.86H84.91Z"/><path class="cls-2" d="M71.45,80.24h-.13a1.5,1.5,0,0,1-1.16-.71l-1.31-2.16a1.5,1.5,0,0,1,2.57-1.56l.23.39L77,70a1.5,1.5,0,1,1,2.27,2l-6.67,7.78A1.47,1.47,0,0,1,71.45,80.24Z"/><path class="cls-2" d="M92.8,23.24a1.5,1.5,0,0,1-1.5-1.5V10.43a1.5,1.5,0,1,1,3,0V21.74A1.5,1.5,0,0,1,92.8,23.24Z"/><path class="cls-2" d="M62.43,23.24a1.5,1.5,0,0,1-1.5-1.5V10.43a1.5,1.5,0,0,1,3,0V21.74A1.5,1.5,0,0,1,62.43,23.24Z"/><path class="cls-2" d="M72.55,23.24a1.5,1.5,0,0,1-1.5-1.5V10.43a1.5,1.5,0,1,1,3,0V21.74A1.5,1.5,0,0,1,72.55,23.24Z"/><path class="cls-2" d="M82.68,23.24a1.5,1.5,0,0,1-1.5-1.5V10.43a1.5,1.5,0,0,1,3,0V21.74A1.5,1.5,0,0,1,82.68,23.24Z"/><g class="cls-4"><path class="cls-5" d="M57.25,127.2H39.05a1.5,1.5,0,0,1,0-3h18.2a1.5,1.5,0,0,1,0,3Z"/></g><g class="cls-4"><path class="cls-6" d="M68,127.2H49.75a1.5,1.5,0,1,1,0-3H68a1.5,1.5,0,0,1,0,3Z"/></g><g class="cls-4"><path class="cls-6" d="M89.89,127.2h-9.1a1.5,1.5,0,0,1,0-3h9.1a1.5,1.5,0,0,1,0,3Z"/></g><g class="cls-4"><path class="cls-6" d="M102.69,127.2a1.5,1.5,0,0,1-1.5-1.5,1.5,1.5,0,0,1,.44-1.06,2.11,2.11,0,0,1,.23-.19l.26-.14a1.29,1.29,0,0,1,.28-.08,1.59,1.59,0,0,1,.87.08l.26.14.22.19a1.5,1.5,0,0,1,0,2.12A1.5,1.5,0,0,1,102.69,127.2Z"/></g><g class="cls-4"><path class="cls-6" d="M84.43,115H39.05a1.5,1.5,0,1,1,0-3H84.43a1.5,1.5,0,0,1,0,3Z"/></g><g class="cls-4"><path class="cls-7" d="M39.05,115a1.5,1.5,0,0,1-1.5-1.5,1.36,1.36,0,0,1,0-.29,2.29,2.29,0,0,1,.08-.28,2.15,2.15,0,0,1,.14-.26,2.11,2.11,0,0,1,.19-.23,1.45,1.45,0,0,1,.23-.19,1.19,1.19,0,0,1,.25-.13,1.47,1.47,0,0,1,1.64.32,2.11,2.11,0,0,1,.19.23,1.26,1.26,0,0,1,.13.26,1.31,1.31,0,0,1,.09.28,1.36,1.36,0,0,1,0,.29,1.5,1.5,0,0,1-.44,1.06,1.63,1.63,0,0,1-.49.33A1.56,1.56,0,0,1,39.05,115Z"/></g><g class="cls-4"><path class="cls-5" d="M102.69,115H76.93a1.5,1.5,0,0,1,0-3h25.76a1.5,1.5,0,0,1,0,3Z"/></g><rect class="cls-8" width="135" height="135"/></g></g></svg>