<svg xmlns="http://www.w3.org/2000/svg" viewBox="0 0 135 135"><defs><style>.cls-1{isolation:isolate;}.cls-2{fill:#28347d;}.cls-3{fill:#19a500;}.cls-4{fill:none;}.cls-5{mix-blend-mode:multiply;}.cls-6{fill:#a2ce2a;}.cls-7{fill:#1f9254;}</style></defs><title>icon_ocensa_gobierno_corporativo_</title><g class="cls-1"><g id="Capa_1" data-name="Capa 1"><path class="cls-2" d="M30.62,75.5a1.5,1.5,0,0,1-1.48-1.3l-.6-4.52a1.9,1.9,0,0,0-1.47-1.59L22,67l-5.12,1a1.89,1.89,0,0,0-1.49,1.57l-.65,4.51a1.5,1.5,0,1,1-3-.43l.65-4.51a4.89,4.89,0,0,1,3.87-4.08l2.31-.46,0,0a4.84,4.84,0,0,1-1.41-3.46h0V58.81A4.88,4.88,0,0,1,22,54h0a4.88,4.88,0,0,1,4.84,4.91V61.2a4.85,4.85,0,0,1-1.45,3.44l0,0,2.3.49a4.87,4.87,0,0,1,3.82,4.12l.6,4.52a1.5,1.5,0,0,1-1.29,1.69ZM20.12,61.16A1.87,1.87,0,0,0,22,63a1.88,1.88,0,0,0,1.89-1.86V58.85A1.88,1.88,0,0,0,22,57h0a1.89,1.89,0,0,0-1.88,1.87Z"/><path class="cls-2" d="M21.92,85A18.62,18.62,0,0,1,3.31,66.44a1.5,1.5,0,0,1,3,0,15.61,15.61,0,0,0,31.21,0,1.5,1.5,0,0,1,3,0A18.62,18.62,0,0,1,21.92,85Z"/><path class="cls-2" d="M76.23,94.16a1.5,1.5,0,0,1-1.48-1.3l-.61-4.52a1.87,1.87,0,0,0-1.47-1.59l-5.1-1.08-5.12,1A1.88,1.88,0,0,0,61,88.26l-.66,4.51a1.5,1.5,0,0,1-3-.43L58,87.83a4.89,4.89,0,0,1,3.87-4.08l2.31-.46a4.9,4.9,0,0,1-1.45-3.49h0l0-2.33a4.88,4.88,0,0,1,4.87-4.85h0a4.89,4.89,0,0,1,4.85,4.91l0,2.33A4.84,4.84,0,0,1,71,83.3l0,0,2.31.49a4.9,4.9,0,0,1,3.82,4.12l.6,4.52a1.51,1.51,0,0,1-1.29,1.69ZM65.72,79.82a1.88,1.88,0,0,0,1.87,1.88,1.83,1.83,0,0,0,1.33-.54,1.86,1.86,0,0,0,.55-1.32l0-2.33a1.89,1.89,0,0,0-1.87-1.89h0a1.86,1.86,0,0,0-1.87,1.87Z"/><path class="cls-2" d="M67.53,103.7A18.62,18.62,0,0,1,48.92,85.1a1.5,1.5,0,0,1,3,0,15.61,15.61,0,0,0,31.21,0,1.5,1.5,0,0,1,3,0A18.62,18.62,0,0,1,67.53,103.7Z"/><path class="cls-2" d="M121.79,75.5a1.51,1.51,0,0,1-1.49-1.3l-.6-4.52a1.9,1.9,0,0,0-1.47-1.59L113.12,67,108,68a1.91,1.91,0,0,0-1.49,1.57l-.65,4.51a1.5,1.5,0,1,1-3-.43l.66-4.51a4.88,4.88,0,0,1,3.86-4.08l2.31-.46,0,0a4.84,4.84,0,0,1-1.41-3.46h0V58.81A4.88,4.88,0,0,1,113.17,54h0A4.88,4.88,0,0,1,118,58.87V61.2a4.85,4.85,0,0,1-1.45,3.44l0,0,2.3.49a4.87,4.87,0,0,1,3.82,4.12l.6,4.52A1.5,1.5,0,0,1,122,75.49ZM111.28,61.16A1.87,1.87,0,0,0,113.14,63,1.88,1.88,0,0,0,115,61.18V58.85A1.88,1.88,0,0,0,113.18,57a1.74,1.74,0,0,0-1.33.54,1.91,1.91,0,0,0-.56,1.33Z"/><path class="cls-2" d="M113.08,85a18.62,18.62,0,0,1-18.6-18.6,1.5,1.5,0,0,1,3,0,15.61,15.61,0,0,0,31.21,0,1.5,1.5,0,0,1,3,0A18.62,18.62,0,0,1,113.08,85Z"/><path class="cls-2" d="M76.23,38.45a1.5,1.5,0,0,1-1.48-1.3l-.61-4.52A1.87,1.87,0,0,0,72.67,31L67.57,30l-5.12,1A1.88,1.88,0,0,0,61,32.55l-.66,4.51a1.5,1.5,0,1,1-3-.43L58,32.12A4.88,4.88,0,0,1,61.86,28l2.31-.46a4.9,4.9,0,0,1-1.45-3.49h0l0-2.33a4.84,4.84,0,0,1,1.45-3.44,4.68,4.68,0,0,1,3.45-1.41,4.89,4.89,0,0,1,4.85,4.91l0,2.33A4.8,4.8,0,0,1,71,27.58l0,0,2.31.49a4.88,4.88,0,0,1,3.82,4.12l.6,4.52a1.49,1.49,0,0,1-1.29,1.68ZM65.72,24.11A1.88,1.88,0,0,0,67.59,26a1.79,1.79,0,0,0,1.33-.54,1.86,1.86,0,0,0,.55-1.32l0-2.33a1.88,1.88,0,0,0-1.87-1.89,2.06,2.06,0,0,0-1.33.54,1.88,1.88,0,0,0-.55,1.33Z"/><path class="cls-2" d="M67.53,69.1A1.5,1.5,0,0,1,66,67.6V46.49a1.5,1.5,0,0,1,3,0V67.6A1.5,1.5,0,0,1,67.53,69.1Z"/><path class="cls-2" d="M21.92,49.6a1.5,1.5,0,0,1-1.5-1.5V37.51a9.64,9.64,0,0,1,9.63-9.62H50.42a1.5,1.5,0,0,1,0,3H30.05a6.63,6.63,0,0,0-6.63,6.62V48.1A1.5,1.5,0,0,1,21.92,49.6Z"/><path class="cls-2" d="M113.13,49.6a1.5,1.5,0,0,1-1.5-1.5V37.51A6.63,6.63,0,0,0,105,30.89H84.63a1.5,1.5,0,0,1,0-3H105a9.64,9.64,0,0,1,9.63,9.62V48.1A1.5,1.5,0,0,1,113.13,49.6Z"/><path class="cls-3" d="M67.53,48a18.61,18.61,0,1,1,18.6-18.6A18.62,18.62,0,0,1,67.53,48Zm0-34.21a15.61,15.61,0,1,0,15.6,15.61A15.62,15.62,0,0,0,67.53,13.78Z"/><rect class="cls-4" width="135" height="135"/><g class="cls-5"><path class="cls-3" d="M54.54,130.48H36.33a1.5,1.5,0,1,1,0-3H54.54a1.5,1.5,0,1,1,0,3Z"/></g><g class="cls-5"><path class="cls-6" d="M65.24,130.48H47a1.5,1.5,0,1,1,0-3h18.2a1.5,1.5,0,1,1,0,3Z"/></g><g class="cls-5"><path class="cls-6" d="M87.18,130.48H78.07a1.5,1.5,0,0,1,0-3h9.11a1.5,1.5,0,1,1,0,3Z"/></g><g class="cls-5"><path class="cls-6" d="M100,130.48l-.29,0a1.47,1.47,0,0,1-.28-.08l-.26-.14a2.11,2.11,0,0,1-.23-.19,1.5,1.5,0,0,1-.44-1.06,1.52,1.52,0,0,1,.44-1.06,2.11,2.11,0,0,1,.23-.19,1.26,1.26,0,0,1,.26-.13,1.49,1.49,0,0,1,2,2,1.23,1.23,0,0,1-.14.25,1.41,1.41,0,0,1-.18.23A1.52,1.52,0,0,1,100,130.48Z"/></g><g class="cls-5"><path class="cls-6" d="M81.72,118.26H36.33a1.5,1.5,0,0,1,0-3H81.72a1.5,1.5,0,0,1,0,3Z"/></g><g class="cls-5"><path class="cls-7" d="M36.33,118.26a1.36,1.36,0,0,1-.29,0,1.69,1.69,0,0,1-.77-.41,2.11,2.11,0,0,1-.19-.23,1.26,1.26,0,0,1-.13-.26,1.31,1.31,0,0,1-.09-.28,1.5,1.5,0,0,1,0-.29,1.41,1.41,0,0,1,.12-.58,1.26,1.26,0,0,1,.13-.26,2.11,2.11,0,0,1,.19-.23,1.53,1.53,0,0,1,1.35-.4,1.29,1.29,0,0,1,.28.08l.26.14a1.41,1.41,0,0,1,.23.18,2.11,2.11,0,0,1,.19.23,2.15,2.15,0,0,1,.14.26c0,.09.06.19.08.28a1.53,1.53,0,0,1,0,.3,1.5,1.5,0,0,1,0,.29,2.29,2.29,0,0,1-.08.28,2.15,2.15,0,0,1-.14.26,2.11,2.11,0,0,1-.19.23,1,1,0,0,1-.23.18,1.61,1.61,0,0,1-.54.23A1.36,1.36,0,0,1,36.33,118.26Z"/></g><g class="cls-5"><path class="cls-3" d="M100,118.26H74.22a1.5,1.5,0,0,1,0-3H100a1.5,1.5,0,0,1,0,3Z"/></g></g></g></svg>