<svg xmlns="http://www.w3.org/2000/svg" viewBox="0 0 120 120"><defs><style>.cls-1{isolation:isolate;}.cls-2{fill:none;}.cls-3{fill:#28347d;}.cls-4{mix-blend-mode:multiply;}.cls-5{fill:#24a31a;}.cls-6{fill:#a2ce2a;}.cls-7{fill:#1f9254;}</style></defs><title>icon_ocensa_gobierno_corporativo_</title><g class="cls-1"><g id="Capa_1" data-name="Capa 1"><rect class="cls-2" width="120" height="120"/><path class="cls-3" d="M55.38,61.65a1.5,1.5,0,0,1-1.06-2.56l6.85-6.86a1.51,1.51,0,0,1,2.12,0,1.49,1.49,0,0,1,0,2.12l-6.85,6.86A1.53,1.53,0,0,1,55.38,61.65Z"/><path class="cls-3" d="M85.2,66.43a29.14,29.14,0,1,1,29.36-29.14A29.29,29.29,0,0,1,85.2,66.43Zm0-55.28a26.14,26.14,0,1,0,26.36,26.14A26.29,26.29,0,0,0,85.2,11.15Z"/><path class="cls-3" d="M95.43,56.1H75a1,1,0,0,1-1-1V30.62a1,1,0,0,1,1-1h3V19.74a1,1,0,0,1,.45-.84,1,1,0,0,1,1-.08l1.95.86,1.3-.92a1,1,0,0,1,1-.08l2,1,1.64-1a1,1,0,0,1,1,0l1.55.84,1.66-.78a1,1,0,0,1,1,.06,1,1,0,0,1,.47.84V29.62h2.49a1,1,0,0,1,1,1V55.1A1,1,0,0,1,95.43,56.1ZM76,54.1H94.43V31.62H76Zm4-24.48H90.94V21.15l-.69.33a1,1,0,0,1-.91,0l-1.48-.8-1.62,1a1,1,0,0,1-1,0l-1.93-1-1.27.9a1,1,0,0,1-1,.1L80,21.27ZM92.25,52.26H90.32a1,1,0,0,1,0-2h1.93a1,1,0,0,1,0,2Zm-5.68,0H84.63a1,1,0,0,1,0-2h1.94a1,1,0,0,1,0,2Zm-6,0H78.59a1,1,0,0,1,0-2h1.94a1,1,0,0,1,0,2Zm11.72-3.85H90.32a1,1,0,0,1,0-2h1.93a1,1,0,0,1,0,2Zm-5.68,0H84.63a1,1,0,0,1,0-2h1.94a1,1,0,0,1,0,2Zm-6,0H78.59a1,1,0,0,1,0-2h1.94a1,1,0,0,1,0,2Zm11.72-3.86H90.32a1,1,0,0,1,0-2h1.93a1,1,0,0,1,0,2Zm-5.68,0H84.63a1,1,0,0,1,0-2h1.94a1,1,0,0,1,0,2Zm-6,0H78.59a1,1,0,0,1,0-2h1.94a1,1,0,0,1,0,2ZM91.94,40H79a1,1,0,0,1-1-1V34a1,1,0,0,1,1-1H91.94a1,1,0,0,1,1,1v5A1,1,0,0,1,91.94,40ZM80,38H90.94V35H80Zm8.5-11.09h-6a1,1,0,0,1,0-2h6a1,1,0,0,1,0,2Z"/><path class="cls-3" d="M65,90.81a1.51,1.51,0,0,1-1.49-1.3l-2-14.45a9.33,9.33,0,0,0-7.34-7.82l-17-3.51-17,3.51a9.32,9.32,0,0,0-7.33,7.82l-2,14.45a1.5,1.5,0,1,1-3-.41l2-14.45a12.33,12.33,0,0,1,9.7-10.35l17.33-3.57.09,0a12.31,12.31,0,0,1-12.09-12.3V41a12.3,12.3,0,1,1,24.6,0v7.45a12.32,12.32,0,0,1-12.09,12.3l.09,0L54.8,64.3a12.34,12.34,0,0,1,9.7,10.35l2,14.45a1.49,1.49,0,0,1-1.28,1.69ZM37.17,31.66a9.31,9.31,0,0,0-9.3,9.3v7.45a9.3,9.3,0,1,0,18.6,0V41A9.31,9.31,0,0,0,37.17,31.66Z"/><g class="cls-4"><path class="cls-5" d="M24.23,111.84H6.94a1.5,1.5,0,1,1,0-3H24.23a1.5,1.5,0,0,1,0,3Z"/></g><g class="cls-4"><path class="cls-6" d="M34.4,111.84H17.11a1.5,1.5,0,0,1,0-3H34.4a1.5,1.5,0,1,1,0,3Z"/></g><g class="cls-4"><path class="cls-6" d="M55.24,111.84H46.59a1.5,1.5,0,0,1,0-3h8.65a1.5,1.5,0,1,1,0,3Z"/></g><g class="cls-4"><path class="cls-6" d="M67.4,111.84a1.53,1.53,0,0,1-1.06-.43,2.11,2.11,0,0,1-.19-.23,2.15,2.15,0,0,1-.14-.26c0-.09-.06-.19-.08-.28a1.53,1.53,0,0,1,0-.3,1.5,1.5,0,0,1,0-.29c0-.09,0-.19.08-.28a2.15,2.15,0,0,1,.14-.26,2.11,2.11,0,0,1,.19-.23,1.57,1.57,0,0,1,2.12,0,1.5,1.5,0,0,1,.41,1.36,1.52,1.52,0,0,1-.09.28,1.26,1.26,0,0,1-.13.26,2.11,2.11,0,0,1-.19.23A1.55,1.55,0,0,1,67.4,111.84Z"/></g><g class="cls-4"><path class="cls-6" d="M50.05,100.23H6.94a1.5,1.5,0,1,1,0-3H50.05a1.5,1.5,0,0,1,0,3Z"/></g><g class="cls-4"><path class="cls-7" d="M6.94,100.23a1.36,1.36,0,0,1-.29,0l-.29-.08L6.1,100l-.22-.19a1.5,1.5,0,0,1-.44-1.06,1.52,1.52,0,0,1,.44-1.06l.22-.19a1.58,1.58,0,0,1,.26-.13,1.4,1.4,0,0,1,.29-.09,1.5,1.5,0,1,1,.29,3Z"/></g><g class="cls-4"><path class="cls-5" d="M67.4,100.23H42.93a1.5,1.5,0,1,1,0-3H67.4a1.5,1.5,0,0,1,0,3Z"/></g></g></g></svg>