<svg xmlns="http://www.w3.org/2000/svg" viewBox="0 0 135 135"><defs><style>.cls-1{isolation:isolate;}.cls-2{fill:#28347d;}.cls-3{fill:#19a500;}.cls-4{fill:none;}.cls-5{mix-blend-mode:multiply;}.cls-6{fill:#a2ce2a;}.cls-7{fill:#1f9254;}</style></defs><title>icon_ocensa_gobierno_corporativo_</title><g class="cls-1"><g id="Capa_1" data-name="Capa 1"><path class="cls-2" d="M54.22,102.36a1.5,1.5,0,0,1-1.48-1.3L51.61,92.6a4.83,4.83,0,0,0-3.78-4.08L38,86.43l-9.85,2a4.83,4.83,0,0,0-3.83,4l-1.23,8.45a1.5,1.5,0,0,1-3-.43L21.36,92a7.83,7.83,0,0,1,6.21-6.54l10.15-2a1.4,1.4,0,0,1,.61,0l10.13,2.15a7.82,7.82,0,0,1,6.12,6.61l1.13,8.46a1.49,1.49,0,0,1-1.29,1.69Z"/><path class="cls-2" d="M38.06,84.66h0a7.84,7.84,0,0,1-7.78-7.87l0-4.36a7.82,7.82,0,1,1,15.64.09l0,4.36a7.82,7.82,0,0,1-7.82,7.78Zm0-17a4.82,4.82,0,0,0-4.82,4.79l0,4.37h0A4.81,4.81,0,0,0,38,81.66h0a4.83,4.83,0,0,0,4.82-4.8l0-4.36a4.84,4.84,0,0,0-4.8-4.85ZM31.74,76.8h0Z"/><path class="cls-2" d="M83.8,73.46a1.49,1.49,0,0,1-1.48-1.3L81.19,63.7a4.84,4.84,0,0,0-3.78-4.08l-9.83-2.08-9.85,2a4.83,4.83,0,0,0-3.82,4L52.68,72a1.5,1.5,0,0,1-3-.43l1.23-8.45a7.83,7.83,0,0,1,6.2-6.54l10.16-2a1.35,1.35,0,0,1,.6,0L78,56.69a7.83,7.83,0,0,1,6.13,6.61l1.13,8.47A1.5,1.5,0,0,1,84,73.45Z"/><path class="cls-2" d="M67.64,55.76h0a7.82,7.82,0,0,1-7.77-7.87l0-4.36a7.84,7.84,0,0,1,7.82-7.78h0a7.83,7.83,0,0,1,7.77,7.87l0,4.36A7.84,7.84,0,0,1,67.64,55.76Zm0-17a4.84,4.84,0,0,0-4.82,4.8l0,4.36h0a4.81,4.81,0,0,0,4.79,4.85h0A4.84,4.84,0,0,0,72.46,48l0-4.37a4.83,4.83,0,0,0-4.79-4.85ZM61.32,47.9h0Z"/><path class="cls-2" d="M113.38,104.08a1.51,1.51,0,0,1-1.49-1.3l-1.12-8.47A4.83,4.83,0,0,0,107,90.24l-9.83-2.09-9.85,2a4.83,4.83,0,0,0-3.82,4l-1.23,8.45a1.5,1.5,0,1,1-3-.43l1.23-8.46a7.84,7.84,0,0,1,6.2-6.54l10.15-2a1.57,1.57,0,0,1,.61,0l10.13,2.15a7.85,7.85,0,0,1,6.13,6.62l1.13,8.46a1.51,1.51,0,0,1-1.29,1.69Z"/><path class="cls-2" d="M97.22,86.37h0a7.82,7.82,0,0,1-7.77-7.86h0l0-4.37a7.82,7.82,0,0,1,7.82-7.77h.05a7.83,7.83,0,0,1,7.77,7.87l0,4.36A7.83,7.83,0,0,1,97.22,86.37ZM92.4,78.53a4.81,4.81,0,0,0,4.79,4.84h0A4.83,4.83,0,0,0,102,78.58l0-4.36a4.82,4.82,0,0,0-4.79-4.85h0a4.81,4.81,0,0,0-4.82,4.79Z"/><path class="cls-2" d="M117.11,83.91a1.24,1.24,0,0,1-.33,0,1.5,1.5,0,0,1-1.14-1.78A49.34,49.34,0,0,0,48.31,26a1.5,1.5,0,1,1-1.17-2.76,52.34,52.34,0,0,1,72.67,48.2,52.53,52.53,0,0,1-1.24,11.34A1.49,1.49,0,0,1,117.11,83.91Z"/><path class="cls-2" d="M17.65,82.78a1.5,1.5,0,0,1-1.47-1.21,53.31,53.31,0,0,1-1-10.18A52,52,0,0,1,24,42.27a1.5,1.5,0,1,1,2.49,1.67,49.1,49.1,0,0,0-8.34,27.45,49.68,49.68,0,0,0,.94,9.6A1.5,1.5,0,0,1,18,82.75,1.53,1.53,0,0,1,17.65,82.78Z"/><path class="cls-3" d="M35.39,42.78A10.43,10.43,0,1,1,43,39.45,10.44,10.44,0,0,1,35.39,42.78Zm0-17.86a7.43,7.43,0,0,0,0,14.86,7.45,7.45,0,0,0,7.43-7.43A7.45,7.45,0,0,0,35.39,24.92Z"/><rect class="cls-4" width="135" height="135"/><g class="cls-5"><path class="cls-3" d="M54.54,130.48H36.33a1.5,1.5,0,1,1,0-3H54.54a1.5,1.5,0,1,1,0,3Z"/></g><g class="cls-5"><path class="cls-6" d="M65.24,130.48H47a1.5,1.5,0,1,1,0-3h18.2a1.5,1.5,0,1,1,0,3Z"/></g><g class="cls-5"><path class="cls-6" d="M87.18,130.48H78.07a1.5,1.5,0,0,1,0-3h9.11a1.5,1.5,0,1,1,0,3Z"/></g><g class="cls-5"><path class="cls-6" d="M100,130.48l-.29,0-.28-.08-.26-.14a2.11,2.11,0,0,1-.23-.19,1.41,1.41,0,0,1-.18-.23,1.23,1.23,0,0,1-.14-.25,1.61,1.61,0,0,1-.09-.29,1.36,1.36,0,0,1,0-.29,1.43,1.43,0,0,1,0-.29,1.61,1.61,0,0,1,.23-.54,2,2,0,0,1,.18-.23,2.11,2.11,0,0,1,.23-.19,1.26,1.26,0,0,1,.26-.13,1.52,1.52,0,0,1,.28-.09,1.49,1.49,0,0,1,1.35.41,1.37,1.37,0,0,1,.19.23,1.3,1.3,0,0,1,.14.26.9.9,0,0,1,.08.28,1.43,1.43,0,0,1,0,.29,1.36,1.36,0,0,1,0,.29,1,1,0,0,1-.08.29,1.23,1.23,0,0,1-.14.25,1.06,1.06,0,0,1-.19.23A1.48,1.48,0,0,1,100,130.48Z"/></g><g class="cls-5"><path class="cls-6" d="M81.72,118.26H36.33a1.5,1.5,0,0,1,0-3H81.72a1.5,1.5,0,0,1,0,3Z"/></g><g class="cls-5"><path class="cls-7" d="M36.33,118.26a1.5,1.5,0,0,1-1.5-1.5,1.48,1.48,0,0,1,.44-1.06,1.55,1.55,0,0,1,2.12,0,1.5,1.5,0,0,1,.44,1.06,1.5,1.5,0,0,1-1.5,1.5Z"/></g><g class="cls-5"><path class="cls-3" d="M100,118.26H74.22a1.5,1.5,0,0,1,0-3H100a1.5,1.5,0,0,1,0,3Z"/></g></g></g></svg>