<svg id="Capa_1" data-name="Capa 1" xmlns="http://www.w3.org/2000/svg" viewBox="0 0 70 70"><defs><style>.cls-1{fill:none;}.cls-2{fill:#fff;}.cls-3{fill:#19a500;}</style></defs><title>icon_ocensa_inversionistas_redes_sociales</title><rect class="cls-1" width="70" height="70"/><g id="icon_ocenza_desktop_redes_sociales_instagram" data-name="icon ocenza desktop redes sociales instagram"><g id="Grupo_6813" data-name="Grupo 6813"><g id="Grupo_6812" data-name="Grupo 6812"><g id="Trazado_5851" data-name="Trazado 5851"><path class="cls-2" d="M35.12,69.73A34.73,34.73,0,0,1,.33,35c0-1.14.06-2.3.17-3.43a2,2,0,0,1,4,.4c-.1,1-.15,2-.15,3A30.73,30.73,0,1,0,21.71,7.32,2,2,0,1,1,20,3.72a34.73,34.73,0,1,1,15.15,66Z"/></g></g></g><g id="Trazado_5852" data-name="Trazado 5852"><path class="cls-3" d="M9.31,25.9a9.11,9.11,0,1,1,0-18.21,8.83,8.83,0,0,1,6.4,2.59,9,9,0,0,1,2.71,6.36v.15a9.1,9.1,0,0,1-9.1,9.11Zm.06-14.21h0a5.11,5.11,0,1,0,0,10.21h0a5.1,5.1,0,0,0,5.1-5.11v-.11a5,5,0,0,0-5-5Z"/></g><g id="Rectángulo_1820" data-name="Rectángulo 1820"><path class="cls-2" d="M42,50.14H28.12a8.21,8.21,0,0,1-8.2-8.2V28.08a8.19,8.19,0,0,1,8.19-8.21H42a8.21,8.21,0,0,1,8.2,8.2V41.94A8.21,8.21,0,0,1,42,50.14ZM28.11,23.87a4.22,4.22,0,0,0-4.19,4.21V41.94a4.21,4.21,0,0,0,4.2,4.2H42a4.2,4.2,0,0,0,4.2-4.2V28.07a4.2,4.2,0,0,0-4.2-4.2Z"/></g><g id="Elipse_670" data-name="Elipse 670"><path class="cls-2" d="M35.05,41a6,6,0,1,1,6-6A6,6,0,0,1,35.05,41Zm0-8.06a2,2,0,1,0,2,2A2,2,0,0,0,35.05,33Z"/></g></g></svg>