<svg xmlns="http://www.w3.org/2000/svg" viewBox="0 0 120 120"><defs><style>.cls-1{isolation:isolate;}.cls-2{fill:none;}.cls-3{fill:#28347d;}.cls-4{mix-blend-mode:multiply;}.cls-5{fill:#24a31a;}.cls-6{fill:#a2ce2a;}.cls-7{fill:#1f9254;}</style></defs><title>icon_ocensa_gobierno_corporativo_</title><g class="cls-1"><g id="Capa_1" data-name="Capa 1"><rect class="cls-2" width="120" height="120"/><path class="cls-3" d="M55.38,61.65a1.5,1.5,0,0,1-1.06-2.56l6.85-6.86a1.51,1.51,0,0,1,2.12,0,1.49,1.49,0,0,1,0,2.12l-6.85,6.86A1.53,1.53,0,0,1,55.38,61.65Z"/><path class="cls-3" d="M85.2,66.43a29.14,29.14,0,1,1,29.36-29.14A29.29,29.29,0,0,1,85.2,66.43Zm0-55.27a26.14,26.14,0,1,0,26.36,26.13A26.28,26.28,0,0,0,85.2,11.16Z"/><path class="cls-3" d="M96.51,58.92h-8.6a1,1,0,0,1-1-1V51.75a1,1,0,0,1,.21-2h.66V44.11a4.63,4.63,0,0,1,1.36-3.3l4.11-4.1A2.85,2.85,0,0,1,95,35.88V31.47a3.25,3.25,0,1,1,6.5,0v9.2a3.58,3.58,0,0,1-.82,2.28l-3.6,4.31a1.36,1.36,0,0,0-.31.87v1.64h.59a1,1,0,0,1,.16,2v6.16A1,1,0,0,1,96.51,58.92Zm-7.6-2h6.6V51.77h-6.6Zm.87-7.15h5V48.13A3.36,3.36,0,0,1,95.54,46l3.59-4.31a1.59,1.59,0,0,0,.36-1v-9.2a1.25,1.25,0,1,0-2.5,0v5a3.74,3.74,0,0,1,.31.27,2.89,2.89,0,0,1,0,4l-3.5,3.49a1,1,0,0,1-1.41,0,1,1,0,0,1,0-1.41l3.49-3.5a.85.85,0,0,0,.25-.61.86.86,0,0,0-.25-.61.85.85,0,0,0-.25-.17l0,0a.86.86,0,0,0-.92.19l-4.1,4.1a2.67,2.67,0,0,0-.78,1.89ZM83.3,58.92H74.7a1,1,0,0,1-1-1V51.76a1,1,0,0,1,.16-2h.59V48.13a1.37,1.37,0,0,0-.32-.87L70.54,43a3.58,3.58,0,0,1-.82-2.28v-9.2a3.25,3.25,0,0,1,6.5,0v4.41a2.87,2.87,0,0,1,1.74.83l4.1,4.1a4.64,4.64,0,0,1,1.37,3.3v5.66h.66a1,1,0,0,1,.21,2v6.17A1,1,0,0,1,83.3,58.92Zm-7.6-2h6.6V51.77H75.7Zm.75-7.15h5V44.11a2.67,2.67,0,0,0-.78-1.89l-4.1-4.1a.87.87,0,0,0-.92-.19l0,0a.9.9,0,0,0-.26.17.88.88,0,0,0,0,1.22l3.5,3.5a1,1,0,0,1-1.41,1.41l-3.5-3.49a2.86,2.86,0,0,1,0-4,2.61,2.61,0,0,1,.31-.27v-5a1.25,1.25,0,0,0-2.5,0v9.2a1.54,1.54,0,0,0,.36,1L75.67,46a3.36,3.36,0,0,1,.78,2.15Zm9.22-5.51a1,1,0,0,1-1-1v-6.4c-1.27-1.15-5.38-5.27-5.38-10.32,0-5.86,5.51-10.46,5.75-10.65a1,1,0,0,1,1.27,0c.23.19,5.74,4.79,5.74,10.65,0,5.05-4.1,9.17-5.38,10.32v6.4A1,1,0,0,1,85.67,44.26Zm0-26.24c-1.35,1.31-4.38,4.68-4.38,8.52,0,3.05,1.92,5.81,3.38,7.47V31.37h0V28l-1.53-1.34a1,1,0,1,1,1.32-1.5l.21.18v-1a1,1,0,0,1,2,0v3.16h0V28.6l.13-.15a1,1,0,1,1,1.53,1.28l-1.66,2V34c1.47-1.66,3.38-4.42,3.38-7.46C90.05,22.7,87,19.33,85.67,18Z"/><path class="cls-3" d="M65,90.8a1.5,1.5,0,0,1-1.48-1.29l-2-14.45a9.33,9.33,0,0,0-7.34-7.82l-17-3.51-17,3.51a9.32,9.32,0,0,0-7.33,7.82l-2,14.45a1.52,1.52,0,0,1-1.7,1.28A1.5,1.5,0,0,1,7.82,89.1l2-14.45a12.33,12.33,0,0,1,9.7-10.35l17.33-3.57.09,0a12.31,12.31,0,0,1-12.09-12.3V41a12.3,12.3,0,1,1,24.6,0v7.45a12.32,12.32,0,0,1-12.09,12.3l.09,0L54.8,64.3a12.34,12.34,0,0,1,9.7,10.35l2,14.45a1.49,1.49,0,0,1-1.28,1.69ZM37.17,31.66a9.31,9.31,0,0,0-9.3,9.3v7.45a9.3,9.3,0,1,0,18.6,0V41A9.31,9.31,0,0,0,37.17,31.66Z"/><g class="cls-4"><path class="cls-5" d="M24.23,111.84H6.94a1.5,1.5,0,1,1,0-3H24.23a1.5,1.5,0,0,1,0,3Z"/></g><g class="cls-4"><path class="cls-6" d="M34.4,111.84H17.11a1.5,1.5,0,0,1,0-3H34.4a1.5,1.5,0,1,1,0,3Z"/></g><g class="cls-4"><path class="cls-6" d="M55.24,111.84H46.59a1.5,1.5,0,0,1,0-3h8.65a1.5,1.5,0,1,1,0,3Z"/></g><g class="cls-4"><path class="cls-6" d="M67.4,111.84a1.46,1.46,0,0,1-.58-.11,1.29,1.29,0,0,1-.48-.33,1.58,1.58,0,0,1-.33-.48,1.62,1.62,0,0,1-.11-.58,1.5,1.5,0,0,1,0-.29c0-.09,0-.19.08-.28a2.15,2.15,0,0,1,.14-.26,2.11,2.11,0,0,1,.19-.23,1.55,1.55,0,0,1,1.35-.41,1.69,1.69,0,0,1,.77.41,1.52,1.52,0,0,1,.44,1.06,1.5,1.5,0,0,1-.44,1.06,1.33,1.33,0,0,1-.49.33A1.38,1.38,0,0,1,67.4,111.84Z"/></g><g class="cls-4"><path class="cls-6" d="M50.05,100.23H6.94a1.5,1.5,0,1,1,0-3H50.05a1.5,1.5,0,0,1,0,3Z"/></g><g class="cls-4"><path class="cls-7" d="M6.94,100.23a1.62,1.62,0,0,1-.58-.11,1.58,1.58,0,0,1-.48-.33,1.46,1.46,0,0,1-.44-1.06,1.36,1.36,0,0,1,0-.29,1.29,1.29,0,0,1,.08-.28,2.15,2.15,0,0,1,.14-.26,2.11,2.11,0,0,1,.19-.23,1.45,1.45,0,0,1,.23-.19,1.19,1.19,0,0,1,.25-.13,1.52,1.52,0,0,1,.28-.09,1.47,1.47,0,0,1,.59,0,1.31,1.31,0,0,1,.28.09,1.26,1.26,0,0,1,.26.13,2.11,2.11,0,0,1,.23.19,1.65,1.65,0,0,1,.41.77,1.36,1.36,0,0,1,0,.29A1.5,1.5,0,0,1,8,99.79a1.63,1.63,0,0,1-.49.33A1.56,1.56,0,0,1,6.94,100.23Z"/></g><g class="cls-4"><path class="cls-5" d="M67.4,100.23H42.93a1.5,1.5,0,1,1,0-3H67.4a1.5,1.5,0,0,1,0,3Z"/></g></g></g></svg>