<svg xmlns="http://www.w3.org/2000/svg" viewBox="0 0 135 135"><defs><style>.cls-1{isolation:isolate;}.cls-2{fill:#28347d;}.cls-3{fill:#24a31a;}.cls-4{fill:none;}.cls-5{mix-blend-mode:multiply;}.cls-6{fill:#19a500;}.cls-7{fill:#a2ce2a;}.cls-8{fill:#1f9254;}</style></defs><title>icon_ocensa_gobierno_corporativo_</title><g class="cls-1"><g id="Capa_1" data-name="Capa 1"><path class="cls-2" d="M62.38,76.83a1.5,1.5,0,0,1-1.5-1.5V70.52A23.15,23.15,0,0,1,40.58,40.1a1.5,1.5,0,0,1,2.85.95,20.13,20.13,0,0,0,19,26.52,1.5,1.5,0,0,1,1.5,1.5v6.26A1.5,1.5,0,0,1,62.38,76.83ZM67,70.08a1.5,1.5,0,0,1-.32-3A20.2,20.2,0,0,0,82.38,47.55a1.5,1.5,0,0,1,1.15-1.46h0a1.15,1.15,0,0,1,.33,0H94a1.5,1.5,0,0,1,0,3H85.32a23.23,23.23,0,0,1-18,21Zm-8.14-6.34a2.41,2.41,0,0,1-.91-.17l-2.65-1a2.59,2.59,0,0,1-1.63-2.89L54,57.77a14.76,14.76,0,0,1-1.29-1.2l-1.86.49a2.57,2.57,0,0,1-3-1.41l-1.18-2.58a2.57,2.57,0,0,1,.9-3.22l1.56-1.06a13,13,0,0,1,0-1.77l-1.67-1A2.6,2.6,0,0,1,46.3,42.9l1-2.66a2.68,2.68,0,0,1,2.91-1.61l1.9.36a13.27,13.27,0,0,1,1.19-1.29l-.49-1.88a2.59,2.59,0,0,1,1.4-3l2.57-1.19a2.56,2.56,0,0,1,3.22.92l1.07,1.58a11.13,11.13,0,0,1,1.83-.06l.93-1.63A2.61,2.61,0,0,1,67,31.29l2.64,1a2.59,2.59,0,0,1,1.64,2.89l-.37,2a11.72,11.72,0,0,1,1.26,1.2L74,37.81a2.59,2.59,0,0,1,3,1.41l1.18,2.58A2.58,2.58,0,0,1,77.26,45l-1.61,1.1a14.91,14.91,0,0,1,0,1.75l1.64,1h0a2.64,2.64,0,0,1,1.16,3.1l-1,2.72a2.6,2.6,0,0,1-2.9,1.64l-1.93-.37a13.1,13.1,0,0,1-1.2,1.28L72,59.05a2.58,2.58,0,0,1-1.4,3L68,63.25a2.57,2.57,0,0,1-3.22-.91l-1.09-1.63a15.17,15.17,0,0,1-1.65.06l-1,1.67A2.58,2.58,0,0,1,58.83,63.74Zm3-3Zm2-.08h0Zm3.38,0Zm-10.6-.77,2,.74.88-1.54A2.64,2.64,0,0,1,62,57.77a10.31,10.31,0,0,0,1.57-.06,2.68,2.68,0,0,1,2.51,1.16l1,1.5L69,59.49l-.46-1.7a2.67,2.67,0,0,1,.79-2.68,11.77,11.77,0,0,0,1.14-1.21,2.67,2.67,0,0,1,2.59-1l1.77.33.74-2L74,50.36a2.68,2.68,0,0,1-1.32-2.45,10.37,10.37,0,0,0,0-1.66,2.69,2.69,0,0,1,1.15-2.5l1.51-1-.88-1.93-1.66.47a2.7,2.7,0,0,1-2.69-.77,9.57,9.57,0,0,0-1.2-1.13,2.7,2.7,0,0,1-1-2.61L68.23,35l-2-.74-.86,1.5a2.7,2.7,0,0,1-2.47,1.34,8.39,8.39,0,0,0-1.67,0A2.68,2.68,0,0,1,58.68,36l-1-1.47-1.92.88.46,1.74a2.66,2.66,0,0,1-.79,2.67A10.84,10.84,0,0,0,54.32,41a2.63,2.63,0,0,1-2.6,1L50,41.64l-.74,2,1.54.9A2.67,2.67,0,0,1,52.09,47a10,10,0,0,0,0,1.65A2.66,2.66,0,0,1,51,51.15l-1.46,1,.88,1.93,1.72-.46a2.65,2.65,0,0,1,2.67.8A9.94,9.94,0,0,0,56,55.54a2.65,2.65,0,0,1,1,2.6Zm-.34-.13Zm-2.16-1.88ZM54,57.57Zm-1.11-1.06Zm-.34-.09Zm19.88-.54h0ZM49.26,52.33Zm26.37-6.41h0ZM49.11,44Zm26.47-1.42h0ZM52.29,39Zm1-1.14h0Zm.09-.32Zm17.43-.25h0ZM68.56,35.1Zm-5.79-.85Zm-5.28,0h0Zm8.42-.1Zm-3.5,20a6.67,6.67,0,0,1-2.85-12.7,6.56,6.56,0,0,1,5.07-.25,6.7,6.7,0,0,1,4,8.51h0a6.6,6.6,0,0,1-3.42,3.8A6.52,6.52,0,0,1,62.41,54.08Zm0-10.34a3.47,3.47,0,0,0-1.54.35A3.62,3.62,0,0,0,59,46.18a3.66,3.66,0,0,0,2.21,4.68,3.57,3.57,0,0,0,2.76-.13,3.65,3.65,0,0,0,1.88-2.09,3.65,3.65,0,0,0-3.43-4.9Zm4.85,5.4h0Zm16.21-4.48A1.51,1.51,0,0,1,82,43.45a20,20,0,0,0-5.29-10l0,0a1.5,1.5,0,0,1,0-2.12l0-.05,4.87-4.77a1.5,1.5,0,0,1,2.1,2.14l-3.88,3.81a23,23,0,0,1,5.11,10.48,1.5,1.5,0,0,1-1.17,1.77ZM43.8,38.09h0a1.55,1.55,0,0,1-.74-.2l0,0-5.27-3a1.5,1.5,0,1,1,1.49-2.61l4,2.32A22.93,22.93,0,0,1,73.81,27.4a1.5,1.5,0,1,1-1.5,2.6,19.85,19.85,0,0,0-9.93-2.65A20.05,20.05,0,0,0,45.13,37.3l0,0A1.51,1.51,0,0,1,43.8,38.09Z"/><path class="cls-2" d="M31,31.26A1.5,1.5,0,0,1,29.49,30l-.44-3.28a.94.94,0,0,0-.74-.8l-3.63-.77-3.63.72a1,1,0,0,0-.75.8l-.48,3.28a1.5,1.5,0,0,1-3-.44l.48-3.27a4,4,0,0,1,3.13-3.31l1-.2a3.93,3.93,0,0,1-.7-2.27h0V18.73a4,4,0,1,1,7.9.05v1.69a3.86,3.86,0,0,1-.73,2.26l1,.21A4,4,0,0,1,32,26.28l.44,3.28a1.5,1.5,0,0,1-1.29,1.69ZM23.76,20.44a1,1,0,0,0,.95,1h0a1,1,0,0,0,.95-.95V18.76a1,1,0,0,0-.94-1,1.11,1.11,0,0,0-.68.28.93.93,0,0,0-.28.67Z"/><path class="cls-3" d="M24.66,38.19A13.92,13.92,0,1,1,38.58,24.27,13.93,13.93,0,0,1,24.66,38.19Zm0-24.84A10.92,10.92,0,1,0,35.58,24.27,10.93,10.93,0,0,0,24.66,13.35Z"/><path class="cls-2" d="M100.58,22.58a1.5,1.5,0,0,1-1.48-1.3L98.66,18a1,1,0,0,0-.75-.8l-3.62-.77-3.64.73a1,1,0,0,0-.75.79l-.48,3.28a1.5,1.5,0,0,1-3-.43l.48-3.28a4,4,0,0,1,3.13-3.3l1-.2a4,4,0,0,1-.7-2.27h0V10.05a4,4,0,0,1,1.18-2.79,4.16,4.16,0,0,1,2.8-1.14,3.94,3.94,0,0,1,3.92,4v1.69A4,4,0,0,1,97.54,14l1,.22a4,4,0,0,1,3.09,3.34l.44,3.28a1.49,1.49,0,0,1-1.29,1.68ZM93.36,11.76a1,1,0,0,0,1,1h0a1,1,0,0,0,1-.94V10.08a.94.94,0,0,0-.94-1,.92.92,0,0,0-.67.27,1,1,0,0,0-.29.67Z"/><path class="cls-2" d="M94.26,29.51a13.92,13.92,0,1,1,13.92-13.92A13.94,13.94,0,0,1,94.26,29.51Zm0-24.84a10.92,10.92,0,1,0,10.92,10.92A10.93,10.93,0,0,0,94.26,4.67Z"/><path class="cls-2" d="M116.66,54.71a1.49,1.49,0,0,1-1.48-1.3l-.44-3.28a.93.93,0,0,0-.75-.8l-3.62-.77-3.63.73a.93.93,0,0,0-.76.79l-.47,3.28a1.5,1.5,0,0,1-3-.43l.47-3.28a4,4,0,0,1,3.14-3.31l1-.2a3.92,3.92,0,0,1-.69-2.26h0v-1.7a3.89,3.89,0,0,1,1.17-2.78,4,4,0,0,1,6.73,2.83v1.69a4,4,0,0,1-.73,2.26l1,.21a4,4,0,0,1,3.09,3.34l.44,3.29a1.5,1.5,0,0,1-1.29,1.68Zm-6.25-13.45a.92.92,0,0,0-.67.27,1,1,0,0,0-.28.67v1.69a.9.9,0,0,0,.27.68,1,1,0,0,0,.67.28,1.13,1.13,0,0,0,.67-.28.88.88,0,0,0,.29-.67V42.21a1,1,0,0,0-1-1Z"/><path class="cls-2" d="M110.34,61.65a13.93,13.93,0,1,1,13.92-13.93A13.94,13.94,0,0,1,110.34,61.65Zm0-24.85a10.93,10.93,0,1,0,10.92,10.92A10.93,10.93,0,0,0,110.34,36.8Z"/><path class="cls-2" d="M68.92,99a1.51,1.51,0,0,1-1.49-1.3L67,94.38a1,1,0,0,0-.75-.81l-3.62-.77L59,93.53a1,1,0,0,0-.75.8l-.48,3.27a1.5,1.5,0,0,1-3-.43l.48-3.27a4,4,0,0,1,3.13-3.31l1-.2a4,4,0,0,1-.7-2.27h0V86.43a3.94,3.94,0,0,1,1.17-2.79,4,4,0,0,1,2.8-1.14,4,4,0,0,1,3.93,4v1.69a3.94,3.94,0,0,1-.72,2.26l1,.21A4,4,0,0,1,70,94l.44,3.28A1.51,1.51,0,0,1,69.12,99ZM62.66,85.5a1,1,0,0,0-.67.28.93.93,0,0,0-.28.67v1.69a1,1,0,0,0,.95,1h0a1,1,0,0,0,1-.95V86.46a1,1,0,0,0-.94-1Z"/><path class="cls-2" d="M62.6,105.89A13.92,13.92,0,1,1,76.52,92,13.93,13.93,0,0,1,62.6,105.89Zm0-24.84A10.92,10.92,0,1,0,73.52,92,10.93,10.93,0,0,0,62.6,81.05Z"/><rect class="cls-4" width="135" height="135"/><g class="cls-5"><path class="cls-6" d="M54.54,130.48H36.33a1.5,1.5,0,1,1,0-3H54.54a1.5,1.5,0,1,1,0,3Z"/></g><g class="cls-5"><path class="cls-7" d="M65.24,130.48H47a1.5,1.5,0,1,1,0-3h18.2a1.5,1.5,0,1,1,0,3Z"/></g><g class="cls-5"><path class="cls-7" d="M87.18,130.48H78.07a1.5,1.5,0,0,1,0-3h9.11a1.5,1.5,0,1,1,0,3Z"/></g><g class="cls-5"><path class="cls-7" d="M100,130.48l-.29,0-.28-.08-.26-.14a2.11,2.11,0,0,1-.23-.19,1.5,1.5,0,0,1-.44-1.06,1.52,1.52,0,0,1,.44-1.06,2.11,2.11,0,0,1,.23-.19,1.26,1.26,0,0,1,.26-.13,1.31,1.31,0,0,1,.28-.09,1.47,1.47,0,0,1,.59,0,1.52,1.52,0,0,1,.28.09,1.26,1.26,0,0,1,.26.13,2.11,2.11,0,0,1,.23.19,1.55,1.55,0,0,1,.43,1.06,1.49,1.49,0,0,1-1.5,1.5Z"/></g><g class="cls-5"><path class="cls-7" d="M81.72,118.26H36.33a1.5,1.5,0,0,1,0-3H81.72a1.5,1.5,0,0,1,0,3Z"/></g><g class="cls-5"><path class="cls-8" d="M36.33,118.26a1.36,1.36,0,0,1-.29,0,1.69,1.69,0,0,1-.77-.41,1.51,1.51,0,0,1,0-2.13,2,2,0,0,1,.23-.18l.26-.14a1.29,1.29,0,0,1,.28-.08,1.42,1.42,0,0,1,.58,0,1.29,1.29,0,0,1,.28.08,1.59,1.59,0,0,1,.26.14,1.41,1.41,0,0,1,.23.18,1.51,1.51,0,0,1,0,2.13,1,1,0,0,1-.23.18,1.08,1.08,0,0,1-.26.14,1.31,1.31,0,0,1-.28.09A1.36,1.36,0,0,1,36.33,118.26Z"/></g><g class="cls-5"><path class="cls-6" d="M100,118.26H74.22a1.5,1.5,0,0,1,0-3H100a1.5,1.5,0,0,1,0,3Z"/></g></g></g></svg>