<?xml version="1.0" encoding="utf-8"?>
<!-- Generator: Adobe Illustrator 24.0.2, SVG Export Plug-In . SVG Version: 6.00 Build 0)  -->
<svg version="1.1" id="Capa_1" xmlns="http://www.w3.org/2000/svg" xmlns:xlink="http://www.w3.org/1999/xlink" x="0px" y="0px"
	 viewBox="0 0 120 120" style="enable-background:new 0 0 120 120;" xml:space="preserve">
<style type="text/css">
	.st0{fill:none;}
	.st1{fill:#FFEA27;}
	.st2{fill:#F4D314;}
	.st3{fill:#95A6B1;}
</style>
<title>01-icon_ocenza_retos_que_nos_impulsan</title>
<rect class="st0" width="120" height="120"/>
<path class="st1" d="M54,115.9H35.7c-1.1,0-2-0.9-2-2s0.9-2,2-2H54c1.1,0,2,0.9,2,2S55.1,115.9,54,115.9z"/>
<path class="st1" d="M75.9,115.9h-9.1c-1.1,0-2-0.9-2-2s0.9-2,2-2h9.1c1.1,0,2,0.9,2,2S77,115.9,75.9,115.9z"/>
<path class="st1" d="M88.7,115.9c-0.1,0-0.3,0-0.4,0c-0.1,0-0.3-0.1-0.4-0.1c-0.1-0.1-0.2-0.1-0.3-0.2c-0.1-0.1-0.2-0.2-0.3-0.3
	c-0.2-0.2-0.3-0.4-0.4-0.6c-0.1-0.2-0.2-0.5-0.2-0.8c0-0.5,0.2-1,0.6-1.4c0.8-0.8,2-0.8,2.8,0c0.4,0.4,0.6,0.9,0.6,1.4
	c0,0.3,0,0.5-0.2,0.8c-0.1,0.2-0.3,0.5-0.4,0.6C89.7,115.7,89.2,115.9,88.7,115.9z"/>
<path class="st2" d="M43.2,115.9H25c-1.1,0-2-0.9-2-2s0.9-2,2-2h18.2c1.1,0,2,0.9,2,2S44.3,115.9,43.2,115.9L43.2,115.9z"/>
<path class="st1" d="M70.4,103.6H25c-1.1,0-2-0.9-2-2s0.9-2,2-2h45.4c1.1,0,2,0.9,2,2S71.5,103.6,70.4,103.6z"/>
<path class="st2" d="M25,103.6c-1.1,0-2-0.9-2-2c0-1.1,0.9-2,2-2c0.1,0,0.3,0,0.4,0c0.1,0,0.2,0.1,0.4,0.1c0.1,0,0.2,0.1,0.4,0.2
	c0.1,0.1,0.2,0.2,0.3,0.2c0.1,0.1,0.2,0.2,0.2,0.3c0.1,0.1,0.1,0.2,0.2,0.3c0,0.1,0.1,0.2,0.1,0.4c0,0.1,0,0.3,0,0.4
	C27,102.7,26.1,103.6,25,103.6L25,103.6z"/>
<path class="st2" d="M88.7,103.6H62.9c-1.1,0-2-0.9-2-2s0.9-2,2-2h25.8c1.1,0,2,0.9,2,2S89.8,103.6,88.7,103.6z"/>
<path class="st2" d="M15.6,59.9c-5.2,0-9.5-4.2-9.5-9.5c0-5.2,4.2-9.5,9.5-9.5c3.7,0,7.1,2.2,8.6,5.5l0,0c2.2,4.8,0.1,10.4-4.7,12.6
	C18.3,59.6,17,59.9,15.6,59.9z M15.6,44.9c-0.8,0-1.6,0.2-2.3,0.5c-2.8,1.3-4,4.5-2.7,7.3s4.5,4,7.3,2.7s4-4.5,2.7-7.3
	C19.7,46.1,17.8,44.9,15.6,44.9z"/>
<path class="st3" d="M85.5,91.5H53.8c-1.1,0-2-0.9-2-2V37c0-1.1,0.9-2,2-2h31.6c1.1,0,2,0.9,2,2v52.6C87.5,90.7,86.6,91.5,85.5,91.5
	z M55.8,87.6h27.7V39H55.8V87.6z"/>
<path class="st3" d="M53.8,91.5H15.6c-1.1,0-2-0.9-2-2V64.8c-0.2-1.1,0.5-2.1,1.6-2.3s2.1,0.5,2.3,1.6c0,0.2,0,0.5,0,0.7v22.8h34.3
	V37c0-1.1,0.9-2,2-2h20.4V20.3H17.6v16.2c-0.2,1.1-1.3,1.8-2.3,1.6c-0.8-0.2-1.4-0.8-1.6-1.6V18.3c0-1.1,0.9-2,2-2h60.6
	c1.1,0,2,0.9,2,2V37c0,1.1-0.9,2-2,2H55.8v50.6C55.8,90.6,54.9,91.5,53.8,91.5z"/>
<path class="st3" d="M76.2,28.9c-1.1,0-2-0.9-2-2v-7.7c-0.2-1.1,0.5-2.1,1.6-2.3s2.1,0.5,2.3,1.6c0,0.2,0,0.5,0,0.7v7.8
	C78.1,28,77.3,28.9,76.2,28.9z"/>
<path class="st3" d="M64.1,28.9c-1.1,0-2-0.9-2-2v-7.7c-0.2-1.1,0.5-2.1,1.6-2.3c1.1-0.2,2.1,0.5,2.3,1.6c0,0.2,0,0.5,0,0.7v7.8
	C66,28,65.2,28.9,64.1,28.9z"/>
<path class="st3" d="M52,28.9c-1.1,0-2-0.9-2-2v-7.7c-0.2-1.1,0.5-2.1,1.6-2.3s2.1,0.5,2.3,1.6c0,0.2,0,0.5,0,0.7v7.8
	C53.9,28,53.1,28.9,52,28.9z"/>
<path class="st3" d="M15.6,29c-1.1,0-2-0.9-2-2v-7.8c-0.2-1.1,0.5-2.1,1.6-2.3s2.1,0.5,2.3,1.6c0,0.2,0,0.5,0,0.7V27
	C17.6,28.1,16.7,29,15.6,29z"/>
<path class="st3" d="M39.9,28.9c-1.1,0-2-0.9-2-2v-7.7c-0.2-1.1,0.5-2.1,1.6-2.3s2.1,0.5,2.3,1.6c0,0.2,0,0.5,0,0.7v7.8
	C41.8,28,40.9,28.9,39.9,28.9z"/>
<path class="st3" d="M27.7,29c-1.1,0-2-0.9-2-2v-7.8c-0.2-1.1,0.5-2.1,1.6-2.3s2.1,0.5,2.3,1.6c0,0.2,0,0.5,0,0.7V27
	C29.7,28.1,28.8,29,27.7,29z"/>
<path class="st3" d="M85.5,48c-1.1,0-2-0.9-2-2v-8.1c-0.2-1.1,0.5-2.1,1.6-2.3s2.1,0.5,2.3,1.6c0,0.2,0,0.5,0,0.7V46
	C87.4,47.1,86.5,48,85.5,48z"/>
<path class="st3" d="M74.9,48c-1.1,0-2-0.9-2-2v-8.1c-0.2-1.1,0.5-2.1,1.6-2.3s2.1,0.5,2.3,1.6c0,0.2,0,0.5,0,0.7V46
	C76.9,47.1,76,48,74.9,48z"/>
<path class="st3" d="M64.4,48c-1.1,0-2-0.9-2-2v-8.1c-0.2-1.1,0.5-2.1,1.6-2.3c1.1-0.2,2.1,0.5,2.3,1.6c0,0.2,0,0.5,0,0.7V46
	C66.3,47.1,65.4,48,64.4,48z"/>
<path class="st3" d="M53.8,48c-1.1,0-2-0.9-2-2v-8.1c-0.2-1.1,0.5-2.1,1.6-2.4c1.1-0.2,2.1,0.5,2.4,1.6c0.1,0.3,0.1,0.5,0,0.8V46
	C55.7,47.1,54.9,48,53.8,48z"/>
<path class="st3" d="M89.4,48.1H49.9c-1.1,0.2-2.1-0.5-2.3-1.6s0.5-2.1,1.6-2.3c0.2,0,0.5,0,0.7,0h39.6c1.1-0.2,2.1,0.5,2.3,1.6
	s-0.5,2.1-1.6,2.3C89.9,48.1,89.7,48.1,89.4,48.1z"/>
<path class="st3" d="M85.4,62.8H65.9c-1.1-0.2-1.8-1.3-1.6-2.3c0.2-0.8,0.8-1.4,1.6-1.6h19.5c1.1,0.2,1.8,1.3,1.6,2.3
	C86.8,62,86.2,62.6,85.4,62.8z"/>
<path class="st3" d="M57.3,62.8h-3.5c-1.1,0.2-1.6-0.5-1.8-1.6s0.5-2.1,1.6-2.3c0.2,0-0.1,0,0.2,0h3.5c1.1,0.2,1.8,1.3,1.6,2.3
	C58.7,62,58.1,62.6,57.3,62.8z"/>
<path class="st3" d="M85.4,77.5H65.9c-1.1-0.2-1.8-1.3-1.6-2.3c0.2-0.8,0.8-1.4,1.6-1.6h19.5c1.1,0.2,1.8,1.3,1.6,2.3
	C86.8,76.7,86.2,77.3,85.4,77.5z"/>
<path class="st3" d="M57.3,77.5h-3.5c-1.1,0.2-1.6-0.5-1.8-1.6s0.5-2.1,1.6-2.3c0.2,0-0.1,0,0.2,0h3.5c1.1,0.2,1.8,1.3,1.6,2.3
	C58.7,76.7,58.1,77.3,57.3,77.5z"/>
<path class="st3" d="M79.2,29.1H12.6c-1.1,0.2-2.1-0.5-2.4-1.6c-0.2-1.1,0.5-2.1,1.6-2.4c0.3-0.1,0.5-0.1,0.8,0h66.5
	c1.1-0.2,2.1,0.5,2.4,1.6c0.2,1.1-0.5,2.1-1.6,2.4C79.7,29.2,79.4,29.2,79.2,29.1z"/>
<path class="st3" d="M46,91.5c-1.1,0-2-0.9-2-2V59.8c0.2-1.1,1.3-1.8,2.3-1.6c0.8,0.2,1.4,0.8,1.6,1.6v29.8
	C47.9,90.6,47.1,91.5,46,91.5z"/>
<path class="st3" d="M32.8,91.5c-1.1,0-2-0.9-2-2V59.8c0.2-1.1,1.3-1.8,2.3-1.6c0.8,0.2,1.4,0.8,1.6,1.6v29.8
	C34.7,90.6,33.9,91.5,32.8,91.5z"/>
<path class="st3" d="M46,66.7H33.2c-1.1,0.2-2.1-0.5-2.3-1.6s0.5-2.1,1.6-2.3c0.2,0,0.5,0,0.7,0H46c1.1,0.2,1.8,1.3,1.6,2.3
	C47.4,65.9,46.8,66.6,46,66.7z"/>
<path class="st3" d="M46,75.5H33.2c-1.1,0.2-2.1-0.5-2.3-1.6s0.5-2.1,1.6-2.3c0.2,0,0.5,0,0.7,0H46c1.1,0.2,1.8,1.3,1.6,2.3
	C47.4,74.8,46.8,75.4,46,75.5z"/>
<path class="st3" d="M46,84.3H33.2c-1.1,0.2-2.1-0.5-2.3-1.6s0.5-2.1,1.6-2.3c0.2,0,0.5,0,0.7,0H46c1.1,0.2,1.8,1.3,1.6,2.3
	C47.4,83.6,46.8,84.2,46,84.3z"/>
<path class="st3" d="M36.1,91.6h-9.2c-1.1,0.2-2.1-0.5-2.3-1.6s0.5-2.1,1.6-2.3c0.2,0,0.5,0,0.7,0h9.2c1.1-0.2,2.1,0.5,2.3,1.6
	s-0.5,2.1-1.6,2.3C36.6,91.6,36.3,91.6,36.1,91.6z"/>
<path class="st3" d="M98.6,37.6c-6.9,0-12.4-5.5-12.4-12.4c0-6.9,5.5-12.4,12.4-12.4c6.9,0,12.4,5.5,12.4,12.4c0,0,0,0,0,0
	C111,32.1,105.4,37.6,98.6,37.6z M98.6,16.7c-4.7,0-8.5,3.8-8.5,8.5s3.8,8.5,8.5,8.5c4.7,0,8.5-3.8,8.5-8.5c0,0,0,0,0,0
	C107.1,20.5,103.3,16.7,98.6,16.7z"/>
<path class="st3" d="M98.6,29.9L98.6,29.9c-0.6,0-1.2-0.3-1.6-0.8l-3.5-4.9c-0.5-1,0-2.2,1-2.7c0.7-0.3,1.6-0.2,2.2,0.4l1.9,2.7
	L109.1,11c0.8-0.7,2.1-0.7,2.8,0.2c0.5,0.6,0.7,1.5,0.3,2.2l-12.1,15.7C99.8,29.6,99.2,29.9,98.6,29.9z"/>
</svg>
