<svg xmlns="http://www.w3.org/2000/svg" viewBox="0 0 120 120"><defs><style>.cls-1{isolation:isolate;}.cls-2{fill:none;}.cls-3{fill:#28347d;}.cls-4{mix-blend-mode:multiply;}.cls-5{fill:#24a31a;}.cls-6{fill:#a2ce2a;}.cls-7{fill:#1f9254;}</style></defs><title>icon_ocensa_gobierno_corporativo_</title><g class="cls-1"><g id="Capa_1" data-name="Capa 1"><rect class="cls-2" width="120" height="120"/><path class="cls-3" d="M55.35,62.34a1.51,1.51,0,0,1-1.06-2.57l6.86-6.85A1.5,1.5,0,0,1,63.27,55L56.42,61.9A1.53,1.53,0,0,1,55.35,62.34Z"/><path class="cls-3" d="M85.18,67.12A29.14,29.14,0,1,1,114.54,38,29.28,29.28,0,0,1,85.18,67.12Zm0-55.28A26.14,26.14,0,1,0,111.54,38,26.29,26.29,0,0,0,85.18,11.84Z"/><path class="cls-3" d="M95.73,54.1a1.66,1.66,0,0,1-1.65-1.53L94,51l-.72-.18-1,1.12a1.64,1.64,0,0,1-1.13.56,1.68,1.68,0,0,1-1.2-.4l-1.81-1.57a1.62,1.62,0,0,1-.57-1.13,1.65,1.65,0,0,1,.4-1.21L89,47l-.38-.64-1.49.11A1.65,1.65,0,0,1,85.35,45l-.16-2.38a1.56,1.56,0,0,1,.4-1.2,1.64,1.64,0,0,1,1.14-.57l1.53-.1.19-.72-1.13-1a1.69,1.69,0,0,1-.56-1.14,1.63,1.63,0,0,1,.4-1.2l1.58-1.81a1.67,1.67,0,0,1,2.33-.17l1.18,1,.62-.38-.09-1.49a1.67,1.67,0,0,1,.4-1.2,1.64,1.64,0,0,1,1.13-.56l2.39-.17a1.66,1.66,0,0,1,1.77,1.54L98.58,35l.71.17,1-1.11a1.66,1.66,0,0,1,2.34-.16l1.81,1.57a1.64,1.64,0,0,1,.16,2.34l-1,1.17.39.63,1.48-.1h0a1.65,1.65,0,0,1,1.76,1.54l.17,2.39a1.67,1.67,0,0,1-.41,1.21,1.62,1.62,0,0,1-1.14.55l-1.54.11-.18.72,1.12,1a1.64,1.64,0,0,1,.16,2.34l-1.56,1.81a1.67,1.67,0,0,1-2.34.16l-1.18-1-.63.38.1,1.49a1.66,1.66,0,0,1-1.54,1.76l-2.39.17Zm-2.48-5.27A1.86,1.86,0,0,1,94,49l.65.21A2,2,0,0,1,96,50.88l.08,1.2,1.7-.12-.08-1.2a2,2,0,0,1,1.17-1.9l.62-.31a1.94,1.94,0,0,1,2.15.23l.92.81,1.12-1.3-.91-.79a2,2,0,0,1-.51-2.17l.22-.65a1.93,1.93,0,0,1,1.69-1.36l1.21-.09-.12-1.7-1.21.08a1.93,1.93,0,0,1-1.9-1.18l-.3-.61a1.94,1.94,0,0,1,.23-2.15l.8-.91-1.29-1.13-.8.92a2,2,0,0,1-2.17.5L98,36.84a2,2,0,0,1-1.37-1.69l-.08-1.21-1.7.12.08,1.2a2,2,0,0,1-1.18,1.9l-.61.31a2,2,0,0,1-2.16-.24l-.91-.8L88.9,37.72l.91.79a2,2,0,0,1,.51,2.17l-.22.66a1.92,1.92,0,0,1-1.7,1.36l-1.2.09.13,1.7,1.2-.08a2,2,0,0,1,1.89,1.16l.31.62a2,2,0,0,1-.23,2.16l-.8.91L91,50.38l.8-.91A1.94,1.94,0,0,1,93.25,48.83Zm4.85,3.11h0Zm-7.34-1.29Zm.49,0ZM89.43,49h0Zm14.48-.52h0Zm0-.49h0ZM87.35,44.82h0Zm18.34-1.61Zm-18.82-.4h0Zm.31-.38h0Zm18-1.24ZM88.67,38h0Zm14.44-1h0Zm-8.34-3.27Zm1.5,13.46a4.18,4.18,0,0,1-2.73-1A4.16,4.16,0,0,1,96,38.86a4.16,4.16,0,0,1,.58,8.3h-.3Zm.23-1h0Zm-.23-5.31h-.15a2.17,2.17,0,0,0-2,2.31,2.14,2.14,0,0,0,.74,1.48,2.18,2.18,0,0,0,1.57.53h0a2.16,2.16,0,0,0-.16-4.32ZM75.35,45a1.74,1.74,0,0,1-1.73-1.61l-.12-1.71-1-.28-1.09,1.27a1.72,1.72,0,0,1-1.18.58A1.68,1.68,0,0,1,69,42.8l-2-1.74a1.72,1.72,0,0,1-.16-2.44L68,37.34l-.41-.83-1.74.06A1.7,1.7,0,0,1,64,35l-.19-2.63a1.73,1.73,0,0,1,.42-1.25,1.69,1.69,0,0,1,1.18-.59l1.71-.12.28-.86-1.26-1.19A1.72,1.72,0,0,1,66,25.9l1.73-2a1.75,1.75,0,0,1,1.2-.59,1.65,1.65,0,0,1,1.24.43l1.28,1.11.82-.4,0-1.74a1.73,1.73,0,0,1,1.6-1.84l2.64-.18a1.71,1.71,0,0,1,1.24.42,1.69,1.69,0,0,1,.59,1.18l.12,1.7.86.29L80.44,23a1.73,1.73,0,0,1,2.42-.17l2,1.75a1.69,1.69,0,0,1,.59,1.17A1.72,1.72,0,0,1,85,27L83.9,28.3l.41.82,1.74-.06h0a1.74,1.74,0,0,1,1.83,1.6l.18,2.64a1.65,1.65,0,0,1-.42,1.25,1.69,1.69,0,0,1-1.18.59l-1.7.12-.29.86,1.27,1.19a1.72,1.72,0,0,1,.58,1.18,1.7,1.7,0,0,1-.42,1.26l-1.73,2a1.74,1.74,0,0,1-2.43.18l-1.3-1.13-.81.4.06,1.74a1.73,1.73,0,0,1-1.6,1.84L75.46,45ZM72.6,39.35a1.84,1.84,0,0,1,.74.14l.72.23a2.09,2.09,0,0,1,1.44,1.79l.1,1.43,2.08-.15-.1-1.43a2.11,2.11,0,0,1,1.23-2L79.5,39a2,2,0,0,1,2.27.25l1.08.94,1.37-1.58-1.08-.94a2.08,2.08,0,0,1-.54-2.27l.25-.74a2.05,2.05,0,0,1,1.78-1.43l1.43-.1-.14-2.08-1.43.1a2.13,2.13,0,0,1-2-1.24l-.34-.68A2,2,0,0,1,82.39,27l1-1.08-1.58-1.37-1,1.08a2,2,0,0,1-2.27.53l-.73-.24a2,2,0,0,1-1.42-1.78l-.1-1.43-2.09.15.1,1.43a2.06,2.06,0,0,1-1.24,2l-.68.34a2,2,0,0,1-2.27-.26L69,25.42,67.66,27l1.08.94a2.07,2.07,0,0,1,.54,2.27l-.24.73a2.05,2.05,0,0,1-1.79,1.43l-1.42.1L66,34.56l1.43-.1a2.08,2.08,0,0,1,2,1.23l.35.69a2.07,2.07,0,0,1-.24,2.26l-1,1.09,1.58,1.37L71.06,40A2.07,2.07,0,0,1,72.6,39.35ZM78,42.77Zm-9.6-2.83Zm16.07-1.12h0Zm0-.39ZM66,34.84Zm20.09-1.4Zm.26-.3h0Zm-20.53-1h0Zm20.38-1.13ZM67.48,27.21Zm0-.4Zm16.1-.71Zm0-.4Zm-14.7-.46h0Zm5.1-2.37Zm2,14.44a4.48,4.48,0,1,1,.31,0Zm0-7h-.18a2.49,2.49,0,1,0,.35,5h0a2.46,2.46,0,0,0,1.7-.85,2.49,2.49,0,0,0-.25-3.51A2.47,2.47,0,0,0,76,30.33Z"/><path class="cls-3" d="M9.33,90.8H9.12A1.5,1.5,0,0,1,7.84,89.1l2-14.45a12.33,12.33,0,0,1,9.7-10.35l17.33-3.57.09,0a12.31,12.31,0,0,1-12.09-12.3V41a12.3,12.3,0,0,1,24.6,0v7.45A12.32,12.32,0,0,1,37.4,60.71l.09,0L54.82,64.3a12.34,12.34,0,0,1,9.7,10.35l2,14.45a1.49,1.49,0,0,1-1.28,1.69,1.51,1.51,0,0,1-1.69-1.28l-2-14.45a9.33,9.33,0,0,0-7.34-7.82l-17-3.51-17,3.51a9.32,9.32,0,0,0-7.33,7.82l-2,14.45A1.51,1.51,0,0,1,9.33,90.8ZM37.19,31.66a9.31,9.31,0,0,0-9.3,9.3v7.45a9.3,9.3,0,0,0,18.6,0V41A9.31,9.31,0,0,0,37.19,31.66Z"/><g class="cls-4"><path class="cls-5" d="M24.25,111.84H7a1.5,1.5,0,1,1,0-3H24.25a1.5,1.5,0,0,1,0,3Z"/></g><g class="cls-4"><path class="cls-6" d="M34.42,111.84H17.13a1.5,1.5,0,1,1,0-3H34.42a1.5,1.5,0,0,1,0,3Z"/></g><g class="cls-4"><path class="cls-6" d="M55.26,111.84H46.61a1.5,1.5,0,1,1,0-3h8.65a1.5,1.5,0,0,1,0,3Z"/></g><g class="cls-4"><path class="cls-6" d="M67.42,111.84a1.5,1.5,0,0,1-1.5-1.5,1.52,1.52,0,0,1,.44-1.06,1.56,1.56,0,0,1,2.12,0,2.11,2.11,0,0,1,.19.23,1.26,1.26,0,0,1,.13.26,1.41,1.41,0,0,1,.12.57,1.62,1.62,0,0,1-.11.58,1.58,1.58,0,0,1-.33.48,1.25,1.25,0,0,1-.49.33A1.38,1.38,0,0,1,67.42,111.84Z"/></g><g class="cls-4"><path class="cls-6" d="M50.08,100.23H7a1.5,1.5,0,1,1,0-3H50.08a1.5,1.5,0,0,1,0,3Z"/></g><g class="cls-4"><path class="cls-7" d="M7,100.23a1.62,1.62,0,0,1-.58-.11,1.58,1.58,0,0,1-.48-.33,1.46,1.46,0,0,1-.44-1.06,1.5,1.5,0,0,1,.44-1.06l.22-.19a1.58,1.58,0,0,1,.26-.13,1.52,1.52,0,0,1,.28-.09,1.47,1.47,0,0,1,.59,0,1.31,1.31,0,0,1,.28.09,1.26,1.26,0,0,1,.26.13,2.11,2.11,0,0,1,.23.19,1.5,1.5,0,0,1,0,2.12A1.52,1.52,0,0,1,7,100.23Z"/></g><g class="cls-4"><path class="cls-5" d="M67.42,100.23H43a1.5,1.5,0,0,1,0-3H67.42a1.5,1.5,0,0,1,0,3Z"/></g></g></g></svg>