<svg xmlns="http://www.w3.org/2000/svg" xmlns:xlink="http://www.w3.org/1999/xlink" viewBox="0 0 536 536"><defs><style>.cls-1,.cls-12,.cls-9{fill:none;}.cls-10,.cls-2{fill:#30d9cb;}.cls-3{fill:#fbd80c;}.cls-4{fill:#98cdd0;}.cls-5{fill:#28b8ce;}.cls-6{fill:#fff;}.cls-7{fill:#c9e5e7;}.cls-8{fill:#1eadfe;}.cls-9{stroke:#28347d;stroke-linecap:round;stroke-linejoin:round;}.cls-12,.cls-9{stroke-width:1.7px;}.cls-10{opacity:0.45;}.cls-11{clip-path:url(#clip-path);}.cls-12{stroke:#fff;stroke-miterlimit:10;}.cls-13{clip-path:url(#clip-path-2);}.cls-14{clip-path:url(#clip-path-3);}</style><clipPath id="clip-path"><circle class="cls-1" cx="232.65" cy="69.08" r="51.19"/></clipPath><clipPath id="clip-path-2"><circle class="cls-1" cx="135.83" cy="202.44" r="51.19"/></clipPath><clipPath id="clip-path-3"><circle class="cls-1" cx="259.66" cy="210.08" r="51.19"/></clipPath></defs><title>imag_ocensa_3_gobierno_corporativo_estatutos</title><g id="Figuras_fondo" data-name="Figuras fondo"><rect class="cls-1" y="-0.02" width="536" height="536"/><path class="cls-2" d="M104.5,459.46C58.08,397,50.14,350.88,111.34,291.1S167.55,66.86,386.7,167,265.44,676.13,104.5,459.46Z"/></g><g id="Parche_color_Chica" data-name="Parche color Chica"><path class="cls-3" d="M410.87,408c2.65,21.45,4.16,42.31,5.65,66.63,0,0-24.55,2.25-44.85,2.65a347.08,347.08,0,0,1-40.08-1.83c-.51-13.6.21-43.07,1.54-65.33.32-5.33.68-10.26,1.06-14.45l38.33-4.08h0c3.08,1,5.78,2,8.55,2.92,1.94,11,4.48,19.83,5.78,19.6h0c1.09-.22,15.87-3.39,21.3-4.56a2.76,2.76,0,0,0,2-1.59h0l.71,0Zm-65.77-3.9a3.9,3.9,0,1,0-3.89,3.9A3.89,3.89,0,0,0,345.1,404.11Z"/><path class="cls-3" d="M341.21,400.22a3.9,3.9,0,1,1-3.9,3.89A3.89,3.89,0,0,1,341.21,400.22Z"/><path class="cls-4" d="M315,403.51a28.67,28.67,0,0,0,18.16,6.62c-1.33,22.26-2.05,51.73-1.54,65.33,0,0-16.85,0-26.77-2.87C306.71,456.77,312.16,424.1,315,403.51Z"/><path class="cls-5" d="M315.73,397.64l18.46-2c-.38,4.19-.74,9.12-1.06,14.45A28.67,28.67,0,0,1,315,403.51C315.25,401.42,315.51,399.45,315.73,397.64Z"/><path class="cls-3" d="M299.58,399.36l16.15-1.72c-.22,1.81-.48,3.78-.76,5.87-2.81,20.59-8.26,53.26-10.15,69.08,0,0-4.05-.36-8-1S289.4,470,289.4,470c1.32-14.48,6.93-50.39,9.64-67.31.2-1.19.38-2.29.54-3.28Z"/><path class="cls-6" d="M235.27,383.89c1.06,4.11,1.36,9.09,2.74,10.75l-1.76.61c-2.17-2.27-4.35-4.57-4.93-5.37-.85-1.19-1.26-4.82-1.57-6.92s-2.26-14.33-2.44-17.09a2,2,0,0,1,.14-.95c.82-1.95,4.8-1.13,6.05,5.45h0a1.19,1.19,0,0,0-.69,1.17A106.9,106.9,0,0,0,235.27,383.89Z"/><path class="cls-6" d="M249.28,391.33l33.17,9.16a3.15,3.15,0,0,0,3-.74l1.17.4a6.18,6.18,0,0,0,2.66.3l10.31-1.09h0c-.16,1-.34,2.09-.54,3.28,0,0-10,.61-15.32.46s-12.15-.88-12.15-.88c-1.07.65-4.93.8-8.72.92s-10.09.19-12.07,1a7.7,7.7,0,0,1-6.2-.08c-1.64-.87-3.09-.11-4.93.2s-3.4-1.27-4.05-2.49c-2.27-4.27-6.46-11.42-7.37-13a9.69,9.69,0,0,1-1.18-3.39c-.09-.61-.17-1.29-.24-2.08-.23-2.52-2-16.78-2.14-18.38s2.49-.92,2.78,0a2,2,0,0,0-.14.95c.18,2.76,2.14,15,2.44,17.09s.72,5.73,1.57,6.92c.58.8,2.76,3.1,4.93,5.37l1.76-.61c-1.38-1.66-1.68-6.64-2.74-10.75a106.9,106.9,0,0,1-2.46-12.34,1.19,1.19,0,0,1,.69-1.17h0a2.56,2.56,0,0,1,2.86.83,16.68,16.68,0,0,1,3.07,6,79.68,79.68,0,0,1,2,8.36,6.76,6.76,0,0,1,2.5.59C245.45,386.82,247.54,389.45,249.28,391.33Z"/><path class="cls-4" d="M281.48,374.1l1,4.9,3,13.92.84,3.88a3.13,3.13,0,0,1-3.9,3.69l-33.17-9.16c-1.74-1.88-3.83-4.51-5.31-5.2a6.76,6.76,0,0,0-2.5-.59,79.68,79.68,0,0,0-2-8.36,16.68,16.68,0,0,0-3.07-6,2.56,2.56,0,0,0-2.86-.83c-1.25-6.58-5.23-7.4-6.05-5.45-.29-.92-2.89-1.6-2.78,0s1.91,15.86,2.14,18.38c.07.79.15,1.47.24,2.08l-25.34-6.31a7,7,0,0,1-5.14-5.22l-21.49-93.71a3.13,3.13,0,0,1,3.25-3.83l77.95,4.75a7,7,0,0,1,6.43,5.53l15.64,72.92.63,3,1.08,5,1,4.7Z"/><polygon class="cls-4" points="327.13 388.48 285.51 392.92 282.53 379 327.13 388.48"/><path class="cls-7" d="M376.83,387.84l-87.65,9.32a6.16,6.16,0,0,1-2.49-.25l-.34-.11-.84-3.88,41.62-4.44L282.53,379l-1-4.9a8.38,8.38,0,0,0,5.17-.87c.91-.51,2.31-1.52,3.63-2.34l5.34,1.05,7.87,1.53,10.4,2,4.17.82,17.61,3.45,3.55.69,29.37,5.75h0Z"/><path class="cls-4" d="M372.52,391.6l-38.33,4.08-18.46,2-16.15,1.72-10.31,1.09a6.18,6.18,0,0,1-2.66-.3l-1.17-.4a3.17,3.17,0,0,0,.91-2.95l.34.11a6.16,6.16,0,0,0,2.49.25l87.65-9.32v3.3Z"/><path class="cls-3" d="M386.63,396.22a93,93,0,0,1,1.05,13.87c-.06,2.64-.35,3.88-.79,4h0c-1.3.23-3.84-8.65-5.78-19.6,1.78.59,3.59,1.15,5.55,1.7Z"/><path class="cls-3" d="M410.82,392a146.79,146.79,0,0,1-.43,15,2.72,2.72,0,0,1-.24.91,2.76,2.76,0,0,1-2,1.59c-5.43,1.17-20.21,4.34-21.3,4.56.44-.14.73-1.38.79-4a93,93,0,0,0-1.05-13.87A163,163,0,0,0,381,370.4c-.25-.78-.51-1.52-.77-2.22,2.84,0,18.09.89,24,1.48a7.08,7.08,0,0,0,1.66,0C408,373.69,410.58,384.64,410.82,392Z"/><path class="cls-6" d="M305.86,353.1c1.94.35,4.4.83,7,1.35,1.8.36,3.65.73,5.45,1.07h0c2.09.41,4.08.79,5.77,1.08,4.18.71,8.76,1.45,13.23,2.42,1.86.4,3.71.84,5.49,1.33,1.13.31,2.23.65,3.3,1,6.88,2.29,27.49,7.55,34.88,9a163,163,0,0,1,5.65,25.82h0c-2-.55-3.77-1.11-5.55-1.7-2.77-.91-5.47-1.88-8.55-2.92h0l4.31-.46v-3.3l-8.22-1.61h0c-8.92-2.34-20.56-7-28.29-10.16l-3.88-1.55h0c-1.46-.57-2.62-1-3.38-1.27-3.59,2.1-8.7,1.32-13.66.52a13.5,13.5,0,0,1-1.32-.3,36.58,36.58,0,0,1-4.44-1.55c-4.18-1.7-8.37-3.92-8.37-3.92a7,7,0,0,1-1.09.07c-1.82,0-4.41-.26-5.82-.21a8.87,8.87,0,0,0-2.11.43,35.68,35.68,0,0,0-4.31,1.69,14.36,14.36,0,0,0-1.64.93c-1.32.82-2.72,1.83-3.63,2.34a8.38,8.38,0,0,1-5.17.87l-.41-1.91-1-4.7-1.08-5-.63-3c2-.69,15.52-5.21,16.95-5.68.82-.27,1.65-.57,2.59-.81a14.64,14.64,0,0,1,4.52-.43A32.42,32.42,0,0,1,305.86,353.1Z"/><path class="cls-3" d="M368.59,386.22l-29.37-5.75a43.08,43.08,0,0,1,1.08-4.41C348,379.18,359.67,383.88,368.59,386.22Z"/><path class="cls-3" d="M340.3,376.06a43.08,43.08,0,0,0-1.08,4.41l-3.55-.69s.56-3.75.75-5.27Z"/><path class="cls-5" d="M336.42,374.5h0c-.19,1.52-.75,5.27-.75,5.27l-17.61-3.45s0-2.13,0-2.88a13.5,13.5,0,0,0,1.32.3c5,.8,10.07,1.58,13.66-.52C333.8,373.48,335,373.93,336.42,374.5Z"/><path class="cls-3" d="M318.06,373.45c0,.75,0,2.88,0,2.88l-4.17-.82s-.2-2.57-.27-3.61A36.58,36.58,0,0,0,318.06,373.45Z"/><path class="cls-3" d="M305.25,368s4.19,2.22,8.37,3.92c.07,1,.27,3.61.27,3.61l-10.4-2c.4-1.87.67-5.42.67-5.42h0A7,7,0,0,0,305.25,368Z"/><path class="cls-3" d="M298.34,367.84c1.41,0,4,.23,5.82.21h0s-.27,3.55-.67,5.42l-7.87-1.53h0s.37-2.08.61-3.66A8.87,8.87,0,0,1,298.34,367.84Z"/><path class="cls-3" d="M311.23,296.3c-.82,4.85-1.3,9.17-1.48,11.4-.9,11.38-2.14,24-3.89,45.4a32.42,32.42,0,0,0-3.45-.51,14.64,14.64,0,0,0-4.52.43C300.9,339.2,307.91,310.6,311.23,296.3Z"/><path class="cls-3" d="M414.75,248.57c2.49.82,5.34,1.64,8.63,2.49l2.89.74c5.46,1.4,10.09,2.62,13.75,4.39s6.56,4.29,8.13,8.16c3.33,8.27,5.63,32.46,6.08,44.15.34,8.83-1.26,46.79-2.64,58.59s-1.49,19-2.41,22-7.91,13.42-10.43,15.71-11.24,3.1-15.25,3.1c-3.54,0-10.24.13-12.63.08l-.71,0h0a2.72,2.72,0,0,0,.24-.91,146.79,146.79,0,0,0,.43-15c-.24-7.4-2.8-18.35-5-22.4a7.08,7.08,0,0,1-1.66,0c-5.89-.59-21.14-1.48-24-1.48.26.7.52,1.44.77,2.22-7.39-1.49-28-6.75-34.88-9-1.07-.35-2.17-.69-3.3-1,3.13-25.31,16.48-37.79,27.5-53.35,10.59-14.95,31.11-40.13,31.11-40.13l-7.61-5.39,8.73-.78c1.83-2.86,7.39-13.89,7.39-13.89C411.36,247.41,413,248,414.75,248.57Z"/><path class="cls-3" d="M400.34,241.08a29.12,29.12,0,0,0,9.58,5.74s-5.56,11-7.39,13.89l-8.73.78,7.61,5.39S380.89,292.06,370.3,307c-11,15.56-24.37,28-27.5,53.35-1.78-.49-3.63-.93-5.49-1.33,2.14-37.46,17.73-50.75,29.2-71.74,3.6-6.59,7.39-13.15,11.08-19.31h0c8-13.45,15.55-25,19.35-30.8A28.62,28.62,0,0,0,400.34,241.08Z"/><path class="cls-5" d="M377.59,268c-3.69,6.16-7.48,12.72-11.08,19.31-11.47,21-27.06,34.28-29.2,71.74-4.47-1-9.05-1.71-13.23-2.42-1.69-.29-3.68-.67-5.77-1.08h0c-1-17.93-1.68-31.15,7.84-50.8a268.08,268.08,0,0,1,20.49-34.83C352.3,272.37,368.61,271.31,377.59,268Z"/><path class="cls-3" d="M343.69,266.42l-9,2.68a171.51,171.51,0,0,0-16.13,27.51c-7.26,15.68-7.19,34.84-5.68,57.84-2.6-.52-5.06-1-7-1.35,1.75-21.4,3-34,3.89-45.4.18-2.23.66-6.55,1.48-11.4v0c1.41-8.33,3.83-18.22,7.45-21.74,5.74-5.58,20.56-13.22,27.91-16.71-3.12,3-5.82,5.67-7.12,7Z"/><path class="cls-3" d="M346.64,269.89a268.08,268.08,0,0,0-20.49,34.83c-9.52,19.65-8.82,32.87-7.84,50.8-1.8-.34-3.65-.71-5.45-1.07-1.51-23-1.58-42.16,5.68-57.84a171.51,171.51,0,0,1,16.13-27.51l9-2.68-4.21-1.6c1.3-1.33,4-4,7.12-7h0c2.25-2.19,4.72-4.54,7-6.72,2.79-2.62,5.35-5,7-6.37a36.78,36.78,0,0,1-1.88,9.95C355.87,257.46,351.51,262.9,346.64,269.89Z"/><path class="cls-8" d="M360.37,236.2a43.87,43.87,0,0,1,.28,8.52c-1.66,1.41-4.22,3.75-7,6.37-6.4-10.62-10.33-25.64-12-32.46,1.12,1.58,2.19,3,3.08,4.22,3.2,4.35,6.64,11.12,10,12.73A10.31,10.31,0,0,0,360.37,236.2Z"/><path class="cls-6" d="M358.77,254.67a36.78,36.78,0,0,0,1.88-9.95,43.87,43.87,0,0,0-.28-8.52,22.81,22.81,0,0,0,7.4-2.34c4.24-2.18,18.44-11.72,21.19-15.63.5,1.91,1,3.7,1.52,5.31a47.24,47.24,0,0,0,6.46,13.64c-3.8,5.82-11.31,17.35-19.35,30.8h0c-9,3.33-25.29,4.39-30.95,1.91C351.51,262.9,355.87,257.46,358.77,254.67Z"/><path class="cls-6" d="M369.77,211.55c-2,3-7.83,5.36-10.33,6a13.82,13.82,0,0,1-6.67.22,10.05,10.05,0,0,1-5.31-4.21A138.65,138.65,0,0,0,369.77,211.55Z"/><path class="cls-8" d="M334.4,184.9a38.43,38.43,0,0,1,0,6.16c-.53-5.38-1.78-10.13-2.31-14.48a39.78,39.78,0,0,1,1.53-15.44c.08-.28.17-.56.26-.84,3.37-10.55,19.65-24.6,28.82-20.58-.64,1.26-7.14,11.27-9,15.16h0l-.58.05c-9.4.94-15.33,8.05-17.62,12.53S333.86,179.05,334.4,184.9Z"/><path class="cls-8" d="M414.75,248.57c-1.79-.58-3.39-1.16-4.83-1.75a29.12,29.12,0,0,1-9.58-5.74,28.62,28.62,0,0,1-3.4-3.9,47.24,47.24,0,0,1-6.46-13.64c-.52-1.61-1-3.4-1.52-5.31a251.76,251.76,0,0,1-4.91-25.08c-.8-6.19-2.75-18.92-7.22-27.52-4.39-8.43-13.37-11.54-23.08-10.74h0c1.83-3.89,8.33-13.9,9-15.16,1.9-1.81,12.51-5.59,25.06,1.37,11.56,6.41,15.69,15.32,18.83,31.08,1.14,5.77,5.46,26,7.83,38.3,2.81,14.69,5.73,31.58,11.83,41.33l-2.89-.74C420.09,250.21,417.24,249.39,414.75,248.57Z"/><path class="cls-6" d="M369.77,211.55a138.65,138.65,0,0,1-22.31,2,10.05,10.05,0,0,0,5.31,4.21,13.82,13.82,0,0,0,6.67-.22C361.94,216.91,367.73,214.56,369.77,211.55Zm-35.35-20.49a38.43,38.43,0,0,0,0-6.16c-.54-5.85-1.14-13,1.15-17.43s8.22-11.59,17.62-12.53l.58-.05c9.71-.8,18.69,2.31,23.08,10.74,4.47,8.6,6.42,21.33,7.22,27.52A251.76,251.76,0,0,0,389,218.23c-2.75,3.91-16.95,13.45-21.19,15.63a22.81,22.81,0,0,1-7.4,2.34,10.31,10.31,0,0,1-5.67-.62c-3.33-1.61-6.77-8.38-10-12.73-.89-1.2-2-2.64-3.08-4.22h0c-2.92-4.17-6.14-9.41-7.13-14.46C333.58,199.4,334.16,195.3,334.42,191.06ZM370.9,186c0-.82-.32-1.48-.71-1.48s-.73.66-.73,1.48.33,1.46.73,1.46S370.9,186.8,370.9,186Zm-27.13,1.68c0-.82-.32-1.48-.72-1.48s-.72.66-.72,1.48.32,1.47.72,1.47S343.77,188.48,343.77,187.67Z"/><ellipse class="cls-7" cx="225.8" cy="332.09" rx="3.66" ry="7.04" transform="translate(-58 47.97) rotate(-10.75)"/></g><g id="LIN"><path class="cls-9" d="M353.17,154.94c-9.4.94-15.33,8.05-17.62,12.53s-1.7,11.58-1.15,17.43c.63,6.7-1.26,12.26.12,19.26s7,14.33,10.2,18.69,6.65,11.12,10,12.73,8.83.46,13.07-1.72,18.45-11.74,21.2-15.64"/><path class="cls-9" d="M353.17,154.94c9.94-1,19.19,2.09,23.66,10.69s6.42,21.33,7.22,27.52,3.56,21.33,6.42,30.39,6.35,14.18,9.87,17.54c4,3.78,10.2,6.65,23,10s21.45,5,24.77,13.3,4.9,32.34,5.39,44c.61,14.56-.57,46.9-2,58.71s-1.49,19-2.41,22-7.91,13.42-10.43,15.71-11.24,3.1-15.25,3.1-12.08.16-13.34.05"/><path class="cls-9" d="M360.37,236.21c.81,5.56.64,17.31-4.35,23.56"/><path class="cls-9" d="M362.73,139.72c-9.18-4-25.46,10-28.83,20.58a40,40,0,0,0-1.79,16.28c.53,4.36,1.79,9.12,2.31,14.51"/><path class="cls-9" d="M362.73,139.72c1.89-1.81,12.49-5.59,25,1.37,11.55,6.41,15.7,15.33,18.82,31.08,1.15,5.77,5.48,26,7.84,38.3,2.81,14.7,5.73,31.59,11.83,41.33"/><path class="cls-9" d="M353.74,154.89c1.84-3.9,8.34-13.91,9-15.17"/><path class="cls-9" d="M352.64,183c-.85,9.33-4.37,18.12-4.36,20.16,0,1.63,7,1.44,10.6.29"/><path class="cls-9" d="M346.92,213.5a134.51,134.51,0,0,0,23.93-2.15"/><path class="cls-9" d="M347.46,213.51a10.05,10.05,0,0,0,5.3,4.22,13.86,13.86,0,0,0,6.68-.22c2.5-.6,8.29-2.95,10.33-6"/><path class="cls-9" d="M354.92,222.76c1.45.42,4.55.47,6.27-.77"/><path class="cls-9" d="M347.16,180.1a25.24,25.24,0,0,0-11.78.32"/><path class="cls-9" d="M361.18,178.78c3.72-1.74,10.2-2.41,16.91,0"/><path class="cls-9" d="M341.65,218.62c1.66,6.83,5.59,21.85,12,32.47"/><path class="cls-9" d="M380.21,368.19c2.84,0,18.09.88,24,1.47a7.22,7.22,0,0,0,3.53-.52c1.39-.58,3.09-1.47,3.45-2.44.63-1.72-.06-11.93-.46-16.8s-.51-39.22,1.55-54.81"/><path class="cls-9" d="M410.82,367.26a13.14,13.14,0,0,1,9.81-1c3.56,1.26,11.31,5,15.37,6.72s3.7-1.41,0-3.74-7.8-4.24-11-4.78"/><path class="cls-9" d="M412.26,365.26c3.29-3,11.54-5.85,22.74-4.62"/><path class="cls-9" d="M405.86,369.64c2.16,4.05,4.72,15,5,22.4a146.79,146.79,0,0,1-.43,15,2.78,2.78,0,0,1-2.2,2.5c-5.52,1.19-20.68,4.45-21.34,4.57"/><path class="cls-9" d="M380.21,368.19c3.92,10.56,7.72,31.59,7.47,41.91s-4-.73-6.61-15.58"/><path class="cls-9" d="M227.06,385.38l-25.35-6.3a7,7,0,0,1-5.14-5.24l-21.49-93.7a3.13,3.13,0,0,1,3.25-3.83l77.95,4.75a7,7,0,0,1,6.43,5.53l23.64,110.22a3.14,3.14,0,0,1-3.9,3.68l-33.17-9.16"/><path class="cls-9" d="M381,370.4c-7.39-1.49-28-6.74-34.88-9s-15-3.55-22-4.76-19.09-3.87-21.67-4a17.14,17.14,0,0,0-7.11,1.23c-1.44.47-14.94,5-16.95,5.69"/><path class="cls-9" d="M295.34,355.17c-4.32,1.3-14.27,6.42-16.35,7.31"/><path class="cls-9" d="M298.74,357.75c-1.54.69-9.23,2.39-11.43,3.52s-5.59,4.67-7.25,6.22"/><path class="cls-9" d="M302.58,361.27c-2,.61-5.33.55-7.05,1.3s-6.76,4-8.22,4.64-5.5,4.18-6.24,5"/><path class="cls-9" d="M281.48,374.1a8.37,8.37,0,0,0,5.17-.87c1.31-.74,3.67-2.52,5.27-3.27s4.7-2.06,6.42-2.12,5.22.37,6.91.15c0,0,9.52,5,14.13,5.76,6.14,1,12.5,1.95,15.94-2.54"/><path class="cls-9" d="M251.12,393.05c-1.87-1.26-5.08-6-7.15-6.92s-4.78-.69-5.16.19,3.14,4.17,4.47,5.85,5.71,4.3,7.07,5.24c2.07,1.41,6.39,1.95,10.67,0"/><path class="cls-9" d="M248.69,400.18c-3.84-1.84-9.06-3.9-10.55-5.39s-1.77-6.65-2.86-10.9a105.27,105.27,0,0,1-2.47-12.34c-.06-1.59,2.24-1.85,3.56-.34a16.66,16.66,0,0,1,3.06,6,79,79,0,0,1,2,8.35"/><path class="cls-9" d="M241.07,400.39c-1-1.3-8.6-8.91-9.75-10.51-.85-1.19-1.26-4.82-1.57-6.92s-2.26-14.33-2.44-17.09c-.2-3,4.76-3,6.19,4.51"/><path class="cls-9" d="M227.45,364.92c-.28-.92-2.89-1.61-2.78,0s1.91,15.86,2.14,18.38a12,12,0,0,0,1.41,5.47c.92,1.6,5.11,8.76,7.38,13,.65,1.22,2.22,2.79,4.05,2.49s3.29-1.07,4.93-.2a7.75,7.75,0,0,0,6.2.08c2-.84,8.29-.92,12.07-1s7.65-.27,8.72-.92c0,0,6.82.73,12.15.88s15.33-.46,15.33-.46"/><path class="cls-9" d="M285.43,399.75l1.18.4a6.15,6.15,0,0,0,2.66.31l87.56-9.32"/><path class="cls-9" d="M286.35,396.81l.33.1a6.06,6.06,0,0,0,2.5.25l87.65-9.32"/><line class="cls-9" x1="285.51" y1="392.92" x2="327.12" y2="388.48"/><path class="cls-9" d="M299.57,399.36c-2.43,15-8.76,55.09-10.17,70.59"/><line class="cls-9" x1="376.83" y1="387.84" x2="376.83" y2="391.14"/><line class="cls-9" x1="376.83" y1="387.84" x2="290.28" y2="370.88"/><line class="cls-9" x1="327.12" y1="388.48" x2="282.53" y2="379"/><path class="cls-9" d="M333,373.23c4.52,1.49,22.82,9.66,35.57,13"/><path class="cls-9" d="M372.53,391.6c5,1.7,9.09,3.23,14.09,4.62"/><path class="cls-9" d="M397,237.18c-5.56,8.49-19,29.13-30.44,50.11s-27.06,34.28-29.2,71.74"/><path class="cls-9" d="M409.92,246.82s-5.56,11-7.39,13.9l-8.73.77,7.61,5.39S380.89,292.06,370.29,307c-11,15.56-24.36,28-27.49,53.35"/><path class="cls-9" d="M440,256.19c-7-.2-17.67,7.48-24.78,25.2"/><path class="cls-9" d="M405.38,301.74c.92,6.42,2.12,14.45,5.25,21.33"/><path class="cls-9" d="M358.76,254.67c-6.88,6.65-22.06,28.27-32.61,50.05-9.52,19.65-8.83,32.86-7.85,50.81"/><path class="cls-9" d="M360.65,244.72c-5,4.2-17.8,16.66-21.16,20.1l4.2,1.6-9,2.68a171.35,171.35,0,0,0-16.13,27.52c-7.26,15.67-7.18,34.83-5.68,57.83"/><path class="cls-9" d="M346.61,269.87c5.62,2.51,22,1.44,31-1.89"/><path class="cls-9" d="M346.61,257.81c-7.35,3.49-22.18,11.13-27.92,16.71s-8.46,27.13-8.94,33.18c-.9,11.38-2.14,24-3.88,45.4"/><path class="cls-9" d="M311.24,296.27c-3.33,14.3-10.34,42.92-13.35,56.75"/><path class="cls-9" d="M315.73,397.64c-2.42,19.64-8.83,57.52-10.9,74.95"/><path class="cls-9" d="M334.19,395.68c-2,21.64-3.24,62.92-2.6,79.77"/><path class="cls-9" d="M410.87,408c2.65,21.45,4.16,42.31,5.64,66.63"/><path class="cls-9" d="M315,403.52a28.85,28.85,0,0,0,18.18,6.62"/><circle class="cls-9" cx="341.21" cy="404.11" r="3.89"/><path class="cls-9" d="M355,147.8c-10.44,0-17.17,5.22-21.35,13.34"/><path class="cls-9" d="M363,146.71c11.39-1.22,22.52,5.18,26.64,19,3.54,11.89,2.76,18.08,7.28,34.74"/><path class="cls-9" d="M391.32,198.74c2.22,10.58,6.79,31.17,23.43,49.83"/><path class="cls-9" d="M399,176.37c2.78,15.58,5.79,40.18,16.81,63.45"/><path class="cls-9" d="M343.77,187.46c0,.81-.33,1.47-.72,1.47s-.73-.66-.73-1.47.33-1.48.73-1.48S343.77,186.64,343.77,187.46Z"/><path class="cls-9" d="M370.91,186c0,.82-.33,1.48-.73,1.48s-.72-.66-.72-1.48.33-1.47.72-1.47S370.91,185.17,370.91,186Z"/><path class="cls-9" d="M336.42,374.5c-.19,1.51-.75,5.28-.75,5.28"/><path class="cls-9" d="M318.06,373.46c0,.75,0,2.87,0,2.87"/><path class="cls-9" d="M313.62,371.9c.07,1,.27,3.61.27,3.61"/><path class="cls-9" d="M340.3,376.06c-.5,1.64-.7,2.63-1.08,4.41"/><path class="cls-9" d="M303.49,373.47c.4-1.87.67-5.42.67-5.42"/><path class="cls-9" d="M296.23,368.27c-.24,1.58-.61,3.66-.61,3.66"/><ellipse class="cls-9" cx="225.8" cy="332.09" rx="3.66" ry="7.04" transform="translate(-58 47.97) rotate(-10.75)"/><circle class="cls-10" cx="228.76" cy="72.86" r="51.19"/><g class="cls-11"><path class="cls-2" d="M221.35,89.58c-2.86,3-6.6,6.85-8,9.23l1.94,1.49-2.2.78s-8.15,23.6-9.31,31.75H198c.18-4.34,3.75-32.2,9.78-36.78C212.63,92.35,217.45,91.15,221.35,89.58Z"/><path class="cls-2" d="M224.45,86.15c0,.93,0,1.88,0,2.84-.6.9-2.17,3.81-4.15,7.9h0c-4.49,9.23-11.07,24.47-13.32,35.94h-3.16c1.16-8.15,9.31-31.75,9.31-31.75l2.2-.78-1.94-1.49c1.36-2.38,5.1-6.23,8-9.23L222.88,88C223.54,87.24,224.09,86.62,224.45,86.15Z"/><path class="cls-5" d="M240.22,98.81c-4.26,10.83-9.68,24.44-11.63,34H207c2.25-11.47,8.83-26.71,13.32-35.94C220.72,101.83,230,106.62,240.22,98.81Z"/><path class="cls-2" d="M251.85,88.48c.54,1.41-3.19,11.06-3.19,11.06l-4.13,1.26,3,1.55s-9.36,22.35-12.08,30.48h-6.87c1.95-9.58,7.37-23.19,11.63-34,2.59-6.57,4.76-12.11,5.47-15.1-.09-.61-.17-1.19-.23-1.75,1,1,4.23,3.75,5.71,5.5A3.87,3.87,0,0,1,251.85,88.48Z"/><path class="cls-2" d="M258.79,132.83H235.46c2.72-8.13,12.08-30.48,12.08-30.48l-3-1.55,4.13-1.26s3.73-9.65,3.19-11.06c2.77,1.35,14.39,6.12,18.69,8.63s6.87,9.55,8,16.77,2.76,15.17,2.76,19Z"/><path class="cls-6" d="M224.45,89c0-1,0-1.91,0-2.84a72.67,72.67,0,0,0-1.23-9.78,40.4,40.4,0,0,0,6.37,5.22c1.8.92,6.33.55,7.37,0,2.26-1.19,6.7-6.47,8.52-8.92a45.73,45.73,0,0,0,0,9.29c.06.56.14,1.14.23,1.75-.71,3-2.88,8.53-5.47,15.1-10.24,7.81-19.5,3-19.92-1.92h0C222.28,92.8,223.85,89.89,224.45,89Z"/><path class="cls-2" d="M219.38,70.15h0a1.81,1.81,0,1,1-.34-1.69C219.14,69.05,219.26,69.61,219.38,70.15Z"/><path class="cls-2" d="M249.13,66.9a1.81,1.81,0,1,1-2.34,2.49c.11-.64.21-1.36.3-2.08h0a1.82,1.82,0,0,1,2-.41Z"/><path class="cls-5" d="M216.4,68.31a1.78,1.78,0,0,0-.56,1.31,1.8,1.8,0,0,0,3.53.53h0a17.51,17.51,0,0,0,.65,2.32,15.18,15.18,0,0,0,3.19,3.9,72.67,72.67,0,0,1,1.23,9.78c-.36.47-.91,1.09-1.57,1.8l-1-1.22c-1-1.89-2.74,1.75-2.74,1.75-.76-1.21.22-3.39.17-4.77s-1.35-2.85-2.08-.81a14.35,14.35,0,0,1-2.52,4,3.93,3.93,0,0,0,0-4c-.82-1.79-.14-5.92-.48-7.22s-1.5-.83-1.75,1.94a11.7,11.7,0,0,1-2.18,5.28c.29-.77.68-3.54-.24-5.05s-.78-3.44-.24-5.75a22.94,22.94,0,0,0,0-6.27c-.94.33-2.11,5.9-2.18,6.25.18-.86-.2-1.9-1-3.93s1-4.17,2.28-6.9A11,11,0,0,0,210.09,56c-1,.24-3.35,5.27-3.35,5.27,0-2.73,1.75-5.66,1.22-7.7a5.93,5.93,0,0,1,1.5-5.77c1.6-1.74,2-4.46,3.15-6.74s3-2,3.35-4.32,1.94-5.43,4.27-5.82,3.05-.58,5.2-2.76,5.89-2.53,7.81.53c2.7-2.87,7.59-2.41,10.93.36s6.76,4.25,8.56,8.13,1.69,4.71,3.64,6.65,1.16,6.64,2.66,11.4a9.07,9.07,0,0,1-2.72-3c-.67-1.55.44,4.36,2.23,6.79s2.43,3.88,2,5.87-.88,3.78-.25,5.82a15.65,15.65,0,0,1-1.94-4.49,4.18,4.18,0,0,0-1.11-2.61c-.39-.57-.73,2.54.09,5.16s1.36,4.46,1.12,6,1.11,3.11.82,5a7.48,7.48,0,0,1-2.28-3,5.24,5.24,0,0,0-1.35-2.57,8.35,8.35,0,0,0,.09,5.19c1,2.33,1.65,2.33,1.07,4.61a9,9,0,0,0-1.65-2.28c-.92-.83-.68,1.89-.1,4.8a3.1,3.1,0,0,0-1.55-1.21c-1.21-.54-1.84,1.64-1.84,1.89l-.49.19c-1.48-1.75-4.73-4.5-5.71-5.5a45.73,45.73,0,0,1,0-9.29c.32-.45.57-.8.7-1a8.22,8.22,0,0,0,.61-2.26,1.81,1.81,0,1,0,2.34-2.49c1.63-3.62,2-11.59-1.3-8.93,0,0-.05-4.51-.2-8.15s-1.09-7.79-5.33-9.89c-3.56-1.77-7.52-2-9.32-.88-1.94-1.31-7.27-1.11-8.78.2s-.53,3-2.08,4-.83,2.52-2.28,4.32.1,3.59-2.09,4.85-.53,6.2-.53,6.2c-3.74-3.43-3.71,6.4-.83,9.67Z"/><path class="cls-6" d="M239.16,70.52a12.27,12.27,0,0,1-3.59,3,6.92,6.92,0,0,1-3.59,0,9.48,9.48,0,0,1-3.72-3C230.11,70.45,237.58,70.39,239.16,70.52Z"/><path class="cls-6" d="M219,68.46a1.8,1.8,0,0,0-2.63-.15h0c-2.88-3.27-2.91-13.1.83-9.67,0,0-1.65-4.94.53-6.2s.64-3.06,2.09-4.85.72-3.25,2.28-4.32.58-2.72,2.08-4,6.84-1.51,8.78-.2c1.8-1.07,5.76-.89,9.32.88,4.24,2.1,5.19,6.25,5.33,9.89s.2,8.15.2,8.15c3.32-2.66,2.93,5.31,1.3,8.93a1.82,1.82,0,0,0-2,.41h0c-.09.72-.19,1.44-.3,2.08a8.22,8.22,0,0,1-.61,2.26c-.13.22-.38.57-.7,1-1.82,2.45-6.26,7.73-8.52,8.92-1,.55-5.57.92-7.37,0a40.4,40.4,0,0,1-6.37-5.22,15.18,15.18,0,0,1-3.19-3.9,17.51,17.51,0,0,1-.65-2.32C219.26,69.61,219.14,69.05,219,68.46Zm16.54,5.07a12.27,12.27,0,0,0,3.59-3c-1.58-.13-9-.07-10.9,0a9.48,9.48,0,0,0,3.72,3A6.92,6.92,0,0,0,235.57,73.53Z"/><path class="cls-9" d="M233,39.05c-1.94-1.31-7.27-1.11-8.78.2s-.53,3-2.08,4-.83,2.52-2.28,4.32.1,3.59-2.09,4.85-.53,6.2-.53,6.2"/><path class="cls-9" d="M233,39.05c1.8-1.06,5.76-.89,9.32.88,4.24,2.1,5.19,6.25,5.33,9.89s.2,8.15.2,8.15"/><path class="cls-9" d="M234,56.27a62.18,62.18,0,0,1,2,9.17c0,1.12-3.73.87-4.56.39"/><path class="cls-9" d="M237.93,53.07c1.36-.35,5.53-.53,7.23.49"/><path class="cls-9" d="M229.16,53.39c-2-.54-5.51-.58-7.46.33"/><path class="cls-9" d="M218.09,62.43c.39,2.72,1.07,7.76,1.94,10s7.76,8.2,9.56,9.12,6.33.55,7.37,0c2.67-1.4,8.39-8.54,9.22-9.94s1.36-8.73,1.36-9.61"/><path class="cls-9" d="M223.22,76.37c.45,2.85,1.72,8.67,1.08,14.68"/><path class="cls-9" d="M245.48,72.67a43.76,43.76,0,0,0,.21,11"/><path class="cls-9" d="M233.24,28.67c-1.92-3.05-5.66-2.71-7.81-.53s-2.87,2.38-5.2,2.76-3.88,3.5-4.27,5.82-2.18,2-3.35,4.32-1.55,5-3.15,6.74a5.94,5.94,0,0,0-1.5,5.78c.53,2-1.17,5-1.22,7.69,0,0,2.33-5,3.35-5.27A11,11,0,0,1,209,61.25c-1.31,2.73-3.05,4.87-2.28,6.91s1.17,3.08,1,3.94c0,0,1.22-5.93,2.19-6.27a22.94,22.94,0,0,1,0,6.27c-.54,2.31-.68,4.25.24,5.76s.53,4.27.24,5a11.71,11.71,0,0,0,2.18-5.29c.25-2.76,1.42-3.25,1.75-1.94s-.34,5.44.48,7.23a4,4,0,0,1,0,4,14.57,14.57,0,0,0,2.52-4c.73-2,2-.57,2.08.81s-.93,3.56-.17,4.77c0,0,1.77-3.64,2.74-1.75"/><path class="cls-9" d="M233.24,28.67c2.7-2.88,7.59-2.41,10.93.36s6.76,4.25,8.56,8.13,1.69,4.71,3.63,6.65,1.17,6.64,2.67,11.39a8.9,8.9,0,0,1-2.71-3c-.68-1.56.43,4.36,2.23,6.79s2.42,3.88,2,5.87-.88,3.78-.25,5.82a15.94,15.94,0,0,1-1.94-4.49,4.23,4.23,0,0,0-1.11-2.61c-.39-.57-.73,2.54.09,5.16s1.36,4.46,1.12,6,1.12,3.11.82,5a7.48,7.48,0,0,1-2.28-3,5.19,5.19,0,0,0-1.35-2.57,8.35,8.35,0,0,0,.09,5.19c1,2.33,1.65,2.33,1.07,4.61a9,9,0,0,0-1.65-2.28c-.92-.83-.68,1.89-.1,4.8a3.1,3.1,0,0,0-1.55-1.21c-1.21-.54-1.84,1.64-1.84,1.89"/><path class="cls-9" d="M239.16,70.52c-1.58-.13-9-.07-10.9,0"/><path class="cls-9" d="M228.26,70.52a9.36,9.36,0,0,0,3.72,3,6.61,6.61,0,0,0,3.59,0,12.1,12.1,0,0,0,3.59-3"/><path class="cls-9" d="M232.69,76.09A6.47,6.47,0,0,0,235.5,76"/><path class="cls-9" d="M224.45,89c-1.94,2.91-14.23,27.29-17.46,43.85"/><path class="cls-9" d="M224.45,86.16c-1.94,2.5-9.06,9.16-11.06,12.65l1.94,1.49-2.2.78s-8.15,23.6-9.31,31.75"/><path class="cls-9" d="M245.69,83.71c-1.89,7.92-14,33.73-17.1,49.12"/><path class="cls-9" d="M245.46,82c1.2,1.23,5.86,5.11,6.39,6.52s-3.19,11.06-3.19,11.06l-4.13,1.26,3,1.55s-9.37,22.35-12.08,30.48"/><path class="cls-9" d="M251.85,88.48c2.77,1.35,14.39,6.12,18.69,8.63s6.87,9.55,8,16.77,2.76,15.17,2.76,19"/><path class="cls-9" d="M221.35,89.58c-3.9,1.57-8.72,2.77-13.57,6.46-6,4.59-9.6,32.45-9.78,36.79"/><path class="cls-9" d="M220.3,96.88c.41,4.94,9.68,9.74,19.92,1.93"/><path class="cls-9" d="M259.57,113.17a101.9,101.9,0,0,0-.78,19.66"/><path class="cls-9" d="M264.42,116.6a21.08,21.08,0,0,0-5.8,12.35"/><path class="cls-9" d="M219.38,70.15a1.81,1.81,0,1,1-1.73-2.34,1.79,1.79,0,0,1,1.38.65"/><path class="cls-9" d="M247.09,67.31a1.78,1.78,0,0,1,1.31-.56,1.81,1.81,0,1,1-1.61,2.64"/><path class="cls-9" d="M217.22,58.64c-3.74-3.43-3.71,6.39-.82,9.67"/><path class="cls-9" d="M247.83,58c3.32-2.66,2.93,5.31,1.3,8.93"/><path class="cls-9" d="M241.4,57.63c0,.33-.13.6-.3.6s-.3-.27-.3-.6.14-.61.3-.61S241.4,57.29,241.4,57.63Z"/><path class="cls-9" d="M226.59,58c0,.34-.13.61-.3.61s-.3-.27-.3-.61.14-.61.3-.61S226.59,57.63,226.59,58Z"/></g><circle class="cls-12" cx="232.65" cy="69.08" r="51.19"/><circle class="cls-10" cx="129.64" cy="198.54" r="51.19"/><g class="cls-13"><path class="cls-5" d="M152.52,186.25a20.28,20.28,0,0,1-1,2.09,15.26,15.26,0,0,0-1.14-5.39c-.54-1.23-.45-4.5-.4-5.83s0-3.93-2.56-4.77-15.95-1.32-19.15-1-4.66,2.12-4.83,3.75.44,4.11-.75,6.54a37.73,37.73,0,0,0-1.77,7.42,27.07,27.07,0,0,1-1.31-3.76,31.44,31.44,0,0,1-1.08-7.06c0-2.43-.13-5.66,0-6.67a5.57,5.57,0,0,0-1.67,1,9.08,9.08,0,0,1,5-6.09,7.26,7.26,0,0,0-2.69-.57s5.87-3.71,10.82-3.4a8.74,8.74,0,0,0-3.18-1.42,26.29,26.29,0,0,1,12.41.1c6,1.76,12.67,4.77,12.9,9.49a4.2,4.2,0,0,1,2.25,2.08C155.36,174.28,154.58,181.19,152.52,186.25Z"/><path class="cls-6" d="M130.81,200.86c2,.14,8.27.27,10.54.21v0c-.35.55-2.32,2.63-3.14,2.83a15.45,15.45,0,0,1-4.57-.18A6.9,6.9,0,0,1,130.81,200.86Z"/><path class="cls-6" d="M130.81,200.86a6.9,6.9,0,0,0,2.83,2.88,15.45,15.45,0,0,0,4.57.18c.82-.2,2.79-2.28,3.14-2.83v0C139.08,201.13,132.79,201,130.81,200.86Zm-9.13-4.53c-1.88,4-4.34-5.43-4.65-8.83s1.54-3.75,2.58-2.21a27.07,27.07,0,0,0,1.31,3.76,37.73,37.73,0,0,1,1.77-7.42c1.19-2.43.57-4.9.75-6.54s1.63-3.45,4.83-3.75,16.59.18,19.15,1,2.61,3.45,2.56,4.77-.14,4.6.4,5.83a15.26,15.26,0,0,1,1.14,5.39,20.28,20.28,0,0,0,1-2.09c1.48-1.31,3.31-.2,2.29,3.68s-4.37,10.41-4.84,7.95a31.4,31.4,0,0,1-1.28,3.93,36.91,36.91,0,0,1-2.44,4.07c-2,3.1-4.66,6.79-5.42,7.15s-8.67.43-10-.33c-1-.57-4.9-6.59-7.1-10.26a27.8,27.8,0,0,1-1.5-2.7A21.14,21.14,0,0,1,121.68,196.33Z"/><path class="cls-2" d="M146,210.53c.4.92,1.29,2.87,2.17,5.45,1.46,4.31,2.86,10.38,1.8,16.38-3.5-12.4-7.2-8.73-8.3-5.88.1-.29.21-.55.3-.8,1.41-3.71,3-8.11,3.77-10.49Z"/><path class="cls-2" d="M121.11,216.37a29.24,29.24,0,0,1,2.64-5.82c0,2.58,0,4.79,0,5h0c.83,2.58,2.56,7.06,4.45,11.86-2.52-6.36-7.34,1.87-8,5.35C119.18,225.16,120,219.93,121.11,216.37Z"/><path class="cls-6" d="M123.75,210.55c0-3.16,0-6.85,0-8.11h0c2.2,3.67,6.11,9.69,7.1,10.26,1.35.76,9.16.75,10,.33s3.4-4.05,5.42-7.15l-.25,4.65-.26,4.66c-.8,2.38-2.36,6.78-3.77,10.49-.09.25-.2.51-.3.8,0,0,0,0,0,.05-2.19,5.8-6.73,18.21-6.73,18.21-1.33-3.71-4.2-10.8-6.76-17.32-1.89-4.8-3.62-9.28-4.45-11.86h0C123.73,215.34,123.75,213.13,123.75,210.55Z"/><path class="cls-2" d="M167.56,263.69H88.94c-.06-13.87-.86-27.65,7.36-34,5.57-4.31,19.2-10.12,24.81-13.33-1.13,3.56-1.93,8.79-1,16.4.67-3.48,5.49-11.71,8-5.35,2.56,6.52,5.43,13.61,6.76,17.32,0,0,4.54-12.41,6.73-18.21,0,0,0,0,0-.05,1.1-2.85,4.8-6.52,8.3,5.88,1.06-6-.34-12.07-1.8-16.38,6.14,2.57,19.63,7.06,24.25,10.26,8,5.56,9.89,22.52,10.51,37.45Z"/><path class="cls-9" d="M121.33,192.08s.41,6.36.88,7.66,7.25,12.19,8.6,12.95,9.16.76,10,.34c1.19-.57,7.1-9.46,7.85-11.22a39.4,39.4,0,0,0,2.38-9.73"/><path class="cls-9" d="M137.26,186.75a59.36,59.36,0,0,1,1.19,9.06c-.13,1-4.59.31-5.56,0"/><path class="cls-9" d="M124.72,184a26.94,26.94,0,0,1,7.11-.62"/><path class="cls-9" d="M140.79,183.68c1.59-.06,6,.16,7.51,1.08"/><path class="cls-9" d="M120.92,189.05a38.4,38.4,0,0,1,1.76-7.42c1.2-2.43.58-4.9.75-6.54s1.64-3.44,4.84-3.75,16.59.17,19.15,1,2.6,3.45,2.56,4.77-.13,4.6.4,5.83a15.49,15.49,0,0,1,1.15,5.39"/><path class="cls-9" d="M120.92,189.05a30.86,30.86,0,0,1-2.39-10.82c0-2.43-.13-5.66,0-6.67a5.35,5.35,0,0,0-1.68,1,9.12,9.12,0,0,1,5-6.1,7.28,7.28,0,0,0-2.7-.57s5.88-3.71,10.83-3.4a8.69,8.69,0,0,0-3.18-1.41,26.3,26.3,0,0,1,12.41.08c6,1.77,12.67,4.77,12.89,9.5a4.25,4.25,0,0,1,2.26,2.08c1.1,1.81-.09,10.63-2.87,15.63"/><path class="cls-9" d="M119.61,185.29c-1-1.54-2.89-1.19-2.58,2.21s2.77,12.81,4.65,8.83"/><path class="cls-9" d="M152.52,186.25c1.48-1.31,3.31-.21,2.28,3.68s-4.36,10.42-4.83,7.95"/><path class="cls-9" d="M130.4,200.83c1.32.14,9.13.32,11.25.23"/><path class="cls-9" d="M130.81,200.86a6.78,6.78,0,0,0,2.83,2.88,15.79,15.79,0,0,0,4.57.19c.82-.21,2.79-2.29,3.14-2.84"/><path class="cls-9" d="M134.58,206.27c.71.24,2.24.42,2.8,0"/><path class="cls-9" d="M129.52,186.75c0,.34-.13.61-.3.61s-.3-.27-.3-.61.14-.61.3-.61S129.52,186.42,129.52,186.75Z"/><path class="cls-9" d="M143.93,187.19c0,.34-.13.61-.3.61s-.3-.27-.3-.61.14-.61.3-.61S143.93,186.86,143.93,187.19Z"/><path class="cls-9" d="M123.71,202.44c.08,2.29.05,12.72,0,13.12"/><line class="cls-9" x1="146.25" y1="205.88" x2="145.74" y2="215.19"/><path class="cls-9" d="M123.21,213.74c.53,3.31,9.1,23.69,11.71,31,0,0,5-13.75,7.05-19.06,1.87-4.93,4-11.09,4.28-12.1"/><path class="cls-9" d="M123.76,210.53c-1.25,2.4-5.38,8.35-3.61,22.24"/><path class="cls-9" d="M146,210.53c1.06,2.46,5.68,12.23,4,21.83"/><path class="cls-9" d="M120.15,232.77c.66-3.49,5.49-11.71,8-5.35"/><path class="cls-9" d="M141.65,226.53c1.07-2.85,4.8-6.65,8.32,5.83"/><path class="cls-9" d="M121.11,216.37c-5.61,3.21-19.24,9-24.81,13.32-8.22,6.35-7.42,20.13-7.36,34"/><path class="cls-9" d="M148.17,216c6.14,2.57,19.63,7.06,24.25,10.26,8,5.56,9.89,22.52,10.51,37.45"/><path class="cls-9" d="M103.6,249.73v14"/><line class="cls-9" x1="167.2" y1="247.88" x2="167.56" y2="263.69"/></g><circle class="cls-12" cx="135.83" cy="202.44" r="51.19"/><circle class="cls-10" cx="262.31" cy="213.84" r="51.19"/><g class="cls-14"><path class="cls-2" d="M286.75,268.16H213.14c0-13.78,2.88-29.76,9.66-35.94,4.47-4.07,16.13-8.37,20.62-9.78-3,3.35-6.63,8.24-7.68,13.39,2.47-3.35,9.67-6.54,12.23,1.09,0,0,0,0,0,.05a41.11,41.11,0,0,0,3.93,9c2.69-3.74,6-6.92,9.26-10.33.31-.31.61-.63.91-1C268,229.11,275.36,235,277,239c.63-9.29.08-14.61-1-18.06,6.67,4,21.51,11.66,28.05,19.92,5.14,6.5,3.45,27.29,3.45,27.29Z"/><path class="cls-2" d="M271.82,220c.2-1.62.32-3.39.43-5.1a15.1,15.1,0,0,1,3.68,6h0c1.11,3.45,1.66,8.77,1,18.06-1.6-4-8.93-9.9-14.87-4.31C265.9,230.64,269.52,226.17,271.82,220Z"/><path class="cls-2" d="M246.44,226.2A34.9,34.9,0,0,0,248,236.92c-2.56-7.63-9.76-4.44-12.23-1.09,1-5.15,4.64-10,7.68-13.39a43.47,43.47,0,0,1,4.36-4.22C247.81,220.82,247.63,223.93,246.44,226.2Z"/><path class="cls-6" d="M247.76,217.25a10.86,10.86,0,0,0,9.8,4.76c3.71-.13,8.92-2.25,11.48-5.92a38.16,38.16,0,0,0,3.85-8.72,72.47,72.47,0,0,0-.64,7.53c-.11,1.71-.23,3.48-.43,5.1-2.3,6.17-5.92,10.64-9.73,14.7a12,12,0,0,0-.91,1c-3.25,3.41-6.57,6.59-9.26,10.33a41.11,41.11,0,0,1-3.93-9s0,0,0-.05a34.9,34.9,0,0,1-1.53-10.72c1.19-2.27,1.37-5.38,1.34-8C247.78,217.88,247.77,217.56,247.76,217.25Z"/><path class="cls-2" d="M244.53,192.86s-.53,4.3-.62,6.42c-1.37-2-1.46-4.78-1.57-5.91a13.3,13.3,0,0,1,1.34-.36C244,193,244.25,192.9,244.53,192.86Z"/><path class="cls-6" d="M254.06,194.9c0,.17,0,.33-.06.5a12.6,12.6,0,0,1-.39,1.89v0c-.86,2.9-2.74,4.5-6.29,4a4.7,4.7,0,0,1-3.4-2.06c.09-2.12.62-6.42.62-6.42C248.62,192.28,252.66,193.69,254.06,194.9Z"/><path class="cls-6" d="M268.76,196.39c0,4.17-2.75,7.17-6.06,6.86-4.47-.43-5.49-4.57-5.59-7.43,0-.18,0-.36,0-.52A13,13,0,0,1,268.76,196.39Z"/><path class="cls-2" d="M277.29,195.56a12.39,12.39,0,0,0-2.05,3.32l-1.44-.23a7.5,7.5,0,0,0-.25-2.86C274.79,195.71,276,195.65,277.29,195.56Z"/><path class="cls-6" d="M243.91,199.28a4.7,4.7,0,0,0,3.4,2.06c3.55.47,5.43-1.13,6.29-4v0a12.6,12.6,0,0,0,.39-1.89h0c.88-.22,2.73-.07,3.09.42h0c.1,2.86,1.12,7,5.59,7.43,3.31.31,6.06-2.69,6.06-6.86a35.8,35.8,0,0,1,4.79-.6,7.5,7.5,0,0,1,.25,2.86l1.44.23a12.39,12.39,0,0,1,2.05-3.32h0a2.51,2.51,0,0,1,1.47-.84,1.84,1.84,0,0,1,1,.18c1.85.89.25,4.68-.54,6.71-.94,2.45-3.61,7.61-5.89,4.4-.14.43-.28.89-.43,1.36a38.16,38.16,0,0,1-3.85,8.72c-2.56,3.67-7.77,5.79-11.48,5.92a10.86,10.86,0,0,1-9.8-4.76h0a15.44,15.44,0,0,1-1.07-1.81c-2.74-5.48-2.91-12.85-2.78-16.15Z"/><path class="cls-6" d="M254.06,194.9c-1.4-1.21-5.44-2.62-9.53-2,0,0,.44-4.58.82-6.43s.65-5.25,2-5.92,5.86-.48,8.77.17,12,2.41,14.28,3.45,2.15,2.8,1.5,4.53-1.32,2.74-.08,4.07a7.72,7.72,0,0,1,1.78,3.06,35.8,35.8,0,0,0-4.79.6,13,13,0,0,0-11.66-1.09c0,.16,0,.34,0,.52h0c-.36-.49-2.21-.64-3.09-.42h0C254,195.23,254,195.07,254.06,194.9Z"/><path class="cls-5" d="M245.35,186.43c-.38,1.85-.82,6.43-.82,6.43-.28,0-.57.09-.85.15a58.89,58.89,0,0,0-.25-7.29,2.35,2.35,0,0,1,.45-2,1,1,0,0,1,0-1.64s-1-1.39.53-1.77a1.25,1.25,0,0,1,.86-2.24c-.51-.53-1.62-2.65,1.26-3.65a1.57,1.57,0,0,1,1.67-2.38,1.31,1.31,0,0,1,2.16-1.33c0-1.27,2.18-1.94,2.76-.59.54-1.53,2.07-1.79,2.69-.56.67-1.44,2.47-1.53,3-.5.76-1.15,2.18-1.59,2.83-.35.95-.91,2.09-1.12,2.56-.09a1.58,1.58,0,0,1,2.89.94c1.05-.68,3-.26,2.91,1.09,1.27-.15,2.8-.12,2.62,1.71,1.23-.18,2.53.12,2.32,1.56,1.45,0,2.77.45,2.36,1.9a1.55,1.55,0,0,1,.53,2.72c2,.68,1.65,1.53,1.12,2.36a1.73,1.73,0,0,1,.41,3.06c1.25.85,1.59,2.3.59,3.09,1.59,1.09-1.18,6.12-1.18,7.64h0a2.51,2.51,0,0,0-1.47.84h0c-1.27.09-2.5.15-3.74.23a7.72,7.72,0,0,0-1.78-3.06c-1.24-1.33-.57-2.33.08-4.07s.77-3.5-1.5-4.53-11.37-2.8-14.28-3.45-7.48-.85-8.77-.17S245.73,184.57,245.35,186.43Z"/><path class="cls-9" d="M249.92,195.82c0,.33-.14.61-.3.61s-.3-.28-.3-.61.13-.61.3-.61S249.92,195.48,249.92,195.82Z"/><path class="cls-9" d="M262.89,197.28c0,.34-.13.61-.3.61s-.29-.27-.29-.61.13-.6.29-.6S262.89,197,262.89,197.28Z"/><path class="cls-9" d="M254.07,194.9c-1.66-1.43-7-3.13-11.72-1.53"/><path class="cls-9" d="M257.1,195.3a13,13,0,0,1,11.66,1.09"/><path class="cls-9" d="M257.1,195.3c0,2.86.85,7.49,5.6,7.95,3.31.32,6.06-2.69,6.06-6.86"/><path class="cls-9" d="M242.35,193.37c.15,1.72.28,7.35,5,8,4.43.58,6.27-2.06,6.76-6.44"/><path class="cls-9" d="M253.61,197.28c-.47,2.16-1.93,6.44-1.66,7.11s3.45,1.1,5.15,1.1"/><path class="cls-9" d="M250.18,208.36c1.74,1.33,6.14,2.47,10.87,1.1"/><path class="cls-9" d="M252.52,212.87a4,4,0,0,0,3.76.53"/><path class="cls-9" d="M274.34,202.22c-.35,1.81-2.74,10.2-5.3,13.87s-7.77,5.79-11.48,5.92a11,11,0,0,1-10.87-6.58c-2.74-5.48-2.91-12.86-2.78-16.15"/><path class="cls-9" d="M272.88,207.37c-.53,2.8-.53,8.24-1.06,12.65"/><path class="cls-9" d="M247.77,217.25c.07,2.77,0,6.39-1.34,8.95"/><path class="cls-9" d="M243.91,199.28c.09-2.12.62-6.42.62-6.42s.44-4.58.82-6.44.65-5.24,2-5.91,5.86-.48,8.77.17,12,2.42,14.28,3.45,2.15,2.79,1.5,4.53-1.32,2.74-.08,4.07a7.36,7.36,0,0,1,2,5.91l1.44.24"/><path class="cls-9" d="M275.24,198.88c1.15-2.49,2.65-4.87,4.5-4s.26,4.68-.53,6.72c-.94,2.44-3.62,7.6-5.89,4.38"/><path class="cls-9" d="M278.77,194.71c0-1.52,2.77-6.55,1.18-7.64,1-.79.66-2.24-.59-3.09a1.73,1.73,0,0,0-.41-3.06c.53-.83.88-1.68-1.12-2.36a1.54,1.54,0,0,0-.53-2.71c.41-1.46-.91-1.91-2.35-1.91.2-1.44-1.09-1.74-2.33-1.56.18-1.83-1.36-1.86-2.62-1.71.09-1.35-1.86-1.77-2.92-1.09a1.57,1.57,0,0,0-2.88-.94c-.47-1-1.61-.83-2.56.09-.65-1.24-2.07-.8-2.83.35-.53-1-2.33-.94-3,.5-.62-1.24-2.15-1-2.68.56-.59-1.35-2.77-.68-2.77.59-1.44-1-2.45.32-2.15,1.32a1.58,1.58,0,0,0-1.68,2.39c-2.88,1-1.77,3.12-1.27,3.65a1.25,1.25,0,0,0-.85,2.24c-1.5.38-.53,1.77-.53,1.77a1,1,0,0,0,0,1.64,2.33,2.33,0,0,0-.44,2,58.81,58.81,0,0,1,.24,7.29"/><line class="cls-9" x1="242.35" y1="193.37" x2="241.28" y2="193.37"/><path class="cls-9" d="M268.76,196.39a62.5,62.5,0,0,1,8.53-.83"/><path class="cls-9" d="M254,195.4c.89-.22,2.74-.07,3.11.42"/><path class="cls-9" d="M246.61,223.64c-.76,6.23.76,14.58,5.31,22.35"/><path class="cls-9" d="M247.78,218.21c-1.79,1.46-10.32,9.19-12,17.62"/><path class="cls-9" d="M235.74,235.83c2.47-3.35,9.7-6.55,12.25,1.14"/><path class="cls-9" d="M272.11,219.23c-4.35,12.45-14,18.1-20.19,26.76"/><path class="cls-9" d="M272.25,214.9c3,3.31,5.88,6.89,4.71,24.11"/><path class="cls-9" d="M277,239c-1.68-4.24-9.7-10.5-15.78-3.35"/><path class="cls-9" d="M243.42,222.44c-4.49,1.41-16.15,5.71-20.62,9.78-6.78,6.18-9.66,22.16-9.66,35.94"/><path class="cls-9" d="M275.93,221c6.67,4,21.51,11.66,28.05,19.92,5.14,6.5,3.44,27.29,3.44,27.29"/><path class="cls-9" d="M224.21,252.7c-.19,6.63.62,15.46.62,15.46"/><path class="cls-9" d="M286.75,254.38c-.09,3.09-.09,11.4,0,13.78"/></g><circle class="cls-12" cx="259.66" cy="210.08" r="51.19"/></g></svg>