<svg xmlns="http://www.w3.org/2000/svg" viewBox="0 0 536 536"><defs><style>.cls-1,.cls-6{fill:none;}.cls-2{fill:#30d9cb;}.cls-3{fill:#33c976;}.cls-4{fill:#fd0;}.cls-5{fill:#1eadfe;}.cls-6{stroke:#28347d;stroke-linecap:round;stroke-linejoin:round;stroke-width:1.7px;}.cls-7{fill:#fff;}</style></defs><title>imag_ocensa_4_gobierno_corporativo_codigo_buen_gobierno</title><g id="Figuras_fondo" data-name="Figuras fondo"><rect class="cls-1" width="536" height="536"/><path class="cls-2" d="M262.42,10.21C193.71,16.58,1.92,176.8,118.29,418.28s396.86,14.9,353.13-87-170-123.16-147.8-216.12S331.14,3.84,262.42,10.21Z"/></g><g id="Parche_color_Chica" data-name="Parche color Chica"><path class="cls-3" d="M115.13,131.86a53.55,53.55,0,1,1-53.54,53.55A53.55,53.55,0,0,1,115.13,131.86Z"/><path class="cls-4" d="M233.29,131.86a53.55,53.55,0,1,1-53.55,53.55A53.55,53.55,0,0,1,233.29,131.86Z"/><circle class="cls-5" cx="169.19" cy="77.88" r="53.55"/></g><g id="LIN"><circle class="cls-6" cx="115.13" cy="185.41" r="53.55"/><path class="cls-6" d="M83.84,202.3l10-10a12.44,12.44,0,0,1,9.6-3.61l6.13.41c.43,0,.86,0,1.29,0h12a3.68,3.68,0,0,1,0,7.35H111.59"/><path class="cls-6" d="M93.71,212.18l5-5A7.46,7.46,0,0,1,104,205h17a7.82,7.82,0,0,0,4.05-1.14l21.48-13a3.52,3.52,0,1,0-3.65-6l-13.17,8"/><path class="cls-6" d="M101.59,184.33a19.29,19.29,0,1,1,27.85,3.45"/><polyline class="cls-6" points="119.27 182.04 119.27 168.26 124.95 168.26 124.95 163.81 109.32 163.81 109.32 168.26 115.01 168.26 115.01 182.04"/><circle class="cls-6" cx="233.28" cy="185.41" r="53.55"/><polyline class="cls-6" points="233.29 183.19 233.29 168.26 268.31 168.26 268.31 193.47 242.97 193.47"/><rect class="cls-6" x="231.78" y="163.48" width="38.05" height="4.78"/><polyline class="cls-6" points="239.27 186.58 243.38 182.2 246.09 185.07 251.42 179.09 254.54 182.28 262.82 173.69"/><line class="cls-6" x1="250.8" y1="193.47" x2="250.8" y2="205.26"/><path class="cls-6" d="M226.34,168.26a10.29,10.29,0,0,1-6.78-3.32m2-4.94a9.74,9.74,0,0,1-.37,1.8,10.3,10.3,0,0,1-9.79,7.28,9.61,9.61,0,0,1-1.79-.14m9.64,22.3,3,13.87M217,191.25l-2.87,13.91m7-16.26-3,3.73-3-3.69m10.8-3.29-2.39,7-5.42-8.59m-7.79,1.66,2.47,7,5.32-8.66m-21.51,21.18L198,194a8.37,8.37,0,0,1,6.57-7.09l13.44-2.86,13.47,2.7a8.4,8.4,0,0,1,6.66,7L239.81,205m-13.44-31.68a8.39,8.39,0,1,1-16.77.1l0-5.79a8.39,8.39,0,1,1,16.77-.1Z"/><line class="cls-6" x1="255.2" y1="205.26" x2="246.41" y2="205.26"/><circle class="cls-6" cx="169.19" cy="77.88" r="53.55"/><path class="cls-6" d="M153.65,107.74v-4.51a5.41,5.41,0,0,0-1.12-3.3L142.7,87.25a5.1,5.1,0,0,1-1.07-3.12V62.19a3.12,3.12,0,0,1,6.24,0V75.61"/><path class="cls-6" d="M157.33,97.06,147.11,83.88A3.06,3.06,0,1,1,152,80.13l5.39,7A12,12,0,0,0,160.67,90l.84.5a8,8,0,0,1,3.9,6.85v10.36"/><path class="cls-6" d="M182.87,107.74v-4.51a5.41,5.41,0,0,1,1.12-3.3l9.83-12.68a5.1,5.1,0,0,0,1.07-3.12V62.19a3.12,3.12,0,1,0-6.24,0V75.61"/><path class="cls-6" d="M179.19,97.06l10.22-13.18a3.06,3.06,0,1,0-4.84-3.75l-5.39,7A12,12,0,0,1,175.85,90l-.84.5a8,8,0,0,0-3.9,6.85v10.36"/><path class="cls-6" d="M179.34,55.13a13.36,13.36,0,1,1-5.53-4.67"/><polyline class="cls-6" points="162.49 62.31 168.28 68.09 179.82 46.96"/><path class="cls-7" d="M358.48,169.72a17.52,17.52,0,0,1,.79-13.32c2.36-4.13,7.56-6.13,9.92-3.07,2,2.6,3.95,7.88,5.52,10.88a147.13,147.13,0,0,0,10,16.07c1,1.36,2.37,3.17,3.86,5.2,3.28,4.48,7.29,10,10.33,14.22l1.41,1.93c4.33,5.9,8.82,13.87,9.93,19.06.72,3.38,0,9.49-.86,15.14,1.64,4,3.85,8.74,4.24,13.07s-.94,19.93-2.12,27.38-2.72,20.32-3.2,29.31-7,41.55-7.68,70.08c-.4,15.95-2.93,25.76,6.52,43.6s70.3,110.66,70.3,110.66H355s-29-64-38.92-83.83-21.27-30.25-31.35-41.28-14.11-25.85-23.48-40c-4.25-6.42-9.65-12.52-13.91-19.26s-10.32-25.3-12.76-31.91c-3.19-8.62-7.57-14.77-10.4-20.09s-3.43-14.53-4-20.21-4.61-18.43-5.71-22.29c-2.28-8-1.36-12.93,1.25-15a5.19,5.19,0,0,1,.95-.59c3.31-1.58,10.82-1,15.6,3.15l.44.38c5.45,4.75,11,9.47,18.31,27.51,5.63,13.92,11.82,26.78,16.24,33.56s11.54,17.25,17.49,16.71c3.84-.37,8.77-2.18,12.49-8.79,5.9-10.52,6.1-23.52,12-46.45,0,0-3.43-29.54-2.6-39.59,0,0-7.66-12.48-10.45-21.2h0a40.85,40.85,0,0,1-9.53-12.1,22.11,22.11,0,0,1-1.79-5,13,13,0,0,1,1-8.23c1.36-2.94,3.59-4.89,5.27-4.85,3,.08,5.43,2.84,9,5.76a126.42,126.42,0,0,0,11.58,8.11c5.12,3.39,14.34,13,18.68,16.34s6.61,6.59,7.79,10.45c1,3.11,3.91,25.93,8.62,38.67-.19-4.8,2.18-10.47,4.23-14.33,0,0-1.58-20.95.71-29.54,0,0-10.12-12.26-14-23.59-3.38-2.33-10.78-6.59-14.88-15.33s1.73-15.6,4-16.47a5.51,5.51,0,0,1,5.36,1.18c1.1.87,7.64,6.39,12,9.46S354.94,167,358.48,169.72Z"/><path class="cls-7" d="M395.43,184.06c.95,1.58,1.45,11.36,3.48,15.64-3-4.18-7.05-9.74-10.33-14.22C390.54,182.8,394.49,182.48,395.43,184.06Z"/><path class="cls-6" d="M355,529.93s-29-64-38.92-83.83-21.27-30.25-31.35-41.28-14.11-25.84-23.48-40c-4.25-6.42-9.65-12.52-13.91-19.26s-10.32-25.3-12.76-31.91c-3.19-8.62-7.56-14.77-10.4-20.09s-3.43-14.53-4-20.21-4.61-18.43-5.71-22.29c-2.54-8.9-1.1-14,2.21-15.6s10.81-1,15.6,3.15c5.59,4.88,11.26,9.37,18.75,27.89,5.62,13.92,11.81,26.79,16.23,33.56s11.54,17.26,17.49,16.7c3.84-.35,8.77-2.17,12.48-8.78,5.91-10.52,6.11-23.52,12.06-46.45,0,0-3.43-29.54-2.6-39.59,0,0-9.57-15.6-11.23-24.1"/><path class="cls-6" d="M296.22,200.71c-3.84-3.26-9.83-10.19-11.33-17.13s3.23-13.15,6.23-13.07,5.43,2.83,9,5.75a130.48,130.48,0,0,0,11.58,8.11c5.12,3.39,14.34,13,18.67,16.34s6.62,6.59,7.8,10.45,5.44,38,12.3,45.7"/><path class="cls-6" d="M346.77,249.84c-.19-4.8,2.18-10.47,4.23-14.33,0,0-1.58-21,.71-29.55,0,0-12.61-15.28-15.13-27.5"/><path class="cls-6" d="M337.68,182.38c-3.39-2.34-10.79-6.59-14.89-15.34s1.73-15.6,4-16.47a5.49,5.49,0,0,1,5.36,1.19c1.1.86,7.64,6.38,12,9.45s10.8,5.83,14.34,8.51,18,19.14,21.19,23.08,7.33,9.69,7.88,14.74-1.1,13.7-1,22.21-1.27,28,1.14,37.66"/><path class="cls-6" d="M358.48,169.72a17.52,17.52,0,0,1,.79-13.32c2.36-4.13,7.56-6.13,9.93-3.07,2,2.6,3.94,7.88,5.51,10.87a146.17,146.17,0,0,0,10,16.08c3.7,4.88,11.26,15.44,15.6,21.35s8.82,13.86,9.92,19.06-1.26,16.86-2,23.4-4.81,20.33-4.1,33"/><path class="cls-6" d="M388.57,185.48c2-2.68,5.92-3,6.86-1.42s1.45,11.36,3.48,15.64"/><path class="cls-6" d="M409.39,235.83c1.64,4,3.85,8.74,4.24,13.07s-.93,19.93-2.12,27.38-2.72,20.32-3.2,29.31-7,41.56-7.68,70.08c-.39,15.95-2.93,25.76,6.51,43.61s70.31,110.65,70.31,110.65"/></g></svg>