<svg xmlns="http://www.w3.org/2000/svg" viewBox="0 0 536 536"><defs><style>.cls-1,.cls-15,.cls-16{fill:none;}.cls-2{fill:#fd0;}.cls-3{fill:#3bb3c3;}.cls-4{fill:#1eadfe;}.cls-5{fill:#fff;}.cls-6{fill:#d48b52;}.cls-7{fill:#98cdd0;}.cls-8{fill:#c9e5e7;}.cls-9{fill:#30d9cb;}.cls-10{fill:#28b8ce;}.cls-11{fill:#33c976;}.cls-12{fill:#6e8a90;}.cls-13{fill:#96a2b2;}.cls-14{fill:#fbd80c;}.cls-15,.cls-16{stroke:#28347d;stroke-linecap:round;stroke-linejoin:round;}.cls-15{stroke-width:1.7px;}.cls-16{stroke-width:1.43px;}</style></defs><title>imag_ocensa_1_gobierno_corporativo_instrumento_toma_decisiones</title><g id="Figuras_fondo" data-name="Figuras fondo"><rect class="cls-1" width="536" height="536"/><path class="cls-2" d="M51.23,218.19c26.66-28.92,87.88,82,211.72-75.42S594.89,314,350.87,431.91-27,303,51.23,218.19Z"/><circle class="cls-2" cx="194.47" cy="143.92" r="26.98"/></g><g id="Parches_color" data-name="Parches color"><path class="cls-3" d="M475.07,277.71l-2.35-10.34-3.3,1.91s-4.05,4.33-9.35,17.83-4.63,18.12-4.63,18.12h9.37Z"/><path class="cls-4" d="M460.26,194.33l.06-.64c1.3-1.65,2.29-1.16,4-1.38s1.68-1.77,3.37-2.19,2.1.85,3.55.42,1.38-1.76,2.87-2.1,2.38,1.34,3.1.81.31-1.31,1.42-2,1.76-.34,3.55.2,1.77,0,4.17-.35,3.19,2.41,3.68,2,1.68-.92,2.3-.37,1.3.25,2.75.06,1.8,0,2.95.93,1.46.18,2.48,0a2.56,2.56,0,0,1,2.61,1.34,1.83,1.83,0,0,0,2.37,1,1.54,1.54,0,0,1,1.91,1.57c0,.92,1.15,1,2.34,1.49s.65,1.38,1.49,1.38a2.73,2.73,0,0,1,2.45,1.23c.42.87,0,2.18,1.37,2.48a4.64,4.64,0,0,1,3.22,2.56c.8,1.46-.12,3.14.42,4.29s2.49,1.61,3.45,3.1-.69,3.1.15,3.44a4.27,4.27,0,0,1,2.29,3.53c.12,1.87-.65,1.94-.57,3.78s1.26,1.84,1.23,3-.92,1.76,0,3.25a6.35,6.35,0,0,1,.76,4.55c-.38.92-.42,2.26-.23,4.56a8.31,8.31,0,0,1-1.18,4.47c.49-2-.58-3.1-.89-4.82s.69-2.48.5-4.44a6.15,6.15,0,0,0-1.95-3.48,4.22,4.22,0,0,0-.07,3.48c.6,1.57-.27,2-.77,3.87s.5,2.68,1.11,4.28.23,1.65-.12,2.61.46,2.14.43,3.86a3.21,3.21,0,0,1-1.27,2.52c.58-1.22.38-1.83-.3-3.32s-.39-1.88-.5-3.52a4,4,0,0,0-1.65-2.68,3.81,3.81,0,0,1,.08,3.29,2.92,2.92,0,0,0,0,3.13,2.33,2.33,0,0,1-.4,2.8c-.79,1.18-.71,1.42-.21,3.56a4.52,4.52,0,0,1-.46,3.86c-.49,1,0,3.25,0,3.25a4.43,4.43,0,0,1-1.38-4.09,20.17,20.17,0,0,0-.63-5.19,4.31,4.31,0,0,1-.82,3c-.76,1.07-.85,2-.31,3.67s.35,1.87-.38,3-.54,2.19-.42,4.17a5.4,5.4,0,0,1-1.19,3.49c.31-1.65-.76-1.88-.65-3.41s.77-1.57.19-2.91-.07-2.63-.5-3.71-1.49-.65-1.22.66a2.88,2.88,0,0,1-.61,2.67c-.58.85-.31,1.61.11,2.95s-.61,3.33-.61,3.33a3.92,3.92,0,0,0-1.22-2.72,1.82,1.82,0,0,1-.73,2.3c-.58.45-.61.84-.8,2.41a2.21,2.21,0,0,1-1.5,1.91,3,3,0,0,0-.3-2.87,5,5,0,0,1-.56-2.27,9.34,9.34,0,0,1,0-1.18c0-1.1-.39-2.25-1.08-2.29s-.95.84-.42,2.95a3.59,3.59,0,0,1,.11.93,7.84,7.84,0,0,1-1.21,3.66c.37-1.19-.5-1.88-.5-3.07s-1.65-1.87-1.69-3-.4-2.43-1.05-2.81-.72,1.79-.51,3.24a11.87,11.87,0,0,1-.89,4.66l-.17.1c0-1.49-1.06-2.87-.75-4.77.25-1.43-.15-2.48-1.14-2.33s-1-1.22-1.88-1.53-.92.92-.46,1.65.69,1.07.69,3.4-1.87,2.33-1.87,2.33a2.58,2.58,0,0,0,0-3.44,7.69,7.69,0,0,1-1.54-4.7c.08-1.27-.42-3.87-1.22-3.26s-1,1.88-1,4.13a8.29,8.29,0,0,1-1.61,4.41,4.48,4.48,0,0,0-1-3.75,6.31,6.31,0,0,1-1.49-4.41,7.33,7.33,0,0,0-1.49-4.05c-1.53.84-1.84,3.1-1.49,4.82a10.2,10.2,0,0,1-.47,4.17c.09-1.15-1-2.53-1.82-3.33a2.49,2.49,0,0,1-.27-3c.49-.88.38-2.15-.77-3.49s-.46-2.9-.69-4.47-1.72-1.07-1.34.11a2.7,2.7,0,0,1-.54,2.84,1.9,1.9,0,0,0-1,2.37,3.44,3.44,0,0,1-.89,3.25c-.68.88,0,4.55,0,4.55-2.33-2.22-1.1-5.08-2.14-7.31s.23-2.6.2-3.7-1.73-1.42-.84-3.64a10.68,10.68,0,0,0,.4-4.9,2.25,2.25,0,0,1-1.36,2.14c-.69.23-1.34,1.84-1,3.33a5.91,5.91,0,0,1-.46,3.94c-.38.47-.23,3.3-.23,3.3a6.63,6.63,0,0,1-1.68-4.94c.3-1.53-.23-1.76-.73-3.71s2.26-2.76,1.76-5.17.77-2.64,1.42-3.94.5-2.22,0-4.17-2-.15-1.34,1.15-.81,3.1-1.46,3.17-1.72,1.73-1.61,3.14-.3,3.25-1,3.83-1.34,3.33-1.34,3.33c-1-2-.62-4.17,0-6.16s-.92-1.92-.57-3.07,1.34-2.33.76-3.6.08-1.56.52-3.05-.47-1.8-.79-3.18,1-1.88.77-3-3.55,0-3.86,1-.92,1.34-1.8,1.8a8.49,8.49,0,0,0-2,2.52c-.42-1.29.35-2.87.61-3.9s1-1.68.27-2.52-1.65,1-2,.11,1.23-2.64.77-3.44-1,1-2.07,1.22a2.62,2.62,0,0,0-2,2.07,2.31,2.31,0,0,1-2.06,1.65c-1.69.26-2.23,2.63-2.23,2.63-.8-2,.62-4.51,1.5-5.39s2.56-5.43,1.22-5.93c-.89-.33-2.1,1.1-2.22,2s-1.45,1.61-2.14,1.76a1.31,1.31,0,0,0-1.11,1.72,1.82,1.82,0,0,1-.68,2.37c-1,.77-.89,3.56-.89,3.56-.92-.84-1-2.22-.65-3.94s-.54-1.65-.38-3.21,1.53-1.46,2.22-2.45c.5-.74,0-.87-.09-1.57a2.53,2.53,0,0,1,.09-1,2.11,2.11,0,0,1,.33-.69c.73-.94,2.12-.82,2-1.72a2.64,2.64,0,0,1,.51-2.11,7.53,7.53,0,0,1,.68-.82c1-1.06,2.41-.59,3.1-1.43s.15-1.64-.61-1.18-1.23-.46-2.45-.5-2.22,2-2.22,2a4.32,4.32,0,0,1,.81-3.55c.53-.8,1.56-.3,1.45-1.07a1.33,1.33,0,0,1,1-1.6c.93-.16,1.68-.43,1.65-1s.8-1.23.8-1.23c-2.49-.88-6.23,2.45-6.23,2.45.45-2.33,2.14-2.18,2.5-3.75a1.91,1.91,0,0,1,2-1.6c1.19.07,1.46,0,2.41-1.12s2-1.07,3.33-.86a3.67,3.67,0,0,0,3.21-.49A5.62,5.62,0,0,1,460.26,194.33Z"/><path class="cls-3" d="M429.05,350.5l-.47-.64a11.66,11.66,0,0,1,1.79-3.82,31.13,31.13,0,0,1,12.26-10,11.46,11.46,0,0,1,1.22-.44c.57.92,5,7.93,5.85,7.94.29,0,1.72-1.46,3.77-3.71a37.88,37.88,0,0,1-2.6-12.15,62.69,62.69,0,0,1,.11-7,48.77,48.77,0,0,1,1.45-9,96.15,96.15,0,0,1,4-11.59c2.3-5.85,10.17-20.14,12.29-23.33l1.95-.59c.13.79.25,1.65.35,2.56a49.44,49.44,0,0,0-6.26,13.45c-1.84,6.71-1,12.45,5,2.75,5.69-9.15,15-16.76,17.68-19a83.7,83.7,0,0,1,9.66-7.21c0,.13,0,.26,0,.4s.08-.18.19-.5a21.79,21.79,0,0,1,4.14-2.07c0,1.19.87,1.88.5,3.07a7.84,7.84,0,0,0,1.21-3.66c.48-.17,1.39-.41,1.39-.41h0a5,5,0,0,0,.56,2.27,3,3,0,0,1,.3,2.87,2.21,2.21,0,0,0,1.5-1.91c.19-1.57.22-2,.8-2.41,1.38,4.15,5.53,14.23,6.91,19.16s4.59,15.85,5.51,23.88.29,31-.46,38.86-1.09,35.7-.69,41.95c0,0-6.24,5.83-31,8.24-22.42,2.18-38.26-1-38.26-1,.7-9,2.37-24.2,3-27a6.47,6.47,0,0,1-1.06.11,8,8,0,0,1-1.55-.06,11.47,11.47,0,0,1-3.08-.9,16.07,16.07,0,0,1-5-3.72c-1.56-1.6-6.08-6.93-9.54-11.16h0c-.22-.25-.42-.51-.62-.76C430.67,352.58,429.71,351.38,429.05,350.5Z"/><path class="cls-5" d="M504.49,265.53h0s-.91.24-1.39.41A3.59,3.59,0,0,0,503,265c-.53-2.11-.26-3,.42-2.95s1.11,1.19,1.08,2.29A9.34,9.34,0,0,0,504.49,265.53Z"/><path class="cls-5" d="M499.69,263.51c0,1.15,1.69,1.84,1.69,3a21.79,21.79,0,0,0-4.14,2.07,11.87,11.87,0,0,0,.89-4.66c-.21-1.45-.14-3.63.51-3.24S499.65,262.36,499.69,263.51Z"/><path class="cls-5" d="M448.2,233.87a5.38,5.38,0,0,0,.07-1.2,43.39,43.39,0,0,1,0-8.14,2.31,2.31,0,0,0,2.06-1.65,2.62,2.62,0,0,1,2-2.07c1.08-.23,1.61-2,2.07-1.22s-1.15,2.56-.77,3.44,1.3-1,2-.11,0,1.49-.27,2.52-1,2.61-.61,3.9a8.49,8.49,0,0,1,2-2.52c.88-.46,1.49-.8,1.8-1.8s3.67-2.1,3.86-1-1.07,1.61-.77,3,1.23,1.69.79,3.18-1.09,1.8-.52,3.05-.42,2.46-.76,3.6,1.23,1.08.57,3.07-1,4.13,0,6.16c0,0,.6-2.76,1.34-3.33s1.14-2.43,1-3.83,1-3.06,1.61-3.14,2.11-1.87,1.46-3.17.84-3.1,1.34-1.15.65,2.87,0,4.17-1.91,1.53-1.42,3.94-2.25,3.22-1.76,5.17,1,2.18.73,3.71a6.63,6.63,0,0,0,1.68,4.94s-.15-2.83.23-3.3a5.91,5.91,0,0,0,.46-3.94c-.38-1.49.27-3.1,1-3.33a2.25,2.25,0,0,0,1.36-2.14,10.68,10.68,0,0,1-.4,4.9c-.89,2.22.8,2.52.84,3.64s-1.23,1.49-.2,3.7-.19,5.09,2.14,7.31c0,0-.68-3.67,0-4.55a3.44,3.44,0,0,0,.89-3.25,1.9,1.9,0,0,1,1-2.37,2.7,2.7,0,0,0,.54-2.84c-.38-1.18,1.11-1.68,1.34-.11s-.46,3.13.69,4.47,1.26,2.61.77,3.49a2.49,2.49,0,0,0,.27,3c.83.8,1.91,2.18,1.82,3.33a10.2,10.2,0,0,0,.47-4.17c-.35-1.72,0-4,1.49-4.82a7.33,7.33,0,0,1,1.49,4.05,6.31,6.31,0,0,0,1.49,4.41,4.48,4.48,0,0,1,1,3.75,8.29,8.29,0,0,0,1.61-4.41c0-2.25.19-3.52,1-4.13s1.3,2,1.22,3.26a7.69,7.69,0,0,0,1.54,4.7,2.58,2.58,0,0,1,0,3.44s1.87,0,1.87-2.33-.23-2.68-.69-3.4-.46-2,.46-1.65.88,1.69,1.88,1.53,1.39.9,1.14,2.33c-.31,1.9.73,3.28.75,4.77a83.7,83.7,0,0,0-9.66,7.21c-2.64,2.26-12,9.87-17.68,19-6,9.7-6.83,4-5-2.75A49.44,49.44,0,0,1,471,278.73c-.1-.91-.22-1.77-.35-2.56-.79-4.9-2-7.73-3.12-9.37a5.43,5.43,0,0,0-2.43-2.21c-1.26-.51-3.12-.31-5.07.17s-8.17,1.7-10.51,1.2a2.24,2.24,0,0,1-1.69-1.32h0a4.37,4.37,0,0,1-.14-2.54c.19-.81.27-2.41-.76-2.72s-1.22-1.18-.84-1.72,3.71-2.56,3.74-2.87-1.37-.65-2.33-1.07-2.95-1-3.1-1.84,1.46-3.59,1.73-4.19c-1.88-.32-4.34-1.19-4.37-2.08,0-1.11,2.61-4.71,3.52-5.82A13.47,13.47,0,0,0,448.2,233.87Zm3.71,3.28c0-.41-.13-.75-.29-.75s-.27.34-.27.75.12.74.27.74S451.91,237.56,451.91,237.15Z"/><path class="cls-6" d="M450.29,296.89a37.49,37.49,0,0,0,7.34-3.55c.93-3.32,1.89-6.5,2.9-8.17,3.1-5.11,5-11.43,8.17-16.2a28.61,28.61,0,0,0-3.6-4.38c-1.26-.51-3.12-.31-5.07.17s-8.17,1.7-10.51,1.2a2.24,2.24,0,0,1-1.69-1.32c-.48,3.1-2.08,9-4.22,11.7h0a8.08,8.08,0,0,1-.6.67l0,.07c-1.91.53-8.5,3.88-10.31,4.79a14,14,0,0,1,.62,2.53c.44,3,.49,5.48,2,7.54a83.84,83.84,0,0,0,7.25,7A30.25,30.25,0,0,0,450.29,296.89Z"/><path class="cls-6" d="M455.44,300.84c.73-2.12,1.45-4.85,2.19-7.5a37.49,37.49,0,0,1-7.34,3.55A30.25,30.25,0,0,1,442.6,299c2.47,2.24,4.85,4.33,5.83,5.21a3.75,3.75,0,0,0-.85-1.88c1.16.79,6.55,4.73,6.55,4.73C454.07,304.52,454.65,303.15,455.44,300.84Z"/><path class="cls-7" d="M450,370.49a8,8,0,0,0,1.55.06c-4.19,8.28-10.86,16.1-19.62,23.3l-2-7a85.29,85.29,0,0,0,17-17.29A11.47,11.47,0,0,0,450,370.49Z"/><path class="cls-3" d="M452.43,311.68a48.77,48.77,0,0,0-1.45,9,62.69,62.69,0,0,0-.11,7c-.83-.49-1.57.44-4.73-1.56-2.89-1.84-8.77-6.37-9.93-7a3.23,3.23,0,0,0,1.61.27,7.63,7.63,0,0,0,1.89-.42,12.92,12.92,0,0,0,7-5.81,13.71,13.71,0,0,0,1.72-8.94,3.75,3.75,0,0,0-.85-1.88c1.16.79,6.55,4.73,6.55,4.73C454.18,308.8,452.89,308.3,452.43,311.68Z"/><path class="cls-8" d="M450.87,327.68a37.88,37.88,0,0,0,2.6,12.15c-2.05,2.25-3.48,3.71-3.77,3.71-.86,0-5.28-7-5.85-7.94a11.46,11.46,0,0,0-1.22.44c-1.72-4-9.63-21.45-11-25.58-.25-.75-.47-1.53-.68-2.32.89,1.21,2.82,3.72,4.71,6.05-1.08,2.91-.54,4.3.49,4.85l.07,0c1.37.79,7.56,5.7,11.58,8.07C448.89,327.8,450.34,327.37,450.87,327.68Z"/><path class="cls-6" d="M392.45,244c-2,1.23-12.68,10.58-17.14,14.08a11.46,11.46,0,0,1,.18,3.57c-1.43-1.9-3.12-3.59-5.85-3.88-2.93-.32-12.11.6-11.4,6.84-.16-.33-.3-.66-.43-1a16.82,16.82,0,0,1-1.09-8.13c.58-4.35,4.7-8.72,7.06-11s12.86-14.12,18.71-20.55,11.37-13,14.87-14.52,8.95-1.9,12.89-2.59c.43,1.16.92,2.36,1.44,3.52-1.84,2.75-3.37,9.82-1,19.5,0,0,2.1-12.09,4.63-4.69.07.19.14.4.2.63a63.17,63.17,0,0,0,2.41,6.3c2.57-2.58,4.84-4.92,6.87-7,0,0,0,0,0,0l.64-.67c1.71-1.54,4.29-1.79,2.71,7.1,0,0,11.37-11.42,14.68-15.38.11.7.59.83.09,1.57-.69,1-2.06.88-2.22,2.45s.74,1.49.38,3.21-.27,3.1.65,3.94c0,0-.07-2.79.89-3.56a1.82,1.82,0,0,0,.68-2.37,1.31,1.31,0,0,1,1.11-1.72c.69-.15,2-.88,2.14-1.76s1.33-2.32,2.22-2c1.34.5-.34,5-1.22,5.93s-2.3,3.4-1.5,5.39c0,0,.54-2.37,2.23-2.63a43.39,43.39,0,0,0,0,8.14,5.38,5.38,0,0,1-.07,1.2,13.47,13.47,0,0,1-2.92,5.92c-.91,1.11-3.56,4.71-3.52,5.82,0,.89,2.49,1.76,4.37,2.08-.27.6-1.88,3.39-1.73,4.19s2.14,1.42,3.1,1.84,2.38.76,2.33,1.07-3.36,2.33-3.74,2.87-.2,1.42.84,1.72.95,1.91.76,2.72a4.37,4.37,0,0,0,.14,2.54h0c-.48,3.1-2.08,9-4.22,11.7h0a8.08,8.08,0,0,1-.6.67l0,.07c-1.91.53-8.5,3.88-10.31,4.79a15.73,15.73,0,0,0-2.42-4.7h0c-.09-.33-.17-.62-.25-.83a25.36,25.36,0,0,1-1.2-5.81c-.12-1.59-.52-2.71-1.57-2.48s-1.8,1.81-1.93,5c-.12,2.89,1.32,7.79,1.58,8.66-.61-1.72-1.72-6.2-2-7.22a4.49,4.49,0,0,0-1.57-2.63c-.83-.55-2.2-.84-2.62-.38h0c-.11-.18-.23-.35-.35-.53-1.85-2.67-5.08-2-3.9,1.68a2.08,2.08,0,0,0-2,.67c-2.74-3.33-5.9-.28-3.45,2.59a1,1,0,0,0-1.18.83c-1.82-1.55-3.82.64-2.52,3l.33.42c-.35-.05-.89.4-.93,1a1.37,1.37,0,0,0-1-.17h0q-5.43-2.73-11.35-5.24C394,262.59,393.26,251.93,392.45,244Z"/><path class="cls-5" d="M448.43,304.18a13.71,13.71,0,0,1-1.72,8.94,12.92,12.92,0,0,1-7,5.81c-.86-.85-2.44-2.73-4.06-4.74-1.89-2.33-3.82-4.84-4.71-6.05a45.09,45.09,0,0,1-1.46-11.6c.11-3.41,1.35-7.31,1.67-10.18a34.67,34.67,0,0,0-.85-9.19,15.73,15.73,0,0,1,2.42,4.7,14,14,0,0,1,.62,2.52c.44,3,.49,5.49,2,7.55S446.22,302.2,448.43,304.18Z"/><path class="cls-8" d="M441.94,365.87a16.07,16.07,0,0,0,5,3.72,85.29,85.29,0,0,1-17,17.29l-4.27-14.94,0-.13,1,.18,5.71-17.28C435.86,358.94,440.38,364.27,441.94,365.87Z"/><path class="cls-9" d="M445.2,212.62c.16.9-1.23.78-2,1.72a42.78,42.78,0,0,0-.73-5.26c1.08.51,3.2,1.43,3.2,1.43A2.64,2.64,0,0,0,445.2,212.62Z"/><path class="cls-5" d="M438.82,199c0,1.26,0,2.77.1,4.4l-1.86.07a15.13,15.13,0,0,1-3.37,8.19,19.89,19.89,0,0,1-9,6.16c-3.41,1-7.08,1.33-9.34-1.19a11.89,11.89,0,0,1-.94-1.21,21.32,21.32,0,0,1-1.22-2c-.52-1-1-2-1.51-3.08s-1-2.36-1.44-3.52a42.81,42.81,0,0,1-1.82-5.89c1.85.9,5.16,1.11,6.76-.17s1.73-4.41,1.77-5.7a7.34,7.34,0,0,1,4.61.21h0c.12,1.27.55,3.63,2,4.87s5.8,1.84,7.69.32c1.54-1.24,1.77-4.64,1.81-5.9h1.46a33.19,33.19,0,0,1,2.83-3.15c.19,1.48.27,2.32.27,2.32l1.67-.62a13.51,13.51,0,0,1,1.19-4,2.74,2.74,0,0,1,1.46-1.38,2.43,2.43,0,0,1,.49-.11c1.64-.16,1.7,2.14,1.23,4.26a26.57,26.57,0,0,1-2.13,6.59C440.62,200.05,438.88,200.4,438.82,199Zm-12.65,9a31.4,31.4,0,0,1-9.76.48c.31.67,1.63,2.55,2.83,2.76a9.41,9.41,0,0,0,3.63,0C424.06,211,425.52,209.16,426.17,208Z"/><path class="cls-6" d="M443.24,214.34a2.11,2.11,0,0,0-.33.69,2.53,2.53,0,0,0-.09,1c-3.31,4-14.68,15.38-14.68,15.38,1.58-8.89-1-8.64-2.71-7.1,8.14-8.54,12-13.38,13.83-16.09s1.63-3.28,1.61-3.35h0a10.35,10.35,0,0,1,1.64,4.17A42.78,42.78,0,0,1,443.24,214.34Z"/><path class="cls-4" d="M420.09,177.92c-1,.05-1.83.34-3.45.52a3.73,3.73,0,0,1-3-.59,4.46,4.46,0,0,0-1.43-.5c-1.64-.29-3.33,1-4.56,2h0a73.4,73.4,0,0,0-.37,14.87,12.35,12.35,0,0,0-1.18.42c-.45-3.12-.79-7.7-1.09-10.94-.35-3.75-.12-6.68.9-8.34.75-1.23,4.14-6.39,9.77-8.65s14.42-2.37,20.2,1.84,5.89,8.45,6.08,10.37.21,5.9.53,8.72a2.43,2.43,0,0,0-.49.11,2.74,2.74,0,0,0-1.46,1.38,14.76,14.76,0,0,0-3.13,2.32c0-.24-.06-.5-.1-.77-.25-1.95-1.52-1.46-2.06-3.63s.77-3.22.52-4.86-2.18-2.76-4.77-3.42c-1.73-.44-3.14-.14-4.9-.12a12.79,12.79,0,0,1-3-.32A10.64,10.64,0,0,0,420.09,177.92Z"/><path class="cls-9" d="M440.87,204.91c0,.07.2.68-1.61,3.35-.15-1.51-.26-3-.32-4.43a2.52,2.52,0,0,1,1.93,1.08Z"/><path class="cls-10" d="M440.53,189.09a13.51,13.51,0,0,0-1.19,4l-1.67.62s-.08-.84-.27-2.32A14.76,14.76,0,0,1,440.53,189.09Z"/><path class="cls-5" d="M438.94,203.83c.06,1.41.17,2.92.32,4.43-1.83,2.71-5.69,7.55-13.83,16.09a4.5,4.5,0,0,0-.64.67s0,0,0,0c-2,2.11-4.3,4.45-6.87,7a63.17,63.17,0,0,1-2.41-6.3c-.06-.23-.13-.44-.2-.63-.33-1.07-.62-2.13-.89-3.18a22,22,0,0,0,0-6.54,11.89,11.89,0,0,0,.94,1.21c2.26,2.52,5.93,2.18,9.34,1.19a19.89,19.89,0,0,0,9-6.16,15.13,15.13,0,0,0,3.37-8.19l1.86-.07Z"/><path class="cls-3" d="M439.71,318.93a7.63,7.63,0,0,1-1.89.42,3.23,3.23,0,0,1-1.61-.27l-.07,0c-1-.55-1.57-1.94-.49-4.85C437.27,316.2,438.85,318.08,439.71,318.93Z"/><path class="cls-5" d="M437.3,190.64c0,.27.07.53.1.77a33.19,33.19,0,0,0-2.83,3.15h-1.46v-.47a15.37,15.37,0,0,0-11.59.31,8.57,8.57,0,0,0,.06.87h0a7.34,7.34,0,0,0-4.61-.21c0-.34,0-.55,0-.55a15.36,15.36,0,0,0-9.7-.33,73.4,73.4,0,0,1,.37-14.87h0c1.23-1,2.92-2.24,4.56-2a4.46,4.46,0,0,1,1.43.5,3.73,3.73,0,0,0,3,.59c1.62-.18,2.4-.47,3.45-.52a10.64,10.64,0,0,1,3,.37,12.79,12.79,0,0,0,3,.32c1.76,0,3.17-.32,4.9.12,2.59.66,4.5,1.78,4.77,3.42s-1.07,2.69-.52,4.86S437.05,188.69,437.3,190.64Z"/><path class="cls-5" d="M426.93,281.74c-.26-.87-1.7-5.77-1.58-8.66.13-3.22.87-4.81,1.93-5s1.45.89,1.57,2.48a25.36,25.36,0,0,0,1.2,5.81c.08.21.16.5.25.83h0a34.67,34.67,0,0,1,.85,9.19c-.32,2.87-1.56,6.77-1.67,10.18a45.09,45.09,0,0,0,1.46,11.6c.21.79.43,1.57.68,2.32,1.38,4.13,9.29,21.63,11,25.58a31.13,31.13,0,0,0-12.26,10c-.33-.75-.7-1.67-1.12-2.72-1.28-3.29-2.9-7.79-4.26-11.7-1.07-3.1-2-5.82-2.47-7.31-1.78-5.56-4.94-16.47-7-21.63-.09-.23-.19-.46-.29-.68-1.08-2.33-2.85-4.31-4.25-6.35a50.45,50.45,0,0,1-4.18-8.95c-.05-.14-.09-.28-.12-.39.87.74,1.78,1.16,2.34.76,1-.7.2-2.76-1.6-5.19a2.38,2.38,0,0,0-.74-.7c0-.64.58-1.09.93-1,1.05,1.27,4.29,5,5.65,3.85,1.18-1-1.28-4.86-3.17-6.94a2.64,2.64,0,0,0-.29-.29,1,1,0,0,1,1.18-.83s4.86,7.33,7,5.7c1.7-1.31-.79-5-3.53-8.29a2.08,2.08,0,0,1,2-.67,8.82,8.82,0,0,0,.39,1c2.11,4.43,4.61,6,5.72,5.12s-.09-4.47-1.86-7.23h0c.42-.46,1.79-.17,2.62.38a4.49,4.49,0,0,1,1.57,2.63C425.21,275.54,426.32,280,426.93,281.74Z"/><polygon class="cls-5" points="431.94 393.85 434.74 403.65 419.29 402.9 405.17 402.21 342.31 399.16 343.77 363.35 383.43 364.58 425.65 371.81 425.69 371.94 429.95 386.88 431.94 393.85"/><path class="cls-5" d="M433.11,194.09v.47c0,1.26-.27,4.66-1.81,5.9-1.89,1.52-6.13,1-7.69-.32s-1.91-3.6-2-4.87a8.57,8.57,0,0,1-.06-.87A15.37,15.37,0,0,1,433.11,194.09Zm-5.31,1.63c0-.33-.11-.6-.23-.6s-.23.27-.23.6.11.61.23.61S427.8,196.06,427.8,195.72Z"/><path class="cls-10" d="M431.78,353.94l-5.09,15.43-58-9.93L371.5,354h0l1.42,1.75L385.53,331l-1.42-1.75,1.42-2.8L425,331.62c1.36,3.91,3,8.41,4.26,11.7l-12.66-1.64-6,11.68L426.22,356l2.83-5.54C429.71,351.38,430.67,352.58,431.78,353.94ZM412.05,338.8l2.57-5-3-.39-2.57,5.05ZM405,352.7l6-11.83-3-.38-6,11.71Zm-9.66,7.3,13.76-27-2.95-.38L392.39,359.5Zm5.46.93,3.2-6.27-2.9-.5-3.2,6.27Zm-10.92-1.87,13.66-26.75-3-.38-13.6,26.63Zm-5.45-.93,13.54-26.54-3-.38-13.48,26.42Zm-5.46-.94,13.43-26.32-3-.39L376,356.69Z"/><path class="cls-10" d="M429.25,343.32c.42,1.05.79,2,1.12,2.72a11.66,11.66,0,0,0-1.79,3.82l.47.64L426.22,356l-15.61-2.68,6-11.68Z"/><polygon class="cls-10" points="426.69 369.37 426.69 371.99 425.65 371.81 383.43 364.58 368.71 362.06 368.71 359.44 426.69 369.37"/><path class="cls-8" d="M425,331.62l-39.46-5.13L376,300.63c2.24.27,8.95,3.65,10.58,5.4l14.49-6.25h0c1.33.26,2.78.48,4.36.65-.09.36-.19.73-.32,1.1a89.28,89.28,0,0,0,10.11.47c.1.22.2.45.29.68,2,5.16,5.19,16.07,7,21.63C423,325.8,423.92,328.52,425,331.62Z"/><path class="cls-5" d="M426.17,208c-.65,1.19-2.11,3.05-3.3,3.27a9.41,9.41,0,0,1-3.63,0c-1.2-.21-2.52-2.09-2.83-2.76A31.4,31.4,0,0,0,426.17,208Z"/><path class="cls-5" d="M420.7,271.52c1.77,2.76,2.95,6.35,1.86,7.23s-3.61-.69-5.72-5.12a8.82,8.82,0,0,1-.39-1c-1.18-3.65,2.05-4.35,3.9-1.68C420.47,271.17,420.59,271.34,420.7,271.52Z"/><path class="cls-7" d="M419.28,402.9h0c-34.51,21.68-89.72,35.72-151.95,35.72a392.68,392.68,0,0,1-55.12-3.81l8.68-7.43a397.86,397.86,0,0,0,46.44,2.68c54.33,0,103.3-10.71,137.84-27.85Z"/><path class="cls-5" d="M414.46,273.34c2.74,3.31,5.23,7,3.53,8.29-2.12,1.63-7-5.7-7-5.7C408.56,273.06,411.72,270,414.46,273.34Z"/><path class="cls-5" d="M405.61,195.12c0-.19,0-.3,0-.3l.49-.22a12.35,12.35,0,0,1,1.18-.42,15.36,15.36,0,0,1,9.7.33s0,.21,0,.55c0,1.29-.3,4.51-1.77,5.7s-4.91,1.07-6.76.17a3.78,3.78,0,0,1-.77-.49C406,199,405.66,196.07,405.61,195.12Zm7.59,1.19c0-.33-.09-.6-.22-.6s-.23.27-.23.6.11.61.23.61S413.2,196.65,413.2,196.31Z"/><polygon class="cls-10" points="414.63 333.76 412.05 338.8 409.09 338.42 411.66 333.37 414.63 333.76"/><path class="cls-6" d="M414.4,222c.27,1.05.56,2.11.89,3.18-2.53-7.4-4.63,4.69-4.63,4.69-2.34-9.68-.81-16.75,1-19.5.48,1.08,1,2.12,1.51,3.08A32.32,32.32,0,0,0,414.4,222Z"/><path class="cls-6" d="M411,295.65c1.4,2,3.17,4,4.25,6.35a89.28,89.28,0,0,1-10.11-.47c.13-.37.23-.74.32-1.1a16,16,0,0,0-2.58-12.29,4.08,4.08,0,0,0-1.51-1.44h5.45A50.45,50.45,0,0,0,411,295.65Z"/><path class="cls-5" d="M410.12,277.05c1.89,2.08,4.35,6,3.17,6.94-1.36,1.12-4.6-2.58-5.65-3.85l-.33-.42c-1.3-2.32.7-4.51,2.52-3A2.64,2.64,0,0,1,410.12,277.05Z"/><polygon class="cls-10" points="410.99 340.87 404.95 352.7 402.05 352.2 408.03 340.49 410.99 340.87"/><path class="cls-5" d="M407.45,281.88c1.8,2.43,2.6,4.49,1.6,5.19-.56.4-1.47,0-2.34-.76h0a9.05,9.05,0,0,1-2.08-2.54,1.93,1.93,0,0,1,1.08-2.76,1.37,1.37,0,0,1,1,.17A2.38,2.38,0,0,1,407.45,281.88Z"/><polygon class="cls-10" points="409.05 333.03 395.29 360 392.39 359.5 406.1 332.65 409.05 333.03"/><path class="cls-10" d="M394.36,275.77q5.91,2.5,11.35,5.24h0a1.93,1.93,0,0,0-1.08,2.76,9.05,9.05,0,0,0,2.08,2.54h0c0,.11.07.25.12.39h-5.45a4.08,4.08,0,0,1,1.51,1.44c-4.24-1.62-6.28-5.73-8.69-8.71s-4-4.53-5.22-4.94c-.25-.08-.66-.19-1.17-.31-.19-.44-.38-.87-.57-1.27C389.67,273.83,392,274.79,394.36,275.77Z"/><path class="cls-5" d="M381,287.56l-1.47.2c-.81.11-2.47.57-3.51-1.56a2.37,2.37,0,0,1-.25-1.16,2.17,2.17,0,0,1,.1-.62h-.46a1.8,1.8,0,0,1-1.87-1.85h0a4.5,4.5,0,0,1-.52-.32,1.44,1.44,0,0,1-.25-.24c-.61-.81-.35-1.54,0-2.52a2.75,2.75,0,0,1,.31-.62,11.9,11.9,0,0,1,2-2.44,11.39,11.39,0,0,1,.93-.82c1.44-1.14,2.53-2.09,4.66-2.32a13.3,13.3,0,0,1,2.66.1,45.23,45.23,0,0,1,4.49.79c.51.12.92.23,1.17.31,1.21.41,2.81,2,5.22,4.94s4.45,7.09,8.69,8.71a16,16,0,0,1,2.58,12.29c-1.58-.17-3-.39-4.36-.65-.95-.2-1.83-.41-2.66-.64-8.6-2.41-10.68-6.71-10.68-6.71a7.52,7.52,0,0,0-4.34-1.23l.45,1a3.24,3.24,0,0,1-2.86-.41c-1.35-.75-1.28-2.12-.65-3.33A3.29,3.29,0,0,1,381,287.56Z"/><path class="cls-8" d="M228.44,353.34v-5.55l-52.91-12.86L161.82,345,147.9,355.23c1.92.47,3.89,3.74.11,4.73l20.67,5.11v.4l7,1.75v-.4h0l29.46,7.29Zm113.87,45.82,62.86,3.06c-34.54,17.14-83.51,27.85-137.84,27.85a397.86,397.86,0,0,1-46.44-2.68c5.94-5.11,11.45-9.87,11.45-9.87a2.17,2.17,0,0,0,1.54-.38c.84-.54,7.27-8.26,9.64-11.71a16.25,16.25,0,0,0-.81-3.31c2,1.29,9.23,3.16,12.71,4.35,0,0,11.84-11,23.43-23.53a21.76,21.76,0,0,0,5.32-2.44c.75-.6.78-1.69,0-2a3,3,0,0,0-1.26,0,157.07,157.07,0,0,0,13.34-16.74c-7.2.28-15.46-1.38-23.38-3.43-7.36-1.91-19.8-5.84-24.91-8.48-3.62,3.87-16.91,15.89-22.5,20.63s-21.73,18.37-21.73,18.37l16.39,5.58c-1.26.78-2.42,1.48-3.29,2-3.33,2-24.92,14.38-30.22,16.24a4,4,0,0,1-.68.2c-1-1.76-18.63-11.77-33.4-28.22-5.35-6-17.07-19.44-22.43-25a39.46,39.46,0,0,0-4.31-3.8h0c-5.11-3.94-11.42-7.51-16-11.64a45.75,45.75,0,0,0-3.74-3c.89-3.21,1.5-6.77,1.79-8.49a4,4,0,0,0-1.09-3.74c-2.78-2.46-8-5.18-13.09-7.4,1.74-4.33,5.13-10.92,8.75-11.79,2.49-.6,7.53-.26,11-1,2.52-.56,6.11-1.81,7-3.75s.11-5.52.22-6.62c.15-1.57,2.78-1.5,2.83-3.3s-5.13-3.1-4.88-4,5.06-1.77,5.3-2.94c.13-.67-.75-2.23-1.55-3.55,2.5-1.39,5.09-2.75,7.77-4.06,2.15-1.07,4.35-2.1,6.6-3.11h0c7.86,1.6,20.4,3.85,23.36,4.37h0c.68.18,2-.92,4.13-4.27a9.3,9.3,0,0,0,3.9.75,41.7,41.7,0,0,1,4.88,3.87c2.81,2.56,3.73.75,2.84-.4s-6.2-6.49-6.2-6.49a92.26,92.26,0,0,1,8.76,6.17c1.5,1.32,2.53,1.19,2.8.47l25.47,13.65L234,285.82v-2.14l-27.89-13.35-20.32,6h0a2.29,2.29,0,0,0-.5-1.43,52.29,52.29,0,0,0-5.26-5.75h0l1.31-.42c.39.67,1.6,1.26,2.32,1.78,1.64-.5,10.36-2.34,13.85-2.87s17.17-3.41,21-4.67c3.33-1.09,3.62-3.92,2.88-7.44q7.61-.88,15.45-1.48h0c1.61,1.29,4.22,2.31,8.34,3.15l1.45,21.93,69.95,2.18,4.5-17.57h-4.22l.1-6.6c3.23,0,6.19.13,8.64.07a327.8,327.8,0,0,1,32.14,6.46c.13.32.27.65.43,1h0a15.32,15.32,0,0,0,5.6,6.37,11.73,11.73,0,0,1-.42-2.45,6.58,6.58,0,0,0,2.19,3.13L334.05,282s.43-.05,1.18-.1l-3.4,1.21,28.78,11.18-12,16.6,20.08,48.56v2.62l14.72,2.52-39.66-1.23Zm11.06-128.63v-2l-10-2.76-13.15,7.49v1.66l10.19,3.21Zm-38.66,41.56,35.41-8.27L333.19,293.4l-33.35,5.49ZM330,348.28c1-.38,4.72-1.83,4.44-4.54s-3.57-2.74-6.33-.3l1.62-5.69a1.85,1.85,0,0,0,.27-.95c0-2.39-5-4.33-11.08-4.33s-11.07,1.94-11.07,4.33a1.66,1.66,0,0,0,.19.78h0l4.86,16.93a.82.82,0,0,0,.09.34h0c.52,1.1,3,1.93,5.93,1.93s5.42-.83,5.94-1.93h0a1,1,0,0,0,.09-.34l1-3.67C326.83,349.24,329,348.65,330,348.28ZM287.5,303.14l5.81-16.38-47.82-3.08-10,15.55ZM173.4,319l22.14-13c-3.5-2.4-12-3.57-17.72-4.78a58.82,58.82,0,0,1-16-6.16l-23.18,11.79c3.84,2.06,15.78,5.33,22,7.57S173.4,319,173.4,319Z"/><polygon class="cls-10" points="403.95 354.66 400.75 360.93 397.85 360.43 401.05 354.17 403.95 354.66"/><polygon class="cls-10" points="403.49 332.31 389.83 359.06 386.93 358.56 400.53 331.93 403.49 332.31"/><path class="cls-10" d="M401.11,299.78h0L386.62,306c-1.63-1.75-8.34-5.13-10.58-5.4l-.76-2.07c2.28.24,8.76,3,11.69,5.32l11.48-4.74C399.28,299.37,400.16,299.58,401.11,299.78Z"/><path class="cls-10" d="M398.45,299.14,387,303.88c-2.93-2.35-9.41-5.08-11.69-5.32l-4.06-11.06,4.59-2.46a2.37,2.37,0,0,0,.25,1.16c1,2.13,2.7,1.67,3.51,1.56l1.47-.2a3.29,3.29,0,0,0-.67.88c-.63,1.21-.7,2.58.65,3.33a3.24,3.24,0,0,0,2.86.41l-.45-1a7.52,7.52,0,0,1,4.34,1.23S389.85,296.73,398.45,299.14Z"/><polygon class="cls-10" points="397.92 331.59 384.38 358.13 381.48 357.63 394.96 331.21 397.92 331.59"/><polygon class="cls-10" points="392.35 330.87 378.92 357.19 376.02 356.69 389.4 330.49 392.35 330.87"/><path class="cls-5" d="M383.32,273.39a13.3,13.3,0,0,0-2.66-.1c-2.13.23-3.22,1.18-4.66,2.32a11.39,11.39,0,0,0-.93.82s-3-3.65-3.83-3.37,1.13,4.2,1.87,5.81a2.75,2.75,0,0,0-.31.62c-.35,1-.61,1.71,0,2.52a1.44,1.44,0,0,0,.25.24,2.13,2.13,0,0,1-1.17-.46c-3-3.54-3.39-8.44-5.29-9.48a7.21,7.21,0,0,1-1-.64,6.58,6.58,0,0,1-2.19-3.13h0c-.24-4.17,2.35-8.09,14.06-4l.13,0a23.43,23.43,0,0,1,5.82,2.42c1.09.92,2.38,2.76,3.81,5.88.19.4.38.83.57,1.27A45.23,45.23,0,0,0,383.32,273.39Z"/><polygon class="cls-11" points="376.04 300.63 385.53 326.49 384.11 329.29 383.43 328.45 370.83 353.14 371.51 353.98 371.5 353.98 368.71 359.44 348.63 310.88 360.61 294.28 361.11 293.59 361.68 292.79 369.29 282.25 371.22 287.5 375.28 298.56 376.04 300.63"/><polygon class="cls-10" points="384.11 329.29 385.53 331.04 372.93 355.73 371.51 353.98 370.83 353.14 383.43 328.45 384.11 329.29"/><path class="cls-6" d="M377.61,264.61l-.13,0c-11.71-4.13-14.3-.21-14.06,4h0a11.73,11.73,0,0,0,.42,2.45,15.32,15.32,0,0,1-5.6-6.37h0c-.71-6.24,8.47-7.16,11.4-6.84,2.73.29,4.42,2,5.85,3.88C376.24,262.63,376.91,263.67,377.61,264.61Z"/><path class="cls-10" d="M375.45,284.42h.46a2.17,2.17,0,0,0-.1.62l-4.59,2.46-1.93-5.25-7.61,10.54c-5.87-9-16.51-10.78-22.73-11h0c-1.56,0-2.85,0-3.71.07s-1.18.1-1.18.1l31.56-10.32a7.21,7.21,0,0,0,1,.64c1.9,1,2.27,5.94,5.29,9.48a2.13,2.13,0,0,0,1.17.46,4.5,4.5,0,0,0,.52.32h0A1.8,1.8,0,0,0,375.45,284.42Z"/><path class="cls-10" d="M375.07,276.43a11.9,11.9,0,0,0-2,2.44c-.74-1.61-2.73-5.52-1.87-5.81S375.07,276.43,375.07,276.43Z"/><path class="cls-10" d="M361.68,292.79l-.57.8c-2.26-2.79-10.72-10.52-26.76-10.22l4.59-1.55h0C345.17,282,355.81,283.75,361.68,292.79Z"/><path class="cls-10" d="M361.11,293.59l-.5.69L331.83,283.1l3.4-1.21c.86-.06,2.15-.11,3.71-.07l-4.59,1.55C350.39,283.07,358.85,290.8,361.11,293.59Z"/><polygon class="cls-10" points="353.37 268.53 353.37 270.53 340.42 278.13 330.23 274.92 330.23 273.26 340.42 276.3 353.37 268.53"/><polygon class="cls-10" points="353.37 268.53 340.42 276.3 330.23 273.26 343.38 265.77 353.37 268.53"/><polygon class="cls-5" points="350.12 303.82 314.71 312.09 299.84 298.89 333.19 293.4 350.12 303.82"/><path class="cls-12" d="M314.76,240.57l-51.87-1.25c-.34-9.71-.63-14.8-1.23-18.72a124.79,124.79,0,0,0-6.78,18.53l-10.83-.27,1.2,18.3c-4.12-.84-6.73-1.86-8.34-3.15-2.26-1.78-2.54-4.07-2.27-7.06.69-7.43,8.31-27.71,9.87-31.88s6.7-15.34,10.68-18.78,16.63-8,21.72-9.56c-1.87,3.15-3.9,7.22-4.1,17.51,0,0,4.84-6.16,11.51-.58.67.75,1.42,1.51,2.27,2.29.69.66,1.45,1.32,2.26,2a27.21,27.21,0,0,0,4.86-3.54c.45-.41.91-.86,1.37-1.36,5.69-4.75,11.13,1.6,11.13,1.6a44.89,44.89,0,0,0-2.58-18.34h0c3.78.43,15.15,2.77,19.28,4.59a17.41,17.41,0,0,1,3.56,2c1.61,1.25,2.55,2.85,3.61,5.73a90.46,90.46,0,0,1,5.74,27.75c.52,12-1.32,24.85-3.91,28.81-1,1.51-3.22,1.93-6.25,2-2.45.06-5.41-.09-8.64-.07l.26-16.47Z"/><path class="cls-8" d="M334.46,343.74c.28,2.71-3.43,4.16-4.44,4.54s-3.19,1-4,2.57l2.11-7.41h0C330.89,341,334.2,341.14,334.46,343.74Z"/><path class="cls-10" d="M330,336.8l-.27.95c-1.11,1.93-5.52,3.38-10.81,3.38s-9.94-1.53-10.88-3.54h0a1.66,1.66,0,0,1-.19-.78c0-2.39,5-4.33,11.07-4.33S330,334.41,330,336.8Z"/><path class="cls-10" d="M312.92,354.52l-4.86-16.93c.94,2,5.46,3.54,10.88,3.54s9.7-1.45,10.81-3.38l-1.62,5.69h0L326,350.85l-1,3.67-.09.34h0c-.52,1.1-3,1.93-5.94,1.93s-5.41-.83-5.93-1.93h0Z"/><polygon class="cls-10" points="321.15 263.7 316.65 281.27 316.93 263.7 321.15 263.7"/><path class="cls-10" d="M317.29,240.63,317,257.1l-.1,6.6-.28,17.57-69.95-2.18-1.45-21.93-1.2-18.3,10.83.27,8,.19,51.87,1.25Zm-33.68,18.54a2.54,2.54,0,1,0-2.53,2.82A2.68,2.68,0,0,0,283.61,259.17Z"/><path class="cls-13" d="M303,185.36l.1-.62c.18.51.36,1,.53,1.57a44.89,44.89,0,0,1,2.58,18.34s-5.44-6.35-11.13-1.6a28.29,28.29,0,0,0,6.58-13,12.81,12.81,0,0,0,.71-1.83A28.28,28.28,0,0,0,303,185.36Z"/><path class="cls-5" d="M303.42,171.55c-.25,2.24.28,4.27.21,7.15a48.3,48.3,0,0,1-.53,6l-.1.62a2.91,2.91,0,0,1-2.9.9c-2.84-.54-7.09-.61-9.32.31s-5,2.12-7.21-.6-5.63-8.67-5.77-12.4,2-7,2.9-9.42a16.58,16.58,0,0,0,.54-6.16,50.32,50.32,0,0,0,11.05-.54A30.09,30.09,0,0,0,299,155C302.27,158.77,303.85,167.69,303.42,171.55Zm-2.81,2.83c0-.33-.11-.6-.23-.6s-.23.27-.23.6.11.6.23.6S300.61,174.71,300.61,174.38ZM288,175.56c0-.33-.11-.6-.23-.6s-.23.27-.23.6.1.6.23.6S288,175.89,288,175.56Z"/><path class="cls-4" d="M277.3,180.35c-.52-2.5-.59-7.6-2.88-10-.14-.27-3.3-7-1-14.23,2.82-8.87,12.17-10.64,17.18-9.07s8.83,7.73,8.83,7.73L299,155a30.09,30.09,0,0,1-6.74,2.45,50.32,50.32,0,0,1-11.05.54,16.58,16.58,0,0,1-.54,6.16c-.91,2.42-3,5.68-2.9,9.42s3.56,9.67,5.77,12.4,5,1.52,7.21.6,6.48-.85,9.32-.31a2.91,2.91,0,0,0,2.9-.9,28.28,28.28,0,0,1-.63,2.84,12.81,12.81,0,0,1-.71,1.83,32.56,32.56,0,0,1-4.6,7c-1,.86-3.3,1.29-6.34.49s-9.59-6.26-11.2-8.55a7.86,7.86,0,0,1-.48-.81h0c-.12-.23-.23-.47-.34-.71a15.32,15.32,0,0,1-.76-2.49A32.08,32.08,0,0,1,277.3,180.35Z"/><path class="cls-5" d="M297.06,197.07a32.56,32.56,0,0,0,4.6-7,28.29,28.29,0,0,1-6.58,13,11.67,11.67,0,0,0-1.37,1.36,27.21,27.21,0,0,1-4.86,3.54c-.81-.68-1.57-1.34-2.26-2a20.52,20.52,0,0,0-2.27-2.29,21.72,21.72,0,0,1-4.94-8.27,62.43,62.43,0,0,0-.34-7.19,7.86,7.86,0,0,0,.48.81c1.61,2.29,8.16,7.74,11.2,8.55S296.09,197.93,297.06,197.07Z"/><path class="cls-14" d="M272.87,358.31c7.92,2.05,16.18,3.71,23.38,3.43a157.07,157.07,0,0,1-13.34,16.74c-1.2.16-2.89.59-4,.85-1.43.32-5,1.22-7.43,1.71s-2.44-.45-1.75-1a28.09,28.09,0,0,1,4.27-2c1.26-.57,4.66-.95,6-1.38s3.27-1.11,3.81-2.1a1.27,1.27,0,0,0-.89-2,46,46,0,0,0-5.42.35,38.35,38.35,0,0,0-5.56.72c-1.74.43-4.52,1.71-6.53,1.92A22.51,22.51,0,0,1,270,373c1.7-.53,6.66-1.36,7.48-1.47,2.16-.27,3.34-1.27,3.08-2.35-.2-.82-2.83-.8-4.79-.8l-2,0c-2.28-1.78-12.22-.36-14.1,0-3.18.57-8,3.21-10.63,5.13a68.89,68.89,0,0,0-7.83,7.58c-1.38,1.47-7.93,7-10.54,8.08h0a8.91,8.91,0,0,0-1.52-.31c-.46.28-5.2,3.26-9,5.58l-16.39-5.58s16.15-13.62,21.73-18.37,18.88-16.76,22.5-20.63C253.07,352.47,265.51,356.4,272.87,358.31Z"/><polygon class="cls-5" points="293.31 286.76 287.5 303.14 235.5 299.23 245.49 283.68 293.31 286.76"/><path class="cls-5" d="M273.75,368.36l2,0c2,0,4.59,0,4.79.8.26,1.08-.92,2.08-3.08,2.35-.82.11-5.78.94-7.48,1.47a22.51,22.51,0,0,0-4.53,2.61c2-.21,4.79-1.49,6.53-1.92a38.35,38.35,0,0,1,5.56-.72,46,46,0,0,1,5.42-.35,1.27,1.27,0,0,1,.89,2c-.54,1-2.46,1.67-3.81,2.1s-4.75.81-6,1.38a28.09,28.09,0,0,0-4.27,2c-.69.53-.66,1.46,1.75,1s6-1.39,7.43-1.71c1.1-.26,2.79-.69,4-.85a3,3,0,0,1,1.26,0c.78.32.75,1.41,0,2a21.76,21.76,0,0,1-5.32,2.44l-.7.24c-1,.34-5.52,1.46-6.89,2.06s-3.32,4.23-8.7,7.23c-6.48,3.61-12.78,3.48-14.8,4.16s-5.56,4.2-5.56,4.2c-2.16-5.05-6.56-10.28-11.55-11.69h0c2.61-1.05,9.16-6.61,10.54-8.08a68.89,68.89,0,0,1,7.83-7.58c2.59-1.92,7.45-4.56,10.63-5.13C261.53,368,271.47,366.58,273.75,368.36Z"/><path class="cls-10" d="M281.08,256.36a2.83,2.83,0,1,1-2.53,2.81A2.68,2.68,0,0,1,281.08,256.36Z"/><path class="cls-13" d="M279.38,195.39a21.72,21.72,0,0,0,4.94,8.27c-6.67-5.58-11.51.58-11.51.58.2-10.29,2.23-14.36,4.1-17.51.35-.6.7-1.16,1-1.73a15.32,15.32,0,0,0,.76,2.49A21.46,21.46,0,0,0,279.38,195.39Z"/><path class="cls-14" d="M278.15,383.18l.7-.24c-11.59,12.51-23.43,23.53-23.43,23.53-3.48-1.19-10.74-3.06-12.71-4.35-.16-.43-.32-.86-.51-1.29,0,0,3.66-3.56,5.56-4.2s8.32-.55,14.8-4.16c5.38-3,7.32-6.63,8.7-7.23S277.15,383.52,278.15,383.18Z"/><path class="cls-11" d="M122.72,431c.92,7.23.56,28.91,0,35.34,0,0-19.44,2.08-60.72-6.89-45.23-9.83-49.45-18.17-49.45-18.17-2.4-29.85.4-64.46,2-81.92.95-10.13,3.69-28.29,9.7-36.05,6.21-8,14-8.72,18.42-10.16.58-1.83,1.56-5.23,2.49-6.65a1.56,1.56,0,0,1,.16-.2,27.59,27.59,0,0,0,6.73,2.8c4.43,1.31,9.34,2.17,12.09,2.79,4.36,1,16.94,4.77,22.5,6.83,2,.76,4.46,1.72,6.94,2.81,5,2.22,10.31,4.94,13.09,7.4a4,4,0,0,1,1.09,3.74c-.29,1.72-.9,5.28-1.79,8.49a45.75,45.75,0,0,1,3.74,3c4.61,4.13,10.92,7.7,16,11.64h0a39.46,39.46,0,0,1,4.31,3.8c5.36,5.59,17.08,19.07,22.43,25,14.77,16.45,32.4,26.46,33.4,28.22a4,4,0,0,0,.68-.2c5.3-1.86,26.89-14.28,30.22-16.24.87-.51,2-1.21,3.29-2,3.81-2.32,8.55-5.3,9-5.58a8.91,8.91,0,0,1,1.52.31c5,1.41,9.39,6.64,11.55,11.69.19.43.35.86.51,1.29a16.25,16.25,0,0,1,.81,3.31c-2.37,3.45-8.8,11.17-9.64,11.71a2.17,2.17,0,0,1-1.54.38s-5.51,4.76-11.45,9.87l-8.68,7.43c-2.17,1.86-4,3.38-5,4.21-4.52,3.75-10.12,8.9-15.62,10-6.5,1.32-16.66.14-24.49-2-11.63-3.13-34.81-12.14-41.63-14.92Z"/><polygon class="cls-10" points="234.03 283.68 234.03 285.82 206.56 295.5 206.56 293.36 206.6 293.35 234.03 283.68"/><path class="cls-10" d="M234,283.68l-27.43,9.67,0-.11L183.3,280.77c.28-.4.19-1.19-.43-2.08-.19-.27-.52-.71-1-1.25l2.19-.64c.84.48,1.66.25,1.71-.5h0l20.32-6Zm-37.5-8c.31-.08.56-.21.54-.29s-.3-.07-.62,0-.56.21-.54.29S196.21,275.77,196.53,275.68Z"/><path class="cls-10" d="M228.44,347.79v5.55L205.2,374.11c1.91-2.22,1.7-4.09-.9-4.87l12.3-10.93Z"/><polygon class="cls-10" points="228.44 347.79 216.6 358.31 161.82 345 175.53 334.93 228.44 347.79"/><path class="cls-14" d="M194.67,205.92c1.91,1.87,4.83,7,6.41,10.27,1.73,3.51,8.5,14,10.87,18.37s8.09,15.63,9.07,19.2c.17.59.31,1.17.43,1.74.74,3.52.45,6.35-2.88,7.44-3.87,1.26-17.56,4.13-21,4.67s-12.21,2.37-13.85,2.87a15.15,15.15,0,0,0-.57-2.3A16.68,16.68,0,0,0,178,260.4a2.61,2.61,0,0,0-2.05-.67l1.38-.42c1.61-.46,4.15-1.16,7-2a198.5,198.5,0,0,0,2.8-40.71l-3.93-.34c0-.14-.06-.26-.1-.39h0l3.53-2c-.23-1.42-2.67-6.87-4-9.74,0-.51-.05-1-.09-1.57l0-.26c1.56.15,9.73,1.81,11.61,3.19A4,4,0,0,1,194.67,205.92Zm8,46.54c-1.84-2.87-6.73-12.42-7.63-14.22-.6,6.6-1.38,13.2-2,16.77C196.92,254,200.53,253,202.64,252.46Z"/><polygon class="cls-10" points="216.6 358.31 204.3 369.24 177.36 362.55 178.02 361.99 170.93 360.23 170.27 360.79 147.9 355.23 161.82 345 216.6 358.31"/><path class="cls-10" d="M206.56,293.24l0,.11h0v2.14l-25.47-13.65a2.37,2.37,0,0,0-.77-2.25c1.49,1.57,2.59,1.72,3,1.17Z"/><path class="cls-10" d="M204.3,369.24c2.6.78,2.81,2.65.9,4.87l-29.46-7.29h0l0-1.62a2.78,2.78,0,0,1,1-2.13l.62-.52Z"/><path class="cls-10" d="M197.07,275.39c0,.08-.23.21-.54.29s-.6.09-.62,0,.22-.21.54-.29S197.05,275.32,197.07,275.39Z"/><path class="cls-5" d="M195.54,306,173.4,319s-6.54-2.3-12.74-4.54-18.14-5.51-22-7.57l23.18-11.79a58.82,58.82,0,0,0,16,6.16C183.56,302.45,192,303.62,195.54,306Z"/><path class="cls-14" d="M187.21,216.64a198.5,198.5,0,0,1-2.8,40.71c-2.9.8-5.44,1.5-7,2a193.69,193.69,0,0,0,1.34-27.75c0-.19,0-.38,0-.57a142,142,0,0,0-1.28-14.84,35.25,35.25,0,0,0,3.29,5.86c-1.43-3.56.43-5.51.43-5.51a5.74,5.74,0,0,0,4.73,4,8.9,8.9,0,0,1-2.57-4.18Z"/><path class="cls-9" d="M186.72,213.89l-3.53,2h0c-.74-3.07-.24-6.78-.47-11.76C184.05,207,186.49,212.47,186.72,213.89Z"/><path class="cls-5" d="M180.32,279.6a2.37,2.37,0,0,1,.77,2.25c-.27.72-1.3.85-2.8-.47a92.26,92.26,0,0,0-8.76-6.17s5.3,5.34,6.2,6.49,0,3-2.84.4a41.7,41.7,0,0,0-4.88-3.87,9.3,9.3,0,0,1-3.9-.75,8.79,8.79,0,0,1-1.46-.8l-2.85-.24h0a17.83,17.83,0,0,1,4.16-8.57,16.22,16.22,0,0,0,7.71-1.52c1.78-.64,3.21-1.5,5.19-.09a36.22,36.22,0,0,1,3.21,2.86,52.29,52.29,0,0,1,5.26,5.75,2.29,2.29,0,0,1,.5,1.43c-.05.75-.87,1-1.71.5a2.73,2.73,0,0,1-.42-.3c-1.38-1.17-7.74-7-9.23-7.74,0,0,5.13,5.82,7.46,8.68.44.54.77,1,1,1.25.62.89.71,1.68.43,2.08C182.91,281.32,181.81,281.17,180.32,279.6Zm-.58-.57a105.94,105.94,0,0,0-8.34-7.37C171.8,272,177.55,276.91,179.74,279Z"/><path class="cls-4" d="M185.85,220.48a5.74,5.74,0,0,1-4.73-4s-1.86,1.95-.43,5.51a35.25,35.25,0,0,1-3.29-5.86,32.42,32.42,0,0,1-2.39-7.61,56.56,56.56,0,0,1-.69-9.55v0a6.88,6.88,0,0,0,1.75-.08c1.69-.28,3.41-1.67,4.73-4.42-.16,2,1.48,4.69,1.79,7.85l0,.26c0,.54.06,1.06.09,1.57.23,5-.27,8.69.47,11.76,0,.13.06.25.1.39A8.9,8.9,0,0,0,185.85,220.48Z"/><path class="cls-8" d="M184.1,276.8l-2.19.64c-2.33-2.86-7.46-8.68-7.46-8.68,1.49.7,7.85,6.57,9.23,7.74A2.73,2.73,0,0,0,184.1,276.8Z"/><path class="cls-5" d="M179.82,189.14a19.11,19.11,0,0,1-7.5.48A7.67,7.67,0,0,0,175,192a3.6,3.6,0,0,0,3-.2,8.65,8.65,0,0,0,1.78-2.64Zm-5.5,9.83v0a56.56,56.56,0,0,0,.69,9.55,32.42,32.42,0,0,0,2.39,7.61A142,142,0,0,1,178.68,231c0,.19,0,.38,0,.57-3.53,2.75-9.55,3.22-14.17,2.13h-.05c-1.49-6.38-2.86-10.71-3.65-13.22h0a10.67,10.67,0,0,0,1-3.87c.42-6.28-2.14-12-3-15.92s-1-9.68-.35-11.39a33.19,33.19,0,0,0,6.09-8.88c1.72-3.54,4.3-12.53,5.16-14.65s2.83-3.65,4.94-3.36a4.1,4.1,0,0,1,1,.26c2.58-1.38,4.77,1.05,6.42,3.85h0a69.8,69.8,0,0,1,.56,21.52,23.65,23.65,0,0,1-1.82,6.42c-1.32,2.75-3,4.14-4.73,4.42A6.88,6.88,0,0,1,174.32,199Zm6.11-21.33c0-.33-.11-.6-.23-.6s-.23.27-.23.6.1.6.23.6S180.43,178,180.43,177.64Zm-10.82,1c0-.33-.1-.6-.23-.6s-.22.27-.22.6.1.61.22.61S169.61,179,169.61,178.61Z"/><path class="cls-4" d="M174.32,153.94c1.74,1.57,8.43,8.17,8.38,13.75-.2-.39-.42-.78-.64-1.16h0c-1.65-2.8-3.84-5.23-6.42-3.85a4.1,4.1,0,0,0-1-.26l.22-1.53a45.23,45.23,0,0,0-4.55-4.56,53.77,53.77,0,0,0-6.38-5C167.12,149.06,171.36,151.27,174.32,153.94Z"/><path class="cls-5" d="M183.11,268.18c-.41.11-1.12.33-1.75.52l-1.31.42h0a36.22,36.22,0,0,0-3.21-2.86c-2-1.41-3.41-.55-5.19.09a16.22,16.22,0,0,1-7.71,1.52,5.21,5.21,0,0,1,.79-.67c-4.15-.51-8.24-1.18-11.88-1.83a5.11,5.11,0,0,1,3.16-2.49c1.7-.31,4.48.06,9,0h.69a31.25,31.25,0,0,0,3.47-.3A46.57,46.57,0,0,0,178,260.4,16.68,16.68,0,0,1,183.11,268.18Z"/><path class="cls-5" d="M179.82,189.14h0a8.65,8.65,0,0,1-1.78,2.64,3.6,3.6,0,0,1-3,.2,7.67,7.67,0,0,1-2.71-2.37A19.11,19.11,0,0,0,179.82,189.14Z"/><path class="cls-10" d="M178.7,231.56a193.69,193.69,0,0,1-1.34,27.75l-1.38.42a2.61,2.61,0,0,1,2.05.67,46.57,46.57,0,0,1-8.88,2.18,231.34,231.34,0,0,0-4.67-28.88h.05C169.15,234.78,175.17,234.31,178.7,231.56Z"/><path class="cls-10" d="M178,362l-.66.56-.62.52a2.78,2.78,0,0,0-1,2.13l0,1.62v.4l-7-1.75v-2a2.81,2.81,0,0,1,1-2.13l.61-.53.66-.56Z"/><path class="cls-4" d="M158.45,189.3c-.64,1.71-.49,7.49.35,11.39s3.41,9.64,3,15.92a10.67,10.67,0,0,1-1,3.87,9.81,9.81,0,0,1-7.79,5.27s2.4-1.95,2.56-6.43c0,0-1.92,3-4.4,3.64a9.58,9.58,0,0,0,1.53-5.32,11,11,0,0,1-3.86,2.7,7,7,0,0,1-1.23.36,10.64,10.64,0,0,0,1.76-2.82,10.25,10.25,0,0,0,.88-5,8.8,8.8,0,0,1-3.42,1.78,7.23,7.23,0,0,1-1.52.22s.77-3.68-.64-6.36a4.35,4.35,0,0,1-4,1.76s1.45-.95,1.41-3.83c0-.89-.1-1.86-.18-2.87a15.81,15.81,0,0,1,.49-6.69c1.15-3.14,5.62-8.44,7-10.44a104.37,104.37,0,0,0,7-12.77c1.6-3.83,3.6-9.94,4.75-11.94,2.56-4.47,7-6.79,9.13-5.39a45.23,45.23,0,0,1,4.55,4.56l-.22,1.53c-2.11-.29-4.09,1.24-4.94,3.36s-3.44,11.11-5.16,14.65A33.19,33.19,0,0,1,158.45,189.3Z"/><path class="cls-10" d="M170.27,360.79l-.61.53a2.81,2.81,0,0,0-1,2.13v1.62L148,360c3.78-1,1.81-4.26-.11-4.73Z"/><path class="cls-4" d="M163.93,151.32a53.77,53.77,0,0,1,6.38,5c-2.12-1.4-6.57.92-9.13,5.39-1.15,2-3.15,8.11-4.75,11.94a104.37,104.37,0,0,1-7,12.77c-1.38,2-5.85,7.3-7,10.44a15.81,15.81,0,0,0-.49,6.69c-2.16.62-5.11,1.35-7.8,2.22h0c.58-1.84,3.1-4.26,4.18-6.68,1.86-4.19,2.35-9.25,2.92-12.34.73-4,1.81-11.74,3.82-17.36s4.2-10.28,8.3-15C156.75,150.39,162.15,150.15,163.93,151.32Z"/><path class="cls-14" d="M169.15,262.58a31.25,31.25,0,0,1-3.47.3H165c-6.74-22.36-13.53-35.84-16.13-42.54a11,11,0,0,0,3.86-2.7,9.58,9.58,0,0,1-1.53,5.32c2.48-.69,4.4-3.64,4.4-3.64-.16,4.48-2.56,6.43-2.56,6.43a9.81,9.81,0,0,0,7.79-5.27h0c.79,2.51,2.16,6.84,3.65,13.22A231.34,231.34,0,0,1,169.15,262.58Z"/><path class="cls-14" d="M129.21,207.86a5.69,5.69,0,0,1,.52-.33,26.28,26.28,0,0,1,4.37-1.76c2.69-.87,5.64-1.6,7.8-2.22.08,1,.17,2,.18,2.87,0,2.88-1.41,3.83-1.41,3.83a4.35,4.35,0,0,0,4-1.76c1.41,2.68.64,6.36.64,6.36a7.23,7.23,0,0,0,1.52-.22,17.87,17.87,0,0,0,1.05,3.47l1.49-.22a10.64,10.64,0,0,1-1.76,2.82,7,7,0,0,0,1.23-.36c2.6,6.7,9.39,20.18,16.13,42.54h0c-4.5.05-7.28-.32-9,0a5.11,5.11,0,0,0-3.16,2.49c3.64.65,7.73,1.32,11.88,1.83a5.21,5.21,0,0,0-.79.67,17.83,17.83,0,0,0-4.16,8.57,18.59,18.59,0,0,0-.38,2.5c-.14,1.49,0,2.65.58,2.81-3-.52-15.5-2.77-23.36-4.37h0l-2.83-.59a27.88,27.88,0,0,1-3.81-1.05c-3.5-1.27-5-3-5.83-6.14-1.08-4.06-1.61-13.24-1.53-20.89s.74-22.53,1.61-29.58c.43-3.57,2.12-9.21,5-11.27Z"/><path class="cls-14" d="M162.65,276.68a8.79,8.79,0,0,0,1.46.8c-2.18,3.35-3.45,4.45-4.13,4.27h0c-.6-.16-.72-1.32-.58-2.81a18.59,18.59,0,0,1,.38-2.5h0Z"/><path class="cls-9" d="M150.27,212.85a10.25,10.25,0,0,1-.88,5l-1.49.22a17.87,17.87,0,0,1-1.05-3.47A8.8,8.8,0,0,0,150.27,212.85Z"/><path class="cls-9" d="M133.78,276.79l2.83.59c-2.25,1-4.45,2-6.6,3.11h0c.06-1.35,0-3.31,0-4.74A27.88,27.88,0,0,0,133.78,276.79Z"/><path class="cls-5" d="M89.55,280.65l3.82-1.91a45.56,45.56,0,0,1-.58-10.35c.28-3.27,2.24-5.13,4.21-7.07s3.51-6,3.83-9a13.74,13.74,0,0,1,2.69-6.77,3.77,3.77,0,0,0,.58-1.18c4.09,4.31,8.44,12.52,10.07,17.16,1.71,4.87,2.69,8,2.69,8s6.55,5.43,8,8.17c1.1,2-3.85,4.21-3.84,4.77a15.86,15.86,0,0,0,1.19,2.08c.8,1.32,1.68,2.88,1.55,3.55-.24,1.17-5.05,2.07-5.3,2.94s4.92,2.17,4.88,4-2.68,1.73-2.83,3.3c-.11,1.1.65,4.68-.22,6.62s-4.44,3.19-7,3.75c-3.46.77-8.5.43-11,1-3.62.87-7,7.46-8.75,11.79-2.48-1.09-4.9-2.05-6.94-2.81-5.56-2.06-18.14-5.85-22.5-6.83-2.75-.62-7.66-1.48-12.09-2.79a16.64,16.64,0,0,0,.58-2.8,28.56,28.56,0,0,0,0-7.69l.69.1c2.33.32,13.38-.66,16.9-1.64s6.33-5.15,6.49-7.62,1.59-6.56,3.17-7.15h0A4.35,4.35,0,0,1,83.12,278C85.33,277.63,87.31,278.65,89.55,280.65Zm24.06-9.2c.28,0,.44-.65.36-1.39s-.37-1.31-.64-1.27-.44.64-.36,1.38S113.34,271.48,113.61,271.45Z"/><path class="cls-4" d="M103.06,242.12a1.75,1.75,0,0,1,1,2.25,3.77,3.77,0,0,1-.58,1.18,13.74,13.74,0,0,0-2.69,6.77c-.32,3-1.85,7.06-3.83,9s-3.93,3.8-4.21,7.07a45.56,45.56,0,0,0,.58,10.35l-3.82,1.91c-2.24-2-4.22-3-6.43-2.65a4.35,4.35,0,0,0-3.23,4.27h0c-1.58.59-3,4.69-3.17,7.15s-3,6.65-6.49,7.62-14.57,2-16.9,1.64l-.69-.1c-1.87-.31-2.76-.69-3.14-2.06,0,0-3-1.39-3.06-4.22,0,0-4.16-.52-4.28-5.53,0,0-3.2-1.3-2.45-4a6.59,6.59,0,0,1-3.48-7.31s-3.39-1.77-1.61-6.83c0,0-2.82-5.19.29-9.53,0,0-3.26-3.78.59-7.21,0,0-1.54-5.34,3.11-6.87,0,0-.1-7.13,6.65-6.51,0,0,.55-4.86,5.25-3.74,0,0,.37-4.63,6.26-3.37,0,0,2.46-4.1,8.29-1.7a5.91,5.91,0,0,1,7.14-1.07,5.46,5.46,0,0,1,7.22.48s3.85-2.57,6.68-.13c0,0,3.44-1.62,4.94,1,0,0,3-.37,3,2,0,0,3.12-1.29,3.73,1.75a2.76,2.76,0,0,1,3.45,2.7S105.2,238.4,103.06,242.12Z"/><path class="cls-5" d="M271.59,173.14c.21-1.73.34-2.86,1.17-3a1.89,1.89,0,0,1,2.12.78,9.84,9.84,0,0,1,1.44,3.48,38.6,38.6,0,0,1,.82,5.06c0,.78-.23,2-1.23,1.63a6.76,6.76,0,0,1-3-2.81,8,8,0,0,1-1.24-3.15C271.62,173.92,271.59,173.14,271.59,173.14Z"/><path class="cls-9" d="M46.05,305.9a60.62,60.62,0,0,1,6.62.37l-.58,2.8-5.9-2.31Z"/><path class="cls-10" d="M379.71,286.53a3,3,0,0,1,2.52-1.34c1,.14,2.38.44,2,.87s-1.81.53-2.5,1a2.17,2.17,0,0,1-1.75.43C379.69,287.38,379.71,286.53,379.71,286.53Z"/></g><g id="LIN"><path class="cls-15" d="M175.64,162.67c2.93-1.57,5.38,1.8,7.06,5"/><path class="cls-15" d="M163.93,151.33c3.19-2.27,7.43-.06,10.39,2.61,1.74,1.57,8.43,8.18,8.38,13.74"/><path class="cls-15" d="M182.05,166.52a69.22,69.22,0,0,1,.56,21.53c-1.08,7.15-3.84,10.39-6.54,10.84-3.25.55-6.42-1.2-10.15-3.41s-4.94-2.94-5.59-4.65"/><path class="cls-15" d="M174.32,199a55.61,55.61,0,0,0,.69,9.55"/><path class="cls-15" d="M175.64,162.67c-2.47-1-4.95.65-5.94,3.1-.86,2.12-3.44,11.11-5.16,14.65a33.22,33.22,0,0,1-15.69,15.86"/><path class="cls-15" d="M163.93,151.33c-1.78-1.18-7.17-.94-10.62,3-4.09,4.73-6.28,9.38-8.29,15s-3.09,13.33-3.82,17.36c-.56,3.09-1.06,8.15-2.92,12.34-1.08,2.42-3.6,4.85-4.17,6.68"/><path class="cls-15" d="M163.93,151.33a59.85,59.85,0,0,1,10.93,9.55"/><path class="cls-15" d="M175.64,177.1c1.26,2.29,3,7.34,2.9,8.38s-2.53,1-3.76.86"/><path class="cls-15" d="M178.17,173.65a8.3,8.3,0,0,1,4.24-.31"/><path class="cls-15" d="M172.16,174.41a13.29,13.29,0,0,0-5.21.39"/><path class="cls-15" d="M172.1,189.59c1.38.21,5.37.47,8-.54"/><path class="cls-15" d="M172.32,189.62A7.67,7.67,0,0,0,175,192a3.64,3.64,0,0,0,3-.2,8.65,8.65,0,0,0,1.78-2.64"/><path class="cls-15" d="M175.64,194.13a3.55,3.55,0,0,0,2-.12"/><path class="cls-15" d="M180.42,177.64c0,.33-.1.6-.22.6s-.23-.27-.23-.6.1-.6.23-.6S180.42,177.31,180.42,177.64Z"/><path class="cls-15" d="M169.61,178.62c0,.33-.1.6-.23.6s-.22-.27-.22-.6.1-.61.22-.61S169.61,178.28,169.61,178.62Z"/><path class="cls-15" d="M288,175.56c0,.33-.11.6-.23.6s-.23-.27-.23-.6.1-.61.23-.61S288,175.22,288,175.56Z"/><path class="cls-15" d="M300.61,174.38c0,.33-.1.6-.23.6s-.22-.27-.22-.6.1-.6.22-.6S300.61,174.05,300.61,174.38Z"/><path class="cls-15" d="M413.21,196.31c0,.34-.11.61-.23.61s-.23-.27-.23-.61.1-.6.23-.6S413.21,196,413.21,196.31Z"/><path class="cls-15" d="M427.79,195.73c0,.33-.1.6-.22.6s-.23-.27-.23-.6.1-.61.23-.61S427.79,195.39,427.79,195.73Z"/><path class="cls-15" d="M451.9,237.15c0,.41-.12.74-.28.74s-.28-.33-.28-.74.13-.75.28-.75S451.9,236.74,451.9,237.15Z"/><path class="cls-15" d="M114,270.06c.08.74-.08,1.36-.36,1.39s-.56-.54-.64-1.28.09-1.36.36-1.39S113.89,269.33,114,270.06Z"/><path class="cls-15" d="M158.45,189.3c-.64,1.71-.49,7.48.35,11.39s3.41,9.64,3,15.91-5,8.65-8.76,9.15c0,0,2.41-1.95,2.56-6.43,0,0-1.91,3-4.4,3.64a9.58,9.58,0,0,0,1.53-5.32,10.28,10.28,0,0,1-5.09,3.06,11.05,11.05,0,0,0,2.64-7.85,8.4,8.4,0,0,1-4.93,2s.76-3.67-.66-6.35a4.32,4.32,0,0,1-4,1.76s1.45-.95,1.41-3.82-.84-6.43.31-9.57,5.62-8.44,7-10.44a104.37,104.37,0,0,0,7-12.77c1.6-3.83,3.6-9.94,4.75-11.94,2.56-4.47,7-6.79,9.13-5.39"/><path class="cls-15" d="M141.9,203.55c-3.49,1-9,2.26-12.18,4s-5,7.82-5.51,11.6c-.87,7.05-1.53,21.92-1.6,29.58s.46,16.83,1.53,20.89,3.31,5.83,9.64,7.19c7.22,1.56,22.87,4.38,26.2,5"/><path class="cls-15" d="M180.8,194.46c-.17,2.07,1.56,4.85,1.81,8.12.66,8.67-1.2,13.72,3.25,17.9a5.74,5.74,0,0,1-4.74-4s-1.86,1.95-.43,5.51A35.92,35.92,0,0,1,175,208.55"/><path class="cls-15" d="M160.82,220.48c1.68,5.27,5.92,18.68,8.33,42.1"/><path class="cls-15" d="M182.59,202.31c1.56.16,9.73,1.82,11.61,3.2s5.16,7.15,6.88,10.67,8.5,14,10.87,18.38,8.09,15.63,9.07,19.2c1.19,4.32,1.42,7.92-2.45,9.18s-17.56,4.13-21,4.67-12.21,2.37-13.86,2.87"/><path class="cls-15" d="M196,220.48c.23,6.26-1.71,27-3,34.53"/><path class="cls-15" d="M176,259.73c3.14-1,22.79-6.3,27.55-7.5"/><path class="cls-15" d="M203.53,252.23c2.64-1.84,7.46-2.64,9.42-2,2.79.92.88,1.67-2.26,1.48"/><path class="cls-15" d="M203.53,251.84a11.93,11.93,0,0,1,9.26-4.32"/><path class="cls-15" d="M195,238.23c.89,1.81,5.79,11.36,7.63,14.22"/><path class="cls-15" d="M176,259.73c2.19-.58,6.78,5,7.69,10.75"/><path class="cls-15" d="M178,260.4a43.17,43.17,0,0,1-12.35,2.47c-4.91.12-7.89-.31-9.67,0a5.2,5.2,0,0,0-3.17,2.5"/><path class="cls-15" d="M164.11,277.48c-4.11,6.33-5,4.62-4.71,1.46.49-5.41,3.1-10.22,5.33-11.73"/><path class="cls-15" d="M163.94,267.87a16.22,16.22,0,0,0,7.71-1.52c1.78-.64,3.21-1.5,5.19-.09a61.1,61.1,0,0,1,8.47,8.61c1.35,2-.26,2.81-1.64,1.63s-7.73-7.05-9.22-7.73c0,0,7.24,8.19,8.42,9.92,1.44,2.09.06,3.64-2.55.91a107.43,107.43,0,0,0-8.93-8s7.41,6.32,8.93,8c1.78,1.93.61,4.11-2,1.78a91.1,91.1,0,0,0-8.75-6.17s5.31,5.34,6.2,6.49,0,2.95-2.85.4a41.21,41.21,0,0,0-4.87-3.87,9.25,9.25,0,0,1-5.36-1.55l-2.85-.24"/><path class="cls-15" d="M164.73,267.21c-10.81-1.36-21.15-3.67-24.6-4.33"/><path class="cls-15" d="M140.13,262.88c-4.33-1.32-8-.38-9.43.45"/><path class="cls-15" d="M140.13,262.88c-5.28.22-8,3.24-8.43,5.62s1.38,0,4.16-2.64"/><path class="cls-15" d="M140.13,262.88c-.38-5,.32-10.65.28-17.83,0-5.85,0-11.79-.38-15.21"/><path class="cls-15" d="M129.21,207.86c2.31.52,5.41,3.42,7.4,11.12"/><path class="cls-15" d="M148.85,220.34c2.61,6.7,9.4,20.18,16.14,42.54"/><path class="cls-15" d="M149.39,217.88l-1.49.22a17.87,17.87,0,0,1-1.05-3.47"/><path class="cls-15" d="M164.53,233.68c4.62,1.1,10.64.63,14.17-2.12"/><path class="cls-15" d="M194.67,205.92a42.4,42.4,0,0,1,.6,6.88"/><path class="cls-15" d="M183.11,268.18c-.87.23-3.06.94-3.06.94"/><path class="cls-15" d="M183.67,270.48c-.71-.52-1.92-1.12-2.31-1.78"/><line class="cls-15" x1="184.1" y1="276.8" x2="181.91" y2="277.45"/><line class="cls-16" x1="206.14" y1="270.33" x2="185.82" y2="276.3"/><line class="cls-16" x1="210.56" y1="272.76" x2="183.67" y2="280.67"/><line class="cls-16" x1="234.03" y1="283.68" x2="206.56" y2="293.36"/><line class="cls-16" x1="234.03" y1="285.83" x2="206.56" y2="295.51"/><line class="cls-16" x1="206.56" y1="293.36" x2="206.56" y2="295.51"/><line class="cls-15" x1="234.03" y1="283.68" x2="234.03" y2="285.83"/><line class="cls-16" x1="206.14" y1="270.33" x2="234.03" y2="283.68"/><line class="cls-16" x1="183.3" y1="280.77" x2="206.56" y2="293.24"/><line class="cls-16" x1="181.09" y1="281.86" x2="206.56" y2="295.51"/><ellipse class="cls-15" cx="195.71" cy="275.28" rx="0.48" ry="0.11" transform="translate(-63.65 58.92) rotate(-14.75)"/><path class="cls-15" d="M274.42,170.34s-3.35-6.88-1-14.23c2.82-8.87,12.17-10.64,17.18-9.07s8.83,7.73,8.83,7.73a28.11,28.11,0,0,1-7.12,2.68,49.68,49.68,0,0,1-11,.53,16.72,16.72,0,0,1-.55,6.17c-.92,2.41-2.55,5.24-2.36,9.39.17,3.73,3,9.7,5.23,12.42s5,1.52,7.2.61,6.49-.85,9.33-.3a2.86,2.86,0,0,0,2.9-.92"/><path class="cls-15" d="M277.31,179.48c.35,2.58-2.15,1.86-3.18.58s-3.14-4.67-2.53-7.92,3.36-2.68,4.11.48"/><path class="cls-15" d="M277.3,180.35c.19,2.46.62,6.36,2.22,8.66s8.15,7.74,11.2,8.55,5.36.37,6.34-.49,4.48-5.94,5.31-8.87a41.34,41.34,0,0,0,1.26-9.5c.07-2.88-.46-4.91-.21-7.15.43-3.86-1.15-12.78-4.39-16.55"/><path class="cls-15" d="M294.68,173.54a42.48,42.48,0,0,1,4.22,8.64c.37,1.52-3.16,1.92-6.58,1.4"/><path class="cls-15" d="M283.54,173.14a30.21,30.21,0,0,1,7.18-1"/><path class="cls-15" d="M297.52,171.41a13.88,13.88,0,0,1,5.34,0"/><path class="cls-15" d="M291.44,188.69a8.59,8.59,0,0,0,7.2-.49"/><path class="cls-15" d="M294.07,191.76a3.61,3.61,0,0,0,2.91-.16"/><path class="cls-15" d="M279,188.2a62.77,62.77,0,0,1,.34,7.21"/><path class="cls-15" d="M278.7,187.48c-.29,5.14-.41,11.74,10.15,20.47"/><path class="cls-15" d="M288.85,208c3.3-2,10.07-6.29,12.8-17.92"/><path class="cls-15" d="M277.94,185c-2.06,3.57-4.9,7-5.13,19.24,0,0,6-7.59,13.78,1.72"/><path class="cls-15" d="M303.1,184.74c1.79,5.16,3.69,11.18,3.11,19.91,0,0-6.35-7.41-12.5-.23"/><polygon class="cls-15" points="246.69 279.09 244.05 238.87 317.29 240.63 316.65 281.27 246.69 279.09"/><polyline class="cls-15" points="316.65 281.27 321.15 263.71 316.93 263.71"/><ellipse class="cls-15" cx="281.22" cy="259.17" rx="2.53" ry="2.81"/><path class="cls-15" d="M303.64,186.31c3.78.43,15.15,2.77,19.28,4.59s5.51,3.17,7.18,7.69a90.84,90.84,0,0,1,5.73,27.75c.52,12-1.32,24.85-3.9,28.81-1.78,2.73-7.67,1.9-14.9,2"/><path class="cls-15" d="M320.58,212c-1.14,5.39-2.08,20.13-2.08,28a17.26,17.26,0,0,1-3.74.61"/><path class="cls-15" d="M318.5,240c6.31-2.46,9.89-.25,11.61,1.48s-4.24-.47-6-.87"/><path class="cls-15" d="M318.5,240c3.84,1.09,8.26,4.63,9.55,7.62"/><path class="cls-15" d="M326.47,192.87a25.87,25.87,0,0,0-4.47,8.8"/><path class="cls-15" d="M276.91,186.73c-5.08,1.52-17.74,6.11-21.72,9.56s-9.11,14.61-10.68,18.78-9.18,24.45-9.87,31.88c-.47,5.12.69,8.18,10.61,10.21"/><path class="cls-15" d="M260.24,214.31c1.68,5.85,2.12,9.68,2.64,25"/><path class="cls-15" d="M261.66,220.6a125.22,125.22,0,0,0-6.78,18.53"/><path class="cls-15" d="M255.19,196.29a42.86,42.86,0,0,1,3.27,10.14"/><polygon class="cls-15" points="245.49 283.68 293.31 286.76 287.5 303.14 235.5 299.23 245.49 283.68"/><path class="cls-15" d="M161.86,295.07a58.16,58.16,0,0,0,16,6.17c5.74,1.21,14.22,2.37,17.72,4.78L173.4,319s-6.54-2.3-12.74-4.54-18.14-5.51-22-7.57Z"/><polyline class="cls-15" points="175.53 334.93 228.44 347.79 228.44 353.36"/><line class="cls-15" x1="161.82" y1="345" x2="216.6" y2="358.31"/><line class="cls-15" x1="228.44" y1="347.79" x2="204.3" y2="369.24"/><line class="cls-15" x1="175.52" y1="334.93" x2="147.9" y2="355.23"/><line class="cls-15" x1="228.46" y1="353.31" x2="205.2" y2="374.11"/><path class="cls-15" d="M147.9,355.23c1.92.48,3.89,3.74.11,4.73"/><path class="cls-15" d="M204.3,369.24c2.6.78,2.81,2.66.9,4.87"/><path class="cls-15" d="M168.68,365.47v-2a2.77,2.77,0,0,1,1-2.13l1.27-1.09L178,362l-1.28,1.08a2.82,2.82,0,0,0-1,2.13l0,2Z"/><line class="cls-15" x1="177.36" y1="362.55" x2="204.3" y2="369.24"/><line class="cls-15" x1="147.9" y1="355.23" x2="170.27" y2="360.79"/><line class="cls-15" x1="175.74" y1="366.82" x2="205.2" y2="374.11"/><line class="cls-15" x1="148.01" y1="359.96" x2="168.68" y2="365.07"/><path class="cls-15" d="M421.52,194.4a15.36,15.36,0,0,1,11.59-.31s.09,4.85-1.8,6.37-6.13,1-7.7-.32C421.52,198.39,421.52,194.4,421.52,194.4Z"/><path class="cls-15" d="M405.6,194.82a15.07,15.07,0,0,1,11.36-.31s.09,4.75-1.77,6.24-6,1-7.53-.3C405.6,198.73,405.6,194.82,405.6,194.82Z"/><path class="cls-15" d="M417,195.06a7.4,7.4,0,0,1,4.61.2"/><path class="cls-15" d="M417.37,195.94c-.38,1.72-1.42,7.25-1.11,8.25s3.71.84,5.78.21"/><path class="cls-15" d="M415.74,208.32a29.23,29.23,0,0,0,10.68-.42"/><path class="cls-15" d="M416.41,208.44c.31.66,1.62,2.56,2.83,2.77a9.36,9.36,0,0,0,3.62,0c1.2-.22,2.66-2.08,3.32-3.27"/><path class="cls-15" d="M419.82,213.31a4.7,4.7,0,0,0,2.73,0"/><path class="cls-15" d="M423.73,191.39a18.05,18.05,0,0,1,8-.23"/><path class="cls-15" d="M415.88,191.75a15.33,15.33,0,0,0-7,.12"/><path class="cls-15" d="M407.65,179.31a72.85,72.85,0,0,0-.39,14.87"/><path class="cls-15" d="M408.43,200.93c.65,3.31,3.94,12.38,6.93,15.71,2.26,2.52,5.93,2.18,9.34,1.19a19.89,19.89,0,0,0,9-6.16,15,15,0,0,0,3.36-8.19"/><path class="cls-15" d="M438.81,197.25a107.6,107.6,0,0,0,.45,11"/><path class="cls-15" d="M439.34,193.11c.46-2.65,1.14-4.89,2.65-5.4,2.11-.7,2.23,1.84,1.72,4.16a26.49,26.49,0,0,1-2.13,6.58c-1,1.64-2.77,2-2.77.48"/><line class="cls-15" x1="405.61" y1="195.12" x2="404.6" y2="195.18"/><line class="cls-15" x1="433.11" y1="194.56" x2="434.57" y2="194.56"/><path class="cls-15" d="M434.57,194.56a19.94,19.94,0,0,1,6-5.47"/><path class="cls-15" d="M406.68,180c1.18-.74,3.39-3,5.51-2.64s1.67,1.41,4.45,1.1,3.1-.95,6.49-.16,5.28-.22,7.86.44,4.51,1.78,4.76,3.42-1.06,2.68-.51,4.86,1.81,1.68,2.06,3.63.37,3.1.37,3.1l1.67-.63"/><path class="cls-15" d="M406.09,194.6c-.46-3.11-.79-7.7-1.09-10.94-.35-3.75-.12-6.68.9-8.34.75-1.22,4.14-6.39,9.77-8.65s14.42-2.37,20.2,1.84,5.89,8.45,6.08,10.37.21,5.9.53,8.72"/><path class="cls-15" d="M413.63,177.85c-1-2.22-1.06-5.66,8.95-9.68"/><path class="cls-15" d="M420.08,177.92c-.94-1.89-1.06-5.42,6.95-8.11"/><path class="cls-15" d="M426.08,178.61c-1.12-1.8.66-3.84,7.46-5.82"/><path class="cls-15" d="M440.86,204.9s1.62,2.44-23,27.18"/><path class="cls-15" d="M413.2,213.41c-.17,4.78,2.06,12.82,4.7,18.67"/><path class="cls-15" d="M414.42,215.43a22,22,0,0,1,0,6.54"/><path class="cls-15" d="M438.94,203.82c2,.08,3.61,2.57,4.3,10.52"/><path class="cls-15" d="M424.76,225.05c1.58-2,5.18-3.74,3.38,6.4,0,0,11.36-11.42,14.68-15.38"/><path class="cls-15" d="M411.69,210.35c-1.84,2.73-3.37,9.81-1,19.49,0,0,2.23-12.75,4.85-4.06"/><path class="cls-15" d="M410.25,206.81c-3.94.71-9.39,1.05-12.89,2.6s-9,8.09-14.87,14.52-16.36,18.25-18.71,20.55-6.48,6.67-7.06,11A16.25,16.25,0,0,0,363.84,271"/><path class="cls-15" d="M363.84,271c-1.32-4.76-.4-11.42,13.77-6.38"/><path class="cls-15" d="M377.61,264.61c-2.06-2.74-3.83-6.4-8-6.84-2.93-.32-12.12.6-11.4,6.84"/><path class="cls-15" d="M375.49,261.65A14.76,14.76,0,0,0,370,249.24"/><path class="cls-15" d="M375.31,258.08c4.46-3.5,15.19-12.87,17.14-14.08"/><path class="cls-15" d="M402.89,288.14c-4.24-1.62-6.28-5.72-8.69-8.71s-4-4.53-5.22-4.93-6.2-1.44-8.33-1.21-3.21,1.19-4.64,2.32a11.25,11.25,0,0,0-3.21,3.88c-.35,1-.61,1.71,0,2.52a3,3,0,0,0,.77.56"/><path class="cls-15" d="M389.9,277.71c-1.67-.34-5.08-1.63-6.47-2.1s-3.41-.66-4.67.44a52.45,52.45,0,0,0-4.48,3.9c-.86,1-1.4,4.42,1.17,4.48h.46"/><path class="cls-15" d="M389,281.78a32.8,32.8,0,0,0-6.42-2.46,4.3,4.3,0,0,0-4.14,1.6c-1.09,1.32-3.44,3.16-2.41,5.28a2.77,2.77,0,0,0,3.5,1.55l1.5-.2"/><path class="cls-15" d="M379.62,287c.12-1.2,1.67-2,3.33-1.78a8.82,8.82,0,0,1,2.81.87,6.69,6.69,0,0,0-2.81.39c-.92.52-1.95.81-2.58,2s-.7,2.59.65,3.33a3.2,3.2,0,0,0,2.86.4l-.45-1a7.52,7.52,0,0,1,4.34,1.23s3.15,6.51,17.7,8"/><path class="cls-15" d="M401.37,286.7c1.71.59,6.15,8,3.77,14.83"/><line class="cls-15" x1="406.83" y1="286.7" x2="401.37" y2="286.7"/><path class="cls-15" d="M405.14,301.53a89.68,89.68,0,0,0,10.12.47"/><path class="cls-15" d="M377.48,264.57c2.46.77,5.11,1.76,5.95,2.46,1.24,1,2.72,3.25,4.38,7.15"/><line class="cls-15" x1="383.32" y1="273.39" x2="381.02" y2="269.5"/><line class="cls-15" x1="375.56" y1="270.54" x2="377.91" y2="274.2"/><path class="cls-15" d="M375.07,276.43s-3-3.66-3.83-3.37,1.12,4.19,1.86,5.8"/><path class="cls-15" d="M363.42,268.53a6.53,6.53,0,0,0,3.17,3.78c1.9,1,2.27,5.94,5.28,9.47a2.13,2.13,0,0,0,1.18.47"/><path class="cls-15" d="M390.24,229.84c1.66,6,3.38,21.65,4.12,45.94"/><path class="cls-15" d="M404.63,283.77c-.93-1.79,1.2-4.09,2.82-1.9,1.8,2.44,2.6,4.5,1.6,5.2S405.52,285.48,404.63,283.77Z"/><path class="cls-15" d="M407.31,279.72c-1.37-2.45.93-4.75,2.82-2.67s4.34,6,3.16,6.95C411.66,285.33,407.31,279.72,407.31,279.72Z"/><path class="cls-15" d="M411,275.93c-2.46-2.87.7-5.92,3.44-2.6s5.22,7,3.53,8.3C415.87,283.26,411,275.93,411,275.93Z"/><path class="cls-15" d="M420.36,271c-2-2.89-5.64-1.83-3.52,2.64s4.6,6,5.72,5.12S422.3,273.8,420.36,271Z"/><path class="cls-15" d="M414.46,273.33a2.08,2.08,0,0,1,2-.66"/><path class="cls-15" d="M409.83,276.76a1,1,0,0,1,1.19-.83"/><path class="cls-15" d="M406.71,281.18c0-.64.58-1.09.93-1.05"/><path class="cls-15" d="M442.63,336c-1.73-3.94-9.63-21.44-11-25.57a44.87,44.87,0,0,1-2.14-13.92c.11-3.41,1.36-7.31,1.66-10.18a32.53,32.53,0,0,0-1.09-10,25.5,25.5,0,0,1-1.2-5.8c-.12-1.59-.52-2.72-1.57-2.49s-1.8,1.82-1.93,5,1.62,8.79,1.62,8.79c-.59-1.61-1.75-6.3-2.06-7.35a4.56,4.56,0,0,0-1.58-2.63c-.83-.55-2.21-.84-2.62-.38"/><path class="cls-15" d="M430.29,277.17a16.72,16.72,0,0,1,3,7.23c.43,3,.49,5.48,2,7.54s10.87,10.26,13.08,12.24"/><path class="cls-15" d="M430.94,308.14c1.66,2.26,6.91,8.95,8.77,10.79"/><path class="cls-15" d="M447.58,302.3c1.35,1.32,1.66,6.35-.86,10.82a12.5,12.5,0,0,1-8.9,6.23c-1.81.11-3.78-.85-2.17-5.16"/><path class="cls-15" d="M436.14,319c2.9,1.41,12.81,10.86,14.72,8.4"/><path class="cls-15" d="M447.58,302.3c1.17.79,6.23,4.76,6.23,4.76"/><path class="cls-15" d="M406.71,286.31a48.64,48.64,0,0,0,4.31,9.34c1.52,2.23,3.5,4.4,4.53,7,2,5.16,5.19,16.07,7,21.63,1.27,3.95,5.69,16.77,7.84,21.73"/><path class="cls-15" d="M432.72,281.87c2-1,9.85-5,10.75-4.85,2.72.44,7.09,1.91,9,4.85"/><path class="cls-15" d="M447.82,264.63c-.51,3.39-2.37,10.06-4.81,12.37"/><path class="cls-15" d="M443.61,276.34c4.35-.93,9.31-.09,11.83,3.09"/><path class="cls-15" d="M462.58,195.12a6.11,6.11,0,0,0-5.48-.33,3.62,3.62,0,0,1-3.21.47c-1.3-.2-2.37-.2-3.33.87s-1.22,1.19-2.41,1.12a1.92,1.92,0,0,0-2,1.6c-.36,1.57-2.05,1.41-2.51,3.75,0,0,3.75-3.33,6.24-2.45,0,0-.84.63-.8,1.23s-.72.87-1.65,1a1.33,1.33,0,0,0-1,1.6c.11.77-.92.27-1.46,1.08a4.32,4.32,0,0,0-.8,3.54s1-2.09,2.22-2,1.68.95,2.45.5,1.3.34.61,1.18-2.1.36-3.1,1.43-1.38,1.86-1.19,2.93-1.83.69-2.29,2.41.69,1.61,0,2.61-2.07.88-2.22,2.45.73,1.49.38,3.21-.27,3.1.65,3.94c0,0-.07-2.79.88-3.56a1.81,1.81,0,0,0,.69-2.37,1.31,1.31,0,0,1,1.11-1.72c.69-.16,2-.88,2.14-1.76s1.34-2.32,2.22-2c1.34.5-.34,5-1.22,5.93s-2.3,3.4-1.49,5.39c0,0,.53-2.37,2.22-2.64a2.29,2.29,0,0,0,2.06-1.64,2.63,2.63,0,0,1,2-2.07c1.07-.23,1.61-2,2.07-1.22s-1.15,2.56-.77,3.44,1.3-.95,2-.11,0,1.49-.27,2.52-1,2.6-.61,3.91a8.49,8.49,0,0,1,2-2.53c.88-.46,1.49-.8,1.8-1.8s3.67-2.1,3.86-1-1.07,1.6-.76,3,1.22,1.68.78,3.18-1.09,1.8-.52,3.06-.42,2.45-.76,3.59,1.22,1.08.57,3.07-1,4.13,0,6.16c0,0,.62-2.76,1.34-3.33s1.15-2.43,1-3.84.95-3.05,1.6-3.13,2.11-1.87,1.46-3.17.84-3.1,1.34-1.15.65,2.87,0,4.17-1.92,1.53-1.42,3.94-2.26,3.22-1.76,5.17,1,2.18.73,3.71a6.59,6.59,0,0,0,1.68,4.93s-.15-2.83.23-3.29a6,6,0,0,0,.46-3.94c-.38-1.49.27-3.1,1-3.33a2.23,2.23,0,0,0,1.34-2.29,10.89,10.89,0,0,1-.39,5c-.88,2.22.81,2.52.85,3.63s-1.23,1.5-.2,3.72-.19,5.08,2.15,7.3c0,0-.69-3.67,0-4.55a3.44,3.44,0,0,0,.88-3.25,1.9,1.9,0,0,1,1-2.37,2.7,2.7,0,0,0,.54-2.84c-.38-1.18,1.11-1.68,1.34-.11s-.46,3.14.69,4.48,1.26,2.6.76,3.48a2.51,2.51,0,0,0,.28,3c.83.81,1.9,2.18,1.83,3.33a10.26,10.26,0,0,0,.46-4.17c-.35-1.72,0-4,1.49-4.82a7.37,7.37,0,0,1,1.49,4.06,6.3,6.3,0,0,0,1.49,4.4,4.48,4.48,0,0,1,1,3.75,8.2,8.2,0,0,0,1.61-4.4c0-2.26.19-3.52,1-4.14s1.3,2,1.23,3.26a7.62,7.62,0,0,0,1.53,4.7,2.59,2.59,0,0,1,0,3.45s1.87,0,1.87-2.34-.23-2.68-.69-3.4-.46-2,.46-1.65.88,1.68,1.88,1.53,1.38.9,1.14,2.34c-.34,2.06.92,3.52.73,5.16,0,0,1.34-3.25,1.07-5.16-.2-1.45-.13-3.62.52-3.24s1,1.67,1.05,2.81,1.69,1.84,1.69,3,.88,1.87.49,3.06c0,0,1.65-2.49,1.11-4.59s-.27-3,.42-2.95,1.11,1.19,1.07,2.3a6.86,6.86,0,0,0,.58,3.44,3,3,0,0,1,.3,2.87,2.19,2.19,0,0,0,1.5-1.91c.19-1.57.23-2,.8-2.41a1.83,1.83,0,0,0,.73-2.3,3.92,3.92,0,0,1,1.22,2.72s1-2,.61-3.33-.68-2.11-.11-2.95a2.89,2.89,0,0,0,.61-2.68c-.27-1.3.81-1.72,1.23-.65s-.08,2.37.49,3.71-.07,1.38-.19,2.91,1,1.76.65,3.41a5.36,5.36,0,0,0,1.19-3.48c-.12-2-.31-3.07.42-4.18s.92-1.33.38-3-.46-2.6.31-3.67a4.16,4.16,0,0,0,.73-3.45s1,3.91.72,5.59a4.44,4.44,0,0,0,1.38,4.09s-.5-2.25,0-3.25a4.52,4.52,0,0,0,.46-3.86c-.5-2.15-.58-2.38.21-3.56a2.32,2.32,0,0,0,.4-2.79,2.93,2.93,0,0,1,0-3.14,3.81,3.81,0,0,0-.08-3.29,4,4,0,0,1,1.65,2.68c.11,1.64-.19,2,.5,3.52s.88,2.1.3,3.32a3.15,3.15,0,0,0,1.26-2.52c0-1.72-.76-2.91-.42-3.87s.73-1,.12-2.6-1.61-2.37-1.11-4.28,1.38-2.3.76-3.87a4.26,4.26,0,0,1,.08-3.48,6.15,6.15,0,0,1,1.95,3.48c.19,2-.8,2.72-.5,4.44s1.38,2.79.88,4.82a8.28,8.28,0,0,0,1.19-4.47c-.19-2.3-.15-3.64.23-4.56a6.3,6.3,0,0,0-.76-4.55c-.88-1.49,0-2.11,0-3.25s-1.14-1.15-1.22-3,.69-1.91.57-3.79a4.26,4.26,0,0,0-2.29-3.52c-.84-.34.8-1.95-.16-3.44s-2.9-1.95-3.44-3.1.38-2.83-.42-4.28a4.64,4.64,0,0,0-3.21-2.57c-1.42-.3-1-1.61-1.38-2.49a2.74,2.74,0,0,0-2.45-1.22c-.84,0-.31-.84-1.49-1.38s-2.3-.57-2.34-1.49a1.53,1.53,0,0,0-1.91-1.57,1.84,1.84,0,0,1-2.37-1,2.55,2.55,0,0,0-2.6-1.34c-1,.15-1.34.86-2.49,0s-1.49-1.12-2.95-.93-2.14.49-2.75-.06-1.8,0-2.3.37-1.26-2.37-3.67-2-2.37.88-4.17.34-2.45-.84-3.56-.19-.69,1.42-1.42,2-1.6-1.15-3.1-.81-1.41,1.69-2.87,2.11-1.87-.85-3.55-.42-1.69,2-3.37,2.18-2.68-.27-4,1.37"/><path class="cls-15" d="M448.27,224.52a43.51,43.51,0,0,0,0,8.15c.17,2.85-2.07,6-3,7.12s-3.56,4.71-3.52,5.82,3.83,2.18,5.59,2.22"/><path class="cls-15" d="M446.13,247.69c-.27.6-1.88,3.39-1.73,4.19s2.14,1.42,3.1,1.84,2.37.76,2.33,1.07-3.36,2.33-3.74,2.87-.2,1.42.84,1.72.95,1.91.76,2.72-.5,3.37,1.83,3.86,8.5-.71,10.51-1.2,3.81-.68,5.07-.17c.81.32,5.45,2.49,6.28,18.78"/><path class="cls-15" d="M468.83,269.28a95.64,95.64,0,0,0-8.89,18.19c-2.32,6.2-5.22,15-5.81,18.64"/><path class="cls-15" d="M468.7,276.76c-2.12,3.19-10,17.48-12.28,23.33s-4.88,12.23-5.44,20.55c-.52,7.74.13,13,2.49,19.19"/><path class="cls-15" d="M471,278.74a48.93,48.93,0,0,0-6.26,13.43c-1.84,6.72-1,12.46,5,2.76,5.69-9.16,15-16.75,17.68-19,3.86-3.31,10.09-8.06,14-9.37"/><path class="cls-15" d="M507.65,266.35c1.38,4.15,5.53,14.23,6.91,19.17s4.59,15.84,5.51,23.87.28,31-.46,38.86-1.09,35.7-.69,41.95"/><path class="cls-15" d="M477.71,304.18c4.82-3.45,16-9.42,26.11-5.41,9.06,3.61,10.91,10.85,10.68,18.43"/><path class="cls-15" d="M499.75,276.22S501,293,501.38,298"/><path class="cls-15" d="M473.41,316.45c-4.77,5.8-22.62,27.12-23.71,27.09-.86,0-5.28-7-5.85-7.94"/><path class="cls-15" d="M443.85,335.6c-4.71,1.34-13.84,8.23-15.27,14.26"/><path class="cls-15" d="M446.83,352.55c-.26,2.3-1.4,10.74-2.15,5.05s2.61-12.11,5-14.06"/><path class="cls-15" d="M449.7,343.54c-.92,2.24-1.38,7.38.63,14.75"/><path class="cls-15" d="M428.58,349.86c2.18,3,11.05,13.63,13.36,16,2.77,2.86,5.2,4.19,8.08,4.62,3.05.46,7-1.12,11.27-3.47,3.24-1.8,15.66-10.71,20.9-14.58,3.88-2.87,24.85-20.61,29.1-24.51"/><path class="cls-15" d="M452.63,370.45c-.63,2.82-2.3,18-3,27"/><path class="cls-15" d="M497.35,339.94c5.36-.7,11.56-2.46,15.77-5.91"/><path class="cls-15" d="M448.21,233.86a3,3,0,0,1-2.53-.86"/><path class="cls-15" d="M449.7,234.52a2.93,2.93,0,0,0,2.07,1.21,3.36,3.36,0,0,1,2.12,1"/><path class="cls-15" d="M450.15,230.31a9.78,9.78,0,0,1,6.68,2.91"/><polygon class="cls-16" points="343.39 265.77 330.22 273.26 340.42 276.3 353.37 268.53 343.39 265.77"/><polyline class="cls-16" points="330.22 273.26 330.22 274.92 340.42 278.13 353.37 270.54 353.37 268.53"/><path class="cls-16" d="M361.1,293.59c-2.25-2.79-10.71-10.52-26.74-10.22l4.59-1.55"/><polyline class="cls-16" points="360.61 294.28 331.83 283.11 335.23 281.89"/><polyline class="cls-15" points="368.72 359.44 348.63 310.88 369.29 282.25 385.53 326.5"/><line class="cls-15" x1="385.53" y1="326.5" x2="424.99" y2="331.61"/><line class="cls-16" x1="409.09" y1="338.42" x2="412.05" y2="338.8"/><line class="cls-16" x1="408.03" y1="340.49" x2="410.99" y2="340.87"/><line class="cls-15" x1="385.53" y1="331.05" x2="372.93" y2="355.73"/><line class="cls-16" x1="416.58" y1="341.67" x2="410.62" y2="353.37"/><line class="cls-16" x1="429.05" y1="350.49" x2="426.22" y2="356.04"/><line class="cls-16" x1="389.4" y1="330.49" x2="376.02" y2="356.69"/><line class="cls-16" x1="392.35" y1="330.87" x2="378.92" y2="357.19"/><line class="cls-16" x1="394.96" y1="331.21" x2="381.48" y2="357.63"/><line class="cls-16" x1="397.92" y1="331.59" x2="384.38" y2="358.13"/><line class="cls-16" x1="400.53" y1="331.93" x2="386.93" y2="358.56"/><line class="cls-16" x1="403.49" y1="332.31" x2="389.83" y2="359.06"/><line class="cls-16" x1="406.1" y1="332.65" x2="392.39" y2="359.5"/><line class="cls-16" x1="409.05" y1="333.04" x2="395.29" y2="360"/><line class="cls-15" x1="383.43" y1="328.45" x2="370.82" y2="353.14"/><line class="cls-15" x1="383.43" y1="328.45" x2="385.53" y2="331.05"/><line class="cls-15" x1="370.82" y1="353.14" x2="372.93" y2="355.73"/><line class="cls-15" x1="371.51" y1="353.98" x2="368.72" y2="359.44"/><line class="cls-15" x1="385.53" y1="326.5" x2="384.11" y2="329.29"/><line class="cls-15" x1="368.72" y1="359.44" x2="426.69" y2="369.37"/><line class="cls-16" x1="410.62" y1="353.37" x2="426.22" y2="356.04"/><line class="cls-15" x1="368.72" y1="362.06" x2="426.69" y2="371.99"/><line class="cls-15" x1="368.72" y1="359.44" x2="368.72" y2="362.06"/><line class="cls-15" x1="426.69" y1="369.37" x2="426.69" y2="371.99"/><line class="cls-15" x1="426.69" y1="369.37" x2="431.78" y2="353.95"/><line class="cls-15" x1="426.69" y1="371.99" x2="432.4" y2="354.7"/><line class="cls-15" x1="376.02" y1="356.69" x2="378.92" y2="357.19"/><line class="cls-15" x1="389.4" y1="330.49" x2="392.35" y2="330.87"/><line class="cls-15" x1="394.96" y1="331.21" x2="397.92" y2="331.59"/><line class="cls-15" x1="400.53" y1="331.93" x2="403.49" y2="332.31"/><line class="cls-15" x1="406.1" y1="332.65" x2="409.05" y2="333.04"/><line class="cls-15" x1="411.66" y1="333.37" x2="414.62" y2="333.76"/><line class="cls-15" x1="381.48" y1="357.63" x2="384.38" y2="358.13"/><line class="cls-15" x1="386.93" y1="358.56" x2="389.83" y2="359.06"/><line class="cls-15" x1="392.39" y1="359.5" x2="395.29" y2="360"/><line class="cls-15" x1="397.85" y1="360.43" x2="400.75" y2="360.93"/><line class="cls-16" x1="401.05" y1="354.17" x2="403.95" y2="354.66"/><line class="cls-16" x1="402.05" y1="352.2" x2="404.95" y2="352.7"/><line class="cls-16" x1="414.62" y1="333.76" x2="412.05" y2="338.8"/><line class="cls-16" x1="410.99" y1="340.87" x2="404.95" y2="352.7"/><line class="cls-16" x1="403.95" y1="354.66" x2="400.75" y2="360.93"/><line class="cls-16" x1="411.66" y1="333.37" x2="409.09" y2="338.42"/><line class="cls-16" x1="408.03" y1="340.49" x2="402.05" y2="352.2"/><line class="cls-16" x1="401.05" y1="354.17" x2="397.85" y2="360.43"/><line class="cls-16" x1="416.58" y1="341.67" x2="429.25" y2="343.32"/><polyline class="cls-15" points="383.43 364.58 343.77 363.35 342.31 399.16 434.74 403.65 425.68 371.93 425.65 371.81"/><polygon class="cls-15" points="299.84 298.89 333.19 293.41 350.12 303.82 314.71 312.09 299.84 298.89"/><ellipse class="cls-15" cx="318.95" cy="336.8" rx="11.07" ry="4.33"/><path class="cls-15" d="M325,354.43c0,1.31-2.7,2.37-6,2.37s-6-1.06-6-2.37"/><line class="cls-15" x1="308.05" y1="337.58" x2="313.01" y2="354.87"/><line class="cls-15" x1="330.02" y1="336.8" x2="324.88" y2="354.87"/><path class="cls-15" d="M328.13,343.44c2.75-2.44,6.07-2.3,6.34.3S331,347.9,330,348.28s-3.19,1-4,2.57"/><line class="cls-15" x1="371.22" y1="287.5" x2="375.81" y2="285.04"/><path class="cls-16" d="M375.28,298.56c2.28.24,8.76,3,11.69,5.32l11.48-4.74"/><path class="cls-16" d="M376,300.63c2.23.27,8.95,3.65,10.58,5.4l14.5-6.25"/><path class="cls-15" d="M104.1,244.37c4.08,4.31,8.44,12.52,10.07,17.16,1.71,4.87,2.69,8,2.69,8s6.55,5.43,8,8.17c1.1,2-3.85,4.21-3.83,4.77s3,4.45,2.73,5.62-5.05,2.08-5.3,3,4.92,2.17,4.87,4-2.66,1.73-2.82,3.3c-.12,1.1.64,4.68-.22,6.62s-4.44,3.2-7,3.75c-3.46.77-8.5.43-11,1-3.61.87-7,7.46-8.74,11.8"/><path class="cls-15" d="M113.47,260.35a11.67,11.67,0,0,0-6,6.41"/><path class="cls-15" d="M103.06,242.11c1.17.48,1.6,1.8.46,3.44a13.88,13.88,0,0,0-2.7,6.77c-.31,3-1.85,7.06-3.82,9s-3.93,3.8-4.21,7.07a46.06,46.06,0,0,0,.58,10.35l-3.82,1.9"/><path class="cls-15" d="M90.26,281.3c-2.54-2.42-4.7-3.71-7.14-3.3s-4.46,4-2.36,7.78,4.87,5,7.35,8c1.81,2.19,4.49,1.68,4.83-.08a10.58,10.58,0,0,0-.6-4.76"/><path class="cls-15" d="M79.89,282.27c-1.58.59-3,4.69-3.17,7.15s-3,6.65-6.49,7.62-14.57,2-16.91,1.64-3.4-.63-3.82-2.16c0,0-3-1.39-3.06-4.22,0,0-4.16-.51-4.29-5.53,0,0-3.19-1.3-2.44-4a6.58,6.58,0,0,1-3.48-7.3s-3.39-1.78-1.61-6.84c0,0-2.82-5.19.29-9.53,0,0-3.26-3.79.59-7.21,0,0-1.54-5.34,3.11-6.87,0,0-.1-7.14,6.65-6.51,0,0,.55-4.86,5.25-3.74,0,0,.37-4.63,6.26-3.38,0,0,2.46-4.09,8.29-1.69a5.89,5.89,0,0,1,7.14-1.07,5.46,5.46,0,0,1,7.22.48s3.85-2.57,6.68-.13c0,0,3.44-1.61,4.94,1,0,0,3-.37,3,2,0,0,3.12-1.29,3.73,1.75a2.76,2.76,0,0,1,3.45,2.7s4,1.93,1.81,5.64"/><path class="cls-15" d="M52.64,298.57a27,27,0,0,1-.55,10.5"/><path class="cls-15" d="M45.35,306.27c4.73,3,14.47,4.61,18.83,5.59s16.93,4.77,22.5,6.83c6.2,2.3,15.88,6.54,20,10.22a4,4,0,0,1,1.09,3.73c-.29,1.72-.9,5.28-1.79,8.49"/><path class="cls-15" d="M52.67,306.27c-3.16-.29-6.61-1.13-7.47.19s-1.91,4.83-2.49,6.66"/><path class="cls-15" d="M46.46,317a75.11,75.11,0,0,0,20.44,9.64c7.42,2,16.68,3.9,23.11,6.28s13.69,5.83,19.74,11.25,15,9.87,20.36,15.45,17.07,19.07,22.42,25c14.77,16.45,32.4,26.46,33.4,28.22s4.21,11.88,2.72,19.15"/><path class="cls-15" d="M185.93,412.84c3.71-.75,27.4-14.37,30.9-16.44s11.69-7.19,12.3-7.57"/><path class="cls-15" d="M243.52,405.43c-2.37,3.45-8.8,11.18-9.64,11.71a2.15,2.15,0,0,1-1.53.38s-20.59,17.76-25.1,21.51-10.12,8.9-15.62,10c-6.5,1.31-16.66.13-24.48-2-11.64-3.13-34.82-12.14-41.64-14.92-5-2-39.25-16.91-43.54-18.67"/><path class="cls-15" d="M186.61,412.64c4.75,2.24,8,8.6,8.58,16.32s-2.9-4.4-4.21-6.39"/><path class="cls-15" d="M229.13,388.83c7.2.86,13.59,10.17,14.39,16.6"/><path class="cls-15" d="M220.52,398.18c5.28,2.65,10.56,8.21,11.77,18"/><path class="cls-15" d="M230.65,389.14c2.61-1.06,9.16-6.62,10.53-8.09a70.76,70.76,0,0,1,7.84-7.58c2.58-1.92,7.45-4.56,10.63-5.13,1.87-.34,11.82-1.76,14.1,0"/><path class="cls-15" d="M260.83,371.49c1.88-.58,5.95-2.06,7.73-2.58a32.61,32.61,0,0,1,7.18-.57c1.95,0,4.58,0,4.78.8.26,1.08-.92,2.09-3.08,2.35-.82.11-5.78.94-7.48,1.48a22.31,22.31,0,0,0-4.54,2.6"/><path class="cls-15" d="M265.42,375.57c2-.21,4.8-1.49,6.54-1.91a37,37,0,0,1,5.56-.73,46,46,0,0,1,5.42-.35,1.27,1.27,0,0,1,.89,2c-.54,1-2.46,1.67-3.81,2.1s-4.75.81-6,1.38a29.07,29.07,0,0,0-4.27,2c-.69.52-.66,1.47,1.75,1s6-1.39,7.43-1.71c1.61-.37,4.48-1.15,5.25-.83s.74,1.4,0,2a24.59,24.59,0,0,1-6,2.68c-1,.34-5.51,1.46-6.89,2.06s-3.32,4.23-8.7,7.23c-6.48,3.62-12.78,3.49-14.8,4.16s-5.56,4.2-5.56,4.2"/><path class="cls-15" d="M248,349.83c-3.62,3.87-16.91,15.89-22.5,20.63s-21.74,18.37-21.74,18.37l16.4,5.59"/><path class="cls-15" d="M282.91,378.48a157.07,157.07,0,0,0,13.34-16.74"/><path class="cls-15" d="M242.7,402.11c2,1.3,9.24,3.17,12.72,4.36,0,0,11.84-11,23.43-23.53"/><path class="cls-15" d="M248,349.83c5.11,2.64,17.55,6.57,24.91,8.48,7.92,2.05,16.18,3.71,23.38,3.43"/><path class="cls-15" d="M125.79,355.8c-6.05-2-32.31,4.43-34.52,52.31"/><path class="cls-15" d="M102,422.08c-13.34-1.69-21.09-.54-28.55,1.53s-7.26,4.76,3.21,3.9C85.87,426.76,90.2,425,90.2,425"/><path class="cls-15" d="M122.72,431c.92,7.22.57,28.91,0,35.34"/><path class="cls-15" d="M42.71,313.12c-4.42,1.44-12.2,2.13-18.42,10.16-6,7.76-8.75,25.92-9.7,36.05-1.64,17.46-4.44,52.07-2,81.92"/><path class="cls-15" d="M130,275.74c0,1.42.07,3.39,0,4.74"/><path class="cls-15" d="M446.93,369.59a85.29,85.29,0,0,1-17,17.29"/><path class="cls-15" d="M387.25,272.91c6.53,2.51,12.7,5.21,18.46,8.1"/><path class="cls-15" d="M325.67,257.16c11.21,1.7,22,3.87,32.14,6.47"/><path class="cls-15" d="M221.45,255.5c5.07-.59,10.23-1.09,15.45-1.48"/><path class="cls-15" d="M122.24,284.55q6.77-3.76,14.37-7.17"/><path class="cls-15" d="M405.16,402.22c-34.52,17.15-83.5,27.85-137.83,27.85a397.86,397.86,0,0,1-46.44-2.68"/><path class="cls-15" d="M419.28,402.9c-34.51,21.69-89.72,35.74-151.95,35.74a392.65,392.65,0,0,1-55.12-3.82"/><path class="cls-15" d="M451.56,370.56c-4.19,8.27-10.86,16.09-19.62,23.29"/><path class="cls-15" d="M177.41,216.15A145.45,145.45,0,0,1,178.68,231a192.33,192.33,0,0,1-1.32,28.32"/><path class="cls-16" d="M365.61,271.67,334.05,282s19-2.52,27.63,10.79"/><path class="cls-15" d="M503.09,265.94c.48-.17,1.4-.41,1.4-.41"/><path class="cls-15" d="M183.29,216.3l3.92.34a199.33,199.33,0,0,1-2.8,40.71"/><path class="cls-15" d="M182.71,204.15c1.34,2.87,3.78,8.32,4,9.74l-3.53,2"/><path class="cls-15" d="M442.51,209.08c1.08.5,3.2,1.43,3.2,1.43"/><path class="cls-15" d="M442.63,299A41.33,41.33,0,0,0,458,293"/><path class="cls-15" d="M275.71,172.62a43.65,43.65,0,0,1,1.6,6.86"/></g></svg>