<svg xmlns="http://www.w3.org/2000/svg" xmlns:xlink="http://www.w3.org/1999/xlink" viewBox="0 0 536 536"><defs><style>.cls-1,.cls-10,.cls-9{fill:none;}.cls-2,.cls-6{fill:#30d9cb;}.cls-3{fill:#fd0;}.cls-4,.cls-5{fill:#fff;}.cls-5{fill-rule:evenodd;}.cls-6{opacity:0.45;}.cls-7{clip-path:url(#clip-path);}.cls-8{fill:#28b8ce;}.cls-9{stroke:#28347d;stroke-linecap:round;stroke-linejoin:round;stroke-width:1.7px;}.cls-10{stroke:#fff;stroke-miterlimit:10;stroke-width:2.37px;}.cls-11{clip-path:url(#clip-path-2);}.cls-12{clip-path:url(#clip-path-3);}.cls-13{clip-path:url(#clip-path-4);}.cls-14{clip-path:url(#clip-path-5);}</style><clipPath id="clip-path"><circle class="cls-1" cx="405.32" cy="278.86" r="76.15"/></clipPath><clipPath id="clip-path-2"><circle class="cls-1" cx="446.97" cy="80.93" r="76.15"/></clipPath><clipPath id="clip-path-3"><circle class="cls-1" cx="376.15" cy="453.35" r="76.15"/></clipPath><clipPath id="clip-path-4"><circle class="cls-1" cx="124.03" cy="357.56" r="76.15"/></clipPath><clipPath id="clip-path-5"><circle class="cls-1" cx="91.01" cy="125.98" r="76.15"/></clipPath></defs><title>imag_ocensa_2_gobierno_corporativo_instrumento_toma_decisiones</title><g id="Figuras_fondo" data-name="Figuras fondo"><path class="cls-2" d="M136,106.05c64.62-55.36,114.27-67.51,184.09-5.32S568.84,145,476.25,391.56-88.06,298,136,106.05Z"/><path class="cls-3" d="M133,140.29c18.44-20,60.77,56.7,146.42-52.17s229.56,118.4,60.8,200S78.87,199,133,140.29Z"/></g><g id="Logo"><path id="Path_2911" data-name="Path 2911" class="cls-4" d="M250.84,232.57H232.91V204.25h17.93v4.06H237.9v8.08h11.16v4.05H237.9v8h12.94Z"/><path id="Path_2912" data-name="Path 2912" class="cls-4" d="M254.14,197.07l19,26.86V204.24h5v36.29L259.06,213.3v19.27h-4.92Z"/><path id="Path_2913" data-name="Path 2913" class="cls-4" d="M289.94,233a9.6,9.6,0,0,1-3.23-.53,10.28,10.28,0,0,1-2.79-1.49,11.8,11.8,0,0,1-2.27-2.25A14.92,14.92,0,0,1,280,226l3.47-2.87a8.86,8.86,0,0,0,1.05,1.78,17.22,17.22,0,0,0,1.6,1.91A9.44,9.44,0,0,0,288,228.3a3.83,3.83,0,0,0,2,.6,6.37,6.37,0,0,0,2.48-.4,4,4,0,0,0,1.51-1,3.17,3.17,0,0,0,.74-1.23,4,4,0,0,0,.19-1.14,5.52,5.52,0,0,0-.12-1.14,3.54,3.54,0,0,0-.62-1.35,6.56,6.56,0,0,0-1.56-1.46,14.19,14.19,0,0,0-2.9-1.49,36.38,36.38,0,0,1-4.41-2.11,13.34,13.34,0,0,1-2.72-2,5.87,5.87,0,0,1-1.39-2,6.16,6.16,0,0,1-.39-2.25,7.9,7.9,0,0,1,.48-2.64,6.94,6.94,0,0,1,1.58-2.53,8.35,8.35,0,0,1,2.88-1.88,11.59,11.59,0,0,1,4.44-.75,9.6,9.6,0,0,1,5.89,1.74,11.05,11.05,0,0,1,3.58,4.9l-4.23,1.35a5.24,5.24,0,0,0-5.24-3.67,5.12,5.12,0,0,0-3.12.79,2.53,2.53,0,0,0-1,2.09,2.13,2.13,0,0,0,.54,1.42,6.23,6.23,0,0,0,1.46,1.2,15.78,15.78,0,0,0,2.16,1.12l2.67,1.13a16.23,16.23,0,0,1,3.81,2.24,9.24,9.24,0,0,1,2.09,2.36,7.14,7.14,0,0,1,.88,2.37,14.47,14.47,0,0,1,.19,2.18,8.57,8.57,0,0,1-.47,2.51,7.92,7.92,0,0,1-1.58,2.74,8.69,8.69,0,0,1-3,2.18A11.22,11.22,0,0,1,289.94,233Z"/><path id="Path_2914" data-name="Path 2914" class="cls-4" d="M321.12,232.57l-3.3-7.66h-10.4c-.52,1.2-1.07,2.5-1.65,3.87s-1.1,2.64-1.6,3.79H299l13.65-31.3,13.75,31.3Zm-5-11.8-.9-2.2c-.27-.64-.52-1.26-.77-1.88l-.81-2c-.29-.71-.64-1.59-1.05-2.65-.55,1.4-1.12,2.8-1.71,4.21s-1.2,2.91-1.81,4.52Z"/><path id="Path_2915" data-name="Path 2915" class="cls-5" d="M183.23,200.82c-.1.23-.51.15-.84.16C182.43,200.69,182.94,200.86,183.23,200.82Zm5.65-.44c-.29,0-.73-.34-.85-.08.31.08.69.27.85.08Zm-5.13.08c-.23-.07-.72-.15-.84.25.33-.2.6,0,.84-.25Zm3,.25a3.84,3.84,0,0,0-2.27.25c.05,0,.4.19.42,0-.42,0,.27-.16.42-.17-.07.35,1.28.16,1.43-.08Zm-10.35,4.07c0-.24.28-.23.34-.42C176.52,204.37,176.07,204.66,176.43,204.78Zm20,10.64a8.75,8.75,0,0,0,.16,1.91A4.74,4.74,0,0,0,196.45,215.42Zm-15.31-14.3c.55-.18,1.13-.33,1.68-.5A2.79,2.79,0,0,0,181.14,201.12Zm4,.08c-.71-.06-1.1.19-1.77.17-.26.24-.82.19-1.09.42C183.3,201.62,184.15,201.33,185.18,201.2Zm-11.52,4.74c0,.13-.36.35-.17.42a15.87,15.87,0,0,1,4.79-4,12.66,12.66,0,0,0-5.29,4.24A3,3,0,0,1,173.66,205.94Zm21.61-2.08c.37.21.93.7.5.34,0,0-.26-.46-.5-.34Zm-22.45,1.75c.57-.09.86-1.09,1.08-1.35a3.86,3.86,0,0,0-.66.68v-.24c-.4,0-.38.45-.59.66C172.94,205.29,172.94,205.49,172.82,205.61Zm1.08-1.35.1-.06S173.93,204.22,173.9,204.26Zm1.78,1.1c0-.28.67-.38.42-.66C176.09,205,175.43,205.09,175.68,205.36Zm5.13.33c-.33,0-.43.42-.59.09-.15.17.06.16-.09.33A1.42,1.42,0,0,0,180.81,205.69Zm-6.9,1.33c.16-.31.74-.65.67-.91C174.33,206.33,173.88,206.8,173.91,207Zm-1.43.25c-.16.26-.61.67-.5.92.15-.28.58-.7.5-.92ZM171.05,211c.18-.65.77-1.34.84-1.82a5.5,5.5,0,0,0-.84,1.82Zm1.27-1.24c-.07.29-.57.6-.34.91,0-.34.46-.7.34-.91Zm22.53,1.83c0-.24-.34-.59-.26-.42s.33.89.25.42Zm.08.49c.31.42.33,1.12.68,1.5C195.41,213.11,195.25,212.17,194.93,212.09Zm-.33,11.73a12.06,12.06,0,0,0,1.34-8.32c.22.05.3,0,.25-.25-.49-.17-.3-1-.58-1.41v.25c1.25,4.54-.33,9.47-2.86,11.8A4.5,4.5,0,0,0,194.6,223.82Zm-19.51-2.17c.12.28.31.91.59.75C175.38,222.26,175.36,221.83,175.09,221.65Zm1,1.83c0,.26.39.55.5.42-.22-.09-.28-.33-.5-.42ZM193,226a2.18,2.18,0,0,0-1.1.91,1.54,1.54,0,0,1,.76-.41c-.27-.23.31-.3.34-.5Zm-.84.83c-.1.24-.77.34-.59.58.09-.24.82-.29.59-.58Zm-5,5.23c.27,0,.84-.21.75-.33-.31.12-.57,0-.76.34Zm-2.27-31.67c0-.12,0-.29.16-.25s-.1.13.09.25c.82-.27,1.4,0,2.27-.16-.41,0-.43-.08-.26-.34a3.32,3.32,0,0,0-3,.59C184.42,200.42,184.78,200.25,184.93,200.37ZM176,224.57s0,0,0,.05l.09.07Zm1,1.06c.12.23.4.65.62.64a1.37,1.37,0,0,0-.62-.64Zm12.31,6.5s-.09,0-.09.08l.09-.07h0Zm12.61-8.9c-.43.8-.55,1.9-1.26,2.42,0,.16.23.1.17.33a17,17,0,0,1-2.95,3.91c.57.17-.9.75-1,1.32a.65.65,0,0,0-.51,0c-.19.84-1.38.69-1.6,1.5a20.71,20.71,0,0,1-6,2.08c1.91-.75,4.11-1.2,5.54-2.41-.1-.18-.34.21-.58.17v0a20.37,20.37,0,0,1-3.28,1.43c1.78-1.06,3.76-1.93,5.13-3.41-.48,0-.55.51-1,.58a18.16,18.16,0,0,0,3.78-3.9,15.83,15.83,0,0,1-3.61,3.24c.12-.37.58-.42.75-.75a22.71,22.71,0,0,1-5,3,20,20,0,0,0,2.78-1.74c-1,.27-2.08,1.1-3.2,1.49-.08-.28.73-.39,1-.58-.92,0-1.79.77-2.86.91a8.44,8.44,0,0,1,1.26-.58c0-.06-.09-.08-.16-.07h0c1-.83,2.5-1.53,3.67-2.45a6,6,0,0,0,.7-.63,28.82,28.82,0,0,1-2.94,1.71c.11.06.22,0,.2.09a3.27,3.27,0,0,0-.88.17l-.08,0h0c-.61.2-1.2.46-1.58.32A9.43,9.43,0,0,0,190,231c-.08-.11-.34.1-.65.1l.43-.28c-.79.19-1.47.66-2.44.38-1,.36-2.25,0-3.3.16.33,0,.71.2,1,.08,1.06.79,2.6-.25,3.32.2-1,.21-2.16.22-3.22.38.11.09.24,0,.23.11A13.5,13.5,0,0,1,183,232c.84.3,1.85.16,2.51.57a2,2,0,0,0-.94,0c.12.1.42-.08.38.17a30.51,30.51,0,0,0-3.13-.22,9.46,9.46,0,0,0,2.62.53c.63.06,1.46-.16,1.85.19-.52.05-.68.42-1.28,0-.16.52-.5-.17-.63.17.41.23,1.38,0,1.86.38a4.84,4.84,0,0,0-1.47,0c.77.49,1.56.12,2.24.54-.63.18-1.49-.23-2,.2a6.76,6.76,0,0,1,1.74,0c-.92.27-2.07-.08-3.05,0-.44-.38-1-.23-1-.08a3.9,3.9,0,0,0-1.82-.26,19,19,0,0,1-7.88-4.35c1.15,1.54,3.26,2.67,4.92,3.76a13.16,13.16,0,0,1-3.79-2.19.24.24,0,0,0-.14-.12l.14.12a.22.22,0,0,1,0,.14,15.6,15.6,0,0,1-4.08-5,15.31,15.31,0,0,1-2.57-5.31.25.25,0,0,1,.12.08h0a12.52,12.52,0,0,1-.46-2.78,13,13,0,0,1,0-1.53c.32,1.94.49,4.31,1.43,6a18.61,18.61,0,0,1-.75-8.89,3.76,3.76,0,0,0,.5-1.75c.14.07.51-.37.34-.91.48-.85.63-2,1.26-2.75a7,7,0,0,1-.67,1.59c.61-.31.58-1.25,1-1.74.11.78-.56,1.34-.42,2.24a4.64,4.64,0,0,0,.58-1.33c.2.6-.45,1.36-.42,1.83.38,0-.12-.57.42-.5-.16-.73.25-.71.51-1.16.17.49-.38,1.15-.59,1.74a9.13,9.13,0,0,0-.59,2.58,29.59,29.59,0,0,0,1.09-2.91c.25.07,0,.26,0,.41.24-.18.3-.53.42-.83.11.77-.43,1.62-.5,2.5.34-.64.4-1.55.84-2.08.13,0,0,.1,0,.25.59-.9,1.06-1.89,1.68-2.74.12.82-1.47,1.79-1.17,3.07-.23.19-.23.61-.34.92.61-.87.77-2.18,1.51-2.91.18-1.24,1.26-1.59,1.69-2.58-.48.17-1,1-1.44,1.5.05-.61,1.15-1.28,1.52-2.08.12,0,0,.1,0,.25,1.74-2,4.56-2.86,7.23-3.91-.07-.24-.21.11-.42,0,.21-.21.75-.25.67-.5,6.41-1.46,12.7,2.3,15.47,6.24.05-.18-.51-1.31-.67-1-.78-2.24-3.07-3.67-5.05-4.82,1.1.12,2.93,1.6,4,1.74-.17-.58-.8-.69-1.35-1.08.65-.14,1.12,1.06,1.85.83,0,0,.27.64.42.25a19.1,19.1,0,0,1,5.3,12.47,18.44,18.44,0,0,1-1.09,6.82c.25-.09.11-.56.42-.59Zm-28.83-.48.26-.15a2,2,0,0,0,.58,1.36c0-.09-.12-.21-.09-.31a5,5,0,0,1,.5.84,3.52,3.52,0,0,1,.3.45.15.15,0,0,1-.07,0,1.72,1.72,0,0,0,.91.87,8.35,8.35,0,0,1-.79-1.35,1.42,1.42,0,0,1-.74-1.09,11.18,11.18,0,0,1-1-1.68,2,2,0,0,0,.18,1.09Zm.9.16c-.08.05-.08.13,0,.23,0-.08,0-.15,0-.23Zm1.87,3.4h0v0Zm.11-.87a5.88,5.88,0,0,0-1.1-.89c.18.37.35.7.53.54.24.15.21.59.57.35Zm-8.27-3.87a.34.34,0,0,0,0-.1h0l0-.05C167.66,221.46,167.67,221.52,167.69,221.57Zm5.14,8.5a1.47,1.47,0,0,0-.47-.58c0,.25.28.4.48.58Zm3.25-3.48c-.06-.07-.11-.15-.17-.23h-.08l-.1.09a2.28,2.28,0,0,0,.36.15Zm1.4,3c.07-.3-.51-.36-.77-.53.07.25.44.38.77.53Zm5.44,2.43c0-.28-.44-.08-.64-.2C182.32,232.1,182.72,231.9,182.92,232Zm2.45-2.74c.5,0,.78.28,1.25.1.06-.14-.23-.16-.13-.33,1-.19,2.56.1,2.92-.52a1,1,0,0,0,.58.09l.19-.11a.72.72,0,0,0,.2-.28c.43.23.67-.06,1-.15a1.9,1.9,0,0,0,.21-.19.13.13,0,0,0-.1,0h0l-.09,0-.34.25.24-.19.09-.06h0a13.83,13.83,0,0,0,5.36-8.91s0,0,0,0c0-.28.06-.57.08-.87a.78.78,0,0,0,0-.16c0-.28,0-.58,0-.87v-.19c0-.28,0-.57-.05-.86,0-.08,0-.16,0-.25,0-.37-.09-.75-.16-1.14a12.86,12.86,0,0,0-4-7.4c-.45.16,0-.16-.42,0a9.32,9.32,0,0,0-1.18-1c-3.73-1.93-9-.73-11.94,1.5-.14,0-.16-.06-.17-.17-.57,1-1.87,1.37-2.27,2.58-.12,0,0-.25-.17-.25-.47.61-.59,1.23-1.09,1.91,0,0,0,0,0,.05h.06s0,0,0,0,0,0,0,0h0a.25.25,0,0,1,0,.07l-.06.22s0,0,0,0c-.21.58-.56,1.22-.74,1.86v0c0,.11,0,.22-.07.33a6.31,6.31,0,0,1,.25-1.83c.72-2.48,2.85-4.36,4.79-5.65.24.19,1.74-.64,2.53-1.08A7.21,7.21,0,0,1,185,204.7c-1.24-.22-2.35.55-3.28.58,0-.43.11-.37.25-.58a5.26,5.26,0,0,0-2.27.83,8.05,8.05,0,0,1,3-1.5c-.18-.35-.64.19-1,.17,0-.22.33-.12.34-.33-.25,0-.26.19-.51.16.12-.33.58-.31.84-.5-3.32.52-5.76,3.18-7.73,5.57.08.16.33-.22.42-.33,0,.33-1,1.11-1.09,1.83a21.06,21.06,0,0,1,3.36-4.16c.15.06,0,.15,0,.25.38.07.2-.41.5-.41-.1.56-.59.74-.75,1.24.36-.09.32-.57.84-.5-.1.49-.71.47-.67,1.08-.5,0-.67.29-.68.75-.71.07-1.07,1.55-1.68,2.41-.19,0-.09-.24-.25-.25-.36.36-.26.7-.42,1.17-.48-.29-.62,1.51-1,2.24.29-.34.11.6.08.83-.18,0,0-.29-.08-.41a.72.72,0,0,0-.17.58c.1,0,.15,0,.17.08.26,0,0-.41.33-.33-.07.14-.1.49.09.25a19.2,19.2,0,0,0,.42,4.07,12.35,12.35,0,0,1-.59-2.08,6.47,6.47,0,0,0,1.93,5.07c0,.13-.07,0-.16,0,.09.28.38.34.5.59a1.44,1.44,0,0,1-1.09-.67c.33,1,1.63,1.83,2.52,2.58a3.71,3.71,0,0,1-1.2-.45l0,0a.12.12,0,0,1,0-.05l-.14-.08h0v0a5.11,5.11,0,0,1-1.9-2.19c-.35.23,0,.38.08.65v0c.32,1.07,1.25,1.11,2,1.76a7.47,7.47,0,0,0,4.21,3.18,13.12,13.12,0,0,1-1.68-1.38,20.47,20.47,0,0,0,3.58,2.05c-.3.08,0,.19.2.18-.05.31-.38-.09-.45.17.05,0,.06.1,0,.18a.73.73,0,0,0,.61.09c-.1-.09-.44-.09-.35-.24.23.07,1.17.29.73.41.83,0,2.55.57,2.48,0Zm7.88-2.14a4.41,4.41,0,0,0-1.41,1.31l.15,0a7.69,7.69,0,0,0,1.26-1.29Zm-5.66,2c.13.33.55,0,.79.08-.09-.23-.54,0-.8-.08Zm0,1.3c-.4-.22-1.14.12-1.69.06.41.24,1.16,0,1.69-.06Zm1.1-.48.21-.15-2.22.4c.64.15,1.6-.27,2-.25Zm-.36.26a4,4,0,0,1,1.37-.09l1.2-.85c-.45.15-.91.28-1.37.39a1.07,1.07,0,0,0-.36.43c-.29-.19.23-.23.24-.4h0c-.32.17-.66.31-1,.48l.2-.16c-.17,0-.35.1-.28.2Zm6.89-3.86a16.67,16.67,0,0,1-5.19,3.82,3.19,3.19,0,0,1,.44.13A17.69,17.69,0,0,0,195.27,226.31Zm-1.43,6.15c-.05,0-.12,0-.15,0Z"/><path id="Path_2916" data-name="Path 2916" class="cls-4" d="M229.19,226.65l-1.89-2h0l-.36-.38a10,10,0,1,1-2.19-14,10.13,10.13,0,0,1,2.23,2.25l3.2-3.48a14.66,14.66,0,1,0-2,20.63,14.12,14.12,0,0,0,2-2.05Z"/></g><g id="LIN"><circle class="cls-6" cx="402.53" cy="270.5" r="76.15"/><g class="cls-7"><path class="cls-2" d="M389.77,303.75a80.07,80.07,0,0,0,8.69,19.59c-7.86-10-12.61,8.53-12.61,8.53-3.45-15.26-1.16-25.71,1.55-32.35a46.48,46.48,0,0,1,2.73-5.55A89.31,89.31,0,0,1,389.77,303.75Z"/><path class="cls-2" d="M428.33,296c2.57,6.62,5.28,18.93-.4,36.82,0,0-2.33-23.45-12.84-8.21,5.18-7.49,9.59-16,11.62-22.35a94.78,94.78,0,0,1-.82-11.38A39.45,39.45,0,0,1,428.33,296Z"/><path class="cls-2" d="M400.68,326.85a76.82,76.82,0,0,0,6.1,8A73.46,73.46,0,0,0,415,324.73a.24.24,0,0,1,.06-.08c10.51-15.24,12.84,8.21,12.84,8.21,5.68-17.89,3-30.2.4-36.82,6.78,3.81,20.14,9.35,28.33,14.56s12.8,9.33,16.26,13.57c7.28,8.95,7.14,35.62,7.16,43.85H340.92c.07-11.83-.93-33.15,6.6-41.33,5.52-6,32.45-22.95,39.88-27.17-2.71,6.64-5,17.09-1.55,32.35,0,0,4.75-18.55,12.61-8.53C399.15,324.51,399.9,325.69,400.68,326.85Z"/><path class="cls-4" d="M425.89,290.92a94.78,94.78,0,0,0,.82,11.38c-2,6.3-6.44,14.86-11.62,22.35a.24.24,0,0,0-.06.08,73.46,73.46,0,0,1-8.25,10.11,76.82,76.82,0,0,1-6.1-8,24.83,24.83,0,0,0-2.22-3.51,80.07,80.07,0,0,1-8.69-19.59,89.31,89.31,0,0,0,.36-9.78,57.76,57.76,0,0,0-.47-7.5c4.13,5.83,9.8,8.66,15.14,8.84,5.64.19,13.95-3.09,19.23-11.66a27.78,27.78,0,0,0,2.06-4.12C425.85,282.64,425.8,286.84,425.89,290.92Z"/><path class="cls-4" d="M414.22,274.12c-.43.69-3.1,3.95-6.23,4.41a28,28,0,0,1-7.47-.27c-2.44-.45-5-3.79-5.38-4.53C397.16,274.06,409.44,274.79,414.22,274.12Z"/><path class="cls-8" d="M392.12,233.48c-4.24,2.66-7.35,4.49-8.18,23.19a4.88,4.88,0,0,0-1.81-1.73c-.28-4.11-1-15.59.95-20.18,1.47-3.51,3.59-4.53,3.59-4.53a6.4,6.4,0,0,0-2.73-.37c1.93-2.11,5.71-3.1,5.71-3.1a11.7,11.7,0,0,0-4,0c2.67-3.23,14.15-10,26.37-9.25s16.81,8.94,16.81,8.94a3.1,3.1,0,0,0,2.49,0,2.2,2.2,0,0,1-1.24,2.6,3.48,3.48,0,0,0,2.32.87,2.31,2.31,0,0,1-1.77,1.12c2.79,2.86,4.53,18.92,2.93,26.26-1.73.5-2.61,3.3-3.17,5.08h-1.3c.24-2.82,1.86-19.24-4.09-25.62a10.63,10.63,0,0,0-4.9-2.73,20,20,0,0,0-6.44-.66h0a16.15,16.15,0,0,0-5.3,1.15h0a8.62,8.62,0,0,0-2,1.16C401.82,232.16,395.64,231.28,392.12,233.48Z"/><path class="cls-4" d="M384.35,272.12h0c-2.5,4.9-3.91-6.74-4.66-9.95-.89-3.91.19-8.24,2.45-7.23a4.88,4.88,0,0,1,1.81,1.73c.83-18.7,3.94-20.53,8.18-23.19,3.52-2.2,9.7-1.32,14.22,2.21a8.62,8.62,0,0,1,2-1.16h0a16.15,16.15,0,0,1,5.3-1.15h0a20,20,0,0,1,6.44.66,10.63,10.63,0,0,1,4.9,2.73c6,6.38,4.33,22.8,4.09,25.62h1.3c.56-1.78,1.44-4.58,3.17-5.08a2.15,2.15,0,0,1,1.3,0c2.6.88,1.21,7.06,0,10.66s-5.36,9.88-6.93,5h0a33.57,33.57,0,0,1-1.83,6.51,27.78,27.78,0,0,1-2.06,4.12c-5.28,8.57-13.59,11.85-19.23,11.66-5.34-.18-11-3-15.14-8.84-.23-.32-.46-.67-.69-1C386.46,281.53,385.08,276.5,384.35,272.12ZM408,278.53c3.13-.46,5.8-3.72,6.23-4.41-4.78.67-17.06-.06-19.08-.39.35.74,2.94,4.08,5.38,4.53A28,28,0,0,0,408,278.53Z"/><path class="cls-9" d="M394.24,254.15c0,.47-.18.86-.41.86s-.42-.39-.42-.86.18-.85.42-.85S394.24,253.68,394.24,254.15Z"/><path class="cls-9" d="M417.19,254.63c0,.47-.19.86-.42.86s-.42-.39-.42-.86.19-.85.42-.85S417.19,254.16,417.19,254.63Z"/><path class="cls-9" d="M406.34,235.69c-4.53-3.54-10.69-4.41-14.22-2.2-4.24,2.65-7.35,4.48-8.18,23.18"/><path class="cls-9" d="M406.34,235.69c4.35-3.41,14.74-3.17,18.69,1.07,6,6.38,4.33,22.8,4.08,25.61"/><path class="cls-9" d="M383.45,263.74c.18,4,1,14.64,5.52,21.71,4.17,6.51,10.18,9.68,15.83,9.86s13.95-3.09,19.23-11.65c4-6.43,4.34-13.78,4.46-15.21"/><path class="cls-9" d="M426.08,279.53c-.5,6.55-.17,17.93.64,22.77"/><path class="cls-9" d="M383.94,256.67c-3.43-4.84-5.37.66-4.26,5.5.75,3.22,2.15,14.85,4.66,9.95"/><path class="cls-9" d="M427.93,273c1.57,4.88,5.69-1.41,6.93-5s2.63-9.78,0-10.65-3.78,2.85-4.46,5h-1.31"/><path class="cls-9" d="M433.58,257.3c1.62-7.34-.12-23.41-2.91-26.26a2.3,2.3,0,0,0,1.76-1.12,3.42,3.42,0,0,1-2.32-.87,2.2,2.2,0,0,0,1.24-2.6,3.08,3.08,0,0,1-2.48,0s-4.6-8.13-16.82-8.94-23.7,6-26.37,9.25c0,0,2.79-.44,4,0,0,0-3.78,1-5.71,3.1a6.4,6.4,0,0,1,2.73.37s-2.12,1-3.59,4.53c-1.93,4.59-1.23,16.07-.95,20.18"/><path class="cls-9" d="M412.42,249.47c2.49-.31,9.19.12,11.92,1.3"/><path class="cls-9" d="M399.15,248.66a37.48,37.48,0,0,0-11.48.71"/><path class="cls-9" d="M402.93,252.82c-.56,1.67-3.72,11.6-3.23,12.84s7.64,1.18,9.75.81"/><path class="cls-9" d="M395.14,273.73c2,.32,14.31,1.06,19.08.39"/><path class="cls-9" d="M395.14,273.73c.34.75,2.94,4.08,5.38,4.53a28.44,28.44,0,0,0,7.47.28c3.13-.47,5.8-3.73,6.23-4.42"/><path class="cls-9" d="M401.61,282.31c.87.37,4.42.91,6.08,0"/><path class="cls-9" d="M399.83,225.35c5.75-.49,14.64,4.41,8.54,9.18"/><path class="cls-9" d="M404.75,222.37c5.58-.2,18.16,8.23,8.94,11"/><path class="cls-9" d="M411.49,220.6c6,.66,19.22,13,8.64,13.43"/><path class="cls-9" d="M406.78,334.84c10.57-10.59,21.34-31.18,21.15-38.8"/><path class="cls-9" d="M388.91,299.52c.74,6.62,6.7,22.5,17.87,35.32"/><path class="cls-9" d="M389.66,286.47c.74,4.69.49,14.43.11,17.28"/><path class="cls-9" d="M390.13,294c-3.18,5.54-8.92,17.37-4.28,37.89,0,0,5.67-22.16,14.87-5"/><path class="cls-9" d="M425.89,290.92c1.65,3.06,9.93,17.12,2,41.94,0,0-2.33-23.54-12.9-8.13"/><path class="cls-9" d="M387.4,299.52c-7.43,4.22-34.37,21.17-39.88,27.17-7.53,8.19-6.53,29.5-6.59,41.33"/><path class="cls-9" d="M428.33,296c6.78,3.81,20.14,9.35,28.33,14.56s12.8,9.33,16.26,13.57c7.29,8.95,7.14,35.62,7.16,43.85"/></g><circle class="cls-10" cx="405.32" cy="278.86" r="76.15"/><circle class="cls-6" cx="441.19" cy="86.56" r="76.15"/><g class="cls-11"><path class="cls-2" d="M430.15,111.43c-4.24,4.46-9.8,10.19-11.84,13.73l2.9,2.22-3.28,1.15s-12.12,35.11-13.85,47.24h-8.66c.28-6.47,5.58-47.9,14.55-54.72C417.19,115.55,424.35,113.76,430.15,111.43Z"/><path class="cls-2" d="M434.78,106.33c0,1.38.05,2.79,0,4.22-.89,1.34-3.23,5.67-6.17,11.74h0c-6.67,13.74-16.47,36.4-19.81,53.47h-4.71c1.73-12.13,13.85-47.24,13.85-47.24l3.28-1.15-2.9-2.22c2-3.54,7.6-9.27,11.84-13.73.83-.86,1.6-1.69,2.29-2.43C433.42,107.94,434.23,107,434.78,106.33Z"/><path class="cls-8" d="M458.23,125.16c-6.34,16.1-14.41,36.36-17.31,50.61H408.79c3.34-17.07,13.14-39.73,19.81-53.47C429.22,129.64,443,136.77,458.23,125.16Z"/><path class="cls-2" d="M475.53,109.79c.8,2.1-4.75,16.46-4.75,16.46l-6.14,1.87,4.47,2.31s-13.92,33.24-18,45.34H440.92c2.9-14.25,11-34.51,17.31-50.61,3.85-9.77,7.08-18,8.14-22.46-.13-.91-.25-1.78-.34-2.6,1.45,1.48,6.29,5.57,8.48,8.17A6.21,6.21,0,0,1,475.53,109.79Z"/><path class="cls-2" d="M485.85,175.77H451.14c4.05-12.1,18-45.34,18-45.34l-4.47-2.31,6.14-1.87s5.55-14.36,4.75-16.46c4.12,2,21.4,9.11,27.8,12.84s10.22,14.2,11.91,24.94,4.11,22.58,4.11,28.2Z"/><path class="cls-4" d="M434.77,110.55c.06-1.43.05-2.84,0-4.22a109.39,109.39,0,0,0-1.84-14.56c3.5,3.42,7.87,7,9.48,7.77,2.67,1.38,9.42.82,11,0,3.36-1.76,10-9.62,12.67-13.27a68.59,68.59,0,0,0,0,13.83c.09.82.21,1.69.34,2.6-1.06,4.44-4.29,12.69-8.14,22.46-15.23,11.61-29,4.48-29.63-2.86h0C431.54,116.22,433.88,111.89,434.77,110.55Z"/><path class="cls-2" d="M427.23,82.53h0a2.69,2.69,0,0,1-5.26-.79,2.61,2.61,0,0,1,.84-1.95,2.67,2.67,0,0,1,3.91.22C426.87,80.88,427.05,81.73,427.23,82.53Z"/><path class="cls-2" d="M471.49,77.69a2.7,2.7,0,1,1-3.49,3.7c.17-1,.32-2,.44-3.09h0a2.69,2.69,0,0,1,3-.61Z"/><path class="cls-8" d="M422.8,79.79a2.61,2.61,0,0,0-.84,1.95,2.69,2.69,0,0,0,5.26.79h0a25.44,25.44,0,0,0,1,3.45c.51,1.34,2.44,3.54,4.74,5.79a109.39,109.39,0,0,1,1.84,14.56c-.55.7-1.36,1.61-2.34,2.67L431,107.19c-1.43-2.81-4.08,2.6-4.08,2.6-1.13-1.8.33-5.05.26-7.09s-2-4.24-3.1-1.21a21.83,21.83,0,0,1-3.74,6,5.91,5.91,0,0,0,.06-6c-1.23-2.67-.22-8.8-.72-10.74s-2.24-1.24-2.6,2.88a17.43,17.43,0,0,1-3.25,7.86c.44-1.15,1-5.27-.35-7.5s-1.17-5.12-.37-8.57,0-9.33,0-9.33c-1.4.49-3.14,8.78-3.24,9.31.28-1.28-.3-2.83-1.45-5.84s1.44-6.21,3.4-10.27a16.43,16.43,0,0,0,1.58-7.84c-1.51.36-5,7.84-5,7.84.08-4.06,2.6-8.42,1.81-11.45a8.81,8.81,0,0,1,2.23-8.58c2.38-2.6,3-6.64,4.69-10s4.4-3,5-6.43,2.88-8.08,6.35-8.66,4.55-.86,7.74-4.11,8.76-3.75,11.62.79c4-4.27,11.28-3.58,16.26.53s10.05,6.33,12.73,12.1,2.52,7,5.41,9.89,1.73,9.88,4,17c0,0-3-2.1-4.05-4.41s.66,6.49,3.32,10.1,3.61,5.77,3,8.74-1.3,5.62-.36,8.65c0,0-2.53-4-2.89-6.68a6.24,6.24,0,0,0-1.66-3.88c-.57-.84-1.08,3.78.15,7.68s2,6.63,1.66,8.94S487,94.07,486.57,97c0,0-2.81-2.24-3.39-4.47a7.94,7.94,0,0,0-2-3.83s-1.38,4.25.14,7.72,2.45,3.46,1.59,6.85a13.65,13.65,0,0,0-2.46-3.39c-1.37-1.22-1,2.82-.14,7.15a4.65,4.65,0,0,0-2.31-1.8c-1.8-.8-2.74,2.45-2.74,2.81l-.74.28c-2.19-2.6-7-6.69-8.48-8.17a68.59,68.59,0,0,1,0-13.83c.49-.66.85-1.19,1-1.51a12.58,12.58,0,0,0,.91-3.37,2.7,2.7,0,1,0,3.49-3.7c2.41-5.38,3-17.24-1.94-13.28,0,0-.08-6.71-.29-12.13s-1.63-11.58-7.94-14.71c-5.29-2.63-11.19-2.9-13.86-1.31-2.88-1.94-10.82-1.66-13.06.3s-.79,4.4-3.09,6-1.24,3.74-3.39,6.41.14,5.35-3.11,7.22S424,65.4,424,65.4c-5.57-5.1-5.52,9.52-1.23,14.38Z"/><path class="cls-4" d="M456.65,83.07c-.47,1.06-4.07,3.93-5.33,4.48a10.09,10.09,0,0,1-5.35,0,14.05,14.05,0,0,1-5.53-4.48C443.18,83,454.3,82.87,456.65,83.07Z"/><path class="cls-4" d="M426.71,80a2.67,2.67,0,0,0-3.91-.22h0C418.5,74.92,418.45,60.3,424,65.4c0,0-2.46-7.34.79-9.22s.94-4.55,3.11-7.22,1.07-4.83,3.39-6.41.86-4,3.09-6,10.18-2.24,13.06-.3c2.67-1.59,8.57-1.32,13.86,1.31,6.31,3.13,7.72,9.3,7.94,14.71s.29,12.13.29,12.13c4.95-4,4.35,7.9,1.94,13.28a2.69,2.69,0,0,0-3,.61h0c-.12,1.07-.27,2.14-.44,3.09a12.58,12.58,0,0,1-.91,3.37c-.19.32-.55.85-1,1.51-2.7,3.65-9.31,11.51-12.67,13.27-1.54.82-8.29,1.38-11,0-1.61-.82-6-4.35-9.48-7.77-2.3-2.25-4.23-4.45-4.74-5.79a25.44,25.44,0,0,1-1-3.45C427.05,81.73,426.87,80.88,426.71,80Zm24.61,7.54c1.26-.55,4.86-3.42,5.33-4.48-2.35-.2-13.47-.09-16.21,0A14.05,14.05,0,0,0,446,87.55,10.09,10.09,0,0,0,451.32,87.55Z"/><path class="cls-9" d="M447.46,36.27c-2.88-2-10.82-1.66-13,.28s-.8,4.41-3.11,6-1.22,3.76-3.39,6.42.15,5.34-3.1,7.22S424,65.4,424,65.4"/><path class="cls-9" d="M447.46,36.27c2.67-1.59,8.57-1.33,13.86,1.29,6.31,3.13,7.72,9.31,7.94,14.72s.29,12.13.29,12.13"/><path class="cls-9" d="M448.91,61.88c1,3,3,12,3,13.64s-5.56,1.3-6.78.57"/><path class="cls-9" d="M454.83,57.12c2-.53,8.22-.8,10.75.72"/><path class="cls-9" d="M441.78,57.59c-3-.8-8.2-.86-11.1.49"/><path class="cls-9" d="M425.31,71c.58,4,1.59,11.55,2.89,14.94s11.55,12.19,14.22,13.57,9.42.81,11,0c4-2.1,12.49-12.7,13.71-14.8s2-13,2-14.28"/><path class="cls-9" d="M432.94,91.77c.67,4.24,2.56,12.9,1.62,21.85"/><path class="cls-9" d="M466.05,86.27a65,65,0,0,0,.32,16.42"/><path class="cls-9" d="M447.85,20.82c-2.85-4.54-8.43-4-11.62-.79s-4.28,3.54-7.74,4.11-5.77,5.2-6.35,8.66-3.25,3-5,6.42-2.31,7.44-4.69,10a8.86,8.86,0,0,0-2.24,8.59c.8,3-1.73,7.39-1.8,11.45,0,0,3.46-7.48,5-7.84a16.37,16.37,0,0,1-1.59,7.84c-1.95,4.06-4.54,7.24-3.39,10.27s1.73,4.58,1.44,5.86c0,0,1.81-8.82,3.25-9.33,0,0,.79,5.89,0,9.33s-1,6.33.36,8.57.8,6.35.36,7.5a17.43,17.43,0,0,0,3.25-7.86c.36-4.11,2.1-4.84,2.6-2.89s-.51,8.08.72,10.75a5.89,5.89,0,0,1-.07,6,21.53,21.53,0,0,0,3.75-6c1.08-3,3-.84,3.1,1.2s-1.39,5.3-.26,7.1c0,0,2.64-5.41,4.09-2.6"/><path class="cls-9" d="M447.85,20.82c4-4.28,11.28-3.58,16.26.53s10.05,6.33,12.72,12.1,2.53,7,5.41,9.89,1.74,9.88,4,16.95c0,0-3-2.09-4-4.4s.65,6.5,3.32,10.1,3.61,5.78,3,8.73-1.3,5.63-.36,8.66c0,0-2.53-4-2.89-6.68a6.24,6.24,0,0,0-1.66-3.88c-.57-.84-1.08,3.78.15,7.68s2,6.63,1.66,8.94S487,94.06,486.57,97c0,0-2.81-2.24-3.39-4.48a7.77,7.77,0,0,0-2-3.82s-1.37,4.26.15,7.72,2.45,3.46,1.58,6.86a13.46,13.46,0,0,0-2.45-3.4c-1.37-1.22-1,2.82-.14,7.15a4.7,4.7,0,0,0-2.31-1.81c-1.81-.79-2.74,2.46-2.74,2.82"/><path class="cls-9" d="M456.65,83.07c-2.35-.19-13.46-.1-16.21,0"/><path class="cls-9" d="M440.44,83.07A13.82,13.82,0,0,0,446,87.54a9.82,9.82,0,0,0,5.33,0c1.27-.54,4.86-3.41,5.34-4.47"/><path class="cls-9" d="M447,91.36a9.68,9.68,0,0,0,4.19-.08"/><path class="cls-9" d="M434.77,110.54c-2.89,4.33-21.17,40.6-26,65.22"/><path class="cls-9" d="M434.77,106.33c-2.89,3.73-13.47,13.63-16.45,18.83l2.89,2.21-3.28,1.16s-12.12,35.11-13.85,47.23"/><path class="cls-9" d="M466.37,102.69c-2.81,11.79-20.78,50.18-25.45,73.07"/><path class="cls-9" d="M466,100.1c1.78,1.83,8.71,7.6,9.5,9.69s-4.75,16.45-4.75,16.45l-6.14,1.88,4.47,2.31s-13.92,33.24-18,45.33"/><path class="cls-9" d="M475.53,109.79c4.12,2,21.4,9.11,27.8,12.84s10.22,14.2,11.9,24.94,4.11,22.58,4.11,28.19"/><path class="cls-9" d="M430.15,111.43c-5.8,2.33-13,4.12-20.18,9.61-9,6.82-14.27,48.26-14.55,54.72"/><path class="cls-9" d="M428.6,122.29c.61,7.34,14.39,14.49,29.63,2.88"/><path class="cls-9" d="M487,146.52a153.09,153.09,0,0,0-1.16,29.24"/><path class="cls-9" d="M494.22,151.62c-3.17,3.65-7.63,9-8.62,18.38"/><path class="cls-9" d="M427.22,82.52a2.69,2.69,0,1,1-.51-2.52"/><path class="cls-9" d="M468.45,78.3a2.66,2.66,0,0,1,1.95-.84,2.7,2.7,0,1,1-2.4,3.93"/><path class="cls-9" d="M424,65.4c-5.57-5.09-5.52,9.51-1.23,14.39"/><path class="cls-9" d="M469.55,64.41c4.95-3.95,4.35,7.9,1.93,13.28"/><path class="cls-9" d="M460,63.89c0,.5-.2.91-.45.91s-.44-.41-.44-.91.2-.9.44-.9S460,63.39,460,63.89Z"/><path class="cls-9" d="M438,64.41c0,.5-.19.9-.44.9s-.44-.4-.44-.9.2-.91.44-.91S438,63.91,438,64.41Z"/></g><circle class="cls-10" cx="446.97" cy="80.93" r="76.15"/><circle class="cls-6" cx="381.94" cy="455.07" r="76.15"/><g class="cls-12"><path class="cls-2" d="M349.23,504c5.77-2.19,10.15-10.33,11.46-16a51.9,51.9,0,0,0,.89-5.79c2.85,6.75,20.14,13.43,32.92,1.53-3.44,13.91-8.93,20.29-8.93,20.29a33.27,33.27,0,0,0,10.17-3.59c-.68,4.16-4.25,7-4.47,7.18,20.32-8.59,23.47-26.89,23.47-26.89a10.78,10.78,0,0,1,2.28,5.08,21,21,0,0,0,0-10.6c3.68,1.23,5.17,6.48,5.17,6.48-.14-1.73-.45-4.37-.9-7.58,6.68,4.83,13.14,7.29,18.36,12.13,15,13.85,13.81,48.75,14.86,69.32H308.39c.18-6.57,3.16-53.1,14.11-65.28,5.54-6.17,13.58-10.6,17.6-13.22h0c0,1.62-.07,3.05-.09,4.19-.17,9.11-3.42,11.57-3.42,11.57a19.94,19.94,0,0,0,5.26-.61,13.68,13.68,0,0,1-3.06,3.24,12.11,12.11,0,0,0,6.39-1.76,9.85,9.85,0,0,1-2.1,5.87,22.34,22.34,0,0,0,8.74-2.8A10.52,10.52,0,0,1,349.23,504Z"/><path class="cls-8" d="M396.74,470.14a116.26,116.26,0,0,0,.25-17.62,21.85,21.85,0,0,0,.94-9.25c-.27-1.78-.84-5.76-.84-5.76-3.31-2.16-7.12-4.34-10.64-8.26-6.64-7.37-11.92-16.3-17.79-20.67s-10.34-2-11.21,4.81c-3.15-.61-5.87,4.29-5.61,10.08s0,16.9,1.23,23.38c.82,4.31,5.27,11.41,9,16.3h0a53.16,53.16,0,0,1,.24,8.82c-.11,3.34-.35,7-.69,10.17a51.9,51.9,0,0,1-.89,5.79c-1.31,5.69-5.69,13.83-11.46,16a10.52,10.52,0,0,0,2.6-7.26,22.34,22.34,0,0,1-8.74,2.8,9.85,9.85,0,0,0,2.1-5.87,12.11,12.11,0,0,1-6.39,1.76,13.68,13.68,0,0,0,3.06-3.24,19.94,19.94,0,0,1-5.26.61s3.25-2.46,3.42-11.57c0-1.14.05-2.57.09-4.19.23-11.36.7-32.86.79-41.36.05-5.78-.71-29.78,9.81-26.81a23.82,23.82,0,0,1,11.62-13.13c5.28-2.72,7-7.45,14.39-6.84s15.07,4.91,20.33,11,11.65,15.94,15.76,30.66c3.24,11.59,6.82,31.55,8.48,43.49.45,3.21.76,5.85.9,7.58,0,0-1.49-5.25-5.17-6.48a21,21,0,0,1,0,10.6,10.78,10.78,0,0,0-2.28-5.08s-3.15,18.3-23.47,26.89c.22-.18,3.79-3,4.47-7.18A33.27,33.27,0,0,1,385.57,504s5.49-6.38,8.93-20.29A92,92,0,0,0,396.74,470.14Z"/><path class="cls-4" d="M397,452.52a22.88,22.88,0,0,1-1,2.59c-2,4.41-14.89,13.91-17.09,14.35s-9.72.87-12.44-1.23a33.07,33.07,0,0,1-4.44-5.07h0c-3.69-4.89-8.14-12-9-16.3-1.23-6.48-1-17.6-1.23-23.38s2.46-10.69,5.61-10.08c.87-6.83,5.35-9.18,11.21-4.81s11.15,13.3,17.79,20.67c3.52,3.92,7.33,6.1,10.64,8.26,0,0,.57,4,.84,5.76A21.85,21.85,0,0,1,397,452.52Zm-17.46,1a64.44,64.44,0,0,1-15.43.94c.3,1.1,3,3.77,4.91,3.77a23.74,23.74,0,0,0,4.39-.23C374.56,457.73,378.1,456.27,379.53,453.48Z"/><path class="cls-4" d="M397,452.52a116.26,116.26,0,0,1-.25,17.62c-10.95,16.81-31.05,9.91-34.47,1.84a53.16,53.16,0,0,0-.24-8.82,33.07,33.07,0,0,0,4.44,5.07c2.72,2.1,10.25,1.66,12.44,1.23S394,459.52,396,455.11A22.88,22.88,0,0,0,397,452.52Z"/><path class="cls-2" d="M396.74,470.14a92,92,0,0,1-2.24,13.54c-12.78,11.9-30.07,5.22-32.92-1.53.34-3.16.58-6.83.69-10.17C365.69,480.05,385.79,487,396.74,470.14Z"/><path class="cls-4" d="M379.53,453.48c-1.43,2.79-5,4.25-6.13,4.48a23.74,23.74,0,0,1-4.39.23c-1.87,0-4.61-2.67-4.91-3.77A64.44,64.44,0,0,0,379.53,453.48Z"/><path class="cls-9" d="M360.75,434.69c.05.49-.1.92-.35.94s-.48-.36-.53-.86.11-.92.35-.94S360.7,434.19,360.75,434.69Z"/><path class="cls-9" d="M380.43,433.79c.05.49-.11.92-.36.94s-.48-.36-.53-.86.11-.92.35-.94S380.38,433.29,380.43,433.79Z"/><path class="cls-9" d="M357.45,413.39c-3.15-.61-5.87,4.29-5.61,10.08s0,16.9,1.23,23.39,10.69,19.27,13.4,21.37,10.25,1.66,12.44,1.23S394,459.52,396,455.11a22.3,22.3,0,0,0,1.92-11.85c-.26-1.78-.83-5.75-.83-5.75"/><path class="cls-9" d="M362,463.15c.77,4.38,0,19.1-1.34,24.79s-5.69,13.84-11.47,16a10.54,10.54,0,0,0,2.61-7.27,22.34,22.34,0,0,1-8.75,2.8,9.82,9.82,0,0,0,2.11-5.87,12.08,12.08,0,0,1-6.4,1.76,13.86,13.86,0,0,0,3.07-3.24,19.94,19.94,0,0,1-5.26.61s3.24-2.45,3.42-11.56.77-35.84.87-45.56c.06-5.78-.7-29.78,9.82-26.8"/><path class="cls-9" d="M350.71,408.84a23.81,23.81,0,0,1,11.62-13.14c5.28-2.72,7-7.45,14.39-6.84s15.07,4.91,20.33,11,11.65,15.94,15.77,30.66,8.76,42.93,9.37,51.07c0,0-1.49-5.25-5.17-6.48a21,21,0,0,1,0,10.6,10.78,10.78,0,0,0-2.28-5.08s-3.15,18.31-23.47,26.89c0,0,3.76-2.89,4.46-7.18A33.15,33.15,0,0,1,385.57,504s13.49-15.68,11.42-51.5"/><path class="cls-9" d="M357.45,413.39c.88-6.83,5.35-9.18,11.21-4.81s11.15,13.3,17.79,20.67c7.18,8,15.5,8.84,18.57,16.64,3.93,10,6.22,17.35,4.82,30.05"/><path class="cls-9" d="M363,429.42c-3.37-1.46-6.68-1.4-8.84-.22"/><path class="cls-9" d="M373.39,429.2a13,13,0,0,1,10-.41"/><path class="cls-9" d="M366.41,432c-.26,4.08-1.45,12-2.24,14.06s4.67,2.63,7.76,1.84"/><path class="cls-9" d="M363.58,454.33c2.5.53,13.13.07,16.4-1"/><path class="cls-9" d="M364.1,454.42c.3,1.1,3,3.77,4.91,3.77a23.91,23.91,0,0,0,4.4-.23c1.15-.23,4.69-1.68,6.12-4.48"/><path class="cls-9" d="M369.83,461.64a6.1,6.1,0,0,0,3.78,0"/><path class="cls-9" d="M362.27,472c3.42,8.08,23.52,15,34.47-1.85"/><path class="cls-9" d="M361.58,482.15c2.85,6.75,20.13,13.43,32.92,1.53"/><path class="cls-9" d="M340.1,477c-4,2.62-12.06,7.06-17.6,13.22-10.95,12.17-13.93,58.71-14.11,65.28"/><path class="cls-9" d="M335.59,518.43c-.13,4.46-4.46,12.48-5.38,17.6s0,14.34,3.41,19.47"/><path class="cls-9" d="M427.18,518.43c-.65,7.09-.26,31.55-.79,37.07"/><path class="cls-9" d="M421.3,474c6.67,4.83,13.13,7.3,18.36,12.14,14.95,13.85,13.8,48.75,14.85,69.32"/><path class="cls-9" d="M431.78,522.37c-.66,5.52-2.77,7.88-5,10.77"/></g><circle class="cls-10" cx="376.15" cy="453.35" r="76.15"/><circle class="cls-6" cx="126.68" cy="349.85" r="76.15"/><g class="cls-13"><path class="cls-2" d="M88.92,388.64c7.23,8.14,17.58,14.66,39.22,14.66,25,0,37.57-6,44.11-10.75.72.16,1.46.31,2.22.44,13.58,6.41,16.21,10.31,17.08,22.55.8,11.24,1.67,28.42,1.67,28.42H63.74c.36-12,.47-20,1.76-30.76C67.16,399.27,70.05,393,88.92,388.64Z"/><path class="cls-4" d="M148.71,374.92a34.83,34.83,0,0,0,23.54,17.63c-6.54,4.71-19.15,10.75-44.11,10.75-21.64,0-32-6.52-39.22-14.66l2-.27a88.92,88.92,0,0,0,9.74-2.09,45.44,45.44,0,0,0,9.45-3.63c3.71-2,3.28-6.57,3-10.07a25.46,25.46,0,0,0,4.65,3.87c3.34,2,9,1.38,13-2,4.73-4,10.7-10.43,12.35-17.79C144.57,363.43,144.83,367.77,148.71,374.92Z"/><path class="cls-8" d="M111.93,313.46c-5.88-.87-9.51,6.11-10.78,9.6a34.71,34.71,0,0,0-1.7,11h0c-.57,6.37,1.89,25.64,2.32,32.65s.26,15.26-1.08,19.6a88.92,88.92,0,0,1-9.74,2.09h0c4.33-9.88,2.12-31.66,2.07-41C92.92,334,93,327,94.93,321.66s5.26-11.57,9.64-15.86,11.56-8.81,15.77-6.74a38.29,38.29,0,0,0-3.39,5.06C114.91,307.56,112.72,311.65,111.93,313.46Z"/><path class="cls-8" d="M102.39,354.53a44.55,44.55,0,0,0,10.71,18.05c.31,3.5.74,8-3,10.07a45.44,45.44,0,0,1-9.45,3.63c1.34-4.34,1.52-12.59,1.08-19.6S98.87,340.4,99.44,334h0A69.33,69.33,0,0,0,102.39,354.53Z"/><path class="cls-4" d="M127.69,359.94c-.46,1.83-2.54,4.72-4.66,5.2a18.2,18.2,0,0,1-4.93.21c-1.59-.19-4.55-3.13-5-4.23C115.12,361.25,124.37,361.12,127.69,359.94Z"/><path class="cls-4" d="M101.15,323.06c1.27-3.49,4.9-10.47,10.78-9.6,3.81-2.32,13,.93,18.13,9s8.23,16.26,11.74,28.82c.55,2,1,3.75,1.31,5.37h0c-1.65,7.36-7.62,13.79-12.35,17.79-4,3.4-9.67,4-13,2a25.46,25.46,0,0,1-4.65-3.87,44.55,44.55,0,0,1-10.71-18.05A69.33,69.33,0,0,1,99.45,334,34.71,34.71,0,0,1,101.15,323.06ZM123,365.14c2.12-.48,4.2-3.37,4.66-5.2-3.32,1.18-12.57,1.31-14.58,1.18.44,1.1,3.4,4,5,4.23A18.2,18.2,0,0,0,123,365.14Z"/><path class="cls-8" d="M117,304.12a38.29,38.29,0,0,1,3.39-5.06c3.5-2.24,11.87-.45,18.39,4.29,7.84,5.67,11.48,10.51,15.07,21.9s3.94,27.06,7.5,40.69c3,11.41,3.88,16.42,8.62,20.89,3.44,3.25,6,4.56,6.74,6.48-.74-.09-1.48-.19-2.19-.32s-1.5-.28-2.22-.44a34.83,34.83,0,0,1-23.54-17.63c-3.88-7.15-4.14-11.49-5.6-18.28h0c-.35-1.62-.76-3.39-1.31-5.37-3.51-12.56-6.66-20.76-11.74-28.82s-14.32-11.3-18.13-9C112.72,311.65,114.91,307.56,117,304.12Z"/><path class="cls-9" d="M109.66,341.21c.06.5-.08.93-.32,1s-.49-.35-.56-.84.08-.92.32-1S109.59,340.72,109.66,341.21Z"/><path class="cls-9" d="M128.93,338.45c.06.5-.08.93-.33,1s-.49-.35-.55-.84.08-.92.32-1S128.86,338,128.93,338.45Z"/><path class="cls-9" d="M111.93,313.46c-5.87-.87-9.51,6.11-10.78,9.6-2.54,7-2.35,19.45,1.24,31.47s12,19.94,15.36,21.92,9,1.38,13-2c4.73-4,10.71-10.45,12.35-17.81"/><path class="cls-9" d="M113.1,372.58c.31,3.5.74,8-3,10.07-7,3.87-18.19,5.66-21.21,6"/><path class="cls-9" d="M115.32,338.69c-.26,5.06-.92,14.26-.46,15.64s5.45.53,7,0"/><path class="cls-9" d="M113.11,361.12c2,.13,11.26,0,14.58-1.18"/><path class="cls-9" d="M113.11,361.12c.44,1.1,3.4,4.05,5,4.23a18.24,18.24,0,0,0,4.93-.21c2.12-.48,4.2-3.38,4.66-5.2"/><path class="cls-9" d="M102.18,336.59a23.54,23.54,0,0,1,8.67-.85"/><path class="cls-9" d="M122.55,334a18.4,18.4,0,0,1,9.66-1.45"/><path class="cls-9" d="M111.93,313.46c3.81-2.32,13,.92,18.13,9s8.23,16.25,11.74,28.82c2.86,10.26,2.1,14.81,6.92,23.66,4.47,8.2,13,16.55,27.94,18.39"/><path class="cls-9" d="M120.34,299.05c-4.21-2.05-11.39,2.46-15.77,6.75s-7.71,10.51-9.64,15.86S92.92,334,93,347.32c.06,9.38,2.27,31.16-2.06,41"/><path class="cls-9" d="M99.44,334c-.57,6.37,1.89,25.64,2.32,32.65s.26,15.26-1.08,19.6"/><path class="cls-9" d="M111.93,313.46c1.31-3,6.37-12.13,8.41-14.41"/><path class="cls-9" d="M120.34,299.05c3.5-2.23,11.87-.43,18.39,4.3,7.84,5.67,11.48,10.51,15.07,21.9s3.94,27.07,7.5,40.69c3,11.41,3.89,16.42,8.62,20.89,3.44,3.25,6,4.56,6.74,6.48"/><path class="cls-9" d="M117,304.12c2.51-1.21,11.62-.34,17.84,5s8,10.16,12,21.9,8.24,38.18,13.49,46.55"/><path class="cls-9" d="M88.92,388.63c7.23,8.15,17.57,14.67,39.21,14.67,25,0,37.58-6,44.12-10.75"/><path class="cls-9" d="M88.92,388.63C70.05,393,67.16,399.27,65.5,413.2,64.21,424,64.1,432,63.74,444"/><path class="cls-9" d="M174.47,393c13.58,6.41,16.21,10.31,17.08,22.55.8,11.23,1.67,28.42,1.67,28.42"/><path class="cls-9" d="M78.86,420.56c-.14,4.07-.53,23.4-.53,23.4"/><line class="cls-9" x1="170.71" y1="425.16" x2="170.71" y2="443.96"/><path class="cls-9" d="M119.9,369a6.33,6.33,0,0,0,3.53-.32"/></g><circle class="cls-10" cx="124.03" cy="357.56" r="76.15"/><circle class="cls-6" cx="89.03" cy="118.4" r="76.15"/><g class="cls-14"><path class="cls-2" d="M143.61,218.49H21.23c3.65-38.8,10.09-47,18.54-52.85,5.87-4.08,22.35-9.09,26.42-12.9a6.16,6.16,0,0,0-.27,1.43c-.22,4.1,2,14.18,3.75,17.35,0,0,4.13-8,9.06-8.64,1,1.57,3.93,4.09,8,5.18a14.76,14.76,0,0,0,7.27.17,19.26,19.26,0,0,0,9.32-5.54c4.71,1.53,7.65,11.28,7.65,11.28,2.17-4,8.51-18.51,6.49-23.41,4.28,1.66,22.52,5.62,35.29,13.06,13.85,8.07,14.32,35.95,17.1,54.87Z"/><path class="cls-8" d="M108.75,138.39c1.9,2,6.66,7.27,8.67,12.17S113.1,170,110.93,174c0,0-2.94-9.75-7.65-11.28-1.51-.5-3.21-.15-5.06,1.67,3.65-3.76,8.45-9.9,10.67-17.56C108.89,144.21,108.79,141.5,108.75,138.39Z"/><path class="cls-8" d="M74,147.61c.79,5.17,5.05,12.17,9.35,17.08a5.26,5.26,0,0,0-4.58-1.81c-4.93.68-9.06,8.64-9.06,8.64-1.71-3.17-4-13.25-3.75-17.35a6.16,6.16,0,0,1,.27-1.43c1.26-4.24,6.56-10.51,8.29-12.7h0A60.65,60.65,0,0,1,74,147.61Z"/><path class="cls-4" d="M108.89,129.38h0c-.15,3.4-.17,6.35-.14,9,0,3.11.14,5.82.14,8.41-2.22,7.66-7,13.8-10.67,17.56l-.11.1a40.43,40.43,0,0,1-3,2.84c-.51.43-1.13.93-1.13.93a14.76,14.76,0,0,1-7.27-.17l-.13-.07A34.2,34.2,0,0,1,84,165.51l0,0c-.24-.29-.47-.55-.71-.79-4.3-4.91-8.56-11.91-9.35-17.08a60.65,60.65,0,0,0,.53-7.57,64,64,0,0,0-.2-6.53,28.62,28.62,0,0,0,3.24,4.16c5.17,5.54,10.43,6.05,13.24,6.05a17.68,17.68,0,0,0,14-7.52A53,53,0,0,0,108.89,129.38Z"/><path class="cls-4" d="M68.65,118.15c.29,1.52.63,3,1,4.49h0c-.24,0-.48,0-.71,0h0a1.92,1.92,0,0,0-1.56-1.24,1.47,1.47,0,0,0-1.06.51c-2.59-1.59-3.68-5.44-4.17-7.8A33.91,33.91,0,0,0,68,114C68.19,115.46,68.41,116.87,68.65,118.15Z"/><path class="cls-4" d="M99,124.82c-.72,1.68-4,5.05-6.47,5.17a32.27,32.27,0,0,1-5.16-.08c-1.86-.19-4.51-3.66-5-4.74C86.49,125.52,94.39,126,99,124.82Z"/><path class="cls-4" d="M99,124.82c-4.65,1.13-12.55.7-16.63.35.49,1.08,3.14,4.55,5,4.74a32.27,32.27,0,0,0,5.16.08C95,129.87,98.32,126.5,99,124.82Zm-32-25c16.88-2.51,30.5-13.59,34.91-20.89,6.34,8.65,10.88,16.86,11.52,32.27.87-3.67,3-7.63,5.12-8.06,1.87,1.17,1.92,11.41-1.65,16.32a1.73,1.73,0,0,0-1.37-.9c-1.07,0-2,1.44-2.21,3.4a5.07,5.07,0,0,1-1.57.08,41.28,41.28,0,0,1-2.88,7.38,53,53,0,0,1-4.11,6.82,17.68,17.68,0,0,1-14,7.52c-2.81,0-8.07-.51-13.24-6.05a28.62,28.62,0,0,1-3.24-4.16,37,37,0,0,1-4.61-10.87c-.4-1.47-.74-3-1-4.49-.24-1.28-.46-2.69-.66-4.18a117.23,117.23,0,0,1-1-14.18Z"/><path class="cls-8" d="M67,99.79A117.23,117.23,0,0,0,68,114a33.91,33.91,0,0,1-5.83.19c-4.35-.27-5.32-1.6-5.32-1.6l1-1.4a6,6,0,0,1-4.4-2,2.67,2.67,0,0,0,2.74-1.58c-4.32-.29-5.19-3.09-5.19-3.09a5.44,5.44,0,0,0,4-.51,7.66,7.66,0,0,1-5.18-4.83,44.68,44.68,0,0,0,9.93,1.18h0A47.79,47.79,0,0,0,67,99.78Z"/><path class="cls-8" d="M114.18,74c3.64,5.31,5.62,9,5.4,15.61s-1,13.5-1,13.5c-2.12.43-4.25,4.39-5.12,8.06-.64-15.41-5.18-23.62-11.52-32.27-4.41,7.3-18,18.38-34.91,20.89a47.79,47.79,0,0,1-7.23.53h0c-7.12-3.49-7.12-9.46-7.12-9.46,3.39,4.46,5.19,0,5.19,0-2.52-.58-2.17-2.52-2.17-2.52C57.2,89.41,58,87.4,58,87.4a6.06,6.06,0,0,1-4.77-5c4.79,3.94,6.62,0,13.83-6.91A55.29,55.29,0,0,1,85.39,63.77c4.9-2.11,14.88-2.69,17,4.9C105.63,66.65,110,67.91,114.18,74Z"/><path class="cls-9" d="M102.39,68.66c-2.12-7.58-12.1-7-17-4.9A55.75,55.75,0,0,0,67,75.48c-7.2,6.92-9,10.86-13.83,6.92a6.07,6.07,0,0,0,4.78,5s-.79,2-2.3.94c0,0-.36,1.94,2.16,2.52,0,0-1.8,4.47-5.19,0,0,0,0,6,7.13,9.46"/><path class="cls-9" d="M101.93,78.89c-5.83,9.65-27.8,25.93-52.08,20.24A7.66,7.66,0,0,0,55,104a5.43,5.43,0,0,1-4,.5s.87,2.81,5.19,3.1a2.66,2.66,0,0,1-2.74,1.59,6,6,0,0,0,4.4,2l-1,1.4S58.61,115,68,114"/><path class="cls-9" d="M101.93,78.89c6.34,8.65,10.88,16.86,11.53,32.27"/><path class="cls-9" d="M102.39,68.66c3.24-2,7.61-.74,11.79,5.33,3.65,5.31,5.62,9,5.4,15.61s-1,13.49-1,13.49"/><path class="cls-9" d="M113.46,111.16c.86-3.67,3-7.63,5.11-8.07"/><path class="cls-9" d="M118.57,103.09c2.52,1.59,1.73,19.69-6.8,18.91"/><path class="cls-9" d="M112.66,117.86c-.85,5.77-3.43,12-7.88,18.33a17.64,17.64,0,0,1-14,7.53c-2.81,0-8.07-.5-13.25-6.05s-7.46-12.23-8.87-19.52A111.31,111.31,0,0,1,67,99.79"/><path class="cls-9" d="M62.16,114.16c.66,3.2,2.41,9.09,7.51,8.49"/><path class="cls-9" d="M88.89,104.39c-.79,4.32-3.67,12.87-2.66,14s7.2,1.5,9.29,0"/><path class="cls-9" d="M72.83,99.79a24.06,24.06,0,0,1,10.66-.66"/><path class="cls-9" d="M96,98.8c2.81-1,9-1,11,0"/><path class="cls-9" d="M81.59,125.09c3.94.38,13.4,1,18.2-.48"/><path class="cls-9" d="M82.41,125.16c.48,1.08,3.13,4.56,5,4.76a34.8,34.8,0,0,0,5.16.08c2.46-.13,5.75-3.5,6.47-5.19"/><path class="cls-9" d="M87.81,133.82a9.16,9.16,0,0,0,5,0"/><path class="cls-9" d="M74.28,133.51A70.25,70.25,0,0,1,74,147.66"/><path class="cls-9" d="M108.89,129.37c-.34,7.4,0,12.63,0,17.46"/><path class="cls-9" d="M80,105.51c0,.54-.22,1-.48,1s-.49-.45-.49-1,.22-1,.49-1S80,105,80,105.51Z"/><path class="cls-9" d="M101.93,105.08c0,.55-.22,1-.48,1s-.49-.44-.49-1,.22-1,.49-1S101.93,104.53,101.93,105.08Z"/><path class="cls-9" d="M73.84,145.59c-.31,6.39,7,17.4,12.72,22.4"/><path class="cls-9" d="M109.88,142.14c-1.63,12.58-11,22-14.79,25.16-.51.43-1.13.93-1.13.93"/><path class="cls-9" d="M74.49,140.05c-1.95,2.45-8.35,10-8.57,14.12s2,14.19,3.75,17.36c0,0,7.54-14.54,14.37-6"/><path class="cls-9" d="M108.75,138.39c1.9,2,6.65,7.28,8.67,12.17S113.1,170,110.94,174c0,0-5.19-17.22-12.83-9.51"/><path class="cls-9" d="M78.73,162.87c2.08,3.38,13.33,11.11,24.55-.18"/><line class="cls-9" x1="86.56" y1="167.99" x2="86.72" y2="168.07"/><path class="cls-9" d="M74.5,169.89c5.89,5.67,21.65,8.74,32.31,1.64"/><path class="cls-9" d="M66.19,152.73c-4,3.81-20.55,8.83-26.42,12.91-8.45,5.89-14.89,14.05-18.54,52.85"/><path class="cls-9" d="M117.42,150.56c4.27,1.66,22.52,5.62,35.29,13.06,13.85,8.07,14.32,35.95,17.1,54.87"/><path class="cls-9" d="M43.71,200.19c.36,6.49,0,18.3,0,18.3"/><line class="cls-9" x1="142.2" y1="196.45" x2="143.61" y2="218.49"/><ellipse class="cls-9" cx="67.39" cy="125.98" rx="2.29" ry="4.53"/><ellipse class="cls-9" cx="115.55" cy="123.05" rx="2.29" ry="4.53"/></g><circle class="cls-10" cx="91.01" cy="125.98" r="76.15"/></g></svg>