<svg xmlns="http://www.w3.org/2000/svg" xmlns:xlink="http://www.w3.org/1999/xlink" width="444.401" height="625.513" viewBox="0 0 444.401 625.513">
  <defs>
    <clipPath id="clip-path">
      <rect id="Rectángulo_173" data-name="Rectángulo 173" width="444.401" height="625.513" transform="translate(138.799 4549.387)" fill="none"/>
    </clipPath>
  </defs>
  <g id="Grupo_570" data-name="Grupo 570" transform="translate(-138.799 -4549.387)">
    <g id="Grupo_569" data-name="Grupo 569">
      <g id="Grupo_568" data-name="Grupo 568" clip-path="url(#clip-path)">
        <g id="Grupo_563" data-name="Grupo 563">
          <g id="Grupo_562" data-name="Grupo 562" clip-path="url(#clip-path)">
            <path id="Trazado_1500" data-name="Trazado 1500" d="M198.22,5058.429c-55.627-59.823-69.018-140.817,12.088-217.979,66.082-62.868,34.941-142.278,87.093-187.4,70.275-60.8,189.736-30.867,233.675,37.892,136.15,213.059-140,574.891-332.856,367.484" fill="#30d9cb"/>
          </g>
        </g>
        <g id="Grupo_565" data-name="Grupo 565">
          <g id="Grupo_564" data-name="Grupo 564" clip-path="url(#clip-path)">
            <path id="Trazado_1501" data-name="Trazado 1501" d="M417.6,5079.479c4.413,22.04,5.793,43.05,3.854,58.688,0,0-51.921,8.192-96.654,8.195s-95.787-8.195-95.787-8.195c-.186-1.255-.348-2.574-.5-3.928-2.064-18.323-1.169-38.351.1-47.562,4.525,2.709,45.534,1.566,62.626.932,15.5-.584,33.079-2.275,38.039-13.238,1.7-3.743,2.809-10.306,3.542-18.013,1.007,12.642,4.028,25.868,25.807,26.975s54.844-1.38,58.971-3.854" fill="#1eadfe"/>
            <path id="Trazado_1502" data-name="Trazado 1502" d="M320.23,4983.588a4.469,4.469,0,1,1-4.462,4.475,4.472,4.472,0,0,1,4.462-4.475" fill="#fd0"/>
            <path id="Trazado_1503" data-name="Trazado 1503" d="M317.968,4944.182a4.469,4.469,0,1,1-4.463,4.463,4.469,4.469,0,0,1,4.463-4.463" fill="#fd0"/>
            <path id="Trazado_1504" data-name="Trazado 1504" d="M313.778,4904.764a4.469,4.469,0,1,1-4.462,4.475,4.472,4.472,0,0,1,4.462-4.475" fill="#fd0"/>
            <path id="Trazado_1505" data-name="Trazado 1505" d="M242.388,4902.949c-1.019,20.586-7.943,97.769-9.522,120.654,2.971-14.159,6.613-29.225,9.4-39.754,4.748-17.987,6.837-46.652,3.5-65.6-.882-5.084-2.075-10.318-3.381-15.3m66.928,6.291a4.468,4.468,0,1,0,4.462-4.476,4.466,4.466,0,0,0-4.462,4.476m6.451,78.823a4.469,4.469,0,1,0,4.463-4.475,4.467,4.467,0,0,0-4.463,4.475m-2.262-39.418a4.469,4.469,0,1,0,4.463-4.463,4.469,4.469,0,0,0-4.463,4.463m-84.89,138.032c-1.268,9.211-2.163,29.238-.1,47.562,0,0-7.43,2.986-20.534,2.99a84.668,84.668,0,0,1-22.762-2.99c-1.032-23.147,0-110.3,1.653-132.2s4.339-79.78,5.582-103.138c.783-14.88,3.307-62.415,5.37-76.474a36.689,36.689,0,0,1,5.072-14.656c2.958-4.661,6.862-7.894,11.2-10.989.024-.012.037-.025.062-.037,5.979-3.431,15.625-6.477,25.048-10.38l-2.524,11.747h14.669l-13.425,13.152s81.906,73.951,88.283,93.5c4.711,21.468,7.384,68.494,7.819,105.948.137,11.7.187,30.816-1.206,45.646-.733,7.707-1.84,14.27-3.542,18.012-4.96,10.964-22.538,12.655-38.039,13.239-17.092.633-58.1,1.777-62.626-.932" fill="#fd0"/>
            <path id="Trazado_1506" data-name="Trazado 1506" d="M500.551,4750.933c-2.759-.845-5.569,1.094-6.687,2.735-.324.473-.734,1.106-1.207,1.89-.348.571-.72,1.218-1.093,1.926,0,.012-.013.012-.013.025a6.979,6.979,0,0,1-6.949,2.884c-1.889-.273-3.331-1.231-3.269-2.461.087-1.728,1.094-3.854,2.275-6.526a55.276,55.276,0,0,0,2.126-5.383,8.551,8.551,0,0,1,4.761-4.972c1.864-.684,8.465-3.369,11.125-3.642s4.289,2.274,5.606,5.855c.448,1.205,1.082,3.244,1.716,5.407,1.255,4.251,2.548,8.987,2.548,8.987-3.729-2.287-7.806-4.786-9.5-5.992a4.8,4.8,0,0,0-1.442-.733" fill="#fff"/>
            <path id="Trazado_1507" data-name="Trazado 1507" d="M491.551,4757.509c0-.013.012-.013.012-.025a18.474,18.474,0,0,0,1.094-1.927c.473-.783.883-1.417,1.206-1.889,1.119-1.641,3.928-3.58,6.688-2.735a4.811,4.811,0,0,1,1.441.733c1.691,1.206,5.768,3.705,9.5,5.992,3.294,2.026,6.314,3.878,7.185,4.55,1.852,1.442,4.338,4.748,4.338,7.023a7.06,7.06,0,0,1-.224,1.43c1.442,1.243,2.872,3.02,2.287,5.606a4.462,4.462,0,0,1-1.205,1.678l-.012.013a10.46,10.46,0,0,1,1.33,6.986c-.386,2.623-3.419,11.026-5.83,16.47-1.244,2.8-1.94,7.981-2.275,13.09a107.861,107.861,0,0,0-.175,12.219c-6.973-.994-18.111-6.277-24.115-11.461,0-10.678-4.674-17.328-7.26-23.27a32.569,32.569,0,0,1-2-19.019,72.641,72.641,0,0,0,1.069-12.58,6.982,6.982,0,0,0,6.949-2.884" fill="#fff"/>
            <path id="Trazado_1508" data-name="Trazado 1508" d="M516.91,4826.724a14.489,14.489,0,0,0,2.1.174c2.449.013,3.8-.845,4.227-2.2-.535,3.108-1.045,21.592-1.057,22.226v.012c-12.9,3.966-27-.31-33.141-8.44,0,0,1.455-23.171,1.455-25.508a19.929,19.929,0,0,0,2.3,2.275c6.005,5.184,17.142,10.467,24.116,11.461" fill="#fd0"/>
            <path id="Trazado_1509" data-name="Trazado 1509" d="M430.006,4787.7c10.467,11.647,18.882,42.737,25.558,62.1,6.923,20.076,17.5,39.58,22.114,47.423.6-2.647,1.156-5.282,1.653-7.9,2.673-14.171,6.2-43.135,7.857-53.875a15.141,15.141,0,0,0,1.852,3.045c6.14,8.13,20.237,12.406,33.14,8.44v-.012q.9-.261,1.79-.6c.833,13.648-3.443,77.307-5.506,88.047s-6.614,27.981-9.374,32.941-7.16,8.814-14.183,8.677-29.5-13.5-43-28.665-40.5-55.715-46.33-67.873c-5.457,23.3-11.424,65.076-7.272,94.475,3.444,24.4,15.3,51.463,19.293,80.737.907,6.651,4.139,22.327,0,24.812s-37.205,4.96-58.971,3.853-24.8-14.332-25.807-26.974c1.392-14.83,1.343-33.948,1.206-45.646-.435-37.454-3.108-84.48-7.819-105.947a60.491,60.491,0,0,0-1.616-6.079c-.423-1.268-1.045-2.872-1.828-4.761v-.013c3.978-22.337,66.655-97.941,66.655-97.941l-16.26-6.85,13.972-6a51.907,51.907,0,0,0,10.492,2.039c7.545.571,23.332-.895,31.238,1.342v.013c.386.373.771.77,1.144,1.193" fill="#fd0"/>
            <path id="Trazado_1510" data-name="Trazado 1510" d="M358.828,4761.587A35.611,35.611,0,0,0,364,4769.17c6.613,7.259,15.377,11.635,23.134,13.947l-13.972,6,16.259,6.85s-62.676,75.6-66.654,97.942c-.373-.908-.795-1.89-1.243-2.934,4.7-26.838,29.237-102.007,32.245-117.67a50.925,50.925,0,0,1,5.06,13.562c0-14.532-2.35-26.838-6.141-35.974,0,0,4.8,9.484,6.141,10.69" fill="#fd0"/>
            <path id="Trazado_1511" data-name="Trazado 1511" d="M321.523,4890.979c.447,1.044.87,2.026,1.243,2.934v.012c.783,1.889,1.4,3.493,1.827,4.761a60.222,60.222,0,0,1,1.616,6.079c-6.377-19.554-88.283-93.505-88.283-93.505l13.425-13.152H236.683l2.523-11.747a80.88,80.88,0,0,0,17.043-9.062,59.64,59.64,0,0,0,17.067-18.869c-2.734,7.359-4.811,23.792-.882,41.046a36.08,36.08,0,0,1,1.988-10.355h.013c3.008,12.717,35.863,76,47.088,101.858" fill="#fd0"/>
            <path id="Trazado_1512" data-name="Trazado 1512" d="M302.367,4779.387c4.7,6.625,9.074,12.655,12.033,16.583,2.971-4.55,8.478-13.388,14.121-22.736,4.923-5.9,16.819-14.345,25.247.062v.012c-3.008,15.663-27.547,90.832-32.245,117.67-11.225-25.856-44.08-89.141-47.088-101.858h-.013c2.375-7.147,6.626-14.22,11.325-15.787,5.867-1.964,11.076-.758,14.643,3.245.659.945,1.318,1.889,1.977,2.809" fill="#30d9cb"/>
            <path id="Trazado_1513" data-name="Trazado 1513" d="M274.422,4789.121a36.083,36.083,0,0,0-1.989,10.355c-3.928-17.254-1.852-33.688.883-41.046a50.451,50.451,0,0,0,5.432-14.98c2.225,4.923,12.244,19.79,21.642,33.129-3.568-4-8.776-5.209-14.643-3.245-4.7,1.566-8.95,8.64-11.325,15.787" fill="#30d9cb"/>
            <path id="Trazado_1514" data-name="Trazado 1514" d="M352.687,4750.9c3.792,9.137,6.141,21.443,6.141,35.975a50.949,50.949,0,0,0-5.059-13.562v-.013c-8.428-14.407-20.325-5.966-25.247-.062,5.681-9.435,11.5-19.4,14.954-26.043v-.012a37.541,37.541,0,0,0,3.058-6.911,42.4,42.4,0,0,1,6.153,10.628" fill="#30d9cb"/>
            <path id="Trazado_1515" data-name="Trazado 1515" d="M351.879,4728.794c-.336,7.583,1.268,21.816,6.949,32.792-1.343-1.205-6.141-10.69-6.141-10.69a42.448,42.448,0,0,0-6.153-10.628,37.541,37.541,0,0,1-3.058,6.911v-16.4a54.712,54.712,0,0,0,9.46-14.034c-.473,4.288-.9,8.341-1.057,12.045" fill="#1eadfe"/>
            <path id="Trazado_1516" data-name="Trazado 1516" d="M343.476,4747.179v.012c-3.456,6.638-9.273,16.608-14.954,26.043-5.644,9.348-11.15,18.186-14.122,22.736-2.958-3.928-7.334-9.958-12.032-16.583a15.309,15.309,0,0,0-1.977-2.809c-9.4-13.338-19.417-28.206-21.642-33.128.062-.373.137-.746.2-1.119a146.2,146.2,0,0,0,1.479-20.846c2.461,5.071,15.216,15.849,25.135,20.921,8.838,4.524,19.442,2.461,23.184.808,3.07-1.355,9.173-6.2,14.73-12.419Z" fill="#fff"/>
            <path id="Trazado_1517" data-name="Trazado 1517" d="M307.439,4715.27c5.756,0,23.866-.336,28.952-.485v.224a72.68,72.68,0,0,1-7.771,5.892c-3.169,1.952-8.85,2.213-12.927,0a79.379,79.379,0,0,1-8.254-5.631" fill="#fff"/>
            <path id="Trazado_1518" data-name="Trazado 1518" d="M336.39,4714.785c-5.084.149-23.2.485-28.952.485a79.557,79.557,0,0,0,8.255,5.631c4.077,2.213,9.758,1.951,12.928,0a72.678,72.678,0,0,0,7.769-5.892Zm18.236-54.335c.97,9.783,1.044,19.156.348,34.657-.336,7.583-1.268,14.917-2.038,21.642a54.737,54.737,0,0,1-9.46,14.034v.013c-5.557,6.215-11.661,11.063-14.731,12.418-3.742,1.653-14.345,3.717-23.183-.808-9.92-5.072-22.674-15.849-25.135-20.921.161-8.988.062-18.025.621-24.662,2.138-25.074,5.234-40.09,9.473-46.877,12.58-20.138,29.286-19.119,34.072-15.4,2.337-1.38,10.753-4.276,18.05,1.107s11.026,15.016,11.983,24.8" fill="#fff"/>
            <path id="Trazado_1519" data-name="Trazado 1519" d="M239.206,4786.361c-9.422,3.9-19.069,6.949-25.048,10.38-.025.012-.037.025-.062.037a24.333,24.333,0,0,0-2.076,1.33c2.337-9.932,16.4-21.5,21.629-40.8,4.277-15.762,8.4-43.458,11.71-59.245,4.463-21.244,7.857-41,21.22-65.659,19.441-35.888,43.532-30.916,50.146-27.062.484,1.914,1.939,6.862,3.468,12.182.609,2.151,1.23,4.351,1.8,6.439h.013a105.517,105.517,0,0,1,2.585,10.579c-4.786-3.717-21.492-4.736-34.073,15.4-4.238,6.787-7.334,21.8-9.472,46.876-.559,6.638-.46,15.675-.621,24.663a146.021,146.021,0,0,1-1.48,20.846c-.062.373-.137.746-.2,1.119a50.407,50.407,0,0,1-5.432,14.979,59.636,59.636,0,0,1-17.068,18.87c-4.885,3.618-10.914,6.526-17.042,9.062" fill="#1eadfe"/>
            <path id="Trazado_1520" data-name="Trazado 1520" d="M324.593,4634.544a105.517,105.517,0,0,0-2.585-10.579h-.013c-.572-2.088-1.194-4.288-1.8-6.439-1.53-5.32-2.984-10.268-3.469-12.182,4.264-2.064,12.381-3.406,18.758.821,9.783,6.476,13.712,15.874,17.876,24.55A149.012,149.012,0,0,1,364,4664.726c1.753,9.758,5.234,31.412,7.024,43.532s5.109,31.426,9.1,44.242,8.814,20.112,17.366,22.872,25.073.684,34.856,12.8a9.257,9.257,0,0,0-3.48-1.678c-7.907-2.238-23.694-.771-31.239-1.343a51.831,51.831,0,0,1-10.492-2.038c-7.757-2.313-16.52-6.688-23.134-13.948a35.624,35.624,0,0,1-5.171-7.583c-5.681-10.976-7.284-25.209-6.948-32.792.161-3.7.584-7.757,1.056-12.045.771-6.726,1.7-14.059,2.039-21.642.7-15.5.621-24.875-.348-34.657s-4.687-19.429-11.984-24.8-15.712-2.486-18.049-1.106" fill="#1eadfe"/>
            <path id="Trazado_1521" data-name="Trazado 1521" d="M566.519,4670.319a81.137,81.137,0,0,1-57.771,77.688c-.573-1.908-1.129-3.663-1.523-4.747-1.316-3.582-2.955-6.134-5.606-5.857s-9.268,2.965-11.131,3.654a8.473,8.473,0,0,0-4.747,4.962,56.2,56.2,0,0,1-2.131,5.364,81.088,81.088,0,1,1,82.909-81.064" fill="#19a500"/>
            <path id="Trazado_1522" data-name="Trazado 1522" d="M489.079,4682.635H473.023v-25.363h16.056v3.638H477.49v7.236h10v3.626h-10v7.164h11.588Z" fill="#fff"/>
            <path id="Trazado_1523" data-name="Trazado 1523" d="M492.037,4650.843l17.047,24.058v-17.63h4.449v32.5l-17.089-24.391v17.258h-4.407Z" fill="#fff"/>
            <path id="Trazado_1524" data-name="Trazado 1524" d="M524.093,4683.051a8.573,8.573,0,0,1-2.889-.479,9.39,9.39,0,0,1-2.495-1.33,10.374,10.374,0,0,1-2.037-2.018,13.479,13.479,0,0,1-1.517-2.493l3.115-2.575a8.169,8.169,0,0,0,.935,1.6,15.365,15.365,0,0,0,1.435,1.705,8.447,8.447,0,0,0,1.683,1.349,3.391,3.391,0,0,0,1.77.54,5.876,5.876,0,0,0,2.227-.352,3.757,3.757,0,0,0,1.352-.894,2.842,2.842,0,0,0,.665-1.1,3.714,3.714,0,0,0,.167-1.019,5.61,5.61,0,0,0-.105-1.019,3.1,3.1,0,0,0-.561-1.206,5.866,5.866,0,0,0-1.393-1.313,12.827,12.827,0,0,0-2.6-1.331,33.392,33.392,0,0,1-3.951-1.891,11.9,11.9,0,0,1-2.433-1.788,5.258,5.258,0,0,1-1.246-1.827,5.644,5.644,0,0,1-.354-2.017,7.206,7.206,0,0,1,.436-2.37,6.208,6.208,0,0,1,1.414-2.265,7.477,7.477,0,0,1,2.577-1.684,10.39,10.39,0,0,1,3.971-.667,8.567,8.567,0,0,1,5.283,1.561,9.883,9.883,0,0,1,3.2,4.386l-3.784,1.207a4.7,4.7,0,0,0-4.7-3.286,4.525,4.525,0,0,0-2.786.707,2.254,2.254,0,0,0-.913,1.871,1.908,1.908,0,0,0,.48,1.269,5.591,5.591,0,0,0,1.31,1.08,14.5,14.5,0,0,0,1.932,1q1.1.478,2.391,1.018a14.582,14.582,0,0,1,3.409,2,8.081,8.081,0,0,1,1.871,2.12,6.237,6.237,0,0,1,.791,2.121,12.437,12.437,0,0,1,.166,1.955,7.447,7.447,0,0,1-.417,2.245,7.1,7.1,0,0,1-1.412,2.454,7.826,7.826,0,0,1-2.709,1.952,10.2,10.2,0,0,1-4.282.789" fill="#fff"/>
            <path id="Trazado_1525" data-name="Trazado 1525" d="M552.02,4682.635l-2.953-6.861h-9.312q-.71,1.622-1.478,3.472t-1.434,3.389h-4.658l12.225-28.025,12.308,28.025Zm-4.45-10.562q-.456-1.122-.81-1.975t-.685-1.684q-.333-.831-.727-1.788t-.936-2.37q-.748,1.871-1.539,3.763t-1.621,4.053Z" fill="#fff"/>
            <path id="Trazado_1526" data-name="Trazado 1526" d="M428.537,4654.2c-.092.207-.462.138-.753.149.038-.26.492-.11.753-.149m5.058-.392c-.263-.036-.654-.309-.765-.072.283.072.617.244.764.072Zm-4.6.067c-.2-.062-.647-.133-.753.225C428.546,4653.925,428.789,4654.145,429,4653.877Zm2.711.225a3.468,3.468,0,0,0-2.032.223c.045.042.357.171.375,0-.368-.034.243-.143.377-.149-.058.312,1.146.145,1.279-.074Zm-9.262,3.646c.015-.209.246-.2.3-.371-.223.009-.625.268-.3.371m17.921,9.53a7.891,7.891,0,0,0,.151,1.713,4.2,4.2,0,0,0-.151-1.713m-13.7-12.8c.49-.162,1.007-.295,1.505-.448a2.458,2.458,0,0,0-1.505.448m3.613.074c-.636-.057-.987.164-1.581.149-.234.215-.734.167-.978.372.876-.151,1.64-.413,2.559-.521m-10.315,4.243c-.021.115-.324.314-.151.372a14.15,14.15,0,0,1,4.292-3.572,11.337,11.337,0,0,0-4.743,3.8,2.678,2.678,0,0,1,.6-.6m19.353-1.861c.335.187.83.622.451.3-.033-.029-.233-.41-.453-.3Zm-20.106,1.564c.514-.079.77-.975.965-1.21a3.657,3.657,0,0,0-.589.613v-.222c-.356.018-.342.4-.527.6.262-.066.259.113.151.223m.965-1.21c.028-.02.059-.039.089-.057-.029,0-.058.021-.089.057m1.594.986c.025-.252.6-.342.377-.6-.007.27-.593.352-.377.6m4.594.3c-.292-.026-.38.375-.527.075-.132.151.057.145-.075.3a1.276,1.276,0,0,0,.6-.372m-6.174,1.192c.144-.282.662-.584.6-.82-.227.2-.631.615-.6.82m-1.28.223c-.144.232-.545.6-.452.819.132-.245.517-.627.452-.82Zm-1.281,3.35c.158-.588.685-1.207.753-1.638a4.847,4.847,0,0,0-.753,1.637Zm1.131-1.117c-.062.264-.506.539-.3.818C418.472,4662.725,418.87,4662.4,418.76,4662.216Zm20.178,1.638c-.031-.213-.3-.524-.228-.373.111.16.291.8.225.373Zm.076.446c.279.368.3,1,.6,1.34-.171-.428-.321-1.27-.6-1.34m-.3,10.5a10.74,10.74,0,0,0,1.2-7.445c.2.044.273-.03.228-.223-.444-.156-.274-.92-.525-1.267v.225c1.124,4.067-.292,8.484-2.561,10.57a4.025,4.025,0,0,0,1.654-1.86m-17.469-1.937c.108.243.282.811.527.671-.269-.13-.28-.517-.527-.671m.9,1.638c0,.228.355.486.452.373C422.4,4674.794,422.346,4674.576,422.147,4674.5Zm15.135,2.233a1.934,1.934,0,0,0-.979.818,1.4,1.4,0,0,1,.677-.371c-.245-.2.278-.267.3-.447Zm-.753.743c-.085.216-.685.312-.527.521.079-.217.735-.26.527-.52Zm-4.443,4.69c.246-.034.756-.191.677-.3-.278.108-.511-.015-.678.3Zm-2.033-28.362c.009-.114-.01-.259.151-.223s-.091.114.074.223c.733-.243,1.26.01,2.034-.149-.365-.029-.383-.065-.228-.3a2.987,2.987,0,0,0-2.71.521c.225-.029.548-.185.679-.075m-7.987,21.667c.008.015.015.031.023.047.028.021.054.043.081.066-.035-.041-.07-.077-.1-.113m.878.949c.11.209.359.585.561.578a1.24,1.24,0,0,0-.561-.579Zm11.029,5.828c-.043.007-.079.029-.079.069.024-.023.057-.044.08-.066l-.007,0Zm11.29-7.971c-.384.713-.495,1.7-1.13,2.159,0,.149.207.095.151.3a14.98,14.98,0,0,1-2.635,3.5c.509.159-.811.675-.9,1.189a.541.541,0,0,0-.452,0c-.171.75-1.238.614-1.43,1.341a18.677,18.677,0,0,1-5.424,1.862c1.709-.668,3.679-1.078,4.967-2.159-.093-.16-.309.185-.527.149l0-.017a18.045,18.045,0,0,1-2.94,1.282c1.6-.95,3.368-1.73,4.592-3.053-.425.05-.491.457-.9.521a16.384,16.384,0,0,0,3.388-3.5,13.788,13.788,0,0,1-3.237,2.9c.114-.33.521-.377.677-.669a20.642,20.642,0,0,1-4.443,2.68,17.4,17.4,0,0,0,2.485-1.564c-.856.245-1.86.991-2.861,1.34-.077-.252.651-.347.9-.521-.828,0-1.607.694-2.56.819a6.979,6.979,0,0,1,1.13-.522c-.01-.057-.084-.075-.146-.066l0,0s0,0,0,0c.856-.75,2.239-1.375,3.284-2.2a5.386,5.386,0,0,0,.628-.562,26.988,26.988,0,0,1-2.636,1.53c.1.051.2-.022.182.083a2.809,2.809,0,0,0-.787.148c-.024.008-.047.019-.071.025v0c-.548.174-1.077.4-1.414.285a8.623,8.623,0,0,0,1.394-.373c-.068-.094-.307.093-.581.092.129-.084.259-.166.389-.251-.707.171-1.318.59-2.188.338-.878.329-2.017-.021-2.96.147.3.029.639.178.88.067.95.713,2.33-.219,2.972.183-.935.184-1.934.2-2.884.343.106.08.222-.021.206.092a11.527,11.527,0,0,1-2.025-.089c.749.272,1.648.146,2.244.514a1.776,1.776,0,0,0-.841.032c.1.1.376-.072.342.154-.9.023-1.941-.312-2.8-.193a8.536,8.536,0,0,0,2.34.477c.564.046,1.313-.15,1.659.168-.467.044-.608.377-1.147-.021-.143.468-.446-.154-.566.155.372.2,1.24-.042,1.665.335a4.486,4.486,0,0,0-1.316-.017c.693.438,1.4.108,2.008.49-.565.159-1.333-.21-1.813.172a6.176,6.176,0,0,1,1.551.039,15.026,15.026,0,0,1-2.73,0c-.389-.338-.883-.2-.877-.064a3.4,3.4,0,0,0-1.628-.237,17.055,17.055,0,0,1-7.061-3.893c1.032,1.38,2.922,2.389,4.412,3.361a11.767,11.767,0,0,1-3.4-1.956.224.224,0,0,0-.124-.106l.124.106a.222.222,0,0,1,.021.121,23.118,23.118,0,0,1-5.958-9.184.25.25,0,0,1,.1.07v0a11.492,11.492,0,0,1-.411-2.5,10.094,10.094,0,0,1,.006-1.37c.285,1.741.432,3.861,1.28,5.36a16.629,16.629,0,0,1-.677-7.966,3.285,3.285,0,0,0,.45-1.563c.122.06.457-.327.3-.819a14.577,14.577,0,0,1,1.129-2.455,6.037,6.037,0,0,1-.6,1.422c.548-.278.524-1.121.9-1.564.1.7-.495,1.205-.376,2.009a4.328,4.328,0,0,0,.526-1.19c.171.537-.41,1.218-.376,1.637.334.018-.114-.51.376-.447-.144-.65.222-.64.453-1.042.15.441-.338,1.037-.528,1.563a8.264,8.264,0,0,0-.527,2.306,27.332,27.332,0,0,0,.979-2.6c.22.063-.046.24,0,.372.21-.165.267-.481.376-.745.094.689-.393,1.447-.451,2.234.305-.566.355-1.386.752-1.861.114.032-.029.094,0,.224.526-.8.953-1.69,1.505-2.455.107.742-1.32,1.6-1.053,2.754-.2.171-.2.541-.3.818.543-.778.688-1.948,1.354-2.6.158-1.11,1.127-1.417,1.508-2.308-.428.15-.925.874-1.282,1.341.043-.542,1.028-1.142,1.355-1.861.115.032-.029.094,0,.223,1.563-1.757,4.088-2.56,6.477-3.5-.065-.219-.191.1-.378,0,.191-.184.671-.224.6-.446,5.744-1.313,11.372,2.055,13.853,5.583.047-.16-.456-1.169-.6-.893-.7-2-2.746-3.284-4.519-4.319.986.115,2.626,1.439,3.615,1.564-.155-.521-.716-.62-1.2-.968.58-.125,1,.948,1.656.743-.01.038.241.575.376.223a17.109,17.109,0,0,1,4.744,11.167,16.378,16.378,0,0,1-.978,6.1c.226-.078.1-.5.378-.523Zm-25.819-.433.236-.134a1.762,1.762,0,0,0,.521,1.22c-.008-.082-.115-.19-.087-.279a4.737,4.737,0,0,1,.448.747,3.1,3.1,0,0,1,.267.4.112.112,0,0,1-.06-.027,1.5,1.5,0,0,0,.812.777,7.4,7.4,0,0,1-.7-1.209,1.256,1.256,0,0,1-.667-.976,9.563,9.563,0,0,1-.928-1.5,1.879,1.879,0,0,0,.158.978Zm.811.143c-.075.041-.079.115-.037.206A1.609,1.609,0,0,1,420.255,4673.986Zm1.666,3.045h.014a.114.114,0,0,0-.011-.019v.018Zm.106-.776a5.288,5.288,0,0,0-.989-.8c.158.338.313.628.472.491.218.134.193.524.517.312Zm-7.41-3.468a.292.292,0,0,0-.012-.089l-.008-.014a.154.154,0,0,0-.023-.043c.016.049.03.1.043.146m4.607,7.607a1.363,1.363,0,0,0-.425-.518c0,.229.248.36.427.518Zm2.911-3.11c-.057-.068-.106-.137-.16-.2l-.07-.016-.085.084a2.038,2.038,0,0,0,.316.135Zm1.253,2.683c.063-.268-.457-.318-.694-.473.062.221.393.341.694.472Zm4.872,2.176c-.044-.247-.4-.067-.58-.177.043.249.4.069.58.177m2.195-2.45c.447.037.69.246,1.116.09.051-.131-.205-.149-.114-.3.94-.171,2.294.087,2.611-.468a.824.824,0,0,0,.523.078,1.077,1.077,0,0,1,.171-.1.64.64,0,0,0,.171-.249c.388.2.6-.057.882-.134.064-.058.13-.115.188-.176a.126.126,0,0,0-.09-.037c-.005,0-.01,0-.015,0a.215.215,0,0,0-.083.023l-.3.229c.065-.058.138-.119.21-.172a.725.725,0,0,1,.086-.057l-.011.009.015-.009h-.005a12.372,12.372,0,0,0,4.8-7.98.3.3,0,0,1,.007-.032c.035-.255.057-.513.076-.779,0-.047.012-.092.014-.141.016-.257.016-.521.016-.786,0-.057,0-.114,0-.168-.006-.251-.025-.509-.046-.766-.007-.076-.007-.148-.015-.223q-.05-.505-.141-1.028a11.525,11.525,0,0,0-3.614-6.622c-.4.145.025-.146-.377,0a7.963,7.963,0,0,0-1.055-.894c-3.341-1.734-8.092-.659-10.69,1.34-.129.027-.142-.057-.152-.149-.511.934-1.673,1.224-2.033,2.307-.108-.016-.026-.222-.15-.223-.429.543-.53,1.1-.978,1.712a.066.066,0,0,0,.017.04l.006,0a.024.024,0,0,0,.016,0l.01,0,.01-.007a.019.019,0,0,0,.007-.011.048.048,0,0,0,.009-.024c0,.007-.005.014-.006.022s-.012.041-.017.062c-.018.065-.034.132-.057.2a.28.28,0,0,0-.017.045c-.182.52-.5,1.093-.662,1.663a.091.091,0,0,1-.006.019,2.715,2.715,0,0,0-.065.3,5.641,5.641,0,0,1,.225-1.639c.642-2.224,2.55-3.9,4.292-5.062.215.171,1.554-.568,2.259-.968a6.548,6.548,0,0,1,2.635-.967c-1.111-.2-2.1.5-2.937.52.02-.387.1-.327.229-.52a4.789,4.789,0,0,0-2.034.742,7.1,7.1,0,0,1,2.711-1.339c-.163-.319-.571.166-.9.148.007-.192.294-.106.3-.3-.221-.019-.231.171-.452.149.107-.293.519-.28.753-.448-2.979.462-5.161,2.849-6.928,4.989.078.143.3-.2.376-.3.016.3-.847.991-.978,1.637a18.856,18.856,0,0,1,3.012-3.723c.133.057.01.136,0,.224.342.065.176-.372.451-.372-.09.506-.528.668-.677,1.117.322-.079.285-.514.753-.446-.09.432-.636.413-.6.967-.443-.018-.594.257-.6.67-.641.057-.961,1.383-1.505,2.159-.172.023-.084-.216-.229-.224-.318.32-.228.624-.376,1.042-.424-.255-.553,1.358-.9,2.01.261-.31.1.535.074.745-.163.012-.033-.264-.074-.373a.669.669,0,0,0-.151.522c.089-.012.134.016.151.074.238.036.028-.369.3-.3-.066.129-.1.441.076.224a17.326,17.326,0,0,0,.376,3.647,11.667,11.667,0,0,1-.528-1.861,5.818,5.818,0,0,0,1.733,4.541c-.034.11-.066-.007-.152,0,.081.244.35.3.453.521a1.3,1.3,0,0,1-.979-.6c.3.92,1.461,1.633,2.259,2.307a3.424,3.424,0,0,1-1.072-.4.258.258,0,0,0,.012.027l-.043-.046-.12-.069v.008a.079.079,0,0,1-.015-.019,4.524,4.524,0,0,1-1.7-1.96c-.32.2.02.338.07.576l0-.014c.285.961,1.118.99,1.827,1.571a6.663,6.663,0,0,0,3.762,2.854,11.856,11.856,0,0,1-1.5-1.242,17.9,17.9,0,0,0,3.207,1.843c-.27.065.029.168.175.16-.047.276-.335-.081-.4.149.046.038.053.093.007.165a.68.68,0,0,0,.541.081c-.082-.083-.391-.081-.311-.221.2.063,1.046.267.655.374.745-.043,2.284.505,2.224.019Zm7.055-1.918a3.975,3.975,0,0,0-1.267,1.168,1.213,1.213,0,0,1,.135-.014,7.386,7.386,0,0,0,1.13-1.154Zm-5.073,1.743c.114.3.493.007.71.071-.084-.2-.481.03-.713-.071Zm.045,1.163c-.359-.193-1.018.114-1.513.057.365.217,1.042-.043,1.512-.057Zm.986-.428c.06-.046.127-.092.192-.137-.66.134-1.328.243-1.994.363.58.133,1.437-.243,1.8-.227Zm-.319.235a3.423,3.423,0,0,1,1.224-.082c.359-.252.721-.5,1.078-.76a12.769,12.769,0,0,1-1.231.347,1.059,1.059,0,0,0-.324.388c-.258-.168.21-.206.222-.363a.19.19,0,0,0-.034.008c-.281.15-.592.271-.866.429.053-.049.117-.1.177-.144-.153.035-.316.09-.248.176Zm6.166-3.458a14.963,14.963,0,0,1-4.646,3.426,2.254,2.254,0,0,1,.394.114,15.978,15.978,0,0,0,4.252-3.54m-1.281,5.509c-.045.014-.1.014-.13.047.044-.017.087-.033.13-.047" fill="#fff" fill-rule="evenodd"/>
            <path id="Trazado_1527" data-name="Trazado 1527" d="M469.7,4677.334l-1.7-1.748v-.008l-.326-.338a8.952,8.952,0,1,1,.041-10.5l2.864-3.119a13.128,13.128,0,1,0,.026,16.645Z" fill="#fff"/>
            <path id="Trazado_1528" data-name="Trazado 1528" d="M518.59,4815.639c1.266,1.08,4.938,5.97,4.647,9.059s-2.689,2.106-4.226,2.2a4.792,4.792,0,0,1-2.1-.174l.414-10.08Z" fill="#fd0"/>
          </g>
        </g>
        <g id="Grupo_567" data-name="Grupo 567">
          <g id="Grupo_566" data-name="Grupo 566" clip-path="url(#clip-path)">
            <path id="Trazado_1529" data-name="Trazado 1529" d="M325.544,4671.66c1.214,3.69,2.275,7.415,3.308,11.145l1.489,5.606,1.418,5.62,1.371,5.6.179.659.043.163.039.163.043.268a2.4,2.4,0,0,1-.125,1.155,2.783,2.783,0,0,1-1.172,1.333,4.492,4.492,0,0,1-1.013.453,12.2,12.2,0,0,1-3.27.5,34.188,34.188,0,0,1-5.981-.366,27.327,27.327,0,0,1-5.812-1.394.519.519,0,0,1,.186-1h.066c1.847,0,3.817-.078,5.707-.123,1.9-.062,3.8-.125,5.61-.307a13.092,13.092,0,0,0,2.436-.442,1.276,1.276,0,0,0,.307-.137c.087-.036-.1.009-.193.3a.905.905,0,0,0-.067.443.425.425,0,0,0,.021.088l.014.032-.012-.046-.047-.188-.186-.745c-.449-1.912-.861-3.795-1.271-5.69l-1.142-5.693-1.041-5.712c-.649-3.818-1.259-7.643-1.707-11.5a.413.413,0,0,1,.8-.176" fill="#28347d"/>
            <path id="Trazado_1530" data-name="Trazado 1530" d="M291.294,4667.687a29.421,29.421,0,0,1,11.005-3.727,37.769,37.769,0,0,1,5.774-.447,30.616,30.616,0,0,1,5.733.513,2.539,2.539,0,0,1-.519,5.03h-.033c-1.785-.021-3.545-.145-5.308-.224s-3.523-.179-5.287-.182a47.845,47.845,0,0,0-10.523,1.017l-.037.009a1.087,1.087,0,0,1-.8-1.988" fill="#28347d"/>
            <path id="Trazado_1531" data-name="Trazado 1531" d="M351.382,4668.371c-1.652.13-3.242.156-4.814.184l-4.648.084c-1.53.016-3.043.071-4.544.1s-2.989.1-4.5.068h-.047a2.311,2.311,0,0,1-.581-4.536,19.471,19.471,0,0,1,5.02-.66,28.889,28.889,0,0,1,5,.377,31.354,31.354,0,0,1,4.835,1.2,22.767,22.767,0,0,1,4.551,2.045.614.614,0,0,1-.265,1.138Z" fill="#28347d"/>
            <path id="Trazado_1532" data-name="Trazado 1532" d="M306.007,4714.765a131.307,131.307,0,0,1,15.788-1.185c2.636-.05,5.274-.044,7.913.06s5.295.282,7.91.634l.028,0a.469.469,0,0,1,.031.925,65.11,65.11,0,0,1-7.916,1.027c-2.636.213-5.274.317-7.914.36s-5.28.019-7.923-.108a66.179,66.179,0,0,1-7.948-.737.495.495,0,0,1,.01-.977Z" fill="#28347d"/>
            <path id="Trazado_1533" data-name="Trazado 1533" d="M307.745,4714.876c2.569,1.155,4.992,2.51,7.373,3.725.587.286,1.2.613,1.735.821a11.365,11.365,0,0,0,1.667.559,14.96,14.96,0,0,0,3.558.48,14.439,14.439,0,0,0,3.558-.347,10.471,10.471,0,0,0,1.625-.513c.452-.194,1.1-.548,1.657-.866,2.334-1.3,4.671-2.788,7.141-4.113l.01,0a.518.518,0,0,1,.657.769,35.963,35.963,0,0,1-5.948,6.09,16.5,16.5,0,0,1-1.868,1.323,11.078,11.078,0,0,1-2.242.975,14.5,14.5,0,0,1-4.65.673,14.906,14.906,0,0,1-4.623-.761,12.841,12.841,0,0,1-2.186-.971,17.641,17.641,0,0,1-1.875-1.225,34.885,34.885,0,0,1-6.2-5.828.51.51,0,0,1,.6-.79Z" fill="#28347d"/>
            <path id="Trazado_1534" data-name="Trazado 1534" d="M341.832,4678.012c0,1.221-.485,2.21-1.084,2.21s-1.083-.989-1.083-2.21.485-2.21,1.083-2.21S341.832,4676.791,341.832,4678.012Z" fill="none" stroke="#28347d" stroke-linecap="round" stroke-linejoin="round" stroke-width="4.046"/>
            <path id="Trazado_1535" data-name="Trazado 1535" d="M303.253,4678.012c0,1.221-.485,2.21-1.085,2.21s-1.083-.989-1.083-2.21.485-2.21,1.083-2.21S303.253,4676.791,303.253,4678.012Z" fill="none" stroke="#28347d" stroke-linecap="round" stroke-linejoin="round" stroke-width="4.046"/>
            <path id="Trazado_1536" data-name="Trazado 1536" d="M406.214,4879.147c1.41,2.455,2.858,4.9,4.409,7.295,1.492,2.426,3.057,4.817,4.624,7.2,3.1,4.8,6.277,9.543,9.422,14.312,6.316,9.517,12.427,19.207,19.372,28.282a153.04,153.04,0,0,0,11.028,13.008,112.394,112.394,0,0,0,12.945,11.008,134.222,134.222,0,0,0,14.284,9.16,70.045,70.045,0,0,0,7.556,3.62c.639.25,1.283.45,1.923.679s1.266.328,1.9.5l.87.1c.147.015.283.042.438.049l.487-.009a14.577,14.577,0,0,0,1.932-.142,12.4,12.4,0,0,0,6.787-3.187,17.914,17.914,0,0,0,4.382-6.462c1.044-2.536,1.9-5.257,2.721-7.962s1.584-5.455,2.3-8.208,1.4-5.517,2.036-8.289c.613-2.761,1.272-5.583,1.652-8.3.77-5.589,1.281-11.309,1.791-16.992,1-11.387,1.817-22.8,2.511-34.219q.539-8.562.861-17.129c.2-5.7.405-11.45.188-17.038v-.019l1.815,1.183a32.576,32.576,0,0,1-10.56,2.325,33.8,33.8,0,0,1-10.769-1.1,29.014,29.014,0,0,1-9.806-4.623,19.2,19.2,0,0,1-6.678-8.474l-.007-.017,1.172-.164c-1.032,8.785-1.934,17.607-3.062,26.4-1.1,8.8-2.2,17.593-3.736,26.375-.762,4.4-1.76,8.748-2.74,13.069s-1.985,8.623-2.886,12.928a122.361,122.361,0,0,0-3.141,26.1.343.343,0,0,1-.681.059c-1.485-8.853-.588-17.97,1.02-26.714.812-4.388,1.806-8.722,2.8-13.035s1.933-8.617,2.753-12.933,1.488-8.695,2.194-13.06l2.042-13.119c.657-4.379,1.3-8.76,2.019-13.135s1.376-8.756,2.2-13.124a.623.623,0,0,1,1.135-.224l.037.059.01.015a20.925,20.925,0,0,0,7,6.891,30.935,30.935,0,0,0,9.122,3.759,36.95,36.95,0,0,0,9.86.952,37.8,37.8,0,0,0,9.774-1.738l.118-.037a1.3,1.3,0,0,1,1.636.849,1.34,1.34,0,0,1,.061.372v.02c.222,5.857,0,11.557-.2,17.3q-.36,8.6-.8,17.182c-.607,11.447-1.333,22.884-2.25,34.317-.472,5.724-.926,11.419-1.683,17.181-.4,2.961-1.036,5.724-1.645,8.555q-.937,4.219-2.007,8.4c-.714,2.79-1.461,5.573-2.3,8.339s-1.708,5.52-2.845,8.279a21.116,21.116,0,0,1-5.209,7.618,15.7,15.7,0,0,1-8.525,3.994,14.888,14.888,0,0,1-4.821-.055c-.747-.208-1.531-.377-2.243-.628s-1.425-.5-2.113-.783a72.745,72.745,0,0,1-7.866-3.916,122.977,122.977,0,0,1-14.339-9.785,116.771,116.771,0,0,1-12.848-11.631,154.942,154.942,0,0,1-10.983-13.34c-13.879-18.258-27.736-36.654-37.708-57.543a.706.706,0,0,1,1.248-.658Z" fill="#28347d"/>
            <path id="Trazado_1537" data-name="Trazado 1537" d="M512.791,4766.56a12.31,12.31,0,0,1-2.935-.052c-.954-.1-1.9-.23-2.837-.373-1.875-.3-3.744-.631-5.588-.861a14.731,14.731,0,0,0-2.686-.152,6.444,6.444,0,0,0-2.424.514,3.516,3.516,0,0,0-1.621,1.5,11.662,11.662,0,0,0-.874,2.41c-.491,1.778-.9,3.614-1.261,5.445s-.731,3.687-.909,5.44a5.619,5.619,0,0,0-.01,1.2,9.651,9.651,0,0,0,.227,1.253,16.86,16.86,0,0,0,.82,2.5,11.116,11.116,0,0,0,1.234,2.269,3.577,3.577,0,0,0,1.843,1.443l.048.013a.454.454,0,0,1-.093.892,4.144,4.144,0,0,1-2.976-1.279,9.765,9.765,0,0,1-1.84-2.478,13.942,13.942,0,0,1-1.137-2.816,11.63,11.63,0,0,1-.33-1.529,7.826,7.826,0,0,1-.052-1.632,56.986,56.986,0,0,1,2.4-11.331,11.9,11.9,0,0,1,1.2-2.859,5.477,5.477,0,0,1,2.6-2.154,8.177,8.177,0,0,1,3.122-.514,14.805,14.805,0,0,1,2.963.331c1.891.38,3.723.851,5.563,1.281.917.219,1.832.45,2.749.635a11.971,11.971,0,0,0,2.714.329h.036a.29.29,0,0,1,.054.576" fill="#28347d"/>
            <path id="Trazado_1538" data-name="Trazado 1538" d="M308.626,4910.382l-3.049-.448a.7.7,0,0,1,0-1.394l3.049-.449a1.158,1.158,0,0,1,.337,2.291,1.181,1.181,0,0,1-.337,0" fill="#28347d"/>
            <path id="Trazado_1539" data-name="Trazado 1539" d="M319.149,4908.091l2.825.449a.705.705,0,0,1,0,1.393l-2.825.449a1.16,1.16,0,0,1-.364-2.291,1.181,1.181,0,0,1,.364,0" fill="#28347d"/>
            <path id="Trazado_1540" data-name="Trazado 1540" d="M312.816,4949.99l-3.05-.747a.612.612,0,0,1,0-1.189l3.05-.747a1.381,1.381,0,1,1,.657,2.683,1.4,1.4,0,0,1-.657,0" fill="#28347d"/>
            <path id="Trazado_1541" data-name="Trazado 1541" d="M322.443,4947.606l2.825.374a.675.675,0,0,1,0,1.338l-2.825.373a1.052,1.052,0,1,1-.276-2.085,1.135,1.135,0,0,1,.276,0" fill="#28347d"/>
            <path id="Trazado_1542" data-name="Trazado 1542" d="M315.077,4989.3l-3.049-.523a.726.726,0,0,1,0-1.432l3.049-.523a1.257,1.257,0,1,1,.425,2.478,1.242,1.242,0,0,1-.425,0" fill="#28347d"/>
            <path id="Trazado_1543" data-name="Trazado 1543" d="M324.7,4987.046l2.825.523a.5.5,0,0,1,0,.984l-2.825.523a1.032,1.032,0,0,1-.376-2.03,1.08,1.08,0,0,1,.376,0" fill="#28347d"/>
            <path id="Trazado_1544" data-name="Trazado 1544" d="M281.052,4721.18a23.961,23.961,0,0,0,3.572,4.316q2.052,2.008,4.28,3.852a98.971,98.971,0,0,0,9.232,6.927c1.605,1.056,3.226,2.083,4.879,3.036a39.637,39.637,0,0,0,5.01,2.523,27.364,27.364,0,0,0,10.837,1.7,32.794,32.794,0,0,0,5.521-.657,24,24,0,0,0,2.638-.711,11.4,11.4,0,0,0,2.357-1.079,37.237,37.237,0,0,0,4.563-3.251c1.48-1.191,2.917-2.454,4.323-3.752a78.593,78.593,0,0,0,7.784-8.432,49.938,49.938,0,0,0,6.17-9.583l.013-.027a.937.937,0,0,1,1.714.755c-2.991,7.488-8.08,13.786-13.646,19.4-1.421,1.385-2.857,2.761-4.408,4.024a40.31,40.31,0,0,1-4.91,3.587,13.8,13.8,0,0,1-2.935,1.374,27.239,27.239,0,0,1-3,.814,35.933,35.933,0,0,1-6.077.729,29.971,29.971,0,0,1-12.085-2.036,41.9,41.9,0,0,1-5.362-2.855c-.859-.506-1.676-1.066-2.515-1.6-.814-.564-1.635-1.12-2.43-1.707a101.063,101.063,0,0,1-9.156-7.508q-2.152-2.035-4.138-4.26a22.07,22.07,0,0,1-3.477-4.972.693.693,0,0,1,1.221-.653Z" fill="#28347d"/>
            <path id="Trazado_1545" data-name="Trazado 1545" d="M317.36,4605.186a144.613,144.613,0,0,1,4.762,14.351c.664,2.436,1.3,4.881,1.836,7.357a44.7,44.7,0,0,1,1.156,7.594.525.525,0,0,1-1.029.165l-.015-.053c-.668-2.336-1.514-4.742-2.26-7.131-.773-2.392-1.5-4.8-2.207-7.216s-1.374-4.845-1.976-7.295-1.175-4.906-1.545-7.445a.663.663,0,0,1,1.273-.34Z" fill="#28347d"/>
            <path id="Trazado_1546" data-name="Trazado 1546" d="M321.767,4624.565a34.885,34.885,0,0,0-20.78.646,31.345,31.345,0,0,0-9.04,5.13,33.9,33.9,0,0,0-3.727,3.688l-.869.988-.434.494-.379.541-1.521,2.161a19.12,19.12,0,0,0-1.375,2.265l-1.308,2.312L280,4647.666l-2.083,4.991c-.6,1.7-1.262,3.378-1.821,5.093a130.374,130.374,0,0,0-4.954,21.087c-1.087,7.178-1.7,14.442-2.515,21.737-.39,3.641-.912,7.3-1.543,10.924-.646,3.6-1.29,7.2-1.994,10.8a166.044,166.044,0,0,1-5.267,21.382,68.964,68.964,0,0,1-4.263,10.191,60.347,60.347,0,0,1-5.986,9.257.269.269,0,0,1-.43-.322,64.613,64.613,0,0,0,9.344-19.552c1.046-3.473,1.9-7.009,2.635-10.572.759-3.558,1.426-7.141,2.041-10.737s1.2-7.2,1.765-10.808,1.03-7.177,1.366-10.81c.711-7.246,1.222-14.57,2.222-21.868a126.329,126.329,0,0,1,4.808-21.619c.566-1.763,1.233-3.493,1.845-5.241l2.115-5.139,2.376-5.026,1.387-2.463a21.164,21.164,0,0,1,1.478-2.411l1.645-2.315.411-.578.471-.536.944-1.068a36.941,36.941,0,0,1,4.077-4,34.265,34.265,0,0,1,9.954-5.6c.915-.279,1.826-.576,2.75-.817l2.808-.561,2.844-.274c.95-.035,1.9-.029,2.849-.027a27.789,27.789,0,0,1,10.971,2.585.642.642,0,0,1-.444,1.2Z" fill="#28347d"/>
            <path id="Trazado_1547" data-name="Trazado 1547" d="M319.464,4616.858c.236-.236.475-.479.73-.706a7.561,7.561,0,0,1,.8-.539,8.941,8.941,0,0,1,1.674-.79,15.279,15.279,0,0,1,3.464-.732,19.984,19.984,0,0,1,6.889.593c.553.165,1.115.293,1.657.49l1.616.617c.52.25,1.031.521,1.542.783s.975.617,1.461.922a17.158,17.158,0,0,1,4.731,4.9.516.516,0,0,1-.823.618l-.013-.015a19.131,19.131,0,0,0-4.848-3.982,19.381,19.381,0,0,0-5.826-2.145,22.963,22.963,0,0,0-6.162-.335,17.157,17.157,0,0,0-2.977.5,7.778,7.778,0,0,0-2.468,1.168l-.124.1a.98.98,0,0,1-1.32-1.445" fill="#28347d"/>
            <path id="Trazado_1548" data-name="Trazado 1548" d="M260.368,4683.233c-1.371,9.485-3.133,18.891-4.972,28.276s-3.772,18.741-5.73,28.111a179.211,179.211,0,0,1-8.147,27.684,97.485,97.485,0,0,1-6.245,13.077,51.946,51.946,0,0,1-8.823,11.536.614.614,0,0,1-.879-.857l.008-.01a55.1,55.1,0,0,0,7.892-11.666,110.712,110.712,0,0,0,5.682-12.983,214.2,214.2,0,0,0,7.776-27.374L250,4725.02l3.209-13.979,3.3-13.958c1.151-4.642,2.232-9.3,3.34-13.946a.266.266,0,0,1,.318-.2.272.272,0,0,1,.207.3" fill="#28347d"/>
            <path id="Trazado_1549" data-name="Trazado 1549" d="M364.775,4664.586a66.668,66.668,0,0,1,.607,7.288c.114,2.408.185,4.812.251,7.217.11,4.808.141,9.614.167,14.42s0,9.61-.064,14.415c-.033,2.392-.055,4.822-.145,7.222s-.125,4.778-.117,7.163a109.968,109.968,0,0,0,3.215,28.278,58.379,58.379,0,0,0,5.122,13.232,44.962,44.962,0,0,0,3.847,5.974,43.679,43.679,0,0,0,4.838,5.233l.007.007a.263.263,0,0,1-.346.4,39.182,39.182,0,0,1-5.216-5.053,44.879,44.879,0,0,1-4.232-5.931,59.939,59.939,0,0,1-5.7-13.386,70.971,70.971,0,0,1-1.722-7.074q-.705-3.57-1.136-7.182a122.779,122.779,0,0,1-.9-14.486c-.013-2.417.032-4.834.1-7.239s.1-4.771.13-7.18l.121-14.393q.063-7.2.03-14.389c0-2.4-.01-4.794-.061-7.184s-.086-4.816-.347-7.078l-.007-.058a.785.785,0,0,1,1.556-.212" fill="#28347d"/>
            <path id="Trazado_1550" data-name="Trazado 1550" d="M279.341,4743.178c1.275,2.225,2.783,4.419,4.266,6.583l4.5,6.508,9.051,13.01c2.994,4.355,5.994,8.708,8.945,13.1,2.974,4.373,5.869,8.8,8.747,13.248l-.934.032h0c2.652-4.661,5.306-9.323,8-13.956l8.113-13.88,8.135-13.847q2.049-3.448,4.042-6.916c.678-1.153,1.308-2.311,1.964-3.47l.888-1.753c.326-.591.486-1.134.75-1.717l.1-.224a.684.684,0,0,1,1.191-.1l0,0a33.941,33.941,0,0,1,3.75,5.034c.587.872,1.044,1.81,1.573,2.716.482.926.921,1.875,1.365,2.82a66.259,66.259,0,0,1,3.911,11.846,88.285,88.285,0,0,1,1.974,12.273,41.175,41.175,0,0,1-.469,12.385l-.032.149a.36.36,0,0,1-.713-.06v0a71.325,71.325,0,0,0-4.115-10.459,30.143,30.143,0,0,0-2.878-4.663,14.941,14.941,0,0,0-3.781-3.645,9.748,9.748,0,0,0-4.722-1.593,12.2,12.2,0,0,0-5.028.9,21.062,21.062,0,0,0-4.672,2.635,28.688,28.688,0,0,0-4.111,3.626l-.017.018a.831.831,0,0,1-1.259-1.08,23.344,23.344,0,0,1,9.157-7.407,13.958,13.958,0,0,1,6.069-1.163,12.028,12.028,0,0,1,5.919,2.052,16.726,16.726,0,0,1,4.244,4.338,27.076,27.076,0,0,1,2.8,5.177,49.759,49.759,0,0,1,1.9,5.47l.678,2.8c.195.937.375,1.877.546,2.816h0l-.745.09a103.475,103.475,0,0,1-1.669-12.1,106.861,106.861,0,0,0-1.887-11.926,82.205,82.205,0,0,0-3.377-11.535,47.285,47.285,0,0,0-5.554-10.579l0,0,1.292-.32a19.382,19.382,0,0,1-.577,2.079l-.739,1.927c-.552,1.236-1.05,2.514-1.655,3.718-1.153,2.447-2.4,4.836-3.66,7.215q-3.845,7.105-8.043,13.984-4.161,6.9-8.57,13.651c-2.938,4.5-5.956,8.946-9.14,13.29h0a.539.539,0,0,1-.879.1l-.055-.063c-3.479-4.02-6.788-8.169-9.977-12.4-3.209-4.221-6.3-8.531-9.331-12.877-3.008-4.367-5.975-8.762-8.78-13.271a104.38,104.38,0,0,1-7.707-14.04.656.656,0,0,1,1.173-.583Z" fill="#28347d"/>
            <path id="Trazado_1551" data-name="Trazado 1551" d="M301.25,4780.137a14.4,14.4,0,0,0-3.736-4.169,10.864,10.864,0,0,0-5.056-1.933,13.733,13.733,0,0,0-5.588.517c-.229.068-.472.129-.688.2l-.584.249a5.153,5.153,0,0,0-1.154.628,6.962,6.962,0,0,0-1.1.834,8.2,8.2,0,0,0-1.038.982,24.585,24.585,0,0,0-3.519,4.778,43.813,43.813,0,0,0-2.709,5.45,46.53,46.53,0,0,0-1.976,5.8,32.32,32.32,0,0,0-1.077,6.012v.02a.59.59,0,0,1-1.153.106c-.491-1.675-.944-3.367-1.3-5.079-.186-.856-.35-1.715-.485-2.58s-.312-1.725-.413-2.594a72.533,72.533,0,0,1-.649-10.49,70.554,70.554,0,0,1,.82-10.492q.4-2.607,1.024-5.181a38.011,38.011,0,0,1,1.67-5.051.835.835,0,0,1,1.567.567l0,.014a59.662,59.662,0,0,0-1.928,9.968c-.368,3.384-.594,6.789-.635,10.2s.052,6.827.323,10.235c.033.856.142,1.7.21,2.557s.164,1.705.282,2.553c.158,1.71.452,3.4.66,5.112l-1.154.123v0a30.15,30.15,0,0,1,.578-6.375,41.488,41.488,0,0,1,1.657-6.172,40.175,40.175,0,0,1,2.531-5.907,27.108,27.108,0,0,1,3.677-5.426,10.538,10.538,0,0,1,1.185-1.216,9.389,9.389,0,0,1,1.347-1.1,7.657,7.657,0,0,1,1.551-.925l.847-.389c.273-.1.538-.169.808-.254a16.756,16.756,0,0,1,6.779-.707,13.154,13.154,0,0,1,6.475,2.56,15.364,15.364,0,0,1,4.325,5.284,1.349,1.349,0,0,1-2.349,1.322Z" fill="#28347d"/>
            <path id="Trazado_1552" data-name="Trazado 1552" d="M344.578,4730.789c.165,1.367.216,2.733.276,4.1.029,1.366.04,2.732,0,4.1s-.067,2.732-.154,4.1c-.071,1.366-.168,2.733-.323,4.1a.914.914,0,0,1-1.816,0c-.155-1.366-.252-2.733-.322-4.1-.088-1.367-.131-2.733-.155-4.1s-.027-2.733,0-4.1c.06-1.367.111-2.733.276-4.1a1.115,1.115,0,0,1,2.214,0" fill="#28347d"/>
            <path id="Trazado_1553" data-name="Trazado 1553" d="M274.893,4789.012a93.357,93.357,0,0,0,3.567,8.892c1.35,2.919,2.685,5.842,4.088,8.742,2.777,5.807,5.656,11.574,8.472,17.37l17.1,34.7c5.606,11.63,11.267,23.207,16.274,35.21.586,1.532,1.185,3.075,1.711,4.639.433,1.6.966,3.192,1.271,4.793.745,3.2,1.288,6.4,1.793,9.613,1.014,6.417,1.657,12.857,2.28,19.293,1.167,12.879,1.948,25.774,2.485,38.675.251,6.451.5,12.9.686,19.354.209,6.452.3,12.907.432,19.361.207,12.909.214,25.833-.454,38.767a144.873,144.873,0,0,1-2.052,19.405,46.3,46.3,0,0,1-1.183,4.846c-.3.8-.571,1.617-.915,2.413a24.281,24.281,0,0,1-1.316,2.3,20.278,20.278,0,0,1-7.971,6.5c-6.145,2.932-12.755,3.945-19.227,4.639-6.51.674-12.974.816-19.42,1.06q-9.681.327-19.372.5c-6.462.1-12.927.157-19.415-.018-3.248-.095-6.49-.215-9.784-.526a26.626,26.626,0,0,1-5.155-.883,4.987,4.987,0,0,1-.813-.334,3.78,3.78,0,0,1-.847-.569,5.341,5.341,0,0,1-1.117-1.418,10.939,10.939,0,0,1-1-2.724,43.6,43.6,0,0,1-.716-10.069c.073-3.284.308-6.535.6-9.774s.663-6.459,1.064-9.671c.407-3.2.811-6.433,1.348-9.637,1.033-6.41,2.29-12.756,3.623-19.082q4.023-18.973,8.926-37.721a169.336,169.336,0,0,0,5.884-37.887c.6-12.8.25-25.637-2.6-38.122-1.279-6.279-2.926-12.49-4.655-18.677-.868-3.094-1.813-6.166-2.793-9.226-.484-1.531-.985-3.059-1.517-4.57a45.566,45.566,0,0,0-1.73-4.414l-.026-.055a.49.49,0,0,1,.864-.46,37.077,37.077,0,0,1,2.123,4.453c.63,1.5,1.228,3,1.809,4.512,1.145,3.029,2.211,6.087,3.226,9.161,2.031,6.15,3.747,12.4,5.23,18.723a113.423,113.423,0,0,1,2.849,19.327,177.991,177.991,0,0,1-.018,19.491c-.348,6.483-.97,12.95-1.945,19.375-.506,3.21-1.043,6.417-1.75,9.6-.674,3.2-1.53,6.347-2.306,9.449q-4.69,18.732-8.552,37.665c-1.268,6.305-2.46,12.629-3.422,18.963-.5,3.161-.868,6.329-1.248,9.533s-.7,6.381-.969,9.568-.459,6.375-.5,9.54a41.763,41.763,0,0,0,.646,9.185,7.713,7.713,0,0,0,.645,1.808,1.888,1.888,0,0,0,.356.481c.054.019.049.074.154.1a1.537,1.537,0,0,0,.306.118,24.319,24.319,0,0,0,4.37.707c3.128.292,6.335.407,9.533.5,12.823.265,25.719.059,38.592-.283l9.652-.3c3.206-.1,6.4-.264,9.569-.549,6.308-.577,12.689-1.519,18.264-4.1a17.485,17.485,0,0,0,6.949-5.458c1.7-2.32,2.432-5.439,3.1-8.5a142.591,142.591,0,0,0,2.27-19.016c.8-12.825.858-25.717.754-38.6-.314-25.764-1.6-51.547-4.18-77.154-.686-6.393-1.431-12.785-2.466-19.1-.52-3.157-1.079-6.31-1.82-9.389-.31-1.568-.821-3.033-1.237-4.546-.513-1.485-1.093-2.948-1.669-4.423-2.458-5.892-5.231-11.717-7.971-17.537q-4.139-8.728-8.368-17.426c-5.579-11.624-11.226-23.224-16.634-34.947-2.73-5.849-5.39-11.732-7.921-17.68l-1.9-4.462-1.79-4.512a78.207,78.207,0,0,1-3.053-9.273.474.474,0,0,1,.911-.262Z" fill="#28347d"/>
            <path id="Trazado_1554" data-name="Trazado 1554" d="M354.271,4773.39c-.94,5.052-2.277,9.956-3.535,14.9l-4.005,14.737-8.144,29.416-1.99,7.363-2.032,7.348c-1.367,4.894-2.821,9.762-4.248,14.636s-2.873,9.742-4.254,14.624q-2.141,7.311-4.015,14.679l0,.014a.53.53,0,0,1-1.039-.2,249.357,249.357,0,0,1,6.1-30c1.259-4.939,2.58-9.858,4-14.747l2.205-7.311,2.287-7.285,9.123-29.13,4.472-14.581c1.417-4.872,2.959-9.737,4.064-14.656l0-.014a.516.516,0,0,1,1.01.208" fill="#28347d"/>
            <path id="Trazado_1555" data-name="Trazado 1555" d="M203.731,4807.183a75.393,75.393,0,0,1,5.91,9.694q2.625,4.983,4.892,10.138c1.521,3.43,2.946,6.907,4.205,10.449a72.108,72.108,0,0,1,3.128,10.843.355.355,0,0,1-.684.184v-.005c-1.221-3.509-2.682-6.923-4.2-10.311q-2.323-5.067-4.781-10.069c-1.641-3.334-3.327-6.646-5.009-9.956l-2.532-4.954c-.843-1.636-1.7-3.311-2.593-4.835l-.03-.052a1.02,1.02,0,0,1,1.7-1.126" fill="#28347d"/>
            <path id="Trazado_1556" data-name="Trazado 1556" d="M239.975,4786.525a35.1,35.1,0,0,1-.774,5.977c-.2.981-.44,1.953-.719,2.917a20,20,0,0,1-1.052,2.845l-.749-.927a22.307,22.307,0,0,1,3.669-.709,35.582,35.582,0,0,1,3.668-.243,24.487,24.487,0,0,1,3.669.168,14.226,14.226,0,0,1,3.668.928l.458.193a.47.47,0,0,1-.022.873h0a28.746,28.746,0,0,1-2.818,3.842c-1.015,1.2-2.09,2.344-3.209,3.441a41.092,41.092,0,0,1-3.535,3.111,25.246,25.246,0,0,1-3.985,2.649l-.014-.669a265.814,265.814,0,0,1,24.576,20.994c7.824,7.4,15.587,14.869,23.175,22.519q11.434,11.427,22.209,23.522,5.4,6.03,10.365,12.479,2.477,3.225,4.739,6.639c.722,1.167,1.461,2.314,2.09,3.553.308.625.637,1.231.926,1.868l.757,1.992a.9.9,0,0,1-1.686.642l0,0-.029-.077a34.335,34.335,0,0,0-3.886-6.739q-2.316-3.231-4.876-6.313c-3.407-4.107-6.992-8.085-10.622-12.026-7.266-7.879-14.889-15.441-22.492-23.02q-11.467-11.31-23.14-22.425c-7.786-7.4-15.505-14.877-22.719-22.92h0a.31.31,0,0,1-.155-.41l.01-.021.132-.239a25.4,25.4,0,0,1,2.73-3.93,41.015,41.015,0,0,1,3.184-3.469c1.12-1.1,2.283-2.148,3.507-3.137a28.758,28.758,0,0,1,3.9-2.738h0l.435,1.067a14.184,14.184,0,0,1-3.668.927,24.358,24.358,0,0,1-3.669.168,35.58,35.58,0,0,1-3.668-.242,22.461,22.461,0,0,1-3.669-.709.608.608,0,0,1-.727-.456.618.618,0,0,1-.015-.119l-.007-.352a19.837,19.837,0,0,1,.21-3.027c.142-.993.318-1.979.544-2.954a35.007,35.007,0,0,1,1.75-5.767.8.8,0,0,1,1.539.331" fill="#28347d"/>
            <path id="Trazado_1557" data-name="Trazado 1557" d="M387.382,4783.687a22.865,22.865,0,0,1-3.262,2.04c-1.122.6-2.282,1.109-3.449,1.6a51.875,51.875,0,0,1-7.192,2.525l-.006-1.472h0a70.767,70.767,0,0,1,8.348,2.9,52.143,52.143,0,0,1,7.924,3.911l.228.143a.722.722,0,0,1,.23,1,.761.761,0,0,1-.139.163h0c-5.883,7.983-11.953,15.817-17.941,23.707S360.3,4836.1,354.49,4844.1c-5.793,8.016-11.509,16.084-16.927,24.32-1.378,2.045-2.7,4.121-4.01,6.2-1.33,2.072-2.605,4.169-3.847,6.286-2.4,4.252-4.8,8.586-6.078,13.162l-.015.052a.875.875,0,0,1-1.71-.358,34.638,34.638,0,0,1,2.063-7.387c.442-1.189.954-2.337,1.457-3.5l1.632-3.4c1.137-2.235,2.307-4.451,3.532-6.632,1.251-2.164,2.515-4.32,3.83-6.439q3.951-6.36,8.21-12.494c2.828-4.1,5.689-8.168,8.664-12.152,5.882-8.02,12.055-15.811,18.255-23.571s12.509-15.429,19.233-22.762h0l.319,1.3a52.236,52.236,0,0,1-8.336-2.933,70.932,70.932,0,0,1-7.91-3.944.738.738,0,0,1-.217-1.339l.211-.133a51.827,51.827,0,0,1,6.784-3.477c1.162-.505,2.331-1,3.538-1.4a23.011,23.011,0,0,1,3.726-.961.638.638,0,0,1,.487,1.135" fill="#28347d"/>
            <path id="Trazado_1558" data-name="Trazado 1558" d="M431.161,4788.385a104.72,104.72,0,0,0-4.442,11.326c-1.337,3.893-2.646,7.817-3.845,11.778q-.9,2.974-1.725,5.968c-.564,1.993-1.135,3.987-1.658,5.993-1.05,4.012-2.07,8.036-3.017,12.085a.535.535,0,0,1-1.053-.182q.729-6.228,1.932-12.389c.387-2.056.812-4.1,1.249-6.149q.7-3.059,1.471-6.1c1.034-4.056,2.133-8.1,3.5-12.085a53.428,53.428,0,0,1,5.278-11.636,1.348,1.348,0,0,1,2.344,1.324Z" fill="#28347d"/>
            <path id="Trazado_1559" data-name="Trazado 1559" d="M211.553,4798.795c-.014-.364-.067-.8-.051-1.3a5.5,5.5,0,0,1,.253-1.435c.252-.676.5-1.215.747-1.829a36.805,36.805,0,0,1,1.78-3.386c1.272-2.2,2.685-4.267,4.087-6.332,2.813-4.121,5.625-8.2,8.009-12.517a65.9,65.9,0,0,0,5.78-13.5c1.374-4.711,2.384-9.6,3.4-14.456,1.98-9.743,3.662-19.563,5.4-29.381.871-4.91,1.744-9.822,2.718-14.73l3.01-14.662a227.346,227.346,0,0,1,7.828-29.015c1.666-4.739,3.528-9.413,5.639-13.973.5-1.151,1.055-2.28,1.608-3.407s1.076-2.271,1.674-3.375l1.745-3.338c.6-1.1,1.27-2.182,1.9-3.274l1.926-3.266c.695-1.057,1.447-2.081,2.168-3.123.75-1.022,1.409-2.108,2.236-3.076l2.456-2.921c.422-.477.794-1,1.256-1.437l1.366-1.343,1.367-1.343a14.443,14.443,0,0,1,1.411-1.3l3-2.405c1.015-.784,2.15-1.414,3.221-2.127a33.966,33.966,0,0,1,14.582-4.927c.322-.03.644-.07.967-.09l.975,0,1.943.009c.646.037,1.291.125,1.935.186a13.075,13.075,0,0,1,1.919.285,20.655,20.655,0,0,1,7.258,2.731l-.656-.025h0a21.052,21.052,0,0,1,15.512-1.558,16.838,16.838,0,0,1,3.723,1.665c.614.334,1.112.727,1.664,1.093s1.062.771,1.574,1.183a36.1,36.1,0,0,1,5.588,5.522,64.5,64.5,0,0,1,7.959,13.274c1.089,2.305,2.2,4.56,3.235,6.938,1.021,2.358,1.947,4.745,2.814,7.151,1.728,4.813,3.187,9.711,4.448,14.661.621,2.478,1.19,4.97,1.684,7.481s.84,5.023,1.242,7.532l4.669,30.093,1.186,7.519,1.145,7.51q1.182,7.5,2.6,14.964t3.283,14.812a102.586,102.586,0,0,0,4.7,14.322c1.963,4.56,4.479,8.966,8.192,12.014a18.729,18.729,0,0,0,6.268,3.384,45.63,45.63,0,0,0,7.256,1.439c5,.691,10.162,1.359,15.047,3.186a28.753,28.753,0,0,1,6.929,3.566l1.563,1.174c.5.422.959.883,1.438,1.322l.711.666.632.742,1.248,1.489.005.006a.5.5,0,0,1-.682.713l-.032-.025a9.037,9.037,0,0,0-3.083-1.38,24.542,24.542,0,0,0-3.471-.633,69.819,69.819,0,0,0-7.152-.4c-4.8-.036-9.623.139-14.479.208a64.045,64.045,0,0,1-7.367-.2,52.043,52.043,0,0,1-7.292-1.318,58.191,58.191,0,0,1-13.737-5.39,50.776,50.776,0,0,1-6.226-4.023,46.446,46.446,0,0,1-5.513-4.983,16.341,16.341,0,0,1-1.235-1.406c-.394-.487-.806-.961-1.184-1.458l-1.061-1.541-.528-.772-.468-.8-.934-1.611c-.291-.547-.554-1.107-.831-1.66-.578-1.1-1.023-2.248-1.509-3.382a70.661,70.661,0,0,1-3.936-14.169c-.411-2.414-.744-4.841-.931-7.286a59.9,59.9,0,0,1-.206-7.371c.489-9.78,2.185-19.306,2.829-28.92.559-9.6.827-19.3.434-28.9q-.158-3.6-.463-7.187c-.216-2.4-.433-4.773-.867-7.077a39.34,39.34,0,0,0-4.734-13.1,25.153,25.153,0,0,0-4.285-5.349,17.46,17.46,0,0,0-5.57-3.642c-.512-.206-1.045-.362-1.574-.526a16.235,16.235,0,0,0-1.637-.333,16.638,16.638,0,0,0-3.368-.21,19.061,19.061,0,0,0-6.679,1.4l-.021.009a.867.867,0,0,1-.752-.039l-.019-.011a13.408,13.408,0,0,0-6.33-1.418l-.827-.012-.832.061a11.767,11.767,0,0,0-1.652.179c-.547.1-1.1.157-1.64.277l-1.614.421a29.887,29.887,0,0,0-11.6,6.593,47.743,47.743,0,0,0-8.535,10.591,36.457,36.457,0,0,0-2.591,6.29c-.718,2.192-1.3,4.449-1.831,6.72a232.124,232.124,0,0,0-4.254,27.849c-1.117,9.334-.929,18.758-1.167,28.224-.086,4.73-.208,9.468-.607,14.209a68.431,68.431,0,0,1-2.446,14.122,54.817,54.817,0,0,1-15.23,24.174,69.877,69.877,0,0,1-5.48,4.692c-.949.739-1.977,1.4-2.964,2.108-1.02.651-2.054,1.276-3.087,1.9a97.539,97.539,0,0,1-12.978,6.114c-4.417,1.764-8.87,3.368-13.294,4.961-2.217.792-4.38,1.674-6.548,2.535-1.051.48-2.148.9-3.157,1.442l-.772.389-.386.194-.526.288a10.636,10.636,0,0,1-2.27.8m.927-1.385c.355-.469.473-.893.7-1.124a1.018,1.018,0,0,1,.222-.186l.391-.23.783-.461c1.035-.645,2.119-1.144,3.182-1.715,2.149-1.054,4.348-1.984,6.539-2.888,4.377-1.834,8.8-3.467,13.134-5.263a126.815,126.815,0,0,0,12.638-5.953c.991-.589,1.985-1.176,2.962-1.784.94-.661,1.9-1.267,2.827-1.969,1.856-1.387,3.691-2.811,5.4-4.375a50.053,50.053,0,0,0,16.887-29.572c.37-2.3.643-4.624.83-6.961.394-4.673.515-9.384.6-14.1.145-9.411-.152-18.925.829-28.39.41-4.716.884-9.429,1.482-14.136s1.291-9.409,2.261-14.087c.487-2.339,1.046-4.67,1.758-6.98a39.065,39.065,0,0,1,2.687-6.834,33.31,33.31,0,0,1,1.957-3.132l1.016-1.51c.343-.5.753-.957,1.127-1.437a42.882,42.882,0,0,1,4.986-5.366,30.577,30.577,0,0,1,12.859-7.161,21.573,21.573,0,0,1,7.459-.529,12.854,12.854,0,0,1,1.861.306,10.455,10.455,0,0,1,1.819.534l.888.335.855.446a8.7,8.7,0,0,1,1.594,1.109l-.77-.05.023-.015a14.465,14.465,0,0,1,3.465-1.645,18.366,18.366,0,0,1,3.729-.849,17.257,17.257,0,0,1,7.7.806,18.737,18.737,0,0,1,6.546,4.155,27.939,27.939,0,0,1,4.745,5.951,39.862,39.862,0,0,1,4.97,14.079c.416,2.461.6,4.921.769,7.338q.252,3.648.331,7.3c.109,4.87.017,9.731-.154,14.578s-.347,9.682-.73,14.542c-.41,4.844-.916,9.671-1.474,14.475-.535,4.8-1.1,9.6-1.294,14.377a58.423,58.423,0,0,0,.228,7.126c.191,2.379.526,4.748.936,7.1A68.3,68.3,0,0,0,357.9,4757c.475,1.086.91,2.192,1.468,3.233.268.526.522,1.061.8,1.58l.9,1.521.448.76.5.723,1,1.442c.357.462.743.9,1.112,1.35a14.764,14.764,0,0,0,1.165,1.311,44.159,44.159,0,0,0,5.271,4.7,51.342,51.342,0,0,0,5.953,3.846,55.964,55.964,0,0,0,13.2,5.2,50.013,50.013,0,0,0,6.973,1.274,67.733,67.733,0,0,0,7.13.294c4.818.011,9.674-.11,14.544.147a58.744,58.744,0,0,1,7.309.725,25.768,25.768,0,0,1,3.619.876,9.528,9.528,0,0,1,3.377,1.815l-.714.688-.005-.005a26.918,26.918,0,0,0-5.638-4.789,29.935,29.935,0,0,0-6.7-3.087c-4.718-1.524-9.706-2.093-14.744-2.717a47.463,47.463,0,0,1-7.673-1.4,21.011,21.011,0,0,1-7.011-3.843,23.87,23.87,0,0,1-5.138-6.031,44.755,44.755,0,0,1-3.428-6.986,119.832,119.832,0,0,1-4.431-14.681c-1.2-4.948-2.24-9.926-3.244-14.908q-1.469-7.479-2.7-15l-1.192-7.524-1.237-7.5-5.028-29.991a148.492,148.492,0,0,0-7.6-29.207c-.862-2.362-1.78-4.7-2.783-6.994-1-2.269-2.137-4.562-3.223-6.839a62.093,62.093,0,0,0-7.686-12.736,36.885,36.885,0,0,0-5.194-5.17c-.472-.388-.949-.771-1.454-1.116s-.99-.752-1.488-1.032a15.057,15.057,0,0,0-3.165-1.518,18.389,18.389,0,0,0-3.463-.822,22.421,22.421,0,0,0-3.607-.131,21.752,21.752,0,0,0-7.1,1.516h0a.642.642,0,0,1-.57.015l-.086-.04a21.51,21.51,0,0,0-6.885-1.872,11.872,11.872,0,0,0-1.787-.166c-.6-.023-1.195-.074-1.792-.076l-1.794.092-.894.043-.887.134a34.486,34.486,0,0,0-13.417,4.794c-1,.669-2.062,1.248-3.017,1.986l-2.835,2.265a13.176,13.176,0,0,0-1.338,1.23l-1.3,1.276-1.3,1.274c-.442.418-.8.92-1.2,1.376l-2.359,2.8c-.8.926-1.434,1.982-2.159,2.967-.7,1.006-1.425,1.991-2.1,3.014l-1.874,3.173c-.617,1.063-1.269,2.1-1.858,3.186l-1.722,3.285c-.59,1.088-1.1,2.215-1.651,3.321s-1.089,2.219-1.586,3.351c-2.083,4.485-3.92,9.079-5.564,13.741a226.048,226.048,0,0,0-7.774,28.677l-3.087,14.615c-.994,4.864-1.894,9.762-2.792,14.662-1.8,9.8-3.536,19.625-5.582,29.41-1.043,4.893-2.111,9.768-3.58,14.611a67.932,67.932,0,0,1-6.112,13.863c-2.49,4.387-5.389,8.5-8.239,12.573-1.42,2.042-2.839,4.077-4.089,6.182a35.092,35.092,0,0,0-1.734,3.208l-.69,1.62a.533.533,0,0,1-.29.353,2.353,2.353,0,0,0-.6.492" fill="#28347d"/>
            <path id="Trazado_1560" data-name="Trazado 1560" d="M429.363,4785.992c3.781,3.649,6.406,8.152,8.756,12.679a145.215,145.215,0,0,1,6.114,14.016c3.619,9.511,6.689,19.186,9.858,28.8,1.586,4.809,3.19,9.584,5.016,14.272s3.8,9.333,5.89,13.917c4.215,9.153,8.78,18.179,13.848,26.874l.006.01a1.349,1.349,0,1,1-2.33,1.359v0a293.193,293.193,0,0,1-13.957-27.137c-2.085-4.641-4.052-9.338-5.86-14.1s-3.409-9.6-4.965-14.425c-3.11-9.647-6.108-19.311-9.634-28.76-1.729-4.736-3.609-9.413-5.775-13.934-.506-1.151-1.117-2.239-1.687-3.353-.552-1.128-1.218-2.176-1.854-3.248a34.922,34.922,0,0,0-4.415-5.934l-.032-.035a.713.713,0,0,1,1.022-.995" fill="#28347d"/>
            <path id="Trazado_1561" data-name="Trazado 1561" d="M478.585,4898.232c-3.5,3.525-6.909,7.068-10.03,10.826a72.185,72.185,0,0,0-4.336,5.848,37.728,37.728,0,0,0-3.288,6.371,22.089,22.089,0,0,0-1.357,6.872c-.012.6-.009,1.191.035,1.75a6.659,6.659,0,0,0,.1.784,2.491,2.491,0,0,0,.132.461.75.75,0,0,0-.236-.119.4.4,0,0,0-.261.011,1.23,1.23,0,0,0,.4-.29,9.39,9.39,0,0,0,1.067-1.3c1.367-1.967,2.54-4.192,3.756-6.363s2.321-4.425,3.78-6.545a.368.368,0,0,1,.631.378l-.013.024c-2.264,4.38-3.835,9.16-6.478,13.609a11.249,11.249,0,0,1-1.212,1.677,3.314,3.314,0,0,1-1.089.834,1.754,1.754,0,0,1-1.174.1,1.833,1.833,0,0,1-.971-.669,3.527,3.527,0,0,1-.578-1.26,8.517,8.517,0,0,1-.215-1.064c-.1-.684-.145-1.341-.176-1.994a24.219,24.219,0,0,1,1.176-7.843,40.642,40.642,0,0,1,3.27-7.095,56.834,56.834,0,0,1,4.408-6.333,72.079,72.079,0,0,1,10.856-10.682,1.351,1.351,0,0,1,1.806,2" fill="#28347d"/>
            <path id="Trazado_1562" data-name="Trazado 1562" d="M488.376,4838.46a111.9,111.9,0,0,1,.1-12.758q.174-3.18.519-6.356c.235-2.119.524-4.238.966-6.362l.034-.163a.505.505,0,0,1,.911-.183l0,0a60.721,60.721,0,0,0,10.222,6.559,76.773,76.773,0,0,0,11.155,4.834,28.716,28.716,0,0,0,5.736,1.361c1.889.249,3.71-.083,3.964-1.086a3.541,3.541,0,0,0-.172-2.231,11.061,11.061,0,0,0-1.249-2.513,24.057,24.057,0,0,0-3.932-4.482l-.005,0a.737.737,0,0,1,.907-1.157,20.562,20.562,0,0,1,4.8,4.368,12.47,12.47,0,0,1,1.768,2.927,5.983,5.983,0,0,1,.378,3.869,4,4,0,0,1-1.239,1.931,5.112,5.112,0,0,1-1.873.986,9.87,9.87,0,0,1-3.594.261,31.344,31.344,0,0,1-6.422-1.319,51.679,51.679,0,0,1-5.984-2.283c-1.928-.9-3.817-1.876-5.647-2.959a39.827,39.827,0,0,1-5.244-3.652,21.361,21.361,0,0,1-4.389-4.717l-.006,0,.945-.347c.2,2.129.244,4.263.236,6.4s-.083,4.269-.21,6.4a112.788,112.788,0,0,1-1.363,12.76.664.664,0,0,1-1.316-.075Z" fill="#28347d"/>
            <path id="Trazado_1563" data-name="Trazado 1563" d="M521.2,4846.909c-.062-1.867-.037-3.729-.01-5.592.068-1.862.106-3.725.225-5.586s.2-3.724.391-5.585a50.077,50.077,0,0,1,.728-5.643.726.726,0,0,1,1.435.194l0,.072c-.112,1.737-.114,3.646-.159,5.483-.013,1.856-.09,3.711-.116,5.569s-.122,3.714-.178,5.572c-.1,1.857-.186,3.715-.352,5.568a.982.982,0,0,1-1.959-.052" fill="#28347d"/>
            <path id="Trazado_1564" data-name="Trazado 1564" d="M523.337,4776.668a9.251,9.251,0,0,1,2.6,6.136,11.618,11.618,0,0,1-.269,3.4c-.239,1.085-.534,2.131-.838,3.175a107.423,107.423,0,0,1-4.443,12.222,24.963,24.963,0,0,0-1.584,5.973c-.346,2.085-.556,4.206-.759,6.33s-.325,4.262-.41,6.4c-.11,2.136-.15,4.28-.133,6.4v.014a.6.6,0,0,1-1.2.056,93.631,93.631,0,0,1-.094-13.006c.1-2.169.341-4.333.656-6.5a26.352,26.352,0,0,1,1.656-6.49c1.709-3.9,3.287-7.9,4.751-11.9.354-1,.7-2.015.979-3.018a10.282,10.282,0,0,0,.4-3,9.4,9.4,0,0,0-1.839-5.711.352.352,0,0,1,.057-.494.356.356,0,0,1,.46.02" fill="#28347d"/>
            <path id="Trazado_1565" data-name="Trazado 1565" d="M521.693,4769.226a7.18,7.18,0,0,1,2.378,1.313,5.789,5.789,0,0,1,1.751,2.356,4.817,4.817,0,0,1,.2,3.031,4.353,4.353,0,0,1-.26.775,2.683,2.683,0,0,1-.49.67,4.323,4.323,0,0,1-1.168.828.352.352,0,0,1-.468-.475l.016-.03a11.887,11.887,0,0,0,.526-1.083,1.611,1.611,0,0,0,.12-.45,4.232,4.232,0,0,1,0-.477,4.757,4.757,0,0,0-.423-1.98,8.918,8.918,0,0,0-1.157-1.812c-.478-.608-1.035-1.219-1.551-1.958a.465.465,0,0,1,.114-.648.48.48,0,0,1,.417-.06" fill="#28347d"/>
            <path id="Trazado_1566" data-name="Trazado 1566" d="M490.981,4775.523c-.774-1.042-1.618-2.032-2.35-3.2a7.785,7.785,0,0,1-1.176-4.037,20.022,20.022,0,0,1,1.644-7.947,35.45,35.45,0,0,1,3.819-7.044,7.986,7.986,0,0,1,3.372-2.79,5.939,5.939,0,0,1,5.465.1c.3.2.661.421.9.594.514.368,1.056.727,1.6,1.084,1.077.721,2.189,1.4,3.306,2.073,2.244,1.329,4.556,2.549,6.825,3.853,1.141.641,2.261,1.318,3.37,2.039a17.8,17.8,0,0,1,1.687,1.193,11.713,11.713,0,0,1,1.5,1.514,13.6,13.6,0,0,1,2.167,3.56,6.711,6.711,0,0,1,.5,2.115,4.079,4.079,0,0,1-.092,1.13,6.847,6.847,0,0,1-.317,1,.407.407,0,0,1-.787-.175l0-.028a4.719,4.719,0,0,0-.06-1.747,7.307,7.307,0,0,0-.7-1.6,15.887,15.887,0,0,0-2.228-2.893,13.059,13.059,0,0,0-1.319-1.2c-.455-.329-1-.675-1.538-1.025-1.087-.692-2.185-1.391-3.266-2.121-2.176-1.437-4.324-2.932-6.519-4.353l-3.322-2.1c-.556-.353-1.109-.705-1.663-1.087-.294-.212-.5-.31-.753-.463a4.738,4.738,0,0,0-.77-.276c-2.111-.574-4.5.875-5.687,2.706a50.877,50.877,0,0,0-3.643,6.7,23.792,23.792,0,0,0-2,7.195,6.417,6.417,0,0,0,.712,3.46c.567,1.1,1.333,2.177,2.03,3.289a.419.419,0,0,1-.126.578.425.425,0,0,1-.562-.1" fill="#28347d"/>
            <path id="Trazado_1567" data-name="Trazado 1567" d="M514.186,4775.125a11.37,11.37,0,0,1-2.787.929q-1.4.305-2.817.488c-1.862.259-3.807.385-5.618.472a4.581,4.581,0,0,0-3.784,1.909,17.024,17.024,0,0,0-2.1,4.759,18.9,18.9,0,0,0-.522,2.6c-.053.437-.1.874-.112,1.31-.01.208-.014.46-.005.631a1.628,1.628,0,0,0,.076.421c.368,1.18,1.94,2.305,3.439,2.829a5.23,5.23,0,0,0,1.109.269c.354.04.86.046,1.288.046a19.55,19.55,0,0,0,2.65-.16,11.171,11.171,0,0,0,2.475-.558,2.718,2.718,0,0,0,1.729-1.5l.025-.065a.206.206,0,0,1,.4.032,2.878,2.878,0,0,1-1.466,2.781,8.007,8.007,0,0,1-2.838,1.145,19.129,19.129,0,0,1-2.924.359,14.585,14.585,0,0,1-1.513,0,6.267,6.267,0,0,1-1.616-.351,9.624,9.624,0,0,1-2.769-1.485,5.6,5.6,0,0,1-2.008-2.747,3.679,3.679,0,0,1-.153-.956c-.01-.295,0-.511.01-.769.014-.5.059-.991.114-1.482a20.94,20.94,0,0,1,.556-2.9,28.933,28.933,0,0,1,.851-2.795,13.837,13.837,0,0,1,1.256-2.792,6.246,6.246,0,0,1,2.516-2.324,7.148,7.148,0,0,1,3.245-.657l5.584.15c.924.011,1.848.024,2.766.008a14.375,14.375,0,0,0,2.685-.216l.036-.007a.336.336,0,0,1,.226.625" fill="#28347d"/>
            <path id="Trazado_1568" data-name="Trazado 1568" d="M503.572,4784.932c1.562.183,2.948.486,4.305.531a11.769,11.769,0,0,0,4.026-.508l.02-.006a.52.52,0,0,1,.564.81,4.622,4.622,0,0,1-2.125,1.522,6.3,6.3,0,0,1-2.6.367,7.778,7.778,0,0,1-4.581-1.865.489.489,0,0,1,.376-.853Z" fill="#28347d"/>
            <path id="Trazado_1569" data-name="Trazado 1569" d="M516.926,4792.376a8.01,8.01,0,0,1-3.14.369,7.525,7.525,0,0,1-5.627-3.156,8.415,8.415,0,0,1-1.358-2.855.5.5,0,0,1,.356-.6.505.505,0,0,1,.495.15,16.5,16.5,0,0,0,4.028,3.641,11.383,11.383,0,0,0,2.422.983c.873.25,1.8.432,2.783.67l.008,0a.417.417,0,0,1,.033.8" fill="#28347d"/>
            <path id="Trazado_1570" data-name="Trazado 1570" d="M503.7,4788.58a9.613,9.613,0,0,1,.766-.833c.234-.237.443-.448.648-.647a5.719,5.719,0,0,1,.622-.571,3.029,3.029,0,0,1,.843-.471l.129-.045a.885.885,0,0,1,1.124.548.911.911,0,0,1,.041.4,2.624,2.624,0,0,1-1.526,1.964,3.364,3.364,0,0,1-1.223.368,2.968,2.968,0,0,1-1.245-.126.372.372,0,0,1-.238-.47.381.381,0,0,1,.059-.112" fill="#28347d"/>
            <path id="Trazado_1571" data-name="Trazado 1571" d="M502.688,4792.966c.03,1.2-.011,2.323.032,3.46s.067,2.258.17,3.391a32.538,32.538,0,0,0,.48,3.4c.21,1.143.488,2.281.744,3.474l0,.011a.369.369,0,0,1-.651.3,15.14,15.14,0,0,1-2.937-6.89,13.632,13.632,0,0,1-.116-3.817,9.358,9.358,0,0,1,1.177-3.656.592.592,0,0,1,1.1.288Z" fill="#28347d"/>
            <path id="Trazado_1572" data-name="Trazado 1572" d="M494.722,4748.1a15.163,15.163,0,0,1-.31,4.983,17.948,17.948,0,0,1-1.909,4.687,11.85,11.85,0,0,1-.776,1.134,8.774,8.774,0,0,1-1.014.982,7.65,7.65,0,0,1-2.473,1.291,8.346,8.346,0,0,1-5.466-.169,5.215,5.215,0,0,1-1.309-.784,3.142,3.142,0,0,1-1.014-1.46,3.729,3.729,0,0,1-.081-.962c.037-.232.053-.477.111-.695a9.882,9.882,0,0,1,.368-1.283,42.465,42.465,0,0,1,2.084-4.5,44.8,44.8,0,0,0,1.964-4.4l.414-1.134a7.681,7.681,0,0,1,.526-1.183,9.836,9.836,0,0,1,1.524-2.055,9.593,9.593,0,0,1,2.011-1.608,8.3,8.3,0,0,1,1.168-.559l1.114-.475c1.488-.645,2.99-1.272,4.522-1.841a31.938,31.938,0,0,1,4.77-1.472,4.642,4.642,0,0,1,2.932.291,6.09,6.09,0,0,1,2.165,1.863,18.032,18.032,0,0,1,2.23,4.612c.539,1.568,1.015,3.114,1.44,4.686.873,3.13,1.662,6.273,2.317,9.456a.563.563,0,0,1-1.085.3c-1.058-3.062-2.02-6.152-2.989-9.23-1.016-3.032-1.777-6.286-3.462-8.679a4.26,4.26,0,0,0-1.427-1.332,2.765,2.765,0,0,0-1.81-.2,39.331,39.331,0,0,0-4.547,1.238l-4.585,1.534a20.249,20.249,0,0,0-2.2.816,7.74,7.74,0,0,0-1.848,1.313,7.625,7.625,0,0,0-1.393,1.8,6.69,6.69,0,0,0-.46,1.032l-.385,1.16c-.537,1.545-1.128,3.071-1.713,4.587a45.622,45.622,0,0,0-1.579,4.49,8.021,8.021,0,0,0-.205,1.075,5,5,0,0,0-.034.509c.013.145.046.152.048.238a2.226,2.226,0,0,0,1.21.867,7.027,7.027,0,0,0,4.074.111,5.6,5.6,0,0,0,3.25-2.373,18.32,18.32,0,0,0,3.231-8.7.3.3,0,0,1,.6,0Z" fill="#28347d"/>
            <path id="Trazado_1573" data-name="Trazado 1573" d="M500.4,4750.547c.293-.5.513-.859.794-1.262s.525-.789.862-1.232l.075-.1a.525.525,0,0,1,.735-.1.517.517,0,0,1,.183.26,2.528,2.528,0,0,1-.407,2.158,2.66,2.66,0,0,1-.807.778,1.81,1.81,0,0,1-1.147.29.464.464,0,0,1-.348-.691Z" fill="#28347d"/>
            <path id="Trazado_1574" data-name="Trazado 1574" d="M484.94,4760.391a76.159,76.159,0,0,1-.86,14.2,34.193,34.193,0,0,0,1.209,13.619c1.288,4.334,3.82,8.4,5.554,12.9a38.137,38.137,0,0,1,1.976,6.956,33.151,33.151,0,0,1,.459,7.191.485.485,0,0,1-.969,0,37.324,37.324,0,0,0-3.2-13.436c-.915-2.132-1.972-4.205-3.054-6.318a37.035,37.035,0,0,1-2.824-6.679,32.068,32.068,0,0,1-.684-14.441c.417-2.383.876-4.628,1.157-6.974.292-2.326.489-4.666.556-7.013a.342.342,0,0,1,.684-.009" fill="#28347d"/>
            <path id="Trazado_1575" data-name="Trazado 1575" d="M483.6,4751.947a74.871,74.871,0,0,1-29.885-5.66,78.382,78.382,0,0,1-25.242-17.06,90.5,90.5,0,0,1-9.958-11.572,82.725,82.725,0,0,1-15.287-42.722A81.278,81.278,0,0,1,445.25,4598.1a81.287,81.287,0,0,1,29.121-9.408,84.24,84.24,0,0,1,15.322-.507,82.9,82.9,0,0,1,78.091,79.934l.064,1.921c.016.64-.031,1.28-.044,1.92l-.126,3.843a32.993,32.993,0,0,1-.325,3.83l-.444,3.823a80.63,80.63,0,0,1-10.306,28.851,78.487,78.487,0,0,1-47.619,36.5.838.838,0,0,1-.493-1.6l.012,0a87.958,87.958,0,0,0,25.954-14.317,81.431,81.431,0,0,0,19.4-22.2A80.417,80.417,0,0,0,564.043,4683l.491-3.681a31.2,31.2,0,0,0,.379-3.695l.186-3.714c.024-.619.081-1.238.077-1.858l-.031-1.86a80.471,80.471,0,0,0-1.624-14.781,77.606,77.606,0,0,0-11.352-27.415,78.657,78.657,0,0,0-62.594-35.507,81.825,81.825,0,0,0-14.859.775,80.824,80.824,0,0,0-68.991,83.534,78.307,78.307,0,0,0,6.858,28.856,80.046,80.046,0,0,0,7.388,12.971,73.713,73.713,0,0,0,9.717,11.345A84.474,84.474,0,0,0,454.666,4744a89.164,89.164,0,0,0,28.955,6.822.562.562,0,0,1-.025,1.123" fill="#28347d"/>
            <path id="Trazado_1576" data-name="Trazado 1576" d="M214.673,4797.478c-1.422,1.063-2.811,2.156-4.139,3.3a45.581,45.581,0,0,0-3.709,3.67,32,32,0,0,0-3.057,4.158,31.229,31.229,0,0,0-2.252,4.635,41.47,41.47,0,0,0-2.4,10.108c-.447,3.5-.723,7.066-1.016,10.618-1.072,14.245-1.774,28.547-2.535,42.837L190.94,4962.6c-.781,14.292-1.68,28.626-2.78,42.884-.847,14.236-1.23,28.567-1.606,42.87-.339,14.312-.653,28.625-.841,42.941q-.144,10.735-.19,21.472c-.015,7.155-.086,14.318.117,21.461a.425.425,0,0,1-.849.038c-.713-14.33-.749-28.654-.834-42.979-.05-14.326-.03-28.652.151-42.978s.384-28.64,1.051-43.006c.908-14.313,1.609-28.576,2.332-42.885l2.039-42.909,1.026-21.462,1.221-21.455c.913-14.3,1.938-28.591,3.31-42.884.37-3.577.718-7.142,1.253-10.74a43.677,43.677,0,0,1,2.846-10.662,33.551,33.551,0,0,1,2.574-4.945,34.213,34.213,0,0,1,3.418-4.394,48.408,48.408,0,0,1,8.453-6.951.9.9,0,0,1,1.042,1.467" fill="#28347d"/>
            <path id="Trazado_1577" data-name="Trazado 1577" d="M242.813,4902.969c-.312,10.1-.964,20.174-1.624,30.245-.634,10.073-1.447,20.13-2.183,30.193-.755,10.062-1.623,20.114-2.44,30.169L233.9,5023.71a1.033,1.033,0,0,1-2.062-.14c.523-10.093,1.316-20.151,2.092-30.212.845-10.055,1.664-20.111,2.581-30.158l2.75-30.139c.915-10.046,1.886-20.089,2.7-30.134v-.006a.429.429,0,0,1,.856.048" fill="#28347d"/>
            <path id="Trazado_1578" data-name="Trazado 1578" d="M229.554,5086.8l-.415,12.8c-.128,4.27-.309,8.544-.35,12.821q-.1,6.415.047,12.835c.088,4.281.261,8.562.573,12.851a.4.4,0,0,1-.784.115,115.644,115.644,0,0,1-2.012-12.825c-.435-4.309-.692-8.633-.809-12.96-.094-4.328-.1-8.66.168-12.984a78.4,78.4,0,0,1,1.715-12.915.946.946,0,0,1,1.867.244Z" fill="#28347d"/>
            <path id="Trazado_1579" data-name="Trazado 1579" d="M418.174,5079.358a102.032,102.032,0,0,1,3.413,14.451,155.059,155.059,0,0,1,1.885,29.633,96.939,96.939,0,0,1-1.641,14.772.375.375,0,0,1-.743-.091q.3-7.368.042-14.688c-.155-4.884-.485-9.76-.935-14.625-.428-4.867-1.049-9.715-1.605-14.574s-1.171-9.72-1.561-14.649a.588.588,0,0,1,1.145-.229" fill="#28347d"/>
            <path id="Trazado_1580" data-name="Trazado 1580" d="M333.41,5056.313a58.536,58.536,0,0,0,1.851,9.576,22.761,22.761,0,0,0,4.274,8.346,19.227,19.227,0,0,0,7.48,5.309l1.092.423a6.3,6.3,0,0,0,1.115.368l2.279.622c.776.157,1.565.271,2.346.411.393.064.782.14,1.176.195l1.2.1,2.394.2,2.454.1c1.635.081,3.278.106,4.919.142,3.282.062,6.571.05,9.859.008,6.575-.124,13.159-.3,19.725-.729,3.281-.212,6.563-.45,9.827-.786a83.8,83.8,0,0,0,9.64-1.411l1.131-.289.9-.366a2.789,2.789,0,0,0,.966-1.429,15.335,15.335,0,0,0,.585-4.558,70.8,70.8,0,0,0-.8-9.717c-.458-3.239-.97-6.536-1.461-9.793s-1.095-6.476-1.741-9.7c-1.31-6.442-2.971-12.815-4.787-19.149s-3.743-12.645-5.633-18.983-3.719-12.715-5.208-19.206l-.56-2.433-.5-2.452-.488-2.455-.412-2.474c-.127-.827-.3-1.647-.388-2.479l-.275-2.493c-.161-1.663-.418-3.323-.5-4.988l-.3-4.994c-.128-1.665-.1-3.329-.149-4.993-.116-3.33-.025-6.654.019-9.978.183-6.643.66-13.27,1.338-19.866.63-6.6,1.534-13.173,2.538-19.722,2.163-13.065,4.666-26.112,8.889-38.716a.465.465,0,0,1,.889.271l-.005.017c-3.506,12.679-5.609,25.739-7.428,38.77a349.635,349.635,0,0,0-3.09,39.317c-.028,3.28-.1,6.562.027,9.835.061,1.635.034,3.279.168,4.908l.322,4.893c.086,1.634.346,3.243.51,4.866.18,1.621.361,3.24.636,4.848l.374,2.416.452,2.409.458,2.409.525,2.4c2.865,12.792,6.713,25.445,10.067,38.253,1.657,6.41,3.247,12.849,4.526,19.363.622,3.261,1.211,6.528,1.665,9.819s1.024,6.5,1.5,9.8a72.9,72.9,0,0,1,.887,10.008,17.263,17.263,0,0,1-.664,5.231,4.806,4.806,0,0,1-1.807,2.563c-.458.242-.909.417-1.37.614l-1.261.353a85.308,85.308,0,0,1-9.921,1.662c-3.3.407-6.6.711-9.907.984-6.61.526-13.229.92-19.862,1.02-3.316.055-6.633.079-9.954.027-1.661-.031-3.322-.05-4.985-.126l-2.495-.1-2.54-.242-1.27-.123c-.422-.062-.843-.149-1.265-.223-.842-.159-1.686-.3-2.525-.478L348.37,5083a7.609,7.609,0,0,1-1.223-.439l-1.205-.5a20.685,20.685,0,0,1-8.278-6.322,24.317,24.317,0,0,1-4.275-9.354,52.044,52.044,0,0,1-1.166-9.979.6.6,0,0,1,1.187-.1" fill="#28347d"/>
            <path id="Trazado_1581" data-name="Trazado 1581" d="M319.563,4909.237a4.873,4.873,0,0,1-1.93,3.849,6.47,6.47,0,0,1-3.849,1.29,6.593,6.593,0,0,1-3.943-1.2,4.833,4.833,0,0,1,0-7.887,6.6,6.6,0,0,1,3.945-1.2,6.469,6.469,0,0,1,3.851,1.292,4.877,4.877,0,0,1,1.928,3.852m-2.62,0a4.482,4.482,0,0,0-.69-2.47,2.918,2.918,0,0,0-2.469-1.325,2.82,2.82,0,0,0-2.376,1.419,5.167,5.167,0,0,0,0,4.753,2.822,2.822,0,0,0,2.378,1.422,2.92,2.92,0,0,0,2.472-1.328,4.493,4.493,0,0,0,.687-2.471" fill="#28347d"/>
            <path id="Trazado_1582" data-name="Trazado 1582" d="M323.682,4948.649a4.834,4.834,0,0,1-1.9,3.808,6.339,6.339,0,0,1-3.808,1.278,6.436,6.436,0,0,1-3.88-1.207,4.787,4.787,0,0,1,0-7.76,6.43,6.43,0,0,1,3.882-1.21,6.34,6.34,0,0,1,3.81,1.28,4.84,4.84,0,0,1,1.9,3.811m-2.479,0a4.484,4.484,0,0,0-.719-2.51,3,3,0,0,0-2.51-1.338,2.924,2.924,0,0,0-2.44,1.409,5.005,5.005,0,0,0,0,4.88,2.923,2.923,0,0,0,2.442,1.411,3,3,0,0,0,2.512-1.34,4.512,4.512,0,0,0,.717-2.512" fill="#28347d"/>
            <path id="Trazado_1583" data-name="Trazado 1583" d="M326.034,4988.061a4.906,4.906,0,0,1-1.938,3.86,6.552,6.552,0,0,1-7.738.017,4.861,4.861,0,0,1-.025-7.779,6.508,6.508,0,0,1,7.788.017,4.939,4.939,0,0,1,1.913,3.885m-2.659,0a4.4,4.4,0,0,0-.7-2.436,2.886,2.886,0,0,0-4.854.018,4.728,4.728,0,0,0-.025,4.861,2.9,2.9,0,0,0,4.9.017,4.436,4.436,0,0,0,.679-2.46" fill="#28347d"/>
          </g>
        </g>
      </g>
    </g>
  </g>
</svg>
