<svg xmlns="http://www.w3.org/2000/svg" viewBox="0 0 536 800"><defs><style>.cls-1,.cls-10{fill:none;}.cls-2{fill:#fff;}.cls-3{fill:#33c977;}.cls-4{fill:#8990b8;}.cls-5{fill:#30d9cb;}.cls-6{fill:#28b8ce;}.cls-7{fill:#fad70d;}.cls-8{fill:#1cacfe;}.cls-9{fill:#28347d;fill-rule:evenodd;}.cls-10{stroke:#28347d;stroke-linecap:round;stroke-linejoin:round;stroke-width:1.7px;}</style></defs><title>imag_ocensa_6_gobierno_corporativo_matriz_delegacion_autoridad</title><g id="Figuras_fondo" data-name="Figuras fondo"><rect class="cls-1" width="536" height="800"/><path class="cls-2" d="M91.9,193.18c73.64-63.09,130.22-76.94,209.8-6.07s283.49,50.46,178,331.43S-163.41,411.89,91.9,193.18Z"/><path class="cls-3" d="M115.21,295.09C84.59,313.86-36.07,448.27,73,528.16S305.9,495.78,324.53,406,247.39,214.08,115.21,295.09Z"/></g><g id="Parche_color" data-name="Parche color"><path class="cls-4" d="M278.86,529.49c-2.11-1.42-7.66-4.77-12.34-7.49l2.81-1.15a85.8,85.8,0,0,1,9.54,8.63Z"/><path class="cls-5" d="M248.91,537.25a30,30,0,0,0,4.64,5.2c-.23,1.24-4.57,7.42-5.8,6.42h0a1.11,1.11,0,0,1-.29-.74C247.24,546.2,248,541.5,248.91,537.25Z"/><path class="cls-5" d="M249.68,528.92l.94.73c-.3,1.18-1,4.25-1.71,7.6-.87,4.25-1.67,9-1.47,10.87a1.11,1.11,0,0,0,.29.74,36.88,36.88,0,0,1-8.55-5.24c.48-6.75.85-12.31.92-13.93l4.48.63Z"/><path class="cls-5" d="M287.11,513.59a6.05,6.05,0,0,1-1.23,4.87c-1,1.29-1.86.93-3.35,0-.46-.28-1.52-1-2.85-1.84Z"/><path class="cls-2" d="M249.22,520.69c-.82-.82-1.31-1.65-1.06-2.44a3.35,3.35,0,0,1,3.28-2.5c1.93-.22,5.22.86,9.42,3.07,1.37.73,3.41,1.88,5.66,3.18,4.68,2.72,10.23,6.07,12.34,7.49h0a85.8,85.8,0,0,0-9.54-8.63l-2-1.55c-2.64-2.09-6-2.62-6.43-4.55a3.6,3.6,0,0,1,2.14-4.07,11.29,11.29,0,0,1,7.29.36,93.19,93.19,0,0,1,9.31,5.58c1.33.86,2.39,1.56,2.85,1.84,1.49.93,2.35,1.29,3.35,0a6.05,6.05,0,0,0,1.23-4.87s0,0,0-.05c-.36-2-1.51-2.72-1.72-5.22a3.49,3.49,0,0,1,2.86-3.86c1,0,2.42,1.07,3.65,3.29a31.67,31.67,0,0,1,1.23,3.37,16.68,16.68,0,0,1,.84,4.6c0,1.85.07,1.6-1.29,4.74s-2.07,4.22-2.86,7.36-1.86,3.86-3.07,5.37-.36,1.35-2.07,3.43c-1.09,1.3-2.71,1.64-4,2.13h0a3.27,3.27,0,0,0-1.8,1.22c-1,1.64-2.84,3.49-6.55,5s-7.94,3.14-11.45,2.07a22,22,0,0,1-7.31-4.6,30,30,0,0,1-4.64-5.2c.69-3.35,1.41-6.42,1.71-7.6l-.94-.73L245.83,526c-2-1.58-2.39-3.15-1.68-4.21S247.73,520.1,249.22,520.69Z"/><path class="cls-6" d="M235.91,629.74,90.72,628.22a262.85,262.85,0,0,1,7.1-46,19.12,19.12,0,0,0,7.57,2.92c12.38,2.47,68,6.86,91.27,6.28s30.68-1.52,34.86-3.43C235.53,606.3,235.72,620,235.91,629.74Z"/><path class="cls-7" d="M101.74,284.24c5.48-.25,11.38-4.43,12.49-7.91a13.85,13.85,0,0,1,1.34-1.34c-.12.35-3.65,11-7.7,21.4a12.93,12.93,0,0,1-1.54,2.87c-4.44,6.11-12.72,3.91-17.29,2.3-6-2.12-13.43-8.26-13.9-13.05s5.07-14.39,7.62-21.32a78.09,78.09,0,0,0,3.53,8.21A16,16,0,0,0,101.74,284.24Z"/><path class="cls-2" d="M100.7,235.56c-2.41-1.08-8.32-1.28-11.87-.91a5.2,5.2,0,0,0-.59.1,4.68,4.68,0,0,0,.59-1.93c.25-3,3.1-4.82,6.15-5,1-.05,2.19-.09,3.47-.1a25.84,25.84,0,0,1,7.57.77,15.76,15.76,0,0,1,4.33,3.17,22.15,22.15,0,0,1,3,3.3,2.38,2.38,0,0,0-.89,2.16c.15,1.46,1.61,3.3,3.58,4.57a12,12,0,0,1-1.76,8.62c-1.66,2.26-3.9,2.34-4.65.85a25.65,25.65,0,0,0-2.74-9.39A13.51,13.51,0,0,0,100.7,235.56Z"/><path class="cls-2" d="M109.58,208.78c.38,5.74,1.46,18.64.77,22.89A15.76,15.76,0,0,0,106,228.5a25.84,25.84,0,0,0-7.57-.77c1.09-3,2.33-13.85,2.5-19s.32-12.05.58-14.12c.46-3.65,4.31-2.53,5.65,0S109.26,203.89,109.58,208.78Z"/><path class="cls-2" d="M116,241.7c-2-1.27-3.43-3.11-3.58-4.57a2.38,2.38,0,0,1,.89-2.16,9,9,0,0,1,3-1.32,12.16,12.16,0,0,1,7,0c2.41.91,4.23,1.57,5.57,5,.78,2,.29,8.62-1.08,12.54-.8,2.31-2.08,7.54-5.48,12.53h0A20.88,20.88,0,0,1,115.57,275h0a13.85,13.85,0,0,0-1.34,1.34c-1.11,3.48-7,7.66-12.49,7.91a16,16,0,0,1-15.45-8.84,78.09,78.09,0,0,1-3.53-8.21h0a108.56,108.56,0,0,1-3.94-12.4c-.93-4.23-1.43-7.16-.5-9.65s3.8-3.55,4.67-4.3.56-2.43,1.13-3.61,2.64-2.12,4.12-2.47a5.2,5.2,0,0,1,.59-.1c3.55-.37,9.46-.17,11.87.91a13.51,13.51,0,0,1,6.14,6.22,25.65,25.65,0,0,1,2.74,9.39c.75,1.49,3,1.41,4.65-.85A12,12,0,0,0,116,241.7Z"/><path class="cls-7" d="M185.48,322.37c6.17,6.34,26.74,27.61,27.47,30-.79-1.27-12.48,13.24-14.76,20.2,0,0-16.87-31.64-25.35-40.59l10.91-11.43Z"/><path class="cls-7" d="M241.53,374.42c.63,2.1-2,6.18-4.46,9.41-2,2.63-3.92,4.69-3.92,4.69L227.53,376c5.41-3.09,11.52-5,13.5-2.58l0,0C241.23,373.81,241.39,374.13,241.53,374.42Z"/><path class="cls-7" d="M241,373.46c-2-2.45-8.09-.51-13.5,2.58a101.4,101.4,0,0,0-11.93,8.38s-.2-3.27-.5-7.72c2.66-6.31,6.66-16.39,10.49-26.31h0C226.58,352,237.62,367.18,241,373.46Z"/><path class="cls-7" d="M109.43,396.06a40.38,40.38,0,0,1-4.61-.87C96.24,393,65.1,377.47,61,372.61s-7.53-6.67-4.86-24.3,14.56-49.51,19-59.8c.47,4.79,7.87,10.93,13.9,13.05,4.57,1.61,12.85,3.81,17.29-2.3-1,9.93-1.79,19.14-1.41,27.33.33,7.15,1,9,1.13,15.3,0,0,6.58.71,11.25-1.11s10.67-8.19,19-10.19,12.67-1.52,18.76,0A48.75,48.75,0,0,0,172.84,332c8.48,9,25.35,40.59,25.35,40.59,2.28-7,14-21.47,14.76-20.2.58,1.9,1.56,15.44,2.15,24.29.3,4.45.5,7.72.5,7.72A101.4,101.4,0,0,1,227.53,376l5.62,12.48s1.91-2.06,3.92-4.69a112.51,112.51,0,0,1,8.65,36.75c.72,12-3.2,75.13-3.92,85.85l-46.26,16.95,44.56,6.31c-.07,1.62-.44,7.18-.92,13.93-.85,12.24-2,28.39-2.13,32.2-.19,5.9-1.33,10.28-5.53,12.19s-11.62,2.86-34.86,3.43-78.89-3.81-91.27-6.28a19.12,19.12,0,0,1-7.57-2.92c-4.45-3.29-3.74-8.49-1.95-15.38,2.47-9.52,12.38-67.26,13.56-95S112.54,412.71,109.43,396.06Z"/><path class="cls-2" d="M227.19,303.65c-1.85,2.6-8.47,4.22-14.24,2.17s-6.95-5.19-8.19-8.71C209.53,297.41,222,298.78,227.19,303.65Z"/><path class="cls-2" d="M235.07,322.33a14.7,14.7,0,0,0,1.16-1.21c-1,3.89-5.69,16.45-10.64,29.27-3.83,9.92-7.83,20-10.49,26.31-.59-8.85-1.57-22.39-2.15-24.29-.73-2.43-21.3-23.7-27.47-30a153.23,153.23,0,0,0,1.76-19.09,37.54,37.54,0,0,0,1.23,7.34c1.78,5.93,8.31,12.64,13.74,15.36s13.43,3.06,18.86,2.63A21.76,21.76,0,0,0,235.07,322.33Z"/><path class="cls-2" d="M187,299h0a2.59,2.59,0,0,1-4.48,1c-2-1.9-3-10.89-2.51-15.38s2.57-7.65,4.76-6.79,2.76,5,2.86,7.53l1.81.77s4.22-17.07,6.57-23c2.1-5.3,4.39-11,11.15-14.82s14.77-3,17.82-2.38,13.9,4.57,17.81,7.72,7.53,10,8.29,15.72-4.19,26.57-4.76,28.86l1.36.62s2.21-3.36,5.14-2.93,2.4,3.07,1.64,6.22c-.62,2.57-3.41,7.81-5.76,10.66s-6.76,5.44-7.8,1.09h0a34.11,34.11,0,0,1-4.65,7.26,14.7,14.7,0,0,1-1.16,1.21,21.76,21.76,0,0,1-14,6.28c-5.43.43-13.43.07-18.86-2.63s-12-9.43-13.74-15.36a37.54,37.54,0,0,1-1.23-7.34v0C187.12,301.82,187.06,300.38,187,299Zm40.17,4.62c-5.19-4.87-17.66-6.24-22.43-6.54,1.24,3.52,2.5,6.69,8.19,8.71S225.34,306.25,227.19,303.65Z"/><path class="cls-8" d="M219.82,229.5A24.85,24.85,0,0,1,229.4,228l-2.16,1.61s9-1.23,14.29,1l-2.48,1.14s17.15,4.57,21.16,16.3l-2.87-.3a23.91,23.91,0,0,1,3.72,10.77l-2.47-1.42s.42,23.86-5.79,38.84c-2.93-.43-5.14,2.93-5.14,2.93l-1.36-.62c.57-2.29,5.53-23.15,4.76-28.86s-4.38-12.58-8.29-15.72S228,246.47,225,245.9s-11.05-1.43-17.82,2.38-9,9.52-11.15,14.82c-2.35,5.94-6.57,23-6.57,23l-1.81-.77c-.1-2.57-.67-6.67-2.86-7.53-.19-4.95,2.05-14.74,4.57-23.05,2-6.67,7.91-14.67,9.15-15.81l-1.24-1.82,2.86.67V233l2.48,4.1s3.59-8.95,18.75-9.72Z"/><path class="cls-2" d="M308.36,230c.56.7.4,8.88.4,8.88a62.29,62.29,0,0,0-6.73,1.91v-8.65C302,230.85,307.67,229.07,308.36,230Z"/><path class="cls-2" d="M358.15,231.37c.66.48.34,9.55.34,9.55a77.23,77.23,0,0,0-10-2.46h0s-.32-6.87,0-8S356,229.82,358.15,231.37Z"/><path class="cls-2" d="M306.41,243.9c-7.08.71-13.25,1.22-15.88,2.4a43.14,43.14,0,0,1,6.59-3.62,52.42,52.42,0,0,1,4.91-1.94,62.29,62.29,0,0,1,6.73-1.91A85.22,85.22,0,0,1,328,236.75a117.25,117.25,0,0,1,20.42,1.71,77.23,77.23,0,0,1,10,2.46,43.21,43.21,0,0,1,12.62,6.22,69.43,69.43,0,0,0-12.42-2.38C344.42,243.29,317.84,242.75,306.41,243.9Z"/><path class="cls-2" d="M376.05,244.23l3.51,7.08c-.8-1.29-4-2.85-8.45-4.17a43.21,43.21,0,0,0-12.62-6.22s.32-9.07-.34-9.55c-2.14-1.55-9.39-2.08-9.7-.93s0,8,0,8h0A117.25,117.25,0,0,0,328,236.75a85.22,85.22,0,0,0-19.27,2.08s.16-8.18-.4-8.88c-.69-.88-6.33.9-6.33,2.14v8.65a52.42,52.42,0,0,0-4.91,1.94c-.14-7.93,1.19-36.89,22.91-44.8,2.57-3.52,10.21-3.52,10.21-3.52.87-3.15,11.09-3.07,11.09,0,0,0,5.93.76,7.79,3C359.31,198,378.84,212.94,376.05,244.23Z"/><path class="cls-5" d="M379.67,251.52c1,2.29-2,5.1-8.09,7.33a15.51,15.51,0,0,0-1.24-1.43A23,23,0,0,0,360,251.51a63.28,63.28,0,0,0-14.86-2c-14.6-.6-42.68-.24-44.11,2,0,.61.08,1.8.15,3.34-5.27-1.89-13-5.91-11.77-7.72q.52-.4,1.17-.84c2.63-1.18,8.8-1.69,15.88-2.4,11.43-1.15,38-.61,52.28.86a69.43,69.43,0,0,1,12.42,2.38c4.49,1.32,7.65,2.88,8.45,4.17Z"/><path class="cls-6" d="M370.34,257.42l.59,6.36a13,13,0,0,0-2.5,2.88l-1.74,3.22-3.43-.43c.14-5.55-1.07-14.22-3.31-17.93h0A23,23,0,0,1,370.34,257.42Z"/><path class="cls-2" d="M360,251.52c2.24,3.71,3.45,12.38,3.31,17.93l3.43.43,1.74-3.22a13,13,0,0,1,2.5-2.88c1.46-1.17,2.89-1.4,4.13-.4,2.19,1.76,2,5.53,1,11.34s-2.66,8-4.94,11.14c-2.67,3.69-6.69,5.06-6.91.67h0c-.09-1.87-.14-3-.14-3a40.23,40.23,0,0,1-8,22.2c-3.14,3.91-14.86,10.77-17.24,11s-14.38,1.05-18.58-.59a11.63,11.63,0,0,1-2.08-1.14h0c-4.36-2.88-10.46-9.48-11.92-13.22-1.72-4.38-3.62-18.77-3.81-23.15-.16-3.56-.94-17.11-1.28-23.81-.07-1.54-.13-2.73-.15-3.34,1.43-2.24,29.51-2.6,44.11-2a63.28,63.28,0,0,1,14.86,2Z"/><path class="cls-2" d="M364.19,286.53c.37,7.5,1.34,26.79,1.66,30.67h0c-3.71,6.3-14.09,17.29-20.76,20-13.18-4.8-23.51-12.59-26.58-16.26l-.37-5.86a11.63,11.63,0,0,0,2.08,1.14c4.2,1.64,16.2.87,18.58.59s14.1-7.14,17.24-11a40.23,40.23,0,0,0,8-22.2S364.1,284.66,364.19,286.53Z"/><path class="cls-5" d="M318.51,320.91c3.07,3.67,13.4,11.46,26.58,16.26a39.38,39.38,0,0,0-6.78,7.11,157.75,157.75,0,0,0-10,14.7c-2.77-2-11.15-16.48-12.16-20.48-.55-2.25-.07-6.89.5-11.08.45-3.24,1-6.21,1.08-7.59A6.08,6.08,0,0,0,318.51,320.91Z"/><path class="cls-6" d="M345.09,337.17c1.62,1.48,4.65,4,8.19,6.92a33.1,33.1,0,0,1-2.57,11.46h-8.1c-1.35-2-2.68-4.89-4.3-11.27A39.38,39.38,0,0,1,345.09,337.17Z"/><path class="cls-5" d="M370.37,322.91a45.55,45.55,0,0,1,1.49,19.4A30.59,30.59,0,0,1,367,355.55c-4.2-3.64-9.35-7.85-13.72-11.46-3.54-2.92-6.57-5.44-8.19-6.92,6.67-2.67,17.05-13.66,20.76-20h0a12.87,12.87,0,0,0,1.15-2.37A41.47,41.47,0,0,1,370.37,322.91Z"/><path class="cls-6" d="M362.15,445.55a50,50,0,0,1-5.57-.05h0c-.15-.51-.29-1-.43-1.36l-16.59-.2c.17-36.67-.2-72.72,3.06-88.39h8.1C353.39,368,358.25,405,362.15,445.55Z"/><path class="cls-5" d="M266.39,434.82c-2.38.86-.23,4.19,2.27,4.83s10-.22,12.17-.44l-7.24,2.59c-3.86,1.36-5,2.22-9.07,4.57-.94-10.79-2.91-31.65-4-41.94s-6.38-34.87,4-45.87S290.19,341.7,294.4,340s20.85-10.76,22.27-12.56c-.57,4.19-1.05,8.83-.5,11.08,1,4,9.39,18.49,12.16,20.48a157.75,157.75,0,0,1,10-14.7c1.62,6.38,2.95,9.27,4.3,11.27-3.26,15.67-2.89,51.72-3.06,88.39l-12.81-.16c.07.27.16.59.24,1,0,0-13-.43-16.09-.59a27.11,27.11,0,0,1-8.93-2.2c-2.43-1.07-6.72-6.29-8.93-7.12s-7.48-2.19-9.48-3a12.52,12.52,0,0,0-6.95,0C275,432.44,268.65,434,266.39,434.82Z"/><path class="cls-2" d="M259.59,457.72c-1.77-1.28-2-2.42-1.22-4.85s2.08-4.14,6.15-6.5,5.21-3.21,9.07-4.57l7.24-2.59c-2.12.22-9.68,1.08-12.17.44s-4.65-4-2.27-4.83,8.58-2.38,10.21-3a12.52,12.52,0,0,1,6.95,0c2,.77,7.26,2.13,9.48,3s6.5,6.05,8.93,7.12a27.11,27.11,0,0,0,8.93,2.2c3.08.16,16.09.59,16.09.59,1.21,5.15,2.7,18.5,3,26.52,0,0-1.38-.12-3.44-.23-5.15-.29-14.55-.58-17.05,1a56.65,56.65,0,0,1-15.06,6.65c-4.13.93-10.73.78-12.66,1.21a13.31,13.31,0,0,0-7.24,5.43,2.39,2.39,0,0,0,.16.32c-1.14.36-3.71.61-5-.32s-2.14-2.43-1.21-5.43a7.57,7.57,0,0,1,1.46-2.69,35.09,35.09,0,0,1,2.95-2.74c1.18-1.21-.63-2.22-1.48-2.29s-3.08.43-3.43,1,1,2,.5,2a19,19,0,0,1-4-.64,7.21,7.21,0,0,1-3.71-3.86,4.08,4.08,0,0,1,.15-3c-3.87-1.06-4.44-5.4-3.51-7.41A7.14,7.14,0,0,1,259.59,457.72Z"/><path class="cls-5" d="M359.11,478.59c-.06.45-.13.83-.2,1.15,0,0-27.21-1.39-29.47-1.81a3.11,3.11,0,0,0,.34-.95,28.37,28.37,0,0,0,.17-5.73c-.27-8-1.76-21.37-3-26.52-.08-.36-.17-.68-.24-1l12.81.16,16.59.2c.14.38.28.85.43,1.36a79,79,0,0,1,2.34,13.32C359.43,465.93,359.62,474.65,359.11,478.59Z"/><path class="cls-5" d="M362.15,445.55c-3.9-40.6-8.76-77.55-11.44-90a33.1,33.1,0,0,0,2.57-11.46c4.37,3.61,9.52,7.82,13.72,11.46a30.59,30.59,0,0,0,4.86-13.24,45.55,45.55,0,0,0-1.49-19.4c4,5.64,22.69,8.64,28.12,10.35s24.44,3.43,33.3,9.15,14.57,21.57,15.72,36.72,1.71,47.59,1.28,60.17-2.43,30.58-6.28,37-12,6-17.16,6.43c-.5,0-1.36.06-2.52.08-4.84.05-14.93-.15-26.15-.7-13.2-.65-28-1.78-37.57-3.53.51-3.94.32-12.66-.2-19.77a79,79,0,0,0-2.34-13.32h0A50,50,0,0,0,362.15,445.55Z"/><path class="cls-5" d="M396.68,482.12c-8,5.33-19.2,8.84-30.22,11.16a225,225,0,0,1-26.81,3.8c-4.58.38-8.17.56-10.18.65l29.44-10.84L307,482.54l-25.12,9.2h0a11.46,11.46,0,0,1-7.25-6.11,2.39,2.39,0,0,1-.16-.32,13.31,13.31,0,0,1,7.24-5.43c1.93-.43,8.53-.28,12.66-1.21A56.65,56.65,0,0,0,309.46,472c2.5-1.58,11.9-1.29,17.05-1h0c.51,2,1.95,8.49,2.93,6.9,2.26.42,29.47,1.81,29.47,1.81.07-.32.14-.7.2-1.15C368.72,480.34,383.48,481.47,396.68,482.12Z"/><path class="cls-6" d="M358.91,486.89l-29.44,10.84-36.35,13.39a31.67,31.67,0,0,0-1.23-3.37c-1.23-2.22-2.65-3.29-3.65-3.29a3.49,3.49,0,0,0-2.86,3.86c.21,2.5,1.36,3.22,1.72,5.22,0,0,0,0,0,.05l-7.43,3a93.19,93.19,0,0,0-9.31-5.58,11.29,11.29,0,0,0-7.29-.36,3.6,3.6,0,0,0-2.14,4.07c.43,1.93,3.79,2.46,6.43,4.55l2,1.55L266.52,522c-2.25-1.3-4.29-2.45-5.66-3.18-4.2-2.21-7.49-3.29-9.42-3.07a3.35,3.35,0,0,0-3.28,2.5c-.25.79.24,1.62,1.06,2.44-1.49-.59-4.36,0-5.07,1.07s-.28,2.63,1.68,4.21l3.85,2.95-5.1,1.4-4.48-.63-44.56-6.31,46.26-16.95,40.11-14.69h0l25.12-9.2Z"/><path class="cls-5" d="M356.72,553.48l.06,2.35-9.54.27.06,2.44c-12.48-.12-52.91,3.9-64.28,5.06l-3,.31.64-25.15h0c1.3-.49,2.92-.83,4-2.13,1.71-2.08.86-1.94,2.07-3.43s2.28-2.22,3.07-5.37,1.5-4.23,2.86-7.36,1.28-2.89,1.29-4.74a16.68,16.68,0,0,0-.84-4.6l36.35-13.39c2-.09,5.6-.27,10.18-.65l.05.65c.11,15.81.22,29.33.15,38.22Z"/><path class="cls-6" d="M369.67,533.76l-12.95,19.72L339.85,536c.07-8.89,0-22.41-.15-38.22l-.05-.65a225,225,0,0,0,26.81-3.8C367.68,507.66,368.78,521.47,369.67,533.76Z"/><path class="cls-5" d="M396.68,482.12c11.22.55,21.31.75,26.15.7h0s2.81,41.49,3.24,51.07,2.71,22.58,0,22.58h-.93c-7.41.07-51.8.71-51.8.71l0-1.82-16.51.45-.06-2.35,12.95-19.72c-.89-12.29-2-26.1-3.21-40.48C377.48,491,388.65,487.45,396.68,482.12Z"/><path class="cls-6" d="M347.3,558.54l.34,12.15s-58.47,3.23-64.62,3.23V563.6C294.39,562.44,334.82,558.42,347.3,558.54Z"/><polygon class="cls-6" points="373.68 569.76 373.73 571.5 347.68 572.22 347.64 570.69 347.3 558.54 347.24 556.1 356.78 555.83 373.29 555.38 373.34 557.2 373.68 569.76"/><path class="cls-6" d="M425.14,556.49l.5,9.28c-3.64.71-46.37,4.07-52,4l-.34-12.57S417.73,556.56,425.14,556.49Z"/><path class="cls-6" d="M373.68,569.77c5.59.07,48.32-3.29,52-4,3.09,27.86,3.67,50.49,3,64H280.09c-.07-18.67,0-41.73,2.93-55.82,6.15,0,64.62-3.23,64.62-3.23l0,1.53,26.05-.72Z"/><path class="cls-5" d="M269.91,475.69l-1-2.53a11.48,11.48,0,0,1,2.49-.33c.34.14.76-.38,1.1.62S269.91,475.69,269.91,475.69Z"/><path class="cls-9" d="M325,211.2c-.05.12-.28.08-.46.09,0-.16.3-.07.46-.09m3.12-.25c-.16,0-.4-.19-.47,0,.18,0,.38.15.47,0m-2.83.05c-.13,0-.4-.09-.46.13.18-.11.33,0,.46-.13m1.67.13a2.16,2.16,0,0,0-1.25.14s.22.11.23,0c-.23,0,.15-.09.23-.09,0,.19.71.09.79-.05m-5.71,2.25c0-.13.15-.12.18-.23-.13,0-.38.17-.18.23m11.05,5.88a5,5,0,0,0,.1,1.06,2.54,2.54,0,0,0-.1-1.06m-8.45-7.9c.3-.1.62-.18.93-.27a1.58,1.58,0,0,0-.93.27m2.23,0c-.39,0-.61.1-1,.09-.14.13-.45.1-.6.23.54-.09,1-.25,1.58-.32M319.71,214c0,.07-.2.19-.1.23a8.89,8.89,0,0,1,2.65-2.21,7.1,7.1,0,0,0-2.92,2.34,1.41,1.41,0,0,1,.37-.36m11.93-1.15c.21.11.51.38.28.18,0,0-.14-.25-.28-.18m-12.4,1c.32-.05.48-.6.6-.74a2.23,2.23,0,0,0-.37.38v-.14c-.22,0-.21.25-.32.37.16,0,.16.07.09.13m.6-.74.05,0s0,0-.05,0m1,.61c0-.16.37-.22.23-.37,0,.16-.36.21-.23.37m2.83.18c-.18,0-.23.23-.32,0-.08.1,0,.09-.05.19a.81.81,0,0,0,.37-.23m-3.8.73c.09-.17.4-.36.37-.5-.14.12-.39.38-.37.5m-.79.14c-.09.14-.34.37-.28.51.08-.15.32-.39.28-.51m-.79,2.07c.09-.37.42-.75.46-1a2.77,2.77,0,0,0-.46,1m.69-.69c0,.16-.31.33-.18.5,0-.19.25-.39.18-.5m12.45,1c0-.13-.18-.32-.14-.23s.18.49.14.23m0,.27c.17.23.18.62.37.83-.11-.26-.2-.78-.37-.83m-.19,6.48a6.59,6.59,0,0,0,.74-4.59c.12,0,.17,0,.14-.14-.27-.1-.17-.57-.32-.78v.14a6.87,6.87,0,0,1-1.58,6.52,2.45,2.45,0,0,0,1-1.15m-10.77-1.2c.06.15.17.51.32.42-.16-.08-.17-.32-.32-.42m.55,1c0,.14.22.3.28.23-.12,0-.15-.18-.28-.23m9.34,1.38a1.23,1.23,0,0,0-.61.51.84.84,0,0,1,.42-.23c-.15-.13.17-.17.19-.28m-.47.46c-.05.14-.42.19-.32.32,0-.13.45-.16.32-.32m-2.74,2.9c.16,0,.47-.12.42-.19s-.31,0-.42.19M325.93,211c0-.07,0-.16.09-.14s0,.07.05.14c.45-.15.78,0,1.25-.09-.22,0-.23,0-.14-.19a1.85,1.85,0,0,0-1.67.33c.14,0,.34-.12.42-.05M321,224.31l0,0a.1.1,0,0,0,.05,0,.46.46,0,0,1-.07-.07m.54.59c.07.13.23.36.35.36a.75.75,0,0,0-.35-.36m6.81,3.59s-.05,0-.05,0l.05,0h0m7-4.91c-.24.44-.3,1-.7,1.33,0,.09.13.06.1.18a9.22,9.22,0,0,1-1.63,2.16c.31.1-.5.42-.56.73a.32.32,0,0,0-.27,0c-.11.47-.77.38-.89.83A11.32,11.32,0,0,1,328,230a10.9,10.9,0,0,0,3.06-1.33c-.05-.1-.19.11-.32.09h0a11.11,11.11,0,0,1-1.81.79,12.45,12.45,0,0,0,2.83-1.88c-.26,0-.3.28-.56.32a9.73,9.73,0,0,0,2.09-2.16,8.26,8.26,0,0,1-2,1.79c.07-.2.32-.23.41-.41a12.79,12.79,0,0,1-2.73,1.65,11.29,11.29,0,0,0,1.53-1c-.53.15-1.15.61-1.77.82,0-.15.4-.21.56-.32-.51,0-1,.43-1.58.51a3.73,3.73,0,0,1,.7-.32s-.05,0-.09,0h0c.53-.46,1.38-.84,2-1.35a3.33,3.33,0,0,0,.39-.35,17.31,17.31,0,0,1-1.63,1c.06,0,.12,0,.12,0a1.69,1.69,0,0,0-.49.09h0a1.79,1.79,0,0,1-.88.18,6.42,6.42,0,0,0,.86-.23c0-.06-.19,0-.35,0l.24-.15c-.44.1-.82.36-1.35.21-.55.2-1.25,0-1.83.09.18,0,.39.11.54,0,.59.44,1.44-.14,1.84.11-.58.12-1.2.13-1.78.22.06,0,.13,0,.12.05a7.6,7.6,0,0,1-1.25-.05c.47.16,1,.09,1.39.31a1.28,1.28,0,0,0-.52,0c.06.06.23,0,.21.1a17,17,0,0,0-1.73-.12,5,5,0,0,0,1.45.29c.35,0,.81-.09,1,.11-.29,0-.37.23-.71,0-.09.29-.27-.09-.35.1.23.13.77,0,1,.21a2.46,2.46,0,0,0-.81,0c.43.27.86.06,1.24.3-.35.1-.82-.13-1.12.1a3.9,3.9,0,0,1,1,0,9.54,9.54,0,0,1-1.69,0c-.24-.21-.54-.12-.54,0a2.2,2.2,0,0,0-1-.15,10.53,10.53,0,0,1-4.36-2.4,10.45,10.45,0,0,0,2.72,2.08,7.06,7.06,0,0,1-2.09-1.21.1.1,0,0,0-.08-.06l.08.06a.19.19,0,0,1,0,.08,8.58,8.58,0,0,1-2.25-2.74,8.25,8.25,0,0,1-1.42-2.93l.06,0h0a7.16,7.16,0,0,1-.25-1.54,5.89,5.89,0,0,1,0-.84,10.69,10.69,0,0,0,.79,3.31,10.27,10.27,0,0,1-.42-4.92,2,2,0,0,0,.28-1c.08,0,.28-.2.19-.51a9.49,9.49,0,0,1,.69-1.51,3.4,3.4,0,0,1-.37.87c.34-.17.32-.69.56-1,.06.43-.31.74-.23,1.24a2.9,2.9,0,0,0,.32-.74c.11.33-.25.75-.23,1,.21,0-.07-.31.23-.27-.09-.4.14-.4.28-.65.09.27-.21.64-.32,1a5.08,5.08,0,0,0-.33,1.42,15.31,15.31,0,0,0,.6-1.61c.14,0,0,.15,0,.23a1.06,1.06,0,0,0,.24-.46c0,.43-.25.9-.28,1.38.19-.35.22-.85.46-1.15.07,0,0,.06,0,.14.33-.49.59-1,.93-1.51.07.45-.81,1-.65,1.69-.13.11-.13.34-.18.51.33-.48.42-1.2.83-1.61.1-.68.7-.87.93-1.42-.26.09-.57.54-.79.83,0-.34.63-.71.84-1.15.07,0,0,.06,0,.14,1-1.09,2.52-1.58,4-2.16,0-.14-.12.06-.23,0,.12-.12.41-.14.37-.28a8.68,8.68,0,0,1,8.55,3.45c0-.1-.29-.72-.38-.55a5.73,5.73,0,0,0-2.78-2.67c.61.07,1.62.89,2.23,1-.1-.32-.45-.39-.75-.6.36-.08.62.58,1,.46,0,0,.15.35.24.14a10.53,10.53,0,0,1,2.92,6.88,10.16,10.16,0,0,1-.6,3.77c.14-.05.06-.31.23-.32m-15.92-.27.14-.08a1.09,1.09,0,0,0,.32.75s-.07-.12-.05-.17a2.8,2.8,0,0,1,.28.46,1.75,1.75,0,0,1,.16.25l0,0a1,1,0,0,0,.5.48,5.59,5.59,0,0,1-.43-.75.75.75,0,0,1-.41-.6,5.37,5.37,0,0,1-.57-.93,1.1,1.1,0,0,0,.1.61m.5.09c-.05,0-.05.07,0,.12l0-.12m1,1.88h0m.07-.48a3.28,3.28,0,0,0-.61-.5c.1.21.19.39.29.3.14.09.12.33.32.2m-4.57-2.14a.13.13,0,0,0,0-.06h0l0,0,0,.09m2.84,4.69A.86.86,0,0,0,319,227c0,.14.15.22.26.32m1.8-1.92-.1-.12h-.05l0,0,.2.08m.77,1.66c0-.17-.28-.2-.43-.29,0,.13.24.21.43.29m3,1.34c0-.15-.24,0-.35-.11,0,.15.24,0,.35.11m1.36-1.51c.27,0,.42.15.68.05,0-.08-.12-.09-.07-.18.58-.1,1.42.06,1.62-.29a.43.43,0,0,0,.32.05l.1-.06a.3.3,0,0,0,.11-.15c.24.12.37,0,.54-.08l.12-.11a.07.07,0,0,0-.06,0h-.06l-.18.14.13-.1.05,0h0a7.61,7.61,0,0,0,3-4.92v0c0-.16,0-.32.05-.48s0-.06,0-.09,0-.32,0-.48V220c0-.15,0-.31,0-.47a.71.71,0,0,0,0-.14c0-.2-.05-.41-.08-.63a7.22,7.22,0,0,0-2.23-4.09c-.25.1,0-.08-.24,0a5.57,5.57,0,0,0-.65-.55,6.72,6.72,0,0,0-6.59.83c-.08,0-.09,0-.09-.09-.32.57-1,.75-1.26,1.42-.06,0,0-.13-.09-.14-.27.34-.33.68-.6,1.06,0,0,0,0,0,0h0s0,0,0,0a.56.56,0,0,1,0,.12v0c-.11.32-.31.68-.4,1h0a1.16,1.16,0,0,0,0,.18,3.55,3.55,0,0,1,.14-1,6.12,6.12,0,0,1,2.65-3.12c.13.11,1-.35,1.39-.6a4,4,0,0,1,1.63-.59c-.69-.12-1.3.3-1.81.32,0-.24.06-.2.13-.32a2.84,2.84,0,0,0-1.25.46,4.37,4.37,0,0,1,1.67-.83c-.1-.2-.35.1-.55.09,0-.12.18-.06.18-.18s-.14.1-.28.09c.07-.18.32-.17.47-.27-1.84.28-3.19,1.75-4.28,3.07.05.09.19-.12.24-.18,0,.18-.53.61-.61,1a11.57,11.57,0,0,1,1.86-2.3c.08,0,0,.09,0,.14.21,0,.11-.23.28-.23-.06.31-.33.41-.42.69.2-.05.18-.32.47-.28-.06.27-.4.26-.38.6-.27,0-.36.16-.37.41-.39,0-.59.86-.93,1.34-.1,0,0-.14-.14-.14-.19.19-.14.38-.23.64-.26-.16-.34.84-.56,1.24.17-.19.07.33,0,.46s0-.16,0-.23a.44.44,0,0,0-.09.32c.06,0,.08,0,.09.05s0-.23.19-.19c0,.08-.06.28,0,.14a10.54,10.54,0,0,0,.23,2.25,7.39,7.39,0,0,1-.33-1.15,3.59,3.59,0,0,0,1.07,2.8c0,.07,0,0-.09,0,.05.15.21.19.28.33a.85.85,0,0,1-.61-.37c.19.57.91,1,1.4,1.42a2.18,2.18,0,0,1-.66-.24h0l0,0-.08,0h0a2.83,2.83,0,0,1-1-1.21c-.2.12,0,.2,0,.35h0c.18.6.69.61,1.13,1a4.05,4.05,0,0,0,2.32,1.76,7.13,7.13,0,0,1-.93-.76,11,11,0,0,0,2,1.13c-.16,0,0,.11.11.1,0,.17-.21,0-.25.09a.08.08,0,0,1,0,.11.46.46,0,0,0,.33,0s-.24,0-.19-.14.65.16.41.23c.45,0,1.4.31,1.37,0m4.35-1.18a2.17,2.17,0,0,0-.78.72h.08a5.21,5.21,0,0,0,.7-.71m-3.13,1.07c.07.18.3,0,.44,0,0-.12-.3,0-.44,0m0,.72c-.22-.12-.63.07-.94,0,.23.14.65,0,.94,0m.6-.27.12-.08-1.23.22c.36.09.89-.15,1.11-.14m-.19.15a1.94,1.94,0,0,1,.75,0l.67-.47c-.25.08-.5.15-.76.21a.68.68,0,0,0-.2.24c-.16-.1.13-.12.14-.22h0c-.18.1-.37.17-.54.27l.11-.09c-.09,0-.19.06-.15.11m3.8-2.13a9.37,9.37,0,0,1-2.86,2.11l.24.07a9.74,9.74,0,0,0,2.62-2.18m-.79,3.39s-.06,0-.08,0l.08,0"/></g><g id="LIN"><path class="cls-10" d="M187.61,285.34l1.81.76s4.22-17.06,6.57-23c2.1-5.28,4.39-11,11.15-14.81s14.77-2.95,17.82-2.38,13.9,4.57,17.81,7.72,7.53,10,8.29,15.71-4.19,26.58-4.76,28.87l1.35.62s2.22-3.36,5.15-2.93,2.4,3.07,1.64,6.22a35.4,35.4,0,0,1-5.76,10.67c-2.36,2.86-6.77,5.43-7.8,1.08"/><path class="cls-10" d="M187.61,285.34c-.1-2.57-.67-6.67-2.86-7.53s-4.33,2.43-4.76,6.79.51,13.47,2.51,15.38a2.58,2.58,0,0,0,4.48-1"/><path class="cls-10" d="M244.22,307c-2.78,5.43-5,11.36-9.14,15.29a21.84,21.84,0,0,1-14,6.29c-5.43.42-13.43.07-18.86-2.65s-12-9.42-13.74-15.36c-1.72-5.69-1.55-15.43-1.41-18.15"/><path class="cls-10" d="M184.75,277.81c-.19-4.95,2.05-14.74,4.57-23.05,2-6.67,7.91-14.67,9.15-15.82l-1.24-1.81,2.86.67V233l2.48,4.09s3.59-8.95,18.75-9.71l-1.51,2.09A24.58,24.58,0,0,1,229.4,228l-2.16,1.62s9-1.24,14.29.95l-2.47,1.14s17.14,4.58,21.15,16.29l-2.86-.28a23.76,23.76,0,0,1,3.71,10.76L258.59,257s.42,23.87-5.79,38.85"/><path class="cls-10" d="M187.25,303.26a154.86,154.86,0,0,1-1.77,19.11"/><path class="cls-10" d="M236.23,321.12c-1.84,6.9-15,41.1-21.13,55.58"/><path class="cls-10" d="M183.75,320.59s28.34,29,29.2,31.82,2.65,32,2.65,32A101.4,101.4,0,0,1,227.53,376c6-3.43,12.86-5.43,14-1.62s-8.38,14.1-8.38,14.1L227.53,376"/><path class="cls-10" d="M213,352.41c-.78-1.27-12.48,13.24-14.77,20.2,0,0-16.86-31.63-25.34-40.59l10.91-11.43"/><path class="cls-10" d="M241.53,374.42c-2.67-5.53-14.9-22.31-15.93-24"/><path class="cls-10" d="M172.84,332A48.66,48.66,0,0,1,155,330.59c-6.1-1.52-10.48-2-18.77,0s-14.29,8.39-19,10.2-11.25,1.1-11.25,1.1"/><path class="cls-10" d="M106.34,299.24c-1,9.94-1.81,19.16-1.42,27.35s1.23,9.43,1.14,18.39-2.48,12.48-3.72,18.58,2.58,7.62,5,.57,2-12.62,2-15.84"/><path class="cls-10" d="M75.13,288.51c-4.43,10.29-16.33,42.18-19,59.8s.76,19.44,4.86,24.3S96.25,393,104.82,395.19s24.48,2.57,29-9.05"/><path class="cls-10" d="M109.43,396.06c3.11,16.66,1.18,48.09,0,75.82s-11.09,85.46-13.57,95-2.85,15.82,9.53,18.29,68,6.86,91.27,6.29,30.68-1.52,34.87-3.43,5.33-6.29,5.52-12.19,2.86-41.56,3-46.13"/><path class="cls-10" d="M82.76,267.18c-2.54,6.92-8.1,16.54-7.63,21.33S83,299.45,89,301.56c5.17,1.81,15.09,4.41,18.83-5.17,4.12-10.57,7.7-21.4,7.7-21.4"/><path class="cls-10" d="M82.1,252.17c1.08,2.07,4.23,1.74,7,2.24s7.23,4.23,9.22,6.23,5.81,3.57,7.47,2.9a2.84,2.84,0,0,0,2-3.49c-.42-1.49-4.24-5.23-6.31-7.88s-6.9-6.56-8.56-7.15-5.06-1.91-6.72-2.57"/><path class="cls-10" d="M106.42,258c2.16,2.51,3.33-3.4,3.16-6.8a25.48,25.48,0,0,0-2.74-9.38,13.49,13.49,0,0,0-6.14-6.23c-2.41-1.08-8.32-1.28-11.87-.91-1.42.14-4.16,1.39-4.72,2.57s-.25,2.86-1.12,3.61-3.73,1.81-4.67,4.3-.43,5.42.5,9.65a112.6,112.6,0,0,0,7.47,20.61,16,16,0,0,0,15.45,8.85c5.48-.25,11.38-4.42,12.49-7.91"/><path class="cls-10" d="M113.3,235c-.58-1-4.8-5.56-7.29-6.47s-8-.83-11-.66-5.91,2-6.15,5a4.68,4.68,0,0,1-.59,1.93"/><path class="cls-10" d="M125,243.2h-4.41c-3.91,0-8-3.57-8.21-6.06s2.65-3.08,3.9-3.49a12.25,12.25,0,0,1,7,0c2.41.91,4.24,1.58,5.57,5,.79,2,.29,8.62-1.08,12.54s-4.11,16.32-16.26,21.55"/><path class="cls-10" d="M118.9,243a41,41,0,0,1-.76,6.46"/><path class="cls-10" d="M116,241.69a12,12,0,0,1-1.76,8.62c-1.66,2.27-3.9,2.35-4.65.86"/><path class="cls-10" d="M98.46,227.73c1.08-3,2.32-13.84,2.49-19s.32-12.05.58-14.12c.46-3.65,4.32-2.53,5.65,0s2.09,9.23,2.4,14.12c.38,5.74,1.46,18.64.77,22.9"/><path class="cls-10" d="M122.3,263.7c-1.93,8.18-6.88,11.06-8.07,12.63"/><path class="cls-10" d="M237.07,383.82a112.62,112.62,0,0,1,8.65,36.76c.72,12-3.2,75.13-3.92,85.85"/><polyline class="cls-10" points="293.13 511.13 358.9 486.88 307.04 482.54 195.54 523.38 244.58 530.33 249.68 528.92"/><path class="cls-10" d="M278.87,529.49c-3.14-2.09-13.81-8.45-18-10.67s-7.49-3.28-9.42-3.07a3.36,3.36,0,0,0-3.29,2.5c-.43,1.43,1.5,3,3.5,4.35s20.44,12.59,22.94,15.44"/><path class="cls-10" d="M249.22,520.69c-1.5-.58-4.35,0-5.07,1.06s-.28,2.65,1.68,4.22,11.18,8.29,13.54,11.36,4.65,5.93,5.36,6.29"/><path class="cls-10" d="M260.86,539.24a4.24,4.24,0,0,0-.81,3.72"/><path class="cls-10" d="M248.91,537.25c3.15,4.57,8.43,8.72,12,9.8s7.73-.58,11.44-2.08,5.55-3.35,6.57-5,4.08-1.28,5.8-3.36.85-1.93,2.07-3.43,2.28-2.21,3.07-5.35,1.5-4.24,2.86-7.37,1.28-2.89,1.28-4.74c0-3.33-2.07-8-2.07-8-1.21-2.22-2.64-3.29-3.64-3.29a3.5,3.5,0,0,0-2.86,3.86c.21,2.5,1.36,3.21,1.72,5.22a6.07,6.07,0,0,1-1.22,4.93c-1,1.28-1.86.92-3.36,0s-9.58-6.36-12.15-7.44a11.32,11.32,0,0,0-7.28-.35,3.59,3.59,0,0,0-2.15,4.07c.43,1.93,3.79,2.46,6.43,4.55s9,7,12.65,11.53"/><path class="cls-10" d="M250.62,529.65c-.68,2.68-3.54,15-3.18,18.47s5.85-4.26,6.11-5.67"/><path class="cls-10" d="M239.18,543.62a36.83,36.83,0,0,0,8.57,5.25"/><path class="cls-10" d="M327,444.73s-13-.43-16.09-.59a27.11,27.11,0,0,1-8.93-2.2c-2.43-1.07-6.72-6.29-8.93-7.12s-7.48-2.19-9.48-3a12.37,12.37,0,0,0-7,0c-1.62.58-7.94,2.15-10.19,3s-.24,4.19,2.26,4.83,10.13-.23,12.21-.44"/><path class="cls-10" d="M287.67,436.87c-2.15.64-10.22,3.57-14.08,4.93s-5,2.21-9.07,4.57-5.36,4.07-6.15,6.5-.55,3.57,1.21,4.86"/><path class="cls-10" d="M268.45,451.23a18.18,18.18,0,0,1-5.72,4.64c-2.22,1.07-4.43,2.43-5.36,4.43s-.36,6.36,3.52,7.41"/><path class="cls-10" d="M270.37,461c-.64,1.07-5.67,3.93-7.62,4.93a3.85,3.85,0,0,0-2,4.78,7.28,7.28,0,0,0,3.71,3.86,19.1,19.1,0,0,0,4,.65c.5,0-.86-1.43-.5-2s2.57-1.07,3.43-1,2.67,1.08,1.47,2.29-3.48,2.43-4.4,5.43-.08,4.5,1.21,5.43,3.86.68,5,.32"/><path class="cls-10" d="M274.5,485.31a13.26,13.26,0,0,1,7.24-5.43c1.93-.43,8.53-.28,12.66-1.21A56.65,56.65,0,0,0,309.46,472c3.5-2.21,20.49-.77,20.49-.77"/><path class="cls-10" d="M264.52,446.37c-.93-10.79-2.91-31.65-4-41.94s-6.37-34.87,4-45.88S290.19,341.69,294.4,340s20.84-10.77,22.27-12.56"/><path class="cls-10" d="M317.75,319.83c1.52,2.95,12.67,12,27.34,17.34"/><path class="cls-10" d="M367,314.83c-1.81,5.36-14.29,19.29-21.91,22.34"/><path class="cls-10" d="M317.75,319.83c-.29,3.18-2.57,14.67-1.57,18.67S325.56,357,328.32,359c0,0,10-16.86,16.77-21.81"/><path class="cls-10" d="M345.09,337.17c3.62,3.33,14.32,11.81,21.91,18.38a30.59,30.59,0,0,0,4.86-13.24A44.86,44.86,0,0,0,367,314.83"/><path class="cls-10" d="M338.32,344.28c1.61,6.38,2.94,9.27,4.29,11.27h8.1a33,33,0,0,0,2.57-11.46"/><path class="cls-10" d="M364.05,283.53a40.31,40.31,0,0,1-8,22.2c-3.15,3.9-14.87,10.76-17.25,11s-14.38,1.05-18.57-.6-12.29-10-14-14.36-3.62-18.77-3.81-23.15-1.33-23.91-1.43-27.15"/><path class="cls-10" d="M364.05,283.53s1.41,28.86,1.8,33.68"/><path class="cls-10" d="M368.43,266.67c2.29-3.43,4.69-4.84,6.62-3.29,2.19,1.77,2.05,5.53,1,11.34s-2.66,8-4.94,11.14c-2.67,3.7-6.7,5.06-6.91.67"/><path class="cls-10" d="M97.82,582.23a261.87,261.87,0,0,0-7.1,46"/><path class="cls-10" d="M231.53,588c4,18.29,4.19,32,4.38,41.73"/><path class="cls-10" d="M298.6,390.14c4,13.29,9.72,34.87,12.29,54"/><path class="cls-10" d="M370.37,322.91c4,5.63,22.69,8.64,28.12,10.35s24.44,3.43,33.3,9.15,14.57,21.58,15.72,36.72,1.71,47.59,1.28,60.17-2.43,30.58-6.29,37-12,6-17.14,6.43-46.54-.57-66.25-4.14"/><path class="cls-10" d="M326.74,443.78l29.4.36a71.61,71.61,0,0,1,2.76,14.69c.59,7.9.77,17.8,0,20.91,0,0-27.2-1.39-29.46-1.81"/><path class="cls-10" d="M356.57,445.5c4.72.46,21.77-.89,30.34-1.36s16.68-2.44,22.87-3.22c10-1.28,17.72-1.91,22.39-2s6.76-3.71,1.62-4.76-13.63-.09-17.25.67"/><path class="cls-10" d="M408.35,385.28c-.76,9.33-1.66,46-1.55,56.07"/><path class="cls-10" d="M415.4,385.28c-.86,7.24-3.54,18-8,22.58"/><path class="cls-10" d="M409.78,436.06c4.29-4.86,9.53-8.2,22.2-8.39"/><path class="cls-10" d="M326.74,443.78c1.62,5.52,4,29,3,33.2s-2.7-3.75-3.27-6"/><path class="cls-10" d="M274.5,485.31a11.49,11.49,0,0,0,7.41,6.43"/><path class="cls-10" d="M329.47,497.73c8.78-.39,47.48-2.51,67.21-15.61"/><path class="cls-10" d="M362.15,445.6c-3.91-40.62-8.76-77.6-11.44-90.05"/><path class="cls-10" d="M339.7,497.73c.11,15.81.22,29.33.15,38.22l16.87,17.52,12.95-19.71c-.89-12.29-2-26.1-3.2-40.48"/><path class="cls-10" d="M342.61,355.55c-3.27,15.67-2.89,51.73-3.06,88.39"/><path class="cls-10" d="M280.66,538.75,280,563.91s52.71-5.51,67.29-5.37"/><path class="cls-10" d="M373.34,557.2s50-.72,52.73-.72.43-13,0-22.58-3.24-51.07-3.24-51.07"/><rect class="cls-10" x="347.46" y="555.73" width="26.06" height="16.13" transform="translate(-15.38 10.13) rotate(-1.58)"/><path class="cls-10" d="M373.68,569.77c5.59.07,48.32-3.29,52-4l-.5-9.29"/><path class="cls-10" d="M347.64,570.7s-58.47,3.21-64.62,3.21V563.6"/><path class="cls-10" d="M283,573.91c-2.93,14.1-3,37.16-2.93,55.83"/><path class="cls-10" d="M425.64,565.77c3.09,27.86,3.68,50.49,3,64"/><path class="cls-10" d="M352.05,576.06s1,40.15,1.57,42.72"/><path class="cls-10" d="M369.67,576.06c.38,4.85.38,34.86-3.91,42.72H350"/><path class="cls-10" d="M200.85,596.21c.14,5.85-.71,28.2-2.28,33.53H183.26"/><line class="cls-10" x1="187.28" y1="597.42" x2="188.13" y2="629.74"/><path class="cls-10" d="M301,251.52c1.43-2.24,29.52-2.6,44.11-2,9.34.38,20.43,1.54,26.49,9.33"/><line class="cls-10" x1="370.34" y1="257.42" x2="370.93" y2="263.79"/><path class="cls-10" d="M289.36,247.14c5.14-3.88,17.72-10.4,38.68-10.39,18.29,0,34.1,3.62,43.07,10.39"/><path class="cls-10" d="M371.58,258.85c6.1-2.24,9.05-5,8.09-7.33s-10.14-5.66-21-6.77c-14.27-1.45-40.85-2-52.28-.85-8.56.85-15.81,1.43-17.05,3.24s6.49,5.83,11.77,7.73"/><path class="cls-10" d="M302,240.74s0-7.42,0-8.66,5.65-3,6.33-2.13c.56.7.4,8.87.4,8.87"/><path class="cls-10" d="M348.45,238.45s-.32-6.87,0-8,7.56-.62,9.7.93c.67.48.35,9.55.35,9.55"/><path class="cls-10" d="M297.12,242.67c-.14-7.92,1.19-36.88,22.91-44.79"/><path class="cls-10" d="M349.12,197.36c10.19.67,29.72,15.57,26.93,46.87l3.62,7.29"/><path class="cls-10" d="M320,197.88c2.58-3.52,10.2-3.52,10.2-3.52.88-3.15,11.1-3.08,11.1,0,0,0,5.93.76,7.79,3"/><path class="cls-10" d="M307,257.42a25.9,25.9,0,0,1,11.34-1.52"/><path class="cls-10" d="M334.56,255.8c4.05-.85,12.05-1,17,1.62"/><path class="cls-10" d="M323.85,256.61c0,2.63-3.62,22-3.15,24.18s9.15,1.31,11.81,1.41"/><path class="cls-10" d="M315.92,291.53c5.64,1.91,19.17,1.53,24.88,0"/><path class="cls-10" d="M323.75,298.58c3.33,1.05,7.67,0,7.67,0"/><path class="cls-10" d="M200.76,266.76c2.66-1.14,11-2.19,16.1,0"/><path class="cls-10" d="M232,269.65c4.62,1.41,10.31,4.51,12.24,9.21"/><path class="cls-10" d="M221.32,271.34s-7.17,16.17-6.79,18.26,4.18,2.86,8.37,2.86"/><path class="cls-10" d="M227.87,304.35c-7.23-6.05-21.11-7.29-24.45-7.29"/><path class="cls-10" d="M204.76,297.11c1.24,3.52,2.5,6.69,8.19,8.71s12.09.8,13.93-1.8"/><path class="cls-10" d="M208.81,309.69a9.55,9.55,0,0,0,6.37,2"/><ellipse class="cls-10" cx="342.27" cy="263.08" rx="0.8" ry="1.63"/><ellipse class="cls-10" cx="312.99" cy="263.08" rx="0.8" ry="1.63"/><ellipse class="cls-10" cx="234.13" cy="280.44" rx="1.63" ry="0.8" transform="translate(-103.58 419.78) rotate(-72.56)"/><ellipse class="cls-10" cx="208.04" cy="273.43" rx="1.63" ry="0.8" transform="translate(-115.16 389.99) rotate(-72.56)"/><line class="cls-10" x1="318.51" y1="320.91" x2="318.14" y2="315.05"/><path class="cls-10" d="M360,251.52c2.24,3.72,3.46,12.38,3.31,17.93l3.43.43,1.74-3.21"/><line class="cls-10" x1="267.95" y1="473.16" x2="269.91" y2="477.19"/><line class="cls-10" x1="269.33" y1="520.85" x2="266.52" y2="522.01"/><line class="cls-10" x1="287.11" y1="513.58" x2="279.68" y2="516.62"/></g></svg>