<svg xmlns="http://www.w3.org/2000/svg" viewBox="0 0 536 700"><defs><style>.cls-1,.cls-15{fill:none;}.cls-2{fill:#30d9cb;}.cls-3{fill:#fad804;}.cls-4{fill:#1cacfe;}.cls-5{fill:#98cdd0;}.cls-6{fill:#fad70d;}.cls-7{fill:#fff;}.cls-8{fill:#28b8ce;}.cls-9{fill:#33c977;}.cls-10{fill:#33c976;}.cls-11{fill:#6e8a90;}.cls-12{fill:#c9e5e7;}.cls-13{fill:#1fadfe;}.cls-14{fill:#53b972;}.cls-15{stroke:#28347d;stroke-linecap:round;stroke-linejoin:round;stroke-width:1.7px;}</style></defs><title>imag_ocensa_5_gobierno_corporativo_modelo_organizacional</title><g id="Figuras_fondo" data-name="Figuras fondo"><rect class="cls-1" width="536" height="700"/><path class="cls-2" d="M95.06,458.61c-51.36-69.14-60.14-120.13,7.57-186.27S164.81,24.25,407.27,135.07,273.12,698.32,95.06,458.61Z"/><path class="cls-3" d="M279.25,354.68c65.08-41.06,110.8-46,151.84-7.72S380,381,353.55,476.61s-91.07,110.11-112.86,34.1S260.82,366.31,279.25,354.68Z"/></g><g id="Parche_color" data-name="Parche color"><polygon class="cls-4" points="396.82 259.62 396.82 275.56 394.22 275.56 209.27 275.56 206.52 275.56 206.52 259.62 396.82 259.62"/><polygon class="cls-5" points="384.74 530.38 388.21 590.79 381.33 590.79 377.85 530.38 384.74 530.38"/><rect class="cls-5" x="295.98" y="530.38" width="6.89" height="60.41"/><polygon class="cls-5" points="221 530.38 217.53 590.79 210.64 590.79 214.12 530.38 221 530.38"/><path class="cls-6" d="M289.06,428.38c-.64-.32-.52-2.55.08-5.7.17-.9.39-1.87.66-2.9h0l4.52,1.08-.11.49C291.36,426.81,289.76,428.72,289.06,428.38Z"/><path class="cls-7" d="M326.73,401.7a68.5,68.5,0,0,1,8.27,2.69c4.22,1.58,7.73,3,14.5,9.86,1.8,1.83.4,4.31-1.88,3.37l-.11.15-8.37-6-12.5-9-.13,0Z"/><path class="cls-8" d="M338.83,411.87c-1.34-.7-6.42-3.18-8.18-4a45.33,45.33,0,0,0-4.74-1.71L324.35,405c-.28-.86,1.18-2.48,2.16-2.31l.13,0,12.5,9L339,412Z"/><path class="cls-8" d="M338.05,415.09c1.73-.78,1.78-2.51.94-3.13l.15-.22,8.37,6,6.84,5,5.5,5.5-7.74-2.78L348.82,423l-10.76-7.93Z"/><path class="cls-7" d="M338.05,415.09h0L348.82,423c2.66,2.29.37,5.41-2.76,3.55-1.92-1.14-3.9-2.26-6.54-3.86a33.91,33.91,0,0,0-9-3.28c2.54,1.37,9.85,7.76,12.2,10.83s-.3,4.88-2.33,2.95a91.17,91.17,0,0,0-12-9.12c-2.06-1.35-2.66-.11-2.12.66s8.41,7,9.94,8.84-.77,4.29-3,2.44-11-8.09-11-8.09a34.74,34.74,0,0,1-20.83-5.37l-7-1.71-4.52-1.08h0a96.39,96.39,0,0,1,6.71-17.49c2,.84,5.41.95,8.31.73s14.69-1.92,18.43-1.83a18,18,0,0,1,3.48.51l-.22,1c-1-.17-2.44,1.45-2.16,2.31l1.56,1.15a45.33,45.33,0,0,1,4.74,1.71c1.76.84,6.84,3.32,8.18,4l.16.09C339.83,412.58,339.78,414.31,338.05,415.09Z"/><polygon class="cls-6" points="323.41 295.08 323.41 316.36 270.63 316.36 270.78 295.08 323.41 295.08"/><polygon class="cls-6" points="377.94 363.53 377.94 376.34 339.52 376.34 339.66 363.53 377.94 363.53"/><rect class="cls-6" x="285.61" y="362.95" width="33.5" height="12.96"/><path class="cls-6" d="M371.93,463.24l-.87,28.07H231.27l.87-28.07Zm-12.86,13.37a5.54,5.54,0,1,0-5.52,6A5.76,5.76,0,0,0,359.07,476.61Zm-26,0a5.53,5.53,0,1,0-5.52,6A5.76,5.76,0,0,0,333.07,476.61Zm-26,0a5.53,5.53,0,1,0-5.51,6A5.75,5.75,0,0,0,307.07,476.61Zm-26,0a5.54,5.54,0,1,0-5.52,6A5.76,5.76,0,0,0,281.08,476.61Zm-26,0a5.54,5.54,0,1,0-5.52,6A5.76,5.76,0,0,0,255.08,476.61Z"/><path class="cls-9" d="M353.55,470.63a6,6,0,1,1-5.52,6A5.76,5.76,0,0,1,353.55,470.63Z"/><path class="cls-9" d="M327.55,470.63a6,6,0,1,1-5.51,6A5.76,5.76,0,0,1,327.55,470.63Z"/><path class="cls-9" d="M301.56,470.63a6,6,0,1,1-5.52,6A5.75,5.75,0,0,1,301.56,470.63Z"/><path class="cls-9" d="M275.56,470.63a6,6,0,1,1-5.52,6A5.76,5.76,0,0,1,275.56,470.63Z"/><path class="cls-9" d="M249.56,470.63a6,6,0,1,1-5.52,6A5.76,5.76,0,0,1,249.56,470.63Z"/><path class="cls-7" d="M347.51,417.77l.11-.15c2.28.94,3.68-1.54,1.88-3.37-6.77-6.87-10.28-8.28-14.5-9.86a68.5,68.5,0,0,0-8.27-2.69,18,18,0,0,0-3.48-.51c-3.74-.09-15.54,1.62-18.43,1.83s-6.33.11-8.31-.73c.21-.4.41-.77.6-1.1a270.71,270.71,0,0,1-48.51-18.78c-6.39-3.06-28.17-14.43-38.21-22.35-.62-.49-1.24-1-1.88-1.58l.76-82.92h185L391.9,530.38H207l.82-90.09c3.5-1.24,7.82-2.88,9.27-3.91h0c1.33-.19,2.22-.6,1.85-1.69a4,4,0,0,0-2.23-2.48,15.58,15.58,0,0,0-6.11-1.12c-.87,0-1.78-.1-2.7-.19l.3-33c19.6,9.37,49.62,22,80.9,30.44.7.34,2.3-1.57,5.16-7l.11-.49,7,1.71a34.74,34.74,0,0,0,20.83,5.37s8.8,6.24,11,8.09,4.51-.59,3-2.44-9.39-8.09-9.94-8.84.06-2,2.12-.66a91.17,91.17,0,0,1,12,9.12c2,1.93,4.66.08,2.33-2.95s-9.66-9.46-12.2-10.83a33.91,33.91,0,0,1,9,3.28c2.64,1.6,4.62,2.72,6.54,3.86,3.13,1.86,5.42-1.26,2.76-3.55l3.29,2.42,7.74,2.78-5.5-5.5Zm30.43-41.43V363.53H339.66l-.14,12.81Zm-6.88,115,.87-28.07H232.14l-.87,28.07ZM323.41,316.36V295.08H270.78l-.15,21.28Zm-4.3,59.55V363h-33.5v13Z"/><path class="cls-10" d="M74.16,539.16c-4.11-1-7.78-2-10.68-3A3.79,3.79,0,0,1,61,532c1-6.78,3.4-23.52,5.09-35.3,2.18-15.09,6.32-37.95,6.53-46.92a268.7,268.7,0,0,0,31.14,6.88c14.44,2.27,36.79,3.6,49.6,4-.07,1.5-.16,3.09-.26,4.74-.18,2.94-.41,6.1-.69,9.39-1.19,14-3.35,30.35-7.08,42.11-5.1,16.06-14.22,24.09-30.72,26.27C103.21,544.65,86.66,542.18,74.16,539.16Z"/><path class="cls-11" d="M132.36,599.26s-12.52.7-29.45.66A234.51,234.51,0,0,1,77,598.18c-.65-9.88-2.5-51-2.85-59,12.5,3,29.05,5.49,40.4,4,16.5-2.18,25.62-10.21,30.72-26.27,3.73-11.76,5.89-28.1,7.08-42.11,1.17.18,4.46.22,5.6.25l0,1c2,.23,9.76.39,9.76.39l0-.71c.83.06,2.95,0,4.37,0-.05,3.7.54,16.37,1,26.31.19,4.11.34,7.76.42,10.11.27,8,.24,30.85-.74,48.11-1.09,19.19-2.83,33.65-3.26,37.33a162.91,162.91,0,0,1-18.09,1.74C140.46,599.77,132.36,599.26,132.36,599.26Z"/><path class="cls-5" d="M173.71,466.17l-.23,9.44-1.39.05c-1.42,0-3.54.09-4.37,0l.42-9.52,4.33,0Z"/><path class="cls-5" d="M158.38,465.7,158,475c-1.14,0-4.43-.07-5.6-.25.28-3.29.51-6.45.69-9.39C153.83,465.52,157.1,465.59,158.38,465.7Z"/><path class="cls-5" d="M158,475l.42-9.33,0-.69c2,.22,9.76.38,9.76.38l0,.78-.42,9.52,0,.71s-7.75-.16-9.76-.39Z"/><path class="cls-12" d="M173.48,453.78a106.21,106.21,0,0,1-1,11.61v.8l-4.33,0,0-.78s-7.75-.16-9.76-.38l0,.69c-1.28-.11-4.55-.18-5.33-.31.1-1.65.19-3.24.26-4.74,2.79.08,5.12.13,6.84.13a66.32,66.32,0,0,0,2.24-9.11c2.39-.16,3.94.75,7.42,1.51A31,31,0,0,0,173.48,453.78Z"/><path class="cls-10" d="M173.71,466.17l-1.24,0v-.8a106.21,106.21,0,0,0,1-11.61,25.25,25.25,0,0,0,5.59-.13c1.49-.18,2.77-.33,3.9-.48,2.6,7,12.22,28.71,14.17,57.54h0c.22,3.29.34,6.68.34,10.15,0,3-1.47,3.31-3.69-1.86-1.92-4.45-7.59-16.16-20.73-17-.43-9.94-1-22.61-1-26.31l1.39-.05Z"/><path class="cls-10" d="M192.11,449.77c1.39,14.46,4.28,44.54,5,60.94-1.95-28.83-11.57-50.52-14.17-57.54,3.76-.49,5.71-.9,7.5-2.27C190.82,450.63,191.39,450.24,192.11,449.77Z"/><path class="cls-10" d="M189.56,422.55l.34,5.09c-3.53-.83-6.75-1.76-6.49-2.24C183.8,424.63,187.47,422.87,189.56,422.55Z"/><path class="cls-10" d="M145.12,417.63a3.32,3.32,0,1,1-2.71,3.26A3,3,0,0,1,145.12,417.63Z"/><path class="cls-7" d="M217,436.38c-1.45,1-5.77,2.67-9.27,3.91l-1.86.65h0c-1.62,1.44-9.88,6.28-13.8,8.82-.72.47-1.29.86-1.64,1.13-1.79,1.37-3.74,1.78-7.5,2.27-1.13.15-2.41.3-3.9.48a25.25,25.25,0,0,1-5.59.13,31,31,0,0,1-3.67-.6c-3.48-.76-5-1.67-7.42-1.51,1.44-7.54,2.65-17.27,2.32-22.84a9.49,9.49,0,0,0,4.33-3.11c1.1-1.38,2.05-3.83,5.13-5.54a12.1,12.1,0,0,1,1.57-.71c4.41-1.67,9-1.94,12.44-2.91a6.8,6.8,0,0,1,.94-.18h0c2.23-.26,5,.43,6.91.58,1.45.12,3.07-.06,3.65.38s.11,3.28-1.77,4.19-4.47.94-7.81,1c-.16,0-.35,0-.54,0-2.09.32-5.76,2.08-6.15,2.85-.26.48,3,1.41,6.49,2.24,2.53.59,5.23,1.14,6.93,1.45,3.28.58,7.3,1.43,11,1.81.92.09,1.83.16,2.7.19a15.58,15.58,0,0,1,6.11,1.12,4,4,0,0,1,2.23,2.48c.37,1.09-.52,1.5-1.85,1.69Z"/><path class="cls-10" d="M47.22,311.55c1.45-1,3-2,4.67-3.05,5-3.14,23.22-14.38,25.36-16.26L75.7,302.7,83,306l-4.61,4s54.26,61,69.93,100.29a83.09,83.09,0,0,1,3.14,17c1.19,0,2.34.08,3.46.1,3.84.09,7.2.11,9.7.05.05.43.09.89.11,1.38.33,5.57-.88,15.3-2.32,22.84a66.32,66.32,0,0,1-2.24,9.11c-1.72,0-4.05,0-6.84-.13-12.81-.4-35.16-1.73-49.6-4a268.7,268.7,0,0,1-31.14-6.88c-2.92-.82-5.34-1.56-7.17-2.13-6.63-2.06-9.56-2.49-11.73-6.94s-5.53-21.27-9-35.71-7-53.83-7-57.85-2-20.62,1.69-26.91A26.31,26.31,0,0,1,47.22,311.55ZM147.83,420.89a2.76,2.76,0,1,0-2.71,3.26A3,3,0,0,0,147.83,420.89Z"/><path class="cls-12" d="M119.47,316.58a82.7,82.7,0,0,0,.78,20c-4.22-9-8.67-17.54-10.47-21-.57-1.1-1.63-2.93-3-5.21a26,26,0,0,1,4.16-4.7,38.37,38.37,0,0,0,8.17,11.16A2.53,2.53,0,0,1,119.47,316.58Z"/><path class="cls-10" d="M85.37,281.26c1.57-2.88,2.64-4.63,5-4.57a47.91,47.91,0,0,1-.13,5.47c3.49,6.8,11.84,20.27,16.59,28.24,1.36,2.28,2.42,4.11,3,5.21,1.8,3.47,6.25,12,10.47,21,2.79,5.94,5.48,12.06,7.22,17,5,14.22,15.55,37.35,20.83,56.66C132.63,371,78.37,310,78.37,310L83,306,75.7,302.7l1.55-10.46.09-.56C78.8,290.06,83.79,284.14,85.37,281.26Z"/><path class="cls-10" d="M175.74,419.47a12.1,12.1,0,0,0-1.57.71c-.16-1.3-.37-2.69-.62-4.14h0c-.14-22.87-15.9-102.43-15.9-102.43L148.38,310l6.56-1.12c-4.36-4.57-11.91-11.27-16.79-16.17,2.67,1.77,12,5.24,18.8,6s10.74.53,14,4.55,10.64,18.78,13.79,24.42c3,5.32,13.81,21.94,23.78,30.77.64.56,1.26,1.09,1.88,1.58,10,7.92,31.82,19.29,38.21,22.35a270.71,270.71,0,0,0,48.51,18.78c-.19.33-.39.7-.6,1.1a96.39,96.39,0,0,0-6.71,17.49c-.27,1-.49,2-.66,2.9-.6,3.15-.72,5.38-.08,5.7-31.28-8.46-61.3-21.07-80.9-30.44-10.87-5.19-18.53-9.38-21.43-11.31h0c1.13,12.44,2.1,24,2.41,29.75h0a6.8,6.8,0,0,0-.94.18C184.77,417.53,180.15,417.8,175.74,419.47Z"/><path class="cls-10" d="M173.55,416h0c-3.4-19.64-14.67-51.81-20.13-67.92-5.37-15.82-14.76-40.47-18.24-50.14a26.89,26.89,0,0,0-.25-4.58,48.79,48.79,0,0,0-1.12-5.67,32.19,32.19,0,0,0,4.34,5c4.88,4.9,12.43,11.6,16.79,16.17L148.38,310l9.27,3.59S173.41,393.17,173.55,416Z"/><path class="cls-12" d="M127.34,303.28a17,17,0,0,1,5.78,6.74,48.81,48.81,0,0,0,2.06-12c3.48,9.67,12.87,34.32,18.24,50.14,5.46,16.11,16.73,48.28,20.13,67.92.25,1.45.46,2.84.62,4.14-3.08,1.71-4,4.16-5.13,5.54a9.49,9.49,0,0,1-4.33,3.11c0-.49-.06-.95-.11-1.38-2.5.06-5.86,0-9.7-.05C141.55,346.78,131,323,125.38,315a2.21,2.21,0,0,1,.57.07c.88-2.82,1.75-9,1.38-11.73Z"/><path class="cls-7" d="M148.3,410.31C143,391,132.49,367.87,127.47,353.65c-1.74-5-4.43-11.09-7.22-17a82.7,82.7,0,0,1-.78-20h0a12.24,12.24,0,0,1,5.91-1.63c5.57,8,16.17,31.83,29.52,112.45-1.12,0-2.27-.06-3.46-.1A83.09,83.09,0,0,0,148.3,410.31Z"/><path class="cls-7" d="M120.5,300.15a18.17,18.17,0,0,1,6.84,3.13h0c.37,2.72-.5,8.91-1.38,11.73a2.21,2.21,0,0,0-.57-.07,12.24,12.24,0,0,0-5.91,1.63h0a2.53,2.53,0,0,0-.35.28A38.37,38.37,0,0,1,111,305.7C113.61,303.26,117.11,300.81,120.5,300.15Z"/><path class="cls-12" d="M131.85,282.64a33.65,33.65,0,0,1,2,5.09,48.79,48.79,0,0,1,1.12,5.67,26.89,26.89,0,0,1,.25,4.58,48.81,48.81,0,0,1-2.06,12,17,17,0,0,0-5.78-6.74,18.17,18.17,0,0,0-6.84-3.13c4.45-3.5,9.42-8.57,11.18-13.1,0-1.31.07-2.83.17-4.41Z"/><path class="cls-12" d="M90.33,276.69c0-.95-.06-1.9-.13-2.81,2,3.09,6.94,10.15,9.22,13s4.29,5.27,6.45,6a15.92,15.92,0,0,0,4.26.47c1.46,1.43,4.86,3.93,10.37,6.75-3.39.66-6.89,3.11-9.55,5.55a26,26,0,0,0-4.16,4.7c-4.75-8-13.1-21.44-16.59-28.24A47.91,47.91,0,0,0,90.33,276.69Z"/><path class="cls-7" d="M132.46,277.77a36.82,36.82,0,0,0-.61,4.87c-.1,1.58-.13,3.1-.17,4.41-1.76,4.53-6.73,9.6-11.18,13.1-5.51-2.82-8.91-5.32-10.37-6.75,2.93.05,6.35-.27,7.74-1,2.65-1.31,6.19-4.83,8.85-7.76C128.28,283,130.58,280.3,132.46,277.77Z"/><path class="cls-7" d="M119.91,270.83c-1.36,1.91-5.16,4.11-6.89,4.55a31,31,0,0,1-6.6,0c-1.44-.17-5.18-3.31-6.07-4.5A109.81,109.81,0,0,0,119.91,270.83Z"/><path class="cls-7" d="M119.91,270.83a109.81,109.81,0,0,1-19.56.05c.89,1.19,4.63,4.33,6.07,4.5a31,31,0,0,0,6.6,0C114.75,274.94,118.55,272.74,119.91,270.83ZM86.44,242.35a143.68,143.68,0,0,1,2.8-19.77c.51-1.88,1.59-3.9,7.74-2.68s6.73,2.25,9.77,2.25,10.56-3,14.76-3.4a13.7,13.7,0,0,1,6.43.79,7,7,0,0,1,4.2,5.14c1.24,5.43.15,8.39.8,10.71s4.56,5.64,4.7,8.25,0,6.87,0,6.87l1.67-.94c.4-4.85,1.76-8.88,3.94-10.1a3.05,3.05,0,0,1,2.79-.1c4,1.62,2,12.08,0,15.63s-5.4,8-7.84,3.67c-.65,4.53-1.83,11.87-2.8,14.34a23.36,23.36,0,0,1-2.94,4.75h0c-1.88,2.53-4.18,5.2-5.74,6.91-2.66,2.93-6.2,6.45-8.85,7.76-1.39.69-4.81,1-7.74,1a15.92,15.92,0,0,1-4.26-.47c-2.16-.76-4.17-3.15-6.45-6s-7.27-9.93-9.22-13-2.39-6.78-2.77-10.63c-.24-2.41-.56-5-.77-7.48-.13,2.13-1.93,1.52-2.6-.23a32.47,32.47,0,0,1-1.25-11.86c.3-5.36,2.86-4.17,3.45-2h0C86.32,241.9,86.38,242.13,86.44,242.35ZM121.59,248c0-.77-.3-1.39-.68-1.39s-.68.62-.68,1.39.31,1.39.68,1.39S121.59,248.73,121.59,248Zm-23.74-.17c0-.77-.31-1.39-.69-1.39s-.68.62-.68,1.39.3,1.4.68,1.4S97.85,248.56,97.85,247.79Z"/><path class="cls-4" d="M142.49,212.81c1.3,2.47,2.1,8,1.73,11s-1.06,5.73-1.22,7.89a48.38,48.38,0,0,0,.25,7.77c-2.18,1.22-3.54,5.25-3.94,10.1l-1.67.94s.15-4.27,0-6.87-4-5.94-4.7-8.25.44-5.28-.8-10.71a7,7,0,0,0-4.2-5.14,54.86,54.86,0,0,1,7.53-11.86C137.5,207.53,141.19,210.35,142.49,212.81Z"/><path class="cls-4" d="M89.24,222.58a143.68,143.68,0,0,0-2.8,19.77c-.06-.22-.12-.45-.17-.69A80,80,0,0,1,84.54,224c0-6.16,2.52-10.06,2.09-10.71s-4,3.26-3.51,1.41,4-5.55,3.19-6-3,.27-3,.27c1.69-5.69,10.59-14.59,20.76-15.52s22,4.45,26.3,6.95,5.39,5.59,5.06,7.33a54.86,54.86,0,0,0-7.53,11.86,13.7,13.7,0,0,0-6.43-.79c-4.2.36-11.73,3.4-14.76,3.4s-3.62-1-9.77-2.25S89.75,220.7,89.24,222.58Z"/><polygon class="cls-6" points="237.21 362.3 272.37 362.3 272.88 375.9 244.01 375.9 236.88 372.97 237.21 362.3"/><path class="cls-13" d="M418.06,525.1v12.8c0,1.7,1.69,2.5,3.23,2.34a4.87,4.87,0,0,0,2.62-1,2.78,2.78,0,0,0,1.2-1.88V524.6c0-1.7-1.68-2.5-3.23-2.34a4.84,4.84,0,0,0-2.61,1,2.8,2.8,0,0,0-1.21,1.88Z"/><path class="cls-13" d="M429.25,528.94h-12.8a6.3,6.3,0,0,0-2.74.5A3.88,3.88,0,0,0,411.9,531a1.54,1.54,0,0,0,.09,1.74,2.73,2.73,0,0,0,1.94.84h12.79a6.27,6.27,0,0,0,2.74-.5,3.8,3.8,0,0,0,1.82-1.54,1.56,1.56,0,0,0-.09-1.73,2.71,2.71,0,0,0-1.94-.85Z"/><path class="cls-14" d="M439.25,531.5v12.8c0,1.7,1.68,2.5,3.23,2.34a4.84,4.84,0,0,0,2.61-1,2.8,2.8,0,0,0,1.21-1.88V531c0-1.7-1.69-2.5-3.23-2.34a4.87,4.87,0,0,0-2.62,1,2.78,2.78,0,0,0-1.2,1.88Z"/><path class="cls-14" d="M450.43,535.34H437.64a6.27,6.27,0,0,0-2.74.5,3.85,3.85,0,0,0-1.82,1.54,1.56,1.56,0,0,0,.09,1.73,2.71,2.71,0,0,0,1.94.85h12.8a6.3,6.3,0,0,0,2.74-.5,3.88,3.88,0,0,0,1.81-1.54,1.54,1.54,0,0,0-.09-1.74,2.73,2.73,0,0,0-1.94-.84Z"/><path class="cls-7" d="M298,189.27v12.79c0,.49,1,.7,1.29.74a6.55,6.55,0,0,0,2.57-.24c1.1-.31,3.1-.95,3.1-2.36V187.4c0-.49-1-.69-1.29-.73a6.37,6.37,0,0,0-2.57.24c-1.1.31-3.1,1-3.1,2.36Z"/><path class="cls-7" d="M308.1,192.07H295.31a4.67,4.67,0,0,0-2.61,1,3,3,0,0,0-1.2,1.93c-.07,1.84,1.73,2.43,3.25,2.43h12.8a4.77,4.77,0,0,0,2.61-1,3,3,0,0,0,1.2-1.93c.06-1.84-1.73-2.43-3.26-2.43Z"/><path class="cls-7" d="M285.12,208.9v12.8c0,1.67,1.7,2.34,3.18,2.18a5.11,5.11,0,0,0,2.62-.95c.53-.42,1.23-1.07,1.23-1.8v-12.8c0-1.67-1.7-2.34-3.19-2.18a5.11,5.11,0,0,0-2.61.95c-.53.42-1.23,1.07-1.23,1.8Z"/><path class="cls-7" d="M297.31,213.7H284.52A9.85,9.85,0,0,0,279.6,215c-.27.18-1,.52-.84.94s.94.38,1.19.38h12.8a9.87,9.87,0,0,0,4.92-1.31c.27-.17.95-.52.84-.94s-.94-.38-1.2-.38Z"/><path class="cls-7" d="M272.31,165.43v12.8c0,1.7,1.69,2.5,3.23,2.34a4.87,4.87,0,0,0,2.62-1,2.78,2.78,0,0,0,1.2-1.88v-12.8c0-1.7-1.68-2.5-3.23-2.34a4.84,4.84,0,0,0-2.61,1,2.8,2.8,0,0,0-1.21,1.88Z"/><path class="cls-7" d="M283.5,169.27H270.7a6.3,6.3,0,0,0-2.74.5,3.83,3.83,0,0,0-1.81,1.54,1.54,1.54,0,0,0,.09,1.74,2.73,2.73,0,0,0,1.94.84H281a6.27,6.27,0,0,0,2.74-.5,3.85,3.85,0,0,0,1.82-1.54,1.57,1.57,0,0,0-.09-1.74,2.74,2.74,0,0,0-1.94-.84Z"/></g><g id="LIN"><path class="cls-15" d="M86.31,245.77c0-7.11,2.12-20.2,2.93-23.19.5-1.88,1.59-3.91,7.74-2.68s6.73,2.25,9.77,2.25,10.56-3,14.76-3.4,9.4.5,10.63,5.93.15,8.39.8,10.71,4.56,5.64,4.7,8.25,0,6.87,0,6.87l1.67-.94"/><path class="cls-15" d="M139.31,249.57c.54-6.68,2.91-11.77,6.73-10.2s2,12.08,0,15.63-5.4,8-7.84,3.66"/><path class="cls-15" d="M138.55,256.08c-.44,3.47-2,13.89-3.15,16.93s-6,8.74-8.68,11.67-6.2,6.44-8.85,7.76c-2.26,1.12-9.82,1.25-12,.49s-4.18-3.15-6.46-6-7.27-9.94-9.23-13-2.38-6.78-2.76-10.63-1-8.11-1-11.89"/><path class="cls-15" d="M106.37,248.54c-.93,3-3.42,13.13-3.48,14.65s6.46,2.06,10.8,1.19"/><path class="cls-15" d="M99.4,270.76a108,108,0,0,0,21.93-.06"/><path class="cls-15" d="M100.35,270.88c.89,1.18,4.63,4.33,6.07,4.49a29.62,29.62,0,0,0,6.59,0c1.74-.43,5.54-2.63,6.9-4.54"/><path class="cls-15" d="M107.32,279.9a6.72,6.72,0,0,0,4.93,0"/><path class="cls-15" d="M114.18,242.25c4.72-.9,11.13-.58,14.49.5"/><path class="cls-15" d="M103.49,242.24a31.52,31.52,0,0,0-13.88,0"/><path class="cls-15" d="M121.6,248c0,.77-.31,1.39-.69,1.39s-.68-.62-.68-1.39.31-1.39.68-1.39S121.6,247.19,121.6,248Z"/><path class="cls-15" d="M97.85,247.79c0,.77-.31,1.39-.69,1.39s-.68-.62-.68-1.39.31-1.39.68-1.39S97.85,247,97.85,247.79Z"/><path class="cls-15" d="M135.47,207.68c2-.15,5.72,2.67,7,5.13s2.1,8,1.74,11-1.07,5.74-1.23,7.89a49.57,49.57,0,0,0,.25,7.77"/><path class="cls-15" d="M135.47,207.68c.33-1.74-.72-4.83-5.06-7.33s-16.14-7.87-26.3-6.95S85,203.23,83.36,208.92c0,0,2.11-.76,3-.27s-2.64,4.17-3.19,6,3.08-2.06,3.51-1.41-2.06,4.55-2.1,10.71a78.84,78.84,0,0,0,1.9,18.37"/><path class="cls-15" d="M135.47,207.68a54.48,54.48,0,0,0-7.53,11.86"/><path class="cls-15" d="M86.31,241.86c-.48-2.27-3.19-3.71-3.5,1.82a32.47,32.47,0,0,0,1.25,11.86c.67,1.76,2.48,2.37,2.6.21"/><path class="cls-15" d="M90.19,273.88a51.66,51.66,0,0,1,0,8.28"/><path class="cls-15" d="M132.46,277.77a54.11,54.11,0,0,0-.77,9.27"/><path class="cls-15" d="M110.13,293.41c1.46,1.42,4.86,3.91,10.36,6.74"/><path class="cls-15" d="M132.07,285.89c-1.3,4.81-6.73,10.46-11.58,14.26"/><path class="cls-15" d="M88.68,278.77c1.41,4.88,18.11,31.09,21.1,36.84s13.29,25.55,17.7,38c6.62,18.78,22.87,53.14,24,73.65"/><path class="cls-15" d="M120.49,300.15c-5.89,1.15-12.15,7.74-13.7,10.25"/><path class="cls-15" d="M120.49,300.15c5.11,1,10.79,5.45,12.63,9.87,0,0,2.94-9.08,1.81-16.61-1-6.86-1.88-7.9-3.08-10.77"/><path class="cls-15" d="M111,305.7a38.37,38.37,0,0,0,8.17,11.16"/><path class="cls-15" d="M127.33,303.29c.36,2.72-.5,8.9-1.37,11.73"/><path class="cls-15" d="M119.12,316.86c1.44-1.36,5.64-2.17,6.84-1.84"/><path class="cls-15" d="M125.38,315c5.57,8,16.17,31.81,29.51,112.45"/><path class="cls-15" d="M119.47,316.58a82.7,82.7,0,0,0,.78,20"/><path class="cls-15" d="M90.34,276.69c-2.33-.07-3.4,1.7-5,4.57s-6.57,8.79-8,10.42l-1.62,11L83,306l-4.62,4s54.43,61.18,70,100.46"/><path class="cls-15" d="M135.18,298c3.47,9.67,12.87,34.32,18.24,50.14,5.86,17.31,18.42,53.12,20.76,72.06"/><path class="cls-15" d="M133.81,287.72c2.17,3.78,14.91,14.66,21.13,21.18L148.38,310l9.27,3.59s15.76,79.56,15.9,102.43"/><path class="cls-15" d="M138.15,292.73c2.68,1.77,12,5.25,18.79,6s10.75.52,14,4.55,10.64,18.78,13.79,24.42,15.21,24.09,25.67,32.35c10,7.92,31.81,19.29,38.2,22.36a271.67,271.67,0,0,0,48.52,18.77"/><path class="cls-15" d="M186.73,386.63c8.14,5.43,53.73,28.62,102.36,41.75"/><path class="cls-15" d="M297.12,401.19a88.58,88.58,0,0,0-8,21.49c-1.25,6.57-.41,9.15,5.07-1.33"/><path class="cls-15" d="M182.29,342.69c1.52,12.16,6.07,59.84,6.83,73.69"/><path class="cls-15" d="M77.25,292.24c-2.14,1.88-20.38,13.12-25.37,16.26S43,313.93,39.35,320.23s-1.74,22.9-1.69,26.91,3.53,43.42,7,57.85,6.84,31.26,9,35.71,5.1,4.88,11.72,6.95a275.06,275.06,0,0,0,38.32,9c17.58,2.77,46.88,4.13,56.44,4.13"/><path class="cls-15" d="M160.15,460.78c2.11-5.7,5.42-25.62,4.45-33.32"/><path class="cls-15" d="M164.6,427.46c-9.94.21-33.43-.71-46.67-3S87.54,413,86.56,411.56,83.27,387.62,81.93,378c-1.49-10.67-4.27-27.82-8.18-36.07"/><path class="cls-15" d="M87.24,412.15C83.4,410.36,72,415.79,68.6,418s-2.55-5.48,10.63-7.81"/><path class="cls-15" d="M86.15,410.15a21.5,21.5,0,0,0-22.49,1.3"/><path class="cls-15" d="M47.23,311.55c6.12,0,18,10.16,21.38,19.57"/><path class="cls-15" d="M164.72,428.83a9.59,9.59,0,0,0,4.33-3.11c1.26-1.59,2.33-4.61,6.69-6.26s9-1.93,12.44-2.9c2.32-.65,5.72.23,7.85.41,1.45.11,3.07-.07,3.65.37s.12,3.28-1.76,4.18-4.48,1-7.82,1c-1.92,0-6.26,2.05-6.69,2.89s9.33,3,13.42,3.69,9.33,1.86,13.73,2a15.28,15.28,0,0,1,6.1,1.12,4,4,0,0,1,2.24,2.48c.72,2.14-3.44,1.67-6.22,2s-14.4.11-18,1.16"/><path class="cls-15" d="M217.05,436.38c-2,1.42-9.66,4.07-12.84,5.15s-6.26,1.45-9.48,3.58"/><path class="cls-15" d="M205.91,441c-1.92,1.7-13.13,8.18-15.45,9.95s-4.92,2-11.39,2.75a24.78,24.78,0,0,1-9.27-.47c-3.47-.76-5-1.67-7.41-1.51"/><path class="cls-15" d="M173.48,453.78a106,106,0,0,1-1,11.61"/><path class="cls-15" d="M153.31,460.65c-.76,15.54-2.93,40.18-8,56.24S131.06,541,114.56,543.16c-15.08,2-39.32-3-51.08-7A3.79,3.79,0,0,1,61,532c1-6.78,3.4-23.52,5.1-35.3,2.17-15.09,6.31-37.95,6.52-46.91"/><path class="cls-15" d="M74.16,539.16c.35,8,2.2,49.14,2.85,59"/><path class="cls-15" d="M157.92,476c2,.21,9.77.38,9.77.38l.49-11s-7.76-.16-9.77-.38Z"/><path class="cls-15" d="M168.14,466.17s4.56,0,5.57,0l-.23,9.44s-4.46.18-5.76.08"/><path class="cls-15" d="M158.38,465.7c-1.27-.11-4.54-.18-5.33-.31"/><path class="cls-15" d="M158,475c-1.14,0-4.43-.07-5.6-.25"/><path class="cls-15" d="M172.09,475.66c-.08,5.23,1.13,28.39,1.39,36.42s.24,30.85-.74,48.12c-1.09,19.18-2.83,33.64-3.26,37.33"/><path class="cls-15" d="M160.63,479.23c.06,3.53-.38,33.91-.92,37.76"/><path class="cls-15" d="M165.46,479.23c0,1.77.07,10,.13,16.94A37.65,37.65,0,0,1,160.77,515a20.43,20.43,0,0,0-1.06,2c-6.4,18.89-22.47,35-27.35,82.27"/><ellipse class="cls-15" cx="145.12" cy="420.89" rx="2.71" ry="3.26"/><path class="cls-15" d="M183,453.17c2.91,7.82,14.52,33.86,14.52,67.69,0,3-1.46,3.31-3.69-1.85-1.92-4.46-7.6-16.18-20.73-17"/><path class="cls-15" d="M197.14,510.71c-.74-16.4-3.64-46.48-5-60.93"/><line class="cls-15" x1="189.56" y1="422.56" x2="189.9" y2="427.64"/><path class="cls-15" d="M296.5,402.29c2,.84,5.42.95,8.31.73s14.7-1.92,18.44-1.83,9.44,2.34,11.75,3.2c4.22,1.58,7.74,3,14.5,9.86,1.8,1.83.39,4.31-1.88,3.37"/><path class="cls-15" d="M326.64,402.71l27.71,20,5.5,5.5-7.74-2.78-14.05-10.35"/><line class="cls-15" x1="325.92" y1="406.15" x2="324.35" y2="404.99"/><path class="cls-15" d="M323.24,405.21c1.95.79,5.53,1.73,7.41,2.64s6.84,3.33,8.18,4,1,3.84-3.29,3.6-6.48-2.65-8.14-3.38a21.65,21.65,0,0,1-8.29-.76"/><path class="cls-15" d="M324.35,405c-.29-.89,1.32-2.63,2.29-2.28"/><path class="cls-15" d="M322.67,412.07c-3.9,3.94-14,5-19,5.08"/><path class="cls-15" d="M289.81,419.78c2.75.62,11.48,2.79,11.48,2.79A34.84,34.84,0,0,0,322.13,428s8.79,6.24,11,8.08,4.5-.6,3-2.44-9.38-8.09-9.93-8.85.06-2,2.12-.65a91.17,91.17,0,0,1,12,9.12c2,1.93,4.67.08,2.33-3s-9.69-9.47-12.22-10.82a34.15,34.15,0,0,1,9.06,3.28c2.64,1.6,4.63,2.72,6.54,3.86,3.13,1.86,5.41-1.26,2.76-3.56"/><line class="cls-15" x1="394.22" y1="275.56" x2="391.9" y2="530.38"/><line class="cls-15" x1="207.77" y1="440.29" x2="206.95" y2="530.38"/><line class="cls-15" x1="208.16" y1="397.92" x2="207.86" y2="430.9"/><line class="cls-15" x1="209.27" y1="275.56" x2="208.52" y2="358.48"/><line class="cls-15" x1="206.53" y1="259.63" x2="206.53" y2="275.56"/><line class="cls-15" x1="396.82" y1="259.63" x2="396.82" y2="275.56"/><line class="cls-15" x1="206.53" y1="275.56" x2="396.82" y2="275.56"/><line class="cls-15" x1="206.95" y1="530.38" x2="391.9" y2="530.38"/><line class="cls-15" x1="206.53" y1="259.63" x2="396.82" y2="259.63"/><line class="cls-15" x1="384.74" y1="530.38" x2="388.21" y2="590.79"/><line class="cls-15" x1="377.85" y1="530.38" x2="381.33" y2="590.79"/><line class="cls-15" x1="214.12" y1="530.38" x2="210.65" y2="590.79"/><line class="cls-15" x1="221" y1="530.38" x2="217.53" y2="590.79"/><line class="cls-15" x1="295.97" y1="530.38" x2="296" y2="590.79"/><line class="cls-15" x1="302.86" y1="530.38" x2="302.88" y2="590.79"/><polygon class="cls-15" points="270.78 295.08 270.63 316.36 323.41 316.36 323.41 295.08 270.78 295.08"/><path class="cls-15" d="M296.73,321.52s43.46,29.54,50.84,36.16"/><path class="cls-15" d="M296.73,321.52c.39,9.55,1.55,32.57,1.4,35.61"/><path class="cls-15" d="M296.73,321.52c-8.39,7.53-31.05,30.21-35,35.13"/><path class="cls-15" d="M262.6,349.25a57.58,57.58,0,0,0-1,6.79c-.17,2.43,6-1.63,7.54-2.61"/><path class="cls-15" d="M294.51,351.7a21.23,21.23,0,0,0,3.09,5.53c1.12,1.35,2.39-.43,3.53-5.53"/><path class="cls-15" d="M344.53,351.06a66.94,66.94,0,0,1,3,6.62c.49,1.52-3.25-.06-6.51-1.41"/><polyline class="cls-15" points="236.88 362.12 272.91 362.12 272.91 375.9 243.93 375.9"/><line class="cls-15" x1="236.88" y1="362.12" x2="236.88" y2="372.97"/><line class="cls-15" x1="255" y1="375.9" x2="255" y2="382.2"/><polyline class="cls-15" points="285.61 375.9 319.11 375.9 319.11 362.95 285.61 362.95 285.61 375.9"/><polygon class="cls-15" points="339.66 363.53 377.94 363.53 377.94 376.34 339.52 376.34 339.66 363.53"/><line class="cls-15" x1="300.53" y1="378.83" x2="300.53" y2="390.72"/><path class="cls-15" d="M296.5,385.83c1.21,1.63,2.46,4,3.22,4.89,1.25,1.41,2.17-.22,4.78-5.27"/><path class="cls-15" d="M358,380.72c-.05,1.73.07,8.3,0,10.42"/><path class="cls-15" d="M353.79,387.12a32.29,32.29,0,0,0,3.53,4.56c1.14,1.25,3.53-2.44,4.83-4.29"/><polyline class="cls-15" points="285.61 394.93 319.11 394.93 319.11 398.99"/><polyline class="cls-15" points="349.1 409.93 377.94 409.93 377.94 395.49 340.2 395.49 340.2 403.25"/><polygon class="cls-15" points="371.06 491.31 231.27 491.31 232.14 463.24 371.93 463.24 371.06 491.31"/><ellipse class="cls-15" cx="249.56" cy="476.61" rx="5.52" ry="5.98"/><ellipse class="cls-15" cx="275.56" cy="476.61" rx="5.52" ry="5.98"/><ellipse class="cls-15" cx="301.56" cy="476.61" rx="5.52" ry="5.98"/><ellipse class="cls-15" cx="327.55" cy="476.61" rx="5.52" ry="5.98"/><ellipse class="cls-15" cx="353.55" cy="476.61" rx="5.52" ry="5.98"/><line class="cls-15" x1="256.31" y1="430.17" x2="256.63" y2="455.86"/><path class="cls-15" d="M252.4,451.37s2.68,4.34,3.91,5.93,2.6-2.53,3.9-5.93"/><line class="cls-15" x1="303.68" y1="432.85" x2="303.68" y2="457.66"/><path class="cls-15" d="M299,451s2.35,4.48,3.76,6.51c2.1,3,3.4-2.22,5.57-6.09"/><line class="cls-15" x1="357.1" y1="435.24" x2="357.1" y2="458.1"/><path class="cls-15" d="M353.16,452.75c1.76,3.08,2.42,4.81,3.43,5.82s3.33-3.19,4.42-5.72"/></g></svg>