<svg xmlns="http://www.w3.org/2000/svg" viewBox="0 0 536 700"><defs><style>.cls-1,.cls-15{fill:none;}.cls-2{fill:#30d9cb;}.cls-3{fill:#fad804;}.cls-4{fill:#1fadfe;}.cls-5{fill:#53b972;}.cls-6{fill:#fff;}.cls-7{fill:#1cacfe;}.cls-8{fill:#98cdd0;}.cls-9{fill:#fad70d;}.cls-10{fill:#28b8ce;}.cls-11{fill:#33c977;}.cls-12{fill:#33c976;}.cls-13{fill:#6e8a90;}.cls-14{fill:#c9e5e7;}.cls-15{stroke:#28347d;stroke-linecap:round;stroke-linejoin:round;stroke-width:1.7px;}</style></defs><title>imag_ocensa_7_gobierno_corporativo_instancias_organizacionales</title><g id="Figuras_fondo" data-name="Figuras fondo"><rect class="cls-1" width="536" height="700"/><path class="cls-2" d="M95.62,462.21c-51.46-69.27-60.26-120.36,7.58-186.63S165.51,27,408.45,138,274,702.4,95.62,462.21Z"/><path class="cls-3" d="M280.17,358.08c65.2-41.14,111-46.06,152.14-7.73s-51.18,34.06-77.69,129.9-91.25,110.33-113.08,34.17S261.7,369.74,280.17,358.08Z"/></g><g id="Parche_color" data-name="Parche color"><path class="cls-4" d="M419.25,528.84v12.82c0,1.71,1.69,2.51,3.24,2.35a4.92,4.92,0,0,0,2.62-1,2.84,2.84,0,0,0,1.21-1.89V528.34c0-1.71-1.69-2.51-3.24-2.35a4.88,4.88,0,0,0-2.62,1,2.8,2.8,0,0,0-1.21,1.88Z"/><path class="cls-4" d="M430.46,532.68H417.64a6.14,6.14,0,0,0-2.74.51,3.8,3.8,0,0,0-1.82,1.54,1.54,1.54,0,0,0,.09,1.74,2.75,2.75,0,0,0,1.94.85h12.82a6.2,6.2,0,0,0,2.75-.51,3.9,3.9,0,0,0,1.82-1.54,1.57,1.57,0,0,0-.09-1.74,2.76,2.76,0,0,0-2-.85Z"/><path class="cls-5" d="M440.48,535.25v12.82c0,1.71,1.69,2.51,3.24,2.35a4.87,4.87,0,0,0,2.62-1,2.82,2.82,0,0,0,1.21-1.89V534.75c0-1.7-1.69-2.51-3.24-2.35a4.85,4.85,0,0,0-2.62,1,2.8,2.8,0,0,0-1.21,1.88Z"/><path class="cls-5" d="M451.69,539.09H438.87a6.28,6.28,0,0,0-2.74.51,3.8,3.8,0,0,0-1.82,1.54,1.54,1.54,0,0,0,.09,1.74,2.74,2.74,0,0,0,1.94.85h12.82a6.14,6.14,0,0,0,2.74-.51,3.8,3.8,0,0,0,1.82-1.54,1.54,1.54,0,0,0-.09-1.74,2.74,2.74,0,0,0-1.94-.85Z"/><path class="cls-6" d="M298.85,191.63v12.82c0,1.73,1.68,2.65,3.28,2.5,1.44-.14,3.8-1.14,3.8-2.94V191.19c0-1.73-1.67-2.65-3.27-2.5s-3.81,1.14-3.81,2.94Z"/><path class="cls-6" d="M310.13,195.74H297.31a6.79,6.79,0,0,0-2.74.53,4.09,4.09,0,0,0-1.85,1.41c-.75,1.41.65,2.22,1.94,2.22h12.82a6.74,6.74,0,0,0,2.73-.53,4,4,0,0,0,1.85-1.41c.76-1.4-.64-2.22-1.93-2.22Z"/><path class="cls-6" d="M286.09,212.66v12.83c0,.37,1.1.37,1.19.37a9.47,9.47,0,0,0,2.54-.39,9.64,9.64,0,0,0,2.39-.93c.34-.21.85-.46.85-.92V210.8c0-.37-1.1-.37-1.2-.37a9.4,9.4,0,0,0-2.53.39,9.13,9.13,0,0,0-2.39.93c-.34.2-.85.46-.85.91Z"/><path class="cls-6" d="M297.37,216.29H284.55a7.52,7.52,0,0,0-2.73.56,4.38,4.38,0,0,0-1.88,1.29c-.86,1.35.73,1.85,1.83,1.85h12.82a7.32,7.32,0,0,0,2.73-.56,4.39,4.39,0,0,0,1.89-1.29c.85-1.35-.74-1.85-1.84-1.85Z"/><path class="cls-6" d="M273.27,169.14V182c0,.53,1,.84,1.34.91a5.68,5.68,0,0,0,2.59-.17c1.27-.37,3-1.08,3-2.61V167.28c0-.54-1-.85-1.33-.92a6,6,0,0,0-2.6.17c-1.27.37-3,1.08-3,2.61Z"/><path class="cls-6" d="M284.63,173.06H271.81a8.14,8.14,0,0,0-2.72.6,5.15,5.15,0,0,0-1.93,1.13c-1.07,1.22.95,1.39,1.71,1.39h12.82a8.13,8.13,0,0,0,2.72-.59,5,5,0,0,0,1.93-1.14c1.07-1.22-.95-1.39-1.71-1.39Z"/><polygon class="cls-7" points="397.97 262.84 397.97 278.8 395.36 278.8 210.05 278.8 207.3 278.8 207.3 262.84 397.97 262.84"/><polygon class="cls-8" points="385.87 534.13 389.35 594.66 382.45 594.66 378.97 534.13 385.87 534.13"/><rect class="cls-8" x="296.94" y="534.13" width="6.9" height="60.53"/><polygon class="cls-8" points="221.81 534.13 218.33 594.66 211.43 594.66 214.91 534.13 221.81 534.13"/><path class="cls-9" d="M290,431.92c-.64-.31-.53-2.55.08-5.7.17-.9.39-1.88.66-2.91h0l4.53,1.08-.12.49C292.3,430.35,290.7,432.27,290,431.92Z"/><path class="cls-6" d="M327.74,405.2a65,65,0,0,1,8.29,2.69c4.22,1.59,7.75,3,14.53,9.88,1.8,1.83.39,4.32-1.89,3.37l-.11.16c-2.54-1.82-5.5-4-8.38-6l-12.53-9.05-.13,0Z"/><path class="cls-10" d="M339.87,415.38c-1.34-.69-6.44-3.18-8.2-4a42.78,42.78,0,0,0-4.75-1.7l-1.56-1.16c-.28-.86,1.18-2.48,2.16-2.32l.13,0,12.53,9.05-.15.22Z"/><path class="cls-10" d="M339.09,418.61c1.73-.78,1.78-2.52.94-3.13l.15-.22c2.88,2.08,5.84,4.22,8.38,6l6.85,4.95,5.52,5.52L353.17,429l-3.29-2.43-10.78-7.94Z"/><path class="cls-6" d="M339.09,418.61h0l10.78,7.94c2.66,2.3.37,5.42-2.76,3.57-1.93-1.15-3.92-2.27-6.56-3.88A34.46,34.46,0,0,0,331.5,423c2.54,1.38,9.87,7.78,12.23,10.85s-.3,4.89-2.34,3a91.38,91.38,0,0,0-12.05-9.14c-2.07-1.36-2.67-.11-2.13.66s8.43,7,10,8.86-.77,4.29-3,2.44-11-8.1-11-8.1a34.85,34.85,0,0,1-20.88-5.38s-3.65-.91-7-1.72l-4.53-1.08h0a96.44,96.44,0,0,1,6.72-17.52c2,.83,5.42.94,8.33.73s14.72-1.93,18.47-1.83a16.54,16.54,0,0,1,3.48.51l-.22,1c-1-.16-2.44,1.46-2.16,2.32l1.56,1.16a42.78,42.78,0,0,1,4.75,1.7c1.76.85,6.86,3.34,8.2,4l.16.1C340.87,416.09,340.82,417.83,339.09,418.61Z"/><polygon class="cls-9" points="324.42 298.37 324.42 319.68 271.53 319.68 271.68 298.37 324.42 298.37"/><polygon class="cls-9" points="379.05 366.95 379.05 379.78 340.56 379.78 340.7 366.95 379.05 366.95"/><rect class="cls-9" x="286.54" y="366.37" width="33.57" height="12.98"/><path class="cls-9" d="M373,466.85,372.16,495H232.1l.86-28.13Zm-12.88,13.41a5.55,5.55,0,1,0-5.53,6A5.78,5.78,0,0,0,360.15,480.26Zm-26,0a5.55,5.55,0,1,0-5.53,6A5.78,5.78,0,0,0,334.1,480.26Zm-26.05,0a5.55,5.55,0,1,0-5.53,6A5.77,5.77,0,0,0,308.05,480.26Zm-26,0a5.55,5.55,0,1,0-5.54,6A5.78,5.78,0,0,0,282,480.26Zm-26.06,0a5.55,5.55,0,1,0-5.53,6A5.77,5.77,0,0,0,256,480.26Z"/><path class="cls-11" d="M354.62,474.26a6,6,0,1,1-5.54,6A5.78,5.78,0,0,1,354.62,474.26Z"/><path class="cls-11" d="M328.57,474.26a6,6,0,1,1-5.53,6A5.78,5.78,0,0,1,328.57,474.26Z"/><path class="cls-11" d="M302.52,474.26a6,6,0,1,1-5.53,6A5.77,5.77,0,0,1,302.52,474.26Z"/><path class="cls-11" d="M276.47,474.26a6,6,0,1,1-5.53,6A5.78,5.78,0,0,1,276.47,474.26Z"/><path class="cls-11" d="M250.42,474.26a6,6,0,1,1-5.53,6A5.77,5.77,0,0,1,250.42,474.26Z"/><path class="cls-6" d="M348.56,421.3l.11-.16c2.28.95,3.69-1.54,1.89-3.37-6.78-6.89-10.31-8.29-14.53-9.88a65,65,0,0,0-8.29-2.69,16.54,16.54,0,0,0-3.48-.51c-3.75-.1-15.58,1.62-18.47,1.83s-6.34.1-8.33-.73c.21-.4.41-.78.61-1.1a272.15,272.15,0,0,1-48.61-18.82c-6.4-3.07-28.23-14.46-38.28-22.4-.62-.49-1.25-1-1.88-1.58l.75-83.09H395.36L393,534.13H207.73l.82-90.27c3.51-1.24,7.83-2.89,9.29-3.91h0c1.34-.19,2.23-.6,1.86-1.69a4,4,0,0,0-2.24-2.49,15.78,15.78,0,0,0-6.12-1.12c-.87,0-1.78-.1-2.7-.19l.3-33c19.64,9.39,49.72,22,81.06,30.49.7.35,2.3-1.57,5.16-7l.12-.49c3.33.81,7,1.72,7,1.72a34.85,34.85,0,0,0,20.88,5.38s8.81,6.25,11,8.1,4.51-.59,3-2.44-9.41-8.11-10-8.86.06-2,2.13-.66a91.38,91.38,0,0,1,12.05,9.14c2,1.93,4.67.08,2.34-3S334,424.34,331.5,423a34.46,34.46,0,0,1,9.06,3.28c2.64,1.61,4.63,2.73,6.56,3.88,3.13,1.85,5.42-1.27,2.76-3.57l3.29,2.43,7.76,2.79-5.52-5.52Zm30.49-41.52V367H340.7l-.14,12.83ZM372.16,495l.87-28.13H233L232.1,495Zm-47.74-175.3V298.37H271.68l-.15,21.31Zm-4.31,59.67v-13H286.54v13Z"/><path class="cls-12" d="M74.67,542.93c-4.11-1-7.79-2.06-10.7-3a3.81,3.81,0,0,1-2.53-4.14c1-6.8,3.41-23.57,5.1-35.37,2.18-15.12,6.33-38,6.54-47a271.68,271.68,0,0,0,31.2,6.9c14.48,2.27,36.86,3.6,49.7,4-.07,1.5-.16,3.09-.26,4.75-.18,2.95-.41,6.11-.69,9.41-1.19,14-3.36,30.41-7.1,42.19-5.11,16.1-14.24,24.14-30.77,26.32C103.78,548.43,87.2,546,74.67,542.93Z"/><path class="cls-13" d="M133,603.14s-12.54.71-29.51.66a235.53,235.53,0,0,1-25.95-1.74c-.65-9.9-2.5-51.09-2.86-59.13,12.53,3,29.11,5.5,40.49,4,16.53-2.18,25.66-10.22,30.77-26.32,3.74-11.78,5.91-28.15,7.1-42.19,1.18.17,4.46.21,5.62.25l-.05,1c2,.23,9.78.39,9.78.39l0-.71c.83.06,3,0,4.38,0-.05,3.7.54,16.4,1,26.36.19,4.12.34,7.78.42,10.13.27,8,.24,30.91-.74,48.21-1.1,19.22-2.83,33.71-3.27,37.4a164.6,164.6,0,0,1-18.12,1.75C141.1,603.66,133,603.14,133,603.14Z"/><path class="cls-8" d="M174.42,469.79l-.23,9.46-1.39.05c-1.43,0-3.55.09-4.38,0l.42-9.54,4.34,0Z"/><path class="cls-8" d="M159.06,469.32l-.41,9.35c-1.16,0-4.44-.08-5.62-.25.28-3.3.51-6.46.69-9.41C154.51,469.14,157.78,469.21,159.06,469.32Z"/><path class="cls-8" d="M158.65,478.67l.41-9.35,0-.69c2,.22,9.79.38,9.79.38l0,.78-.42,9.54,0,.71s-7.77-.16-9.78-.39Z"/><path class="cls-14" d="M174.19,457.38a106.37,106.37,0,0,1-1,11.63v.8l-4.34,0,0-.78s-7.77-.16-9.79-.38l0,.69c-1.28-.11-4.55-.18-5.34-.31.1-1.66.19-3.25.26-4.75,2.8.08,5.14.13,6.85.13a65,65,0,0,0,2.25-9.13c2.39-.16,3.95.76,7.43,1.52A31.14,31.14,0,0,0,174.19,457.38Z"/><path class="cls-12" d="M174.42,469.79l-1.24,0V469a106.37,106.37,0,0,0,1-11.63,25.34,25.34,0,0,0,5.6-.13l3.91-.48c2.61,7,12.25,28.76,14.2,57.65h0c.22,3.3.34,6.69.34,10.17,0,3-1.47,3.31-3.7-1.86-1.92-4.46-7.61-16.2-20.77-17.07-.43-10-1-22.66-1-26.36l1.39-.05Z"/><path class="cls-12" d="M192.86,453.36c1.39,14.49,4.29,44.63,5,61.06-2-28.89-11.59-50.62-14.2-57.65,3.76-.49,5.73-.91,7.51-2.28C191.57,454.22,192.14,453.83,192.86,453.36Z"/><path class="cls-12" d="M190.3,426.09l.34,5.09c-3.54-.83-6.75-1.76-6.5-2.24C184.53,428.17,188.21,426.4,190.3,426.09Z"/><path class="cls-12" d="M145.77,421.16a3.32,3.32,0,1,1-2.71,3.27A3,3,0,0,1,145.77,421.16Z"/><path class="cls-6" d="M217.84,440c-1.46,1-5.78,2.67-9.29,3.91l-1.86.65h0c-1.63,1.44-9.91,6.3-13.83,8.84-.72.47-1.29.86-1.65,1.13-1.78,1.37-3.75,1.79-7.51,2.28l-3.91.48a25.34,25.34,0,0,1-5.6.13,31.14,31.14,0,0,1-3.68-.6c-3.48-.76-5-1.68-7.43-1.52,1.44-7.56,2.66-17.3,2.33-22.88a9.57,9.57,0,0,0,4.34-3.12c1.09-1.38,2.05-3.84,5.14-5.55a12.86,12.86,0,0,1,1.57-.72c4.41-1.66,9-1.93,12.46-2.91a5.77,5.77,0,0,1,.94-.17h0c2.24-.25,5.07.44,6.93.59,1.45.12,3.07-.07,3.65.37s.12,3.29-1.77,4.2-4.48.94-7.83,1a3.74,3.74,0,0,0-.54,0c-2.09.31-5.77,2.08-6.16,2.85-.25.48,3,1.41,6.5,2.24,2.54.6,5.24,1.15,7,1.45,3.28.59,7.31,1.44,11,1.82.92.09,1.83.17,2.7.19a15.78,15.78,0,0,1,6.12,1.12,4,4,0,0,1,2.24,2.49c.37,1.09-.52,1.5-1.86,1.69Z"/><path class="cls-12" d="M47.69,314.87c1.45-1.05,3-2,4.67-3.06,5-3.15,23.27-14.41,25.41-16.3L76.22,306l7.29,3.32-4.62,4S133.26,374.45,149,413.82a84.15,84.15,0,0,1,3.14,17l3.46.11c3.85.09,7.22.11,9.72.05q.08.63.12,1.38c.33,5.58-.89,15.32-2.33,22.88a65,65,0,0,1-2.25,9.13c-1.71,0-4.05-.05-6.85-.13-12.84-.4-35.22-1.73-49.7-4a271.68,271.68,0,0,1-31.2-6.9c-2.92-.82-5.35-1.56-7.18-2.13-6.64-2.07-9.58-2.5-11.75-7s-5.55-21.31-9-35.78-7-53.93-7-58-2-20.66,1.68-27A26.31,26.31,0,0,1,47.69,314.87Zm100.8,109.56a2.76,2.76,0,1,0-2.72,3.26A3,3,0,0,0,148.49,424.43Z"/><path class="cls-14" d="M120.08,319.91a82.94,82.94,0,0,0,.78,20.07c-4.24-9-8.69-17.57-10.5-21-.56-1.1-1.63-2.94-3-5.23a25.78,25.78,0,0,1,4.17-4.7,38.62,38.62,0,0,0,8.18,11.18A3.44,3.44,0,0,1,120.08,319.91Z"/><path class="cls-12" d="M85.9,284.52c1.58-2.88,2.65-4.64,5-4.58a45.55,45.55,0,0,1-.14,5.48c3.51,6.81,11.87,20.31,16.63,28.29,1.36,2.29,2.43,4.13,3,5.23,1.81,3.47,6.26,12,10.5,21,2.79,5.95,5.48,12.09,7.24,17.07,5,14.25,15.57,37.43,20.87,56.77-15.71-39.37-70.08-100.48-70.08-100.48l4.62-4L76.22,306l1.55-10.49.09-.55C79.32,293.33,84.33,287.4,85.9,284.52Z"/><path class="cls-12" d="M176.46,423a12.86,12.86,0,0,0-1.57.72c-.17-1.3-.38-2.69-.63-4.15h0c-.14-22.92-15.93-102.63-15.93-102.63L149,313.34l6.57-1.13c-4.36-4.58-11.93-11.29-16.81-16.2,2.67,1.77,12,5.25,18.83,6s10.76.53,14,4.56,10.66,18.82,13.81,24.47c3,5.33,13.84,22,23.84,30.83.63.56,1.26,1.09,1.88,1.58,10,7.94,31.88,19.33,38.28,22.4a272.15,272.15,0,0,0,48.61,18.82c-.2.32-.4.7-.61,1.1a96.44,96.44,0,0,0-6.72,17.52c-.27,1-.49,2-.66,2.91-.61,3.15-.72,5.39-.08,5.7-31.34-8.47-61.42-21.1-81.06-30.49-10.89-5.2-18.57-9.4-21.47-11.33h0c1.14,12.46,2.11,24,2.42,29.8h0a5.77,5.77,0,0,0-.94.17C185.5,421.06,180.87,421.33,176.46,423Z"/><path class="cls-12" d="M174.26,419.56h0c-3.41-19.68-14.7-51.91-20.17-68.05-5.38-15.85-14.79-40.55-18.28-50.24a25.85,25.85,0,0,0-.25-4.58,52.06,52.06,0,0,0-1.11-5.69,30.82,30.82,0,0,0,4.35,5c4.88,4.91,12.45,11.62,16.81,16.2L149,313.34l9.29,3.59S174.12,396.64,174.26,419.56Z"/><path class="cls-14" d="M128,306.58a17.05,17.05,0,0,1,5.79,6.76,48.57,48.57,0,0,0,2.06-12.07c3.49,9.69,12.9,34.39,18.28,50.24,5.47,16.14,16.76,48.37,20.17,68.05.25,1.46.46,2.85.63,4.15-3.09,1.71-4,4.17-5.14,5.55a9.57,9.57,0,0,1-4.34,3.12q0-.75-.12-1.38c-2.5.06-5.87,0-9.72-.05-13.37-80.78-24-104.62-29.57-112.67a2.26,2.26,0,0,1,.57.06c.88-2.82,1.75-9,1.38-11.75Z"/><path class="cls-6" d="M149,413.82c-5.3-19.34-15.85-42.52-20.87-56.77-1.76-5-4.45-11.12-7.24-17.07a82.94,82.94,0,0,1-.78-20.07h0a12.23,12.23,0,0,1,5.92-1.62c5.58,8.05,16.2,31.89,29.57,112.67l-3.46-.11A84.15,84.15,0,0,0,149,413.82Z"/><path class="cls-6" d="M121.1,303.44a18.29,18.29,0,0,1,6.86,3.14h0c.37,2.73-.5,8.93-1.38,11.75a2.26,2.26,0,0,0-.57-.06,12.23,12.23,0,0,0-5.92,1.62h0a3.44,3.44,0,0,0-.36.28A38.62,38.62,0,0,1,111.54,309C114.2,306.56,117.71,304.11,121.1,303.44Z"/><path class="cls-14" d="M132.48,285.9a34.43,34.43,0,0,1,2,5.1,52.06,52.06,0,0,1,1.11,5.69,25.85,25.85,0,0,1,.25,4.58,48.57,48.57,0,0,1-2.06,12.07,17.05,17.05,0,0,0-5.79-6.76,18.29,18.29,0,0,0-6.86-3.14c4.47-3.5,9.44-8.58,11.21-13.12,0-1.31.07-2.84.17-4.42Z"/><path class="cls-14" d="M90.88,279.94c0-.95-.06-1.91-.14-2.82,2,3.1,7,10.17,9.24,13.05s4.3,5.28,6.47,6a15.92,15.92,0,0,0,4.27.48c1.46,1.42,4.87,3.93,10.38,6.75-3.39.67-6.9,3.12-9.56,5.57a25.78,25.78,0,0,0-4.17,4.7c-4.76-8-13.12-21.48-16.63-28.29A45.55,45.55,0,0,0,90.88,279.94Z"/><path class="cls-6" d="M133.09,281a37.18,37.18,0,0,0-.61,4.88c-.1,1.58-.13,3.11-.17,4.42-1.77,4.54-6.74,9.62-11.21,13.12-5.51-2.82-8.92-5.33-10.38-6.75,2.93,0,6.36-.28,7.75-1,2.66-1.32,6.21-4.84,8.87-7.77C128.9,286.23,131.21,283.55,133.09,281Z"/><path class="cls-6" d="M120.52,274.06c-1.37,1.93-5.17,4.12-6.91,4.56a31.06,31.06,0,0,1-6.61,0c-1.44-.16-5.19-3.32-6.09-4.51A109.43,109.43,0,0,0,120.52,274.06Z"/><path class="cls-6" d="M120.52,274.06a109.43,109.43,0,0,1-19.61.05c.9,1.19,4.65,4.35,6.09,4.51a31.06,31.06,0,0,0,6.61,0C115.35,278.18,119.15,276,120.52,274.06ZM87,245.53a146.08,146.08,0,0,1,2.8-19.81c.51-1.88,1.6-3.91,7.76-2.68s6.74,2.25,9.79,2.25,10.58-3,14.79-3.41a13.73,13.73,0,0,1,6.44.79,7,7,0,0,1,4.21,5.16c1.24,5.43.15,8.4.8,10.72s4.57,5.66,4.72,8.27,0,6.89,0,6.89l1.66-.94c.4-4.87,1.76-8.9,4-10.13a3.1,3.1,0,0,1,2.8-.1c4,1.63,2,12.11,0,15.66s-5.41,8-7.86,3.68c-.65,4.54-1.83,11.9-2.8,14.37a22.8,22.8,0,0,1-2.95,4.76h0c-1.88,2.53-4.19,5.21-5.75,6.93-2.66,2.93-6.21,6.45-8.87,7.77-1.39.69-4.82,1-7.75,1a15.92,15.92,0,0,1-4.27-.48c-2.17-.76-4.18-3.15-6.47-6s-7.28-9.95-9.24-13.05-2.39-6.79-2.77-10.65c-.24-2.41-.56-5-.77-7.5-.13,2.14-1.93,1.53-2.6-.23a32.05,32.05,0,0,1-1.25-11.87c.3-5.38,2.86-4.18,3.45-2h0C86.86,245.08,86.92,245.31,87,245.53Zm35.22,5.62c0-.77-.3-1.39-.68-1.39s-.68.62-.68,1.39.3,1.39.68,1.39S122.2,251.92,122.2,251.15ZM98.41,251c0-.77-.31-1.39-.69-1.39S97,250.21,97,251s.3,1.4.68,1.4S98.41,251.75,98.41,251Z"/><path class="cls-7" d="M143.14,215.94c1.31,2.46,2.1,8,1.74,11s-1.07,5.74-1.23,7.9a49.66,49.66,0,0,0,.25,7.78c-2.19,1.23-3.55,5.26-4,10.13l-1.66.94s.14-4.28,0-6.89-4.07-5.94-4.72-8.27.44-5.29-.8-10.72a7,7,0,0,0-4.21-5.16,55.46,55.46,0,0,1,7.55-11.88C138.14,210.64,141.84,213.47,143.14,215.94Z"/><path class="cls-7" d="M89.78,225.72A146.08,146.08,0,0,0,87,245.53c-.06-.22-.12-.45-.17-.69a80.81,80.81,0,0,1-1.74-17.71c0-6.17,2.53-10.07,2.1-10.72s-4.06,3.26-3.52,1.41,4-5.56,3.2-6.06-3,.28-3,.28c1.69-5.71,10.61-14.63,20.79-15.55s22,4.46,26.35,7,5.4,5.6,5.08,7.34a55.46,55.46,0,0,0-7.55,11.88,13.73,13.73,0,0,0-6.44-.79c-4.21.36-11.75,3.41-14.79,3.41s-3.63-1-9.79-2.25S90.29,223.84,89.78,225.72Z"/><polygon class="cls-9" points="238.04 365.72 273.28 365.72 273.78 379.35 244.86 379.35 237.72 376.41 238.04 365.72"/></g><g id="LIN"><path class="cls-15" d="M86.85,249c0-7.12,2.13-20.24,2.93-23.24.51-1.88,1.6-3.91,7.76-2.68s6.74,2.25,9.79,2.25,10.58-3,14.79-3.41,9.42.51,10.65,6,.15,8.4.8,10.72,4.57,5.66,4.71,8.27,0,6.89,0,6.89l1.67-1"/><path class="cls-15" d="M140,252.76c.54-6.68,2.92-11.79,6.74-10.22,4,1.63,2,12.11,0,15.66s-5.41,8-7.85,3.68"/><path class="cls-15" d="M139.19,259.29c-.44,3.48-2,13.92-3.15,17s-6,8.76-8.7,11.69-6.21,6.46-8.87,7.78c-2.26,1.12-9.84,1.25-12,.49s-4.19-3.15-6.47-6-7.29-9.95-9.25-13.05-2.39-6.79-2.77-10.65-1-8.13-1-11.91"/><path class="cls-15" d="M107,251.73c-.93,3-3.43,13.16-3.48,14.68s6.47,2.07,10.82,1.2"/><path class="cls-15" d="M100,274a107.88,107.88,0,0,0,22-.07"/><path class="cls-15" d="M100.92,274.11c.89,1.19,4.64,4.35,6.08,4.51a31.06,31.06,0,0,0,6.61,0c1.74-.44,5.54-2.64,6.91-4.56"/><path class="cls-15" d="M107.9,283.16a6.79,6.79,0,0,0,4.94,0"/><path class="cls-15" d="M114.78,245.43c4.73-.9,11.14-.58,14.51.5"/><path class="cls-15" d="M104.06,245.42a31.6,31.6,0,0,0-13.9,0"/><path class="cls-15" d="M122.2,251.15c0,.77-.3,1.4-.68,1.4s-.68-.63-.68-1.4.3-1.39.68-1.39S122.2,250.38,122.2,251.15Z"/><path class="cls-15" d="M98.41,251c0,.77-.31,1.4-.69,1.4S97,251.75,97,251s.31-1.39.68-1.39S98.41,250.21,98.41,251Z"/><path class="cls-15" d="M136.11,210.79c2-.15,5.73,2.68,7,5.15s2.1,8,1.74,11-1.07,5.74-1.23,7.9a49.66,49.66,0,0,0,.25,7.78"/><path class="cls-15" d="M136.11,210.79c.32-1.74-.73-4.84-5.08-7.34s-16.16-7.89-26.35-7S85.58,206.33,83.89,212c0,0,2.12-.76,3-.27s-2.64,4.17-3.19,6,3.08-2.07,3.51-1.41-2.06,4.55-2.1,10.73A78.45,78.45,0,0,0,87,245.54"/><path class="cls-15" d="M136.11,210.79a55.14,55.14,0,0,0-7.55,11.89"/><path class="cls-15" d="M86.85,245c-.48-2.28-3.2-3.72-3.5,1.83a32.15,32.15,0,0,0,1.25,11.88c.67,1.76,2.48,2.37,2.6.2"/><path class="cls-15" d="M90.74,277.12a51.92,51.92,0,0,1,0,8.3"/><path class="cls-15" d="M133.09,281a54.33,54.33,0,0,0-.77,9.29"/><path class="cls-15" d="M110.72,296.69c1.46,1.42,4.87,3.92,10.38,6.75"/><path class="cls-15" d="M132.7,289.16c-1.3,4.82-6.74,10.48-11.6,14.28"/><path class="cls-15" d="M89.22,282c1.41,4.89,18.15,31.15,21.15,36.92s13.31,25.59,17.73,38.11c6.63,18.82,22.92,53.24,24,73.79"/><path class="cls-15" d="M121.1,303.44c-5.91,1.16-12.18,7.76-13.73,10.27"/><path class="cls-15" d="M121.1,303.44c5.11,1,10.8,5.46,12.65,9.9,0,0,2.95-9.1,1.81-16.65-1-6.87-1.88-7.92-3.08-10.79"/><path class="cls-15" d="M111.53,309a38.84,38.84,0,0,0,8.19,11.18"/><path class="cls-15" d="M128,306.59c.36,2.72-.51,8.92-1.38,11.75"/><path class="cls-15" d="M119.72,320.19c1.44-1.36,5.66-2.18,6.86-1.85"/><path class="cls-15" d="M126,318.27c5.58,8,16.19,31.88,29.57,112.68"/><path class="cls-15" d="M120.08,319.9a83,83,0,0,0,.78,20.08"/><path class="cls-15" d="M90.89,279.94c-2.34-.07-3.41,1.7-5,4.58s-6.58,8.81-8,10.44l-1.64,11,7.29,3.31-4.62,4S133.43,374.64,149,414"/><path class="cls-15" d="M135.81,301.27c3.49,9.69,12.9,34.39,18.28,50.24,5.88,17.34,18.46,53.22,20.8,72.2"/><path class="cls-15" d="M134.45,291c2.17,3.79,14.94,14.69,21.16,21.22L149,313.34l9.29,3.59s15.79,79.71,15.93,102.63"/><path class="cls-15" d="M138.79,296c2.68,1.78,12,5.26,18.83,6s10.77.53,14,4.56,10.66,18.82,13.81,24.47,15.24,24.13,25.72,32.41c10,7.94,31.88,19.33,38.28,22.4a272.15,272.15,0,0,0,48.61,18.82"/><path class="cls-15" d="M187.47,390.09c8.16,5.44,53.84,28.68,102.56,41.84"/><path class="cls-15" d="M298.07,404.69a88.6,88.6,0,0,0-8,21.53c-1.25,6.58-.41,9.16,5.08-1.33"/><path class="cls-15" d="M183,346.07c1.52,12.18,6.09,60,6.85,73.83"/><path class="cls-15" d="M77.77,295.51c-2.14,1.9-20.41,13.15-25.42,16.3s-8.86,5.44-12.56,11.75-1.74,22.95-1.68,27,3.53,43.5,7,58,6.85,31.32,9,35.78,5.11,4.89,11.74,7a276.35,276.35,0,0,0,38.39,9c17.62,2.77,47,4.13,56.55,4.13"/><path class="cls-15" d="M160.83,464.39c2.12-5.71,5.44-25.67,4.46-33.39"/><path class="cls-15" d="M165.29,431c-9.95.22-33.5-.7-46.76-3S88.08,416.54,87.1,415.07s-3.3-24-4.64-33.62c-1.49-10.7-4.28-27.88-8.19-36.14"/><path class="cls-15" d="M87.78,415.67c-3.84-1.8-15.25,3.64-18.68,5.82s-2.55-5.49,10.66-7.83"/><path class="cls-15" d="M86.69,413.66A21.56,21.56,0,0,0,64.15,415"/><path class="cls-15" d="M47.69,314.87c6.13,0,18,10.18,21.43,19.6"/><path class="cls-15" d="M165.41,432.38a9.57,9.57,0,0,0,4.34-3.12c1.27-1.59,2.34-4.62,6.7-6.27s9.05-1.93,12.47-2.9c2.33-.66,5.73.23,7.87.4,1.45.12,3.07-.06,3.65.37s.12,3.29-1.76,4.2-4.49.94-7.83,1c-1.93,0-6.28,2.06-6.71,2.9s9.35,3,13.45,3.69,9.34,1.87,13.75,2a15.57,15.57,0,0,1,6.12,1.11,4,4,0,0,1,2.24,2.49c.72,2.14-3.44,1.67-6.24,2s-14.42.11-18.05,1.16"/><path class="cls-15" d="M217.84,439.94c-2,1.43-9.67,4.08-12.86,5.16s-6.27,1.45-9.49,3.59"/><path class="cls-15" d="M206.68,444.52c-1.92,1.71-13.15,8.2-15.47,10s-4.93,2-11.42,2.76a25,25,0,0,1-9.28-.47c-3.48-.77-5-1.68-7.43-1.51"/><path class="cls-15" d="M174.19,457.38a106.59,106.59,0,0,1-1,11.63"/><path class="cls-15" d="M154,464.26c-.76,15.57-2.94,40.26-8,56.35s-14.24,24.14-30.77,26.32c-15.11,2-39.4-3-51.19-7a3.81,3.81,0,0,1-2.53-4.14c1-6.79,3.41-23.57,5.11-35.37,2.17-15.11,6.33-38,6.53-47"/><path class="cls-15" d="M74.67,542.92c.36,8,2.21,49.24,2.86,59.14"/><path class="cls-15" d="M158.6,479.66c2,.21,9.79.38,9.79.38l.49-11s-7.78-.16-9.79-.38Z"/><path class="cls-15" d="M168.84,469.79s4.57,0,5.58,0l-.22,9.46s-4.48.18-5.78.08"/><path class="cls-15" d="M159.06,469.32c-1.27-.11-4.55-.18-5.34-.31"/><path class="cls-15" d="M158.64,478.67c-1.14,0-4.44-.08-5.61-.26"/><path class="cls-15" d="M172.8,479.3c-.08,5.24,1.13,28.44,1.4,36.49s.23,30.91-.75,48.21c-1.1,19.22-2.83,33.71-3.27,37.41"/><path class="cls-15" d="M161.32,482.88c.05,3.53-.38,34-.92,37.83"/><path class="cls-15" d="M166.16,482.88c0,1.77.07,10,.13,17a37.78,37.78,0,0,1-4.84,18.82,20.38,20.38,0,0,0-1,2c-6.42,18.93-22.52,35-27.41,82.44"/><ellipse class="cls-15" cx="145.77" cy="424.42" rx="2.71" ry="3.27"/><path class="cls-15" d="M183.69,456.77c2.91,7.84,14.55,33.92,14.55,67.82,0,3-1.47,3.32-3.7-1.86-1.92-4.46-7.61-16.2-20.76-17.07"/><path class="cls-15" d="M197.89,514.42c-.74-16.43-3.64-46.57-5-61.06"/><line class="cls-15" x1="190.3" y1="426.09" x2="190.64" y2="431.19"/><path class="cls-15" d="M297.46,405.79c2,.84,5.42.94,8.32.73s14.73-1.93,18.48-1.83,9.46,2.34,11.77,3.2c4.22,1.59,7.75,3,14.53,9.88,1.8,1.83.39,4.32-1.89,3.37"/><path class="cls-15" d="M327.65,406.21l27.77,20,5.51,5.51L353.17,429l-14.08-10.37"/><line class="cls-15" x1="326.93" y1="409.65" x2="325.36" y2="408.49"/><path class="cls-15" d="M324.24,408.71c2,.8,5.55,1.74,7.43,2.65s6.86,3.33,8.2,4,1,3.84-3.3,3.61-6.49-2.67-8.16-3.39a21.7,21.7,0,0,1-8.3-.76"/><path class="cls-15" d="M325.36,408.49c-.29-.9,1.33-2.64,2.29-2.28"/><path class="cls-15" d="M323.68,415.58c-3.91,3.95-14,5-19,5.09"/><path class="cls-15" d="M290.75,423.31c2.75.62,11.51,2.8,11.51,2.8a34.85,34.85,0,0,0,20.88,5.38s8.81,6.26,11,8.1,4.51-.59,3-2.44-9.41-8.1-9.95-8.87,0-2,2.12-.65a91.38,91.38,0,0,1,12.05,9.14c2,1.93,4.67.08,2.34-3S334,424.31,331.48,423a34.31,34.31,0,0,1,9.08,3.28c2.64,1.61,4.64,2.74,6.56,3.87,3.13,1.86,5.42-1.26,2.75-3.56"/><line class="cls-15" x1="395.36" y1="278.8" x2="393.04" y2="534.13"/><line class="cls-15" x1="208.55" y1="443.86" x2="207.73" y2="534.13"/><line class="cls-15" x1="208.94" y1="401.41" x2="208.64" y2="434.45"/><line class="cls-15" x1="210.05" y1="278.8" x2="209.3" y2="361.89"/><line class="cls-15" x1="207.3" y1="262.84" x2="207.3" y2="278.8"/><line class="cls-15" x1="397.97" y1="262.84" x2="397.97" y2="278.8"/><line class="cls-15" x1="207.3" y1="278.8" x2="397.97" y2="278.8"/><line class="cls-15" x1="207.73" y1="534.13" x2="393.04" y2="534.13"/><line class="cls-15" x1="207.3" y1="262.84" x2="397.97" y2="262.84"/><line class="cls-15" x1="385.87" y1="534.13" x2="389.35" y2="594.66"/><line class="cls-15" x1="378.97" y1="534.13" x2="382.45" y2="594.66"/><line class="cls-15" x1="214.91" y1="534.13" x2="211.43" y2="594.66"/><line class="cls-15" x1="221.81" y1="534.13" x2="218.33" y2="594.66"/><line class="cls-15" x1="296.93" y1="534.13" x2="296.95" y2="594.66"/><line class="cls-15" x1="303.82" y1="534.13" x2="303.85" y2="594.66"/><polygon class="cls-15" points="271.68 298.37 271.54 319.68 324.42 319.68 324.42 298.37 271.68 298.37"/><path class="cls-15" d="M297.69,324.86s43.54,29.59,50.94,36.23"/><path class="cls-15" d="M297.69,324.86c.38,9.57,1.54,32.63,1.4,35.67"/><path class="cls-15" d="M297.69,324.86c-8.41,7.54-31.12,30.26-35,35.19"/><path class="cls-15" d="M263.49,352.64a55.67,55.67,0,0,0-1,6.8c-.17,2.44,6-1.63,7.55-2.61"/><path class="cls-15" d="M295.46,355.09a21.38,21.38,0,0,0,3.1,5.55c1.12,1.35,2.39-.44,3.53-5.55"/><path class="cls-15" d="M345.58,354.45a69.8,69.8,0,0,1,3.05,6.64c.49,1.52-3.26-.06-6.53-1.42"/><polyline class="cls-15" points="237.72 365.54 273.82 365.54 273.82 379.35 244.78 379.35"/><line class="cls-15" x1="237.72" y1="365.54" x2="237.72" y2="376.41"/><line class="cls-15" x1="255.88" y1="379.35" x2="255.88" y2="385.65"/><polyline class="cls-15" points="286.54 379.35 320.11 379.35 320.11 366.37 286.54 366.37 286.54 379.35"/><polygon class="cls-15" points="340.7 366.95 379.05 366.95 379.05 379.78 340.56 379.78 340.7 366.95"/><line class="cls-15" x1="301.5" y1="382.28" x2="301.5" y2="394.19"/><path class="cls-15" d="M297.46,389.3c1.21,1.63,2.45,4,3.22,4.89,1.25,1.42,2.18-.22,4.79-5.27"/><path class="cls-15" d="M359,384.17c-.05,1.74.07,8.32,0,10.44"/><path class="cls-15" d="M354.86,390.59a32.29,32.29,0,0,0,3.53,4.56c1.14,1.25,3.54-2.44,4.84-4.29"/><polyline class="cls-15" points="286.54 398.42 320.11 398.42 320.11 402.47"/><polyline class="cls-15" points="350.16 413.44 379.05 413.44 379.05 398.98 341.24 398.98 341.24 406.75"/><polygon class="cls-15" points="372.16 494.98 232.1 494.98 232.97 466.85 373.03 466.85 372.16 494.98"/><ellipse class="cls-15" cx="250.42" cy="480.25" rx="5.53" ry="5.99"/><ellipse class="cls-15" cx="276.47" cy="480.25" rx="5.53" ry="5.99"/><ellipse class="cls-15" cx="302.52" cy="480.25" rx="5.53" ry="5.99"/><ellipse class="cls-15" cx="328.57" cy="480.25" rx="5.53" ry="5.99"/><ellipse class="cls-15" cx="354.62" cy="480.25" rx="5.53" ry="5.99"/><line class="cls-15" x1="257.18" y1="433.72" x2="257.51" y2="459.46"/><path class="cls-15" d="M253.27,455s2.68,4.35,3.91,6,2.61-2.54,3.92-6"/><line class="cls-15" x1="304.65" y1="436.4" x2="304.65" y2="461.26"/><path class="cls-15" d="M300,454.61s2.35,4.49,3.77,6.52c2.1,3,3.4-2.22,5.58-6.09"/><line class="cls-15" x1="358.17" y1="438.8" x2="358.17" y2="461.71"/><path class="cls-15" d="M354.22,456.34c1.77,3.09,2.43,4.82,3.44,5.84s3.34-3.2,4.43-5.73"/></g></svg>