<svg id="Capa_1" data-name="Capa 1" xmlns="http://www.w3.org/2000/svg" viewBox="0 0 240 240"><defs><style>.cls-1{fill:none;}.cls-2{fill:#fff;}</style></defs><title>isotipo_ocensa_gobierno_corporativo</title><rect class="cls-1" width="240" height="240"/><path class="cls-2" d="M237,121a5.83,5.83,0,0,1-.4-1.84c0-1.31,0-2.63,0-3.94,0-.29.13-.61-.16-.86a.25.25,0,0,1,0-.24c.32-.49.11-1,.16-1.53a5.32,5.32,0,0,1,.16-1.86.56.56,0,0,0,0-.49c-.24-.3-.13-.63-.15-.94a1.53,1.53,0,0,0,0-.32,6,6,0,0,1-.28-1.56,4.34,4.34,0,0,0-.51-2,1.36,1.36,0,0,1-.16-.68,15.44,15.44,0,0,0-.35-3,2.4,2.4,0,0,1-.15-.6,5,5,0,0,0-.21-1.1c0-.12-.15-.24-.13-.36a3.26,3.26,0,0,0-.52-1.88,1.29,1.29,0,0,1-.08-1.16.67.67,0,0,0-.05-.75,1.45,1.45,0,0,1-.21-.92c0-.42,0-.84,0-1.25-.41-.42-.37-1-.6-1.52s-.69-1-.58-1.6a.9.9,0,0,0-.34-1,.54.54,0,0,1-.15-.35c-.07-.53-.42-.94-.54-1.46s-.12-1.09-.64-1.41c0,0,0-.12,0-.16-.18-.44-.23-.92-.41-1.34a14.34,14.34,0,0,1-.77-2.2c-.06-.27-.3-.52-.3-.79a1.74,1.74,0,0,0-.21-.84c-.25-.41,0-1-.47-1.32,0,0,0-.22,0-.32-.05-.43-.1-.85-.17-1.28a.3.3,0,0,0-.12-.19.72.72,0,0,1-.22-.5,4.45,4.45,0,0,0-.33-1c-.14-.34-.28-.67-.41-1a1.42,1.42,0,0,0-.39-.77c-.28-.23-.18-.68-.34-1a5.72,5.72,0,0,1-.39-1.19,3.31,3.31,0,0,0-.54-1.52,4.89,4.89,0,0,1-.61-1.09,1.65,1.65,0,0,0-.27-.47c-.18-.2-.37-.36-.07-.6a.24.24,0,0,0,0-.15c-.4,0-.22-.45-.41-.57-.35-.23-.42-.62-.57-.95a2.56,2.56,0,0,0-.48-.81.79.79,0,0,1-.2-.33,5.67,5.67,0,0,0-.79-1.69,2.69,2.69,0,0,1-.42-.92c-.07-.25,0-.65-.32-.76s-.36-.36-.48-.56a7.67,7.67,0,0,1-.34-.78c-.12-.23-.18-.53-.37-.68s-.23-.55-.41-.75c-.33-.37-.4-.86-.7-1.23s-.2-.92-.54-1.29a.55.55,0,0,0-.42-.63c-.41-.12-.5-.46-.69-.73-.06-.09-.07-.27-.13-.28-.53-.07-.49-.67-.86-.91a.68.68,0,0,1-.25-.63.75.75,0,0,0-.5-.84.92.92,0,0,1-.31-.24c-.37-.46-1-.7-1.08-1.4-.65-.58-.87-1.44-1.43-2.08a.6.6,0,0,1-.2-.51c.07-.32-.11-.51-.32-.71s-.22-.31-.36-.43c-.42-.36-.51-.92-.87-1.33s-.54-.55-.82-.82a16.48,16.48,0,0,1-1.1-1.37.64.64,0,0,1-.1-.87c.12-.2,0-.31-.19-.29s-.51,0-.57-.24-.17-.29-.39-.27-.2,0-.24,0a3.23,3.23,0,0,1-.72-1,1,1,0,0,0-.63-.74.76.76,0,0,1-.36-.35,17,17,0,0,1-1.22-2c-.15-.32-.27-.34-.66-.22-.1,0-.25.09-.28.06a6.3,6.3,0,0,0-1.28-1,6,6,0,0,1-1-.93,6.12,6.12,0,0,1-.91-.86c-.18-.28-.29-.65-.72-.81s-.25-.74-.66-1c-.12-.06-.14-.35-.25-.37-.5-.13-.57-.6-.81-.93s-.35-.54-.75-.51a.53.53,0,0,1-.29-.1A5.93,5.93,0,0,1,196,30.58a4.37,4.37,0,0,0-.94-1.11c-.63-.52-1.29-1-1.88-1.55a1,1,0,0,0-.8-.29,6.26,6.26,0,0,1-.75,0,.58.58,0,0,1-.3-.08c-.46-.38-.91-.78-1.36-1.18,0,0,0-.11,0-.16a.55.55,0,0,1,.18,0l.34.17a.17.17,0,0,0,.12,0s0-.12,0-.15a2.52,2.52,0,0,0-.21-.25,7.49,7.49,0,0,0-1.77-1.4,5.82,5.82,0,0,0-2-1.33c-.34-.41-.92-.44-1.26-.79a9.79,9.79,0,0,0-1.48-1.1,4,4,0,0,1-.52-.36c-.27-.25-.52-.51-.78-.77-.48.15-.57-.47-1-.5-.39-.45-1-.56-1.47-.91a18.32,18.32,0,0,0-2.2-1.36,12.71,12.71,0,0,1-1.27-.78,4.78,4.78,0,0,1-.85-.55c-.26-.32-.77-.17-.94-.58a2,2,0,0,1-1.25-.62c-.61-.47-1.32-.81-1.89-1.33a.34.34,0,0,0-.22-.07,2.24,2.24,0,0,1-1.51-.48,5.67,5.67,0,0,0-1.77-1,6.66,6.66,0,0,1-2.12-.94c-.37-.23-.76-.36-1.12-.57s-.51.1-.68-.18c-.75-.05-1.26-.77-2.05-.71-.19-.29-.48-.29-.79-.34S161,9,160.69,9s-.41-.29-.62-.31A7.72,7.72,0,0,1,157.66,8s-.11,0-.16,0a1,1,0,0,0,0,.17c.07.27.39.47.19.8l-.77-.3a.58.58,0,0,1-.14,0,2.4,2.4,0,0,0-1-.31A3.41,3.41,0,0,1,154,7.76a1.08,1.08,0,0,0-.73-.23,3.74,3.74,0,0,1-2-.54A2.56,2.56,0,0,0,150,6.68a.83.83,0,0,1-.68-.22A2.21,2.21,0,0,0,148,5.88a7.94,7.94,0,0,1-1.7-.39c-.22,0-.4-.24-.62-.31s-.58-.1-.85-.19a5,5,0,0,1-.71-.32c-.24.3-.56.13-.85.16a.68.68,0,0,1-.28-.12,12.62,12.62,0,0,0-2.41-.88,2.41,2.41,0,0,0-.6-.16,2.57,2.57,0,0,1-.66-.23c-.32-.1-.67-.55-1.08-.12a.25.25,0,0,1-.24,0c-.48-.31-1.07-.25-1.57-.46a2.69,2.69,0,0,0-1.67-.17c-.33.07-.59.24-.88,0a1.71,1.71,0,0,1-1,.16.41.41,0,0,1-.22-.07.92.92,0,0,0-.79-.06,3.91,3.91,0,0,1-2,0,1.5,1.5,0,0,0-1.12.07c-.15.1-.22,0-.35,0-.29-.1-.67-.29-.9-.19-.56.25-1.2.16-1.74.45a.35.35,0,0,1-.31,0,1.55,1.55,0,0,0-1.25,0,.34.34,0,0,1-.28,0,.68.68,0,0,0-.69,0,1,1,0,0,1-.37.1,19.09,19.09,0,0,1-2.27,0c-.74-.08-1.47.38-2.21,0-.09,0-.21,0-.32,0a2.46,2.46,0,0,1-.45.11c-1,0-2,.06-3,0s-2,.22-3,.19a3.78,3.78,0,0,0-.93.16s-.07.08-.1.13c.25.16.34.53.7.53h2.35c.13-.42.48.13.64-.13h2.41c.11.24.27-.06.35,0s.31,0,.48,0,.4-.08.48,0c.25.23.53.1.79.15s.51.12.77.15a.87.87,0,0,0,.38-.08c.07,0,.19-.09.21-.07.27.28.53.17.79,0a.89.89,0,0,0,.85.15c.21,0,.36.31.55.05a10.21,10.21,0,0,1,2.07,0,4.71,4.71,0,0,0,1.29.07,1.25,1.25,0,0,1,.55,0c.36.12.79,0,1.12.33,0,0,.11-.08.18-.09a.79.79,0,0,1,.4,0,4.44,4.44,0,0,0,1.7.16c.18,0,.36.08.54.09.63,0,1.2.53,1.87.24a.34.34,0,0,1,.24,0,4,4,0,0,0,1.88.31c.2,0,.45-.08.57,0a1.06,1.06,0,0,0,.87.14c.35-.06.61.2.94.18a14,14,0,0,1,2.11.39,10.55,10.55,0,0,1,1.13.3,5.39,5.39,0,0,0,1.19.15.46.46,0,0,1,.23.06,3.74,3.74,0,0,0,2,.44c.11,0,.25,0,.32,0a1.66,1.66,0,0,0,1.21.37,5.23,5.23,0,0,0,1.31.1.91.91,0,0,1,.49,0,7.59,7.59,0,0,0,2.83.48.72.72,0,0,1,.58.21,3.39,3.39,0,0,0,1.11.76,11.25,11.25,0,0,0,2.3.51,4.46,4.46,0,0,1,1.49.46,1.8,1.8,0,0,0,.91.25,5.42,5.42,0,0,1,1.63.32c.4.1.72.5,1.2.34a.34.34,0,0,1,.1.19c0,.16-.05.32-.07.47a1.76,1.76,0,0,0-.35-.15c-.11,0-.23,0-.33,0-.37-.08-.23.3-.39.43s.09.36.2.37c.64.05,1.1.68,1.79.55.11,0,.24.1.35.16a5.44,5.44,0,0,0,1.74.68c.12,0,.22.26.41.09l-.36-.27c-.24-.17-.47-.46-.72-.47-.43,0-.63-.37-1-.51a10.16,10.16,0,0,1-1-.53.26.26,0,0,1-.08-.21c0-.05.11-.11.18-.12a4.22,4.22,0,0,1,1.91.65,1.86,1.86,0,0,0,.69.34,2.91,2.91,0,0,1,1.15.48,1.23,1.23,0,0,0,1.1.37c.18-.05.3.07.44.16a1.52,1.52,0,0,0,.52.17,2.34,2.34,0,0,1,1.31.68.38.38,0,0,1,.07.22.28.28,0,0,1-.18.11,3.43,3.43,0,0,1-1.65-.27c-.21-.08-.32,0-.41.09s-.35.59-.54.87-.33.3-.64.15a6.75,6.75,0,0,0-2.84-.85,1.08,1.08,0,0,1-.43-.16c-.42-.21-.89-.3-1.29-.51a7.32,7.32,0,0,0-1.4-.5,9.22,9.22,0,0,1-1.67-.61,9.28,9.28,0,0,0-1.62-.53,5,5,0,0,0-.77-.17.94.94,0,0,1-.71-.33s-.1,0-.16,0a2.08,2.08,0,0,1-1-.29c-.09-.06-.22-.22-.25-.2-.34.21-.5,0-.7-.23a.43.43,0,0,0-.28-.11,7.43,7.43,0,0,1-1.8-.34,5.12,5.12,0,0,0-1.1-.16,2.17,2.17,0,0,1-.77-.18,5,5,0,0,0-2-.5,1.38,1.38,0,0,1-.5,0,4,4,0,0,0-1.21-.31,4,4,0,0,1-1.36-.18c-.09,0-.27,0-.32,0-.26.27-.58.11-.87.16a10.54,10.54,0,0,1-2-.18,4.06,4.06,0,0,1-1.62-.14c-.3-.12-.7,0-1-.19-.26.24-.51.06-.79,0s-.72-.2-1.1-.21c-.68,0-1.35-.1-2-.17a1.12,1.12,0,0,1-.43-.16,2.54,2.54,0,0,0-1.64-.51c-.06,0-.14-.08-.21-.1a5,5,0,0,0-.91-.22c-.59,0-1.18,0-1.76,0s-1.11-.25-1.7-.19-1.23,0-2,0a17.63,17.63,0,0,0-2.92.13c-.37.1-.38.05-.38.33s.27.19.42.21.44-.31.67-.14.42.22.65,0a.31.31,0,0,1,.31,0c.26.24.58.15.86.15a1.14,1.14,0,0,0,.71-.13c.15-.1.49.12.75.13.61,0,1.23,0,1.85,0a2.87,2.87,0,0,1,1.19.15,3.86,3.86,0,0,0,1.69.18h.58a2,2,0,0,1,1.38.33c.12.09.35.21.42.16.31-.24.45.06.65.15s.08.08.11.12-.08.07-.13.08a5,5,0,0,1-1.11.18c-.72,0-1.45,0-2.18,0s-1.41-.1-2.11-.17a2.26,2.26,0,0,1-.37-.11c-.16,0-.4-.11-.47,0-.32.32-.63,0-.87,0a1.58,1.58,0,0,0-.7-.13,3.38,3.38,0,0,1-1.76-.4c-.06,0-.16-.06-.18,0-.45.51-1.05.15-1.57.26-.49-.42-1-.08-1.43.07a.93.93,0,0,1-.62.07,2,2,0,0,0-1.38,0c-.49.1-1,.47-1.54,0a.25.25,0,0,0-.24,0c-.28.28-.63.15-1,.15-.86,0-1.73,0-2.6,0-.13,0-.34,0-.38.06-.24.43-.58.22-.83.09s-.63,0-1,0a8.91,8.91,0,0,1-1.86.21c-.16,0-.43.19-.5.13-.5-.48-1.22.35-1.67-.3l-.06,0c-.41.38-.91.26-1.39.29a.71.71,0,0,0-.42.19c-.07.08-.06.25-.07.38,0,.3-.07.31-.34.17s-.3-.09-.34-.18c-.18-.37-.41-.07-.59,0s-.31.27-.47.27-.28-.22-.44-.27-.38,0-.35.27a.34.34,0,0,1-.34.38c-.23,0-.13-.19-.16-.31s-.07-.18-.11-.18c-.29,0-.6-.1-.85.19a2.24,2.24,0,0,1-.58.41c-.07,0-.25,0-.27,0-.21-.39-.5-.06-.75-.09s-.24,0-.29.35c0,0-.15.14-.15.13-.27-.26-.53,0-.79,0a2.54,2.54,0,0,0-1.61.78.57.57,0,0,1-.41.21c-.72-.07-1.31.51-2,.39-.34.25-.79.06-1.15.28-.1.07-.26,0-.25.23a.91.91,0,0,1,0,.33.42.42,0,0,1-.66.21c-.13-.1-.23-.24-.36-.34s-.2-.09-.21-.07c-.19.3-.55,0-.75.22a2.32,2.32,0,0,0-.52.62c-.09.2-.2.14-.32.15s-.2-.12-.2-.27-.09-.28-.3-.18-.34.11-.51.19-.12.11-.18.17l.18.1c.22.08.44.16.65.26s.27.22.4.22.28-.13.41-.21.35-.28.38-.26c.29.27.46.08.68-.1a.48.48,0,0,1,.44,0c.09,0,.22.25.19.31a.86.86,0,0,1-.36.28c-.23.13-.47.22-.7.33,0,0-.06.08-.08.12s.09.06.14.06a3.5,3.5,0,0,0,1.39-.29c.27-.08.55-.15.83-.21a5.73,5.73,0,0,0,1-.18,4.2,4.2,0,0,1,1.71-.33c.22,0,.53.1.66,0,.28-.24.58-.1.87-.15a4.24,4.24,0,0,1,.85-.16,2.34,2.34,0,0,0,1-.18,8.32,8.32,0,0,1,1.71-.32,2.1,2.1,0,0,0,1.06-.28,1.56,1.56,0,0,1,.91-.25c.79,0,1.58-.1,2.37-.15h.08c.27-.37.71-.06,1.06-.3s.85,0,1.14-.24.39.14.62,0a2.28,2.28,0,0,1,1.39-.29c.53,0,1.06,0,1.6,0a1.91,1.91,0,0,0,.48,0,3.13,3.13,0,0,1,1.77,0c.07,0,.19.05.22,0,.26-.27.58-.09.87-.13s.43.06.58,0c.53-.31,1.08-.08,1.62-.15.26.26.64.14,1,.3s.71,0,1.07,0c0,0,.09,0,.14.06s-.08.15-.14.17a1,1,0,0,1-.37.1c-.26,0-.51,0-.76,0a7,7,0,0,0-.77.16,2.67,2.67,0,0,1-.6.16c-.7,0-1.4,0-2.1,0s-1.35.14-2,.15a9.73,9.73,0,0,1-1.94.18h-.08c-.27.31-.63.1-.94.16s-.63.14-.94.17c-.87.07-1.74.11-2.62.17,0,0-.12,0-.16,0-.77.47-1.67.25-2.48.49s-1.38.17-2,.37a3.16,3.16,0,0,1-.86.14,3.41,3.41,0,0,0-.53.13A8.39,8.39,0,0,1,95,15.4a.61.61,0,0,0-.33,0,9.65,9.65,0,0,1-3,.65c-.1,0-.19.09-.29.11a12.24,12.24,0,0,1-2,.56c-.35.29-.82.18-1.22.3a4.49,4.49,0,0,1-.94.35,2.65,2.65,0,0,0-1.06.31,5.7,5.7,0,0,1-1.62.53,4,4,0,0,0-1.32.45c-.44.24-1,.09-1.39.52,0,.05-.15.05-.22.05a1.36,1.36,0,0,0-1,.3.82.82,0,0,1-.5.19,3.53,3.53,0,0,0-1.43.41,1.83,1.83,0,0,1-.89.24,3.6,3.6,0,0,0-1,0,1.63,1.63,0,0,0-1.15.28.55.55,0,0,1-.47.05,3,3,0,0,0-2.12,0c-.08,0-.1.09-.24.06-.62-.16-1.24-.26-1.72.36-.11.14-.37.16-.57.21s-.29,0-.31,0c-.18.39-.63.28-.9.51s-.68.27-1,.48a1.84,1.84,0,0,1-1.56.49s-.09,0-.14.06a24.71,24.71,0,0,0-2.38,1.13,3,3,0,0,1-1.23.45,4.37,4.37,0,0,0-.93.22,5.25,5.25,0,0,0-2.19,1,1.73,1.73,0,0,0-.17.21c-.23.24-.43.63-.7.69-.61.15-1,.63-1.44.94a4.91,4.91,0,0,0-.51.39.24.24,0,0,0,0,.22.25.25,0,0,0,.22.05,1.66,1.66,0,0,0,.41-.23c.12-.1.26-.16.33,0a.49.49,0,0,1,0,.39c-.21.36-.66.11-1,.35s-.12-.19-.2-.26a.39.39,0,0,0-.28,0,9.79,9.79,0,0,1-1.43.59,2.28,2.28,0,0,0-1,.72A.45.45,0,0,0,54,30h.15c.16,0,.4,0,.47-.06.31-.38.83-.31,1.19-.6.12-.11.41-.19.48-.13s-.21.34-.13.56c-.07,0-.2.08-.22.05-.14-.2-.24-.11-.37,0s-.3.31-.45.31c-.65,0-.78.47-.95.92a2.65,2.65,0,0,1-1.46,1.26.69.69,0,0,0-.56.27.93.93,0,0,1-.92.42.72.72,0,0,0-.58.49c0,.29.27.1.37.18a5.27,5.27,0,0,1,.55.51.21.21,0,0,1,0,.17.66.66,0,0,1-.73.18c-.27-.1-.58-.14-.76-.38s-.26-.06-.37,0-.34.14-.39.26c-.18.43-.62.57-.89.88a.5.5,0,0,1-.5.2.7.7,0,0,0-.71.33c-.18.23-.3.55-.54.69a3.21,3.21,0,0,0-1.1,1.13.37.37,0,0,0-.05.18c.07,0,.16,0,.22,0s.4-.26.59-.41a14.28,14.28,0,0,1,1.12-.94,2.56,2.56,0,0,1,1-.4c.65-.09.71,0,.85-.46.09-.26.2-.27.4-.26s.26,0,.34-.23.71-.38.93-.24,0,.4-.26.69c0,0-.09.08-.11.12a.28.28,0,0,0,0,.12c.07,0,.18.05.22,0a4.36,4.36,0,0,1,.95-.74,6.53,6.53,0,0,0,1.52-1,7,7,0,0,1,1.27-.75,15,15,0,0,0,3.24-1.92,2.61,2.61,0,0,1,.87-.53,2.77,2.77,0,0,0,1.1-.78,2.41,2.41,0,0,1,.76-.58,20,20,0,0,0,2-1,8.2,8.2,0,0,0,1.69-1.19c.29-.21.7-.19.91-.42a7,7,0,0,1,1.19-.79,2.33,2.33,0,0,1,1.07-.43,2,2,0,0,0,1-.47,1.9,1.9,0,0,1,1.36-.56.75.75,0,0,0,.59-.21,7.33,7.33,0,0,1,1-.49,4.81,4.81,0,0,1,1-.54,3.72,3.72,0,0,1,1.23-.27.71.71,0,0,0,.31-.08c.6-.24,1.3-.29,1.73-.88a.08.08,0,0,1,.06,0l.39.08c0,.1-.07.19-.11.28-.14.34-.52.25-.75.42s-.47.36-.7.53a.22.22,0,0,1-.16,0c-.47-.08-.7.34-1,.51a.24.24,0,0,0-.08.21c0,.05.12.11.18.11a1.77,1.77,0,0,0,.54-.1,6.43,6.43,0,0,1,1.59-.63,1.1,1.1,0,0,0,.57-.23c.51-.4,1.18,0,1.7-.37.42.39.77,0,1.15-.12a6.41,6.41,0,0,1,.75-.21A2,2,0,0,0,81,21.94a4,4,0,0,1,2.61-1.18,4,4,0,0,0,.48-.07,4.64,4.64,0,0,1,1.83-.44c.08,0,.18-.13.27-.15A18.72,18.72,0,0,0,88,19.37a1.87,1.87,0,0,0,.59-.4c.15-.11.28-.24.43-.35a2.11,2.11,0,0,0-.66,0,3.47,3.47,0,0,0-1.09.39,1.69,1.69,0,0,1-1.06.27c-.66-.06-1.23.32-1.88.36-.17,0-.32.27-.49.41s-.16,0-.22.07c-.59.33-1.26.12-1.89.29a8.59,8.59,0,0,0-1.57.47c-.08,0-.24.06-.28,0-.2-.23-.33-.07-.48.05s-.18,0-.21-.07a.25.25,0,0,1,0-.22,1.16,1.16,0,0,1,.93-.38c.12,0,.33,0,.35-.1a.79.79,0,0,1,1-.57.29.29,0,0,0,.22-.07c.69-.49,1.6-.31,2.29-.76a.15.15,0,0,1,.16,0c.28.25.48.3.66-.12,0-.11.43,0,.6-.14A3.73,3.73,0,0,1,86.79,18a6,6,0,0,1,1.58-.24,4.51,4.51,0,0,0,1.25-.08,2.8,2.8,0,0,0,1-.52,1.46,1.46,0,0,1,1.7-.26c.09.06.26,0,.39,0s.3-.12.45-.11a1.29,1.29,0,0,0,1-.35c.08-.07.19-.16.27-.15a2.32,2.32,0,0,0,1-.28.45.45,0,0,1,.58.1c.28.25.6.46.87.72s.22,0,.3,0c.41,0,.77-.29,1.19-.19a.47.47,0,0,0,.33,0,7.27,7.27,0,0,1,1.38-.32,4.13,4.13,0,0,1,1.44-.17c.25-.26.57-.12.85-.17s.63-.13.94-.16c.82-.07,1.63,0,2.46-.13s1.75-.25,2.63-.33,1.62-.19,2.44-.21a1,1,0,0,1,.62.13c.13.09.44-.09.67-.13a.29.29,0,0,1,.22.07.29.29,0,0,0,.35,0,2.63,2.63,0,0,1,1.73-.25,3.38,3.38,0,0,0,.94.13c.21,0,.46.09.61-.15.15.22.38.16.6.16h3.18c.19,0,.38.06.55-.12a.3.3,0,0,1,.3,0c.41.28.86.11,1.28.16a8,8,0,0,0,1.27.15c1.14,0,2.24.31,3.38.19.09,0,.19.08.29.1a4.37,4.37,0,0,0,1.24.22,1.42,1.42,0,0,1,1,.16.7.7,0,0,0,.84.16c.54-.27,1.09-.07,1.62-.14.11,0,.27.13.31.09s.31-.11.42,0a.78.78,0,0,0,.93.35c.4-.14.75.36,1.12,0,.57.32,1.25.17,1.83.46.11.06.3,0,.44-.07s.51-.17.68.05a1.12,1.12,0,0,0,1,.4,4.15,4.15,0,0,1,.81.24c.13,0,.32.12.38.07.44-.34.3.1.28.22a1.74,1.74,0,0,1-.26.48c-.08.13-.17,0-.3,0a4.53,4.53,0,0,0-1.42-.22.59.59,0,0,1-.32,0,4.19,4.19,0,0,0-1.64-.3,1.72,1.72,0,0,1-.8-.09,3.21,3.21,0,0,0-1.41-.2,5.23,5.23,0,0,1-.79,0c-.49-.07-1,0-1.51,0s-1-.11-1.44-.16a5.8,5.8,0,0,1-2-.16.25.25,0,0,0-.24,0c-.22.27-.52.15-.78.15-.84,0-1.68,0-2.51,0s-1.69-.18-2.54-.18c-1.14,0-2.29.05-3.44,0s-2.29.22-3.45.18c-.59,0-1.18,0-1.76,0-.14,0-.33-.06-.41,0-.33.26-.69.11-1,.16s-.74.13-1.11.16a12.65,12.65,0,0,0-2.29.15c-.64.17-1.35.08-2,.21-.49.09-1,.07-1.44.18a8.55,8.55,0,0,1-.86.14,5.24,5.24,0,0,1-.85.15c-.61,0-1.17.31-1.78.18-.37.27-.83,0-1.18.19a3.32,3.32,0,0,1-1.2.14h-.17a.88.88,0,0,0-.81.94A1,1,0,0,1,98,20c-.08.53-.29.71-.85.73a.88.88,0,0,0-.62.15.93.93,0,0,1-.59.17,8.74,8.74,0,0,0-2.47.54c-.49.15-1.06.07-1.48.47,0,0-.16,0-.24,0-.24,0-.46.1-.69.17s-.24.17-.35.16c-.61-.07-1.08.51-1.7.35a1.16,1.16,0,0,1-1,.33c-.39,0-.65.29-1,.36s-1,.38-1.54.53a5.7,5.7,0,0,1-1.15.42,5.76,5.76,0,0,0-1.19.41c-.54.14-1.06.4-1.61.56a10.12,10.12,0,0,0-1.09.4,1.93,1.93,0,0,1-1.12.35c-.15,0-.32.16-.48.26a2.27,2.27,0,0,1-.32.22c-1,.41-2.07.82-3.07,1.31-.53.25-1.09.49-1.64.69a7.24,7.24,0,0,0-1,.5c-.34.19-.7.35-1,.54s-.93.59-1.43.81a7.84,7.84,0,0,0-1.48.67,5.93,5.93,0,0,1-.88.51,9.9,9.9,0,0,0-1.72.87c-.55.45-1.26.6-1.73,1.14,0,.05-.14.05-.21.09-.78.41-1.55.83-2.33,1.26a1.13,1.13,0,0,0-.26.16,1.85,1.85,0,0,1-.88.53,3.22,3.22,0,0,0-.87.54s-.09.11-.12.1c-.34-.08-.49.19-.69.37a3.47,3.47,0,0,1-.37.3,13.54,13.54,0,0,0-1.25.83,8.15,8.15,0,0,1-1.61,1,4.53,4.53,0,0,0-.84.59,6.65,6.65,0,0,1-1.13.93,11,11,0,0,0-2.33,1.85,7.79,7.79,0,0,1-.63.51c-.61.48-1.23,1-1.83,1.46a8.52,8.52,0,0,1-1.35,1.19c-.13.07-.2.25-.29.37a1.74,1.74,0,0,1-.37.43c-1,.59-1.57,1.68-2.59,2.26-.06.33-.43.35-.59.58a5.15,5.15,0,0,1-.53.7c-.86.93-1.74,1.85-2.6,2.78a6.06,6.06,0,0,0-1,1.26,5.5,5.5,0,0,1-.88,1.14,18.5,18.5,0,0,0-1.38,1.69c-.36.53-.82,1-1.17,1.53s-.77,1-1.1,1.48a10,10,0,0,0-.88,1.31,3.45,3.45,0,0,1-1,1.34c-.58,1.15-1.35,2.17-2,3.3-.09.16-.2.31-.3.46a2.37,2.37,0,0,0-.34.53,4.19,4.19,0,0,1-.88,1.58A10.86,10.86,0,0,0,28.82,70a6.91,6.91,0,0,1-1.13,2s0,.05,0,.07c-.08.73-.71,1.21-.85,1.92,0,.22-.27.35-.35.61a20.9,20.9,0,0,1-1,2.35,5,5,0,0,0-.42.83,7.92,7.92,0,0,1-.41,1,7.38,7.38,0,0,0-.47,1,7,7,0,0,1-.53,1.46,2,2,0,0,0-.17.52,4.87,4.87,0,0,1-.66,1.57,1,1,0,0,0-.18.26A12.23,12.23,0,0,1,22,85.34c-.07.17-.2.32-.15.52s-.11.4-.16.61,0,.44-.08.64a6.87,6.87,0,0,0-.45,1.07c-.07.37-.42.69-.46,1s-.44.67-.45,1.09c0,.11-.08.29-.18.33-.33.16-.32.45-.44.73a8.89,8.89,0,0,1-.45,1.41,7.18,7.18,0,0,0-.46,1.4,3.77,3.77,0,0,1-.18.68c-.26.51-.55,1-.82,1.5,0,.07-.08.21-.06.22.36.22,0,.42,0,.62a8.74,8.74,0,0,0-.2,1.36,1.56,1.56,0,0,1-.25.81c-.15.28-.45.14-.68.15s-.18.11-.23.25a2.85,2.85,0,0,0-.33,1.46c-.25.31-.08.69-.18,1a6.18,6.18,0,0,0-.32,1.95c0,.13-.1.25-.1.38,0,.39-.31.75-.09,1.19a.65.65,0,0,1-.1.69,1.26,1.26,0,0,0-.2.67,3.43,3.43,0,0,1-.16.94c-.12.3,0,.67-.16,1a4.46,4.46,0,0,0,0,1.16c0,.4-.12.8-.15,1.19-.07.82-.12,1.63-.18,2.45a1.11,1.11,0,0,1-.07.22c0,.09-.09.24,0,.27.24.21.09.48.12.71a15.52,15.52,0,0,1-.17,2.36c0,1.37,0,2.74,0,4.11a2.73,2.73,0,0,0,.16,1.44.43.43,0,0,1,0,.4c-.26.24-.15.52-.15.78a31,31,0,0,0,.14,3.2c.12,1.31,0,2.63,0,3.94a1.12,1.12,0,0,1,0,.49,1.49,1.49,0,0,0,0,1.39c.07.14.17.37.1.48a2,2,0,0,0-.08,1.05c0,.37-.15.77.15,1.11a.33.33,0,0,1,0,.32c-.24.2-.13.46-.14.7a6,6,0,0,0,.32,2.21,6.66,6.66,0,0,1,.18,1c0,.26-.12.56.16.78a.29.29,0,0,1-.06.21,1.45,1.45,0,0,1-.67.17c-.2,0-.27-.28-.28-.53a8.38,8.38,0,0,0-.44-2.16c0-.1-.09-.26-.05-.31.24-.28-.06-.52,0-.78s-.11-.24-.13-.36c-.06-.59-.11-1.18-.17-1.77,0-.1-.09-.19-.1-.3-.09-.52-.39-1-.22-1.57s-.16-1.09,0-1.63c-.46-.58-.2-1.34-.48-2-.1-.23,0-.55,0-.83a8.52,8.52,0,0,0-.17-.85,7,7,0,0,1-.16-.77,5.33,5.33,0,0,0-.17-1.86c-.1-.23.2-.41,0-.71s0-.6,0-.91.17-.72-.16-1a.18.18,0,0,1,0-.16c.31-.27.14-.63.14-.94a2.54,2.54,0,0,0-.08-1c-.11-.27.08-.65.09-1,0-.53,0-1.06,0-1.59a1.34,1.34,0,0,1,0-.49c.23-.56.21-1.18.44-1.74a.7.7,0,0,0-.21-.83,3.13,3.13,0,0,1-.44-1.48c0-.21.21-.36.18-.61s-.11-.43.1-.62-.25-.35-.11-.58c0-.06,0-.17.08-.21s0-.18-.06-.24-.17-.17,0-.37a2.32,2.32,0,0,0,.35-1.61c-.08-.65.18-1.32-.16-1.94a.24.24,0,0,1,.09-.21.78.78,0,0,0,.18-1,.5.5,0,0,1,0-.24,3.13,3.13,0,0,0-.05-1.69.51.51,0,0,1,.08-.52,2.08,2.08,0,0,0,.38-1.35c0-.09.08-.19.1-.29a2.81,2.81,0,0,0,.23-1.25,1.54,1.54,0,0,1,.18-1,1.82,1.82,0,0,0,.16-.94,4.18,4.18,0,0,1,.29-1.55,2.7,2.7,0,0,0,.39-1.61,1.68,1.68,0,0,1,.31-1.29,2.13,2.13,0,0,0,.18-.68,9.58,9.58,0,0,0,.41-1.68.5.5,0,0,1,.1-.21.9.9,0,0,0,.17-.6.87.87,0,0,1,.08-.38,7.14,7.14,0,0,0,.65-1.83c.07-.55.49-1,.44-1.58.33-.3.07-.76.32-1.12.42-.6.46-1.37.83-2a4,4,0,0,0,.23-.91,7.71,7.71,0,0,0,.32-1,3.85,3.85,0,0,1,.42-1.16c.21-.39.52-.73.72-1.13a1.93,1.93,0,0,0,.36-1.11,1.22,1.22,0,0,1,.23-.73A8.86,8.86,0,0,0,20.32,77c.13-.28.11-.61.41-.86a1.2,1.2,0,0,0,.38-.9,1.85,1.85,0,0,1,.39-1.1c.28-.42.48-.87.74-1.3.09-.15.2-.3.3-.46a4.68,4.68,0,0,0,.59-1,6.64,6.64,0,0,1,.57-1.27c.24-.45.53-.9.8-1.35.13-.23.42-.42.45-.65.05-.44.38-.68.55-1s.34-.7.54-1c.3-.5.63-1,.95-1.46a4.32,4.32,0,0,0,.87-1.48c0-.12.17-.21.25-.31A4.31,4.31,0,0,0,29,61.75c.29-.78,1.1-1.17,1.33-2,.5-.43.61-1.15,1.18-1.52a.1.1,0,0,0,.05-.07c-.09-.38.24-.52.43-.74a3.67,3.67,0,0,1,.87-.89,1.62,1.62,0,0,0,.69-.71,3.13,3.13,0,0,1,1-1.27,3.29,3.29,0,0,0,.7-1.14c.22-.47.19-.47.83-.91a11.28,11.28,0,0,0,1-.83,14.72,14.72,0,0,0,1.18-1.19c.35-.4,1-.53,1.13-1.1.46,0,.4-.53.69-.72.73-.47,1.06-1.32,1.72-1.87.16-.53.64-.82,1-1.16.66-.6,1.58-.92,1.87-1.89,0,0,0,0,.05-.06a4.65,4.65,0,0,0,1.6-1.58c.11-.16.25-.36.42-.41a1.27,1.27,0,0,0,.79-.67c.38-.76,1.12-1.1,1.69-1.62s1-.76,1.44-1.15,1-.87,1.48-1.3c.1-.1.18-.25.3-.29a4.22,4.22,0,0,0,1.4-1.07c.45-.43,1.09-.6,1.47-1.12.12-.16.35-.24.51-.37s0-.15.07-.22-.13,0-.18,0-.31.19-.46.29c-.47.31-.87.69-1.36,1a9.19,9.19,0,0,0-2.27,1.64,2.36,2.36,0,0,1-.5.38c-.72.46-1.4,1-2.07,1.51-.44.33-.8.75-1.23,1.07a16.69,16.69,0,0,0-2.17,1.85,2.38,2.38,0,0,1-.36.35,31.5,31.5,0,0,0-2.82,2.31c-.42.36-.79.84-1.44.78-.24.26-.69.16-.87.53s-.42.26-.56.5-.5.07-.75.14c-.08,0-.18,0-.23.06-.32.33-.86.33-1.14.67s-.55.2-.77.39a5.1,5.1,0,0,1-1,.07c-.54-.22-.54-.23-.93.22a5.15,5.15,0,0,1-.49.62c-.23.21-.18.68-.63.66a5.64,5.64,0,0,1-.52.88,1.7,1.7,0,0,0-.53.93,1.23,1.23,0,0,1-.56,1c-.38.35-.59.89-1.11,1.12-.09,0-.15.16-.21.25A3.82,3.82,0,0,1,29,54.59a2.27,2.27,0,0,0-.58.41c-.23.2-.41.5-.67.6-.6.24-.61.84-.85,1.27a4,4,0,0,1-.3.63A15.38,15.38,0,0,0,25,60.05a4.54,4.54,0,0,1-1.29,1.55c-.2.17-.42.29-.5.54-.14.52-.6.76-.95,1.11a2.12,2.12,0,0,1-.46.29.51.51,0,0,1-.17.07c0-.08,0-.17,0-.22.19-.25.13-.64.46-.83.09-.05.11-.22.17-.34a3.64,3.64,0,0,1,.32-.62,12,12,0,0,1,1-1.34,17.79,17.79,0,0,1,1.95-2.47s.05-.08.08-.13a8.08,8.08,0,0,1,1.64-2.25c.08-.08.18-.16.2-.25a3.88,3.88,0,0,1,1.15-1.79A7.45,7.45,0,0,0,30,51.57a1,1,0,0,1,.44-.5,1.51,1.51,0,0,0,.85-1.13,1.1,1.1,0,0,0,0-.18c-.07,0-.17,0-.22.05a6.38,6.38,0,0,1-1.11,1c-.13.07-.18.25-.27.38A6.85,6.85,0,0,1,29,52.2c-.61.71-1.24,1.39-1.89,2.07a.72.72,0,0,0-.26.65.52.52,0,0,1-.21.5c-.25.23-.44.57-.72.68s-.31.57-.57.79a2.67,2.67,0,0,0-.74,1.19A2.1,2.1,0,0,1,24,59a10.88,10.88,0,0,0-1.37,1.79,11,11,0,0,0-.77,1.35,4.46,4.46,0,0,0-.77,1.44c-.31.15-.24.54-.42.74A17.73,17.73,0,0,0,19,67a3.86,3.86,0,0,0-.38.93A3.32,3.32,0,0,1,18,69.11a6.57,6.57,0,0,0-.74,1.36,4.78,4.78,0,0,1-.54.86,3.12,3.12,0,0,0-.45.74c-.12.2-.26.39-.37.6-.27.5-.55,1-.8,1.51-.08.16,0,.4-.1.55-.29.49-.63,1-.94,1.45-.06.11-.09.25-.14.36a9.22,9.22,0,0,1-1.28,2.24,11.17,11.17,0,0,0-.57,1.27,2.48,2.48,0,0,1-.9,1.72.3.3,0,0,0-.1.2c.09.4-.23.58-.44.83s-.4.27-.41.58a7.94,7.94,0,0,1-.84,2c-.2.28-.43.66-.29.93a.51.51,0,0,1-.05.54c-.18.32-.18.75-.56,1-.07,0-.08.19-.1.29a1.93,1.93,0,0,1,0,.49A4.26,4.26,0,0,0,8,89.79a3.35,3.35,0,0,1-.2.83,10.12,10.12,0,0,0-.52.88,4.29,4.29,0,0,0-.19,1A7.11,7.11,0,0,1,7,93.65a6.19,6.19,0,0,1-.48,1,.14.14,0,0,0,0,.09c0,.6-.47,1.08-.38,1.69A2,2,0,0,0,5.87,98a1.56,1.56,0,0,1-.26,1.18,1,1,0,0,0-.08.3,3.33,3.33,0,0,0-.1.55,6.08,6.08,0,0,0,0,1.28c0,.17.07.25,0,.42A6.26,6.26,0,0,0,4.87,103a6.63,6.63,0,0,0,0,1,6.41,6.41,0,0,0-.15.93c.06.67-.24,1.29-.18,2,0,0,0,.09-.06.14a13.63,13.63,0,0,0-.6,3.35,1.18,1.18,0,0,0,.06.8c.27.35-.18.52-.09.83s-.12.5-.14.76,0,.62,0,.92c0,0,0,.07,0,.09-.24.27-.07.65-.19.93a2.76,2.76,0,0,0-.15.94.56.56,0,0,1,0,.23,1.22,1.22,0,0,0-.3.89c.06.29-.14.54-.08.83s.14.44.06.55c-.22.31-.12.64-.15.95a3.15,3.15,0,0,1-.07,1,2.87,2.87,0,0,0-.09,1c0,.34,0,.67,0,1a.49.49,0,0,1,0,.17,4.33,4.33,0,0,0,0,2.37c0,.11,0,.27,0,.32-.38.32.15.57,0,.89s-.26.69-.15.91a1.7,1.7,0,0,1,.13.87c0,1.15,0,2.29,0,3.44,0,.16,0,.37.07.47A1.69,1.69,0,0,1,3,132.59a2.78,2.78,0,0,1,0,1,8.76,8.76,0,0,0,0,1.92c0,.25-.09.57,0,.74.22.32,0,.67.17.94a3.06,3.06,0,0,1,.15,1c.06.44.14.89.24,1.32A13.84,13.84,0,0,1,4,141.33a6.69,6.69,0,0,0,.34,2.13c.12.29-.06.63.17.94a2.79,2.79,0,0,1,.32,1c.1.51.44.95.52,1.45.22,1.4.78,2.71,1.05,4.1.07.37.24.73.33,1.12s.26.73.33,1.12.39.69.32,1.12c.45,1,.68,2.07,1.08,3.08s.71,1.94,1.08,2.9.74,2,1.19,2.95c.22.49.47,1,.65,1.48a27.17,27.17,0,0,0,1.34,3.14,9.7,9.7,0,0,0,.86,1.74,22.58,22.58,0,0,0,1.53,3.22c.36.83.86,1.6,1.29,2.4.11.2.18.43.3.63.51.85,1.07,1.67,1.53,2.55s1.17,1.92,1.74,2.88c.41.7,1,1.34,1.32,2.06a32,32,0,0,0,1.83,2.75c.62,1,1.42,1.81,2,2.78s1.49,2,2.25,3c.54.71,1.1,1.41,1.68,2.09.73.86,1.5,1.69,2.17,2.61.38.53.9.95,1.31,1.47a23,23,0,0,0,2.12,2.3c1.88,1.82,3.62,3.77,5.61,5.48,1,.83,1.91,1.71,2.89,2.54.72.62,1.48,1.2,2.17,1.84.92.86,1.92,1.58,2.9,2.35.26.2.49.49.87.52.08,0,.15.1.21.17a2.25,2.25,0,0,0,.31.37c.57.42,1.16.83,1.75,1.25l2.33,1.66c1.2.84,2.44,1.64,3.69,2.42.49.3,1,.66,1.45,1,1.06.66,2.17,1.24,3.25,1.87s2,1.14,3,1.68c1.3.69,2.63,1.35,4,2,.48.24,1,.45,1.48.67s1,.49,1.55.71c.86.35,1.7.75,2.55,1.14.38-.16.49.27.78.35,1.33.36,2.53,1.07,3.84,1.45.73.21,1.36.61,2.11.81,1.07.27,2.1.71,3.16,1.07a13.83,13.83,0,0,0,2.07.66c1.36.25,2.64.8,4,1.09.76.17,1.5.46,2.27.58.37.05.71.18,1.08.25s.76.17,1.14.28a5.92,5.92,0,0,0,1.62.34,4.92,4.92,0,0,1,.61.15A2.67,2.67,0,0,1,98,235a10.65,10.65,0,0,0,1.84.42c.69.18,1.42.17,2.11.36a3.5,3.5,0,0,0,1.28.16c.08,0,.21,0,.25,0,.27.3.63.1.94.16l1,.17a9.65,9.65,0,0,1,1.43.2,7.65,7.65,0,0,0,1.89.28c.5,0,1,.23,1.44.19.29.33.68.13,1,.16a2.37,2.37,0,0,0,1.16,0c.5-.24,1-.05,1.46-.13.66.4,1.45,0,2.12.33a.2.2,0,0,0,.17,0,1.2,1.2,0,0,1,1.12,0,4.74,4.74,0,0,0,1,0,2.75,2.75,0,0,1,1,.08,2.79,2.79,0,0,0,1,.08c.28,0,.56,0,.84,0a1.16,1.16,0,0,0,.68-.18c.24.28.47,0,.71,0a2.06,2.06,0,0,1,1,0,1.76,1.76,0,0,0,.86.13c.29,0,.62.13.87-.14,0,0,.18.07.28.09a.58.58,0,0,0,.31.05,8.37,8.37,0,0,1,2.63-.33,1.54,1.54,0,0,0,1-.15.41.41,0,0,1,.4,0c.3.24.63.14,1,.15s.78,0,1.17,0c.15,0,.38.19.42.15.29-.3.64-.09.95-.15s.36,0,.55-.11.43,0,.64-.06.28-.33.49-.08.38-.23.56-.08.43.17.71,0a2.06,2.06,0,0,1,.93-.18c.52,0,1-.08,1.53-.15a11.85,11.85,0,0,0,1.46-.32,2.52,2.52,0,0,0,1.24-.68,1,1,0,0,1,1.43-.14.71.71,0,0,0,.37.1,7.5,7.5,0,0,0,1.7-.13,11.27,11.27,0,0,1,2.11-.2c.14,0,.31.06.41,0a12.54,12.54,0,0,1,2.17-.63c.83-.3,1.72-.44,2.57-.7a10.3,10.3,0,0,0,2.12-.75,9.72,9.72,0,0,1,1.28-.56c.25-.09.55-.13.83-.22a5.71,5.71,0,0,1,.88-.3c.49-.1.92-.4,1.39-.49a7.28,7.28,0,0,0,2-.69,4.51,4.51,0,0,1,.52-.17,9.86,9.86,0,0,0,1.5-.62,8.7,8.7,0,0,1,2.25-1.05,14.39,14.39,0,0,0,2.29-1c.51-.25,1-.56,1.52-.79s1.3-.63,2-.93a4.57,4.57,0,0,1,1.2-.34,5.18,5.18,0,0,0,2.43-1,10.22,10.22,0,0,1,1.7-1,1.77,1.77,0,0,0,.57-.25c.15-.13.39-.14.56-.25a4.81,4.81,0,0,1,.87-.53,7.42,7.42,0,0,0,1-.5,2.06,2.06,0,0,0,.53-.33,10.47,10.47,0,0,0,1.25-1.5c.28-.44.72-.47,1.09-.68a4.59,4.59,0,0,0,2.11-.6,10.47,10.47,0,0,0,1.06-.68,8.75,8.75,0,0,1,1.26-.38,4.65,4.65,0,0,0,1.95-1.55,1.51,1.51,0,0,1,.52-.34,4.34,4.34,0,0,0,1.33-1,2.6,2.6,0,0,1,1-.8c.41-.19.49-.73,1-.85.22,0,.41-.28.62-.31a.6.6,0,0,0,.51-.33,2.71,2.71,0,0,1,.91-.69c.72,0,1.07-.51,1.39-1.05a3.34,3.34,0,0,1,.43-.74,8.13,8.13,0,0,1,1.42-1.21,9.89,9.89,0,0,0,2.15-1.7,1.34,1.34,0,0,1,1-.51.58.58,0,0,0,.35-.15c.69-.62,1.38-1.26,2.07-1.89.16-.14.37-.22.52-.36a3.2,3.2,0,0,0,.36-.52,5,5,0,0,1,.83-1,15.62,15.62,0,0,0,1.56-1.69c.21-.31.35-.66.58-.94.49-.59,1-1.15,1.54-1.71s.9-.92,1.37-1.36a11.44,11.44,0,0,1,1-.86,2.66,2.66,0,0,0,.84-1.14,2.77,2.77,0,0,1,.54-.87,6.61,6.61,0,0,0,1.36-1.53,4.89,4.89,0,0,1,1.14-1.46c.07-.07.18-.18.17-.26,0-.31.2-.43.36-.61a5.21,5.21,0,0,0,.47-.47,19.7,19.7,0,0,1,1.73-2.22,2.84,2.84,0,0,0,.47-.73,7,7,0,0,1,.78-1.52,11,11,0,0,0,.92-1.21c.28-.41.5-.86.79-1.27A20,20,0,0,0,221.4,181a5.72,5.72,0,0,1,.24-.57c.13-.18.32-.31.47-.48a2.56,2.56,0,0,0,.73-1.2,5,5,0,0,1,.53-1.21c.17-.4.49-.74.65-1.15s.4-.78.56-1.2a4.06,4.06,0,0,1,.62-1.25,2.07,2.07,0,0,0,.44-.83,2.88,2.88,0,0,1,.51-.87c.43-.62,1.23-1,1.12-2,0,0,0,0,0-.07a8.58,8.58,0,0,1,.91-2,2,2,0,0,0,.17-.51,7.1,7.1,0,0,1,.47-1.57c.29-.5.34-1.08.59-1.6s.42-.89.65-1.32a10.9,10.9,0,0,1,.94-1.79.89.89,0,0,0,.19-.59,7.51,7.51,0,0,1,.37-2.45c.16-.6.31-1.22.43-1.82s.37-.93.44-1.42.44-.79.24-1.12a.9.9,0,0,1,.16-1.08,7.38,7.38,0,0,0,1.07-3.17,12.5,12.5,0,0,1,.19-1.27,6.2,6.2,0,0,1,.31-1.12c.18-.39.19-.82.34-1.2a5.32,5.32,0,0,0,.33-1.29,5.87,5.87,0,0,1,.16-.6c0-.21.05-.41.11-.63a25.93,25.93,0,0,0,.55-2.62c.06-.35,0-.73,0-1.08a1.88,1.88,0,0,1,.24-.9c.23-.33.12-.61.09-.92a.15.15,0,0,1,0-.07,8.52,8.52,0,0,0,.31-1.72,2.94,2.94,0,0,1,.15-1.37c.11-.21-.06-.53.17-.75-.31-.39-.14-.85-.14-1.28s-.15-.88.15-1.27a.15.15,0,0,0,0-.15c-.22-.17,0-.3,0-.47a3.16,3.16,0,0,0,.21-1.18.76.76,0,0,1,.1-.63.87.87,0,0,0,0-.56c-.07-.29-.32-.58,0-.86-.29-.32,0-.65,0-1-.06-1,.25-2,.2-3a3.37,3.37,0,0,1,0-.84A4.16,4.16,0,0,0,237,121M102.39,12.21a4.86,4.86,0,0,1-1.45.34,1.42,1.42,0,0,0-1,.26,1.65,1.65,0,0,1-1.26.24,2.62,2.62,0,0,0-1.46.29,2.16,2.16,0,0,1-1.33.22c-.25,0-.53-.11-.79.1a1.92,1.92,0,0,1-1.33.22s-.11-.09-.14-.16,0-.12,0-.13a2.29,2.29,0,0,1,.59-.2,3.25,3.25,0,0,0,1.31-.3,4.9,4.9,0,0,1,1.77-.36,2.43,2.43,0,0,0,1.15-.27c.32-.2.76,0,1.07-.25.61.11,1.18-.21,1.78-.16a.93.93,0,0,0,.64-.26c.25-.18.35,0,.47.12s.11.24-.08.3M111,11a2.29,2.29,0,0,1-.62.32,1.33,1.33,0,0,1-.74,0c-.25-.1-.41.32-.63,0-.49.2-1,0-1.5.18s-.77,0-1.1.15a2.84,2.84,0,0,1-1,.16c-.5,0-1,.13-1.51.19v0a2.94,2.94,0,0,1-.42,0,.89.89,0,0,1-.25-.14c.07-.06.11-.16.19-.19a2.41,2.41,0,0,1,.6-.16,2.81,2.81,0,0,1,.58,0c.57,0,1.11-.28,1.69-.17,0,0,.09,0,.13-.08l.92-.25c1.16.11,2.29-.2,3.44-.17H111s.07,0,.06.05A.2.2,0,0,1,111,11M69.19,23.8a8.57,8.57,0,0,1-1.23.87c-.32.16-.53.57-1,.49a22.72,22.72,0,0,0-2.17,1.2c-.46.33-1,.45-1.45.76a3.16,3.16,0,0,1-1.48.69c-.09,0-.18.11-.25.19a3.28,3.28,0,0,1-1.51,1,1.63,1.63,0,0,0-.64.46c-.23.2-.41.53-.67.62s-.46.28-.69.36a3.79,3.79,0,0,0-1.56,1.08c-.18.21-.47.17-.71.33a8.53,8.53,0,0,0-1.15.85,1,1,0,0,1-.86.27c-.31,0-.33,0-.17-.28a1,1,0,0,1,.42-.4,6.52,6.52,0,0,0,1.3-.92,3.83,3.83,0,0,1,1.35-1,7.42,7.42,0,0,0,1.53-.95c.23-.12.38-.38.71-.34a.42.42,0,0,0,.33-.17c.34-.49,1-.51,1.36-1,.13-.17.4-.23.62-.33.06,0,.19,0,.22,0,.24-.26.4-.66.68-.76s.7,0,1-.24.41-.16.5-.44c0-.12.42-.13.65-.2,0,0,.08-.07.12-.1a5,5,0,0,1,1.89-1.07,2.4,2.4,0,0,0,.85-.36c.35-.3.87-.33,1.14-.66s.61.15.82-.15l.13.07a.58.58,0,0,1-.1.12m70-9.08h-.25c-.2,0-.48-.12-.77-.16s-.6.08-.86-.16c-.06-.06-.22,0-.32,0a1.94,1.94,0,0,1-1.17-.23,1.39,1.39,0,0,0-.62-.1,3.67,3.67,0,0,1-1.84-.3c-.17,0-.43-.09-.54,0a.49.49,0,0,1-.66,0c-.25-.15-.65-.1-.88-.27s-.63.08-.83-.26c0,0-.16,0-.24,0a2.46,2.46,0,0,1-1.7-.2c-.26-.21-.43.2-.61,0s-.41-.09-.62-.1a1.79,1.79,0,0,0-.73.07,1,1,0,0,1-.75,0,3.88,3.88,0,0,0-1.68-.4c-.11,0-.23-.13-.35-.15s-.41-.11-.38-.3.57-.51.73-.34c.29.33.51.17.77,0,.06,0,.18-.07.22,0s.25.39.57.17c.11-.07.39.09.59.15a1,1,0,0,1,.28.12,4.83,4.83,0,0,1,.42.37c.17-.28.5,0,.67-.19s.33-.16.48,0h.08c.32,0,.62-.34.92-.15a.68.68,0,0,0,.81,0c.56.23,1.27.07,1.71.63a.57.57,0,0,0,.44.18c.37,0,.77-.15,1.1.16.27-.12.61-.1.83-.22a1.09,1.09,0,0,1,1.26.16,2.39,2.39,0,0,0,1.09.42,1.82,1.82,0,0,0,1.13,0,.92.92,0,0,1,.93.15c.56-.13.78.22,1,.67.11.28.1.32-.18.33m9.75,30.65a8,8,0,0,1,1.72.44,23,23,0,0,1,2.38.93c.39-.15.46.41.87.36a1.88,1.88,0,0,1,.86.31,4.2,4.2,0,0,0,1.73.69c.12,0,.24.11.35.17s.47.43.73.45.44.3.67.44a3.73,3.73,0,0,0,.69.35,4.92,4.92,0,0,1,1,.46,6.22,6.22,0,0,1,.87.54c.16.16.48.16.72.26s.16.15.24.23l-.27.09h-.08c-.18,0-.38.19-.51.14s-.32-.28-.47-.44-.12-.2-.17-.2c-.47.08-.7-.42-1.06-.46s-.68-.43-1-.67a7.79,7.79,0,0,0-.65-.48.44.44,0,0,0-.28,0c-.55.14-.56.14-.7-.37-.05-.18-.17-.26-.27-.16-.35.34-.67.11-1,0a22.87,22.87,0,0,0-3.8-1.57c-.5-.15-1-.28-1.5-.44a3,3,0,0,1-.77-.35,1.61,1.61,0,0,1-.36-.51s0-.1,0-.17m-8.07-.3a2.39,2.39,0,0,1,1,.18,8.11,8.11,0,0,0,2,.61,9.48,9.48,0,0,0,1.11.35,9.66,9.66,0,0,1,1.18.19,10.15,10.15,0,0,1,1.94.58,14.1,14.1,0,0,0,1.73.68,3.84,3.84,0,0,0,1.17.39c.35,0,.43.3.7.38.44.12.86.35,1.3.48a2.64,2.64,0,0,1,1.25.65c.44,0,.73.42,1.19.37.07,0,.19,0,.22,0,.31.46.91.38,1.3.74s.86.36,1.24.63c.88.61,2,.79,2.79,1.57a1.58,1.58,0,0,0,.78.34.61.61,0,0,1,.42.21,1.87,1.87,0,0,0,.8.48,4.22,4.22,0,0,1,1.63,1.12,3.13,3.13,0,0,0,1.06.69,5.09,5.09,0,0,1,1.45,1,1,1,0,0,0,.39.26,3.19,3.19,0,0,1,.71.51c.2.14.39.29.59.42s.48.12.49.46c0,.09.17.23.28.26a2.68,2.68,0,0,1,1.1.81c.26.23.54.43.81.65s.4.52.76.6a.46.46,0,0,1,.29.29c.15.45.56.62.89.88s.64.5.94.77c.59.53,1.2,1,1.76,1.6a14.79,14.79,0,0,0,1.12,1.12,12,12,0,0,1,1.19,1.18c.22.25.53.39.72.69s.5.45.69.72a19.74,19.74,0,0,1,1.87,2.49c.18.36.58.59.86.91s.43.54.64.82a3.65,3.65,0,0,0,.32.45,5.15,5.15,0,0,1,1.22,1.85,4.82,4.82,0,0,0,.91,1.29c.35.47.72.93,1.06,1.41a3.68,3.68,0,0,1,.34.69c.08.17.09.39.21.5.54.46.69,1.2,1.18,1.69.2.2.07.51.33.72s.24.44.33.69a7.79,7.79,0,0,0,.7,1.3c.43.8.81,1.62,1.28,2.4a5.92,5.92,0,0,1,.65,1.4c.14.49.41.91.51,1.38s.42.83.55,1.29a4.49,4.49,0,0,1,.31,1,1,1,0,0,0,.08.3,10.09,10.09,0,0,1,.94,2.72c.06.31.33.57.34,1s.25.61.35.94c.18.57.26,1.17.47,1.73a4.36,4.36,0,0,0,.17.51,3.49,3.49,0,0,1,.36,1.29c0,.4.28.78,0,1.22-.09.12.08.44.18.65a2.86,2.86,0,0,1,.31,1.22,1.5,1.5,0,0,0,.23.81,1.57,1.57,0,0,1,.25,1.16,2,2,0,0,0,.21,1,1.11,1.11,0,0,1,.13.36c0,.21,0,.49.07.64s-.12.35-.08.56c.14.87.2,1.75.4,2.61a1.62,1.62,0,0,1,.11.53,12,12,0,0,0,.2,2.61,2.75,2.75,0,0,1,0,1.21.77.77,0,0,0,.09.79.61.61,0,0,1,.05.39,2.43,2.43,0,0,0,0,1,4.33,4.33,0,0,1,0,1.08v1.18c0,.36,0,.72,0,1.09a1.67,1.67,0,0,1-.21,1,2.13,2.13,0,0,0-.13.45,2.53,2.53,0,0,1-.12.23c-.07-.08-.2-.16-.21-.25a2.13,2.13,0,0,1,0-1,1.29,1.29,0,0,0,.11-.71,8.86,8.86,0,0,0-.13-2.62c.42-.54-.15-1.05,0-1.61a7.76,7.76,0,0,0,0-1.67,11.75,11.75,0,0,0-.17-1.19c-.05-.37.13-.76-.15-1.11-.07-.09,0-.27,0-.41a4.8,4.8,0,0,0-.31-1.72.76.76,0,0,1,0-.16c-.06-.7-.12-1.4-.16-2.11a1.55,1.55,0,0,0-.16-.69c-.11-.19.09-.49-.12-.7a.16.16,0,0,1-.06-.14c.18-1.08-.55-2-.5-3.06-.38-.55-.25-1.19-.37-1.78a7.18,7.18,0,0,0-.53-1.78c-.16-.33-.05-.63-.19-.94-.32-.73-.52-1.51-.81-2.25-.1-.25-.07-.47-.15-.7-.5-1.41-.93-2.85-1.5-4.24a9.66,9.66,0,0,1-.82-2.09c-.41-.24-.35-.75-.58-1.1a4.42,4.42,0,0,1-.5-1.13,4.17,4.17,0,0,0-.46-.82,1.38,1.38,0,0,1-.31-.79.82.82,0,0,0-.17-.51,11.76,11.76,0,0,1-1.67-2.75,7.92,7.92,0,0,0-.85-1.4c-.5-.59-.66-1.37-1.16-2s-.93-1.48-1.53-2.13a4.65,4.65,0,0,1-.76-1.11c-.42-.89-1.16-1.57-1.61-2.43-.43-.16-.64-.55-.88-.88a31.75,31.75,0,0,0-2.54-2.9c-.44-.48-.85-1-1.32-1.45s-.84-.53-1-.91-.69-.57-1-.91a8,8,0,0,0-1-1,13,13,0,0,1-1.09-1c-.38-.34-.73-.73-1.14-1.06a11.53,11.53,0,0,0-2.32-1.84,4.81,4.81,0,0,1-.94-.77,21.94,21.94,0,0,0-2.54-1.74c-.54-.34-1-.8-1.55-1.15-.29-.19-.53-.46-.82-.64s-.88-.45-1.3-.7c-1.56-1-3.23-1.66-4.83-2.52-.3-.16-.6-.32-.9-.46l-.15,0c-.23-.12-.17-.56-.53-.49s-.51-.15-.75-.24-.45-.26-.7-.34a25,25,0,0,1-3.09-1.25c-.82,0-1.41-.7-2.17-.81s-1.29-.71-2-.73c-.23-.37-.61-.29-1-.35s-.52-.34-.87-.33c-.15,0-.29-.15-.44-.14-.44,0-.72-.42-1.21-.37a3.72,3.72,0,0,1-1.18-.15,8,8,0,0,1-1.42-.41c-.38-.15-.74,0-1.11-.18a1.87,1.87,0,0,0-1.07-.26c-.19,0-.39-.12-.6-.14a5.13,5.13,0,0,0-1.36-.19,1.16,1.16,0,0,1-.51-.16.21.21,0,0,1,0-.16c.24-.42.64-.35,1-.34a8.44,8.44,0,0,1,1.71.32,8.92,8.92,0,0,0,1.78.36m-12.55-4.16c.23.38.52.27.82.13.72.4,1.57-.07,2.29.33a4.78,4.78,0,0,1,1.77.19,9.47,9.47,0,0,1,2.48.48c.88-.11,1.66.44,2.55.35a2.23,2.23,0,0,1,.68.16c.07,0,.25,0,.14.14s-.2.16-.23.13c-.3-.2-.64-.09-1-.1a1.78,1.78,0,0,1-1.08-.24.45.45,0,0,0-.21-.1,14.12,14.12,0,0,1-1.94-.17,4.52,4.52,0,0,1-2-.32.52.52,0,0,0-.25,0,10.72,10.72,0,0,1-2.77-.2c-.94-.12-1.86-.1-2.79-.15a2.32,2.32,0,0,1-.68-.16c-.22-.07-.41.29-.62,0,0,0-.06,0-.08,0-.46.24-.91-.05-1.37,0s-1,0-1.51,0-1,0-1.51,0a3.42,3.42,0,0,0-1.45.14,1.24,1.24,0,0,1-.74,0c-.15,0-.27-.15-.41-.22a1.72,1.72,0,0,1,.36-.26,5.17,5.17,0,0,1,.66-.19c.32,0,.55-.06.73.16,0,.06.26.06.31,0,.23-.26.52-.11.77-.16a2.74,2.74,0,0,1,.52-.15c.14,0,.29.11.44.15s.25.05.33,0c.66-.41,1.31.08,2,0,.15.22.3,0,.44,0,.37,0,.78-.16,1.11.16h.08c.32,0,.61-.13,1,0a.94.94,0,0,0,1-.11s.19,0,.21,0M112.6,32.37c.05-.21.05-.47.18-.59s0-.64.22-.73a2.16,2.16,0,0,1,.89-.07h2.35c.21,0,.43.08.62-.13a.42.42,0,0,1,.39,0c.42.31.81.05,1.21,0,.23,0,.43-.18.71,0a.73.73,0,0,0,.83-.2c.11-.13.4-.09.61-.11a.37.37,0,0,1,.42.23.65.65,0,0,0,1,.11c.1-.07.4-.34.33.14,0,0,0,.07,0,.08s.16.12.18.1a.36.36,0,0,0,.14-.23c0-.06-.13-.11-.15-.18a.3.3,0,0,1,.06-.22.16.16,0,0,1,.15,0,1.78,1.78,0,0,1,.41.22s0,.26,0,.27c-.5,0-.11.23,0,.3a.48.48,0,0,0,.3,0c.22,0,.43,0,.65-.07a.53.53,0,0,0-.55-.26s-.07-.06-.11-.09.07-.1.12-.12c.53-.25,1-.75,1.67-.3a.53.53,0,0,0,.33,0,2,2,0,0,1,1.1.19,1.36,1.36,0,0,0,.61.14c.31,0,.4.07.37.37a.48.48,0,0,0,.13.35,1.11,1.11,0,0,0,.34.19l-.3.17a1.25,1.25,0,0,0,.09.12c.13.14.07.26-.06.34s-.23.16-.26.13c-.35-.29-.75-.1-1.12-.16a2.11,2.11,0,0,0-.49-.09c-.14,0-.26.19-.41.21a2.09,2.09,0,0,1-.61,0c-.45-.08-.87-.48-1.34-.09-.84.06-1.68.15-2.53.16-.36,0-.71-.22-1.1-.16s-.9.13-1.36.17a1.87,1.87,0,0,1-.69-.13c-.24-.08-.54-.35-.88-.06-.11.1-.44,0-.7-.06s-.67-.32-.84.2c-.26,0-.52,0-.78,0-.08,0-.14-.07-.21-.09-.68-.21-.68-.21-1.29.2a.86.86,0,0,1-.2.13.24.24,0,0,1-.34-.29m-11.26,195c-.31,0-.59-.27-.94-.34s-.63-.11-1-.15a1.19,1.19,0,0,1-.43-.16,2.79,2.79,0,0,0-1.21-.31,17.56,17.56,0,0,1-3.58-.69c-.13-.43-.43.08-.66-.12a1,1,0,0,0-.65-.2,1.83,1.83,0,0,1-.81-.29c-.27-.11-.52-.31-.83-.23s-.43-.38-.78-.35a1.11,1.11,0,0,1-.79-.11,11.9,11.9,0,0,0-1.42-.61c-.05,0-.09-.1-.13-.1-.75.12-1.28-.42-1.93-.62a5.58,5.58,0,0,1-1.57-.68c-.23-.16-.64-.05-.84-.38-.12.11-.22.28-.4.1s-.69.05-1-.28a2.22,2.22,0,0,0-.9-.43,6,6,0,0,1-2-1c-.26-.21-.59,0-.83-.26s-.44-.11-.66-.21a10.4,10.4,0,0,0-1.54-.73c-.59-.16-1.09-.59-1.68-.81a9.93,9.93,0,0,1-1.2-.53,17.27,17.27,0,0,1-2-1.14,2.85,2.85,0,0,0-1-.51,7.23,7.23,0,0,1-1.66-.85c-.69-.36-1.32-.82-2-1.13-.29-.12-.45-.54-.66-.83,0,0,0-.11.07-.13a.16.16,0,0,1,.16,0c.52.54,1.3.72,1.82,1.28A3,3,0,0,0,69,215a2,2,0,0,0,1.28.37c.18,0,.37.22.6.16.33.43,1,.17,1.33.65a1.75,1.75,0,0,1,1.1.36,6,6,0,0,0,1.08.63,6.88,6.88,0,0,1,1.11.37,16,16,0,0,0,2,.84,5.09,5.09,0,0,1,.54.32,13.05,13.05,0,0,0,2,.85,3.07,3.07,0,0,1,.48.24c.14.08.28.24.4.23a1.9,1.9,0,0,1,1.32.48.32.32,0,0,0,.23.05c.28-.09.55-.22.6.26a.71.71,0,0,0,.52.06c.31-.22.54-.22.77.08,0,0,0,.06.06.05.59,0,1,.46,1.54.54.38.06.34.33.24.44-.29.31-.06.45.14.57a2.32,2.32,0,0,0,.6.18c.05,0,.13,0,.16,0a3.13,3.13,0,0,0,1.28.59,6.25,6.25,0,0,0,1.49.44c.24.35.72-.06,1,.3a5,5,0,0,1,1,.2c.83.12,1.64.37,2.45.57a1.06,1.06,0,0,0,.38.07,1.72,1.72,0,0,1,.92.22.72.72,0,0,0,.29.12,15.75,15.75,0,0,1,2,.51.43.43,0,0,1,.28.15,2,2,0,0,0,1.47.69c.49.08,1,.3,1.44.4a1.16,1.16,0,0,0,.47,0,1.2,1.2,0,0,1,1,.09.34.34,0,0,0,.14.05l2,.17c.21,0,.49,0,.62.09s.33-.09.48,0,.38.18.58.22a5.42,5.42,0,0,0,.81.07,3.7,3.7,0,0,1,.48.07c.07,0,.12.11.18.17l-.18.1c-.2.07-.39.14-.57.22-.46-.35-1-.12-1.39-.24-.7-.19-1.44,0-2.11-.18a9.39,9.39,0,0,0-2.3-.33M82.73,215.22s0-.11,0-.15a.16.16,0,0,1,.11,0c.39.22.77.45,1.16.64a2.79,2.79,0,0,0,.74.24c.92.2,1.72.71,2.62.95a1.27,1.27,0,0,0,.37.1,2.35,2.35,0,0,1,.94.18l.22.07c-.07,0-.13.09-.19.09a6.62,6.62,0,0,1-.68,0c-.58-.14-1.36-.16-2.12-.3-.5-.1-1-.25-1.44-.38a2.91,2.91,0,0,1-1.77-1.47m64.05,11a5.34,5.34,0,0,1-2.08.84s-.14,0-.15,0c-.23.46-.73.27-1.08.45a5.49,5.49,0,0,1-1.18.2c-.5.11-1,.27-1.5.41a1.43,1.43,0,0,1-.22.08c-.67.06-1.35.08-2,.18a17.85,17.85,0,0,0-1.93.4c-.43.1-.84.28-1.26.4-.08,0-.19,0-.28-.07s-.2-.09-.22-.06c-.25.28-.57.15-.86.15a2,2,0,0,0-1,.18,1.88,1.88,0,0,1-1,.16,4.76,4.76,0,0,1-1,0c-.31-.07-.58.28-.87,0-.66.33-1.36.08-2,.18a1.93,1.93,0,0,1-1,0c-1.41.36-2.86.07-4.29.18-.44,0-.88.17-1.34.2a1,1,0,0,1-.3,0,5.57,5.57,0,0,0-1,0c-.45,0-.89,0-1.34,0s-.76-.28-1.19-.18-.61-.12-.86.17c0,0-.18,0-.24,0a2.86,2.86,0,0,0-1.61-.15c-.6,0-1.19-.12-1.78-.17a12.34,12.34,0,0,1-1.83,0,8.22,8.22,0,0,1-2.41-.45c-.14-.08-.37,0-.56,0s-.35.11-.49.15c-.36-.07-.67-.15-1-.2a5.43,5.43,0,0,1-.87-.14,4.21,4.21,0,0,0-1.51-.18c-.21,0-.41-.3-.62,0-.06,0-.11-.13-.18-.15a2.92,2.92,0,0,1-.92-.6c.39-.27.7.26,1.08.09.18.26.44.17.68.16a3.75,3.75,0,0,1,.77.15c.3.07.63.42,1,0,0,0,.11,0,.15,0,.47.37.92,0,1.35-.1.23-.06.38-.15.59,0a.4.4,0,0,0,.31.05c.2,0,.5-.2.57-.12.24.24.37,0,.56,0a.53.53,0,0,1,.41,0c.2.13.32.22.56,0s.44.09.66.16.29.18.35.14c.3-.21.61.15.93-.07a.75.75,0,0,1,.69-.06c.3.21.58.12.87.14s.73,0,1.09,0a3,3,0,0,1,.94.16c.3.09.59-.21,1,0a2.08,2.08,0,0,0,1,0,2.37,2.37,0,0,0,1.11-.14,1,1,0,0,1,.8,0,.48.48,0,0,0,.71-.11c.14-.17.31-.17.39,0,.17.37.46.09.51,0,.28-.37.67-.32,1-.32s.84,0,1.26,0a1.29,1.29,0,0,1,.63.08c.1.06,0,.36,0,.55s.11.21.26.21c1,0,2,0,2.94,0a5.27,5.27,0,0,0,.77-.16,4.72,4.72,0,0,1,1.35-.17,2.57,2.57,0,0,0,1.3-.31s.14,0,.15,0c.24.39.51,0,.7,0a3,3,0,0,1,1-.14,1.59,1.59,0,0,0,.7-.14.75.75,0,0,1,.77,0c.51-.16,1.07-.1,1.58-.24a1.76,1.76,0,0,1,1.39.08c.34.2.64-.14,1,0a3.16,3.16,0,0,1,1.43-.17,1.15,1.15,0,0,0,.46-.1,2,2,0,0,1,1.35-.41c.07,0,.17-.12.26-.17s.18-.15.27-.14a6.39,6.39,0,0,0,2.28-.58c.07,0,.15-.1.21-.1.69.1,1.26-.49,2-.33a.84.84,0,0,1,.2.08,2,2,0,0,0-.22.08m39.89-28.52c-.34-.08-.36.23-.52.36s-.35.22-.53.34a1.13,1.13,0,0,0-.18.12c-.23.26-.41.62-.69.78s-.31.55-.73.46c-.13,0-.29.34-.48.43s-.43.46-.76.57a8.11,8.11,0,0,0-1,.5c-.3.15-.61.26-.91.42-.14.08-.26.13-.32,0s.09-.19.23-.24a1.41,1.41,0,0,0,.58-.4,4.25,4.25,0,0,1,1.3-.93c.11-.06.31-.11.33-.19.06-.39.4-.48.65-.64a16.12,16.12,0,0,0,2-1.55c.26-.23.72-.19.84-.63l.47.07c-.15.25-.29.58-.35.57m20.55-26.2a2.44,2.44,0,0,1-.69,1.06c-.09.07-.12.22-.18.34a30.57,30.57,0,0,1-2.08,3.42c-.34.53-.71,1-1,1.58a6.88,6.88,0,0,0-.85,1.4.92.92,0,0,1-.33.35c-.67.53-.82,1.44-1.45,2,0,.35-.22.52-.53.66a3.4,3.4,0,0,0-.72.49c-.19.15-.46.29-.54.49a9.57,9.57,0,0,1-1,1.5,10.83,10.83,0,0,1-.93,1.12c-.84,1.07-1.91,1.93-2.77,3-1.18,1.41-2.57,2.61-3.82,3.94-.16.17-.41.25-.57.42-.34.36-.67.72-1,1.09a13.24,13.24,0,0,1-1.88,1.7,2.16,2.16,0,0,0-.38.36c-.34.4-.57,1-1.22,1-.05,0-.09.06-.13.1l-1.35,1.18a5.89,5.89,0,0,1-.81.67c-.22.14-.53.22-.61.56a.43.43,0,0,1-.28.29c-.72.09-1.15.64-1.68,1a7,7,0,0,0-1.53,1.18.49.49,0,0,1-.25.18,3.09,3.09,0,0,0-1.43.83.81.81,0,0,1-.26.18,3.3,3.3,0,0,0-1.54,1.11c0,.05-.15,0-.22.07-.31.13-.62.26-.92.41s-.57.37-.87.53a5.39,5.39,0,0,1-.93.39c-.31.08-.46.42-.85.41-.21,0-.41.35-.65.42a28,28,0,0,0-2.58,1.27l-.3.09a1.34,1.34,0,0,0-.51.17c-.78.73-1.87.77-2.75,1.27a4.33,4.33,0,0,1-.91.23,2.62,2.62,0,0,0-1.09.61,1.28,1.28,0,0,1-.47.29c-.22.07-.47.06-.71.11s-.31.33-.61.35a2.77,2.77,0,0,0-1.28.34,6.63,6.63,0,0,1-1.4.48,7.57,7.57,0,0,1-2.59.84,2.32,2.32,0,0,0-1.7.63,1.74,1.74,0,0,1-1.18.35,1.56,1.56,0,0,0-.9.26c-.23.19-.26-.15-.4-.07a1,1,0,0,1-.35.16c-.37.07-.74.1-1.11.18s-.57.38-.95.33c-.44.4-1.08.19-1.55.51-.45-.26-.82,0-1.22.15a1,1,0,0,1-.48,0c-.05,0-.08-.06-.12-.1-.33.4-.84.26-1.25.42a5.65,5.65,0,0,0-1.28.38c-.35.22-.9.08-1.33.22a17.53,17.53,0,0,0-2.24.48.94.94,0,0,1-.41,0,2.76,2.76,0,0,0-1.49.27.78.78,0,0,1-.38.07c-.34,0-.68,0-1,0s-.76-.12-1.13.1-.76-.09-1.09.21c-.1.09-.33,0-.5,0a4.48,4.48,0,0,0-1.78.15c-.11.06-.29,0-.41,0s-.37-.24-.64,0-.43,0-.65,0-.5,0-.75,0-.43.15-.72,0-.55.1-.84.13-.56,0-.84,0-.45.13-.68.15-.5-.17-.57-.1c-.26.28-.38-.07-.57-.06s-.43,0-.59.15c-.37-.31-.8-.11-1.2-.14a11.42,11.42,0,0,0-1.17,0c-.29,0-.28,0-.86.33a2.23,2.23,0,0,1-1.66.1c-.28-.06-.49-.15-.76,0a.72.72,0,0,1-.39.06c-.73,0-1.45,0-2.18,0a1.9,1.9,0,0,1-.85-.17,3.45,3.45,0,0,0-.94-.17.4.4,0,0,0-.44,0c-.35.28-.78.14-1.17.07a8.75,8.75,0,0,0-1.23-.28,1.49,1.49,0,0,1-.52-.16,4.38,4.38,0,0,0-1.29-.33c-.35,0-.72.11-1-.11s-.61,0-.94-.19-.7,0-1.07,0a2.06,2.06,0,0,1-1.1-.19c-.3-.17-.63-.09-.94-.17a9.2,9.2,0,0,1-1.55-.29,2.53,2.53,0,0,0-.83,0c-.35,0-.73.1-1-.29-.5,0-1-.36-1.43-.36a8.23,8.23,0,0,1-1.86-.41s-.09-.11-.12-.11c-.76.13-1.32-.5-2-.54a3.3,3.3,0,0,1-.37-.13c-.16,0-.42,0-.46-.05-.18-.34-.6-.18-.76-.42-.31-.44-.81-.44-1.22-.51s-1-.46-1.53-.37a2.69,2.69,0,0,0-1.43-.6,11.51,11.51,0,0,1-1.17-.4,8.2,8.2,0,0,1-2-.78c-.94-.07-1.64-.77-2.56-.92-.47-.08-.86-.48-1.33-.63-.27-.08-.31-.09-.12-.29s0-.15.08-.22c.11-.28.28-.63.55-.65a1.66,1.66,0,0,1,.94.3,1.72,1.72,0,0,0,1,.35c.23,0,.46.16.68.14s.43.21.64.32a13.45,13.45,0,0,0,1.29.54c.53.2,1.14.2,1.57.65a.9.9,0,0,1,.86.35c.31-.08.57.11.85.17.64.13,1.25.39,1.89.5.34.42,1,.21,1.31.7a.44.44,0,0,0,.28.14c.8,0,1.55.41,2.37.35.37,0,.67.26,1,.37a4.44,4.44,0,0,0,1.39.3,2.16,2.16,0,0,1,.52.15,6,6,0,0,0,.93.16,2,2,0,0,1,1,.17s.2,0,.23,0c.2-.25.46-.12.7-.15s.5.07.79,0,.6.17.93.14a2.36,2.36,0,0,1,.92,0,3.82,3.82,0,0,0,1.61.13c.31,0,.57.46.89.05.3.14.54-.07.81-.13.09,0,.22.1.32.09.42,0,.87.16,1.28-.15.09-.07.27,0,.41,0,.64,0,1.29,0,1.93,0a5,5,0,0,1,1.8.31,1,1,0,0,0,.24,0,17.7,17.7,0,0,1,1.94.19,2.65,2.65,0,0,1,1,.31.49.49,0,0,0,.61,0c.16-.13.35-.31.54,0,0,0,.11,0,.16,0,.22,0,.53.09.65,0s.42.09.64,0,.41,0,.61-.17.34.06.51.15a.83.83,0,0,0,.71,0c.36-.12.79-.44,1.21-.08a6.33,6.33,0,0,1,1.84-.13s.1-.09.14-.15c.21-.28.2-.27.34,0a.3.3,0,0,0,.23.14,3.89,3.89,0,0,0,1.21-.12,1.19,1.19,0,0,1,.44-.09,4.34,4.34,0,0,1,.46-.82,1,1,0,0,0-.36.07c-.31.12-.48-.19-.73-.05,0,0-.15-.14-.23-.22a1.92,1.92,0,0,0,.25-.12,1.7,1.7,0,0,1,1.21-.3c.2,0,.33-.16.52-.09l.33-.26a1.52,1.52,0,0,1-.54-.13c-.09,0-.26-.08-.31,0-.33.34-.82,0-1.16.26a.14.14,0,0,1-.11,0c-.22,0-.34-.35-.67-.13s-.55,0-.82,0-.55-.11-.8.13c0,0-.21-.1-.33-.11a7,7,0,0,1-.92,0c-.27-.06-.57-.36-.77-.29-.43.14-.91-.16-1.31.23-.24.25-.24-.09-.34-.21s-.09-.16.08-.24a1.29,1.29,0,0,1,.61-.16c.2,0,.43.07.62-.13s.28.05.44.07a1.37,1.37,0,0,0,.45,0,5.63,5.63,0,0,1,1.73-.27,2,2,0,0,1,.31.07c.21,0,.46.15.62.07a5.76,5.76,0,0,1,1.7-.15,12.54,12.54,0,0,1,2.37-.16c.45-.29,1-.12,1.44-.17s.68-.13,1-.16a5.51,5.51,0,0,0,1,0c.84-.27,1.73-.18,2.57-.47.39-.14.84-.05,1.28-.17a13.24,13.24,0,0,0,2.22-.52.73.73,0,0,1,.33,0,4.87,4.87,0,0,0,1.52-.17c.18,0,.35-.12.52-.17s.37-.05.55-.1.27.14.44,0,.39,0,.56,0a9,9,0,0,0,1.13-.31,2.5,2.5,0,0,1,1.37-.35c.32,0,.59-.28.93-.17a13.46,13.46,0,0,1,2.24-.68c.75-.2,1.47-.49,2.21-.74a2.71,2.71,0,0,1,.68-.17c.59,0,1.06-.51,1.68-.42,0,0,.1,0,.13-.06a3.08,3.08,0,0,1,2.09-.44,1.49,1.49,0,0,0,1.15-.26.52.52,0,0,1,.39-.07,3.09,3.09,0,0,0,1.88,0,1.53,1.53,0,0,1,.62.09c.42.11.87.07,1.14.5,0,0,.12,0,.17-.05l.47-.3a2.22,2.22,0,0,1,.46-.29,6.37,6.37,0,0,0,2-1.29,4.4,4.4,0,0,1,1.5-.82,10.62,10.62,0,0,0,1.14-.5,3.72,3.72,0,0,1,1.44-.39c.29,0,.59-.22.89-.25a2.92,2.92,0,0,0,1.63-.95c.48-.41,1-.75,1.54-1.13.28-.21.54-.45.81-.67a6.41,6.41,0,0,1,1.57-.67c.07,0,.18,0,.23,0,.33-.23.48-.69,1-.65a2,2,0,0,0,1-.32s.1,0,.15,0,0,.09,0,.11c-.34.26-.54.69-1,.86a1.57,1.57,0,0,0-.43.39,1.3,1.3,0,0,0-.15.23,1.33,1.33,0,0,0,.34-.1,16.35,16.35,0,0,1,2.09-1.42.83.83,0,0,0,.3-.29c.13-.18,0-.13-.12-.16a.57.57,0,0,1-.13-.08s.08-.09.12-.08a1.85,1.85,0,0,0,1.49-.67,2.78,2.78,0,0,1,1.11-.72,3.9,3.9,0,0,0,1.36-.95c.54-.49,1.05-1,1.55-1.54a5.3,5.3,0,0,1,1.27-1,.93.93,0,0,0,.36-.32,3.8,3.8,0,0,1,1.43-1.18c.09-.06.22-.09.27-.17.39-.79,1.2-1.07,1.88-1.51.08-.06.22-.06.27-.14.36-.5,1-.62,1.42-1a.85.85,0,0,1,.22-.09c.29-.1.23-.49.57-.61a2.45,2.45,0,0,0,.77-.57c.23-.2.44-.43.66-.65a6.17,6.17,0,0,1,.87-.72,13.48,13.48,0,0,0,2.75-2.69,17.79,17.79,0,0,0,2.93-2.69,50,50,0,0,0,3.92-6.05l.45-.71s.06,0,.08,0a1.66,1.66,0,0,0,.38-.18,4.45,4.45,0,0,0,.48-.38,6.12,6.12,0,0,0,.39-.5q.42-.59.81-1.2l.71-.62a1.35,1.35,0,0,0,.31-.41l.15,0,.26,0,.3,0a9.19,9.19,0,0,0-.55,1M103.81,210c.83.35,1.87.15,2.78.6a1.39,1.39,0,0,0,.65.06,3,3,0,0,1,1.32.24.9.9,0,0,0,.46.09,1,1,0,0,1,1,.14c.27.15.64.19.95.32.07,0,.19.07.22,0,.33-.34.64-.07,1,0a7.07,7.07,0,0,0,1.87.33,1.2,1.2,0,0,0,.46-.11.49.49,0,0,1,.52.05,1.75,1.75,0,0,0,.91.25,9.82,9.82,0,0,1,2.08.41,1.08,1.08,0,0,0,.31.07,1.53,1.53,0,0,0,.69-.14c.14-.05.36.22.59.14s.19-.09.29-.11.25,0,.27,0a.4.4,0,0,1,0,.32c-.09.19-.2-.05-.22,0-.32.27-.8,0-1.11.3-.29-.32-.58,0-.87,0-.44,0-.88.07-1.32.07a9.47,9.47,0,0,1-1.3-.09,1.86,1.86,0,0,1-.83-.22c-.23-.16-.33-.1-.48.06a3.7,3.7,0,0,0-.36-.33s-.14.06-.22.07-.31.13-.37.08c-.29-.25-.65-.07-.94-.17a13.26,13.26,0,0,1-1.55-.3c-.13-.07-.31,0-.43-.19a.39.39,0,0,0-.26-.16,2.3,2.3,0,0,1-.86-.16,1.11,1.11,0,0,0-.57,0c-.81.21-.81.21-1.59-.31,0,0,0-.06-.06,0-.55.14-1.07-.43-1.64-.07-.1.07-.34-.13-.49-.09-.72.15-1-.26-1.23-.85-.11-.3-.08-.36.36-.33M211,134.5c-.18.53.14,1.11-.26,1.57a8.39,8.39,0,0,1-.66,2.75c-.09.19.31.36,0,.52.07.24-.1.4-.16.6s0,.36-.12.55,0,.42-.06.64-.11.24-.13.36a3.37,3.37,0,0,0-.21,1.18c0,.18-.09.36-.12.52-.08.36-.32.7-.22,1.1a.81.81,0,0,1-.16.68c-.06.11-.18.25-.15.35.13.61-.33,1.06-.39,1.61,0,.12-.13.24-.12.36a1.24,1.24,0,0,1-.35,1c-.07.08-.16.18-.15.27,0,.53-.37.91-.42,1.43a5.74,5.74,0,0,1-.5,1.38c0,.09-.11.2-.09.29.06.27-.1.41-.27.56s-.24.33-.25.67-.14.46-.15.69a1.32,1.32,0,0,1-.24.66,4.14,4.14,0,0,0-.43,1.16,2.32,2.32,0,0,1-.16.44,2.16,2.16,0,0,0-.41,1c0,.31-.27.61-.38.92s-.4.61-.41,1-.39.59-.52,1a18.81,18.81,0,0,0-.67,1.91c-.1.35-.52.61-.48,1-.33.23-.36.66-.61.92s-.17.44-.29.64a6.83,6.83,0,0,1-.7,1.23,1.81,1.81,0,0,0-.24.64s0,.1,0,.15l.11-.06c.11-.16.21-.31.3-.47s0-.36.29-.27c0,0-.07.2-.09.3a3.89,3.89,0,0,1-.94,1.71.55.55,0,0,1-.17.13c0-.1-.09-.23,0-.3a3.33,3.33,0,0,1,.4-.51c.12-.12.1-.21,0-.35s-.25,0-.37,0c-.34,0-.34.35-.36.45a3.55,3.55,0,0,1-.85,1.51,4,4,0,0,0-.86,1.81,1,1,0,0,1-.41.75,3.94,3.94,0,0,0-.91,1,6.73,6.73,0,0,0-.62,1.08,3.2,3.2,0,0,1-.36.52,1.14,1.14,0,0,0-.42.75.78.78,0,0,1-.23.41l-1,1.17c-.07.09-.22.16-.22.24,0,.67-.53,1-.9,1.39a.88.88,0,0,0-.12.21,4.66,4.66,0,0,1-1.38,1.93c-.32.18-.51.53-.82.64s-.27.36-.45.49-.2.66-.64.64c-.07.32-.34.48-.53.71,0,0,0,.14,0,.22a.56.56,0,0,0,.18-.07l1.13-1.12s.11,0,.17,0,0,.13,0,.17l-.29.29c-.49.47-.84,1.06-1.27,1.56a12,12,0,0,1-2.41,2.25c-.64.42-1.3.82-1.9,1.28a1.53,1.53,0,0,0-.68.8s-.06.09-.1.13c-.34.27-.68.54-1,.83s-.39.75-.88.89a1.32,1.32,0,0,0-.53.52,1.82,1.82,0,0,1-.58.59,18.28,18.28,0,0,1-2.05,1.54c-.31.15-.42.58-.83.64-.51.69-1.34,1-1.94,1.6a6.39,6.39,0,0,1-.77.57s-.12,0-.15,0c-.91,1.06-2.3,1.46-3.28,2.42-.12.12-.33.14-.48.23s-.49.33-.73.49-.23.12-.34.18a3,3,0,0,0-1.07.69c-.12.17-.41.2-.61.31a4.93,4.93,0,0,0-.53.36,12.16,12.16,0,0,1-2.56,1.32c-.55.27-1.07.62-1.65.86a2.87,2.87,0,0,0-.87.73.74.74,0,0,1-.65.26A1.85,1.85,0,0,0,161,203a2.64,2.64,0,0,1-1.31.47,23.35,23.35,0,0,0-2.54.77,4.22,4.22,0,0,1-1.49.27,2,2,0,0,0-1.32.23c-.33.2-.71-.07-1,.26a5.29,5.29,0,0,1-.81.66,2.36,2.36,0,0,1-1.46.53,4.81,4.81,0,0,0-1.22.29,2.66,2.66,0,0,1-1.09.22.78.78,0,0,0-.38.09,7.81,7.81,0,0,0-2,.89,1.39,1.39,0,0,1-.85.33,6.6,6.6,0,0,0-1.78.41,5.5,5.5,0,0,0-2,.6c-.14.09-.39,0-.58,0a10.1,10.1,0,0,0-2.45.39,4.12,4.12,0,0,1-.53.12,2.11,2.11,0,0,0-1,.15c-.25.12-.6-.11-.85.18,0,0-.11,0-.16,0-.75-.12-1.46.24-2.2.17a.89.89,0,0,0-.52.14c-.09.05-.28-.13-.43-.13-.46,0-.88.2-1.36.17a1.81,1.81,0,0,0-1.27.15s-.11,0-.17,0a10.21,10.21,0,0,0-2.2.14,1.21,1.21,0,0,1-1.11-.13c-.06-.05-.31.18-.42.14-.6-.22-1.2.13-1.79,0a3.75,3.75,0,0,0-1.11-.19c-.17,0-.31.27-.55,0s-.43,0-.65,0h-2.77a2.49,2.49,0,0,0-.67,0c-.25.07-.37-.32-.67-.12-.14.09-.42-.05-.63-.06a1,1,0,0,1-.7-.16s-.16,0-.24,0c-.79-.05-1.58-.07-2.36-.19a5.65,5.65,0,0,1-.93-.17,1.44,1.44,0,0,0-.55,0,1.41,1.41,0,0,1-.51-.15c-.1,0-.24,0-.29-.11-.23-.29-.41-.26-.66,0s-.52.11-.78.08-.29-.13-.44-.13a1,1,0,0,1-.89-.32.41.41,0,0,0-.6,0,1,1,0,0,0-.6-.18c-.34,0-.71.12-1-.15a.32.32,0,0,0-.31,0c-.28.27-.17-.06-.24-.14s-.15-.05-.22-.07a.91.91,0,0,1,0,.17c0,.26-.19.42-.36.31a4.08,4.08,0,0,1-.7-.54.85.85,0,0,0-1-.2,2.08,2.08,0,0,1-1.57-.07c-.2-.09-.05-.17,0-.21a.5.5,0,0,1,.28-.12c.16,0,.22,0,.27-.22a2.28,2.28,0,0,1,.31-.54,5.5,5.5,0,0,0-.63-.25c-.4-.08-.8-.11-1.19-.17-.06,0-.13,0-.17,0-.44-.36-1-.28-1.51-.41s-1-.28-1.41-.44c-.06,0-.1-.17-.09-.25a.82.82,0,0,1,.14-.28c.09-.15.14-.37.28-.45s.35.12.51.13a18.2,18.2,0,0,0,2.21.37,2,2,0,0,1,.93.17,7.75,7.75,0,0,0,2.06.5c.51.09,1,.24,1.52.37.16,0,.3.09.46.12.31.06.65-.1,1,.11s.61,0,.93.2.71-.05,1,.33c0,0,.16,0,.23,0s.4-.17.49-.1a.85.85,0,0,0,.55.1c.19,0,.39,0,.59,0a3,3,0,0,1,1.64.28.85.85,0,0,0,.48.05c.32,0,.65.1.93-.13.25.28.58.1.86.13a3.79,3.79,0,0,0,1,0,6.54,6.54,0,0,0,1.63-.32s.11,0,.16,0c.24,0,.42.34.73,0,.13-.14.53,0,.81,0H122a.7.7,0,0,0,.61-.18c.1-.12.38-.09.49-.2.28-.3.69,0,1-.27s.67-.12,1-.2a17.37,17.37,0,0,1,3.38-.15s.06,0,.08,0l.14-.08s-.08-.08-.13-.09c-.45-.06-.9-.14-1.35-.16a1.59,1.59,0,0,0-.79.12,1,1,0,0,1-.94-.07.32.32,0,0,0-.23-.05c-.17,0-.43.19-.5.13a.61.61,0,0,0-.54-.13c-.26,0-.52-.09-.79.11s-.43.07-.64,0-.36-.32-.66-.23a2.24,2.24,0,0,1-.73.07c-1.27,0-2.52-.29-3.79-.17a5.58,5.58,0,0,0-1.86-.17c-.32,0-.6-.21-.94-.17a1.15,1.15,0,0,1-.86-.15c-.09-.06-.28,0-.41,0-.34-.06-.69.1-1-.14s-.66,0-1-.16a6.77,6.77,0,0,0-1.18-.19,15.92,15.92,0,0,1-2.15-.49,3.57,3.57,0,0,0-.66,0c-.2,0-.4-.13-.6-.16-.45-.07-.9-.11-1.36-.18a.53.53,0,0,1-.2-.12l-.12-.11s.08-.09.12-.09c.75-.13,1.46-.43,2.22-.51a.94.94,0,0,0,.15-.06s-.07-.13-.13-.17a9,9,0,0,0-1.66-.44c-.23,0-.48-.17-.66-.1s-.35-.11-.53-.14-.09-.1-.13-.09c-.78.17-1.45-.38-2.21-.34-.1,0-.25,0-.31-.05a1.51,1.51,0,0,0-1.14-.28s-.07,0-.09,0a2.36,2.36,0,0,0-1.44-.35c-.16-.24-.41-.15-.62-.14a1.09,1.09,0,0,1-.6-.17,3,3,0,0,0-1.4-.22s-.06,0-.06,0a1.23,1.23,0,0,0-1.12-.31c-.45.07-.71-.36-1.13-.35-.1,0-.2-.16-.32-.22a1.58,1.58,0,0,0-.64-.26,6.06,6.06,0,0,1-1.7-.36,2.31,2.31,0,0,0-.78-.16,2.14,2.14,0,0,1-1-.34,4.15,4.15,0,0,0-.87-.32,5.37,5.37,0,0,1-1.09-.43c-.62-.31-1.17-.84-2-.75a.27.27,0,0,1-.15,0c-.4-.37-1-.37-1.41-.64a8.43,8.43,0,0,0-1.93-.82,14.77,14.77,0,0,1-1.75-.84A17.73,17.73,0,0,1,78.23,193c-.53-.38-1.12-.67-1.67-1s-1.06-.7-1.57-1.07c-.89-.64-1.72-1.37-2.65-1.93-1.14-.7-2-1.73-3.19-2.41a10.24,10.24,0,0,1-1.23-1.07c-1-.8-2-1.58-2.85-2.46-.26-.25-.41-.58-.74-.79a5.72,5.72,0,0,1-.86-.78c-.28-.25-.58-.48-.86-.74s-.55-.56-.84-.83a10.27,10.27,0,0,0-1.22-1.25c-.25-.17-.39-.51-.61-.74s-.49-.33-.69-.54-.42-.56-.66-.81-.58-.35-.74-.61a14.19,14.19,0,0,0-1.41-1.66,19.18,19.18,0,0,0-1.86-2.27,3.87,3.87,0,0,1-.87-1.23,3.24,3.24,0,0,0-.63-.74,3.1,3.1,0,0,1-.78-1.1,2.94,2.94,0,0,0-.81-1.18,4.44,4.44,0,0,1-.64-.9c-.38-.61-.81-1.18-1.18-1.78s-.83-1.27-1.19-1.94a9.57,9.57,0,0,1-.84-1.66,6.78,6.78,0,0,0-.88-1.39,16.55,16.55,0,0,0-.95-1.88c-.07-.77-.66-1.29-1-1.93-.14-.28-.26-.56-.38-.85-.24-.63-.59-1.22-.78-1.86a21.13,21.13,0,0,1-1-2.67,1.5,1.5,0,0,0-.27-.47c-.07-.14-.23-.29-.21-.41.11-.52-.21-.93-.37-1.36s-.1-1-.48-1.31c0-.64-.39-1.12-.56-1.7,0-.15-.06-.2,0-.31s0-.21-.1-.25a.72.72,0,0,1-.38-.69,1.58,1.58,0,0,0-.31-1.22.19.19,0,0,1,0-.15c0-.09.05-.19.08-.28s.16.11.18.18a8.4,8.4,0,0,0,.57,1.35,10.63,10.63,0,0,0,1.08,2.32,6.1,6.1,0,0,1,.44,1.08c.34.75.7,1.49,1.06,2.24a.81.81,0,0,1,.1.21c0,.15,0,.37.23.3.06,0,.12-.23.1-.34a3.45,3.45,0,0,1-.16-1.1.27.27,0,0,0-.09-.22c-.41-.39-.46-1-.75-1.45a2.6,2.6,0,0,1-.32-.87c-.09-.36-.11-.73-.18-1.1a1.75,1.75,0,0,0-.17-.43,1.25,1.25,0,0,1,0-1.29c.09-.14.25-.34,0-.54-.05,0,0-.3.09-.36.25-.18.23-.42.23-.66a2.37,2.37,0,0,1,.24-1.5.17.17,0,0,0,0-.17c-.38-.53-.3-1.21-.56-1.79a3.64,3.64,0,0,1,0-1.24,1,1,0,0,0-.1-.54c-.15-.27-.41-.58-.08-.94.08-.09,0-.35-.08-.54a4.77,4.77,0,0,1-.41-1.75c-.27-.34-.11-.77-.28-1.14a.79.79,0,0,1,.48-1.12c.46-.18.65-.41.45-.74s-.06-.71-.15-1-.26-.68-.32-1a7.9,7.9,0,0,1,0-1.09,5,5,0,0,0,0-1.16,4.62,4.62,0,0,1-.15-1.28,2,2,0,0,0-.32-1.13c-.07-.12,0-.32,0-.49,0-.81,0-1.62,0-2.43.09-1.83-.14-3.64-.17-5.46a4.3,4.3,0,0,1,.14-1.28c.12-.4,0-.86.34-1.21.06-.06,0-.26,0-.38s-.08-.09-.12-.13c.34-.3.24-.65.2-1s.2-.77.14-1.18c.38-.42-.06-1,.34-1.45,0-.51,0-1,0-1.51a1.31,1.31,0,0,1,.17-.6,16.1,16.1,0,0,1,.66-2.25c.08-.15,0-.38,0-.58a5,5,0,0,1,0-.67,1.91,1.91,0,0,1,.17-.51c.41-.82.33-1.8.83-2.59-.18-.61.32-1,.37-1.62A6.74,6.74,0,0,1,44.63,97c.06-.18.06-.43.18-.5s.11-.41.21-.6a1.59,1.59,0,0,0,.11-.62.63.63,0,0,1,.19-.52.53.53,0,0,0,.14-.35,3.31,3.31,0,0,1,.33-1c.22-.52.35-1.08.52-1.63,0-.07,0-.21,0-.23.37-.19.22-.59.37-.86s.07-.58.39-.77c.1-.07.14-.34.09-.59s.26-.6.42-.89c.4-.76.84-1.5,1.2-2.27a3.2,3.2,0,0,1,.27-.56,8.94,8.94,0,0,0,.5-1.14c.31-.65.69-1.28,1.06-1.9a10.48,10.48,0,0,0,.56-1.11,8.15,8.15,0,0,1,1-1.79c.41-.57.81-1.16,1.2-1.76,0-.09.17-.19.16-.26-.12-.52.25-.77.56-1A14,14,0,0,0,56,74.36a2.71,2.71,0,0,0,.63-1.24,2,2,0,0,1,.63-1,7.94,7.94,0,0,0,1.11-1.2,6.52,6.52,0,0,1,.72-.79,2.07,2.07,0,0,0,.51-.71.86.86,0,0,1,.57-.47c.31-.14.31-.48.56-.63A.45.45,0,0,0,60.9,68c0-.29.14-.41.43-.49a.89.89,0,0,0,.58-.57.78.78,0,0,1,.66-.61,1.17,1.17,0,0,0,.61-.34,13.25,13.25,0,0,0,1.57-1.61,2.44,2.44,0,0,1,.86-.8,2.23,2.23,0,0,0,.73-.67c.26-.3.48-.63.76-.91a4.65,4.65,0,0,1,1-.67,12.18,12.18,0,0,0,2-1.51,2.86,2.86,0,0,1,.71-.5,2.18,2.18,0,0,0,.86-.56c.07-.09.15-.22.24-.23.6-.09.75-.87,1.38-.9a1.18,1.18,0,0,1,.68-.53,1.91,1.91,0,0,0,.76-.59c.19-.25.59-.26.67-.62a.16.16,0,0,1,.11-.1c.77,0,1.31-.51,1.92-.84s.94-.57,1.42-.83c.31-.18.64-.33,1-.49a.63.63,0,0,1,.23,0c0,.06,0,.14-.09.17a13.71,13.71,0,0,0-1.27,1c-.24.22-.58.09-.78.39a2.9,2.9,0,0,1-.69.54c-.23.18-.44.45-.71.52-.45.12-.72.49-1.13.67a7.06,7.06,0,0,0-2.17,1.47,8.86,8.86,0,0,1-.75.59,3.09,3.09,0,0,1-.69.55c-.35.16-.52.56-.82.82a13.14,13.14,0,0,1-1.37,1c-.08.06-.21.06-.27.13-.42.52-1.08.79-1.41,1.4a.42.42,0,0,1-.24.23c-.56.14-.81.63-1.16,1s-1.07.85-1.37,1.51c-.09.19-.38.28-.57.42a17.21,17.21,0,0,1-2.16,1.84c-.36.78-1.17,1.18-1.64,1.9a12.83,12.83,0,0,1-1.17,1.3,6.74,6.74,0,0,0-1.48,2.13c0,.06-.05.16-.1.19-.64.36-.84,1.05-1.21,1.6A8.7,8.7,0,0,1,56,76.19a4.2,4.2,0,0,0-.66,1.74,2.88,2.88,0,0,1-.61,1.34c-.09.64-.74,1-.74,1.71-.45.39-.42,1.06-.9,1.48a1.68,1.68,0,0,0-.46,1.06,3.07,3.07,0,0,1-.39.92,5.6,5.6,0,0,0-.77,2.11.44.44,0,0,1-.06.22,4,4,0,0,0-.86,1.75c-.2.5-.4,1-.55,1.53a5.66,5.66,0,0,0,0,1.24,1.06,1.06,0,0,1-.15.69c-.12.17-.36.39,0,.63,0,0,0,.29-.12.43a3.1,3.1,0,0,0-.22,1.11A16.71,16.71,0,0,1,49,97a19.85,19.85,0,0,1-.81,2.51,1,1,0,0,0,0,.5,1,1,0,0,1-.23.75,2.27,2.27,0,0,0-.27.89c-.06.26.1.55-.11.79s0,.51-.21.76.18.59.1.82-.34.4-.3.72a.61.61,0,0,1-.15.43c-.24.25-.21.59-.33.87s0,.48-.17.69,0,.28.07.37.09.3-.06.41a.53.53,0,0,0-.19.51c0,.34.13.77,0,1s0,.69-.31.89c0,.54-.1,1.08-.17,1.61s-.13.79-.16,1.19,0,.84,0,1.25a.35.35,0,0,1-.08.22c-.17.18,0,.29.08.41a.35.35,0,0,0,.51,0c.24-.23.48-.47.71-.72a.42.42,0,0,0,.12-.28,2,2,0,0,1,.18-1,15.73,15.73,0,0,1,.18-2.36,6,6,0,0,1,.15-.93c0-.32-.1-.67.17-.94a7,7,0,0,1,.33-1.87,1.91,1.91,0,0,1,.16-.44,3.26,3.26,0,0,0,.18-.93,2.19,2.19,0,0,1,.3-1.39c.1-.12,0-.44.09-.54.29-.29-.05-.7.27-1s.09-.64.21-.9c.21-.5.19-1,.41-1.51s.33-1,.55-1.45A2.44,2.44,0,0,0,50.51,97a.86.86,0,0,1,.14-.35c0-.07.18-.14.17-.18-.15-.6.42-1,.35-1.62a.48.48,0,0,1,.19-.43c.06-.05.15-.13.14-.18-.15-.68.54-1.09.52-1.72a.3.3,0,0,1,.12-.2c.2-.23.43-.42.23-.79,0-.09.06-.32.16-.42a4.37,4.37,0,0,0,.74-1.29,4.15,4.15,0,0,0,.6-1.34.22.22,0,0,1,.06-.14c.38-.36.42-.9.67-1.31.9-1.47,1.49-3.1,2.47-4.52a9.9,9.9,0,0,0,.65-1.4,4.93,4.93,0,0,1,.9-1.31A2.35,2.35,0,0,0,59,79.2c.38-.77,1.06-1.32,1.44-2.09a2.09,2.09,0,0,1,.68-.89,3.07,3.07,0,0,0,.83-1,9.31,9.31,0,0,1,1.14-1.29c.25-.3.69-.47.67-1,0-.1.18-.2.28-.3.41-.41.84-.82,1.24-1.24.19-.2.44-.33.49-.64a.52.52,0,0,1,.29-.29c.7-.29,1.06-.94,1.58-1.42a21.81,21.81,0,0,1,1.75-1.43,4.41,4.41,0,0,0,1.16-1.2c.17-.29.41-.38.62-.56.06,0,.18,0,.22-.06a9,9,0,0,1,2-1.59,14.65,14.65,0,0,1,2-1.58,3.26,3.26,0,0,0,.82-.66c.52-.52,1.28-.72,1.72-1.32,0-.05.08-.12.12-.12.82-.1,1.31-.75,2-1.13.5-.3,1-.67,1.46-.94s1-.51,1.52-.82c1-.59,2-1,3-1.57.43-.24,1-.2,1.35-.62.1-.11.48,0,.7.06a1.23,1.23,0,0,0,1.05-.13,11.45,11.45,0,0,1,2.56-1.31,2,2,0,0,0,.9-.67,1.91,1.91,0,0,1,1.4-.66,8,8,0,0,0,1.4-.48,2.66,2.66,0,0,1,.93-.19c.51,0,1-.09,1.52-.16a.51.51,0,0,0,.26-.18,2.18,2.18,0,0,1,1.75-.66c.36,0,.75.11,1.06-.27.16-.19.51,0,.76-.21s.66,0,.64.18a1.17,1.17,0,0,1-.3.42c-.19.18-.33.41-.68.41-.17,0-.39.17-.14.44.06,0,0,.22,0,.32s.1.49.45.23a.64.64,0,0,1,.41,0c.73.16,1.34-.35,2-.34.21-.33.59-.36.9-.48a7,7,0,0,1,1.53-.35c.44-.08.91-.08,1.35-.19a5.56,5.56,0,0,0,.85-.18c.69-.29,1.51,0,2.15-.47,0,0,.17,0,.25,0a2.58,2.58,0,0,0,1.12-.14c.27-.15.67,0,1-.17s.55,0,.82,0,.56.12.78-.15c0,0,.11,0,.16,0,.28.1.61.31.84.15s.58-.11.87-.15.85-.1,1.27-.18c.06,0,.14-.16.13-.23,0-.35.21-.25.39-.25,0,0,.07.11,0,.14-.25.33,0,.32.23.36.75.1,1.46-.21,2.2-.17.31,0,.66-.14.94.16a.25.25,0,0,0,.24,0c.29-.23.63-.13.94-.17s.78-.21,1.16.15c.09.09.38,0,.61-.07a2.87,2.87,0,0,1,1.24-.25c1.27,0,2.52.28,3.79.19a2.52,2.52,0,0,1,.69.15c.23,0,.5-.1.69.15,0,0,.11,0,.16,0,.9.06,1.8.13,2.7.16.29,0,.61.13.87-.15.05-.05.25,0,.38.06l.54.09c.05,0,.13-.09.14-.15s-.07-.17-.11-.17a3,3,0,0,1-1.42-.45s-.12-.07-.13-.06c-.33.32-.64,0-1,0a4.17,4.17,0,0,1-1.63-.3,3.69,3.69,0,0,0-.58,0c-1,0-2-.09-2.95-.18a2.83,2.83,0,0,1-.86-.33c-.12,0-.29-.18-.35-.14-.42.27-.8,0-1.22,0s-.71.17-1.1.16c-1,0-2.07,0-3.1,0s-2.08.23-3.12.18c-.25,0-.45.33-.67.14s-.41.12-.64,0a2.09,2.09,0,0,0-.75,0c-.29,0-.57.11-.85.16s-.56-.1-.78.16c0,0-.18,0-.22,0-.3-.35-.52.23-.81.07,0,0,0,0,0,0s.07.09.1.1c.25,0,.51,0,.76,0a1.3,1.3,0,0,1,.36.13.58.58,0,0,1,.1.12s-.09.07-.14.07H113.8a.24.24,0,0,1-.15,0c-.08-.11,0-.39-.28-.28s-.19.24-.26.38-.15,0-.22,0c-.25-.1-.51,0-.77-.17a.8.8,0,0,0-.93.3c-.16.2-.26,0-.37,0-.62,0-1.27-.18-1.87.14a.61.61,0,0,1-.33,0,2,2,0,0,0-1.37.33.68.68,0,0,1-.6.17c-.24-.07-.42.08-.61.17s-.13.12-.19.12c-1,0-1.93.57-2.95.38a.66.66,0,0,1-.19-.09,1.13,1.13,0,0,0,.22-.08,7.25,7.25,0,0,1,1.83-.64c.59-.14,1.14-.36,1.71-.55a4.53,4.53,0,0,1,.44-.15c.47-.11.94-.23,1-.86a.37.37,0,0,1,.41-.31c.52,0,.94-.33,1.46-.36.27,0,.51-.36.78-.52a1.4,1.4,0,0,1,.8-.3,6.42,6.42,0,0,0,2.22-.32,1.2,1.2,0,0,1,.33,0,10.33,10.33,0,0,0,2-.19c.55-.17,1.14,0,1.6-.18s1,0,1.54-.11a74.54,74.54,0,0,1,8.32-.18c.87,0,1.74.25,2.62.16.43.25.91.11,1.35.18a10.53,10.53,0,0,0,1.36.17,5.17,5.17,0,0,1,1.36.16c.67.19,1.34.4,2,.58a1.11,1.11,0,0,0,.3.08,9.29,9.29,0,0,1,3.25.67c.53.16,1.08.25,1.61.37s1.25.37,1.87.53.94.56,1.49.68,1,.52,1.58.44a4.27,4.27,0,0,0,1.47.5,9.07,9.07,0,0,0,1.46.53c.25.46.79.23,1.15.47a2.4,2.4,0,0,0,1.13.52c.21,0,.4.23.61.32.9.4,1.81.77,2.7,1.18.4.19.75.49,1.16.65a7.53,7.53,0,0,1,1.72.93,6.76,6.76,0,0,0,1.13.49c1.22.59,2.31,1.4,3.55,1.95a4.89,4.89,0,0,1,.72.5c1,.74,2.13,1.4,3.11,2.22.65.55,1.43,1,2,1.57a22,22,0,0,0,1.79,1.56c.76.64,1.43,1.38,2.19,2,.46.38.91.78,1.34,1.2.18.18.36.35.53.54s.23.38.39.44.27.39.44.54c.33.28.55.66,1,.85.18.08.26.38.42.56.59.65,1.22,1.27,1.77,2a19.74,19.74,0,0,1,2.09,2.73,5.75,5.75,0,0,0,.68.8c.51.56.74,1.3,1.27,1.83.07.07.05.23.13.28a2.3,2.3,0,0,1,.8,1.18,5.78,5.78,0,0,0,1,1.59c.37.52.61,1.1,1,1.63.49.73.87,1.54,1.34,2.29a8.58,8.58,0,0,1,.58,1.35c.27.65.64,1.24.95,1.87a22.5,22.5,0,0,1,1.33,3.39,7.15,7.15,0,0,1,.69,1.89c.3.25.07.67.32,1s.2.72.37,1,.1.67.28,1,0,.74.22,1,.05.78.29,1.15a1.49,1.49,0,0,1,.19,1.09c.54,1.06.5,2.29,1,3.36a1.64,1.64,0,0,1,0,.5,2.55,2.55,0,0,0,.07,1c.19.33-.11.74.26,1,0,0,0,.16,0,.24a1.84,1.84,0,0,0,0,1c.08.29,0,.64.18.93s-.27.42,0,.71a1.4,1.4,0,0,1,.18.76,4.56,4.56,0,0,0,0,.83,20.32,20.32,0,0,1,.18,2.44,23.62,23.62,0,0,1,.14,3.46c0,.19-.05.39.15.53,0,0,0,.17,0,.24a9.14,9.14,0,0,0-.17,2.61c0,.42-.13.85-.16,1.27s0,.84,0,1.26a4.57,4.57,0,0,0-.17.85c0,.26.14.56-.13.79.31.54-.17,1-.05,1.6a1.76,1.76,0,0,1-.06,1.14c-.18.33.11.73-.25,1-.06.05,0,.27,0,.4-.06.4.13.82-.11,1.21s0,.72-.19,1.1,0,.89-.18,1.34a12.72,12.72,0,0,0-.32,1.46c-.08.44-.12.9-.21,1.35,0,.26-.1.51-.16.77s.07.57-.11.88,0,.57-.07.8a14.57,14.57,0,0,0-.62,2.42c-.21.81-.36,1.66-.58,2.45a26.68,26.68,0,0,0-.64,2.75c-.05.28-.23.52-.3.8a3.83,3.83,0,0,0-.37,1.19.63.63,0,0,1-.12.28c0,.07-.18.14-.17.18.16.7-.51,1.13-.58,1.79a5.34,5.34,0,0,1-.68,1.63c-.07.15-.14.14.06.24.36.16.32.19.16.59a11.14,11.14,0,0,1-1.09,1.9,3.2,3.2,0,0,0-.26.48,6.38,6.38,0,0,1-.87,1.49c-.34.43-.41,1-.89,1.39a10.61,10.61,0,0,1-1.26,2c-.23.35-.42.72-.64,1.07a1.07,1.07,0,0,0-.21.87c0,.06,0,.15,0,.16-.37.21-.26.63-.42.93a5.38,5.38,0,0,1-.65,1c-.81.9-1.43,1.94-2.27,2.81-.62.64-1.15,1.37-1.72,2.06a5.21,5.21,0,0,0-.8,1.51,1.94,1.94,0,0,1-.34.78s0,.17,0,.21a.22.22,0,0,0,.22,0,6.94,6.94,0,0,0,.72-.6c.23-.23.54-.47.61-.75.11-.48.59-.55.81-.9a9.44,9.44,0,0,1,1.35-1.55,9.85,9.85,0,0,0,1.31-1.63,12.41,12.41,0,0,1,1-1.25,38.24,38.24,0,0,0,3.36-4.56c.71-1.15,1.44-2.3,2.11-3.48a5.94,5.94,0,0,1,.86-1.5,5.94,5.94,0,0,0,.91-1.37,6.06,6.06,0,0,0,.39-.76,2,2,0,0,1,.5-.81.37.37,0,0,0,.16-.26c-.06-.41.3-.68.33-1s.47-.51.39-1c-.05-.24.24-.55.37-.83a6.76,6.76,0,0,0,.77-2,10.15,10.15,0,0,0,.89-2.15,1.82,1.82,0,0,0,.3-.71,1.15,1.15,0,0,1,.36-.59c.14-.13.46-.26.55-.19s0,.35-.07.56a9.6,9.6,0,0,0-.36,1.11c-.07.22-.18.43-.26.65a14.88,14.88,0,0,0-.91,2.47c-.35.36-.29.89-.52,1.29a2.66,2.66,0,0,0-.54,1.21.66.66,0,0,1-.29.45c-.27.2-.3.49-.41.76a18.52,18.52,0,0,1-1.65,3.34c-.19.3-.28.67-.46,1s0,.58-.43.58a.33.33,0,0,0-.06.21,2.25,2.25,0,0,1-.21,1.36,3.47,3.47,0,0,0-.58,1.11,12.31,12.31,0,0,1-1.13,2,4.71,4.71,0,0,0-.84,1.5,1.91,1.91,0,0,1-.34.53c-.18.24-.38.46-.53.7-.49.76-1,1.47-1.55,2.21a6,6,0,0,1-.36.52c-.5.58-1,1.14-1.53,1.72a2.05,2.05,0,0,0-.31.54s0,.09,0,.14a.26.26,0,0,0,.12-.05c.16-.09.4-.16.45-.3.2-.49.66-.73,1-1.11s.67-.78,1-1.17c.17-.2.05-.58.37-.68s.26-.45.42-.56a1.63,1.63,0,0,0,.62-.75c.12-.32.43-.47.54-.77a.71.71,0,0,1,.22-.24,2.09,2.09,0,0,0,.93-1.44,1.16,1.16,0,0,1,.3-.64,6.5,6.5,0,0,0,.65-1,11,11,0,0,1,.77-1.27c.3-.4.55-.83.82-1.25a14,14,0,0,1,1-1.67c.51-.62.72-1.41,1.26-2,.22-.89.83-1.61,1.08-2.49a.9.9,0,0,1,.23-.48c.58-.4.53-1.15.94-1.63-.16-.37.24-.51.35-.78.36-.91.8-1.79,1.15-2.7s.64-1.75.94-2.63a1.61,1.61,0,0,0,.49-.06c-.13.52-.49,1-.42,1.54,0,.06-.06.14-.1.21-.48.83-.58,1.82-1.07,2.66.08.31-.23.4-.33.61a4.85,4.85,0,0,0-.33.87c-.07.29-.5.41-.34.78a8.39,8.39,0,0,1-.79,1.26c-.35.39-.31,1-.73,1.3a17.16,17.16,0,0,1-1.35,2.88c-.16.33-.44.6-.63.91s-.53.8-.26,1.31a.34.34,0,0,1,0,.28,23.4,23.4,0,0,0-1.3,2.48c-1,1-1.45,2.45-2.32,3.57-.09.12-.19.3-.31.33s-.25.17-.18.28c.17.29-.45.52,0,.8a1,1,0,0,1-.07.12c-.39.43-.67,1-1,1.41s-1,1-1.44,1.58a6.13,6.13,0,0,0-.79,1.1c-.2.38-.71.53-.84,1,0,.07-.1.12-.16.18a6.3,6.3,0,0,0-1,1.17c-.2.34-.57.51-.83.81-1,1.14-2.08,2.22-3.14,3.32-.16.16-.42.24-.57.42-.45.58-1,1-1.53,1.53a.86.86,0,0,0-.13.36s0,.1.05.15l.12-.05,1-.84c.15-.12.25-.31.49-.25,0,0,.13,0,.14,0,.23-.63,1.09-.71,1.25-1.4.68-.34.88-1.19,1.63-1.49.21-.09.29-.44.48-.62.42-.39.88-.73,1.29-1.14a3.67,3.67,0,0,0,1-1.16s.11,0,.15,0,.09.07.08.1a2.84,2.84,0,0,1-.76,1.45,4.25,4.25,0,0,0-1,1.16c-.14.23-.47.34-.68.54-.71.68-1.4,1.38-2.08,2.08-.19.19-.3.44-.49.63s-.43.3-.63.48a1.06,1.06,0,0,0-.37.61c-.08.4-.41.51-1,.52,0,0-.13.19-.11.21.27.28.28.43-.16.43a.45.45,0,0,0-.27.17,8.19,8.19,0,0,1-1.54,1.14c-.19.15-.38.3-.56.46a1.06,1.06,0,0,0-.15.34l.31.07c.23.05.35-.1.5-.23.32-.29.54-.7,1-.84,0,0,.08-.1.12-.1a.26.26,0,0,1,.22.06s0,.2,0,.22c-.56.23-.81.82-1.3,1.11a16.09,16.09,0,0,0-1.23,1.08c-.59.46-1.2.87-1.8,1.31s-.9.67-1.35,1c-.72.53-1.46,1.06-2.17,1.6s-1.29.73-1.87,1.21a12.54,12.54,0,0,1-1.8,1.1,13.89,13.89,0,0,0-1.61,1A11.86,11.86,0,0,1,160,189c-.15.08-.52.06-.21.4-.18.14-.34.38-.54.42a1.87,1.87,0,0,0-.65.27,5.38,5.38,0,0,1-1.08.42c-.12,0-.29,0-.38.08-.46.37-1.06.44-1.52.81a2.1,2.1,0,0,1-1,.43,3.13,3.13,0,0,0-.86.36c-.31.15-.56.44-.95.33a.26.26,0,0,0-.16,0c-.25.47-.78.27-1.16.46a1.91,1.91,0,0,1-1.18.37,8.14,8.14,0,0,1-2,.76c-.55.23-1.15.35-1.69.58-.7.3-1.45.4-2.17.63a14.36,14.36,0,0,1-1.49.47c-1,.2-1.93.47-2.88.74s-1.77.33-2.64.52a17.61,17.61,0,0,0-2.67.65c-.44-.12-.84.13-1.27.17a5.16,5.16,0,0,0-.94.17c-.27.08-.47-.38-.8,0-.14.14-.54,0-.81.05a5.89,5.89,0,0,0-.8.29.43.43,0,0,1-.16,0,19.29,19.29,0,0,0-2.28.19,10.52,10.52,0,0,0-1.11.14c-.36,0-.77-.1-1.08,0a3.6,3.6,0,0,1-1.45.13c-.34,0-.72.14-1-.16a1.46,1.46,0,0,1-.94.17H120c-.37,0-.73,0-1.1,0-.62,0-1.24-.12-1.86-.15a11.26,11.26,0,0,1-1.84,0,12,12,0,0,0-1.78-.14,8,8,0,0,1-.85-.16c-.32-.06-.63.07-1-.15s-.58.06-.84-.18c-.06,0-.22,0-.33,0a1.81,1.81,0,0,1-1.1-.19,1.85,1.85,0,0,0-.69-.14,2,2,0,0,1-1-.16c-.27-.14-.6,0-.94-.14s-.79,0-1.18-.2c0,0-.12,0-.15,0-.26-.21-.51-.43-.88-.19-.9-.36-1.93-.25-2.78-.77a18.34,18.34,0,0,1-2.9-.72,13.86,13.86,0,0,1-2.28-.76,4.52,4.52,0,0,0-1.26-.4c-.33,0-.61-.27-1-.35a8.82,8.82,0,0,1-1.33-.61A33.15,33.15,0,0,1,89.74,192c-.33-.18-.75-.15-1.09-.42a8.43,8.43,0,0,0-1.05-.49c-.71-.43-1.48-.77-2.17-1.24-.24-.16-.52-.24-.77-.39-.58-.34-1.18-.65-1.75-1s-1.13-.67-1.67-1c-1-.69-2.15-1.22-3.12-2-.53-.43-1.12-.79-1.68-1.19s-.86-.63-1.29-1-.91-.65-1.34-1c-.8-.66-1.54-1.38-2.36-2-1.28-1-2.35-2.15-3.55-3.19-2.24-2-4.23-4.18-6.38-6.25a4.36,4.36,0,0,1-1.1-1.3c-.36-.84-1.22-1.27-1.54-2.13a2.21,2.21,0,0,0-.57-.76,8.22,8.22,0,0,1-1.61-2.27c-.16-.33-.52-.53-.72-.88-.52-.88-1.07-1.74-1.64-2.58a26.56,26.56,0,0,1-1.83-3.19,1.8,1.8,0,0,0-.33-.45,9.55,9.55,0,0,1-.73-1.38,12.32,12.32,0,0,1-.61-1.33,2.8,2.8,0,0,0-.72-1.14s-.11-.07-.11-.11a6,6,0,0,0-.68-1.82,7.2,7.2,0,0,0-.75-1.62,1.23,1.23,0,0,1-.09-.29,16.51,16.51,0,0,1-.86-2.66c-.4-.53-.32-1.27-.77-1.78,0-.06,0-.16,0-.23a1.42,1.42,0,0,0-.07-.22.86.86,0,0,0-.09.27c0,.32-.11.67.25.9.05,0,.1.18.07.21-.43.5.1.88.19,1.3s.33.66.4,1a8.22,8.22,0,0,0,.42.84c.12.35.11.76.23,1.08s0,.81.44,1a1.36,1.36,0,0,0,.4.92.89.89,0,0,1,.11.37c.09.33.08.75.28,1s.19.59.43.85a3,3,0,0,1,.47,1,11.49,11.49,0,0,0,1.07,2.24c.41.57.77,1.19,1.14,1.79a5.73,5.73,0,0,1,.26.73c.1.21.34.3.4.59a5.82,5.82,0,0,0,.48,1,1.41,1.41,0,0,0,.57.77.77.77,0,0,1,.27.46,4,4,0,0,0,1,1.77c.07.08.19.19.18.26-.12.55.32.87.5,1.3a.59.59,0,0,0,.35.4.31.31,0,0,1,.16.21,1.35,1.35,0,0,0,.52,1c.36.34.53.87,1.05,1.06.06,0,.08.13.11.2a4.29,4.29,0,0,0,1.08,1.49,2.87,2.87,0,0,1,.53.7,2.91,2.91,0,0,0,1.18,1.18.44.44,0,0,1,.22.31,1.74,1.74,0,0,0,.61,1c.31.31.58.65.86,1A6,6,0,0,0,64.19,176c.55.34.88,1,1.42,1.39.09.46.64.4.86.78a2.25,2.25,0,0,0,.92.94c.43.21.61.71,1.09.8.24.59.81.79,1.27,1.14a5.89,5.89,0,0,1,.9,1.12c.23.29.4.62.86.68.25,0,.47.32.72.47s-.23.29.07.43.44.67.93.59c.37.44,1,.62,1.33,1A12.17,12.17,0,0,0,76.82,187c.15.11.31.21.45.33a2,2,0,0,0,1,.54c.27.07.35.5.7.67a4.84,4.84,0,0,1,1.49.89c.21.21.61.25.91.42a17.74,17.74,0,0,0,1.59,1,4.3,4.3,0,0,1,1.32.66c.1.08.25.18.35.16a1.28,1.28,0,0,1,1.15.46c.39.34,1,.14,1.28.54.27-.4.52.18.79,0a2.82,2.82,0,0,0,.94.57s0,0,.06,0c.3.07-.09.57.33.55a.94.94,0,0,1,.61.16c.14.1.37.11.49.23.46.49,1.09.47,1.67.62a3.73,3.73,0,0,1,.67.21c.68.32,1.37.61,2.07.88a.84.84,0,0,0,.3.08,2.87,2.87,0,0,1,2.1.47,6.57,6.57,0,0,0,1.62.54c.24,0,.46.13.69.16s.45,0,.67,0a.46.46,0,0,1,.3.07,3.42,3.42,0,0,0,1.77.61,6.08,6.08,0,0,0,1.19.16.9.9,0,0,1,.51.18,1.34,1.34,0,0,0,1.13.31,5.87,5.87,0,0,1,2,.34c.17.32.53,0,.75.23s.53.1.79.09a1.54,1.54,0,0,1,.77.18c.19.1.33.29.56,0,0-.05.36,0,.48.15a1.63,1.63,0,0,0,1.22.33h.16a33.81,33.81,0,0,1,3.63.18c.33,0,.7.31,1,.13a1.23,1.23,0,0,1,.94-.13,10.49,10.49,0,0,0,2.62.15c.87,0,1.73,0,2.6,0a1.66,1.66,0,0,0,.5,0,5.75,5.75,0,0,0,.78-.31c.22.27.52.15.78.14a4.19,4.19,0,0,0,.77-.15.21.21,0,0,1,.15,0s0,.09,0,.11c-.29.3-.54.64-1,.53a1.33,1.33,0,0,0-.55.07c-.07,0-.11.12-.16.17s.16.1.21.07a8.36,8.36,0,0,1,1.19-.18c.4-.1.82-.05,1.19-.16.84-.27,1.74-.17,2.57-.48a2.79,2.79,0,0,1,.58,0c.29,0,.62.14.86-.15.29.35.57,0,.86,0a2.48,2.48,0,0,0,.91,0c.35-.16.73,0,1-.17a4.28,4.28,0,0,1,1-.15c.81-.14,1.63-.28,2.46-.34.48,0,.94-.33,1.45-.33.31-.35.82,0,1.12-.33a6.44,6.44,0,0,0,2.07-.48c.25-.13.61.11.85-.19.61.14,1.11-.31,1.7-.35.27,0,.53-.31.78-.29s.62-.19.94-.2a1.83,1.83,0,0,0,.85-.18c.66-.43,1.47-.32,2.17-.64s1.35-.52,2-.77a1.47,1.47,0,0,1,.3-.08,7.19,7.19,0,0,0,2.14-.71c.56-.29,1.17-.4,1.73-.69a14.37,14.37,0,0,1,1.68-.8,16.34,16.34,0,0,0,1.66-.86c.55-.28,1.13-.5,1.68-.8,1-.57,2.08-1.09,3.05-1.74.45-.31,1-.51,1.44-.79.65-.39,1.29-.81,1.92-1.24a13.06,13.06,0,0,0,1.87-1.35,1,1,0,0,1,.41-.23.28.28,0,0,1,.21.06c.09.63.48.13.56.08a10.8,10.8,0,0,0,1.91-1.67c.1-.12-.19-.31.08-.42a2.36,2.36,0,0,0,.4-.24l.45-.33a3.92,3.92,0,0,0,.32-.25,10.33,10.33,0,0,1,1.81-1.49c.05,0,.08-.07.12-.11.91-.85,1.81-1.71,2.73-2.55.35-.33.76-.61,1.1-1a28.64,28.64,0,0,0,2.77-3c.76-1,1.71-1.85,2.5-2.82a22.46,22.46,0,0,1,1.92-2.22c.22-.86,1.09-1.24,1.5-2a16.19,16.19,0,0,1,1.33-2,9.82,9.82,0,0,0,1-1.36c.79-1.5,2-2.77,2.56-4.39.83-1,1.15-2.4,2-3.46a4.65,4.65,0,0,1,.56-1.36,13,13,0,0,0,.72-1.63c.34-1.32,1.29-2.38,1.46-3.76a6.35,6.35,0,0,0,.88-2.07c.09-.41.5-.78.17-1.25a.15.15,0,0,1,0-.12c.61-.67.54-1.61.9-2.39a7.68,7.68,0,0,0,.27-.81,3.25,3.25,0,0,0,.28-1,1.45,1.45,0,0,1,.16-.68,1.39,1.39,0,0,0,.16-.77.72.72,0,0,1,.07-.39,8.6,8.6,0,0,0,.7-1.89.56.56,0,0,0,.06-.31,6,6,0,0,1,.39-2.27,9.1,9.1,0,0,1,.73-2.13c.17-.3.07-.66.2-1a8.2,8.2,0,0,0,.21-1.51,3,3,0,0,1,.32-.87,4.89,4.89,0,0,0,.24-1.15,15.79,15.79,0,0,0,.11-1.68.6.6,0,0,1,.16-.34.55.55,0,0,1,.35-.1c.06,0,.15.15.14.22a3.41,3.41,0,0,1-.14,1.45,2.53,2.53,0,0,0,0,.83,2.92,2.92,0,0,1-.15,1.2c-.14.32.13.76-.18,1.09a5.91,5.91,0,0,1-.34,2.21v.08c.13,1.11-.25,2.18-.17,3.29,0,.12-.08.24-.1.37-.06.36-.2.71-.26,1.07a8.48,8.48,0,0,1-.39,1.93c-.2.53-.27,1.12-.42,1.67a9.7,9.7,0,0,1-1.38,3.45.65.65,0,0,0,0,.75,1.36,1.36,0,0,1,.08.75,1,1,0,0,1-.23.75,2.23,2.23,0,0,0-.27.8c-.12.37-.2.76-.35,1.12s-.44.88-.63,1.33c0,.1.08.26.08.4a1.92,1.92,0,0,1-.11.37c0,.12-.05.28-.13.36a2.44,2.44,0,0,0-.68,1.89c0,.41-.26.6-.41.85a5.49,5.49,0,0,0-1,2.11c0,.07-.09.13-.13.2a2.33,2.33,0,0,0-.2.34c-.16.38-.27.78-.46,1.15s-.57.67-.68,1a15,15,0,0,1-1.08,2.07,15.38,15.38,0,0,0-1.14,2c-.65.45-.67,1.35-1.3,1.81a9.7,9.7,0,0,1-1.29,2c-.43.62-.84,1.27-1.24,1.91a8.26,8.26,0,0,1-.86,1,4.61,4.61,0,0,0-.69.89,4,4,0,0,1-.56.86c-.35.44-.75.86-1.12,1.3-.15.18-.28.38-.42.58a4.72,4.72,0,0,1-.35.52q-2.34,2.43-4.69,4.85c-.42.42-.91.78-1.35,1.19a12.23,12.23,0,0,1-1.32,1.28c-.56.37-.93,1-1.6,1.2-.05,0-.13,0-.13.06-.09.4-.41.53-.71.71s-.4.52-.76.6c-.13,0,0,.36-.27.31-.5.62-1.35.76-1.88,1.33,0,0,0,.11,0,.17a.48.48,0,0,0,.17,0s.08-.08.12-.11l2.55-1.54c.05,0,.15,0,.23,0s-.05.15-.1.17a7.69,7.69,0,0,0-1.65,1.3,2.73,2.73,0,0,1-.61.33,3.89,3.89,0,0,0-1.22.88c-.23.34-.64.24-.9.51a3.12,3.12,0,0,1-.83.61,8,8,0,0,1-.82.43c-.86.37-1.61,1-2.5,1.28a1.4,1.4,0,0,1-1,.55,1.63,1.63,0,0,0-.87.71s.09.21.14.22a.77.77,0,0,0,.68-.2,5.3,5.3,0,0,1,1.1-.77,1.55,1.55,0,0,1,.61-.13c.52-.07.87-.47,1.33-.66s1-.53,1.54-.73c.37-.14.52-.69,1-.53,0,0,.06-.13.11-.17s.21-.28.34-.31a2.41,2.41,0,0,0,1.07-.67c.14-.12.26-.31.47-.07,0,0,.11,0,.11,0,0-.47.38-.46.73-.46.08,0,.16-.15.25-.18.3-.1.36-.45.59-.57a.86.86,0,0,0,.53-.54c0-.08.15-.16.24-.2a6.4,6.4,0,0,0,1.62-1.16,22.58,22.58,0,0,1,2.4-1.7c.33-.21.65-.45,1-.67.06-.05.16-.05.23-.08a.51.51,0,0,1-.05.22,1.36,1.36,0,0,0-.48.91c0,.26-.4.51-.65.72a14.15,14.15,0,0,0-1.15.84,8.33,8.33,0,0,1-1.57,1.09c-.43.28-.73.71-1.18,1a14.49,14.49,0,0,0-1.53,1.18.49.49,0,0,1-.43.17c-.24,0-.38,0-.34.3,0,.07-.06.15-.09.21a2.12,2.12,0,0,0-.23.41c0,.07.21,0,.51-.18a7.71,7.71,0,0,1,1.34-.81c.49-.18,1-.43,1.44-.56s.74-.53,1.06-.84c.13-.13.19-.36.34-.44a4.38,4.38,0,0,0,1.17-1.18,3.47,3.47,0,0,1,1.55-1.11,1.37,1.37,0,0,0,.59-.38,4.47,4.47,0,0,1,1.4-.88.2.2,0,0,1,.12,0,.29.29,0,0,1,0,.15.67.67,0,0,1-.14.19,7.92,7.92,0,0,1-2.12,1.79,1.33,1.33,0,0,0-.29.29c-.47.49-1.09.82-1.56,1.27a27,27,0,0,0-2.33,1.92,1.92,1.92,0,0,1-.5.39,22.68,22.68,0,0,1-2.58,1.88.14.14,0,0,0,0,.14c0,.06.1.13.16.14a.82.82,0,0,0,.71-.3,25.19,25.19,0,0,1,2.26-1.87c.35-.33.74-.63,1.1-1a1.12,1.12,0,0,1,.47-.29c.5-.09.78-.52,1.21-.73.12-.07.19-.26.3-.37a7.17,7.17,0,0,1,.68-.67c.48-.39,1.08-.63,1.42-1.18.89-.46,1.33-1.45,2.24-1.9.35-.17.31-.65.74-.81a1.34,1.34,0,0,0,.69-.76,1.29,1.29,0,0,1,.52-.54,4.8,4.8,0,0,0,1.86-1.7c.35-.48.69-1,1.08-1.4.63-.72,1.3-1.41,1.94-2.13.31-.34.58-.73.9-1.05s.87-.75,1.29-1.13a18.3,18.3,0,0,0,2.6-3.28,9.29,9.29,0,0,1,1.26-1.91,7.93,7.93,0,0,1,1.24-2.17,4.11,4.11,0,0,0,.47-.73,4.9,4.9,0,0,1,.88-1.64c.56-.74.83-1.63,1.31-2.4.11-.16,0-.33-.21-.1,0-.06-.1-.12-.09-.17a.33.33,0,0,1,.12-.19A8.94,8.94,0,0,0,201,158.7c.08-.15.14-.33.24-.49.18-.31.29-.66.45-1a6,6,0,0,1,.49-1.14,1.91,1.91,0,0,0,.18-.6,1.73,1.73,0,0,1,.2-.58,8.5,8.5,0,0,0,1-1.85c0-.07.13-.13.13-.2a15.29,15.29,0,0,1,1.64-4.27,3.65,3.65,0,0,0,.56-1.61.77.77,0,0,1,.17-.43,2.45,2.45,0,0,0,.34-1,1.68,1.68,0,0,1,.54-1.11,1.48,1.48,0,0,0,.47-1.07,7.17,7.17,0,0,1,.33-1.78c.09-.22.09-.62.54-.55.08,0,.28-.22.27-.34a1.32,1.32,0,0,1,.44-1.18c.2-.17.16-.54.22-.81a6.69,6.69,0,0,1,.44-1.33.88.88,0,0,0,.09-.38,1.24,1.24,0,0,1,.29-1.17c.09-.12.24-.32.2-.41-.25-.52.12-1,0-1.54a1.67,1.67,0,0,1,.16-.77,3.25,3.25,0,0,1,.32-.53c-.3-.18-.07-.35,0-.54s-.05-.25-.08-.37c-.08-.32-.2-.63.08-.91a.84.84,0,0,0,.12-.23c.06.06.18.13.17.18,0,.32.45.6.06.93,0,.37,0,.73,0,1.09a5.51,5.51,0,0,1-.07,1.73m20.5-33a1.73,1.73,0,0,1-.27-1.3,7.87,7.87,0,0,0,.16-1.93c0-.06.06-.12.1-.17l.06.14a1.26,1.26,0,0,1,.16.43,19.48,19.48,0,0,0,.71,3.54c.29.31,0,.7.14.93s0,.49,0,.69a1,1,0,0,1-.09.27,1,1,0,0,1-.23-.24,1.11,1.11,0,0,1-.17-.5,3.19,3.19,0,0,0-.56-1.86m1.73,19.11a2.06,2.06,0,0,1-.12.26c-.12-.07-.27-.11-.33-.21a.72.72,0,0,1,0-.39,1.76,1.76,0,0,0-.24-1.07.75.75,0,0,1-.09-.54,3.52,3.52,0,0,0,0-2.13,7.38,7.38,0,0,1,0-1.49c0-.26.08-.53-.12-.79s0-.4.06-.6a.89.89,0,0,0,.06-.31,1.81,1.81,0,0,1,.67-1.93.47.47,0,0,1,.12-.07,1.47,1.47,0,0,1,.06.14v.84h0a3.6,3.6,0,0,1-.1,1.14,3.94,3.94,0,0,0-.08,1.13,5.59,5.59,0,0,1,0,1.16,4.89,4.89,0,0,0-.14,1.61,1.28,1.28,0,0,0,.14.77c.16.28.07.7.21,1s-.16.62.13.9c.07.07-.09.38-.15.58"/><path class="cls-2" d="M99,5.34c.55,0,1.12.12,1.56-.32h1.17s.06.06.09.1a.16.16,0,0,1-.06,0c-.43.09-.69.52-1.21.54a6.29,6.29,0,0,0-1.34.38,2.88,2.88,0,0,1-.71.09c-1.09.07-2.19.09-3.28.19a7.31,7.31,0,0,0-1.52.36,4.61,4.61,0,0,0-1.33.81.75.75,0,0,1-.45.16,9.64,9.64,0,0,1-1.43.18c-.33.32-.74.1-1.11.14-.14,0-.25-.28-.49-.08-.08.07-.31-.06-.47-.07a5.3,5.3,0,0,0-1.72.28.93.93,0,0,1-.4,0,1.08,1.08,0,0,0-.83.21.84.84,0,0,1-.54.13c-.07,0-.14-.06-.2-.09s.11-.14.18-.17a3.26,3.26,0,0,1,.83-.21,11.6,11.6,0,0,0,1.72-.49c.32-.14.71.05,1-.21a18.33,18.33,0,0,0,3.35-.79,10.91,10.91,0,0,1,1.25-.22q.59-.09,1.17-.21A2.16,2.16,0,0,1,94.71,6a4.74,4.74,0,0,0,2-.33A5.53,5.53,0,0,1,99,5.34"/><path class="cls-2" d="M53.62,30H54c0,.06-.06.15-.12.2a2.85,2.85,0,0,1-1.07.65,2.48,2.48,0,0,0-.72.47c-.45.33-.91.66-1.34,1-.18.15-.45.22-.54.51s-.27.26-.43.34c-.53.23-.92.68-1.45.93a6,6,0,0,0-1.13.91,1.14,1.14,0,0,1-.35.17.47.47,0,0,1-.22-.07c0-.09,0-.2.11-.26s.35-.24.5-.38a2.91,2.91,0,0,1,1.09-.81c.17,0,.28-.25.43-.37l.52-.35a3.76,3.76,0,0,0,.47-.3,10.82,10.82,0,0,1,2.49-1.85c.34-.16.58-.54,1-.64a1.64,1.64,0,0,0,.36-.16"/><path class="cls-2" d="M36.18,44.21c0,.09.08.18,0,.23a1.33,1.33,0,0,1-.75.91c-.41.11-.1.5-.34.54a.68.68,0,0,0-.55.43c0,.48-.31.66-.67.81a.28.28,0,0,0-.12.12c-.2.28-.37.58-.58.84a3.8,3.8,0,0,1-1.31,1.21l-.18.06s0-.11,0-.16a.67.67,0,0,1,.1-.29c.4-.48.83-.94,1.24-1.42.19-.22.46-.37.54-.69s.51-.18.52-.53c.46-.16.62-.62.93-.94s.3-.45.49-.63a4.8,4.8,0,0,1,.65-.49"/><path class="cls-2" d="M156.44,196.08a3,3,0,0,1-.42,0s-.06-.13,0-.14c.23-.18.44-.44.71-.5a3,3,0,0,0,1.21-.52.47.47,0,0,1,.21-.11,2.57,2.57,0,0,0,1.21-.52,5,5,0,0,1,1.14-.48c.7-.19,1.27-.76,2-.74a1.23,1.23,0,0,1,.76-.4c.07,0,.15-.11.21-.09a.41.41,0,0,1,.24.19s0,.19-.1.22c-.51.26-1,.47-1.53.76a6.09,6.09,0,0,0-1.82,1.08.43.43,0,0,1-.3.08.61.61,0,0,0-.5.21.66.66,0,0,1-.37.13c-.32,0-.62,0-.9.27s-.51.1-.77.14c0,.35-.32.31-.49.42s-.33,0-.49,0"/><path class="cls-2" d="M136,206.46c-.14.1-.19.17-.25.17-.22,0-.44,0-.67,0a1.75,1.75,0,0,0-.86.15,2.32,2.32,0,0,1-1.17.19,11.74,11.74,0,0,0-1.19.16c-.37.06-.77-.13-1.11.16-.05,0-.16,0-.25,0a4.23,4.23,0,0,0-1.36.14,6.14,6.14,0,0,1-.77,0c-.3,0-.62,0-.92,0s-.6-.11-.87.14c0,0-.27-.13-.42-.14-.33,0-.67,0-1,0a6.1,6.1,0,0,1-.93-.18s-.07-.13-.07-.2a.16.16,0,0,1,.1-.11.53.53,0,0,1,.25,0,3.26,3.26,0,0,0,2,0,1.31,1.31,0,0,1,.65.05,1.62,1.62,0,0,0,1.24,0,1.91,1.91,0,0,1,.48-.06,4.36,4.36,0,0,0,.81-.07c.25-.07.48.22.77-.05s.51-.12.77-.13.43.14.55.07a1.16,1.16,0,0,1,.53-.16,4.08,4.08,0,0,1,1-.13,1.63,1.63,0,0,0,.86-.05,4.42,4.42,0,0,1,1.53-.14c.07,0,.15.08.3.15"/></svg>