<svg xmlns="http://www.w3.org/2000/svg" width="239.669" height="237.025" viewBox="0 0 239.669 237.025">
  <path id="Trazado_2915" data-name="Trazado 2915" d="M558.37,224.516c-.7,1.566-3.49,1.044-5.684,1.124C552.976,223.683,556.4,224.813,558.37,224.516Zm38.179-2.96c-1.976-.268-4.93-2.328-5.768-.537C592.9,221.561,595.436,222.858,596.549,221.556Zm-34.69.514c-1.527-.469-4.889-1.008-5.684,1.695C558.452,222.428,560.274,224.089,561.859,222.07Zm20.461,1.695c-4.406-.754-12.116-.544-15.342,1.684.346.318,2.7,1.312,2.835,0-2.777-.252,1.831-1.074,2.84-1.124C572.2,226.68,581.314,225.417,582.32,223.765ZM512.4,251.293c.113-1.581,1.858-1.534,2.277-2.808-1.691.071-4.724,2.032-2.275,2.808ZM647.7,323.236a59.209,59.209,0,0,0,1.134,12.925c.271-3.2.26-11.067-1.134-12.923ZM544.242,226.57c3.7-1.218,7.6-2.225,11.366-3.379-4.567.363-8.887.96-11.366,3.381Zm27.281.554c-4.794-.447-7.452,1.242-11.935,1.124-1.765,1.626-5.542,1.267-7.383,2.812,6.608-1.139,12.38-3.111,19.314-3.934Zm-77.871,32.042c-.162.842-2.447,2.363-1.143,2.807A106.9,106.9,0,0,1,524.909,235a85.724,85.724,0,0,0-35.8,28.651A20.3,20.3,0,0,1,493.652,259.166Zm146.083-14.053c2.528,1.409,6.27,4.691,3.409,2.249-.258-.209-1.742-3.087-3.409-2.249Zm-151.77,11.814c3.867-.588,5.815-7.353,7.28-9.127a27.392,27.392,0,0,0-4.44,4.627v-1.68c-2.691.138-2.593,3.044-3.976,4.5,1.97-.5,1.948.849,1.136,1.674Zm7.28-9.127a8,8,0,0,1,.679-.43c-.219-.03-.438.142-.679.428Zm12.043,7.443c.185-1.909,4.537-2.6,2.844-4.5-.054,2.021-4.483,2.638-2.844,4.49Zm34.675,2.247c-2.2-.195-2.872,2.829-3.974.559-1,1.145.419,1.1-.574,2.247a9.692,9.692,0,0,0,4.548-2.814Zm-46.614,8.992c1.091-2.122,5-4.406,4.547-6.186-1.708,1.495-4.756,4.633-4.541,6.18Zm-9.667,1.684c-1.085,1.753-4.114,4.535-3.416,6.18,1-1.845,3.919-4.738,3.427-6.188Zm-9.667,25.288c1.195-4.44,5.18-9.108,5.687-12.362-1.925,3.7-5.626,8.652-5.676,12.354Zm8.533-8.429c-.471,1.991-3.817,4.068-2.279,6.174.12-2.34,3.121-4.771,2.287-6.181Zm152.336,12.367c-.24-1.609-2.249-3.955-1.707-2.814.822,1.2,2.186,6.014,1.718,2.807Zm.572,3.366c2.1,2.792,2.234,7.54,4.549,10.12-1.28-3.238-2.408-9.592-4.539-10.127Zm-2.279,79.253c9.022-15.557,13.571-38.022,9.088-56.206q2.223.5,1.708-1.686c-3.362-1.178-2.071-6.945-3.968-9.56v1.7c8.488,30.7-2.2,64.051-19.333,79.8,4.995-2.2,8.333-6.84,12.515-14.047ZM503.31,365.384c.816,1.83,2.124,6.124,3.978,5.061C505.254,369.466,505.178,366.538,503.31,365.384Zm6.822,12.367c0,1.708,2.683,3.669,3.409,2.814-1.489-.587-1.918-2.236-3.409-2.806Zm114.257,16.861c-3.076,1.1-6.874,4.42-7.392,6.173a10.588,10.588,0,0,1,5.115-2.807c-1.852-1.508,2.1-2.009,2.287-3.366Zm-5.686,5.615c-.645,1.637-5.156,2.363-3.972,3.937C615.343,402.514,620.273,402.188,618.7,400.227Zm-33.537,35.412c1.858-.258,5.7-1.444,5.113-2.247C588.176,434.191,586.414,433.258,585.166,435.639ZM569.813,221.511c.067-.878-.075-1.952,1.143-1.686,1.289.318-.689.874.563,1.686,5.536-1.832,9.512.08,15.355-1.132-2.756-.215-2.9-.485-1.708-2.242-6.7-2.454-16.588.023-20.459,3.933C566.4,221.853,568.825,220.682,569.813,221.511ZM509.52,385.063c.058.11.114.236.172.352.214.161.408.327.608.5C510.037,385.628,509.78,385.355,509.52,385.063Zm6.627,7.164c.827,1.575,2.709,4.419,4.238,4.372a9.4,9.4,0,0,0-4.238-4.363Zm83.263,44c-.324.054-.6.215-.6.526.183-.176.415-.33.606-.5-.022,0-.039.023-.058.023a.354.354,0,0,0,.049-.038Zm85.236-60.175c-2.907,5.383-3.742,12.8-8.535,16.3,0,1.125,1.562.713,1.141,2.249-5.88,9.552-11.7,19.152-19.9,26.422,3.843,1.2-6.12,5.1-6.818,8.979a4.079,4.079,0,0,0-3.407,0c-1.289,5.664-9.345,4.631-10.8,10.124-13.123,5.933-23.9,11.48-40.928,14.057,12.9-5.039,27.777-8.141,37.51-16.3-.7-1.2-2.326,1.4-3.976,1.126a.444.444,0,0,1,.028-.125c-5.914,2.29-12.769,7.4-22.2,9.68,12.071-7.173,25.441-13.063,34.671-23.05-3.222.378-3.714,3.448-6.818,3.933,9.317-8.012,18.867-15.818,25.582-26.407-6.337,6.853-14.642,16.625-24.441,21.911.876-2.492,3.939-2.848,5.112-5.054-10.62,7.3-20.491,15.327-33.538,20.231,6.031-4.157,13.642-6.745,18.759-11.8-6.464,1.85-14.04,7.48-21.6,10.12-.585-1.91,4.917-2.623,6.822-3.933-6.249,0-12.128,5.235-19.333,6.18a52.756,52.756,0,0,1,8.528-3.933c-.075-.43-.631-.574-1.1-.5,0,0,.018,0,.024-.024,0,.02-.021,0-.032,0,6.461-5.664,16.9-10.377,24.8-16.588a41.483,41.483,0,0,0,4.726-4.24c-5.519,3.134-12.335,8.23-19.9,11.551.739.388,1.487-.164,1.373.625a21.169,21.169,0,0,0-5.944,1.123c-.183.056-.352.131-.535.187v-.024c-4.137,1.319-8.126,3.059-10.676,2.149a65.834,65.834,0,0,0,10.526-2.819c-.509-.707-2.316.709-4.382.7.973-.644,1.956-1.256,2.938-1.894-5.34,1.278-9.954,4.453-16.519,2.552-6.627,2.481-15.228-.162-22.34,1.106,2.234.215,4.822,1.349,6.642.507,7.17,5.381,17.591-1.654,22.439,1.385-7.061,1.388-14.607,1.515-21.776,2.6.8.606,1.678-.159,1.556.7-4.544,1.226-10.4-.986-15.293-.675,5.658,2.058,12.442,1.109,16.942,3.884-2.178-.086-4.549-.668-6.35.245.78.72,2.845-.543,2.589,1.16-6.8.176-14.644-2.363-21.166-1.452a64.443,64.443,0,0,0,17.684,3.6c4.257.344,9.924-1.128,12.521,1.267-3.523.338-4.59,2.849-8.655-.159-1.084,3.534-3.366-1.155-4.276,1.173,2.8,1.532,9.363-.318,12.57,2.531a33.793,33.793,0,0,0-9.935-.125c5.229,3.3,10.588.814,15.16,3.7-4.267,1.2-10.067-1.592-13.69,1.289,3.886.041,7.454-.726,11.711.3-6.161,1.85-13.963-.567-20.609.035-2.939-2.559-6.674-1.5-6.623-.486a25.6,25.6,0,0,0-12.285-1.791c-21.545-4.718-41.276-18.852-53.316-29.395,7.791,10.416,22.067,18.031,33.309,25.373a88.932,88.932,0,0,1-25.638-14.77,1.661,1.661,0,0,0-.93-.8c.3.26.612.53.93.8a1.679,1.679,0,0,1,.159.915A104.309,104.309,0,0,1,469.52,399a103.552,103.552,0,0,1-17.366-35.874,1.775,1.775,0,0,1,.788.522v.018h0v-.022a86.95,86.95,0,0,1-3.108-18.858,77.318,77.318,0,0,1,.047-10.324c2.148,13.149,3.268,29.152,9.667,40.462-4.743-15.181-9.652-38.778-5.108-60.137a24.8,24.8,0,0,0,3.394-11.782c.919.455,3.437-2.471,2.285-6.18,3.289-5.738,4.277-13.748,8.515-18.547-.8,4.261-2.981,7.168-4.541,10.682,4.138-2.094,3.953-8.459,6.821-11.8.769,5.3-3.736,9.1-2.844,15.17a32.489,32.489,0,0,0,3.971-8.987c1.3,4.053-3.095,9.2-2.837,12.366,2.526.132-.859-3.851,2.837-3.379-1.087-4.9,1.672-4.826,3.42-7.868,1.134,3.329-2.545,7.836-3.985,11.8a62.227,62.227,0,0,0-3.974,17.421c3.53-5.5,4.417-13.615,7.39-19.666,1.663.475-.342,1.811,0,2.81,1.587-1.244,2.017-3.631,2.838-5.628.706,5.207-2.971,10.931-3.4,16.867,2.3-4.275,2.683-10.464,5.682-14.047.842.247-.226.713,0,1.691,3.972-6.015,7.187-12.754,11.365-18.547.808,5.608-9.967,12.1-7.948,20.789-1.544,1.289-1.553,4.082-2.274,6.18,4.1-5.879,5.194-14.712,10.227-19.672,1.186-8.378,8.508-10.7,11.385-17.419-3.222,1.132-6.975,6.6-9.667,10.12.322-4.082,7.733-8.627,10.232-14.045.844.236-.226.709,0,1.678,11.791-13.263,30.86-19.318,48.891-26.422-.488-1.656-1.433.73-2.85,0,1.441-1.388,5.061-1.695,4.551-3.371,43.367-9.909,85.85,15.5,104.586,42.151.35-1.209-3.437-8.822-4.541-6.745-5.259-15.119-20.727-24.792-34.11-32.6,7.443.859,19.84,10.861,27.281,11.815-1.168-3.929-5.4-4.681-9.093-7.3,4.38-.952,7.519,7.155,12.5,5.615-.077.29,1.818,4.348,2.844,1.691,18.292,18.8,33.685,46.792,35.8,84.3,1.012,17.722-2.87,31.337-7.381,46.088,1.682-.6.716-3.794,2.836-3.955Zm-194.919-3.276,1.776-1c-.429,3.155,1.614,6.214,3.936,9.2-.056-.614-.881-1.435-.645-2.109a36.011,36.011,0,0,1,3.386,5.641,23.238,23.238,0,0,1,2.015,3.059.837.837,0,0,1-.453-.215,11.334,11.334,0,0,0,6.128,5.86,55.735,55.735,0,0,1-5.284-9.127c-2.814-2.022-4.9-4.013-5.033-7.364a71.809,71.809,0,0,1-7.01-11.355,14.185,14.185,0,0,0,1.182,7.42Zm6.12,1.085c-.565.307-.595.859-.281,1.551a12.8,12.8,0,0,1,.281-1.541Zm12.579,22.985a.621.621,0,0,1,.106,0,1.319,1.319,0,0,0-.1-.131.851.851,0,0,1,0,.143Zm.8-5.861a39.95,39.95,0,0,0-7.46-6.072c1.186,2.55,2.363,4.726,3.557,3.712,1.646,1.031,1.459,3.972,3.9,2.376ZM453.3,364.826a1.991,1.991,0,0,0-.086-.673.581.581,0,0,0-.058-.107,1.573,1.573,0,0,0-.176-.322C453.082,364.091,453.194,364.482,453.3,364.826Zm34.784,57.43a10.144,10.144,0,0,0-3.205-3.91C484.821,420.078,486.728,421.057,488.079,422.256Zm21.967-23.486c-.43-.513-.8-1.033-1.207-1.542-.183-.039-.359-.073-.535-.114l-.645.644A15.8,15.8,0,0,0,510.046,398.77Zm9.452,20.255c.481-2.021-3.452-2.4-5.237-3.572.464,1.673,2.964,2.586,5.239,3.572Zm36.767,16.435c-.333-1.871-3.007-.507-4.373-1.34C552.222,436,554.912,434.622,556.265,435.46Zm16.569-18.5c3.374.286,5.209,1.863,8.422.679.389-.986-1.551-1.123-.859-2.223,7.089-1.289,17.316.644,19.707-3.532a6.2,6.2,0,0,0,3.948.583,9.034,9.034,0,0,1,1.306-.714,4.911,4.911,0,0,0,1.289-1.877c2.926,1.523,4.531-.43,6.659-1.016.484-.43.982-.859,1.425-1.326a.953.953,0,0,0-.681-.272c-.039,0-.078.023-.11.023a1.609,1.609,0,0,0-.629.179c-.769.582-1.528,1.144-2.29,1.718.5-.43,1.046-.891,1.59-1.289a5.9,5.9,0,0,1,.644-.429c-.032.023-.056.047-.084.068.039-.021.077-.049.114-.073h-.028c16.5-12.73,32.39-33.184,36.226-60.242.017-.086.039-.159.047-.238.265-1.934.43-3.895.578-5.88.028-.363.086-.7.1-1.074.118-1.933.123-3.933.118-5.935,0-.43.035-.84.024-1.267-.043-1.9-.189-3.839-.348-5.785-.049-.572-.047-1.122-.1-1.691-.254-2.539-.606-5.119-1.074-7.744a87.041,87.041,0,0,0-27.281-50.015c-3.038,1.1.191-1.1-2.847,0-2.485-2.017-5.293-5.37-7.961-6.747-25.225-13.086-61.092-4.971-80.711,10.12-.971.215-1.074-.43-1.145-1.124-3.854,7.048-12.629,9.237-15.344,17.417-.819-.12-.2-1.671-1.139-1.684-3.222,4.1-3.995,8.333-7.383,12.926a.52.52,0,0,0,.127.3c.015.019.034.019.047.028a.2.2,0,0,0,.121.024.22.22,0,0,0,.079-.028.469.469,0,0,0,.075-.058.212.212,0,0,0,.058-.084.36.36,0,0,0,.062-.178,1.1,1.1,0,0,1-.042.161h0c-.028.148-.091.311-.127.468-.131.494-.26,1-.43,1.5-.041.107-.088.225-.127.341-1.37,3.927-3.785,8.253-4.99,12.556-.015.049-.034.1-.045.144a20.181,20.181,0,0,0-.492,2.258,42.816,42.816,0,0,1,1.7-12.371c4.845-16.786,19.254-29.46,32.407-38.216,1.618,1.272,11.733-4.3,17.054-7.3a49.447,49.447,0,0,1,19.9-7.3c-8.378-1.489-15.866,3.749-22.173,3.931.15-2.921.758-2.477,1.719-3.931-5.051-.309-10.883,3.476-15.351,5.615,5.3-4.872,12.7-7.675,20.463-10.111-1.224-2.4-4.307,1.255-6.822,1.124.053-1.45,2.217-.8,2.279-2.25-1.669-.141-1.751,1.276-3.411,1.126.807-2.208,3.924-2.107,5.686-3.375-22.493,3.482-38.959,21.512-52.3,37.663.587,1.075,2.258-1.48,2.844-2.255.114,2.23-6.4,7.482-7.383,12.362,6.975-9.954,13.548-20.312,22.736-28.1,1.01.416.075,1.026,0,1.69,2.578.49,1.33-2.807,3.409-2.807-.687,3.815-4,5.037-5.117,8.429,2.432-.6,2.138-3.88,5.686-3.368-.674,3.265-4.8,3.121-4.547,7.3-3.354-.127-4.488,1.934-4.55,5.059-4.833.43-7.259,10.444-11.366,16.3-1.306.178-.644-1.624-1.718-1.687-2.4,2.417-1.719,4.726-2.84,7.867-3.2-1.933-4.172,10.253-6.82,15.174,1.974-2.339.758,4.039.567,5.626-1.235.09-.254-1.991-.567-2.814a5.052,5.052,0,0,0-1.139,3.938c.668-.1,1.014.12,1.139.562,1.795.271.214-2.792,2.27-2.255-.5.975-.722,3.325.574,1.693a131.415,131.415,0,0,0,2.84,27.53c-2.2-3.824-2.443-9.572-3.985-14.044A43.914,43.914,0,0,0,505.587,371c-.252.827-.5-.053-1.143,0,.608,1.841,2.633,2.277,3.418,3.936-1.848-.4-5.893-1.21-7.4-4.49,2.279,6.941,11.037,12.322,17.056,17.417a26.023,26.023,0,0,1-8.1-3.007c.039.068.06.139.1.215-.118-.121-.215-.228-.325-.348-.3-.17-.6-.342-.908-.525a.222.222,0,0,1,0,.063c-.039-.045-.076-.092-.11-.14a34.227,34.227,0,0,1-12.813-14.8c-2.411,1.5.15,2.546.526,4.355a.772.772,0,0,1,.024-.108c2.137,7.248,8.442,7.471,13.788,11.858,4.679,9.51,16.345,17.329,28.407,21.561-3.486-3.235-8.685-5.82-11.31-9.375a135.4,135.4,0,0,0,24.212,13.907c-2.043.492.215,1.268,1.321,1.21-.352,2.079-2.531-.615-3.007,1.119.352.29.406.7.049,1.25a5.178,5.178,0,0,0,4.081.61c-.623-.627-2.949-.61-2.363-1.671,1.545.477,7.906,2.019,4.941,2.825,5.643-.346,17.262,3.787,16.813.1ZM626.09,402.48c-4.457,2.054-6.782,5.729-9.559,8.807.333-.047.672-.088,1.018-.107a55.787,55.787,0,0,0,8.543-8.7Zm-38.3,13.155c.881,2.239,3.727.058,5.37.544-.622-1.541-3.617.219-5.368-.544Zm.346,8.782c-2.711-1.455-7.686.859-11.43.446,2.775,1.62,7.888-.337,11.432-.446Zm7.441-3.223c.453-.345.956-.693,1.452-1.035-4.988,1.012-10.036,1.837-15.056,2.748,4.4.99,10.865-1.85,13.606-1.723Zm-2.408,1.777a25.728,25.728,0,0,1,9.237-.614c2.711-1.908,5.443-3.807,8.135-5.742a96.315,96.315,0,0,1-9.295,2.62,8.068,8.068,0,0,0-2.442,2.928c-1.944-1.267,1.587-1.555,1.677-2.743-.086.02-.169.047-.251.062-2.122,1.135-4.468,2.045-6.543,3.24.406-.365.885-.726,1.342-1.074-1.136.243-2.369.659-1.858,1.312Zm46.561-26.1c-9.411,10.859-21.574,19.015-35.066,25.853a18.307,18.307,0,0,1,2.973.859c11.939-7.688,23.651-15.6,32.095-26.723Zm-9.667,41.588c-.346.1-.782.1-.984.352.335-.133.662-.258.986-.361Z" transform="translate(-449.684 -217.158)" fill="#424c8d" fill-rule="evenodd"/>
</svg>
