<svg xmlns="http://www.w3.org/2000/svg" viewBox="0 0 249.76 68.19"><defs><style>.cls-1,.cls-2{fill:#fff;}.cls-2{fill-rule:evenodd;}</style></defs><g id="Capa_2" data-name="Capa 2"><g id="Layer_1" data-name="Layer 1"><g id="Group_5350" data-name="Group 5350"><path id="Path_2911" data-name="Path 2911" class="cls-1" d="M131.27,55.69H103.15V11.26h28.12v6.37H111V30.31h17.52v6.35H111V49.21h20.3Z"/><path id="Path_2912" data-name="Path 2912" class="cls-1" d="M136.45,0l29.87,42.14V11.26h7.79V68.19L144.17,25.46V55.69h-7.72Z"/><path id="Path_2913" data-name="Path 2913" class="cls-1" d="M192.61,56.42a15,15,0,0,1-5.06-.84,16.41,16.41,0,0,1-4.37-2.33,18.37,18.37,0,0,1-3.57-3.53A24.06,24.06,0,0,1,177,45.35l5.46-4.51a14.56,14.56,0,0,0,1.64,2.8,27.4,27.4,0,0,0,2.51,3A14.92,14.92,0,0,0,189.51,49a6.07,6.07,0,0,0,3.1.95,10.56,10.56,0,0,0,3.9-.62,6.73,6.73,0,0,0,2.37-1.57A4.83,4.83,0,0,0,200,45.82a6.37,6.37,0,0,0,.29-1.78,9,9,0,0,0-.18-1.79,5.58,5.58,0,0,0-1-2.11,10.25,10.25,0,0,0-2.44-2.3,22.21,22.21,0,0,0-4.55-2.33,58.55,58.55,0,0,1-6.92-3.31A20.47,20.47,0,0,1,181,29.06a9.27,9.27,0,0,1-2.19-3.2,9.87,9.87,0,0,1-.62-3.53,12.5,12.5,0,0,1,.77-4.15,10.94,10.94,0,0,1,2.47-4,13.3,13.3,0,0,1,4.52-3,18.32,18.32,0,0,1,7-1.17,15,15,0,0,1,9.26,2.74,17.29,17.29,0,0,1,5.6,7.68l-6.62,2.11q-2.26-5.75-8.24-5.75A8,8,0,0,0,188,18.11a4,4,0,0,0-1.6,3.27,3.35,3.35,0,0,0,.85,2.23,9.7,9.7,0,0,0,2.29,1.89A24.67,24.67,0,0,0,193,27.25c1.28.56,2.68,1.15,4.18,1.78a25.55,25.55,0,0,1,6,3.5,14,14,0,0,1,3.28,3.72A10.76,10.76,0,0,1,207.77,40a23.12,23.12,0,0,1,.29,3.43,13.19,13.19,0,0,1-.73,3.93,12.43,12.43,0,0,1-2.48,4.3A13.65,13.65,0,0,1,200.11,55,18,18,0,0,1,192.61,56.42Z"/><path id="Path_2914" data-name="Path 2914" class="cls-1" d="M241.53,55.69l-5.18-12H220c-.82,1.9-1.69,3.92-2.59,6.09s-1.73,4.14-2.51,5.93h-8.16L228.2,6.6l21.56,49.09Zm-7.8-18.5c-.53-1.31-1-2.46-1.42-3.46s-.81-2-1.2-2.95-.81-2-1.27-3.13-1-2.5-1.64-4.15q-1.3,3.27-2.7,6.59c-.92,2.21-1.87,4.57-2.84,7.1Z"/><path id="Path_2915" data-name="Path 2915" class="cls-2" d="M25.22,5.88c-.16.37-.81.25-1.32.27C24,5.69,24.76,6,25.22,5.88Zm8.86-.68c-.46-.06-1.14-.54-1.34-.13.5.13,1.08.43,1.34.13Zm-8,.12c-.35-.11-1.13-.24-1.32.39.53-.31.95.08,1.32-.39Zm4.75.39a6.12,6.12,0,0,0-3.56.39c.08.07.63.3.66,0-.65-.06.42-.25.66-.26-.1.55,2,.25,2.24-.13ZM14.56,12.1c0-.37.43-.36.52-.65C14.69,11.46,14,11.92,14.56,12.1ZM46,28.79a13.72,13.72,0,0,0,.26,3A7.41,7.41,0,0,0,46,28.79Zm-24-22.43c.86-.28,1.77-.52,2.64-.78A4.29,4.29,0,0,0,21.94,6.36Zm6.33.13c-1.11-.1-1.73.29-2.77.26-.41.38-1.28.3-1.71.65C25.32,7.14,26.66,6.68,28.27,6.49ZM10.2,13.92c0,.2-.56.55-.26.66a24.66,24.66,0,0,1,7.52-6.26A19.88,19.88,0,0,0,9.15,15,4.55,4.55,0,0,1,10.2,13.92Zm33.9-3.26c.59.33,1.46,1.09.8.53-.06,0-.41-.72-.8-.53ZM8.89,13.4c.9-.14,1.34-1.7,1.68-2.12a6.59,6.59,0,0,0-1,1.08V12c-.62,0-.6.7-.92,1C9.08,12.9,9.07,13.21,8.89,13.4Zm1.68-2.12.16-.1C10.68,11.18,10.63,11.22,10.57,11.28ZM13.37,13c0-.44,1.05-.6.66-1C14,12.44,13,12.58,13.37,13Zm8,.52c-.51,0-.66.66-.92.13-.23.27.1.26-.13.53A2.19,2.19,0,0,0,21.41,13.53ZM10.6,15.62c.25-.49,1.16-1,1.05-1.43C11.26,14.53,10.55,15.26,10.6,15.62ZM8.36,16c-.25.41-1,1-.79,1.43.23-.42.9-1.09.79-1.43ZM6.11,21.88c.28-1,1.2-2.11,1.32-2.87-.44.86-1.3,2-1.32,2.87Zm2-2c-.1.47-.88.95-.52,1.44,0-.55.72-1.11.52-1.44Zm35.35,2.87c0-.37-.52-.92-.4-.65s.51,1.4.4.65Zm.13.78c.49.65.52,1.75,1.06,2.35C44.33,25.17,44.07,23.7,43.57,23.57ZM43.05,42a18.82,18.82,0,0,0,2.1-13c.35.08.48-.05.4-.39-.78-.27-.48-1.61-.92-2.22v.4c2,7.12-.51,14.86-4.48,18.51C41.3,44.71,42.07,43.63,43.05,42Zm-30.6-3.39c.18.43.49,1.42.92,1.18C12.9,39.52,12.88,38.84,12.45,38.57ZM14,41.44c0,.4.62.85.79.65-.35-.13-.44-.52-.79-.65Zm26.51,3.91a3.45,3.45,0,0,0-1.72,1.43A2.49,2.49,0,0,1,40,46.13c-.43-.35.49-.46.53-.78Zm-1.32,1.3c-.15.38-1.2.55-.92.92.14-.38,1.28-.46.92-.92Zm-7.78,8.22c.43-.06,1.32-.34,1.18-.52-.48.19-.89,0-1.18.52ZM27.88,5.19c0-.2,0-.46.26-.39s-.16.2.13.39c1.29-.43,2.21,0,3.56-.27-.64,0-.67-.11-.4-.52a5.22,5.22,0,0,0-4.74.92C27.08,5.27,27.65,5,27.88,5.19Zm-14,38a.2.2,0,0,0,0,.08l.14.12Zm1.53,1.66c.2.37.63,1,1,1a2.18,2.18,0,0,0-1-1ZM34.74,55c-.07,0-.13.05-.13.12l.14-.11h0Zm19.78-14c-.67,1.25-.87,3-2,3.78,0,.26.36.17.27.52a26.12,26.12,0,0,1-4.62,6.13c.89.28-1.42,1.19-1.58,2.09a.91.91,0,0,0-.79,0c-.3,1.31-2.17,1.07-2.51,2.35-3,1.37-5.54,2.66-9.5,3.26,3-1.17,6.45-1.89,8.7-3.79-.16-.28-.54.33-.92.26v0c-1.37.53-3,1.71-5.15,2.24,2.8-1.66,5.9-3,8.05-5.35-.75.09-.86.8-1.58.92a28.73,28.73,0,0,0,5.93-6.13c-1.47,1.59-3.4,3.86-5.67,5.08.2-.57.92-.66,1.19-1.17-2.47,1.69-4.76,3.56-7.78,4.7,1.4-1,3.16-1.57,4.35-2.74-1.5.43-3.26,1.73-5,2.34-.14-.44,1.14-.6,1.58-.91-1.45,0-2.81,1.22-4.48,1.44a11.87,11.87,0,0,1,2-.92c0-.1-.15-.13-.26-.11h0c1.5-1.31,3.92-2.41,5.75-3.85a9.38,9.38,0,0,0,1.1-1A48.09,48.09,0,0,1,37,52.86c.17.09.34,0,.31.14a5,5,0,0,0-1.37.26l-.13.05h0a4.86,4.86,0,0,1-2.48.5,15.78,15.78,0,0,0,2.45-.65c-.12-.17-.54.16-1,.16l.68-.44c-1.24.3-2.31,1-3.83.59-1.54.58-3.54,0-5.19.26.52.05,1.12.31,1.54.12,1.67,1.24,4.09-.39,5.21.32-1.64.32-3.39.35-5,.6.18.14.39,0,.36.16-1.06.28-2.42-.23-3.55-.16,1.31.48,2.89.26,3.93.9a3,3,0,0,0-1.47.06c.18.17.66-.13.6.27-1.58,0-3.4-.55-4.91-.34a15.11,15.11,0,0,0,4.1.84c1,.08,2.3-.27,2.9.29-.81.08-1.06.66-2,0-.25.82-.78-.26-1,.28.65.35,2.17-.08,2.92.58a8.12,8.12,0,0,0-2.31,0c1.22.77,2.46.19,3.52.86-1,.28-2.33-.37-3.17.3a10.7,10.7,0,0,1,2.71.07c-1.43.43-3.24-.13-4.78,0-.68-.59-1.55-.35-1.54-.11a5.79,5.79,0,0,0-2.85-.42c-5-1.09-9.57-4.37-12.37-6.82,1.81,2.42,5.12,4.19,7.73,5.89a20.56,20.56,0,0,1-6-3.43.34.34,0,0,0-.21-.18l.21.18a.32.32,0,0,1,0,.21A24.15,24.15,0,0,1,4.6,46.37a24,24,0,0,1-4-8.32.39.39,0,0,1,.19.12h0A20.16,20.16,0,0,1,0,33.79a17.48,17.48,0,0,1,0-2.4c.5,3,.75,6.76,2.24,9.39-1.1-3.53-2.24-9-1.19-14a5.73,5.73,0,0,0,.79-2.74c.21.11.8-.57.53-1.43.76-1.33,1-3.19,2-4.3a11.14,11.14,0,0,1-1.05,2.49c1-.49.91-2,1.58-2.74.18,1.23-.87,2.11-.66,3.52a7.59,7.59,0,0,0,.92-2.08c.3.94-.72,2.13-.66,2.86.59,0-.2-.89.66-.78-.25-1.14.39-1.12.79-1.83.27.78-.59,1.82-.92,2.74a14.45,14.45,0,0,0-.92,4C5,25.3,5.16,23.41,5.85,22c.39.11-.08.42,0,.65a3,3,0,0,0,.66-1.3c.16,1.2-.69,2.53-.79,3.91.53-1,.62-2.43,1.32-3.26.2.06,0,.16,0,.39.92-1.4,1.67-3,2.63-4.3.19,1.3-2.31,2.81-1.84,4.82-.36.3-.36.95-.53,1.44,1-1.37,1.21-3.42,2.37-4.57.28-1.94,2-2.48,2.64-4-.74.26-1.61,1.53-2.24,2.35.07-1,1.8-2,2.37-3.26.2.06,0,.17,0,.39,2.74-3.08,7.16-4.48,11.35-6.13-.12-.38-.34.17-.66,0,.33-.32,1.17-.39,1.05-.78C34.24,6,44.1,11.92,48.45,18.1c.08-.28-.8-2.05-1.05-1.56C46.18,13,42.59,10.78,39.48,9c1.73.2,4.6,2.52,6.33,2.74-.27-.91-1.25-1.09-2.11-1.69,1-.23,1.75,1.66,2.9,1.3,0,.06.42,1,.66.39a29.94,29.94,0,0,1,8.31,19.56A28.82,28.82,0,0,1,53.86,42c.39-.13.17-.87.66-.91ZM9.29,40.29l.42-.23a3,3,0,0,0,.91,2.13c0-.14-.2-.33-.15-.49A8.23,8.23,0,0,1,11.25,43a5.45,5.45,0,0,1,.47.71.21.21,0,0,1-.11,0A2.68,2.68,0,0,0,13,45a12.85,12.85,0,0,1-1.23-2.12,2.2,2.2,0,0,1-1.17-1.71A17,17,0,0,1,9,38.57a3.28,3.28,0,0,0,.27,1.72Zm1.42.25c-.13.07-.13.2-.06.36a2.25,2.25,0,0,1,.06-.36Zm2.92,5.34h0l0,0v0Zm.19-1.36a9,9,0,0,0-1.73-1.41c.27.59.54,1.1.82.86.38.23.34.91.91.54Zm-13-6.08a.88.88,0,0,0,0-.16l0,0,0-.08C.79,38.27.81,38.36.84,38.44ZM8.91,51.77a2.37,2.37,0,0,0-.75-.91c0,.4.44.63.75.91ZM14,46.32,13.73,46l-.13,0-.14.15a4.56,4.56,0,0,0,.55.24ZM16.2,51c.11-.47-.8-.56-1.21-.83.1.39.68.6,1.21.83Zm8.54,3.81c-.08-.43-.7-.12-1-.31C23.8,55,24.42,54.64,24.74,54.83Zm3.84-4.29c.78.06,1.21.43,2,.16.09-.23-.36-.27-.2-.52,1.64-.3,4,.15,4.57-.82a1.45,1.45,0,0,0,.92.13,2.11,2.11,0,0,1,.3-.16,1.23,1.23,0,0,0,.3-.44c.67.36,1-.1,1.54-.23.11-.1.23-.2.33-.31a.19.19,0,0,0-.16-.06h0a.42.42,0,0,0-.15,0l-.53.4c.11-.1.24-.2.37-.3l.15-.1,0,0,0,0h0a21.67,21.67,0,0,0,8.4-14s0,0,0-.05c.07-.45.1-.9.14-1.37a1.94,1.94,0,0,0,0-.24c0-.45,0-.92,0-1.38,0-.1,0-.2,0-.29,0-.44,0-.9-.09-1.35,0-.13,0-.26,0-.39-.06-.59-.14-1.19-.25-1.8a20.2,20.2,0,0,0-6.33-11.6c-.7.26,0-.25-.66,0a13.76,13.76,0,0,0-1.85-1.56c-5.85-3-14.17-1.16-18.72,2.34-.23.05-.25-.1-.27-.26-.89,1.64-2.93,2.15-3.56,4-.19,0-.05-.38-.26-.39-.75.95-.93,1.94-1.72,3l0,.07h0s0,0,0,0h0l0,0h0a.09.09,0,0,0,0-.05s0,0,0,0h0a.45.45,0,0,1,0,.11c0,.12-.06.23-.1.35s0,.05,0,.08c-.31.91-.87,1.91-1.15,2.91,0,0,0,0,0,0a4.37,4.37,0,0,0-.12.52,9.62,9.62,0,0,1,.4-2.87c1.12-3.9,4.46-6.84,7.51-8.87.38.3,2.73-1,4-1.69A11.43,11.43,0,0,1,28,12c-2-.34-3.68.87-5.15.91,0-.67.18-.57.4-.91-1.17-.07-2.52.81-3.56,1.3a12.51,12.51,0,0,1,4.75-2.34c-.29-.56-1,.29-1.58.26,0-.34.51-.19.52-.53-.38,0-.4.3-.79.27.19-.52.91-.49,1.32-.79-5.22.81-9,5-12.13,8.74.13.25.52-.34.66-.52,0,.52-1.49,1.73-1.72,2.87A33.15,33.15,0,0,1,16,14.71c.23.1,0,.23,0,.39.6.11.31-.65.79-.65-.16.88-.93,1.17-1.19,1.95.57-.14.5-.9,1.32-.78-.16.76-1.11.72-1,1.69-.78,0-1.05.45-1.06,1.18-1.12.1-1.68,2.42-2.64,3.78-.3,0-.14-.38-.4-.39-.56.56-.4,1.09-.66,1.82-.74-.44-1,2.38-1.58,3.52.46-.54.18.94.13,1.31-.28,0-.06-.46-.13-.65a1.15,1.15,0,0,0-.26.91c.15,0,.23,0,.26.13.42.06.05-.65.53-.52-.12.22-.17.77.13.39a31.15,31.15,0,0,0,.66,6.39,19.51,19.51,0,0,1-.92-3.26,10.18,10.18,0,0,0,3,7.95c-.06.2-.11,0-.26,0,.14.43.61.53.79.92a2.3,2.3,0,0,1-1.72-1c.53,1.61,2.56,2.86,4,4a6.37,6.37,0,0,1-1.88-.7.08.08,0,0,1,0,0l-.07-.08-.21-.12h0l0,0a8,8,0,0,1-3-3.43c-.56.35,0,.59.12,1v0c.5,1.69,2,1.74,3.2,2.76,1.08,2.2,3.79,4,6.59,5A21.89,21.89,0,0,1,17.89,46a31.36,31.36,0,0,0,5.62,3.23c-.47.11,0,.29.31.28-.08.48-.59-.14-.7.26.08.07.09.16,0,.29a1.18,1.18,0,0,0,.95.14c-.14-.15-.68-.14-.55-.39.36.11,1.84.47,1.15.66,1.31-.08,4,.88,3.9,0Zm12.36-3.36a7,7,0,0,0-2.22,2l.24,0a13.51,13.51,0,0,0,2-2Zm-8.89,3c.2.52.87,0,1.25.13-.15-.36-.85,0-1.25-.13Zm.08,2c-.63-.34-1.78.2-2.65.1.64.38,1.83-.08,2.65-.1Zm1.73-.75.34-.24c-1.16.23-2.33.42-3.5.64,1,.23,2.52-.43,3.16-.4Zm-.56.41a5.73,5.73,0,0,1,2.14-.14l1.89-1.33c-.71.23-1.43.44-2.15.6a1.87,1.87,0,0,0-.57.68c-.45-.29.37-.36.39-.63h-.06c-.49.26-1,.48-1.52.75l.31-.25c-.27.06-.55.16-.43.31Zm10.8-6.06a26.15,26.15,0,0,1-8.14,6,5,5,0,0,1,.69.2C39.42,50.29,42.14,48.46,44.1,45.87Zm-2.24,9.65c-.08,0-.18,0-.23.09Z"/><path id="Path_2916" data-name="Path 2916" class="cls-1" d="M97.32,46.4l-3-3.06h0l-.57-.59a15.68,15.68,0,1,1-3.43-21.92,15.84,15.84,0,0,1,3.5,3.53l5-5.46a23,23,0,1,0-3.15,32.36,22.44,22.44,0,0,0,3.19-3.2Z"/></g></g></g></svg>