<svg xmlns="http://www.w3.org/2000/svg" width="998.563" height="1244.769" viewBox="0 0 998.563 1244.769">
  <g id="Grupo_642" data-name="Grupo 642" transform="translate(-183.718 -501.848)">
    <rect id="Rectángulo_12" data-name="Rectángulo 12" width="279.697" height="41.788" rx="20.894" transform="translate(426.442 1426.583)" fill="#24a31a"/>
    <circle id="Elipse_5" data-name="Elipse 5" cx="68.023" cy="68.023" r="68.023" transform="translate(183.718 854.121)" fill="#28347d"/>
    <circle id="Elipse_6" data-name="Elipse 6" cx="68.023" cy="68.023" r="68.023" transform="translate(183.718 573.456)" fill="#28347d"/>
    <text id="Ley" transform="translate(208.531 911.908)" fill="#fff" font-size="15.438" font-family="Roboto-Bold, Roboto" font-weight="700"><tspan x="30.991" y="15">Ley</tspan></text>
    <line id="Línea_37" data-name="Línea 37" x2="45.123" transform="translate(325.601 922.144)" fill="none" stroke="#28347d" stroke-linecap="round" stroke-width="1"/>
    <line id="Línea_38" data-name="Línea 38" x2="45.123" transform="translate(325.601 640.824)" fill="none" stroke="#28347d" stroke-linecap="round" stroke-width="1"/>
    <line id="Línea_39" data-name="Línea 39" y2="165.623" transform="translate(370.725 839.332)" fill="none" stroke="#28347d" stroke-linecap="round" stroke-width="1"/>
    <line id="Línea_40" data-name="Línea 40" y2="53.651" transform="translate(370.725 613.999)" fill="none" stroke="#28347d" stroke-linecap="round" stroke-width="1"/>
    <line id="Línea_41" data-name="Línea 41" x2="50.578" transform="translate(370.725 839.332)" fill="none" stroke="#28347d" stroke-linecap="round" stroke-width="1"/>
    <circle id="Elipse_7" data-name="Elipse 7" cx="68.023" cy="68.023" r="68.023" transform="translate(183.718 1403.771)" fill="#28347d"/>
    <text id="Segmento" transform="translate(208.531 1461.579)" fill="#fff" font-size="15.438" font-family="Roboto-Bold, Roboto" font-weight="700"><tspan x="7.928" y="15">Segmento</tspan></text>
    <line id="Línea_42" data-name="Línea 42" x2="45.123" transform="translate(325.601 1471.793)" fill="none" stroke="#28347d" stroke-linecap="round" stroke-width="1"/>
    <line id="Línea_43" data-name="Línea 43" y2="494.259" transform="translate(370.725 1230.848)" fill="none" stroke="#28347d" stroke-linecap="round" stroke-width="1"/>
    <line id="Línea_44" data-name="Línea 44" x2="50.578" transform="translate(370.725 1230.848)" fill="none" stroke="#28347d" stroke-linecap="round" stroke-width="1"/>
    <line id="Línea_45" data-name="Línea 45" x2="50.578" transform="translate(370.725 1284.5)" fill="none" stroke="#28347d" stroke-linecap="round" stroke-width="1"/>
    <line id="Línea_46" data-name="Línea 46" x2="50.578" transform="translate(370.725 1338.151)" fill="none" stroke="#28347d" stroke-linecap="round" stroke-width="1"/>
    <line id="Línea_47" data-name="Línea 47" x2="50.578" transform="translate(370.725 1391.802)" fill="none" stroke="#28347d" stroke-linecap="round" stroke-width="1"/>
    <line id="Línea_48" data-name="Línea 48" x2="50.578" transform="translate(370.725 1447.477)" fill="none" stroke="#28347d" stroke-linecap="round" stroke-width="1"/>
    <line id="Línea_49" data-name="Línea 49" x2="50.578" transform="translate(370.725 1503.616)" fill="none" stroke="#28347d" stroke-linecap="round" stroke-width="1"/>
    <line id="Línea_50" data-name="Línea 50" x2="50.578" transform="translate(370.725 1560.711)" fill="none" stroke="#28347d" stroke-linecap="round" stroke-width="1"/>
    <line id="Línea_51" data-name="Línea 51" x2="50.578" transform="translate(370.725 1614.362)" fill="none" stroke="#28347d" stroke-linecap="round" stroke-width="1"/>
    <line id="Línea_52" data-name="Línea 52" x2="50.578" transform="translate(370.725 1671.457)" fill="none" stroke="#28347d" stroke-linecap="round" stroke-width="1"/>
    <line id="Línea_53" data-name="Línea 53" x2="50.578" transform="translate(370.725 1725.108)" fill="none" stroke="#28347d" stroke-linecap="round" stroke-width="1"/>
    <line id="Línea_54" data-name="Línea 54" x2="50.578" transform="translate(370.725 892.983)" fill="none" stroke="#28347d" stroke-linecap="round" stroke-width="1"/>
    <line id="Línea_55" data-name="Línea 55" x2="50.578" transform="translate(370.725 946.635)" fill="none" stroke="#28347d" stroke-linecap="round" stroke-width="1"/>
    <line id="Línea_56" data-name="Línea 56" x2="50.578" transform="translate(370.725 1004.956)" fill="none" stroke="#28347d" stroke-linecap="round" stroke-width="1"/>
    <path id="Trazado_18" data-name="Trazado 18" d="M8944.1,595.128H8842.709a18.871,18.871,0,0,0,0,37.741H8944.1a18.871,18.871,0,1,0,0-37.741Z" transform="translate(-8058.697)" fill="#30d9cb"/>
    <path id="Trazado_19" data-name="Trazado 19" d="M8944.1,501.848H8842.709a18.87,18.87,0,0,0,0,37.741H8944.1a18.87,18.87,0,1,0,0-37.741Z" transform="translate(-8058.697)" fill="#28347d"/>
    <path id="Trazado_20" data-name="Trazado 20" d="M8944.1,648.779H8842.709a18.871,18.871,0,0,0,0,37.742H8944.1a18.871,18.871,0,1,0,0-37.742Z" transform="translate(-8058.697)" fill="#30d9cb"/>
    <text id="NIVEL" transform="translate(834.71 526.984)" fill="#fff" font-size="15.438" font-family="Roboto-MediumItalic, Roboto" font-weight="500" font-style="italic" style="isolation: isolate"><tspan x="-21.096" y="0">NIVEL</tspan></text>
    <text id="Estatutarios" transform="translate(208.531 630.588)" fill="#fff" font-size="15.438" font-family="Roboto-Bold, Roboto" font-weight="700"><tspan x="1.11" y="15">Estatutarios</tspan></text>
    <path id="Trazado_21" data-name="Trazado 21" d="M8745.965,595.128H8504.009a18.871,18.871,0,1,0,0,37.741h241.956a18.871,18.871,0,1,0,0-37.741Z" transform="translate(-8058.697)" fill="#24a31a"/>
    <path id="Trazado_22" data-name="Trazado 22" d="M8745.965,648.779H8504.009a18.871,18.871,0,1,0,0,37.742h241.956a18.871,18.871,0,1,0,0-37.742Z" transform="translate(-8058.697)" fill="#24a31a"/>
    <text id="Comité_Auditoria" data-name="Comité Auditoria" transform="translate(566.291 619.368)" fill="#fff" font-size="15.438" font-family="Roboto-Medium, Roboto" font-weight="500"><tspan x="-58.119" y="0">Comité Auditoria</tspan></text>
    <text id="Junta_Directiva" data-name="Junta Directiva" transform="translate(834.709 619.368)" fill="#28347d" font-size="15.438" font-family="Roboto-Medium, Roboto" font-weight="500"><tspan x="-52.33" y="0">Junta Directiva</tspan></text>
    <text id="Junta_Directiva-2" data-name="Junta Directiva" transform="translate(834.709 673.019)" fill="#28347d" font-size="15.438" font-family="Roboto-Medium, Roboto" font-weight="500"><tspan x="-52.33" y="0">Junta Directiva</tspan></text>
    <text id="Comité_Compensación" data-name="Comité Compensación" transform="translate(566.291 672.162)" fill="#fff" font-size="15.438" font-family="Roboto-Medium, Roboto" font-weight="500"><tspan x="-78.333" y="0">Comité Compensación</tspan></text>
    <line id="Línea_57" data-name="Línea 57" x2="50.578" transform="translate(370.725 613.999)" fill="none" stroke="#28347d" stroke-linecap="round" stroke-width="1"/>
    <line id="Línea_58" data-name="Línea 58" x2="50.578" transform="translate(370.725 667.65)" fill="none" stroke="#28347d" stroke-linecap="round" stroke-width="1"/>
    <circle id="Elipse_8" data-name="Elipse 8" cx="68.023" cy="68.023" r="68.023" transform="translate(183.718 1051.121)" fill="#28347d"/>
    <text id="Contractual" transform="translate(198.718 1109.037)" fill="#fff" font-size="15.438" font-family="Roboto-Bold, Roboto" font-weight="700"><tspan x="12.614" y="15">Contractual</tspan></text>
    <g id="Grupo_35" data-name="Grupo 35" transform="translate(-8058.697)">
      <line id="Línea_59" data-name="Línea 59" x2="45.123" transform="translate(8384.298 1119.144)" fill="none" stroke="#28347d" stroke-linecap="round" stroke-width="1"/>
      <line id="Línea_60" data-name="Línea 60" y2="53.651" transform="translate(8429.422 1092.318)" fill="none" stroke="#28347d" stroke-linecap="round" stroke-width="1"/>
      <line id="Línea_61" data-name="Línea 61" x2="50.578" transform="translate(8429.422 1092.318)" fill="none" stroke="#28347d" stroke-linecap="round" stroke-width="1"/>
      <line id="Línea_62" data-name="Línea 62" x2="50.578" transform="translate(8429.422 1145.97)" fill="none" stroke="#28347d" stroke-linecap="round" stroke-width="1"/>
    </g>
    <line id="Línea_63" data-name="Línea 63" x2="51.338" transform="translate(709.08 613.999)" fill="none" stroke="#28347d" stroke-linecap="round" stroke-width="1"/>
    <line id="Línea_64" data-name="Línea 64" x2="51.338" transform="translate(709.08 667.65)" fill="none" stroke="#28347d" stroke-linecap="round" stroke-width="1"/>
    <path id="Trazado_23" data-name="Trazado 23" d="M9220.288,595.128h-168.62a18.871,18.871,0,0,0,0,37.741h168.62a18.871,18.871,0,1,0,0-37.741Z" transform="translate(-8058.697)" fill="#fad804"/>
    <path id="Trazado_24" data-name="Trazado 24" d="M9220.288,648.779h-168.62a18.871,18.871,0,0,0,0,37.742h168.62a18.871,18.871,0,1,0,0-37.742Z" transform="translate(-8058.697)" fill="#fad804"/>
    <text id="Mixto" transform="translate(1077.282 619.368)" fill="#28347d" font-size="15.438" font-family="Roboto-Medium, Roboto" font-weight="500"><tspan x="-19.641" y="0">Mixto</tspan></text>
    <text id="Consultivo" transform="translate(1077.282 673.019)" fill="#28347d" font-size="15.438" font-family="Roboto-Medium, Roboto" font-weight="500"><tspan x="-36.903" y="0">Consultivo</tspan></text>
    <line id="Línea_65" data-name="Línea 65" x2="57.234" transform="translate(908.76 613.999)" fill="none" stroke="#28347d" stroke-linecap="round" stroke-width="1"/>
    <line id="Línea_66" data-name="Línea 66" x2="57.234" transform="translate(908.76 667.65)" fill="none" stroke="#28347d" stroke-linecap="round" stroke-width="1"/>
    <path id="Trazado_25" data-name="Trazado 25" d="M8900.146,548.552l-6.741,6.74-6.74-6.74" transform="translate(-8058.697)" fill="none" stroke="#28347d" stroke-linecap="round" stroke-width="2.5"/>
    <path id="Trazado_26" data-name="Trazado 26" d="M8677.331,501.848H8575.938a18.87,18.87,0,0,0,0,37.741h101.393a18.87,18.87,0,1,0,0-37.741Z" transform="translate(-8058.697)" fill="#28347d"/>
    <text id="NOMBRE" transform="translate(567.939 526.984)" fill="#fff" font-size="15.438" font-family="Roboto-MediumItalic, Roboto" font-weight="500" font-style="italic" style="isolation: isolate"><tspan x="-31.536" y="0">NOMBRE</tspan></text>
    <path id="Trazado_27" data-name="Trazado 27" d="M8633.375,548.552l-6.74,6.74-6.74-6.74" transform="translate(-8058.697)" fill="none" stroke="#28347d" stroke-linecap="round" stroke-width="2.5"/>
    <path id="Trazado_28" data-name="Trazado 28" d="M8374.7,501.848H8273.3a18.87,18.87,0,1,0,0,37.741H8374.7a18.87,18.87,0,1,0,0-37.741Z" transform="translate(-8058.697)" fill="#28347d"/>
    <text id="ORIGEN" transform="translate(265.303 526.984)" fill="#fff" font-size="15.438" font-family="Roboto-MediumItalic, Roboto" font-weight="500" font-style="italic" style="isolation: isolate"><tspan x="-27.314" y="0">ORIGEN</tspan></text>
    <path id="Trazado_29" data-name="Trazado 29" d="M8330.739,548.552l-6.74,6.74-6.74-6.74" transform="translate(-8058.697)" fill="none" stroke="#28347d" stroke-linecap="round" stroke-width="2.5"/>
    <path id="Trazado_30" data-name="Trazado 30" d="M9186.575,501.848H9085.183a18.87,18.87,0,1,0,0,37.741h101.393a18.87,18.87,0,1,0,0-37.741Z" transform="translate(-8058.697)" fill="#28347d"/>
    <text id="NATURALEZA" transform="translate(1077.182 526.984)" fill="#fff" font-size="15.438" font-family="Roboto-MediumItalic, Roboto" font-weight="500" font-style="italic" style="isolation: isolate"><tspan x="-47.494" y="0">NATURALEZA</tspan></text>
    <path id="Trazado_31" data-name="Trazado 31" d="M9142.619,548.552l-6.74,6.74-6.74-6.74" transform="translate(-8058.697)" fill="none" stroke="#28347d" stroke-linecap="round" stroke-width="2.5"/>
    <path id="Trazado_32" data-name="Trazado 32" d="M8944.1,820.462H8842.709a18.871,18.871,0,0,0,0,37.741H8944.1a18.871,18.871,0,1,0,0-37.741Z" transform="translate(-8058.697)" fill="#30d9cb"/>
    <path id="Trazado_33" data-name="Trazado 33" d="M8944.1,874.113H8842.709a18.871,18.871,0,0,0,0,37.741H8944.1a18.871,18.871,0,1,0,0-37.741Z" transform="translate(-8058.697)" fill="#30d9cb"/>
    <path id="Trazado_34" data-name="Trazado 34" d="M8745.965,820.462H8504.009a18.871,18.871,0,1,0,0,37.741h241.956a18.871,18.871,0,1,0,0-37.741Z" transform="translate(-8058.697)" fill="#24a31a"/>
    <path id="Trazado_35" data-name="Trazado 35" d="M8745.965,874.113H8504.009a18.871,18.871,0,1,0,0,37.741h241.956a18.871,18.871,0,1,0,0-37.741Z" transform="translate(-8058.697)" fill="#24a31a"/>
    <text id="Comité_Conciliación" data-name="Comité Conciliación" transform="translate(566.291 844.702)" fill="#fff" font-size="15.438" font-family="Roboto-Medium, Roboto" font-weight="500"><tspan x="-69.212" y="0">Comité Conciliación</tspan></text>
    <text id="Táctico" transform="translate(834.709 844.702)" fill="#28347d" font-size="15.438" font-family="Roboto-Medium, Roboto" font-weight="500"><tspan x="-25.46" y="0">Táctico</tspan></text>
    <text id="Operativo" transform="translate(834.709 898.353)" fill="#28347d" font-size="15.438" font-family="Roboto-Medium, Roboto" font-weight="500"><tspan x="-33.477" y="0">Operativo</tspan></text>
    <text id="Comité_COPASST" data-name="Comité COPASST" transform="translate(566.227 897.495)" fill="#fff" font-size="15.438" font-family="Roboto-Medium, Roboto" font-weight="500"><tspan x="-59.94" y="0">Comité COPASST</tspan></text>
    <line id="Línea_67" data-name="Línea 67" x2="51.338" transform="translate(709.08 839.332)" fill="none" stroke="#28347d" stroke-linecap="round" stroke-width="1"/>
    <line id="Línea_68" data-name="Línea 68" x2="51.338" transform="translate(709.08 892.983)" fill="none" stroke="#28347d" stroke-linecap="round" stroke-width="1"/>
    <path id="Trazado_36" data-name="Trazado 36" d="M9220.288,820.462h-168.62a18.871,18.871,0,0,0,0,37.741h168.62a18.871,18.871,0,1,0,0-37.741Z" transform="translate(-8058.697)" fill="#fad804"/>
    <path id="Trazado_37" data-name="Trazado 37" d="M9220.288,874.113h-168.62a18.871,18.871,0,0,0,0,37.741h168.62a18.871,18.871,0,1,0,0-37.741Z" transform="translate(-8058.697)" fill="#fad804"/>
    <text id="Decisorio" transform="translate(1077.282 844.702)" fill="#28347d" font-size="15.438" font-family="Roboto-Medium, Roboto" font-weight="500"><tspan x="-32.697" y="0">Decisorio</tspan></text>
    <text id="Consultivo-2" data-name="Consultivo" transform="translate(1077.282 898.353)" fill="#28347d" font-size="15.438" font-family="Roboto-Medium, Roboto" font-weight="500"><tspan x="-36.903" y="0">Consultivo</tspan></text>
    <line id="Línea_69" data-name="Línea 69" x2="57.234" transform="translate(908.76 839.332)" fill="none" stroke="#28347d" stroke-linecap="round" stroke-width="1"/>
    <line id="Línea_70" data-name="Línea 70" x2="57.234" transform="translate(908.76 892.983)" fill="none" stroke="#28347d" stroke-linecap="round" stroke-width="1"/>
    <path id="Trazado_38" data-name="Trazado 38" d="M8944.1,927.764H8842.709a18.871,18.871,0,0,0,0,37.741H8944.1a18.871,18.871,0,1,0,0-37.741Z" transform="translate(-8058.697)" fill="#30d9cb"/>
    <path id="Trazado_39" data-name="Trazado 39" d="M8745.965,927.764H8504.009a18.871,18.871,0,1,0,0,37.741h241.956a18.871,18.871,0,1,0,0-37.741Z" transform="translate(-8058.697)" fill="#24a31a"/>
    <text id="Operativo-2" data-name="Operativo" transform="translate(834.709 952.004)" fill="#28347d" font-size="15.438" font-family="Roboto-Medium, Roboto" font-weight="500"><tspan x="-33.477" y="0">Operativo</tspan></text>
    <text id="Comité_Convivencia" data-name="Comité Convivencia" transform="translate(566.291 951.146)" fill="#fff" font-size="15.438" font-family="Roboto-Medium, Roboto" font-weight="500"><tspan x="-68.639" y="0">Comité Convivencia</tspan></text>
    <line id="Línea_71" data-name="Línea 71" x2="51.338" transform="translate(709.08 946.635)" fill="none" stroke="#28347d" stroke-linecap="round" stroke-width="1"/>
    <path id="Trazado_40" data-name="Trazado 40" d="M9220.288,927.764h-168.62a18.871,18.871,0,0,0,0,37.741h168.62a18.871,18.871,0,1,0,0-37.741Z" transform="translate(-8058.697)" fill="#fad804"/>
    <text id="Consultivo-3" data-name="Consultivo" transform="translate(1077.282 952.004)" fill="#28347d" font-size="15.438" font-family="Roboto-Medium, Roboto" font-weight="500"><tspan x="-36.903" y="0">Consultivo</tspan></text>
    <line id="Línea_72" data-name="Línea 72" x2="57.234" transform="translate(908.76 946.635)" fill="none" stroke="#28347d" stroke-linecap="round" stroke-width="1"/>
    <path id="Trazado_41" data-name="Trazado 41" d="M8944.1,986.085H8842.709a18.87,18.87,0,0,0,0,37.741H8944.1a18.87,18.87,0,1,0,0-37.741Z" transform="translate(-8058.697)" fill="#30d9cb"/>
    <path id="Trazado_42" data-name="Trazado 42" d="M8745.965,986.085H8504.009a18.87,18.87,0,1,0,0,37.741h241.956a18.87,18.87,0,1,0,0-37.741Z" transform="translate(-8058.697)" fill="#24a31a"/>
    <text id="Operativo-3" data-name="Operativo" transform="translate(834.709 1010.325)" fill="#28347d" font-size="15.438" font-family="Roboto-Medium, Roboto" font-weight="500"><tspan x="-33.477" y="0">Operativo</tspan></text>
    <text id="Comité_Archivo_" data-name="Comité Archivo*" transform="translate(566.291 1009.467)" fill="#fff" font-size="15.438" font-family="Roboto-Medium, Roboto" font-weight="500"><tspan x="-56.031" y="0">Comité Archivo*</tspan></text>
    <line id="Línea_73" data-name="Línea 73" x2="51.338" transform="translate(709.08 1004.956)" fill="none" stroke="#28347d" stroke-linecap="round" stroke-width="1"/>
    <path id="Trazado_43" data-name="Trazado 43" d="M9220.288,986.085h-168.62a18.87,18.87,0,0,0,0,37.741h168.62a18.87,18.87,0,1,0,0-37.741Z" transform="translate(-8058.697)" fill="#fad804"/>
    <text id="Mixto_" data-name="Mixto*" transform="translate(1077.282 1010.325)" fill="#28347d" font-size="15.438" font-family="Roboto-Medium, Roboto" font-weight="500"><tspan x="-22.927" y="0">Mixto*</tspan></text>
    <line id="Línea_74" data-name="Línea 74" x2="57.234" transform="translate(908.76 1004.956)" fill="none" stroke="#28347d" stroke-linecap="round" stroke-width="1"/>
    <path id="Trazado_44" data-name="Trazado 44" d="M8944.1,1071.128H8842.709a18.87,18.87,0,0,0,0,37.741H8944.1a18.87,18.87,0,1,0,0-37.741Z" transform="translate(-8058.697)" fill="#30d9cb"/>
    <path id="Trazado_45" data-name="Trazado 45" d="M8745.965,1071.128H8504.009a18.87,18.87,0,1,0,0,37.741h241.956a18.87,18.87,0,1,0,0-37.741Z" transform="translate(-8058.697)" fill="#24a31a"/>
    <text id="Operativo-4" data-name="Operativo" transform="translate(834.709 1095.368)" fill="#28347d" font-size="15.438" font-family="Roboto-Medium, Roboto" font-weight="500"><tspan x="-33.477" y="0">Operativo</tspan></text>
    <text id="Comité_de_Igualdad_de_Género" data-name="Comité de Igualdad de Género" transform="translate(566.291 1094.51)" fill="#fff" font-size="15.438" font-family="Roboto-Medium, Roboto" font-weight="500"><tspan x="-103.936" y="0">Comité de Igualdad de Género</tspan></text>
    <line id="Línea_75" data-name="Línea 75" x2="51.338" transform="translate(709.08 1089.999)" fill="none" stroke="#28347d" stroke-linecap="round" stroke-width="1"/>
    <line id="Línea_76" data-name="Línea 76" x2="57.234" transform="translate(908.76 1089.999)" fill="none" stroke="#28347d" stroke-linecap="round" stroke-width="1"/>
    <path id="Trazado_46" data-name="Trazado 46" d="M8944.1,1129.449H8842.709a18.87,18.87,0,0,0,0,37.741H8944.1a18.87,18.87,0,1,0,0-37.741Z" transform="translate(-8058.697)" fill="#30d9cb"/>
    <path id="Trazado_47" data-name="Trazado 47" d="M8745.965,1129.449H8504.009a18.87,18.87,0,1,0,0,37.741h241.956a18.87,18.87,0,1,0,0-37.741Z" transform="translate(-8058.697)" fill="#24a31a"/>
    <text id="Operativo-5" data-name="Operativo" transform="translate(834.709 1153.689)" fill="#28347d" font-size="15.438" font-family="Roboto-Medium, Roboto" font-weight="500"><tspan x="-33.477" y="0">Operativo</tspan></text>
    <text id="Comité_de_Acuerdos_TLU3" data-name="Comité de Acuerdos TLU3" transform="translate(566.292 1152.831)" fill="#fff" font-size="15.438" font-family="Roboto-Medium, Roboto" font-weight="500"><tspan x="-89.923" y="0">Comité de Acuerdos TLU3</tspan></text>
    <line id="Línea_77" data-name="Línea 77" x2="51.338" transform="translate(709.08 1148.319)" fill="none" stroke="#28347d" stroke-linecap="round" stroke-width="1"/>
    <path id="Trazado_48" data-name="Trazado 48" d="M9220.288,1129.449h-168.62a18.87,18.87,0,0,0,0,37.741h168.62a18.87,18.87,0,1,0,0-37.741Z" transform="translate(-8058.697)" fill="#fad804"/>
    <text id="Mixto-2" data-name="Mixto" transform="translate(1077.282 1153.689)" fill="#28347d" font-size="15.438" font-family="Roboto-Medium, Roboto" font-weight="500"><tspan x="-19.641" y="0">Mixto</tspan></text>
    <line id="Línea_78" data-name="Línea 78" x2="57.234" transform="translate(908.76 1148.319)" fill="none" stroke="#28347d" stroke-linecap="round" stroke-width="1"/>
    <rect id="Rectángulo_13" data-name="Rectángulo 13" width="210" height="43.019" rx="21.509" transform="translate(972.282 1068.489)" fill="#fad804"/>
    <text id="Alineación_Informativo_Seguimiento" data-name="Alineación / Informativo
/ Seguimiento" transform="translate(1077.282 1087.113)" fill="#28347d" font-size="15.438" font-family="Roboto-Medium, Roboto" font-weight="500"><tspan x="-83.349" y="0">Alineación / Informativo</tspan><tspan x="-48.757" y="16">/ Seguimiento</tspan></text>
    <rect id="Rectángulo_14" data-name="Rectángulo 14" width="210" height="43.019" rx="21.509" transform="translate(972.282 1483.013)" fill="#fad804"/>
    <text id="Alineación_Informativo_Seguimiento-2" data-name="Alineación / Informativo
/ Seguimiento" transform="translate(1077.282 1501.637)" fill="#28347d" font-size="15.438" font-family="Roboto-Medium, Roboto" font-weight="500"><tspan x="-83.349" y="0">Alineación / Informativo</tspan><tspan x="-48.757" y="16">/ Seguimiento</tspan></text>
    <path id="Trazado_49" data-name="Trazado 49" d="M8944.1,1211.238H8842.709a18.87,18.87,0,0,0,0,37.741H8944.1a18.87,18.87,0,1,0,0-37.741Z" transform="translate(-8058.697)" fill="#30d9cb"/>
    <path id="Trazado_50" data-name="Trazado 50" d="M8745.965,1211.238H8504.009a18.87,18.87,0,1,0,0,37.741h241.956a18.87,18.87,0,1,0,0-37.741Z" transform="translate(-8058.697)" fill="#24a31a"/>
    <text id="Estratégico" transform="translate(834.709 1235.478)" fill="#28347d" font-size="15.438" font-family="Roboto-Medium, Roboto" font-weight="500"><tspan x="-39.281" y="0">Estratégico</tspan></text>
    <text id="RAR_para_el_segmento_Midstream" data-name="RAR para el segmento Midstream" transform="translate(566.292 1235.478)" fill="#fff" font-size="15.438" font-family="Roboto-Medium, Roboto" font-weight="500"><tspan x="-115.831" y="0">RAR para el segmento Midstream</tspan></text>
    <line id="Línea_79" data-name="Línea 79" x2="51.338" transform="translate(709.08 1230.109)" fill="none" stroke="#28347d" stroke-linecap="round" stroke-width="1"/>
    <line id="Línea_80" data-name="Línea 80" x2="57.234" transform="translate(908.76 1230.109)" fill="none" stroke="#28347d" stroke-linecap="round" stroke-width="1"/>
    <rect id="Rectángulo_15" data-name="Rectángulo 15" width="210" height="43.019" rx="21.509" transform="translate(972.282 1208.599)" fill="#fad804"/>
    <text id="Alineación_Informativo" data-name="Alineación / Informativo" transform="translate(1077.282 1235.478)" fill="#28347d" font-size="15.438" font-family="Roboto-Medium, Roboto" font-weight="500"><tspan x="-83.349" y="0">Alineación / Informativo</tspan></text>
    <path id="Trazado_51" data-name="Trazado 51" d="M8944.1,1265.629H8842.709a18.87,18.87,0,0,0,0,37.741H8944.1a18.87,18.87,0,1,0,0-37.741Z" transform="translate(-8058.697)" fill="#30d9cb"/>
    <path id="Trazado_52" data-name="Trazado 52" d="M8745.965,1265.629H8504.009a18.87,18.87,0,1,0,0,37.741h241.956a18.87,18.87,0,1,0,0-37.741Z" transform="translate(-8058.697)" fill="#24a31a"/>
    <text id="Operativo-6" data-name="Operativo" transform="translate(834.709 1289.869)" fill="#28347d" font-size="15.438" font-family="Roboto-Medium, Roboto" font-weight="500"><tspan x="-33.477" y="0">Operativo</tspan></text>
    <text id="RAR_Seguros_Midstream" data-name="RAR Seguros Midstream" transform="translate(566.291 1289.869)" fill="#fff" font-size="15.438" font-family="Roboto-Medium, Roboto" font-weight="500"><tspan x="-84.45" y="0">RAR Seguros Midstream</tspan></text>
    <line id="Línea_81" data-name="Línea 81" x2="51.338" transform="translate(709.08 1284.5)" fill="none" stroke="#28347d" stroke-linecap="round" stroke-width="1"/>
    <line id="Línea_82" data-name="Línea 82" x2="57.234" transform="translate(908.76 1284.5)" fill="none" stroke="#28347d" stroke-linecap="round" stroke-width="1"/>
    <rect id="Rectángulo_16" data-name="Rectángulo 16" width="210" height="43.019" rx="21.509" transform="translate(972.282 1262.99)" fill="#fad804"/>
    <text id="Alineación_Informativo-2" data-name="Alineación / Informativo" transform="translate(1077.282 1289.869)" fill="#28347d" font-size="15.438" font-family="Roboto-Medium, Roboto" font-weight="500"><tspan x="-83.349" y="0">Alineación / Informativo</tspan></text>
    <path id="Trazado_53" data-name="Trazado 53" d="M8944.1,1317.673H8842.709a18.87,18.87,0,0,0,0,37.741H8944.1a18.87,18.87,0,1,0,0-37.741Z" transform="translate(-8058.697)" fill="#30d9cb"/>
    <path id="Trazado_54" data-name="Trazado 54" d="M8745.965,1317.673H8504.009a18.87,18.87,0,1,0,0,37.741h241.956a18.87,18.87,0,1,0,0-37.741Z" transform="translate(-8058.697)" fill="#24a31a"/>
    <text id="Operativo-7" data-name="Operativo" transform="translate(834.709 1341.913)" fill="#28347d" font-size="15.438" font-family="Roboto-Medium, Roboto" font-weight="500"><tspan x="-33.477" y="0">Operativo</tspan></text>
    <text id="RAR_Tesorería_Segmento_Midstream" data-name="RAR Tesorería Segmento Midstream" transform="translate(566.291 1341.913)" fill="#fff" font-size="15.438" font-family="Roboto-Medium, Roboto" font-weight="500"><tspan x="-125.356" y="0">RAR Tesorería Segmento Midstream</tspan></text>
    <line id="Línea_83" data-name="Línea 83" x2="51.338" transform="translate(709.08 1336.543)" fill="none" stroke="#28347d" stroke-linecap="round" stroke-width="1"/>
    <line id="Línea_84" data-name="Línea 84" x2="57.234" transform="translate(908.76 1336.543)" fill="none" stroke="#28347d" stroke-linecap="round" stroke-width="1"/>
    <rect id="Rectángulo_17" data-name="Rectángulo 17" width="210" height="43.019" rx="21.509" transform="translate(972.282 1315.034)" fill="#fad804"/>
    <text id="Alineación_Informativo-3" data-name="Alineación / Informativo" transform="translate(1077.282 1341.913)" fill="#28347d" font-size="15.438" font-family="Roboto-Medium, Roboto" font-weight="500"><tspan x="-83.349" y="0">Alineación / Informativo</tspan></text>
    <path id="Trazado_55" data-name="Trazado 55" d="M8944.1,1372.931H8842.709a18.871,18.871,0,0,0,0,37.742H8944.1a18.871,18.871,0,1,0,0-37.742Z" transform="translate(-8058.697)" fill="#30d9cb"/>
    <path id="Trazado_56" data-name="Trazado 56" d="M8745.965,1372.931H8504.009a18.871,18.871,0,1,0,0,37.742h241.956a18.871,18.871,0,1,0,0-37.742Z" transform="translate(-8058.697)" fill="#24a31a"/>
    <text id="Táctico-2" data-name="Táctico" transform="translate(834.709 1397.171)" fill="#28347d" font-size="15.438" font-family="Roboto-Medium, Roboto" font-weight="500"><tspan x="-25.46" y="0">Táctico</tspan></text>
    <text id="RAR_HSE_y_Seguridad_de_Procesos" data-name="RAR HSE y Seguridad de Procesos" transform="translate(566.291 1397.172)" fill="#fff" font-size="15.438" font-family="Roboto-Medium, Roboto" font-weight="500"><tspan x="-118.677" y="0">RAR HSE y Seguridad de Procesos</tspan></text>
    <line id="Línea_85" data-name="Línea 85" x2="51.338" transform="translate(709.08 1391.802)" fill="none" stroke="#28347d" stroke-linecap="round" stroke-width="1"/>
    <line id="Línea_86" data-name="Línea 86" x2="57.234" transform="translate(908.76 1391.802)" fill="none" stroke="#28347d" stroke-linecap="round" stroke-width="1"/>
    <rect id="Rectángulo_18" data-name="Rectángulo 18" width="210" height="43.019" rx="21.509" transform="translate(972.282 1370.293)" fill="#fad804"/>
    <text id="Alineación_Informativo-4" data-name="Alineación / Informativo" transform="translate(1077.282 1397.171)" fill="#28347d" font-size="15.438" font-family="Roboto-Medium, Roboto" font-weight="500"><tspan x="-83.349" y="0">Alineación / Informativo</tspan></text>
    <path id="Trazado_57" data-name="Trazado 57" d="M8944.1,1652.586H8842.709a18.87,18.87,0,0,0,0,37.741H8944.1a18.87,18.87,0,1,0,0-37.741Z" transform="translate(-8058.697)" fill="#30d9cb"/>
    <path id="Trazado_58" data-name="Trazado 58" d="M8745.965,1652.586H8504.009a18.87,18.87,0,1,0,0,37.741h241.956a18.87,18.87,0,1,0,0-37.741Z" transform="translate(-8058.697)" fill="#24a31a"/>
    <text id="Operativo-8" data-name="Operativo" transform="translate(834.709 1676.826)" fill="#28347d" font-size="15.438" font-family="Roboto-Medium, Roboto" font-weight="500"><tspan x="-33.477" y="0">Operativo</tspan></text>
    <text id="RAR_Táctico_-_Operativo_Digital" data-name="RAR Táctico - Operativo Digital" transform="translate(566.291 1676.826)" fill="#fff" font-size="15.438" font-family="Roboto-Medium, Roboto" font-weight="500"><tspan x="-107.166" y="0">RAR Táctico - Operativo Digital</tspan></text>
    <line id="Línea_87" data-name="Línea 87" x2="51.338" transform="translate(709.08 1671.457)" fill="none" stroke="#28347d" stroke-linecap="round" stroke-width="1"/>
    <line id="Línea_88" data-name="Línea 88" x2="57.234" transform="translate(908.76 1671.457)" fill="none" stroke="#28347d" stroke-linecap="round" stroke-width="1"/>
    <rect id="Rectángulo_19" data-name="Rectángulo 19" width="210" height="43.019" rx="21.509" transform="translate(972.282 1649.947)" fill="#fad804"/>
    <text id="Alineación_Informativo-5" data-name="Alineación / Informativo" transform="translate(1077.282 1676.826)" fill="#28347d" font-size="15.438" font-family="Roboto-Medium, Roboto" font-weight="500"><tspan x="-83.349" y="0">Alineación / Informativo</tspan></text>
    <path id="Trazado_59" data-name="Trazado 59" d="M8944.1,1485.652H8842.709a18.87,18.87,0,0,0,0,37.741H8944.1a18.87,18.87,0,1,0,0-37.741Z" transform="translate(-8058.697)" fill="#30d9cb"/>
    <path id="Trazado_60" data-name="Trazado 60" d="M8745.965,1485.652H8504.009a18.87,18.87,0,1,0,0,37.741h241.956a18.87,18.87,0,1,0,0-37.741Z" transform="translate(-8058.697)" fill="#24a31a"/>
    <text id="Táctico-3" data-name="Táctico" transform="translate(834.709 1509.892)" fill="#28347d" font-size="15.438" font-family="Roboto-Medium, Roboto" font-weight="500"><tspan x="-25.46" y="0">Táctico</tspan></text>
    <text id="RAR_de_Sostenibilidad" data-name="RAR de Sostenibilidad" transform="translate(566.291 1509.892)" fill="#fff" font-size="15.438" font-family="Roboto-Medium, Roboto" font-weight="500"><tspan x="-76.486" y="0">RAR de Sostenibilidad</tspan></text>
    <line id="Línea_89" data-name="Línea 89" x2="51.338" transform="translate(709.08 1504.522)" fill="none" stroke="#28347d" stroke-linecap="round" stroke-width="1"/>
    <line id="Línea_90" data-name="Línea 90" x2="57.234" transform="translate(908.76 1504.522)" fill="none" stroke="#28347d" stroke-linecap="round" stroke-width="1"/>
    <path id="Trazado_61" data-name="Trazado 61" d="M8944.1,1428.606H8842.709a18.871,18.871,0,0,0,0,37.741H8944.1a18.871,18.871,0,1,0,0-37.741Z" transform="translate(-8058.697)" fill="#30d9cb"/>
    <text id="Táctico-4" data-name="Táctico" transform="translate(834.709 1452.846)" fill="#28347d" font-size="15.438" font-family="Roboto-Medium, Roboto" font-weight="500"><tspan x="-25.46" y="0">Táctico</tspan></text>
    <text id="RAR_Gestión_de_Entorno_y_Seguridad_Física" data-name="RAR Gestión de Entorno
 y Seguridad Física" transform="translate(566.291 1443.236)" fill="#fff" font-size="15.438" font-family="Roboto-Medium, Roboto" font-weight="500"><tspan x="-82.645" y="0">RAR Gestión de Entorno</tspan><tspan x="-65.393" y="17" xml:space="preserve"> y Seguridad Física</tspan></text>
    <line id="Línea_91" data-name="Línea 91" x2="51.338" transform="translate(709.08 1447.477)" fill="none" stroke="#28347d" stroke-linecap="round" stroke-width="1"/>
    <line id="Línea_92" data-name="Línea 92" x2="57.234" transform="translate(908.76 1447.477)" fill="none" stroke="#28347d" stroke-linecap="round" stroke-width="1"/>
    <rect id="Rectángulo_20" data-name="Rectángulo 20" width="210" height="43.019" rx="21.509" transform="translate(972.282 1425.968)" fill="#fad804"/>
    <text id="Alineación_Informativo-6" data-name="Alineación / Informativo" transform="translate(1077.282 1452.846)" fill="#28347d" font-size="15.438" font-family="Roboto-Medium, Roboto" font-weight="500"><tspan x="-83.349" y="0">Alineación / Informativo</tspan></text>
    <rect id="Rectángulo_21" data-name="Rectángulo 21" width="279.697" height="41.788" rx="20.894" transform="translate(426.442 1539.816)" fill="#24a31a"/>
    <path id="Trazado_62" data-name="Trazado 62" d="M8944.1,1541.84H8842.709a18.871,18.871,0,0,0,0,37.741H8944.1a18.871,18.871,0,1,0,0-37.741Z" transform="translate(-8058.697)" fill="#30d9cb"/>
    <text id="Operativo-9" data-name="Operativo" transform="translate(834.709 1566.08)" fill="#28347d" font-size="15.438" font-family="Roboto-Medium, Roboto" font-weight="500"><tspan x="-33.477" y="0">Operativo</tspan></text>
    <text id="RAR_Responsabilidad_Social_Corporativa_de_Segmento" data-name="RAR Responsabilidad Social
Corporativa de Segmento" transform="translate(566.291 1556.47)" fill="#fff" font-size="15.438" font-family="Roboto-Medium, Roboto" font-weight="500"><tspan x="-97.513" y="0">RAR Responsabilidad Social</tspan><tspan x="-87.887" y="17">Corporativa de Segmento</tspan></text>
    <line id="Línea_93" data-name="Línea 93" x2="51.338" transform="translate(709.08 1560.711)" fill="none" stroke="#28347d" stroke-linecap="round" stroke-width="1"/>
    <line id="Línea_94" data-name="Línea 94" x2="57.234" transform="translate(908.76 1560.711)" fill="none" stroke="#28347d" stroke-linecap="round" stroke-width="1"/>
    <rect id="Rectángulo_22" data-name="Rectángulo 22" width="210" height="43.019" rx="21.509" transform="translate(972.282 1539.201)" fill="#fad804"/>
    <text id="Alineación_Informativo-7" data-name="Alineación / Informativo" transform="translate(1077.282 1566.08)" fill="#28347d" font-size="15.438" font-family="Roboto-Medium, Roboto" font-weight="500"><tspan x="-83.349" y="0">Alineación / Informativo</tspan></text>
    <rect id="Rectángulo_23" data-name="Rectángulo 23" width="279.697" height="41.788" rx="20.894" transform="translate(426.442 1704.214)" fill="#24a31a"/>
    <path id="Trazado_63" data-name="Trazado 63" d="M8944.1,1706.237H8842.709a18.87,18.87,0,0,0,0,37.741H8944.1a18.87,18.87,0,1,0,0-37.741Z" transform="translate(-8058.697)" fill="#30d9cb"/>
    <text id="Táctico-5" data-name="Táctico" transform="translate(834.709 1730.477)" fill="#28347d" font-size="15.438" font-family="Roboto-Medium, Roboto" font-weight="500"><tspan x="-25.46" y="0">Táctico</tspan></text>
    <text id="RAR_Asuntos_Legales_para_el_Segmento_de_Transporte" data-name="RAR Asuntos Legales para
el Segmento de Transporte" transform="translate(566.291 1720.867)" fill="#fff" font-size="15.438" font-family="Roboto-Medium, Roboto" font-weight="500"><tspan x="-91.585" y="0">RAR Asuntos Legales para</tspan><tspan x="-93.3" y="17">el Segmento de Transporte</tspan></text>
    <line id="Línea_95" data-name="Línea 95" x2="51.338" transform="translate(709.08 1725.108)" fill="none" stroke="#28347d" stroke-linecap="round" stroke-width="1"/>
    <line id="Línea_96" data-name="Línea 96" x2="57.234" transform="translate(908.76 1725.108)" fill="none" stroke="#28347d" stroke-linecap="round" stroke-width="1"/>
    <rect id="Rectángulo_24" data-name="Rectángulo 24" width="210" height="43.019" rx="21.509" transform="translate(972.282 1703.598)" fill="#fad804"/>
    <text id="Alineación_Informativo-8" data-name="Alineación / Informativo" transform="translate(1077.282 1730.477)" fill="#28347d" font-size="15.438" font-family="Roboto-Medium, Roboto" font-weight="500"><tspan x="-83.349" y="0">Alineación / Informativo</tspan></text>
    <rect id="Rectángulo_25" data-name="Rectángulo 25" width="279.697" height="41.788" rx="20.894" transform="translate(426.442 1593.468)" fill="#24a31a"/>
    <path id="Trazado_64" data-name="Trazado 64" d="M8944.1,1595.491H8842.709a18.871,18.871,0,0,0,0,37.741H8944.1a18.871,18.871,0,1,0,0-37.741Z" transform="translate(-8058.697)" fill="#30d9cb"/>
    <text id="Táctico-6" data-name="Táctico" transform="translate(834.709 1619.731)" fill="#28347d" font-size="15.438" font-family="Roboto-Medium, Roboto" font-weight="500"><tspan x="-25.46" y="0">Táctico</tspan></text>
    <text id="RAR_Estrategia_Digital_Segmento_Midstream" data-name="RAR Estrategia Digital
Segmento Midstream" transform="translate(566.291 1610.121)" fill="#fff" font-size="15.438" font-family="Roboto-Medium, Roboto" font-weight="500"><tspan x="-76.049" y="0">RAR Estrategia Digital</tspan><tspan x="-74.552" y="17">Segmento Midstream</tspan></text>
    <line id="Línea_97" data-name="Línea 97" x2="51.338" transform="translate(709.08 1614.362)" fill="none" stroke="#28347d" stroke-linecap="round" stroke-width="1"/>
    <line id="Línea_98" data-name="Línea 98" x2="57.234" transform="translate(908.76 1614.362)" fill="none" stroke="#28347d" stroke-linecap="round" stroke-width="1"/>
    <rect id="Rectángulo_26" data-name="Rectángulo 26" width="210" height="43.019" rx="21.509" transform="translate(972.282 1592.852)" fill="#fad804"/>
    <text id="Alineación_Informativo-9" data-name="Alineación / Informativo" transform="translate(1077.282 1619.731)" fill="#28347d" font-size="15.438" font-family="Roboto-Medium, Roboto" font-weight="500"><tspan x="-83.349" y="0">Alineación / Informativo</tspan></text>
  </g>
</svg>
