<svg xmlns="http://www.w3.org/2000/svg" width="45.25" height="46.5" viewBox="0 0 45.25 46.5">
  <g id="Grupo_644" data-name="Grupo 644" transform="translate(0 1.25)">
    <g id="Grupo_643" data-name="Grupo 643">
      <path id="Trazado_1619" data-name="Trazado 1619" d="M22,0A22,22,0,1,1,0,22,22,22,0,0,1,22,0Z" transform="translate(0 0)" fill="#fff" style="mix-blend-mode: multiply;isolation: isolate"/>
      <g id="Group_6195" data-name="Group 6195" transform="translate(241.971 -5842.88)">
        <g id="Group_6193" data-name="Group 6193">
          <path id="Path_5178" data-name="Path 5178" d="M-230.183,5864.878h20.242" fill="none" stroke="#28347d" stroke-width="2.5"/>
          <path id="Path_5179" data-name="Path 5179" d="M-214.843,5859.72l5.079,5.079-5.079,5.079" fill="none" stroke="#28347d" stroke-width="2.5"/>
        </g>
      </g>
    </g>
    <path id="Trazado_1618" data-name="Trazado 1618" d="M-238.64,5876.516a21.981,21.981,0,0,0,18.669,10.364,22,22,0,0,0,22-22,22,22,0,0,0-22-22,21.98,21.98,0,0,0-18.669,10.364" transform="translate(241.971 -5842.88)" fill="none" stroke="#24a31a" stroke-linecap="round" stroke-linejoin="round" stroke-width="2.5"/>
  </g>
</svg>
