<?xml version="1.0" encoding="utf-8"?>
<!-- Generator: Adobe Illustrator 24.0.2, SVG Export Plug-In . SVG Version: 6.00 Build 0)  -->
<svg version="1.1" id="Capa_1" xmlns="http://www.w3.org/2000/svg" xmlns:xlink="http://www.w3.org/1999/xlink" x="0px" y="0px"
	 viewBox="0 0 500 300" style="enable-background:new 0 0 500 300;" xml:space="preserve">
<style type="text/css">
	.st0{fill:none;}
	.st1{fill:#19A500;}
	.st2{fill:#FFFFFF;}
	.st3{fill:#A1D005;}
	.st4{fill:#FEEC35;}
	.st5{fill:#00BC00;}
</style>
<title>pictograma_ocensa_inversionistas_informes_inversionistas</title>
<rect y="0" class="st0" width="500" height="300"/>
<g id="Grupo_6330">
	<g id="Grupo_6103">
		<g id="Línea_651">
			<path class="st1" d="M123.1,227h-18.2c-1.1,0-2-0.9-2-2s0.9-2,2-2h18.2c1.1,0,2,0.9,2,2S124.2,227,123.1,227z"/>
		</g>
		<g id="Línea_652">
			<path class="st2" d="M112.3,227H94.2c-1.1,0-2-0.9-2-2s0.9-2,2-2h18.2c1.1,0,2,0.9,2,2S113.5,227,112.3,227z"/>
		</g>
		<g id="Línea_653">
			<path class="st3" d="M81.3,227h-9.1c-1.1,0-2-0.9-2-2s0.9-2,2-2h9.1c1.1,0,2,0.9,2,2S82.4,227,81.3,227z"/>
		</g>
		<g id="Línea_654">
			<path class="st4" d="M59.4,227c-1.1,0-2-0.9-2-2c0-0.1,0-0.3,0-0.4c0-0.1,0.1-0.3,0.1-0.4c0.1-0.1,0.1-0.2,0.2-0.3
				c0.1-0.1,0.2-0.2,0.2-0.3c0.1-0.1,0.2-0.2,0.3-0.2c0.1-0.1,0.2-0.1,0.3-0.2c0.1-0.1,0.3-0.1,0.4-0.1c0.3-0.1,0.5-0.1,0.8,0
				c0.1,0,0.3,0.1,0.4,0.1c0.1,0,0.2,0.1,0.3,0.2c0.1,0.1,0.2,0.1,0.3,0.2c0.1,0.1,0.2,0.2,0.2,0.3c0.1,0.1,0.1,0.2,0.2,0.3
				c0.1,0.1,0.1,0.3,0.1,0.4c0,0.1,0,0.3,0,0.4C61.3,226.1,60.5,227,59.4,227L59.4,227z"/>
		</g>
	</g>
	<g id="Grupo_6104">
		<g id="Línea_652-2">
			<path class="st2" d="M97.8,237h-8.4c-1.1,0-2-0.9-2-2s0.9-2,2-2h8.4c1.1,0,2,0.9,2,2S98.9,237,97.8,237z"/>
		</g>
		<g id="Línea_653-2">
			<path class="st3" d="M119.8,237h-9.1c-1.1,0-2-0.9-2-2s0.9-2,2-2h9.1c1.1,0,2,0.9,2,2S120.9,237,119.8,237z"/>
		</g>
		<g id="Línea_654-2">
			<path class="st4" d="M132.6,237c-0.5,0-1-0.2-1.4-0.6c-0.1-0.1-0.2-0.2-0.2-0.3c-0.1-0.1-0.1-0.2-0.2-0.4
				c-0.1-0.1-0.1-0.2-0.1-0.4c-0.1-0.3-0.1-0.5,0-0.8c0-0.1,0.1-0.3,0.1-0.4c0.1-0.1,0.1-0.2,0.2-0.3c0.1-0.1,0.2-0.2,0.2-0.3
				c0.8-0.7,2-0.7,2.8,0c0.4,0.4,0.6,0.9,0.6,1.4c0,0.1,0,0.3,0,0.4c0,0.1-0.1,0.3-0.1,0.4c0,0.1-0.1,0.2-0.2,0.4
				c-0.1,0.1-0.2,0.2-0.2,0.3C133.6,236.8,133.1,237,132.6,237z"/>
		</g>
	</g>
</g>
<g id="Grupo_6331">
	<g id="Grupo_6103-2">
		<g id="Línea_651-2">
			<path class="st1" d="M412.1,237h-18.2c-1.1,0-2-0.9-2-2s0.9-2,2-2h18.2c1.1,0,2,0.9,2,2S413.2,237,412.1,237z"/>
		</g>
		<g id="Línea_652-3">
			<path class="st2" d="M422.8,237h-18.2c-1.1,0-2-0.9-2-2s0.9-2,2-2h18.2c1.1,0,2,0.9,2,2S423.9,237,422.8,237z"/>
		</g>
		<g id="Línea_653-3">
			<path class="st3" d="M444.8,237h-9.1c-1.1,0-2-0.9-2-2s0.9-2,2-2h9.1c1.1,0,2,0.9,2,2S445.9,237,444.8,237z"/>
		</g>
		<g id="Línea_654-3">
			<path class="st4" d="M457.6,237c-0.5,0-1-0.2-1.4-0.6c-0.1-0.1-0.2-0.2-0.2-0.3c-0.1-0.1-0.1-0.2-0.2-0.4
				c-0.1-0.1-0.1-0.2-0.1-0.4c0-0.1,0-0.3,0-0.4c0-0.5,0.2-1,0.6-1.4c0.8-0.7,2-0.7,2.8,0c0.1,0.1,0.2,0.2,0.2,0.3
				c0.1,0.1,0.1,0.2,0.2,0.3s0.1,0.2,0.1,0.4c0.1,0.3,0.1,0.5,0,0.8c0,0.1-0.1,0.3-0.1,0.4c0,0.1-0.1,0.2-0.2,0.4
				c-0.1,0.1-0.2,0.2-0.3,0.3C458.6,236.8,458.1,237,457.6,237z"/>
		</g>
	</g>
	<g id="Grupo_6104-2">
		<g id="Línea_652-4">
			<path class="st2" d="M427.6,227h-8.4c-1.1,0-2-0.9-2-2s0.9-2,2-2h8.4c1.1,0,2,0.9,2,2S428.7,227,427.6,227z"/>
		</g>
		<g id="Línea_653-4">
			<path class="st3" d="M406.3,227h-9.1c-1.1,0-2-0.9-2-2s0.9-2,2-2h9.1c1.1,0,2,0.9,2,2S407.4,227,406.3,227z"/>
		</g>
		<g id="Línea_654-4">
			<path class="st4" d="M384.4,227c-1.1,0-2-0.9-2-2c0-0.1,0-0.3,0-0.4c0-0.1,0.1-0.3,0.1-0.4c0-0.1,0.1-0.2,0.2-0.3
				s0.2-0.2,0.2-0.3c0.1-0.1,0.2-0.2,0.3-0.2c0.1-0.1,0.2-0.1,0.3-0.2c0.1-0.1,0.3-0.1,0.4-0.1c0.3-0.1,0.5-0.1,0.8,0
				c0.1,0,0.3,0.1,0.4,0.1s0.2,0.1,0.4,0.2c0.1,0.1,0.2,0.1,0.3,0.2c0.1,0.1,0.2,0.2,0.2,0.3c0.1,0.1,0.1,0.2,0.2,0.3
				s0.1,0.3,0.1,0.4c0,0.1,0,0.3,0,0.4C386.3,226.1,385.5,227,384.4,227L384.4,227z"/>
		</g>
	</g>
</g>
<g>
	<path class="st5" d="M221.3,208.5c-0.5-1.3-1.3-2.3-2.8-2.8c-0.6-0.2-1.1-0.9-1.4-1.5c-1.5-2.4-3-4.9-4.4-7.4
		c-3.4-6.4-7.1-12.5-11.4-18.4c-0.5-0.7-1-1.4-1.6-2c-2.3-2.5-4.8-2-6,1.3c-0.5,1.3-0.7,2.7-0.8,4.1c-0.1,1.7-0.1,3.5,0.1,5.2
		c0.4,3.9,0.8,7.8,1.4,11.6c0.7,5.1,1.5,10.1,3.3,15c0.1,0.2,0.2,0.5,0.2,0.7c0.2,0.8-0.4,1.6-1.2,1.7c-0.7,0.1-1.4,0.1-2.1,0
		c-1.7-0.2-3.2-0.9-4.3-2.2c-2-2.5-4.3-4.8-5.4-7.9c-0.1-0.2-0.2-0.3-0.2-0.5c-1.2-4.5-3.5-8.5-5-12.9c-1.5-4.7-2.8-9.5-3.6-14.4
		c-0.5-2.8-1.1-5.6-1.6-8.4c-1-5.8-2-11.6-2.9-17.5c-0.6-4.3-1.2-8.6-1.6-12.9c-0.2-1.9-0.1-3.8-0.1-5.7c0-2.6,0-5.2,0-7.8
		c0-0.5,0-1-0.1-1.6c-0.3-1.7-1.1-2.9-2.9-3.3c-0.4-0.1-0.8-0.3-1.3-0.3c-3.4-0.7-6.8-5.2-5.3-9.6c1-3,2.4-5.8,5-7.8
		c5.4-4.1,10.9-8.2,17.6-9.9c3.3-0.9,6.6-1.6,9.9-2.3c3-0.6,6-1.2,8.9-1.7c0.8-0.1,1.5-0.3,2.3-0.3c4.9-0.2,9.7-1,14.5-1.4
		c3.4-0.3,6.8-0.3,10.1-0.4c2.3-0.1,4.7-0.2,7-0.2c7.1,0,14.2,0,21.4,0.1c4.9,0.1,9.7,0.4,14.6,0.6c1.9,0.1,3.8,0.4,5.7,0.6
		c3.9,0.4,7.8,0.7,11.7,1c2,0.2,4,0.6,6,0.7c2.2,0.1,4.5,0.1,6.8,0.1c1.8,0,3.1-0.8,4-2.5c1.8-3.3,3.4-6.6,4.4-10.3
		c1.4-5,2.9-10,4.2-15c1-3.8,3.5-6.3,6.8-8.2c1.2-0.7,2.5-0.6,3.3,0.5c1.5,1.8,2.8,3.7,4.1,5.7c0.5,0.8,0.4,1.8,0.6,2.8
		c0.1,0.6,0,1.2,0.1,1.8c0.1,0.7,0.5,1.1,1.1,1.3c2.1,0.6,4.2,0,5.6-1.8c0.4-0.5,0.6-1,1-1.5c1.3-1.5,3.1-1.7,4.6-0.3
		c0.5,0.5,0.9,1,1.4,1.6c2.7,3.3,7.4,6.4,11.6,7.6c1.3,0.3,2.5,0.6,3.8,1c2.5,0.7,4.9,1.8,7.2,3.1c1.5,0.9,2.8,2,3.8,3.5
		c0.8,1.2,1.5,2.3,2.3,3.5c1.7,2.6,2.2,5.5,1.6,8.5c-0.8,4.1-1.5,8.2-3.2,12.1c-1.1,2.6-2.2,5.1-3.5,7.6c-1.7,3.1-4.5,4.9-8,5.8
		c-1,0.2-1.9,0-2.8-0.3c-2.2-0.6-4.3-1.2-6.5-1.8c-0.3-0.1-0.7-0.1-1-0.1c-1.6,0.3-3.2,0.7-4.8,1.1c-1,0.2-1.7,0.9-2.2,1.7
		c-0.5,0.9-0.9,1.9-1.2,2.9c-1,2.9-1.9,5.8-2.8,8.7c-0.3,1-0.6,2-0.8,3c-0.9,5.1-1.7,10.3-2.6,15.4c-0.6,3.5-1.3,7-1.9,10.5
		c-0.9,4.9-1.8,9.7-2.5,14.6c-0.4,2.3-0.6,4.6-0.8,7c-0.3,3.6-0.4,7.1-0.6,10.7c-0.1,0.9-0.2,1.7-0.3,2.6c-0.1,1.5-0.4,2.9-0.4,4.4
		c-0.1,3.2-0.1,6.4-0.1,9.6c0,3.6-1,4.5-4.6,4.2c-1.3-0.1-2.3-0.7-3-1.8c-0.4-0.7-0.7-1.4-1-2.1c-1.2-2.7-2.4-5.4-3.6-8.1
		c-1.1-2.4-2.2-4.7-3.3-7.1c-0.5-1.1-0.9-2.3-2.1-2.7c-0.9,0.3-1.2,1-1.5,1.8c-0.4,1.2-0.8,2.5-1,3.8c-0.7,4.5-2.2,8.7-3.3,13.1
		c-0.2,0.7-0.5,1.5-0.9,2.2c-1.3,2.2-3.9,2.3-5.3,0.1c-2.1-3.3-3.5-7-3.7-11c-0.1-1.8-0.2-3.6-0.4-5.5c-0.1-1.4-0.4-2.7-0.6-4.1
		c-0.5-3.4-1-6.9-1.4-10.3c-0.4-3.3-1.8-3.8-4.5-3.6c-2.2,0.2-4.3,0.3-6.5,0.3c-5.2,0.1-10.4,0.1-15.6,0.1c-1.1,0-2.3,0.1-3.4,0.1
		c-3.5,0.1-6.9,0.3-10.4,0.2c-6.6,0-13.2-0.2-19.8-0.3c-2.5-0.1-5-0.3-7.5-0.4c-1-0.1-2.1-0.2-3.1-0.1c-1.6,0.1-2.4,1.2-2,2.7
		c0.2,1,0.7,2,1.1,2.9c1.3,3.3,2.7,6.6,4,9.9c0.7,1.9,1.2,3.8,1.9,5.7c0.4,1.3,0.8,2.7,1.4,3.9c0.8,1.8,1,3.7,1.4,5.5
		c0.1,0.3,0.1,0.7,0.1,1c-0.1,1.6-1.1,2.6-2.7,2.4C224.3,209.2,222.8,208.8,221.3,208.5z M185,130.9c0,0.2,0,0.3,0,0.5
		c0.1,2.5,1.3,3.5,3.6,3.2c0.8-0.1,1.5-0.3,2.3-0.6c2.3-0.8,4.7-1.3,7.1-1.6c1-0.1,2-0.4,3.1-0.6c0.6-0.1,1.2-0.4,1.7-0.6
		c0.9-0.5,1.2-1.3,0.7-2.2c-0.4-0.7-0.9-1.3-1.5-1.8c-2.4-2-5.1-3.2-8.1-3.9c-1.6-0.4-3.1-0.1-4.5,0.6
		C186.6,125.5,185.1,127.8,185,130.9z M298.6,119.6c-1,0.1-1.7,0.2-2.4,0.3c-2.2,0.3-4.2,1.2-5.7,2.9c-0.4,0.4-0.8,0.9-1,1.5
		c-0.6,1.2,0.1,2.3,1.4,2.4c0.5,0,1,0,1.6-0.1c2.1-0.3,4.3-0.6,6.4-1c1.2-0.2,2.4-0.5,3.5-0.9c1.6-0.6,1.9-2.1,0.7-3.3
		c-0.4-0.4-0.9-0.8-1.5-1C300.5,120,299.4,119.8,298.6,119.6z M243.5,154.4c0.2,1,0.4,1.9,0.6,2.8c0.6,2,1.9,3.3,4,3.5
		c0.6,0.1,1.2,0.2,1.8,0.3c1.1,0.1,2.2,0.2,2.8-0.8s0.1-2-0.4-2.9c-1.2-2.1-2.7-4-4.6-5.6c-0.3-0.3-0.7-0.5-1.1-0.7
		c-1.1-0.5-2.2-0.1-2.6,1C243.8,152.7,243.7,153.6,243.5,154.4z M312.4,156c0-0.3,0-0.9-0.1-1.4c-0.2-1.2-1.1-2.2-2-2
		c-1,0.2-1.3,1-1.6,1.8c-0.1,0.4-0.1,0.9-0.2,1.3c-0.1,0.4-0.1,0.9-0.2,1.3c-0.2,0.8-0.4,1.8-1.3,2.1c-1,0.3-1.5-0.5-2.1-1.1
		c-0.3-0.3-0.5-0.7-0.8-1s-0.6-0.6-0.9-0.9c-0.8-0.6-1.8-0.4-2.1,0.5c-0.5,1.3-0.8,2.7-0.7,4.1c0.1,0.9,0.6,1.4,1.5,1.6
		c1.3,0.2,2.6,0,3.8-0.5c0.9-0.4,1.8-0.6,2.7-0.7c2.8-0.2,3.6-1,3.9-3.8C312.3,156.9,312.3,156.5,312.4,156z M262.4,128.4
		c0,0.1,0,0.1,0,0.2c1.3-0.1,2.6,0,3.9-0.2c1.8-0.3,2.5-1.7,1.6-3.3c-1-1.9-2.6-3.2-4.7-3.9c-1.2-0.3-2.2-0.1-3.2,0.7
		c-1.1,0.9-2.1,2.1-2.7,3.5c-0.7,1.5,0,2.8,1.7,3C260.2,128.5,261.3,128.4,262.4,128.4z M263.6,162.1c0.7-0.1,1.3-0.1,1.9-0.2
		c2-0.3,2.6-1.5,1.7-3.3c-0.1-0.2-0.3-0.4-0.4-0.6c-1.1-1.4-2.3-2.8-3.4-4.2c-0.4-0.5-0.9-0.9-1.4-1.2c-1-0.6-2-0.3-2.3,0.8
		c-0.7,2.1-1,4.2-0.6,6.4c0.2,1,0.8,1.7,1.8,1.9C261.8,161.9,262.7,162,263.6,162.1z M230.2,129.4c1.8-0.2,3.5-0.3,5.2-0.5
		c0.3,0,0.5,0,0.8-0.1c0.3,0,0.5-0.1,0.8-0.2c1.1-0.4,1.5-1.2,1.2-2.2c-0.7-2.2-2.4-3.3-4.5-4c-1.9-0.6-3.3,0.5-4.5,1.8
		c-0.5,0.5-0.9,1.1-1.2,1.7c-1.2,2.2-0.5,3.4,2.1,3.4C230.1,129.4,230.1,129.4,230.2,129.4z M219.3,114.9c1.2-0.1,2.2-0.2,3.2-0.3
		c0.8-0.1,1.5-0.3,2.2-0.6c1.4-0.6,1.7-2,0.7-3.2c-2-2.3-4.8-3-7.8-1.9c-1.5,0.6-2.3,1.7-2.7,3.2c-0.3,1.3,0.4,2.4,1.8,2.6
		C217.6,114.9,218.5,114.9,219.3,114.9z M197.3,150.5c1.8-0.4,3.7-0.9,5.4-2c0.8-0.5,0.9-1.5,0.4-2.3c-1-2-4.8-3.7-7-3.2
		c-1.5,0.4-2.6,1.8-2.6,3.2c0.1,2,1.7,4.1,3.2,4.2C197,150.5,197,150.5,197.3,150.5z M205,115.4C205,115.4,205,115.3,205,115.4
		c0.7-0.1,1.4-0.1,2.1-0.1c1-0.1,1.9-0.2,2.4-1.2c0.4-0.7-0.2-1.7-1.3-2.6c-2.5-1.9-6.9-2.2-9.6-0.6c-0.2,0.1-0.4,0.3-0.6,0.4
		c-0.7,0.6-1.3,1.3-1,2.2c0.2,0.9,1.1,1.1,1.9,1.2C200.8,115,202.9,115.2,205,115.4z M288.8,157c0.1,1.2,0,2.1,0.1,2.9
		c0.1,0.9,0.5,1.7,1.4,2.1c1.4,0.7,2.8,0.8,4.3,0.3c0.7-0.3,1.2-0.8,1.2-1.5c0-0.5,0-1.1-0.2-1.5c-0.6-1.9-1.4-3.7-2.7-5.2
		c-0.3-0.3-0.6-0.6-0.9-0.9c-1.2-0.9-2.4-0.6-2.8,0.9C288.9,155.1,288.9,156.2,288.8,157z M275.7,162.3c1.3-0.2,2.6-0.3,3.8-0.6
		c0.9-0.2,1.2-1,1-1.8c-0.1-0.3-0.2-0.7-0.4-0.9c-1.2-1.3-2.5-2.7-3.8-4c-0.2-0.2-0.6-0.4-0.9-0.5c-0.9-0.4-1.8-0.2-2.2,0.8
		c-0.6,1.6-1.1,3.3-1.5,5c-0.2,0.9,0.2,1.5,1.2,1.7C273.8,162.1,274.7,162.1,275.7,162.3z M212.5,130.4c1.3-0.2,2.5-0.3,3.6-0.5
		c0.3,0,0.7-0.1,1-0.2c1.7-0.5,2.1-1.7,1.1-3.2c-0.7-1.1-1.8-1.9-2.9-2.5c-1.4-0.7-2.9-0.7-4.2,0.2c-1.4,1-1.8,2.5-1.5,4.1
		c0.1,1,0.7,1.5,1.7,1.8C211.7,130.3,212.1,130.3,212.5,130.4z M211.3,146.6c0.9-0.2,2.5-0.4,4-0.9s1.6-1.8,0.4-2.8
		c-0.2-0.2-0.4-0.3-0.6-0.4c-1.2-0.5-2.4-1.1-3.6-1.5c-2.3-0.7-3.5,0.3-3.5,2.7c0,0.2,0,0.3,0,0.5
		C208.1,146,208.9,146.6,211.3,146.6z M233.9,159.9c0.6-0.1,1.2-0.1,1.8-0.3c1.3-0.3,1.8-1.4,1.2-2.6c-0.9-1.8-2.4-3.1-4.1-4.1
		c-0.4-0.2-0.8-0.2-1.2-0.2c-0.4,0.1-0.8,0.3-1.1,0.6c-1,1.3-0.3,5,1,5.9c0.3,0.2,0.6,0.3,0.9,0.4
		C232.9,159.8,233.4,159.8,233.9,159.9z M262.7,143.4c1.6-0.2,2.9-0.3,4.2-0.5c0.4-0.1,0.9-0.5,1.1-0.9c0.3-0.6-0.1-1.2-0.6-1.6
		c-1.3-1.1-2.8-1.8-4.4-1.9c-1.7-0.1-3.4,1.1-4,2.8c-0.3,0.8,0,1.6,0.9,1.8C261,143.4,262,143.4,262.7,143.4z M242.8,111.1
		c-0.5-0.6-0.6-0.9-0.9-1.1c-1.7-1.1-3.6-1.4-5.5-1.3c-1.4,0-2.5,0.7-3.2,2s-0.1,2.5,1.4,2.5c2.1,0.1,4.2-0.2,6.1-0.9
		C241.4,112.1,241.9,111.6,242.8,111.1z M245,144c0.7-0.1,1.9-0.3,2.9-0.6c1.2-0.4,1.4-1.5,0.6-2.5c-0.3-0.4-0.7-0.8-1.2-0.9
		c-1.2-0.4-2.4-0.9-3.7-1.1c-1.4-0.2-2.5,0.8-2.6,2.3c-0.2,1.4,0.6,2.5,2.1,2.7C243.6,144,244.1,143.9,245,144z M246.5,128.5
		c0.8,0,1.3-0.1,1.8-0.1c0.3,0,0.5-0.1,0.8-0.1c1.1-0.3,1.6-1.2,1.1-2.2c-0.6-1.4-1.7-2.4-3.1-2.9c-1-0.4-2.1-0.2-2.8,0.7
		c-0.8,0.9-1.2,1.9-0.9,3.1c0.2,0.7,0.7,1.2,1.4,1.4C245.4,128.4,246.1,128.4,246.5,128.5z M277.1,128.3c1.1-0.2,2.3-0.4,3.3-0.7
		c1-0.3,1.2-1.3,0.7-2.1c-0.9-1.3-2.1-2-3.7-2c-1.5,0-2.9,1.1-3.3,2.5c-0.2,0.7,0.1,1.5,0.8,1.7C275.5,128,276.3,128.1,277.1,128.3z
		 M298.1,142.6c0.6-0.1,1.6-0.3,2.5-0.7c0.7-0.3,0.9-1.1,0.4-1.7c-1.1-1.5-2.7-2.1-4.5-2.2c-0.3,0-0.7,0.1-1,0.3
		c-0.9,0.4-1.5,1.7-1.3,2.6c0.1,0.8,0.8,1.4,1.8,1.5C296.6,142.5,297.1,142.5,298.1,142.6z M280.3,143.2c0.8-0.1,1.5-0.2,2.3-0.3
		c1-0.3,1.2-1.2,0.6-2c-1-1.3-3.3-2-4.9-1.3c-0.4,0.2-0.9,0.6-1.2,1c-0.7,0.9-0.3,2.2,0.9,2.4C278.7,143.1,279.5,143.1,280.3,143.2z
		 M226,145c0.3-0.1,0.8-0.1,1.2-0.2c0.9-0.2,2-0.4,2.1-1.6c0.1-1-0.7-1.7-1.5-2.2c-0.4-0.2-0.8-0.4-1.2-0.5c-0.8-0.2-1.5,0-2.1,0.6
		c-0.8,0.7-1.1,2-0.7,2.8C224.1,144.8,225,144.9,226,145z M218.2,154.7c0.3,1.4,1,2.8,2.4,3.9c0.2,0.1,0.5,0.2,0.7,0.3
		c1.1,0.3,2.1-0.6,2-1.7c-0.2-1.6-2.1-3.6-3.7-3.9C218.8,153.2,218.2,153.7,218.2,154.7z M256.6,111.1c1.2,0,2.1-0.2,2.9-0.8
		c0.4-0.3,0.5-1,0.2-1.4c-0.9-1.4-3.2-1.9-4.6-0.8c-0.6,0.4-0.9,1-0.9,1.8c0,0.5,0.7,1.1,1.5,1.2
		C256.1,111.1,256.5,111.1,256.6,111.1z M333.8,83.9c1.1,1.4,1.9,3,3.1,3.9s2.9,0.5,4.1-0.6c1.3-1.3,2-2.9,1.3-4.7
		c-0.3-0.9-0.8-1.8-1.3-2.6c-1.3-1.7-3.8-1.9-5.1-0.2C335,80.8,334.6,82.2,333.8,83.9z M207.6,156.7c0.4,1.7,1.8,2.5,3.3,3.1
		c0.1,0,0.3-0.1,0.4-0.2c0.1-0.1,0.2-0.3,0.1-0.4c-0.6-1.5-1.6-2.6-3.3-2.8C208,156.4,207.9,156.5,207.6,156.7z M284.3,108.6
		c-0.4,0.1-0.8,0.2-1.1,0.2c0.1,0.1,0.1,0.4,0.2,0.4C283.9,109.5,284.2,109.3,284.3,108.6z"/>
</g>
</svg>
