<?xml version="1.0" encoding="utf-8"?>
<!-- Generator: Adobe Illustrator 24.0.2, SVG Export Plug-In . SVG Version: 6.00 Build 0)  -->
<svg version="1.1" id="Capa_1" xmlns="http://www.w3.org/2000/svg" xmlns:xlink="http://www.w3.org/1999/xlink" x="0px" y="0px"
	 viewBox="0 0 500 300" style="enable-background:new 0 0 500 300;" xml:space="preserve">
<style type="text/css">
	.st0{fill:none;}
	.st1{fill:none;stroke:#19A500;stroke-width:4;stroke-linecap:round;stroke-linejoin:round;}
	.st2{fill:none;stroke:#FFFFFF;stroke-width:4;stroke-linecap:round;stroke-linejoin:round;}
	.st3{fill:none;stroke:#A1D005;stroke-width:4;stroke-linecap:round;stroke-linejoin:round;}
	.st4{fill:none;stroke:#FEEC35;stroke-width:4;stroke-linecap:round;stroke-linejoin:round;}
	.st5{fill:#00BC00;}
</style>
<title>pictograma_ocensa_inversionistas_gobierno_corporativo</title>
<rect y="0" class="st0" width="500" height="300"/>
<g id="Grupo_6330">
	<g id="Grupo_6103">
		<line id="Línea_651" class="st1" x1="117.3" y1="247" x2="135.5" y2="247"/>
		<line id="Línea_652" class="st2" x1="106.6" y1="247" x2="124.8" y2="247"/>
		<line id="Línea_653" class="st3" x1="84.7" y1="247" x2="93.8" y2="247"/>
		<line id="Línea_654" class="st4" x1="71.8" y1="247" x2="71.8" y2="247"/>
	</g>
	<g id="Grupo_6104">
		<line id="Línea_652-2" class="st2" x1="110.3" y1="257" x2="101.8" y2="257"/>
		<line id="Línea_653-2" class="st3" x1="132.2" y1="257" x2="123.1" y2="257"/>
		<line id="Línea_654-2" class="st4" x1="145" y1="257" x2="145" y2="257"/>
	</g>
</g>
<g id="Grupo_6331">
	<g id="Grupo_6103-2">
		<line id="Línea_651-2" class="st1" x1="424.6" y1="257" x2="406.4" y2="257"/>
		<line id="Línea_652-3" class="st2" x1="435.3" y1="257" x2="417.1" y2="257"/>
		<line id="Línea_653-3" class="st3" x1="457.2" y1="257" x2="448.1" y2="257"/>
		<line id="Línea_654-3" class="st4" x1="470" y1="257" x2="470" y2="257"/>
	</g>
	<g id="Grupo_6104-2">
		<line id="Línea_652-4" class="st2" x1="431.6" y1="247" x2="440" y2="247"/>
		<line id="Línea_653-4" class="st3" x1="409.6" y1="247" x2="418.8" y2="247"/>
		<line id="Línea_654-4" class="st4" x1="396.9" y1="247" x2="396.9" y2="247"/>
	</g>
</g>
<g>
	<path class="st5" d="M202.2,190c-0.9-0.4-1.6,0.1-2.1,0.5c-1.5,1.2-3,2.5-4.4,3.8c-1.3,1.2-2.6,2.4-3.9,3.5
		c-3.6,3.1-7.3,6.2-10.9,9.4c-3.9,3.5-8.3,6.3-12.9,8.9c-1.8,1-3.9,1.7-5.9,2.4c-3.1,1.1-6.2,2.1-9.3,3.1c-0.5,0.2-1,0.4-1.5,0.5
		c-1.1,0.2-2.1,0-3-0.7c-1.4-1.1-2.2-2.5-2.3-4.3c-0.1-1.2,0.4-2.3,1.3-3c1.6-1.3,3.3-2.4,5.4-2.7c3.5-0.5,6.6-1.9,9.6-3.7
		c2.1-1.3,4.3-2.5,6.4-3.8c1-0.6,2-1.2,2.8-1.9c4.4-3.7,8.8-7.5,13.1-11.2c0.7-0.6,1.4-1.4,2-2.1c3.1-3.6,6.2-7.3,9.3-10.9
		c1.5-1.7,2.2-3.6,2.5-5.7c0.6-5.9,0.8-11.8,0.6-17.8c-0.3-6.1,0.2-12.2,1.8-18.2c1.1-4.1,2.6-7.9,5.5-11.1c0.6-0.6,1.1-1.4,1.5-2.2
		c0.6-1.1,0.4-2.1-0.6-2.8c-0.7-0.5-1.5-1-2.3-1.3c-4.6-2-9.2-4-14.2-5c-4.7-0.9-9.3-2.3-13.9-3.3c-3.7-0.8-7.5-1.5-11.2-2.1
		c-4.8-0.8-9.4-2.6-13.9-4.4c-1.6-0.7-3.3-1.4-4.8-2.3c-1.5-0.9-3-1.8-4.4-3c-1.6-1.4-1.7-2.4-0.7-4.2c0.6-1.1,1.1-2.2,1.1-3.5
		c0-1.2,0.7-1.7,1.9-1.8c0.7-0.1,1.4-0.1,2.1-0.2c1-0.2,1.5-1.4,0.8-2.3c-0.3-0.4-0.7-0.8-1.2-1.1c-0.6-0.4-1.2-0.7-1.8-1.1
		c-0.7-0.4-1.4-0.9-1.9-1.4c-1.3-1.2-1.4-2.3-0.4-3.8c0.2-0.3,0.4-0.6,0.7-0.8c0.7-0.8,0.9-1.7,0.6-2.7c-0.2-0.6-0.3-1.2-0.5-1.8
		c-0.2-1.1,0-2.1,0.7-3c0.9-1.1,2-1.3,3.3-0.6c0.7,0.4,1.3,0.9,1.9,1.4c2.2,1.9,4.6,3.3,7.2,4.5c4.4,2,8.7,4,13,6
		c3.6,1.6,7.2,3.4,10.6,5.6c4.3,2.8,8.8,5.3,13.1,8.2c3.4,2.3,6.5,4.9,9.7,7.4c0.8,0.7,1.6,1.4,2.3,2.2c1.9,2.1,3.8,4.3,5.6,6.4
		c1.1,1.4,2.1,2.8,3.1,4.3c1.3,1.8,2.2,2.1,4.3,1.6c2.4-0.6,4.8-1.2,7.2-1.7c3.4-0.7,6.8-0.8,10.3-0.6c3.3,0.2,6.5,0.4,9.7,1.2
		c0.3,0.1,0.7,0.1,1.1,0.1c3.2,0.3,6.3,0.6,9.3,1.9c1.4,0.6,2.9,0.7,4.3,1.2c2.1,0.7,4.1,1.7,5.9,2.9c0.9,0.6,1.8,1.1,2.8,1.5
		c1.2,0.5,2,0.2,2.7-0.9c0.4-0.8,0.7-1.6,1-2.4c1.1-3,2.3-5.9,4.1-8.6c0.1-0.2,0.3-0.5,0.4-0.7c2.6-2.9,4.5-6.4,6.8-9.5
		c0.4-0.5,0.7-1,1-1.6c1.5-2.5,3.1-5,4.6-7.4c0.4-0.7,0.9-1.4,1-2.1c0.4-2,1.2-3.9,2.2-5.7c1.1-1.8,1.1-3.7,0.8-5.7
		c-0.2-1.5-0.9-2.3-2.5-2.2c-2.2,0.1-4.5,0.2-6.6,0.7c-6.3,1.6-12.4,3.5-18.2,6.6c-0.7,0.4-1.4,0.7-2.2,1c-2.5,1-4.7,2.4-6.9,4
		c-1.5,1.1-3.1,2.1-4.7,3c-0.7,0.4-1.5,0.5-2.3,0.6c-1,0.1-1.7-0.9-1.2-1.8c0.2-0.4,0.4-0.8,0.7-1.1c3.2-3.7,6.8-6.9,11.2-9.3
		c4.5-2.4,9.2-4.4,14.1-6.2c4.1-1.5,8.3-2.4,12.7-2.7c3.1-0.2,6.2-0.7,9.2-1c2.4-0.2,4.7-0.4,7.2-0.1c2.4,0.3,3.6-0.7,4.1-3.1
		c0.3-1.3,0.4-2.6,0.9-3.9c0.7-1.8,0.2-3.3-0.8-4.7c-0.4-0.5-0.8-0.9-1.3-1.4c-0.3-0.3-0.6-0.6-0.9-1c-0.8-1.3-0.1-2.8,1.4-2.9
		c0.5,0,1.1,0,1.6,0.1c1.8,0.5,3.6,0.4,5.1-0.7c2.6-1.9,6.8,0,7.6,2.9c0.5,2,1.6,3.2,3.6,3.9c1.7,0.6,2.3,1.9,1.9,3.6
		c-0.3,1.4-1.3,2.1-2.7,1.9c-0.7-0.1-1.4-0.3-2.1-0.5c-1.3-0.3-2.5,0-3.5,0.8c-2,1.8-3.6,3.9-4.2,6.6c-0.6,2.4,0.3,4,2.7,4.6
		c3.5,0.9,6.6,0.1,9.1-2.4c3.7-3.8,7.1-7.9,9.9-12.5c0.6-1,1.1-2,1.6-3.1c0.2-0.5,0.4-1,0.5-1.5c0.2-1.4-0.2-2.2-1.5-2.8
		c-0.8-0.4-1.7-0.6-2.5-0.9c-5.6-2-10.6-5-14.7-9.3c-1.6-1.7-3-3.5-3.5-5.8c-1-4.4-1.3-8.8,0.1-13.1c1.1-3.5,3.1-6.4,6.1-8.5
		c2-1.4,4.2-2.6,6.3-3.9c0.5-0.3,1.1-0.6,1.7-0.8c1.7-0.7,9.8-2.6,11.6-2.6c4.5,0,9,0.1,13.5,0.9c4,0.7,7.9,2.1,11.4,4.2
		c3.5,2,6,5,7.6,8.7c0.6,1.4,1.1,2.8,1.7,4.2c0.8,2,0.8,4.2,0.7,6.3c-0.2,3.2-0.7,6.3-2.3,9.2c-2.4,4.3-6.2,6.9-10.6,8.9
		c-1.6,0.7-3.3,1.4-4.8,2.2c-2.1,1-4.3,1.5-6.6,1.8c-2,0.3-4.1,0.5-6.1,0.5c-2.1,0-3.5,0.9-4.4,2.8c-0.8,1.8-1.6,3.5-2.6,5.2
		c-1.6,3-3.3,6.1-5,9c-2.2,3.7-5.4,6.3-9.4,7.9c-2.6,1.1-5.2,2.2-7.9,3.2c-1.4,0.5-2.4,1.4-3.1,2.8c-1.1,2.2-2.3,4.4-3.4,6.6
		c-1.1,2.1-1.9,4.4-2.3,6.8c-0.5,3.1-1.4,6-2.6,8.9c-0.3,0.7-0.6,1.5-0.7,2.3c-0.3,1.5,0.4,2.2,1.8,2.3c0.6,0,1.2,0,1.8-0.2
		c0.9-0.2,1.6-0.7,1.8-1.7c0.3-1.7,1.3-2.9,3-3.4c1.1-0.4,1.6-1.1,1.9-2.3c0.4-2,0.8-2.3,2.8-2.5c1.3-0.1,2.4-0.4,2.9-1.8
		c0.4-1.1,1.2-1.7,2.3-2.1c1-0.3,1.7-0.9,1.9-2c0.4-1.9,1.8-2.7,3.6-2.9c0.4,0,0.7-0.1,1.1-0.1c1.1-0.2,1.9-0.8,2.3-1.9
		c0.2-0.6,0.4-1.2,0.6-1.7c0.7-1.4,2.1-2,3.6-1.3c0.7,0.3,1.3,0.9,2,1.3c1.5,0.9,2.4,0.7,3.2-0.9c0.3-0.6,0.6-1.3,0.9-1.9
		c0.5-1,1.1-1.8,2.1-2.4c1.2-0.7,2.2-0.6,3,0.5c0.4,0.6,0.8,1.2,1.1,1.8c0.5,0.9,1.2,1.2,2.2,1c0.3-0.1,0.7-0.2,1-0.3
		c2.1-0.5,3.6,0.4,4.4,2.4c0.2,0.6,0.4,1.2,0.5,1.8c0.4,2.6,1.7,4.6,3.4,6.5c0.6,0.7,1.4,1.4,2.1,2.1c3.6,3.3,6.6,7.2,9.2,11.3
		c0.8,1.3,1.8,2.4,3,3.3c2.7,2.3,4.9,5.1,6.5,8.3c0.2,0.3,0.3,0.6,0.5,1c0.8,1.6,0.1,3.5-2.4,3.6c-0.8,0-1.7-0.3-2.6-0.6
		c-0.7-0.2-1.3-0.6-2-0.8c-0.9-0.2-1.6,0.5-1.4,1.4c0.2,0.7,0.5,1.3,0.7,2c0.5,1.5-0.4,2.4-2,2.2c-1.4-0.3-2.7-1-3.8-1.9
		c-1.7-1.5-3.8-2.2-5.9-3c-2.1-0.8-4-0.5-5.8,0.8c-1.4,1-2.7,2-4.1,3c-1.1,0.8-1.9,1.9-2.5,3.1c-2.8,5.5-5.3,11.2-6.3,17.4
		c-0.7,4.5-1.5,8.9-2.4,13.3c-0.2,1.1-0.5,2.2-0.8,3.4c-0.1,0.6-0.4,1.2-0.4,1.8c-0.1,1.3,0.4,2,1.6,2.4c0.8,0.3,1.7,0.5,2.6,0.6
		c3.1,0.4,6,1.4,9,2.3c0.9,0.3,1.8,0.7,2.6,1.3c3.4,2.1,6.7,4.3,10,6.5c0.9,0.6,1.7,1.3,2.5,2c4.2,3.6,8.4,7.1,12.5,10.7
		c3.8,3.4,7.3,7.2,10.5,11.2c0.9,1.2,1.6,2.6,2.1,4c0.3,0.9,0.4,1.9,0.3,2.9c-0.2,1.4-1.1,2.2-2.5,2.3c-2.1,0.1-3.8-0.5-5.2-2.1
		c-2.6-3.2-5.2-6.2-7.8-9.4c-4.4-5.5-9.5-10.2-15.3-14.3c-1.1-0.8-2.2-1.5-3.4-2.1c-2.4-1.2-4.8-2.4-7.2-3.3
		c-4.4-1.6-9-2.7-13.7-2.6c-1.4,0-2.8,0.2-4.2,0.5c-1.1,0.2-2.2,0.8-2.5,2.1c-0.2,1.4,0.7,2.1,1.7,2.7c1.1,0.7,2.4,1.2,3.5,1.9
		c2,1.2,4.1,2.2,5.9,3.6c4.3,3.3,7.1,7.5,8,13c0.6,3.8-1.7,8.9-6.1,10.4c-1.7,0.6-3.4,1.2-5.2,1.1c-0.6,0-1.2-0.1-1.8-0.2
		c-2-0.5-2.7-1.9-1.8-3.8c0.5-1.3,1.4-2.3,2.6-2.9c0.8-0.5,1.7-1,2.4-1.6c1.8-1.6,1.9-3.8-0.1-5.2c-2.5-1.9-5.1-3.5-7.7-5.3
		c-0.9-0.6-2-1.2-2.8-2c-1-0.9-2.1-1.6-3.4-2.1c-2.9-1.1-5.7-2.6-8.8-2.9c-2.5-0.3-5.1-0.7-7.7-0.7c-4.2,0-8.3,0.3-12.5,0.6
		c-4.7,0.3-9.4,0.8-14.1,0.5c-1.1-0.1-2.3,0.1-3.5,0.1c-1.7,0-3.4,0-5,0c-2.3-0.1-3.4,0.7-3.7,2.9c-0.3,2.2-0.2,4.4-0.3,6.6
		c0,0.9,0,1.8-0.1,2.6c-0.3,1.7-1.2,2.5-2.9,2.6c-1.4,0.1-2.9,0.1-4.2-0.5c-2.2-0.9-4.3-0.6-6.3,0.6c-1.1,0.6-2.3,1-3.4,1.5
		c-0.5,0.2-1,0.3-1.5,0.4c-1.5,0.1-2.6-1-2.4-2.5c0.1-0.6,0.3-1.2,0.5-1.8c0.4-1.1,0.8-2.1,1.3-3.2c0.7-1.7,1.2-3.5,1.4-5.4
		c0.5-3.9,1.1-7.7,1.7-11.5c0.6-3.5,0.1-4.5-2.9-6.2c-3.1-1.7-6.4-2.9-9.8-3.1c-5.7-0.4-11.3,0.3-16.6,2.8c-2.5,1.2-4.4,3-5.4,5.6
		c-0.6,1.7-1.2,3.3-1.7,5c-0.2,0.7-0.3,1.4-0.5,2.1c-0.4,1.3-1.1,2.5-2.4,3c-1.8,0.7-2.8,2.1-3.6,3.7c-0.5,1.1-1.2,2.2-1.7,3.3
		c-2.6,6-5.9,11.7-9.2,17.4c-1.2,2.1-2.8,4.1-4.4,6c-3,3.9-6.3,7.7-10.1,10.9c-2.4,2-5,3.7-8,4.7c-0.9,0.3-1.9,0.5-2.8,0.7
		c-2.9,0.4-5.7-2.7-4.9-5.7c0.4-1.5,1-2.9,2.1-4c0.9-0.9,2-1.8,3-2.6c1.7-1.4,3.5-2.7,5.3-4c0.8-0.6,1.6-1.2,2.4-1.6
		c1.7-0.9,3-2.1,4.2-3.6c2.5-3.1,4.7-6.5,6.5-10c2.5-4.7,4.5-9.6,6.1-14.7c0.5-1.5,0.7-3.1,1-4.7C202.5,191.2,202.2,190.5,202.2,190
		z M292.4,141.6c0.3,0.5,0.6,0.9,0.8,1.3c0.7,1.5,0,2.6-1.7,2.6c-0.7,0-1.4-0.3-2.1-0.4c-1.9-0.3-3.3,0.8-3.6,2.7
		c-0.2,1.2,0.4,1.9,1.6,1.9c1,0,1.9-0.1,2.9,0c0.7,0,1.3,0.6,1.3,1.1c0,0.5-0.5,1.2-1.1,1.3c-0.4,0.1-0.9,0.2-1.3,0.1
		c-0.6-0.1-1.2-0.3-1.8-0.6c-1.7-0.9-2.3,0.1-2.7,1.4c-0.1,0.3-0.2,0.7-0.1,1c0.2,1.5-0.5,2.5-1.4,3.5c-0.8,0.9-1.3,2.1-1.7,3.3
		c-0.4,1.3,0.2,2.3,1.4,2.7c0.7,0.2,1.4,0.4,2,0.6c0.5,0.2,0.9,0.6,0.8,1.2c-0.1,0.6-0.5,1-1.1,1c-0.7,0-1.4-0.1-2.1-0.2
		c-0.6-0.1-1.2-0.2-1.8-0.2c-0.8,0.1-1.4,0.8-1.5,1.6c-0.1,0.8,0.4,1.1,1.1,1.3c0.3,0.1,0.7,0.2,1,0.4c1,0.5,1.2,1.5,0.4,2.4
		c-0.7,0.8-1.3,0.9-2.3,0.5c-0.2-0.1-0.4-0.3-0.7-0.4c-1.4-0.6-2.4-0.4-3.1,1c-0.7,1.4-1.3,2.9-1.7,4.4c-0.5,2.1,0.1,3.2,2.2,3.8
		c1.8,0.5,3.6,1,5.5,1c4.2,0.1,8.3,0.4,12.5-0.1c0.8-0.1,1.6-0.2,2.4-0.1c4.8,0.2,9.5-1.1,14.2-1.5c0.6-0.1,1.2-0.3,1.8-0.5
		c4.6-1.4,8.8-3.7,12.9-6.2c1.2-0.7,2.3-1.7,3-2.9c0.5-0.7,1-1.5,0.7-2.6c-0.3,0-0.7-0.2-1-0.1c-1.2,0.3-2.4,0.5-3.7,0.4
		c-0.8,0-1.7,0.4-2.5,0.7c-0.6,0.3-1.2,0.8-1.8,1c-0.5,0.2-1,0.4-1.5,0.4c-0.7,0-1.4-0.6-1.5-1.2c-0.1-0.7,0.1-1.2,0.7-1.6
		c0.4-0.3,0.9-0.6,1.4-0.7c2-0.4,3.9-1.2,5.7-2c1.7-0.8,3.5-1.3,5.4-0.5c0.7,0.3,1.3-0.2,1.4-0.9c0.1-0.7,0-1.4,0-2.1
		c-0.1-1,0.3-1.7,1.2-2.2c0.3-0.1,0.7-0.3,1-0.4c1-0.3,1.6-1.1,2-2c0.2-0.7,0.4-1.3,0.6-2c0.7-3.3,1.5-6.6,2.2-9.8
		c0.1-0.4,0.2-0.9,0.3-1.3c0.1-1.1-0.6-1.7-1.6-1.5c-0.8,0.2-1.5,0.5-2.3,0.6c-0.8,0.1-1.7-0.6-1.8-1.3c-0.2-0.7,0.1-1.2,0.6-1.7
		c1.6-1.3,3.2-2.5,5.5-2.1c1.6,0.3,2.8-0.5,3.4-1.9c0.7-1.4,1.2-2.9,1.7-4.4c0.5-1.6,0.3-3-1.3-3.9c-0.1-0.1-0.3-0.2-0.4-0.3
		c-1.4-1.3-1.2-2.6,0.3-3.7c0.4-0.3,0.9-0.5,1.4-0.8c0.7-0.5,0.9-1.4,0.5-2.1c-0.5-0.8-1.5-1-2.3-0.5c-0.4,0.2-0.7,0.5-1.1,0.8
		c-1.3,0.9-2.4,1.1-3.1,0.3c-0.8-0.9-0.5-1.8,0.1-2.7c0.4-0.7,0.9-1.3,0.7-2.3c-1.3-1.3-3.1-2-4.8-3.1c-0.3-0.2-0.9-0.3-1.3-0.2
		c-0.7,0.3-1.4,0.7-2,1.2c-0.7,0.7-1.3,1.5-1.1,2.4c0.2,0.2,0.3,0.3,0.4,0.3c0.4,0.1,0.9,0.1,1.3,0.2c0.5,0,1.1,0,1.6,0.1
		c0.6,0.1,1,0.9,0.8,1.4c-0.9,2.6-3.3,3.1-5,1.2c-0.1-0.1-0.2-0.3-0.3-0.4c-0.7-0.7-1.2-0.9-2.1-0.5c-0.6,0.3-1.3,0.7-1.7,1.2
		c-1,1-0.9,1.7,0.3,2.6c0.3,0.2,0.6,0.4,0.8,0.6c0.6,0.5,0.6,1.3,0.1,1.9c-0.8,1.1-1.9,1.3-2.9,0.4c-0.2-0.2-0.4-0.4-0.6-0.6
		c-1.2-1-2-1.2-3.3-0.5c-1.3,0.7-2.4,1.8-3.2,3.1c-0.2,0.4-0.5,0.8-0.1,1.3c0.7,0.1,1.5,0.2,2.2,0.4c0.9,0.2,1.3,1.4,0.8,2.1
		c-0.4,0.6-0.9,1.1-1.5,1.5c-0.9,0.6-2,0.3-2.6-0.5c-0.4-0.5-0.5-1.1-0.9-1.6c-0.2-0.3-0.7-0.6-1.1-0.6c-1.1,0-2.1,0.4-2.9,1.1
		c-0.6,0.6-1.3,1.2-1.3,2.2c0.5,0.2,0.9,0.4,1.3,0.6c1.5,0.9,1.7,1.9,0.6,3.3c-0.2,0.3-0.5,0.5-0.7,0.8c-0.9,0.9-1.9,0.8-2.7-0.2
		c-0.3-0.4-0.4-0.9-0.6-1.4c-0.2-0.5-0.2-1-0.4-1.5c-2.4-0.4-4.4,0.3-6,1.8c-1.2,1.1-2.5,1.8-4.1,2.2
		C294.5,139.4,293.3,140.1,292.4,141.6z M233.9,127.7c0.1,0.4,0.1,0.7,0.1,0.9c0.1,0.3,0.2,0.5,0.3,0.7c0.3,1.4-0.5,2.3-1.9,2
		c-1.2-0.2-1.9-0.9-2.3-2c-0.5-1.6-1.7-1.9-3.1-1.9c-1.4,0-2.6,0.4-3.9,0.9c-1,0.4-1.9,0.9-3,1.2c-4.1,1.2-7.1,3.8-9.8,7
		c-2.7,3.3-3.1,7-2.2,11c0.2,0.9,0.6,1.9,0.7,2.8c0.3,1.7,1,3.2,2,4.6c1.7,2.5,3.7,4.7,6.3,6.4c2.9,2,6,3.4,9.2,4.8
		c1.9,0.8,4,1.5,6.1,1.6c1.4,0.1,1.8-0.2,2.2-1.6c0.1-0.3,0.1-0.5,0.2-0.8c0.4-1.1,1.1-1.5,2.3-1.3c1.2,0.1,1.8,0.7,2.1,1.7
		c0.1,0.5,0.1,1.1,0.2,1.6c0,0.8,0.5,1.3,1.2,1.6c0.3,0.1,0.7,0.2,1,0.3c1.3,0.2,2.5-0.1,3.4-1.1c0.8-0.8,1.6-1.7,2.8-2
		c0.9-0.3,1.6,0,2.1,0.8c0.5,0.7,0.8,1.6,1.4,2.3c1.1,1.5,2.6,2.1,4.5,1.7c1.2-0.3,2.4-0.7,3.3-1.7c-0.1-0.7-0.3-1.4-0.4-2.1
		c-0.2-1.4,0.9-2.2,2.2-1.6c0.5,0.2,0.9,0.5,1.4,0.8c1.4,0.8,2.2,0.6,3.3-0.6c1.4-1.7,2.3-3.5,1.9-5.8c-0.1-0.5-0.1-1.1-0.2-1.6
		c-0.1-0.7,0-1.4,0.6-2c0.9-0.8,1.2-1.9,1.4-3.1c0.1-0.6,0.3-1.2,0.5-1.8c0.3-1,0.4-1.9-0.1-2.8c-0.6-1.2-0.7-2.3-0.2-3.6
		c0.7-1.5,0.4-3-0.7-4.2c-0.9-1.1-1.7-2.2-1.7-3.8c0-1.1-0.7-1.8-1.7-2.2c-0.5-0.2-1-0.4-1.5-0.5c-1.5-0.2-2.8-0.8-4.1-1.7
		c-1.3-0.9-2.9-1.3-4.5-1.6c-1.3-0.2-1.9,0.4-1.5,1.6c0.5,1.8,0.6,3.7,2.1,5c0.4,0.4,0.2,1-0.1,1.4c-0.6,0.6-1.2,1-2.1,0.7
		c-1.2-0.4-1.9-1-1.9-2.2c0.1-1.5-0.5-2.5-1.7-3.3c-0.8-0.6-0.8-1.1-0.3-2.1c0.4-0.7,0.8-1.3,1.1-1.9c-0.7-1.5-2-2-3.3-2.3
		c-1.4-0.4-2.9-0.6-4.5,0.2c0.2,0.5,0.4,0.9,0.4,1.3c0.5,2-0.1,2.7-2.1,2.5c-0.6-0.1-1.2-0.2-1.8-0.4c-0.5-0.1-1-0.5-1.1-1.1
		c-0.1-0.7,0.1-1.2,0.7-1.6c0.5-0.4,1.1-0.7,2.2-1.3C238.5,127.3,236.2,126.2,233.9,127.7z M340.2,43.9c-1-1.4-2-2.7-2.9-4.1
		c-0.6-1-1.2-2-1.6-3c-0.8-2-0.7-4,0.6-5.8c0.4-0.6,0.8-1.2,1.2-1.8c0.8-1.3,1.9-2.1,3.2-2.7c3.3-1.6,6.8-1.9,10.4-1.6
		c3.2,0.3,5.5,2.3,7.2,4.9c0.3,0.5,0.5,1.1,0.6,1.7c0.7,3.5-0.7,6.8-3.8,8.6c-1.3,0.8-2.7,1.4-4,2.1c-0.5,0.3-1.2,0.5-1.6,0.9
		c-0.4,0.3-0.7,0.9-0.7,1.3c0,0.7,0.6,1,1.2,1.2c0.4,0.1,0.9,0.2,1.3,0.2c1.4,0.1,2.8-0.3,4.1-0.9c3-1.6,5.2-3.9,6.9-6.8
		c1.3-2.2,1.8-4.6,1.6-7.1c-0.2-2.7-1.3-4.9-3.5-6.6c-2.3-1.7-4.7-3.1-7.6-3.6c-2-0.4-4-0.7-6-0.9c-5.8-0.6-10.6,1.5-14.4,5.8
		c-2,2.3-3.1,8-2.1,10.8c0,0.1,0.1,0.2,0.1,0.2c1.6,4.3,4.9,6.6,9.3,7.2C339.7,44.3,339.9,44.1,340.2,43.9z M335.4,17.8
		c-0.6-0.2-0.8-0.4-0.9-0.4c-4.9,0.2-9.1,2.1-12.3,5.9c-1.2,1.4-2,3.1-2,5.1c0,2.2-0.1,4.4,0.2,6.6c0.4,3.9,2.4,7,5.5,9.3
		c0.8,0.6,1.7,1.2,2.7,1.7c2.8,1.6,5.6,3.1,8.4,4.6c0.6,0.3,1.3,0.4,2,0.5c0.6,0.1,1.1-0.3,1.2-0.8c0.1-0.4-0.1-1-0.4-1.2
		c-0.8-0.6-1.6-1.2-2.5-1.5c-2.2-0.8-4.1-2.1-6-3.4c-1.2-0.8-2.1-1.9-2.8-3.1c-0.7-1.4-1.5-2.8-2.1-4.3c-2-5.1-0.4-10.9,3.7-14.4
		c1.3-1.1,2.6-2.1,3.9-3.1C334.6,18.9,334.9,18.4,335.4,17.8z M303.9,92.3c-0.1-0.6-0.2-1.2-0.4-1.8c-0.4-1.4-1.7-2-2.9-1.3
		c-0.6,0.3-1.2,0.8-1.5,1.4c-0.5,0.9-0.9,1.9-1.3,2.9c-0.7,1.6-1.1,3.4-2,4.9c-2.9,4.9-4.4,10.4-6.1,15.8c-0.3,0.8-0.3,1.7-0.3,2.6
		c0,1.2,0.8,2.3,1.5,2.3c0.9,0,1.4-0.7,1.8-1.4c0.8-1.2,1.6-2.3,2.3-3.5c1.3-2.1,2.7-4.2,3.9-6.3c0.5-0.9,0.9-2,1-3
		c0.1-2.2,1-4.1,2.1-5.9C303.4,96.9,304,94.7,303.9,92.3z M366.1,23.4c0,1.7,0.3,2.9,0.7,4c0.9,2.9,0.9,5.7,0.4,8.6
		c-1,5.7-4.8,9.2-9.5,12c-0.4,0.2-0.8,0.3-1.3,0.4c-2.2,0.7-4.5,1.1-6.8,1c-0.7,0-1.4,0.2-2.1,0.4c-0.6,0.2-1,0.7-1,1.4
		c0,0.7,0.5,1.1,1.1,1.4c1.1,0.5,2.2,0.5,3.4,0.3c2.1-0.4,4.1-1,6.1-1.9c1.2-0.6,2.4-1.1,3.7-1.5c5.5-1.9,8.9-5.9,11.3-10.9
		c0.3-0.5,0.4-1.2,0.4-1.8c0.1-1.2,0.2-2.5,0.1-3.7c-0.1-2.4-0.7-4.7-2.2-6.7C369.4,25,368.2,23.9,366.1,23.4z M346.7,28.9
		c-3.3,0.2-6.5,2.8-7.2,5.7c-0.3,1.3-0.2,2.6,0.7,3.8c0.8,1,1.8,1.5,3,1.1c1.3-0.5,2.6-0.5,3.9-0.1c0.9,0.2,1.8,0.1,2.6-0.3
		c2-1.1,3.4-2.8,3.8-5.1c0.3-1.4-0.2-2.6-1.5-3.4C350.2,29.4,348.3,29,346.7,28.9z M303.5,122.2c1.2,0,1.9-0.9,1.9-2.4
		c0-0.8-0.3-1.6-1.1-2c-0.5-0.3-1.4,0.2-2,1c-0.3,0.4-0.5,1-0.6,1.5C301.6,121.4,302.4,122.2,303.5,122.2z M358.1,114
		c-0.4-0.2-0.7-0.4-0.9-0.4c-0.1,0-0.4,0.3-0.4,0.5c0,0.5,0.3,0.6,0.7,0.5C357.6,114.5,357.8,114.3,358.1,114z"/>
	<path class="st5" d="M327.3,134.8c0.4,0.6,0.9,1.1,1.3,1.7c0.6,0.8,0.6,1.7,0.1,2.5c-0.5,1-1.3,1.6-2.5,1.6c-0.6,0-1.2-0.6-1.2-1.2
		c0-0.5,0-1.1,0.1-1.6c0.3-1.2,0-2.2-0.8-3.2c-1.3-1.5-1.1-2.4,0.5-3.4c0.7-0.4,1.4-0.8,2.2-1c1-0.3,1.8,0.6,1.4,1.6
		c-0.2,0.6-0.5,1.1-0.8,1.7C327.5,133.9,327.4,134.3,327.3,134.8z"/>
	<path class="st5" d="M316.1,141.5c-0.6-0.2-1.3-0.4-1.9-0.7c-0.7-0.3-0.8-1.2-0.3-1.8c1.1-1.2,2.5-2,4-2.3c0.7-0.2,1.4,0.5,1.5,1.2
		c0.1,1.2-1.1,3.1-2.1,3.4C316.9,141.4,316.5,141.4,316.1,141.5z"/>
	<path class="st5" d="M299.8,146.3c0.5,0.1,0.9,0.2,1.2,0.3c0.7,0.2,1.1,1,0.8,1.7c-0.6,1.1-1.5,1.9-2.7,2.3c-1.1,0.4-2.8-0.7-3-1.9
		c-0.1-0.6,0.2-1.1,0.7-1.3C297.8,147,298.9,146.7,299.8,146.3z"/>
	<path class="st5" d="M295.1,177.1c-1.8,0.1-3-1.2-2.4-2.8c0.2-0.6,0.6-0.9,1.2-0.9c1.2,0.1,2.5,0.2,3.7,0.4c0.4,0.1,0.8,0.4,1,0.8
		c0.3,0.5-0.1,1-0.5,1.4C297.2,176.8,296.2,177.1,295.1,177.1z"/>
	<path class="st5" d="M282.8,178.6c-0.7-0.2-1.8-0.5-2.8-0.9c-0.4-0.2-0.8-0.7-0.9-1.2c-0.3-0.9,0.6-1.9,1.5-1.6
		c1.2,0.3,2.3,0.8,3.5,1.2c0.6,0.2,1,0.8,0.9,1.5C284.8,178.2,284.1,178.7,282.8,178.6z"/>
	<path class="st5" d="M323,143c-0.1,0.4-0.1,0.8-0.2,1.1c-0.6,1.1-1.5,1.8-2.7,2c-0.9,0.2-1.8-0.4-2-1.3c-0.3-1.1,0.1-2.1,0.9-2.5
		c1.1-0.5,2.3-0.5,3.4-0.1C322.6,142.4,322.8,142.8,323,143z"/>
	<path class="st5" d="M299.1,151.9c0.6,0.1,1,0.1,1.3,0.2c0.8,0.2,1.3,0.8,1.4,1.4c0.1,0.7-0.3,1.2-0.8,1.6c-1,0.7-2.1,0.9-3.2,0.4
		c-1-0.5-1.2-1.7-0.5-2.4C297.9,152.5,298.6,152.2,299.1,151.9z"/>
	<path class="st5" d="M309.5,163.3c0.5,0.2,1,0.2,1.3,0.5c0.3,0.2,0.5,0.6,0.5,0.9c0,1.1-0.8,1.8-1.6,2.2c-0.7,0.4-1.5,0.4-2.2-0.2
		c-0.9-0.7-1-1.8-0.1-2.4C308.1,163.8,308.8,163.6,309.5,163.3z"/>
	<path class="st5" d="M299.9,169.5c-0.4-0.1-1-0.2-1.5-0.6c-0.3-0.2-0.6-0.7-0.6-1.1c0-0.4,0.4-0.8,0.7-1c1.1-0.5,2.2-0.6,3.4-0.3
		c0.8,0.2,1.1,1.2,0.6,1.9C301.8,169.2,301,169.3,299.9,169.5z"/>
	<path class="st5" d="M309.6,155.6c0.4,0.1,0.9,0.1,1.2,0.3c0.3,0.2,0.6,0.7,0.6,1.1c-0.1,1.5-1.9,2.5-3.3,1.8
		c-0.6-0.3-1-0.8-0.9-1.5c0.1-0.5,0.5-0.9,0.9-1.2C308.4,155.8,309,155.8,309.6,155.6z"/>
	<path class="st5" d="M309.1,145.2c-0.9,0.1-1.8-0.4-2.1-1.1c-0.3-0.7,0-1.2,0.4-1.7c0.6-0.7,1.3-1.2,2.3-1c1,0.1,1.6,1,1.2,1.9
		C310.6,144.2,310,144.9,309.1,145.2z"/>
	<path class="st5" d="M293.5,171c0.1,1.2-0.7,1.9-1.8,1.6c-0.6-0.2-1.3-0.6-1.8-1c-0.7-0.5-0.5-1.5,0.3-1.9c0.7-0.3,1.3-0.4,2-0.2
		C293,169.8,293.4,170.3,293.5,171z"/>
	<path class="st5" d="M300.9,139.3c0.4,0.1,1.1,0.3,1.9,0.6c0.4,0.2,0.5,1,0.3,1.4c-0.9,1.4-3,1.4-3.9,0c-0.6-0.9-0.2-1.8,0.9-1.9
		C300.2,139.4,300.3,139.4,300.9,139.3z"/>
	<path class="st5" d="M300.2,161.6c-0.1,0.3-0.2,0.7-0.4,0.9c-1,1.2-2.9,1-3.9-0.3c-0.3-0.4-0.2-1.1,0.3-1.4c1.2-0.6,2.4-0.6,3.5,0
		C299.9,161.1,300,161.4,300.2,161.6z"/>
	<path class="st5" d="M332.8,133.1c0-1.2,1.6-2.4,2.8-2.1c0.5,0.1,0.9,0.7,0.9,1.2c-0.1,1-1,2.1-1.9,2.3
		C333.8,134.7,332.8,134,332.8,133.1z"/>
	<path class="st5" d="M309.5,172.1c-0.1,0.3-0.1,0.6-0.3,0.8c-0.9,1.2-2.7,1.4-3.7,0.3c-0.5-0.5-0.3-1.5,0.4-1.8
		c0.9-0.3,1.9-0.4,2.9-0.1C309.1,171.5,309.3,171.9,309.5,172.1z"/>
	<path class="st5" d="M318.7,153.6c-0.9,0.1-1.5-0.3-1.8-0.8c-0.2-0.5,0-1.3,0.5-1.6c0.3-0.2,0.6-0.4,0.9-0.5c0.8-0.3,1.5,0,1.8,0.6
		c0.3,0.6,0.1,1.4-0.6,1.8C319.3,153.4,318.9,153.6,318.7,153.6z"/>
	<path class="st5" d="M333.9,126.1c-0.8,0.1-1.5-0.6-1.5-1.4c0-0.9,0.8-1.6,1.7-1.6c0.8,0,1.5,0.5,1.6,1.1
		C335.7,125.1,334.9,126.1,333.9,126.1z"/>
	<path class="st5" d="M327.1,156.1c0.1,1-0.5,1.9-1.3,2.2c-0.6,0.3-1.4,0-1.8-0.7c-0.2-0.3-0.3-0.7-0.2-1c0.3-1.1,1.8-1.7,2.7-1.2
		C326.8,155.6,327,156,327.1,156.1z"/>
	<path class="st5" d="M328.8,146.1c0,1-0.4,1.7-1.1,2.1c-0.6,0.4-1.4,0.3-2-0.2c-0.7-0.6-0.7-1.6,0.1-2c0.7-0.4,1.5-0.6,2.3-0.4
		C328.4,145.7,328.6,146,328.8,146.1z"/>
	<path class="st5" d="M308.4,149.9c-0.1-0.8,0.5-1.6,1.3-1.7c0.8-0.1,1.7,0.4,1.8,1.2c0.1,0.8-0.5,1.5-1.3,1.7
		C309.3,151.2,308.5,150.7,308.4,149.9z"/>
	<path class="st5" d="M334,151.6c0.1,0.6-0.5,1.3-1.3,1.4c-0.9,0.1-1.8-0.6-1.9-1.4c0-0.5,0.6-1.1,1.2-1.2
		C332.9,150.2,333.9,150.8,334,151.6z"/>
	<path class="st5" d="M288.3,156c0.1,0,0.3,0,0.6,0c0.7,0.1,1.2,0.7,1.1,1.2c-0.1,0.6-0.5,1-1.1,1c-0.5,0-1.1,0-1.5-0.3
		c-0.4-0.2-0.8-0.8-0.8-1.2c0-0.6,0.7-0.7,1.2-0.8C288,156,288.1,156,288.3,156z"/>
	<path class="st5" d="M317.7,162.2c-0.2-0.2-0.6-0.6-0.7-1c-0.2-0.5,0.4-1,1-1c0.5,0,1,0.5,1,1C319,161.7,318.5,162.2,317.7,162.2z"
		/>
	<path class="st5" d="M262.8,152c-0.3-1-0.6-1.6-0.8-2.3c-0.2-0.6,0-1.2,0.5-1.7c0.4-0.4,0.9-0.6,1.4-0.3c0.6,0.4,1.2,0.8,1.7,1.3
		c0.7,0.7,0.9,1.6,0.4,2.4c-0.8,1.1-0.6,2.1-0.3,3.3c0.4,1.4,0.3,1.5-1,2.3c-0.3,0.2-0.6,0.4-1,0.6c-0.1,0.7-0.2,1.4-0.4,2.1
		c-0.3,1.2-1.3,1.7-2.4,1.1c-0.4-0.2-0.8-0.5-1.1-0.8c-0.4-0.4-0.5-0.9-0.2-1.4c0.3-0.4,0.7-0.8,1-1.2c0.2-0.4,0.5-0.8,0.5-1.2
		C261,154.5,261.7,153.2,262.8,152z"/>
	<path class="st5" d="M250.8,151.2c-0.8,0.6-1.6,1.2-2.3,1.7c-0.5,0.8,0,1.5,0.2,2.3c0.3,1.1-0.2,1.9-1.4,2
		c-0.9,0.1-1.7-0.3-2.4-0.9c-0.7-0.6-0.8-1.3-0.3-2.1c0.1-0.2,0.2-0.3,0.3-0.4c0.8-0.7,0.9-1.6,0.8-2.6c-0.1-1.6,1-2.5,2.5-2.1
		C249.4,149.3,250.3,149.9,250.8,151.2z"/>
	<path class="st5" d="M253.4,160.5c-0.4-0.9-0.8-1.5-1.1-2.1c-0.3-0.6-0.3-1.2,0.3-1.7c0.6-0.5,1.2-0.8,1.9-0.4
		c0.9,0.4,1.6,1.1,1.9,2c-0.1,1.4-1.6,1.5-2.3,2.5c0.4,0.7,0.8,1.5,1.1,2.3c0.3,0.7-0.1,1.5-0.9,1.6c-1.1,0.1-2.3,0-3.4-0.1
		c-0.7-0.1-1.1-1-0.8-1.7c0.2-0.4,0.6-0.8,1-1.2c0.3-0.3,0.8-0.4,1.1-0.7C252.6,161,252.9,160.8,253.4,160.5z"/>
	<path class="st5" d="M231.7,157.5c1.5,0,2.8,0.3,3.8,1.3c0.4,0.4,0.6,0.9,0.4,1.4c-0.2,0.5-0.7,0.9-1.3,0.8
		c-1.5-0.3-2.9-0.7-4.3-1.1c-0.3-0.1-0.6-0.7-0.6-1c-0.1-0.6,0.4-1,0.9-1.1C230.9,157.5,231.4,157.5,231.7,157.5z"/>
	<path class="st5" d="M261.8,139.6c-1.3-0.6-2.7-1.1-3.8-2.1c0.2-1.4,1.2-1.9,2.4-2c1.1-0.1,1.7,0.7,2.2,1.6
		C263,137.9,262.9,138.4,261.8,139.6z"/>
	<path class="st5" d="M244.4,162.9c-0.9-0.2-2-0.4-3.1-0.7c-0.3-0.1-0.7-0.6-0.7-1c0-0.4,0.2-0.9,0.6-1.1c1.3-0.9,3.7-0.4,4.7,1
		c0.4,0.5,0.1,1.3-0.5,1.5C245.1,162.7,244.9,162.7,244.4,162.9z"/>
	<path class="st5" d="M238.4,155.7c-0.9,0-2-0.1-2.8-0.9c-0.5-0.5-0.5-1.2-0.1-1.7c0.7-0.8,1.6-1.1,2.6-0.8c0.9,0.2,1.5,0.9,1.7,1.8
		C240.1,154.9,239.5,155.6,238.4,155.7z"/>
	<path class="st5" d="M264.2,143.3c0.1,1-0.7,1.8-1.5,1.6c-0.7-0.2-1.5-0.5-2.1-0.9c-0.6-0.3-0.8-1-0.4-1.6c0.3-0.5,0.8-0.9,1.2-1.3
		c0.2-0.1,0.5-0.2,0.7-0.1C263.2,141.5,263.9,142.3,264.2,143.3z"/>
	<path class="st5" d="M238.1,140.5c1.1,0,1.9,0.1,2.6,0.8c0.6,0.5,0.5,1.4-0.1,1.8c-1,0.7-3,0.5-3.9-0.4c-0.4-0.4-0.4-1.3,0.1-1.6
		C237.3,140.7,237.8,140.6,238.1,140.5z"/>
	<path class="st5" d="M223.4,160.1c-1-0.2-1.9-0.4-2.8-0.7c-0.5-0.2-0.9-0.7-0.7-1.2c0.1-0.4,0.5-0.8,0.8-0.9
		c1.1-0.4,2.2-0.2,3.3,0.4c0.6,0.4,1,1.1,0.7,1.5C224.4,159.5,223.9,159.7,223.4,160.1z"/>
	<path class="st5" d="M245.5,143.3c0.3-0.3,0.5-0.9,0.9-1c1.3-0.5,2.9,0.3,3.5,1.5c0.3,0.6-0.1,1.3-0.7,1.4
		c-1.3,0.3-2.4-0.2-3.3-1.1C245.7,144,245.7,143.7,245.5,143.3z"/>
	<path class="st5" d="M227.9,140.3c-1.2-0.1-2.1-0.5-2.8-1.1c-0.6-0.5-0.4-1.4,0.3-1.7c1.2-0.5,3.3,0.4,3.7,1.7
		c0.1,0.2-0.1,0.7-0.4,0.9C228.5,140.2,228.1,140.2,227.9,140.3z"/>
	<path class="st5" d="M255.9,145.1c0.5,0.1,0.9,0.2,1.3,0.4c0.7,0.3,1,1,0.9,1.7c-0.1,0.7-0.6,1.1-1.2,1.2c-1.2,0.3-2.5-0.8-2.6-2
		c0-0.3,0.2-0.7,0.4-0.9C255.1,145.3,255.5,145.3,255.9,145.1z"/>
	<path class="st5" d="M215.6,143.4c-0.3,0.2-0.6,0.7-1.1,0.7c-1.1,0.2-2-0.2-2.8-1.1c-0.4-0.5-0.3-1.3,0.2-1.6
		c1.2-0.7,3.3,0.1,3.6,1.5C215.6,143,215.6,143.1,215.6,143.4z"/>
	<path class="st5" d="M247.8,136.1c-0.3,0.3-0.6,0.9-1,1c-1.3,0.6-3.2-0.8-3-2.3c0.1-0.4,0.3-0.9,0.8-0.8c1.1,0,2,0.4,2.8,1.2
		C247.5,135.4,247.6,135.7,247.8,136.1z"/>
	<path class="st5" d="M233.1,146.8c0,0.8-1.2,1.7-2.3,1.7c-0.7,0-1.3-0.8-1.4-1.7c-0.1-0.8,0.5-1.6,1.4-1.6
		C231.9,145.1,233.1,145.8,233.1,146.8z"/>
	<path class="st5" d="M237.4,148.2c0.1-0.2,0.2-0.5,0.4-0.8c1-1,2.7-0.6,3.3,0.7c0.1,0.2,0.1,0.5,0.1,0.8c-0.2,0.8-1.1,1.3-2.1,1.2
		C238.3,150,237.5,149.2,237.4,148.2z"/>
	<path class="st5" d="M255.7,153.5c-1.2,0.1-1.9-0.3-2.5-1.1c-0.3-0.4-0.3-0.9,0.1-1.1c0.5-0.3,1-0.6,1.6-0.8
		c0.6-0.2,1.2,0.1,1.6,0.6c0.4,0.5,0.6,1.1,0.2,1.7C256.5,153.1,255.9,153.3,255.7,153.5z"/>
	<path class="st5" d="M230.1,149.1c0.3,0.8,0.6,1.3,0.8,1.9c0.1,0.5-0.1,1-0.6,1.3c-0.7,0.4-1.6,0.1-2.1-0.6c-0.3-0.5-0.2-1,0.1-1.4
		c0.2-0.2,0.3-0.4,0.6-0.5C229.2,149.5,229.5,149.4,230.1,149.1z"/>
	<path class="st5" d="M219.9,139.5c-1-0.1-1.7-0.2-2.3-0.8c-0.2-0.2-0.3-0.7-0.2-0.9c0.1-0.3,0.4-0.6,0.7-0.6
		c0.8-0.2,1.5,0.1,2.2,0.6c0.3,0.3,0.7,0.6,0.4,1.1C220.5,139.1,220.1,139.3,219.9,139.5z"/>
	<path class="st5" d="M223.6,145.2c-0.1,0.2-0.2,0.4-0.3,0.6c-0.2,0.2-0.4,0.3-0.7,0.3c-1,0.1-1.8-0.4-1.9-1.3
		c-0.1-0.5,0.3-1,0.9-1.1c0.9-0.2,1.8,0.3,2.1,1.2C223.6,144.9,223.6,145,223.6,145.2z"/>
	<path class="st5" d="M221.4,151.8c-1,0-1.7-0.4-1.9-1.1c-0.1-0.5,0.3-1,0.8-1.1c1-0.2,1.9,0.3,2.1,1.1c0.1,0.3-0.1,0.6-0.3,0.9
		C221.9,151.8,221.6,151.8,221.4,151.8z"/>
	<path class="st5" d="M236.5,136.8c-0.4-0.1-0.8-0.2-1.1-0.3c-0.5-0.2-0.7-0.9-0.4-1.3c0.2-0.3,0.7-0.6,1-0.6c0.4,0,0.8,0.3,1.1,0.6
		c0.2,0.2,0.4,0.7,0.3,0.9C237.2,136.3,236.8,136.5,236.5,136.8z"/>
	<path class="st5" d="M213.9,150c-1,0.1-1.7-0.5-1.7-1.1c0-0.4,0.5-0.9,1.1-1c0.8-0.1,1.6,0.5,1.4,1.1
		C214.6,149.4,214.1,149.7,213.9,150z"/>
	<path class="st5" d="M222.6,132.4c0.3-0.1,0.5-0.4,0.7-0.3c0.2,0,0.3,0.3,0.4,0.5c-0.2,0.1-0.4,0.3-0.6,0.3
		C223,132.9,222.9,132.6,222.6,132.4z"/>
</g>
</svg>
