<?xml version="1.0" encoding="utf-8"?>
<!-- Generator: Adobe Illustrator 25.1.0, SVG Export Plug-In . SVG Version: 6.00 Build 0)  -->
<svg version="1.1" id="Capa_1" xmlns="http://www.w3.org/2000/svg" xmlns:xlink="http://www.w3.org/1999/xlink" x="0px" y="0px"
	 viewBox="0 0 89.9 32.3" style="enable-background:new 0 0 89.9 32.3;" xml:space="preserve">
<style type="text/css">
	.st0{fill:none;}
	.st1{fill:none;stroke:#FFFFFF;stroke-width:6;stroke-linecap:round;stroke-linejoin:round;}
	.st2{fill:none;stroke:#EFEF00;stroke-width:6;stroke-linecap:round;stroke-linejoin:round;}
	.st3{fill:none;stroke:#00CA00;stroke-width:6;stroke-linecap:round;}
	.st4{fill:none;stroke:#19A501;stroke-width:6;stroke-linecap:round;stroke-linejoin:round;}
	.st5{fill:none;stroke:#00CD00;stroke-width:6;stroke-linecap:round;stroke-linejoin:round;}
	.st6{fill:none;stroke:#FCFCFC;stroke-width:6;stroke-linecap:round;}
	.st7{fill:#19A501;}
	.st8{fill:#FFFFFF;}
	.st9{fill:#EFEF00;}
	.st10{fill:#00CA00;}
	.st11{fill:#00CD00;}
	.st12{fill:#FCFCFC;}
	.st13{fill:#00DD00;}
	.st14{fill:none;stroke:#042B67;stroke-width:2;}
	.st15{fill:#042B67;}
	.st16{fill:#556373;}
	.st17{fill:#96A6B0;}
	.st18{fill:none;stroke:#00DD00;stroke-width:6;stroke-linecap:round;stroke-linejoin:round;}
	.st19{fill:none;stroke:#00CA00;stroke-width:6;stroke-linecap:round;stroke-linejoin:round;}
	.st20{fill:none;stroke:#008100;stroke-width:6;stroke-linecap:round;}
	.st21{fill:none;stroke:#008100;stroke-width:7.5227;stroke-linecap:round;}
</style>
<g>
	<g>
		<path class="st8" d="M30.7,6.5H17.5c-1.7,0-3-1.3-3-3s1.3-3,3-3h13.2c1.7,0,3,1.3,3,3S32.4,6.5,30.7,6.5z"/>
		<path class="st8" d="M17.1,6.5H3.9c-1.7,0-3-1.3-3-3s1.3-3,3-3h13.2c1.7,0,3,1.3,3,3S18.8,6.5,17.1,6.5z"/>
		<path class="st8" d="M30.7,6.5H17.5c-1.7,0-3-1.3-3-3s1.3-3,3-3h13.2c1.7,0,3,1.3,3,3S32.4,6.5,30.7,6.5z"/>
		<path class="st13" d="M17.1,6.5H3.9c-1.7,0-3-1.3-3-3s1.3-3,3-3h13.2c1.7,0,3,1.3,3,3S18.8,6.5,17.1,6.5z"/>
		<g id="Group_7150" transform="translate(495.686 1124)">
			<path class="st8" d="M-478.5-1092.2h-13.2c-1.7,0-3-1.3-3-3s1.3-3,3-3h13.2c1.7,0,3,1.3,3,3S-476.9-1092.2-478.5-1092.2z"/>
			<path class="st8" d="M-465-1092.2h-13.2c-1.7,0-3-1.3-3-3s1.3-3,3-3h13.2c1.7,0,3,1.3,3,3S-463.3-1092.2-465-1092.2z"/>
			<path class="st8" d="M-483.4-1092.2h-8.4c-1.7,0-3-1.3-3-3s1.3-3,3-3h8.4c1.7,0,3,1.3,3,3S-481.7-1092.2-483.4-1092.2z"/>
			<path class="st9" d="M-465-1092.2h-18.4c-1.7,0-3-1.3-3-3s1.3-3,3-3h18.4c1.7,0,3,1.3,3,3S-463.3-1092.2-465-1092.2z"/>
		</g>
		<path class="st8" d="M23.6,18.9H3.9c-1.7,0-3-1.3-3-3s1.3-3,3-3h19.7c1.7,0,3,1.3,3,3S25.3,18.9,23.6,18.9z"/>
		<path class="st8" d="M3.9,18.9c-0.8,0-1.6-0.3-2.1-0.9c-0.6-0.6-0.9-1.3-0.9-2.1c0-0.2,0-0.4,0.1-0.6c0-0.2,0.1-0.4,0.2-0.6
			c0.1-0.2,0.2-0.4,0.3-0.5c0.1-0.2,0.2-0.3,0.4-0.4c1.1-1.1,3.1-1.1,4.2,0c0.1,0.1,0.3,0.3,0.4,0.4c0.1,0.2,0.2,0.3,0.3,0.5
			c0.1,0.2,0.1,0.4,0.2,0.6c0,0.2,0.1,0.4,0.1,0.6c0,0.8-0.3,1.6-0.9,2.1c-0.1,0.1-0.3,0.3-0.5,0.4c-0.2,0.1-0.3,0.2-0.5,0.3
			c-0.2,0.1-0.4,0.1-0.6,0.2C4.3,18.9,4.1,18.9,3.9,18.9z"/>
		<path class="st11" d="M30.6,18.9H18.8c-1.7,0-3-1.3-3-3s1.3-3,3-3h11.8c1.7,0,3,1.3,3,3S32.3,18.9,30.6,18.9z"/>
		<path class="st9" d="M23.6,18.9H3.9c-1.7,0-3-1.3-3-3s1.3-3,3-3h19.7c1.7,0,3,1.3,3,3S25.3,18.9,23.6,18.9z"/>
		<path class="st8" d="M3.9,18.9c-0.8,0-1.6-0.3-2.1-0.9c-0.6-0.6-0.9-1.3-0.9-2.1c0-0.2,0-0.4,0.1-0.6c0-0.2,0.1-0.4,0.2-0.6
			c0.1-0.2,0.2-0.4,0.3-0.5c0.1-0.2,0.2-0.3,0.4-0.4c1.1-1.1,3.1-1.1,4.2,0c0.1,0.1,0.3,0.3,0.4,0.4c0.1,0.2,0.2,0.3,0.3,0.5
			c0.1,0.2,0.1,0.4,0.2,0.6c0,0.2,0.1,0.4,0.1,0.6c0,0.8-0.3,1.6-0.9,2.1c-0.1,0.1-0.3,0.3-0.5,0.4c-0.2,0.1-0.3,0.2-0.5,0.3
			c-0.2,0.1-0.4,0.1-0.6,0.2C4.3,18.9,4.1,18.9,3.9,18.9z"/>
		<path class="st13" d="M30.6,18.9H18.8c-1.7,0-3-1.3-3-3s1.3-3,3-3h11.8c1.7,0,3,1.3,3,3S32.3,18.9,30.6,18.9z"/>
		<path class="st8" d="M24.2,18.9h-5.4c-1.7,0-3-1.3-3-3s1.3-3,3-3h5.4c1.7,0,3,1.3,3,3S25.9,18.9,24.2,18.9z"/>
	</g>
	<g>
		<path class="st8" d="M73.4,19.7c-1,0-1.9-0.4-2.7-1.1c-1.5-1.5-1.5-3.9,0-5.3L82.5,1.6c1.5-1.5,3.8-1.5,5.3,0
			c1.5,1.5,1.5,3.9,0,5.3L76.1,18.6C75.4,19.4,74.4,19.7,73.4,19.7z"/>
		<path class="st8" d="M61.4,31.8c-1,0-1.9-0.4-2.7-1.1c-1.5-1.5-1.5-3.9,0-5.3l11.7-11.7c1.5-1.5,3.8-1.5,5.3,0
			c1.5,1.5,1.5,3.9,0,5.3L64.1,30.7C63.3,31.4,62.4,31.8,61.4,31.8z"/>
		<path class="st8" d="M73.4,19.7c-1,0-1.9-0.4-2.7-1.1c-1.5-1.5-1.5-3.9,0-5.3L82.5,1.6c1.5-1.5,3.8-1.5,5.3,0
			c1.5,1.5,1.5,3.9,0,5.3L76.1,18.6C75.4,19.4,74.4,19.7,73.4,19.7z"/>
		<path class="st13" d="M61.4,31.8c-1,0-1.9-0.4-2.7-1.1c-1.5-1.5-1.5-3.9,0-5.3l11.7-11.7c1.5-1.5,3.8-1.5,5.3,0
			c1.5,1.5,1.5,3.9,0,5.3L64.1,30.7C63.3,31.4,62.4,31.8,61.4,31.8z"/>
		<path class="st8" d="M73.1,19.7c-1,0-1.9-0.4-2.7-1.1L58.7,6.9c-1.5-1.5-1.5-3.9,0-5.3c1.5-1.5,3.8-1.5,5.3,0l11.7,11.7
			c1.5,1.5,1.5,3.9,0,5.3C75,19.4,74.1,19.7,73.1,19.7z"/>
		<path class="st8" d="M85.2,31.8c-1,0-1.9-0.4-2.7-1.1L70.8,19c-1.5-1.5-1.5-3.9,0-5.3c1.5-1.5,3.8-1.5,5.3,0l11.7,11.7
			c1.5,1.5,1.5,3.9,0,5.3C87.1,31.4,86.1,31.8,85.2,31.8z"/>
		<path class="st8" d="M68.8,15.4c-1,0-1.9-0.4-2.7-1.1l-7.4-7.4c-1.5-1.5-1.5-3.9,0-5.3c1.5-1.5,3.8-1.5,5.3,0L71.5,9
			c1.5,1.5,1.5,3.9,0,5.3C70.7,15.1,69.8,15.4,68.8,15.4z"/>
		<path class="st9" d="M85.2,31.8c-1,0-1.9-0.4-2.7-1.1L66.2,14.3c-1.5-1.5-1.5-3.9,0-5.3c1.5-1.5,3.8-1.5,5.3,0l16.3,16.3
			c1.5,1.5,1.5,3.9,0,5.3C87.1,31.4,86.1,31.8,85.2,31.8z"/>
	</g>
</g>
</svg>
